<svg xmlns="http://www.w3.org/2000/svg" viewBox="0 0 500 500"><g id="background-complete"><polygon points="34.76 422.04 34.76 462.26 93.58 462.26 158.46 462.26 158.46 422.04 34.76 422.04" style="fill:#f5f5f5"></polygon><polygon points="29.57 410.79 29.57 422.04 162.78 422.04 162.78 410.79 93.58 410.79 29.57 410.79" style="fill:#ebebeb"></polygon><polygon points="96.18 462.26 158.46 462.26 158.46 422.04 162.78 422.04 162.78 410.79 93.58 410.79 93.58 421 96.18 462.26" style="fill:#ebebeb"></polygon><rect x="52.06" y="428.52" width="25.09" height="6.05" style="fill:#e0e0e0"></rect><rect x="48.83" y="442.15" width="32.21" height="12.79" style="fill:#fff"></rect><path d="M210.73,275.07a22.7,22.7,0,0,1,5.7-1.88l1.63-5.32,9.19.68.82,5.51a22.54,22.54,0,0,1,5.37,2.7l4.92-2.61,6,7-3.31,4.48a22.63,22.63,0,0,1,1.88,5.71l5.32,1.63-.68,9.18-5.51.83a22.48,22.48,0,0,1-2.7,5.36l2.61,4.92-7,6-4.48-3.31a22.7,22.7,0,0,1-5.7,1.88l-1.63,5.32-9.19-.68-.83-5.51a22.48,22.48,0,0,1-5.36-2.7l-4.92,2.61-6-7,3.31-4.47a22.9,22.9,0,0,1-1.88-5.71L193,298.07l.68-9.19,5.51-.82a22.54,22.54,0,0,1,2.7-5.37l-2.61-4.91,7-6,4.48,3.31Zm3.76,12.67a9.88,9.88,0,1,0,13.94,1A9.88,9.88,0,0,0,214.49,287.74Z" style="fill:#ebebeb"></path><path d="M432.1,181.68a19.17,19.17,0,0,1,4.82-1.58l1.38-4.5,7.75.58.7,4.65a19.26,19.26,0,0,1,4.53,2.28l4.15-2.2,5.07,5.89-2.79,3.78a19,19,0,0,1,1.58,4.81l4.5,1.38-.58,7.76-4.65.69a19.07,19.07,0,0,1-2.28,4.53l2.2,4.15L452.59,219l-3.78-2.8a19,19,0,0,1-4.81,1.59l-1.38,4.49-7.76-.58-.69-4.65a19.07,19.07,0,0,1-4.53-2.28L425.49,217l-5.08-5.9,2.8-3.77a19.2,19.2,0,0,1-1.59-4.82l-4.49-1.38.58-7.75,4.65-.7a18.88,18.88,0,0,1,2.28-4.53L422.43,184l5.89-5.07,3.78,2.79Zm3.18,10.7a8.34,8.34,0,1,0,11.77.88A8.36,8.36,0,0,0,435.28,192.38Z" style="fill:#ebebeb"></path><path d="M264.89,307.3a14,14,0,0,1,3.67-1.21l1.05-3.43,5.91.44.53,3.54a14.59,14.59,0,0,1,3.46,1.74l3.16-1.68,3.87,4.5-2.13,2.88a14.24,14.24,0,0,1,1.21,3.67l3.43,1.05-.44,5.91-3.55.53a14.52,14.52,0,0,1-1.74,3.45l1.68,3.17-4.49,3.87-2.88-2.13a14.77,14.77,0,0,1-3.67,1.21l-1,3.42-5.92-.44-.53-3.54a14.71,14.71,0,0,1-3.45-1.74l-3.16,1.68L256,329.7l2.13-2.88a14.44,14.44,0,0,1-1.21-3.68l-3.43-1,.44-5.92,3.55-.53a14.52,14.52,0,0,1,1.74-3.45L257.52,309l4.49-3.87,2.88,2.14Zm2.42,8.15a6.36,6.36,0,1,0,9,.67A6.36,6.36,0,0,0,267.31,315.45Z" style="fill:#ebebeb"></path><path d="M44.23,170.22a22.7,22.7,0,0,1,5.7-1.88L51.57,163l9.18.68.83,5.51a22.48,22.48,0,0,1,5.36,2.7l4.92-2.61,6,7-3.31,4.48a22.63,22.63,0,0,1,1.88,5.71l5.32,1.63-.68,9.18-5.51.83a22.48,22.48,0,0,1-2.7,5.36l2.61,4.92-7,6L64,211.09a22.7,22.7,0,0,1-5.7,1.88l-1.63,5.33-9.19-.69-.82-5.51a22.54,22.54,0,0,1-5.37-2.7L36.4,212l-6-7,3.31-4.47a22.9,22.9,0,0,1-1.88-5.71l-5.32-1.63.68-9.19,5.51-.82a22.54,22.54,0,0,1,2.7-5.37l-2.61-4.91,7-6,4.48,3.31ZM48,182.89a9.89,9.89,0,1,0,13.94,1A9.88,9.88,0,0,0,48,182.89Z" style="fill:#ebebeb"></path></g><g id="background-simple"><path d="M343.16,43.87l-2,1.2c-16.7,10.14-26.77,28.46-25.55,47.78a49.94,49.94,0,0,0,1,7.39,55,55,0,0,0,34.05,39.18c10,3.73,21.52,4.77,29.46,11.84,10.34,9.2,10.66,24.82,10.23,38.55s-.06,29.37,10.31,38.52c6.5,5.74,15.74,7.56,24.44,7.1,23-1.23,43.64-17.28,53.88-37.7s11.16-44.45,6.65-66.79c-6.31-31.31-23.63-61.07-50.4-79S372,29.55,343.16,43.87Z" style="fill:#ebebeb"></path><path d="M177,360.92l1.09-1.49c9.18-12.54,11-29.08,4.2-42.9a40,40,0,0,0-3-5.13,43.72,43.72,0,0,0-37-18.4c-8.49.31-17.27,3.06-25.26.28-10.4-3.61-15.4-15-19.28-25.21s-8.91-21.6-19.33-25.16c-6.52-2.24-13.87-.76-20.12,2.24-16.56,7.92-26.8,26-28.1,44.13s5.36,36.07,15.49,51.12c14.18,21.08,36,37.67,61.12,42.66S160.11,380.25,177,360.92Z" style="fill:#ebebeb"></path><circle cx="451.13" cy="262.81" r="11.71" style="fill:#ebebeb"></circle><circle cx="244.03" cy="333.86" r="21.66" transform="translate(-164.6 270.34) rotate(-45)" style="fill:#ebebeb"></circle></g><g id="Table"><path d="M462.63,462.26c0,.15-95.21.26-212.62.26s-212.64-.11-212.64-.26S132.56,462,250,462,462.63,462.12,462.63,462.26Z" style="fill:#263238"></path></g><g id="Plant"><path d="M102.66,421.5s-21.28-24.5-29.31-49-4.22-21.68-4.22-21.68S80,374.62,88.21,386.11s22.88,28.36,22.88,28.36Z" style="fill:#455a64"></path><path d="M106.9,354.64a1.24,1.24,0,0,0-2.31.79c1.3,8.61,4.11,28.8,4,41.89-.15,17,0,23.59,0,23.59h8.86s-1.57-35.17-3.58-45.89C112.47,367.5,109.49,359.16,106.9,354.64Z" style="fill:#455a64"></path><path d="M111.73,418.05A93.57,93.57,0,0,0,119,391.6c.73-6.26-.57-14.72-2.51-26a70.91,70.91,0,0,1-1.12-12.52,2.11,2.11,0,0,1,4-1c1.07,1.9,4.16,8.42,5,12.51,2.14,11.15,4.57,16.72,2.72,27.3s-8.72,26.87-8.72,26.87Z" style="fill:#455a64"></path><path d="M119.71,418.76s23.36-50.21,25-57.66,7.13-24.61,7.78-23.64,1.62,10-2.59,20.4-22.19,62.43-22.19,62.43h-8" style="fill:#455a64"></path><path d="M109.17,416.52a7.4,7.4,0,0,1-.65-.45c-.42-.32-1-.76-1.81-1.39a81.47,81.47,0,0,1-6.28-5.54,105.28,105.28,0,0,1-17-21.76,141.51,141.51,0,0,1-11.57-25.06c-1.18-3.34-2-6.07-2.59-8-.29-.95-.48-1.69-.62-2.19a3.6,3.6,0,0,1-.18-.78,6.56,6.56,0,0,1,.27.75c.18.54.42,1.26.71,2.16.62,1.88,1.52,4.59,2.74,7.9a151.19,151.19,0,0,0,11.67,24.93,110,110,0,0,0,16.77,21.76c2.5,2.48,4.64,4.38,6.15,5.64.75.65,1.35,1.12,1.75,1.46A3.71,3.71,0,0,1,109.17,416.52Z" style="fill:#263238"></path><path d="M111.73,392.43a7.8,7.8,0,0,1-.21-1.48c-.11-1-.26-2.39-.43-4-.37-3.4-1-8.08-1.77-13.23s-1.75-9.78-2.47-13.12c-.34-1.6-.63-2.93-.85-4a7.55,7.55,0,0,1-.26-1.46,9.23,9.23,0,0,1,.45,1.42c.26.92.61,2.26,1,3.92.8,3.33,1.78,8,2.61,13.12s1.35,9.86,1.63,13.27c.14,1.71.23,3.09.27,4.05A8.54,8.54,0,0,1,111.73,392.43Z" style="fill:#263238"></path><path d="M117.2,351.68a4.07,4.07,0,0,1,.28.64c.17.47.41,1.09.7,1.87s.66,1.8,1,3,.8,2.5,1.14,4l.57,2.36c.2.82.34,1.69.52,2.58.38,1.78.62,3.72.9,5.75a92.7,92.7,0,0,1,.56,13.3,93.11,93.11,0,0,1-1.51,13.24c-.43,2-.8,3.91-1.31,5.67-.24.87-.44,1.73-.7,2.54L118.6,409c-.44,1.48-1,2.78-1.42,3.93s-.84,2.12-1.21,2.91-.62,1.35-.83,1.81a6.46,6.46,0,0,1-.32.62,2.82,2.82,0,0,1,.23-.66c.18-.47.43-1.08.74-1.85s.74-1.77,1.13-2.93.93-2.45,1.35-3.94c.23-.74.46-1.51.71-2.31s.44-1.66.67-2.54c.49-1.75.84-3.65,1.26-5.65a88.54,88.54,0,0,0,.94-26.4c-.27-2-.49-3.95-.85-5.72-.17-.89-.3-1.76-.48-2.58s-.37-1.61-.55-2.36c-.31-1.51-.74-2.84-1.06-4s-.64-2.19-.92-3-.45-1.41-.61-1.89A5,5,0,0,1,117.2,351.68Z" style="fill:#263238"></path><path d="M152.2,338.47a.74.74,0,0,1,0,.22l-.1.65c-.11.57-.24,1.42-.46,2.5-.46,2.16-1.21,5.27-2.38,9s-2.76,8.2-4.65,13.06-4.07,10.15-6.15,15.79-3.73,11.12-5.25,16.11-2.95,9.47-4.33,13.16a82.43,82.43,0,0,1-3.69,8.59c-.48,1-.91,1.74-1.19,2.25l-.32.57a.88.88,0,0,1-.13.19s0-.08.08-.21.17-.36.28-.6c.25-.52.65-1.28,1.1-2.28.94-2,2.21-4.92,3.54-8.63s2.73-8.18,4.22-13.17,3.11-10.51,5.22-16.15,4.29-10.94,6.19-15.79,3.54-9.25,4.75-13,2-6.84,2.52-9c.25-1.07.41-1.91.55-2.48l.15-.64C152.17,338.54,152.19,338.46,152.2,338.47Z" style="fill:#263238"></path><path d="M80.15,327.37a2,2,0,0,0-3.31,2.06A58.18,58.18,0,0,0,79.77,337c3.22,6.82,12.65,31.31,17.07,44.77s10.64,38.54,10.64,38.54l9.43-1.53s-8.63-41.23-17.06-56.09C93.08,350.74,86.3,333.49,80.15,327.37Z" style="fill:#455a64"></path><path d="M99.42,390.16a6.51,6.51,0,0,1,.49,1.13c.28.74.66,1.82,1.08,3.17.87,2.69,1.94,6.44,3,10.62s2,8,2.57,10.73c.29,1.3.52,2.4.71,3.27a6.11,6.11,0,0,1,.2,1.21,5.84,5.84,0,0,1-.38-1.17l-.87-3.23-2.72-10.69c-1.07-4.17-2.07-7.93-2.85-10.64-.38-1.28-.69-2.36-.94-3.21A6.54,6.54,0,0,1,99.42,390.16Z" style="fill:#263238"></path><path d="M112.22,419.53a1,1,0,0,1-.06-.26c0-.19-.06-.44-.1-.74-.1-.65-.19-1.62-.39-2.85-.35-2.48-1-6.05-2-10.41a147.76,147.76,0,0,0-4.41-15.07c-1.94-5.58-4.36-11.62-7.11-17.87-5.55-12.48-11.09-23.55-14.74-31.74-1.84-4.08-3.26-7.42-4.2-9.74-.48-1.16-.82-2.07-1.06-2.68-.11-.29-.2-.52-.26-.71a1,1,0,0,1-.08-.24s0,.07.12.22l.31.69,1.15,2.64c1,2.3,2.46,5.61,4.34,9.67,3.73,8.15,9.32,19.19,14.87,31.69,2.76,6.26,5.18,12.31,7.09,17.92A143.14,143.14,0,0,1,110,405.19a103.61,103.61,0,0,1,1.82,10.46c.17,1.24.23,2.22.3,2.87l0,.75A1.28,1.28,0,0,1,112.22,419.53Z" style="fill:#263238"></path><path d="M116.91,418.76a11.57,11.57,0,0,1-.32-1.58c-.18-1.11-.43-2.57-.73-4.34-.65-3.65-1.64-8.69-3.07-14.16s-3-10.37-4.23-13.87c-.6-1.69-1.1-3.08-1.47-4.14a10.33,10.33,0,0,1-.51-1.54,8.8,8.8,0,0,1,.69,1.47c.4.95,1,2.35,1.62,4.09a135.9,135.9,0,0,1,4.38,13.86c1.43,5.5,2.37,10.56,2.94,14.23.27,1.84.47,3.33.58,4.37A9.15,9.15,0,0,1,116.91,418.76Z" style="fill:#263238"></path><rect x="99.45" y="417.41" width="36.81" height="44.85" style="fill:#FF725E"></rect><g style="opacity:0.30000000000000004"><rect x="99.45" y="417.41" width="36.81" height="44.85"></rect></g><rect x="91.86" y="417.41" width="32.66" height="44.85" style="fill:#FF725E"></rect></g><g id="circuit-board"><path d="M279.34,217.38a19.19,19.19,0,0,1,17.82-19.14V107.82a19.22,19.22,0,0,1,0-38.43V56.63A13.6,13.6,0,0,0,283.56,43H66.81A13.6,13.6,0,0,0,53.2,56.63V69.39a19.22,19.22,0,0,1,0,38.43V273.38A13.61,13.61,0,0,0,66.81,287h50.92v-26.7a9.28,9.28,0,0,1,8.47-9.36,9.07,9.07,0,0,1,9.67,9.05v27H283.56a13.6,13.6,0,0,0,13.6-13.61V236.52A19.19,19.19,0,0,1,279.34,217.38Z" style="fill:#FF725E"></path><circle cx="276.41" cy="262.81" r="11.71" style="fill:#fff"></circle><circle cx="276.55" cy="262.81" r="5.81" style="fill:#FF725E"></circle><g style="opacity:0.30000000000000004"><polygon points="251.31 98.81 251.31 97.29 249.35 97.29 249.35 92.73 246.17 92.73 246.17 90.77 244.65 90.77 244.65 92.73 242.12 92.73 242.12 90.77 240.6 90.77 240.6 92.73 238.06 92.73 238.06 90.77 236.54 90.77 236.54 92.73 234.01 92.73 234.01 90.77 232.49 90.77 232.49 92.73 229.95 92.73 229.95 90.77 228.43 90.77 228.43 92.73 225.9 92.73 225.9 90.77 224.38 90.77 224.38 92.73 221.79 92.73 221.79 90.77 220.27 90.77 220.27 92.73 217.73 92.73 217.73 90.77 216.21 90.77 216.21 92.73 213.68 92.73 213.68 90.77 212.16 90.77 212.16 92.73 209.62 92.73 209.62 90.77 208.1 90.77 208.1 92.73 205.57 92.73 205.57 90.77 204.05 90.77 204.05 92.73 201.51 92.73 201.51 90.77 199.99 90.77 199.99 92.73 196.66 92.73 196.66 97.29 194.56 97.29 194.56 98.81 196.66 98.81 196.66 101.34 194.56 101.34 194.56 102.86 196.66 102.86 196.66 105.4 194.56 105.4 194.56 106.92 196.66 106.92 196.66 109.45 194.56 109.45 194.56 110.97 196.66 110.97 196.66 113.51 194.56 113.51 194.56 115.03 196.66 115.03 196.66 117.56 194.56 117.56 194.56 119.08 196.66 119.08 196.66 121.67 194.56 121.67 194.56 123.19 196.66 123.19 196.66 125.72 194.56 125.72 194.56 127.25 196.66 127.25 196.66 129.78 194.56 129.78 194.56 131.3 196.66 131.3 196.66 133.84 194.56 133.84 194.56 135.36 196.66 135.36 196.66 137.89 194.56 137.89 194.56 139.41 196.66 139.41 196.66 141.94 194.56 141.94 194.56 143.47 196.66 143.47 196.66 145.43 199.99 145.43 199.99 147.52 201.51 147.52 201.51 145.43 204.05 145.43 204.05 147.52 205.57 147.52 205.57 145.43 208.1 145.43 208.1 147.52 209.62 147.52 209.62 145.43 212.16 145.43 212.16 147.52 213.68 147.52 213.68 145.43 216.21 145.43 216.21 147.52 217.73 147.52 217.73 145.43 220.27 145.43 220.27 147.52 221.79 147.52 221.79 145.43 224.38 145.43 224.38 147.52 225.9 147.52 225.9 145.43 228.43 145.43 228.43 147.52 229.95 147.52 229.95 145.43 232.49 145.43 232.49 147.52 234.01 147.52 234.01 145.43 236.54 145.43 236.54 147.52 238.06 147.52 238.06 145.43 240.6 145.43 240.6 147.52 242.12 147.52 242.12 145.43 244.65 145.43 244.65 147.52 246.17 147.52 246.17 145.43 249.35 145.43 249.35 143.47 251.31 143.47 251.31 141.94 249.35 141.94 249.35 139.41 251.31 139.41 251.31 137.89 249.35 137.89 249.35 135.36 251.31 135.36 251.31 133.84 249.35 133.84 249.35 131.3 251.31 131.3 251.31 129.78 249.35 129.78 249.35 127.25 251.31 127.25 251.31 125.72 249.35 125.72 249.35 123.19 251.31 123.19 251.31 121.67 249.35 121.67 249.35 119.08 251.31 119.08 251.31 117.56 249.35 117.56 249.35 115.03 251.31 115.03 251.31 113.51 249.35 113.51 249.35 110.97 251.31 110.97 251.31 109.45 249.35 109.45 249.35 106.92 251.31 106.92 251.31 105.4 249.35 105.4 249.35 102.86 251.31 102.86 251.31 101.34 249.35 101.34 249.35 98.81 251.31 98.81"></polygon></g><rect x="77.04" y="238.62" width="16" height="48.37" style="fill:#ebebeb"></rect><rect x="150.95" y="238.62" width="16" height="48.37" style="fill:#ebebeb"></rect><rect x="179.14" y="238.62" width="16" height="48.37" style="fill:#ebebeb"></rect><rect x="207.33" y="238.62" width="16" height="48.37" style="fill:#ebebeb"></rect><rect x="235.53" y="238.62" width="16" height="48.37" style="fill:#ebebeb"></rect><path d="M82.86,243.8h-1V223.87a.79.79,0,0,0-.23-.56L68.15,209.83a1.8,1.8,0,0,1-.52-1.26V118.71a1.8,1.8,0,0,1,.52-1.27l8.16-8.16a1.78,1.78,0,0,1,1.27-.52h20v1h-20A.79.79,0,0,0,77,110l-8.16,8.16a.77.77,0,0,0-.23.56v89.86a.79.79,0,0,0,.23.56L82.34,222.6a1.82,1.82,0,0,1,.52,1.27Z" style="fill:#fff"></path><path d="M89.13,242.62h-1V221.23a.75.75,0,0,0-.23-.55L75.08,207.86a1.78,1.78,0,0,1-.52-1.29l1-83.66a1.78,1.78,0,0,1,.55-1.26l5.4-5.22a1.79,1.79,0,0,1,1.2-.51l21.41-.51,0,1-21.41.51a.8.8,0,0,0-.53.23l-5.4,5.22a.78.78,0,0,0-.24.56l-1,83.65a.77.77,0,0,0,.23.57L88.61,220a1.77,1.77,0,0,1,.52,1.26Z" style="fill:#fff"></path><path d="M99,147.7h-9a2,2,0,0,1-2-2v-6.42a2,2,0,0,1,2-2h9v1h-9a1,1,0,0,0-1,1v6.42a1,1,0,0,0,1,1h9Z" style="fill:#fff"></path><path d="M156.21,238.62h-1v-8.55a.79.79,0,0,0-.79-.79H114a1.77,1.77,0,0,1-1.26-.52l-29-29a1.78,1.78,0,0,1-.52-1.27V129.35A1.79,1.79,0,0,1,85,127.56h9.5v1H85a.79.79,0,0,0-.79.79V198.5a.77.77,0,0,0,.23.56l29,29a.79.79,0,0,0,.56.23h40.42a1.79,1.79,0,0,1,1.79,1.79Z" style="fill:#fff"></path><path d="M162.51,238.62h-1V221.73a.79.79,0,0,0-.79-.79H121a1.79,1.79,0,0,1-1.79-1.79V134.26a.79.79,0,0,0-.79-.79h-6.81v-1h6.81a1.79,1.79,0,0,1,1.79,1.79v84.89a.79.79,0,0,0,.79.79h39.71a1.79,1.79,0,0,1,1.79,1.79Z" style="fill:#fff"></path><path d="M94.52,102.45h-13a1.56,1.56,0,0,1-1.56-1.56V62.29a1.56,1.56,0,0,1,1.56-1.56H138v1H81.49a.56.56,0,0,0-.56.56v38.6a.56.56,0,0,0,.56.56h13Z" style="fill:#fff"></path><path d="M244,238.62h-1v-11a3.07,3.07,0,0,1,1.76-2.77l19.64-9.15a2.07,2.07,0,0,0,1.19-1.87V81.3a2.1,2.1,0,0,0-.67-1.52l-19.07-17.5a2.09,2.09,0,0,0-1.4-.55H160v-1h84.44a3.06,3.06,0,0,1,2.07.81l19.07,17.51a3.06,3.06,0,0,1,1,2.25V213.85a3.08,3.08,0,0,1-1.77,2.78l-19.63,9.15a2,2,0,0,0-1.19,1.86Z" style="fill:#fff"></path><path d="M124.21,105.6H113.47v-1h10.74a.56.56,0,0,0,.56-.56V68.94a1.56,1.56,0,0,1,1.56-1.56H139.8v1H126.33a.56.56,0,0,0-.56.56V104A1.56,1.56,0,0,1,124.21,105.6Z" style="fill:#fff"></path><path d="M183.91,240.19h-1V215.66a.79.79,0,0,0-.79-.79H128.24a1.79,1.79,0,0,1-1.79-1.79v-94.6a1.79,1.79,0,0,1,1.79-1.79h11.69a.79.79,0,0,0,.79-.79V78.15h1V115.9a1.79,1.79,0,0,1-1.79,1.79H128.24a.8.8,0,0,0-.79.79v94.6a.79.79,0,0,0,.79.79h53.88a1.79,1.79,0,0,1,1.79,1.79Z" style="fill:#fff"></path><path d="M128.68,109.76H113.47v-1h15.21a.56.56,0,0,0,.56-.56V73.58A1.56,1.56,0,0,1,130.8,72h9v1h-9a.56.56,0,0,0-.56.56V108.2A1.56,1.56,0,0,1,128.68,109.76Z" style="fill:#fff"></path><path d="M116.26,91.39h-2.79v-1h2.79a.56.56,0,0,0,.56-.56V70.58a.56.56,0,0,0-.56-.56H89.61a.56.56,0,0,0-.56.56V89.83a.56.56,0,0,0,.56.56h4.91v1H89.61a1.56,1.56,0,0,1-1.56-1.56V70.58A1.56,1.56,0,0,1,89.61,69h26.65a1.56,1.56,0,0,1,1.56,1.56V89.83A1.56,1.56,0,0,1,116.26,91.39Z" style="fill:#fff"></path><path d="M215.83,162h-1V156.2a2.71,2.71,0,0,1,2.71-2.7h38a1.7,1.7,0,0,0,1.7-1.7V118a1.71,1.71,0,0,0-1.7-1.71H244v-1h11.54a2.7,2.7,0,0,1,2.7,2.71V151.8a2.7,2.7,0,0,1-2.7,2.7h-38a1.71,1.71,0,0,0-1.71,1.7Z" style="fill:#fff"></path><rect x="189.18" y="209.1" width="1" height="31.09" style="fill:#fff"></rect><path d="M249.34,238.62h-1v-9.53l23-10.83.41-139.89L247.6,55.71H155.07a.85.85,0,0,0-.84.84V59h-1V56.55a1.84,1.84,0,0,1,1.84-1.84H248l24.74,23.22v.22l-.42,140.75-23,10.82Z" style="fill:#fff"></path><path d="M213.49,240.19h-1v-14.5a2.07,2.07,0,0,0-.59-1.43L202,214.35a3,3,0,0,1-.88-2.13v-4.47h1v4.47a2,2,0,0,0,.59,1.43l9.91,9.91a3,3,0,0,1,.88,2.13Z" style="fill:#fff"></path><path d="M219.38,238.62h-1V224.19a3,3,0,0,1,.94-2.19c2-1.85,7-6.15,9.14-7.91a1.89,1.89,0,0,0,.67-1.44v-4.9h1v4.9a2.9,2.9,0,0,1-1,2.21c-2.09,1.75-7.16,6-9.09,7.86a2,2,0,0,0-.63,1.47Z" style="fill:#fff"></path><path d="M209.36,163.45h-1v-14a2.7,2.7,0,0,1,2.7-2.7h24.79a1.07,1.07,0,0,0,1.07-1.07v-3.45h1v3.45a2.07,2.07,0,0,1-2.07,2.07H211.06a1.7,1.7,0,0,0-1.7,1.7Z" style="fill:#fff"></path><path d="M237.42,90V89a.44.44,0,0,0-.4.24c0-.13.27-1.14,0-8.58a2.06,2.06,0,0,0-2.06-2h-33.5a3.07,3.07,0,0,1-3.06-3.06V68.81a2.07,2.07,0,0,0-2.06-2.07H160v-1h36.3a3.07,3.07,0,0,1,3.06,3.07v6.78a2.06,2.06,0,0,0,2.06,2.06H235A3.06,3.06,0,0,1,238,80.6c.31,8.67,0,9-.21,9.21l-.14.16Z" style="fill:#fff"></path><path d="M167.45,163.45h-1v-5.51a1.32,1.32,0,0,0-1.32-1.32H134.39a2.32,2.32,0,0,1-2.32-2.32V123.09a2.32,2.32,0,0,1,2.32-2.32h9.5a4.48,4.48,0,0,0,4.47-4.47V77.86h1V116.3a5.48,5.48,0,0,1-5.47,5.47h-9.5a1.32,1.32,0,0,0-1.32,1.32V154.3a1.33,1.33,0,0,0,1.32,1.32h30.74a2.32,2.32,0,0,1,2.32,2.32Z" style="fill:#fff"></path><path d="M182.29,163.45h-1V157a3.78,3.78,0,0,0-1.12-2.71l-21.91-21.91a5.91,5.91,0,0,1-1.73-4.12c-.05-6.95-.21-30.36-.05-39.92a4.85,4.85,0,0,1,4.83-4.75h64a4.84,4.84,0,0,1,4.84,4.83v2.47h-1V88.42a3.84,3.84,0,0,0-3.84-3.83h-64a3.84,3.84,0,0,0-3.83,3.77c-.16,9.54,0,33,.05,39.89a4.88,4.88,0,0,0,1.44,3.43l21.91,21.9a4.83,4.83,0,0,1,1.41,3.42Z" style="fill:#fff"></path><path d="M193.65,163.45h-1v-7.16a3.84,3.84,0,0,0-1.12-2.71l-25.69-25.69a4.76,4.76,0,0,1-1.42-3.42V97.19a4.84,4.84,0,0,1,4.84-4.84h25.88v1H169.26a3.84,3.84,0,0,0-3.84,3.84v27.28a3.8,3.8,0,0,0,1.12,2.71l25.69,25.7a4.76,4.76,0,0,1,1.42,3.41Z" style="fill:#fff"></path><path d="M276.41,275a12.22,12.22,0,1,1,12.21-12.21A12.23,12.23,0,0,1,276.41,275Zm0-23.43a11.22,11.22,0,1,0,11.21,11.22A11.23,11.23,0,0,0,276.41,251.59Z" style="fill:#fff"></path><g style="opacity:0.30000000000000004"><polygon points="163.38 61.21 137.44 61.21 137.44 81.75 140 81.75 140 83.82 141.52 83.82 141.52 81.75 144.05 81.75 144.05 83.82 145.57 83.82 145.57 81.75 148.11 81.75 148.11 83.82 149.63 83.82 149.63 81.75 152.16 81.75 152.16 83.82 153.68 83.82 153.68 81.75 156.22 81.75 156.22 83.82 157.74 83.82 157.74 81.75 160.27 81.75 160.27 83.82 161.79 83.82 161.79 81.75 163.38 81.75 163.38 61.21"></polygon></g><rect x="135.68" y="57.62" width="25.94" height="20.53" style="fill:#263238"></rect><rect x="138.24" y="76.31" width="1.52" height="3.91" style="fill:#e0e0e0"></rect><rect x="142.3" y="76.31" width="1.52" height="3.91" style="fill:#e0e0e0"></rect><rect x="146.35" y="76.31" width="1.52" height="3.91" style="fill:#e0e0e0"></rect><rect x="150.41" y="76.31" width="1.52" height="3.91" style="fill:#e0e0e0"></rect><rect x="154.46" y="76.31" width="1.52" height="3.91" style="fill:#e0e0e0"></rect><rect x="158.52" y="76.31" width="1.52" height="3.91" style="fill:#e0e0e0"></rect><circle cx="157.98" cy="61.75" r="1.75" style="fill:#455a64"></circle><g style="opacity:0.30000000000000004"><polygon points="260.93 166.28 136.1 165.84 136.1 212.94 140.8 212.94 140.8 214.49 142.32 214.49 142.32 212.94 144.85 212.94 144.85 214.49 146.37 214.49 146.37 212.94 148.91 212.94 148.91 214.49 150.43 214.49 150.43 212.94 152.96 212.94 152.96 214.49 154.48 214.49 154.48 212.94 157.02 212.94 157.02 214.49 158.54 214.49 158.54 212.94 161.07 212.94 161.07 214.49 162.59 214.49 162.59 212.94 165.18 212.94 165.18 214.49 166.7 214.49 166.7 212.94 169.24 212.94 169.24 214.49 170.76 214.49 170.76 212.94 173.29 212.94 173.29 214.49 174.81 214.49 174.81 212.94 177.35 212.94 177.35 214.49 178.87 214.49 178.87 212.94 181.4 212.94 181.4 214.49 182.92 214.49 182.92 212.94 185.46 212.94 185.46 214.49 186.98 214.49 186.98 212.94 190.04 212.94 190.04 214.49 191.56 214.49 191.56 212.94 194.1 212.94 194.1 214.49 195.62 214.49 195.62 212.94 198.15 212.94 198.15 214.49 199.67 214.49 199.67 212.94 202.21 212.94 202.21 214.49 203.73 214.49 203.73 212.94 206.26 212.94 206.26 214.49 207.78 214.49 207.78 212.94 210.32 212.94 210.32 214.49 211.84 214.49 211.84 212.94 214.43 212.94 214.43 214.49 215.95 214.49 215.95 212.94 218.48 212.94 218.48 214.49 220 214.49 220 212.94 222.53 212.94 222.53 214.49 224.06 214.49 224.06 212.94 226.59 212.94 226.59 214.49 228.11 214.49 228.11 212.94 230.65 212.94 230.65 214.49 232.17 214.49 232.17 212.94 234.7 212.94 234.7 214.49 236.22 214.49 236.22 212.94 237.93 212.94 237.93 214.49 239.45 214.49 239.45 212.94 241.98 212.94 241.98 214.49 243.5 214.49 243.5 212.94 246.04 212.94 246.04 214.49 247.56 214.49 247.56 212.94 250.09 212.94 250.09 214.49 251.61 214.49 251.61 212.94 254.15 212.94 254.15 214.49 255.67 214.49 255.67 212.94 258.2 212.94 258.2 214.49 259.72 214.49 259.72 212.94 261.25 212.94 260.93 166.28"></polygon></g><rect x="132.56" y="162.01" width="125.16" height="47.1" style="fill:#263238"></rect><rect x="137.27" y="206.74" width="1.52" height="3.91" style="fill:#e0e0e0"></rect><rect x="141.32" y="206.74" width="1.52" height="3.91" style="fill:#e0e0e0"></rect><rect x="145.38" y="206.74" width="1.52" height="3.91" style="fill:#e0e0e0"></rect><rect x="149.43" y="206.74" width="1.52" height="3.91" style="fill:#e0e0e0"></rect><rect x="153.49" y="206.74" width="1.52" height="3.91" style="fill:#e0e0e0"></rect><rect x="157.54" y="206.74" width="1.52" height="3.91" style="fill:#e0e0e0"></rect><rect x="161.65" y="206.74" width="1.52" height="3.91" style="fill:#e0e0e0"></rect><rect x="165.7" y="206.74" width="1.52" height="3.91" style="fill:#e0e0e0"></rect><rect x="169.76" y="206.74" width="1.52" height="3.91" style="fill:#e0e0e0"></rect><rect x="173.81" y="206.74" width="1.52" height="3.91" style="fill:#e0e0e0"></rect><rect x="177.87" y="206.74" width="1.52" height="3.91" style="fill:#e0e0e0"></rect><rect x="181.92" y="206.74" width="1.52" height="3.91" style="fill:#e0e0e0"></rect><rect x="186.51" y="206.74" width="1.52" height="3.91" style="fill:#e0e0e0"></rect><rect x="190.56" y="206.74" width="1.52" height="3.91" style="fill:#e0e0e0"></rect><rect x="194.62" y="206.74" width="1.52" height="3.91" style="fill:#e0e0e0"></rect><rect x="198.67" y="206.74" width="1.52" height="3.91" style="fill:#e0e0e0"></rect><rect x="202.73" y="206.74" width="1.52" height="3.91" style="fill:#e0e0e0"></rect><rect x="206.78" y="206.74" width="1.52" height="3.91" style="fill:#e0e0e0"></rect><rect x="210.89" y="206.74" width="1.52" height="3.91" style="fill:#e0e0e0"></rect><rect x="214.95" y="206.74" width="1.52" height="3.91" style="fill:#e0e0e0"></rect><rect x="219" y="206.74" width="1.52" height="3.91" style="fill:#e0e0e0"></rect><rect x="223.06" y="206.74" width="1.52" height="3.91" style="fill:#e0e0e0"></rect><rect x="227.11" y="206.74" width="1.52" height="3.91" style="fill:#e0e0e0"></rect><rect x="231.17" y="206.74" width="1.52" height="3.91" style="fill:#e0e0e0"></rect><rect x="234.4" y="206.74" width="1.52" height="3.91" style="fill:#e0e0e0"></rect><rect x="238.45" y="206.74" width="1.52" height="3.91" style="fill:#e0e0e0"></rect><rect x="242.5" y="206.74" width="1.52" height="3.91" style="fill:#e0e0e0"></rect><rect x="246.56" y="206.74" width="1.52" height="3.91" style="fill:#e0e0e0"></rect><rect x="250.61" y="206.74" width="1.52" height="3.91" style="fill:#e0e0e0"></rect><rect x="254.67" y="206.74" width="1.52" height="3.91" style="fill:#e0e0e0"></rect><path d="M253.11,201.35c-.15,0-.26-7.92-.26-17.7s.11-17.7.26-17.7.26,7.93.26,17.7S253.25,201.35,253.11,201.35Z" style="fill:#455a64"></path><path d="M251,178.4a30.11,30.11,0,0,1-.26-5.54,30.11,30.11,0,0,1,.26-5.54,30.11,30.11,0,0,1,.26,5.54A30.11,30.11,0,0,1,251,178.4Z" style="fill:#455a64"></path><path d="M200.61,202.07c0,.15-.67.26-1.51.26s-1.5-.11-1.5-.26.67-.26,1.5-.26S200.61,201.93,200.61,202.07Z" style="fill:#455a64"></path><path d="M206.19,202.07c0,.15-.67.26-1.5.26s-1.51-.11-1.51-.26.67-.26,1.51-.26S206.19,201.93,206.19,202.07Z" style="fill:#455a64"></path><path d="M211.77,202.07c0,.15-.67.26-1.5.26s-1.51-.11-1.51-.26.67-.26,1.51-.26S211.77,201.93,211.77,202.07Z" style="fill:#455a64"></path><path d="M217.35,202.07c0,.15-.67.26-1.5.26s-1.51-.11-1.51-.26.68-.26,1.51-.26S217.35,201.93,217.35,202.07Z" style="fill:#455a64"></path><path d="M222.93,202.07c0,.15-.67.26-1.5.26s-1.51-.11-1.51-.26.68-.26,1.51-.26S222.93,201.93,222.93,202.07Z" style="fill:#455a64"></path><path d="M228.51,202.07c0,.15-.67.26-1.5.26s-1.51-.11-1.51-.26.68-.26,1.51-.26S228.51,201.93,228.51,202.07Z" style="fill:#455a64"></path><path d="M234.1,202.07c0,.15-.68.26-1.51.26s-1.5-.11-1.5-.26.67-.26,1.5-.26S234.1,201.93,234.1,202.07Z" style="fill:#455a64"></path><path d="M239.68,202.07c0,.15-.68.26-1.51.26s-1.5-.11-1.5-.26.67-.26,1.5-.26S239.68,201.93,239.68,202.07Z" style="fill:#455a64"></path><g style="opacity:0.30000000000000004"><rect x="99.73" y="81.26" width="18.95" height="71.22"></rect></g><rect x="94.52" y="80.22" width="18.95" height="71.22" style="fill:#263238"></rect><rect x="93.1" y="80.4" width="1.52" height="3.91" transform="translate(11.51 176.22) rotate(-90)" style="fill:#e0e0e0"></rect><rect x="93.1" y="84.44" width="1.52" height="3.91" transform="translate(7.47 180.26) rotate(-90)" style="fill:#e0e0e0"></rect><rect x="93.1" y="88.48" width="1.52" height="3.91" transform="translate(3.43 184.3) rotate(-90)" style="fill:#e0e0e0"></rect><rect x="93.1" y="92.52" width="1.52" height="3.91" transform="translate(-0.62 188.34) rotate(-90)" style="fill:#e0e0e0"></rect><rect x="93.1" y="96.56" width="1.52" height="3.91" transform="translate(-4.66 192.38) rotate(-90)" style="fill:#e0e0e0"></rect><rect x="93.1" y="100.61" width="1.52" height="3.91" transform="translate(-8.7 196.43) rotate(-90)" style="fill:#e0e0e0"></rect><rect x="93.1" y="104.65" width="1.52" height="3.91" transform="translate(-12.74 200.47) rotate(-90)" style="fill:#e0e0e0"></rect><rect x="93.1" y="108.69" width="1.52" height="3.91" transform="translate(-16.78 204.51) rotate(-90)" style="fill:#e0e0e0"></rect><rect x="93.1" y="112.73" width="1.52" height="3.91" transform="translate(-20.83 208.55) rotate(-90)" style="fill:#e0e0e0"></rect><rect x="93.1" y="116.77" width="1.52" height="3.91" transform="translate(-24.87 212.6) rotate(-90)" style="fill:#e0e0e0"></rect><rect x="93.1" y="120.82" width="1.52" height="3.91" transform="translate(-28.91 216.64) rotate(-90)" style="fill:#e0e0e0"></rect><rect x="93.1" y="124.86" width="1.52" height="3.91" transform="translate(-32.95 220.68) rotate(-90)" style="fill:#e0e0e0"></rect><rect x="93.1" y="128.9" width="1.52" height="3.91" transform="translate(-36.99 224.72) rotate(-90)" style="fill:#e0e0e0"></rect><rect x="93.1" y="132.94" width="1.52" height="3.91" transform="translate(-41.04 228.76) rotate(-90)" style="fill:#e0e0e0"></rect><rect x="93.1" y="136.98" width="1.52" height="3.91" transform="translate(-45.08 232.81) rotate(-90)" style="fill:#e0e0e0"></rect><rect x="93.1" y="141.03" width="1.52" height="3.91" transform="translate(-49.12 236.85) rotate(-90)" style="fill:#e0e0e0"></rect><rect x="93.1" y="145.07" width="1.52" height="3.91" transform="translate(-53.16 240.89) rotate(-90)" style="fill:#e0e0e0"></rect><path d="M111,84.09a1.76,1.76,0,1,1-1.75-1.76A1.75,1.75,0,0,1,111,84.09Z" style="fill:#455a64"></path><rect x="191.28" y="89.48" width="52.7" height="52.7" style="fill:#263238"></rect><rect x="194.62" y="87.53" width="1.52" height="3.91" style="fill:#e0e0e0"></rect><rect x="198.67" y="87.53" width="1.52" height="3.91" style="fill:#e0e0e0"></rect><rect x="202.73" y="87.53" width="1.52" height="3.91" style="fill:#e0e0e0"></rect><rect x="206.78" y="87.53" width="1.52" height="3.91" style="fill:#e0e0e0"></rect><rect x="210.84" y="87.53" width="1.52" height="3.91" style="fill:#e0e0e0"></rect><rect x="214.89" y="87.53" width="1.52" height="3.91" style="fill:#e0e0e0"></rect><rect x="219" y="87.53" width="1.52" height="3.91" style="fill:#e0e0e0"></rect><rect x="223.06" y="87.53" width="1.52" height="3.91" style="fill:#e0e0e0"></rect><rect x="227.11" y="87.53" width="1.52" height="3.91" style="fill:#e0e0e0"></rect><rect x="231.17" y="87.53" width="1.52" height="3.91" style="fill:#e0e0e0"></rect><rect x="235.22" y="87.53" width="1.52" height="3.91" style="fill:#e0e0e0"></rect><rect x="239.28" y="87.53" width="1.52" height="3.91" style="fill:#e0e0e0"></rect><rect x="194.62" y="140.36" width="1.52" height="3.91" style="fill:#e0e0e0"></rect><rect x="198.67" y="140.36" width="1.52" height="3.91" style="fill:#e0e0e0"></rect><rect x="202.73" y="140.36" width="1.52" height="3.91" style="fill:#e0e0e0"></rect><rect x="206.78" y="140.36" width="1.52" height="3.91" style="fill:#e0e0e0"></rect><rect x="210.84" y="140.36" width="1.52" height="3.91" style="fill:#e0e0e0"></rect><rect x="214.89" y="140.36" width="1.52" height="3.91" style="fill:#e0e0e0"></rect><rect x="219" y="140.36" width="1.52" height="3.91" style="fill:#e0e0e0"></rect><rect x="223.06" y="140.36" width="1.52" height="3.91" style="fill:#e0e0e0"></rect><rect x="227.11" y="140.36" width="1.52" height="3.91" style="fill:#e0e0e0"></rect><rect x="231.17" y="140.36" width="1.52" height="3.91" style="fill:#e0e0e0"></rect><rect x="235.22" y="140.36" width="1.52" height="3.91" style="fill:#e0e0e0"></rect><rect x="239.28" y="140.36" width="1.52" height="3.91" style="fill:#e0e0e0"></rect><rect x="190.38" y="137.5" width="1.52" height="3.91" transform="translate(51.69 330.6) rotate(-90)" style="fill:#e0e0e0"></rect><rect x="190.38" y="133.45" width="1.52" height="3.91" transform="translate(55.74 326.55) rotate(-90)" style="fill:#e0e0e0"></rect><rect x="190.38" y="129.39" width="1.52" height="3.91" transform="translate(59.8 322.49) rotate(-90)" style="fill:#e0e0e0"></rect><rect x="190.38" y="125.34" width="1.52" height="3.91" transform="translate(63.85 318.44) rotate(-90)" style="fill:#e0e0e0"></rect><rect x="190.38" y="121.28" width="1.52" height="3.91" transform="translate(67.91 314.38) rotate(-90)" style="fill:#e0e0e0"></rect><rect x="190.38" y="117.23" width="1.52" height="3.91" transform="translate(71.96 310.33) rotate(-90)" style="fill:#e0e0e0"></rect><rect x="190.38" y="113.12" width="1.52" height="3.91" transform="translate(76.07 306.22) rotate(-90)" style="fill:#e0e0e0"></rect><rect x="190.38" y="109.06" width="1.52" height="3.91" transform="translate(80.12 302.16) rotate(-90)" style="fill:#e0e0e0"></rect><rect x="190.38" y="105.01" width="1.52" height="3.91" transform="translate(84.18 298.11) rotate(-90)" style="fill:#e0e0e0"></rect><rect x="190.38" y="100.95" width="1.52" height="3.91" transform="translate(88.23 294.05) rotate(-90)" style="fill:#e0e0e0"></rect><rect x="190.38" y="96.9" width="1.52" height="3.91" transform="translate(92.29 290) rotate(-90)" style="fill:#e0e0e0"></rect><rect x="190.38" y="92.84" width="1.52" height="3.91" transform="translate(96.34 285.94) rotate(-90)" style="fill:#e0e0e0"></rect><rect x="243.22" y="137.5" width="1.52" height="3.91" transform="translate(104.52 383.44) rotate(-90)" style="fill:#e0e0e0"></rect><rect x="243.22" y="133.45" width="1.52" height="3.91" transform="translate(108.58 379.38) rotate(-90)" style="fill:#e0e0e0"></rect><rect x="243.22" y="129.39" width="1.52" height="3.91" transform="translate(112.63 375.33) rotate(-90)" style="fill:#e0e0e0"></rect><rect x="243.22" y="125.34" width="1.52" height="3.91" transform="translate(116.69 371.27) rotate(-90)" style="fill:#e0e0e0"></rect><rect x="243.22" y="121.28" width="1.52" height="3.91" transform="translate(120.74 367.22) rotate(-90)" style="fill:#e0e0e0"></rect><rect x="243.22" y="117.23" width="1.52" height="3.91" transform="translate(124.8 363.16) rotate(-90)" style="fill:#e0e0e0"></rect><rect x="243.22" y="113.12" width="1.52" height="3.91" transform="translate(128.91 359.05) rotate(-90)" style="fill:#e0e0e0"></rect><rect x="243.22" y="109.06" width="1.52" height="3.91" transform="translate(132.96 355) rotate(-90)" style="fill:#e0e0e0"></rect><rect x="243.22" y="105.01" width="1.52" height="3.91" transform="translate(137.02 350.94) rotate(-90)" style="fill:#e0e0e0"></rect><rect x="243.22" y="100.95" width="1.52" height="3.91" transform="translate(141.07 346.89) rotate(-90)" style="fill:#e0e0e0"></rect><rect x="243.22" y="96.9" width="1.52" height="3.91" transform="translate(145.12 342.83) rotate(-90)" style="fill:#e0e0e0"></rect><rect x="243.22" y="92.84" width="1.52" height="3.91" transform="translate(149.18 338.78) rotate(-90)" style="fill:#e0e0e0"></rect><circle cx="201.6" cy="99.61" r="4.05" style="fill:#455a64"></circle><path d="M237.9,117.66a83.3,83.3,0,0,1,.26,9.23,83.15,83.15,0,0,1-.26,9.23,80.32,80.32,0,0,1-.26-9.23A80.46,80.46,0,0,1,237.9,117.66Z" style="fill:#455a64"></path><path d="M238.09,113.43c.15,0,.26.55.26,1.22s-.11,1.22-.26,1.22-.26-.54-.26-1.22S238,113.43,238.09,113.43Z" style="fill:#455a64"></path><path d="M276.55,269.12a6.31,6.31,0,1,1,6.31-6.31A6.32,6.32,0,0,1,276.55,269.12Zm0-11.62a5.31,5.31,0,1,0,5.31,5.31A5.31,5.31,0,0,0,276.55,257.5Z" style="fill:#263238"></path></g><g id="Character"><path d="M453.74,377a10.71,10.71,0,0,0,4.78-7.83,13.14,13.14,0,0,1-18-10l-16.05.05a54.66,54.66,0,0,1-4.08,25.86c-.81,1.92-1.72,4.18-.65,6,.94,1.58,3,2,4.81,2.31,8.34,1.33,17,2.65,25.13.39s15.63-9.15,15.75-17.6A12.12,12.12,0,0,1,453.74,377Z" style="fill:#263238"></path><polygon points="251.15 447.68 251.15 462.26 254.12 462.26 254.12 448.02 251.15 447.68" style="fill:#455a64"></polygon><polygon points="259.38 452.96 169.58 435.43 169.19 426.96 261.02 444.55 259.38 452.96" style="fill:#455a64"></polygon><polygon points="182.1 435.83 182.1 462.26 185.07 462.26 185.07 436.46 182.1 435.83" style="fill:#455a64"></polygon><path d="M413.79,280.84c-.9-28.45,0-50.55-3.36-78.82-.42-3.49-2.07-12.33-4.83-16.35-2.17-3.16-8.68-8-13.4-5.09l-3.92,4.35c1.38,8.15,2.73,16.67.28,24.57-2.17,7-7.16,12.88-9,20-1.56,5.95-.79,12.25.06,18.35q2,14.29,4.4,28.51c.54,3.2,1.17,6.54,3.2,9.06,3.66,4.53,10.34,4.81,16.16,4.71,3.55-.06,7.73-.47,9.53-3.53C413.89,284.87,413.85,282.79,413.79,280.84Z" style="fill:#263238"></path><path d="M393.74,182c-.81-2-1.82-4.07-3.41-5.2a3.19,3.19,0,0,0-4.82.92l.24.4c-.92-.48-2,.45-2.23,1.6a8.11,8.11,0,0,0,.27,3.58q1.75,7.62,3.5,15.23a8.37,8.37,0,0,0,1.51,3.72,3.2,3.2,0,0,0,4.36.29,8.13,8.13,0,0,0,2.55-4.56C397,192.8,395.74,187,393.74,182Z" style="fill:#455a64"></path><path d="M381.6,167.05C373,151.61,359.06,142.18,332.38,142c-28.38-.22-70.52,35.43-38,74.51l85.62,23c8.09-3.26,11.69-12.75,12.76-21.4C394.94,200.5,390.22,182.51,381.6,167.05Z" style="fill:#263238"></path><path d="M368.64,169.57l-1.73-8.25-51.48,2c-15.58,1.89-28.51,20.92-25.95,36.41,2.84,17.2,7,38.08,11.91,50.27,9.9,24.51,30.14,23.25,30.14,23.25l5.93,25.23,56.42-12.26Z" style="fill:#ffbe9d"></path><path d="M300.11,220.49a3.36,3.36,0,0,0,3.91,2.56,3.2,3.2,0,0,0,2.68-3.71,3.34,3.34,0,0,0-3.9-2.57A3.21,3.21,0,0,0,300.11,220.49Z" style="fill:#263238"></path><path d="M296.88,209.91c.39.3,3-.35,6.55.17s6.09,1.88,6.5,1.69c.19-.07-.19-.56-1.29-1.18a15.38,15.38,0,0,0-5.17-1.64,13.6,13.6,0,0,0-5.24.16C297.1,209.4,296.69,209.78,296.88,209.91Z" style="fill:#263238"></path><path d="M333.65,213.13a3.34,3.34,0,0,0,3.9,2.56,3.2,3.2,0,0,0,2.69-3.71,3.35,3.35,0,0,0-3.9-2.57A3.2,3.2,0,0,0,333.65,213.13Z" style="fill:#263238"></path><path d="M330.34,206.49c.56,0,2.54-2.34,6.18-4.33s6.87-2.55,7.13-3c.13-.2-.54-.35-2-.13a19.23,19.23,0,0,0-5.88,2.13,17.22,17.22,0,0,0-4.75,3.71C330.21,205.91,330.08,206.5,330.34,206.49Z" style="fill:#263238"></path><path d="M325.27,231c0-.2-2.3-.07-5.94.29-.92.11-1.81.13-2.1-.45a4.7,4.7,0,0,1,0-2.79c.35-2.37.71-4.84,1.08-7.44,1.44-10.57,2.27-19.17,1.84-19.23s-1.94,8.47-3.38,19c-.33,2.6-.66,5.08-1,7.45-.1,1.1-.42,2.39.35,3.63a2.32,2.32,0,0,0,1.77,1,6.72,6.72,0,0,0,1.58-.14C323.09,231.65,325.3,231.16,325.27,231Z" style="fill:#263238"></path><path d="M331.56,273.3a69.11,69.11,0,0,0,32.83-17.19S359.9,275.9,333,279.64Z" style="fill:#eb996e"></path><path d="M326.61,186c.56.87,4-.39,8.2-.84s7.82-.1,8.17-1.08c.15-.47-.64-1.23-2.19-1.85a13.74,13.74,0,0,0-6.41-.7,13.57,13.57,0,0,0-6.07,2.17C326.94,184.65,326.35,185.58,326.61,186Z" style="fill:#263238"></path><path d="M294.93,200.47c.81.65,3-.73,5.93-1.44s5.5-.7,5.87-1.67c.16-.46-.42-1.17-1.67-1.67a8.8,8.8,0,0,0-9.5,2.5C294.72,199.24,294.57,200.14,294.93,200.47Z" style="fill:#263238"></path><path d="M369.32,201.41c.31-.27,11.25-9.19,15.32,5.1s-11.11,15.42-11.25,15S369.32,201.41,369.32,201.41Z" style="fill:#ffbe9d"></path><path d="M376.21,214.87c.05-.06.3.1.77.18a2.61,2.61,0,0,0,1.88-.49c1.35-1,1.93-3.75,1.27-6.34a8.48,8.48,0,0,0-1.71-3.36,3,3,0,0,0-2.42-1.38,1.32,1.32,0,0,0-1.27,1.1c-.08.45.09.71,0,.76s-.37-.15-.42-.77a1.69,1.69,0,0,1,.3-1.06,2,2,0,0,1,1.28-.76,3.67,3.67,0,0,1,3.23,1.48,8.81,8.81,0,0,1,2,3.73c.73,2.91,0,6-1.87,7.2a2.74,2.74,0,0,1-2.38.27C376.33,215.21,376.17,214.91,376.21,214.87Z" style="fill:#eb996e"></path><path d="M339,154.14a5.74,5.74,0,0,0-2.12-.68,47.58,47.58,0,0,0-27.23,2.92,37.41,37.41,0,0,0-19.34,19c-3.63,8.52-6.95,21.81-2.4,29.88l3.61,6.13c-.86-6.25.46-18.1,3-23.89a25.67,25.67,0,0,1,12.79-13.36c5.78-2.56,12.33-2.55,18.52-3.88s12.71-4.71,14.47-10.79C340.81,157.62,340.66,155.21,339,154.14Z" style="fill:#263238"></path><path d="M341.18,154.14c-1.52,4.6-3.06,9.29-3.17,14.14s1.41,10,5.1,13.1c3.53,3,8.38,3.77,12.9,4.84s4,3.72,6.21,7.82c.68,1.29,4.76,14.64,6,15.32,1.77.92,6.22-9.05,6.85-10.94s-.35-8.07-.85-10c-1.55-6-2-15-3.59-21-1.31-5.07-3.87-7.21-7.31-11.16-4.8-5.52-11.69-5.82-20.82-2.84" style="fill:#263238"></path><path d="M285.56,208.42a.93.93,0,0,0,0,.13c0,.1.06.23.1.4.1.37.23.89.4,1.57.35,1.39.87,3.42,1.57,6s1.57,5.81,2.77,9.47a34.8,34.8,0,0,0,2.29,5.68c.15.22.28.45.44.66s.36.42.56.6A9.06,9.06,0,0,0,295,234a11,11,0,0,0,3.17,1.44,15.26,15.26,0,0,0,7.45,0,10.9,10.9,0,0,0,3.66-1.5,11.81,11.81,0,0,0,3-2.84,20.71,20.71,0,0,0,3.39-8,8.36,8.36,0,0,1,.66-2.23,3.75,3.75,0,0,1,1.6-1.79,2.73,2.73,0,0,1,2.43.08,6.3,6.3,0,0,1,1.92,1.51c.57.58,1,1.31,1.52,1.9a9.29,9.29,0,0,0,1.72,1.65,16.9,16.9,0,0,0,4.34,2.26,31.13,31.13,0,0,0,10,1.75,29.53,29.53,0,0,0,5.21-.37,9.19,9.19,0,0,0,1.29-.25c.43-.11.87-.17,1.29-.32l1.26-.4c.41-.18.82-.33,1.2-.54a62.74,62.74,0,0,0,8.87-6.32c2.19-1.79,4.33-3.62,6.39-5.47l-.06.21c-2.16-7.78-4.26-15.27-6.22-22.32l.23.14L306.46,204l-15.35,3.26-4.11.87-1.07.22-.37.07.34-.09,1-.24,4.06-.9,15.28-3.37,53-11.57.18,0,.05.18c2,7.05,4.07,14.54,6.24,22.32l0,.12-.1.09q-3.1,2.78-6.41,5.48a62.32,62.32,0,0,1-8.93,6.36c-.4.22-.84.39-1.25.57l-1.3.41c-.42.15-.87.21-1.31.32a11.67,11.67,0,0,1-1.31.26,30.44,30.44,0,0,1-5.29.37,31.39,31.39,0,0,1-10.12-1.79,17.15,17.15,0,0,1-4.45-2.32,9.35,9.35,0,0,1-1.78-1.72c-.55-.64-.95-1.31-1.5-1.88a6.15,6.15,0,0,0-1.8-1.43,2.39,2.39,0,0,0-2.1-.09,3.5,3.5,0,0,0-1.44,1.62,8.21,8.21,0,0,0-.63,2.15,21,21,0,0,1-3.47,8.12,12.14,12.14,0,0,1-3.07,2.92,11.32,11.32,0,0,1-3.78,1.53,15.49,15.49,0,0,1-7.6-.05,11.33,11.33,0,0,1-3.25-1.49,9.51,9.51,0,0,1-1.34-1.09c-.21-.2-.38-.42-.57-.62s-.32-.47-.47-.71a34,34,0,0,1-2.28-5.74c-1.18-3.67-2-6.88-2.71-9.5s-1.16-4.67-1.49-6.06c-.15-.68-.27-1.21-.36-1.58l-.08-.41A.69.69,0,0,1,285.56,208.42Z" style="fill:#263238"></path><path d="M293.48,231.89c-.11,0-1.45-4.72-3-10.61s-2.69-10.68-2.58-10.71,1.45,4.72,3,10.61S293.59,231.87,293.48,231.89Z" style="fill:#fafafa"></path><path d="M312.78,213.43c.1,0-1.36,3.68-3.26,8.12s-3.54,8-3.65,7.95,1.36-3.68,3.26-8.11S312.67,213.39,312.78,213.43Z" style="fill:#fafafa"></path><path d="M317,208.14a13.47,13.47,0,0,1-.7,2.31c-.49,1.4-1.22,3.33-2.11,5.42s-1.75,4-2.41,5.3a12.62,12.62,0,0,1-1.16,2.11,14.4,14.4,0,0,1,.89-2.24l2.3-5.33c.84-2,1.6-3.87,2.21-5.37A16.83,16.83,0,0,1,317,208.14Z" style="fill:#fafafa"></path><path d="M353.06,199.91a3.49,3.49,0,0,1-.29.78c-.2.49-.52,1.2-.91,2.06-.79,1.74-1.9,4.12-3.15,6.74-2,4.2-3.76,7.74-4.41,8.91l-.22.4.09-.44a2.11,2.11,0,0,1,.16-.55s0,.19,0,.57l-.12,0c.5-1.23,2.15-4.83,4.16-9,1.25-2.62,2.4-5,3.26-6.68.42-.85.77-1.54,1-2A3,3,0,0,1,353.06,199.91Z" style="fill:#fafafa"></path><path d="M354.63,203.07a75.93,75.93,0,0,1-3.26,7.3,78.75,78.75,0,0,1-3.64,7.13,73.74,73.74,0,0,1,3.26-7.31A79.33,79.33,0,0,1,354.63,203.07Z" style="fill:#fafafa"></path><path d="M351.08,224.37a3.89,3.89,0,0,1-.86.54,7.92,7.92,0,0,1-1.06.54,14,14,0,0,1-1.46.61,16.5,16.5,0,0,1-1.83.58,19.93,19.93,0,0,1-2.14.48,25.48,25.48,0,0,1-5,.29,24.69,24.69,0,0,1-5-.81,21.29,21.29,0,0,1-2.09-.7,16.27,16.27,0,0,1-1.76-.77,13.22,13.22,0,0,1-1.38-.75,9.46,9.46,0,0,1-1-.65,5.7,5.7,0,0,1-.8-.62c.05-.07,1.22.79,3.32,1.76a16.29,16.29,0,0,0,1.75.71c.63.25,1.33.44,2.07.65a27.21,27.21,0,0,0,4.89.77,26.17,26.17,0,0,0,5-.26c.75-.14,1.47-.25,2.13-.43s1.26-.35,1.81-.53C349.79,225,351,224.29,351.08,224.37Z" style="fill:#fafafa"></path><path d="M365.53,214.76a3.2,3.2,0,0,1-.13-.39c-.09-.3-.21-.69-.35-1.18-.32-1.09-.76-2.6-1.32-4.49L359.25,193l-.1-.35.35.1,8.69,2.57,6.54,1.95.12,0,0,.12c.92,4.31,1.77,8.27,2.49,11.68l0,.13-.12,0-8.58,4-2.35,1.08-.61.27c-.13.06-.2.09-.2.08l.22-.12.63-.32,2.34-1.18,8.41-4.15-.09.19c-.75-3.4-1.62-7.36-2.56-11.67l.14.16-6.54-1.94-8.7-2.58.25-.25c1.72,6.28,3.19,11.7,4.26,15.6.51,1.92.92,3.46,1.22,4.57.13.51.24.92.32,1.24A3.17,3.17,0,0,1,365.53,214.76Z" style="fill:#263238"></path><polygon points="285.56 209.16 284.58 205.03 358.71 188.67 359.88 193.33 285.56 209.16" style="fill:#455a64"></polygon><polygon points="358.71 188.67 374.06 193.84 375.03 197.91 359.88 193.33 358.71 188.67" style="fill:#455a64"></polygon><path d="M339.63,238.85a5,5,0,0,0-5-3.92,5.19,5.19,0,0,0-4.08,2.72,6.38,6.38,0,0,0-.36,5l.07.36a5.64,5.64,0,0,0,6.32,1.54A5.28,5.28,0,0,0,339.63,238.85Z" style="fill:#eb996e"></path><path d="M327.47,243c0-.57,3.86-.28,6.84-3.36s2.89-7.2,3.43-7.18c.24,0,.67,1,.59,2.7a9.63,9.63,0,0,1-2.65,6,8.39,8.39,0,0,1-5.71,2.57C328.35,243.74,327.43,243.24,327.47,243Z" style="fill:#263238"></path><path d="M392.12,197.12a2.44,2.44,0,0,1,.11.42c0,.28.14.69.22,1.22.16,1.06.36,2.61.5,4.53a62.41,62.41,0,0,1-.7,15,38.22,38.22,0,0,1-2.41,7.93,48,48,0,0,1-3.15,6c-1,1.58-1.76,2.88-2.36,3.88a12.62,12.62,0,0,1-.91,1.4,9.72,9.72,0,0,1,.73-1.5c.5-1,1.28-2.3,2.23-4a52.45,52.45,0,0,0,3-6,40,40,0,0,0,2.34-7.85,68.11,68.11,0,0,0,.84-14.88c-.09-1.91-.23-3.46-.33-4.52A10.74,10.74,0,0,1,392.12,197.12Z" style="fill:#455a64"></path><path d="M406.53,274.42a.72.72,0,0,1,0-.23c0-.19,0-.41,0-.68,0-.64-.07-1.5-.11-2.6-.07-2.3-.18-5.56-.3-9.56-.21-8.11-.49-19.25-.81-31.55-.13-6.16-.26-12-.38-17.37-.05-2.67-.12-5.2-.39-7.55a27.22,27.22,0,0,0-1.45-6.37,15.88,15.88,0,0,0-5.58-7.49,14.35,14.35,0,0,0-3.1-1.57s.08,0,.22,0,.37.1.65.2a11,11,0,0,1,2.34,1.16,15.76,15.76,0,0,1,5.81,7.53,26.75,26.75,0,0,1,1.54,6.45c.29,2.37.38,4.92.44,7.59.13,5.34.27,11.21.42,17.37.26,12.3.49,23.44.65,31.55.06,4,.11,7.26.14,9.57,0,1.09,0,2,0,2.6,0,.27,0,.49,0,.68A.6.6,0,0,1,406.53,274.42Z" style="fill:#455a64"></path><path d="M387.86,182.15a2.41,2.41,0,0,1-.57.07l-1.63.08c-1.42,0-3.47.08-6,0A102.52,102.52,0,0,1,360,179.66a70.08,70.08,0,0,1-10.46-3.17,18.37,18.37,0,0,1-7.3-5.11,11.78,11.78,0,0,1-2.59-5.42,8.53,8.53,0,0,1-.13-1.64,2.09,2.09,0,0,1,.06-.57,21.24,21.24,0,0,0,.27,2.17,12,12,0,0,0,2.67,5.22,18.46,18.46,0,0,0,7.2,4.91,73.58,73.58,0,0,0,10.4,3.1,112,112,0,0,0,19.53,2.77c2.53.14,4.58.15,6,.18h1.64A2.34,2.34,0,0,1,387.86,182.15Z" style="fill:#455a64"></path><path d="M384.64,170.71a17.3,17.3,0,0,1-1.93,0c-1.23,0-3,.06-5.22.2s-4.83.35-7.75.57a88.66,88.66,0,0,1-9.54.25,38,38,0,0,1-9.43-1.54,26,26,0,0,1-7.07-3.32,18.33,18.33,0,0,1-3.9-3.53,11.06,11.06,0,0,1-.85-1.15c-.19-.27-.28-.42-.26-.43a23.78,23.78,0,0,0,5.21,4.8,26.68,26.68,0,0,0,7,3.17,39.18,39.18,0,0,0,9.32,1.48,93.64,93.64,0,0,0,9.48-.21c2.92-.19,5.55-.38,7.77-.46s4-.09,5.25,0c.62,0,1.1.06,1.42.09A1.43,1.43,0,0,1,384.64,170.71Z" style="fill:#455a64"></path><path d="M316.93,144.82a4.83,4.83,0,0,1,1.23-.08,15.31,15.31,0,0,1,3.35.42,17.1,17.1,0,0,1,13.31,16.06,15.56,15.56,0,0,1-.21,3.37,4.51,4.51,0,0,1-.31,1.2,30,30,0,0,0,.15-4.55,17.32,17.32,0,0,0-13-15.72A29.82,29.82,0,0,0,316.93,144.82Z" style="fill:#455a64"></path><path d="M335.57,142.33s.23.23.55.7a20.65,20.65,0,0,1,1.24,2.05,19.57,19.57,0,0,1,2.24,7.57,16.62,16.62,0,0,1-1.41,7.77,16.31,16.31,0,0,1-1.14,2.12c-.31.47-.49.72-.52.7s.57-1.11,1.32-3a17.81,17.81,0,0,0,1.23-7.59,21.28,21.28,0,0,0-2.05-7.45C336.16,143.44,335.5,142.38,335.57,142.33Z" style="fill:#455a64"></path><path d="M379.33,217.28a5.43,5.43,0,0,0-3.53,3.94,5,5,0,0,0,1.84,4.91,4.6,4.6,0,0,0,5.2.1c1.63-1.15,2.69-2.53,2-5.51a4.65,4.65,0,0,0-5.51-3.44" style="fill:#ebebeb"></path><path d="M334.81,302.51l-3.92-15.35a3.82,3.82,0,0,1,2-4.37l54.82-27.46a2.63,2.63,0,0,1,3.73,1.7l4.46,17.31L307.76,403.21,309.55,369Z" style="fill:#FF725E"></path><path d="M262.39,382.14l32.1,1,11.65-.74.73,2.6,6.58,47.25-17.85-2.51H254.49s-9.82-11.13-8-25.19S262.39,382.14,262.39,382.14Z" style="fill:#455a64"></path><g style="opacity:0.30000000000000004"><path d="M272.43,391.66a7.3,7.3,0,0,0-1.92-4.38h0c-1.72-2-4.76-2.57-7.33-1.88a14.63,14.63,0,0,0-6.27,4,33.72,33.72,0,0,0-8.21,13.4c-1,3.11-1.66,6.63-.46,9.72,1.48,3.82,3.74,13.84,9.78,13.84,6.45,0,9.24-5,12.26-10.36,2-3.57,1.79-10.58,2.21-14.65A52.39,52.39,0,0,0,272.43,391.66Z"></path></g><path d="M441.46,300s-5.47-4.84-14.55-12.38c-12.76-10.6-31.18-16.39-31.18-16.39l-3.24-11.72S347,292.75,338.17,313.43c-6.57,15.41-18.6,47.66-24.3,63.09a60.82,60.82,0,0,0-3.66,17.63l2.26,31.12,4.65,37.16H447.63l-13.87-17.88Z" style="fill:#455a64"></path><path d="M333.59,296.84s-5.86,10.9-7.59,14.32c-2.49,4.91-23.77,42.57-25.11,61.93-1.17,17,11.58,52,12.56,50.68L311.38,413l1.13-22s.87-21.07,6-39.12S335.55,303,335.55,303Z" style="fill:#455a64"></path><path d="M317.12,462.43s0-.16-.09-.46-.13-.78-.23-1.36c-.18-1.22-.46-3-.81-5.27-.67-4.61-1.64-11.28-2.86-19.59-.57-4.18-1.2-8.76-1.88-13.71s-1.37-10.26-1.95-15.9c-.14-1.42-.27-2.85-.31-4.32s.07-2.95.23-4.44a79.54,79.54,0,0,1,1.41-9.07,133.53,133.53,0,0,1,5.52-18.66.18.18,0,0,1,.06-.09l15.4-14.36,29.78-27.72-.05.28L357.28,319a.23.23,0,0,1,.11-.31.38.38,0,0,1,.1,0l8.81,0-.19.1c8.87-14.28,16.25-26.18,21.43-34.51l6-9.64,1.6-2.53c.37-.57.57-.85.57-.85s-.16.31-.51.89l-1.54,2.56-5.92,9.7L366.49,319a.23.23,0,0,1-.19.1h-8.81l.21-.33,4.08,8.81a.24.24,0,0,1,0,.28L332,355.59l-15.41,14.34.06-.09a134.69,134.69,0,0,0-5.51,18.57,79,79,0,0,0-1.42,9c-.16,1.48-.2,2.95-.24,4.4s.16,2.86.3,4.27c.56,5.64,1.26,11,1.89,15.9s1.27,9.54,1.83,13.71c1.14,8.32,2.07,15,2.7,19.61.31,2.29.56,4.06.73,5.28.07.59.13,1,.17,1.37S317.12,462.43,317.12,462.43Z" style="fill:#263238"></path><path d="M304.35,460.21l1.38-47.2,73.62-5.73L385.64,378s9.59-68.6,18.52-75.95c8.25-6.8,21.25-12.77,30.88-6.94,8.68,5.26,16.14,12.56,12.59,46.54-1.22,11.63-7.65,74.78-10.51,88.69-2.7,13.12-7.65,24.65-18.24,28s-41.79,3.4-41.79,3.4Z" style="fill:#455a64"></path><path d="M379.35,407.28c.09-.06.88,1.37,2.6,3.33a32,32,0,0,0,3.25,3.21,48.48,48.48,0,0,0,4.51,3.32,74.62,74.62,0,0,0,9,4.83l2.82,1.28a5,5,0,0,1,1,.52,5.2,5.2,0,0,1-1.1-.33c-.69-.24-1.68-.63-2.89-1.14a58.92,58.92,0,0,1-9.12-4.73,40.93,40.93,0,0,1-4.54-3.39,27.23,27.23,0,0,1-3.22-3.33,13.53,13.53,0,0,1-1.07-1.42,10.34,10.34,0,0,1-.73-1.13A5.87,5.87,0,0,1,379.35,407.28Z" style="fill:#263238"></path><path d="M389,430.63a3.38,3.38,0,0,1-.63-.8c-.39-.52-.9-1.31-1.51-2.31a55.85,55.85,0,0,1-6.68-16.86c-.24-1.14-.41-2.07-.49-2.72a3.35,3.35,0,0,1-.08-1c.08,0,.36,1.4.93,3.64a73,73,0,0,0,2.77,8.6,74.28,74.28,0,0,0,3.87,8.17C388.26,429.36,389,430.58,389,430.63Z" style="fill:#263238"></path><path d="M391.67,341.75s-.05.4-.17,1.16-.31,1.9-.54,3.38l-2.14,13c-.47,2.82-1,6-1.56,9.4-.28,1.71-.58,3.51-.89,5.37s-.61,3.81-1.07,5.79c-1.69,8-3.63,17-5.76,27.05a.19.19,0,0,1-.17.15l-73.62,5.79.23-.23c-.43,14.8-.89,30.7-1.37,47.19l-.25-.26,25.91.55,43,.94c3.48.12,6.91.08,10.31,0s6.78-.18,10.11-.33A184.62,184.62,0,0,0,413.14,459a27.61,27.61,0,0,0,8.93-2.65,20.81,20.81,0,0,0,6.76-6c3.6-4.83,5.57-10.46,7-15.9a137.52,137.52,0,0,0,2.89-16.13c.71-5.22,1.34-10.23,1.92-15,2.31-19.15,4-34.68,5.13-45.41.58-5.35,1-9.52,1.34-12.35.15-1.4.27-2.48.36-3.21s.14-1.09.14-1.09,0,.37-.09,1.09-.17,1.81-.31,3.22c-.28,2.84-.7,7-1.24,12.36-1.11,10.74-2.7,26.27-5,45.44-.57,4.79-1.19,9.8-1.89,15a136.45,136.45,0,0,1-2.87,16.18c-1.45,5.48-3.42,11.16-7.07,16.08a21.38,21.38,0,0,1-6.9,6.11,28.08,28.08,0,0,1-9.08,2.71,183.57,183.57,0,0,1-19.53,1.75q-5,.22-10.13.34c-3.4.08-6.85.11-10.32,0l-43-.93L304.35,460a.25.25,0,0,1-.25-.26h0c.48-16.49.95-32.4,1.39-47.2a.24.24,0,0,1,.22-.23l73.63-5.68-.17.14c2.16-10,4.12-19.07,5.84-27,.47-2,.77-3.92,1.09-5.78s.62-3.65.91-5.37c.59-3.43,1.12-6.57,1.61-9.39,1-5.63,1.72-10,2.23-13,.26-1.47.46-2.6.6-3.37S391.67,341.75,391.67,341.75Z" style="fill:#263238"></path><path d="M431.51,298.81c0,.13-2.35,0-6.07.53l-1.45.25c-.5.09-1,.24-1.55.36-1.08.23-2.2.62-3.38,1a41,41,0,0,0-7.27,3.45,41.49,41.49,0,0,0-6.37,4.93,35.1,35.1,0,0,0-2.41,2.56c-.35.42-.72.81-1,1.22l-.87,1.19c-2.19,3-3.11,5.22-3.22,5.16a10.37,10.37,0,0,1,.66-1.5,12.59,12.59,0,0,1,.9-1.71,24.55,24.55,0,0,1,1.36-2.17c.27-.39.56-.79.86-1.21s.66-.82,1-1.26c.69-.88,1.54-1.72,2.41-2.63a38.86,38.86,0,0,1,6.43-5,39.61,39.61,0,0,1,7.38-3.46,34.13,34.13,0,0,1,3.44-1c.54-.12,1.06-.26,1.58-.34l1.47-.21a23.78,23.78,0,0,1,2.55-.24,16.11,16.11,0,0,1,1.93,0A9.29,9.29,0,0,1,431.51,298.81Z" style="fill:#263238"></path><path d="M307.76,412.43a3.18,3.18,0,0,1-.21-.69c-.12-.51-.29-1.17-.49-2-.4-1.75-1-4.26-1.82-7.36s-1.79-6.78-2.74-10.92a59.57,59.57,0,0,1-1.66-13.7,57.6,57.6,0,0,1,2-13.66c.27-1,.54-2,.8-3s.61-1.88.89-2.78.58-1.76.85-2.6.61-1.6.89-2.35c1.1-3,2.12-5.39,2.84-7l.83-1.89a2.91,2.91,0,0,1,.32-.64,4.4,4.4,0,0,1-.23.68c-.18.49-.43,1.13-.73,1.93-.66,1.66-1.64,4.06-2.69,7.09-.27.75-.55,1.54-.85,2.36l-.81,2.59c-.28.9-.59,1.82-.87,2.78s-.51,2-.77,3a58.51,58.51,0,0,0-1.9,13.55A60.7,60.7,0,0,0,303,391.36c.92,4.12,1.88,7.82,2.63,10.93s1.32,5.64,1.66,7.4l.39,2A4.61,4.61,0,0,1,307.76,412.43Z" style="fill:#263238"></path><g style="opacity:0.30000000000000004"><polygon points="374.22 307.76 366.3 318.85 357.49 318.85 361.56 327.66 319.2 367.13 364.98 329.39 361.99 321.64 368.55 323.03 374.22 307.76"></polygon></g><path d="M333.68,296.84a2.07,2.07,0,0,1-.15.41c-.12.31-.29.69-.49,1.18-.47,1.06-1.13,2.54-1.94,4.39l-7,15.38V318c.75,1.49,1.53,3.06,2.33,4.67a.26.26,0,0,1,0,.27l-4,5,.05-.09c-.41,1.39-.83,2.86-1.26,4.35a253.13,253.13,0,0,0-6.36,27.21,50.33,50.33,0,0,0-.74,8.41c0,.49.06.93.08,1.32s.11.68.15,1a3.74,3.74,0,0,1,.18.79,7.36,7.36,0,0,1-.28-.76c-.06-.28-.13-.6-.2-1s-.11-.83-.13-1.33a45.17,45.17,0,0,1,.58-8.48,225.21,225.21,0,0,1,6.22-27.29l1.26-4.36a.41.41,0,0,1,.05-.09l4-5,0,.27c-.8-1.62-1.58-3.19-2.31-4.69a.23.23,0,0,1,0-.2l7.12-15.3c.86-1.83,1.56-3.29,2.06-4.34.23-.47.42-.84.56-1.14A2.09,2.09,0,0,1,333.68,296.84Z" style="fill:#263238"></path><g style="opacity:0.30000000000000004"><polygon points="375.98 371.52 345.49 368.16 343.91 376.66 375 379.88 375.98 371.52"></polygon></g><polygon points="374.56 370.1 344.07 366.74 342.49 375.24 373.58 378.46 374.56 370.1" style="fill:#fff"></polygon><path d="M232.54,438.14l27.87-21s6.11-2.16,8.81-1.8,36.9,2.5,36.9,2.5v31.4l-15.34-4.28s-9.87,2.57-12.21,2.39a11,11,0,0,0-5,1.26s-24.1,11.14-30,6.11l-1.8-.72s-5.75,1.08-6.29-1.62c0,0-2.52.36-2.88-3l8.81-8.81S233.44,442.27,232.54,438.14Z" style="fill:#e0e0e0"></path><path d="M262,425.37a4.19,4.19,0,0,1-.81.68l-2.28,1.69-7.53,5.6c-2.95,2.2-5.64,4.14-7.64,5.49-1,.68-1.81,1.21-2.38,1.56a3.85,3.85,0,0,1-.92.51,4.07,4.07,0,0,1,.8-.67l2.29-1.7,7.53-5.6c2.94-2.2,5.64-4.14,7.63-5.49,1-.68,1.82-1.21,2.39-1.56A3.85,3.85,0,0,1,262,425.37Z" style="fill:#263238"></path><path d="M266.3,429.52c.08.12-6.63,5.09-15,11.11s-15.22,10.8-15.3,10.69,6.63-5.09,15-11.12S266.22,429.4,266.3,429.52Z" style="fill:#263238"></path><path d="M270.56,436.75a6.55,6.55,0,0,1-1,.89c-.63.54-1.58,1.3-2.76,2.2a104.5,104.5,0,0,1-9.68,6.54,106,106,0,0,1-10.34,5.43c-1.36.62-2.47,1.09-3.25,1.39a6.51,6.51,0,0,1-1.23.43,5.25,5.25,0,0,1,1.15-.61l3.17-1.54c2.68-1.31,6.33-3.22,10.23-5.55s7.31-4.65,9.73-6.38l2.86-2.07A6.57,6.57,0,0,1,270.56,436.75Z" style="fill:#263238"></path><path d="M253.48,377.08s-20-6.18-24.53-6.42-11.46-1.62-14.59,0-13.66,12.51-13.66,12.51,1.86,4.63,6.49,2.54a53.69,53.69,0,0,0,7.52-4l-12.27,16.09s3.94,4.75,7.18,3a44.08,44.08,0,0,0,7.29-5.56L208.46,405l.93,2.78-2.09,2.09s.93,1.5,4.17,1.73,11.69-5.32,11.69-5.32,11,0,11.88.46,18.44,1.27,18.44,1.27l5.1,4.52s10-1.62,11.69-5.67.82-18.41,0-19.8-10-5.21-10-5.21Z" style="fill:#e0e0e0"></path><g style="opacity:0.30000000000000004"><path d="M221.61,407.29a44.8,44.8,0,0,1-6.33-29.07c.11-.87.5-2,1.38-2s1.26,1.34,1.25,2.32A65.71,65.71,0,0,0,224,406.34l-.86,0Z"></path></g><path d="M204.36,386.21a4.64,4.64,0,0,1,1-.19,17.45,17.45,0,0,0,2.63-.79,45,45,0,0,0,8-4.25l.76-.5.08-.06H217c3.35.26,6.35.52,8.5.73l2.55.27a3.77,3.77,0,0,1,.92.17,3.27,3.27,0,0,1-.94,0l-2.55-.12c-2.17-.11-5.17-.31-8.52-.56l.16-.05-.77.52a38.7,38.7,0,0,1-8.18,4.16,13.78,13.78,0,0,1-2.73.64A3.59,3.59,0,0,1,204.36,386.21Z" style="fill:#263238"></path><path d="M230.88,391.46a2.43,2.43,0,0,1-.78.13,17.73,17.73,0,0,1-2.18.09,24.29,24.29,0,0,1-7.35-1.26l.31-.12a25,25,0,0,1-1.58,2.53,23.66,23.66,0,0,1-7,6.42,22.5,22.5,0,0,1-2.56,1.31,3.85,3.85,0,0,1-1,.33c0-.08,1.36-.65,3.37-2a25.41,25.41,0,0,0,6.71-6.4,27.21,27.21,0,0,0,1.56-2.47l.11-.19.2.07a26.85,26.85,0,0,0,7.19,1.41C229.77,391.46,230.88,391.38,230.88,391.46Z" style="fill:#263238"></path><path d="M232.14,401.17c0,.09-1.4-.2-3.65-.49a18,18,0,0,0-3.94-.08,10.52,10.52,0,0,0-4.49,1.56,44.42,44.42,0,0,0-3.93,2.86,18.7,18.7,0,0,1-3.41,2.17,9,9,0,0,1-2.61.8,2.57,2.57,0,0,1-1,0,12.32,12.32,0,0,0,3.44-1.13,20.65,20.65,0,0,0,3.28-2.22,41.18,41.18,0,0,1,4-2.93,10.78,10.78,0,0,1,4.71-1.59,17.09,17.09,0,0,1,4,.19c1.13.19,2,.4,2.65.56A3.88,3.88,0,0,1,232.14,401.17Z" style="fill:#263238"></path><path d="M224.55,413.57a1,1,0,0,1-.89-.54l-6.08-11.74A39.93,39.93,0,0,1,214,384.63v-11a1,1,0,0,1,2,0v11a37.86,37.86,0,0,0,3.42,15.78l6.06,11.7a1,1,0,0,1-.43,1.35A1.11,1.11,0,0,1,224.55,413.57Z" style="fill:#263238"></path><path d="M227.94,413.29a1,1,0,0,1-.41-.09,1,1,0,0,1-.51-1.32c.07-.16,7.13-16.06,8-20s.45-17.46.45-17.59a1,1,0,0,1,1-1,1,1,0,0,1,1,1c0,.56.42,13.9-.48,18.07s-7.81,19.74-8.11,20.4A1,1,0,0,1,227.94,413.29Z" style="fill:#263238"></path><path d="M224.7,430.61a29.89,29.89,0,0,1-2.06-8c-.17-3.44,0-10.31,0-10.31H230V423s-.95,6.11-2.15,7.66Z" style="fill:#e0e0e0"></path><circle cx="226.7" cy="418.83" r="1.58" style="fill:#263238"></circle><path d="M225.87,430.61a3.85,3.85,0,0,1,0-.54c0-.46,0-.95,0-1.49,0-1.45,0-3.18,0-5.13v-.1h.87l-.1.1v-1.62c0-2.54,0-4.85,0-6.75,0-.76,0-1.43,0-2,0-.2,0-.38,0-.56s0-.19,0-.19,0,.06,0,.19,0,.36,0,.56c0,.61,0,1.28,0,2,0,1.9,0,4.21,0,6.75v1.72h-.88l.1-.1c0,1.95,0,3.68,0,5.13,0,.54,0,1,0,1.49A3.85,3.85,0,0,1,225.87,430.61Z" style="fill:#263238"></path><g style="opacity:0.30000000000000004"><path d="M251.31,396.75a24.61,24.61,0,0,1-2.08-4.76,29.9,29.9,0,0,1-5.87,2.89,10,10,0,0,1-6.44.1,1.62,1.62,0,0,0-1.13-.16,1.46,1.46,0,0,0-.68.85q-2.33,5.26-4.24,10.67l.47.17c2.2-.17,3.75-2.17,4.9-4s2.43-4,4.55-4.56c1.45-.41,3.12,0,4.42-.78.67-.39,1.26-1.08,2-1s1.15.63,1.6,1.12a12.16,12.16,0,0,0,6.22,3.55C253.47,400.09,252.22,398.23,251.31,396.75Z"></path></g><g style="opacity:0.30000000000000004"><path d="M230.77,406.6c0-.09.07-.17.1-.26l-.23-.08C230.68,406.37,230.73,406.48,230.77,406.6Z"></path></g><path d="M267.79,389.45s-5-10.56-10.93-12.16-11.68,5.36-11.68,5.36-8,6.74-10.74,9.07c0,0,0,2.94,4.25,3.62,4.94.8,10.47-3,10.47-3a15.11,15.11,0,0,0,8.57,9.88h8.59Z" style="fill:#e0e0e0"></path><path d="M261.1,402.65a7.3,7.3,0,0,1-1.22-.18,9.14,9.14,0,0,1-1.45-.34l-.9-.27c-.32-.1-.64-.26-1-.39a13.09,13.09,0,0,1-4.44-3,11.91,11.91,0,0,1-3.18-6.09l.34.19a49.75,49.75,0,0,1-5.13,2.18,25.18,25.18,0,0,1-2.87.84,6.08,6.08,0,0,1-3.14,0,7,7,0,0,1-3.88-3.57l-.08-.16.14-.14A138.49,138.49,0,0,1,247,381.05c1.69-1.22,3.08-2.13,4.06-2.72.49-.31.88-.52,1.14-.67a2.13,2.13,0,0,1,.41-.2,13.57,13.57,0,0,1-1.45,1c-.94.64-2.3,1.59-4,2.84a160,160,0,0,0-12.54,10.77l.05-.3a6.57,6.57,0,0,0,3.57,3.3,5.78,5.78,0,0,0,2.89,0,21.49,21.49,0,0,0,2.8-.81,49.92,49.92,0,0,0,5.09-2.13l.28-.14.06.33a11.63,11.63,0,0,0,3,5.87,12.94,12.94,0,0,0,4.26,3c.34.15.65.31,1,.42l.88.3a9.55,9.55,0,0,0,1.41.4A6.82,6.82,0,0,1,261.1,402.65Z" style="fill:#263238"></path></g><g id="speech-bubble"><path d="M378.88,146.11,395,138A48.33,48.33,0,1,0,380,129.2h0Z" style="fill:#fff"></path><path d="M378.88,146.11c.05-.81.36-6.06,1-16.93a.11.11,0,0,1,.12-.1h.07l-.12.19a48.59,48.59,0,0,1-7.46-8,47.61,47.61,0,0,1-6.4-11.78,48.54,48.54,0,0,1-2.09-7.28c-.2-1.3-.4-2.61-.61-3.95a13.81,13.81,0,0,1-.19-2c0-.69-.07-1.38-.11-2.08A48.61,48.61,0,0,1,392.52,48a49.36,49.36,0,0,1,21.79-3.73,42.66,42.66,0,0,1,5.71.65,21.34,21.34,0,0,1,2.83.62c.94.24,1.88.46,2.82.72a50.09,50.09,0,0,1,10.73,4.83,44.63,44.63,0,0,1,4.83,3.29,24.8,24.8,0,0,1,2.23,1.87c.71.65,1.46,1.26,2.14,1.94a49.17,49.17,0,0,1,14.13,29.64,48.56,48.56,0,0,1-25.93,47.77c-1.25.59-2.45,1.25-3.7,1.75l-3.74,1.37c-1.24.4-2.5.66-3.71,1a29.69,29.69,0,0,1-3.63.76,48,48,0,0,1-24.1-2.38H395l-16.13,8,16-8.25a.1.1,0,0,1,.09,0,48,48,0,0,0,24,2.25,29.78,29.78,0,0,0,3.61-.76c1.2-.33,2.45-.6,3.68-1L430,137c1.23-.5,2.43-1.16,3.67-1.74a48.22,48.22,0,0,0,23.23-27.08,47.55,47.55,0,0,0-4.62-40.77,48.71,48.71,0,0,0-7-8.84c-.68-.67-1.42-1.28-2.13-1.92a22.9,22.9,0,0,0-2.2-1.85,43.66,43.66,0,0,0-4.78-3.25,50.23,50.23,0,0,0-10.61-4.79c-.93-.25-1.86-.47-2.79-.71a20.88,20.88,0,0,0-2.8-.61,41.79,41.79,0,0,0-5.65-.65,49.13,49.13,0,0,0-21.57,3.68,48.12,48.12,0,0,0-29.22,45.73c0,.69.07,1.38.1,2.06a13.41,13.41,0,0,0,.19,2c.2,1.33.39,2.64.59,3.92a48,48,0,0,0,2.05,7.24,47.41,47.41,0,0,0,6.31,11.72,48.86,48.86,0,0,0,7.37,8,.11.11,0,0,1,0,.16.12.12,0,0,1-.14,0l0,0,.16-.09C379.32,140.05,378.94,145.3,378.88,146.11Z" style="fill:#263238"></path><path d="M431.31,91.32a7.62,7.62,0,0,1,1.94-.64l.56-1.81,3.12.23.28,1.88a7.81,7.81,0,0,1,1.83.91l1.67-.88,2,2.37-1.12,1.52a8.17,8.17,0,0,1,.64,1.94l1.81.56-.24,3.12-1.87.28a7.66,7.66,0,0,1-.92,1.83l.89,1.67-2.37,2L438,105.22a7.89,7.89,0,0,1-1.94.64l-.55,1.81-3.13-.23-.28-1.88a7.6,7.6,0,0,1-1.82-.92l-1.67.89-2-2.37,1.13-1.52a7.69,7.69,0,0,1-.64-2l-1.81-.55.23-3.12,1.87-.29a8.19,8.19,0,0,1,.92-1.82l-.88-1.67,2.37-2,1.52,1.13Zm1.28,4.31a3.36,3.36,0,1,0,4.74.35A3.37,3.37,0,0,0,432.59,95.63Z" style="fill:#e0e0e0"></path><path d="M393.05,75a18.26,18.26,0,0,1,4.18-2.22l.55-4.35,7.22-.7,1.38,4.16a17.48,17.48,0,0,1,4.52,1.38l3.47-2.69,5.6,4.61-2,3.91a17.92,17.92,0,0,1,2.23,4.18l4.35.55.7,7.22-4.16,1.38A17.87,17.87,0,0,1,419.74,97l2.68,3.47-4.6,5.6-3.92-2a17.72,17.72,0,0,1-4.18,2.23l-.55,4.35-7.22.7-1.38-4.16a18,18,0,0,1-4.52-1.38l-3.46,2.69L387,103.89l2-3.92a17.81,17.81,0,0,1-2.22-4.17l-4.35-.55-.7-7.23,4.16-1.37a17.92,17.92,0,0,1,1.37-4.53l-2.68-3.46,4.61-5.61,3.91,2Zm4.63,9.33a7.78,7.78,0,1,0,10.95-1.07A7.78,7.78,0,0,0,397.68,84.35Z" style="fill:#263238"></path></g></svg>