<svg xmlns="http://www.w3.org/2000/svg" viewBox="0 0 500 500"><g id="background-complete"><rect y="382.4" width="500" height="0.25" style="fill:#ebebeb"></rect><rect x="52.46" y="391.92" width="26" height="0.25" style="fill:#ebebeb"></rect><rect x="146.33" y="389.21" width="54.1" height="0.25" style="fill:#ebebeb"></rect><rect x="79.46" y="401.21" width="26.32" height="0.25" style="fill:#ebebeb"></rect><rect x="430.67" y="399.53" width="19.23" height="0.25" style="fill:#ebebeb"></rect><rect x="391.47" y="399.53" width="30.29" height="0.25" style="fill:#ebebeb"></rect><rect x="258.23" y="395.31" width="54.56" height="0.25" style="fill:#ebebeb"></rect><path d="M237,337.8H43.91a5.71,5.71,0,0,1-5.7-5.71V60.66A5.71,5.71,0,0,1,43.91,55H237a5.71,5.71,0,0,1,5.71,5.71V332.09A5.71,5.71,0,0,1,237,337.8ZM43.91,55.2a5.46,5.46,0,0,0-5.45,5.46V332.09a5.46,5.46,0,0,0,5.45,5.46H237a5.47,5.47,0,0,0,5.46-5.46V60.66A5.47,5.47,0,0,0,237,55.2Z" style="fill:#ebebeb"></path><path d="M453.31,337.8H260.21a5.72,5.72,0,0,1-5.71-5.71V60.66A5.72,5.72,0,0,1,260.21,55h193.1A5.71,5.71,0,0,1,459,60.66V332.09A5.71,5.71,0,0,1,453.31,337.8ZM260.21,55.2a5.47,5.47,0,0,0-5.46,5.46V332.09a5.47,5.47,0,0,0,5.46,5.46h193.1a5.47,5.47,0,0,0,5.46-5.46V60.66a5.47,5.47,0,0,0-5.46-5.46Z" style="fill:#ebebeb"></path><rect x="131.85" y="212.21" width="6.15" height="170.19" style="fill:#e0e0e0"></rect><polygon points="173.43 382.4 167.29 382.4 146.03 212.21 152.17 212.21 173.43 382.4" style="fill:#ebebeb"></polygon><polygon points="102.57 382.4 96.42 382.4 117.68 212.21 123.83 212.21 102.57 382.4" style="fill:#ebebeb"></polygon><rect x="352.85" y="165.82" width="7.82" height="216.57" style="fill:#e0e0e0"></rect><polygon points="405.76 382.4 397.94 382.4 370.89 165.82 378.71 165.82 405.76 382.4" style="fill:#ebebeb"></polygon><polygon points="315.58 382.4 307.76 382.4 334.82 165.82 342.64 165.82 315.58 382.4" style="fill:#ebebeb"></polygon><circle cx="135.46" cy="212.21" r="70" style="fill:#f0f0f0"></circle><circle cx="135.46" cy="212.21" r="55" style="fill:#fff"></circle><circle cx="135.46" cy="212.21" r="40" style="fill:#f0f0f0"></circle><circle cx="135.46" cy="212.21" r="25" style="fill:#fff"></circle><circle cx="135.46" cy="212.21" r="10" style="fill:#f0f0f0"></circle><circle cx="356.76" cy="163.74" r="86.51" style="fill:#f0f0f0"></circle><circle cx="356.76" cy="163.74" r="67.97" transform="translate(-11.29 300.23) rotate(-45)" style="fill:#fff"></circle><circle cx="356.76" cy="163.74" r="49.43" style="fill:#f0f0f0"></circle><circle cx="356.76" cy="163.74" r="30.9" style="fill:#fff"></circle><circle cx="356.76" cy="163.74" r="12.36" style="fill:#f0f0f0"></circle><path d="M220.52,163.23a.53.53,0,0,0-.49-.4l-6.31-.26,3.25-2.08a.53.53,0,0,0-.57-.9l-3.25,2.09,2.38-5.85a.53.53,0,0,0-.15-.61.54.54,0,0,0-.63,0l-10.46,6.72a.55.55,0,0,0-.2.25l-3,7.24-66,42.37a.53.53,0,0,0,.29,1,.47.47,0,0,0,.28-.09l66-42.36,7.82.32h0a.54.54,0,0,0,.28-.08l10.46-6.72A.52.52,0,0,0,220.52,163.23Z" style="fill:#e0e0e0"></path><path d="M330.36,45a.53.53,0,0,0-.63-.06l-5.44,3.2,1.59-3.51a.53.53,0,1,0-1-.44l-1.6,3.51-1.17-6.2a.53.53,0,0,0-.46-.43.5.5,0,0,0-.54.31L316,52.7a.58.58,0,0,0,0,.32l1.46,7.69L285,132.1a.53.53,0,0,0,.26.7.52.52,0,0,0,.51,0,.61.61,0,0,0,.2-.22l32.38-71.39,6.74-4h0a.5.5,0,0,0,.2-.23l5.13-11.32A.52.52,0,0,0,330.36,45Z" style="fill:#e0e0e0"></path><path d="M466.37,155.7a.54.54,0,0,0-.37-.51l-6-1.91,3.69-1.16a.53.53,0,0,0,.34-.67.52.52,0,0,0-.66-.34l-3.68,1.16,3.84-5a.54.54,0,0,0,0-.63.52.52,0,0,0-.59-.2l-11.86,3.73a.56.56,0,0,0-.27.18l-4.75,6.22-74.79,23.5a.54.54,0,0,0-.35.67.52.52,0,0,0,.37.35.51.51,0,0,0,.3,0l74.78-23.51,7.46,2.37h0a.61.61,0,0,0,.3,0L466,156.2A.53.53,0,0,0,466.37,155.7Z" style="fill:#e0e0e0"></path><circle cx="179.71" cy="101.87" r="24.63" style="fill:#fafafa"></circle><path d="M98.28,105.09c-1.41,0-2.91,1.09-4.14,2.76C95,101,92.6,95.73,88.3,95.77s-8.86,5.12-11.19,11.82c-.39-3.41-2.07-5.68-4.58-5.66-3.52,0-7.44,4.61-9.06,10.41l37.89-.57C101.91,108,100.63,105.07,98.28,105.09Z" style="fill:#f0f0f0"></path><path d="M144.31,73.15a2.61,2.61,0,0,0-1.37.48c-.17-3.45-1.67-5.82-4-5.8-2.15,0-4.47,2.07-6.14,5.08a2.79,2.79,0,0,0-2.59-2c-1.44,0-3,1.21-4.22,3.06a1.65,1.65,0,0,0-1.24-.52c-1.2,0-2.51,1.21-3.4,3l25.1-.38C146.29,74.31,145.51,73.14,144.31,73.15Z" style="fill:#f5f5f5"></path><path d="M395.48,38.26c-1.41,0-2.91,1.08-4.14,2.76.86-6.9-1.54-12.12-5.84-12.08s-8.86,5.12-11.19,11.82c-.39-3.41-2.06-5.69-4.57-5.66-3.52,0-7.44,4.61-9.07,10.4l37.89-.56C399.11,41.13,397.83,38.23,395.48,38.26Z" style="fill:#f0f0f0"></path><path d="M431.76,73.15a2.61,2.61,0,0,0-1.37.48c-.17-3.45-1.67-5.82-4-5.8-2.15,0-4.47,2.07-6.14,5.08a2.79,2.79,0,0,0-2.59-2c-1.44,0-3,1.21-4.22,3.06a1.65,1.65,0,0,0-1.24-.52c-1.2,0-2.51,1.21-3.4,3l25.1-.38C433.74,74.31,433,73.14,431.76,73.15Z" style="fill:#f5f5f5"></path><path d="M227.31,138.17a2.47,2.47,0,0,0-1.37.48c-.17-3.45-1.67-5.83-4-5.8-2.15,0-4.46,2.06-6.13,5.08a2.82,2.82,0,0,0-2.59-2c-1.45,0-3,1.22-4.23,3.07a1.68,1.68,0,0,0-1.24-.53c-1.2,0-2.5,1.22-3.4,3l25.1-.39C229.29,139.32,228.51,138.16,227.31,138.17Z" style="fill:#f5f5f5"></path></g><g id="background-simple"><path d="M267.6,297.26c47.62,4.9,83.42,19.48,123.12-16.44,26.79-24.25,44.83-64.8,33.39-100C403.4,117,297.24,33.09,230.79,88.21c-32.48,26.94-42.92,63-82.39,85.35s-72.21,43.15-65.66,95.89c4.19,33.79,31.42,69.86,68.42,68.65C195.88,336.65,214.08,291.76,267.6,297.26Z" style="fill:#407BFF"></path><path d="M267.6,297.26c47.62,4.9,83.42,19.48,123.12-16.44,26.79-24.25,44.83-64.8,33.39-100C403.4,117,297.24,33.09,230.79,88.21c-32.48,26.94-42.92,63-82.39,85.35s-72.21,43.15-65.66,95.89c4.19,33.79,31.42,69.86,68.42,68.65C195.88,336.65,214.08,291.76,267.6,297.26Z" style="fill:#fff;opacity:0.9"></path></g><g id="Shadow"><ellipse id="path" cx="250" cy="416.24" rx="193.89" ry="11.32" style="fill:#f5f5f5"></ellipse></g><g id="Target"><polygon points="157.57 327.19 149.9 327.19 160 415.86 167.67 415.86 157.57 327.19" style="fill:#263238"></polygon><polygon points="162.44 415.86 167.67 415.86 165.25 394.67 162.44 407.48 162.44 415.86" style="fill:#fff;opacity:0.30000000000000004"></polygon><polygon points="133.03 306.55 142.48 306.55 130.03 415.86 120.58 415.86 133.03 306.55" style="fill:#263238"></polygon><polygon points="183.91 327.19 176.24 327.19 186.34 415.86 194 415.86 183.91 327.19" style="fill:#263238"></polygon><polygon points="188.77 415.86 194 415.86 191.59 394.67 188.77 407.48 188.77 415.86" style="fill:#fff;opacity:0.30000000000000004"></polygon><path d="M157.8,253.09c-18.23,0-29.6,31.53-25.39,70.42s22.38,70.42,40.6,70.42h9.9L167.7,253.09Z" style="fill:#407BFF"></path><path d="M157.8,253.09c-18.23,0-29.6,31.53-25.39,70.42s22.38,70.42,40.6,70.42h9.9L167.7,253.09Z" style="opacity:0.30000000000000004"></path><ellipse cx="175.31" cy="323.51" rx="32.76" ry="70.94" transform="translate(-42.55 26.98) rotate(-7.85)" style="fill:#407BFF"></ellipse><ellipse cx="175.31" cy="323.51" rx="26.21" ry="56.75" transform="translate(-42.55 26.98) rotate(-7.85)" style="fill:#fff"></ellipse><ellipse cx="175.31" cy="323.51" rx="19.65" ry="42.56" transform="translate(-42.55 26.98) rotate(-7.85)" style="fill:#407BFF"></ellipse><ellipse cx="175.31" cy="323.51" rx="13.1" ry="28.38" transform="translate(-42.55 26.98) rotate(-7.85)" style="fill:#fff"></ellipse><ellipse cx="175.31" cy="323.51" rx="6.55" ry="14.19" transform="translate(-42.55 26.98) rotate(-7.85)" style="fill:#407BFF"></ellipse><path d="M103.25,416.28a.53.53,0,0,1-.28-1l81.22-52.16a.52.52,0,0,1,.73.16.53.53,0,0,1-.15.73L103.54,416.2A.6.6,0,0,1,103.25,416.28Z" style="fill:#263238"></path><polygon points="172.38 365.89 169.36 373.29 179.86 366.48 182.84 359.18 172.38 365.89" style="fill:#263238"></polygon><path d="M169.36,373.82a.54.54,0,0,1-.34-.12.52.52,0,0,1-.15-.61l3-7.4a.48.48,0,0,1,.2-.24l10.46-6.72a.53.53,0,0,1,.63,0,.54.54,0,0,1,.15.61l-3,7.3a.52.52,0,0,1-.2.24l-10.5,6.82A.51.51,0,0,1,169.36,373.82Zm3.44-7.57-2.31,5.68,8.94-5.81,2.28-5.59Z" style="fill:#263238"></path><polygon points="177.34 373.63 169.36 373.29 179.93 366.58 187.81 366.91 177.34 373.63" style="fill:#263238"></polygon><path d="M177.34,374.16h0l-8-.34a.51.51,0,0,1-.49-.39.53.53,0,0,1,.22-.58l10.57-6.72a.48.48,0,0,1,.31-.08l7.88.33a.53.53,0,0,1,.49.39.52.52,0,0,1-.23.58l-10.46,6.72A.48.48,0,0,1,177.34,374.16Zm-6.27-1.33,6.13.26,8.91-5.72-6-.25Z" style="fill:#263238"></path><path d="M194.09,423a.45.45,0,0,1-.25-.07.53.53,0,0,1-.22-.72l50.3-93a.53.53,0,0,1,.94.51l-50.31,92.95A.51.51,0,0,1,194.09,423Z" style="fill:#263238"></path><polygon points="234.91 337.33 235.84 345.27 241.74 334.23 240.82 326.4 234.91 337.33" style="fill:#263238"></polygon><path d="M235.84,345.8h-.1a.53.53,0,0,1-.43-.46l-.93-7.94a.54.54,0,0,1,.06-.31l5.92-10.93a.51.51,0,0,1,.56-.27.53.53,0,0,1,.43.46l.92,7.83a.56.56,0,0,1-.06.31l-5.91,11A.51.51,0,0,1,235.84,345.8Zm-.39-8.36.72,6.09,5-9.4-.71-6Z" style="fill:#263238"></path><polygon points="242.99 341.71 235.84 345.27 241.85 334.29 248.91 330.77 242.99 341.71" style="fill:#263238"></polygon><path d="M235.84,345.8a.59.59,0,0,1-.39-.16.53.53,0,0,1-.08-.62l6-11a.69.69,0,0,1,.23-.22l7.06-3.51a.52.52,0,0,1,.7.72L243.46,342a.54.54,0,0,1-.23.22l-7.16,3.57A.59.59,0,0,1,235.84,345.8Zm6.4-11.11L237.11,344l5.49-2.73,5-9.32Zm.75,7h0Z" style="fill:#263238"></path><path d="M160.2,264.54a.56.56,0,0,1-.39-.17.53.53,0,0,1,0-.75l70.86-65.37a.53.53,0,0,1,.71.78L160.56,264.4A.54.54,0,0,1,160.2,264.54Z" style="fill:#263238"></path><polygon points="219.54 203.01 217.85 210.83 227.01 202.29 228.68 194.58 219.54 203.01" style="fill:#263238"></polygon><path d="M217.85,211.36a.59.59,0,0,1-.26-.07.53.53,0,0,1-.26-.58L219,202.9a.53.53,0,0,1,.16-.28l9.14-8.43a.53.53,0,0,1,.87.51l-1.66,7.7a.61.61,0,0,1-.16.28l-9.16,8.53A.51.51,0,0,1,217.85,211.36Zm2.17-8.07-1.3,6,7.8-7.27,1.28-5.91Z" style="fill:#263238"></path><polygon points="225.77 209.77 217.85 210.83 227.09 202.38 234.91 201.34 225.77 209.77" style="fill:#263238"></polygon><path d="M217.85,211.36a.52.52,0,0,1-.48-.31.54.54,0,0,1,.12-.62l9.24-8.44a.51.51,0,0,1,.29-.13l7.82-1.05a.53.53,0,0,1,.43.92l-9.14,8.43a.51.51,0,0,1-.29.13l-7.92,1.06Zm9.48-8.48-7.88,7.2,6.08-.82,7.79-7.17Zm-1.56,6.89h0Z" style="fill:#263238"></path></g><g id="Character"><path d="M368.05,201.12l-4.61,2,6.19,7.59a26.28,26.28,0,0,0,2.5-6,2.42,2.42,0,0,0-1.71-2.95Z" style="fill:#ff8b7b"></path><polygon points="360.44 210.27 365.85 216.28 369.63 210.69 363.44 203.1 360.44 210.27" style="fill:#ff8b7b"></polygon><path d="M305.19,249.9h-.07a.28.28,0,0,1-.2-.34c21.24-80.75,46.14-138.31,46.38-138.88a.27.27,0,0,1,.37-.14.27.27,0,0,1,.14.36c-.25.57-25.13,58.09-46.36,138.81A.27.27,0,0,1,305.19,249.9Z" style="fill:#263238"></path><path d="M322.36,156.22c-2,4.84-4.09,9.5-6.41,14.17a116.31,116.31,0,0,1-8,13.87,28.79,28.79,0,0,1-3,3.66c-1,1-2.06,1.93-3.09,2.79-2.05,1.73-4.12,3.32-6.23,4.84a142.74,142.74,0,0,1-13,8.45l-3.58-4.62c3.5-3.68,7.1-7.27,10.64-10.81,1.76-1.78,3.52-3.54,5.16-5.3.81-.89,1.6-1.75,2.31-2.6a20.46,20.46,0,0,0,1.63-2.42c1.13-1.93,2.27-4.07,3.33-6.26s2.15-4.43,3.17-6.69c2.07-4.51,4.12-9.13,6.12-13.65Z" style="fill:#ff8b7b"></path><path d="M279.42,257.25a.53.53,0,0,1-.53-.5l-7.73-104a.52.52,0,0,1,.49-.57.53.53,0,0,1,.56.49l7.73,104a.51.51,0,0,1-.48.56Z" style="fill:#263238"></path><polygon points="282.98 245.19 277.78 239.12 279.03 251.57 284.16 257.56 282.98 245.19" style="fill:#263238"></polygon><path d="M284.16,258.09a.52.52,0,0,1-.4-.18l-5.13-6a.5.5,0,0,1-.12-.29l-1.26-12.46a.53.53,0,0,1,.93-.4l5.2,6.07a.56.56,0,0,1,.12.3l1.19,12.37a.54.54,0,0,1-.32.54A.52.52,0,0,1,284.16,258.09Zm-4.62-6.73,3.93,4.59-1-10.54-4-4.66Z" style="fill:#263238"></path><polygon points="273.83 246.07 277.78 239.12 278.91 251.59 275.01 258.44 273.83 246.07" style="fill:#263238"></polygon><path d="M275,259h-.11a.56.56,0,0,1-.42-.47l-1.18-12.37a.52.52,0,0,1,.07-.32l3.95-6.94a.51.51,0,0,1,.57-.26.54.54,0,0,1,.42.47l1.13,12.47a.57.57,0,0,1-.07.31l-3.9,6.85A.52.52,0,0,1,275,259Zm-.64-12.79,1,10.54,3-5.25-1-10.62Z" style="fill:#263238"></path><polygon points="271.83 207.77 269.78 201.31 274.79 198.77 277.1 206.17 271.83 207.77" style="fill:#ff8b7b"></polygon><path d="M360.56,144.65c2.9,4.42,5.63,8.88,8.28,13.42s5.2,9.15,7.63,13.88l.91,1.77.11.23.15.31.36.81a15.68,15.68,0,0,1,.52,1.55,18.32,18.32,0,0,1,.5,5.27,40.1,40.1,0,0,1-1.38,8.68,77.24,77.24,0,0,1-5.91,15.25l-5.48-2c.49-2.45,1-5,1.42-7.48s.81-5,1.06-7.39a38.37,38.37,0,0,0,.2-6.86,9.3,9.3,0,0,0-.5-2.46c-.06-.09-.1-.25-.15-.29a.19.19,0,0,1-.06-.07v0l-.06-.1-.13-.21-1-1.63-8.22-13.11c-2.76-4.37-5.52-8.79-8.2-13.18Z" style="fill:#ff8b7b"></path><path d="M319.28,118.16c.22.59.09,1.2-.29,1.35s-.87-.19-1.09-.78-.09-1.19.29-1.35S319.06,117.57,319.28,118.16Z" style="fill:#263238"></path><path d="M319.42,119.33a23.38,23.38,0,0,1-.9,6.2c1.39.55,3-.63,3-.63Z" style="fill:#ff5652"></path><path d="M317.12,114.7a.34.34,0,0,0,.19-.09,2.91,2.91,0,0,1,2.59-.56.37.37,0,0,0,.45-.27.38.38,0,0,0-.27-.45,3.63,3.63,0,0,0-3.27.74.37.37,0,0,0,0,.52A.38.38,0,0,0,317.12,114.7Z" style="fill:#263238"></path><path d="M340.86,119.33c.74,6.37-.48,14.38,3.88,17.58,0,0-.91,6-11.39,7.54-11.51,1.71-6.13-4.94-6.13-4.94,6.12-2.44,5.45-7.11,3.87-11.35Z" style="fill:#ff8b7b"></path><path d="M347.74,138.47c.62-1.94,1.13-4.86-.82-5.23-2.15-.41-15.64.52-23.16,4.2a6.93,6.93,0,0,1,.94,5.61Z" style="fill:#407BFF"></path><path d="M385.38,404.87a1.27,1.27,0,0,1-.79-.21.76.76,0,0,1-.18-.87.9.9,0,0,1,.49-.56c1.06-.52,3.42.39,3.52.43a.17.17,0,0,1,.12.16.16.16,0,0,1-.1.17A8.28,8.28,0,0,1,385.38,404.87Zm.37-1.44a1.57,1.57,0,0,0-.69.13.52.52,0,0,0-.29.34c-.1.34,0,.44.06.47.42.35,2,0,3.05-.52A7.82,7.82,0,0,0,385.75,403.43Z" style="fill:#407BFF"></path><path d="M388.36,404h-.05c-.86-.23-2.71-1.51-2.76-2.4A.62.62,0,0,1,386,401a1,1,0,0,1,.82,0c1,.51,1.68,2.66,1.71,2.76a.2.2,0,0,1-.05.18A.19.19,0,0,1,388.36,404Zm-2-2.73a.57.57,0,0,0-.22,0c-.24.09-.23.22-.23.27,0,.53,1.25,1.54,2.14,1.93-.22-.61-.73-1.84-1.39-2.17A.66.66,0,0,0,386.37,401.28Z" style="fill:#407BFF"></path><path d="M324.92,408.31c-1,0-2-.14-2.27-.59a.69.69,0,0,1,0-.81c.83-1.37,4.29.61,4.68.84a.18.18,0,0,1,.09.19.19.19,0,0,1-.15.15A13.6,13.6,0,0,1,324.92,408.31Zm-1.2-1.51a.79.79,0,0,0-.72.3c-.16.26-.08.37-.05.41.34.49,2.31.51,3.77.3A8.08,8.08,0,0,0,323.72,406.8Z" style="fill:#407BFF"></path><path d="M327.28,408.09h-.08c-.93-.43-2.7-2.08-2.55-3,0-.21.18-.47.7-.53a1.29,1.29,0,0,1,1,.33c1,.81,1.09,2.91,1.09,3a.18.18,0,0,1-.08.16A.19.19,0,0,1,327.28,408.09Zm-1.78-3.16h-.11c-.35,0-.37.18-.38.22-.09.55,1.11,1.85,2.05,2.42a4.13,4.13,0,0,0-.93-2.4A.92.92,0,0,0,325.5,404.93Z" style="fill:#407BFF"></path><polygon points="335.85 407.91 328.05 407.91 327.97 389.87 335.76 389.87 335.85 407.91" style="fill:#ff8b7b"></polygon><polygon points="397.01 401.65 389.46 403.55 381.94 386.84 389.5 384.94 397.01 401.65" style="fill:#ff8b7b"></polygon><path d="M388.74,402.8l8.49-2.13a.64.64,0,0,1,.75.36l2.92,6.41a1.2,1.2,0,0,1-.82,1.63c-3,.69-4.45.88-8.19,1.82-2.29.58-7,2-10.15,2.8s-4.25-2.26-3-2.88c5.55-2.75,7.37-5.07,8.88-7.23A2,2,0,0,1,388.74,402.8Z" style="fill:#263238"></path><path d="M328.14,407h8.51a.64.64,0,0,1,.64.53l1.27,6.92a1.19,1.19,0,0,1-1.17,1.39c-3.07-.05-7.5-.23-11.36-.23-4.51,0-6.34.24-11.63.24-3.2,0-4-3.23-2.61-3.52,6.14-1.34,9.06-1.48,14.45-4.73A3.76,3.76,0,0,1,328.14,407Z" style="fill:#263238"></path><path d="M353.86,136.38c7.41.59,17.86,19.17,17.86,19.17L358.31,167.7a116.28,116.28,0,0,1-11.38-15C341.66,144.31,346.29,135.77,353.86,136.38Z" style="fill:#407BFF"></path><path d="M353.86,136.38c7.41.59,17.86,19.17,17.86,19.17L358.31,167.7a116.28,116.28,0,0,1-11.38-15C341.66,144.31,346.29,135.77,353.86,136.38Z" style="opacity:0.30000000000000004"></path><path d="M350.07,149.78l8.87,17.35-.63.57s-3.43-3.75-7.26-8.92Z" style="opacity:0.2"></path><path d="M316.74,178c1.34,8.59,3.45,19.21,6.7,32.3l41.23-6.12c-.38-5.91-6.69-32.3-5.45-60.62a6.89,6.89,0,0,0-7-7.21c-2,.05-4.27.15-6.47.37a153.88,153.88,0,0,0-17.52,2.61,78.75,78.75,0,0,0-11.62,3.91s-3,4.34-1.37,22.41C315.53,169.25,316,173.34,316.74,178Z" style="fill:#407BFF"></path><path d="M316.74,178c1.34,8.59,3.45,19.21,6.7,32.3l41.23-6.12c-.38-5.91-6.69-32.3-5.45-60.62a6.89,6.89,0,0,0-7-7.21c-2,.05-4.27.15-6.47.37a153.88,153.88,0,0,0-17.52,2.61,78.75,78.75,0,0,0-11.62,3.91s-3,4.34-1.37,22.41C315.53,169.25,316,173.34,316.74,178Z" style="opacity:0.30000000000000004"></path><path d="M316.74,178c3.35-2.12,6.49-11.86,5.07-17l-6.6,4.61C315.53,169.25,316,173.34,316.74,178Z" style="opacity:0.2"></path><path d="M326,148.54c2.13,7.11-10.76,28-10.76,28l-15.43-8.05s3.5-10.54,9.05-18.65C315.06,140.81,323.6,140.54,326,148.54Z" style="fill:#407BFF"></path><path d="M326,148.54c2.13,7.11-10.76,28-10.76,28l-15.43-8.05s3.5-10.54,9.05-18.65C315.06,140.81,323.6,140.54,326,148.54Z" style="opacity:0.30000000000000004"></path><polygon points="327.98 389.87 328.01 399.17 335.81 399.17 335.77 389.87 327.98 389.87" style="opacity:0.2"></polygon><polygon points="389.5 384.94 381.94 386.84 385.82 395.46 393.38 393.56 389.5 384.94" style="opacity:0.2"></polygon><path d="M338.16,108.85c2.26,7.42,3.95,11.63,1.73,16.85a10.06,10.06,0,0,1-17.75,1.68c-3.95-5.87-7-17-1.07-22.81A10.16,10.16,0,0,1,338.16,108.85Z" style="fill:#ff8b7b"></path><path d="M326.24,114.71c-2.48-1.36-4.75-5.51-4.75-5.51-2.33.44-6.37.16-8-2.85a4.62,4.62,0,0,1,.66-5.3s3.74,1.81,6.17.41c3.4-2,14.18-6.18,17.19-2,3.29,4.61,8.25,4.87,6.66,10.06-2.36,7.75-.61,11.13-2.07,14s-6.27,2.18-9.19.77S326,118.19,326.24,114.71Z" style="fill:#263238"></path><path d="M323.76,110.23c-1.11,1.46-2.7,7.72-.53,13.24,1.71,4.36-1.5,4.2-.35,6.27s4.66,4.09,7.07,3.41c1.57-.45,3.58-.93,2.34-3.05s-5.43-6.06-6.05-9.28.7-7.91.7-7.91Z" style="fill:#263238"></path><path d="M329.36,114.8a9.17,9.17,0,0,1-.65,5.67c-1.1,2.33-1.56,2.46-2.47.35-.82-1.91-2.77-6.13-1.08-7.77S328.86,112.52,329.36,114.8Z" style="fill:#ff8b7b"></path><path d="M338.07,208.17s6.39,61.1,10.39,83.4c4.37,24.43,33.47,103,33.47,103l13.84-3.48s-21.93-73.13-24-97.31c-2.28-26.25-7.08-89.57-7.08-89.57Z" style="fill:#407BFF"></path><path d="M378.63,390c-.06,0,2.56,5,2.56,5l15.57-3.91-1.29-4.72Z" style="fill:#263238"></path><path d="M342,232a3.64,3.64,0,0,0-1.35,0c2.06,18.26,5,42.64,7.27,56.59C349.85,268.28,351.63,233.89,342,232Z" style="opacity:0.2"></path><path d="M323.45,210.34s-3.63,57.64-3.7,81.4c-.08,24.71,5.43,105.63,5.43,105.63h13.2s3.55-79.48,5.08-103.75c1.66-26.46,7.08-87.3,7.08-87.3Z" style="fill:#407BFF"></path><path d="M283.07,201.11l-1-1.58a13.78,13.78,0,0,0-7.66-.68l2.65,7.32,4.62-1.48A2.44,2.44,0,0,0,283.07,201.11Z" style="fill:#ff8b7b"></path><path d="M322.84,392.11c-.06,0,.54,5.48.54,5.48h16.05l.63-4.89Z" style="fill:#263238"></path><path d="M303,255.67a3.67,3.67,0,0,1-1.54-2.66,4.29,4.29,0,0,1,.7-3,2.76,2.76,0,0,1,1.27-1,2.22,2.22,0,0,1,1.68,0c.28.13.46.24.65.34s.4.19.59.28a7,7,0,0,0,1.25.39,9.13,9.13,0,0,0,5.17-.59,20,20,0,0,0,4.65-2.73,46.48,46.48,0,0,0,7.68-7.8,91.37,91.37,0,0,0,6.3-9,158.55,158.55,0,0,0,10.15-19.64c3-6.74,5.58-13.68,7.92-20.68s4.31-14.13,6-21.32a170.26,170.26,0,0,0,3.65-21.83,107.22,107.22,0,0,0,.53-11,60.87,60.87,0,0,0-1-11,30.53,30.53,0,0,0-1.48-5.25,14.91,14.91,0,0,0-2.74-4.61,10.32,10.32,0,0,0-1-.91,5.25,5.25,0,0,0-.53-.4c-.18-.12-.36-.23-.6-.41A3.83,3.83,0,0,1,351,110.1a4.09,4.09,0,0,1,1-2.89,2.64,2.64,0,0,1,1.4-.84,2.37,2.37,0,0,1,1.65.29h0a.43.43,0,0,1,.15.6.44.44,0,0,1-.6.16h0a1.47,1.47,0,0,0-2,.36,3.22,3.22,0,0,0-.72,2.28,3,3,0,0,0,1,2.14l.55.37a6.36,6.36,0,0,1,.59.43,11.13,11.13,0,0,1,1.08,1,16.06,16.06,0,0,1,3,4.84,31.59,31.59,0,0,1,1.67,5.41,61,61,0,0,1,1.27,11.17,110.26,110.26,0,0,1-.27,11.21,187.86,187.86,0,0,1-9,43.76c-4.69,14.15-10.68,28-18.82,40.53a94.76,94.76,0,0,1-6.65,9.05,47.79,47.79,0,0,1-8.12,7.83,21.15,21.15,0,0,1-5,2.75,10.09,10.09,0,0,1-5.76.5,8.15,8.15,0,0,1-1.39-.48,5.8,5.8,0,0,1-.66-.33c-.22-.12-.43-.25-.58-.31a1.54,1.54,0,0,0-1.9.66,3.4,3.4,0,0,0-.56,2.34,2.75,2.75,0,0,0,1.15,2h0a.44.44,0,0,1-.45.75Z" style="fill:#263238"></path><path d="M345.11,205.68h0a3.38,3.38,0,0,1-1.88-3.77l6.89-19.55c.46-1.29,2-1.7,3.53-.9h0a3.38,3.38,0,0,1,1.88,3.77l-6.89,19.55C348.18,206.07,346.6,206.48,345.11,205.68Z" style="fill:#263238"></path></g></svg>