<svg xmlns="http://www.w3.org/2000/svg" viewBox="0 0 500 500"><g id="background-complete"><rect y="382.4" width="500" height="0.25" style="fill:#ebebeb"></rect><rect x="416.78" y="398.49" width="33.12" height="0.25" style="fill:#ebebeb"></rect><rect x="322.53" y="401.21" width="8.69" height="0.25" style="fill:#ebebeb"></rect><rect x="396.59" y="389.21" width="19.19" height="0.25" style="fill:#ebebeb"></rect><rect x="52.46" y="390.89" width="43.19" height="0.25" style="fill:#ebebeb"></rect><rect x="104.56" y="390.89" width="6.33" height="0.25" style="fill:#ebebeb"></rect><rect x="131.47" y="395.11" width="93.68" height="0.25" style="fill:#ebebeb"></rect><path d="M237,337.8H43.91a5.71,5.71,0,0,1-5.7-5.71V60.66A5.71,5.71,0,0,1,43.91,55H237a5.71,5.71,0,0,1,5.71,5.71V332.09A5.71,5.71,0,0,1,237,337.8ZM43.91,55.2a5.46,5.46,0,0,0-5.45,5.46V332.09a5.46,5.46,0,0,0,5.45,5.46H237a5.47,5.47,0,0,0,5.46-5.46V60.66A5.47,5.47,0,0,0,237,55.2Z" style="fill:#ebebeb"></path><path d="M453.31,337.8H260.21a5.72,5.72,0,0,1-5.71-5.71V60.66A5.72,5.72,0,0,1,260.21,55h193.1A5.71,5.71,0,0,1,459,60.66V332.09A5.71,5.71,0,0,1,453.31,337.8ZM260.21,55.2a5.47,5.47,0,0,0-5.46,5.46V332.09a5.47,5.47,0,0,0,5.46,5.46h193.1a5.47,5.47,0,0,0,5.46-5.46V60.66a5.47,5.47,0,0,0-5.46-5.46Z" style="fill:#ebebeb"></path><rect x="228.15" y="79.78" width="194.79" height="171.1" style="fill:#e6e6e6"></rect><rect x="230.53" y="79.78" width="197.5" height="171.1" style="fill:#f0f0f0"></rect><rect x="228.15" y="250.87" width="194.79" height="4.72" style="fill:#e6e6e6"></rect><rect x="238.99" y="250.87" width="197.5" height="4.72" style="fill:#f0f0f0"></rect><rect x="250.84" y="73.69" width="156.88" height="183.27" transform="translate(494.6 -163.95) rotate(90)" style="fill:#fafafa"></rect><polygon points="262.17 243.76 282.38 86.89 317.37 86.89 297.15 243.76 262.17 243.76" style="fill:#fff"></polygon><polygon points="304.66 243.76 324.88 86.89 338.52 86.89 318.3 243.76 304.66 243.76" style="fill:#fff"></polygon><rect x="342.02" y="164.87" width="156.88" height="0.9" transform="translate(585.79 -255.14) rotate(90)" style="fill:#e6e6e6"></rect><polygon points="429.7 101.84 234.91 101.84 234.26 89.65 429.05 89.65 429.7 101.84" style="fill:#e0e0e0;opacity:0.5"></polygon><polygon points="429.7 121.87 234.91 121.87 234.26 109.69 429.05 109.69 429.7 121.87" style="fill:#e0e0e0;opacity:0.5"></polygon><polygon points="429.7 141.9 234.91 141.9 234.26 129.72 429.05 129.72 429.7 141.9" style="fill:#e0e0e0;opacity:0.5"></polygon><polygon points="429.7 161.94 234.91 161.94 234.26 149.75 429.05 149.75 429.7 161.94" style="fill:#e0e0e0;opacity:0.5"></polygon><polygon points="429.7 181.97 234.91 181.97 234.26 169.78 429.05 169.78 429.7 181.97" style="fill:#e0e0e0;opacity:0.5"></polygon><polygon points="429.7 202 234.91 202 234.26 189.81 429.05 189.81 429.7 202" style="fill:#e0e0e0;opacity:0.5"></polygon><rect x="58.65" y="115.72" width="60.85" height="120.31" style="fill:#e0e0e0"></rect><rect x="61.06" y="115.72" width="62.05" height="120.31" style="fill:#f5f5f5"></rect><rect x="38.89" y="150.04" width="106.39" height="51.65" transform="translate(-83.79 267.96) rotate(-90)" style="fill:#fff"></rect><rect x="139.89" y="97.36" width="60.85" height="120.31" style="fill:#e0e0e0"></rect><rect x="142.3" y="97.36" width="62.05" height="120.31" style="fill:#f5f5f5"></rect><rect x="120.13" y="131.68" width="106.39" height="51.66" transform="translate(15.82 330.84) rotate(-90)" style="fill:#fff"></rect><rect x="164.32" y="271.52" width="25.61" height="110.88" style="fill:#e6e6e6"></rect><polygon points="185.07 382.4 189.93 382.4 189.93 371.11 179.97 371.11 185.07 382.4" style="fill:#f0f0f0"></polygon><rect x="68.59" y="271.52" width="25.61" height="110.88" style="fill:#e6e6e6"></rect><rect x="89.95" y="271.52" width="99.98" height="103.95" style="fill:#f0f0f0"></rect><rect x="122.41" y="297.6" width="82.92" height="44.58" transform="translate(-156.03 483.76) rotate(-90)" style="fill:#e6e6e6"></rect><rect x="74.56" y="297.6" width="82.92" height="44.58" transform="translate(-203.88 435.91) rotate(-90)" style="fill:#e6e6e6"></rect><path d="M120.43,281.6h-8.82A15.62,15.62,0,0,1,101.48,278h29.08A15.62,15.62,0,0,1,120.43,281.6Z" style="fill:#f0f0f0"></path><path d="M168.73,281.6h-8.82A15.6,15.6,0,0,1,149.78,278h29.08A15.62,15.62,0,0,1,168.73,281.6Z" style="fill:#f0f0f0"></path><polygon points="94.82 382.4 89.95 382.4 89.95 371.11 99.92 371.11 94.82 382.4" style="fill:#f0f0f0"></polygon><path d="M113.42,260.94s.76,10.58,29.91,10.58,29.91-10.58,29.91-10.58Z" style="fill:#e6e6e6"></path><rect x="228.33" y="290.05" width="218.82" height="18.32" transform="translate(675.47 598.42) rotate(180)" style="fill:#ebebeb"></rect><rect x="228.33" y="290.05" width="62.11" height="18.32" transform="translate(518.77 598.42) rotate(180)" style="fill:#e0e0e0"></rect><rect x="434.05" y="308.37" width="13.1" height="74.03" transform="translate(881.2 690.77) rotate(180)" style="fill:#ebebeb"></rect><polygon points="434.05 313.5 447.15 310.94 447.15 308.37 434.05 308.37 434.05 313.5" style="fill:#e0e0e0"></polygon><rect x="228.33" y="308.37" width="13.1" height="74.03" transform="translate(469.75 690.77) rotate(180)" style="fill:#e0e0e0"></rect><rect x="277.34" y="308.37" width="13.1" height="74.03" transform="translate(567.78 690.77) rotate(180)" style="fill:#ebebeb"></rect><polygon points="277.34 313.5 290.44 310.94 290.44 308.37 277.34 308.37 277.34 313.5" style="fill:#e0e0e0"></polygon><rect x="393.04" y="308.37" width="13.1" height="74.03" transform="translate(799.18 690.77) rotate(180)" style="fill:#e0e0e0"></rect></g><g id="background-simple"><path d="M407.54,95.87A96,96,0,0,0,399.29,88c-25.11-21.29-65.1-33.42-99-22.87-20.19,6.28-33.49,23.76-50.71,35.41-21.66,14.65-50,19.65-75.52,25.18-34.43,7.46-66.32,17.2-86.5,45.45-16.77,23.49-21.74,54.38-6.94,79,14.08,23.38,36.31,43.35,60.37,58.19,20.7,12.77,42.25,16.77,64.81,3.38,14.74-8.75,25.72-21.76,37-34.1,12.74-14,29-31.29,49.2-35.55,19.22-4.06,39.86,3.26,59.28,2.1,32.09-1.91,61.28-23.57,73.44-51C439.14,160.61,431.7,121.83,407.54,95.87Z" style="fill:#407BFF"></path><path d="M407.54,95.87A96,96,0,0,0,399.29,88c-25.11-21.29-65.1-33.42-99-22.87-20.19,6.28-33.49,23.76-50.71,35.41-21.66,14.65-50,19.65-75.52,25.18-34.43,7.46-66.32,17.2-86.5,45.45-16.77,23.49-21.74,54.38-6.94,79,14.08,23.38,36.31,43.35,60.37,58.19,20.7,12.77,42.25,16.77,64.81,3.38,14.74-8.75,25.72-21.76,37-34.1,12.74-14,29-31.29,49.2-35.55,19.22-4.06,39.86,3.26,59.28,2.1,32.09-1.91,61.28-23.57,73.44-51C439.14,160.61,431.7,121.83,407.54,95.87Z" style="fill:#fff;opacity:0.9"></path></g><g id="Shadow"><ellipse id="path" cx="250" cy="416.24" rx="193.89" ry="11.32" style="fill:#f5f5f5"></ellipse></g><g id="Smartphone"><path d="M232.51,129.33H113.22A13.62,13.62,0,0,0,99.5,144l17.1,254.4a16,16,0,0,0,15.7,14.7H251.59a13.6,13.6,0,0,0,13.71-14.7L248.2,144A16,16,0,0,0,232.51,129.33Z" style="fill:#407BFF"></path><path d="M232.51,129.33H113.22A13.62,13.62,0,0,0,99.5,144l17.1,254.4a16,16,0,0,0,15.7,14.7H251.59a13.6,13.6,0,0,0,13.71-14.7L248.2,144A16,16,0,0,0,232.51,129.33Z" style="fill:#fff;opacity:0.30000000000000004"></path><rect x="99.47" y="183.84" width="1" height="24.05" transform="translate(-12.91 7.14) rotate(-3.84)" style="fill:#407BFF"></rect><rect x="101.49" y="220.48" width="1" height="10.78" transform="translate(-14.92 7.35) rotate(-3.85)" style="fill:#407BFF"></rect><path d="M125.26,401a4,4,0,0,1-7.76,1.66,15.27,15.27,0,0,1-.9-4.21L99.5,144a14.33,14.33,0,0,1,.34-4.27,4,4,0,0,1,7.91.65Z" style="fill:#407BFF"></path><path d="M251.59,408.33H140.76a11.24,11.24,0,0,1-10.89-10.22l-17.1-254.39a8.79,8.79,0,0,1,8.91-9.57H232.51a11.24,11.24,0,0,1,10.89,10.21l17.1,254.4a8.81,8.81,0,0,1-8.91,9.57ZM121.68,135.22a7.73,7.73,0,0,0-7.84,8.43L130.94,398a10.13,10.13,0,0,0,9.82,9.22H251.59a7.73,7.73,0,0,0,7.84-8.43l-17.1-254.39a10.13,10.13,0,0,0-9.82-9.22Z" style="fill:#fff"></path><g style="opacity:0.5"><ellipse cx="187.81" cy="215.42" rx="44.54" ry="49.79" transform="translate(-97.75 203.84) rotate(-46.6)" style="fill:#407BFF"></ellipse><ellipse cx="187.81" cy="215.42" rx="35.63" ry="39.83" transform="translate(-97.75 203.85) rotate(-46.6)" style="fill:#fff"></ellipse><ellipse cx="187.81" cy="215.42" rx="26.72" ry="29.87" transform="translate(-97.75 203.84) rotate(-46.59)" style="fill:#407BFF"></ellipse><ellipse cx="187.81" cy="215.42" rx="17.82" ry="19.92" transform="translate(-97.75 203.85) rotate(-46.6)" style="fill:#fff"></ellipse><ellipse cx="187.81" cy="215.42" rx="8.91" ry="9.96" transform="translate(-97.75 203.83) rotate(-46.59)" style="fill:#407BFF"></ellipse></g><path d="M196.89,279.51c-.18,0-.35,0-.53,0a16.48,16.48,0,0,0-14.42-8.9,14.79,14.79,0,0,0-4.51.7,16.91,16.91,0,0,0-14.64-8.81,14.34,14.34,0,0,0-14.55,14.18,11.2,11.2,0,0,0-10.5,12.13,13.21,13.21,0,0,0,13,12.17h47.62a9.92,9.92,0,0,0,10-10.75A11.67,11.67,0,0,0,196.89,279.51Z" style="fill:#fff"></path><path d="M227.22,163.16l-.41,0a12.84,12.84,0,0,0-11.24-6.93,11.58,11.58,0,0,0-3.52.54,13.19,13.19,0,0,0-11.41-6.86,11.18,11.18,0,0,0-11.34,11,8.74,8.74,0,0,0-8.19,9.46,10.3,10.3,0,0,0,10.13,9.48h37.12a7.73,7.73,0,0,0,7.81-8.38A9.11,9.11,0,0,0,227.22,163.16Z" style="fill:#fff"></path><path d="M242,318.86H173.44a3.56,3.56,0,0,0-3.59,3.85l2.78,40.89a4.17,4.17,0,0,0,4.11,3.85h9.2l.77,11.31,10.53-11.31h48a3.55,3.55,0,0,0,3.59-3.85l-2.77-40.89A4.19,4.19,0,0,0,242,318.86Z" style="fill:#fff;opacity:0.30000000000000004"></path><polygon points="241.47 345.74 177.61 345.74 177.26 340.57 241.13 340.57 241.47 345.74" style="fill:#fff"></polygon><polygon points="222 356.48 178.34 356.48 177.99 351.31 221.65 351.31 222 356.48" style="fill:#fff"></polygon><polygon points="240.75 335 176.88 335 176.53 329.83 240.4 329.83 240.75 335" style="fill:#fff"></polygon></g><g id="Character"><path d="M295.64,146l2.63,1.89q1.37,1,2.76,1.89c1.85,1.23,3.71,2.46,5.59,3.58s3.78,2.18,5.66,3.12a40.57,40.57,0,0,0,5.46,2.27,3.27,3.27,0,0,0-1.27-.06,2.41,2.41,0,0,0-.73.21c-.29.15-.2.16-.05.07a7.77,7.77,0,0,0,1.55-1.42,39.05,39.05,0,0,0,3.56-5c1.17-1.84,2.29-3.79,3.36-5.79s2.14-4.05,3.13-6l.07-.13a4.5,4.5,0,0,1,8.34,3.27,97.21,97.21,0,0,1-5.15,13.92,48.06,48.06,0,0,1-3.95,6.95,20.53,20.53,0,0,1-3.29,3.71,11.32,11.32,0,0,1-3.05,1.9,9.83,9.83,0,0,1-2.44.65,8.89,8.89,0,0,1-3-.17,49.81,49.81,0,0,1-7.82-2.51,71.33,71.33,0,0,1-6.94-3.27q-3.33-1.77-6.49-3.73c-1.05-.66-2.09-1.33-3.12-2s-2-1.37-3.13-2.19a7,7,0,0,1,8.19-11.24Z" style="fill:#407BFF"></path><path d="M295.64,146l2.63,1.89q1.37,1,2.76,1.89c1.85,1.23,3.71,2.46,5.59,3.58s3.78,2.18,5.66,3.12a40.57,40.57,0,0,0,5.46,2.27,3.27,3.27,0,0,0-1.27-.06,2.41,2.41,0,0,0-.73.21c-.29.15-.2.16-.05.07a7.77,7.77,0,0,0,1.55-1.42,39.05,39.05,0,0,0,3.56-5c1.17-1.84,2.29-3.79,3.36-5.79s2.14-4.05,3.13-6l.07-.13a4.5,4.5,0,0,1,8.34,3.27,97.21,97.21,0,0,1-5.15,13.92,48.06,48.06,0,0,1-3.95,6.95,20.53,20.53,0,0,1-3.29,3.71,11.32,11.32,0,0,1-3.05,1.9,9.83,9.83,0,0,1-2.44.65,8.89,8.89,0,0,1-3-.17,49.81,49.81,0,0,1-7.82-2.51,71.33,71.33,0,0,1-6.94-3.27q-3.33-1.77-6.49-3.73c-1.05-.66-2.09-1.33-3.12-2s-2-1.37-3.13-2.19a7,7,0,0,1,8.19-11.24Z" style="opacity:0.2"></path><path d="M329.81,138.89l2.71-4.58,5.2,5.61a6.91,6.91,0,0,1-3.78,3.55,2.58,2.58,0,0,1-2.27-.3l-1-.64A2.71,2.71,0,0,1,329.81,138.89Z" style="fill:#ffb573"></path><path d="M339.89,131.58l1.15.71a2.72,2.72,0,0,1,.37,4.35l-3.69,3.28-5.2-5.61,4.53-2.74A2.71,2.71,0,0,1,339.89,131.58Z" style="fill:#ffb573"></path><polygon points="232.02 408.12 239.94 408.35 242.92 390.01 235.01 389.78 232.02 408.12" style="fill:#ffb573"></polygon><path d="M241.19,406.12,232.34,405a.57.57,0,0,0-.65.47l-1.31,6.94a1.4,1.4,0,0,0,1.2,1.57c3.09.34,4.58.34,8.47.83,2.39.31,8.62,1.81,11.93,1.4s2.81-3.66,1.37-3.78c-6.45-.56-8.87-3.63-10.87-5.66A2.25,2.25,0,0,0,241.19,406.12Z" style="fill:#263238"></path><polygon points="235 389.79 242.92 390.02 241.38 399.47 233.46 399.24 235 389.79" style="opacity:0.2"></polygon><path d="M278.29,214s-6.91,65.59-11.51,87.87c-5,24.4-21.17,95.78-21.17,95.78l-14.49-1.07s7.94-73.84,14.44-97.74c0-24.82,6-94.38,6-94.38Z" style="fill:#263238"></path><path d="M255.2,236.17c-.13-5.13-2.91-6.78-5.65-6.72-1,12.34-2.07,27.47-2.88,41.12C251.53,262.69,255.56,250.42,255.2,236.17Z" style="opacity:0.30000000000000004"></path><polygon points="230.69 396.68 246.21 397.83 247.99 391.98 230.12 391.8 230.69 396.68" style="fill:#fff"></polygon><polygon points="151.71 346.65 156.7 352.82 171.63 342.05 166.63 335.89 151.71 346.65" style="fill:#ffb573"></polygon><path d="M157.78,352.83l-4.44-7.73a.57.57,0,0,0-.76-.24L146.25,348a1.4,1.4,0,0,0-.53,1.9c1.59,2.67,2.49,3.86,4.44,7.26,1.2,2.09,4.36,8.1,6,11s4.47,1.17,4-.2c-2-6.16-2.57-10.87-2.16-13.68A2.24,2.24,0,0,0,157.78,352.83Z" style="fill:#263238"></path><polygon points="166.63 335.89 171.63 342.06 163.93 347.6 158.93 341.44 166.63 335.89" style="opacity:0.2"></polygon><path d="M263.84,208.36s-19.49,55.78-28.35,76.74c-9.69,22.95-67.64,63.71-67.64,63.71l-9.15-11.29s39.38-39.47,54-58.19c8.1-25.49,25.39-80.18,25.39-80.18Z" style="fill:#263238"></path><polygon points="158.33 337.06 168.22 349.26 173.05 346.47 161.47 333.55 158.33 337.06" style="fill:#fff"></polygon><path d="M278.21,214.38l-40.16-15.23c1-3.67,6.25-14.45,10.92-29.46a202.64,202.64,0,0,0,7.68-34v0a2.49,2.49,0,0,1,2.91-2.15c.75.13,1.64.3,2.62.49,2.53.51,5.69,1.23,8.7,2.15a157.65,157.65,0,0,1,17,6.06,51.8,51.8,0,0,1,5.41,2.83,14.81,14.81,0,0,1,2.87,2.13,3,3,0,0,1,1.11,2.06C297.27,155,291.52,177.24,278.21,214.38Z" style="fill:#f0f0f0"></path><path d="M287.08,141.87c-4.52-2.94-4.3-6.3-2.77-9.54A22.74,22.74,0,0,1,285.6,130l-4.35-7.35-3.2-5.39c-.7,5.92-2.84,16.4-7.84,18.72a22,22,0,0,0,11.13,8.2C288.72,146.48,287.08,141.87,287.08,141.87Z" style="fill:#ffb573"></path><polygon points="281.06 144.06 280.99 142.18 275.99 143.16 281.06 144.06" style="fill:#e0e0e0"></polygon><polygon points="281.06 144.06 281.99 142.53 285.22 146.46 281.06 144.06" style="fill:#e0e0e0"></polygon><path d="M270.89,135.08a47.22,47.22,0,0,0,10.1,7.1c-2,1.23-3.9,4.47-4.62,7.15-1.62-1.13-8.1-11.79-9-14.72Z" style="fill:#fff"></path><path d="M286.14,140.73a8,8,0,0,1-4.16,1.8c1.07,1.57,2,5.64,2,8,1.87-1.22,4.76-5.48,5.22-7.41Z" style="fill:#fff"></path><path d="M286.3,140.59s4.37,2.1,8.23,4.48a8.57,8.57,0,0,1,3.76,9.59c-4.77,16.86-11.21,33.23-13.88,42.34-2.83,9.71-6.77,21.89-6.77,21.89l-6.81,1.61S287.9,155.21,286.3,140.59Z" style="opacity:0.30000000000000004"></path><path d="M270.79,134.32s-5.87-.77-11-1a7.83,7.83,0,0,0-7.94,5.89c-2.6,10.28-4.52,29.94-7.15,37.59C241.43,186.36,237,205,237,205l23.26,13.44S283.76,146.25,270.79,134.32Z" style="opacity:0.30000000000000004"></path><path d="M270.79,134.32s-5.87-.77-11-1a7.83,7.83,0,0,0-7.94,5.89c-2.6,10.28-6.14,29.48-8.78,37.14-3.29,9.56-10.27,25.81-10.27,25.81l29.34,13.76S283.76,146.25,270.79,134.32Z" style="fill:#407BFF"></path><path d="M270.79,134.32s-5.87-.77-11-1a7.83,7.83,0,0,0-7.94,5.89c-2.6,10.28-6.14,29.48-8.78,37.14-3.29,9.56-10.27,25.81-10.27,25.81l29.34,13.76S283.76,146.25,270.79,134.32Z" style="opacity:0.2"></path><path d="M286.3,140.59s4.37,2.1,8.23,4.48a8.57,8.57,0,0,1,3.76,9.59c-4.77,16.86-8.54,34.53-10.44,43.83-2,9.9-4.09,18.91-4.09,18.91l-11,1.49S287.9,155.21,286.3,140.59Z" style="fill:#407BFF"></path><path d="M286.3,140.59s4.37,2.1,8.23,4.48a8.57,8.57,0,0,1,3.76,9.59c-4.77,16.86-8.54,34.53-10.44,43.83-2,9.9-4.09,18.91-4.09,18.91l-11,1.49S287.9,155.21,286.3,140.59Z" style="opacity:0.2"></path><path d="M285.6,130a22.74,22.74,0,0,0-1.29,2.36c-2.14-1.29-4.34-4.85-3.82-7.32a11.24,11.24,0,0,1,.76-2.39Z" style="opacity:0.2"></path><path d="M291.77,99.68c5.32.69,7.27,7.87,4.33,12.61C291.28,105.3,291.77,99.68,291.77,99.68Z" style="fill:#263238"></path><path d="M275.21,112.92c1.8,7.69,2.45,12.27,7.06,15.72A10.26,10.26,0,0,0,298.76,121c.5-7.19-2.52-18.56-10.67-20.62A10.38,10.38,0,0,0,275.21,112.92Z" style="fill:#ffb573"></path><path d="M277.58,119.77c4.63.13,3.91-7.54,1.89-10.44,6.42,1,17.06-4.67,18.13-10.61,1.55-8.61-11.58-8.61-15.83-5.87,1.83.13,2.76,1.68,2.32,2.48,0,0-6.34-1.92-10.44.31,1.79.66,3.69,3.24-3.12,4.06-6.48.78-4.52,7.3-1.25,7.18-1.74,2.67-3.83,8.74.09,11.32s6.6,5.94,5.75,7.32C276.49,125.47,279.4,123.82,277.58,119.77Z" style="fill:#263238"></path><path d="M270.21,106.28c-3.1.3-4.88,2.72-5,6A24,24,0,0,1,270.21,106.28Z" style="fill:#263238"></path><path d="M273.36,119.87a7,7,0,0,0,3.8,3.42c2.17.79,3.31-1.13,2.75-3.27-.51-1.94-2.25-4.67-4.45-4.53S272.4,117.91,273.36,119.87Z" style="fill:#ffb573"></path><path d="M287.4,113.51c.1.63.53,1.09.94,1s.66-.61.56-1.24-.53-1.1-.95-1S287.29,112.88,287.4,113.51Z" style="fill:#263238"></path><path d="M294.57,112.55c.1.63.52,1.09.94,1s.66-.61.56-1.25-.53-1.09-.95-1S294.46,111.91,294.57,112.55Z" style="fill:#263238"></path><path d="M292.34,113.17a24.21,24.21,0,0,0,3.94,5c-.94,1.19-2.93,1-2.93,1Z" style="fill:#ed893e"></path><path d="M291.05,121.18a5.46,5.46,0,0,1-4-1.59.19.19,0,0,1,0-.26.19.19,0,0,1,.27,0,5.22,5.22,0,0,0,4.43,1.41.19.19,0,1,1,.05.37A4.81,4.81,0,0,1,291.05,121.18Z" style="fill:#263238"></path><path d="M289.05,123.26a5.46,5.46,0,0,1-2.18-3.73.19.19,0,0,1,.17-.2.18.18,0,0,1,.2.17,5.33,5.33,0,0,0,2.62,3.85.18.18,0,0,1,.07.25.19.19,0,0,1-.26.07A7.4,7.4,0,0,1,289.05,123.26Z" style="fill:#263238"></path><path d="M284.79,111.5a.37.37,0,0,1-.18,0,.37.37,0,0,1-.16-.51,3.64,3.64,0,0,1,2.78-2,.37.37,0,0,1,.4.35.37.37,0,0,1-.35.4,2.9,2.9,0,0,0-2.17,1.55A.35.35,0,0,1,284.79,111.5Z" style="fill:#263238"></path><path d="M297.23,109.68a.36.36,0,0,1-.31-.16,3.14,3.14,0,0,0-2.4-1.4.38.38,0,0,1,0-.75h0a3.86,3.86,0,0,1,3,1.72.37.37,0,0,1-.09.52A.33.33,0,0,1,297.23,109.68Z" style="fill:#263238"></path><path d="M261.94,146.26c-2,1.63-4.11,3.44-6.12,5.21s-4.06,3.59-6,5.45A117.1,117.1,0,0,0,239,168.38l-1.14,1.48-.14.19a1.09,1.09,0,0,0,.08-.14,2.17,2.17,0,0,0,.15-.35,1.86,1.86,0,0,0,.12-.63c0-.34-.06-.34,0-.18a3.25,3.25,0,0,0,.26.89,14.4,14.4,0,0,0,1.5,2.68,35.22,35.22,0,0,0,2.22,2.92c1.61,2,3.41,3.91,5.3,5.8s3.89,3.8,5.8,5.55l.13.11a4.49,4.49,0,0,1-5.47,7.09,90.11,90.11,0,0,1-14-10.95c-1.09-1.09-2.16-2.23-3.21-3.49a28.27,28.27,0,0,1-3-4.39,16.53,16.53,0,0,1-1.27-3,11.21,11.21,0,0,1-.46-4.33,9.9,9.9,0,0,1,.62-2.67,10.13,10.13,0,0,1,.61-1.29l.36-.59.16-.24,1.3-1.93a108.8,108.8,0,0,1,11.53-13.59c2-2.08,4.1-4.11,6.23-6.07s4.24-3.85,6.59-5.77A7,7,0,0,1,262,146.23Z" style="fill:#407BFF"></path><path d="M261.94,146.26c-2,1.63-4.11,3.44-6.12,5.21s-4.06,3.59-6,5.45A117.1,117.1,0,0,0,239,168.38l-1.14,1.48-.14.19a1.09,1.09,0,0,0,.08-.14,2.17,2.17,0,0,0,.15-.35,1.86,1.86,0,0,0,.12-.63c0-.34-.06-.34,0-.18a3.25,3.25,0,0,0,.26.89,14.4,14.4,0,0,0,1.5,2.68,35.22,35.22,0,0,0,2.22,2.92c1.61,2,3.41,3.91,5.3,5.8s3.89,3.8,5.8,5.55l.13.11a4.49,4.49,0,0,1-5.47,7.09,90.11,90.11,0,0,1-14-10.95c-1.09-1.09-2.16-2.23-3.21-3.49a28.27,28.27,0,0,1-3-4.39,16.53,16.53,0,0,1-1.27-3,11.21,11.21,0,0,1-.46-4.33,9.9,9.9,0,0,1,.62-2.67,10.13,10.13,0,0,1,.61-1.29l.36-.59.16-.24,1.3-1.93a108.8,108.8,0,0,1,11.53-13.59c2-2.08,4.1-4.11,6.23-6.07s4.24-3.85,6.59-5.77A7,7,0,0,1,262,146.23Z" style="opacity:0.2"></path><path d="M254.67,188.24l6.8,4.16-8.69,4.95s-5.78-4.32-3.31-7.11l2.9-2A2.11,2.11,0,0,1,254.67,188.24Z" style="fill:#ffb573"></path><path d="M261.84,200l-3.74,2.2a2.25,2.25,0,0,1-3.12-.84l-2.2-4,8.69-4.95,1.4,5A2.28,2.28,0,0,1,261.84,200Z" style="fill:#ffb573"></path></g><g id="Megaphone"><path d="M326.89,129.38l9.21-1.81c-2.53,4.46,1.19,8.73,4.53,11.41,1.59,1.28.47,3.57-2,4l-6,1.18C325.39,145.62,326.89,129.38,326.89,129.38Z" style="fill:#407BFF"></path><path d="M323.23,130.09,344.35,126a12.72,12.72,0,0,0,10-14.9h0a12.74,12.74,0,0,0-14.9-10l-21.11,4.14a12.75,12.75,0,0,0-10,14.91h0A12.73,12.73,0,0,0,323.23,130.09Z" style="fill:#407BFF"></path><path d="M323.23,130.09,344.35,126a12.72,12.72,0,0,0,10-14.9h0a12.74,12.74,0,0,0-14.9-10l-21.11,4.14a12.75,12.75,0,0,0-10,14.91h0A12.73,12.73,0,0,0,323.23,130.09Z" style="fill:#fff;opacity:0.30000000000000004"></path><path d="M380.71,134.4l-36-.48c-3.12.61-11-39.79-7.92-40.4l33.14-14Z" style="fill:#407BFF"></path><path d="M372.45,107.51c3,15.16,6.67,27.2,8.26,26.89s.47-12.86-2.51-28-6.67-27.2-8.26-26.89S369.48,92.34,372.45,107.51Z" style="fill:#407BFF"></path><path d="M372.45,107.51c3,15.16,6.67,27.2,8.26,26.89s.47-12.86-2.51-28-6.67-27.2-8.26-26.89S369.48,92.34,372.45,107.51Z" style="opacity:0.30000000000000004"></path><path d="M386,105.64c-.73-3.71-9-5.22-10.75-4.87s-2.6,3.63-1.88,7.34,2.75,6.43,4.51,6.09S386.7,109.34,386,105.64Z" style="fill:#407BFF"></path><rect x="394.63" y="99.81" width="47.45" height="1.07" transform="translate(-10.66 68.09) rotate(-9.19)" style="fill:#407BFF"></rect><rect x="387.77" y="83.86" width="25.24" height="1.07" transform="translate(40.94 279.93) rotate(-40.45)" style="fill:#407BFF"></rect><rect x="421.95" y="124.44" width="1.07" height="7.47" transform="translate(161.01 483.92) rotate(-70.56)" style="fill:#407BFF"></rect><rect x="401.82" y="111.83" width="1.07" height="18.8" transform="translate(159.49 464.16) rotate(-71.46)" style="fill:#407BFF"></rect></g></svg>