<svg xmlns="http://www.w3.org/2000/svg" viewBox="0 0 500 500"><g id="background-complete"><rect y="382.4" width="500" height="0.25" style="fill:#ebebeb"></rect><path d="M237,337.8H43.91a5.71,5.71,0,0,1-5.7-5.71V60.66A5.71,5.71,0,0,1,43.91,55H237a5.71,5.71,0,0,1,5.71,5.71V332.09A5.71,5.71,0,0,1,237,337.8ZM43.91,55.2a5.46,5.46,0,0,0-5.45,5.46V332.09a5.46,5.46,0,0,0,5.45,5.46H237a5.47,5.47,0,0,0,5.46-5.46V60.66A5.47,5.47,0,0,0,237,55.2Z" style="fill:#ebebeb"></path><path d="M453.31,337.8H260.21a5.72,5.72,0,0,1-5.71-5.71V60.66A5.72,5.72,0,0,1,260.21,55h193.1A5.71,5.71,0,0,1,459,60.66V332.09A5.71,5.71,0,0,1,453.31,337.8ZM260.21,55.2a5.47,5.47,0,0,0-5.46,5.46V332.09a5.47,5.47,0,0,0,5.46,5.46h193.1a5.47,5.47,0,0,0,5.46-5.46V60.66a5.47,5.47,0,0,0-5.46-5.46Z" style="fill:#ebebeb"></path><rect x="52.46" y="398.49" width="33.21" height="0.25" style="fill:#ebebeb"></rect><rect x="146.33" y="397.5" width="54.1" height="0.25" style="fill:#ebebeb"></rect><rect x="86.67" y="389.21" width="19.11" height="0.25" style="fill:#ebebeb"></rect><rect x="435.12" y="390.89" width="14.78" height="0.25" style="fill:#ebebeb"></rect><rect x="391.47" y="390.89" width="34.74" height="0.25" style="fill:#ebebeb"></rect><rect x="267.33" y="395.11" width="45.45" height="0.25" style="fill:#ebebeb"></rect><path d="M465.23,243.44H34.77a4,4,0,0,1-4-4h0a4,4,0,0,1,4-4H465.23a4,4,0,0,1,4,4h0A4,4,0,0,1,465.23,243.44Z" style="fill:#f5f5f5"></path><rect x="460.83" y="243.44" width="4.4" height="138.95" style="fill:#f5f5f5"></rect><rect x="34.77" y="243.44" width="4.4" height="138.95" style="fill:#f5f5f5"></rect><rect x="247.8" y="243.44" width="4.4" height="138.95" style="fill:#f5f5f5"></rect><rect x="247.8" y="99.89" width="4.4" height="426.06" transform="translate(562.92 62.92) rotate(90)" style="fill:#f5f5f5"></rect><rect x="198.33" y="147.89" width="232.44" height="60.44" style="fill:#fafafa"></rect><polygon points="411 178.11 377.52 158.78 377.52 170.33 220.11 170.33 220.11 185.89 377.52 185.89 377.52 197.44 411 178.11" style="fill:#fff"></polygon><rect x="430.78" y="147.89" width="1.89" height="60.44" transform="translate(863.44 356.22) rotate(180)" style="fill:#ebebeb"></rect><rect x="266.25" y="121.33" width="23.03" height="261.07" style="fill:#ebebeb"></rect><polygon points="302.39 98.33 302.39 382.4 289.28 382.4 289.28 121.33 129.49 121.33 129.49 382.4 116.36 382.4 116.36 98.33 302.39 98.33" style="fill:#f0f0f0"></polygon><rect x="93.33" y="98.33" width="23.03" height="284.07" style="fill:#ebebeb"></rect><rect x="129.49" y="101.44" width="159.79" height="16.77" style="fill:#fafafa"></rect><rect x="129.49" y="101.44" width="1.29" height="16.77" style="fill:#ebebeb"></rect><path d="M134.7,71.31h0a11.28,11.28,0,0,0-11.25,11.25V98.33H146V82.56A11.29,11.29,0,0,0,134.7,71.31Z" style="fill:#fafafa"></path><path d="M284.06,71.31h0a11.28,11.28,0,0,0-11.25,11.25V98.33h22.5V82.56A11.28,11.28,0,0,0,284.06,71.31Z" style="fill:#fafafa"></path></g><g id="background-simple"><path d="M234.84,132.88c-54.22,22.66-189.11,34-136.06,127.69,34.78,61.42,176.3,73.52,236.19,49,67.39-27.55,107.28-103.21,82.47-169.78-13.22-35.46-49.9-66.5-93-61.16C286.49,83.36,267.58,119.2,234.84,132.88Z" style="fill:#407BFF"></path><path d="M234.84,132.88c-54.22,22.66-189.11,34-136.06,127.69,34.78,61.42,176.3,73.52,236.19,49,67.39-27.55,107.28-103.21,82.47-169.78-13.22-35.46-49.9-66.5-93-61.16C286.49,83.36,267.58,119.2,234.84,132.88Z" style="fill:#fff;opacity:0.9"></path></g><g id="Shadow"><ellipse id="path" cx="250" cy="416.24" rx="193.89" ry="11.32" style="fill:#f5f5f5"></ellipse></g><g id="character-1"><path d="M184.21,206c8.5-3.53,8.6-1.5,10.5,4.93.84,2.87-.85,4.22-.85,4.22s5.8,23-3.51,18.61S179.83,207.76,184.21,206Z" style="fill:#407BFF"></path><path d="M158.56,128.7c-2.69-5.53-10.67-9-12.62-14.48-1.48-4.12.06-6.08,1.78-7.31-2.61.28-1.73-4.38,1.21-3.83-2.33-1.94-.57-6,2.35-6.32s2.85.51,2.85.51-1.47-5.77,8.2-6.6,8,4.62,8,4.62a9.2,9.2,0,0,1,9.61,5.5c3.18,6.64-3.34,7.93-3.34,7.93s2.71,8.3-4,10.56S158.56,128.7,158.56,128.7Z" style="fill:#263238"></path><polygon points="203.05 409.43 210.63 407.42 207.23 389.68 199.65 391.69 203.05 409.43" style="fill:#7f3e3b"></polygon><path d="M210.51,405.65,202.06,408a.56.56,0,0,0-.42.67l1.46,6.8a1.38,1.38,0,0,0,1.69,1c2.93-.87,4.29-1.43,8-2.47,2.29-.64,7.82-2.07,11-3s2.2-4,.78-3.88c-6.35.4-10-.32-12.6-1.4A2.28,2.28,0,0,0,210.51,405.65Z" style="fill:#263238"></path><polygon points="199.65 391.7 207.23 389.69 208.98 398.83 201.4 400.84 199.65 391.7" style="opacity:0.2"></polygon><path d="M187.42,210.2S198,273.79,201.1,296c3.43,24.3,9.53,97.35,9.53,97.35L198,398.12s-13.46-71.85-19-95.46c-6.06-25.63-19.4-92.46-19.4-92.46Z" style="fill:#407BFF"></path><path d="M187.42,210.2S198,273.79,201.1,296c3.43,24.3,9.53,97.35,9.53,97.35L198,398.12s-13.46-71.85-19-95.46c-6.06-25.63-19.4-92.46-19.4-92.46Z" style="fill:#fff;opacity:0.7000000000000001"></path><path d="M170.49,236.28c5.39,13.48,6,36.39,3.81,45.77-3.31-15.41-7.1-33.85-10-48.19C165.33,230.18,167.21,228.08,170.49,236.28Z" style="fill:#407BFF;opacity:0.30000000000000004"></path><polygon points="197.19 399.62 212.07 395.93 211.94 389.91 194.24 394.17 197.19 399.62" style="fill:#263238"></polygon><path d="M213.55,406.22a10.46,10.46,0,0,1-2.08.29.18.18,0,0,1-.17-.1.17.17,0,0,1,0-.2c.19-.23,1.92-2.28,2.94-2.18a.71.71,0,0,1,.54.38,1,1,0,0,1,0,1A2.11,2.11,0,0,1,213.55,406.22Zm-1.67-.1c1.42-.11,2.4-.42,2.65-.87a.64.64,0,0,0-.05-.66.35.35,0,0,0-.26-.2C213.67,404.34,212.6,405.32,211.88,406.12Z" style="fill:#407BFF"></path><path d="M211.51,406.5h-.09a.2.2,0,0,1-.13-.12c0-.09-.81-2.21-.25-3.15a.89.89,0,0,1,.67-.45.7.7,0,0,1,.79.35c.4.77-.29,2.66-.91,3.31A.14.14,0,0,1,211.51,406.5Zm.18-3.33a.54.54,0,0,0-.34.25,4.06,4.06,0,0,0,.17,2.53,3.64,3.64,0,0,0,.65-2.64c0-.1-.14-.2-.4-.16Z" style="fill:#407BFF"></path><path d="M186.06,145.19l.49,1.18.41,1,.77,2.06c.49,1.35,1,2.7,1.43,4.05.91,2.7,1.75,5.39,2.56,8.08,1.66,5.38,3.1,10.79,4.53,16.19l-.61-1.4c2.51,4.54,4.89,9.12,7.27,13.69s4.63,9.2,6.86,13.88a4.78,4.78,0,0,1-8.37,4.59l-16.3-25.92a4.91,4.91,0,0,1-.48-1l-.13-.39-2.58-7.81-2.66-7.74c-.9-2.57-1.84-5.12-2.78-7.64-.47-1.26-.95-2.51-1.43-3.74l-.74-1.82-.37-.87-.33-.73-.12-.26A6.85,6.85,0,0,1,186,145Z" style="fill:#263238"></path><polygon points="144.16 408.51 151.97 408.51 153.84 390.42 146.03 390.42 144.16 408.51" style="fill:#7f3e3b"></polygon><path d="M152.66,407.61h-8.78a.56.56,0,0,0-.58.53l-.43,6.95a1.4,1.4,0,0,0,1.37,1.39c3.06-.06,4.52-.24,8.38-.24,2.37,0,8.91.25,12.19.25s3.19-3.24,1.8-3.54c-6.23-1.31-10.4-3.13-12.61-4.86A2.22,2.22,0,0,0,152.66,407.61Z" style="fill:#263238"></path><polygon points="146.03 390.43 153.84 390.43 152.88 399.75 145.06 399.75 146.03 390.43" style="opacity:0.2"></polygon><path d="M172.17,210.2s-4,67.87-5.31,90.24c-1.39,24.49-10.77,97.06-10.77,97.06H141.78s2.86-70.59,2-94.84c-.94-26.32,1.86-92.46,1.86-92.46Z" style="fill:#407BFF"></path><path d="M172.17,210.2s-4,67.87-5.31,90.24c-1.39,24.49-10.77,97.06-10.77,97.06H141.78s2.86-70.59,2-94.84c-.94-26.32,1.86-92.46,1.86-92.46Z" style="fill:#fff;opacity:0.7000000000000001"></path><polygon points="141.2 397.5 158.65 397.5 159.5 392.07 140.46 392.92 141.2 397.5" style="fill:#263238"></polygon><path d="M155.42,409a9.78,9.78,0,0,1-2.08-.28.17.17,0,0,1-.13-.14.18.18,0,0,1,.07-.19c.25-.17,2.46-1.68,3.42-1.31a.7.7,0,0,1,.42.52,1,1,0,0,1-.23,1A2.1,2.1,0,0,1,155.42,409Zm-1.58-.54c1.4.28,2.43.23,2.8-.13a.64.64,0,0,0,.12-.65.32.32,0,0,0-.2-.26C156.05,407.19,154.75,407.85,153.84,408.43Z" style="fill:#407BFF"></path><path d="M153.38,408.7l-.08,0a.23.23,0,0,1-.1-.15c0-.1-.18-2.34.61-3.1a.91.91,0,0,1,.77-.26.71.71,0,0,1,.66.55c.18.86-1,2.49-1.76,2.95A.17.17,0,0,1,153.38,408.7Zm1.07-3.17a.53.53,0,0,0-.39.16,4.06,4.06,0,0,0-.51,2.48c.68-.57,1.45-1.81,1.33-2.37,0-.11-.08-.23-.34-.27Z" style="fill:#407BFF"></path><path d="M184.14,146.73a7.61,7.61,0,0,0-5.77-5.22,46.82,46.82,0,0,0-5.85-1,156.76,156.76,0,0,0-17.75,0c-3.1.15-6.26.53-8.78.9h-.09a5,5,0,0,0-4.18,5.79,245.79,245.79,0,0,1,3.85,31.67c.61,15.46-.22,27.6.07,31.33h41.78C190,172.47,186.69,155.32,184.14,146.73Z" style="fill:#407BFF"></path><path d="M156,139.76c5.67,13.35,6.3,47.15,6.27,73.58H144.56c-.32-3.94.57-16.74-.07-33a261.47,261.47,0,0,0-4.06-33.39,5.25,5.25,0,0,1,4.4-6.11h.1c2.66-.39,6-.79,9.25-.95Z" style="fill:#263238"></path><path d="M186.28,146.92a8.82,8.82,0,0,0-6.33-6,78.81,78.81,0,0,0-8.4-.86c3.34,11.58,9.9,46.9,7.95,73.26h11.14C193.28,173.79,188.77,154.15,186.28,146.92Z" style="fill:#263238"></path><path d="M171.68,140.44c-5.16-1.22-6.07-4.42-5.72-7.92a20.32,20.32,0,0,1,.41-2.62l-6.47-5.37-4.75-3.94c1.31,5.72,2.8,16.14-1.07,20,0,0,3.2,5.27,12,4.79C173.59,144.94,171.68,140.44,171.68,140.44Z" style="fill:#7f3e3b"></path><path d="M161.7,151.9s1-4.63,3.79-6.52A26.75,26.75,0,0,1,155,138.93l-2.71,1A13.28,13.28,0,0,0,161.7,151.9Z" style="fill:#fff"></path><path d="M171.12,151.17a9.5,9.5,0,0,0-5.63-5.79c2.61-.74,3.62-6,3.62-6l2.53.53S177.65,149.06,171.12,151.17Z" style="fill:#fff"></path><path d="M166.37,129.9a20.32,20.32,0,0,0-.41,2.62c-2.41-.49-5.64-3.06-6-5.53a11.77,11.77,0,0,1-.08-2.46Z" style="opacity:0.2"></path><path d="M153.09,111.06c.43,7.76.28,12.31,4.16,16.45a10.11,10.11,0,0,0,17.3-4.59c1.7-6.89.73-18.42-6.82-21.82A10.23,10.23,0,0,0,153.09,111.06Z" style="fill:#7f3e3b"></path><path d="M152.79,114.08c4-.41,5.43-3.91,3.8-5.5,2.2.13,5.32-3,4.28-4.75,3.54,2.84,14.88,3.8,12-.58s-12.22-7.52-18.79-2.17S150,113,152.79,114.08Z" style="fill:#263238"></path><path d="M150.46,117.15a6.84,6.84,0,0,0,3.62,3.18c2,.71,2.94-1.09,2.32-3.1-.56-1.81-2.28-4.36-4.26-4.21S149.49,115.33,150.46,117.15Z" style="fill:#7f3e3b"></path><path d="M164.72,113.85c0,.64.32,1.16.74,1.18s.74-.48.75-1.11-.33-1.16-.74-1.18S164.72,113.22,164.72,113.85Z" style="fill:#263238"></path><path d="M171.81,113.82c0,.63.33,1.16.74,1.17s.75-.48.75-1.11-.32-1.15-.74-1.17S171.82,113.19,171.81,113.82Z" style="fill:#263238"></path><path d="M169.66,114.22a23.3,23.3,0,0,0,3,5.52,3.6,3.6,0,0,1-3,.44Z" style="fill:#630f0f"></path><path d="M168.37,122.15a5.41,5.41,0,0,1-4.06-1.27.18.18,0,0,1,0-.26.19.19,0,0,1,.26,0,5.19,5.19,0,0,0,4.46,1.07.18.18,0,0,1,.22.14.19.19,0,0,1-.15.22A6.64,6.64,0,0,1,168.37,122.15Z" style="fill:#263238"></path><path d="M162,110.4a.35.35,0,0,1-.17-.06.37.37,0,0,1-.08-.52,3.57,3.57,0,0,1,3-1.54.37.37,0,0,1,.35.4.38.38,0,0,1-.4.34,2.82,2.82,0,0,0-2.31,1.23A.35.35,0,0,1,162,110.4Z" style="fill:#263238"></path><path d="M175.3,110.36a.36.36,0,0,1-.32-.13,3.13,3.13,0,0,0-2.45-1.21.36.36,0,0,1-.4-.34.37.37,0,0,1,.33-.4h0a3.85,3.85,0,0,1,3.08,1.48.37.37,0,0,1-.05.52A.32.32,0,0,1,175.3,110.36Z" style="fill:#263238"></path><path d="M153,150.11c-2,4.94-4,10.09-5.8,15.14-.94,2.52-1.8,5.06-2.62,7.56s-1.52,5-2,7.35a23.61,23.61,0,0,0-.5,3.16,12.62,12.62,0,0,0,0,1.55v.87l.05.89a51.52,51.52,0,0,0,1,7.36c.53,2.51,1.18,5,1.92,7.6s1.62,5.15,2.45,7.57l.07.2a3.42,3.42,0,0,1-5.92,3.23,56.4,56.4,0,0,1-4.93-7.41c-.74-1.28-1.42-2.59-2.06-3.94s-1.25-2.72-1.8-4.13a48.53,48.53,0,0,1-2.61-8.92c-.08-.39-.16-.78-.22-1.18l-.15-1.22a19.33,19.33,0,0,1-.22-2.62A35.16,35.16,0,0,1,130,178a104.84,104.84,0,0,1,4.29-17.25c.92-2.73,1.84-5.43,2.88-8.09s2-5.28,3.26-8A6.85,6.85,0,0,1,153,150.06Z" style="fill:#263238"></path><path d="M143.61,216.79l.47,2.5a2.62,2.62,0,0,0,2.24,2.12l2.7.35a2.63,2.63,0,0,0,3-2.48l.1-2.3h0a14.22,14.22,0,0,0-2.78-5.85,3.5,3.5,0,0,0-3.77-1.16l-.64.2a3.52,3.52,0,0,0-2.32,4.48A10.2,10.2,0,0,0,143.61,216.79Z" style="fill:#407BFF"></path><path d="M204.67,212.83l.46,2.5a2.62,2.62,0,0,0,2.24,2.12l2.71.35a2.61,2.61,0,0,0,2.95-2.48l.1-2.3h0a14.27,14.27,0,0,0-2.77-5.85,3.5,3.5,0,0,0-3.77-1.15l-.64.19a3.52,3.52,0,0,0-2.32,4.48A10.2,10.2,0,0,0,204.67,212.83Z" style="fill:#407BFF"></path><path d="M157.53,118.18l-1.9,3.19a1.3,1.3,0,0,0-.18.69c.06,1.8,1.07,9.14,13.79,9.38,7,.14,6.59-9.63,6.3-12.65a1.28,1.28,0,0,0-.93-1.11l-3.7-1.06a1.44,1.44,0,0,0-.46-.05l-11.92,1A1.28,1.28,0,0,0,157.53,118.18Z" style="fill:#407BFF"></path><path d="M158.18,118.47a.49.49,0,0,1-.49-.38,7.11,7.11,0,0,0-4.75-4.87.5.5,0,1,1,.27-1,8,8,0,0,1,5.45,5.61.49.49,0,0,1-.37.6Z" style="fill:#407BFF"></path><path d="M156.26,124.14a.5.5,0,0,1-.49-.4s-.58-2.64-2.18-3.08a.5.5,0,0,1,.27-1c2.19.61,2.86,3.71,2.89,3.85a.5.5,0,0,1-.39.59Z" style="fill:#407BFF"></path><path d="M151,139.56c2.83,2.25,31.33,35.94,39.5,75.44,0,1-2,1.71-2,1.71S185.73,186,148.68,140A9.49,9.49,0,0,1,151,139.56Z" style="fill:#407BFF"></path><path d="M151,139.56c2.83,2.25,31.33,35.94,39.5,75.44,0,1-2,1.71-2,1.71S185.73,186,148.68,140A9.49,9.49,0,0,1,151,139.56Z" style="opacity:0.30000000000000004"></path></g><g id="character-2"><path d="M344.16,139.63c.72.8,1.28,1.44,1.89,2.16s1.17,1.4,1.74,2.11c1.15,1.41,2.24,2.87,3.32,4.33,2.13,3,4.18,6,6.06,9.17a82.88,82.88,0,0,1,5.15,10.08,48.15,48.15,0,0,1,3.49,11.68c.18,1.07.24,2,.36,3.05s.13,1.9.17,2.85c.05,1.85.08,3.67.06,5.45,0,3.58-.22,7.1-.44,10.6a208.42,208.42,0,0,1-2.46,20.82,4.25,4.25,0,0,1-8.41-.24v-.06c-.77-6.8-1.31-13.66-1.95-20.4-.27-3.38-.65-6.73-1-10-.17-1.65-.39-3.25-.62-4.83l-.37-2.28c-.16-.68-.28-1.42-.44-2a27.27,27.27,0,0,0-1.31-3.8c-.54-1.31-1.13-2.65-1.83-4s-1.42-2.67-2.23-4-1.61-2.67-2.49-4c-1.74-2.64-3.59-5.28-5.53-7.86-1-1.3-2-2.58-3-3.85l-1.5-1.9-1.44-1.78-.17-.22a8.5,8.5,0,0,1,12.91-11Z" style="fill:#407BFF"></path><path d="M305.35,111.76c0,.7-.35,1.27-.8,1.28s-.84-.55-.86-1.25.35-1.27.8-1.28S305.33,111.06,305.35,111.76Z" style="fill:#263238"></path><path d="M305.07,113a25,25,0,0,1-3.22,6c1.26,1.13,3.35.56,3.35.56Z" style="fill:#ed893e"></path><path d="M307.81,107.83a.43.43,0,0,1-.31-.07,3.22,3.22,0,0,0-2.93-.47.41.41,0,0,1-.53-.23.4.4,0,0,1,.22-.53,4.1,4.1,0,0,1,3.71.55.42.42,0,0,1-.16.75Z" style="fill:#263238"></path><path d="M325.6,114.43c-.44,6.45.07,19.47,5,23.12,0,0-1.21,5.26-12.9,6.73-12.86,1.61-6.95-5.61-6.95-5.61,6.81-2.56,6-7.75,4.13-12.48Z" style="fill:#ffb573"></path><path d="M297.19,406.38h9.47a.76.76,0,0,1,.74.59l1.71,7.71a1.25,1.25,0,0,1-1.24,1.54c-3.42-.06-8.35-.26-12.65-.26-5,0-4.44.28-10.32.28-3.56,0-4.55-3.6-3.06-3.93,6.78-1.48,7.4-1.64,13.27-5.25A3.93,3.93,0,0,1,297.19,406.38Z" style="fill:#263238"></path><path d="M337.83,135.82a139,139,0,0,0-39,1,10.11,10.11,0,0,0-8.07,8.22c-3.84,22.22.15,53.53,3.62,75.1h50.13c.29-6.49-2.82-41.28,1.86-72.81A10.1,10.1,0,0,0,337.83,135.82Z" style="fill:#407BFF"></path><path d="M219.78,132.38c.77,1-1.61,9.79-2.93,14.42a2.76,2.76,0,0,0,2.06,3.45l1.47.32a2.75,2.75,0,0,0,3.24-1.95c1.11-4,3.1-11.83,3-16.16C221.76,132.35,219.78,132.38,219.78,132.38Z" style="fill:#407BFF"></path><path d="M215.59,121.12l7.37,1.6a3.2,3.2,0,0,1,2.37,2.18c1.07,3.54,2.88,11-1.18,10.11-2.66-.58-5.28-3.43-6.38-4.75a5.75,5.75,0,0,0-1.36-1.2l-2.12-1.32a2.94,2.94,0,0,1-1.37-2.27l-.13-1.93A2.31,2.31,0,0,1,215.59,121.12Z" style="fill:#407BFF"></path><path d="M223.51,123.86a1.85,1.85,0,0,1,1.35,1.26c1.37,4.5,1.25,6.74.74,7.3-.06.06-.2.21-.74.1-2.08-.46-4.13-3.64-4.75-4.83-.85-1.66-1.75-5,.23-4.52S223.51,123.86,223.51,123.86Z" style="fill:#263238"></path><path d="M233.07,141.9l-4.63-4a8.73,8.73,0,0,0-4.86-2l-5-.42a2.07,2.07,0,0,0-2.23,2.26l.48,5a2.09,2.09,0,0,0,1.3,1.72l4.7,1.87s5.72,2.65,9.53,1.17Z" style="fill:#263238"></path><path d="M356,223.35,354.64,228a8.52,8.52,0,0,0,.17,5.26l1.68,4.71a2.06,2.06,0,0,0,3,1.09l4.33-2.5a2.08,2.08,0,0,0,1-1.89l-.24-5.05s0-4.61-1.79-7.73a2.24,2.24,0,0,0-2.61-1l-2.7.85A2.28,2.28,0,0,0,356,223.35Z" style="fill:#263238"></path><path d="M300,220.49c-3.06-3.55-6.17-52.16-5-67.53l1,.08c-1.39,17.69,2.31,64,4.72,66.8Z" style="fill:#263238"></path><path d="M303.29,152.72a91.4,91.4,0,0,1-17.15,9.16,55.87,55.87,0,0,1-10,3,43,43,0,0,1-10.86.78c-.48,0-.86,0-1.51-.11l-.87-.1-.79-.13c-1-.19-1.95-.41-2.84-.66-1.75-.51-3.34-1.09-4.88-1.7a92.31,92.31,0,0,1-8.68-4,132.17,132.17,0,0,1-15.83-9.76,4.26,4.26,0,0,1,3.75-7.52l.1,0c5.67,1.74,11.34,3.68,16.9,5.36,2.76.88,5.54,1.63,8.18,2.3,1.32.31,2.62.59,3.79.75a15.23,15.23,0,0,0,1.59.17l.33,0,.25,0c.1,0,.47,0,.74,0a33.36,33.36,0,0,0,7-1.21,51.64,51.64,0,0,0,7.13-2.65,145.88,145.88,0,0,0,14.52-7.94l.05,0a8.5,8.5,0,0,1,9.07,14.37Z" style="fill:#407BFF"></path><path d="M328.64,109.79c-.35,8.6-.12,13.65-4.36,18.15-6.39,6.76-17.07,3.05-19.3-5.48-2-7.67-1.1-20.44,7.24-24A11.74,11.74,0,0,1,328.64,109.79Z" style="fill:#ffb573"></path><path d="M360.44,406.38h9.46a.92.92,0,0,1,.83.59l2.86,7.71a1.08,1.08,0,0,1-1,1.54c-3.42-.06-8.39-.26-12.68-.26-5,0-4.4.28-10.29.28-3.56,0-5.08-3.6-3.64-3.93,6.56-1.48,7.16-1.64,12.49-5.25A3.48,3.48,0,0,1,360.44,406.38Z" style="fill:#263238"></path><path d="M314.79,220.17s7.79,49.64,11.84,75.83c3.52,22.83,16,58.75,18.21,73.46a8,8,0,0,0,7.72,6.71L364,375.4c3.77-.93,3.46-4,3.26-7.9-.8-15.31-12.52-51-17.26-71.5-1.34-23.62.18-57.44-5.42-75.83Z" style="fill:#407BFF"></path><path d="M324.63,240.33c-1.46-1.86-3.76-.39-6.26,2.58,1.75,11.24,3.9,25,5.8,37.22C328.34,268.78,329,245.87,324.63,240.33Z" style="opacity:0.30000000000000004"></path><path d="M365.54,371.5s-12.22-.72-17,1.28c1.48,3.22,12.36,31.78,9.94,34.28l12.62.82C368.62,400,365.54,371.5,365.54,371.5Z" style="fill:#263238"></path><path d="M294.4,220.17s-3.66,49.45-4.58,75.89c-.8,23.06.73,58.69,1.45,73.4a7,7,0,0,0,7.05,6.71h8.06a7.07,7.07,0,0,0,7.07-7c.13-15.26-3.31-52.32,1-72.87,6.1-29.16,16.57-50.41,16.16-76.13Z" style="fill:#407BFF"></path><path d="M311.13,372.78s-12.34-2-17.45,0c1,3.22,4.22,31.78,1.43,34.28l12.49.82C306.32,400,311.13,372.78,311.13,372.78Z" style="fill:#263238"></path><path d="M303,130c1.09,2.41.9,4.85-.42,5.44s-3.26-.88-4.35-3.29-.9-4.85.42-5.44S301.87,127.61,303,130Z" style="fill:#263238"></path><path d="M305.05,129.08c1.08,2.41.89,4.85-.42,5.44s-3.27-.88-4.35-3.29-.9-4.85.41-5.44S304,126.67,305.05,129.08Z" style="fill:#263238"></path><path d="M301,137c3.8-1.54-.55-7.76,0-11.53s9.75,1.06,9.58-7.26-.49-11.39-1.17-13.58-7.24,2.37-6.28-2.8,8.23-14.19,22.95-10.34,11.69,13.53,10.33,20-2.68,21.2,4.16,25.12C333.7,141,317.86,143.12,301,137Z" style="fill:#407BFF"></path><path d="M304,100.33c-1,2.33-4,12.17-2.38,26,5.11-.06,11.27-6,11.27-6l-1.72-16.77Z" style="fill:#407BFF;opacity:0.2"></path><path d="M201.53,128.11a.5.5,0,0,1-.49-.38,15.79,15.79,0,0,1,3-13.64.51.51,0,0,1,.71-.08.49.49,0,0,1,.07.7A14.77,14.77,0,0,0,202,127.49a.49.49,0,0,1-.36.6Z" style="fill:#407BFF"></path><path d="M205.21,127.18a.5.5,0,0,1-.49-.38A12,12,0,0,1,207,116.46a.51.51,0,1,1,.79.63,10.9,10.9,0,0,0-2.07,9.47.48.48,0,0,1-.36.6Z" style="fill:#407BFF"></path><path d="M208.89,126.25a.5.5,0,0,1-.49-.37,8.07,8.07,0,0,1,1.54-7,.49.49,0,1,1,.77.62,7.13,7.13,0,0,0-1.34,6.17.5.5,0,0,1-.36.61Z" style="fill:#407BFF"></path><path d="M201.53,128.11a.5.5,0,0,1-.49-.38,15.79,15.79,0,0,1,3-13.64.51.51,0,0,1,.71-.08.49.49,0,0,1,.07.7A14.77,14.77,0,0,0,202,127.49a.49.49,0,0,1-.36.6Z" style="fill:#407BFF"></path><path d="M208.89,126.25a.5.5,0,0,1-.49-.37,8.07,8.07,0,0,1,1.54-7,.49.49,0,1,1,.77.62,7.13,7.13,0,0,0-1.34,6.17.5.5,0,0,1-.36.61Z" style="fill:#407BFF"></path><path d="M294.2,218.86c-1.76,0,0,3.67,0,3.67s27.62,1.47,50.4-2a4.36,4.36,0,0,0-.13-4S324.2,219.45,294.2,218.86Z" style="fill:#263238"></path><path d="M298.13,373c-1.14-.55-2.46-2.22-2.72-5.3s-.78-55.58,0-67c.22-3.3.49-11,.82-20.84,1.06-31,2.07-56.94,3.71-59.34l.82.57c-1.61,2.35-2.81,37.69-3.53,58.81-.33,9.8-.6,17.55-.82,20.87-.79,11.48-.18,64.78,0,66.82.21,2.48,1.23,4,2.15,4.47Z" style="fill:#263238"></path></g></svg>