<svg xmlns="http://www.w3.org/2000/svg" viewBox="0 0 500 500"><g id="background-complete"><rect y="382.4" width="500" height="0.25" style="fill:#ebebeb"></rect><rect x="416.78" y="398.49" width="33.12" height="0.25" style="fill:#ebebeb"></rect><rect x="316.95" y="395.11" width="57.98" height="0.25" style="fill:#ebebeb"></rect><rect x="361.67" y="389.21" width="54.11" height="0.25" style="fill:#ebebeb"></rect><rect x="52.46" y="390.89" width="14.91" height="0.25" style="fill:#ebebeb"></rect><rect x="76.27" y="390.89" width="64.4" height="0.25" style="fill:#ebebeb"></rect><rect x="182" y="395.11" width="43.15" height="0.25" style="fill:#ebebeb"></rect><path d="M237,337.8H43.91a5.71,5.71,0,0,1-5.7-5.71V60.66A5.71,5.71,0,0,1,43.91,55H237a5.71,5.71,0,0,1,5.71,5.71V332.09A5.71,5.71,0,0,1,237,337.8ZM43.91,55.2a5.46,5.46,0,0,0-5.45,5.46V332.09a5.46,5.46,0,0,0,5.45,5.46H237a5.47,5.47,0,0,0,5.46-5.46V60.66A5.47,5.47,0,0,0,237,55.2Z" style="fill:#ebebeb"></path><path d="M453.31,337.8H260.21a5.72,5.72,0,0,1-5.71-5.71V60.66A5.72,5.72,0,0,1,260.21,55h193.1A5.71,5.71,0,0,1,459,60.66V332.09A5.71,5.71,0,0,1,453.31,337.8ZM260.21,55.2a5.47,5.47,0,0,0-5.46,5.46V332.09a5.47,5.47,0,0,0,5.46,5.46h193.1a5.47,5.47,0,0,0,5.46-5.46V60.66a5.47,5.47,0,0,0-5.46-5.46Z" style="fill:#ebebeb"></path><rect x="210.67" y="76.66" width="220.54" height="216.64" style="fill:#fafafa"></rect><polygon points="223.22 293.3 279.31 76.66 321.41 76.66 265.32 293.3 223.22 293.3" style="fill:#fff"></polygon><polygon points="336.42 293.3 392.51 76.66 407.87 76.66 351.77 293.3 336.42 293.3" style="fill:#fff"></polygon><path d="M441.72,71.21H200.16a1,1,0,0,0-1,1h0a1,1,0,0,0,1,1H441.72a1,1,0,0,0,1-1h0A1,1,0,0,0,441.72,71.21Z" style="fill:#e0e0e0"></path><rect x="319.63" y="76.32" width="2.61" height="217.32" transform="translate(641.88 369.95) rotate(180)" style="fill:#f0f0f0"></rect><rect x="322.25" y="76.32" width="1.31" height="217.32" transform="translate(645.8 369.95) rotate(180)" style="fill:#e0e0e0"></rect><rect x="319.63" y="44.03" width="2.61" height="223.58" transform="translate(165.12 476.76) rotate(-90)" style="fill:#f0f0f0"></rect><path d="M432.73,292.21h0V75.13H209.15V292.21h0v2.61H432.73Zm-221,0V77.75H430.12V292.21Z" style="fill:#f0f0f0"></path><rect x="432.73" y="75.13" width="1.31" height="219.69" transform="translate(866.77 369.95) rotate(180)" style="fill:#e0e0e0"></rect><polygon points="400.31 68.82 400.31 313.06 447.51 313.06 438.86 68.82 400.31 68.82" style="fill:#ebebeb;opacity:0.5"></polygon><polygon points="242.87 68.82 242.87 313.06 195.67 313.06 204.33 68.82 242.87 68.82" style="fill:#ebebeb;opacity:0.5"></polygon><rect x="250.62" y="319.07" width="187.19" height="15.68" style="fill:#ebebeb"></rect><rect x="384.68" y="319.07" width="53.13" height="15.68" style="fill:#e0e0e0"></rect><rect x="250.62" y="334.75" width="11.2" height="47.65" style="fill:#ebebeb"></rect><polygon points="261.83 339.14 250.62 336.94 250.62 334.75 261.83 334.75 261.83 339.14" style="fill:#e0e0e0"></polygon><rect x="426.61" y="334.75" width="11.2" height="47.65" style="fill:#e0e0e0"></rect><rect x="384.68" y="334.75" width="11.2" height="47.65" style="fill:#ebebeb"></rect><polygon points="395.88 339.14 384.68 336.94 384.68 334.75 395.88 334.75 395.88 339.14" style="fill:#e0e0e0"></polygon><rect x="285.7" y="334.75" width="11.2" height="47.65" style="fill:#e0e0e0"></rect><rect x="56.45" y="255.49" width="133.01" height="93.61" style="fill:#f5f5f5"></rect><rect x="82.61" y="242.25" width="80.7" height="120.1" transform="translate(425.26 179.34) rotate(90)" style="fill:#ebebeb"></rect><rect x="119.75" y="279.39" width="80.7" height="45.82" transform="translate(462.4 142.2) rotate(90)" style="fill:#e6e6e6"></rect><rect x="111.21" y="287.93" width="80.7" height="28.74" transform="translate(453.86 150.74) rotate(90)" style="fill:#e0e0e0"></rect><rect x="53.43" y="301.28" width="36.24" height="2.03" transform="translate(373.84 230.75) rotate(90)" style="fill:#e0e0e0"></rect><rect x="120.33" y="204.53" width="5.26" height="120.1" transform="translate(387.54 141.62) rotate(90)" style="fill:#e0e0e0"></rect><rect x="189.47" y="255.49" width="32.51" height="93.61" transform="translate(411.44 604.6) rotate(180)" style="fill:#e6e6e6"></rect><polygon points="186.31 382.4 189.47 382.4 189.47 349.1 184.03 349.1 186.31 382.4" style="fill:#f5f5f5"></polygon><polygon points="59.6 382.4 56.45 382.4 56.45 349.1 61.89 349.1 59.6 382.4" style="fill:#f5f5f5"></polygon><polygon points="218.82 382.4 221.97 382.4 221.97 349.1 216.54 349.1 218.82 382.4" style="fill:#e6e6e6"></polygon><polygon points="92.11 382.4 88.96 382.4 88.96 349.1 94.4 349.1 92.11 382.4" style="fill:#e6e6e6"></polygon><path d="M80.73,185.85C73.4,176.28,56,172.72,50,166.68c-7.89-7.91-7.84-19.78-1.13-24.06,5.84-3.73,25.17,21.44,27.34,24.26,7.49,9.67,9.67,16.85,11.07,23.8-.16-5.91-.31-11.34-.44-15.53-.41-13.65-.92-18.05-1.15-19.4-.81-.66-1.76-1.43-2.31-1.84-4.68-3.49-15.06-7.64-20.24-12.71-7.58-7.41-6.35-16.27-1-19.57,5.55-3.45,15.37,4.7,20.58,12.78s3,15.82,4.45,22.53c.3,1.31.62,6.31.91,13.25a27.52,27.52,0,0,1,10.57-17.12c7.18-5.73,13.38-12.7,19.3-11.8s2.73,10.13-2,16.61c-4.17,5.77-24.73,11.53-27.76,16.17.36,9.4.67,21.3.9,32.39,1.62-5.73.51-6.21,7.15-15,4-5.21,20.14-11.64,22.07-8.05s-1,10.35-7.12,15.09c-4.93,3.82-15.87,3.82-18.4,6.19-.59.55-2.54,2.67-3.66,3.89.27,13.54.39,25.49.26,29.56l-1.07,0c0-1.05-.07-7.94-.28-17.05-2.66-4.85-20.54-7.67-26.06-12.72C56.15,203.14,52,197,54.48,192.86c2.07-3.44,18.36,1.23,25,6.93a23.85,23.85,0,0,1,8.35,13.28c-.15-6.2-.32-12.87-.49-19.17C86,192.33,82.93,188.72,80.73,185.85Z" style="fill:#e6e6e6"></path><path d="M79.5,255.49H96.56c.93,0,1.73-1.21,1.92-2.9l1.21-11H76.37l1.21,11C77.76,254.28,78.57,255.49,79.5,255.49Z" style="fill:#f0f0f0"></path><path d="M75.88,245.83h24.3c.58,0,1.07-.8,1.13-1.87l.5-8.16c.08-1.26-.45-2.35-1.14-2.35H75.38c-.68,0-1.21,1.09-1.13,2.35l.49,8.16C74.81,245,75.3,245.83,75.88,245.83Z" style="fill:#f0f0f0"></path></g><g id="background-simple"><path d="M235.05,288.62c49.1-11.33,99.8,29.57,150.45,21.91,48.85-7.4,90.56-46.31,73.74-99.44C443,159.62,389.69,125.7,338.6,125.71c-31.65,0-48.17-.58-75.12-22.52-20.84-17-36.8-38.28-62.86-47.51-50.61-17.94-76.5,13.46-81.83,54.89-5.77,44.86-41.85,68.61-52,111.66-8.62,36.42,2.85,85.24,49.64,97.78C160.12,331.73,197.06,297.38,235.05,288.62Z" style="fill:#407BFF"></path><path d="M235.05,288.62c49.1-11.33,99.8,29.57,150.45,21.91,48.85-7.4,90.56-46.31,73.74-99.44C443,159.62,389.69,125.7,338.6,125.71c-31.65,0-48.17-.58-75.12-22.52-20.84-17-36.8-38.28-62.86-47.51-50.61-17.94-76.5,13.46-81.83,54.89-5.77,44.86-41.85,68.61-52,111.66-8.62,36.42,2.85,85.24,49.64,97.78C160.12,331.73,197.06,297.38,235.05,288.62Z" style="fill:#fff;opacity:0.9"></path></g><g id="Shadow"><ellipse id="path" cx="250" cy="416.24" rx="193.89" ry="11.32" style="fill:#f5f5f5"></ellipse></g><g id="Calendar"><path d="M382.87,256.25h-264a11.54,11.54,0,0,1-11.28-10.5L98,117.55a9.64,9.64,0,0,1,9.71-10.5h264A11.54,11.54,0,0,1,383,117.55l9.61,128.2A9.63,9.63,0,0,1,382.87,256.25Z" style="fill:#407BFF;opacity:0.30000000000000004"></path><rect x="321.59" y="99.85" width="9.13" height="1" style="fill:#407BFF"></rect><rect x="273.56" y="99.85" width="39.49" height="1" style="fill:#407BFF"></rect><path d="M386.58,252.55h-264a11.56,11.56,0,0,1-11.29-10.5l-9.61-128.2a9.63,9.63,0,0,1,9.71-10.5h264a11.55,11.55,0,0,1,11.29,10.5l9.61,128.2A9.64,9.64,0,0,1,386.58,252.55Z" style="fill:#407BFF"></path><path d="M375.23,224.36H129.71a9.3,9.3,0,0,1-9.09-8.46L113.28,118a7.75,7.75,0,0,1,7.82-8.45H366.62a9.29,9.29,0,0,1,9.09,8.45l7.34,97.88A7.76,7.76,0,0,1,375.23,224.36Z" style="fill:#fff"></path><path d="M381.25,243.48h-51a4.25,4.25,0,0,1-4.16-3.87l-.4-5.24a3.56,3.56,0,0,1,3.59-3.87h51a4.26,4.26,0,0,1,4.17,3.87l.39,5.24A3.55,3.55,0,0,1,381.25,243.48Z" style="fill:#fff"></path><path d="M128.21,232.5a5.09,5.09,0,0,1,5,4.64,4.05,4.05,0,0,1-1,3.09,4,4,0,0,1-3,1.25,5.1,5.1,0,0,1-5-4.64,4.06,4.06,0,0,1,1-3.09,4,4,0,0,1,3-1.25m0-2a5.94,5.94,0,0,0-6,6.49,7.11,7.11,0,0,0,7,6.49,5.94,5.94,0,0,0,6-6.49,7.12,7.12,0,0,0-7-6.49Z" style="fill:#fff"></path><path d="M145.7,232.5a5.09,5.09,0,0,1,5,4.64,3.94,3.94,0,0,1-4,4.34,5.09,5.09,0,0,1-5-4.64,4,4,0,0,1,1-3.09,4,4,0,0,1,3-1.25m0-2a5.93,5.93,0,0,0-6,6.49,7.1,7.1,0,0,0,7,6.49,5.93,5.93,0,0,0,6-6.49,7.11,7.11,0,0,0-7-6.49Z" style="fill:#fff"></path><polygon points="205.24 188.86 193.08 188.86 192.25 177.8 204.41 177.8 205.24 188.86" style="fill:#407BFF;opacity:0.4"></polygon><polygon points="305.44 175.15 293.28 175.15 292.45 164.09 304.61 164.09 305.44 175.15" style="fill:#407BFF;opacity:0.4"></polygon><polygon points="259.55 175.15 293.28 175.15 292.45 164.09 258.72 164.09 259.55 175.15" style="fill:#407BFF;opacity:0.1"></polygon><polygon points="258.54 161.77 369.56 161.77 368.74 150.72 257.71 150.72 258.54 161.77" style="fill:#407BFF;opacity:0.1"></polygon><polygon points="205.24 188.86 237.54 188.86 236.71 177.8 204.41 177.8 205.24 188.86" style="fill:#407BFF;opacity:0.1"></polygon><polygon points="129.51 202.31 238.55 202.31 237.72 191.25 128.68 191.25 129.51 202.31" style="fill:#407BFF;opacity:0.1"></polygon><polygon points="130.57 215.7 239.61 215.7 238.78 204.64 129.74 204.64 130.57 215.7" style="fill:#407BFF;opacity:0.1"></polygon><path d="M263.76,169.6a1,1,0,0,1-.39-.3.88.88,0,0,1-.2-.52.85.85,0,0,1,.4-.8,1.55,1.55,0,0,1,.92-.23,1.91,1.91,0,0,1,1.17.29,1,1,0,0,1,.43.75.77.77,0,0,1-.11.49,1,1,0,0,1-.32.32,1.45,1.45,0,0,1,.5.4,1.1,1.1,0,0,1,.19.55,1.07,1.07,0,0,1-.39.94,1.19,1.19,0,0,1-.47.2,2.92,2.92,0,0,1-.61.07,2.38,2.38,0,0,1-.95-.15,1.19,1.19,0,0,1-.53-.43,1.29,1.29,0,0,1-.22-.63,1,1,0,0,1,.12-.58A.92.92,0,0,1,263.76,169.6Zm.49.91a.68.68,0,0,0,.19.42.52.52,0,0,0,.37.16.41.41,0,0,0,.33-.16.55.55,0,0,0,.13-.42.68.68,0,0,0-.19-.42.5.5,0,0,0-.37-.16.45.45,0,0,0-.34.15A.6.6,0,0,0,264.25,170.51Zm-.06-1.67a.47.47,0,0,0,.15.33.49.49,0,0,0,.34.12.41.41,0,0,0,.3-.12.42.42,0,0,0,.09-.32.46.46,0,0,0-.15-.32.44.44,0,0,0-.32-.13.39.39,0,0,0-.31.12A.4.4,0,0,0,264.19,168.84Z" style="fill:#407BFF"></path><path d="M279.5,170.82l1.07-.14a.64.64,0,0,0,.16.32.41.41,0,0,0,.64-.17,2.5,2.5,0,0,0,.1-.81,1.42,1.42,0,0,1-.38.29,1.08,1.08,0,0,1-.46.09,1.26,1.26,0,0,1-.91-.37,1.4,1.4,0,0,1-.43-.94,1.35,1.35,0,0,1,.13-.7,1.09,1.09,0,0,1,.47-.48,1.66,1.66,0,0,1,.79-.16,2,2,0,0,1,.95.19,1.64,1.64,0,0,1,.61.64,2.87,2.87,0,0,1,.3,1.15,2.15,2.15,0,0,1-.33,1.54,1.48,1.48,0,0,1-1.19.49,2.14,2.14,0,0,1-.74-.11,1.25,1.25,0,0,1-.46-.31A1.58,1.58,0,0,1,279.5,170.82Zm1.86-1.73a.74.74,0,0,0-.2-.49.52.52,0,0,0-.4-.18.41.41,0,0,0-.34.16.69.69,0,0,0-.11.48.79.79,0,0,0,.19.5.5.5,0,0,0,.38.17.44.44,0,0,0,.36-.16A.65.65,0,0,0,281.36,169.09Z" style="fill:#407BFF"></path><path d="M297.92,167.75l.3,3.94h-1.09l-.2-2.59a2.29,2.29,0,0,1-.48.33,4.31,4.31,0,0,1-.61.24l-.06-.89a2.32,2.32,0,0,0,.82-.42,1.65,1.65,0,0,0,.43-.61Z" style="fill:#407BFF"></path><path d="M299.24,169.73a2.18,2.18,0,0,1,.29-1.54,1.42,1.42,0,0,1,1.18-.44,2,2,0,0,1,.65.09,1.4,1.4,0,0,1,.7.58,1.66,1.66,0,0,1,.18.4,3.87,3.87,0,0,1,.17.9,2.6,2.6,0,0,1-.24,1.55,1.33,1.33,0,0,1-1.19.49,1.88,1.88,0,0,1-.81-.16,1.42,1.42,0,0,1-.52-.46,1.74,1.74,0,0,1-.27-.58A5,5,0,0,1,299.24,169.73Zm1.07,0a2.81,2.81,0,0,0,.21,1,.45.45,0,0,0,.4.27.37.37,0,0,0,.27-.11.6.6,0,0,0,.15-.37,3.19,3.19,0,0,0,0-.77,2.48,2.48,0,0,0-.21-1,.45.45,0,0,0-.41-.27.35.35,0,0,0-.36.27A2.83,2.83,0,0,0,300.31,169.74Z" style="fill:#407BFF"></path><path d="M314.18,167.75l.29,3.94h-1.09l-.19-2.59a2.63,2.63,0,0,1-.49.33,4.66,4.66,0,0,1-.6.24l-.07-.89a2.32,2.32,0,0,0,.82-.42,1.45,1.45,0,0,0,.43-.61Z" style="fill:#407BFF"></path><path d="M317.79,167.75l.3,3.94H317l-.2-2.59a2.34,2.34,0,0,1-.49.33,3.71,3.71,0,0,1-.6.24l-.06-.89a2.41,2.41,0,0,0,.82-.42,1.65,1.65,0,0,0,.43-.61Z" style="fill:#407BFF"></path><path d="M330.43,167.75l.3,3.94h-1.09l-.2-2.59a2.34,2.34,0,0,1-.49.33,3.71,3.71,0,0,1-.6.24l-.06-.89a2.41,2.41,0,0,0,.82-.42,1.65,1.65,0,0,0,.43-.61Z" style="fill:#407BFF"></path><path d="M335.05,171.69h-3.23a1.82,1.82,0,0,1,.27-.9,4.23,4.23,0,0,1,1-1,2.78,2.78,0,0,0,.57-.53.54.54,0,0,0,.1-.35.44.44,0,0,0-.15-.3.51.51,0,0,0-.34-.13.45.45,0,0,0-.33.13.74.74,0,0,0-.14.46L331.7,169a1.51,1.51,0,0,1,.17-.71,1,1,0,0,1,.45-.39,2.13,2.13,0,0,1,.85-.13,2.65,2.65,0,0,1,.89.12,1.25,1.25,0,0,1,.53.4,1.1,1.1,0,0,1,.22.6,1.16,1.16,0,0,1-.15.68,2.7,2.7,0,0,1-.7.71c-.21.15-.35.26-.42.32a2.43,2.43,0,0,0-.24.23H335Z" style="fill:#407BFF"></path><path d="M346.68,167.75l.3,3.94h-1.09l-.19-2.59a2.63,2.63,0,0,1-.49.33,4.66,4.66,0,0,1-.6.24l-.07-.89a2.32,2.32,0,0,0,.82-.42,1.54,1.54,0,0,0,.43-.61Z" style="fill:#407BFF"></path><path d="M349,168.93l-1-.18a1.19,1.19,0,0,1,.43-.75,1.66,1.66,0,0,1,1-.25,1.79,1.79,0,0,1,1.12.28,1,1,0,0,1,.39.71.69.69,0,0,1-.1.45,1,1,0,0,1-.39.36,1.46,1.46,0,0,1,.36.13,1,1,0,0,1,.32.32.93.93,0,0,1,.14.46,1.14,1.14,0,0,1-.13.65,1,1,0,0,1-.47.48,1.87,1.87,0,0,1-.86.17,2.41,2.41,0,0,1-.85-.13,1.39,1.39,0,0,1-.53-.36,1.94,1.94,0,0,1-.35-.6l1.07-.15a.93.93,0,0,0,.23.45.49.49,0,0,0,.35.13.43.43,0,0,0,.35-.16.53.53,0,0,0,.11-.42.62.62,0,0,0-.17-.42.53.53,0,0,0-.39-.15,1.07,1.07,0,0,0-.34.07v-.77h.14a.46.46,0,0,0,.34-.14.38.38,0,0,0,.12-.32.43.43,0,0,0-.73-.27A.65.65,0,0,0,349,168.93Z" style="fill:#407BFF"></path><path d="M362.94,167.75l.29,3.94h-1.09L362,169.1a2.63,2.63,0,0,1-.49.33,4.66,4.66,0,0,1-.6.24l-.07-.89a2.37,2.37,0,0,0,.83-.42,1.65,1.65,0,0,0,.43-.61Z" style="fill:#407BFF"></path><path d="M366.2,171h-2l-.07-.88,1.79-2.33h.94l.18,2.38h.49l.06.83h-.49l.06.73h-.94Zm-.06-.83-.09-1.22-.95,1.22Z" style="fill:#407BFF"></path><path d="M266.43,181.29l.29,3.94h-1.08l-.2-2.58a4.22,4.22,0,0,1-.49.33,3.29,3.29,0,0,1-.6.23l-.07-.88a2.37,2.37,0,0,0,.83-.43,1.57,1.57,0,0,0,.43-.61Z" style="fill:#407BFF"></path><path d="M268,181.36h2.56l.07.86h-1.74l-.05.58a1.66,1.66,0,0,1,.35-.13,1.37,1.37,0,0,1,.34,0,1.43,1.43,0,0,1,1,.35,1.29,1.29,0,0,1,.42.89,1.38,1.38,0,0,1-.13.72,1.15,1.15,0,0,1-.49.53,1.77,1.77,0,0,1-.86.18,2.52,2.52,0,0,1-.66-.07,1.47,1.47,0,0,1-.49-.22,1.29,1.29,0,0,1-.33-.33,1.58,1.58,0,0,1-.23-.45l1.08-.12a.77.77,0,0,0,.21.4.55.55,0,0,0,.36.13.42.42,0,0,0,.36-.17.93.93,0,0,0-.08-1,.54.54,0,0,0-.41-.16.59.59,0,0,0-.29.07.8.8,0,0,0-.22.2l-.93-.13Z" style="fill:#407BFF"></path><path d="M282.68,181.29l.3,3.94h-1.09l-.19-2.58a4.22,4.22,0,0,1-.49.33,3.61,3.61,0,0,1-.6.23l-.07-.88a2.32,2.32,0,0,0,.82-.43,1.48,1.48,0,0,0,.43-.61Z" style="fill:#407BFF"></path><path d="M287,182.23l-1.06.13a.68.68,0,0,0-.16-.32.38.38,0,0,0-.25-.09.4.4,0,0,0-.39.27,2.4,2.4,0,0,0-.1.81,1.24,1.24,0,0,1,.38-.29,1.08,1.08,0,0,1,.46-.09,1.26,1.26,0,0,1,.91.37,1.45,1.45,0,0,1,.3,1.64,1.09,1.09,0,0,1-.47.48,1.68,1.68,0,0,1-.79.16,2,2,0,0,1-.95-.2,1.49,1.49,0,0,1-.61-.63,2.92,2.92,0,0,1-.3-1.15,2.14,2.14,0,0,1,.33-1.54,1.45,1.45,0,0,1,1.19-.49,2.14,2.14,0,0,1,.74.11,1.25,1.25,0,0,1,.47.31A1.55,1.55,0,0,1,287,182.23ZM285.19,184a.76.76,0,0,0,.2.49.52.52,0,0,0,.4.18.41.41,0,0,0,.34-.16.69.69,0,0,0,.11-.48.79.79,0,0,0-.19-.5.49.49,0,0,0-.38-.18.45.45,0,0,0-.36.17A.6.6,0,0,0,285.19,184Z" style="fill:#407BFF"></path><path d="M298.94,181.29l.29,3.94h-1.09l-.19-2.58a4.22,4.22,0,0,1-.49.33,3.61,3.61,0,0,1-.6.23l-.07-.88a2.37,2.37,0,0,0,.83-.43,1.57,1.57,0,0,0,.43-.61Z" style="fill:#407BFF"></path><path d="M300.13,181.36h3.15l.05.72a3.64,3.64,0,0,0-.62.81,4.11,4.11,0,0,0-.44,1.16,5.17,5.17,0,0,0-.12,1.18h-1.07a5.67,5.67,0,0,1,.28-1.59,5.29,5.29,0,0,1,.76-1.37H300.2Z" style="fill:#407BFF"></path><path d="M315.19,181.29l.3,3.94H314.4l-.2-2.58a2.56,2.56,0,0,1-1.09.56l-.06-.88a2.32,2.32,0,0,0,.82-.43,1.57,1.57,0,0,0,.43-.61Z" style="fill:#407BFF"></path><path d="M317.15,183.15a1.15,1.15,0,0,1-.39-.3,1,1,0,0,1-.2-.53.85.85,0,0,1,.4-.79,1.56,1.56,0,0,1,.93-.24,1.94,1.94,0,0,1,1.17.3,1,1,0,0,1,.42.74.76.76,0,0,1-.11.49,1.09,1.09,0,0,1-.32.33,1.19,1.19,0,0,1,.5.4,1.1,1.1,0,0,1,.19.55,1,1,0,0,1-.09.54,1,1,0,0,1-.3.39,1.2,1.2,0,0,1-.47.21,2.93,2.93,0,0,1-.61.06,2.61,2.61,0,0,1-.95-.14,1.19,1.19,0,0,1-.53-.43,1.29,1.29,0,0,1-.22-.64,1,1,0,0,1,.12-.57A.92.92,0,0,1,317.15,183.15Zm.5.91a.62.62,0,0,0,.18.42.52.52,0,0,0,.37.16.45.45,0,0,0,.34-.17.58.58,0,0,0,.12-.42.63.63,0,0,0-.19-.42.5.5,0,0,0-.37-.16.43.43,0,0,0-.34.16A.54.54,0,0,0,317.65,184.06Zm-.07-1.67a.46.46,0,0,0,.15.32.49.49,0,0,0,.34.13.38.38,0,0,0,.39-.44.49.49,0,0,0-.15-.33A.45.45,0,0,0,318,182a.4.4,0,0,0-.31.12A.39.39,0,0,0,317.58,182.39Z" style="fill:#407BFF"></path><path d="M331.45,181.29l.29,3.94h-1.09l-.19-2.58a4.22,4.22,0,0,1-.49.33,3.61,3.61,0,0,1-.6.23l-.07-.88a2.32,2.32,0,0,0,.82-.43,1.48,1.48,0,0,0,.43-.61Z" style="fill:#407BFF"></path><path d="M332.9,184.36l1.06-.13a.64.64,0,0,0,.16.32.41.41,0,0,0,.26.09.41.41,0,0,0,.38-.26,2.27,2.27,0,0,0,.1-.82,1.13,1.13,0,0,1-.38.29,1.08,1.08,0,0,1-.46.09,1.26,1.26,0,0,1-.91-.37,1.42,1.42,0,0,1-.43-.93,1.5,1.5,0,0,1,.13-.71,1.15,1.15,0,0,1,.47-.48,1.68,1.68,0,0,1,.79-.16,2,2,0,0,1,.95.2,1.49,1.49,0,0,1,.61.63,2.92,2.92,0,0,1,.3,1.15,2.14,2.14,0,0,1-.33,1.54,1.44,1.44,0,0,1-1.19.49,1.84,1.84,0,0,1-.73-.11,1.17,1.17,0,0,1-.47-.31A1.41,1.41,0,0,1,332.9,184.36Zm1.85-1.73a.76.76,0,0,0-.2-.49.51.51,0,0,0-.39-.18.45.45,0,0,0-.35.16.71.71,0,0,0-.1.49.78.78,0,0,0,.18.5.52.52,0,0,0,.38.17.48.48,0,0,0,.37-.17A.64.64,0,0,0,334.75,182.63Z" style="fill:#407BFF"></path><path d="M348.71,185.23h-3.24a2.13,2.13,0,0,1,.27-.9,4.12,4.12,0,0,1,1-1,2.9,2.9,0,0,0,.56-.54.53.53,0,0,0,.11-.34.45.45,0,0,0-.16-.31.48.48,0,0,0-.33-.12.42.42,0,0,0-.33.13.71.71,0,0,0-.14.46l-1.09-.09a1.63,1.63,0,0,1,.18-.71,1,1,0,0,1,.45-.39,2.09,2.09,0,0,1,.84-.14,2.45,2.45,0,0,1,.9.13,1.22,1.22,0,0,1,.52.4,1.14,1.14,0,0,1,.07,1.28,2.54,2.54,0,0,1-.7.71l-.41.31-.24.24h1.68Z" style="fill:#407BFF"></path><path d="M349,183.28a2.27,2.27,0,0,1,.28-1.55,1.47,1.47,0,0,1,1.18-.44,1.74,1.74,0,0,1,.65.1,1.06,1.06,0,0,1,.43.25,1.37,1.37,0,0,1,.28.32,2.09,2.09,0,0,1,.17.4,3.42,3.42,0,0,1,.18.91,2.56,2.56,0,0,1-.24,1.54,1.32,1.32,0,0,1-1.2.49,1.73,1.73,0,0,1-.8-.16,1.42,1.42,0,0,1-.53-.45,2,2,0,0,1-.26-.59A4,4,0,0,1,349,183.28Zm1.07,0a2.75,2.75,0,0,0,.21,1,.44.44,0,0,0,.4.28.34.34,0,0,0,.27-.12.6.6,0,0,0,.15-.36,3.29,3.29,0,0,0,0-.78,2.9,2.9,0,0,0-.21-1,.47.47,0,0,0-.41-.26.37.37,0,0,0-.37.27A2.84,2.84,0,0,0,350.09,183.28Z" style="fill:#407BFF"></path><path d="M365,185.23h-3.23a1.88,1.88,0,0,1,.27-.9,4,4,0,0,1,1-1,2.75,2.75,0,0,0,.57-.54.51.51,0,0,0,.1-.34.48.48,0,0,0-.15-.31.5.5,0,0,0-.34-.12.42.42,0,0,0-.33.13.71.71,0,0,0-.14.46l-1.08-.09a1.51,1.51,0,0,1,.17-.71,1,1,0,0,1,.45-.39,2.11,2.11,0,0,1,.85-.14,2.39,2.39,0,0,1,.89.13,1.25,1.25,0,0,1,.53.4,1.1,1.1,0,0,1,.22.6,1.17,1.17,0,0,1-.15.68,2.86,2.86,0,0,1-.7.71l-.42.31-.24.24h1.69Z" style="fill:#407BFF"></path><path d="M367.57,181.29l.29,3.94h-1.09l-.19-2.58a4.22,4.22,0,0,1-.49.33,3.61,3.61,0,0,1-.6.23l-.07-.88a2.37,2.37,0,0,0,.83-.43,1.57,1.57,0,0,0,.43-.61Z" style="fill:#407BFF"></path><path d="M264.6,154.2l.3,3.94h-1.09l-.2-2.58a3.51,3.51,0,0,1-.49.33,3,3,0,0,1-.6.23l-.06-.88a2.41,2.41,0,0,0,.82-.43,1.57,1.57,0,0,0,.43-.61Z" style="fill:#407BFF"></path><path d="M281.86,158.14h-3.23a1.88,1.88,0,0,1,.27-.9,4,4,0,0,1,1-1,2.75,2.75,0,0,0,.57-.54.51.51,0,0,0,.1-.34.48.48,0,0,0-.15-.31.5.5,0,0,0-.34-.12.42.42,0,0,0-.33.13.71.71,0,0,0-.14.46l-1.08-.09a1.51,1.51,0,0,1,.17-.71,1,1,0,0,1,.45-.39,2.11,2.11,0,0,1,.85-.14,2.39,2.39,0,0,1,.89.13,1.25,1.25,0,0,1,.53.4,1.1,1.1,0,0,1,.22.6,1.17,1.17,0,0,1-.15.68,2.69,2.69,0,0,1-.7.71l-.42.31a2.69,2.69,0,0,0-.24.24h1.69Z" style="fill:#407BFF"></path><path d="M295.8,155.39l-1-.18a1.14,1.14,0,0,1,.43-.75,1.66,1.66,0,0,1,1-.26,1.79,1.79,0,0,1,1.12.28,1,1,0,0,1,.39.71.73.73,0,0,1-.1.46,1.06,1.06,0,0,1-.39.36,1.14,1.14,0,0,1,.36.13,1,1,0,0,1,.32.31,1,1,0,0,1,.14.46,1.12,1.12,0,0,1-.13.65,1,1,0,0,1-.47.48,1.87,1.87,0,0,1-.86.17,2.44,2.44,0,0,1-.85-.12,1.54,1.54,0,0,1-.53-.37,1.94,1.94,0,0,1-.35-.6l1.07-.14a1,1,0,0,0,.23.45.53.53,0,0,0,.35.12.45.45,0,0,0,.35-.15A.55.55,0,0,0,297,157a.62.62,0,0,0-.17-.42.56.56,0,0,0-.39-.14,1.35,1.35,0,0,0-.34.06v-.77h.14a.45.45,0,0,0,.34-.13.42.42,0,0,0,0-.6.37.37,0,0,0-.3-.11.44.44,0,0,0-.3.11A.68.68,0,0,0,295.8,155.39Z" style="fill:#407BFF"></path><path d="M313,157.42h-2l-.07-.89,1.79-2.33h.94l.18,2.38h.49l.06.84H314l.06.72h-.94Zm-.06-.84-.09-1.22-.95,1.22Z" style="fill:#407BFF"></path><path d="M327.62,154.27h2.55l.07.86h-1.73l-.05.58a1.58,1.58,0,0,1,.34-.13,1.39,1.39,0,0,1,.35,0,1.41,1.41,0,0,1,1,.35,1.3,1.3,0,0,1,.43.89,1.49,1.49,0,0,1-.13.72,1.15,1.15,0,0,1-.49.53,1.82,1.82,0,0,1-.87.18,2.62,2.62,0,0,1-.66-.07,1.48,1.48,0,0,1-.82-.55,1.89,1.89,0,0,1-.23-.45l1.08-.12a.71.71,0,0,0,.22.4.51.51,0,0,0,.35.13.42.42,0,0,0,.36-.17.7.7,0,0,0,.11-.51.75.75,0,0,0-.19-.5.52.52,0,0,0-.4-.16.63.63,0,0,0-.3.07,1,1,0,0,0-.22.2l-.93-.13Z" style="fill:#407BFF"></path><path d="M346.62,155.14l-1.06.13a.69.69,0,0,0-.17-.32.37.37,0,0,0-.25-.09.42.42,0,0,0-.39.27,2.24,2.24,0,0,0-.09.81,1.21,1.21,0,0,1,.37-.29,1.13,1.13,0,0,1,.47-.09,1.26,1.26,0,0,1,.9.37,1.38,1.38,0,0,1,.43.94,1.28,1.28,0,0,1-.13.7,1,1,0,0,1-.47.48,1.66,1.66,0,0,1-.79.16,2,2,0,0,1-.95-.2,1.61,1.61,0,0,1-.61-.63,2.77,2.77,0,0,1-.29-1.15,2.09,2.09,0,0,1,.32-1.54,1.45,1.45,0,0,1,1.19-.49,2.1,2.1,0,0,1,.74.11,1.17,1.17,0,0,1,.47.31A1.56,1.56,0,0,1,346.62,155.14Zm-1.86,1.73a.81.81,0,0,0,.2.49.53.53,0,0,0,.4.18.4.4,0,0,0,.34-.16.64.64,0,0,0,.11-.48.85.85,0,0,0-.18-.5.51.51,0,0,0-.39-.18.46.46,0,0,0-.36.17A.69.69,0,0,0,344.76,156.87Z" style="fill:#407BFF"></path><path d="M359.71,154.27h3.14l.06.72a3.41,3.41,0,0,0-.63.81,4.44,4.44,0,0,0-.44,1.16,5.85,5.85,0,0,0-.11,1.18h-1.08a6.06,6.06,0,0,1,.28-1.59,5.14,5.14,0,0,1,.76-1.37h-1.91Z" style="fill:#407BFF"></path><path d="M268.45,198.78h-3.23a1.82,1.82,0,0,1,.27-.9,4.23,4.23,0,0,1,1-1,2.78,2.78,0,0,0,.57-.53.54.54,0,0,0,.1-.35.44.44,0,0,0-.15-.3.51.51,0,0,0-.34-.13.45.45,0,0,0-.33.13.81.81,0,0,0-.14.46l-1.08-.09a1.63,1.63,0,0,1,.18-.71.94.94,0,0,1,.44-.39,2.13,2.13,0,0,1,.85-.13,2.39,2.39,0,0,1,.89.13,1.15,1.15,0,0,1,.53.39,1.1,1.1,0,0,1,.22.61,1.14,1.14,0,0,1-.15.67,2.55,2.55,0,0,1-.7.71c-.21.15-.35.26-.42.32l-.24.23h1.69Z" style="fill:#407BFF"></path><path d="M272.07,198.78h-3.24a2,2,0,0,1,.27-.9,4.31,4.31,0,0,1,1-1,2.94,2.94,0,0,0,.56-.53.55.55,0,0,0,.11-.35.41.41,0,0,0-.16-.3.49.49,0,0,0-.34-.13.44.44,0,0,0-.32.13.74.74,0,0,0-.14.46l-1.09-.09a1.63,1.63,0,0,1,.18-.71,1,1,0,0,1,.45-.39,2.11,2.11,0,0,1,.84-.13,2.36,2.36,0,0,1,.89.13,1.1,1.1,0,0,1,.53.39,1.11,1.11,0,0,1,.23.61,1.15,1.15,0,0,1-.16.67,2.42,2.42,0,0,1-.7.71c-.21.15-.34.26-.41.32a2.43,2.43,0,0,0-.24.23H272Z" style="fill:#407BFF"></path><path d="M284.71,198.78h-3.24a2,2,0,0,1,.27-.9,4.31,4.31,0,0,1,1-1,2.94,2.94,0,0,0,.56-.53.55.55,0,0,0,.11-.35.41.41,0,0,0-.16-.3.49.49,0,0,0-.34-.13.44.44,0,0,0-.32.13.74.74,0,0,0-.14.46l-1.09-.09a1.63,1.63,0,0,1,.18-.71A1,1,0,0,1,282,195a2.11,2.11,0,0,1,.84-.13,2.45,2.45,0,0,1,.9.13,1.16,1.16,0,0,1,.75,1,1.15,1.15,0,0,1-.16.67,2.42,2.42,0,0,1-.7.71c-.21.15-.34.26-.41.32a2.43,2.43,0,0,0-.24.23h1.68Z" style="fill:#407BFF"></path><path d="M286,196l-1-.18a1.23,1.23,0,0,1,.43-.75,1.69,1.69,0,0,1,1-.25,1.81,1.81,0,0,1,1.12.28,1,1,0,0,1,.39.71.8.8,0,0,1-.1.46,1.22,1.22,0,0,1-.39.35,1.36,1.36,0,0,1,.35.13.89.89,0,0,1,.32.32,1,1,0,0,1,.15.46,1.33,1.33,0,0,1-.13.65,1,1,0,0,1-.48.48,1.87,1.87,0,0,1-.86.17,2.39,2.39,0,0,1-.84-.13,1.32,1.32,0,0,1-.53-.36,1.76,1.76,0,0,1-.35-.6l1.06-.15a.93.93,0,0,0,.23.45.51.51,0,0,0,.35.13.41.41,0,0,0,.35-.16.57.57,0,0,0,.12-.42.67.67,0,0,0-.17-.42.53.53,0,0,0-.39-.15,1.12,1.12,0,0,0-.35.07v-.77h.14a.48.48,0,0,0,.35-.14.41.41,0,0,0,.11-.32.45.45,0,0,0-.12-.28.44.44,0,0,0-.3-.11.38.38,0,0,0-.3.12A.65.65,0,0,0,286,196Z" style="fill:#407BFF"></path><path d="M301,198.78h-3.23a1.82,1.82,0,0,1,.27-.9,4,4,0,0,1,1-1,2.78,2.78,0,0,0,.57-.53.61.61,0,0,0,.1-.35.44.44,0,0,0-.15-.3.53.53,0,0,0-.34-.13.45.45,0,0,0-.33.13.74.74,0,0,0-.14.46l-1.09-.09a1.63,1.63,0,0,1,.18-.71,1,1,0,0,1,.45-.39,2.11,2.11,0,0,1,.84-.13,2.45,2.45,0,0,1,.9.13,1.15,1.15,0,0,1,.53.39,1.1,1.1,0,0,1,.22.61,1.14,1.14,0,0,1-.15.67,2.62,2.62,0,0,1-.71.71l-.41.32a2.43,2.43,0,0,0-.24.23h1.68Z" style="fill:#407BFF"></path><path d="M303.22,198.06h-2l-.07-.89,1.79-2.33h.94l.17,2.38h.49l.06.84h-.48l0,.72h-.94Zm-.06-.84-.1-1.22-.94,1.22Z" style="fill:#407BFF"></path><path d="M317.21,198.78H314a1.82,1.82,0,0,1,.27-.9,4.44,4.44,0,0,1,1-1,2.78,2.78,0,0,0,.57-.53.62.62,0,0,0,.11-.35.41.41,0,0,0-.16-.3.49.49,0,0,0-.34-.13.44.44,0,0,0-.32.13.73.73,0,0,0-.15.46l-1.08-.09a1.63,1.63,0,0,1,.18-.71,1,1,0,0,1,.45-.39,2.08,2.08,0,0,1,.84-.13,2.36,2.36,0,0,1,.89.13,1.1,1.1,0,0,1,.53.39,1.11,1.11,0,0,1,.23.61,1.23,1.23,0,0,1-.16.67,2.55,2.55,0,0,1-.7.71c-.21.15-.34.26-.41.32a2.43,2.43,0,0,0-.24.23h1.68Z" style="fill:#407BFF"></path><path d="M317.82,194.9h2.56l.06.86h-1.73l0,.58a1.61,1.61,0,0,1,.35-.12,1.33,1.33,0,0,1,.34-.05,1.37,1.37,0,0,1,1,.36,1.24,1.24,0,0,1,.43.88,1.38,1.38,0,0,1-.13.72,1.1,1.1,0,0,1-.49.53,1.69,1.69,0,0,1-.86.19,2.62,2.62,0,0,1-.67-.08,1.75,1.75,0,0,1-.48-.21,1.72,1.72,0,0,1-.33-.33,1.79,1.79,0,0,1-.24-.46l1.09-.11a.73.73,0,0,0,.21.39.52.52,0,0,0,.36.14.45.45,0,0,0,.36-.17.7.7,0,0,0,.1-.51.74.74,0,0,0-.18-.51.54.54,0,0,0-.41-.16.6.6,0,0,0-.29.08.67.67,0,0,0-.23.2l-.92-.13Z" style="fill:#407BFF"></path><path d="M333.47,198.78h-3.23a1.82,1.82,0,0,1,.27-.9,4,4,0,0,1,1-1,2.65,2.65,0,0,0,.56-.53.55.55,0,0,0,.11-.35.44.44,0,0,0-.15-.3.53.53,0,0,0-.34-.13.45.45,0,0,0-.33.13.74.74,0,0,0-.14.46l-1.09-.09a1.63,1.63,0,0,1,.18-.71,1,1,0,0,1,.45-.39,2.11,2.11,0,0,1,.84-.13,2.45,2.45,0,0,1,.9.13,1.16,1.16,0,0,1,.75,1,1.08,1.08,0,0,1-.16.67,2.42,2.42,0,0,1-.7.71l-.41.32a2.43,2.43,0,0,0-.24.23h1.68Z" style="fill:#407BFF"></path><path d="M336.82,195.77l-1.06.14a.64.64,0,0,0-.16-.32.39.39,0,0,0-.26-.09.41.41,0,0,0-.38.26,2.27,2.27,0,0,0-.1.82,1.24,1.24,0,0,1,.38-.29,1,1,0,0,1,.46-.1,1.3,1.3,0,0,1,.91.37,1.39,1.39,0,0,1,.42.94,1.35,1.35,0,0,1-.12.7,1.09,1.09,0,0,1-.47.48,1.68,1.68,0,0,1-.79.17,2,2,0,0,1-.95-.2,1.51,1.51,0,0,1-.61-.64,2.87,2.87,0,0,1-.3-1.15,2.15,2.15,0,0,1,.33-1.54,1.46,1.46,0,0,1,1.19-.48,2.1,2.1,0,0,1,.73.1,1.13,1.13,0,0,1,.47.32A1.37,1.37,0,0,1,336.82,195.77ZM335,197.5a.78.78,0,0,0,.19.5.58.58,0,0,0,.41.17.41.41,0,0,0,.34-.16.67.67,0,0,0,.11-.48.81.81,0,0,0-.19-.5.52.52,0,0,0-.38-.17.45.45,0,0,0-.37.17A.63.63,0,0,0,335,197.5Z" style="fill:#407BFF"></path><path d="M349.72,198.78h-3.23a1.82,1.82,0,0,1,.27-.9,4.23,4.23,0,0,1,1-1,2.78,2.78,0,0,0,.57-.53.54.54,0,0,0,.1-.35.4.4,0,0,0-.15-.3.51.51,0,0,0-.34-.13.45.45,0,0,0-.33.13.81.81,0,0,0-.14.46l-1.08-.09a1.63,1.63,0,0,1,.18-.71A1,1,0,0,1,347,195a2.13,2.13,0,0,1,.85-.13,2.39,2.39,0,0,1,.89.13,1.15,1.15,0,0,1,.53.39,1.2,1.2,0,0,1,.23.61,1.23,1.23,0,0,1-.16.67,2.55,2.55,0,0,1-.7.71l-.42.32-.24.23h1.69Z" style="fill:#407BFF"></path><path d="M349.91,194.9h3.15l.05.73a3.59,3.59,0,0,0-.62.8,4,4,0,0,0-.44,1.17,5,5,0,0,0-.12,1.18h-1.07a5.67,5.67,0,0,1,.28-1.59,5.28,5.28,0,0,1,.75-1.38H350Z" style="fill:#407BFF"></path><path d="M366,198.78h-3.24a2,2,0,0,1,.27-.9,4.31,4.31,0,0,1,1-1,2.94,2.94,0,0,0,.56-.53.55.55,0,0,0,.11-.35.41.41,0,0,0-.16-.3.49.49,0,0,0-.33-.13.45.45,0,0,0-.33.13.74.74,0,0,0-.14.46l-1.09-.09a1.63,1.63,0,0,1,.18-.71,1,1,0,0,1,.45-.39,2.11,2.11,0,0,1,.84-.13,2.45,2.45,0,0,1,.9.13,1.16,1.16,0,0,1,.75,1,1.15,1.15,0,0,1-.16.67,2.42,2.42,0,0,1-.7.71c-.21.15-.34.26-.41.32a2.43,2.43,0,0,0-.24.23h1.68Z" style="fill:#407BFF"></path><path d="M366.93,196.7a1.07,1.07,0,0,1-.39-.31.88.88,0,0,1-.2-.52.86.86,0,0,1,.4-.8,1.55,1.55,0,0,1,.92-.23,1.91,1.91,0,0,1,1.17.29,1,1,0,0,1,.43.75.77.77,0,0,1-.11.49,1.09,1.09,0,0,1-.32.33,1.32,1.32,0,0,1,.5.39,1.1,1.1,0,0,1,.19.56,1,1,0,0,1-.09.54,1,1,0,0,1-.3.39,1.19,1.19,0,0,1-.47.2,2.92,2.92,0,0,1-.61.07,2.38,2.38,0,0,1-.95-.15,1.19,1.19,0,0,1-.53-.43,1.29,1.29,0,0,1-.22-.63.91.91,0,0,1,.12-.58A.85.85,0,0,1,366.93,196.7Zm.49.9a.68.68,0,0,0,.19.42.52.52,0,0,0,.37.16.41.41,0,0,0,.33-.16.55.55,0,0,0,.13-.42.68.68,0,0,0-.19-.42.5.5,0,0,0-.37-.16.45.45,0,0,0-.34.15A.6.6,0,0,0,367.42,197.6Zm-.06-1.67a.47.47,0,0,0,.15.33.49.49,0,0,0,.34.12.41.41,0,0,0,.3-.12.42.42,0,0,0,.09-.32.46.46,0,0,0-.15-.32.44.44,0,0,0-.33-.13.38.38,0,0,0-.3.12A.4.4,0,0,0,367.36,195.93Z" style="fill:#407BFF"></path><path d="M131.27,171h-2l-.07-.88,1.79-2.33H132l.18,2.38h.48l.07.83h-.49l0,.73h-.94Zm-.06-.83-.09-1.22-1,1.22Z" style="fill:#407BFF"></path><path d="M145.87,167.81h2.56l.06.86h-1.73l0,.58a1.61,1.61,0,0,1,.35-.12,1.33,1.33,0,0,1,.34,0,1.35,1.35,0,0,1,1,.36,1.24,1.24,0,0,1,.43.88,1.38,1.38,0,0,1-.13.72,1.1,1.1,0,0,1-.49.53,1.79,1.79,0,0,1-.86.19,2.48,2.48,0,0,1-.66-.08,1.69,1.69,0,0,1-.49-.21,1.72,1.72,0,0,1-.33-.33,1.52,1.52,0,0,1-.23-.46l1.08-.11a.73.73,0,0,0,.21.39.54.54,0,0,0,.36.14.45.45,0,0,0,.36-.17.75.75,0,0,0,.11-.51.8.8,0,0,0-.19-.51.54.54,0,0,0-.41-.16.6.6,0,0,0-.29.08.67.67,0,0,0-.23.2l-.92-.13Z" style="fill:#407BFF"></path><path d="M164.87,168.68l-1.06.14a.64.64,0,0,0-.16-.32.38.38,0,0,0-.25-.09.4.4,0,0,0-.39.26,2.53,2.53,0,0,0-.1.82,1.24,1.24,0,0,1,.38-.29,1,1,0,0,1,.46-.1,1.3,1.3,0,0,1,.91.37,1.45,1.45,0,0,1,.3,1.64,1.09,1.09,0,0,1-.47.48,1.68,1.68,0,0,1-.79.17,2,2,0,0,1-.95-.2,1.51,1.51,0,0,1-.61-.64,2.87,2.87,0,0,1-.3-1.15,2.15,2.15,0,0,1,.33-1.54,1.46,1.46,0,0,1,1.19-.48,2.17,2.17,0,0,1,.74.1,1.27,1.27,0,0,1,.47.32A1.5,1.5,0,0,1,164.87,168.68ZM163,170.41a.79.79,0,0,0,.2.5.54.54,0,0,0,.4.17.41.41,0,0,0,.34-.16.69.69,0,0,0,.11-.48.81.81,0,0,0-.19-.5.52.52,0,0,0-.38-.17.42.42,0,0,0-.36.17A.59.59,0,0,0,163,170.41Z" style="fill:#407BFF"></path><path d="M178,167.81h3.15l0,.73a3.59,3.59,0,0,0-.62.8,4,4,0,0,0-.44,1.17,5,5,0,0,0-.12,1.18h-1.07a5.67,5.67,0,0,1,.28-1.59,5.34,5.34,0,0,1,.76-1.38H178Z" style="fill:#407BFF"></path><path d="M195,169.6a1,1,0,0,1-.39-.3.88.88,0,0,1-.2-.52.87.87,0,0,1,.4-.8,1.55,1.55,0,0,1,.92-.23,2,2,0,0,1,1.18.29,1,1,0,0,1,.42.75.77.77,0,0,1-.11.49,1,1,0,0,1-.32.32,1.45,1.45,0,0,1,.5.4,1.1,1.1,0,0,1,.19.55,1.07,1.07,0,0,1-.39.94,1.19,1.19,0,0,1-.47.2,2.92,2.92,0,0,1-.61.07,2.38,2.38,0,0,1-.95-.15,1.19,1.19,0,0,1-.53-.43,1.29,1.29,0,0,1-.22-.63,1,1,0,0,1,.12-.58A.92.92,0,0,1,195,169.6Zm.49.91a.68.68,0,0,0,.19.42.52.52,0,0,0,.37.16.44.44,0,0,0,.34-.16.58.58,0,0,0,.12-.42.68.68,0,0,0-.19-.42.5.5,0,0,0-.37-.16.45.45,0,0,0-.34.15A.6.6,0,0,0,195.47,170.51Zm-.06-1.67a.47.47,0,0,0,.15.33.49.49,0,0,0,.34.12.41.41,0,0,0,.3-.12.42.42,0,0,0,.09-.32.46.46,0,0,0-.15-.32.44.44,0,0,0-.32-.13.38.38,0,0,0-.41.44Z" style="fill:#407BFF"></path><path d="M210.72,170.82l1.07-.14a.64.64,0,0,0,.16.32.41.41,0,0,0,.64-.17,2.5,2.5,0,0,0,.1-.81,1.42,1.42,0,0,1-.38.29,1.08,1.08,0,0,1-.46.09,1.26,1.26,0,0,1-.91-.37,1.4,1.4,0,0,1-.43-.94,1.35,1.35,0,0,1,.13-.7,1.09,1.09,0,0,1,.47-.48,1.68,1.68,0,0,1,.79-.16,2,2,0,0,1,.95.19,1.57,1.57,0,0,1,.61.64,2.87,2.87,0,0,1,.3,1.15,2.15,2.15,0,0,1-.33,1.54,1.48,1.48,0,0,1-1.19.49,2.14,2.14,0,0,1-.74-.11,1.25,1.25,0,0,1-.46-.31A1.58,1.58,0,0,1,210.72,170.82Zm1.86-1.73a.74.74,0,0,0-.2-.49.52.52,0,0,0-.4-.18.41.41,0,0,0-.34.16.64.64,0,0,0-.1.48.73.73,0,0,0,.18.5.52.52,0,0,0,.38.17.44.44,0,0,0,.36-.16A.61.61,0,0,0,212.58,169.09Z" style="fill:#407BFF"></path><path d="M229.14,167.75l.3,3.94h-1.09l-.2-2.59a2.29,2.29,0,0,1-.48.33,4.31,4.31,0,0,1-.61.24l-.06-.89a2.32,2.32,0,0,0,.82-.42,1.65,1.65,0,0,0,.43-.61Z" style="fill:#407BFF"></path><path d="M230.46,169.73a2.18,2.18,0,0,1,.29-1.54,1.42,1.42,0,0,1,1.18-.44,2,2,0,0,1,.65.09,1.3,1.3,0,0,1,.7.58,1.66,1.66,0,0,1,.18.4,3.87,3.87,0,0,1,.17.9,2.52,2.52,0,0,1-.24,1.55,1.33,1.33,0,0,1-1.19.49,1.88,1.88,0,0,1-.81-.16,1.42,1.42,0,0,1-.52-.46,1.74,1.74,0,0,1-.27-.58A5,5,0,0,1,230.46,169.73Zm1.07,0a2.81,2.81,0,0,0,.21,1,.45.45,0,0,0,.4.27.41.41,0,0,0,.28-.11.75.75,0,0,0,.15-.37,4,4,0,0,0,0-.77,2.69,2.69,0,0,0-.2-1,.46.46,0,0,0-.42-.27.35.35,0,0,0-.36.27A2.83,2.83,0,0,0,231.53,169.74Z" style="fill:#407BFF"></path><path d="M132.63,181.29l.3,3.94h-1.09l-.19-2.58a4.22,4.22,0,0,1-.49.33,3.61,3.61,0,0,1-.6.23l-.07-.88a2.32,2.32,0,0,0,.82-.43,1.48,1.48,0,0,0,.43-.61Z" style="fill:#407BFF"></path><path d="M136.25,181.29l.29,3.94h-1.09l-.19-2.58a4.22,4.22,0,0,1-.49.33,3.61,3.61,0,0,1-.6.23l-.07-.88a2.37,2.37,0,0,0,.83-.43,1.57,1.57,0,0,0,.43-.61Z" style="fill:#407BFF"></path><path d="M148.89,181.29l.29,3.94h-1.09l-.19-2.58a4.22,4.22,0,0,1-.49.33,3.61,3.61,0,0,1-.6.23l-.07-.88a2.37,2.37,0,0,0,.83-.43,1.57,1.57,0,0,0,.43-.61Z" style="fill:#407BFF"></path><path d="M153.51,185.23h-3.23a1.88,1.88,0,0,1,.27-.9,3.87,3.87,0,0,1,1-1,2.62,2.62,0,0,0,.56-.54.53.53,0,0,0,.11-.34.48.48,0,0,0-.15-.31.52.52,0,0,0-.34-.12.42.42,0,0,0-.33.13.71.71,0,0,0-.14.46l-1.09-.09a1.63,1.63,0,0,1,.18-.71,1,1,0,0,1,.45-.39,2.09,2.09,0,0,1,.84-.14,2.45,2.45,0,0,1,.9.13,1.22,1.22,0,0,1,.52.4,1.14,1.14,0,0,1,.07,1.28,2.54,2.54,0,0,1-.7.71l-.41.31a2.69,2.69,0,0,0-.24.24h1.68Z" style="fill:#407BFF"></path><path d="M165.14,181.29l.3,3.94h-1.09l-.2-2.58a4.14,4.14,0,0,1-.48.33,3.42,3.42,0,0,1-.61.23l-.06-.88a2.32,2.32,0,0,0,.82-.43,1.57,1.57,0,0,0,.43-.61Z" style="fill:#407BFF"></path><path d="M167.45,182.48l-1-.18a1.14,1.14,0,0,1,.43-.75,1.66,1.66,0,0,1,1-.26,1.79,1.79,0,0,1,1.12.28,1,1,0,0,1,.39.71.8.8,0,0,1-.1.46,1.06,1.06,0,0,1-.39.36,1.07,1.07,0,0,1,.35.13.9.9,0,0,1,.33.31,1,1,0,0,1,.14.46,1.21,1.21,0,0,1-.13.65,1,1,0,0,1-.47.48,2,2,0,0,1-.87.17,2.41,2.41,0,0,1-.84-.12,1.45,1.45,0,0,1-.53-.37,1.94,1.94,0,0,1-.35-.6l1.07-.14a.9.9,0,0,0,.23.45.51.51,0,0,0,.35.12.45.45,0,0,0,.35-.15.64.64,0,0,0,.11-.43.62.62,0,0,0-.17-.42.56.56,0,0,0-.39-.14,1.35,1.35,0,0,0-.34.06v-.77h.15a.45.45,0,0,0,.34-.13.43.43,0,0,0,.12-.32.43.43,0,0,0-.13-.28.4.4,0,0,0-.3-.11.41.41,0,0,0-.3.11A.68.68,0,0,0,167.45,182.48Z" style="fill:#407BFF"></path><path d="M181.4,181.29l.29,3.94H180.6l-.19-2.58a4.22,4.22,0,0,1-.49.33,3.61,3.61,0,0,1-.6.23l-.07-.88a2.32,2.32,0,0,0,.82-.43,1.48,1.48,0,0,0,.43-.61Z" style="fill:#407BFF"></path><path d="M184.66,184.51h-2l-.07-.89,1.79-2.33h.94l.18,2.38H186l.07.84h-.49l.05.72h-.93Zm-.06-.84-.09-1.22-.95,1.22Z" style="fill:#407BFF"></path><path d="M197.65,181.29l.3,3.94h-1.09l-.2-2.58a3.51,3.51,0,0,1-.49.33,3.29,3.29,0,0,1-.6.23l-.06-.88a2.41,2.41,0,0,0,.82-.43,1.57,1.57,0,0,0,.43-.61Z" style="fill:#407BFF"></path><path d="M199.26,181.36h2.56l.07.86h-1.74l-.05.58a1.89,1.89,0,0,1,.35-.13,1.39,1.39,0,0,1,.35,0,1.43,1.43,0,0,1,1,.35,1.3,1.3,0,0,1,.43.89,1.5,1.5,0,0,1-.14.72,1.1,1.1,0,0,1-.49.53,1.77,1.77,0,0,1-.86.18,2.52,2.52,0,0,1-.66-.07,1.33,1.33,0,0,1-.48-.22,1.19,1.19,0,0,1-.34-.33,1.58,1.58,0,0,1-.23-.45l1.08-.12a.77.77,0,0,0,.21.4.55.55,0,0,0,.36.13.42.42,0,0,0,.36-.17.93.93,0,0,0-.08-1,.54.54,0,0,0-.4-.16.6.6,0,0,0-.3.07,1,1,0,0,0-.22.2l-.93-.13Z" style="fill:#407BFF"></path><path d="M213.9,181.29l.3,3.94h-1.09l-.19-2.58a4.22,4.22,0,0,1-.49.33,3.61,3.61,0,0,1-.6.23l-.07-.88a2.32,2.32,0,0,0,.82-.43,1.48,1.48,0,0,0,.43-.61Z" style="fill:#407BFF"></path><path d="M218.27,182.23l-1.07.13A.68.68,0,0,0,217,182a.38.38,0,0,0-.25-.09.4.4,0,0,0-.39.27,2.4,2.4,0,0,0-.1.81,1.24,1.24,0,0,1,.38-.29,1.11,1.11,0,0,1,.46-.09,1.26,1.26,0,0,1,.91.37,1.45,1.45,0,0,1,.3,1.64,1.09,1.09,0,0,1-.47.48,1.66,1.66,0,0,1-.79.16,2,2,0,0,1-1-.2,1.55,1.55,0,0,1-.61-.63,2.92,2.92,0,0,1-.3-1.15,2.14,2.14,0,0,1,.33-1.54,1.45,1.45,0,0,1,1.19-.49,2.14,2.14,0,0,1,.74.11,1.25,1.25,0,0,1,.47.31A1.56,1.56,0,0,1,218.27,182.23ZM216.41,184a.76.76,0,0,0,.2.49.53.53,0,0,0,.4.18.41.41,0,0,0,.34-.16.69.69,0,0,0,.11-.48.79.79,0,0,0-.19-.5.48.48,0,0,0-.38-.18.45.45,0,0,0-.36.17A.64.64,0,0,0,216.41,184Z" style="fill:#407BFF"></path><path d="M230.16,181.29l.29,3.94h-1.09l-.19-2.58a4.22,4.22,0,0,1-.49.33,3.61,3.61,0,0,1-.6.23l-.07-.88a2.37,2.37,0,0,0,.83-.43,1.57,1.57,0,0,0,.43-.61Z" style="fill:#407BFF"></path><path d="M231.35,181.36h3.15l.05.72a3.64,3.64,0,0,0-.62.81,4.11,4.11,0,0,0-.44,1.16,5.17,5.17,0,0,0-.12,1.18H232.3a6.06,6.06,0,0,1,.28-1.59,5.29,5.29,0,0,1,.76-1.37h-1.92Z" style="fill:#407BFF"></path><path d="M195.82,154.2l.3,3.94H195l-.2-2.58a4.14,4.14,0,0,1-.48.33,3.42,3.42,0,0,1-.61.23l-.06-.88a2.41,2.41,0,0,0,.82-.43,1.57,1.57,0,0,0,.43-.61Z" style="fill:#407BFF"></path><path d="M213.08,158.14h-3.23a1.88,1.88,0,0,1,.27-.9,4,4,0,0,1,1-1,2.75,2.75,0,0,0,.57-.54.51.51,0,0,0,.1-.34.48.48,0,0,0-.15-.31.5.5,0,0,0-.34-.12.42.42,0,0,0-.33.13.78.78,0,0,0-.14.46l-1.08-.09a1.63,1.63,0,0,1,.18-.71,1,1,0,0,1,.44-.39,2.11,2.11,0,0,1,.85-.14,2.39,2.39,0,0,1,.89.13,1.25,1.25,0,0,1,.53.4,1.2,1.2,0,0,1,.23.6,1.26,1.26,0,0,1-.16.68,2.69,2.69,0,0,1-.7.71l-.42.31-.24.24H213Z" style="fill:#407BFF"></path><path d="M227,155.39l-1-.18a1.14,1.14,0,0,1,.43-.75,1.66,1.66,0,0,1,1-.26,1.79,1.79,0,0,1,1.12.28,1,1,0,0,1,.4.71.81.81,0,0,1-.11.46,1.06,1.06,0,0,1-.39.36,1.14,1.14,0,0,1,.36.13,1,1,0,0,1,.32.31,1,1,0,0,1,.14.46,1.12,1.12,0,0,1-.13.65,1,1,0,0,1-.47.48,1.87,1.87,0,0,1-.86.17,2.44,2.44,0,0,1-.85-.12,1.54,1.54,0,0,1-.53-.37,1.94,1.94,0,0,1-.35-.6l1.07-.14a1,1,0,0,0,.23.45.53.53,0,0,0,.35.12.44.44,0,0,0,.35-.15.55.55,0,0,0,.11-.43.62.62,0,0,0-.17-.42.56.56,0,0,0-.39-.14,1.35,1.35,0,0,0-.34.06v-.77h.14a.45.45,0,0,0,.34-.13.42.42,0,0,0,0-.6.37.37,0,0,0-.3-.11.44.44,0,0,0-.3.11A.76.76,0,0,0,227,155.39Z" style="fill:#407BFF"></path><path d="M133.65,194.84l.29,3.94h-1.09l-.19-2.58a3.14,3.14,0,0,1-.49.32,4.66,4.66,0,0,1-.6.24l-.07-.88a2.55,2.55,0,0,0,.83-.43,1.65,1.65,0,0,0,.43-.61Z" style="fill:#407BFF"></path><path d="M135.61,196.7a1.07,1.07,0,0,1-.39-.31.88.88,0,0,1-.2-.52.86.86,0,0,1,.4-.8,1.55,1.55,0,0,1,.92-.23,1.91,1.91,0,0,1,1.17.29,1,1,0,0,1,.43.75.84.84,0,0,1-.11.49,1.23,1.23,0,0,1-.32.33,1.21,1.21,0,0,1,.49.39,1,1,0,0,1,.2.56,1.1,1.1,0,0,1-.09.54,1,1,0,0,1-.3.39,1.19,1.19,0,0,1-.47.2,2.92,2.92,0,0,1-.61.07,2.47,2.47,0,0,1-1-.15,1.16,1.16,0,0,1-.52-.43,1.29,1.29,0,0,1-.22-.63.91.91,0,0,1,.12-.58A.82.82,0,0,1,135.61,196.7Zm.49.9a.68.68,0,0,0,.19.42.52.52,0,0,0,.37.16A.41.41,0,0,0,137,198a.55.55,0,0,0,.13-.42.68.68,0,0,0-.19-.42.52.52,0,0,0-.37-.16.43.43,0,0,0-.34.15A.6.6,0,0,0,136.1,197.6Zm-.06-1.67a.47.47,0,0,0,.15.33.49.49,0,0,0,.34.12.37.37,0,0,0,.29-.12.39.39,0,0,0,.1-.32.46.46,0,0,0-.15-.32.44.44,0,0,0-.33-.13.41.41,0,0,0-.31.12A.44.44,0,0,0,136,195.93Z" style="fill:#407BFF"></path><path d="M149.9,194.84l.3,3.94h-1.09l-.2-2.58a2.67,2.67,0,0,1-.48.32,4.31,4.31,0,0,1-.61.24l-.06-.88a2.49,2.49,0,0,0,.82-.43,1.65,1.65,0,0,0,.43-.61Z" style="fill:#407BFF"></path><path d="M151.35,197.91l1.06-.14a.64.64,0,0,0,.17.32.38.38,0,0,0,.25.09.4.4,0,0,0,.39-.26,2.5,2.5,0,0,0,.1-.81,1.42,1.42,0,0,1-.38.29,1.08,1.08,0,0,1-.46.09,1.26,1.26,0,0,1-.91-.37,1.4,1.4,0,0,1-.43-.94,1.35,1.35,0,0,1,.13-.7,1.09,1.09,0,0,1,.47-.48,1.66,1.66,0,0,1,.79-.16,1.91,1.91,0,0,1,.95.2,1.55,1.55,0,0,1,.61.63,2.87,2.87,0,0,1,.3,1.15,2.15,2.15,0,0,1-.33,1.54,1.48,1.48,0,0,1-1.19.49,2.14,2.14,0,0,1-.74-.11,1.38,1.38,0,0,1-.47-.31A1.75,1.75,0,0,1,151.35,197.91Zm1.86-1.73a.76.76,0,0,0-.2-.49.53.53,0,0,0-.4-.18.4.4,0,0,0-.34.16.69.69,0,0,0-.11.48.79.79,0,0,0,.19.5.5.5,0,0,0,.38.17.44.44,0,0,0,.36-.16A.7.7,0,0,0,153.21,196.18Z" style="fill:#407BFF"></path><path d="M167.16,198.78h-3.23a1.82,1.82,0,0,1,.27-.9,4.44,4.44,0,0,1,1-1,2.78,2.78,0,0,0,.57-.53.62.62,0,0,0,.11-.35.41.41,0,0,0-.16-.3.49.49,0,0,0-.34-.13.44.44,0,0,0-.32.13.73.73,0,0,0-.15.46l-1.08-.09a1.63,1.63,0,0,1,.18-.71,1,1,0,0,1,.45-.39,2.08,2.08,0,0,1,.84-.13,2.36,2.36,0,0,1,.89.13,1.1,1.1,0,0,1,.53.39,1.2,1.2,0,0,1,.23.61,1.23,1.23,0,0,1-.16.67,2.55,2.55,0,0,1-.7.71,4,4,0,0,0-.41.32,2.43,2.43,0,0,0-.24.23h1.68Z" style="fill:#407BFF"></path><path d="M167.48,196.82a2.19,2.19,0,0,1,.28-1.54,1.43,1.43,0,0,1,1.18-.44,2,2,0,0,1,.65.09,1.48,1.48,0,0,1,.43.25,1.63,1.63,0,0,1,.27.33,1.85,1.85,0,0,1,.18.4,4.49,4.49,0,0,1,.18.9,2.6,2.6,0,0,1-.24,1.55,1.36,1.36,0,0,1-1.2.49,1.87,1.87,0,0,1-.8-.16,1.37,1.37,0,0,1-.53-.46,2,2,0,0,1-.26-.58A4.1,4.1,0,0,1,167.48,196.82Zm1.07,0a2.65,2.65,0,0,0,.2,1,.46.46,0,0,0,.4.27.39.39,0,0,0,.28-.11.75.75,0,0,0,.15-.37,3.83,3.83,0,0,0,0-.77,2.85,2.85,0,0,0-.21-1,.46.46,0,0,0-.41-.27.37.37,0,0,0-.37.27A2.9,2.9,0,0,0,168.55,196.83Z" style="fill:#407BFF"></path><path d="M183.42,198.78h-3.23a1.82,1.82,0,0,1,.27-.9,4,4,0,0,1,1-1,2.65,2.65,0,0,0,.56-.53.55.55,0,0,0,.11-.35.44.44,0,0,0-.15-.3.53.53,0,0,0-.34-.13.45.45,0,0,0-.33.13.74.74,0,0,0-.14.46l-1.09-.09a1.63,1.63,0,0,1,.18-.71,1,1,0,0,1,.45-.39,2.11,2.11,0,0,1,.84-.13,2.45,2.45,0,0,1,.9.13,1.16,1.16,0,0,1,.75,1,1.08,1.08,0,0,1-.16.67,2.42,2.42,0,0,1-.7.71l-.41.32a2.43,2.43,0,0,0-.24.23h1.68Z" style="fill:#407BFF"></path><path d="M186,194.84l.29,3.94h-1.09L185,196.2a3.14,3.14,0,0,1-.49.32,4.66,4.66,0,0,1-.6.24l-.07-.88a2.49,2.49,0,0,0,.82-.43,1.54,1.54,0,0,0,.43-.61Z" style="fill:#407BFF"></path><path d="M199.67,198.78h-3.23a1.82,1.82,0,0,1,.27-.9,4.23,4.23,0,0,1,1-1,2.78,2.78,0,0,0,.57-.53.54.54,0,0,0,.1-.35.4.4,0,0,0-.15-.3.51.51,0,0,0-.34-.13.45.45,0,0,0-.33.13.81.81,0,0,0-.14.46l-1.08-.09a1.63,1.63,0,0,1,.18-.71,1,1,0,0,1,.44-.39,2.13,2.13,0,0,1,.85-.13,2.39,2.39,0,0,1,.89.13,1.15,1.15,0,0,1,.53.39,1.2,1.2,0,0,1,.23.61,1.23,1.23,0,0,1-.16.67,2.55,2.55,0,0,1-.7.71l-.42.32-.24.23h1.69Z" style="fill:#407BFF"></path><path d="M203.29,198.78h-3.24a2,2,0,0,1,.27-.9,4.31,4.31,0,0,1,1-1,2.94,2.94,0,0,0,.56-.53A.55.55,0,0,0,202,196a.41.41,0,0,0-.16-.3.49.49,0,0,0-.33-.13.45.45,0,0,0-.33.13.74.74,0,0,0-.14.46l-1.09-.09a1.63,1.63,0,0,1,.18-.71,1,1,0,0,1,.45-.39,2.11,2.11,0,0,1,.84-.13,2.45,2.45,0,0,1,.9.13,1.16,1.16,0,0,1,.75,1,1.15,1.15,0,0,1-.16.67,2.42,2.42,0,0,1-.7.71c-.21.15-.34.26-.41.32a2.43,2.43,0,0,0-.24.23h1.68Z" style="fill:#407BFF"></path><path d="M215.93,198.78h-3.24a2,2,0,0,1,.27-.9,4.31,4.31,0,0,1,1-1,2.94,2.94,0,0,0,.56-.53.55.55,0,0,0,.11-.35.41.41,0,0,0-.16-.3.49.49,0,0,0-.33-.13.45.45,0,0,0-.33.13.74.74,0,0,0-.14.46l-1.09-.09a1.63,1.63,0,0,1,.18-.71,1,1,0,0,1,.45-.39,2.11,2.11,0,0,1,.84-.13,2.45,2.45,0,0,1,.9.13,1.16,1.16,0,0,1,.75,1,1.15,1.15,0,0,1-.16.67,2.42,2.42,0,0,1-.7.71c-.21.15-.34.26-.41.32a2.43,2.43,0,0,0-.24.23h1.68Z" style="fill:#407BFF"></path><path d="M217.23,196l-1-.18a1.2,1.2,0,0,1,.44-.75,1.64,1.64,0,0,1,1-.25,1.81,1.81,0,0,1,1.12.28,1,1,0,0,1,.39.71.8.8,0,0,1-.1.46,1.12,1.12,0,0,1-.39.35,1.36,1.36,0,0,1,.35.13,1,1,0,0,1,.33.32,1.08,1.08,0,0,1,.14.46,1.33,1.33,0,0,1-.13.65,1,1,0,0,1-.48.48,1.87,1.87,0,0,1-.86.17,2.39,2.39,0,0,1-.84-.13,1.32,1.32,0,0,1-.53-.36,1.76,1.76,0,0,1-.35-.6l1.06-.15a.86.86,0,0,0,.24.45.48.48,0,0,0,.35.13.4.4,0,0,0,.34-.16.57.57,0,0,0,.12-.42.67.67,0,0,0-.17-.42.53.53,0,0,0-.39-.15,1.12,1.12,0,0,0-.35.07v-.77h.14a.48.48,0,0,0,.35-.14.41.41,0,0,0,.11-.32.45.45,0,0,0-.12-.28.44.44,0,0,0-.3-.11.38.38,0,0,0-.3.12A.59.59,0,0,0,217.23,196Z" style="fill:#407BFF"></path><path d="M232.18,198.78H229a1.82,1.82,0,0,1,.27-.9,4,4,0,0,1,1-1,2.78,2.78,0,0,0,.57-.53.54.54,0,0,0,.1-.35.44.44,0,0,0-.15-.3.51.51,0,0,0-.34-.13.45.45,0,0,0-.33.13.74.74,0,0,0-.14.46l-1.09-.09a1.63,1.63,0,0,1,.18-.71,1,1,0,0,1,.45-.39,2.13,2.13,0,0,1,.85-.13,2.43,2.43,0,0,1,.89.13,1.15,1.15,0,0,1,.53.39,1.1,1.1,0,0,1,.22.61,1.14,1.14,0,0,1-.15.67,2.62,2.62,0,0,1-.71.71l-.41.32a2.43,2.43,0,0,0-.24.23h1.69Z" style="fill:#407BFF"></path><path d="M234.44,198.06h-2l-.07-.89,1.79-2.33h.94l.18,2.38h.48l.06.84h-.48l.05.72h-.94Zm-.06-.84-.1-1.22-.94,1.22Z" style="fill:#407BFF"></path><path d="M135.67,212.32h-3.23a1.88,1.88,0,0,1,.27-.9,4,4,0,0,1,1-1,2.75,2.75,0,0,0,.57-.54.51.51,0,0,0,.1-.34.48.48,0,0,0-.15-.31.5.5,0,0,0-.34-.12.42.42,0,0,0-.33.13.71.71,0,0,0-.14.46l-1.08-.09a1.51,1.51,0,0,1,.17-.71,1,1,0,0,1,.45-.39,2.11,2.11,0,0,1,.85-.14,2.39,2.39,0,0,1,.89.13,1.25,1.25,0,0,1,.53.4,1.1,1.1,0,0,1,.22.6,1.17,1.17,0,0,1-.15.68,2.76,2.76,0,0,1-.71.71l-.41.31-.24.24h1.69Z" style="fill:#407BFF"></path><path d="M136.28,208.45h2.56l.06.86h-1.73l0,.58a1.58,1.58,0,0,1,.34-.13,1.39,1.39,0,0,1,.35,0,1.41,1.41,0,0,1,1,.35,1.3,1.3,0,0,1,.43.89,1.49,1.49,0,0,1-.13.72,1.15,1.15,0,0,1-.49.53,1.82,1.82,0,0,1-.87.18,2.62,2.62,0,0,1-.66-.07,1.41,1.41,0,0,1-.48-.22,1.19,1.19,0,0,1-.34-.33,2.35,2.35,0,0,1-.23-.45l1.08-.12a.68.68,0,0,0,.22.4.52.52,0,0,0,.35.14.43.43,0,0,0,.36-.18.68.68,0,0,0,.11-.5.81.81,0,0,0-.18-.51.56.56,0,0,0-.41-.16.66.66,0,0,0-.3.07,1,1,0,0,0-.22.2l-.93-.13Z" style="fill:#407BFF"></path><path d="M151.93,212.32h-3.24a2.13,2.13,0,0,1,.27-.9,4.24,4.24,0,0,1,1-1,2.75,2.75,0,0,0,.57-.54.53.53,0,0,0,.11-.34.45.45,0,0,0-.16-.31.49.49,0,0,0-.34-.12.41.41,0,0,0-.32.13.71.71,0,0,0-.14.46l-1.09-.09a1.63,1.63,0,0,1,.18-.71,1,1,0,0,1,.45-.39,2.09,2.09,0,0,1,.84-.14,2.36,2.36,0,0,1,.89.13,1.19,1.19,0,0,1,.53.4,1.11,1.11,0,0,1,.23.6,1.18,1.18,0,0,1-.16.68,2.69,2.69,0,0,1-.7.71l-.41.31-.24.24h1.68Z" style="fill:#407BFF"></path><path d="M155.28,209.32l-1.06.13a.69.69,0,0,0-.17-.32.37.37,0,0,0-.25-.09.42.42,0,0,0-.39.27,2.27,2.27,0,0,0-.09.81,1.21,1.21,0,0,1,.37-.29,1.13,1.13,0,0,1,.47-.09,1.24,1.24,0,0,1,.9.37,1.38,1.38,0,0,1,.43.94,1.28,1.28,0,0,1-.13.7,1.07,1.07,0,0,1-.46.48,1.7,1.7,0,0,1-.8.16,2,2,0,0,1-.95-.2,1.61,1.61,0,0,1-.61-.63,2.73,2.73,0,0,1-.29-1.15,2.09,2.09,0,0,1,.32-1.54,1.45,1.45,0,0,1,1.19-.49,2.1,2.1,0,0,1,.74.11,1.17,1.17,0,0,1,.47.31A1.56,1.56,0,0,1,155.28,209.32Zm-1.85,1.73a.75.75,0,0,0,.19.49.55.55,0,0,0,.4.18.43.43,0,0,0,.35-.16.69.69,0,0,0,.1-.48.79.79,0,0,0-.18-.5.51.51,0,0,0-.38-.18.47.47,0,0,0-.37.17A.64.64,0,0,0,153.43,211.05Z" style="fill:#407BFF"></path><path d="M168.18,212.32H165a1.88,1.88,0,0,1,.27-.9,3.87,3.87,0,0,1,1-1,2.39,2.39,0,0,0,.56-.54.53.53,0,0,0,.11-.34.48.48,0,0,0-.15-.31.52.52,0,0,0-.34-.12.42.42,0,0,0-.33.13.71.71,0,0,0-.14.46l-1.09-.09a1.63,1.63,0,0,1,.18-.71,1,1,0,0,1,.45-.39,2.09,2.09,0,0,1,.84-.14,2.45,2.45,0,0,1,.9.13,1.25,1.25,0,0,1,.53.4,1.1,1.1,0,0,1,.22.6,1.17,1.17,0,0,1-.15.68,2.76,2.76,0,0,1-.71.71l-.41.31-.24.24h1.68Z" style="fill:#407BFF"></path><path d="M168.37,208.45h3.14l.06.72a3.41,3.41,0,0,0-.63.81,4.44,4.44,0,0,0-.44,1.16,5.85,5.85,0,0,0-.11,1.18h-1.08a6.06,6.06,0,0,1,.28-1.59,5.29,5.29,0,0,1,.76-1.37h-1.91Z" style="fill:#407BFF"></path><path d="M184.43,212.32H181.2a1.88,1.88,0,0,1,.27-.9,4.24,4.24,0,0,1,1-1,2.75,2.75,0,0,0,.57-.54.59.59,0,0,0,.11-.34.45.45,0,0,0-.16-.31.49.49,0,0,0-.34-.12.41.41,0,0,0-.32.13.71.71,0,0,0-.15.46l-1.08-.09a1.63,1.63,0,0,1,.18-.71,1,1,0,0,1,.45-.39,2,2,0,0,1,.84-.14,2.36,2.36,0,0,1,.89.13,1.19,1.19,0,0,1,.76,1,1.26,1.26,0,0,1-.16.68,2.69,2.69,0,0,1-.7.71,4.42,4.42,0,0,0-.41.31l-.24.24h1.68Z" style="fill:#407BFF"></path><path d="M185.39,210.24a1.19,1.19,0,0,1-.4-.3,1,1,0,0,1-.19-.53.82.82,0,0,1,.39-.79,1.6,1.6,0,0,1,.93-.24,1.9,1.9,0,0,1,1.17.3,1,1,0,0,1,.43.74.83.83,0,0,1-.11.49,1.15,1.15,0,0,1-.33.33,1.13,1.13,0,0,1,.5.4,1.11,1.11,0,0,1,.2.55,1.21,1.21,0,0,1-.09.54,1,1,0,0,1-.3.39,1.27,1.27,0,0,1-.47.21,3,3,0,0,1-.61.06,2.67,2.67,0,0,1-1-.14,1.16,1.16,0,0,1-.52-.43,1.29,1.29,0,0,1-.22-.64.84.84,0,0,1,.58-.94Zm.49.91a.63.63,0,0,0,.19.42.5.5,0,0,0,.37.16.42.42,0,0,0,.33-.17.49.49,0,0,0,.12-.41.63.63,0,0,0-.18-.43.56.56,0,0,0-.37-.16.41.41,0,0,0-.34.16A.58.58,0,0,0,185.88,211.15Zm-.07-1.67a.46.46,0,0,0,.15.32.52.52,0,0,0,.35.13.35.35,0,0,0,.29-.13.37.37,0,0,0,.1-.31.49.49,0,0,0-.15-.33.48.48,0,0,0-.33-.12.41.41,0,0,0-.31.12A.43.43,0,0,0,185.81,209.48Z" style="fill:#407BFF"></path><path d="M200.69,212.32h-3.23a1.88,1.88,0,0,1,.27-.9,3.87,3.87,0,0,1,1-1,2.62,2.62,0,0,0,.56-.54.53.53,0,0,0,.11-.34.48.48,0,0,0-.15-.31.52.52,0,0,0-.34-.12.42.42,0,0,0-.33.13.71.71,0,0,0-.14.46l-1.09-.09a1.63,1.63,0,0,1,.18-.71,1,1,0,0,1,.45-.39,2.09,2.09,0,0,1,.84-.14,2.45,2.45,0,0,1,.9.13,1.22,1.22,0,0,1,.52.4,1.14,1.14,0,0,1,.07,1.28,2.54,2.54,0,0,1-.7.71l-.41.31-.24.24h1.68Z" style="fill:#407BFF"></path><path d="M201.13,211.45l1.06-.13a.64.64,0,0,0,.17.32.37.37,0,0,0,.25.09.43.43,0,0,0,.39-.26,2.34,2.34,0,0,0,.09-.82,1,1,0,0,1-.83.38,1.26,1.26,0,0,1-.91-.37,1.38,1.38,0,0,1-.43-.93,1.29,1.29,0,0,1,.13-.71,1,1,0,0,1,.47-.48,1.66,1.66,0,0,1,.79-.16,2,2,0,0,1,.95.2,1.64,1.64,0,0,1,.61.64,2.72,2.72,0,0,1,.29,1.14,2.09,2.09,0,0,1-.32,1.54,1.45,1.45,0,0,1-1.19.49,1.89,1.89,0,0,1-.74-.11,1.25,1.25,0,0,1-.47-.31A1.56,1.56,0,0,1,201.13,211.45Zm1.86-1.73a.81.81,0,0,0-.2-.49.55.55,0,0,0-.4-.18.43.43,0,0,0-.34.16.66.66,0,0,0-.11.49.84.84,0,0,0,.19.5.5.5,0,0,0,.37.17.45.45,0,0,0,.37-.17A.69.69,0,0,0,203,209.72Z" style="fill:#407BFF"></path><path d="M214.63,209.57l-1-.18a1.14,1.14,0,0,1,.43-.75,1.66,1.66,0,0,1,1-.26,1.79,1.79,0,0,1,1.12.28,1,1,0,0,1,.39.72.79.79,0,0,1-.1.45,1,1,0,0,1-.39.36,1.07,1.07,0,0,1,.35.13.9.9,0,0,1,.33.31,1,1,0,0,1,.14.46,1.21,1.21,0,0,1-.13.65,1,1,0,0,1-.47.48,1.82,1.82,0,0,1-.87.17,2.41,2.41,0,0,1-.84-.12,1.45,1.45,0,0,1-.53-.37,1.94,1.94,0,0,1-.35-.6l1.07-.14a.86.86,0,0,0,.23.45.52.52,0,0,0,.35.13.46.46,0,0,0,.35-.16.64.64,0,0,0,.11-.43.62.62,0,0,0-.17-.41.53.53,0,0,0-.39-.15,1.35,1.35,0,0,0-.34.06v-.77H215a.46.46,0,0,0,.35-.13.43.43,0,0,0,.12-.32.43.43,0,0,0-.13-.28.44.44,0,0,0-.3-.11.41.41,0,0,0-.3.11A.62.62,0,0,0,214.63,209.57Z" style="fill:#407BFF"></path><path d="M217.26,210.37a2.16,2.16,0,0,1,.28-1.55,1.45,1.45,0,0,1,1.18-.44,1.74,1.74,0,0,1,.65.1,1.39,1.39,0,0,1,.43.25,1.58,1.58,0,0,1,.27.32,2.1,2.1,0,0,1,.18.4,3.86,3.86,0,0,1,.17.91,2.42,2.42,0,0,1-.24,1.54,1.3,1.3,0,0,1-1.19.49,1.84,1.84,0,0,1-.8-.15,1.46,1.46,0,0,1-.53-.46,1.8,1.8,0,0,1-.26-.59A4,4,0,0,1,217.26,210.37Zm1.07,0a2.6,2.6,0,0,0,.2,1,.45.45,0,0,0,.4.28.38.38,0,0,0,.28-.12.75.75,0,0,0,.15-.36,4.93,4.93,0,0,0,0-.78,2.9,2.9,0,0,0-.21-1,.47.47,0,0,0-.42-.26.36.36,0,0,0-.36.27A2.61,2.61,0,0,0,218.33,210.37Z" style="fill:#407BFF"></path><path d="M230.88,209.57l-1-.18a1.14,1.14,0,0,1,.43-.75,1.66,1.66,0,0,1,1-.26,1.79,1.79,0,0,1,1.12.28,1,1,0,0,1,.4.72.79.79,0,0,1-.11.45,1,1,0,0,1-.39.36,1.14,1.14,0,0,1,.36.13,1,1,0,0,1,.32.31,1,1,0,0,1,.14.46,1.12,1.12,0,0,1-.13.65,1,1,0,0,1-.47.48,1.75,1.75,0,0,1-.86.17,2.44,2.44,0,0,1-.85-.12,1.54,1.54,0,0,1-.53-.37,1.94,1.94,0,0,1-.35-.6l1.07-.14a.93.93,0,0,0,.23.45.54.54,0,0,0,.35.13.45.45,0,0,0,.35-.16.55.55,0,0,0,.11-.43.58.58,0,0,0-.17-.41.53.53,0,0,0-.39-.15,1.35,1.35,0,0,0-.34.06v-.77h.14a.45.45,0,0,0,.34-.13.42.42,0,0,0,0-.6.41.41,0,0,0-.3-.11.44.44,0,0,0-.3.11A.76.76,0,0,0,230.88,209.57Z" style="fill:#407BFF"></path><path d="M235.8,208.38l.3,3.94H235l-.2-2.58a2.56,2.56,0,0,1-1.09.56l-.06-.88a2.32,2.32,0,0,0,.82-.43,1.57,1.57,0,0,0,.43-.61Z" style="fill:#407BFF"></path><g style="opacity:0.5"><path d="M125.4,147.49l-.35-4.66H126l1.35,3.3c.13.31.22.54.28.69,0-.17.1-.42.19-.75l.87-3.24h.83l.35,4.66h-.59l-.3-3.9-1.06,3.9h-.56l-1.64-4,.3,4Z" style="fill:#263238"></path><path d="M130.43,145.8a1.67,1.67,0,0,1,.42-1.39,1.47,1.47,0,0,1,1-.37,1.65,1.65,0,0,1,1.17.45,1.89,1.89,0,0,1,.54,1.27,2.2,2.2,0,0,1-.12,1,1.24,1.24,0,0,1-.53.58,1.54,1.54,0,0,1-.8.21,1.61,1.61,0,0,1-1.18-.46A2,2,0,0,1,130.43,145.8Zm.59,0a1.57,1.57,0,0,0,.36,1,1,1,0,0,0,.74.32.82.82,0,0,0,.68-.33,1.41,1.41,0,0,0,.21-1,1.49,1.49,0,0,0-.36-.95,1,1,0,0,0-.73-.32.87.87,0,0,0-.69.32A1.39,1.39,0,0,0,131,145.8Z" style="fill:#263238"></path><path d="M134.4,147.49l-.26-3.38h.52l0,.48a1.11,1.11,0,0,1,1-.55,1.38,1.38,0,0,1,.57.11.89.89,0,0,1,.4.29,1,1,0,0,1,.21.42,3,3,0,0,1,.08.56l.15,2.07h-.57l-.15-2.05a1.78,1.78,0,0,0-.11-.53.61.61,0,0,0-.26-.27.77.77,0,0,0-.4-.11.86.86,0,0,0-.62.24,1.11,1.11,0,0,0-.2.88l.14,1.84Z" style="fill:#263238"></path></g><g style="opacity:0.5"><path d="M143.32,147.49l-.31-4.11h-1.53l0-.55h3.7l0,.55h-1.54l.31,4.11Z" style="fill:#263238"></path><path d="M148,147.49l0-.49a1.15,1.15,0,0,1-1,.57,1.39,1.39,0,0,1-.57-.12,1.06,1.06,0,0,1-.41-.28,1.14,1.14,0,0,1-.2-.43,2.38,2.38,0,0,1-.08-.53l-.16-2.1h.58l.14,1.88a3.17,3.17,0,0,0,.08.6.66.66,0,0,0,.25.36.81.81,0,0,0,.44.13.9.9,0,0,0,.48-.14.61.61,0,0,0,.29-.36,1.79,1.79,0,0,0,.05-.66l-.14-1.81h.57l.26,3.38Z" style="fill:#263238"></path><path d="M151.65,146.4l.6.08a1.32,1.32,0,0,1-.46.8,1.45,1.45,0,0,1-.94.29,1.63,1.63,0,0,1-1.21-.46,1.91,1.91,0,0,1-.53-1.28,1.75,1.75,0,0,1,.34-1.32,1.35,1.35,0,0,1,1.1-.47,1.55,1.55,0,0,1,1.14.46,2,2,0,0,1,.53,1.3,1,1,0,0,0,0,.15h-2.52a1.35,1.35,0,0,0,.38.85,1,1,0,0,0,.73.3.81.81,0,0,0,.52-.17A.92.92,0,0,0,151.65,146.4Zm-2-.92h1.89a1.23,1.23,0,0,0-.26-.64,1,1,0,0,0-.74-.33.87.87,0,0,0-.64.26A1,1,0,0,0,149.7,145.48Z" style="fill:#263238"></path></g><g style="opacity:0.5"><path d="M158.19,147.49l-1.58-4.66h.63l.94,3.06c.1.32.19.63.27,1,.08-.5.13-.78.14-.86l.65-3.15H160l.84,2.36a13,13,0,0,1,.49,1.65c0-.29.09-.63.16-1l.5-3h.62l-.93,4.66h-.59l-1.25-3.55c-.11-.3-.17-.48-.19-.55,0,.22-.06.4-.09.55l-.73,3.55Z" style="fill:#263238"></path><path d="M165.57,146.4l.6.08a1.32,1.32,0,0,1-.46.8,1.49,1.49,0,0,1-1,.29,1.64,1.64,0,0,1-1.21-.46,1.91,1.91,0,0,1-.53-1.28,1.75,1.75,0,0,1,.34-1.32,1.37,1.37,0,0,1,1.11-.47,1.55,1.55,0,0,1,1.14.46,2,2,0,0,1,.52,1.3.58.58,0,0,1,0,.15h-2.52a1.4,1.4,0,0,0,.38.85,1,1,0,0,0,.73.3.86.86,0,0,0,.53-.17A1,1,0,0,0,165.57,146.4Zm-1.95-.92h1.89a1.23,1.23,0,0,0-.27-.64,1,1,0,0,0-.73-.33.87.87,0,0,0-.65.26A1,1,0,0,0,163.62,145.48Z" style="fill:#263238"></path><path d="M169.15,147.49l0-.42a1,1,0,0,1-.91.5,1.4,1.4,0,0,1-.76-.22,1.75,1.75,0,0,1-.57-.63,2.19,2.19,0,0,1-.25-.91,2.27,2.27,0,0,1,.1-.92,1.12,1.12,0,0,1,.46-.63,1.23,1.23,0,0,1,.73-.22,1.16,1.16,0,0,1,.56.13,1.2,1.2,0,0,1,.41.33l-.12-1.67h.56l.35,4.66Zm-1.93-1.68a1.56,1.56,0,0,0,.34,1,.91.91,0,0,0,.67.32.74.74,0,0,0,.62-.31,1.35,1.35,0,0,0,.19-.94,1.65,1.65,0,0,0-.34-1,.91.91,0,0,0-.69-.33.74.74,0,0,0-.61.31A1.42,1.42,0,0,0,167.22,145.81Z" style="fill:#263238"></path></g><g style="opacity:0.5"><path d="M176.16,147.49l-.31-4.11h-1.54l0-.55H178l0,.55h-1.54l.3,4.11Z" style="fill:#263238"></path><path d="M178.88,147.49l-.35-4.66h.57l.12,1.67a1.19,1.19,0,0,1,1-.46,1.47,1.47,0,0,1,.67.15.91.91,0,0,1,.42.4,2.17,2.17,0,0,1,.18.76l.16,2.14h-.57l-.16-2.14a1,1,0,0,0-.24-.62.73.73,0,0,0-.54-.2,1,1,0,0,0-.47.13.68.68,0,0,0-.29.36,1.63,1.63,0,0,0-.05.62l.14,1.85Z" style="fill:#263238"></path><path d="M184.71,147.49l0-.49a1.15,1.15,0,0,1-1,.57,1.39,1.39,0,0,1-.57-.12,1.06,1.06,0,0,1-.41-.28,1.14,1.14,0,0,1-.2-.43,2.38,2.38,0,0,1-.08-.53l-.16-2.1h.58L183,146a3.17,3.17,0,0,0,.08.6.66.66,0,0,0,.25.36.82.82,0,0,0,.45.13.86.86,0,0,0,.47-.14.61.61,0,0,0,.29-.36,1.79,1.79,0,0,0,0-.66l-.14-1.81H185l.26,3.38Z" style="fill:#263238"></path></g><g style="opacity:0.5"><path d="M192.94,147.49l-.35-4.66h3.15l0,.55h-2.53l.11,1.44h2.19l0,.55H193.4l.16,2.12Z" style="fill:#263238"></path><path d="M196.81,147.49l-.25-3.38h.51l0,.52a1.49,1.49,0,0,1,.33-.48.66.66,0,0,1,.36-.11,1.21,1.21,0,0,1,.6.18l-.15.53a.9.9,0,0,0-.43-.12.52.52,0,0,0-.52.43,2,2,0,0,0-.05.66l.14,1.77Z" style="fill:#263238"></path><path d="M198.69,143.49l-.05-.66h.57l0,.66Zm.3,4-.25-3.38h.57l.25,3.38Z" style="fill:#263238"></path></g><g style="opacity:0.5"><path d="M207.25,146l.58-.05a1.33,1.33,0,0,0,.23.58,1.2,1.2,0,0,0,.5.36,1.9,1.9,0,0,0,.73.14,1.62,1.62,0,0,0,.61-.11.76.76,0,0,0,.38-.28.66.66,0,0,0,.11-.4.76.76,0,0,0-.16-.39,1,1,0,0,0-.44-.27,7.35,7.35,0,0,0-.85-.23,4.57,4.57,0,0,1-.92-.29,1.45,1.45,0,0,1-.53-.43,1.23,1.23,0,0,1-.21-.59,1.09,1.09,0,0,1,.7-1.12,2.08,2.08,0,0,1,.85-.16,2.43,2.43,0,0,1,.92.17,1.41,1.41,0,0,1,.65.49,1.45,1.45,0,0,1,.28.73l-.58.05a1,1,0,0,0-.38-.67,1.32,1.32,0,0,0-.83-.23,1.22,1.22,0,0,0-.8.21.58.58,0,0,0-.22.49.62.62,0,0,0,.22.42,2.46,2.46,0,0,0,.95.33,6,6,0,0,1,1.06.3,1.49,1.49,0,0,1,.63.47,1.22,1.22,0,0,1,.25.67,1.25,1.25,0,0,1-.16.7,1.26,1.26,0,0,1-.58.51,2.07,2.07,0,0,1-.88.18,2.87,2.87,0,0,1-1.08-.18,1.69,1.69,0,0,1-1-1.4Z" style="fill:#263238"></path><path d="M214,147.08a2,2,0,0,1-.59.38,1.75,1.75,0,0,1-.62.11,1.29,1.29,0,0,1-.87-.27,1,1,0,0,1-.36-.7,1,1,0,0,1,.08-.45.89.89,0,0,1,.27-.33,1.34,1.34,0,0,1,.4-.19,3,3,0,0,1,.51-.08,5.06,5.06,0,0,0,1-.2.5.5,0,0,0,0-.15.62.62,0,0,0-.2-.49,1,1,0,0,0-.66-.2,1,1,0,0,0-.59.14.84.84,0,0,0-.25.5l-.56-.07a1.21,1.21,0,0,1,.21-.58.93.93,0,0,1,.48-.34,2.51,2.51,0,0,1,1.47,0,1,1,0,0,1,.41.26,1,1,0,0,1,.21.39,2.79,2.79,0,0,1,.07.52l.06.77a7.49,7.49,0,0,0,.11,1,1.27,1.27,0,0,0,.17.4h-.6A1.52,1.52,0,0,1,214,147.08Zm-.14-1.28a4.54,4.54,0,0,1-.92.21,2.27,2.27,0,0,0-.49.12.44.44,0,0,0-.22.18.67.67,0,0,0-.06.28.54.54,0,0,0,.21.38.78.78,0,0,0,.51.15,1.16,1.16,0,0,0,.58-.14.8.8,0,0,0,.35-.4,1.35,1.35,0,0,0,0-.57Z" style="fill:#263238"></path><path d="M216.68,147l.12.51a2.37,2.37,0,0,1-.43,0,1.09,1.09,0,0,1-.49-.1.65.65,0,0,1-.26-.26,2.44,2.44,0,0,1-.12-.68l-.15-1.94h-.42l0-.45h.42l-.06-.83.54-.35.09,1.18h.58l0,.45h-.58l.15,2a.78.78,0,0,0,.06.31.21.21,0,0,0,.1.11.4.4,0,0,0,.2,0A1.24,1.24,0,0,0,216.68,147Z" style="fill:#263238"></path></g><g style="opacity:0.5"><path d="M223.48,146l.58-.05a1.33,1.33,0,0,0,.23.58,1.14,1.14,0,0,0,.5.36,1.89,1.89,0,0,0,.72.14,1.64,1.64,0,0,0,.62-.11.76.76,0,0,0,.38-.28.65.65,0,0,0,.1-.4.67.67,0,0,0-.15-.39,1,1,0,0,0-.44-.27,7.35,7.35,0,0,0-.85-.23,4.36,4.36,0,0,1-.92-.29,1.45,1.45,0,0,1-.53-.43,1.14,1.14,0,0,1-.21-.59,1.09,1.09,0,0,1,.7-1.12,2.06,2.06,0,0,1,.84-.16,2.45,2.45,0,0,1,.93.17,1.45,1.45,0,0,1,.93,1.22l-.59.05a1,1,0,0,0-.37-.67,1.32,1.32,0,0,0-.83-.23,1.22,1.22,0,0,0-.8.21.58.58,0,0,0-.22.49.57.57,0,0,0,.21.42,2.61,2.61,0,0,0,1,.33,5.53,5.53,0,0,1,1,.3,1.53,1.53,0,0,1,.64.47,1.21,1.21,0,0,1,.24.67,1.17,1.17,0,0,1-.16.7,1.19,1.19,0,0,1-.57.51,2.08,2.08,0,0,1-.89.18,2.82,2.82,0,0,1-1.07-.18,1.69,1.69,0,0,1-1-1.4Z" style="fill:#263238"></path><path d="M230.29,147.49l0-.49a1.13,1.13,0,0,1-1,.57,1.39,1.39,0,0,1-.57-.12,1,1,0,0,1-.4-.28,1.15,1.15,0,0,1-.21-.43,3.17,3.17,0,0,1-.08-.53l-.15-2.1h.57l.14,1.88a3.17,3.17,0,0,0,.08.6.68.68,0,0,0,.26.36.79.79,0,0,0,.44.13.86.86,0,0,0,.47-.14.58.58,0,0,0,.29-.36,1.6,1.6,0,0,0,.05-.66l-.14-1.81h.58l.25,3.38Z" style="fill:#263238"></path><path d="M231.7,147.49l-.26-3.38H232l0,.48a1.13,1.13,0,0,1,1-.55,1.38,1.38,0,0,1,.57.11.94.94,0,0,1,.4.29,1,1,0,0,1,.21.42,3,3,0,0,1,.08.56l.15,2.07h-.57l-.15-2.05a1.78,1.78,0,0,0-.11-.53.61.61,0,0,0-.26-.27.78.78,0,0,0-.41-.11.85.85,0,0,0-.61.24,1.11,1.11,0,0,0-.2.88l.14,1.84Z" style="fill:#263238"></path></g><g style="opacity:0.5"><path d="M258.64,147.49l-.35-4.66h.93l1.35,3.3c.13.31.22.54.28.69,0-.17.1-.42.19-.75l.87-3.24h.83l.35,4.66h-.59l-.3-3.9-1.06,3.9h-.56l-1.64-4,.3,4Z" style="fill:#263238"></path><path d="M263.67,145.8a1.67,1.67,0,0,1,.42-1.39,1.47,1.47,0,0,1,1-.37,1.65,1.65,0,0,1,1.17.45,1.89,1.89,0,0,1,.54,1.27,2.2,2.2,0,0,1-.12,1,1.24,1.24,0,0,1-.53.58,1.54,1.54,0,0,1-.8.21,1.61,1.61,0,0,1-1.18-.46A2,2,0,0,1,263.67,145.8Zm.59,0a1.51,1.51,0,0,0,.36,1,1,1,0,0,0,.74.32.82.82,0,0,0,.68-.33,1.41,1.41,0,0,0,.21-1,1.49,1.49,0,0,0-.36-.95,1,1,0,0,0-.73-.32.87.87,0,0,0-.69.32A1.39,1.39,0,0,0,264.26,145.8Z" style="fill:#263238"></path><path d="M267.64,147.49l-.26-3.38h.52l0,.48a1.11,1.11,0,0,1,1-.55,1.38,1.38,0,0,1,.57.11.89.89,0,0,1,.4.29,1,1,0,0,1,.21.42,3,3,0,0,1,.08.56l.15,2.07h-.57l-.15-2.05a1.78,1.78,0,0,0-.11-.53.61.61,0,0,0-.26-.27.77.77,0,0,0-.4-.11.86.86,0,0,0-.62.24,1.11,1.11,0,0,0-.2.88l.14,1.84Z" style="fill:#263238"></path></g><g style="opacity:0.5"><path d="M276.56,147.49l-.31-4.11h-1.53l-.05-.55h3.7l0,.55h-1.54l.31,4.11Z" style="fill:#263238"></path><path d="M281.25,147.49l0-.49a1.15,1.15,0,0,1-1,.57,1.39,1.39,0,0,1-.57-.12,1.06,1.06,0,0,1-.41-.28,1.14,1.14,0,0,1-.2-.43,2.38,2.38,0,0,1-.08-.53l-.16-2.1h.58l.14,1.88a3.17,3.17,0,0,0,.08.6.66.66,0,0,0,.25.36.81.81,0,0,0,.44.13.9.9,0,0,0,.48-.14.61.61,0,0,0,.29-.36,1.79,1.79,0,0,0,.05-.66l-.14-1.81h.57l.26,3.38Z" style="fill:#263238"></path><path d="M284.89,146.4l.6.08a1.32,1.32,0,0,1-.46.8,1.45,1.45,0,0,1-.94.29,1.63,1.63,0,0,1-1.21-.46,1.91,1.91,0,0,1-.53-1.28,1.71,1.71,0,0,1,.34-1.32,1.35,1.35,0,0,1,1.1-.47,1.55,1.55,0,0,1,1.14.46,2,2,0,0,1,.53,1.3,1,1,0,0,0,0,.15H283a1.35,1.35,0,0,0,.38.85,1,1,0,0,0,.73.3.81.81,0,0,0,.52-.17A.92.92,0,0,0,284.89,146.4Zm-1.95-.92h1.89a1.23,1.23,0,0,0-.26-.64,1,1,0,0,0-.74-.33.87.87,0,0,0-.64.26A1,1,0,0,0,282.94,145.48Z" style="fill:#263238"></path></g><g style="opacity:0.5"><path d="M291.43,147.49l-1.58-4.66h.63l.94,3.06c.1.32.19.63.27,1,.08-.5.13-.78.14-.86l.65-3.15h.75l.84,2.36a13,13,0,0,1,.49,1.65c0-.29.09-.63.16-1l.5-3h.62l-.93,4.66h-.59l-1.25-3.55c-.11-.3-.17-.48-.19-.55,0,.22-.06.4-.09.55l-.73,3.55Z" style="fill:#263238"></path><path d="M298.81,146.4l.6.08a1.32,1.32,0,0,1-.46.8,1.49,1.49,0,0,1-.95.29,1.64,1.64,0,0,1-1.21-.46,1.91,1.91,0,0,1-.53-1.28,1.75,1.75,0,0,1,.34-1.32,1.37,1.37,0,0,1,1.11-.47,1.55,1.55,0,0,1,1.14.46,2,2,0,0,1,.52,1.3.58.58,0,0,1,0,.15h-2.52a1.4,1.4,0,0,0,.38.85,1,1,0,0,0,.73.3.81.81,0,0,0,.52-.17A.93.93,0,0,0,298.81,146.4Zm-1.95-.92h1.89a1.23,1.23,0,0,0-.27-.64,1,1,0,0,0-.73-.33.87.87,0,0,0-.65.26A1,1,0,0,0,296.86,145.48Z" style="fill:#263238"></path><path d="M302.39,147.49l0-.42a1,1,0,0,1-.91.5,1.4,1.4,0,0,1-.76-.22,1.75,1.75,0,0,1-.57-.63,2.19,2.19,0,0,1-.25-.91,2.27,2.27,0,0,1,.1-.92,1.12,1.12,0,0,1,.46-.63,1.23,1.23,0,0,1,.73-.22,1.16,1.16,0,0,1,.56.13,1.2,1.2,0,0,1,.41.33l-.12-1.67h.56l.35,4.66Zm-1.93-1.68a1.56,1.56,0,0,0,.34,1,.91.91,0,0,0,.67.32.74.74,0,0,0,.62-.31,1.35,1.35,0,0,0,.19-.94,1.72,1.72,0,0,0-.34-1,.91.91,0,0,0-.69-.33.74.74,0,0,0-.61.31A1.42,1.42,0,0,0,300.46,145.81Z" style="fill:#263238"></path></g><g style="opacity:0.5"><path d="M309.4,147.49l-.31-4.11h-1.54l0-.55h3.7l0,.55H309.7l.31,4.11Z" style="fill:#263238"></path><path d="M312.12,147.49l-.35-4.66h.57l.12,1.67a1.19,1.19,0,0,1,1-.46,1.4,1.4,0,0,1,.66.15.89.89,0,0,1,.43.4,2.17,2.17,0,0,1,.18.76l.16,2.14h-.57l-.16-2.14a1,1,0,0,0-.24-.62.73.73,0,0,0-.54-.2,1,1,0,0,0-.47.13.68.68,0,0,0-.29.36,1.63,1.63,0,0,0-.05.62l.14,1.85Z" style="fill:#263238"></path><path d="M318,147.49l0-.49a1.15,1.15,0,0,1-1,.57,1.39,1.39,0,0,1-.57-.12,1.06,1.06,0,0,1-.41-.28,1.14,1.14,0,0,1-.2-.43,2.38,2.38,0,0,1-.08-.53l-.16-2.1h.58l.14,1.88a3.17,3.17,0,0,0,.08.6.66.66,0,0,0,.25.36.82.82,0,0,0,.45.13.86.86,0,0,0,.47-.14.61.61,0,0,0,.29-.36,1.79,1.79,0,0,0,0-.66l-.14-1.81h.57l.26,3.38Z" style="fill:#263238"></path></g><g style="opacity:0.5"><path d="M326.18,147.49l-.35-4.66H329l0,.55h-2.53l.11,1.44h2.19l0,.55h-2.19l.16,2.12Z" style="fill:#263238"></path><path d="M330.05,147.49l-.25-3.38h.51l0,.52a1.49,1.49,0,0,1,.33-.48A.66.66,0,0,1,331,144a1.21,1.21,0,0,1,.6.18l-.15.53a.9.9,0,0,0-.43-.12.52.52,0,0,0-.52.43,2,2,0,0,0-.05.66l.13,1.77Z" style="fill:#263238"></path><path d="M331.93,143.49l-.05-.66h.57l.05.66Zm.3,4-.25-3.38h.57l.25,3.38Z" style="fill:#263238"></path></g><g style="opacity:0.5"><path d="M340.49,146l.58-.05a1.33,1.33,0,0,0,.23.58,1.2,1.2,0,0,0,.5.36,1.9,1.9,0,0,0,.73.14,1.62,1.62,0,0,0,.61-.11.76.76,0,0,0,.38-.28.66.66,0,0,0,.11-.4.76.76,0,0,0-.16-.39,1,1,0,0,0-.44-.27,7.35,7.35,0,0,0-.85-.23,4.57,4.57,0,0,1-.92-.29,1.45,1.45,0,0,1-.53-.43,1.23,1.23,0,0,1-.21-.59,1.09,1.09,0,0,1,.7-1.12,2.08,2.08,0,0,1,.85-.16,2.43,2.43,0,0,1,.92.17,1.41,1.41,0,0,1,.65.49,1.45,1.45,0,0,1,.28.73l-.58.05a1,1,0,0,0-.38-.67,1.32,1.32,0,0,0-.83-.23,1.22,1.22,0,0,0-.8.21.58.58,0,0,0-.22.49.62.62,0,0,0,.22.42,2.46,2.46,0,0,0,.95.33,6,6,0,0,1,1.06.3,1.49,1.49,0,0,1,.63.47,1.22,1.22,0,0,1,.25.67,1.25,1.25,0,0,1-.16.7,1.26,1.26,0,0,1-.58.51,2.07,2.07,0,0,1-.88.18,2.87,2.87,0,0,1-1.08-.18,1.69,1.69,0,0,1-1-1.4Z" style="fill:#263238"></path><path d="M347.26,147.08a2,2,0,0,1-.59.38,1.75,1.75,0,0,1-.62.11,1.29,1.29,0,0,1-.87-.27,1,1,0,0,1-.36-.7,1,1,0,0,1,.08-.45.89.89,0,0,1,.27-.33,1.34,1.34,0,0,1,.4-.19,3.06,3.06,0,0,1,.5-.08,5,5,0,0,0,1-.2c0-.08,0-.13,0-.15a.62.62,0,0,0-.2-.49,1,1,0,0,0-.66-.2,1,1,0,0,0-.59.14.84.84,0,0,0-.25.5l-.56-.07a1.21,1.21,0,0,1,.21-.58.93.93,0,0,1,.48-.34,2.51,2.51,0,0,1,1.47,0,1,1,0,0,1,.41.26,1,1,0,0,1,.21.39,2.79,2.79,0,0,1,.07.52l.06.77a6.07,6.07,0,0,0,.11,1,1.27,1.27,0,0,0,.17.4h-.6A1.52,1.52,0,0,1,347.26,147.08Zm-.15-1.28a4.26,4.26,0,0,1-.91.21,2.6,2.6,0,0,0-.5.12.46.46,0,0,0-.21.18.67.67,0,0,0-.06.28.54.54,0,0,0,.21.38.78.78,0,0,0,.51.15,1.16,1.16,0,0,0,.58-.14.8.8,0,0,0,.35-.4,1.35,1.35,0,0,0,.05-.57Z" style="fill:#263238"></path><path d="M349.92,147l.12.51a2.37,2.37,0,0,1-.43,0,1.09,1.09,0,0,1-.49-.1.59.59,0,0,1-.26-.26,2.44,2.44,0,0,1-.12-.68l-.15-1.94h-.42l0-.45h.42l-.06-.83.54-.35.09,1.18h.58l0,.45h-.58l.15,2a.78.78,0,0,0,.06.31.21.21,0,0,0,.1.11.4.4,0,0,0,.2,0A1.24,1.24,0,0,0,349.92,147Z" style="fill:#263238"></path></g><g style="opacity:0.5"><path d="M356.72,146l.58-.05a1.33,1.33,0,0,0,.23.58,1.14,1.14,0,0,0,.5.36,1.89,1.89,0,0,0,.72.14,1.64,1.64,0,0,0,.62-.11.76.76,0,0,0,.38-.28.65.65,0,0,0,.1-.4.67.67,0,0,0-.15-.39,1,1,0,0,0-.44-.27,7.35,7.35,0,0,0-.85-.23,4.36,4.36,0,0,1-.92-.29,1.45,1.45,0,0,1-.53-.43,1.14,1.14,0,0,1-.21-.59,1.09,1.09,0,0,1,.7-1.12,2.06,2.06,0,0,1,.84-.16,2.45,2.45,0,0,1,.93.17,1.45,1.45,0,0,1,.93,1.22l-.59.05a1,1,0,0,0-.37-.67,1.32,1.32,0,0,0-.83-.23,1.22,1.22,0,0,0-.8.21.58.58,0,0,0-.22.49.57.57,0,0,0,.21.42,2.61,2.61,0,0,0,1,.33,5.53,5.53,0,0,1,1.05.3,1.53,1.53,0,0,1,.64.47,1.21,1.21,0,0,1,.24.67,1.17,1.17,0,0,1-.16.7,1.19,1.19,0,0,1-.57.51,2.08,2.08,0,0,1-.89.18,2.82,2.82,0,0,1-1.07-.18,1.69,1.69,0,0,1-1-1.4Z" style="fill:#263238"></path><path d="M363.53,147.49l0-.49a1.13,1.13,0,0,1-1,.57,1.39,1.39,0,0,1-.57-.12,1,1,0,0,1-.4-.28,1.15,1.15,0,0,1-.21-.43,3.17,3.17,0,0,1-.08-.53l-.15-2.1h.57l.14,1.88a3.17,3.17,0,0,0,.08.6.68.68,0,0,0,.26.36.79.79,0,0,0,.44.13.86.86,0,0,0,.47-.14.58.58,0,0,0,.29-.36,1.6,1.6,0,0,0,.05-.66l-.14-1.81h.58l.25,3.38Z" style="fill:#263238"></path><path d="M364.94,147.49l-.26-3.38h.52l0,.48a1.12,1.12,0,0,1,1-.55,1.38,1.38,0,0,1,.57.11.94.94,0,0,1,.4.29,1,1,0,0,1,.21.42,3,3,0,0,1,.08.56l.15,2.07h-.57l-.15-2.05a1.78,1.78,0,0,0-.11-.53.61.61,0,0,0-.26-.27.78.78,0,0,0-.41-.11.85.85,0,0,0-.61.24,1.07,1.07,0,0,0-.2.88l.14,1.84Z" style="fill:#263238"></path></g><path d="M161,118.87h1.51l.36,4.76a4.73,4.73,0,0,1-.06,1.43,1.77,1.77,0,0,1-.72,1,2.9,2.9,0,0,1-3.26-.22,2.8,2.8,0,0,1-.74-1.83l1.42-.16a2.16,2.16,0,0,0,.26.91.88.88,0,0,0,.78.4.75.75,0,0,0,.69-.28,2.16,2.16,0,0,0,.12-1.21Z" style="fill:#263238"></path><path d="M165.48,122.6l-1.32-.24a1.8,1.8,0,0,1,.67-1.16,2.58,2.58,0,0,1,1.57-.38,3.42,3.42,0,0,1,1.45.23,1.6,1.6,0,0,1,.71.57,3.3,3.3,0,0,1,.29,1.29l.11,1.68a4.88,4.88,0,0,0,.15,1.06,3,3,0,0,0,.31.73H168a3.23,3.23,0,0,1-.18-.42l-.06-.17a2.38,2.38,0,0,1-.75.54,2.13,2.13,0,0,1-.88.18,2,2,0,0,1-1.36-.46,1.6,1.6,0,0,1-.57-1.15,1.53,1.53,0,0,1,.16-.83,1.32,1.32,0,0,1,.57-.55,4.34,4.34,0,0,1,1.12-.33,7.47,7.47,0,0,0,1.38-.36v-.14a.83.83,0,0,0-.25-.59,1.29,1.29,0,0,0-.79-.18,1,1,0,0,0-.59.15A.94.94,0,0,0,165.48,122.6Zm2,1.17c-.18.06-.47.13-.86.22a2.68,2.68,0,0,0-.77.25.53.53,0,0,0-.24.51.75.75,0,0,0,.26.52.83.83,0,0,0,.59.22,1.19,1.19,0,0,0,.73-.25.82.82,0,0,0,.3-.48,2.92,2.92,0,0,0,0-.7Z" style="fill:#263238"></path><path d="M175.48,126.38H174l-.21-2.77a4.12,4.12,0,0,0-.18-1.15.86.86,0,0,0-.33-.4.93.93,0,0,0-.51-.14,1.09,1.09,0,0,0-.65.2,1,1,0,0,0-.37.55,4.66,4.66,0,0,0,0,1.25l.19,2.46h-1.44l-.41-5.44h1.34l.06.8a2,2,0,0,1,1.72-.92,2.21,2.21,0,0,1,.89.17,1.58,1.58,0,0,1,.63.44,1.82,1.82,0,0,1,.32.6,4.61,4.61,0,0,1,.15,1Z" style="fill:#263238"></path><path d="M180.52,126.38l-.06-.81a1.94,1.94,0,0,1-.73.69,2.15,2.15,0,0,1-1,.25,2.08,2.08,0,0,1-1-.24,1.68,1.68,0,0,1-.69-.68,3.22,3.22,0,0,1-.28-1.21l-.26-3.44h1.44l.19,2.5a8,8,0,0,0,.18,1.41.94.94,0,0,0,.32.41,1,1,0,0,0,.55.15,1.08,1.08,0,0,0,.64-.2,1,1,0,0,0,.37-.51,6.13,6.13,0,0,0,0-1.46l-.17-2.3h1.44l.41,5.44Z" style="fill:#263238"></path><path d="M184.14,122.6l-1.32-.24a1.85,1.85,0,0,1,.67-1.16,2.58,2.58,0,0,1,1.57-.38,3.42,3.42,0,0,1,1.45.23,1.55,1.55,0,0,1,.71.57,3.13,3.13,0,0,1,.29,1.29l.11,1.68a6.59,6.59,0,0,0,.15,1.06,3.39,3.39,0,0,0,.31.73h-1.42a3.51,3.51,0,0,1-.17-.42.78.78,0,0,0-.07-.17,2.17,2.17,0,0,1-.75.54,2.13,2.13,0,0,1-.88.18,2,2,0,0,1-1.36-.46,1.68,1.68,0,0,1-.57-1.15,1.53,1.53,0,0,1,.16-.83,1.29,1.29,0,0,1,.58-.55,4.1,4.1,0,0,1,1.12-.33,7.54,7.54,0,0,0,1.37-.36v-.14a.8.8,0,0,0-.25-.59,1.29,1.29,0,0,0-.79-.18,1,1,0,0,0-.59.15A1,1,0,0,0,184.14,122.6Zm2,1.17c-.18.06-.47.13-.86.22a2.8,2.8,0,0,0-.77.25.55.55,0,0,0-.24.51.79.79,0,0,0,.26.52.86.86,0,0,0,.6.22,1.17,1.17,0,0,0,.72-.25.84.84,0,0,0,.31-.48,2.58,2.58,0,0,0,0-.7Z" style="fill:#263238"></path><path d="M190.57,126.38h-1.44l-.41-5.44h1.34l.06.77a2.2,2.2,0,0,1,.56-.72,1.12,1.12,0,0,1,.61-.17,2,2,0,0,1,1,.27l-.35,1.25a1.44,1.44,0,0,0-.7-.23.71.71,0,0,0-.5.17,1,1,0,0,0-.28.6,8.16,8.16,0,0,0,0,1.82Z" style="fill:#263238"></path><path d="M192.18,120.94h1.54l1.59,3.86,1-3.86h1.49l-1.53,5.24-.27.95a3,3,0,0,1-.31.72,1.31,1.31,0,0,1-.36.41,1.53,1.53,0,0,1-.53.25,3.2,3.2,0,0,1-.73.08,4.47,4.47,0,0,1-.82-.08l-.21-1.13a3.49,3.49,0,0,0,.61.06.81.81,0,0,0,.72-.29,1.83,1.83,0,0,0,.31-.75Z" style="fill:#263238"></path><path d="M290.35,126.38l-.56-7.51h5.15l.1,1.27H291.4l.14,1.78h3.13l.1,1.27h-3.14l.24,3.19Z" style="fill:#263238"></path><path d="M299.77,124.65l1.45.24a2.1,2.1,0,0,1-.78,1.2,2.42,2.42,0,0,1-1.47.42,2.63,2.63,0,0,1-2.17-.93,3.41,3.41,0,0,1-.68-1.88,2.88,2.88,0,0,1,.55-2.12,2.16,2.16,0,0,1,1.73-.76,2.59,2.59,0,0,1,2,.8,3.8,3.8,0,0,1,.86,2.46h-3.61a1.53,1.53,0,0,0,.42,1,1.18,1.18,0,0,0,.86.36.83.83,0,0,0,.55-.18A1.07,1.07,0,0,0,299.77,124.65Zm0-1.45a1.51,1.51,0,0,0-.39-1,1.1,1.1,0,0,0-.78-.32.92.92,0,0,0-.75.34,1.22,1.22,0,0,0-.23.94Z" style="fill:#263238"></path><path d="M302.52,126.38l-.56-7.51h1.44l.2,2.71a1.88,1.88,0,0,1,1.52-.76,2.28,2.28,0,0,1,1.7.72,3.21,3.21,0,0,1,.81,2.07,3,3,0,0,1-.5,2.14,1.91,1.91,0,0,1-1.56.76,2.08,2.08,0,0,1-.94-.24,2.34,2.34,0,0,1-.83-.69l.06.8Zm1.22-2.84a2.38,2.38,0,0,0,.36,1.25,1.23,1.23,0,0,0,1,.58,1,1,0,0,0,.78-.41,1.94,1.94,0,0,0,.24-1.28,2.29,2.29,0,0,0-.44-1.35,1.19,1.19,0,0,0-.9-.41,1,1,0,0,0-.83.4A1.76,1.76,0,0,0,303.74,123.54Z" style="fill:#263238"></path><path d="M310.37,126.38h-1.44l-.4-5.44h1.33l.06.77a2.08,2.08,0,0,1,.57-.72,1.08,1.08,0,0,1,.6-.17,1.92,1.92,0,0,1,1,.27l-.35,1.25a1.37,1.37,0,0,0-.69-.23.71.71,0,0,0-.5.17,1.05,1.05,0,0,0-.29.6,8.39,8.39,0,0,0,0,1.82Z" style="fill:#263238"></path><path d="M316.66,126.38l-.06-.81a1.87,1.87,0,0,1-.73.69,2.15,2.15,0,0,1-1,.25,2.08,2.08,0,0,1-1-.24,1.68,1.68,0,0,1-.69-.68,3.22,3.22,0,0,1-.28-1.21l-.26-3.44h1.44l.19,2.5a8,8,0,0,0,.18,1.41.94.94,0,0,0,.32.41,1,1,0,0,0,.55.15,1.11,1.11,0,0,0,.65-.2,1,1,0,0,0,.36-.51,6.13,6.13,0,0,0,0-1.46l-.17-2.3h1.44l.41,5.44Z" style="fill:#263238"></path><path d="M320.29,122.6l-1.33-.24a1.85,1.85,0,0,1,.67-1.16,2.6,2.6,0,0,1,1.57-.38,3.39,3.39,0,0,1,1.45.23,1.55,1.55,0,0,1,.71.57,3.13,3.13,0,0,1,.29,1.29l.11,1.68a6.59,6.59,0,0,0,.15,1.06,3.39,3.39,0,0,0,.31.73H322.8a3.51,3.51,0,0,1-.17-.42.78.78,0,0,0-.07-.17,2.24,2.24,0,0,1-.74.54,2.21,2.21,0,0,1-.89.18,2,2,0,0,1-1.36-.46,1.68,1.68,0,0,1-.57-1.15,1.53,1.53,0,0,1,.16-.83,1.29,1.29,0,0,1,.58-.55,4.22,4.22,0,0,1,1.12-.33,7.54,7.54,0,0,0,1.37-.36v-.14a.76.76,0,0,0-.25-.59,1.29,1.29,0,0,0-.79-.18,1,1,0,0,0-.59.15A1,1,0,0,0,320.29,122.6Zm2,1.17c-.18.06-.47.13-.86.22a2.58,2.58,0,0,0-.76.25.56.56,0,0,0-.25.51.76.76,0,0,0,.27.52.82.82,0,0,0,.59.22,1.15,1.15,0,0,0,.72-.25.79.79,0,0,0,.31-.48,2.58,2.58,0,0,0,0-.7Z" style="fill:#263238"></path><path d="M326.71,126.38h-1.44l-.41-5.44h1.34l.06.77a2.2,2.2,0,0,1,.56-.72,1.12,1.12,0,0,1,.61-.17,2,2,0,0,1,1,.27l-.35,1.25a1.44,1.44,0,0,0-.7-.23.71.71,0,0,0-.5.17,1.05,1.05,0,0,0-.28.6,8.16,8.16,0,0,0,0,1.82Z" style="fill:#263238"></path><path d="M328.33,120.94h1.53l1.59,3.86,1-3.86h1.49l-1.53,5.24-.27.95a3,3,0,0,1-.31.72,1.31,1.31,0,0,1-.36.41,1.53,1.53,0,0,1-.53.25,3.2,3.2,0,0,1-.73.08,4.47,4.47,0,0,1-.82-.08l-.21-1.13a3.58,3.58,0,0,0,.61.06.81.81,0,0,0,.72-.29,2,2,0,0,0,.32-.75Z" style="fill:#263238"></path></g><g id="character-2"><path d="M417.39,169.09c1.95,3.1,3.62,6.09,5.28,9.22s3.2,6.29,4.62,9.58a93.15,93.15,0,0,1,3.88,10.28,49.73,49.73,0,0,1,1.45,5.72,28.54,28.54,0,0,1,.52,7l0,.49a6.65,6.65,0,0,1-4.52,5.92,25.59,25.59,0,0,1-7.65,1.23,44.87,44.87,0,0,1-6.65-.36A57.47,57.47,0,0,1,408,217a52.38,52.38,0,0,1-6.06-1.84,4,4,0,0,1,.95-7.8l.26,0c1.82-.22,3.79-.37,5.65-.57s3.72-.38,5.51-.64,3.53-.56,5.1-.92a15,15,0,0,0,3.81-1.34l-4.55,6.41a17.78,17.78,0,0,0-.63-3.11c-.36-1.27-.82-2.66-1.36-4s-1.14-2.82-1.8-4.25-1.3-2.87-2-4.31c-1.43-2.87-2.92-5.76-4.48-8.63s-3.18-5.79-4.71-8.5l-.07-.12a8,8,0,0,1,13.74-8.19Z" style="fill:#cf7a64"></path><path d="M409.89,161.29c6.91,2.12,10.71,7.69,20.35,28.33-1.82,5.91-21.06,12.61-21.06,12.61s-9.54-18.87-10.24-27.7S401.7,158.77,409.89,161.29Z" style="fill:#407BFF"></path><path d="M401.51,206.56l-6.51-.34,2.68,11.36a19.62,19.62,0,0,0,5.52-1.29,5.07,5.07,0,0,0,2.73-6.6h0A5,5,0,0,0,401.51,206.56Z" style="fill:#ce7a63"></path><path d="M387.43,212.93l1.61,3.82a3.38,3.38,0,0,0,3.9,2l4.74-1.14L395,206.22l-5.7,2.26A3.38,3.38,0,0,0,387.43,212.93Z" style="fill:#ce7a63"></path><path d="M317,184.69,312.6,176l-8.52,8s4.94,7.38,9.28,5.39Z" style="fill:#ce7a63"></path><path d="M303,172.79l-2.52,3.31a3.35,3.35,0,0,0,.24,4.35l3.34,3.54,8.52-8-4.8-3.81A3.37,3.37,0,0,0,303,172.79Z" style="fill:#ce7a63"></path><path d="M406.55,387.9c1.23,6.64,2.63,19.35,2.68,21.62a8.78,8.78,0,0,0,8.29.37s.33-18.12,0-22C410.73,387.84,406.55,387.9,406.55,387.9Z" style="fill:#ce7a63"></path><path d="M395.88,415s11.95-3.13,12.54-7.67l9.86,1.11.91,8.83h-3.5l-.56-1.1-1.18,1.1c-11.9,0-16.31-.13-18.52-.86A1.4,1.4,0,0,1,395.88,415Z" style="fill:#263238"></path><path d="M412.93,315.88c-.69-37.1-.82-66.39-4.71-80.62L375.28,230s7.68,62.83,15.62,88.82,15,77.15,15,77.15H419.5S422,346.73,412.93,315.88Z" style="fill:#263238"></path><polygon points="420.06 396.38 405.02 396.67 403.07 387.25 420.57 388.83 420.06 396.38" style="fill:#407BFF"></polygon><path d="M387.76,261.07l-5.69,15.81c2.31,13.86,5,28,7.77,38.22C392,296.6,389.31,266.28,387.76,261.07Z" style="opacity:0.2"></path><path d="M348.22,380.1c-.5,6.69-2.38,19.31-2.91,21.52a8.8,8.8,0,0,0,8,2.26s4.93-17.45,5.63-21.26C352.3,381,348.22,380.1,348.22,380.1Z" style="fill:#ce7a63"></path><path d="M328.89,403.45s14.44.17,16.18-4.09l9.31,3.33L353,411.44l-3.41-.8-.26-1.19-1.43.79c-11.59-2.73-17.88-4.31-19.84-5.53A1.43,1.43,0,0,1,328.89,403.45Z" style="fill:#263238"></path><path d="M375.44,318.14a323.26,323.26,0,0,0,21.73-84.54l-35.83-5.86s-5.31,64.79-7.63,91.42c-2.41,27.69-7.69,67.7-7.69,67.7l12.2,3.74S374.24,352.57,375.44,318.14Z" style="fill:#263238"></path><polygon points="359.2 391.39 344.49 388.22 344.99 378.67 361.62 384.22 359.2 391.39" style="fill:#407BFF"></polygon><path d="M402,137.57c-1.62,7-2.24,16.82.24,22.21-3.76,3-9.76,6.65-17.35,6s-5.82-5.7-3.59-8.2c5.64-2.35,6.06-5.11,4.91-7.65Z" style="fill:#ce7a63"></path><path d="M409.18,162s-4.32-4.39-6.16-5.49S386.43,154.65,383,155s-8,5.17-8,5.17Z" style="fill:#263238"></path><path d="M380.4,132.56c-.11.7-.56,1.21-1,1.13s-.74-.69-.64-1.39.56-1.21,1-1.13S380.5,131.86,380.4,132.56Z" style="fill:#263238"></path><path d="M380.29,133.54a24.64,24.64,0,0,1-4.22,5.44c1.06,1.35,3.24,1.16,3.24,1.16Z" style="fill:#ba4d3c"></path><path d="M379.6,128a.4.4,0,0,0,.35.17,3.3,3.3,0,0,1,2.75,1.18.41.41,0,0,0,.57.09.42.42,0,0,0,.1-.58,4.07,4.07,0,0,0-3.45-1.52.42.42,0,0,0-.4.44A.53.53,0,0,0,379.6,128Z" style="fill:#263238"></path><path d="M404.24,134.26c-1.8,8.49-2.43,13.55-7.41,17.26-7.5,5.59-17.49,0-18.26-8.88-.7-8,2.37-20.53,11.27-22.62A12,12,0,0,1,404.24,134.26Z" style="fill:#ce7a63"></path><path d="M409.85,130.86c3.95-2.85,3.52-10.51-3.88-13.62a6.48,6.48,0,0,1,.78,3s-6.83-8.6-17.81-7.29a8.12,8.12,0,0,1,3.87,2.45s-10.48-.87-15.1,4.34c2.65.46,4.35.7,4.35.7s-3.32,5-6,5.44a30.18,30.18,0,0,0,9.47,1.6c-4,1.94-5.92,7.47,1.29,11.75,2.25,6.32,7.3,11.92,16.9,11.21,0-.61.2-2.35-.32-3.2a8.34,8.34,0,0,0,3,.71s1.84-5.11-.11-8.08c.34.6,3,1.24,3,1.24a7.14,7.14,0,0,1,1-5C411.8,133.77,412,131.61,409.85,130.86Z" style="fill:#263238"></path><path d="M408.14,130.56a5.57,5.57,0,0,0,6-4.55C416.25,129.42,412.89,133,408.14,130.56Z" style="fill:#263238"></path><path d="M388.78,136.62a7.28,7.28,0,0,1-3.42,4.13c-2.08,1.06-3.39-.95-3.05-3.37.31-2.18,1.76-5.37,3.95-5.41S389.53,134.37,388.78,136.62Z" style="fill:#ce7a63"></path><path d="M408.76,161c-11.67-2.32-28.39-3.41-39.63-2.29A12.63,12.63,0,0,0,358,169.38c-2.62,16.81-.38,46.94.67,77,32.87,8.23,53.27,1.67,53.27,1.67,1-6-2.11-24.08-3.35-34.74,2.28-10.74,6.95-22.89,10.13-37.14A12.64,12.64,0,0,0,408.76,161Z" style="fill:#407BFF"></path><path d="M373.09,174.23c-2.1,3-4.19,5.7-6.43,8.45s-4.54,5.4-7,8a94.71,94.71,0,0,1-8,7.58,48.86,48.86,0,0,1-4.76,3.59,26.06,26.06,0,0,1-6.5,3.18l-.26.09-.46.11A19.82,19.82,0,0,1,329.27,204a34,34,0,0,1-7.44-4.06,49.78,49.78,0,0,1-6-5,50.53,50.53,0,0,1-5.07-5.77,4,4,0,0,1,5.23-5.87l.27.16c1.82,1.06,3.82,2.26,5.74,3.27a61.55,61.55,0,0,0,5.76,2.77c.95.39,1.88.75,2.79,1s1.79.49,2.6.66a6.51,6.51,0,0,0,3.47-.1l-.73.19a16.21,16.21,0,0,0,2.42-1.64c1-.81,2.1-1.75,3.17-2.79,2.15-2.09,4.29-4.43,6.39-6.84s4.17-4.94,6.2-7.5,4.09-5.19,6-7.66l.08-.11a8,8,0,0,1,12.9,9.47Z" style="fill:#cf7a64"></path><path d="M369.13,158.72c-7.21.52-9.29,3.17-23.31,21.11.44,6.17,14.57,18.95,14.57,18.95s16.65-18.17,19.32-26.61S377.67,158.11,369.13,158.72Z" style="fill:#407BFF"></path></g><g id="character-1"><path d="M127,168.82c1,5.18,2,14.67-1.6,18.13a38.52,38.52,0,0,1,17.78,9.81c3.64-6.75-1.68-9.81-1.68-9.81-5.77-1.38-5.62-5.67-4.62-9.69Z" style="fill:#ffc3bd"></path><path d="M142.67,192.68c-1.27-5.17,2.63-5.94-3.78-8.45-5-2-14.6-2.13-16.88-.47-1.28.93.37,4.11.37,4.11Z" style="fill:#407BFF"></path><path d="M122.41,196.06c-.59.79-1.27,1.75-1.91,2.65s-1.29,1.83-1.91,2.77c-1.23,1.87-2.48,3.75-3.64,5.67a116.7,116.7,0,0,0-6.4,11.76c-.5,1-.89,2-1.35,3-.23.52-.36.88-.54,1.34l-.5,1.49c-.66,2.05-1.23,4.27-1.81,6.48-1.13,4.44-2.24,9-3.44,13.48v0a2.5,2.5,0,0,1-4.91-.62,123.82,123.82,0,0,1,.67-14.27c.24-2.39.57-4.77,1-7.25.12-.63.28-1.27.42-1.9s.39-1.41.6-2c.42-1.15.8-2.34,1.27-3.48a97.94,97.94,0,0,1,6.38-13.2c1.21-2.11,2.48-4.18,3.84-6.19q1-1.51,2.07-3c.72-1,1.42-1.94,2.26-3a5,5,0,0,1,7.93,6.09Z" style="fill:#ffc3bd"></path><path d="M188.93,188.28l-4.29,4.39,2.89,3.07c3.7.13,6.33-2.92,6.33-2.92Z" style="fill:#ffc3bd"></path><path d="M188.93,188.28l1.71-1.31a3.44,3.44,0,0,1,4.91.77l.36.52a2.23,2.23,0,0,1-.18,2.77,20.8,20.8,0,0,1-1.87,1.79Z" style="fill:#ffc3bd"></path><path d="M100.86,249.1l.39-6.12-4.18-.45c-2.9,2.3-2.91,6.33-2.91,6.33Z" style="fill:#ffc3bd"></path><path d="M100.86,249.1l-.71,3.35a2.23,2.23,0,0,1-2.75,1.69l-1.83-.48a2.22,2.22,0,0,1-1.67-2.22,21.59,21.59,0,0,1,.26-2.58Z" style="fill:#ffc3bd"></path><path d="M118.05,186.71c-4.59,1.6-8.78,6-13.26,15.14.78,3.92,12,11,12,11S133.53,183,118.05,186.71Z" style="fill:#263238"></path><path d="M156,199.16c-.15,3.49,5.35,11.55-1.44,16.22-.8,7.05-1.8,14-3.68,25.53H115.4c3.78-12.76,1.14-21.38-3.55-43.85a9,9,0,0,1,7.87-10.75c1.42-.14,2.92-.26,4.45-.34a113.84,113.84,0,0,1,16.11,0c1.73.16,3.53.38,5.25.62A12.17,12.17,0,0,1,156,199.16Z" style="fill:#263238"></path><path d="M146,160c.08.7.52,1.22,1,1.17s.76-.67.67-1.37-.52-1.22-1-1.16S145.88,159.31,146,160Z" style="fill:#263238"></path><path d="M146.45,158.71l1.62-.69S147.36,159.44,146.45,158.71Z" style="fill:#263238"></path><path d="M146.34,160.7a19.15,19.15,0,0,0,3,4.16,3,3,0,0,1-2.43.77Z" style="fill:#ed847e"></path><path d="M147.11,156a.41.41,0,0,0,.24-.19.42.42,0,0,0-.16-.57,4.09,4.09,0,0,0-3.77-.18.41.41,0,0,0-.17.56.41.41,0,0,0,.56.17,3.27,3.27,0,0,1,3,.18A.4.4,0,0,0,147.11,156Z" style="fill:#263238"></path><path d="M122.59,160.54c1.56,8.53,2,12.17,6.83,16.05,7.21,5.85,17.13,2.08,18.09-6.74.87-7.93-1.83-20.53-10.49-22.95S121,152,122.59,160.54Z" style="fill:#ffc3bd"></path><path d="M141,163.83a13.29,13.29,0,0,0,1.37,10.68,4.64,4.64,0,0,1-3.16,7.1c-8.35,1.24-18.23.46-24.54-4.94-9.24-7.92,2.21-29.18,6.75-29.18-3-6.07,17.75-5.91,21.84.68C152.08,151.9,141,163.83,141,163.83Z" style="fill:#263238"></path><path d="M138,163.43c.58,2.19.78,3.12,2,4a2.55,2.55,0,0,0,4.21-2.06c0-2.07-.92-5.29-3.06-5.77S137.41,161.25,138,163.43Z" style="fill:#ffc3bd"></path><path d="M143.93,167.65c.12.63-.1,1.14-.51,1.14s-.84-.51-1-1.14.1-1.13.51-1.13S143.8,167,143.93,167.65Z" style="fill:#fff"></path><path d="M150.86,240.91s.07,46.45-3.46,76c-.55,27.7-3.71,92.37-3.71,92.37h-7s-10.85-55.12-7.43-87.91c-14.23-46.85-4.88-80.41-4.88-80.41Z" style="fill:#ffc3bd"></path><path d="M143.74,407.05a1,1,0,0,1,1,.23,18.67,18.67,0,0,0,10.09,6.58c4.4,1.33,2.6,3.53-4,2.71-7.77-1-9.82.18-12.42.18s-4-2.36-2.49-7.48a.92.92,0,0,1,.79-.66A31.87,31.87,0,0,0,143.74,407.05Z" style="fill:#263238"></path><path d="M141.59,240.91s-14.5,54.18-22.72,79.4c-8.64,26.48-31.14,81.56-32,83.36L81.4,401s9-66.47,19.38-80.75c3-64.81,14.62-79.37,14.62-79.37Z" style="fill:#ffc3bd"></path><path d="M88,401.8a.76.76,0,0,1,.72.62c.46,2.47.24,6.09,5,9.52,3.32,2.41-.4,3.55-5.85,1-6.41-3-7.22-4-9.36-5s-2-3.6,1.91-7.38a1,1,0,0,1,1-.25A28.18,28.18,0,0,0,88,401.8Z" style="fill:#263238"></path><path d="M150.86,240.91s.79,36.44-1.93,91.26c-27,1-52.68-13.06-52.68-13.06,7.25-32.44,3.14-64.11,19.15-78.2C124.64,238.44,150.68,240.08,150.86,240.91Z" style="fill:#407BFF"></path><g style="opacity:0.5"><path d="M150.86,240.91s.79,36.44-1.93,91.26c-27,1-52.68-13.06-52.68-13.06,7.25-32.44,3.14-64.11,19.15-78.2C124.64,238.44,150.68,240.08,150.86,240.91Z" style="fill:#fff"></path></g><path d="M150.2,191c.85.64,1.87,1.37,2.82,2.05s2,1.37,2.95,2c2,1.34,4,2.61,6.05,3.85s4.11,2.37,6.2,3.45,4.22,2,6.36,2.89l-4.45.9c1.33-1.1,2.7-2.2,4-3.38s2.64-2.36,3.92-3.6,2.59-2.47,3.86-3.74,2.56-2.58,3.79-3.82l.07-.08a2.5,2.5,0,0,1,4,2.88c-.88,1.78-1.85,3.37-2.85,5s-2.1,3.18-3.23,4.73a75.19,75.19,0,0,1-7.58,8.75,4.13,4.13,0,0,1-4.15,1l-.31-.1a69.34,69.34,0,0,1-7.51-2.79c-2.42-1.07-4.79-2.22-7.07-3.5s-4.53-2.61-6.71-4.05c-1.08-.72-2.15-1.46-3.22-2.22s-2.07-1.53-3.2-2.43a5,5,0,0,1,6.13-7.9Z" style="fill:#ffc3bd"></path><path d="M140.93,186.55c4.78-.8,10.66.09,17.54,7,1.2,3.82-5.06,15.82-5.06,15.82S125.58,190.77,140.93,186.55Z" style="fill:#263238"></path><path d="M115.28,266.89c3.66,3.52,15.87,8.33,15.87,8.33S119.49,274.44,115.28,266.89Z" style="fill:#407BFF;opacity:0.4"></path></g><g id="Plant"><path d="M216.86,336.59h-.1a.38.38,0,0,1-.26-.47c8.94-32.27-6.35-56.06-6.5-56.3a.37.37,0,0,1,.11-.52.38.38,0,0,1,.52.11c.15.24,15.63,24.3,6.59,56.92A.38.38,0,0,1,216.86,336.59Z" style="fill:#263238"></path><path d="M208.09,272.66c2.22,2.84,4.12,7,3,7.9s-4.72-2-6.95-4.83-2.2-4.6-1.12-5.44S205.86,269.82,208.09,272.66Z" style="fill:#407BFF"></path><path d="M222.27,289c-.94,3.48-3.19,7.51-4.51,7.16s-1.23-5-.29-8.46,2.38-4.51,3.71-4.15S223.22,285.48,222.27,289Z" style="fill:#407BFF"></path><path d="M216.83,305.16c1.92,2.55,3.52,6.31,2.55,7s-4.15-1.85-6.07-4.4-1.85-4.1-.88-4.83S214.91,302.61,216.83,305.16Z" style="fill:#407BFF"></path><path d="M224,323.41c-1.53,1.78-4,3.52-4.65,2.94s.67-3.26,2.2-5,2.65-2,3.33-1.4S225.55,321.64,224,323.41Z" style="fill:#407BFF"></path><path d="M230.27,346.63a.38.38,0,0,1-.37-.33c-4.19-33.58,14.62-55.13,14.81-55.34a.37.37,0,0,1,.52,0,.38.38,0,0,1,0,.53c-.19.22-18.78,21.53-14.63,54.76a.37.37,0,0,1-.32.42Z" style="fill:#263238"></path><path d="M248.08,284.69c-2.52,2.59-4.85,6.57-3.86,7.53s4.91-1.47,7.42-4.06,2.67-4.34,1.69-5.3S250.6,282.11,248.08,284.69Z" style="fill:#407BFF"></path><path d="M237.28,294.31c-.26,2.46.18,5.61,1.12,5.71s2-2.89,2.28-5.36-.4-3.48-1.34-3.58S237.54,291.84,237.28,294.31Z" style="fill:#407BFF"></path><path d="M227,313.83c.91,3.06,3,6.58,4.16,6.23s1-4.43.05-7.49-2.21-3.93-3.37-3.58S226.09,310.78,227,313.83Z" style="fill:#407BFF"></path><path d="M227.56,328.8c.38,1.46,1.31,3.16,1.87,3s.53-2.08.15-3.54-1-1.9-1.53-1.75S227.18,327.33,227.56,328.8Z" style="fill:#407BFF"></path><path d="M238.15,305.74c-1.89,1.38-3.83,3.68-3.3,4.4s3.3-.41,5.2-1.78,2.19-2.49,1.67-3.21S240.05,304.36,238.15,305.74Z" style="fill:#407BFF"></path><polygon points="240.54 361.64 210.79 361.64 208.72 334.76 242.62 334.76 240.54 361.64" style="fill:#407BFF"></polygon><rect x="208.01" y="347.04" width="35.32" height="2.32" rx="1.07" style="fill:#263238"></rect><path d="M220.78,347.64a1.1,1.1,0,0,0-1,1.16v63.06h2V348.8A1.09,1.09,0,0,0,220.78,347.64Z" style="fill:#263238"></path><path d="M241.78,347.64a1.1,1.1,0,0,0-1,1.16l16.12,63.06h2L242.76,348.8A1.09,1.09,0,0,0,241.78,347.64Z" style="fill:#263238"></path><path d="M209.56,347.64a1.09,1.09,0,0,0-1,1.16l-16.11,63.06h2l16.11-63.06A1.09,1.09,0,0,0,209.56,347.64Z" style="fill:#263238"></path></g></svg>