<svg xmlns="http://www.w3.org/2000/svg" viewBox="0 0 500 500"><g id="background-complete"><rect y="382.4" width="500" height="0.25" style="fill:#ebebeb"></rect><rect x="324.56" y="389.21" width="33.12" height="0.25" style="fill:#ebebeb"></rect><rect x="428.57" y="391.4" width="8.69" height="0.25" style="fill:#ebebeb"></rect><rect x="358.68" y="398.49" width="19.19" height="0.25" style="fill:#ebebeb"></rect><rect x="206.81" y="395.11" width="43.19" height="0.25" style="fill:#ebebeb"></rect><rect x="191.57" y="395.11" width="6.33" height="0.25" style="fill:#ebebeb"></rect><rect x="77.31" y="390.89" width="93.68" height="0.25" style="fill:#ebebeb"></rect><path d="M237,337.8H43.91a5.71,5.71,0,0,1-5.7-5.71V60.66A5.71,5.71,0,0,1,43.91,55H237a5.71,5.71,0,0,1,5.71,5.71V332.09A5.71,5.71,0,0,1,237,337.8ZM43.91,55.2a5.46,5.46,0,0,0-5.45,5.46V332.09a5.46,5.46,0,0,0,5.45,5.46H237a5.47,5.47,0,0,0,5.46-5.46V60.66A5.47,5.47,0,0,0,237,55.2Z" style="fill:#ebebeb"></path><path d="M453.31,337.8H260.21a5.72,5.72,0,0,1-5.71-5.71V60.66A5.72,5.72,0,0,1,260.21,55h193.1A5.71,5.71,0,0,1,459,60.66V332.09A5.71,5.71,0,0,1,453.31,337.8ZM260.21,55.2a5.47,5.47,0,0,0-5.46,5.46V332.09a5.47,5.47,0,0,0,5.46,5.46h193.1a5.47,5.47,0,0,0,5.46-5.46V60.66a5.47,5.47,0,0,0-5.46-5.46Z" style="fill:#ebebeb"></path><rect x="159.44" y="80.68" width="276.56" height="211.94" transform="translate(595.44 373.3) rotate(180)" style="fill:#e6e6e6"></rect><path d="M143.72,75.67H445.49A1.46,1.46,0,0,1,447,77.13h0a1.45,1.45,0,0,1-1.46,1.45H143.72a1.45,1.45,0,0,1-1.46-1.45h0A1.46,1.46,0,0,1,143.72,75.67Z" style="fill:#f5f5f5"></path><rect x="153.21" y="80.68" width="279.87" height="211.94" transform="translate(586.3 373.3) rotate(180)" style="fill:#ebebeb"></rect><rect x="195.9" y="55.43" width="194.51" height="262.44" transform="translate(479.8 -106.5) rotate(90)" style="fill:#fafafa"></rect><polygon points="370.46 283.91 309.92 89.4 274.69 89.4 335.24 283.91 370.46 283.91" style="fill:#fff"></polygon><polygon points="310.68 283.91 250.13 89.4 236.4 89.4 296.94 283.91 310.68 283.91" style="fill:#fff"></polygon><rect x="65.23" y="186.1" width="194.51" height="1.11" transform="translate(349.13 24.17) rotate(90)" style="fill:#e6e6e6"></rect><g style="opacity:0.4"><rect x="412.22" y="73.06" width="27.05" height="205.05" transform="translate(851.49 351.17) rotate(180)" style="fill:#f0f0f0"></rect><rect x="401.68" y="73.06" width="21.08" height="205.05" transform="translate(824.44 351.17) rotate(180)" style="fill:#e6e6e6"></rect><rect x="385.16" y="73.06" width="27.05" height="205.05" transform="translate(797.38 351.17) rotate(180)" style="fill:#f0f0f0"></rect><rect x="374.63" y="73.06" width="21.08" height="205.05" transform="translate(770.33 351.17) rotate(180)" style="fill:#e6e6e6"></rect><rect x="358.11" y="73.06" width="27.05" height="205.05" transform="translate(743.28 351.17) rotate(180)" style="fill:#f0f0f0"></rect></g><g style="opacity:0.4"><rect x="167.51" y="73.07" width="8.64" height="205.05" transform="translate(343.67 351.18) rotate(180)" style="fill:#f0f0f0"></rect><rect x="164.14" y="73.07" width="6.73" height="205.05" transform="translate(335.02 351.18) rotate(180)" style="fill:#e6e6e6"></rect><rect x="158.87" y="73.07" width="8.64" height="205.05" transform="translate(326.38 351.18) rotate(180)" style="fill:#f0f0f0"></rect><rect x="155.5" y="73.07" width="6.73" height="205.05" transform="translate(317.74 351.18) rotate(180)" style="fill:#e6e6e6"></rect><rect x="150.22" y="73.07" width="8.64" height="205.05" transform="translate(309.09 351.18) rotate(180)" style="fill:#f0f0f0"></rect></g><rect x="75.38" y="107.71" width="61.96" height="77.89" transform="translate(212.73 293.31) rotate(180)" style="fill:#f0f0f0"></rect><rect x="61.7" y="107.71" width="73.27" height="77.89" transform="translate(196.67 293.31) rotate(180)" style="fill:#f5f5f5"></rect><rect x="65.53" y="116.16" width="65.61" height="60.99" transform="translate(-48.32 244.99) rotate(-90)" style="fill:#fff"></rect><rect x="406.82" y="311.73" width="12.25" height="65.68" transform="translate(825.89 689.13) rotate(180)" style="fill:#f0f0f0"></rect><rect x="229.53" y="377.41" width="184.48" height="6.1" transform="translate(643.53 760.91) rotate(180)" style="fill:#f0f0f0"></rect><rect x="224.46" y="311.73" width="182.35" height="65.68" style="fill:#fafafa"></rect><rect x="234.84" y="319.72" width="161.61" height="20.21" style="fill:#f0f0f0"></rect><rect x="234.84" y="345.68" width="161.61" height="20.21" style="fill:#f0f0f0"></rect><rect x="268.37" y="317.21" width="94.54" height="4.33" rx="1.84" transform="translate(631.28 638.75) rotate(180)" style="fill:#fafafa"></rect><rect x="268.37" y="343.18" width="94.54" height="4.33" rx="1.84" transform="translate(631.28 690.68) rotate(180)" style="fill:#fafafa"></rect><rect x="220.95" y="305.84" width="185.87" height="5.89" transform="translate(627.76 617.57) rotate(180)" style="fill:#f0f0f0"></rect><rect x="406.82" y="305.84" width="15.94" height="5.89" style="fill:#e6e6e6"></rect><path d="M100.27,352.56h5.94c0-5.31,0-32.43.42-63.3.36-28.61,1-40.07,1.58-44.45l-4.77,8.32c-1.66,6.51-4.42,17.64-4.66,24.48C98,299.13,101,330,100.27,352.56Z" style="fill:#e6e6e6"></path><path d="M95.76,249.19C87.85,233.72,72,225.64,55.88,218c-6.34-3,11.46,34,24.41,50.83,10,13,19.77,12.75,22.69,25.63C103.54,279.54,102.58,262.53,95.76,249.19Z" style="fill:#e6e6e6"></path><path d="M110.79,275.37c7-9.15,18.56-11.49,30.3-13.44,4.6-.76-11.41,21.36-22,30.38-8.2,7-14.73,4.78-18.09,13.16C102.27,294.92,104.75,283.25,110.79,275.37Z" style="fill:#e6e6e6"></path><path d="M96.66,292.86c-5.45-7.11-14.42-8.93-23.54-10.44C69.54,281.83,82,299,90.19,306c6.37,5.45,11.44,3.72,14,10.23C103.29,308.05,101.36,299,96.66,292.86Z" style="fill:#e6e6e6"></path><path d="M107.88,320.72c3.76-4.8,9.88-6,16.1-7,2.44-.38-6.14,11.24-11.77,16-4.37,3.66-7.81,2.45-9.63,6.87C103.28,331,104.65,324.86,107.88,320.72Z" style="fill:#e6e6e6"></path><path d="M104.34,249.77C108.72,234.6,126,211,143.79,206.08c7-1.9-18.11,36.49-26.71,55.59-6.69,14.88-13,23.91-13.87,34.57C98.77,282.84,100,264.94,104.34,249.77Z" style="fill:#e6e6e6"></path><path d="M105.82,382.4h0c-12.32,0-22.5-1.83-23.21-14.12l-2-21h50.51l-2,21C128.31,380.57,118.13,382.4,105.82,382.4Z" style="fill:#f0f0f0"></path><polygon points="134.34 351.55 77.29 351.55 75.66 339.92 135.97 339.92 134.34 351.55" style="fill:#f0f0f0"></polygon></g><g id="background-simple"><path d="M213,302.45c24.24-.46,47.6,12.67,71.18,16.81s49.07,4.68,72.36-.55c57-12.79,94.48-55.57,82.45-102.36-9.57-37.21,21-85.91-8.44-122.24C400.74,57.32,363.9,48.89,319.61,45.83,278.68,43,207.76,39.54,183,78.06c-28.29,44,39.43,95-15.19,122.62-43.64,22-90.95,60.66-65.7,111.22C128.85,365.52,173,303.2,213,302.45Z" style="fill:#407BFF"></path><path d="M213,302.45c24.24-.46,47.6,12.67,71.18,16.81s49.07,4.68,72.36-.55c57-12.79,94.48-55.57,82.45-102.36-9.57-37.21,21-85.91-8.44-122.24C400.74,57.32,363.9,48.89,319.61,45.83,278.68,43,207.76,39.54,183,78.06c-28.29,44,39.43,95-15.19,122.62-43.64,22-90.95,60.66-65.7,111.22C128.85,365.52,173,303.2,213,302.45Z" style="fill:#fff;opacity:0.9"></path></g><g id="Shadow"><ellipse id="path" cx="250" cy="416.24" rx="193.89" ry="11.32" style="fill:#f5f5f5"></ellipse></g><g id="Graphics"><path d="M379.24,138.43a.34.34,0,0,1-.14,0,.5.5,0,0,1-.34-.62c8.95-29.81,2.52-56-17.2-70.19-18.08-12.95-42.74-12.75-61.37.52-52.71,37.53-93,44.8-134.76,24.33a.5.5,0,1,1,.44-.9c41.38,20.29,81.37,13,133.74-24.25,19-13.51,44.11-13.71,62.53-.51,20.09,14.4,26.66,41,17.58,71.29A.5.5,0,0,1,379.24,138.43Z" style="fill:#407BFF"></path><path d="M346.15,291.67a64.5,64.5,0,0,1-29.06-7.07c-37-18.63-65.78-17.79-76.87,2.24a.5.5,0,0,1-.68.2.51.51,0,0,1-.2-.68c11.39-20.56,40.62-21.55,78.2-2.66a62.27,62.27,0,0,0,58.06-.43c22.09-11.49,38.67-34.66,42.24-59a.5.5,0,0,1,.57-.42.51.51,0,0,1,.42.57c-3.62,24.68-20.41,48.13-42.77,59.76A64.54,64.54,0,0,1,346.15,291.67Z" style="fill:#407BFF"></path><path d="M408.2,233.25l-.17,0a.5.5,0,0,1-.3-.64c10.73-29.49-4.58-41.27-19.39-52.67-14-10.8-28.55-22-20.28-47.94a.49.49,0,0,1,.63-.32.49.49,0,0,1,.32.62C361,157.58,374.55,168,389,179.12c15.09,11.61,30.7,23.62,19.72,53.8A.48.48,0,0,1,408.2,233.25Z" style="fill:#407BFF"></path><path d="M398.73,238.06c-7.31,24.85-35.19,43.89-60.41,38-30.58-7.19-46.7-33.25-41.28-58.58s33.65-12.32,59-17.75C388.56,192.72,406,213.2,398.73,238.06Z" style="fill:#407BFF;opacity:0.1"></path><path d="M253.19,95.26a3.45,3.45,0,1,1-3.81-3A3.45,3.45,0,0,1,253.19,95.26Z" style="fill:#fff"></path><path d="M249.76,99.58a3.94,3.94,0,1,1,3.92-4.38h0a4,4,0,0,1-3.48,4.36A3.31,3.31,0,0,1,249.76,99.58Zm0-6.89-.32,0a2.94,2.94,0,1,0,3.25,2.6h0A3,3,0,0,0,249.76,92.69Z" style="fill:#407BFF"></path><path d="M372,131.74a3.45,3.45,0,1,1-3.8-3A3.45,3.45,0,0,1,372,131.74Z" style="fill:#fff"></path><path d="M368.53,136.07a3.95,3.95,0,1,1,2.47-7,4,4,0,0,1,1.46,2.65h0a4,4,0,0,1-.84,2.9A3.91,3.91,0,0,1,369,136,3.25,3.25,0,0,1,368.53,136.07Zm0-6.89a1.83,1.83,0,0,0-.33,0,2.9,2.9,0,0,0-2,1.08,2.94,2.94,0,0,0-.63,2.17,3,3,0,0,0,3.25,2.6,3,3,0,0,0,2-1.09,2.9,2.9,0,0,0,.62-2.16h0a2.92,2.92,0,0,0-2.92-2.62Z" style="fill:#407BFF"></path><path d="M406.35,260a3.44,3.44,0,1,1-3.8-3A3.45,3.45,0,0,1,406.35,260Z" style="fill:#fff"></path><path d="M402.92,264.35a3.95,3.95,0,1,1,3.93-4.38h0a3.94,3.94,0,0,1-3.49,4.35A3.15,3.15,0,0,1,402.92,264.35Zm0-6.89a1.94,1.94,0,0,0-.33,0,2.94,2.94,0,1,0,3.26,2.6h0a3,3,0,0,0-1.09-2A2.94,2.94,0,0,0,402.93,257.46Z" style="fill:#407BFF"></path><path d="M371.07,259.52a3.44,3.44,0,1,1-1.45-4.65A3.42,3.42,0,0,1,371.07,259.52Z" style="fill:#fff"></path><path d="M368,261.87a4,4,0,0,1-1.83-.45,4,4,0,0,1-1.66-5.33,3.95,3.95,0,0,1,7,3.66h0A4,4,0,0,1,368,261.87Zm0-6.89a2.94,2.94,0,1,0,2.6,4.31h0a3,3,0,0,0-1.24-4A3,3,0,0,0,368,255Z" style="fill:#407BFF"></path><path d="M380.91,245.87a.39.39,0,0,1-.25-.1l-20.18-18.22a.38.38,0,0,1,.5-.56l19.65,17.74,2.71-21.41a.37.37,0,0,1,.42-.32.37.37,0,0,1,.32.42l-2.8,22.12a.36.36,0,0,1-.24.3A.28.28,0,0,1,380.91,245.87Z" style="fill:#263238"></path><path d="M368,258.3a.37.37,0,0,1-.27-.12.38.38,0,0,1,0-.53l12.89-12.43a.38.38,0,0,1,.53,0,.37.37,0,0,1,0,.53l-12.89,12.43A.36.36,0,0,1,368,258.3Z" style="fill:#263238"></path><path d="M363.39,228.66a3,3,0,1,1-1.27-4A3,3,0,0,1,363.39,228.66Z" style="fill:#407BFF"></path><path d="M385.59,224.35a2.12,2.12,0,1,1-.9-2.86A2.12,2.12,0,0,1,385.59,224.35Z" style="fill:#263238"></path><path d="M264.35,181.94a3.44,3.44,0,1,1,3.36,3.52A3.43,3.43,0,0,1,264.35,181.94Z" style="fill:#fff"></path><path d="M267.79,186h-.1a3.93,3.93,0,0,1-3.84-4,3.94,3.94,0,0,1,4-3.85,3.95,3.95,0,0,1-.1,7.89Zm0-6.89a2.94,2.94,0,0,0-2.94,2.87,2.94,2.94,0,0,0,2.87,3,2.84,2.84,0,0,0,2.1-.81,2.94,2.94,0,0,0-2-5.07Z" style="fill:#407BFF"></path><path d="M255.08,182a.38.38,0,0,1-.38-.33l-1.15-10.4a.38.38,0,0,1,0-.15l4-13.9A.37.37,0,0,1,258,157a.38.38,0,0,1,.26.47l-3.94,13.83,1.15,10.32a.39.39,0,0,1-.33.42Z" style="fill:#263238"></path><path d="M267.79,182.4a.4.4,0,0,1-.23-.08l-13.87-10.81a.38.38,0,0,1-.06-.53.37.37,0,0,1,.52-.06L268,181.73a.38.38,0,0,1,.07.52A.38.38,0,0,1,267.79,182.4Z" style="fill:#263238"></path><path d="M254.88,157.24a3,3,0,1,1,2.93,3.07A3,3,0,0,1,254.88,157.24Z" style="fill:#407BFF"></path><path d="M253,181.56a2.13,2.13,0,1,1,2.07,2.17A2.13,2.13,0,0,1,253,181.56Z" style="fill:#263238"></path><path d="M353.67,168.08l7.52,17a1.9,1.9,0,0,1-1,2.51h0a1.92,1.92,0,0,1-2.51-1l-7.53-17a1.92,1.92,0,0,1,1-2.51h0A1.92,1.92,0,0,1,353.67,168.08Z" style="fill:#407BFF"></path><path d="M304.55,266.16l25.69-1.8a1.16,1.16,0,0,1,1.23,1.08h0a1.16,1.16,0,0,1-1.07,1.23l-25.69,1.8a1.15,1.15,0,0,1-1.23-1.08h0A1.15,1.15,0,0,1,304.55,266.16Z" style="fill:#263238"></path><path d="M260.1,125.19l24.79,7a1.15,1.15,0,0,1,.79,1.43h0a1.16,1.16,0,0,1-1.42.8l-24.79-7a1.15,1.15,0,0,1-.79-1.43h0A1.16,1.16,0,0,1,260.1,125.19Z" style="fill:#263238"></path><path d="M241.61,111l-13,8.3a1.58,1.58,0,0,1-2.17-.48h0a1.58,1.58,0,0,1,.48-2.18l13-8.3a1.59,1.59,0,0,1,2.18.49h0A1.57,1.57,0,0,1,241.61,111Z" style="fill:#407BFF"></path><path d="M308.93,171.14a.38.38,0,0,1-.36-.27.38.38,0,0,1,.27-.46l17.2-4.63a.38.38,0,0,1,.2.73L309,171.13Z" style="fill:#263238"></path><path d="M325,166.77a1.27,1.27,0,1,1,1.74.48A1.26,1.26,0,0,1,325,166.77Z" style="fill:#407BFF"></path><path d="M307.82,171.4a1.28,1.28,0,0,1,.49-1.74,1.26,1.26,0,0,1,1.73.48,1.28,1.28,0,1,1-2.22,1.26Z" style="fill:#407BFF"></path></g><g id="Device"><path d="M337.39,211.38a2.09,2.09,0,0,0-.55-2.35l-30.22-24.19a1.11,1.11,0,0,0-1.79.48l-9.63,22L276,221.75a1.11,1.11,0,0,0-.07,1.86l30.22,24.19a2.07,2.07,0,0,0,2.4,0l19.25-14.46Z" style="fill:#407BFF"></path><path d="M326.83,232.6l-32.56-26.06,9.64-22a1.1,1.1,0,0,1,1.78-.48l30.23,24.19a2.09,2.09,0,0,1,.54,2.35Z" style="fill:#407BFF"></path><path d="M326.08,229.73a.22.22,0,0,1-.15-.06l-29.22-23.38h0a.72.72,0,0,1-.16-.75L305,186.19a.28.28,0,0,1,.17-.15.28.28,0,0,1,.22.05l29.21,23.38a.69.69,0,0,1,.16.75l-8.49,19.36a.24.24,0,0,1-.17.14Zm-29-23.82L326,229.08,334.35,210a.34.34,0,0,0,0-.17l-28.95-23.16L297,205.74A.26.26,0,0,0,297,205.91Zm0,0Z" style="fill:#fff"></path><path d="M326.83,232.6l-32.56-26.06L275,221a1.12,1.12,0,0,0-.07,1.86l30.23,24.19a2.06,2.06,0,0,0,2.4,0Z" style="fill:#407BFF"></path><path d="M285,217l7.81-5.86a2.21,2.21,0,0,1,2.59,0l25.5,20.4a1.21,1.21,0,0,1-.08,2l-7.8,5.86a2.24,2.24,0,0,1-2.6,0l-25.49-20.4A1.23,1.23,0,0,1,285,217Z" style="fill:#fff;opacity:0.30000000000000004"></path><path d="M286.4,228.71l3.94-3a1,1,0,0,1,1.17,0L302,234.14a.55.55,0,0,1,0,.91L298,238a1,1,0,0,1-1.17,0l-10.47-8.38A.55.55,0,0,1,286.4,228.71Z" style="fill:#fff;opacity:0.30000000000000004"></path></g><g id="light-bulb"><path d="M359,114.87a32,32,0,1,0-56.88,9.89,12.85,12.85,0,0,1,2.25,5.18h0a12.36,12.36,0,0,0,8.77,9.7l10.19,2.89a12.34,12.34,0,0,0,12.57-3.63h0a12.49,12.49,0,0,1,4.59-3.2A32,32,0,0,0,359,114.87Z" style="fill:#407BFF;opacity:0.4"></path><path d="M324.65,150.46l-16.74-4.76a2.39,2.39,0,0,1-1.64-2.94h0a2.4,2.4,0,0,1,3-1.64L326,145.88a2.39,2.39,0,0,1,1.64,2.94h0A2.39,2.39,0,0,1,324.65,150.46Z" style="fill:#407BFF"></path><path d="M321.13,156.65l-13.48-3.83a2.4,2.4,0,0,1-1.64-2.95h0a2.39,2.39,0,0,1,2.94-1.64l13.48,3.84a2.39,2.39,0,0,1,1.64,2.94h0A2.39,2.39,0,0,1,321.13,156.65Z" style="fill:#407BFF"></path><path d="M323.37,143h-.09a.51.51,0,0,1-.41-.58c.16-1,2.77-16.36,7.73-27.95-1.38-.26-2.87-.61-4.47-1.06s-3.06-.94-4.37-1.45c-1.87,12.46-7.75,26.91-8.12,27.84a.5.5,0,0,1-.93-.38c.09-.23,6.21-15.28,8.09-27.85-9.71-4-11.15-9.24-11.28-11.51A6.08,6.08,0,0,1,313.07,94c2.28-.94,4.81-.18,6.77,2,2.64,3,2.91,8.64,2.07,14.94,1.33.53,2.83,1,4.49,1.51s3.2.82,4.62,1.08c2.6-5.8,5.81-10.48,9.62-11.62,2.83-.85,5.38-.16,6.82,1.83a6.09,6.09,0,0,1-.18,7c-1.31,1.87-5.27,5.53-15.66,3.86-5,11.68-7.72,27.69-7.76,27.94A.49.49,0,0,1,323.37,143Zm8.67-29.3c9.95,1.5,13.49-2.16,14.42-3.48a5.09,5.09,0,0,0,.19-5.89c-1.18-1.64-3.32-2.19-5.73-1.46C337.47,103.93,334.49,108.27,332,113.73ZM315,94.61a4.16,4.16,0,0,0-1.58.31,5.1,5.1,0,0,0-2.94,5.11c.1,1.62,1.18,6.59,10.44,10.54.78-5.93.53-11.18-1.86-13.88A5.55,5.55,0,0,0,315,94.61Z" style="fill:#fff"></path></g><g id="Character"><ellipse cx="178.24" cy="199.33" rx="47.7" ry="93.7" transform="translate(-70.05 100.07) rotate(-26.41)" style="fill:#407BFF;opacity:0.30000000000000004"></ellipse><polygon points="157.72 408.66 165.12 408.54 166.82 391.38 159.42 391.49 157.72 408.66" style="fill:#b55b52"></polygon><polygon points="108 395.15 115.05 397.39 123 381.94 115.95 379.7 108 395.15" style="fill:#b55b52"></polygon><polygon points="166.82 391.38 165.94 400.23 158.54 400.35 159.42 391.5 166.82 391.38" style="opacity:0.2"></polygon><polygon points="115.94 379.7 123 381.94 118.9 389.9 111.84 387.67 115.94 379.7" style="opacity:0.2"></polygon><path d="M168.69,398.48l-12.53.19s5-48.67,6.57-71.67a243.65,243.65,0,0,0-.32-27.53c-.75-13.42-1.23-18.79-2.24-35.75-.72-12.1-1.6-19.93-1.6-19.93l25.93,2.13s1,58.71-1.92,81.1C179.52,350.3,168.69,398.48,168.69,398.48Z" style="fill:#407BFF"></path><path d="M165.7,260.05c3.25,12.08.1,39.11-2.95,46.46-.09-2.3-.21-4.65-.34-7-.75-13.42-1.24-18.79-2.25-35.75,0-.34,0-.67,0-1A18,18,0,0,1,165.7,260.05Z" style="opacity:0.2"></path><path d="M170.51,244.77s-12,60.32-18,81.15c-6.56,22.82-29.83,63.39-29.83,63.39l-12.92-4.09s14.88-34.35,20.37-56.83c6.26-25.62,14.92-85.71,14.92-85.71Z" style="fill:#407BFF"></path><path d="M116.55,396.9l-8.16-3.84a.65.65,0,0,0-.79.19l-4.11,5.33a1.09,1.09,0,0,0,.42,1.66c2.65,1.18,4.63,1.93,7.94,3.48,2,1,6.76,3.38,9.57,4.7s4.44-1.22,3.45-2.08c-4.41-3.82-6.47-6.26-7.42-8.52A1.79,1.79,0,0,0,116.55,396.9Z" style="fill:#263238"></path><path d="M165.06,407.68l-8.08.13a.64.64,0,0,0-.62.52L155,414.92a1.07,1.07,0,0,0,1.08,1.3c2.92-.09,7.12-.33,10.79-.39,4.28-.06,4.77.11,9.79,0,3,0,3.83-3.13,2.56-3.39-5.81-1.17-7.32-1.23-12.37-4.24A3.51,3.51,0,0,0,165.06,407.68Z" style="fill:#263238"></path><path d="M151.74,177.43a128.15,128.15,0,0,1,27.86,1,12.25,12.25,0,0,1,10.3,11.31c.63,9.75.41,28.91-4.18,64.85-5.7,2.5-30.58.09-42.8-3.75.66-4.11,4.53-37.27,1.69-65A7.7,7.7,0,0,1,151.74,177.43Z" style="fill:#263238"></path><path d="M153.79,190.71l-1.52,3.11q-.75,1.6-1.47,3.24c-1,2.17-1.85,4.36-2.7,6.56s-1.58,4.42-2.25,6.63a65.61,65.61,0,0,0-1.56,6.64l-1-3.41a7.71,7.71,0,0,0,3.31,2.5,18.89,18.89,0,0,0,5.25,1.26,38.74,38.74,0,0,0,6,.17,59.61,59.61,0,0,0,6.18-.56l.15,0a2.49,2.49,0,0,1,1.31,4.76c-1.17.5-2.22.87-3.35,1.23s-2.24.68-3.39.94a37.8,37.8,0,0,1-7.14,1,24.42,24.42,0,0,1-7.74-.86,15.77,15.77,0,0,1-7.58-4.68,4.16,4.16,0,0,1-1-3.16l0-.25a62.61,62.61,0,0,1,1.29-8c.61-2.57,1.32-5.1,2.16-7.56s1.77-4.89,2.8-7.26c.52-1.19,1.05-2.36,1.61-3.53s1.12-2.3,1.81-3.54a5,5,0,0,1,8.88,4.57Z" style="fill:#b55b52"></path><path d="M161.59,217.35l4-4.49,6.55,6s-4.45,4.94-9.17,2.35Z" style="fill:#b55b52"></path><path d="M172.12,211.13l2.63,2.75a2.19,2.19,0,0,1-.3,3.28l-2.33,1.69-6.55-6,3.92-2.14A2.2,2.2,0,0,1,172.12,211.13Z" style="fill:#b55b52"></path><path d="M148.18,178.59c-6,3.68-12,23.21-12,23.21l15.8,5.8a53.5,53.5,0,0,0,6.51-15C160.88,183.55,154.81,174.54,148.18,178.59Z" style="fill:#263238"></path><path d="M182.19,178.89c-.13,0,.18,0,.33,0l.61.05c.44,0,.88.06,1.35.06.93,0,1.9,0,2.87,0,2-.06,4-.28,6-.52,1-.13,2-.28,3-.47s2-.37,3.06-.56l3.08-.68,3.07-.76-3.7,4.5a26.72,26.72,0,0,0,.38-5.47,47.39,47.39,0,0,0-.59-5.94q-.48-3-1.25-6.12c-.49-2-1.11-4.14-1.68-6.07l-.06-.18a3,3,0,0,1,5.31-2.59,48.41,48.41,0,0,1,3.64,6.13,54.07,54.07,0,0,1,2.78,6.58,44.2,44.2,0,0,1,1.84,7.14,32.45,32.45,0,0,1,.39,7.82,5.07,5.07,0,0,1-3.34,4.37l-.36.13-3.34,1.2c-1.13.37-2.26.72-3.41,1a67.65,67.65,0,0,1-7,1.66,56.62,56.62,0,0,1-7.34.87c-1.26,0-2.52.09-3.83,0-.65,0-1.32-.07-2-.14l-1.06-.13c-.4-.06-.65-.09-1.33-.24a6,6,0,0,1,2.54-11.72Z" style="fill:#b55b52"></path><path d="M197.73,156.73l-2.91-4.88,8.5-2.51s1.74,3.92,1,6.61a2.74,2.74,0,0,1-2.32,1.94l-1.52.19A2.81,2.81,0,0,1,197.73,156.73Z" style="fill:#b55b52"></path><path d="M196.9,144.07l2.35-.27a3,3,0,0,1,3.2,2.2l.87,3.34-8.5,2.51-.53-4.49A3,3,0,0,1,196.9,144.07Z" style="fill:#b55b52"></path><path d="M173.09,177.1c7,.61,22.22-1.14,22.22-1.14l.88,19.12a28.58,28.58,0,0,1-16,.5C171.07,193.26,165.36,176.43,173.09,177.1Z" style="fill:#263238"></path><path d="M161.4,158.37c.82,5.46,1.43,15.41-2.52,18.85,2.81,3.05,6.88,7,13.3,7.53,4.07-1.79,5.1-4.36,3.51-6.77-6-1.71-5.61-6.18-4.37-10.33Z" style="fill:#b55b52"></path><path d="M165.45,162.16l5.87,5.48a17.92,17.92,0,0,0-.66,3c-2.28-.43-5.33-3.11-5.47-5.53A7.82,7.82,0,0,1,165.45,162.16Z" style="opacity:0.2"></path><path d="M173.2,140c7.48,5,1.08,13,1.08,13S170.57,146.44,173.2,140Z" style="fill:#fff"></path><path d="M157.45,152.54c1.78,7.12,2.46,11.38,6.78,14.4,6.51,4.55,14.79-.4,15.18-7.91.34-6.76-2.63-17.28-10.21-18.84A10,10,0,0,0,157.45,152.54Z" style="fill:#b55b52"></path><path d="M169.26,152.23a4.11,4.11,0,0,0-3,1A8.1,8.1,0,0,0,169.26,152.23Z" style="opacity:0.2"></path><path d="M169.45,153a3.37,3.37,0,0,0-2.39,1.54A6.68,6.68,0,0,0,169.45,153Z" style="opacity:0.2"></path><path d="M169.65,157.6a1.17,1.17,0,0,0-1.61.88A3.61,3.61,0,0,1,169.65,157.6Z" style="opacity:0.2"></path><path d="M173.89,144.62a42.14,42.14,0,0,0-7.64,1.51C170.54,145.42,173.89,144.62,173.89,144.62Z" style="opacity:0.2"></path><path d="M175.17,145.11s-5.82,1.2-8.38,2.62A74.79,74.79,0,0,0,175.17,145.11Z" style="opacity:0.2"></path><path d="M159.47,157.51c3-.3,1.66-4.89.5-5.93,2.33-1,4.29-4.91,2.66-7,8.63.67,13.56-.25,14.22-8-2.47.5-5.07-2-8.39.33a3.91,3.91,0,0,0-2-5.37s-.54,5-4.33,5.75-7.8,3.41-8.05,6.21c-.9-2.31-1.83-2.46-1.83-2.46a6.29,6.29,0,0,1,0,5.56c-1.42,3.19,1,4.24,1,4.24s-3.1,0-1.15,4.18C153.54,157.94,158.8,161.69,159.47,157.51Z" style="fill:#fff"></path><path d="M155.51,159.23a6.59,6.59,0,0,0,4.12,2.86c2.25.47,3.22-1.58,2.47-3.63-.68-1.84-2.66-4.3-4.86-3.85A2.94,2.94,0,0,0,155.51,159.23Z" style="fill:#b55b52"></path><polygon points="124.15 390.08 108.94 385.26 110.38 380.72 127.47 384.53 124.15 390.08" style="fill:#407BFF"></polygon><polygon points="124.15 390.08 108.94 385.26 110.38 380.72 127.47 384.53 124.15 390.08" style="opacity:0.30000000000000004"></polygon><polygon points="170.27 398.74 155.34 398.98 155.26 394.15 171.23 393.64 170.27 398.74" style="fill:#407BFF"></polygon><polygon points="170.27 398.74 155.34 398.98 155.26 394.15 171.23 393.64 170.27 398.74" style="opacity:0.30000000000000004"></polygon><path d="M169.87,152.31c.09.59.47,1,.86,1s.63-.58.54-1.17-.47-1-.86-1S169.78,151.72,169.87,152.31Z" style="fill:#263238"></path><path d="M176.54,151.32c.09.59.47,1,.86,1s.63-.58.54-1.17-.47-1-.86-1S176.45,150.73,176.54,151.32Z" style="fill:#263238"></path><path d="M174.47,151.92a21,21,0,0,0,3.57,4.63,3.44,3.44,0,0,1-2.74.95Z" style="fill:#a02724"></path><path d="M173.13,159.77a4.87,4.87,0,0,1-3.77-1,.17.17,0,1,1,.23-.26,4.72,4.72,0,0,0,4.21.72.17.17,0,0,1,.21.12.17.17,0,0,1-.12.22A5.43,5.43,0,0,1,173.13,159.77Z" style="fill:#263238"></path><path d="M166.31,150.76a.33.33,0,0,1-.17,0,.34.34,0,0,1-.16-.47,3.49,3.49,0,0,1,2.54-1.94.36.36,0,0,1,.39.31.36.36,0,0,1-.31.39h0a2.73,2.73,0,0,0-2,1.56A.38.38,0,0,1,166.31,150.76Z" style="fill:#fff"></path><path d="M177.82,148.48a.35.35,0,0,1-.3-.14,2.78,2.78,0,0,0-2.23-1.2.35.35,0,0,1,0-.7,3.48,3.48,0,0,1,2.83,1.48.35.35,0,0,1-.07.49A.37.37,0,0,1,177.82,148.48Z" style="fill:#fff"></path><path d="M118.22,399.11a8.62,8.62,0,0,1-1.64-1.07.16.16,0,0,1-.06-.18.18.18,0,0,1,.15-.13c.31,0,3.1-.35,3.66.38a.55.55,0,0,1,.06.58,1.06,1.06,0,0,1-.72.68A2.25,2.25,0,0,1,118.22,399.11ZM117.14,398a3.56,3.56,0,0,0,2.44,1,.7.7,0,0,0,.48-.47c0-.13,0-.19,0-.23C119.76,398,118.26,397.94,117.14,398Z" style="fill:#407BFF"></path><path d="M116.61,398.07a.23.23,0,0,1-.07-.07.19.19,0,0,1,0-.18c0-.08,1.11-1.93,2.19-2.21a.94.94,0,0,1,.77.12h0a.59.59,0,0,1,.31.65c-.21.81-2.24,1.65-3.11,1.7Zm2.63-2.08a.63.63,0,0,0-.43,0c-.69.18-1.43,1.2-1.77,1.73.93-.2,2.3-.91,2.43-1.39,0,0,0-.14-.16-.27h0Z" style="fill:#407BFF"></path><path d="M165.8,408.69a.18.18,0,0,1-.12-.13.2.2,0,0,1,.09-.19c.33-.17,3.29-1.73,4.19-1.24a.54.54,0,0,1,.3.46h0a1,1,0,0,1-.32.86c-.8.73-2.92.47-4.12.25Zm3.93-1.28c-.56-.19-2.16.45-3.33,1,1.64.25,2.86.16,3.31-.25a.67.67,0,0,0,.2-.57.19.19,0,0,0-.11-.18Z" style="fill:#407BFF"></path><path d="M165.8,408.69l-.05,0a.16.16,0,0,1-.07-.16c0-.08.17-2.08,1.1-2.86a1.3,1.3,0,0,1,1-.32h0c.48,0,.63.28.66.48.15.84-1.59,2.46-2.48,2.88A.15.15,0,0,1,165.8,408.69Zm2.1-3-.18,0h0a.94.94,0,0,0-.71.23,4.1,4.1,0,0,0-.94,2.3c.9-.56,2.08-1.84,2-2.34C168.06,405.84,168.05,405.76,167.9,405.71Zm-.16-.2Z" style="fill:#407BFF"></path><path d="M101.65,161.26a98.71,98.71,0,0,1,1.61-31.77l1,.23a97.87,97.87,0,0,0-1.59,31.45Zm5-39.62-.93-.34A57.49,57.49,0,0,1,109,114l.89.47A57.57,57.57,0,0,0,106.63,121.64Z" style="fill:#407BFF"></path><path d="M136.91,96.4c33.28-6.65,78.21,31.54,100.37,85.29s13.15,102.72-20.11,109.36S139,259.51,116.8,205.76,103.65,103,136.91,96.4Zm-2.62,105.87c19.58,47.51,57,81.73,83.46,76.43s32.12-48.1,12.54-95.61-57-81.74-83.47-76.44S114.7,154.75,134.29,202.27ZM107.6,176.4c2.08-3.65,14.39-8.51,17.11-5.8m107,100.07c3.13-.38,6.21,7.16,4.12,9.95M185.3,120.07c2.1-.57,3.94-3.46,4.19-5.15" style="fill:#fff"></path><path d="M209.45,292.3c-32.37,0-72.59-36.57-93.11-86.35-14.28-34.62-16.09-69.31-4.74-90.53,5.67-10.6,14.39-17.35,25.21-19.51h0c33.44-6.68,78.72,31.71,100.93,85.59,14.27,34.63,16.09,69.32,4.73,90.53a42.4,42.4,0,0,1-6.24,8.86l0,0h0a34.67,34.67,0,0,1-18.93,10.62A39.73,39.73,0,0,1,209.45,292.3ZM108.16,176.45a169.29,169.29,0,0,0,9.1,29.12c22,53.45,66.81,91.58,99.81,85a33.75,33.75,0,0,0,18.39-10.31c1-1.53.41-4.69-.81-6.79-.84-1.46-1.85-2.3-2.75-2.3h0a25.47,25.47,0,0,1-14.05,8c-26.69,5.35-64.38-29.09-84-76.73a164.61,164.61,0,0,1-9.57-31.6c-.64-.52-1.93-.67-3.67-.44C116,171,109.76,174.08,108.16,176.45Zm26.59,25.63c19.47,47.22,56.66,81.38,82.91,76.13,7.72-1.54,13.74-6.26,17.9-14,9.62-18,7.42-49-5.74-80.89-19.47-47.23-56.65-81.38-82.9-76.14-7.73,1.54-13.76,6.27-17.92,14C119.39,139.16,121.59,170.15,134.75,202.08Zm97.92,68.2a5.46,5.46,0,0,1,2.85,2.68A10.65,10.65,0,0,1,237,278.5a41.62,41.62,0,0,0,4.61-6.94c11.22-20.95,9.39-55.32-4.77-89.68-11.27-27.34-28.5-50.67-47-66.06a8.5,8.5,0,0,1-3.55,4.42c17.09,13.75,33.59,36.16,44.52,62.66,13.27,32.19,15.45,63.51,5.7,81.74A33.82,33.82,0,0,1,232.67,270.28ZM137,96.89c-10.52,2.1-19,8.67-24.53,19-7.87,14.71-9.32,36-4.58,59.29,2.44-2.6,8.45-5.21,12.55-5.76a7.72,7.72,0,0,1,3.57.18c-3.54-19.6-2.25-37,4.1-48.9,4.25-7.94,10.68-13,18.6-14.55,11.59-2.31,25.26,2.87,38.62,13.38,1.68-.59,3.23-2.91,3.6-4.41C171.46,100.89,152.87,93.72,137,96.89Z" style="fill:#407BFF"></path><polygon points="182.08 153.25 213.25 150.03 212.51 144.37 181.56 149.25 182.08 153.25" style="fill:#407BFF"></polygon><polygon points="199.56 146.41 200.21 151.37 213.24 150.03 212.5 144.37 199.56 146.41" style="opacity:0.2"></polygon><path d="M201.89,151.08a1,1,0,0,0,1,.83l36.15-3.34c1.44-.19.21-9.6-1.22-9.41l-35.81,6a1,1,0,0,0-.79,1.07Z" style="fill:#407BFF"></path><path d="M182.19,154.07h0a.62.62,0,0,0,.54-.69l-.58-4.42a.63.63,0,0,0-.7-.54h0a.63.63,0,0,0-.53.7l.58,4.42A.61.61,0,0,0,182.19,154.07Z" style="fill:#407BFF"></path></g><g id="Plant"><path d="M312.61,305.21a1,1,0,0,1,1.95.49,17.42,17.42,0,0,1-2,9c-3.16,5.43-9.73,7.36-9.73,7.36Z" style="fill:#407BFF"></path><path d="M304.51,333.81a25.27,25.27,0,0,1-15.45-5,31.85,31.85,0,0,1-8.51-11.16,1,1,0,0,1,1.58-1.29Z" style="fill:#407BFF"></path><path d="M323.41,346.4c-5.79,8.52-16.8,10.91-16.8,10.91L325.87,329a1,1,0,0,1,1.91.56C327.85,333.49,327.34,340.61,323.41,346.4Z" style="fill:#407BFF"></path><path d="M306.37,392.17h-.06a.44.44,0,0,1-.38-.51c3-21.24-2.49-77.9-8.93-91.86a.45.45,0,1,1,.82-.38c6.49,14,12,71,9,92.37A.45.45,0,0,1,306.37,392.17Z" style="fill:#263238"></path><path d="M293.82,367h25.1a2.26,2.26,0,0,1,2.26,2.45l-3.55,44.85a2.26,2.26,0,0,1-2.26,2.08h-18a2.26,2.26,0,0,1-2.26-2.08l-3.56-44.85A2.27,2.27,0,0,1,293.82,367Z" style="fill:#407BFF"></path><path d="M293.68,302.11a4.5,4.5,0,1,0,1.22-6.24A4.5,4.5,0,0,0,293.68,302.11Z" style="fill:#fff"></path><path d="M297.42,304.7a5.1,5.1,0,1,1,2.84-.87A5.1,5.1,0,0,1,297.42,304.7Zm0-9a3.89,3.89,0,1,0,3.24,1.72A3.91,3.91,0,0,0,297.4,295.71Z" style="fill:#407BFF"></path><path d="M297.73,314.88a1.9,1.9,0,1,0,1.71-2.08A1.9,1.9,0,0,0,297.73,314.88Z" style="fill:#263238"></path><path d="M302.63,353.47a1.9,1.9,0,1,0,1.9-1.9A1.9,1.9,0,0,0,302.63,353.47Z" style="fill:#263238"></path><path d="M308.22,341.15a2.82,2.82,0,1,0-3.2-2.4A2.83,2.83,0,0,0,308.22,341.15Z" style="fill:#263238"></path></g></svg>