<svg xmlns="http://www.w3.org/2000/svg" viewBox="0 0 500 500"><g id="background-complete"><rect y="382.4" width="500" height="0.25" style="fill:#ebebeb"></rect><rect x="300.71" y="391.07" width="33.12" height="0.25" style="fill:#ebebeb"></rect><rect x="395.2" y="399.15" width="8.69" height="0.25" style="fill:#ebebeb"></rect><rect x="335.59" y="395.4" width="19.19" height="0.25" style="fill:#ebebeb"></rect><rect x="52.46" y="390.89" width="43.19" height="0.25" style="fill:#ebebeb"></rect><rect x="244.67" y="390.89" width="6.33" height="0.25" style="fill:#ebebeb"></rect><rect x="141.69" y="395.24" width="45.31" height="0.25" style="fill:#ebebeb"></rect><path d="M237,337.8H43.91a5.71,5.71,0,0,1-5.7-5.71V60.66A5.71,5.71,0,0,1,43.91,55H237a5.71,5.71,0,0,1,5.71,5.71V332.09A5.71,5.71,0,0,1,237,337.8ZM43.91,55.2a5.46,5.46,0,0,0-5.45,5.46V332.09a5.46,5.46,0,0,0,5.45,5.46H237a5.47,5.47,0,0,0,5.46-5.46V60.66A5.47,5.47,0,0,0,237,55.2Z" style="fill:#ebebeb"></path><path d="M453.31,337.8H260.21a5.72,5.72,0,0,1-5.71-5.71V60.66A5.72,5.72,0,0,1,260.21,55h193.1A5.71,5.71,0,0,1,459,60.66V332.09A5.71,5.71,0,0,1,453.31,337.8ZM260.21,55.2a5.47,5.47,0,0,0-5.46,5.46V332.09a5.47,5.47,0,0,0,5.46,5.46h193.1a5.47,5.47,0,0,0,5.46-5.46V60.66a5.47,5.47,0,0,0-5.46-5.46Z" style="fill:#ebebeb"></path><rect x="73.16" y="86.56" width="141.66" height="159.59" style="fill:#ebebeb"></rect><rect x="80.66" y="95" width="126.67" height="142.71" style="fill:#fafafa"></rect><polygon points="124.55 237.71 103.14 237.71 123.3 95 144.71 95 124.55 237.71" style="fill:#fff"></polygon><polygon points="168.34 237.71 157.63 237.71 177.79 95 188.5 95 168.34 237.71" style="fill:#fff"></polygon><rect x="138.95" y="95" width="10.09" height="142.71" style="fill:#ebebeb"></rect><rect x="149.04" y="95" width="2.25" height="142.71" transform="translate(300.33 332.71) rotate(180)" style="fill:#e0e0e0"></rect><rect x="214.83" y="86.56" width="1.61" height="159.59" transform="translate(431.26 332.71) rotate(180)" style="fill:#e0e0e0"></rect><rect x="61.44" y="262.44" width="30.43" height="106.44" rx="12" style="fill:#f5f5f5"></rect><rect x="75.09" y="266" width="20.57" height="99.33" rx="9.29" style="fill:#ebebeb"></rect><rect x="83.55" y="262.44" width="30.43" height="106.44" rx="12" style="fill:#f5f5f5"></rect><rect x="97.19" y="266" width="20.56" height="99.33" rx="9.29" style="fill:#ebebeb"></rect><rect x="105.65" y="262.44" width="30.43" height="106.44" rx="12" style="fill:#f5f5f5"></rect><rect x="119.29" y="266" width="20.56" height="99.33" rx="9.29" style="fill:#ebebeb"></rect><rect x="127.75" y="262.44" width="30.43" height="106.44" rx="12" style="fill:#f5f5f5"></rect><rect x="141.39" y="266" width="20.56" height="99.33" rx="9.29" style="fill:#ebebeb"></rect><rect x="149.85" y="262.44" width="30.43" height="106.44" rx="12" style="fill:#f5f5f5"></rect><rect x="163.5" y="266" width="20.57" height="99.33" rx="9.29" style="fill:#ebebeb"></rect><rect x="171.96" y="262.44" width="30.43" height="106.44" rx="12" style="fill:#f5f5f5"></rect><rect x="185.6" y="266" width="20.57" height="99.33" rx="9.29" style="fill:#ebebeb"></rect><rect x="194.06" y="262.44" width="30.43" height="106.44" rx="12" style="fill:#f5f5f5"></rect><path d="M226.53,357.06H200.05a2,2,0,0,1-2-2h0a2,2,0,0,1,2-2h26.48a2,2,0,0,1,2,2h0A2,2,0,0,1,226.53,357.06Z" style="fill:#f5f5f5"></path><path d="M226.53,280.89H200.05a2,2,0,0,1-2-2h0a2,2,0,0,1,2-2h26.48a2,2,0,0,1,2,2h0A2,2,0,0,1,226.53,280.89Z" style="fill:#f5f5f5"></path><polygon points="442.39 204.78 362.39 204.78 369.48 139 435.3 139 442.39 204.78" style="fill:#ebebeb"></polygon><polygon points="424.83 204.78 411.08 204.78 408.17 139 420.86 139 424.83 204.78" style="fill:#f5f5f5"></polygon><rect x="398.39" y="204.78" width="8" height="177.62" style="fill:#f0f0f0"></rect><rect x="394.92" y="271.42" width="14.94" height="14.94" rx="3.54" style="fill:#f0f0f0"></rect><path d="M415.05,382.4H389.72a5.4,5.4,0,0,1,5.4-5.4h14.54a5.39,5.39,0,0,1,5.39,5.4Z" style="fill:#f0f0f0"></path><rect x="398.39" y="204.78" width="8" height="4.89" style="fill:#e0e0e0"></rect><rect x="278.47" y="97.67" width="60.44" height="135.11" style="fill:#f0f0f0"></rect><rect x="338.92" y="97.67" width="2" height="135.11" transform="translate(679.83 330.44) rotate(180)" style="fill:#e0e0e0"></rect><rect x="288.7" y="105" width="40" height="120.44" style="fill:#fafafa"></rect><path d="M315.76,164a7.17,7.17,0,1,1-8.27-5.86A7.18,7.18,0,0,1,315.76,164Z" style="fill:#f0f0f0"></path><path d="M311,136.08a7.17,7.17,0,1,1-8.27-5.87A7.16,7.16,0,0,1,311,136.08Z" style="fill:#f0f0f0"></path><path d="M320.51,192a7.17,7.17,0,1,1-8.26-5.87A7.15,7.15,0,0,1,320.51,192Z" style="fill:#f0f0f0"></path></g><g id="background-simple"><path d="M219.75,122.91c-38.91-3.41-75.22-18.82-110.58,8.57-27.88,21.59-35.08,60.71-19.57,92,18.11,36.5,56.93,42.92,88.81,62,28.4,17,63.59,46.23,97.92,24.71,29.2-18.3,22.9-63.17,56.05-82.37,34.28-19.87,63.19-19.68,65.38-70.72,1.63-37.94-21.55-74.7-63.18-71.69C293.28,88.42,264.55,126.82,219.75,122.91Z" style="fill:#407BFF"></path><path d="M219.75,122.91c-38.91-3.41-75.22-18.82-110.58,8.57-27.88,21.59-35.08,60.71-19.57,92,18.11,36.5,56.93,42.92,88.81,62,28.4,17,63.59,46.23,97.92,24.71,29.2-18.3,22.9-63.17,56.05-82.37,34.28-19.87,63.19-19.68,65.38-70.72,1.63-37.94-21.55-74.7-63.18-71.69C293.28,88.42,264.55,126.82,219.75,122.91Z" style="fill:#fff;opacity:0.9"></path></g><g id="Shadow"><ellipse id="path" cx="250" cy="416.24" rx="193.89" ry="11.32" style="fill:#f5f5f5"></ellipse></g><g id="character-2"><path d="M304.11,157.68a4,4,0,0,1,1.4-1.87,3.47,3.47,0,0,1-.2-2.79,3.52,3.52,0,0,1,1.82-2,3.05,3.05,0,0,1,2.59-5,2.86,2.86,0,0,1,.1-1,2.9,2.9,0,0,1,3.53-1.94,2.78,2.78,0,0,1-.09-1.85,2.88,2.88,0,0,1,3.58-1.92l.11,0a3,3,0,0,1,.11-.79,2.89,2.89,0,0,1,3.58-1.93,3.24,3.24,0,0,1,.6.27,2.48,2.48,0,0,1,4.45-1.73,2.48,2.48,0,0,1,4.52-.19,1.55,1.55,0,0,1,.68-.3,1.7,1.7,0,0,1,2,1.36,1.41,1.41,0,0,1,0,.41,2.66,2.66,0,0,1,4.48,1.58s0,0,0,0l.2-.05a3.09,3.09,0,0,1,3.44,2.65,3,3,0,0,1,0,.85.5.5,0,0,1,.13,0,3.08,3.08,0,0,1,3.44,2.65,3,3,0,0,1-.41,1.93,3.09,3.09,0,0,1,3.39,2.65,3.05,3.05,0,0,1-.48,2.06,3.06,3.06,0,0,1,1.19,5.68,3,3,0,0,1-.07,5.07,3,3,0,0,1,1.05,1.92,3.08,3.08,0,0,1-2.64,3.44,3.11,3.11,0,0,1-2-.44,3.06,3.06,0,0,1-5.26,1.42,3.06,3.06,0,0,1-5.54.78,3,3,0,0,1-2,1.11,3,3,0,0,1-2.44-.77h0a3.06,3.06,0,0,1-5.91-1.54,3.05,3.05,0,0,1-4.48-1.14,3.05,3.05,0,0,1-3.22.75,3.09,3.09,0,0,1-2-2.69,3,3,0,0,1-4.69-1.55,4,4,0,0,1-4.94-5.18Z" style="fill:#263238"></path><path d="M312,189.82c0,1.34,0,2.51-.11,3.75s-.16,2.43-.27,3.65c-.22,2.42-.58,4.83-1,7.23a77.48,77.48,0,0,1-3.76,14.22l-.32.87c-.12.31-.17.49-.44,1.09a7.07,7.07,0,0,1-2.23,2.75,7.39,7.39,0,0,1-3,1.31,10,10,0,0,1-2.61.19,23.39,23.39,0,0,1-7.87-2.11,63.93,63.93,0,0,1-12.53-7.56l2.18-3.44c2,1,4.15,1.95,6.24,2.82a59.16,59.16,0,0,0,6.3,2.3,18.51,18.51,0,0,0,5.77,1c.77,0,1.2-.3,1.07-.29s-.1.08-.1,0l.41-1.36a93.16,93.16,0,0,0,2.84-13.09c.32-2.23.55-4.47.76-6.71s.34-4.56.41-6.64Z" style="fill:#ffb573"></path><path d="M305.72,180.41c-3.24,1.08-4.57,14.85-4.57,14.85l9.56,5.53s7.73-14.35,4.93-17.8S310.45,178.83,305.72,180.41Z" style="fill:#407BFF"></path><path d="M305.72,180.41c-3.24,1.08-4.57,14.85-4.57,14.85l9.56,5.53s7.73-14.35,4.93-17.8S310.45,178.83,305.72,180.41Z" style="opacity:0.7000000000000001"></path><polygon points="306.24 183.43 304.7 197.32 310.07 200.42 306.24 183.43" style="opacity:0.2"></polygon><path d="M281.48,212.22,276,204.9l-2.21,7.87s3.69,3.62,6.88,2.62Z" style="fill:#ffb573"></path><polygon points="270.59 202.4 267.76 208.65 273.81 212.77 276.02 204.9 270.59 202.4" style="fill:#ffb573"></polygon><polygon points="335.78 408.03 327.74 408.03 325.87 389.41 333.91 389.41 335.78 408.03" style="fill:#ffb573"></polygon><polygon points="400.11 374.35 393.36 378.72 381.07 364.51 387.81 360.13 400.11 374.35" style="fill:#ffb573"></polygon><path d="M391.78,377.89l6.77-6a.63.63,0,0,1,.84,0l5.5,4.68a1.28,1.28,0,0,1,0,1.92c-2.39,2.05-3.65,2.91-6.63,5.54-1.83,1.62-4.34,4.17-6.86,6.41s-4.88-.15-4-1.3c3.82-5.19,3.33-7.25,3.74-10A2.07,2.07,0,0,1,391.78,377.89Z" style="fill:#263238"></path><path d="M326.8,407.1h9a.64.64,0,0,1,.64.55l1,7.14a1.29,1.29,0,0,1-1.29,1.43c-3.15-.05-4.67-.24-8.64-.24-2.44,0-9.46.26-12.83.26s-3.56-3.34-2.15-3.64c6.3-1.36,10.74-3.22,12.86-5A2.14,2.14,0,0,1,326.8,407.1Z" style="fill:#263238"></path><g style="opacity:0.2"><polygon points="325.87 389.42 326.83 399.01 334.88 399.01 333.91 389.42 325.87 389.42"></polygon><polygon points="387.82 360.14 381.07 364.51 387.41 371.84 394.16 367.46 387.82 360.14"></polygon></g><path d="M305.72,180.41S302,182,313.07,228.52l32.56-2.36c-1.51-13.22-2.12-21.39,2.24-49a95.51,95.51,0,0,0-14-.81,103.32,103.32,0,0,0-14.79,1.07C312.81,178.41,305.72,180.41,305.72,180.41Z" style="fill:#407BFF"></path><path d="M305.72,180.41S302,182,313.07,228.52l32.56-2.36c-1.51-13.22-2.12-21.39,2.24-49a95.51,95.51,0,0,0-14-.81,103.32,103.32,0,0,0-14.79,1.07C312.81,178.41,305.72,180.41,305.72,180.41Z" style="opacity:0.7000000000000001"></path><path d="M331.23,159.75c-.58,4.83-.88,13.61,2.68,16.55,0,0-1,4.92-9.79,5.56-9.72.71-5-4.49-5-4.49,5.22-1.65,4.79-5.58,3.6-9.21Z" style="fill:#ffb573"></path><path d="M327.76,163.18l-5,5a14.44,14.44,0,0,1,.65,2.59c2-.44,4.63-2.87,4.69-5A7.18,7.18,0,0,0,327.76,163.18Z" style="opacity:0.2"></path><path d="M336.67,151.72c-1.82,7.77-2.42,11.1-7.08,14.45-7,5-16.14,1.1-16.67-7-.48-7.34,2.58-18.81,10.79-20.62A10.88,10.88,0,0,1,336.67,151.72Z" style="fill:#ffb573"></path><path d="M313.07,228.52s-1.83,62.23.47,86.64c2.39,25.39,11.57,82,11.57,82H336s-1.49-56.47-2.35-81.51c-.94-27.31,3.28-88.86,3.28-88.86Z" style="fill:#407BFF"></path><polygon points="336.92 397.55 324.16 397.55 323.23 393.48 337.51 392.98 336.92 397.55" style="fill:#263238"></polygon><path d="M328.23,242.87c-6.83,16.67,1.7,45.56,5.32,56.27.26-16.51,1.25-36.73,2.08-51.59C333.82,239.31,331.38,235.18,328.23,242.87Z" style="opacity:0.2"></path><path d="M321.67,227.9s12,63.67,19.11,83.88c8.39,24,44,59.55,44,59.55l9.2-6s-25.88-40.94-31.87-53.47c-12.79-26.73-6.54-68.41-16.47-85.74Z" style="fill:#407BFF"></path><polygon points="395.34 365.17 383.93 372.56 380.39 369.76 393.42 360.45 395.34 365.17" style="fill:#263238"></polygon><path d="M323.28,151.67c-.11.64-.53,1.1-.95,1s-.67-.65-.56-1.29.54-1.1,1-1S323.39,151,323.28,151.67Z" style="fill:#263238"></path><path d="M316.06,150.44c-.11.64-.54,1.1-.95,1s-.67-.64-.56-1.28.53-1.1.95-1S316.17,149.8,316.06,150.44Z" style="fill:#263238"></path><path d="M315.68,149.22l-1.46-.71S314.8,149.85,315.68,149.22Z" style="fill:#263238"></path><path d="M318.61,152a17.59,17.59,0,0,1-3,3.69,2.81,2.81,0,0,0,2.21.82Z" style="fill:#ed893e"></path><path d="M320.89,159.57a5.34,5.34,0,0,1-.95-.09.19.19,0,0,1,.06-.37,5.11,5.11,0,0,0,4.47-1.28.2.2,0,0,1,.27,0,.19.19,0,0,1,0,.27A5.32,5.32,0,0,1,320.89,159.57Z" style="fill:#263238"></path><path d="M314,141.84l13.39-4.9a2.48,2.48,0,0,1,.54.94,2.71,2.71,0,0,1,2.07-1,2.56,2.56,0,0,1,1,.18,2.39,2.39,0,0,1,1.46.74,2.47,2.47,0,0,1,.63,1.31,2.73,2.73,0,0,1,1.67,2.51,1.79,1.79,0,0,1,0,.23,2.49,2.49,0,0,1,.8.17,2.72,2.72,0,0,1,1.59,3.35,2.72,2.72,0,0,1,1,3.28l-.05.1a2.75,2.75,0,0,1,.62,3,2.79,2.79,0,0,1-1.18,1.35c0,.12.06.25.08.38a2.6,2.6,0,0,1,1.05.19,2.74,2.74,0,0,1-2,5.09,2.69,2.69,0,0,1-1.69-2.18,2.84,2.84,0,0,1-1.06-.2,2.73,2.73,0,0,1-1.65-3.14,2.72,2.72,0,0,1-3.55-3l-.28-.08a2.75,2.75,0,0,1-1.53-3.57,2.79,2.79,0,0,1,.52-.82,2.73,2.73,0,0,1-1.72-1.72,2,2,0,0,1-.24.27,2.46,2.46,0,0,1-3.07.24l-.17.19a2.43,2.43,0,0,1-3.95-.85,2.45,2.45,0,0,1-4.2-2Z" style="fill:#263238"></path><path d="M337.57,159.28A5.82,5.82,0,0,1,334,162c-2,.51-2.93-1.27-2.34-3.12.53-1.66,2.2-3.93,4.17-3.62A2.62,2.62,0,0,1,337.57,159.28Z" style="fill:#ffb573"></path><path d="M326.43,150.69a.36.36,0,0,1-.35-.27c-.52-1.68-2.67-2.4-2.69-2.41a.39.39,0,0,1-.25-.48.38.38,0,0,1,.48-.24c.11,0,2.55.85,3.19,2.91a.4.4,0,0,1-.26.48Z" style="fill:#263238"></path><path d="M314.46,146.73a.38.38,0,0,1-.19-.71,3.75,3.75,0,0,1,3.47-.23.38.38,0,1,1-.34.68h0a3,3,0,0,0-2.75.21A.45.45,0,0,1,314.46,146.73Z" style="fill:#263238"></path><path d="M352.3,186.18c1.34,4.78,2.39,9.51,3.31,14.35.48,2.41.87,4.85,1.21,7.3.18,1.22.32,2.46.46,3.69l.18,1.87,0,.47,0,.29c0,.23,0,.47,0,.7a5.22,5.22,0,0,1-1.14,3,5.91,5.91,0,0,1-2,1.52,8,8,0,0,1-1.56.53,13.22,13.22,0,0,1-2.47.3,28.32,28.32,0,0,1-4.1-.21,66.4,66.4,0,0,1-7.45-1.36q-3.62-.89-7.14-1.92c-2.35-.74-4.66-1.47-7-2.34l1.08-3.93c2.34.39,4.71.82,7.07,1.17s4.71.73,7.05,1,4.66.52,6.89.59a24.37,24.37,0,0,0,3.13-.08,5,5,0,0,0,1.11-.23c.14,0,.17-.08.14-.07a1.53,1.53,0,0,0-.54.43,2.43,2.43,0,0,0-.53,1.36,2.09,2.09,0,0,0,0,.25,1.08,1.08,0,0,1,0-.16l-.07-.43-.28-1.73-.64-3.46c-.45-2.31-.95-4.62-1.45-6.94s-1.07-4.62-1.63-6.93-1.14-4.64-1.69-6.9Z" style="fill:#ffb573"></path><path d="M347.87,177.11c3.33.76,8.07,11.71,8.07,11.71l-12,10s-5.3-9-4.23-13.36C340.82,180.93,344.06,176.25,347.87,177.11Z" style="fill:#407BFF"></path><path d="M347.87,177.11c3.33.76,8.07,11.71,8.07,11.71l-12,10s-5.3-9-4.23-13.36C340.82,180.93,344.06,176.25,347.87,177.11Z" style="opacity:0.7000000000000001"></path><path d="M389.32,381.46h-.1a1.08,1.08,0,0,1-.91-.55.68.68,0,0,1-.07-.65c.42-.93,3.3-1.37,3.62-1.42a.2.2,0,0,1,.19.3C391.45,380,390.32,381.39,389.32,381.46Zm2.14-2.17c-1.14.21-2.65.63-2.87,1.13a.25.25,0,0,0,0,.28.72.72,0,0,0,.6.38C389.77,381.09,390.6,380.43,391.46,379.29Z" style="fill:#407BFF"></path><path d="M391.64,379.26c-1,.07-2.86-.27-3.28-1a.66.66,0,0,1,.13-.82,1,1,0,0,1,.77-.35c1.17,0,2.71,1.73,2.77,1.8a.2.2,0,0,1,0,.19.2.2,0,0,1-.14.13Zm-2.44-1.77a.61.61,0,0,0-.43.21c-.16.18-.13.3-.08.38.28.48,1.83.86,2.8.81-.54-.55-1.53-1.41-2.23-1.41Z" style="fill:#407BFF"></path><path d="M323.78,408.5a3,3,0,0,1-1.95-.49,1.05,1.05,0,0,1-.34-.93.6.6,0,0,1,.32-.5c1-.54,4.19,1.09,4.55,1.28a.2.2,0,0,1,.1.2.19.19,0,0,1-.15.16A14.16,14.16,0,0,1,323.78,408.5Zm-1.43-1.66a.74.74,0,0,0-.36.07.21.21,0,0,0-.12.21.68.68,0,0,0,.21.61c.49.43,1.81.51,3.6.22A10.43,10.43,0,0,0,322.35,406.84Z" style="fill:#407BFF"></path><path d="M326.27,408.22l-.08,0c-.95-.43-2.85-2.16-2.7-3.07,0-.22.19-.49.71-.54a1.38,1.38,0,0,1,1.06.33c1,.84,1.19,3,1.2,3.09a.18.18,0,0,1-.08.18A.2.2,0,0,1,326.27,408.22ZM324.36,405h-.12c-.34,0-.37.17-.37.22-.09.54,1.19,1.91,2.17,2.5a4.34,4.34,0,0,0-1-2.48A1,1,0,0,0,324.36,405Z" style="fill:#407BFF"></path><path d="M322.9,150.45l-1.46-.7S322,151.08,322.9,150.45Z" style="fill:#263238"></path><path d="M346,224.21l1,2.85c.13.22-.13.47-.5.5L313,230c-.29,0-.54-.11-.57-.29l-.51-2.9c0-.2.21-.39.53-.41l33-2.4A.6.6,0,0,1,346,224.21Z" style="fill:#fff"></path><path d="M341.82,228.22l.88-.07c.18,0,.31-.11.29-.22l-.69-3.76c0-.11-.18-.18-.36-.17l-.88.06c-.18,0-.31.12-.29.23l.69,3.75C341.48,228.15,341.64,228.23,341.82,228.22Z" style="fill:#407BFF"></path><path d="M315.52,230.13l.88-.06c.18,0,.31-.12.29-.23l-.69-3.75c0-.11-.18-.19-.36-.18l-.88.06c-.18,0-.31.12-.29.23l.69,3.75C315.18,230.06,315.34,230.14,315.52,230.13Z" style="fill:#407BFF"></path><path d="M328.67,229.17l.88-.06c.18,0,.31-.11.29-.22l-.69-3.76c0-.11-.18-.19-.36-.18l-.88.07c-.18,0-.31.11-.29.22l.69,3.76C328.33,229.11,328.49,229.19,328.67,229.17Z" style="fill:#407BFF"></path><polygon points="279.92 180.64 324.02 192.85 305.61 252.88 261.5 240.67 279.92 180.64" style="fill:#407BFF"></polygon><g style="opacity:0.30000000000000004"><polygon points="279.92 180.64 324.02 192.85 305.61 252.88 261.5 240.67 279.92 180.64"></polygon></g><polygon points="279.6 180.55 323.71 192.76 305.3 252.79 261.19 240.58 279.6 180.55" style="fill:#407BFF"></polygon><polygon points="321.07 194.22 304.95 246.79 264.88 235.7 281 183.13 321.07 194.22" style="fill:#fff"></polygon><path d="M288.59,185.45a5.89,5.89,0,0,1,6.11-1.75l1.75.48a1.8,1.8,0,0,0,1.83-.41,4.47,4.47,0,0,1,4.47-1,4.21,4.21,0,0,1,3.2,3.15,1.7,1.7,0,0,0,1.31,1.27l1.75.49a5.52,5.52,0,0,1,4.16,4.6.42.42,0,0,1,0,.22.59.59,0,0,1-.71.4l-23.56-6.52A.57.57,0,0,1,288.59,185.45Z" style="fill:#407BFF"></path><path d="M288.59,185.45a5.89,5.89,0,0,1,6.11-1.75l1.75.48a1.8,1.8,0,0,0,1.83-.41,4.47,4.47,0,0,1,4.47-1,4.21,4.21,0,0,1,3.2,3.15,1.7,1.7,0,0,0,1.31,1.27l1.75.49a5.52,5.52,0,0,1,4.16,4.6.42.42,0,0,1,0,.22.59.59,0,0,1-.71.4l-23.56-6.52A.57.57,0,0,1,288.59,185.45Z" style="fill:#fafafa;opacity:0.4"></path><polygon points="316.62 198.65 316.04 200.53 281.68 191.02 282.26 189.14 316.62 198.65" style="fill:#e0e0e0"></polygon><polygon points="315.22 203.2 314.65 205.08 282.2 196.1 282.77 194.21 315.22 203.2" style="fill:#e0e0e0"></polygon><polygon points="313.83 207.75 313.25 209.63 296.07 204.87 296.65 202.99 313.83 207.75" style="fill:#e0e0e0"></polygon><polygon points="293.88 202.22 293.3 204.11 284.22 201.59 284.79 199.71 293.88 202.22" style="fill:#e0e0e0"></polygon><polygon points="312.43 212.29 311.86 214.18 277.49 204.67 278.07 202.78 312.43 212.29" style="fill:#e0e0e0"></polygon><polygon points="311.04 216.84 310.46 218.73 280.54 210.44 281.12 208.56 311.04 216.84" style="fill:#e0e0e0"></polygon><polygon points="308.25 225.94 307.67 227.82 273.31 218.31 273.89 216.43 308.25 225.94" style="fill:#e0e0e0"></polygon><polygon points="306.85 230.49 306.28 232.37 277.24 224.34 277.82 222.45 306.85 230.49" style="fill:#e0e0e0"></polygon><path d="M283.32,238.41c-5.44,0-7.65-3-8.51-5-1.89-4.35-.39-10.85,3.15-13.65,2.24-1.76,4.82-1.72,7.27.12a.59.59,0,1,1-.71.94c-2.54-1.91-4.57-1.13-5.83-.13-2.85,2.25-4.66,8-2.8,12.25,1,2.39,3.6,5,9.9,4.08a9.07,9.07,0,0,0,7.58-5.83,11.25,11.25,0,0,0-2-10.83,8,8,0,0,0-8.06-2.55.59.59,0,0,1-.7-.44.6.6,0,0,1,.45-.71,9.12,9.12,0,0,1,9.19,2.92,12.51,12.51,0,0,1,2.22,12,10.21,10.21,0,0,1-8.51,6.6A18.43,18.43,0,0,1,283.32,238.41Z" style="fill:#407BFF"></path><path d="M284,236.12a.69.69,0,0,1-.24-.05.59.59,0,0,1-.3-.78A62.2,62.2,0,0,0,287.72,223c.06-.32.13-.68.18-1A27.41,27.41,0,0,1,277.76,232a.6.6,0,0,1-.81-.22.58.58,0,0,1,.23-.8,26.16,26.16,0,0,0,10.05-10.26,1,1,0,0,1,1.18-.51,1,1,0,0,1,.74,1,13.16,13.16,0,0,1-.28,2,63.49,63.49,0,0,1-4.34,12.51A.6.6,0,0,1,284,236.12Z" style="fill:#407BFF"></path><path d="M287.53,231.69a.6.6,0,0,1-.39-.15,71.6,71.6,0,0,0-7.83-5.9.6.6,0,0,1-.17-.82.6.6,0,0,1,.82-.17,72.72,72.72,0,0,1,8,6,.6.6,0,0,1,.06.83A.58.58,0,0,1,287.53,231.69Z" style="fill:#407BFF"></path><path d="M326.77,210.59l-6.51-5.74-.18,8.17s4.46,2.59,7.31.83Z" style="fill:#ffb573"></path><polygon points="313.51 204.45 313.73 211.3 320.08 213.02 320.26 204.85 313.51 204.45" style="fill:#ffb573"></polygon></g><g id="character-1"><path d="M181.82,107.61c2.6,2.69,5.2,10.25,3,13.84C180.52,117.15,179.89,106.68,181.82,107.61Z" style="fill:#263238"></path><polygon points="208.62 401.49 216.65 399.64 214.7 380.59 206.66 382.43 208.62 401.49" style="fill:#ffb573"></polygon><polygon points="150.93 407.84 159.16 407.84 161.49 388.79 153.26 388.79 150.93 407.84" style="fill:#ffb573"></polygon><path d="M160.23,406.89h-10a.72.72,0,0,0-.7.56l-1.7,7.31a1.19,1.19,0,0,0,1.19,1.46c3.23-.05,5.58-.24,9.65-.24,2.5,0,10,.26,13.49.26s3.94-3.42,2.53-3.73c-6.33-1.38-11.08-3.29-13.1-5.12A2,2,0,0,0,160.23,406.89Z" style="fill:#263238"></path><path d="M216.39,398.73l-8.77,2a.74.74,0,0,0-.57.71v7.49a1.18,1.18,0,0,0,1.47,1.16c3.15-.78,7.68-2,11.66-2.93,4.65-1.07,9.12-2,14.57-3.28,3.3-.75,3.48-4.29,2-4.28-6.59.08-12.15,1.39-18.32-.7A3.76,3.76,0,0,0,216.39,398.73Z" style="fill:#263238"></path><path d="M200,154.11c1.11,2,2.15,4.12,3.2,6.19s2.09,4.15,3.1,6.24c2,4.18,4,8.39,5.9,12.67,1,2.14,1.86,4.29,2.78,6.53a16.73,16.73,0,0,0,.74,1.75c.21.41.32.55.42.72s.37.35.94.38a6.08,6.08,0,0,0,2.17-.28,17.38,17.38,0,0,0,2.63-1c.45-.21.91-.44,1.36-.68l1.29-.7,4.4,4.33c-.47.63-.83,1.11-1.28,1.62a17.15,17.15,0,0,1-1.37,1.46,20.47,20.47,0,0,1-3.27,2.61,15,15,0,0,1-4.39,1.93,12.92,12.92,0,0,1-2.8.35,11.57,11.57,0,0,1-3.09-.46,11.9,11.9,0,0,1-5.17-3.25,17.69,17.69,0,0,1-2.86-4.15c-1-2-2.08-4-3.13-6l-6.41-12.2Q192,166,188.9,159.81Z" style="fill:#ffb573"></path><path d="M185.37,154.42c-2.27,7.55,13.2,28.08,13.2,28.08l15.82-10.18a99,99,0,0,0-10.79-18.47C197.21,145.65,187.86,146.13,185.37,154.42Z" style="fill:#407BFF"></path><path d="M195.51,164.75c4,1.83,8.29,8.61,8.92,14l-5.86,3.77a124.76,124.76,0,0,1-9.92-15.68C189.86,164.9,190.93,162.66,195.51,164.75Z" style="opacity:0.2"></path><polygon points="214.7 380.59 215.71 390.41 207.67 392.26 206.66 382.44 214.7 380.59" style="opacity:0.2"></polygon><polygon points="153.26 388.79 161.49 388.79 160.28 398.61 152.05 398.61 153.26 388.79" style="opacity:0.2"></polygon><path d="M148.72,151.2a183.77,183.77,0,0,1,5.17,27c.76,6.37,1.21,12.45,1.49,18,.66,12.93.35,22.79.73,26.12l43.9-3.39c6.08-46.84-5.28-70.86-5.28-70.86a86.32,86.32,0,0,0-10.5-1.22c-.75,0-1.5-.06-2.27-.07a162.34,162.34,0,0,0-18.67,1.44c-1.17.15-2.36.33-3.51.53C153.9,149.73,148.72,151.2,148.72,151.2Z" style="fill:#407BFF"></path><path d="M177.43,154.84c2.59,6.27.5,6.89,2.65,15.32,1.27,1.66,2.47,3.34,3.61,5q.87-2.77,1.5-5.5c-1.89-8.44-4.66-10.88-5.2-15.36" style="fill:#263238"></path><polygon points="179.64 158.1 181.27 153.86 178.21 152.79 176.08 154.32 179.64 158.1" style="fill:#263238"></polygon><path d="M159.78,148.73c9.73,8.61,17.81,17.42,23.91,26.45,3.1-9.76,3.81-19.22,1.55-28.29a86.61,86.61,0,0,1,9.49,1.16s11.36,24,5.28,70.86l-43.9,3.39c-.38-3.33-.07-13.19-.73-26.12-.28-5.51-.73-11.59-1.49-18a183.77,183.77,0,0,0-5.17-27S153.9,149.73,159.78,148.73Z" style="opacity:0.5"></path><path d="M163.73,127.06c1.58,5.91,3.5,16.81-.43,21.14a18.54,18.54,0,0,0,14.77,4.61c5.16-.52,5.18-4.14,3.89-6.05-6.81-1.08-7-6.06-6.12-10.81Z" style="fill:#ffb573"></path><path d="M178.21,152.79s-5.07,4.17-6.64,8.28c-3.55-1.51-10.13-8.9-10.2-13.39a9,9,0,0,1,2.84-2.08A50,50,0,0,0,178.21,152.79Z" style="fill:#407BFF"></path><path d="M178.21,152.79s-5.07,4.17-6.64,8.28c-3.55-1.51-10.13-8.9-10.2-13.39a9,9,0,0,1,2.84-2.08A50,50,0,0,0,178.21,152.79Z" style="fill:#fafafa;opacity:0.2"></path><path d="M178.21,152.79s6.09,2.71,8.81,7.46c3.57-1.51-2-13.08-4.61-14.15a5.27,5.27,0,0,0-3.58-.66S182,151.49,178.21,152.79Z" style="fill:#407BFF"></path><path d="M178.21,152.79s6.09,2.71,8.81,7.46c3.57-1.51-2-13.08-4.61-14.15a5.27,5.27,0,0,0-3.58-.66S182,151.49,178.21,152.79Z" style="fill:#fafafa;opacity:0.2"></path><path d="M168.67,130.69l7.17,5.25a18.52,18.52,0,0,0-.35,3.36c-2.59-.17-6.29-2.71-6.74-5.36A8.81,8.81,0,0,1,168.67,130.69Z" style="opacity:0.2"></path><path d="M162.4,118.09c1,8.08,1.25,12.87,5.64,16.73,6.6,5.79,16.39,1.29,17.78-7,1.25-7.44-.67-19.41-8.85-22A11.25,11.25,0,0,0,162.4,118.09Z" style="fill:#ffb573"></path><path d="M181.92,108.79c-2.15,1.61-8.31,1.09-12.1,0s-6.54,6.22-3.56,10.55,4.2,4.63.49,7-14.13-7.93-9-15.54c-.27-6.42,13.05-10.71,20.17-7.71S181.92,108.79,181.92,108.79Z" style="fill:#263238"></path><path d="M159.73,125.07a7.62,7.62,0,0,0,4.12,4.22c2.5,1,4.1-1.13,3.7-3.68-.36-2.29-2.1-5.58-4.76-5.54A3.51,3.51,0,0,0,159.73,125.07Z" style="fill:#ffb573"></path><path d="M218.31,387.87,204.7,391s-9.13-49.49-11.48-75c-.72-7.76-2.75-18.55-5.3-30.1-3.23-14.56-7.28-30.29-10.6-42.6-3.5-13-6.17-22.16-6.17-22.16L200,218.91s17.34,68.07,18.13,93.16C219,338.15,218.31,387.87,218.31,387.87Z" style="fill:#263238"></path><path d="M187.92,285.9c-3.23-14.56-7.28-30.29-10.6-42.6l3-6.48C187.47,245.27,189.33,271.58,187.92,285.9Z" style="opacity:0.2"></path><path d="M184.44,220.11s-3.27,70.45-6.8,94.33c-3.86,26.15-13.54,82.27-13.54,82.27H149s-.25-53,4.53-78.3c5.44-28.86,2.54-96.1,2.54-96.1Z" style="fill:#263238"></path><polygon points="165.91 397.04 148.16 397.04 148.22 391.74 168.05 391.39 165.91 397.04" style="fill:#407BFF"></polygon><polygon points="220.09 387.79 203.88 391.52 202.72 386.29 220.78 381.85 220.09 387.79" style="fill:#407BFF"></polygon><path d="M174.89,119.4c0,.66.43,1.17.86,1.14s.75-.6.7-1.26-.43-1.17-.86-1.14S174.84,118.74,174.89,119.4Z" style="fill:#263238"></path><path d="M182.37,118.82c0,.66.43,1.17.87,1.14s.74-.6.7-1.26-.43-1.17-.87-1.14S182.33,118.16,182.37,118.82Z" style="fill:#263238"></path><path d="M180.49,125.32a6,6,0,0,0-5.65,1.82c2.84.62,10.2-.1,10.2-.1A3.71,3.71,0,0,0,180.49,125.32Z" style="fill:#263238"></path><path d="M180,119.34a23,23,0,0,0,3.59,5.2,3.91,3.91,0,0,1-3.11.78Z" style="fill:#ed893e"></path><path d="M176.56,129.89a5,5,0,0,0,.86,0,.19.19,0,0,0,0-.38,5.23,5.23,0,0,1-4.42-1.72.19.19,0,0,0-.27,0,.2.2,0,0,0,0,.28A5.44,5.44,0,0,0,176.56,129.89Z" style="fill:#263238"></path><path d="M172.42,117.17a.42.42,0,0,0,.35-.18,3.15,3.15,0,0,1,2.4-1.49.39.39,0,0,0,.39-.39.38.38,0,0,0-.39-.39,3.89,3.89,0,0,0-3,1.85.39.39,0,0,0,.11.54A.6.6,0,0,0,172.42,117.17Z" style="fill:#263238"></path><path d="M185.42,116a.42.42,0,0,0,.22,0,.4.4,0,0,0,.15-.54,3.89,3.89,0,0,0-2.95-2,.4.4,0,0,0-.41.37.38.38,0,0,0,.37.41,3,3,0,0,1,2.31,1.59A.39.39,0,0,0,185.42,116Z" style="fill:#263238"></path><path d="M162.94,408.32a2.47,2.47,0,0,0,1.59-.42,1.17,1.17,0,0,0,.41-1,.63.63,0,0,0-.33-.55c-.9-.47-3.57,1.17-3.87,1.35a.19.19,0,0,0-.09.2.18.18,0,0,0,.14.16A9.56,9.56,0,0,0,162.94,408.32Zm1.24-1.7a.58.58,0,0,1,.25.05.25.25,0,0,1,.12.23.8.8,0,0,1-.27.71c-.45.37-1.53.42-2.92.14A8,8,0,0,1,164.18,406.62Z" style="fill:#407BFF"></path><path d="M160.84,408a.15.15,0,0,0,.09,0c.86-.46,2.52-2.27,2.35-3.18a.61.61,0,0,0-.61-.51,1,1,0,0,0-.83.25c-1,.78-1.19,3.15-1.2,3.25a.21.21,0,0,0,.09.18A.2.2,0,0,0,160.84,408Zm1.69-3.33h.09c.25,0,.27.15.28.2.1.54-1,1.9-1.82,2.55a4.76,4.76,0,0,1,1-2.58A.67.67,0,0,1,162.53,404.7Z" style="fill:#407BFF"></path><path d="M217.43,399.65h0c1.35,0,3.73-.25,4.44-1.23a1.12,1.12,0,0,0,.15-1,.62.62,0,0,0-.43-.43c-1.1-.33-4,2.06-4.29,2.33a.2.2,0,0,0,0,.22A.17.17,0,0,0,217.43,399.65Zm4-2.31h.08a.24.24,0,0,1,.17.18.73.73,0,0,1-.1.66c-.4.55-1.7.93-3.54,1.05C219.17,398.34,220.77,397.27,221.42,397.34Z" style="fill:#407BFF"></path><path d="M217.43,399.65a.2.2,0,0,0,.14,0c.87-.65,2.41-2.83,2.06-3.7-.08-.21-.29-.43-.82-.37a1.45,1.45,0,0,0-1,.57c-.84,1.07-.58,3.28-.56,3.37a.19.19,0,0,0,.11.16Zm1.62-3.73c.17,0,.21.1.22.14.21.52-.8,2.18-1.66,3a4.63,4.63,0,0,1,.52-2.71,1,1,0,0,1,.72-.42Z" style="fill:#407BFF"></path><path d="M155,163.64c-1.31,2.15-2.71,4.48-4,6.75s-2.6,4.59-3.81,6.9-2.39,4.61-3.42,6.92A49.49,49.49,0,0,0,141.2,191a17.77,17.77,0,0,0-.57,2.82c0,.36,0,.65,0,.76s0,0,0,0l-.07,0c-.05,0-.05.07,0,.21a2.55,2.55,0,0,0,.62.52,10.88,10.88,0,0,0,2.56,1.05,38.06,38.06,0,0,0,7.11,1.13c1.27.1,2.56.16,3.86.22s2.65.05,3.88.08l1.13,6.07c-1.46.5-2.8.85-4.23,1.19a42.8,42.8,0,0,1-4.29.84,36.68,36.68,0,0,1-9.2.31,19.15,19.15,0,0,1-5.26-1.26,14.26,14.26,0,0,1-2.89-1.57,10.92,10.92,0,0,1-3.71-4.62,11.08,11.08,0,0,1-.61-1.94,15.05,15.05,0,0,1-.34-3.31,25.79,25.79,0,0,1,.63-5.26,58.5,58.5,0,0,1,2.76-8.71c1.1-2.71,2.28-5.32,3.54-7.87s2.59-5,4-7.47,2.81-4.82,4.43-7.26Z" style="fill:#ffb573"></path><path d="M148.72,151.2c-7.53,2.34-16.74,24-16.74,24l18.32,8.45a115.25,115.25,0,0,0,8.85-18.8C162.78,154.35,157.84,148.36,148.72,151.2Z" style="fill:#407BFF"></path><path d="M156.69,198.54l6.54-5.17,2.42,10.27s-6.54,3.15-8.58-.16Z" style="fill:#ffb573"></path><polygon points="170.07 193.33 171.67 201.92 165.65 203.64 163.23 193.37 170.07 193.33" style="fill:#ffb573"></polygon><path d="M224.2,185.9l6.74-5,1.77,9.13s-6.28,4.08-8.25.76Z" style="fill:#ffb573"></path><polygon points="239.21 180.17 238.07 188.54 232.71 190.05 230.94 180.92 239.21 180.17" style="fill:#ffb573"></polygon></g></svg>