<svg xmlns="http://www.w3.org/2000/svg" xmlns:xlink="http://www.w3.org/1999/xlink" viewBox="0 0 500 500"><defs><clippath id="clip-path"><rect x="90.84" y="354.72" width="37.9" height="50.05" transform="translate(489.53 269.96) rotate(90)" style="fill:#92E3A9;stroke:#263238;stroke-linecap:round;stroke-linejoin:round"></rect></clippath><clippath id="clip-path-2"><path d="M284.2,432.43s13-4.79,15.55,4.79c0,0-2.32,10.55-.93,16.31s8.38,16.79,8.82,18.89c.84,4.09.2,4.37.2,4.37s-5.09,2.94-11.92-.21-18.68-16.7-20.53-19.49,5.8-13.83,5.8-13.83Z" style="fill:#fff;stroke:#263238;stroke-linecap:round;stroke-linejoin:round"></path></clippath><clippath id="clip-path-3"><path d="M235.31,267.16s-16.15,23.2-8.06,60.86c0,0,1.7,2,3.88-4.29,0,0,3.46,12.07,31.85,4.29l1.63-8.64,6.1,8.64s12.13-18.53,29.49-21.69c0,0-7.74-16.13-14.77-25.67l-5.84-17.45Z" style="fill:#263238;stroke:#263238;stroke-miterlimit:10"></path></clippath><clippath id="clip-path-4"><path d="M245,445.38s5.54-3.95,17-3.16c0,0,.83,13.75,2.39,17.75s9.78,10.93,11.31,12.12,1.53,5.34,1.53,5.34H242.41a110.26,110.26,0,0,1,2.76-17.66Z" style="fill:#fff;stroke:#263238;stroke-linecap:round;stroke-linejoin:round"></path></clippath><clippath id="clip-path-5"><path d="M274.65,192.39s11.83,17,13.13,23.55-8.19,27.72-4.63,51.85c0,0,6.44,12.56,2.28,12.87,0,0-7-1.5-14.48,4.17-12.51,9.45-31.62,23.08-46,23.08,0,0-5.68-2-4-5.54a62.76,62.76,0,0,1,4-7.12s3.54-47.87,0-57.76c-1.24-3.46-3.91-15.24-3.91-15.24-.55-16.67-4.38-23.29-4.38-23.29s9.86-2.54,30.84-2.58C247.53,196.38,270.87,191.69,274.65,192.39Z" style="fill:#92E3A9;stroke:#263238;stroke-linecap:round;stroke-linejoin:round"></path></clippath><clippath id="clip-path-6"><path d="M271,192.65s-.54-3.42,4.74-3,10,12.38,9.92,20.73C285.61,210.35,276.16,195.48,271,192.65Z" style="fill:#92E3A9;stroke:#263238;stroke-linecap:round;stroke-linejoin:round"></path></clippath><clippath id="clip-path-7"><path d="M221.08,222.25s2.56-1.64,3.9-6.78c2.27-8.7-2.78-17.51-2.78-17.51-2.4-3.46-9.07-1.49-7.49,2S220.29,206.47,221.08,222.25Z" style="fill:#92E3A9;stroke:#263238;stroke-linecap:round;stroke-linejoin:round"></path></clippath></defs><g id="background-simple"><path d="M67.93,167.09s-27.88,72,11.3,144.5S199.11,422.39,263.7,455.14s131.66,16.8,163.53-36.84-11.84-91.93-11.9-168.42,11.45-96.74-30-161.36-143.06-78.93-219.9-31S67.93,167.09,67.93,167.09Z" style="fill:#fff;opacity:0.7000000000000001"></path><path d="M38.92,282.72a108.62,108.62,0,0,1,5.78-64.5c11.56-28.56,36.37-48.85,64.18-60.69C149.28,140.32,189,140,221.79,106.28c10.13-10.4,18.64-22.31,29-32.49,30.52-30,75.19-26.4,108.55-2.58,69.59,49.69,94.62,148.11,90.75,229.47-1.74,36.51-19.17,70.49-46.76,94.45-62.4,54.18-168.36,45.06-240,16.78C109.83,390.82,51.47,341.62,38.92,282.72Z" style="fill:#92E3A9"></path><path d="M38.92,282.72a108.62,108.62,0,0,1,5.78-64.5c11.56-28.56,36.37-48.85,64.18-60.69C149.28,140.32,189,140,221.79,106.28c10.13-10.4,18.64-22.31,29-32.49,30.52-30,75.19-26.4,108.55-2.58,69.59,49.69,94.62,148.11,90.75,229.47-1.74,36.51-19.17,70.49-46.76,94.45-62.4,54.18-168.36,45.06-240,16.78C109.83,390.82,51.47,341.62,38.92,282.72Z" style="fill:#fff;opacity:0.7000000000000001"></path></g><g id="Floor"><line x1="63.85" y1="480" x2="436.15" y2="480" style="fill:none;stroke:#263238;stroke-linecap:round;stroke-linejoin:round"></line></g><g id="Plant"><path d="M342.34,426.56s15.05,1.19,15.68,12.29C358,438.85,342.78,445.87,342.34,426.56Z" style="fill:none;stroke:#263238;stroke-linecap:round;stroke-linejoin:round"></path><path d="M372.12,429.32s8.41-11.37,22-5.54C394.12,423.78,385.82,437.52,372.12,429.32Z" style="fill:none;stroke:#263238;stroke-linecap:round;stroke-linejoin:round"></path><path d="M393,393.42s2.42,21.87-17.49,15.85C375.47,409.27,381.79,393.19,393,393.42Z" style="fill:none;stroke:#263238;stroke-linecap:round;stroke-linejoin:round"></path><path d="M368.52,381.24s15.74,8.5,4.17,21.38C372.69,402.62,361.64,393.42,368.52,381.24Z" style="fill:none;stroke:#263238;stroke-linecap:round;stroke-linejoin:round"></path><path d="M349.14,400.79s17.12-1.73,17.12,14.12C366.26,414.91,349.14,415.59,349.14,400.79Z" style="fill:none;stroke:#263238;stroke-linecap:round;stroke-linejoin:round"></path><path d="M362,447.8c-.24-5.32-.24-12.16,3-19.39,7.49-16.68,10-30.73,6.11-40.63" style="fill:none;stroke:#263238;stroke-linecap:round;stroke-linejoin:round"></path><path d="M354.77,405.05s10.26,4.08,13.75,14.65" style="fill:none;stroke:#263238;stroke-linecap:round;stroke-linejoin:round"></path><path d="M387.55,402.17s-5.93,8.08-16,7.21" style="fill:none;stroke:#263238;stroke-linecap:round;stroke-linejoin:round"></path><path d="M387.55,426.1s-16.42,4.73-22.95,3.18" style="fill:none;stroke:#263238;stroke-linecap:round;stroke-linejoin:round"></path><path d="M347.25,431.56s7.34,8.06,14.72,7.93" style="fill:none;stroke:#263238;stroke-linecap:round;stroke-linejoin:round"></path><path d="M381.5,447.8H345.81a.87.87,0,0,0-.87.87v2.71a.87.87,0,0,0,.87.86h1L350,480h27.25l3.18-27.76h1a.87.87,0,0,0,.87-.86v-2.71A.87.87,0,0,0,381.5,447.8Z" style="fill:none;stroke:#263238;stroke-miterlimit:10"></path><line x1="349.14" y1="452.24" x2="369.9" y2="452.24" style="fill:none;stroke:#263238;stroke-linecap:round;stroke-linejoin:round"></line><line x1="373.82" y1="452.24" x2="376.94" y2="452.24" style="fill:none;stroke:#263238;stroke-linecap:round;stroke-linejoin:round"></line><path d="M189.13,463.35c-3.84-4.38-15.84,6.73-15.84,6.73,3.61-10.11,12.93-15.31,15.34-24.64s-4.51-13.83-7.22-3.41S171,464.63,171,464.63c4.87-16.77,6.28-44.75.26-44.75-4.71,0-4.8,6.44-3.46,17.87s-1.61,27.95-1.61,27.95-2.55-18.45-5.92-22-9-2.46-2.69,11.8c3.84,8.7,5,18.2,5.28,24.51H172a25.59,25.59,0,0,1,11.46-11.28C185.82,467.59,191.29,465.81,189.13,463.35Z" style="fill:none;stroke:#263238;stroke-linecap:round;stroke-linejoin:round"></path><path d="M167.34,480c2-14.65,5.27-30,4.33-45.2" style="fill:none;stroke:#263238;stroke-linecap:round;stroke-linejoin:round"></path><path d="M160.79,454.77c3.41,7.71,4.72,16.88,5.37,25.23" style="fill:none;stroke:#263238;stroke-linecap:round;stroke-linejoin:round"></path><path d="M183.83,447.86s-7.82,16.51-15,22.85" style="fill:none;stroke:#263238;stroke-linecap:round;stroke-linejoin:round"></path><path d="M183.83,465.65s-13.22,9.13-16.47,14.35" style="fill:none;stroke:#263238;stroke-linecap:round;stroke-linejoin:round"></path><path d="M180,446.57c-1.24-2.11-3.77-1.9-5.48-.08" style="fill:none;stroke:#263238;stroke-linecap:round;stroke-linejoin:round"></path><path d="M161.28,467.26s-7.12-11.27-9.82-21.69-9.63-5.9-7.22,3.42,11.73,14.53,15.34,24.64c0,0-12-11.11-15.84-6.73-2.16,2.46,3.31,4.24,5.68,5.37a23.82,23.82,0,0,1,9.27,7.73h13" style="fill:none;stroke:#263238;stroke-linecap:round;stroke-linejoin:round"></path><path d="M167.09,427.82c-1.19-3.91-2.78-5.13-5.52-4.39-3.7,1-1,11.07.35,23.14" style="fill:none;stroke:#263238;stroke-linecap:round;stroke-linejoin:round"></path></g><g id="Icons"><polyline points="218.89 97.56 218.89 120.55 227.46 129.19" style="fill:none;stroke:#263238;stroke-linecap:round;stroke-linejoin:round"></polyline><path d="M229.06,129.19a1.6,1.6,0,1,1-1.6-1.59A1.6,1.6,0,0,1,229.06,129.19Z" style="fill:#fff;stroke:#263238;stroke-linecap:round;stroke-linejoin:round"></path><rect x="184.73" y="29.37" width="69.19" height="69.19" rx="7.9" style="fill:#fff;stroke:#263238;stroke-linecap:round;stroke-linejoin:round"></rect><rect x="362.05" y="95.67" width="69.19" height="69.19" rx="7.9" style="fill:#fff;stroke:#263238;stroke-linecap:round;stroke-linejoin:round"></rect><polyline points="362.05 130.26 298.55 130.26 278.34 150.56" style="fill:none;stroke:#263238;stroke-linecap:round;stroke-linejoin:round"></polyline><path d="M279.93,150.56a1.59,1.59,0,1,1-1.59-1.59A1.59,1.59,0,0,1,279.93,150.56Z" style="fill:#fff;stroke:#263238;stroke-linecap:round;stroke-linejoin:round"></path><rect x="387.79" y="282.81" width="69.19" height="69.19" rx="7.9" style="fill:#fff;stroke:#263238;stroke-linecap:round;stroke-linejoin:round"></rect><polyline points="387.79 317.41 350.3 317.41 293.47 260.58" style="fill:none;stroke:#263238;stroke-linecap:round;stroke-linejoin:round"></polyline><path d="M295.06,260.58a1.59,1.59,0,1,1-1.59-1.59A1.59,1.59,0,0,1,295.06,260.58Z" style="fill:#fff;stroke:#263238;stroke-linecap:round;stroke-linejoin:round"></path><rect x="75.26" y="342.99" width="69.19" height="69.19" rx="7.9" style="fill:#fff;stroke:#263238;stroke-linecap:round;stroke-linejoin:round"></rect><polyline points="109.86 342.99 109.86 312.28 166.43 270.02" style="fill:none;stroke:#263238;stroke-linecap:round;stroke-linejoin:round"></polyline><path d="M168,270a1.6,1.6,0,1,1-1.6-1.59A1.6,1.6,0,0,1,168,270Z" style="fill:#fff;stroke:#263238;stroke-linecap:round;stroke-linejoin:round"></path><rect x="53.14" y="147.26" width="69.19" height="69.19" rx="7.9" style="fill:#fff;stroke:#263238;stroke-linecap:round;stroke-linejoin:round"></rect><line x1="122.33" y1="181.86" x2="196.72" y2="181.86" style="fill:none;stroke:#263238;stroke-linecap:round;stroke-linejoin:round"></line><path d="M198.31,181.86a1.59,1.59,0,1,1-1.59-1.6A1.59,1.59,0,0,1,198.31,181.86Z" style="fill:#fff;stroke:#263238;stroke-linecap:round;stroke-linejoin:round"></path><rect x="58.73" y="165.54" width="58.02" height="31.96" rx="3.54" style="fill:#92E3A9;stroke:#263238;stroke-linecap:round;stroke-linejoin:round"></rect><rect x="70.06" y="165.54" width="35.35" height="31.96" style="fill:#fff"></rect><line x1="70.06" y1="186.35" x2="70.06" y2="182.94" style="fill:#fff;stroke:#263238;stroke-linecap:round;stroke-linejoin:round"></line><polyline points="105.41 192.13 105.41 197.5 70.06 197.5 70.06 188.45" style="fill:none;stroke:#263238;stroke-linecap:round;stroke-linejoin:round"></polyline><line x1="105.41" y1="174.15" x2="105.41" y2="181.52" style="fill:#fff;stroke:#263238;stroke-linecap:round;stroke-linejoin:round"></line><polyline points="70.06 171.79 70.06 165.54 105.41 165.54 105.41 170.74" style="fill:none;stroke:#263238;stroke-linecap:round;stroke-linejoin:round"></polyline><path d="M113.12,188.54a2.16,2.16,0,1,1-2.16-2.16A2.16,2.16,0,0,1,113.12,188.54Z" style="fill:#263238"></path><path d="M112,173.42a1.08,1.08,0,1,1-1.08-1.08A1.08,1.08,0,0,1,112,173.42Z" style="fill:#263238"></path><path d="M112,177.74a1.08,1.08,0,1,1-1.08-1.08A1.08,1.08,0,0,1,112,177.74Z" style="fill:#263238"></path><path d="M113.12,176.66a1.08,1.08,0,0,1,0-2.16,1.08,1.08,0,0,1,0,2.16Z" style="fill:#263238"></path><path d="M108.8,176.66a1.08,1.08,0,0,1,0-2.16,1.08,1.08,0,0,1,0,2.16Z" style="fill:#263238"></path><circle cx="64.51" cy="174.5" r="2.16" style="fill:#263238"></circle><path d="M63.43,189.62a1.08,1.08,0,1,1,2.16,0,1.08,1.08,0,0,1-2.16,0Z" style="fill:#263238"></path><path d="M63.43,185.3a1.08,1.08,0,1,1,2.16,0,1.08,1.08,0,0,1-2.16,0Z" style="fill:#263238"></path><path d="M62.35,186.38a1.08,1.08,0,1,1-1.08,1.08A1.08,1.08,0,0,1,62.35,186.38Z" style="fill:#263238"></path><path d="M66.67,186.38a1.08,1.08,0,1,1-1.08,1.08A1.08,1.08,0,0,1,66.67,186.38Z" style="fill:#263238"></path><rect x="72.77" y="168.4" width="29.92" height="26.25" style="fill:#263238"></rect><path d="M389.82,122s-4.24-7.28-10.18-7.26-5.23,15,8.56,15Z" style="fill:#92E3A9;stroke:#263238;stroke-linecap:round;stroke-linejoin:round"></path><path d="M392.37,150.56s-12.73-45.67,2.83-45.67,5.94,44.88,5.94,44.88Z" style="fill:#92E3A9;stroke:#263238;stroke-linecap:round;stroke-linejoin:round"></path><path d="M402,129.81s10.18-10.5,15.56-7.1-6.22,13.85-15.56,13.57" style="fill:#92E3A9;stroke:#263238;stroke-linecap:round;stroke-linejoin:round"></path><path d="M391.92,131a89,89,0,0,1,1.14,12" style="fill:none;stroke:#263238;stroke-linecap:round;stroke-linejoin:round"></path><path d="M392.11,110.9c-1.56,5.57-1.32,11.34-.6,17" style="fill:none;stroke:#263238;stroke-linecap:round;stroke-linejoin:round"></path><path d="M395.2,104.89a23,23,0,0,0-2,3.46" style="fill:none;stroke:#263238;stroke-linecap:round;stroke-linejoin:round"></path><path d="M397.73,135.43c.17,3.86.28,7.73.31,11.6" style="fill:none;stroke:#263238;stroke-linecap:round;stroke-linejoin:round"></path><path d="M396.61,118.38c0,4.76.68,9.47,1,14.21" style="fill:none;stroke:#263238;stroke-linecap:round;stroke-linejoin:round"></path><path d="M398.54,106.62c-2.12,2.18-2,6-1.94,8.85" style="fill:none;stroke:#263238;stroke-linecap:round;stroke-linejoin:round"></path><path d="M409,127.65c2.37-1.51,6.64-4.73,9.66-3.72" style="fill:none;stroke:#263238;stroke-linecap:round;stroke-linejoin:round"></path><path d="M402,132.59c1.51-1.17,3.06-2.29,4.63-3.37" style="fill:none;stroke:#263238;stroke-linecap:round;stroke-linejoin:round"></path><path d="M380.08,121a16.87,16.87,0,0,0,7.39,5.33" style="fill:none;stroke:#263238;stroke-linecap:round;stroke-linejoin:round"></path><path d="M378,115.23a8.58,8.58,0,0,0,.7,3.42" style="fill:none;stroke:#263238;stroke-linecap:round;stroke-linejoin:round"></path><polygon points="410.32 157.53 383.73 157.53 381.73 145.94 412.32 145.94 410.32 157.53" style="fill:#263238"></polygon><path d="M225.11,42.75s.5-2.63,4-2.23,3.06,5.34-1,6.23-5.4.53-5.84,2.06a1.44,1.44,0,0,0,2.34,1.53" style="fill:none;stroke:#263238;stroke-linecap:round;stroke-linejoin:round"></path><path d="M212.48,42.75s-.5-2.63-4-2.23-3.07,5.34,1,6.23,5.4.53,5.83,2.06A1.44,1.44,0,0,1,213,50.34" style="fill:none;stroke:#263238;stroke-linecap:round;stroke-linejoin:round"></path><path d="M222.1,48c3.68-2.46,3.39-8.06,3.39-8.06H212.1s-.29,5.6,3.39,8.06,2.71,8.51,0,9.72h6.61C219.39,56.49,218.41,50.45,222.1,48Z" style="fill:#92E3A9;stroke:#263238;stroke-linecap:round;stroke-linejoin:round"></path><rect x="213.47" y="57.7" width="10.65" height="4.03" style="fill:#757575;stroke:#263238;stroke-linecap:round;stroke-linejoin:round"></rect><rect x="209.48" y="61.73" width="18.63" height="27.92" style="fill:#92E3A9;stroke:#263238;stroke-linecap:round;stroke-linejoin:round"></rect><rect x="228.11" y="71.02" width="18.63" height="18.63" style="fill:#92E3A9;stroke:#263238;stroke-linecap:round;stroke-linejoin:round"></rect><rect x="190.84" y="77.39" width="18.63" height="12.26" style="fill:#92E3A9;stroke:#263238;stroke-linecap:round;stroke-linejoin:round"></rect><path d="M217.36,72.09a1.12,1.12,0,0,0,1.25-.91h.77v7.23h-1.14V72.9h-.88Z" style="fill:#263238"></path><path d="M236.71,77.83c-.36,0-.59.2-.59.72v.77h-1.07v-.7c0-1.16.58-1.82,1.69-1.82s1.69.66,1.69,1.82a4,4,0,0,1-1.4,2.86c-.67.72-.86,1.06-.86,1.45a.76.76,0,0,0,0,.15h2.15v1h-3.28v-.89a3.15,3.15,0,0,1,1.13-2.31,3,3,0,0,0,1.12-2.26C237.3,78,237.07,77.83,236.71,77.83Z" style="fill:#263238"></path><path d="M200.38,81.55c0-.65-.23-.82-.59-.82s-.59.19-.59.71v.47h-1.07v-.4a1.7,1.7,0,1,1,3.39,0v.19a1.4,1.4,0,0,1-.8,1.48v0a1.46,1.46,0,0,1,.8,1.51v.56c0,1.16-.58,1.82-1.7,1.82s-1.69-.66-1.69-1.82v-.6h1.07v.68c0,.51.23.71.59.71s.59-.18.59-.82v-.57c0-.67-.23-.91-.74-.91h-.39v-1h.45c.42,0,.68-.18.68-.76Z" style="fill:#263238"></path><rect x="81.43" y="357.46" width="56.72" height="44.57" style="fill:none;stroke:#263238;stroke-linecap:round;stroke-linejoin:round"></rect><rect x="90.84" y="354.72" width="37.9" height="50.05" transform="translate(489.53 269.96) rotate(90)" style="fill:#92E3A9"></rect><g style="clip-path:url(#clip-path)"><polygon points="134.81 378.43 134.81 371.39 120.37 392.7 110.53 386.81 128.64 360.8 122.92 360.8 115.01 372.03 107.56 368.24 107.56 360.8 102.69 360.8 102.69 370.36 112.44 375.69 106.36 384.31 84.76 371.39 84.76 376.23 104.12 387.5 96.23 398.7 102.25 398.7 108.34 389.95 123.36 398.7 130.4 398.7 123.82 394.76 134.81 378.43" style="fill:#fff;opacity:0.5"></polygon></g><rect x="90.84" y="354.72" width="37.9" height="50.05" transform="translate(489.53 269.96) rotate(90)" style="fill:none;stroke:#263238;stroke-linecap:round;stroke-linejoin:round"></rect><path d="M130.88,351.37h0a10.31,10.31,0,0,0-14.59,0h0a10.31,10.31,0,0,0,0,14.59l7.3,7.29,7.29-7.29A10.31,10.31,0,0,0,130.88,351.37Zm-4.29,10.29h0a4.25,4.25,0,1,1,0-6h0A4.24,4.24,0,0,1,126.59,361.66Z" style="fill:#263238"></path><path d="M422.74,295.92h0c-14.14,11.56-14.14,30.31,0,41.87h0C436.87,326.23,436.87,307.48,422.74,295.92Z" style="fill:#92E3A9;stroke:#263238;stroke-linecap:round;stroke-linejoin:round"></path><line x1="422.74" y1="337.79" x2="422.74" y2="301.42" style="fill:none;stroke:#263238;stroke-linecap:round;stroke-linejoin:round"></line><polyline points="426.93 307.07 422.74 311.26 418.54 307.07" style="fill:none;stroke:#263238;stroke-linecap:round;stroke-linejoin:round"></polyline><polyline points="426.93 315.31 422.74 319.51 418.54 315.31" style="fill:none;stroke:#263238;stroke-linecap:round;stroke-linejoin:round"></polyline><polyline points="426.93 323.56 422.74 327.75 418.54 323.56" style="fill:none;stroke:#263238;stroke-linecap:round;stroke-linejoin:round"></polyline><path d="M447.16,302.57c0-3.47-2-7.28-4.51-7.28s-4.52,3.81-4.52,7.28c0,2.89,1.42,4.61,3.33,5.11V336.6a1.19,1.19,0,1,0,2.37,0V307.68C445.75,307.18,447.16,305.46,447.16,302.57Z" style="fill:none;stroke:#263238;stroke-linecap:round;stroke-linejoin:round"></path><path d="M406.61,296.08a.86.86,0,0,0-.86-.79h-.62v6.28h-1.48v-5.42a.87.87,0,0,0-1.73,0v5.42h-1.49v-6.28h-.61a.86.86,0,0,0-.86.79l-.64,7.48a3.24,3.24,0,0,0,3.22,3.51h.06V336.6a1.19,1.19,0,1,0,2.37,0V307.07h0a3.24,3.24,0,0,0,3.22-3.51Z" style="fill:none;stroke:#263238;stroke-linecap:round;stroke-linejoin:round"></path></g><g id="Character"><path d="M275.09,455.74l-1,2.93a59.22,59.22,0,0,0,5.08,7.15s1-.33,2.65,1.12a6.13,6.13,0,0,1,1.76,3.76s7.63,9.17,17.33,9.3,6.77-4.75,6.77-4.75Z" style="fill:#92E3A9;stroke:#263238;stroke-linecap:round;stroke-linejoin:round"></path><path d="M284.2,432.43s13-4.79,15.55,4.79c0,0-2.32,10.55-.93,16.31s8.38,16.79,8.82,18.89c.84,4.09.2,4.37.2,4.37s-5.09,2.94-11.92-.21-18.68-16.7-20.53-19.49,5.8-13.83,5.8-13.83Z" style="fill:#fff"></path><g style="clip-path:url(#clip-path-2)"><path d="M284.2,432.43s13-4.79,15.55,4.79c0,0-2.32,10.55-.93,16.31s8.38,16.79,8.82,18.89c.84,4.09.2,4.37.2,4.37s-5.09,2.94-11.92-.21-18.68-16.7-20.53-19.49,5.8-13.83,5.8-13.83Z" style="fill:#92E3A9;opacity:0.4"></path></g><path d="M284.2,432.43s13-4.79,15.55,4.79c0,0-2.32,10.55-.93,16.31s8.38,16.79,8.82,18.89c.84,4.09.2,4.37.2,4.37s-5.09,2.94-11.92-.21-18.68-16.7-20.53-19.49,5.8-13.83,5.8-13.83Z" style="fill:none;stroke:#263238;stroke-linecap:round;stroke-linejoin:round"></path><path d="M281.19,443.26s.35,13.67,3,16.45,4.64,0,4.64,0-.23,4.17-4.37,3.33-4.31-10.74-4.52-17.86Z" style="fill:#92E3A9;stroke:#263238;stroke-linecap:round;stroke-linejoin:round"></path><path d="M290.85,446a28.23,28.23,0,0,0,3.26,18.81" style="fill:none;stroke:#263238;stroke-linecap:round;stroke-linejoin:round"></path><path d="M294.11,467.28a8.76,8.76,0,0,0,5.56,5.14,15.47,15.47,0,0,0,8,0l-3.12-6.33A19.88,19.88,0,0,1,294.11,467.28Z" style="fill:#92E3A9;stroke:#263238;stroke-linecap:round;stroke-linejoin:round"></path><path d="M292.27,463.47s6.8.4,10.35-1" style="fill:none;stroke:#263238;stroke-linecap:round;stroke-linejoin:round"></path><path d="M291,459.71s6.35,1,9.9-1" style="fill:none;stroke:#263238;stroke-linecap:round;stroke-linejoin:round"></path><path d="M289.93,455.55s5.57.81,9.2-.92" style="fill:none;stroke:#263238;stroke-linecap:round;stroke-linejoin:round"></path><path d="M289.31,450.82s6.19,1.95,9.13,0" style="fill:none;stroke:#263238;stroke-linecap:round;stroke-linejoin:round"></path><path d="M288.38,439.16,287.3,446s8.19,5.41,13.61-1.34l0-7.11S298.88,442.31,288.38,439.16Z" style="fill:#92E3A9;stroke:#263238;stroke-linecap:round;stroke-linejoin:round"></path><path d="M235.31,267.16s-12,34.93-6.69,57.82,7,32.28,6.69,44.72S248,446.81,248,446.81h11.86s-1.76-56-1.68-69.57-2.45-9.86.67-23,.8-26.38,5.12-40.62c0,0,23.31,40.09,27.53,45.89,0,0-4.69,17.61-4.16,32.58.61,17.53-.94,43.92-.94,43.92s2.65,4.95,9.9,3c0,0,18.94-78.11,17.88-82s-8.44-46.14-28.71-74.19c0,0-3.46-11.94-5.84-19.58Z" style="fill:#fff;stroke:#263238;stroke-linecap:round;stroke-linejoin:round"></path><path d="M235.31,267.16s-16.15,23.2-8.06,60.86c0,0,1.7,2,3.88-4.29,0,0,3.46,12.07,31.85,4.29l1.63-8.64,6.1,8.64s12.13-18.53,29.49-21.69c0,0-7.74-16.13-14.77-25.67l-5.84-17.45Z" style="fill:#263238"></path><g style="clip-path:url(#clip-path-3)"><path d="M265.06,316.85s0-1.56,1.87-6.17c1.79-4.46,6.86-14.51,11.61-15.3" style="fill:none;stroke:#fff;stroke-linecap:round;stroke-linejoin:round"></path><path d="M269.31,298.42s-4.75,10.68-13.72,14.1" style="fill:none;stroke:#fff;stroke-linecap:round;stroke-linejoin:round"></path><path d="M263.38,325.9,263,328c-28.39,7.78-31.85-4.28-31.85-4.28C229,330,227.25,328,227.25,328c-.05-.23-.1-.47-.14-.7,2.16-2.84,2.84-7.93,2.84-7.93-1-32.64,4.74-43.89,4.74-43.89h3.17c-4.55,7.74-4.75,43.89-4.75,43.89s1,5.93,11.67,8.3C251.16,329.11,259.15,327.19,263.38,325.9Z" style="fill:#92E3A9"></path><path d="M300.21,306.33C282.84,309.5,270.72,328,270.72,328l-.8-1.12h0c2.48-4.61,12.24-21.07,26.68-22.93a7.79,7.79,0,0,0,1-2.79C299.22,304.26,300.21,306.33,300.21,306.33Z" style="fill:#92E3A9"></path><path d="M271.58,302.15s2.22,10.2,3.3,20.52a54.24,54.24,0,0,0-4.16,5.35l-5.78-8.18C265.54,315.35,267.19,307.22,271.58,302.15Z" style="opacity:0.2"></path><path d="M286.1,281.57c-7.32,3.13-25.17,11.23-34.46,19.6s-18.66,14.1-26.36,13.49c-2.35-29.71,10-47.49,10-47.49l44.28-4,5.85,17.45Z" style="opacity:0.2"></path></g><path d="M235.31,267.16s-16.15,23.2-8.06,60.86c0,0,1.7,2,3.88-4.29,0,0,3.46,12.07,31.85,4.29l1.63-8.64,6.1,8.64s12.13-18.53,29.49-21.69c0,0-7.74-16.13-14.77-25.67l-5.84-17.45Z" style="fill:none;stroke:#263238;stroke-miterlimit:10"></path><path d="M245,445.38s5.54-3.95,17-3.16c0,0,.83,13.75,2.39,17.75s9.78,10.93,11.31,12.12,1.53,5.34,1.53,5.34H242.41a110.26,110.26,0,0,1,2.76-17.66Z" style="fill:#fff"></path><g style="clip-path:url(#clip-path-4)"><path d="M245,445.38s5.54-3.95,17-3.16c0,0,.83,13.75,2.39,17.75s9.78,10.93,11.31,12.12,1.53,5.34,1.53,5.34H242.41a110.26,110.26,0,0,1,2.76-17.66Z" style="fill:#92E3A9;opacity:0.4"></path></g><path d="M245,445.38s5.54-3.95,17-3.16c0,0,.83,13.75,2.39,17.75s9.78,10.93,11.31,12.12,1.53,5.34,1.53,5.34H242.41a110.26,110.26,0,0,1,2.76-17.66Z" style="fill:none;stroke:#263238;stroke-linecap:round;stroke-linejoin:round"></path><path d="M245.17,459.77s3.43,6.91,5.81,7.83,2.63-2.24,2.63-2.24.66,4.62-1.05,5.27-6.09-3.59-8-8.32Z" style="fill:#92E3A9;stroke:#263238;stroke-linecap:round;stroke-linejoin:round"></path><path d="M252.16,447.16s.83,12.66,2.79,16a23.13,23.13,0,0,0,3.86,5" style="fill:none;stroke:#263238;stroke-linecap:round;stroke-linejoin:round"></path><path d="M259.81,469.91s1.75,2.18,3.69,2.47,12.19-.29,12.19-.29l-4.18-3.62S263,467,259.81,469.91Z" style="fill:#92E3A9;stroke:#263238;stroke-linecap:round;stroke-linejoin:round"></path><path d="M256.15,466.94s7.43-4.26,12.71-1" style="fill:none;stroke:#263238;stroke-linecap:round;stroke-linejoin:round"></path><path d="M254.36,464.05s5.18-4.05,11.3-1.83" style="fill:none;stroke:#263238;stroke-linecap:round;stroke-linejoin:round"></path><path d="M252.16,459.63s5.58-4.33,11.46-1.57" style="fill:none;stroke:#263238;stroke-linecap:round;stroke-linejoin:round"></path><path d="M251.41,454.13s6.76-3.64,11.68-.88" style="fill:none;stroke:#263238;stroke-linecap:round;stroke-linejoin:round"></path><path d="M242.41,477.43V480h4a7,7,0,0,1,6.7,0h18.79a13.6,13.6,0,0,0,5.73-1.29l-.39-1.28Z" style="fill:#92E3A9;stroke:#263238;stroke-linecap:round;stroke-linejoin:round"></path><path d="M247.39,444.59l.89,5.61s10.45-3.39,16.22-1.19v-6.9S253.75,438.33,247.39,444.59Z" style="fill:#92E3A9;stroke:#263238;stroke-linecap:round;stroke-linejoin:round"></path><path d="M216.86,200c-4.85-4-51.4,44.05-50.41,48s23.74,48.46,27.5,50.44,18.35,6.34,19.49,1.58l-14.33-7.69S194,282.72,189.32,266c-2.66-9.64-5.66-17.62-5.66-17.62s21.36-21.48,27.69-23.5a84.07,84.07,0,0,1,9.73-2.62S223.36,205.38,216.86,200Z" style="fill:#fff;stroke:#263238;stroke-linecap:round;stroke-linejoin:round"></path><path d="M274.65,192.72c8.8-3.11,16.43,6.06,25.73,12.1,8.35,5.42,15.26,9.67,15.26,9.67-8.64-10.78-8.41-23.75-19.1-44.12l6.82-3.42s18.83,26.06,26.81,44.21a39,39,0,0,1,3.34,17.64s-3.31,5.18-12.28,2.84c-14.23-3.69-30.07-14.48-38-16.24Z" style="fill:#fff;stroke:#263238;stroke-linecap:round;stroke-linejoin:round"></path><path d="M274.65,192.39s11.83,17,13.13,23.55-8.19,27.72-4.63,51.85c0,0,6.44,12.56,2.28,12.87,0,0-7-1.5-14.48,4.17-12.51,9.45-31.62,23.08-46,23.08,0,0-5.68-2-4-5.54a62.76,62.76,0,0,1,4-7.12s3.54-47.87,0-57.76c-1.24-3.46-3.91-15.24-3.91-15.24-.55-16.67-4.38-23.29-4.38-23.29s9.86-2.54,30.84-2.58C247.53,196.38,270.87,191.69,274.65,192.39Z" style="fill:#92E3A9"></path><g style="clip-path:url(#clip-path-5)"><path d="M267.33,258.29s-3.52,19.42-16.72,29.18-23.11,11.16-24,14.68a4.91,4.91,0,0,0,2.67,5.39,27,27,0,0,1-4.32.37s-5.68-2-4-5.54a64.55,64.55,0,0,1,4-7.12s3.55-47.86,0-57.75c-1.24-3.47-3.9-15.24-3.9-15.24a94.78,94.78,0,0,0-.86-10.25,17.16,17.16,0,0,1,5.34-1.65s9,11.5,9.23,21.89,23.73,6.44,27.8,3.27,8.13,1.58,8.13,1.58-12.22,16.64-26.2,22.56-11.59,23.85-3.75,22S263.08,265.14,267.33,258.29Z" style="opacity:0.2"></path></g><path d="M274.65,192.39s11.83,17,13.13,23.55-8.19,27.72-4.63,51.85c0,0,6.44,12.56,2.28,12.87,0,0-7-1.5-14.48,4.17-12.51,9.45-31.62,23.08-46,23.08,0,0-5.68-2-4-5.54a62.76,62.76,0,0,1,4-7.12s3.54-47.87,0-57.76c-1.24-3.46-3.91-15.24-3.91-15.24-.55-16.67-4.38-23.29-4.38-23.29s9.86-2.54,30.84-2.58C247.53,196.38,270.87,191.69,274.65,192.39Z" style="fill:none;stroke:#263238;stroke-linecap:round;stroke-linejoin:round"></path><path d="M271,192.65s-.54-3.42,4.74-3,10,12.38,9.92,20.73C285.61,210.35,276.16,195.48,271,192.65Z" style="fill:#92E3A9"></path><g style="clip-path:url(#clip-path-6)"><path d="M271,192.65s-.54-3.42,4.74-3,10,12.38,9.92,20.73C285.61,210.35,276.16,195.48,271,192.65Z" style="fill:#fff;opacity:0.4"></path></g><path d="M271,192.65s-.54-3.42,4.74-3,10,12.38,9.92,20.73C285.61,210.35,276.16,195.48,271,192.65Z" style="fill:none;stroke:#263238;stroke-linecap:round;stroke-linejoin:round"></path><path d="M221.08,222.25s2.56-1.64,3.9-6.78c2.27-8.7-2.78-17.51-2.78-17.51-2.4-3.46-9.07-1.49-7.49,2S220.29,206.47,221.08,222.25Z" style="fill:#92E3A9"></path><g style="clip-path:url(#clip-path-7)"><path d="M221.08,222.25s2.56-1.64,3.9-6.78c2.27-8.7-2.78-17.51-2.78-17.51-2.4-3.46-9.07-1.49-7.49,2S220.29,206.47,221.08,222.25Z" style="fill:#fff;opacity:0.4"></path></g><path d="M221.08,222.25s2.56-1.64,3.9-6.78c2.27-8.7-2.78-17.51-2.78-17.51-2.4-3.46-9.07-1.49-7.49,2S220.29,206.47,221.08,222.25Z" style="fill:none;stroke:#263238;stroke-linecap:round;stroke-linejoin:round"></path><path d="M278.55,238.16C272,252,263.6,265.68,252.45,276.38a62.06,62.06,0,0,1-11.68,9" style="fill:none;stroke:#263238;stroke-linecap:round;stroke-linejoin:round"></path><path d="M281.17,232.25c-.44,1.1-.92,2.19-1.4,3.27" style="fill:none;stroke:#263238;stroke-linecap:round;stroke-linejoin:round"></path><path d="M237.5,240.13c7.69,2.8,16.26,2.48,23.28-2" style="fill:none;stroke:#263238;stroke-linecap:round;stroke-linejoin:round"></path><path d="M231.53,237.1a18.23,18.23,0,0,0,3.28,1.91" style="fill:none;stroke:#263238;stroke-linecap:round;stroke-linejoin:round"></path><path d="M263.19,206.77s-1,10.81-17.35,10" style="fill:none;stroke:#263238;stroke-linecap:round;stroke-linejoin:round"></path><path d="M221.47,201s-2.95,4.45-1.94,9.39" style="fill:none;stroke:#263238;stroke-linecap:round;stroke-linejoin:round"></path><path d="M276.42,195s4-2.58,7.26,4.59" style="fill:none;stroke:#263238;stroke-linecap:round;stroke-linejoin:round"></path><circle cx="213.44" cy="277.12" r="22.88" style="fill:#92E3A9;stroke:#263238;stroke-linecap:round;stroke-linejoin:round"></circle><circle cx="209.96" cy="273.91" r="17.16" transform="translate(-127.4 201.15) rotate(-40.36)" style="fill:#fff;opacity:0.4"></circle><path d="M191.8,269.68s8.08,18.84,24.89,20.82,19.1-8.48,19.1-8.48" style="fill:none;stroke:#263238;stroke-linecap:round;stroke-linejoin:round"></path><path d="M221.47,255.69c7.44,4.57,10,47.6-16.39,42.73" style="fill:none;stroke:#263238;stroke-linecap:round;stroke-linejoin:round"></path><path d="M203,256.75a21.52,21.52,0,0,0,4.7,10.41c5.41,6.33,7.9,16,4.26,22.3-2.8,4.88-8.71,6.13-15.26,3.28" style="fill:none;stroke:#263238;stroke-linecap:round;stroke-linejoin:round"></path><path d="M235.47,270.93c.85,9.28-2.78,9.59-6.53,18.32a17.52,17.52,0,0,0-1.48,6.13" style="fill:none;stroke:#263238;stroke-linecap:round;stroke-linejoin:round"></path><path d="M254.27,211.12c-11.53.92-22.6-12.66-22.6-12.66s6.25-.26,7-3.12c2.52-9-3.7-20.92-3.7-20.92s27.57,3,22.23,8.87a15.81,15.81,0,0,0-2.49,3.57c-2,4-1.1,7.18-.27,8a1.25,1.25,0,0,0,.19.15c1.61.9,8.57.32,8.57.32S264.79,210.28,254.27,211.12Z" style="fill:#fff;stroke:#263238;stroke-linecap:round;stroke-linejoin:round"></path><path d="M235.3,202.26a31.18,31.18,0,0,0,12.82,2.53l3.32,2" style="fill:none;stroke:#263238;stroke-linecap:round;stroke-linejoin:round"></path><path d="M254.91,206.77l.44-2.26s5.81-1.31,7.84-4.54" style="fill:none;stroke:#263238;stroke-linecap:round;stroke-linejoin:round"></path><path d="M254.48,194.87c-8.64,1.52-11.74-9.65-11.74-9.65s6.94-1.47,12,1.64C252.74,190.84,253.65,194,254.48,194.87Z" style="fill:#263238"></path><path d="M240.62,144.52s2.18-5.73-10.48-7.71-21.56,12-15.43,24.8-2,23.07,3.17,27.82,8.76.79,8.76.79-1,.86-4.21-3.53,5.14-4.59,5.73-20.61,8.25-11.67,8.25-11.67Z" style="fill:#263238"></path><path d="M240.77,143.56s.06-2.36-6-2.36-9.59,9.23-4.19,12.92S240.77,143.56,240.77,143.56Z" style="fill:#92E3A9;stroke:#263238;stroke-linecap:round;stroke-linejoin:round"></path><path d="M263.57,145.6a18.85,18.85,0,0,1,7.14,17.89c-1.8,11.69-8.77,22.18-22.59,20.79S224,173.5,227.25,157.19C231.67,135,263.57,138.21,263.57,145.6Z" style="fill:#263238"></path><path d="M254.77,145.84c18.84,2.78,9.75,30.53,7.8,37.42-.72,2.55-8.65,10-12.2,9.34-2.77-.53-12.64-8.85-13.14-12.3C235.89,171.12,233.58,142.72,254.77,145.84Z" style="fill:#fff;stroke:#263238;stroke-linecap:round;stroke-linejoin:round"></path><path d="M257.36,166.08c0,1.3-1.08,5,1.47,7.61,1.65,1.68-2.55,2.43-2.55,2.43" style="fill:none;stroke:#263238;stroke-linecap:round;stroke-linejoin:round"></path><path d="M258.21,162.27s4-2.11,6.4,1.22" style="fill:none;stroke:#263238;stroke-linecap:round;stroke-linejoin:round"></path><path d="M251.72,163.94s-3.93-4.17-7.2-3.41" style="fill:none;stroke:#263238;stroke-linecap:round;stroke-linejoin:round"></path><path d="M261.78,169.15c-.15.76-.72,1.3-1.27,1.2s-.88-.82-.74-1.59.72-1.3,1.27-1.19S261.93,168.38,261.78,169.15Z" style="fill:#263238"></path><path d="M249.55,168.25a10.27,10.27,0,0,0-3.71-.71" style="fill:none;stroke:#263238;stroke-linecap:round;stroke-linejoin:round"></path><path d="M248.57,177.35a14.18,14.18,0,0,0,6.78,3.83" style="fill:none;stroke:#263238;stroke-linecap:round;stroke-linejoin:round"></path><path d="M249.71,178.38s-.1,2.83,1.7,3.74,3.5-1,3.5-1" style="fill:none;stroke:#263238;stroke-linecap:round;stroke-linejoin:round"></path><path d="M268.48,152.45s.34,1.82-11.76,5.15c-11.71,3.21-18.26,5.13-19.93,13.22,0,0-4.21-6.16-4.06-12.87s7-15.69,21.51-14.23S268.48,152.45,268.48,152.45Z" style="fill:#263238"></path><path d="M237.9,168.28c.29-1.53-3.28-5.76-4.81-3.36-2.59,4.11-1.26,8,.95,9.63,1,.74,2.2,2.08,3.22,1" style="fill:#fff;stroke:#263238;stroke-linecap:round;stroke-linejoin:round"></path><path d="M260.78,143.56s5,3.85-1.57,8.59-27.54,8.28-27.54,8.28" style="fill:none;stroke:#fff;stroke-linecap:round;stroke-linejoin:round;opacity:0.2"></path><path d="M256.28,146.87A37.41,37.41,0,0,1,232.73,152" style="fill:none;stroke:#fff;stroke-linecap:round;stroke-linejoin:round;opacity:0.2"></path><path d="M226.75,142.78s-7.49-1.1-10.06,5.18,2.72,16,3.7,22.86-1.07,9.44-1.07,9.44" style="fill:none;stroke:#fff;stroke-linecap:round;stroke-linejoin:round;opacity:0.2"></path><path d="M299.5,176s-2.37.17-6-2-11.57-2.89-11.57-2.89-.06-2.4,2.92-2.22a57.59,57.59,0,0,0,7.75-.39s-1.18-8.33-.36-9.31,10.57-1.94,11.93-.73,7.11,15.88,1.49,16.82" style="fill:#fff;stroke:#263238;stroke-linecap:round;stroke-linejoin:round"></path><path d="M292.21,159.2c-1,0-1.65,7-1.45,6.88s2.17,1.65,3,1.82a2.85,2.85,0,0,0,1.69-.36,66.37,66.37,0,0,0,7.37,0c1-.27,1.63-2,.83-3.6" style="fill:#fff;stroke:#263238;stroke-linecap:round;stroke-linejoin:round"></path><path d="M303.53,160.94a6.84,6.84,0,0,1-.88,4.16" style="fill:none;stroke:#263238;stroke-linecap:round;stroke-linejoin:round"></path><path d="M295.41,167.54s-2.28-2.46-2.18-3.34a27.1,27.1,0,0,1,.89-3.26" style="fill:none;stroke:#263238;stroke-linecap:round;stroke-linejoin:round"></path><path d="M298,167.54s-1.68-2.37-1.59-3.3.79-3.81.79-3.81" style="fill:none;stroke:#263238;stroke-linecap:round;stroke-linejoin:round"></path><path d="M301,167.65a5.33,5.33,0,0,1-.91-3.66,21.85,21.85,0,0,1,.91-3.05" style="fill:none;stroke:#263238;stroke-linecap:round;stroke-linejoin:round"></path><path d="M292.57,168.51a6.64,6.64,0,0,1,5.41,1.6" style="fill:none;stroke:#263238;stroke-linecap:round;stroke-linejoin:round"></path></g></svg>