<svg xmlns="http://www.w3.org/2000/svg" viewBox="0 0 500 500"><g id="background-simple"><path d="M449.46,178.19S397.26,92.68,314.61,59,171.06,44.46,121.47,89C69,136.2,75,218.11,36.4,274.45-.7,328.62,27.94,407.29,83.19,433.81c53.07,25.47,144.18-.11,182.7-18.2S380.73,432,419,423.8,519.07,308.27,449.46,178.19Z" style="fill:#92E3A9"></path><path d="M449.46,178.19S397.26,92.68,314.61,59,171.06,44.46,121.47,89C69,136.2,75,218.11,36.4,274.45-.7,328.62,27.94,407.29,83.19,433.81c53.07,25.47,144.18-.11,182.7-18.2S380.73,432,419,423.8,519.07,308.27,449.46,178.19Z" style="fill:#fff;opacity:0.7000000000000001"></path></g><g id="Plants"><path d="M434.58,452.12h3c.05-9.55.39-78.38.39-90.49,0-12.95-.39-62.23-.4-62.72a1.49,1.49,0,0,0-1.5-1.49h0a1.5,1.5,0,0,0-1.49,1.51c0,.5.4,49.76.4,62.7C435,373.74,434.63,442.63,434.58,452.12Z" style="fill:#263238"></path><polygon points="465.84 309.62 453.54 299.3 477.39 304.51 457.51 293.35 478.18 289.03 453.54 287.79 480.93 267.15 449.97 282.63 467.83 252.07 444.01 279.45 452.35 239.37 436.87 276.68 435.28 235 432.11 277.47 415.21 239.95 426.95 281.04 401.68 253.48 423.77 287.39 392.5 265.08 421.79 293.35 388.63 275.23 419.01 295.73 391.53 292.15 418.21 299.7 396.85 303.26 419.01 302.48 405.91 311.21 436.87 302.87 465.84 309.62" style="fill:#263238;stroke:#263238;stroke-linecap:round;stroke-miterlimit:10"></polygon><path d="M423.46,377.11c0,2.83.12,10.76.23,17.75.09,5.81.17,11.3.17,12.91,0,1.89-.11,11.2-.22,20.21-.09,7.81-.18,15.18-.18,16.49v7.65h3v-7.65c0-1.29.09-8.66.18-16.46.11-9,.22-18.33.22-20.24,0-1.63-.08-7.13-.17-12.95-.11-7-.23-14.9-.23-17.71a74.18,74.18,0,0,0-1.22-14.18c-.61-3.07.09-11,.42-13.83a1.5,1.5,0,0,0-3-.34c-.05.43-1.21,10.6-.38,14.75A71.4,71.4,0,0,1,423.46,377.11Z" style="fill:#263238"></path><path d="M425.36,401.81s1.59-30.27,3.17-34.24,2.78-2.78,3.18-7.54.4-6.75,1.19-8.34a32.91,32.91,0,0,0,1.59-4.36l.79-3.18" style="fill:none;stroke:#263238;stroke-linecap:round;stroke-linejoin:round;stroke-width:3px"></path><polygon points="453.54 357.25 441.24 346.93 475.77 350.9 445.2 340.98 476.56 335.42 441.24 335.42 468.62 314.78 437.66 330.26 455.52 299.7 431.71 327.08 440.04 287 424.56 324.31 422.98 282.63 419.8 325.1 407.5 286.6 414.64 328.67 392.81 297.32 411.47 335.02 382.83 316.31 409.48 340.98 379.93 328.88 406.7 343.36 378.97 340.96 405.91 347.33 387.18 351.6 406.7 350.11 393.6 358.84 424.56 350.5 453.54 357.25" style="fill:#263238;stroke:#263238;stroke-linecap:round;stroke-miterlimit:10"></polygon><polygon points="454.36 425.31 442.06 414.99 476.59 418.95 446.02 409.03 477.38 403.48 442.06 403.48 469.44 382.83 438.48 398.31 456.34 367.75 432.53 395.14 440.86 355.05 425.38 392.36 423.8 350.69 420.62 393.15 408.32 354.65 415.46 396.73 393.63 365.37 412.29 403.08 383.65 384.37 410.3 409.03 380.75 396.94 407.52 411.41 379.79 409.02 406.73 415.38 388 419.65 407.52 418.16 394.42 426.89 425.38 418.56 454.36 425.31" style="fill:#263238;stroke:#263238;stroke-linecap:round;stroke-miterlimit:10"></polygon><path d="M57.18,391.51s-.23-6-2.77-10.16-11.77-7.16-16.62-5.08a66.9,66.9,0,0,0-7.16,3.46,54.44,54.44,0,0,1,13.62,6.47A34.34,34.34,0,0,0,57.18,391.51Z" style="fill:#92E3A9;stroke:#263238;stroke-linecap:round;stroke-linejoin:round"></path><path d="M66.87,394.51s-5.54-5.31-6.46-12.7,6.93-18.93,6.93-18.93a82.34,82.34,0,0,1,6.23,15.47C75.88,386.66,66.87,394.51,66.87,394.51Z" style="fill:#92E3A9;stroke:#263238;stroke-linecap:round;stroke-linejoin:round"></path><path d="M77.49,392.2s-1.38-6.93,1.16-11.77,9.23-4.39,15.92-2.31,8.78,2.08,8.78,2.08a99.58,99.58,0,0,1-14.55,8.08A89.16,89.16,0,0,1,77.49,392.2Z" style="fill:#92E3A9;stroke:#263238;stroke-linecap:round;stroke-linejoin:round"></path><path d="M66.94,417.08a.6.6,0,0,1-.6-.6v-33a.6.6,0,0,1,.6-.6.59.59,0,0,1,.59.6v33A.59.59,0,0,1,66.94,417.08Z" style="fill:#263238"></path><path d="M69.71,417.08h-.09a.6.6,0,0,1-.51-.67c.12-.83,2.91-20.39,12.38-31.25a.6.6,0,0,1,.84,0,.59.59,0,0,1,.06.84c-9.24,10.59-12.07,30.42-12.09,30.62A.6.6,0,0,1,69.71,417.08Z" style="fill:#263238"></path><path d="M64.17,416.61h0a.59.59,0,0,1-.59-.6c0-.19.09-19-11.09-27.92a.6.6,0,0,1,.75-.93c11.63,9.31,11.54,28.07,11.53,28.86A.59.59,0,0,1,64.17,416.61Z" style="fill:#263238"></path><path d="M73.4,416.38a.44.44,0,0,1-.16,0,.6.6,0,0,1-.42-.73,38.56,38.56,0,0,1,5.4-11.27.6.6,0,1,1,1,.7A38,38,0,0,0,74,415.94.59.59,0,0,1,73.4,416.38Z" style="fill:#263238"></path><path d="M77,407.2s-.23-6.46,2.54-7.38,5.31,1.38,7.39,2.77,4.38,2.77,4.38,6.92-1.61,11.78-1.61,11.78-2.31-7.16-6.24-10.39S77,407.2,77,407.2Z" style="fill:#92E3A9;stroke:#263238;stroke-linecap:round;stroke-linejoin:round"></path><path d="M60,416.61a.6.6,0,0,1-.57-.41c0-.06-1.85-5.64-6-8.95a.59.59,0,0,1-.1-.84.6.6,0,0,1,.84-.09c4.47,3.53,6.35,9.27,6.43,9.52a.61.61,0,0,1-.39.75Z" style="fill:#263238"></path><path d="M57.18,409.28s.92-4.15-1.39-7.15-7.85-2.31-10.62.92S38.48,416,38.48,416s5.54-4.39,12-4.39S57.18,409.28,57.18,409.28Z" style="fill:#92E3A9;stroke:#263238;stroke-linecap:round;stroke-linejoin:round"></path><polygon points="75.57 452 57.15 452 47.94 421.53 84.78 421.53 75.57 452" style="fill:#fff;stroke:#263238;stroke-linecap:round;stroke-linejoin:round"></polygon><rect x="47.83" y="416.48" width="37.05" height="5.05" style="fill:#fff;stroke:#263238;stroke-linecap:round;stroke-linejoin:round"></rect></g><g id="Window"><rect x="61" y="61" width="364" height="271" style="fill:#fff"></rect><rect x="159.71" y="81.5" width="265.29" height="250.41" style="fill:#ededed"></rect><rect x="172" y="150.58" width="239.33" height="22.67" style="fill:#b2b2b2"></rect><rect x="172" y="114.72" width="239.33" height="15.21" style="fill:#fff"></rect><rect x="65.33" y="150.58" width="88" height="22.67" style="fill:#92E3A9"></rect><rect x="65.33" y="203.24" width="88" height="22.67" style="fill:#b2b2b2"></rect><rect x="65.33" y="255.91" width="88" height="22.67" style="fill:#b2b2b2"></rect><rect x="342.52" y="133.54" width="32.73" height="13.53" rx="3.33" style="fill:#92E3A9"></rect><path d="M348.77,142.24l-.27,1.4h-.72l1.34-7h1.12l1.33,7h-.77l-.27-1.4Zm.1-.67h1.55l-.79-4Z" style="fill:#263238"></path><path d="M355.25,138.36V139h-.73v-.67c0-.63-.25-1-.82-1s-.82.38-.82,1V142c0,.63.26,1,.82,1s.82-.37.82-1v-.91h.73V142c0,1-.5,1.75-1.57,1.75s-1.56-.7-1.56-1.75v-3.6c0-1.06.5-1.75,1.56-1.75S355.25,137.3,355.25,138.36Z" style="fill:#263238"></path><path d="M359,138.36V139h-.73v-.67c0-.63-.25-1-.82-1s-.82.38-.82,1V142c0,.63.26,1,.82,1s.82-.37.82-1v-.91H359V142c0,1-.5,1.75-1.57,1.75s-1.56-.7-1.56-1.75v-3.6c0-1.06.5-1.75,1.56-1.75S359,137.3,359,138.36Z" style="fill:#263238"></path><path d="M362.21,139.76v.7h-1.7v2.48h2.09v.7h-2.86v-7h2.86v.7h-2.09v2.38Z" style="fill:#263238"></path><path d="M364.84,136.68c1.09,0,1.56.64,1.56,1.7v.83c0,1.11-.52,1.69-1.62,1.69h-.69v2.74h-.77v-7Zm-.06,3.52c.58,0,.85-.27.85-.94v-.92c0-.64-.22-1-.79-1h-.75v2.82Z" style="fill:#263238"></path><path d="M368,143.64v-6.26h-1.28v-.7h3.33v.7h-1.28v6.26Z" style="fill:#263238"></path><rect x="378.6" y="133.54" width="32.73" height="13.53" rx="3.33" style="fill:#92E3A9"></rect><path d="M385.69,136.68c1.09,0,1.58.65,1.58,1.73v3.51c0,1.06-.49,1.72-1.58,1.72h-1.63v-7Zm0,6.26c.56,0,.83-.35.83-1v-3.58c0-.64-.27-1-.84-1h-.83v5.56Z" style="fill:#263238"></path><path d="M390.48,139.76v.7h-1.71v2.48h2.09v.7H388v-7h2.86v.7h-2.09v2.38Z" style="fill:#263238"></path><path d="M394.65,138.36V139h-.73v-.67c0-.63-.25-1-.82-1s-.82.38-.82,1V142c0,.63.26,1,.82,1s.82-.37.82-1v-.91h.73V142c0,1-.5,1.75-1.57,1.75s-1.56-.7-1.56-1.75v-3.6c0-1.06.5-1.75,1.56-1.75S394.65,137.3,394.65,138.36Z" style="fill:#263238"></path><path d="M395.36,143.64v-7h.77v6.26h2v.7Z" style="fill:#263238"></path><path d="M399.48,136.68v7h-.77v-7Z" style="fill:#263238"></path><path d="M401,143.64h-.69v-7h1l1.62,5v-5h.68v7h-.8L401,138Z" style="fill:#263238"></path><path d="M406.82,139.76v.7h-1.7v2.48h2.09v.7h-2.86v-7h2.86v.7h-2.09v2.38Z" style="fill:#263238"></path><rect x="172" y="203.52" width="239.33" height="22.67" style="fill:#b2b2b2"></rect><rect x="342.52" y="186.49" width="32.73" height="13.53" rx="3.33" style="fill:#92E3A9"></rect><path d="M348.77,195.18l-.27,1.41h-.72l1.34-7h1.12l1.33,7h-.77l-.27-1.41Zm.1-.66h1.55l-.79-4Z" style="fill:#263238"></path><path d="M355.25,191.3v.63h-.73v-.67c0-.62-.25-1-.82-1s-.82.38-.82,1V195c0,.62.26,1,.82,1s.82-.38.82-1V194h.73v.87c0,1.05-.5,1.75-1.57,1.75s-1.56-.7-1.56-1.75V191.3c0-1.05.5-1.75,1.56-1.75S355.25,190.25,355.25,191.3Z" style="fill:#263238"></path><path d="M359,191.3v.63h-.73v-.67c0-.62-.25-1-.82-1s-.82.38-.82,1V195c0,.62.26,1,.82,1s.82-.38.82-1V194H359v.87c0,1.05-.5,1.75-1.57,1.75s-1.56-.7-1.56-1.75V191.3c0-1.05.5-1.75,1.56-1.75S359,190.25,359,191.3Z" style="fill:#263238"></path><path d="M362.21,192.71v.69h-1.7v2.48h2.09v.71h-2.86v-7h2.86v.71h-2.09v2.38Z" style="fill:#263238"></path><path d="M364.84,189.62c1.09,0,1.56.65,1.56,1.7v.84c0,1.1-.52,1.68-1.62,1.68h-.69v2.75h-.77v-7Zm-.06,3.53c.58,0,.85-.27.85-.94v-.93c0-.63-.22-.95-.79-.95h-.75v2.82Z" style="fill:#263238"></path><path d="M368,196.59v-6.26h-1.28v-.71h3.33v.71h-1.28v6.26Z" style="fill:#263238"></path><rect x="378.6" y="186.49" width="32.73" height="13.53" rx="3.33" style="fill:#92E3A9"></rect><path d="M385.69,189.62c1.09,0,1.58.66,1.58,1.73v3.52c0,1.06-.49,1.72-1.58,1.72h-1.63v-7Zm0,6.26c.56,0,.83-.35.83-1v-3.59c0-.63-.27-1-.84-1h-.83v5.55Z" style="fill:#263238"></path><path d="M390.48,192.71v.69h-1.71v2.48h2.09v.71H388v-7h2.86v.71h-2.09v2.38Z" style="fill:#263238"></path><path d="M394.65,191.3v.63h-.73v-.67c0-.62-.25-1-.82-1s-.82.38-.82,1V195c0,.62.26,1,.82,1s.82-.38.82-1V194h.73v.87c0,1.05-.5,1.75-1.57,1.75s-1.56-.7-1.56-1.75V191.3c0-1.05.5-1.75,1.56-1.75S394.65,190.25,394.65,191.3Z" style="fill:#263238"></path><path d="M395.36,196.59v-7h.77v6.26h2v.71Z" style="fill:#263238"></path><path d="M399.48,189.62v7h-.77v-7Z" style="fill:#263238"></path><path d="M401,196.59h-.69v-7h1l1.62,5v-5h.68v7h-.8L401,191Z" style="fill:#263238"></path><path d="M406.82,192.71v.69h-1.7v2.48h2.09v.71h-2.86v-7h2.86v.71h-2.09v2.38Z" style="fill:#263238"></path><rect x="172" y="256.47" width="239.33" height="22.67" style="fill:#b2b2b2"></rect><path d="M178.24,126.77h-.9L176,120.09v6.7h-.82v-8.4h1.31l1.38,6.7,1.33-6.7h1.31v8.4h-.89V120Z" style="fill:#263238"></path><path d="M182.37,125.09l-.32,1.7h-.87l1.61-8.4h1.35l1.61,8.4h-.93l-.33-1.7Zm.12-.8h1.87l-1-4.84Z" style="fill:#263238"></path><path d="M187.31,126.79h-.84v-8.4h1.19l1.94,6.07v-6.07h.83v8.4h-1L187.31,120Z" style="fill:#263238"></path><path d="M192.34,125.09l-.32,1.7h-.87l1.61-8.4h1.36l1.6,8.4h-.93l-.33-1.7Zm.12-.8h1.87l-.94-4.84Z" style="fill:#263238"></path><path d="M200.15,120.42v.72h-.89v-.77c0-.76-.3-1.21-1-1.21s-1,.45-1,1.21v4.44c0,.75.31,1.21,1,1.21s1-.46,1-1.21v-1.68h-.86v-.84h1.75v2.47c0,1.27-.6,2.11-1.89,2.11s-1.89-.84-1.89-2.11v-4.34c0-1.27.6-2.11,1.89-2.11S200.15,119.15,200.15,120.42Z" style="fill:#263238"></path><path d="M204,122.11V123H202v3h2.52v.86H201v-8.4h3.46v.85H202v2.87Z" style="fill:#263238"></path><path d="M208.43,126.79v-7.55h-1.54v-.85h4v.85h-1.54v7.55Z" style="fill:#263238"></path><path d="M212,125.09l-.32,1.7h-.86l1.6-8.4h1.36l1.61,8.4h-.94l-.32-1.7Zm.12-.8H214l-.94-4.84Z" style="fill:#263238"></path><path d="M219.78,120.41v.22h-.88v-.27c0-.76-.29-1.2-1-1.2s-1,.44-1,1.19c0,1.88,2.82,2.06,2.82,4.42,0,1.27-.62,2.1-1.9,2.1S216,126,216,124.77v-.48h.87v.53c0,.75.32,1.2,1,1.2s1-.45,1-1.2c0-1.87-2.81-2-2.81-4.41,0-1.3.6-2.1,1.86-2.1S219.78,119.13,219.78,120.41Z" style="fill:#263238"></path><path d="M222,123.14l-.49.83v2.82h-.94v-8.4h.94v4l2.23-4h.95l-2.13,3.83,2.2,4.57h-1Z" style="fill:#263238"></path><path d="M229.1,120.41v.22h-.89v-.27c0-.76-.29-1.2-1-1.2s-1,.44-1,1.19c0,1.88,2.82,2.06,2.82,4.42,0,1.27-.61,2.1-1.9,2.1s-1.88-.83-1.88-2.1v-.48h.88v.53c0,.75.31,1.2,1,1.2s1-.45,1-1.2c0-1.87-2.8-2-2.8-4.41,0-1.3.6-2.1,1.85-2.1S229.1,119.13,229.1,120.41Z" style="fill:#263238"></path><path d="M72.78,126.79v-7.55H71.24v-.85h4v.85H73.71v7.55Z" style="fill:#263238"></path><path d="M76.38,125.09l-.32,1.7H75.2l1.6-8.4h1.36l1.61,8.4h-.94l-.32-1.7Zm.12-.8h1.88l-.95-4.84Z" style="fill:#263238"></path><path d="M84.14,120.41v.22h-.89v-.27c0-.76-.29-1.2-1-1.2s-1,.44-1,1.19c0,1.88,2.82,2.06,2.82,4.42,0,1.27-.61,2.1-1.9,2.1s-1.88-.83-1.88-2.1v-.48h.87v.53c0,.75.32,1.2,1,1.2s1-.45,1-1.2c0-1.87-2.8-2-2.8-4.41,0-1.3.59-2.1,1.85-2.1S84.14,119.13,84.14,120.41Z" style="fill:#263238"></path><path d="M86.39,123.14l-.49.83v2.82H85v-8.4h.94v4l2.23-4h1L87,122.22l2.19,4.57h-1Z" style="fill:#263238"></path><path d="M93.57,118.39c1.32,0,1.88.78,1.88,2v1c0,1.33-.62,2-2,2h-.83v3.31h-.94v-8.4Zm-.07,4.25c.69,0,1-.33,1-1.13v-1.12c0-.76-.28-1.15-1-1.15h-.9v3.4Z" style="fill:#263238"></path><path d="M97,125.09l-.33,1.7h-.86l1.61-8.4h1.35l1.61,8.4h-.94l-.32-1.7Zm.12-.8H99l-1-4.84Z" style="fill:#263238"></path><path d="M101.92,126.79h-.84v-8.4h1.19l1.94,6.07v-6.07H105v8.4h-1L101.92,120Z" style="fill:#263238"></path><path d="M109,122.11V123h-2v3h2.52v.86H106v-8.4h3.46v.85h-2.52v2.87Z" style="fill:#263238"></path><path d="M110.32,126.79v-8.4h.94v7.54h2.4v.86Z" style="fill:#263238"></path><path d="M76.91,165.23H76l-1.39-6.68v6.69H73.8v-8.39h1.31l1.38,6.7,1.33-6.7h1.31v8.39h-.89v-6.75Z" style="fill:#263238"></path><path d="M81,163.55l-.33,1.69h-.86l1.61-8.39h1.35l1.61,8.39h-.94l-.32-1.69Zm.12-.8H83l-1-4.85Z" style="fill:#263238"></path><path d="M86,165.24h-.84v-8.39h1.19l1.94,6.07v-6.07h.83v8.39h-1L86,158.46Z" style="fill:#263238"></path><path d="M91,163.55l-.32,1.69h-.87l1.61-8.39h1.35l1.61,8.39h-.93l-.33-1.69Zm.12-.8H93l-1-4.85Z" style="fill:#263238"></path><path d="M98.82,158.88v.71h-.89v-.76c0-.76-.3-1.21-1-1.21s-1,.45-1,1.21v4.43c0,.76.32,1.22,1,1.22s1-.46,1-1.22v-1.67h-.86v-.84h1.75v2.47c0,1.27-.6,2.11-1.9,2.11S95,164.49,95,163.22v-4.34c0-1.28.6-2.12,1.88-2.12S98.82,157.6,98.82,158.88Z" style="fill:#263238"></path><path d="M102.7,160.57v.84h-2.06v3h2.52v.85H99.71v-8.39h3.45v.85h-2.52v2.87Z" style="fill:#263238"></path><path d="M107.1,165.24V157.7h-1.55v-.85h4v.85H108v7.54Z" style="fill:#263238"></path><path d="M110.7,163.55l-.32,1.69h-.87l1.61-8.39h1.36l1.6,8.39h-.93l-.33-1.69Zm.12-.8h1.87l-1-4.85Z" style="fill:#263238"></path><path d="M118.45,158.86v.23h-.89v-.27c0-.76-.28-1.2-1-1.2s-1,.44-1,1.18c0,1.89,2.82,2.07,2.82,4.43,0,1.27-.61,2.1-1.89,2.1s-1.89-.83-1.89-2.1v-.48h.88v.53c0,.75.31,1.2,1,1.2s1-.45,1-1.2c0-1.87-2.81-2.05-2.81-4.42,0-1.29.6-2.1,1.86-2.1S118.45,157.59,118.45,158.86Z" style="fill:#263238"></path><path d="M120.71,161.6l-.49.83v2.81h-.94v-8.39h.94v4.05l2.23-4.05h.94l-2.12,3.82,2.2,4.57h-1Z" style="fill:#263238"></path><path d="M127.76,158.86v.23h-.88v-.27c0-.76-.29-1.2-1-1.2s-1,.44-1,1.18c0,1.89,2.81,2.07,2.81,4.43,0,1.27-.61,2.1-1.89,2.1s-1.88-.83-1.88-2.1v-.48h.87v.53c0,.75.31,1.2,1,1.2s1-.45,1-1.2c0-1.87-2.81-2.05-2.81-4.42,0-1.29.6-2.1,1.86-2.1S127.76,157.59,127.76,158.86Z" style="fill:#263238"></path><path d="M75,217.24V209.7H73.48v-.85h4v.85H76v7.54Z" style="fill:#263238"></path><path d="M78.62,215.55l-.32,1.69h-.86l1.6-8.39H80.4L82,217.24h-.94l-.32-1.69Zm.12-.8h1.88l-1-4.85Z" style="fill:#263238"></path><path d="M86.38,210.86v.23h-.89v-.27c0-.76-.29-1.2-1-1.2s-1,.44-1,1.18c0,1.89,2.82,2.07,2.82,4.43,0,1.27-.61,2.1-1.9,2.1s-1.88-.83-1.88-2.1v-.48h.87v.53c0,.75.32,1.2,1,1.2s1-.45,1-1.2c0-1.87-2.8-2.05-2.8-4.42,0-1.29.59-2.1,1.85-2.1S86.38,209.59,86.38,210.86Z" style="fill:#263238"></path><path d="M88.63,213.6l-.49.83v2.81H87.2v-8.39h.94v4.05l2.23-4.05h.95l-2.12,3.82,2.19,4.57h-1Z" style="fill:#263238"></path><path d="M95.69,210.86v.23H94.8v-.27c0-.76-.29-1.2-1-1.2s-1,.44-1,1.18c0,1.89,2.82,2.07,2.82,4.43,0,1.27-.61,2.1-1.9,2.1s-1.88-.83-1.88-2.1v-.48h.88v.53c0,.75.31,1.2,1,1.2s1-.45,1-1.2c0-1.87-2.8-2.05-2.8-4.42,0-1.29.6-2.1,1.86-2.1S95.69,209.59,95.69,210.86Z" style="fill:#263238"></path><path d="M99.31,208.85v8.39h-.93v-8.39Z" style="fill:#263238"></path><path d="M101.1,217.24h-.84v-8.39h1.19l1.94,6.07v-6.07h.83v8.39h-1l-2.15-6.78Z" style="fill:#263238"></path><path d="M108.88,208.85c1.31,0,1.88.78,1.88,2.05v1c0,1.33-.62,2-2,2H108v3.31H107v-8.39Zm-.08,4.24c.7,0,1-.32,1-1.12v-1.12c0-.77-.28-1.15-1-1.15H108v3.39Z" style="fill:#263238"></path><path d="M113.36,208.85c1.32,0,1.87.67,1.87,1.92v.68c0,.92-.32,1.5-1,1.73.77.23,1.06.85,1.06,1.75v1.31a2.13,2.13,0,0,0,.16,1h-.94a2.14,2.14,0,0,1-.16-1V214.9c0-.94-.44-1.24-1.22-1.24h-.66v3.58h-.94v-8.39Zm-.24,4c.75,0,1.19-.24,1.19-1.16v-.8c0-.75-.27-1.15-1-1.15h-.91v3.11Z" style="fill:#263238"></path><path d="M116.15,210.88c0-1.29.63-2.12,1.92-2.12s1.93.83,1.93,2.12v4.34a1.85,1.85,0,0,1-1.93,2.11c-1.29,0-1.92-.84-1.92-2.11Zm.92,4.38c0,.77.33,1.22,1,1.22s1-.45,1-1.22v-4.43c0-.76-.31-1.21-1-1.21s-1,.45-1,1.21Z" style="fill:#263238"></path><path d="M124.59,210.88v.71h-.88v-.76c0-.76-.3-1.21-1-1.21s-1,.45-1,1.21v4.43c0,.76.31,1.22,1,1.22s1-.46,1-1.22v-1.67h-.87v-.84h1.75v2.47c0,1.27-.6,2.11-1.89,2.11s-1.88-.84-1.88-2.11v-4.34c0-1.28.6-2.12,1.88-2.12S124.59,209.6,124.59,210.88Z" style="fill:#263238"></path><path d="M127.36,208.85c1.31,0,1.87.67,1.87,1.92v.68a1.58,1.58,0,0,1-1,1.73c.77.23,1.06.85,1.06,1.75v1.31a2,2,0,0,0,.17,1h-.95a2.14,2.14,0,0,1-.16-1V214.9c0-.94-.44-1.24-1.22-1.24h-.66v3.58h-.94v-8.39Zm-.24,4c.74,0,1.18-.24,1.18-1.16v-.8c0-.75-.27-1.15-1-1.15h-.91v3.11Z" style="fill:#263238"></path><path d="M133.2,212.57v.84h-2v3h2.52v.85h-3.46v-8.39h3.46v.85h-2.52v2.87Z" style="fill:#263238"></path><path d="M138.17,210.86v.23h-.89v-.27c0-.76-.29-1.2-1-1.2s-1,.44-1,1.18c0,1.89,2.82,2.07,2.82,4.43,0,1.27-.61,2.1-1.9,2.1s-1.88-.83-1.88-2.1v-.48h.88v.53c0,.75.31,1.2,1,1.2s1-.45,1-1.2c0-1.87-2.8-2.05-2.8-4.42,0-1.29.6-2.1,1.86-2.1S138.17,209.59,138.17,210.86Z" style="fill:#263238"></path><path d="M142.63,210.86v.23h-.89v-.27c0-.76-.28-1.2-1-1.2s-1,.44-1,1.18c0,1.89,2.82,2.07,2.82,4.43,0,1.27-.61,2.1-1.89,2.1s-1.89-.83-1.89-2.1v-.48h.88v.53c0,.75.31,1.2,1,1.2s1-.45,1-1.2c0-1.87-2.81-2.05-2.81-4.42,0-1.29.6-2.1,1.86-2.1S142.63,209.59,142.63,210.86Z" style="fill:#263238"></path><path d="M77.52,264.88v.75h-.89v-.8c0-.76-.3-1.21-1-1.21s-1,.45-1,1.21v4.43c0,.76.32,1.22,1,1.22s1-.46,1-1.22v-1.09h.89v1.05c0,1.27-.6,2.11-1.9,2.11s-1.88-.84-1.88-2.11v-4.34c0-1.28.6-2.12,1.88-2.12S77.52,263.6,77.52,264.88Z" style="fill:#263238"></path><path d="M78.3,264.88c0-1.29.64-2.12,1.92-2.12s1.93.83,1.93,2.12v4.34c0,1.27-.63,2.11-1.93,2.11s-1.92-.84-1.92-2.11Zm.92,4.38c0,.77.33,1.22,1,1.22s1-.45,1-1.22v-4.43c0-.76-.32-1.21-1-1.21s-1,.45-1,1.21Z" style="fill:#263238"></path><path d="M86.14,271.23h-.9l-1.4-6.68v6.69H83v-8.39h1.31l1.38,6.7,1.33-6.7h1.3v8.39h-.88v-6.75Z" style="fill:#263238"></path><path d="M91.15,262.85c1.32,0,1.89.78,1.89,2v1a1.76,1.76,0,0,1-2,2h-.83v3.31h-.93v-8.39Zm-.07,4.24c.7,0,1-.32,1-1.12v-1.12c0-.77-.27-1.15-1-1.15h-.9v3.39Z" style="fill:#263238"></path><path d="M93.77,271.24v-8.39h.93v7.54h2.4v.85Z" style="fill:#263238"></path><path d="M100.8,266.57v.84h-2v3h2.52v.85H97.81v-8.39h3.46v.85H98.75v2.87Z" style="fill:#263238"></path><path d="M103.34,271.24V263.7H101.8v-.85h4v.85h-1.54v7.54Z" style="fill:#263238"></path><path d="M109.44,266.57v.84h-2v3h2.52v.85h-3.46v-8.39h3.46v.85h-2.52v2.87Z" style="fill:#263238"></path><path d="M112.74,262.85c1.31,0,1.91.79,1.91,2.09v4.23c0,1.28-.6,2.07-1.91,2.07h-2v-8.39Zm0,7.54c.67,0,1-.42,1-1.19v-4.31c0-.77-.32-1.19-1-1.19h-1v6.69Z" style="fill:#263238"></path><path d="M118.6,271.24V263.7h-1.55v-.85h4v.85h-1.55v7.54Z" style="fill:#263238"></path><path d="M122.2,269.55l-.33,1.69H121l1.61-8.39H124l1.61,8.39h-.94l-.32-1.69Zm.12-.8h1.87l-1-4.85Z" style="fill:#263238"></path><path d="M130,264.86v.23h-.89v-.27c0-.76-.29-1.2-1-1.2s-1,.44-1,1.18c0,1.89,2.82,2.07,2.82,4.43,0,1.27-.61,2.1-1.9,2.1s-1.88-.83-1.88-2.1v-.48h.88v.53c0,.75.31,1.2,1,1.2s1-.45,1-1.2c0-1.87-2.8-2-2.8-4.42,0-1.29.6-2.1,1.85-2.1S130,263.59,130,264.86Z" style="fill:#263238"></path><path d="M132.2,267.6l-.49.83v2.81h-.93v-8.39h.93v4l2.23-4h.95l-2.12,3.82,2.19,4.57h-1Z" style="fill:#263238"></path><path d="M139.26,264.86v.23h-.89v-.27c0-.76-.29-1.2-1-1.2s-1,.44-1,1.18c0,1.89,2.82,2.07,2.82,4.43,0,1.27-.61,2.1-1.89,2.1s-1.89-.83-1.89-2.1v-.48h.88v.53c0,.75.31,1.2,1,1.2s1-.45,1-1.2c0-1.87-2.8-2-2.8-4.42,0-1.29.6-2.1,1.86-2.1S139.26,263.59,139.26,264.86Z" style="fill:#263238"></path><rect x="342.52" y="239.43" width="32.73" height="13.53" rx="3.33" style="fill:#92E3A9"></rect><path d="M348.77,248.13l-.27,1.4h-.72l1.34-7h1.12l1.33,7h-.77l-.27-1.4Zm.1-.67h1.55l-.79-4Z" style="fill:#263238"></path><path d="M355.25,244.25v.63h-.73v-.67c0-.63-.25-1-.82-1s-.82.37-.82,1v3.68c0,.63.26,1,.82,1s.82-.38.82-1V247h.73v.86c0,1.06-.5,1.75-1.57,1.75s-1.56-.69-1.56-1.75v-3.6c0-1.05.5-1.75,1.56-1.75S355.25,243.2,355.25,244.25Z" style="fill:#263238"></path><path d="M359,244.25v.63h-.73v-.67c0-.63-.25-1-.82-1s-.82.37-.82,1v3.68c0,.63.26,1,.82,1s.82-.38.82-1V247H359v.86c0,1.06-.5,1.75-1.57,1.75s-1.56-.69-1.56-1.75v-3.6c0-1.05.5-1.75,1.56-1.75S359,243.2,359,244.25Z" style="fill:#263238"></path><path d="M362.21,245.65v.7h-1.7v2.48h2.09v.7h-2.86v-7h2.86v.71h-2.09v2.37Z" style="fill:#263238"></path><path d="M364.84,242.57c1.09,0,1.56.65,1.56,1.7v.84c0,1.1-.52,1.68-1.62,1.68h-.69v2.74h-.77v-7Zm-.06,3.52c.58,0,.85-.27.85-.93v-.93c0-.64-.22-.95-.79-.95h-.75v2.81Z" style="fill:#263238"></path><path d="M368,249.53v-6.25h-1.28v-.71h3.33v.71h-1.28v6.25Z" style="fill:#263238"></path><rect x="378.6" y="239.43" width="32.73" height="13.53" rx="3.33" style="fill:#92E3A9"></rect><path d="M385.69,242.57c1.09,0,1.58.66,1.58,1.73v3.51c0,1.07-.49,1.72-1.58,1.72h-1.63v-7Zm0,6.26c.56,0,.83-.35.83-1v-3.58c0-.64-.27-1-.84-1h-.83v5.55Z" style="fill:#263238"></path><path d="M390.48,245.65v.7h-1.71v2.48h2.09v.7H388v-7h2.86v.71h-2.09v2.37Z" style="fill:#263238"></path><path d="M394.65,244.25v.63h-.73v-.67c0-.63-.25-1-.82-1s-.82.37-.82,1v3.68c0,.63.26,1,.82,1s.82-.38.82-1V247h.73v.86c0,1.06-.5,1.75-1.57,1.75s-1.56-.69-1.56-1.75v-3.6c0-1.05.5-1.75,1.56-1.75S394.65,243.2,394.65,244.25Z" style="fill:#263238"></path><path d="M395.36,249.53v-7h.77v6.26h2v.7Z" style="fill:#263238"></path><path d="M399.48,242.57v7h-.77v-7Z" style="fill:#263238"></path><path d="M401,249.53h-.69v-7h1l1.62,5v-5h.68v7h-.8L401,243.9Z" style="fill:#263238"></path><path d="M406.82,245.65v.7h-1.7v2.48h2.09v.7h-2.86v-7h2.86v.71h-2.09v2.37Z" style="fill:#263238"></path><rect x="61" y="81.5" width="364" height="20" style="fill:#92E3A9;stroke:#263238;stroke-linecap:round;stroke-miterlimit:10"></rect><rect x="61" y="61" width="364" height="271" style="fill:none;stroke:#263238;stroke-linecap:round;stroke-miterlimit:10"></rect><rect x="61" y="61" width="364" height="20" style="fill:#263238;stroke:#263238;stroke-linecap:round;stroke-miterlimit:10"></rect><circle cx="380" cy="70" r="5" style="fill:#92E3A9;stroke:#263238;stroke-linecap:round;stroke-miterlimit:10"></circle><circle cx="397" cy="70" r="5" style="fill:#9c9c9c;stroke:#263238;stroke-miterlimit:10"></circle><circle cx="414" cy="70" r="5" style="fill:#9c9c9c;stroke:#263238;stroke-miterlimit:10"></circle><path d="M367.77,162.89,364.64,160a1.74,1.74,0,0,0-2.66.34h0a1.74,1.74,0,0,0,.25,2.16l6.18,6.13a9.09,9.09,0,0,0,11.68.83h0a9.1,9.1,0,0,0,2.76-11.48l-4.39-8.08a2,2,0,0,0-1.61-1.06c-.64,0-1.33.22-1.51,1.4,0,0-2.38-2.15-4,.45,0,0-2.59-2.45-4.3.52l-2.72-5.3a2.15,2.15,0,0,0-2.79-1.05h0a2.15,2.15,0,0,0-1.09,2.89Z" style="fill:#fff"></path><path d="M374.74,171.66a9.6,9.6,0,0,1-6.68-2.71l-6.18-6.14a2.24,2.24,0,0,1,3.1-3.22l1.22,1.15L360,147.92a2.64,2.64,0,0,1,1.34-3.55,2.64,2.64,0,0,1,3.44,1.28l2.35,4.54a2.7,2.7,0,0,1,1.67-1,3.5,3.5,0,0,1,2.45.71,2.67,2.67,0,0,1,1.75-1.05,3.33,3.33,0,0,1,2.07.5,1.77,1.77,0,0,1,1.83-1.09,2.48,2.48,0,0,1,2,1.32l4.39,8.08a9.61,9.61,0,0,1-8.55,14ZM363.45,160h-.16a1.23,1.23,0,0,0-.71,2.1l6.18,6.14a8.6,8.6,0,0,0,13.65-10.07L378,150.1a1.49,1.49,0,0,0-1.2-.81c-.41,0-.85.08-1,1l-.14.92-.69-.62a2.75,2.75,0,0,0-1.89-.7,2,2,0,0,0-1.36,1l-.32.51L371,151a3,3,0,0,0-2.07-.79,2.13,2.13,0,0,0-1.46,1.2l-.47.82-3.13-6.16a1.64,1.64,0,0,0-2.14-.8,1.63,1.63,0,0,0-.89.93,1.65,1.65,0,0,0,.05,1.29L369.34,165l-5-4.72A1.28,1.28,0,0,0,363.45,160Z" style="fill:#263238"></path><path d="M369.33,157.09a.5.5,0,0,1-.46-.31l-2.3-5.42a.5.5,0,0,1,.26-.65.5.5,0,0,1,.66.26l2.3,5.42a.5.5,0,0,1-.27.66A.65.65,0,0,1,369.33,157.09Z" style="fill:#263238"></path><path d="M373.34,155.9a.52.52,0,0,1-.47-.31l-2-4.75a.5.5,0,0,1,.92-.38l2,4.74a.52.52,0,0,1-.27.66A.43.43,0,0,1,373.34,155.9Z" style="fill:#263238"></path><path d="M377.27,154.86a.52.52,0,0,1-.46-.29l-1.93-4.15a.52.52,0,0,1,.25-.67.5.5,0,0,1,.66.24l1.93,4.16a.49.49,0,0,1-.24.66A.54.54,0,0,1,377.27,154.86Z" style="fill:#263238"></path></g><g id="Character"><path d="M262.45,317.58s-.23,13-.23,19.79S260,394.68,260,394.68s-5.41,0-6.77,2.71-2.25,8.58-2.25,8.58-9.93,3.61-13.09,8.57-4.06,8.58-5,9.93-9.47,5.42-9.47,5.42,5,2.25,6.77,5.41a54,54,0,0,1,3.15,6.77s9-1.35,20.76-3.61,21.22-4.51,24.83-8.12S292,415,292,415s.91-43.77-3.61-60.92-16.46-37.84-16.46-37.84" style="fill:#fff;stroke:#263238;stroke-miterlimit:10"></path><path d="M244.45,434.31a10.72,10.72,0,0,1,.17,3.25" style="fill:none;stroke:#263238;stroke-miterlimit:10"></path><path d="M234.69,425.37S241,427,243.61,432" style="fill:none;stroke:#263238;stroke-miterlimit:10"></path><path d="M260.79,404.71a8.66,8.66,0,0,0-2.18-1.45" style="fill:none;stroke:#263238;stroke-miterlimit:10"></path><path d="M253.64,406.87s3.61,3.61,6.77,7.22,14.45,7.22,14.45,7.22-6.84-9.47-12.09-14.75" style="fill:none;stroke:#263238;stroke-miterlimit:10"></path><path d="M223.41,429.89s-22.08-4.65-24.34-4.2-9.93,3.64-15.83,11.42c-2.51,3.31-.45,4.51,1.35,4.06s4.88-4.51,6.54-6.51c.92-1.1,6.37-3.65,6.37-3.65s-7.49,6.55-8.39,10.16-2.26,6.32-.45,7.67,4.3-3.44,4.3-3.44l4.27-6.94,5.42-4.06s-5,3.51-7.79,14.23a1.33,1.33,0,0,0,.58,1.38,2.8,2.8,0,0,0,4.22-.86c1.26-2.26,4.58-8.32,6.15-10.24,1.94-2.38,6.86-2.77,6.86-2.77s-5.14,4.09-6,6.35-1.81,7.38,0,7.83,3.83-5.7,6.44-7.68a66.3,66.3,0,0,1,6.73-3.73s5.41-.9,4.51,3.16-8.12,3.61-8.58,6.32,6.77.45,8.58.45,8.57-1.8,9-6.77S227,431.24,223.41,429.89Z" style="fill:#fff;stroke:#263238;stroke-miterlimit:10"></path><path d="M202.65,434.4a29.32,29.32,0,0,1,3-2.4,25.45,25.45,0,0,1,4.16-.67" style="fill:#fff;stroke:#263238;stroke-miterlimit:10"></path><path d="M197.5,431s2.13-2,3.13-2.18,3.83-.5,3.83-.5" style="fill:#fff;stroke:#263238;stroke-miterlimit:10"></path><path d="M272.6,347.75s15.77,59.92,16.7,67.24-1.36,37-1.36,37H395.81a113.76,113.76,0,0,0,2.7-24.82c0-14-9.69-98.76-11.05-103.73s-6.32-15.79-11.73-19.41-47.39-21.66-47.39-21.66l-32.49,14.44s-33,17.6-33.4,20.76,1.81,15.8,1.81,15.8" style="fill:#fff;stroke:#263238;stroke-miterlimit:10"></path><polygon points="294.21 307.92 297.85 321.36 299.54 424.47 309.61 437.35 318.57 423.07 301.77 321.08 307.09 307.64 300.37 296.73 294.21 307.92" style="fill:#92E3A9;stroke:#263238;stroke-miterlimit:10"></polygon><polygon points="315.29 428.3 306.45 433.3 309.61 437.35 315.29 428.3" style="fill:#263238;stroke:#263238;stroke-miterlimit:10"></polygon><polygon points="304.44 338.64 303.73 332.86 298.36 335.39 298.3 341.69 304.44 338.64" style="fill:#263238;stroke:#263238;stroke-miterlimit:10"></polygon><polygon points="294.21 307.92 296.89 317.8 304.86 313.3 307.09 307.64 303.1 301.15 295.61 305.39 294.21 307.92" style="fill:#263238;stroke:#263238;stroke-miterlimit:10"></polygon><polygon points="315.77 403.46 314.03 391.31 299.41 399.58 299.48 412.67 315.77 403.46" style="fill:#263238;stroke:#263238;stroke-miterlimit:10"></polygon><polygon points="309.82 370.4 307.68 358.39 298.62 363.28 298.68 376.38 309.82 370.4" style="fill:#263238;stroke:#263238;stroke-miterlimit:10"></polygon><polygon points="295.06 294.49 290.02 315.2 300.37 305.13 295.06 294.49" style="fill:#fff;stroke:#263238;stroke-miterlimit:10"></polygon><path d="M254.65,234.22s.65,5.12,1.21,8.76.56,7.56.84,10.92,6.16,6.44,6.16,6.44a83.7,83.7,0,0,1-1.4,9.51c-.84,3.36-1,3.2.11,4.32s5.88,2,5.88,2,6.89,15.56,8.29,17.24,3.64,3.08,7.84,2.8,9.8-3.64,9.8-3.64l7,12.6,23-27.44s-6.72-15.39-7-22.39,1.3-18.28-.66-28.36-16.23-19-28-20.71-28.27,6.43-34.71,11.19-5.6,13.72-3.92,15.68S254.65,234.22,254.65,234.22Z" style="fill:#fff;stroke:#263238;stroke-miterlimit:10"></path><polygon points="293.38 292.53 300.37 305.13 300.46 305.02 304.21 284.13 293.38 292.53" style="fill:#263238;stroke:#263238;stroke-miterlimit:10"></polygon><path d="M271.44,232c6.72-2.52,13.72-9.24,18.76-8.12s-.74,7.92-.18,10.16,5,3.92,7.83,4.48,3.08,3.36,3.08,6.44,2.8,5.88,4.48,3.92,1.12-10.36,6.16-10.64,4.48,10.36,3.64,14-4.48,7.56-4.48,7.56,3.17,3.17,7,2.68a33.43,33.43,0,0,1-1.41-7.16c-.28-7,1.3-18.28-.66-28.36s-16.23-19-28-20.71-28.27,6.43-34.71,11.19-5.6,13.72-3.92,15.68,5.6,1.12,5.6,1.12S264.72,234.5,271.44,232Z" style="fill:#263238;stroke:#263238;stroke-miterlimit:10"></path><path d="M270.14,246.9s5.88-5.32,13.16-3.64" style="fill:none;stroke:#263238;stroke-miterlimit:10"></path><path d="M260.9,251.66a16.38,16.38,0,0,0-3.92-.56" style="fill:none;stroke:#263238;stroke-miterlimit:10"></path><path d="M280.31,254.7c.63,1.15.54,2.41-.21,2.82s-1.86-.19-2.49-1.34-.54-2.42.2-2.83S279.68,253.54,280.31,254.7Z" style="fill:#263238"></path><path d="M288.62,244.94s-10.92,1.68-19.32,5.6c0,0,3.92,10.08,5.6,11.48s10.92.28,14-2S288.62,244.94,288.62,244.94Z" style="fill:none;stroke:#263238;stroke-miterlimit:10"></path><line x1="288.62" y1="244.94" x2="307.09" y2="241.58" style="fill:none;stroke:#263238;stroke-miterlimit:10"></line><line x1="269.3" y1="250.54" x2="262.86" y2="253.06" style="fill:none;stroke:#263238;stroke-miterlimit:10"></line><path d="M264.26,252.78s-7.84,1.4-12.87,3.92c0,0,3.91,9.23,5.59,10.63a20.11,20.11,0,0,0,4.48,2.52l1.4-9.51Z" style="fill:none;stroke:#263238;stroke-miterlimit:10"></path><path d="M264,255.86s2.8-3.36,6.72-2.24" style="fill:none;stroke:#263238;stroke-miterlimit:10"></path><path d="M274.68,278s7.56-.28,11.48-4.48" style="fill:none;stroke:#263238;stroke-miterlimit:10"></path><path d="M311.57,260.06s2,9.95.34,13a69.61,69.61,0,0,1-5,7.36" style="fill:none;stroke:#263238;stroke-miterlimit:10"></path><polygon points="324.45 274.33 300.37 305.13 310.17 318 332.29 282.17 324.45 274.33" style="fill:#fff;stroke:#263238;stroke-miterlimit:10"></polygon><path d="M289.27,407.67H275.49a4.58,4.58,0,0,1-4.56-4.17l-2.4-27.18h27.71l-2.4,27.18A4.58,4.58,0,0,1,289.27,407.67Z" style="fill:#fff;stroke:#263238;stroke-linecap:round;stroke-miterlimit:10"></path><path d="M376.22,304.49c2.24,1.86,9.39,8,13,14.14,2.07,3.5,7.41,11.71,11.63,18.13a52.78,52.78,0,0,1,7.72,19.06c2.95,15.45,8.39,43.41,10.19,49.61,2.52,8.68.84,16.8-1.68,18.2s-20.44-.28-34.71-2.52-47-12.6-47-12.6-9,.84-14.56,1.12-15.4-1.68-17.36-2.8-3.91-8.12-3.91-8.12a22.07,22.07,0,0,1-3.92-3.91c-1.68-2.24-.28-6.44-.28-6.44s-1.68-3.92-.56-6.44,14.55-2.52,14.55-2.52,6.44,0,8.4,1.68,20.44,12,20.44,12l34.71,1.68s-4.2-8.68-4.48-11.76,1.68-10.08,1.68-10.92-9.52-27.15-9.8-29.67a27.34,27.34,0,0,1,2.8-17.17" style="fill:#fff;stroke:#263238;stroke-linecap:round;stroke-miterlimit:10"></path><path d="M403,380a24.22,24.22,0,0,1,4.12,3.82" style="fill:none;stroke:#263238;stroke-linecap:round;stroke-miterlimit:10"></path><path d="M374.59,370.31s15.85,1.56,26.66,8.53" style="fill:none;stroke:#263238;stroke-linecap:round;stroke-miterlimit:10"></path><path d="M349.08,404.59a20.6,20.6,0,0,0-2.24-11l-8.67-.42s-18.48-10.36-20.44-12-8.4-1.68-8.4-1.68-13.43,0-14.55,2.52.56,6.44.56,6.44-1.4,4.2.28,6.44a22.07,22.07,0,0,0,3.92,3.91s2,7,3.91,8.12,11.76,3.08,17.36,2.8,14.56-1.12,14.56-1.12,5.21,1.65,12.39,3.78A31.92,31.92,0,0,0,349.08,404.59Z" style="fill:#fff;stroke:#263238;stroke-linecap:round;stroke-miterlimit:10"></path><path d="M356.56,410.62a14.5,14.5,0,0,1-1.6,2.93" style="fill:none;stroke:#263238;stroke-linecap:round;stroke-miterlimit:10"></path><path d="M356.64,395.92a24,24,0,0,1,.75,12.06" style="fill:none;stroke:#263238;stroke-linecap:round;stroke-miterlimit:10"></path><path d="M398.92,394c2.16.42,3.63.77,3.63.77" style="fill:none;stroke:#263238;stroke-linecap:round;stroke-miterlimit:10"></path><path d="M372.88,394.8s7.84-2.24,14-2.24a53.09,53.09,0,0,1,7.59.69" style="fill:none;stroke:#263238;stroke-linecap:round;stroke-miterlimit:10"></path><path d="M270.87,373.08c0-2,1.81-2,1.81-4s-1.81-2-1.81-4,1.81-2,1.81-4-1.81-2-1.81-4,1.81-2,1.81-4" style="fill:none;stroke:#263238;stroke-linecap:round;stroke-miterlimit:10"></path><path d="M284.24,373.44c0-1.48,1.8-1.48,1.8-3s-1.8-1.48-1.8-3,1.8-1.48,1.8-3-1.8-1.48-1.8-3,1.8-1.49,1.8-3" style="fill:none;stroke:#263238;stroke-linecap:round;stroke-miterlimit:10"></path><path d="M291.47,373.08c0-2.31,1.8-2.31,1.8-4.62s-1.8-2.31-1.8-4.62,1.8-2.31,1.8-4.63-1.8-2.31-1.8-4.62,1.8-2.32,1.8-4.63" style="fill:none;stroke:#263238;stroke-linecap:round;stroke-miterlimit:10"></path></g><g id="Device"><rect x="101.37" y="447.5" width="182.5" height="4.5" style="fill:#9c9c9c;stroke:#263238;stroke-miterlimit:10"></rect><path d="M168.69,364H82a2.81,2.81,0,0,0-2.72,3.53L101.37,452h92.5l-22.45-85.9A2.82,2.82,0,0,0,168.69,364Z" style="fill:#9c9c9c;stroke:#263238;stroke-miterlimit:10"></path><path d="M101.37,452h92.5l-14.82-56.7c-11.3,5.06-26.5,10-48.68,18.7-17.58,6.88-27.66,14.44-33.41,21.15Z" style="fill:#828282;stroke:#263238;stroke-miterlimit:10"></path><line x1="189.25" y1="443.7" x2="190.03" y2="446.67" style="fill:none;stroke:#263238;stroke-miterlimit:10"></line><line x1="171.18" y1="375.38" x2="187.98" y2="438.92" style="fill:none;stroke:#263238;stroke-miterlimit:10"></line><path d="M90.7,366h75.83a2.81,2.81,0,0,1,2.72,2.09l1,3.85" style="fill:none;stroke:#263238;stroke-miterlimit:10"></path></g><g id="Table"><line x1="465" y1="452" x2="477" y2="452" style="fill:none;stroke:#263238;stroke-linecap:round;stroke-miterlimit:10"></line><line x1="33" y1="452" x2="455" y2="452" style="fill:none;stroke:#263238;stroke-linecap:round;stroke-miterlimit:10"></line></g></svg>