<svg xmlns="http://www.w3.org/2000/svg" viewBox="0 0 500 500"><g id="background-complete"><path d="M347,392.07s-11.73,8.94-.49,20.75a1,1,0,0,0,.75.31l102.5-.59s8.75-9.82,1.49-21.14Z" style="fill:#ebebeb"></path><path d="M427.06,401.4c0,.12-12.76.21-28.5.21s-28.51-.09-28.51-.21,12.76-.21,28.51-.21S427.06,401.29,427.06,401.4Z" style="fill:#e0e0e0"></path><path d="M411.12,405.11c0,.11-6,.21-13.4.21s-13.4-.1-13.4-.21,6-.21,13.4-.21S411.12,405,411.12,405.11Z" style="fill:#e0e0e0"></path><path d="M437.54,412.21c-.06,0,.23-1.18.55-3.08a42.6,42.6,0,0,0-.14-14.94c-.36-1.9-.67-3.05-.6-3.07a3.53,3.53,0,0,1,.29.79c.17.51.38,1.27.59,2.22a36.46,36.46,0,0,1,.15,15.05c-.2.95-.39,1.72-.55,2.23A3.44,3.44,0,0,1,437.54,412.21Z" style="fill:#e0e0e0"></path><path d="M445.19,391.28a3,3,0,0,1,.46.74,9.79,9.79,0,0,1,.46.92c.16.37.36.78.52,1.25a22.35,22.35,0,0,1,1,3.4,25,25,0,0,1,.44,4.32,24.28,24.28,0,0,1-.38,4.32,20.87,20.87,0,0,1-.92,3.42,12.26,12.26,0,0,1-.5,1.26,7.32,7.32,0,0,1-.44.92,3.42,3.42,0,0,1-.44.75c-.08,0,.5-1.13,1.11-3a24.87,24.87,0,0,0,.82-3.39,27.83,27.83,0,0,0,.34-4.25,26.29,26.29,0,0,0-.41-4.24,24.47,24.47,0,0,0-.88-3.38C445.71,392.41,445.12,391.31,445.19,391.28Z" style="fill:#e0e0e0"></path><path d="M363.14,412.34s-.19-.22-.48-.68a6.46,6.46,0,0,1-.48-.86,11.87,11.87,0,0,1-.55-1.17,19,19,0,0,1-1-3.24,21.23,21.23,0,0,1-.39-4.13,20.18,20.18,0,0,1,.51-4.12,17.3,17.3,0,0,1,1.08-3.2,10.42,10.42,0,0,1,.58-1.16,7.39,7.39,0,0,1,.5-.85,3.09,3.09,0,0,1,.5-.67c.07,0-.59,1-1.31,2.79a19.77,19.77,0,0,0-1,3.18,21.64,21.64,0,0,0-.47,4,22.27,22.27,0,0,0,.36,4.05,19.79,19.79,0,0,0,.9,3.2C362.58,411.29,363.21,412.3,363.14,412.34Z" style="fill:#e0e0e0"></path><path d="M352.07,414.84a4.18,4.18,0,0,1-.53-.77,9,9,0,0,1-.53-1,12.79,12.79,0,0,1-.62-1.32,21.69,21.69,0,0,1-1.18-3.62,24.94,24.94,0,0,1-.57-4.62,24.35,24.35,0,0,1,.37-4.65,21.57,21.57,0,0,1,1-3.66,14.25,14.25,0,0,1,.56-1.35,9.14,9.14,0,0,1,.49-1,4,4,0,0,1,.5-.8c.07,0-.59,1.21-1.27,3.23a24.64,24.64,0,0,0-.92,3.64,24.12,24.12,0,0,0,.21,9.12,23.59,23.59,0,0,0,1.07,3.59C351.44,413.67,352.14,414.8,352.07,414.84Z" style="fill:#e0e0e0"></path><path d="M446,443.75v19.62H408V443.75Z" style="fill:#ebebeb"></path><path d="M323.38,453.74c0,.17,0,.35,0,.52a11.24,11.24,0,0,0,11.29,10.53h113v-1.42H420.89a9.81,9.81,0,0,1-9.8-9.81h0a9.81,9.81,0,0,1,9.8-9.81h26.84v-2.08l-113.07.38A11.3,11.3,0,0,0,323.38,453.74Z" style="fill:#e0e0e0"></path><path d="M446,453.82c0,.12-7.81.21-17.43.21s-17.43-.09-17.43-.21,7.8-.2,17.43-.2S446,453.71,446,453.82Z" style="fill:#e0e0e0"></path><path d="M445.41,458.24c0,.12-7.39.21-16.49.21s-16.5-.09-16.5-.21,7.39-.2,16.5-.2S445.41,458.13,445.41,458.24Z" style="fill:#e0e0e0"></path><path d="M446,462.28c0,.12-6.64.21-14.83.21s-14.83-.09-14.83-.21,6.64-.2,14.83-.2S446,462.17,446,462.28Z" style="fill:#e0e0e0"></path><path d="M446,449.85c0,.12-7.65.21-17.07.21s-17.08-.09-17.08-.21,7.65-.21,17.08-.21S446,449.74,446,449.85Z" style="fill:#e0e0e0"></path><path d="M445.41,445.88c0,.11-6.81.21-15.2.21S415,446,415,445.88s6.8-.21,15.19-.21S445.41,445.77,445.41,445.88Z" style="fill:#e0e0e0"></path><path d="M337.07,442.38a24.88,24.88,0,0,0-2.4,2.86,14.51,14.51,0,0,0,.2,16.8,23.81,23.81,0,0,0,2.47,2.8,3.73,3.73,0,0,1-.82-.6,12.86,12.86,0,0,1-1.89-2,14.33,14.33,0,0,1-.2-17.15,12.82,12.82,0,0,1,1.84-2.07A4.25,4.25,0,0,1,337.07,442.38Z" style="fill:#f5f5f5"></path><path d="M333.25,442a23.69,23.69,0,0,0-2.4,2.86,14.52,14.52,0,0,0,.2,16.81,26.06,26.06,0,0,0,2.46,2.79,4.19,4.19,0,0,1-.81-.6,12.86,12.86,0,0,1-1.89-2,14.29,14.29,0,0,1-.2-17.15,12.82,12.82,0,0,1,1.84-2.07A3.9,3.9,0,0,1,333.25,442Z" style="fill:#f5f5f5"></path><path d="M410.06,442.38a24.23,24.23,0,0,0-2.41,2.86,14.55,14.55,0,0,0,.2,16.8,23.81,23.81,0,0,0,2.47,2.8,3.85,3.85,0,0,1-.81-.6,12.86,12.86,0,0,1-1.89-2,14.31,14.31,0,0,1-.21-17.15,12.82,12.82,0,0,1,1.84-2.07A3.77,3.77,0,0,1,410.06,442.38Z" style="fill:#f5f5f5"></path><path d="M406.23,442a26.2,26.2,0,0,0-2.4,2.86,14.52,14.52,0,0,0,.2,16.81,24.13,24.13,0,0,0,2.47,2.79,3.73,3.73,0,0,1-.82-.6,13.35,13.35,0,0,1-1.89-2,14.33,14.33,0,0,1-.2-17.15,12.82,12.82,0,0,1,1.84-2.07A4.25,4.25,0,0,1,406.23,442Z" style="fill:#f5f5f5"></path><path d="M349.93,456.5c0-2.66-.07-5.32-.1-8a5.66,5.66,0,0,0-.28-2,1.93,1.93,0,0,0-1.52-1.28c-1-.44-2.55.39-3.25,1.54a7.56,7.56,0,0,0-.78,3.91,55.25,55.25,0,0,0,.3,6.3,7.48,7.48,0,0,0,.74,2.89,2.41,2.41,0,0,0,4.57-.39A7.86,7.86,0,0,0,349.93,456.5Z" style="fill:#f5f5f5"></path><path d="M393.84,454.21c0,.11-8.18.2-18.25.2s-18.26-.09-18.26-.2,8.17-.21,18.26-.21S393.84,454.09,393.84,454.21Z" style="fill:#f5f5f5"></path><polygon points="342.36 441.6 342.15 423 352.27 423 352.62 441.6 342.36 441.6" style="fill:#f5f5f5"></polygon><path d="M351.68,426.31a52.81,52.81,0,0,1-9.41,0,52.81,52.81,0,0,1,9.41,0Z" style="fill:#e0e0e0"></path><path d="M351.68,429.18a52.81,52.81,0,0,1-9.41,0,52.81,52.81,0,0,1,9.41,0Z" style="fill:#e0e0e0"></path><path d="M351.68,432.05a52.81,52.81,0,0,1-9.41,0,52.81,52.81,0,0,1,9.41,0Z" style="fill:#e0e0e0"></path><path d="M351.68,434.92a52.81,52.81,0,0,1-9.41,0,52.81,52.81,0,0,1,9.41,0Z" style="fill:#e0e0e0"></path><path d="M351.68,437.79a52.81,52.81,0,0,1-9.41,0,52.81,52.81,0,0,1,9.41,0Z" style="fill:#e0e0e0"></path><path d="M341.62,422.51H453.79c1.38,6.16,1.19,12.93,0,20.1H342.1v-1.37h6.82a3.22,3.22,0,0,0,3.22-3.22V426.9a3.23,3.23,0,0,0-3.22-3.23h-7.3Z" style="fill:#ebebeb"></path><path d="M368.14,432.57H370a.49.49,0,0,1,.2.05.39.39,0,0,1,.2.35.37.37,0,0,1,0,.12,4.21,4.21,0,0,1-.12.48,5.31,5.31,0,0,1-1.17,2.12,2.23,2.23,0,0,1-1.6.83l-.23,0a1.82,1.82,0,0,1-1.27-.92,4.22,4.22,0,0,1-.56-2.25,6.43,6.43,0,0,1,.22-1.61,5.33,5.33,0,0,1,1.12-2.17,2.22,2.22,0,0,1,1.68-.89,1.57,1.57,0,0,1,.71.16,2.23,2.23,0,0,1,1.09,1.36.45.45,0,0,1,.05.19.36.36,0,0,1-.06.2.38.38,0,0,1-.34.2l-.13,0a.38.38,0,0,1-.26-.25l0,0a2,2,0,0,0-.22-.44,1,1,0,0,0-1.52-.31,3.33,3.33,0,0,0-1,1.47,5.62,5.62,0,0,0-.44,2.11,3.84,3.84,0,0,0,.32,1.66,1.08,1.08,0,0,0,1,.73,1.32,1.32,0,0,0,.9-.54,5,5,0,0,0,1-1.74h-1.34c-.29-.05-.44-.2-.45-.46a.5.5,0,0,1,0-.13A.44.44,0,0,1,368.14,432.57Z" style="fill:#fafafa"></path><path d="M374.5,428.92a.39.39,0,0,1,.05.13c.08.28.52,2.59,1.32,6.95a.2.2,0,0,1,0,.1.41.41,0,0,1-.05.21.37.37,0,0,1-.34.21h-.06a.37.37,0,0,1-.31-.28l-.45-2.31h-2.3l-1.11,2.32a.3.3,0,0,1,0,.08.44.44,0,0,1-.34.2.44.44,0,0,1-.22-.07.4.4,0,0,1-.19-.34.27.27,0,0,1,0-.12l.34-.76c1.62-3.52,2.58-5.6,2.9-6.23a.42.42,0,0,1,.39-.28A.4.4,0,0,1,374.5,428.92Zm-.5,1.55-1.25,2.62h1.76Z" style="fill:#fafafa"></path><path d="M380.76,436.52h-3.38a.44.44,0,0,1-.22-.07A.63.63,0,0,1,377,436h0q0-.19.93-6.92c0-.05,0-.1,0-.15a.39.39,0,0,1,.37-.24.34.34,0,0,1,.18,0,.37.37,0,0,1,.22.36c0,.3-.11.94-.23,1.9-.39,2.95-.59,4.51-.61,4.67h2.87a.54.54,0,0,1,.22.05.37.37,0,0,1,.26.37.51.51,0,0,1,0,.13A.49.49,0,0,1,380.76,436.52Z" style="fill:#fafafa"></path><path d="M385.38,428.92a.39.39,0,0,1,.05.13c.08.28.52,2.59,1.32,6.95a.2.2,0,0,1,0,.1.54.54,0,0,1,0,.21.37.37,0,0,1-.34.21h-.06a.36.36,0,0,1-.31-.28l-.45-2.31h-2.3l-1.11,2.32a.3.3,0,0,1,0,.08.44.44,0,0,1-.34.2.44.44,0,0,1-.22-.07.4.4,0,0,1-.19-.34.27.27,0,0,1,0-.12l.34-.76c1.62-3.52,2.58-5.6,2.9-6.23a.42.42,0,0,1,.38-.28A.4.4,0,0,1,385.38,428.92Zm-.5,1.55-1.25,2.62h1.76Z" style="fill:#fafafa"></path><path d="M390.77,432.91c.26.73.47,1.29.61,1.69.35,1,.52,1.47.52,1.53a.36.36,0,0,1-.06.2.39.39,0,0,1-.34.19.38.38,0,0,1-.33-.28l-.07-.17c-.18-.42-.48-1.21-.9-2.38l-1.91,2.61a.51.51,0,0,1-.36.22.42.42,0,0,1-.21-.06.37.37,0,0,1-.19-.34V436a1.09,1.09,0,0,1,.2-.33c.65-.83,1.35-1.81,2.13-3l-.23-.64c-.72-1.93-1.08-2.92-1.08-3a.35.35,0,0,1,.05-.2.34.34,0,0,1,.33-.2.38.38,0,0,1,.37.22l1.13,3,2.26-3.07a.43.43,0,0,1,.35-.19.41.41,0,0,1,.19,0,.38.38,0,0,1,.2.36.49.49,0,0,1-.05.18Z" style="fill:#fafafa"></path><path d="M399.14,428.74a.41.41,0,0,1,.18.05.39.39,0,0,1,.22.34c-.56,4.37-.86,6.74-.92,7.09a4.26,4.26,0,0,1-.72,1.84,2.6,2.6,0,0,1-3.33.82,2.4,2.4,0,0,1-1.19-1.05.41.41,0,0,1-.05-.19.36.36,0,0,1,.06-.2.38.38,0,0,1,.35-.2.35.35,0,0,1,.3.16,2.21,2.21,0,0,0,1.74,1,1.75,1.75,0,0,0,1.34-.68,3.78,3.78,0,0,0,.74-2.13,1.93,1.93,0,0,1-.5.53,2,2,0,0,1-1.21.4l-.22,0a1.8,1.8,0,0,1-1.29-.92,4.22,4.22,0,0,1-.56-2.25c0-.41,0-.84.05-1.27.07-.69.22-1.66.46-2.92a.49.49,0,0,1,0-.11.37.37,0,0,1,.36-.28.39.39,0,0,1,.2.06.35.35,0,0,1,.2.32c0,.21-.07.72-.19,1.54a20.94,20.94,0,0,0-.27,2.36,4.71,4.71,0,0,0,.31,1.83c.23.55.56.83,1,.83l.13,0a1.85,1.85,0,0,0,1-.81,4.93,4.93,0,0,0,.84-1.86l.51-3.86a1.09,1.09,0,0,1,0-.17A.39.39,0,0,1,399.14,428.74Z" style="fill:#fafafa"></path><path d="M449.58,442.87c-.12,0-.21-4.62-.21-10.31s.09-10.31.21-10.31.2,4.61.2,10.31S449.69,442.87,449.58,442.87Z" style="fill:#f5f5f5"></path><path d="M357.78,442.87c-.11,0-.2-4.62-.2-10.31s.09-10.31.2-10.31.21,4.61.21,10.31S357.9,442.87,357.78,442.87Z" style="fill:#e0e0e0"></path><path d="M451.54,442.87c-.11,0-.2-4.62-.2-10.31s.09-10.31.2-10.31.21,4.61.21,10.31S451.66,442.87,451.54,442.87Z" style="fill:#f5f5f5"></path><path d="M355.94,442.87c-.11,0-.2-4.62-.2-10.31s.09-10.31.2-10.31.21,4.61.21,10.31S356.06,442.87,355.94,442.87Z" style="fill:#e0e0e0"></path><path d="M422.38,425.65l0,0,11.85,9.56.11.09-.13,0-1.58.42-10,2.63h0l-9.07-3.85-2.57-1.1-.68-.29-.17-.08-.06,0,.07,0,.17.07.69.28,2.58,1.07,9.09,3.8h0l10-2.64,1.57-.42,0,.12-11.83-9.6h0v0" style="fill:#e0e0e0"></path><polygon points="433.14 433.69 433.79 434.29 434.66 434.11 434.28 434.91 434.72 435.68 433.84 435.56 433.25 436.23 433.09 435.35 432.27 435 433.05 434.57 433.14 433.69" style="fill:#e0e0e0"></polygon><polygon points="421.77 437.45 422.21 437.82 422.76 437.67 422.55 438.2 422.87 438.68 422.3 438.64 421.94 439.09 421.8 438.54 421.26 438.33 421.75 438.03 421.77 437.45" style="fill:#e0e0e0"></polygon><polygon points="409.21 432.3 409.91 432.35 410.35 431.79 410.52 432.47 411.19 432.72 410.59 433.09 410.56 433.8 410.02 433.35 409.34 433.54 409.6 432.89 409.21 432.3" style="fill:#e0e0e0"></polygon><polygon points="438.46 425.8 439.16 425.84 439.6 425.29 439.77 425.97 440.43 426.21 439.84 426.59 439.81 427.29 439.27 426.84 438.59 427.04 438.85 426.38 438.46 425.8" style="fill:#e0e0e0"></polygon><polygon points="421.8 425.33 422.25 425.36 422.53 425.01 422.64 425.44 423.06 425.6 422.68 425.84 422.67 426.29 422.32 426 421.89 426.13 422.05 425.71 421.8 425.33" style="fill:#e0e0e0"></polygon><path d="M439.45,426.29s-3.84-.08-8.57-.28-8.56-.41-8.56-.45,3.84.08,8.57.28S439.45,426.24,439.45,426.29Z" style="fill:#e0e0e0"></path><path d="M443.75,422.34H330c-1.49-3.39-1.86-6.6,0-9.47H443.75A10.94,10.94,0,0,1,443.75,422.34Z" style="fill:#e0e0e0"></path><rect x="353.55" y="415.57" width="61.63" height="3.45" style="fill:#ebebeb"></rect><path d="M334.36,422.39a3.12,3.12,0,0,1-.9-1.15,8.17,8.17,0,0,1-1-3.36,8.37,8.37,0,0,1,.43-3.49,3.27,3.27,0,0,1,.69-1.28,11.93,11.93,0,0,1-.41,1.37,9.92,9.92,0,0,0-.3,3.36,9.73,9.73,0,0,0,.89,3.27A13.54,13.54,0,0,1,334.36,422.39Z" style="fill:#e0e0e0"></path><path d="M336.82,422.39a3.24,3.24,0,0,1-.9-1.15,8.33,8.33,0,0,1-.6-6.85,3.19,3.19,0,0,1,.68-1.28,10.54,10.54,0,0,1-.4,1.37,9.5,9.5,0,0,0,.58,6.63A13.54,13.54,0,0,1,336.82,422.39Z" style="fill:#e0e0e0"></path><path d="M439.15,422.17a19.43,19.43,0,0,0,.8-4.63,19.09,19.09,0,0,0-.75-4.64,8.15,8.15,0,0,1,1.17,4.64A8.43,8.43,0,0,1,439.15,422.17Z" style="fill:#f5f5f5"></path><path d="M437,422.14c-.12,0,.36-2,.35-4.53s-.48-4.51-.36-4.54a11.06,11.06,0,0,1,.77,4.54A10.89,10.89,0,0,1,437,422.14Z" style="fill:#f5f5f5"></path><path d="M433.91,49.63a27.29,27.29,0,0,1,6.55-2.85l1.35-6.48,11-.19,1.58,6.43A26.9,26.9,0,0,1,461,49.15l5.54-3.63,7.88,7.62L471,58.79a27.18,27.18,0,0,1,2.85,6.56l6.48,1.35.19,11-6.43,1.58a27.3,27.3,0,0,1-2.61,6.64l3.62,5.54-7.61,7.88-5.66-3.43a27,27,0,0,1-6.55,2.85l-1.35,6.48-11,.19L441.38,99a26.9,26.9,0,0,1-6.64-2.61L429.2,100l-7.88-7.61,3.43-5.66a27.18,27.18,0,0,1-2.85-6.56l-6.48-1.35-.19-11,6.43-1.58a26.9,26.9,0,0,1,2.61-6.64l-3.63-5.54,7.61-7.88,5.66,3.43Zm5.84,14.59a11.76,11.76,0,1,0,16.62-.29A11.76,11.76,0,0,0,439.75,64.22Z" style="fill:#e0e0e0"></path><path d="M439.75,64.22a9.17,9.17,0,0,1,2.19-1.92,11.73,11.73,0,0,1,7.67-1.81,11.85,11.85,0,0,1,5.21,1.85A12,12,0,0,1,459,67.09a11.72,11.72,0,0,1,1.07,3.3,11.25,11.25,0,0,1,.06,3.62,12,12,0,0,1-9.92,10.27,11.3,11.3,0,0,1-3.62.07,11.53,11.53,0,0,1-3.33-1,12.07,12.07,0,0,1-4.9-4,11.88,11.88,0,0,1-2-5.15,11.73,11.73,0,0,1,1.54-7.72,9.07,9.07,0,0,1,1.84-2.26c.07.06-.71.77-1.61,2.39a11.69,11.69,0,0,0-1.3,7.52,11.53,11.53,0,0,0,6.71,8.7,10.79,10.79,0,0,0,3.17.88,10.64,10.64,0,0,0,3.42-.08,11.39,11.39,0,0,0,9.38-9.71,10.65,10.65,0,0,0,0-3.43,11,11,0,0,0-1-3.13,11.54,11.54,0,0,0-8.92-6.4,11.65,11.65,0,0,0-7.48,1.57C440.5,63.49,439.81,64.29,439.75,64.22Z" style="fill:#e0e0e0"></path><path d="M433.91,49.63l-.36-.19-1.09-.63-4.26-2.52.13,0-7.56,7.93,0-.21,3.65,5.52.06.1-.05.1a26.93,26.93,0,0,0-2.58,6.61l0,.13-.13,0-6.43,1.59.19-.23c.06,3.45.14,7.11.21,11l-.21-.26L422,79.87l.16,0,.05.16A26.39,26.39,0,0,0,425,86.54l.09.15-.09.16c-1.06,1.75-2.23,3.69-3.43,5.66l0-.37c2.47,2.39,5.15,5,7.89,7.6l-.39,0,5.53-3.63.16-.11.17.1a26.85,26.85,0,0,0,6.57,2.57l.19.05.05.19c.49,2,1,4.22,1.58,6.43l-.33-.25,11-.19-.32.26c.42-2.05.88-4.25,1.34-6.48l0-.2.2-.06a26.63,26.63,0,0,0,6.46-2.8h0l.18-.1.17.1L467.65,99l-.42,0,7.61-7.88,0,.41c-1.22-1.86-2.42-3.71-3.62-5.53l-.11-.17.1-.18a26.65,26.65,0,0,0,2.58-6.56l.05-.19.19,0,6.44-1.57-.25.32c-.06-3.74-.12-7.4-.18-11l.25.3-6.49-1.36-.17,0,0-.17A26.7,26.7,0,0,0,470.73,59l-.09-.16.09-.15L474.17,53l.05.35-7.87-7.63.32,0-5.54,3.62-.13.08-.12-.08a27.21,27.21,0,0,0-6.59-2.61l-.13,0,0-.13c-.56-2.34-1.07-4.45-1.55-6.44l.19.16-10.95.14.14-.12c-.55,2.59-1,4.71-1.39,6.48v.06l-.07,0a27.7,27.7,0,0,0-5,1.92l-1.18.62a2.17,2.17,0,0,1-.4.2,2.84,2.84,0,0,1,.37-.25c.25-.15.63-.38,1.15-.66a25.56,25.56,0,0,1,5-2l-.08.08c.36-1.77.78-3.9,1.31-6.49l0-.12h.12l11-.24h.15l0,.16c.5,2,1,4.09,1.6,6.43l-.16-.17a27.38,27.38,0,0,1,6.71,2.62h-.25l5.53-3.64.17-.11.15.14,7.9,7.59.16.16-.12.19c-1.11,1.84-2.25,3.72-3.42,5.67v-.31a27.51,27.51,0,0,1,2.89,6.62l-.23-.21,6.48,1.34.25,0v.25c.07,3.56.13,7.22.2,11v.26l-.25.06-6.43,1.58.24-.23A27.18,27.18,0,0,1,471.74,86v-.34l3.63,5.54.15.22-.19.19-7.6,7.89-.19.19-.23-.14-5.66-3.43H462A26.73,26.73,0,0,1,455.35,99l.24-.25c-.46,2.22-.92,4.43-1.35,6.48l-.05.26h-.27l-11,.18h-.26l-.06-.26c-.55-2.22-1.08-4.42-1.57-6.43l.23.24a27.7,27.7,0,0,1-6.72-2.65l.33,0-5.54,3.63-.21.14-.18-.18-7.87-7.62-.17-.17.12-.2,3.44-5.65v.3a27.35,27.35,0,0,1-2.87-6.63l.21.2-6.48-1.37-.2,0V78.8c-.06-3.85-.11-7.51-.16-11v-.19l.19,0,6.43-1.56-.16.16a27.09,27.09,0,0,1,2.66-6.69v.2c-1.3-2-2.52-3.86-3.61-5.55l-.07-.11.09-.1,7.66-7.84.06-.06.07,0,4.17,2.59,1.07.68A3.59,3.59,0,0,1,433.91,49.63Z" style="fill:#e0e0e0"></path><path d="M32.92,124.41a24.06,24.06,0,0,1,5.74-2.49l1.18-5.67,9.58-.17,1.38,5.63A23.25,23.25,0,0,1,56.61,124l4.85-3.17,6.89,6.66-3,5a23.82,23.82,0,0,1,2.49,5.73l5.67,1.18.17,9.58-5.63,1.38a23,23,0,0,1-2.29,5.82L68.94,161l-6.66,6.9-5-3a23.05,23.05,0,0,1-5.73,2.49L50.42,173l-9.58.17-1.38-5.62a23.73,23.73,0,0,1-5.82-2.29l-4.84,3.17-6.9-6.65,3-4.95a23.28,23.28,0,0,1-2.49-5.74l-5.68-1.18-.16-9.58L22.2,139a23.66,23.66,0,0,1,2.29-5.81l-3.17-4.85L28,121.41l5,3ZM38,137.18a10.28,10.28,0,1,0,14.54-.26A10.28,10.28,0,0,0,38,137.18Z" style="fill:#e0e0e0"></path><path d="M38,137.18A7.75,7.75,0,0,1,40,135.5a10.27,10.27,0,0,1,6.71-1.59,10.45,10.45,0,0,1,8.24,5.77,10.1,10.1,0,0,1,.94,2.89,9.9,9.9,0,0,1,0,3.17,10.5,10.5,0,0,1-8.67,9,9.94,9.94,0,0,1-3.17.05,9.83,9.83,0,0,1-2.92-.83,10.59,10.59,0,0,1-4.28-3.54,10.46,10.46,0,0,1-1.78-4.5,10.26,10.26,0,0,1,1.35-6.76,7.62,7.62,0,0,1,1.61-2,24.86,24.86,0,0,0-1.41,2.08,10.35,10.35,0,0,0-1.14,6.59,10.09,10.09,0,0,0,5.87,7.6,9.57,9.57,0,0,0,2.77.77,9.46,9.46,0,0,0,3-.06,10,10,0,0,0,8.2-8.5,9.42,9.42,0,0,0,0-3,9.05,9.05,0,0,0-.87-2.74,10.05,10.05,0,0,0-7.8-5.6,10.32,10.32,0,0,0-6.54,1.37A25.08,25.08,0,0,0,38,137.18Z" style="fill:#e0e0e0"></path><path d="M32.92,124.41a2.33,2.33,0,0,1-.31-.17l-.95-.55-3.74-2.2.12,0-6.62,6.94,0-.19,3.19,4.83.06.09-.05.09A23.67,23.67,0,0,0,22.39,139l0,.11-.11,0-5.62,1.39.16-.2c.06,3,.12,6.22.19,9.58l-.19-.22,5.68,1.17.14,0,0,.14a23.59,23.59,0,0,0,2.47,5.66l.08.13-.08.14-3,4.95,0-.32,6.9,6.65-.34,0L33.49,165l.14-.09.15.08a23.06,23.06,0,0,0,5.74,2.26l.17,0,0,.17c.44,1.76.91,3.68,1.39,5.62l-.29-.22,9.58-.17-.28.23c.37-1.79.78-3.72,1.18-5.67l0-.17.17-.05a22.92,22.92,0,0,0,5.65-2.46h0l.15-.09.15.09,5,3-.36.05,6.66-6.89,0,.36-3.17-4.85-.09-.14.08-.15a22.93,22.93,0,0,0,2.26-5.75l0-.16.16,0,5.63-1.38-.21.28c-.06-3.27-.11-6.47-.16-9.58l.21.26-5.67-1.19-.15,0,0-.16a23.2,23.2,0,0,0-2.45-5.67l-.08-.13.08-.13,3-5,0,.3L61.3,121l.28,0-4.85,3.16-.11.07-.11-.06a23.67,23.67,0,0,0-5.76-2.29l-.11,0,0-.12c-.49-2-.94-3.89-1.36-5.63l.17.13-9.58.13.12-.1c-.48,2.26-.88,4.11-1.21,5.66V122h-.06a24.38,24.38,0,0,0-4.38,1.69l-1,.54a3,3,0,0,1-.35.17l.32-.22,1-.58a22.68,22.68,0,0,1,4.38-1.78l-.07.07c.31-1.55.69-3.41,1.15-5.68l0-.1h.1l9.59-.21h.13l0,.14c.43,1.74.89,3.58,1.4,5.62l-.15-.14a23.8,23.8,0,0,1,5.88,2.29H56.5l4.83-3.19.15-.1.13.13,6.91,6.64.14.14-.1.16-3,5v-.26a23.51,23.51,0,0,1,2.52,5.79l-.2-.19,5.68,1.17.21.05v.22c.06,3.11.12,6.31.18,9.58v.22l-.21.06-5.63,1.38.21-.21A23.88,23.88,0,0,1,66,156.26V156q1.56,2.4,3.17,4.84l.13.19-.16.17-6.66,6.9-.16.17-.2-.12-5-3h.3a24.3,24.3,0,0,1-5.8,2.52l.21-.23c-.41,1.95-.81,3.88-1.18,5.67l-.05.23h-.24l-9.58.16h-.23l0-.23c-.48-1.94-1-3.86-1.38-5.63l.21.21a23.65,23.65,0,0,1-5.88-2.32h.29L29,168.67l-.18.12-.16-.15L21.72,162l-.15-.15.11-.18c1.05-1.72,2.08-3.41,3-5V157a24,24,0,0,1-2.51-5.8l.19.17-5.67-1.19-.18,0v-.18q-.07-5.06-.14-9.59v-.16l.17,0,5.63-1.37-.14.14a23.73,23.73,0,0,1,2.32-5.85v.18l-3.16-4.85-.06-.11.08-.08,6.69-6.86.06,0,.06,0,3.65,2.27.94.59Z" style="fill:#e0e0e0"></path><path d="M92.62,37.85a28.14,28.14,0,0,1,6.84-3l1.42-6.78,11.45-.2L114,34.62a27.64,27.64,0,0,1,6.94,2.74l5.79-3.8,8.24,8-3.58,5.92a28,28,0,0,1,3,6.85l6.78,1.41.2,11.45L134.6,68.8a28.42,28.42,0,0,1-2.74,6.94l3.8,5.79-8,8.24-5.92-3.58a28,28,0,0,1-6.85,3l-1.41,6.78-11.45.2-1.65-6.72a28.65,28.65,0,0,1-7-2.74l-5.78,3.8-8.24-8L83,76.6a28,28,0,0,1-3-6.85l-6.78-1.41-.2-11.45,6.72-1.65a28.1,28.1,0,0,1,2.74-7l-3.8-5.78,8-8.24,5.92,3.58Zm6.1,15.26a12.29,12.29,0,1,0,17.38-.3A12.28,12.28,0,0,0,98.72,53.11Z" style="fill:#f5f5f5"></path><path d="M98.72,53.11a9.13,9.13,0,0,1,2.29-2,12.26,12.26,0,0,1,8-1.89,12.38,12.38,0,0,1,5.44,1.93,12.67,12.67,0,0,1,4.41,5,12.59,12.59,0,0,1,1.19,7.23,12.53,12.53,0,0,1-10.38,10.74,12.5,12.5,0,0,1-7.27-.93,12.54,12.54,0,0,1-5.11-4.23,12.37,12.37,0,0,1-.51-13.45,9.16,9.16,0,0,1,1.92-2.36c.07.06-.74.81-1.69,2.49a12.29,12.29,0,0,0-1.35,7.87,12,12,0,0,0,7,9.09,11.05,11.05,0,0,0,3.31.92,11.35,11.35,0,0,0,3.58-.08,11.9,11.9,0,0,0,9.8-10.15,11,11,0,0,0,0-3.58,11.31,11.31,0,0,0-1-3.28,12.09,12.09,0,0,0-4.15-4.76A11.94,11.94,0,0,0,109,49.7a12.27,12.27,0,0,0-7.82,1.64C99.5,52.34,98.78,53.18,98.72,53.11Z" style="fill:#f5f5f5"></path><path d="M92.62,37.85a2,2,0,0,1-.39-.2L91.1,37l-4.46-2.64.14,0-7.91,8.29,0-.22,3.82,5.77.07.11-.06.11A27.63,27.63,0,0,0,80,55.3l0,.13-.14,0-6.72,1.67.19-.25c.07,3.6.15,7.43.23,11.45l-.22-.27,6.78,1.4.17,0,0,.16a27.92,27.92,0,0,0,3,6.78l.1.15-.1.16-3.57,5.92-.06-.39,8.25,7.95-.4,0,5.78-3.8.17-.11.18.1a27.88,27.88,0,0,0,6.86,2.7l.2,0,0,.2,1.66,6.73-.34-.26,11.45-.21-.34.28c.45-2.14.93-4.45,1.41-6.78l0-.21.21-.06a27.86,27.86,0,0,0,6.75-2.93h0l.19-.11.18.11,5.91,3.59-.43.06,8-8.24,0,.43-3.79-5.79-.11-.17.1-.18a27.43,27.43,0,0,0,2.7-6.87l.05-.2.21,0,6.72-1.65-.26.33c-.06-3.91-.12-7.72-.19-11.45l.26.31-6.77-1.42-.19,0-.05-.18a27.83,27.83,0,0,0-2.94-6.78l-.09-.15.09-.16,3.6-5.91.05.36-8.22-8,.33,0-5.8,3.78-.13.08-.13-.07a27.61,27.61,0,0,0-6.88-2.73l-.14,0,0-.13L112.13,28l.2.16-11.45.15.15-.13c-.58,2.71-1.06,4.92-1.45,6.77l0,.07-.06,0a28.33,28.33,0,0,0-5.24,2L93,37.65a2.38,2.38,0,0,1-.41.2l.38-.26c.26-.16.66-.4,1.21-.69a27.37,27.37,0,0,1,5.22-2.13l-.08.09c.38-1.86.82-4.08,1.37-6.79l0-.13h.12l11.45-.25h.17l0,.16c.52,2.08,1.06,4.28,1.67,6.72L114,34.4a28.06,28.06,0,0,1,7,2.74h-.26l5.77-3.81.18-.12.16.15,8.26,7.94.16.16-.12.2-3.57,5.92v-.31a28.06,28.06,0,0,1,3,6.92l-.23-.22,6.77,1.4.26,0v.26q.1,5.58.22,11.45v.27l-.26.06-6.72,1.66.25-.25a28.34,28.34,0,0,1-2.77,7v-.35l3.8,5.78.15.23-.19.2L128,90l-.19.2-.24-.15-5.92-3.58H122a28.19,28.19,0,0,1-6.93,3l.25-.27c-.49,2.33-1,4.64-1.41,6.78l-.06.27h-.28l-11.45.2h-.28l-.06-.27c-.57-2.32-1.13-4.62-1.65-6.72l.25.25a28.72,28.72,0,0,1-7-2.78h.35l-5.79,3.79-.22.14-.19-.18-8.23-8-.18-.18.13-.21,3.59-5.91v.31a28.43,28.43,0,0,1-3-6.93L80,70l-6.78-1.42L73,68.57v-.22c-.06-4-.12-7.85-.17-11.45v-.2l.19-.05L79.75,55l-.17.17a28,28,0,0,1,2.78-7v.22c-1.35-2.09-2.62-4-3.77-5.8l-.07-.13.09-.1,8-8.19.06-.07.08.05,4.36,2.71c.47.31.84.54,1.12.71Z" style="fill:#f5f5f5"></path><path d="M371.39,55.7a16.5,16.5,0,0,1,4.12-1.79l.85-4.09,6.9-.12,1,4a17.08,17.08,0,0,1,4.19,1.65l3.48-2.29,5,4.79-2.16,3.57a17.27,17.27,0,0,1,1.79,4.12l4.08.85.12,6.9-4.05,1A16.66,16.66,0,0,1,395,78.52L397.31,82l-4.79,5L389,84.8a17.15,17.15,0,0,1-4.13,1.8L384,90.68l-6.9.12-1-4a17.17,17.17,0,0,1-4.18-1.65l-3.49,2.29-5-4.79L365.62,79a16.5,16.5,0,0,1-1.79-4.12l-4.09-.85-.12-6.9,4.05-1A17,17,0,0,1,365.32,62L363,58.5l4.79-5,3.56,2.16Zm3.68,9.19a7.39,7.39,0,1,0,10.46-.19A7.39,7.39,0,0,0,375.07,64.89Z" style="fill:#f5f5f5"></path><path d="M375.07,64.89a5.36,5.36,0,0,1,1.37-1.21,7.44,7.44,0,0,1,8.11,0,7.61,7.61,0,0,1,2.66,3,7.62,7.62,0,0,1,.71,4.36,7.55,7.55,0,0,1-6.25,6.47,7.21,7.21,0,0,1-2.27,0,6.7,6.7,0,0,1-2.1-.6,7.48,7.48,0,0,1-3.08-2.54,7.49,7.49,0,0,1-.31-8.11,5.53,5.53,0,0,1,1.16-1.41,16.16,16.16,0,0,0-1,1.5,7.34,7.34,0,0,0-.82,4.73,7.24,7.24,0,0,0,4.23,5.48,6.6,6.6,0,0,0,2,.55,6.82,6.82,0,0,0,2.16,0,7.18,7.18,0,0,0,5.9-6.12,6.79,6.79,0,0,0,0-2.16,7,7,0,0,0-.62-2,7.3,7.3,0,0,0-10.33-3A14.27,14.27,0,0,0,375.07,64.89Z" style="fill:#f5f5f5"></path><path d="M371.39,55.7l-.23-.12-.68-.4-2.69-1.59h.08c-1.21,1.28-2.82,3-4.76,5l0-.13c.69,1.05,1.47,2.22,2.29,3.48l.05.06,0,.07a16.54,16.54,0,0,0-1.62,4.15l0,.08-.08,0-4,1,.11-.15c.05,2.17.09,4.48.14,6.9l-.13-.16,4.08.84.11,0,0,.1a16.44,16.44,0,0,0,1.78,4.08l.05.09-.05.1c-.67,1.1-1.41,2.32-2.16,3.57l0-.24,5,4.79-.25,0,3.49-2.29.1-.06.11.06a16.69,16.69,0,0,0,4.13,1.62l.12,0,0,.12c.31,1.27.65,2.65,1,4l-.21-.16,6.9-.12-.21.17.85-4.09,0-.12.12,0a16.49,16.49,0,0,0,4.07-1.77h0l.11-.06.1.06,3.57,2.16-.26,0,4.79-5,0,.26c-.76-1.18-1.53-2.34-2.28-3.49l-.07-.11.06-.11a16.23,16.23,0,0,0,1.63-4.13l0-.12.12,0,4.05-1-.15.2q-.06-3.53-.12-6.89l.16.18-4.08-.85-.11,0,0-.12a17.14,17.14,0,0,0-1.77-4.08l-.06-.09.06-.1,2.17-3.56,0,.22-4.95-4.8.2,0-3.49,2.28-.08,0-.08,0a16.66,16.66,0,0,0-4.14-1.64l-.08,0,0-.09c-.36-1.47-.68-2.79-1-4.05l.12.1-6.89.09.09-.08-.88,4.08v0h0a17.71,17.71,0,0,0-3.15,1.21l-.74.39-.25.13a1.74,1.74,0,0,1,.23-.16l.73-.42a16.25,16.25,0,0,1,3.15-1.28l-.05,0c.22-1.11.49-2.45.82-4.09l0-.07h.07l6.9-.15h.1l0,.1c.31,1.25.64,2.58,1,4l-.1-.1a16.6,16.6,0,0,1,4.22,1.65h-.16L391.83,53l.11-.07.1.09,5,4.78.1.1L397,58l-2.16,3.56v-.19a17.34,17.34,0,0,1,1.82,4.17l-.14-.13,4.08.84.15,0v.16q.07,3.36.13,6.9v.16l-.16,0-4,1,.15-.15a17.21,17.21,0,0,1-1.66,4.24V78.4l2.29,3.49.09.14-.12.12-4.79,5-.12.12-.14-.08L388.85,85h.21a17.07,17.07,0,0,1-4.17,1.81l.15-.16-.85,4.08,0,.17H384l-6.89.12h-.17l0-.16-1-4L376,87a17.12,17.12,0,0,1-4.23-1.67H372l-3.49,2.28-.13.09-.12-.11-4.95-4.8-.11-.1.08-.13,2.16-3.56v.19a17.08,17.08,0,0,1-1.8-4.17l.13.12-4.08-.86-.13,0v-.14c0-2.42-.07-4.72-.11-6.89V67l.12,0,4.05-1-.1.11a17,17,0,0,1,1.67-4.22v.13l-2.28-3.49,0-.07.06-.07,4.82-4.93,0,0,0,0,2.63,1.63c.28.19.51.33.67.43A1.74,1.74,0,0,1,371.39,55.7Z" style="fill:#f5f5f5"></path><path d="M425.39,217.69v0l-2.45-10a42,42,0,0,1-10.31-4.06L404,209.28v0l-12.26-11.84v0l5.32-8.78a41.7,41.7,0,0,1-4.41-10.16l-10.09-2.1v0l-.3-17h0l10-2.44a41.82,41.82,0,0,1,4-10.31l-5.64-8.61h0l11.84-12.27h0l8.79,5.33a41.67,41.67,0,0,1,10.15-4.42l2.1-10.08h0l17.05-.3v0l2.45,10a42,42,0,0,1,10.31,4.06l8.6-5.64h0l12.26,11.84v0L469,145.26a41.7,41.7,0,0,1,4.41,10.16l10.08,2.1v0l.3,17h0l-10,2.45a41.75,41.75,0,0,1-4,10.3l5.64,8.61,0,0-11.84,12.26h0l-8.79-5.33a41.4,41.4,0,0,1-10.16,4.42l-2.09,10.08h0Zm-12.76-14.11h0A41.6,41.6,0,0,0,423,207.64h0l2.45,10,17-.3,2.1-10.07h0a41.67,41.67,0,0,0,10.17-4.43h0l8.78,5.33L475.3,196l-5.63-8.6v0A41.92,41.92,0,0,0,473.74,177v0h0l10-2.44-.3-17-10.07-2.1h0a42.26,42.26,0,0,0-4.42-10.18h0l5.32-8.78L462,124.67l-8.6,5.64h0a41.6,41.6,0,0,0-10.33-4.06h0l-2.44-10-17,.3-2.09,10.07h0A41.26,41.26,0,0,0,411.37,131h0l-8.78-5.32-11.8,12.22,5.64,8.6h0a42.07,42.07,0,0,0-4.06,10.32v0h0l-10,2.45.29,17,10.07,2.1h0a41.87,41.87,0,0,0,4.42,10.18h0l-5.32,8.78L404,209.21Zm20.93-18.9a18.29,18.29,0,0,1-.31-36.58h.33a18.29,18.29,0,0,1,.31,36.58Zm-13.13-31,0,0a18.24,18.24,0,0,0,13.11,30.91h.33a18.24,18.24,0,0,0-.31-36.48h-.33a18.07,18.07,0,0,0-12.8,5.57Z" style="fill:#e0e0e0"></path><path d="M420.43,153.7a13.91,13.91,0,0,1,3.4-3,18.14,18.14,0,0,1,11.92-2.81,18.36,18.36,0,0,1,8.1,2.87,18.81,18.81,0,0,1,6.55,7.38,18.72,18.72,0,0,1,1.76,10.75,18.63,18.63,0,0,1-15.42,16,17.7,17.7,0,0,1-5.62.1,17.49,17.49,0,0,1-5.18-1.48,18.71,18.71,0,0,1-7.61-6.29,18.43,18.43,0,0,1-3.16-8,18.14,18.14,0,0,1,2.4-12,13.78,13.78,0,0,1,2.86-3.5c.1.08-1.1,1.2-2.51,3.7a18.28,18.28,0,0,0-2,11.7,17.87,17.87,0,0,0,10.43,13.51,17.79,17.79,0,0,0,10.24,1.25,17.66,17.66,0,0,0,14.57-15.09,17.82,17.82,0,0,0-1.61-10.19,17.85,17.85,0,0,0-13.87-10,18.22,18.22,0,0,0-11.61,2.43A43.18,43.18,0,0,0,420.43,153.7Z" style="fill:#ebebeb"></path><path d="M411.35,131s-.19-.09-.56-.3l-1.69-1-6.63-3.91.21,0-11.76,12.32,0-.33,5.68,8.58.1.15-.09.17a41.61,41.61,0,0,0-4,10.26l-.05.2-.2,0-10,2.48.28-.37c.11,5.36.22,11.05.34,17l-.33-.39L392.77,178l.26,0,.07.25a41.59,41.59,0,0,0,4.4,10.07l.14.23-.14.24-5.32,8.8-.08-.58,12.26,11.81-.6,0,8.6-5.65.25-.17.26.15a42,42,0,0,0,10.21,4l.3.07.07.3,2.46,10-.51-.39,17-.3-.5.41c.66-3.18,1.37-6.62,2.09-10.08l.07-.31.3-.08a41.42,41.42,0,0,0,10-4.37h0l.28-.16.27.16,8.79,5.33-.65.09L475,195.59l-.06.64-5.63-8.6-.17-.26.15-.28a41,41,0,0,0,4-10.2l.07-.29.3-.08,10-2.44-.38.49q-.15-8.72-.28-17l.38.46-10.07-2.11-.28-.06-.08-.27a41.29,41.29,0,0,0-4.36-10.07l-.14-.24.14-.23c1.83-3,3.61-5.94,5.35-8.79l.07.54-12.23-11.85.5,0-8.62,5.62-.19.13-.2-.11A41.21,41.21,0,0,0,443,126.55l-.21,0-.05-.2c-.87-3.64-1.67-6.91-2.41-10l.3.24-17,.22.22-.19c-.86,4-1.57,7.32-2.16,10.07l0,.1-.1,0a42.86,42.86,0,0,0-7.78,3l-1.83,1-.62.31a5.79,5.79,0,0,1,.57-.39c.39-.24,1-.6,1.8-1a40.33,40.33,0,0,1,7.77-3.17l-.12.13c.56-2.75,1.22-6.06,2-10.09l0-.18h.19l17-.37h.25l.06.24c.77,3.09,1.58,6.36,2.48,10l-.25-.25A42.11,42.11,0,0,1,453.62,130h-.39l8.59-5.66.27-.17.23.22,12.27,11.8.25.24-.18.3-5.31,8.81V145a42.14,42.14,0,0,1,4.48,10.28l-.35-.33,10.08,2.09.37.08v.38q.15,8.31.32,17V175l-.38.1-10,2.46.37-.37a42,42,0,0,1-4.1,10.45l0-.53,5.64,8.6.23.35-.29.3-11.82,12.25-.29.3-.36-.21-8.8-5.34H455a42.27,42.27,0,0,1-10.29,4.47l.36-.39c-.72,3.46-1.43,6.89-2.1,10.07l-.08.41h-.42l-17,.29H425l-.1-.39c-.84-3.45-1.68-6.87-2.44-10l.37.37A42.26,42.26,0,0,1,412.39,204l.51,0-8.61,5.63-.32.22-.28-.27-12.24-11.85-.27-.26.2-.31,5.34-8.79v.46a42,42,0,0,1-4.45-10.29l.33.3-10.07-2.11-.33-.07v-.33c-.09-6-.18-11.66-.26-17V159l.29-.07,10-2.43-.25.25a42.06,42.06,0,0,1,4.13-10.39v.32l-5.6-8.63-.12-.18.15-.15,11.9-12.18.09-.1.11.07,6.48,4,1.67,1.06A3.27,3.27,0,0,1,411.35,131Z" style="fill:#ebebeb"></path></g><g id="background-simple"><path d="M444.36,87.64l-2.6-4.29C419.84,47.22,380.19,25.44,338.4,28.08a109.53,109.53,0,0,0-16,2.2c-38,8.13-71.06,36.87-84.77,73.67-8.06,21.65-10.31,46.57-25.61,63.75-19.9,22.36-53.7,23.06-83.42,22.13s-63.53-.13-83.34,22.31C32.86,226.2,28.91,246.19,29.91,265c2.65,49.85,37.38,94.41,81.56,116.57S207.64,405.72,256,396c67.72-13.65,132.12-51.14,170.84-109S475.33,150.14,444.36,87.64Z" style="fill:#ebebeb"></path></g><g id="Window"><rect x="40.37" y="70.63" width="411.75" height="264.22" style="fill:#fff"></rect><rect x="152.22" y="147.15" width="299.89" height="29.22" style="fill:#f5f5f5"></rect><rect x="152.22" y="231.5" width="299.89" height="44.64" style="fill:#f5f5f5"></rect><rect x="40.37" y="112.38" width="111.86" height="221.71" style="fill:#ebebeb"></rect><rect x="40.37" y="118.32" width="111.86" height="21.7" style="fill:#FF725E"></rect><path d="M130.6,159.58c0,.14-15.74.26-35.16.26s-35.16-.12-35.16-.26,15.74-.26,35.16-.26S130.6,159.43,130.6,159.58Z" style="fill:#263238"></path><path d="M130.6,186.84c0,.14-15.74.26-35.16.26s-35.16-.12-35.16-.26,15.74-.26,35.16-.26S130.6,186.7,130.6,186.84Z" style="fill:#263238"></path><path d="M130.6,214.1c0,.15-15.74.26-35.16.26s-35.16-.11-35.16-.26,15.74-.26,35.16-.26S130.6,214,130.6,214.1Z" style="fill:#263238"></path><path d="M174.43,136.85v-4.39l-2.15,3.62h-.76l-2.15-3.53v4.3h-1.58v-7.32h1.4l2.73,4.55,2.7-4.55H176l0,7.32Z" style="fill:#263238"></path><path d="M182.58,135.28h-3.4l-.65,1.57H176.8l3.26-7.32h1.67l3.27,7.32h-1.77ZM182,134l-1.16-2.81L179.72,134Z" style="fill:#263238"></path><path d="M192.48,129.53v7.32h-1.39l-3.65-4.44v4.44h-1.67v-7.32h1.4l3.64,4.44v-4.44Z" style="fill:#263238"></path><path d="M199,135.28h-3.39l-.65,1.57h-1.74l3.26-7.32h1.68l3.27,7.32h-1.78ZM198.5,134l-1.16-2.81L196.18,134Z" style="fill:#263238"></path><path d="M207.06,133.08h1.55v3a5,5,0,0,1-3,.93,3.79,3.79,0,1,1,0-7.56,3.94,3.94,0,0,1,3.07,1.26l-1.09,1a2.46,2.46,0,0,0-1.89-.83,2.34,2.34,0,1,0,0,4.68,2.66,2.66,0,0,0,1.31-.31Z" style="fill:#263238"></path><path d="M215.84,135.49v1.36h-5.66v-7.32h5.53v1.36h-3.85v1.59h3.4v1.32h-3.4v1.69Z" style="fill:#263238"></path><path d="M221.67,130.91h-2.34v-1.38h6.37v1.38h-2.34v5.94h-1.69Z" style="fill:#263238"></path><path d="M231.07,135.28h-3.4l-.65,1.57h-1.73l3.26-7.32h1.67l3.27,7.32h-1.78Zm-.54-1.28-1.16-2.81L228.21,134Z" style="fill:#263238"></path><path d="M233.68,136.13l.58-1.28a4.27,4.27,0,0,0,2.41.77c1,0,1.41-.34,1.41-.79,0-1.37-4.25-.43-4.25-3.14,0-1.25,1-2.28,3.08-2.28a4.9,4.9,0,0,1,2.54.65l-.52,1.28a4.09,4.09,0,0,0-2-.57c-1,0-1.39.37-1.39.83,0,1.35,4.25.42,4.25,3.11,0,1.22-1,2.26-3.1,2.26A5.24,5.24,0,0,1,233.68,136.13Z" style="fill:#263238"></path><path d="M243.59,134l-1,1v1.85h-1.68v-7.32h1.68V133l3.24-3.42h1.88l-3,3.26,3.21,4.06h-2Z" style="fill:#263238"></path><path d="M247.93,136.13l.58-1.28a4.27,4.27,0,0,0,2.41.77c1,0,1.41-.34,1.41-.79,0-1.37-4.25-.43-4.25-3.14,0-1.25,1-2.28,3.08-2.28a4.9,4.9,0,0,1,2.54.65l-.52,1.28a4.09,4.09,0,0,0-2-.57c-1,0-1.39.37-1.39.83,0,1.35,4.25.42,4.25,3.11,0,1.22-1,2.26-3.1,2.26A5.24,5.24,0,0,1,247.93,136.13Z" style="fill:#263238"></path><path d="M179.9,158.78h-2.82v-.73h6.48v.73h-2.82v7.29h-.84Z" style="fill:#263238"></path><path d="M189,162.34v3.73h-.78v-.94a2.27,2.27,0,0,1-2.08,1c-1.36,0-2.2-.71-2.2-1.75s.6-1.71,2.33-1.71h1.91v-.37c0-1-.58-1.59-1.7-1.59a3.11,3.11,0,0,0-2,.71l-.37-.61a3.89,3.89,0,0,1,2.46-.81A2.14,2.14,0,0,1,189,162.34Zm-.82,1.92v-1h-1.89c-1.17,0-1.54.46-1.54,1.07s.56,1.14,1.52,1.14A1.92,1.92,0,0,0,188.14,164.26Z" style="fill:#263238"></path><path d="M190.33,165.39l.37-.65a3.61,3.61,0,0,0,2.14.68c1.14,0,1.61-.39,1.61-1,0-1.57-3.9-.33-3.9-2.71,0-1,.85-1.72,2.38-1.72a4.1,4.1,0,0,1,2.13.56l-.35.65a3.15,3.15,0,0,0-1.78-.51c-1.09,0-1.57.42-1.57,1,0,1.62,3.91.4,3.91,2.71,0,1-.92,1.72-2.49,1.72A4,4,0,0,1,190.33,165.39Z" style="fill:#263238"></path><path d="M199,163.05l-1.42,1.3v1.72h-.81v-8.5h.81v5.76l3.6-3.28h1l-2.58,2.46,2.82,3.56h-1Z" style="fill:#263238"></path><path d="M333.3,196.33c0,.15-35.37.26-79,.26s-79-.11-79-.26,35.36-.26,79-.26S333.3,196.19,333.3,196.33Z" style="fill:#263238"></path><path d="M242,210.55c0,.14-15,.26-33.56.26s-33.57-.12-33.57-.26,15-.26,33.57-.26S242,210.4,242,210.55Z" style="fill:#263238"></path><rect x="351.52" y="186.38" width="81.97" height="28.33" rx="8.03" style="fill:#FF725E"></rect><path d="M333.3,246.71c0,.15-35.37.26-79,.26s-79-.11-79-.26,35.36-.26,79-.26S333.3,246.57,333.3,246.71Z" style="fill:#263238"></path><path d="M242,260.93c0,.14-15,.26-33.56.26s-33.57-.12-33.57-.26,15-.26,33.57-.26S242,260.79,242,260.93Z" style="fill:#263238"></path><rect x="351.52" y="239.65" width="81.97" height="28.33" rx="8.03" style="fill:#FF725E"></rect><path d="M333.3,297.09c0,.15-35.37.27-79,.27s-79-.12-79-.27,35.36-.26,79-.26S333.3,297,333.3,297.09Z" style="fill:#263238"></path><path d="M242,311.31c0,.14-15,.26-33.56.26s-33.57-.12-33.57-.26,15-.26,33.57-.26S242,311.17,242,311.31Z" style="fill:#263238"></path><rect x="351.52" y="292.93" width="81.97" height="28.33" rx="8.03" style="fill:#FF725E"></rect><rect x="40.37" y="70.29" width="411.75" height="25.21" style="fill:#e0e0e0"></rect><rect x="40.37" y="93.12" width="411.75" height="25.21" style="fill:#f5f5f5"></rect><path d="M376.89,202.22h-3.73l-.71,1.71h-1.9l3.58-8H376l3.59,8H377.6Zm-.59-1.41L375,197.73l-1.27,3.08Z" style="fill:#fafafa"></path><path d="M379.74,200.85a3.18,3.18,0,0,1,3.43-3.17,2.84,2.84,0,0,1,2.77,1.57l-1.39.74a1.55,1.55,0,0,0-1.39-.85,1.71,1.71,0,0,0,0,3.42,1.52,1.52,0,0,0,1.39-.85l1.39.76a2.88,2.88,0,0,1-2.77,1.56A3.19,3.19,0,0,1,379.74,200.85Z" style="fill:#fafafa"></path><path d="M386.42,200.85a3.19,3.19,0,0,1,3.44-3.17,2.82,2.82,0,0,1,2.76,1.57l-1.38.74a1.56,1.56,0,0,0-1.39-.85,1.71,1.71,0,0,0,0,3.42,1.53,1.53,0,0,0,1.39-.85l1.38.76a2.86,2.86,0,0,1-2.76,1.56A3.19,3.19,0,0,1,386.42,200.85Z" style="fill:#fafafa"></path><path d="M399.58,201.36h-4.67a1.65,1.65,0,0,0,1.77,1.23,2.07,2.07,0,0,0,1.54-.59l1,1a3.27,3.27,0,0,1-2.55,1,3.2,3.2,0,0,1-3.52-3.18,3.14,3.14,0,0,1,3.29-3.17,3,3,0,0,1,3.21,3.19C399.61,201,399.59,201.21,399.58,201.36Zm-4.69-1.05h3a1.54,1.54,0,0,0-3,0Z" style="fill:#fafafa"></path><path d="M407.51,200.85a3,3,0,0,1-3.07,3.18,2.35,2.35,0,0,1-1.85-.75v2.88H400.8v-8.39h1.71v.71a2.37,2.37,0,0,1,1.93-.8A3,3,0,0,1,407.51,200.85Zm-1.81,0a1.58,1.58,0,1,0-1.57,1.71A1.56,1.56,0,0,0,405.7,200.85Z" style="fill:#fafafa"></path><path d="M412.68,203.64a2.61,2.61,0,0,1-1.46.39,2,2,0,0,1-2.3-2.22v-2.53H408v-1.37h.95v-1.5h1.79v1.5h1.53v1.37h-1.53v2.51a.72.72,0,0,0,.76.82,1.29,1.29,0,0,0,.73-.23Z" style="fill:#fafafa"></path><path d="M376.89,255.29h-3.73l-.71,1.71h-1.9l3.58-8H376l3.59,8H377.6Zm-.59-1.41L375,250.8l-1.27,3.08Z" style="fill:#fafafa"></path><path d="M379.74,253.92a3.18,3.18,0,0,1,3.43-3.17,2.84,2.84,0,0,1,2.77,1.57l-1.39.74a1.55,1.55,0,0,0-1.39-.85,1.71,1.71,0,0,0,0,3.42,1.52,1.52,0,0,0,1.39-.85l1.39.76a2.88,2.88,0,0,1-2.77,1.56A3.19,3.19,0,0,1,379.74,253.92Z" style="fill:#fafafa"></path><path d="M386.42,253.92a3.19,3.19,0,0,1,3.44-3.17,2.82,2.82,0,0,1,2.76,1.57l-1.38.74a1.56,1.56,0,0,0-1.39-.85,1.71,1.71,0,0,0,0,3.42,1.53,1.53,0,0,0,1.39-.85l1.38.76a2.86,2.86,0,0,1-2.76,1.56A3.19,3.19,0,0,1,386.42,253.92Z" style="fill:#fafafa"></path><path d="M399.58,254.43h-4.67a1.65,1.65,0,0,0,1.77,1.23,2.07,2.07,0,0,0,1.54-.59l1,1a3.27,3.27,0,0,1-2.55,1,3.2,3.2,0,0,1-3.52-3.18,3.14,3.14,0,0,1,3.29-3.17,3,3,0,0,1,3.21,3.19C399.61,254.08,399.59,254.28,399.58,254.43Zm-4.69-1.05h3a1.54,1.54,0,0,0-3,0Z" style="fill:#fafafa"></path><path d="M407.51,253.92a3,3,0,0,1-3.07,3.18,2.38,2.38,0,0,1-1.85-.75v2.88H400.8v-8.39h1.71v.71a2.37,2.37,0,0,1,1.93-.8A3,3,0,0,1,407.51,253.92Zm-1.81,0a1.58,1.58,0,1,0-1.57,1.71A1.56,1.56,0,0,0,405.7,253.92Z" style="fill:#fafafa"></path><path d="M412.68,256.71a2.61,2.61,0,0,1-1.46.39,2,2,0,0,1-2.3-2.22v-2.53H408V251h.95v-1.51h1.79V251h1.53v1.37h-1.53v2.51a.72.72,0,0,0,.76.82,1.29,1.29,0,0,0,.73-.23Z" style="fill:#fafafa"></path><path d="M376.89,308.35h-3.73l-.71,1.72h-1.9l3.58-8H376l3.59,8H377.6Zm-.59-1.41L375,303.87l-1.27,3.07Z" style="fill:#fafafa"></path><path d="M379.74,307a3.19,3.19,0,0,1,3.43-3.18,2.85,2.85,0,0,1,2.77,1.58l-1.39.74a1.55,1.55,0,0,0-1.39-.85,1.71,1.71,0,0,0,0,3.42,1.53,1.53,0,0,0,1.39-.85l1.39.75a2.86,2.86,0,0,1-2.77,1.56A3.18,3.18,0,0,1,379.74,307Z" style="fill:#fafafa"></path><path d="M386.42,307a3.19,3.19,0,0,1,3.44-3.18,2.82,2.82,0,0,1,2.76,1.58l-1.38.74a1.56,1.56,0,0,0-1.39-.85,1.71,1.71,0,0,0,0,3.42,1.54,1.54,0,0,0,1.39-.85l1.38.75a2.84,2.84,0,0,1-2.76,1.56A3.19,3.19,0,0,1,386.42,307Z" style="fill:#fafafa"></path><path d="M399.58,307.49h-4.67a1.65,1.65,0,0,0,1.77,1.24,2.07,2.07,0,0,0,1.54-.59l1,1a3.26,3.26,0,0,1-2.55,1,3.2,3.2,0,0,1-3.52-3.17,3.14,3.14,0,0,1,3.29-3.18,3.06,3.06,0,0,1,3.21,3.2C399.61,307.15,399.59,307.34,399.58,307.49Zm-4.69-1h3a1.54,1.54,0,0,0-3,0Z" style="fill:#fafafa"></path><path d="M407.51,307a3,3,0,0,1-3.07,3.17,2.38,2.38,0,0,1-1.85-.74v2.87H400.8v-8.38h1.71v.71a2.38,2.38,0,0,1,1.93-.81A3,3,0,0,1,407.51,307Zm-1.81,0a1.58,1.58,0,1,0-1.57,1.71A1.55,1.55,0,0,0,405.7,307Z" style="fill:#fafafa"></path><path d="M412.68,309.77a2.53,2.53,0,0,1-1.46.39,2,2,0,0,1-2.3-2.21v-2.53H408V304h.95v-1.5h1.79V304h1.53v1.38h-1.53v2.51a.71.71,0,0,0,.76.81,1.22,1.22,0,0,0,.73-.23Z" style="fill:#fafafa"></path><path d="M127.25,130.41c0,.15-14.67.26-32.76.26s-32.76-.11-32.76-.26,14.67-.26,32.76-.26S127.25,130.27,127.25,130.41Z" style="fill:#fff"></path><path d="M57.07,82.11a3.17,3.17,0,1,1-3.16-3.17A3.16,3.16,0,0,1,57.07,82.11Z" style="fill:#263238"></path><path d="M68.69,82.11a3.17,3.17,0,1,1-3.17-3.17A3.17,3.17,0,0,1,68.69,82.11Z" style="fill:#263238"></path><path d="M80.3,82.11a3.17,3.17,0,1,1-3.17-3.17A3.17,3.17,0,0,1,80.3,82.11Z" style="fill:#263238"></path><polygon points="426.01 205.81 431.24 233.56 435.54 225.82 444.77 239.65 449.39 236.54 440.15 222.71 448.63 221.41 426.01 205.81" style="fill:#263238"></polygon><path d="M424.3,206.72a14.9,14.9,0,0,1-3.94.31,15.26,15.26,0,0,1-3.95-.21,30.07,30.07,0,0,1,7.89-.1Z" style="fill:#263238"></path><path d="M425.06,203.14a37.5,37.5,0,0,1-4.26-4.37,38,38,0,0,1-3.88-4.72,35.26,35.26,0,0,1,4.27,4.37A35.72,35.72,0,0,1,425.06,203.14Z" style="fill:#263238"></path><path d="M429.56,196.27a13.66,13.66,0,0,1-1.84,6.58,17.13,17.13,0,0,1,.84-3.32A17.13,17.13,0,0,1,429.56,196.27Z" style="fill:#263238"></path><path d="M430.61,126.82a2,2,0,1,1-2-2A2,2,0,0,1,430.61,126.82Z" style="fill:#e0e0e0"></path><path d="M430.61,132.38a2,2,0,1,1-2-2A2,2,0,0,1,430.61,132.38Z" style="fill:#e0e0e0"></path><path d="M430.61,137.93a2,2,0,1,1-2-2A2,2,0,0,1,430.61,137.93Z" style="fill:#e0e0e0"></path><path d="M452.12,334.86c0-1.68-.08-103-.21-264.57l.21.21-411.72,0h0l.26-.26c0,93.92,0,183.36,0,264.57l-.24-.24,411.75.24-411.75.24h-.24v-.24c0-81.21,0-170.65,0-264.57V70h.29l411.72.06h.2v.2C452.2,231.88,452.12,333.18,452.12,334.86Z" style="fill:#263238"></path></g><g id="speech-bubble"><path d="M110.77,265.13l-8.66-15.27a40.86,40.86,0,1,0-9.79,10.9l0,0Z" style="fill:#fff"></path><path d="M110.77,265.13l-18.5-4.22-.19-.05.12-.16v0l.19.18a41.53,41.53,0,0,1-8.4,5.07,40.85,40.85,0,0,1-11.2,3.2,38.16,38.16,0,0,1-6.47.33c-1.11-.07-2.25-.09-3.39-.19l-3.45-.52A41.23,41.23,0,0,1,34,252.36a40.67,40.67,0,0,1-6.9-15.78,41.54,41.54,0,0,1,.48-18.17,40.13,40.13,0,0,1,8.76-16.8L38,199.77c.55-.62,1.21-1.13,1.8-1.69s1.18-1.14,1.85-1.62l2-1.46a17.88,17.88,0,0,1,2-1.35l2.08-1.25,2.17-1.06a18.67,18.67,0,0,1,2.19-1,41.58,41.58,0,0,1,18.31-2.81,40.24,40.24,0,0,1,16.8,5,41.47,41.47,0,0,1,19.39,23.86,44.38,44.38,0,0,1,1.78,13.29,40.75,40.75,0,0,1-2,11.47,41.79,41.79,0,0,1-4.1,8.79v-.13l8.55,15.33L102,249.93l0-.07,0-.06A40.65,40.65,0,0,0,108,229.66a44.15,44.15,0,0,0-1.8-13.16,41.1,41.1,0,0,0-19.24-23.56,39.84,39.84,0,0,0-16.61-4.88,41.13,41.13,0,0,0-18.08,2.79,18.18,18.18,0,0,0-2.16,1l-2.15,1-2,1.24a17.92,17.92,0,0,0-2,1.33l-1.93,1.45c-.66.47-1.22,1.07-1.83,1.59s-1.23,1.07-1.77,1.68L36.69,202A39.8,39.8,0,0,0,28,218.53a41.16,41.16,0,0,0-.49,17.95,40.3,40.3,0,0,0,6.8,15.6,40.88,40.88,0,0,0,25.22,16.27l3.41.52c1.13.1,2.26.13,3.36.2a37.55,37.55,0,0,0,6.41-.3,41.07,41.07,0,0,0,11.12-3.13,41.7,41.7,0,0,0,8.37-5l.78-.6-.6.78v0l-.08-.21Z" style="fill:#263238"></path><polygon points="51.93 229.11 56.3 224.74 64.73 232.23 81.28 216.31 85.34 220.68 64.11 240.66 51.93 229.11" style="fill:#FF725E"></polygon></g><g id="Plant"><path d="M384,427.12s-19.65-22.62-27.06-45.23-3.89-20-3.89-20,10,22,17.61,32.58,21.13,26.18,21.13,26.18Z" style="fill:#455a64"></path><path d="M387.87,365.39a1.14,1.14,0,0,0-2.13.73c1.19,7.94,3.78,26.58,3.68,38.67-.13,15.71,0,21.78,0,21.78h8.18s-1.46-32.47-3.3-42.37C393,377.26,390.26,369.56,387.87,365.39Z" style="fill:#455a64"></path><path d="M392.33,423.93a86.83,86.83,0,0,0,6.73-24.42c.67-5.78-.53-13.59-2.32-24a64.93,64.93,0,0,1-1-11.55,2,2,0,0,1,3.66-.92c1,1.76,3.85,7.78,4.57,11.55,2,10.29,4.22,15.44,2.51,25.21s-8.05,24.81-8.05,24.81Z" style="fill:#455a64"></path><path d="M399.69,424.59s21.58-46.36,23.07-53.24,6.58-22.72,7.18-21.83,1.49,9.27-2.39,18.84S407.06,426,407.06,426h-7.37" style="fill:#455a64"></path><path d="M390,422.52a4.86,4.86,0,0,1-.6-.42c-.38-.29-1-.7-1.67-1.27-1.44-1.13-3.45-2.85-5.8-5.12a97.27,97.27,0,0,1-15.65-20.09,131.15,131.15,0,0,1-10.68-23.14c-1.09-3.08-1.88-5.6-2.39-7.35-.27-.88-.45-1.56-.58-2a3.76,3.76,0,0,1-.16-.72,5.44,5.44,0,0,1,.25.69c.17.5.38,1.16.66,2,.56,1.74,1.4,4.24,2.52,7.3a139.76,139.76,0,0,0,10.78,23,101.81,101.81,0,0,0,15.48,20.1c2.31,2.29,4.28,4,5.68,5.21.69.59,1.25,1,1.62,1.34A4,4,0,0,1,390,422.52Z" style="fill:#263238"></path><path d="M392.32,400.28a9.54,9.54,0,0,1-.19-1.36c-.1-1-.24-2.21-.4-3.72-.34-3.14-.87-7.46-1.63-12.21s-1.62-9-2.28-12.12c-.32-1.48-.58-2.71-.78-3.65a7.89,7.89,0,0,1-.25-1.35,7.76,7.76,0,0,1,.42,1.31c.24.85.56,2.09.93,3.62.74,3.07,1.64,7.35,2.41,12.11s1.25,9.11,1.51,12.26c.13,1.57.21,2.85.25,3.73A6.71,6.71,0,0,1,392.32,400.28Z" style="fill:#263238"></path><path d="M397.38,362.66a3.29,3.29,0,0,1,.25.59c.17.43.38,1,.65,1.72s.61,1.67.92,2.76.74,2.32,1.05,3.71c.17.7.35,1.42.54,2.18s.31,1.56.47,2.39c.35,1.64.57,3.43.83,5.3a84.73,84.73,0,0,1,.52,12.29,87.07,87.07,0,0,1-1.39,12.22c-.4,1.85-.74,3.61-1.21,5.23-.23.81-.41,1.6-.65,2.35l-.69,2.13c-.41,1.37-.91,2.57-1.31,3.63s-.78,2-1.12,2.69l-.77,1.67a5,5,0,0,1-.29.57,2.29,2.29,0,0,1,.21-.61c.17-.43.4-1,.69-1.7s.68-1.64,1-2.71.85-2.27,1.24-3.64l.66-2.13c.23-.75.4-1.54.62-2.35.45-1.61.78-3.37,1.16-5.21a91.09,91.09,0,0,0,1.35-12.16,90.12,90.12,0,0,0-.48-12.22c-.25-1.86-.45-3.64-.78-5.28-.16-.82-.28-1.63-.45-2.38s-.34-1.49-.5-2.18c-.29-1.4-.69-2.62-1-3.72s-.59-2-.85-2.77-.42-1.31-.56-1.75A2.68,2.68,0,0,1,397.38,362.66Z" style="fill:#263238"></path><path d="M429.69,350.45a.66.66,0,0,1,0,.21l-.09.6c-.1.53-.22,1.32-.43,2.31-.41,2-1.11,4.87-2.19,8.35s-2.55,7.57-4.29,12.05-3.77,9.38-5.68,14.58-3.44,10.27-4.85,14.88-2.72,8.74-4,12.15a78.48,78.48,0,0,1-3.41,7.93c-.44.92-.84,1.6-1.09,2.07l-.3.53a.74.74,0,0,1-.12.18s0-.07.08-.2.15-.33.26-.55c.23-.48.6-1.18,1-2.11.87-1.84,2-4.54,3.26-8s2.53-7.55,3.9-12.17,2.88-9.69,4.83-14.9,3.95-10.11,5.71-14.58,3.27-8.54,4.38-12,1.86-6.31,2.33-8.29c.23-1,.38-1.76.51-2.28.05-.24.1-.44.14-.6A.63.63,0,0,1,429.69,350.45Z" style="fill:#263238"></path><path d="M363.17,340.21a1.86,1.86,0,0,0-3.06,1.9,53.6,53.6,0,0,0,2.71,7c3,6.3,11.68,28.92,15.76,41.33S388.4,426,388.4,426l8.71-1.41s-8-38.07-15.75-51.78C375.1,361.78,368.85,345.86,363.17,340.21Z" style="fill:#455a64"></path><path d="M381,398.18a5.21,5.21,0,0,1,.45,1.05c.26.68.61,1.68,1,2.92.8,2.48,1.79,6,2.78,9.81s1.8,7.36,2.38,9.91c.26,1.2.48,2.21.65,3a5.16,5.16,0,0,1,.18,1.12,5.48,5.48,0,0,1-.35-1.07c-.22-.8-.48-1.8-.8-3-.67-2.62-1.54-6.06-2.51-9.87s-1.92-7.32-2.64-9.83l-.86-3A5.31,5.31,0,0,1,381,398.18Z" style="fill:#263238"></path><path d="M392.78,425.3a.68.68,0,0,1,0-.24c0-.18-.06-.4-.1-.68-.09-.6-.18-1.5-.36-2.64-.32-2.29-.89-5.58-1.82-9.6a137.66,137.66,0,0,0-4.08-13.92c-1.79-5.15-4-10.73-6.57-16.5-5.12-11.52-10.24-21.75-13.6-29.3-1.7-3.77-3-6.85-3.88-9-.44-1.07-.76-1.91-1-2.47l-.24-.65c-.06-.15-.08-.23-.07-.23a1.22,1.22,0,0,1,.11.21l.28.63,1.06,2.44c.92,2.12,2.28,5.18,4,8.93,3.43,7.52,8.59,17.71,13.73,29.26,2.54,5.77,4.77,11.37,6.54,16.55a130.79,130.79,0,0,1,4,14c.9,4.05,1.42,7.36,1.69,9.66.16,1.15.21,2,.27,2.65,0,.28,0,.51,0,.69S392.78,425.3,392.78,425.3Z" style="fill:#263238"></path><path d="M397.11,424.59a8.44,8.44,0,0,1-.29-1.46c-.18-1-.41-2.37-.68-4-.6-3.37-1.52-8-2.84-13.07s-2.77-9.57-3.9-12.81L388,389.42a8.39,8.39,0,0,1-.46-1.42,11.33,11.33,0,0,1,.63,1.35c.37.89.9,2.17,1.5,3.78a128.07,128.07,0,0,1,4,12.8,133.79,133.79,0,0,1,2.71,13.14c.25,1.7.44,3.08.53,4A9.13,9.13,0,0,1,397.11,424.59Z" style="fill:#263238"></path><rect x="380.99" y="423.34" width="33.99" height="41.41" style="fill:#FF725E"></rect><g style="opacity:0.30000000000000004"><rect x="380.99" y="423.34" width="33.99" height="41.41"></rect></g><rect x="373.98" y="423.34" width="30.16" height="41.41" style="fill:#FF725E"></rect></g><g id="Character"><polygon points="207.14 308.21 195.39 303.87 150.43 302.54 139.99 305.38 141.36 330.81 164.96 345.86 187.84 345.4 202.23 332.29 205.43 319.3 207.14 308.21" style="fill:#ffbe9d"></polygon><path d="M73.78,347.16a153.47,153.47,0,0,1,9.41-16.81,38.84,38.84,0,0,1,24.23-17.05l37.72-10.22s2.57,25.44,28.51,25.44S200.12,305,200.12,305l47.5,17.36c1.5.58,11.63,4.09,23.41,29.35C282.25,375.73,287.16,388,287.16,388l-44.81,12-3,41.39,1,23.1-136.5-.3.76-26.41L104,394.2l-2.86,5.39-42.62-17.1S62.73,369.91,73.78,347.16Z" style="fill:#FF725E"></path><path d="M103.32,371.61c-.2,0-.07,14.63.28,32.66s.79,32.66,1,32.65.08-14.62-.27-32.66S103.52,371.6,103.32,371.61Z" style="fill:#263238"></path><g style="opacity:0.30000000000000004"><path d="M236.3,375.87c-2.12-2.33-5.41-3.11-8.5-3.74-35.12-7.21-71.34-4.16-106.92.29-4.42.55-9.29,1.48-11.95,5-1.93,2.58-.69,6-.88,9.21-.93,16.49,1.22,34.06,4.49,50.25L233.74,435c4.15-12.56,5.16-33.87,5.23-48.34C239,382.85,238.86,378.67,236.3,375.87Z"></path></g><path d="M267.72,346.27l-.39.35-1.2,1a18.79,18.79,0,0,1-2,1.52l-1.35.89-.74.49-.84.45a33.42,33.42,0,0,1-3.88,1.92,45.29,45.29,0,0,1-4.83,1.77,45.82,45.82,0,0,1-12.4,1.72,43.91,43.91,0,0,1-14.93-2.63c-.33-.12-.66-.22-1-.35l-.95-.42-1.92-.87c-.64-.29-1.25-.68-1.88-1s-1.28-.67-1.88-1.1c-1.18-.85-2.45-1.63-3.6-2.6s-2.31-1.94-3.47-2.94a35,35,0,0,0-7.62-5.37,19.27,19.27,0,0,0-4.56-1.46,21.46,21.46,0,0,0-4.88-.2,30.48,30.48,0,0,0-9.71,2.58,59.14,59.14,0,0,0-9.12,5c-5.88,3.88-11.52,8.07-17.88,10.37a25.27,25.27,0,0,1-14.48,1.09,31.55,31.55,0,0,1-4.5-1.31,62.41,62.41,0,0,1-15.1-8.68c-4.41-3.23-8.43-6.33-12.4-8.71A38.62,38.62,0,0,0,98.8,332.9a26.61,26.61,0,0,0-9.34-.64,18.82,18.82,0,0,0-5.72,1.55,14.52,14.52,0,0,0-1.39.67l-.48.24a5,5,0,0,1,.45-.28,10.6,10.6,0,0,1,1.38-.73,18.58,18.58,0,0,1,5.74-1.65,26.79,26.79,0,0,1,9.42.55,39,39,0,0,1,11.54,4.86c4,2.38,8,5.47,12.46,8.68a62.43,62.43,0,0,0,15,8.58,31.06,31.06,0,0,0,4.44,1.28,24.24,24.24,0,0,0,4.68.56,25.54,25.54,0,0,0,9.53-1.65c6.26-2.27,11.87-6.43,17.77-10.32a58.83,58.83,0,0,1,9.2-5.09,30.92,30.92,0,0,1,9.87-2.61,21.47,21.47,0,0,1,5,.22,19.24,19.24,0,0,1,4.68,1.5,35.4,35.4,0,0,1,7.72,5.46c1.16,1,2.3,2,3.45,2.94s2.39,1.73,3.56,2.57c.59.43,1.24.73,1.85,1.1s1.22.72,1.86,1l1.9.85.94.43c.31.13.64.23,1,.34A43.35,43.35,0,0,0,240.07,356a45.9,45.9,0,0,0,12.32-1.63,44,44,0,0,0,4.82-1.72,34.28,34.28,0,0,0,3.87-1.86l.84-.44.75-.48L264,349a19.73,19.73,0,0,0,2-1.47l1.23-.95Z" style="fill:#fff"></path><path d="M246.24,374.86a3.92,3.92,0,0,1-.44.2l-1.33.55a21.78,21.78,0,0,1-5.4,1.09,29.49,29.49,0,0,1-8.67-.84,55.64,55.64,0,0,1-10.84-4c-3.87-1.83-7.95-4.14-12.52-6.21s-9.67-4-15.3-4.06a25.56,25.56,0,0,0-8.45,1.31,50.82,50.82,0,0,0-8.23,3.61c-2.72,1.43-5.42,3-8.26,4.46a44.56,44.56,0,0,1-9,3.64,29.26,29.26,0,0,1-9.65.89,40,40,0,0,1-9.24-1.84A70.65,70.65,0,0,1,123,365.9c-4.79-3-9.2-6.08-13.49-8.69A68.81,68.81,0,0,0,97.08,351c-8-2.92-15.2-2.94-19.81-1.84a26.53,26.53,0,0,0-5.18,1.77l-1.27.66-.44.21s.14-.1.42-.26l1.25-.71a25.24,25.24,0,0,1,5.18-1.87c4.63-1.17,11.87-1.21,20,1.7a68.71,68.71,0,0,1,12.54,6.21c4.31,2.6,8.73,5.66,13.51,8.65a71.05,71.05,0,0,0,15.84,7.73A40,40,0,0,0,148.2,375a28.82,28.82,0,0,0,9.49-.89,44.15,44.15,0,0,0,8.88-3.59c2.81-1.45,5.52-3,8.25-4.45a52.51,52.51,0,0,1,8.32-3.64,26.19,26.19,0,0,1,8.61-1.31c5.74.12,10.92,2.07,15.47,4.14s8.65,4.43,12.5,6.28a56.06,56.06,0,0,0,10.75,4,29.66,29.66,0,0,0,8.59.92,23.27,23.27,0,0,0,5.38-1l1.34-.5C246.08,374.9,246.24,374.86,246.24,374.86Z" style="fill:#fff"></path><path d="M278.22,367.23a7,7,0,0,1-1,1c-.34.32-.76.7-1.29,1.12s-1.09.91-1.78,1.39a45.27,45.27,0,0,1-5,3.16,45.71,45.71,0,0,1-13.55,4.83,43,43,0,0,1-5.84.7c-.84.06-1.6,0-2.26.05s-1.24,0-1.71-.05a9,9,0,0,1-1.45-.14,6.92,6.92,0,0,1,1.45-.06c.47,0,1,0,1.7,0s1.41,0,2.24-.13a49.17,49.17,0,0,0,5.78-.8,53.34,53.34,0,0,0,6.89-1.9,54.63,54.63,0,0,0,6.53-2.88,51.34,51.34,0,0,0,5-3c.69-.46,1.28-.93,1.81-1.32s1-.75,1.34-1A10,10,0,0,1,278.22,367.23Z" style="fill:#fff"></path><path d="M128.42,254.22s-2.85,3.9-2.8,10.93c0,3.77,2.59,11.41,9.28,11.79-1.77,10.78,5.12,18.74,16.6,18.76s24.63-19.69,35.27-24l30.88-8.16c2.72-.63,3.83-3.94,3.78-6.72s-.76-5.68.22-8.29c1.35-3.57,5.49-5.48,6.9-9,1.61-4-.88-8.51-3.75-11.77s-6.36-6.36-7.27-10.6c-.84-3.91.66-8.31-1.29-11.79-2.4-4.29-8.68-4.82-11.6-8.77-1.41-1.92-1.85-4.41-3.25-6.34-2.38-3.28-7-4.14-11-3.69s-7.9,1.89-11.94,2.19c-5.55.4-11.28-1.39-16.6.21-5.87,1.78-9.45,7-13.26,12l-5,5.85a21.89,21.89,0,0,1-3.31,2.71c-2.1,1.36-4.49,2.3-6.29,4a9.83,9.83,0,0,0,.68,14.15,10.49,10.49,0,0,0-7,10.31s-.55,5.12,2.69,7.4C130.36,245.41,125.71,248.91,128.42,254.22Z" style="fill:#263238"></path><path d="M149.11,264.68c-2.55-7.84-5.06-15.73-6.22-23.89s-.92-16.65,2-24.37c.44-1.18,4.15-9,5.39-8.91.89.09-1.4,7.42-.95,8.19,4.29,7.36,5.45,16.21,4.77,24.7a112.07,112.07,0,0,1-4.94,24.28" style="fill:#263238"></path><path d="M171.16,326.17c-12.77-.27-22-21.21-22-21.21l-.83-71.71c-.68-20.65,10.78-38.25,31.44-38.35l1.91.1a36.93,36.93,0,0,1,34.95,35.88c.48,17.9.79,37.69.16,47.24-1.31,19.79-21.27,21.8-21.27,21.8s-.12,4.59-.18,10.41c-.13,13.07-19,16.29-24.15,15.84Z" style="fill:#ffbe9d"></path><path d="M195.49,299.92s-12.52.07-25.37-9c0,0,5.51,14.73,25.36,14Z" style="fill:#eb996e"></path><path d="M206.54,247.84a2.82,2.82,0,0,1-2.88,2.71,2.7,2.7,0,0,1-2.77-2.71,2.82,2.82,0,0,1,2.87-2.71A2.71,2.71,0,0,1,206.54,247.84Z" style="fill:#263238"></path><path d="M211.93,238.87c-.37.35-2.43-1.35-5.47-1.5s-5.35,1.24-5.66.85c-.16-.17.24-.82,1.25-1.47a7.7,7.7,0,0,1,4.56-1.14,7.43,7.43,0,0,1,4.32,1.65C211.83,238,212.11,238.72,211.93,238.87Z" style="fill:#263238"></path><path d="M179.34,247.12a2.83,2.83,0,0,1-2.88,2.7,2.71,2.71,0,0,1-2.78-2.7,2.84,2.84,0,0,1,2.88-2.71A2.72,2.72,0,0,1,179.34,247.12Z" style="fill:#263238"></path><path d="M182.07,238.5c-.37.35-2.43-1.35-5.47-1.5s-5.36,1.25-5.67.86c-.15-.18.24-.82,1.25-1.48a7.82,7.82,0,0,1,4.56-1.14,7.42,7.42,0,0,1,4.33,1.66C182,237.66,182.25,238.35,182.07,238.5Z" style="fill:#263238"></path><path d="M191.73,262.46c0-.17,1.9-.39,5-.62.79,0,1.53-.16,1.69-.68a4,4,0,0,0-.4-2.33l-2-6c-2.74-8.59-4.67-15.64-4.33-15.75s2.85,6.77,5.59,15.37c.66,2.12,1.29,4.13,1.88,6.07a4.47,4.47,0,0,1,.24,3.07,1.91,1.91,0,0,1-1.34,1.06,5.42,5.42,0,0,1-1.33.12C193.64,262.73,191.73,262.64,191.73,262.46Z" style="fill:#263238"></path><path d="M182.66,264.09c.5,0,.33,3.3,3,5.79s6.23,2.32,6.23,2.79c0,.21-.82.6-2.3.56a8.24,8.24,0,0,1-5.22-2.14,7.22,7.22,0,0,1-2.33-4.85C182,264.86,182.44,264.06,182.66,264.09Z" style="fill:#263238"></path><path d="M182.56,226.15c-.34.81-3.36.26-6.95.5s-6.53,1-7,.29c-.19-.37.36-1.12,1.56-1.86a12.14,12.14,0,0,1,10.6-.6C182.09,225.08,182.71,225.77,182.56,226.15Z" style="fill:#263238"></path><path d="M211.22,228.69c-.58.66-2.63-.17-5.15-.33s-4.68.21-5.13-.54c-.2-.36.17-1,1.14-1.64a7.46,7.46,0,0,1,8.28.7C211.22,227.64,211.47,228.37,211.22,228.69Z" style="fill:#263238"></path><path d="M149.13,248c-.33-.16-13.39-4.75-13.68,8.81s13.37,11.05,13.41,10.66S149.13,248,149.13,248Z" style="fill:#ffbe9d"></path><path d="M144.83,262.24c-.06-.05-.24.16-.65.33a2.34,2.34,0,0,1-1.76,0c-1.42-.56-2.58-2.86-2.59-5.3a7.76,7.76,0,0,1,.73-3.37,2.72,2.72,0,0,1,1.82-1.77,1.2,1.2,0,0,1,1.38.68c.17.38.08.65.15.67s.3-.22.2-.78a1.46,1.46,0,0,0-.52-.86,1.79,1.79,0,0,0-1.29-.38,3.35,3.35,0,0,0-2.52,2,8,8,0,0,0-.9,3.76c0,2.74,1.37,5.32,3.32,5.93a2.54,2.54,0,0,0,2.17-.31C144.8,262.56,144.87,262.26,144.83,262.24Z" style="fill:#eb996e"></path><path d="M208.12,208.31c2.21-1.18-4.29-8.38-9.65-10.89-8.1-3.8-20.52-6.24-28.06-4.2-9.08,2.44-16.65,6.85-21.3,15s-6.48,17.74-6.34,27.15c0,2.87.31,5.86,1.81,8.31,1.85,3,5.46,4.95,5.25,9.09a5.61,5.61,0,0,0,1.36,4.15c2.44,2.67,5.51.23,6.94-2.23,3.05-5.28,3.46-11.61,3.8-17.69.24-4.33.47-8.74-.69-12.91-.64-2.27-1.68-4.42-2.18-6.72s-.41-4.9,1-6.75a8.39,8.39,0,0,1,1.12-1.1,14.11,14.11,0,0,1,14.06-2.49c7.6,2.79,20.59,7,24,4.45,4.94-3.67,6.15-6.08,6.15-6.08Z" style="fill:#263238"></path><path d="M171.14,191.38c7.49-2.39,16-2.15,22.89,1.55,3.68,2,7,5.08,8.06,9.11s-.7,9-4.58,10.47l-.27.17c-5.81,1.87-9.56,1-15.3-1-4.83-1.75-9.11-4.8-13.95-6.51a27.53,27.53,0,0,0-16.12-.68C157.13,198.64,163.66,193.78,171.14,191.38Z" style="fill:#263238"></path><path d="M145.36,204.79c.12.1,1.21-1.19,3.41-2.72a19.14,19.14,0,0,1,4.11-2.2,12.62,12.62,0,0,1,5.52-.93,18.49,18.49,0,0,1,9.45,3.9c2.1,1.66,3.07,3.06,3.2,3s-.15-.41-.59-1a14.53,14.53,0,0,0-2.2-2.41,17.49,17.49,0,0,0-9.79-4.31,12.78,12.78,0,0,0-5.9,1.05,18.22,18.22,0,0,0-4.18,2.46C146.21,203.27,145.28,204.74,145.36,204.79Z" style="fill:#455a64"></path><path d="M186.67,190.15a37.48,37.48,0,0,0,3.59,1.35A29.37,29.37,0,0,1,204.17,203a38.2,38.2,0,0,0,2,3.27,10.87,10.87,0,0,0-1.47-3.6,25.66,25.66,0,0,0-14.24-11.73A10.39,10.39,0,0,0,186.67,190.15Z" style="fill:#455a64"></path><path d="M127.8,238.18s.5.22,1.43.48a10.62,10.62,0,0,0,4,.26,16.38,16.38,0,0,0,5.73-1.86c2.05-1,4.15-2.44,6.48-3.76a19.71,19.71,0,0,1,7.08-2.63,9.41,9.41,0,0,1,6.06,1.1,7.1,7.1,0,0,1,2.91,3,4.92,4.92,0,0,1,.39,1.06c.05.26.07.39.05.4s-.15-.53-.62-1.37a7.18,7.18,0,0,0-2.91-2.74,9.17,9.17,0,0,0-5.81-.94,19.88,19.88,0,0,0-6.9,2.6c-2.3,1.31-4.42,2.72-6.51,3.74a16.38,16.38,0,0,1-5.91,1.8,9.94,9.94,0,0,1-4.14-.44,6.18,6.18,0,0,1-1-.45C127.91,238.27,127.79,238.2,127.8,238.18Z" style="fill:#455a64"></path><path d="M128.72,244.59a16.16,16.16,0,0,0,4.9.3,23.85,23.85,0,0,0,5.19-1.21c1.91-.64,4-1.51,6.19-2.29a22,22,0,0,1,6.5-1.4,12.47,12.47,0,0,1,5.35,1,8.3,8.3,0,0,1,3,2.17,5,5,0,0,1,.57.82c.12.19.17.3.15.31s-.29-.38-.87-1a8.71,8.71,0,0,0-3-2,12.35,12.35,0,0,0-5.18-.86,22.39,22.39,0,0,0-6.35,1.41c-2.2.77-4.26,1.63-6.21,2.26a22.9,22.9,0,0,1-5.31,1.12A12.81,12.81,0,0,1,130,245a6.42,6.42,0,0,1-1-.28C128.82,244.66,128.71,244.61,128.72,244.59Z" style="fill:#455a64"></path><path d="M224.1,230a2.56,2.56,0,0,1-.48,1.25,7.35,7.35,0,0,1-2.26,2.34,7.46,7.46,0,0,1-3.05,1.14,2.51,2.51,0,0,1-1.34-.07,12.69,12.69,0,0,0,4.1-1.51A13,13,0,0,0,224.1,230Z" style="fill:#455a64"></path><path d="M227.91,236.73a4.53,4.53,0,0,1-.7,1.86,10.17,10.17,0,0,1-3.33,3.48,10,10,0,0,1-4.56,1.56,4.57,4.57,0,0,1-2-.14c0-.09.76,0,1.94-.22a11.48,11.48,0,0,0,4.32-1.64,11.24,11.24,0,0,0,3.29-3.23C227.55,237.41,227.82,236.7,227.91,236.73Z" style="fill:#455a64"></path><path d="M283.27,389.16l18.29,36.72a26.82,26.82,0,0,1,2.78,13.23h0a26.77,26.77,0,0,1-26.73,25.46l-52.45-3-2.29-23.93L262.78,428l-15.47-29.23Z" style="fill:#ffbe9d"></path><path d="M262.78,428c0,.16,1.81-.14,4.71-.12a36.57,36.57,0,0,1,11.06,1.95,33.84,33.84,0,0,1,9.91,5.26c2.27,1.79,3.33,3.27,3.46,3.17s-.18-.43-.66-1.11a18.23,18.23,0,0,0-2.39-2.55,29.87,29.87,0,0,0-10-5.62,31.86,31.86,0,0,0-11.36-1.74,21.13,21.13,0,0,0-3.47.41A3.57,3.57,0,0,0,262.78,428Z" style="fill:#eb996e"></path><path d="M59.21,382.85S49.35,410.38,37,441a12.78,12.78,0,0,0-.59,1.91c-1.87,8.28,4.44,22.22,12.92,22.22l71-.7V441.21l-40.95-9,15.8-35Z" style="fill:#ffbe9d"></path><path d="M47.54,438.59c.1.12,1.5-1,4-2.41a37.21,37.21,0,0,1,21.35-4.83c2.84.22,4.58.61,4.62.46a3.67,3.67,0,0,0-1.19-.44,23,23,0,0,0-3.37-.66,32.85,32.85,0,0,0-21.74,4.92,22.88,22.88,0,0,0-2.76,2.05C47.82,438.22,47.5,438.54,47.54,438.59Z" style="fill:#eb996e"></path><path d="M233.13,436.21H222.87s-23.18-8.37-27.94-7.57c-4.29.72-20,11.16-23.08,13.22a1.94,1.94,0,0,0-.74.95h0a3.37,3.37,0,0,0,1.87,4.28l.33.14-.14.47a5.49,5.49,0,0,0-.24,1.87,2.27,2.27,0,0,0,4.21,1l-.59,1.05a2.5,2.5,0,0,0-.33,1.41l.05.95a2.58,2.58,0,0,0,1.78,2.31h0a2.56,2.56,0,0,0,2.69-.71c2-2.19,6.3-6.58,9.21-7.06a67.18,67.18,0,0,1,9.51-.48,3.22,3.22,0,0,1,3,2.06h0c-1.73.12-13.77,6.4-18,8.65a4.55,4.55,0,0,0-2.47,3.43c-.16,1.33.51,2.73,3.15,2.11,5.66-1.32,15.85-6,15.85-6s5.25-1.51,8.66.9c4.79,3.37,7,4.61,11.09,3.25a34.8,34.8,0,0,0,7.15-3.32l8.1-.81S243.61,439.15,233.13,436.21Z" style="fill:#ffbe9d"></path><path d="M202.54,440.12c0,.09-1.65-.43-4.36-.6a22.43,22.43,0,0,0-18.72,8c-1.75,2.08-2.5,3.61-2.58,3.56a5.84,5.84,0,0,1,.52-1.07,19,19,0,0,1,1.82-2.68,21.76,21.76,0,0,1,19-8.11,19.64,19.64,0,0,1,3.2.55A5.79,5.79,0,0,1,202.54,440.12Z" style="fill:#eb996e"></path><path d="M200.08,434.5a18.53,18.53,0,0,0-4.53-.79,19.82,19.82,0,0,0-10.54,3,42.23,42.23,0,0,0-8.49,7.19l-2.33,2.47a8,8,0,0,1-.88.88,5.81,5.81,0,0,1,.76-1c.51-.62,1.26-1.51,2.23-2.57a38.44,38.44,0,0,1,8.49-7.35,19.25,19.25,0,0,1,10.78-2.92,13.25,13.25,0,0,1,3.36.61,8.91,8.91,0,0,1,.87.34C200,434.43,200.09,434.48,200.08,434.5Z" style="fill:#eb996e"></path><path d="M105.3,436.94h10.26s23.17-8.37,27.94-7.58c4.29.73,20,11.16,23.08,13.23a1.94,1.94,0,0,1,.74,1h0a3.37,3.37,0,0,1-1.87,4.28l-.33.13.14.47a5.53,5.53,0,0,1,.24,1.87,2.27,2.27,0,0,1-4.21,1l.59,1.05a2.58,2.58,0,0,1,.33,1.41l-.05,1a2.58,2.58,0,0,1-1.78,2.31h0a2.56,2.56,0,0,1-2.69-.71c-2-2.19-6.3-6.58-9.21-7.07a68.7,68.7,0,0,0-9.51-.48,3.23,3.23,0,0,0-3,2.06h0c1.73.13,13.77,6.4,18,8.65a4.57,4.57,0,0,1,2.47,3.43c.16,1.33-.51,2.73-3.15,2.12-5.66-1.33-15.85-6-15.85-6s-5.25-1.5-8.66.9c-4.79,3.38-7,4.62-11.09,3.25a34.8,34.8,0,0,1-7.15-3.32l-8.1-.8S94.82,439.87,105.3,436.94Z" style="fill:#ffbe9d"></path><path d="M135.89,440.85c0,.09,1.65-.43,4.35-.6a22.43,22.43,0,0,1,18.73,8c1.75,2.07,2.5,3.6,2.58,3.56a5.84,5.84,0,0,0-.52-1.07,19,19,0,0,0-1.82-2.69,21.79,21.79,0,0,0-19-8.1,18.77,18.77,0,0,0-3.2.54A5.05,5.05,0,0,0,135.89,440.85Z" style="fill:#eb996e"></path><path d="M138.35,435.22a19.14,19.14,0,0,1,4.53-.79,19.76,19.76,0,0,1,10.54,3,42.55,42.55,0,0,1,8.49,7.18l2.32,2.47a7.38,7.38,0,0,0,.89.88,6.34,6.34,0,0,0-.76-1c-.51-.62-1.26-1.5-2.23-2.57a39.21,39.21,0,0,0-8.49-7.35,19.33,19.33,0,0,0-10.78-2.92,12.76,12.76,0,0,0-3.36.62c-.39.11-.67.26-.87.33S138.34,435.21,138.35,435.22Z" style="fill:#eb996e"></path><path d="M119.18,465.23H227a5.71,5.71,0,0,0,5.71-5.47l3.24-74.18a5.72,5.72,0,0,0-5.72-6h-114a5.72,5.72,0,0,0-5.72,5.95l3,74.18A5.71,5.71,0,0,0,119.18,465.23Z" style="fill:#e0e0e0"></path><path d="M119.18,465.23h-.26a4.81,4.81,0,0,1-.79-.08,5.65,5.65,0,0,1-2.76-1.31,5.88,5.88,0,0,1-2-4.48c-.09-2-.19-4.26-.3-6.82-.44-10.28-1.07-25.14-1.85-43.49q-.3-6.89-.61-14.41c-.1-2.51-.21-5.06-.32-7.67,0-.65-.07-1.29-.05-2a6,6,0,0,1,.47-2,6,6,0,0,1,4.8-3.57c.72-.06,1.39,0,2.08,0H148l79.05,0h2.63a6.8,6.8,0,0,1,2.66.41,6,6,0,0,1,3.57,3.86,7,7,0,0,1,.22,2.65l-.11,2.58c-.08,1.72-.15,3.43-.23,5.14q-.45,10.23-.88,20.15c-.58,13.21-1.14,25.95-1.68,38.09-.06,1.52-.13,3-.2,4.52,0,.75-.06,1.5-.1,2.24a8,8,0,0,1-.29,2.26,6,6,0,0,1-2.83,3.47,5.83,5.83,0,0,1-2.15.69c-.76.08-1.46,0-2.19,0l-16.74,0-30.06,0-43.53-.08-11.83-.05-3.08,0-1,0,1,0,3.08,0,11.83,0,43.53-.09,30.06,0h16.74c.72,0,1.46,0,2.14-.05a5.36,5.36,0,0,0,2-.64,5.49,5.49,0,0,0,2.6-3.2,7.48,7.48,0,0,0,.27-2.14c0-.74.07-1.49.1-2.24.06-1.5.13-3,.19-4.52.53-12.14,1.08-24.89,1.65-38.1q.43-9.9.87-20.15c.08-1.7.15-3.41.23-5.13l.11-2.58a6.47,6.47,0,0,0-.2-2.49,5.49,5.49,0,0,0-3.26-3.52,6.18,6.18,0,0,0-2.47-.37h-2.63l-79.05,0H117.59c-.68,0-1.39,0-2,0a5.51,5.51,0,0,0-4.46,3.31,5.57,5.57,0,0,0-.44,1.84c0,.63,0,1.3,0,1.95.1,2.6.2,5.16.3,7.66q.3,7.51.57,14.41c.72,18.36,1.29,33.22,1.69,43.5.1,2.57.18,4.85.26,6.82a5.71,5.71,0,0,0,4.61,5.75C118.82,465.23,119.18,465.2,119.18,465.23Z" style="fill:#263238"></path><path d="M167.28,423.73a5.9,5.9,0,1,0,5.9-5.91A5.9,5.9,0,0,0,167.28,423.73Z" style="fill:#fff"></path><path d="M244.19,356.84a2.69,2.69,0,0,1,0,.62v1.78c0,1.54,0,3.77-.11,6.53-.14,5.51-.43,13.13-.9,21.53s-1,16-1.45,21.51c-.23,2.7-.42,4.9-.55,6.51-.08.72-.14,1.3-.19,1.76a2.22,2.22,0,0,1-.1.62,3.28,3.28,0,0,1,0-.62c0-.46,0-1.05.08-1.78.1-1.6.23-3.81.4-6.52.33-5.56.79-13.14,1.29-21.51s.82-16,1.05-21.51c.11-2.71.21-4.92.28-6.53l.09-1.77A2.74,2.74,0,0,1,244.19,356.84Z" style="fill:#263238"></path></g><g id="Desk"><path d="M484.78,465.23c0,.14-102.29.26-228.45.26s-228.47-.12-228.47-.26S130.13,465,256.33,465,484.78,465.08,484.78,465.23Z" style="fill:#263238"></path></g></svg>