<svg xmlns="http://www.w3.org/2000/svg" viewBox="0 0 500 500"><g id="background-simple"><path d="M392.25,135c-27-30.75-64.63-51.19-105.41-52.51-58.08-1.87-88,46.83-131.11,69.3S82.69,194,77.41,238s-.88,85.22,35.2,105.82,58.08-14,104.71-12.17,74.8,58.09,133.31,41.22c38.51-11.1,67.05-51.77,77.78-90.89C443.11,228.38,426.09,173.6,392.25,135Z" style="fill:#92E3A9"></path><path d="M392.25,135c-27-30.75-64.63-51.19-105.41-52.51-58.08-1.87-88,46.83-131.11,69.3S82.69,194,77.41,238s-.88,85.22,35.2,105.82,58.08-14,104.71-12.17,74.8,58.09,133.31,41.22c38.51-11.1,67.05-51.77,77.78-90.89C443.11,228.38,426.09,173.6,392.25,135Z" style="fill:#fff;opacity:0.7000000000000001"></path></g><g id="Plants"><path d="M176.35,279.25s-5.51-4.35-6.93-7.15c-1.2-2.38-2.07-5.74-.83-8.28a4.74,4.74,0,0,1,6.71-2.15c3.39,2.11,3.76,9.32,2.89,12.78C178.12,274.75,176.41,279.3,176.35,279.25Z" style="fill:#92E3A9"></path><path d="M227.36,315.55c-.23.21-4.16,3.07-4.18,3s-2.2-6.68-1.84-9.79c.31-2.65,1.44-5.94,3.88-7.37a4.74,4.74,0,0,1,6.78,1.9C233.67,306.93,230,313.14,227.36,315.55Z" style="fill:#92E3A9"></path><path d="M111.76,285.86s20.2,20.84,20.09,46.45-20.49,46.29-20.49,46.29-20.2-20.85-20.09-46.46S111.76,285.86,111.76,285.86Z" style="fill:#92E3A9"></path><path d="M140.56,347.65a7.28,7.28,0,0,1-.74-.92c-1.46-2.22-2.72-5.47-1.77-8.13a4.73,4.73,0,0,1,6.41-2.91c2.74,1.3,4.09,5.69,4.38,9.29,1.09-.25,2.08-.44,2.93-.58l1.09-2.47c.4-.85.68-1.7,1-2.57.48-1.28.92-2.62,1.35-4-1.59-.72-6.25-2.89-8-4.81s-3.52-5-3-7.77a4.74,4.74,0,0,1,5.9-3.85c3.84,1.15,6.09,8,6.17,11.57,0,.12-.06.87-.14,1.77.39-1.32.78-2.64,1.12-4,1-3.84,1.88-7.77,2.78-11.71.19-.82.39-1.64.58-2.46-1.35-.6-6.41-2.91-8.23-4.92s-3.52-5-3-7.77a4.73,4.73,0,0,1,5.91-3.84c3.83,1.14,6.08,8,6.16,11.56,0,.13-.07,1-.16,2,.52-2.13,1.07-4.25,1.67-6.34a85.09,85.09,0,0,1,3.77-10.53c-.47-.2-6.46-2.79-8.48-5-1.79-2-3.52-5-3-7.77a4.73,4.73,0,0,1,5.9-3.84c3.84,1.14,6.09,8,6.17,11.56,0,.26-.29,3.52-.44,4.68a.61.61,0,0,0,.05-.12,62.19,62.19,0,0,1,5.5-9.5,84.28,84.28,0,0,1,6.07-7.71c2-2.29,3.95-4.27,5.7-6,1-.93,1.85-1.76,2.69-2.53h-.09c-.07,0,1.87-4.46,2-4.73,1.8-3.09,7.08-8,11-7.16a4.73,4.73,0,0,1,3.32,6.22c-.87,2.68-3.84,4.49-6.37,5.36s-8.23.46-9.63.34c-.85.82-1.76,1.7-2.74,2.7-1.7,1.77-3.62,3.78-5.55,6.11-.51.62-1,1.3-1.57,2,1.12-.92,2.66-2.17,2.83-2.27,3-1.92,10-3.85,13-1.29a4.73,4.73,0,0,1,.08,7c-2,2-5.48,2.22-8.12,1.83s-7.68-3.48-8.75-4.17c-1.14,1.48-2.28,3-3.37,4.69a60.48,60.48,0,0,0-5.22,9.49c-.09.19-.15.4-.23.6.47-.55,3.28-3.39,3.5-3.57,2.79-2.23,9.48-4.92,12.82-2.72a4.74,4.74,0,0,1,.86,7c-1.79,2.19-5.21,2.8-7.88,2.71-3.07-.12-9.12-3.17-9.35-3.29a84,84,0,0,0-3.42,10.26c-.69,2.59-1.28,5.23-1.85,7.88.63-.7,3.24-3.34,3.45-3.5,2.79-2.24,9.48-4.92,12.83-2.72a4.74,4.74,0,0,1,.85,7c-1.79,2.19-5.21,2.81-7.88,2.71-3-.11-8.81-3-9.3-3.26-.26,1.21-.52,2.41-.77,3.63-.82,3.95-1.62,7.92-2.53,11.81-.31,1.35-.67,2.66-1,4,1-1,2.8-2.86,3-3,2.79-2.23,9.49-4.92,12.83-2.72a4.75,4.75,0,0,1,.85,7c-1.79,2.18-5.21,2.8-7.87,2.71s-7.62-2.43-9-3.11c-.6,2.19-1.25,4.35-2,6.45-.34.9-.62,1.84-1,2.68-.19.45-.37.9-.56,1.34l.77-.07s.05,1.25-.07,3.28c2.94-2.09,7.18-3.89,9.94-2.63a4.74,4.74,0,0,1,1.9,6.79,5.69,5.69,0,0,1-.62.84,18.42,18.42,0,0,1-3.79,8.47c-.15.17-2.15,2-3.19,2.93,1-.54,2-1.08,3-1.67,1.5-.83,3.06-1.76,4.58-2.65l2.33-1.48c.8-.49,1.5-1.06,2.27-1.58,1.11-.8,2.21-1.69,3.32-2.56-.94-1.48-3.62-5.86-4-8.41s-.18-6.11,1.79-8.14a4.74,4.74,0,0,1,7.05.05c2.57,3.07.67,10-1.24,13-.06.1-.53.7-1.09,1.4,1.05-.89,2.1-1.77,3.14-2.71,2.94-2.65,5.85-5.45,8.77-8.24l1.84-1.73c-.79-1.24-3.74-6-4.14-8.63s-.18-6.11,1.79-8.14a4.73,4.73,0,0,1,7,0c2.57,3.07.67,10-1.23,13.05-.07.11-.63.82-1.27,1.61,1.62-1.49,3.24-3,4.9-4.36a82.72,82.72,0,0,1,8.95-6.7c-.28-.44-3.85-5.9-4.3-8.88-.4-2.63-.18-6.11,1.79-8.13a4.74,4.74,0,0,1,7.05.05c2.57,3.07.67,10-1.24,13.05-.13.21-2.18,2.77-2.94,3.66l.1-.07a61.57,61.57,0,0,1,9.83-4.89,83,83,0,0,1,9.31-3.09c2.93-.81,5.66-1.38,8.07-1.86,1.31-.25,2.52-.46,3.64-.64l-.06-.05c-.06,0,4-2.69,4.29-2.83,3.2-1.59,10.32-2.78,13.11.09a4.73,4.73,0,0,1-.66,7c-2.21,1.76-5.69,1.63-8.27,1s-7.12-4.16-8.22-5c-1.16.21-2.41.45-3.77.74-2.41.54-5.11,1.16-8,2-.77.23-1.59.51-2.39.77,1.44-.16,3.42-.34,3.61-.34,3.57.07,10.44,2.29,11.6,6.12a4.74,4.74,0,0,1-3.82,5.92c-2.78.54-5.8-1.18-7.79-3s-4.48-7.14-5-8.3c-1.77.6-3.57,1.26-5.4,2a61.52,61.52,0,0,0-9.6,5c-.17.11-.34.25-.51.37.7-.2,4.6-1,4.88-1,3.56-.33,10.63,1.12,12.2,4.8a4.75,4.75,0,0,1-3.15,6.31c-2.69.84-5.89-.54-8.06-2.09-2.5-1.79-5.87-7.67-6-7.89a82.93,82.93,0,0,0-8.51,6.67c-2,1.77-3.95,3.65-5.89,5.55.91-.24,4.54-1,4.81-1,3.56-.33,10.62,1.12,12.2,4.8a4.73,4.73,0,0,1-3.15,6.3c-2.7.85-5.89-.53-8.06-2.08-2.44-1.74-5.69-7.37-6-7.85l-2.65,2.6c-2.86,2.85-5.72,5.71-8.62,8.46-1,.95-2,1.85-3.06,2.75,1.38-.31,3.91-.83,4.13-.85,3.56-.33,10.62,1.12,12.19,4.8a4.73,4.73,0,0,1-3.14,6.31c-2.7.84-5.89-.54-8.06-2.09s-5-6.23-5.8-7.56c-1.71,1.5-3.45,2.94-5.23,4.28-.78.57-1.53,1.19-2.31,1.69l-2.3,1.53c-1.6,1-3.09,1.92-4.61,2.81-.76.45-1.49.86-2.24,1.29,1.35-.52,3.51-1.32,3.71-1.38,3.47-.86,10.67-.49,12.78,2.91a4.73,4.73,0,0,1-2.15,6.7c-2.54,1.24-5.91.37-8.29-.83-2.62-1.33-6.57-6.22-7.05-6.82-1.83,1-3.63,2.05-5.33,2.95-4.53,2.43-8.49,4.36-11.56,5.8-10,8.63-24,9.58-24,9.58s-.74-16.82,9.16-27.88A34.54,34.54,0,0,1,140.56,347.65Zm17.81,16.4c-.31-.69-2.7-6-2.87-9-.56-.11-1.11-.22-1.65-.35a39,39,0,0,1-6.2,14.81c1.82-.86,3.78-1.82,5.86-2.88C155.07,365.8,156.7,365,158.37,364.05Z" style="fill:#92E3A9"></path><path d="M67,344.44s16.82.51,27.12,11.21,10.17,27.53,10.17,27.53S87.45,382.66,77.16,372,67,344.44,67,344.44Z" style="fill:#92E3A9"></path><g style="opacity:0.5"><path d="M176.35,279.25s-5.51-4.35-6.93-7.15c-1.2-2.38-2.07-5.74-.83-8.28a4.74,4.74,0,0,1,6.71-2.15c3.39,2.11,3.76,9.32,2.89,12.78C178.12,274.75,176.41,279.3,176.35,279.25Z" style="fill:#fff"></path><path d="M227.36,315.55c-.23.21-4.16,3.07-4.18,3s-2.2-6.68-1.84-9.79c.31-2.65,1.44-5.94,3.88-7.37a4.74,4.74,0,0,1,6.78,1.9C233.67,306.93,230,313.14,227.36,315.55Z" style="fill:#fff"></path><path d="M111.76,285.86s20.2,20.84,20.09,46.45-20.49,46.29-20.49,46.29-20.2-20.85-20.09-46.46S111.76,285.86,111.76,285.86Z" style="fill:#fff"></path><path d="M140.56,347.65a7.28,7.28,0,0,1-.74-.92c-1.46-2.22-2.72-5.47-1.77-8.13a4.73,4.73,0,0,1,6.41-2.91c2.74,1.3,4.09,5.69,4.38,9.29,1.09-.25,2.08-.44,2.93-.58l1.09-2.47c.4-.85.68-1.7,1-2.57.48-1.28.92-2.62,1.35-4-1.59-.72-6.25-2.89-8-4.81s-3.52-5-3-7.77a4.74,4.74,0,0,1,5.9-3.85c3.84,1.15,6.09,8,6.17,11.57,0,.12-.06.87-.14,1.77.39-1.32.78-2.64,1.12-4,1-3.84,1.88-7.77,2.78-11.71.19-.82.39-1.64.58-2.46-1.35-.6-6.41-2.91-8.23-4.92s-3.52-5-3-7.77a4.73,4.73,0,0,1,5.91-3.84c3.83,1.14,6.08,8,6.16,11.56,0,.13-.07,1-.16,2,.52-2.13,1.07-4.25,1.67-6.34a85.09,85.09,0,0,1,3.77-10.53c-.47-.2-6.46-2.79-8.48-5-1.79-2-3.52-5-3-7.77a4.73,4.73,0,0,1,5.9-3.84c3.84,1.14,6.09,8,6.17,11.56,0,.26-.29,3.52-.44,4.68a.61.61,0,0,0,.05-.12,62.19,62.19,0,0,1,5.5-9.5,84.28,84.28,0,0,1,6.07-7.71c2-2.29,3.95-4.27,5.7-6,1-.93,1.85-1.76,2.69-2.53h-.09c-.07,0,1.87-4.46,2-4.73,1.8-3.09,7.08-8,11-7.16a4.73,4.73,0,0,1,3.32,6.22c-.87,2.68-3.84,4.49-6.37,5.36s-8.23.46-9.63.34c-.85.82-1.76,1.7-2.74,2.7-1.7,1.77-3.62,3.78-5.55,6.11-.51.62-1,1.3-1.57,2,1.12-.92,2.66-2.17,2.83-2.27,3-1.92,10-3.85,13-1.29a4.73,4.73,0,0,1,.08,7c-2,2-5.48,2.22-8.12,1.83s-7.68-3.48-8.75-4.17c-1.14,1.48-2.28,3-3.37,4.69a60.48,60.48,0,0,0-5.22,9.49c-.09.19-.15.4-.23.6.47-.55,3.28-3.39,3.5-3.57,2.79-2.23,9.48-4.92,12.82-2.72a4.74,4.74,0,0,1,.86,7c-1.79,2.19-5.21,2.8-7.88,2.71-3.07-.12-9.12-3.17-9.35-3.29a84,84,0,0,0-3.42,10.26c-.69,2.59-1.28,5.23-1.85,7.88.63-.7,3.24-3.34,3.45-3.5,2.79-2.24,9.48-4.92,12.83-2.72a4.74,4.74,0,0,1,.85,7c-1.79,2.19-5.21,2.81-7.88,2.71-3-.11-8.81-3-9.3-3.26-.26,1.21-.52,2.41-.77,3.63-.82,3.95-1.62,7.92-2.53,11.81-.31,1.35-.67,2.66-1,4,1-1,2.8-2.86,3-3,2.79-2.23,9.49-4.92,12.83-2.72a4.75,4.75,0,0,1,.85,7c-1.79,2.18-5.21,2.8-7.87,2.71s-7.62-2.43-9-3.11c-.6,2.19-1.25,4.35-2,6.45-.34.9-.62,1.84-1,2.68-.19.45-.37.9-.56,1.34l.77-.07s.05,1.25-.07,3.28c2.94-2.09,7.18-3.89,9.94-2.63a4.74,4.74,0,0,1,1.9,6.79,5.69,5.69,0,0,1-.62.84,18.42,18.42,0,0,1-3.79,8.47c-.15.17-2.15,2-3.19,2.93,1-.54,2-1.08,3-1.67,1.5-.83,3.06-1.76,4.58-2.65l2.33-1.48c.8-.49,1.5-1.06,2.27-1.58,1.11-.8,2.21-1.69,3.32-2.56-.94-1.48-3.62-5.86-4-8.41s-.18-6.11,1.79-8.14a4.74,4.74,0,0,1,7.05.05c2.57,3.07.67,10-1.24,13-.06.1-.53.7-1.09,1.4,1.05-.89,2.1-1.77,3.14-2.71,2.94-2.65,5.85-5.45,8.77-8.24l1.84-1.73c-.79-1.24-3.74-6-4.14-8.63s-.18-6.11,1.79-8.14a4.73,4.73,0,0,1,7,0c2.57,3.07.67,10-1.23,13.05-.07.11-.63.82-1.27,1.61,1.62-1.49,3.24-3,4.9-4.36a82.72,82.72,0,0,1,8.95-6.7c-.28-.44-3.85-5.9-4.3-8.88-.4-2.63-.18-6.11,1.79-8.13a4.74,4.74,0,0,1,7.05.05c2.57,3.07.67,10-1.24,13.05-.13.21-2.18,2.77-2.94,3.66l.1-.07a61.57,61.57,0,0,1,9.83-4.89,83,83,0,0,1,9.31-3.09c2.93-.81,5.66-1.38,8.07-1.86,1.31-.25,2.52-.46,3.64-.64l-.06-.05c-.06,0,4-2.69,4.29-2.83,3.2-1.59,10.32-2.78,13.11.09a4.73,4.73,0,0,1-.66,7c-2.21,1.76-5.69,1.63-8.27,1s-7.12-4.16-8.22-5c-1.16.21-2.41.45-3.77.74-2.41.54-5.11,1.16-8,2-.77.23-1.59.51-2.39.77,1.44-.16,3.42-.34,3.61-.34,3.57.07,10.44,2.29,11.6,6.12a4.74,4.74,0,0,1-3.82,5.92c-2.78.54-5.8-1.18-7.79-3s-4.48-7.14-5-8.3c-1.77.6-3.57,1.26-5.4,2a61.52,61.52,0,0,0-9.6,5c-.17.11-.34.25-.51.37.7-.2,4.6-1,4.88-1,3.56-.33,10.63,1.12,12.2,4.8a4.75,4.75,0,0,1-3.15,6.31c-2.69.84-5.89-.54-8.06-2.09-2.5-1.79-5.87-7.67-6-7.89a82.93,82.93,0,0,0-8.51,6.67c-2,1.77-3.95,3.65-5.89,5.55.91-.24,4.54-1,4.81-1,3.56-.33,10.62,1.12,12.2,4.8a4.73,4.73,0,0,1-3.15,6.3c-2.7.85-5.89-.53-8.06-2.08-2.44-1.74-5.69-7.37-6-7.85l-2.65,2.6c-2.86,2.85-5.72,5.71-8.62,8.46-1,.95-2,1.85-3.06,2.75,1.38-.31,3.91-.83,4.13-.85,3.56-.33,10.62,1.12,12.19,4.8a4.73,4.73,0,0,1-3.14,6.31c-2.7.84-5.89-.54-8.06-2.09s-5-6.23-5.8-7.56c-1.71,1.5-3.45,2.94-5.23,4.28-.78.57-1.53,1.19-2.31,1.69l-2.3,1.53c-1.6,1-3.09,1.92-4.61,2.81-.76.45-1.49.86-2.24,1.29,1.35-.52,3.51-1.32,3.71-1.38,3.47-.86,10.67-.49,12.78,2.91a4.73,4.73,0,0,1-2.15,6.7c-2.54,1.24-5.91.37-8.29-.83-2.62-1.33-6.57-6.22-7.05-6.82-1.83,1-3.63,2.05-5.33,2.95-4.53,2.43-8.49,4.36-11.56,5.8-10,8.63-24,9.58-24,9.58s-.74-16.82,9.16-27.88A34.54,34.54,0,0,1,140.56,347.65Zm17.81,16.4c-.31-.69-2.7-6-2.87-9-.56-.11-1.11-.22-1.65-.35a39,39,0,0,1-6.2,14.81c1.82-.86,3.78-1.82,5.86-2.88C155.07,365.8,156.7,365,158.37,364.05Z" style="fill:#fff"></path><path d="M67,344.44s16.82.51,27.12,11.21,10.17,27.53,10.17,27.53S87.45,382.66,77.16,372,67,344.44,67,344.44Z" style="fill:#fff"></path></g><polygon points="110.93 355.27 94.4 340.42 95.11 339.63 110.94 353.86 111.02 334.39 110.93 334.44 96.96 314.01 97.83 313.41 111.03 332.7 111.23 285.85 112.29 285.86 112.15 317.66 122.67 308.55 123.36 309.35 112.14 319.06 112.05 341.8 127.99 327.69 128.69 328.49 112.04 343.22 111.95 363.92 123.94 354.52 124.59 355.35 111.95 365.27 111.89 378.6 110.83 378.6 110.93 355.27 110.93 355.27" style="fill:#fff"></polygon><polygon points="126.15 361.01 127.2 360.89 128.54 372.65 135.63 364.72 135.62 364.72 137.42 350.48 138.47 350.62 136.86 363.35 154.49 343.64 155.28 344.34 143.32 357.72 150.89 357.81 150.88 358.87 142.38 358.77 133.99 368.15 145.84 368.16 145.84 369.22 133.04 369.21 125.41 377.74 133.77 378.24 133.71 379.3 124.51 378.74 119.43 384.42 118.64 383.71 127.59 373.71 126.15 361.01" style="fill:#fff"></polygon><polygon points="86.22 365.2 72.16 362.35 72.37 361.31 84.95 363.86 66.61 344.8 67.37 344.07 79.81 357 80.47 349.45 81.53 349.54 80.79 358.01 89.52 367.08 90.42 355.27 91.47 355.35 90.5 368.1 98.44 376.35 99.56 368.05 100.61 368.2 99.38 377.32 104.66 382.81 103.9 383.55 94.59 373.88 81.81 374.37 81.77 373.31 93.6 372.86 86.22 365.19 86.22 365.2" style="fill:#fff"></polygon></g><g id="Characters"><path d="M226,407.19c0,6.56-24.46,11.87-54.63,11.87s-54.64-5.31-54.64-11.87,24.46-11.86,54.64-11.86S226,400.64,226,407.19Z" style="fill:#92E3A9"></path><path d="M226,407.19c0,6.56-24.46,11.87-54.63,11.87s-54.64-5.31-54.64-11.87,24.46-11.86,54.64-11.86S226,400.64,226,407.19Z" style="fill:#fff;opacity:0.5"></path><path d="M410,407.85c0,6.19-24.46,11.21-54.64,11.21s-54.63-5-54.63-11.21,24.46-11.21,54.63-11.21S410,401.66,410,407.85Z" style="fill:#92E3A9"></path><path d="M410,407.85c0,6.19-24.46,11.21-54.64,11.21s-54.63-5-54.63-11.21,24.46-11.21,54.63-11.21S410,401.66,410,407.85Z" style="fill:#fff;opacity:0.5"></path><path d="M174,388.92s-.87,2.95,2.26,6.25,7.82,5.74,6.95,7.3-6.08,0-9.56-1.56-5-4.87-7.47-6.43-1.21-1.91-.17-4.69a25.37,25.37,0,0,1,1.91-4.17Z" style="fill:#fff;stroke:#263238;stroke-linecap:round;stroke-linejoin:round"></path><path d="M166,389.79c.13-.36.25-.62.37-.93,1.74,1.82,4.84,4.92,4.84,4.92a9.16,9.16,0,0,1,1.39-2.43,1.64,1.64,0,0,1,1.32-.81,7.93,7.93,0,0,0,2.33,4.63c3.13,3.3,7.82,5.74,6.95,7.3s-6.08,0-9.56-1.56-5-4.87-7.47-6.43S165,392.57,166,389.79Z" style="fill:#92E3A9;stroke:#263238;stroke-linecap:round;stroke-linejoin:round"></path><path d="M161.69,397.6a36.43,36.43,0,0,0,4.51,6.95C169,407.86,174,410.29,174,412s-4.86,2.78-9.9.86-8.34-4.86-8.86-8.16a50.17,50.17,0,0,1-.52-6.78S160.64,398.3,161.69,397.6Z" style="fill:#fff;stroke:#263238;stroke-linecap:round;stroke-linejoin:round"></path><path d="M193,263.82s5.56,32.49,8,49.17,2.09,17,.7,22.24-27.11,53-27.63,53.69-5-.18-5.56-1.74l-.52-1.56s11.29-41.18,14.59-48.48,3.31-9.55.18-17.89S174,296,174,296s-3,30.4-7.82,53.16-3.3,47.61-4.51,48.47-6.09,1.57-6.78-.34-9.56-33.19-6.95-53.86,5.39-27.11,2.61-39.62-6.09-30.23-5.39-40S185.66,252.88,193,263.82Z" style="fill:#263238;stroke:#263238;stroke-linecap:round;stroke-linejoin:round"></path><path d="M155.26,404.73c-.17-1.08-.28-2.16-.36-3.15,1.58,1.12,3.66,2.45,3.66,2.45a8.71,8.71,0,0,1,2.08-3.47,2.49,2.49,0,0,1,2.47-.37,35.25,35.25,0,0,0,3.09,4.36C169,407.86,174,410.29,174,412s-4.86,2.78-9.9.86S155.78,408,155.26,404.73Z" style="fill:#92E3A9;stroke:#263238;stroke-linecap:round;stroke-linejoin:round"></path><path d="M252.74,218.16H242.4c-1,0-9.05,4.14-9.05,4.14l-17.83,5.43,2.07,7.24,17.06-8.54,5.94-.51a7.83,7.83,0,0,0,4.92-2.33s5.94-1.55,7.23-2.58S252.74,218.16,252.74,218.16Z" style="fill:#fff;stroke:#263238;stroke-linecap:round;stroke-linejoin:round"></path><path d="M381,139.63s-3.07-9.93-16.32-11.82-26,2.84-30.27,13.24,5.4,15.71,2.56,23.75-19.16.94-28.14,12.06-7.81,19.86-2.61,27.67,11.83,9,5.44,16.32-13.24,11.35-10.17,23.41,16.09,22.23,43,22.7,30.27-23.17,28.38-42.33,4.25-23.41,14-33.34S395.65,156.19,381,139.63Z" style="fill:#263238;stroke:#263238;stroke-linecap:round;stroke-linejoin:round"></path><path d="M317.53,257.65c2.39,2,5.26,2.67,7.66,1.55" style="fill:none;stroke:#fff;stroke-linecap:round;stroke-linejoin:round"></path><path d="M315.76,188a11.88,11.88,0,0,0-4.38,7.48c-1.92,11.89,10.74,16.88,13,23.78s-9.59,12.66-11.51,23.79a16.22,16.22,0,0,0,2.33,12" style="fill:none;stroke:#fff;stroke-linecap:round;stroke-linejoin:round"></path><path d="M344,157.93s-1.15,14.19-7.67,19.95c-3.15,2.78-8.63,4.21-13.67,6.3" style="fill:none;stroke:#fff;stroke-linecap:round;stroke-linejoin:round"></path><path d="M362.94,154.94a30,30,0,0,0,9.43,13.73c11.51,9.21,17.26,10.74,17.26,10.74" style="fill:none;stroke:#fff;stroke-linecap:round;stroke-linejoin:round"></path><path d="M360.86,144.12a29.51,29.51,0,0,0,.4,4.16" style="fill:none;stroke:#fff;stroke-linecap:round;stroke-linejoin:round"></path><path d="M376.59,138a32.19,32.19,0,0,0-18,3.07c-9.59,4.6-16.49,11.51-21.1,8.44" style="fill:none;stroke:#fff;stroke-linecap:round;stroke-linejoin:round"></path><path d="M384.71,172a28.66,28.66,0,0,0,3.77,2.77" style="fill:none;stroke:#fff;stroke-linecap:round;stroke-linejoin:round"></path><path d="M373.52,139.13s-2.24,17.88,8.31,30" style="fill:none;stroke:#fff;stroke-linecap:round;stroke-linejoin:round"></path><path d="M337.46,141.44s1.92,3.06,12.28-3.07,18.41-3.46,22.63-1.92" style="fill:none;stroke:#fff;stroke-linecap:round;stroke-linejoin:round"></path><path d="M356.71,311.42s-.95,19.87-.95,29.33-1.66,43.51-.47,54.86,8,16.8,10.17,16.32,1.18-8-1.42-14.19-2.6-18.21-1.66-21,9.46-19.63,9.46-29.09-1.65-16.32-.47-24.13,1.89-11.11,1.89-11.11Z" style="fill:#fff;stroke:#263238;stroke-miterlimit:10"></path><path d="M365.46,411.93c1.88-.42,1.35-6.4-.6-12-.55,3.13-1.46,4.64-4.5,3.63a8.32,8.32,0,0,1-4.52-4.58C357.86,408,363.55,412.36,365.46,411.93Z" style="fill:#92E3A9;stroke:#263238;stroke-linecap:round;stroke-linejoin:round"></path><path d="M352.72,311.42s.94,19.87.94,29.33,1.66,43.51.48,54.86-8,16.8-10.17,16.32-1.18-8,1.42-14.19,2.6-18.21,1.65-21-9.46-19.63-9.46-29.09,1.66-16.32.48-24.13-1.9-11.11-1.9-11.11Z" style="fill:#fff;stroke:#263238;stroke-miterlimit:10"></path><path d="M346.48,404.52c-3-.33-1.09-6.78-1.09-6.78-2.6,6.15-3.55,13.72-1.42,14.19s8.11-4.28,9.86-14.17C351.91,400.46,348.52,404.75,346.48,404.52Z" style="fill:#92E3A9;stroke:#263238;stroke-linecap:round;stroke-linejoin:round"></path><path d="M350.9,176.39l-22.7,8.51,10.64,47.53s-7.8,10.17-11.11,20.82-1.9,28.61.94,39.73,7.24,23.17,7.24,23.17h38.68s9.89-33.58,8-53.68a81,81,0,0,0-10.88-33.82l9.7-44.7-22-8.27Z" style="fill:#92E3A9;stroke:#263238;stroke-linecap:round;stroke-linejoin:round"></path><path d="M347.8,274.16s7.36,18.12,6.8,32.84" style="fill:none;stroke:#263238;stroke-linecap:round;stroke-linejoin:round"></path><path d="M363.66,277.56a56.76,56.76,0,0,1-6.8,12.45" style="fill:none;stroke:#263238;stroke-linecap:round;stroke-linejoin:round"></path><path d="M349.25,172.63a91.48,91.48,0,0,0,2.6,14.69c1.89,6.56,5.67,8.75,8.27.94s1.66-20.62,1.66-20.62S355.63,176.38,349.25,172.63Z" style="fill:#fff;stroke:#263238;stroke-linecap:round;stroke-linejoin:round"></path><path d="M381.41,184l19.88,41.85c1.08,2.34.61,7.64-1.37,9.29h0a5.72,5.72,0,0,1-8.72-1.68l-14.28-28.17Z" style="fill:#92E3A9;stroke:#263238;stroke-linecap:round;stroke-linejoin:round"></path><circle cx="365.45" cy="246.62" r="24.24" transform="translate(-67.35 330.64) rotate(-45)" style="fill:#263238;stroke:#263238;stroke-linecap:round;stroke-linejoin:round"></circle><polygon points="380.94 243.08 368.99 243.08 368.99 231.13 361.9 231.13 361.9 243.08 349.96 243.08 349.96 250.17 361.9 250.17 361.9 262.12 368.99 262.12 368.99 250.17 380.94 250.17 380.94 243.08" style="fill:#92E3A9"></polygon><path d="M393.47,224.63l-21.28,31.45,4,4.26s25.77-24.59,26.72-27.91-1.89-7.09-3.55-9.69" style="fill:#92E3A9;stroke:#263238;stroke-linecap:round;stroke-linejoin:round"></path><path d="M372.19,256.08s-6.15,2.37-6.86,2.84a54,54,0,0,0-4,5s-1.19,2.84,0,2.84,2.13-1.9,2.84-2.37.94,1.89,0,2.84-3.55,5-1.66,5.91,3.55-1.65,4.26-1.65,4.49.47,6.62-1.9,2.84-9.22,2.84-9.22Z" style="fill:#fff;stroke:#263238;stroke-linecap:round;stroke-linejoin:round"></path><path d="M328.2,184.9,318,225.37c-.53,2.12-2.57,6.95-.78,8.21l1.19,1.19c2.67,1.88,7.85,1.43,9.28-1.49l7.16-18.58Z" style="fill:#92E3A9;stroke:#263238;stroke-linecap:round;stroke-linejoin:round"></path><path d="M323.23,223.92l-29.09-4-.23,5.2s15.84,8.4,21,10.77,11.05,1.19,12.7-2.59S331,221.61,331,221.61" style="fill:#92E3A9;stroke:#263238;stroke-linecap:round;stroke-linejoin:round"></path><path d="M290.28,221.85a11.55,11.55,0,0,0-3-.66l-1.86-4.84s-4.88-1.06-7.74-.56.67,4.72,1.35,5.73c.25.38,1.63.74,3.24,1l-.89,3s2.87,1.68,4.89,1.68,7.67-2.14,7.67-2.14A8.56,8.56,0,0,0,290.28,221.85Z" style="fill:#fff;stroke:#263238;stroke-linecap:round;stroke-linejoin:round"></path><circle cx="261.01" cy="227.1" r="24.24" style="fill:#263238;stroke:#263238;stroke-linecap:round;stroke-linejoin:round"></circle><polygon points="276.5 223.56 264.56 223.56 264.56 211.61 257.46 211.61 257.46 223.56 245.52 223.56 245.52 230.65 257.46 230.65 257.46 242.59 264.56 242.59 264.56 230.65 276.5 230.65 276.5 223.56" style="fill:#92E3A9"></polygon><path d="M294.14,219.9s-7.33-3.55-8.75-3.55-4.73,5.92-5.91,6.63-3.31,1.89-1.18,2.36a7.73,7.73,0,0,0,5.2-1.18,18.32,18.32,0,0,0,1.89-1.66s1.66.95,3.31,1.66a21.78,21.78,0,0,0,5.21.94Z" style="fill:#fff;stroke:#263238;stroke-linecap:round;stroke-linejoin:round"></path><path d="M148.19,138.58s-4.5-4.5-17-4.5-20.5,15.5-20.5,26.5,6.5,26.5,9,37,.5,19-9,20-14.34,9.8-4.84,20.3,34.84,3.7,42.84-10.8,11-23.5,7.5-49S148.19,138.58,148.19,138.58Z" style="fill:#263238;stroke:#263238;stroke-linecap:round;stroke-linejoin:round"></path><path d="M140.62,142.25s-15-.48-20.28,15.94,5.31,27.53,7.24,45.88-2.41,27.53-14,26.57S107.78,220,112.13,220s4.34,4.35,4.34,4.35" style="fill:none;stroke:#fff;stroke-linecap:round;stroke-linejoin:round"></path><path d="M139.17,149c-5.31,8.16-9.13,18.23-5,27.67,3.45,7.94,10,13.58,7.44,23" style="fill:none;stroke:#fff;stroke-linecap:round;stroke-linejoin:round"></path><path d="M174.49,142.24s6,3.82,4.7,8.23-6.61,6-7.35,4.41-4-9.55-2.79-11.91S174.49,142.24,174.49,142.24Z" style="fill:#263238;stroke:#263238;stroke-linecap:round;stroke-linejoin:round"></path><path d="M162.73,178c.15.44,0,1.32,3,7.12,1.94,3.82,11,8.5,11,8.5s-12.93,2.17-16.31,2.9-17.19-4.9-17.19-4.9,7.5-2.74,7.5-12S152,168.7,152,168.7a7.61,7.61,0,0,1,6.91,3.53A66.31,66.31,0,0,1,162.73,178Z" style="fill:#fff;stroke:#263238;stroke-linecap:round;stroke-linejoin:round"></path><path d="M178.69,186.58s6.5,2,9,6,10.5,38,10.5,38,1,0,6.5-1.5,3.05-.64,3.05-.64l3.5,1,6.28-2.53,2.91,8.31-5.19,2.22s-2.5,5.5-5.5,7a40.54,40.54,0,0,1-14.55,3.64c-6.5.5-11.5-3.5-11.5-8.5s-5.5-44-5.5-44" style="fill:#92E3A9;stroke:#263238;stroke-linecap:round;stroke-linejoin:round"></path><path d="M169.16,276.85c-11.37,1.36-18.82.79-23.38-.07a74.16,74.16,0,0,1-.6-13c.69-9.73,40.48-10.94,47.78,0,0,0,.4,2.38,1,6.11C193.09,270.83,188.3,274.57,169.16,276.85Z" style="fill:#fff;stroke:#263238;stroke-linecap:round;stroke-linejoin:round"></path><path d="M191.16,248.69c-.8-19.79,3.32-27.88-12.47-62.11-6.19-1.57-8.05-.54-10-3.3a21,21,0,0,1-10.73,5.44c-6.91,1.32-10.73-2.06-10.73-2.06s-19.7,2.06-17.64,12.05,12.93,38.07,13.37,48.07-3.38,20.58,0,22.78,20,4.12,32.64,1.92S197,266,196.3,262.8,191.43,255.31,191.16,248.69Z" style="fill:#92E3A9;stroke:#263238;stroke-linecap:round;stroke-linejoin:round"></path><path d="M189.3,226.73s-10.47,18-18.6,25.57" style="fill:none;stroke:#263238;stroke-linecap:round;stroke-linejoin:round"></path><path d="M173.6,243a52.93,52.93,0,0,1-14.53,10.46" style="fill:none;stroke:#263238;stroke-linecap:round;stroke-linejoin:round"></path><path d="M148.69,183.08s2.34,7,9.25,5.64a21,21,0,0,0,10.73-5.44c.81,1.13,2.74,2,5.13,2.76-1.61,10-14,13.14-21.61,11-4.65-1.27-7-6.92-8.87-9.77C145.57,186.84,148.69,183.08,148.69,183.08Z" style="fill:#fff;stroke:#263238;stroke-linecap:round;stroke-linejoin:round"></path><path d="M139.78,260s6,16.65,8.16,25.87.48,12.6.63,17.64,0,10.84-.92,10.57-1.36-2.18-1.35-4.15-.11-7.37-.11-7.37-2.45,7.55-2.74,8.2-1.62.92-1.25-1.21,1.79-8.95,1.79-8.95-3.85,6.85-4.17,7.26-1.92.46-1.47-.94,3.74-8.93,3.74-8.93-4.67,5.34-5.19,5.16-.49-1.05,0-2,3.41-4.58,3.84-5.12.32-.41.82-2.44,2-3.92,2.3-4.57-14.12-29.49-14.12-29.49Z" style="fill:#fff;stroke:#263238;stroke-linecap:round;stroke-linejoin:round"></path><path d="M137.15,189.7s-10.67,1.94-13.1,7.28,1,15.52,1,21.83-3.39,23.77-1.94,28.14,2.43,10.19,2.91,12.13,4.85,3.39,4.85,3.39l1.35,5.88,11-2.07L142,261s2.43.48,1.46-5.34-2.91-9.22-2.91-14.07-.49-21.34,1.94-31.53" style="fill:#92E3A9;stroke:#263238;stroke-linecap:round;stroke-linejoin:round"></path><path d="M233.27,222.59l4.19-5.84,6.59-1.43s2.72-.81,2.35.65-.87,1.61-2.6,2.13l-3,.88a7.33,7.33,0,0,1-2.9,3.84,3.76,3.76,0,0,1-1.42.43" style="fill:#fff;stroke:#263238;stroke-linecap:round;stroke-linejoin:round"></path><path d="M173.31,144.15s2.65,17.2,1.18,23.52S168,180,162.73,179.28s-9.26-7.94-9.26-7.94-1.62,1-2.35-.14-.88-4.12,0-7.21S165.82,140.62,173.31,144.15Z" style="fill:#fff;stroke:#263238;stroke-linecap:round;stroke-linejoin:round"></path><path d="M162.88,156.19a3.49,3.49,0,0,1,3.18-2.23" style="fill:none;stroke:#263238;stroke-linecap:round;stroke-linejoin:round"></path><path d="M170.65,153.37a2.31,2.31,0,0,1,2.71.71" style="fill:none;stroke:#263238;stroke-linecap:round;stroke-linejoin:round"></path><path d="M170.38,158.41s-.84,2.8.84,3.65,0,2.24-.56,3.08" style="fill:none;stroke:#263238;stroke-linecap:round;stroke-linejoin:round"></path><path d="M169,169.63a5.16,5.16,0,0,1-4.49-1.41" style="fill:none;stroke:#263238;stroke-linecap:round;stroke-linejoin:round"></path><path d="M166.53,159.37c0,.85-.32,1.53-.71,1.53s-.7-.68-.7-1.53.31-1.53.7-1.53S166.53,158.53,166.53,159.37Z" style="fill:#263238"></path><path d="M172.89,159c0,.84-.32,1.53-.71,1.53s-.71-.69-.71-1.53.32-1.53.71-1.53S172.89,158.17,172.89,159Z" style="fill:#263238"></path><path d="M154.19,136.08s21.33-1.78,22.21,2.63S160.08,158,154.94,164.58s-7.06,8.23-9.7,7.2-10.49-15.14-7.55-24.7S154.19,136.08,154.19,136.08Z" style="fill:#263238;stroke:#263238;stroke-linecap:round;stroke-linejoin:round"></path><path d="M168.15,136.94s-3.86,15.94-13.52,23.18S141.11,164,141.11,164" style="fill:none;stroke:#fff;stroke-linecap:round;stroke-linejoin:round"></path><path d="M154.19,136.08s2.85,12.45-2,18.25-13.52,5.31-13.52,5.31" style="fill:none;stroke:#fff;stroke-linecap:round;stroke-linejoin:round"></path><path d="M358.56,146.93c-.29-.13-.32-.33-.15-.59-.1-.46-.17-.78-.21-.94a41.23,41.23,0,0,1-5.64,3.08,36.37,36.37,0,0,1-11.35,3.07s1.89,13,5.67,19.63c2.75,4.81,5.44,7.33,12.54,2.84a14.82,14.82,0,0,0,6.42-9.45C361.83,159.09,359.43,150.5,358.56,146.93Z" style="fill:#fff;stroke:#263238;stroke-linecap:round;stroke-linejoin:round"></path><path d="M355.3,154.75a3.46,3.46,0,0,0-3.17-2.23" style="fill:none;stroke:#263238;stroke-linecap:round;stroke-linejoin:round"></path><path d="M347.54,151.93a2.32,2.32,0,0,0-2.71.7" style="fill:none;stroke:#263238;stroke-linecap:round;stroke-linejoin:round"></path><path d="M347.8,157s.84,2.8-.84,3.64,0,2.25.56,3.09" style="fill:none;stroke:#263238;stroke-linecap:round;stroke-linejoin:round"></path><path d="M349.2,168.18a5.17,5.17,0,0,0,4.49-1.4" style="fill:none;stroke:#263238;stroke-linecap:round;stroke-linejoin:round"></path><path d="M351.65,157.93c0,.84.32,1.53.71,1.53s.71-.69.71-1.53-.32-1.53-.71-1.53S351.65,157.08,351.65,157.93Z" style="fill:#263238"></path><path d="M345.3,157.58c0,.84.31,1.53.7,1.53s.71-.69.71-1.53-.31-1.53-.71-1.53S345.3,156.73,345.3,157.58Z" style="fill:#263238"></path></g></svg>