<svg xmlns="http://www.w3.org/2000/svg" viewBox="0 0 500 500"><g id="background-simple"><path d="M97.07,341.43S140.16,396,213.79,398.22s139.48-43.68,193.8-79.46,72.15-95.62,45-145-76.35-32.47-135.47-67.18S247.56,53.68,179,56.8,53.75,133.13,56.25,215.17,97.07,341.43,97.07,341.43Z" style="fill:#92E3A9"></path><path d="M97.07,341.43S140.16,396,213.79,398.22s139.48-43.68,193.8-79.46,72.15-95.62,45-145-76.35-32.47-135.47-67.18S247.56,53.68,179,56.8,53.75,133.13,56.25,215.17,97.07,341.43,97.07,341.43Z" style="fill:#fff;opacity:0.7000000000000001"></path></g><g id="Kitchen"><rect x="288.65" y="65.7" width="150.34" height="73.64" style="fill:none;stroke:#263238;stroke-linecap:round;stroke-linejoin:round"></rect><line x1="363.06" y1="139.34" x2="363.06" y2="65.87" style="fill:none;stroke:#263238;stroke-linecap:round;stroke-linejoin:round"></line><rect x="353.67" y="94.67" width="5" height="19.33" style="fill:none;stroke:#263238;stroke-linecap:round;stroke-linejoin:round"></rect><rect x="369" y="94.67" width="5" height="19.33" style="fill:none;stroke:#263238;stroke-linecap:round;stroke-linejoin:round"></rect><rect x="248.51" y="253.41" width="208" height="157.28" style="fill:none;stroke:#263238;stroke-linecap:round;stroke-linejoin:round"></rect><rect x="370.34" y="264.12" width="79.1" height="33.31" style="fill:none;stroke:#263238;stroke-linecap:round;stroke-linejoin:round"></rect><rect x="398.79" y="276.61" width="22.2" height="6.24" style="fill:none;stroke:#263238;stroke-linecap:round;stroke-linejoin:round"></rect><rect x="370.34" y="305.75" width="79.1" height="33.31" style="fill:none;stroke:#263238;stroke-linecap:round;stroke-linejoin:round"></rect><rect x="398.79" y="318.24" width="22.2" height="6.24" style="fill:none;stroke:#263238;stroke-linecap:round;stroke-linejoin:round"></rect><rect x="370.34" y="347.38" width="79.1" height="33.31" style="fill:none;stroke:#263238;stroke-linecap:round;stroke-linejoin:round"></rect><rect x="398.79" y="359.87" width="22.2" height="6.24" style="fill:none;stroke:#263238;stroke-linecap:round;stroke-linejoin:round"></rect><rect x="283.61" y="264.12" width="79.1" height="33.31" style="fill:none;stroke:#263238;stroke-linecap:round;stroke-linejoin:round"></rect><rect x="312.06" y="276.61" width="22.2" height="6.24" style="fill:none;stroke:#263238;stroke-linecap:round;stroke-linejoin:round"></rect><rect x="283.61" y="305.75" width="79.1" height="33.31" style="fill:none;stroke:#263238;stroke-linecap:round;stroke-linejoin:round"></rect><rect x="312.06" y="318.24" width="22.2" height="6.24" style="fill:none;stroke:#263238;stroke-linecap:round;stroke-linejoin:round"></rect><rect x="283.61" y="347.38" width="79.1" height="33.31" style="fill:none;stroke:#263238;stroke-linecap:round;stroke-linejoin:round"></rect><rect x="312.06" y="359.87" width="22.2" height="6.24" style="fill:none;stroke:#263238;stroke-linecap:round;stroke-linejoin:round"></rect><rect x="241.85" y="245.36" width="221.4" height="8" style="fill:none;stroke:#263238;stroke-linecap:round;stroke-linejoin:round"></rect><rect x="136.24" y="110.42" width="143.08" height="287.67" style="fill:none;stroke:#263238;stroke-linecap:round;stroke-linejoin:round"></rect><rect x="144.25" y="181.09" width="9.99" height="59.25" style="fill:none;stroke:#263238;stroke-linecap:round;stroke-linejoin:round"></rect><rect x="132.11" y="66.88" width="151.33" height="340.5" style="fill:none;stroke:#263238;stroke-linecap:round;stroke-linejoin:round"></rect></g><g id="Plants"><path d="M66.87,211.45s-1.56-5.09-6.13-6.92c-3.17-1.27-6.83-.93-10.12-.36-6.12,1.06-11.47,3.5-17.28,5.58,0,0,2.48-.91,12.66,4.05a27.4,27.4,0,0,0,12.32,3.14C61.76,216.87,67,215.89,66.87,211.45Z" style="fill:#92E3A9"></path><path d="M67.42,196.5s0-5.32-3.87-8.39c-2.67-2.14-6.26-2.87-9.58-3.28-6.17-.74-12,0-18.16.36,0,0,2.64-.16,10.95,7.53a27.45,27.45,0,0,0,10.89,6.57C61,200.21,66.3,200.8,67.42,196.5Z" style="fill:#92E3A9"></path><path d="M78,216.27s-4.16-3.33-4.17-8.25c0-3.42,1.64-6.69,3.39-9.54,3.25-5.3,7.49-9.38,11.56-14,0,0-1.76,2-.9,13.26a27.44,27.44,0,0,1-1.62,12.61C84.87,213.51,82,218.06,78,216.27Z" style="fill:#92E3A9"></path><path d="M92.65,224.44s-.58-5.29,2.88-8.78c2.41-2.43,5.89-3.57,9.14-4.36,6-1.46,11.92-1.35,18.07-1.75,0,0-2.63.15-10,8.75a27.34,27.34,0,0,1-10,7.78C99.5,227.38,94.27,228.58,92.65,224.44Z" style="fill:#92E3A9"></path><path d="M91.69,205.58s-5.28-.72-7.81-4.94c-1.77-2.92-2-6.58-2-9.92.07-6.22,1.61-11.89,2.73-18,0,0-.5,2.6,6,11.84a27.31,27.31,0,0,1,5.09,11.65C96.21,199.67,96.09,205,91.69,205.58Z" style="fill:#92E3A9"></path><path d="M106.87,196.11s3.79,3.74,8.68,3.18c3.39-.39,6.45-2.42,9.07-4.48,4.89-3.85,8.44-8.53,12.57-13.12,0,0-1.75,2-13.06,2.44a27.48,27.48,0,0,0-12.34,3.08C108.79,188.91,104.62,192.28,106.87,196.11Z" style="fill:#92E3A9"></path><path d="M102.47,192.42s5.3.53,8.76-3c2.4-2.43,3.51-5.93,4.26-9.18,1.4-6.06,1.23-11.93,1.56-18.1,0,0-.12,2.64-8.64,10.1a27.44,27.44,0,0,0-7.68,10.13C99.47,185.6,98.32,190.85,102.47,192.42Z" style="fill:#92E3A9"></path><polyline points="83.56 243.97 74.42 221.47 63.87 195.45" style="fill:none;stroke:#263238;stroke-linecap:round;stroke-linejoin:round"></polyline><polyline points="85.67 240.1 94.81 208.81 104.66 189.47" style="fill:none;stroke:#263238;stroke-linecap:round;stroke-linejoin:round"></polyline><line x1="89.19" y1="227.8" x2="98.33" y2="222.52" style="fill:none;stroke:#263238;stroke-linecap:round;stroke-linejoin:round"></line><line x1="94.82" y1="208.81" x2="90.24" y2="198.61" style="fill:none;stroke:#263238;stroke-linecap:round;stroke-linejoin:round"></line><line x1="100.54" y1="198.66" x2="111.69" y2="193.69" style="fill:none;stroke:#263238;stroke-linecap:round;stroke-linejoin:round"></line><line x1="76.18" y1="225.69" x2="80.05" y2="210.22" style="fill:none;stroke:#263238;stroke-linecap:round;stroke-linejoin:round"></line><line x1="71.05" y1="213.93" x2="62.11" y2="209.16" style="fill:none;stroke:#263238;stroke-linecap:round;stroke-linejoin:round"></line><polygon points="92.69 255.23 76.2 255.23 72.66 236.59 96.22 236.59 92.69 255.23" style="fill:#263238;stroke:#263238;stroke-linecap:round;stroke-linejoin:round"></polygon></g><g id="Table"><rect x="75" y="258.33" width="208" height="162" style="fill:#fff;stroke:#263238;stroke-linecap:round;stroke-linejoin:round"></rect><rect x="75" y="258.33" width="208" height="10.84" style="fill:#263238;stroke:#263238;stroke-linecap:round;stroke-linejoin:round"></rect><rect x="68.33" y="255" width="221.4" height="8" style="fill:#fff;stroke:#263238;stroke-linecap:round;stroke-linejoin:round"></rect><rect x="164.91" y="397.81" width="47.58" height="3.69" style="fill:#fff;stroke:#263238;stroke-linecap:round;stroke-linejoin:round"></rect><rect x="170.44" y="298.22" width="34.67" height="13.65" style="fill:#fff;stroke:#263238;stroke-linecap:round;stroke-linejoin:round"></rect><polygon points="167.12 298.67 157.12 432.01 163.79 432.01 175.24 298.22 167.12 298.67" style="fill:#fff;stroke:#263238;stroke-linecap:round;stroke-linejoin:round"></polygon><polygon points="209.13 298.67 219.13 432.01 212.46 432.01 201.01 298.22 209.13 298.67" style="fill:#fff;stroke:#263238;stroke-linecap:round;stroke-linejoin:round"></polygon><rect x="160.46" y="290.33" width="54.17" height="10.83" rx="4.98" style="fill:#92E3A9;stroke:#263238;stroke-linecap:round;stroke-linejoin:round"></rect><rect x="86.24" y="397.81" width="47.58" height="3.69" style="fill:#fff;stroke:#263238;stroke-linecap:round;stroke-linejoin:round"></rect><rect x="91.77" y="298.22" width="34.67" height="13.65" style="fill:#fff;stroke:#263238;stroke-linecap:round;stroke-linejoin:round"></rect><polygon points="88.46 298.67 78.45 432.01 85.12 432.01 96.57 298.22 88.46 298.67" style="fill:#fff;stroke:#263238;stroke-linecap:round;stroke-linejoin:round"></polygon><polygon points="130.46 298.67 140.46 432.01 133.79 432.01 122.35 298.22 130.46 298.67" style="fill:#fff;stroke:#263238;stroke-linecap:round;stroke-linejoin:round"></polygon><rect x="81.79" y="290.33" width="54.17" height="10.83" rx="4.98" style="fill:#92E3A9;stroke:#263238;stroke-linecap:round;stroke-linejoin:round"></rect></g><g id="Shadow"><ellipse cx="297.67" cy="437.33" rx="108.67" ry="7.33" style="fill:#92E3A9"></ellipse><ellipse cx="297.67" cy="437.33" rx="108.67" ry="7.33" style="fill:#fff;opacity:0.5"></ellipse></g><g id="Characters"><path d="M299.86,192.2s-5-6.33-1-15.33,17-3.67,14.33-16.33-7-22-14.67-26-25.66-1.67-33.66,3-10,17-8.34,22.33,4.67,7.33-.33,10-28,6.33-34.67,22,9.67,21.67,4.34,29-10.34,12,3.66,25.33,40,9.34,48.67-2.66S303.19,211.54,299.86,192.2Z" style="fill:#263238;stroke:#263238;stroke-linecap:round;stroke-linejoin:round"></path><path d="M228.82,232.47c-.16,1.51.42,2.94,2.35,4.87" style="fill:none;stroke:#fff;stroke-linecap:round;stroke-linejoin:round"></path><path d="M246.63,177c-10.17,5.44-19.06,11.34-20.93,16.64-3.86,10.94,9.33,19,7.08,28a34.58,34.58,0,0,1-2.15,6" style="fill:none;stroke:#fff;stroke-linecap:round;stroke-linejoin:round"></path><path d="M299.37,141.48s-9.66,14.15-22.84,20.91c-5.77,3-15.49,7.2-24.91,12" style="fill:none;stroke:#fff;stroke-linecap:round;stroke-linejoin:round"></path><path d="M265.35,162.54A15.38,15.38,0,0,1,263,163" style="fill:none;stroke:#fff;stroke-linecap:round;stroke-linejoin:round"></path><path d="M288.43,135.37s-4.18,1-6.11,6.43c-1.05,3-4.1,12.87-12.39,18.57" style="fill:none;stroke:#fff;stroke-linecap:round;stroke-linejoin:round"></path><path d="M272.58,167.37s-2.06,12.5-6.06,15.5-13.33.33-13.33.33-10-2.33-15,8.67,3,51.67,3,51.67-11.33,13-16.67,28.33-3.66,72-3.66,72-6,19.33-6,29.33-1.67,47.67-1.67,47.67-19,11.67-19,14.33,16.62.38,21.33-4.33c1.34-1.33,4-14.67,4-14.67s13.67-48,14.67-58.66,1-13.34,1-13.34,18-47,19-58l11,57.67s-2.33,17.67-2,30,8,59.67,8.33,60.67,18,8.33,22,3c0,0-10.33-8.67-18.33-8.34,0,0,5.67-46.66,8-63s2.33-50.33,3-53.33,1.33-53-5.33-71l9.33-22.67s6.67-15.33,4.33-21-14.33-7.33-15.66-9.33,2.66-7.67,3.66-10.33S272.58,167.37,272.58,167.37Z" style="fill:#fff;stroke:#263238;stroke-linecap:round;stroke-linejoin:round"></path><path d="M283.16,366.24c2.35-16.33,2.38-50.33,3-53.33.43-1.92.88-23-.58-42.63-24.46,8-48.08.77-59-3.5-.73,1.65-1.41,3.34-2,5.06-5.35,15.33-3.74,72-3.74,72s-6,19.32-6,29.32c0,4.87-.41,16.29-.83,26.73,3,1.15,6.1,2.14,9.17,3,4.14-15,10.34-38.33,11-45.37,1-10.67,1-13.33,1-13.33s18-47,19.06-58l10.94,57.67s-2.35,17.67-2,30c.16,6.05,2.07,20.51,4,33.81,4.57-.16,8.25-.47,10.68-.72C279.65,392.61,281.89,375,283.16,366.24Z" style="fill:#263238;stroke:#263238;stroke-linecap:round;stroke-linejoin:round"></path><path d="M280.86,241.87l9.33-22.67s.15-.34.38-.92c-.31-6.35-.68-17.36.1-24a38.58,38.58,0,0,0-6.66-3c.24,5.31-.3,19.23-11.82,23.25-12.59,4.39-13.35-20.54-16.29-30.73-1.6-.3-2.71-.61-2.71-.61a13,13,0,0,0-4.76,0c1.86,3.78,3.65,10,2.76,19.32-1.08,11.25-8.62,14.63-13.78,15.62,1.34,13,3.78,25.38,3.78,25.38s-11.33,13-16.67,28.33c-.08.24-.17.5-.25.76,8.92,6.12,30.89,17.35,61.87,7.35C285.48,265.66,284,250.28,280.86,241.87Z" style="fill:#92E3A9;stroke:#263238;stroke-linecap:round;stroke-linejoin:round"></path><path d="M286.88,225.75a25.4,25.4,0,0,1-14.36,9.1" style="fill:none;stroke:#263238;stroke-linecap:round;stroke-linejoin:round"></path><path d="M271.12,204.74a25.15,25.15,0,0,1-1.05,15.06" style="fill:none;stroke:#263238;stroke-linecap:round;stroke-linejoin:round"></path><line x1="260.62" y1="188.28" x2="269.72" y2="194.23" style="fill:none;stroke:#263238;stroke-linecap:round;stroke-linejoin:round"></line><line x1="273.92" y1="195.28" x2="284.43" y2="194.93" style="fill:none;stroke:#263238;stroke-linecap:round;stroke-linejoin:round"></line><path d="M293.52,195.87s6.67,6.67,10.34,19.67,13,35.33,14,38,26,23,26,23l7,1s6.33,3.33,5,4-4-.67-4-.67,4.66,4.67,5.33,6.33a2.93,2.93,0,0,1-.67,3,54,54,0,0,1-9-3c-5.66-2.33-8-9-8-9s-17-7.33-24.33-14-11-14.66-13-18.66-11.33-29.34-11.33-29.34" style="fill:#fff;stroke:#263238;stroke-linecap:round;stroke-linejoin:round"></path><path d="M325,289.86s-5.27,28.59-3.41,39.56,27,11.84,36.9,10.4,10.23-3.47,12.4-11.55-3.1-40.14-5-43.89-9.62-7.51-18.3-7.51S328.71,280.91,325,289.86Z" style="fill:#92E3A9;stroke:#263238;stroke-linecap:round;stroke-linejoin:round"></path><path d="M368.83,429.33l-4-104.82h-38.9l-4.05,104.82s-12.12,6.93-11,8.66S325,435.68,327,433.08a6.14,6.14,0,0,0,1.45-4.91l15-80h3.68l15,80a6.11,6.11,0,0,0,1.44,4.91c2,2.6,15,6.64,16.17,4.91S368.83,429.33,368.83,429.33Z" style="fill:#263238;stroke:#263238;stroke-linecap:round;stroke-linejoin:round"></path><path d="M344.08,276.29l-21.66,4.62-17.9,32.63,7.22,2.89,14.72-16.17-.57,24.25s37,2.6,39.55.29.58-24.25.58-24.25l17.62,17.9,7.79-3.47s-21.08-32.33-22.23-32.91-17-4.33-17-4.33Z" style="fill:#fff;stroke:#263238;stroke-linecap:round;stroke-linejoin:round"></path><line x1="347.13" y1="288.65" x2="347.13" y2="325.2" style="fill:none;stroke:#263238;stroke-linecap:round;stroke-linejoin:round"></line><path d="M327.91,279.47s2,30.89-6.35,41.58l3.06,5.56s14-22.31,9.06-48Z" style="fill:#263238;stroke:#263238;stroke-linecap:round;stroke-linejoin:round"></path><path d="M364.11,279.47s-2,30.89,6.35,41.58L367,325.61s-13.56-21.31-8.66-47Z" style="fill:#263238;stroke:#263238;stroke-linecap:round;stroke-linejoin:round"></path><path d="M341.57,264.9s-.22,11.34.21,13.69,3.42,11.13,5.35,10.06,5.35-10.48,5.35-12.84.64-10.91.64-10.91S346.49,268.11,341.57,264.9Z" style="fill:#fff;stroke:#263238;stroke-linecap:round;stroke-linejoin:round"></path><path d="M338.6,246.81a28.56,28.56,0,0,1-2.3-8.14c-.31-3.85,5.84-6.3,5.84-6.3Z" style="fill:#263238;stroke:#263238;stroke-linecap:round;stroke-linejoin:round"></path><path d="M339.93,253.24s1.41-7.4-1.92-7.12-3.67,6-1.87,8.46,3.47,2,3.47,2" style="fill:#fff;stroke:#263238;stroke-linecap:round;stroke-linejoin:round"></path><path d="M341,235.92s-4.06,14.34-4.28,24.39,6.21,13.48,13.7,12,10.48-7.07,12-12,2.78-15,3-19.47-3.63-9.2-11.12-10.27S342.1,231.43,341,235.92Z" style="fill:#fff;stroke:#263238;stroke-linecap:round;stroke-linejoin:round"></path><path d="M341.77,259.67s2.22,3.77,8,.67" style="fill:none;stroke:#263238;stroke-linecap:round;stroke-linejoin:round"></path><path d="M345.41,251.82c-.76,1-2,2.72-1.54,4.08a2.43,2.43,0,0,0,3.94.91" style="fill:none;stroke:#263238;stroke-linecap:round;stroke-linejoin:round"></path><path d="M353.31,253.67c-.23,1-.83,1.65-1.34,1.52s-.74-1-.51-2,.84-1.64,1.35-1.52S353.54,252.7,353.31,253.67Z" style="fill:#263238"></path><path d="M343.32,251.41c-.24,1-.84,1.64-1.35,1.52s-.73-1-.5-2,.83-1.65,1.34-1.52S343.55,250.44,343.32,251.41Z" style="fill:#263238"></path><path d="M352,246s4.81-1.07,5.34,5.07" style="fill:none;stroke:#263238;stroke-linecap:round;stroke-linejoin:round"></path><path d="M345.86,245.46s-3.2-3.47-6.14,1.06" style="fill:none;stroke:#263238;stroke-linecap:round;stroke-linejoin:round"></path><path d="M360.93,244.05s-13.48.86-18.19-1.92S334,231,342.32,227.58s20-.8,26.24,5.4,3.25,12.49,1.54,15.06-6.6,13.13-6.6,13.13h-2.35s1.92-2.35-.22-5.56S360.93,244.05,360.93,244.05Z" style="fill:#263238;stroke:#263238;stroke-linecap:round;stroke-linejoin:round"></path><path d="M361.46,259.11s4.28-6.21,6.42-3.64-1.71,6.85-4.71,7.27-3.85-1.07-3.85-1.07" style="fill:#fff;stroke:#263238;stroke-linecap:round;stroke-linejoin:round"></path><polygon points="341.77 272.54 337.73 276.87 341.77 291.6 345.23 284.95 341.77 272.54" style="fill:#fff;stroke:#263238;stroke-linecap:round;stroke-linejoin:round"></polygon><polygon points="352.45 273.12 348.99 284.67 352.74 291.02 356.49 277.74 352.45 273.12" style="fill:#fff;stroke:#263238;stroke-linecap:round;stroke-linejoin:round"></polygon><path d="M324.44,298l3.76-6.35S334,287,335.13,289a4.21,4.21,0,0,1,.57,3.46s1.45,4.91.87,6.64-9.82,4-9.82,4S312,317.58,309.14,319s-6.93,3.75-8.95-.58,2-6.06,4.62-8.66S324.44,298,324.44,298Z" style="fill:#fff;stroke:#263238;stroke-linecap:round;stroke-linejoin:round"></path><path d="M371.05,298.84l-3.35-6.58s-5.48-5-6.76-3a4.25,4.25,0,0,0-.79,3.42s-1.74,4.81-1.27,6.58,9.54,4.64,9.54,4.64,13.81,15.32,16.6,16.94,6.68,4.18,9,0-1.64-6.18-4.07-8.93S371.05,298.84,371.05,298.84Z" style="fill:#fff;stroke:#263238;stroke-linecap:round;stroke-linejoin:round"></path><path d="M216.94,427.22l-6.75,3.65-4.77-5c-5.25,3.52-11.23,7.85-11.23,9.34,0,2.67,16.62.38,21.33-4.33A12.06,12.06,0,0,0,216.94,427.22Z" style="fill:#263238;stroke:#263238;stroke-linecap:round;stroke-linejoin:round"></path><path d="M279.52,435.2l-8.5-3.4c.28,1.62.46,2.6.5,2.74.34,1,18,8.33,22,3a50.81,50.81,0,0,0-8.54-5.61Z" style="fill:#263238;stroke:#263238;stroke-linecap:round;stroke-linejoin:round"></path><path d="M299.05,148.29s-8.56,10.51-14,13.24-12.46,5.84-12.46,5.84,4.28,15.57,10.71,16.55,15.76-6.82,18.49-18.69Z" style="fill:#fff;stroke:#263238;stroke-linecap:round;stroke-linejoin:round"></path><path d="M289,165.13c-.64,1.4-1.57,2.34-2.08,2.11s-.4-1.55.24-3,1.57-2.34,2.08-2.11S289.66,163.73,289,165.13Z" style="fill:#263238"></path><path d="M296.51,168.33c-.64,1.4-1.57,2.34-2.07,2.11s-.41-1.55.23-2.95,1.57-2.34,2.08-2.11S297.15,166.94,296.51,168.33Z" style="fill:#263238"></path><path d="M295.34,163.11s-3,5.31-3,8.34-.76,4.3-1.77,3.54a18.64,18.64,0,0,1-1.77-1.52" style="fill:none;stroke:#263238;stroke-linecap:round;stroke-linejoin:round"></path><path d="M287.76,159.32s2.52-2.78,5.05.5" style="fill:none;stroke:#263238;stroke-linecap:round;stroke-linejoin:round"></path><path d="M297.36,162.1s2.78,0,2.78,4" style="fill:none;stroke:#263238;stroke-linecap:round;stroke-linejoin:round"></path><path d="M283,173s1.52,3,4.3,3.54" style="fill:none;stroke:#263238;stroke-linecap:round;stroke-linejoin:round"></path><path d="M307.45,271.05H291.76a2,2,0,0,0-2,2v6h2.72v-4a2,2,0,0,1,2-2h10.25a2,2,0,0,1,2,2v4h2.71v-6A2,2,0,0,0,307.45,271.05Z" style="fill:#fff;stroke:#263238;stroke-linecap:round;stroke-linejoin:round"></path><rect x="284.4" y="278.65" width="37.5" height="24.75" rx="2.25" style="fill:#fff;stroke:#263238;stroke-linecap:round;stroke-linejoin:round"></rect><rect x="280.23" y="278.65" width="37.5" height="24.75" rx="2.25" style="fill:#fff;stroke:#263238;stroke-linecap:round;stroke-linejoin:round"></rect><path d="M250.34,201l-.15,36.51s38.67,22,43.33,22.66,10,8.67,11.34,10.34,4,5,3,5.33-4.34-1-4.34-1-4.66,2.67-7.66,1.33-5.34-12-5.34-12-24.33-6-33-8.66-15.33-4.67-17-10.34-3-41-3.33-45-.33-12.66,7.67-14.33" style="fill:#fff;stroke:#263238;stroke-linecap:round;stroke-linejoin:round"></path></g></svg>