<svg xmlns="http://www.w3.org/2000/svg" xmlns:xlink="http://www.w3.org/1999/xlink" viewBox="0 0 500 500"><defs><clippath id="clip-path"><rect x="216.59" y="33.55" width="175.68" height="228.43" style="fill:#7d7d7d"></rect></clippath></defs><g id="background-simple"><path d="M329.22,27.77s-73.45-21.63-146,22.12S73.73,175.21,42,240.67,27.85,370.24,82.82,397.17s92.77-18.6,170.17-24.54,98.14,3.72,162.63-41.6,76.76-145.46,26.59-216.64S329.22,27.77,329.22,27.77Z" style="fill:#92E3A9"></path><path d="M329.22,27.77s-73.45-21.63-146,22.12S73.73,175.21,42,240.67,27.85,370.24,82.82,397.17s92.77-18.6,170.17-24.54,98.14,3.72,162.63-41.6,76.76-145.46,26.59-216.64S329.22,27.77,329.22,27.77Z" style="fill:#fff;opacity:0.7000000000000001"></path></g><g id="Floor"><ellipse cx="253.5" cy="448.84" rx="220.5" ry="23.16" style="fill:#92E3A9"></ellipse><ellipse cx="253.5" cy="448.84" rx="220.5" ry="23.16" style="fill:#fff;opacity:0.4"></ellipse></g><g id="Poster"><line x1="39.23" y1="421.15" x2="464" y2="421.15" style="fill:none;stroke:#263238;stroke-linecap:round;stroke-linejoin:round"></line><line x1="39.23" y1="332.54" x2="464" y2="332.54" style="fill:none;stroke:#263238;stroke-linecap:round;stroke-linejoin:round"></line><line x1="39.23" y1="325.73" x2="464" y2="325.73" style="fill:none;stroke:#263238;stroke-linecap:round;stroke-linejoin:round"></line><rect x="216.59" y="33.55" width="175.68" height="228.43" style="fill:#7d7d7d"></rect><g style="clip-path:url(#clip-path)"><path d="M339.66,69.69c16.81-10.3,33.27-23.07,33.12-37.74H213.41V228.24c3.65-9.3,10.41-22.62,18.14-19.24,11.61,5.08,31.2,37.73,39.91,15.24s-23.22-65.3,13.78-65.3,64.58,5.08,56.6-20.32S315,84.79,339.66,69.69Z" style="fill:#fff"></path><path d="M235.15,66.24H232.9l-3.48-16.71V66.27h-2v-21h3.27L234.1,62l3.33-16.77h3.27v21h-2.22V49.38Z" style="fill:#263238"></path><path d="M245.92,61.32c0,1.89.75,3,2.46,3s2.43-1.14,2.43-3v-16H253V61.2c0,3.18-1.47,5.31-4.71,5.31s-4.68-2.13-4.68-5.31V45.27h2.31Z" style="fill:#263238"></path><path d="M265,50.31v.57h-2.22v-.69c0-1.89-.72-3-2.4-3s-2.4,1.11-2.4,3c0,4.71,7,5.16,7,11.07,0,3.18-1.53,5.25-4.74,5.25s-4.71-2.07-4.71-5.25V60h2.19v1.32c0,1.89.78,3,2.46,3s2.46-1.11,2.46-3c0-4.68-7-5.13-7-11,0-3.24,1.5-5.25,4.65-5.25S265,47.13,265,50.31Z" style="fill:#263238"></path><path d="M270,45.27v21h-2.34v-21Z" style="fill:#263238"></path><path d="M282.28,50.34v1.89h-2.22v-2c0-1.89-.75-3-2.46-3s-2.46,1.14-2.46,3v11.1c0,1.89.78,3,2.46,3s2.46-1.14,2.46-3V58.59h2.22V61.2c0,3.18-1.5,5.28-4.74,5.28s-4.71-2.1-4.71-5.28V50.34c0-3.18,1.5-5.28,4.71-5.28S282.28,47.16,282.28,50.34Z" style="fill:#263238"></path><path d="M234.58,83.05v2.13h-4.83v9.09h-2.34v-21h8.34V75.4h-6v7.65Z" style="fill:#263238"></path><path d="M245.68,82.57v2.1h-5.13v7.47h6.3v2.13h-8.64v-21h8.64V75.4h-6.3v7.17Z" style="fill:#263238"></path><path d="M258.7,78.31v.57h-2.22v-.69c0-1.89-.72-3-2.4-3s-2.4,1.11-2.4,3c0,4.71,7.05,5.16,7.05,11.07,0,3.18-1.53,5.25-4.74,5.25s-4.71-2.07-4.71-5.25V88h2.19v1.32c0,1.89.78,3,2.46,3s2.46-1.11,2.46-3c0-4.68-7-5.13-7-11,0-3.24,1.5-5.25,4.65-5.25S258.7,75.13,258.7,78.31Z" style="fill:#263238"></path><path d="M264.43,94.27V75.4h-3.87V73.27h10.08V75.4h-3.87V94.27Z" style="fill:#263238"></path><path d="M275.2,73.27v21h-2.34v-21Z" style="fill:#263238"></path><path d="M280,73.27l3.42,18.27,3.39-18.27h2.16l-3.93,21h-3.45l-4-21Z" style="fill:#263238"></path><path d="M293,90l-.81,4.23H290l4-21h3.39l4,21h-2.34L298.27,90Zm.3-2h4.68l-2.37-12.12Z" style="fill:#263238"></path><path d="M303.85,94.27v-21h2.34V92.14h6v2.13Z" style="fill:#263238"></path><path d="M235.46,103.43c-1.61,0-2.62.87-2.62,3.17v3.45h-4.79v-3.13c0-5.15,2.58-8.09,7.55-8.09s7.54,2.94,7.54,8.09c0,10.12-10.07,13.9-10.07,19.19a4,4,0,0,0,0,.69h9.57v4.6H228.05v-4c0-9.48,10-11,10-20.33C238.08,104.21,237.07,103.43,235.46,103.43Z" style="fill:#263238"></path><path d="M246.78,106.92c0-5.15,2.71-8.09,7.68-8.09s7.68,2.94,7.68,8.09v16.75c0,5.15-2.71,8.1-7.68,8.1s-7.68-3-7.68-8.1ZM251.84,124c0,2.3,1,3.17,2.62,3.17s2.62-.87,2.62-3.17V106.6c0-2.3-1-3.17-2.62-3.17s-2.62.87-2.62,3.17Z" style="fill:#263238"></path><path d="M273.73,103.43c-1.61,0-2.62.87-2.62,3.17v3.45h-4.78v-3.13c0-5.15,2.57-8.09,7.54-8.09s7.55,2.94,7.55,8.09c0,10.12-10.08,13.9-10.08,19.19a3.21,3.21,0,0,0,.05.69H281v4.6H266.33v-4c0-9.48,10-11,10-20.33C276.35,104.21,275.34,103.43,273.73,103.43Z" style="fill:#263238"></path><path d="M285.05,106.92c0-5.15,2.71-8.09,7.68-8.09s7.68,2.94,7.68,8.09v16.75c0,5.15-2.71,8.1-7.68,8.1s-7.68-3-7.68-8.1ZM290.11,124c0,2.3,1,3.17,2.62,3.17s2.62-.87,2.62-3.17V106.6c0-2.3-1-3.17-2.62-3.17s-2.62.87-2.62,3.17Z" style="fill:#263238"></path><path d="M433.45,228.61l-12.1-19a36,36,0,0,1-3.35-32l2.17-5.81a33.69,33.69,0,0,0-.87-25.67l-.75-1.65a33.67,33.67,0,0,0-28.75-19.75L376.09,124H370l-13.71.79a33.67,33.67,0,0,0-28.75,19.75l-.75,1.65a33.69,33.69,0,0,0-.87,25.67l2.17,5.81a36,36,0,0,1-3.35,32l-12.11,19a39.85,39.85,0,0,0-3.17,36.69l.22.53a48.89,48.89,0,0,0,13.41,18.38c6.57,5.56,13.17,7.49,21.64,9,18.83,3.27,38.8,2.31,57.73.2,15.25-1.7,28.36-13.54,34-27.54l.22-.53A39.84,39.84,0,0,0,433.45,228.61Z" style="fill:#92E3A9"></path><circle cx="373.04" cy="178.99" r="27.21" style="fill:#999"></circle><path d="M384.7-32.83a6.86,6.86,0,0,0-.16-2.49c-.33-1.83-2.82-1.33-4.65-2.66a6.88,6.88,0,0,1-2.05-2.1,6.4,6.4,0,0,0,.08-.89,5.45,5.45,0,0,0-5.23-5.64A5.46,5.46,0,0,0,367.46-41a6,6,0,0,0,.08.86A6.78,6.78,0,0,1,365.47-38c-1.82,1.33-4.31.83-4.65,2.66a6.86,6.86,0,0,0-.16,2.49s-3.32,1-3,3.82,1.16,30.37,2.16,32.86,6.47,8.14,8.46,9.63c1.25.94,3.15.7,4.39.39,1.25.31,3.14.55,4.39-.39,2-1.49,7.47-7.14,8.46-9.63s1.83-30,2.16-32.86S384.7-32.83,384.7-32.83ZM365.75.53h-.15a3.65,3.65,0,0,1-3.69-3.61l-.2-21.87a3.64,3.64,0,0,1,3.61-3.68h.15A3.66,3.66,0,0,1,369.16-25l.21,21.86A3.66,3.66,0,0,1,365.75.53ZM383-3.08A3.65,3.65,0,0,1,379.27.53h-.15a3.65,3.65,0,0,1-3.61-3.69l.2-21.86a3.66,3.66,0,0,1,3.69-3.62h.15a3.64,3.64,0,0,1,3.62,3.68Z" style="fill:#263238;stroke:#263238;stroke-linecap:round;stroke-linejoin:round"></path><path d="M373,160.39a18.5,18.5,0,0,1,9.9,2.87l-1.41-154h-17l-1.41,154A18.5,18.5,0,0,1,373,160.39Z" style="fill:#263238;stroke:#263238;stroke-linecap:round;stroke-linejoin:round"></path><circle cx="373.04" cy="178.99" r="18.6" transform="translate(113.74 501.41) rotate(-76.82)" style="fill:#263238"></circle><rect x="340.7" y="238.7" width="65" height="12.92" style="fill:#263238;stroke:#263238;stroke-linecap:round;stroke-linejoin:round"></rect><rect x="357.93" y="238.7" width="27.8" height="3.92" style="fill:#fff;stroke:#263238;stroke-linecap:round;stroke-linejoin:round"></rect><line x1="364.7" y1="21.55" x2="382.73" y2="21.55" style="fill:none;stroke:#263238;stroke-linecap:round;stroke-linejoin:round"></line><line x1="364.57" y1="32.56" x2="382.73" y2="32.56" style="fill:none;stroke:#263238;stroke-linecap:round;stroke-linejoin:round"></line><line x1="364.45" y1="43.57" x2="382.73" y2="43.57" style="fill:none;stroke:#263238;stroke-linecap:round;stroke-linejoin:round"></line><line x1="364.33" y1="54.58" x2="382.73" y2="54.58" style="fill:none;stroke:#263238;stroke-linecap:round;stroke-linejoin:round"></line><line x1="364.21" y1="65.59" x2="382.73" y2="65.59" style="fill:none;stroke:#263238;stroke-linecap:round;stroke-linejoin:round"></line><line x1="364.08" y1="76.6" x2="382.73" y2="76.6" style="fill:none;stroke:#263238;stroke-linecap:round;stroke-linejoin:round"></line><line x1="363.96" y1="87.61" x2="382.73" y2="87.61" style="fill:none;stroke:#263238;stroke-linecap:round;stroke-linejoin:round"></line><line x1="363.84" y1="98.62" x2="382.73" y2="98.62" style="fill:none;stroke:#263238;stroke-linecap:round;stroke-linejoin:round"></line><line x1="363.72" y1="109.63" x2="382.73" y2="109.63" style="fill:none;stroke:#263238;stroke-linecap:round;stroke-linejoin:round"></line><line x1="363.59" y1="120.64" x2="382.73" y2="120.64" style="fill:none;stroke:#263238;stroke-linecap:round;stroke-linejoin:round"></line><line x1="363.47" y1="131.65" x2="382.73" y2="131.65" style="fill:none;stroke:#263238;stroke-linecap:round;stroke-linejoin:round"></line><line x1="363.35" y1="142.67" x2="382.73" y2="142.67" style="fill:none;stroke:#263238;stroke-linecap:round;stroke-linejoin:round"></line><line x1="363.22" y1="153.68" x2="382.73" y2="153.68" style="fill:none;stroke:#263238;stroke-linecap:round;stroke-linejoin:round"></line><line x1="365.8" y1="9.77" x2="365.8" y2="251.58" style="fill:none;stroke:#fff;stroke-linecap:round;stroke-linejoin:round;stroke-width:0.5px"></line><line x1="368.67" y1="9.77" x2="368.67" y2="251.58" style="fill:none;stroke:#fff;stroke-linecap:round;stroke-linejoin:round;stroke-width:0.5px"></line><line x1="371.54" y1="9.77" x2="371.54" y2="251.58" style="fill:none;stroke:#fff;stroke-linecap:round;stroke-linejoin:round;stroke-width:0.5px"></line><line x1="374.41" y1="9.77" x2="374.41" y2="251.58" style="fill:none;stroke:#fff;stroke-linecap:round;stroke-linejoin:round;stroke-width:0.5px"></line><line x1="377.28" y1="9.77" x2="377.28" y2="251.58" style="fill:none;stroke:#fff;stroke-linecap:round;stroke-linejoin:round;stroke-width:0.5px"></line><line x1="380.16" y1="9.77" x2="380.16" y2="251.58" style="fill:none;stroke:#fff;stroke-linecap:round;stroke-linejoin:round;stroke-width:0.5px"></line><path d="M283.34,190v1.49H280v6.36h-1.64V183.19h5.84v1.49H280V190Z" style="fill:#fff"></path><path d="M289.16,183.19c2.31,0,3.27,1.17,3.27,3.36v1.19c0,1.62-.56,2.63-1.82,3,1.34.4,1.84,1.49,1.84,3.06v2.29a3.58,3.58,0,0,0,.3,1.76h-1.66a3.81,3.81,0,0,1-.27-1.78v-2.31c0-1.66-.78-2.18-2.15-2.18h-1.15v6.27h-1.64V183.19Zm-.42,6.93c1.3,0,2.08-.42,2.08-2v-1.41c0-1.32-.49-2-1.7-2h-1.6v5.44Z" style="fill:#fff"></path><path d="M296.21,183.19v14.69h-1.63V183.19Z" style="fill:#fff"></path><path d="M301.76,183.19c2.28,0,3.34,1.38,3.34,3.65v7.41c0,2.25-1.06,3.63-3.34,3.63h-3.45V183.19Zm0,13.2c1.17,0,1.74-.73,1.74-2.08v-7.55c0-1.35-.57-2.08-1.77-2.08H300v11.71Z" style="fill:#fff"></path><path d="M308.69,194.92l-.57,3h-1.51l2.81-14.69h2.37l2.82,14.69H313l-.57-3Zm.21-1.4h3.27L310.51,185Z" style="fill:#fff"></path><path d="M318.91,192.61l-3.1-9.42h1.7l2.29,7.22,2.31-7.22h1.55l-3.13,9.42v5.27h-1.62Z" style="fill:#fff"></path><path d="M285.06,212.67v.46c0,1.49-.52,2.59-1.68,3,1.22.48,1.68,1.63,1.68,3.1v1.1c0,2.26-1.17,3.67-3.46,3.67s-3.47-1.41-3.47-3.67v-1.1c0-1.49.47-2.6,1.7-3.1-1.19-.46-1.7-1.54-1.7-3v-.46c0-2.27,1.2-3.63,3.47-3.63S285.06,210.4,285.06,212.67Zm-5.31,0v.72c0,1.43.69,2.06,1.85,2.06s1.85-.63,1.85-2.06v-.72c0-1.51-.7-2.2-1.85-2.2S279.75,211.2,279.75,212.71Zm0,6.37v1.23c0,1.52.67,2.23,1.85,2.23s1.82-.71,1.85-2.23v-1.23c0-1.43-.63-2.12-1.85-2.12S279.75,217.65,279.75,219.08Z" style="fill:#fff"></path><path d="M293.86,209.19c2.31,0,3.3,1.36,3.3,3.59v1.76c0,2.33-1.09,3.55-3.42,3.55h-1.45v5.79h-1.64V209.19Zm-.12,7.43c1.21,0,1.8-.57,1.8-2v-2c0-1.34-.48-2-1.68-2h-1.57v5.94Z" style="fill:#fff"></path><path d="M304.34,223.86h-1.57l-2.44-11.69v11.71H298.9V209.19h2.29l2.42,11.73,2.33-11.73h2.28v14.69h-1.55V212.06Z" style="fill:#fff"></path><rect x="173.86" y="132.09" width="254.69" height="31.93" transform="matrix(0.86, -0.51, 0.51, 0.86, -33.41, 174.01)" style="fill:#92E3A9"></rect><rect x="173.86" y="132.09" width="254.69" height="31.93" transform="matrix(0.86, -0.51, 0.51, 0.86, -33.41, 174.01)" style="opacity:0.1"></rect><path d="M271.28,169l1.39,2.42c1.68,2.91,1.19,5.41-1.62,7s-5.22.8-6.9-2.11l-5.46-9.46c-1.68-2.91-1.18-5.41,1.62-7s5.22-.8,6.9,2.11l1,1.77-2.7,1.56-1.13-1.95c-.75-1.3-1.6-1.46-2.51-.94s-1.2,1.35-.45,2.65l5.67,9.82c.75,1.3,1.6,1.43,2.51.91s1.2-1.32.45-2.62l-1.5-2.6Z" style="fill:#263238"></path><path d="M287,169l-2.88,1.67-2.4-3-3.51,2,1.41,3.58L277,174.73l-7.59-19.86,4.18-2.42Zm-9.85-2,2.75-1.59-6.68-8.4Z" style="fill:#263238"></path><path d="M284,153.1l7.61,13.17L289,167.75l-10.5-18.18,3.58-2.07,9.22,9.19-6.28-10.89,2.55-1.47,10.5,18.19-2.94,1.69Z" style="fill:#263238"></path><path d="M305.31,149.32l1.39,2.41c1.68,2.91,1.19,5.42-1.62,7s-5.22.79-6.9-2.12l-5.46-9.45c-1.68-2.91-1.18-5.41,1.62-7s5.22-.8,6.9,2.11l1,1.76-2.7,1.56-1.12-1.94c-.75-1.3-1.61-1.47-2.52-.94s-1.2,1.35-.45,2.65l5.67,9.82c.75,1.29,1.6,1.43,2.51.91s1.21-1.33.46-2.62l-1.5-2.6Z" style="fill:#263238"></path><path d="M308.53,142.47l3.92-2.26,1.5,2.59L310,145.07l3.07,5.32,4.94-2.85,1.5,2.6-7.8,4.5-10.5-18.18L309,132l1.5,2.59-4.94,2.85Z" style="fill:#263238"></path><path d="M311.58,130.49l2.86-1.65,9,15.58,4.7-2.71,1.5,2.6-7.56,4.36Z" style="fill:#263238"></path><path d="M328.45,131l3.92-2.26,1.5,2.6L330,133.56l3.08,5.33L338,136l1.5,2.59-7.79,4.5L321.17,125l7.79-4.5,1.5,2.6-4.93,2.85Z" style="fill:#263238"></path><path d="M331.51,119l4.52-2.61c2.86-1.65,5.17-.88,6.85,2l5.32,9.2c1.68,2.91,1.19,5.3-1.67,7L342,137.16Zm4.36,1,7.5,13L345,132c.91-.53,1.18-1.31.43-2.61L340,119.92c-.75-1.3-1.56-1.45-2.47-.92Z" style="fill:#263238"></path></g></g><g id="Plants"><path d="M442.54,242.58s0-5-7-11.91-11.41-10.91-11.41-10.91-3.47,11.41,3,18.36a122.33,122.33,0,0,0,15.38,13.39Z" style="fill:#92E3A9"></path><path d="M432.46,273.56s0-5-6.95-11.9-11.41-10.92-11.41-10.92-3.47,11.41,3,18.36a122.33,122.33,0,0,0,15.38,13.39Z" style="fill:#92E3A9"></path><path d="M442.1,251s.52-4.93,8.16-11.11,12.5-9.64,12.5-9.64,2.25,11.71-4.9,17.93a121.52,121.52,0,0,1-16.7,11.7Z" style="fill:#92E3A9"></path><path d="M429.92,287.62s1-4.85,9.29-10.19,13.44-8.28,13.44-8.28,1,11.88-6.75,17.32a122.13,122.13,0,0,1-17.85,9.88Z" style="fill:#92E3A9"></path><path d="M432.21,327.51s0-5,7-11.91,11.41-10.91,11.41-10.91,3.47,11.41-3,18.35a121.9,121.9,0,0,1-15.38,13.4Z" style="fill:#92E3A9"></path><path d="M432.1,337.25s.7-4.92-5.18-12.78-9.75-12.42-9.75-12.42-5.06,10.8.34,18.59a122.21,122.21,0,0,0,13.32,15.44Z" style="fill:#92E3A9"></path><path d="M425.25,366.1s0-5,6.94-11.9,11.41-10.92,11.41-10.92,3.48,11.41-3,18.36A122.33,122.33,0,0,1,425.25,375Z" style="fill:#92E3A9"></path><path d="M429.89,392.26s-1.26-4.79,3.7-13.27,8.27-13.45,8.27-13.45,6.25,10.16,1.77,18.51a122.27,122.27,0,0,1-11.48,16.85Z" style="fill:#92E3A9"></path><path d="M443.17,241.31a140.51,140.51,0,0,1-1.91,15.4c-2.74,14.19-9.6,23.34-12.35,36.15s5.14,29.32,3,45.77-8.52,25.61-6.69,36.59,11.44,40.72,11.44,40.72" style="fill:none;stroke:#263238;stroke-linecap:round;stroke-linejoin:round;stroke-width:0.5px"></path><line x1="442.03" y1="254.33" x2="449.52" y2="248.58" style="fill:none;stroke:#263238;stroke-linecap:round;stroke-linejoin:round;stroke-width:0.5px"></line><line x1="442.38" y1="247.71" x2="439.25" y2="242.14" style="fill:none;stroke:#263238;stroke-linecap:round;stroke-linejoin:round;stroke-width:0.5px"></line><path d="M429.33,292.27s6.26-4.7,12.7-9.4" style="fill:none;stroke:#263238;stroke-linecap:round;stroke-linejoin:round;stroke-width:0.5px"></path><path d="M432.46,282.49s-5.22-10.24-11.14-17" style="fill:none;stroke:#263238;stroke-linecap:round;stroke-linejoin:round;stroke-width:0.5px"></path><path d="M432.46,334.57a77.31,77.31,0,0,1,13.4-17.93" style="fill:none;stroke:#263238;stroke-linecap:round;stroke-linejoin:round;stroke-width:0.5px"></path><path d="M431.24,341.53a86.91,86.91,0,0,0-6.79-12.88c-3.65-5.4-4.17-6.09-4.17-6.09" style="fill:none;stroke:#263238;stroke-linecap:round;stroke-linejoin:round;stroke-width:0.5px"></path><path d="M425.25,375.22a83,83,0,0,1,5.64-11.41,73.9,73.9,0,0,1,7.31-9.58" style="fill:none;stroke:#263238;stroke-linecap:round;stroke-linejoin:round;stroke-width:0.5px"></path><path d="M432.15,400.9a21.3,21.3,0,0,1,1.88-11c2.61-5,5.57-11.66,6.78-14.27" style="fill:none;stroke:#263238;stroke-linecap:round;stroke-linejoin:round;stroke-width:0.5px"></path><path d="M397.06,308.85s-.54-3.11,3.06-8.22,6-8.08,6-8.08,3.42,6.78.13,11.83A77.32,77.32,0,0,1,398,314.45Z" style="fill:#92E3A9"></path><path d="M406.74,327.19s-.54-3.12,3.07-8.22,6-8.09,6-8.09,3.41,6.78.12,11.84a77.65,77.65,0,0,1-8.19,10.06Z" style="fill:#92E3A9"></path><path d="M398.25,314.1s-.86-3-6.32-6.07-8.89-4.7-8.89-4.7-.14,7.59,5,10.72a77.51,77.51,0,0,0,11.75,5.52Z" style="fill:#92E3A9"></path><path d="M409.86,335.72s-1.18-2.92-6.93-5.37-9.33-3.74-9.33-3.74.66,7.56,6.12,10.13A77.52,77.52,0,0,0,412,341Z" style="fill:#92E3A9"></path><path d="M412.75,361s-.54-3.11-5.64-6.71-8.34-5.61-8.34-5.61-.94,7.53,3.85,11.19a78.29,78.29,0,0,0,11.1,6.73Z" style="fill:#92E3A9"></path><path d="M413.88,367.08s-1-3,1.87-8.57,4.76-8.85,4.76-8.85,4.34,6.22,1.8,11.7a78.15,78.15,0,0,1-6.67,11.13Z" style="fill:#92E3A9"></path><path d="M422.6,392.17s.36-3.13,5.25-7,8-6.07,8-6.07,1.37,7.46-3.21,11.39a77.64,77.64,0,0,1-10.7,7.35Z" style="fill:#92E3A9"></path><path d="M421.31,384.43s-.54-3.11-5.65-6.71-8.34-5.6-8.34-5.6-.94,7.53,3.86,11.18a77.23,77.23,0,0,0,11.1,6.73Z" style="fill:#92E3A9"></path><path d="M421.24,401.34s.27-3.14-3.76-7.92-6.65-7.53-6.65-7.53-2.82,7,.9,11.79a77.71,77.71,0,0,0,9,9.33Z" style="fill:#92E3A9"></path><path d="M396.53,308.12a90.66,90.66,0,0,0,2.86,9.46c3.26,8.59,8.56,13.59,11.67,21.32s0,18.94,3.07,29,8.12,15.14,8.17,22.22-2.75,26.78-2.75,26.78" style="fill:none;stroke:#263238;stroke-linecap:round;stroke-linejoin:round;stroke-width:0.5px"></path><line x1="398.65" y1="316.16" x2="393.33" y2="313.37" style="fill:none;stroke:#263238;stroke-linecap:round;stroke-linejoin:round;stroke-width:0.5px"></line><line x1="397.71" y1="312.05" x2="399.07" y2="308.22" style="fill:none;stroke:#263238;stroke-linecap:round;stroke-linejoin:round;stroke-width:0.5px"></line><path d="M410.74,338.58s-4.44-2.27-9-4.52" style="fill:none;stroke:#263238;stroke-linecap:round;stroke-linejoin:round;stroke-width:0.5px"></path><path d="M407.71,332.78a63.28,63.28,0,0,1,5.14-11.88" style="fill:none;stroke:#263238;stroke-linecap:round;stroke-linejoin:round;stroke-width:0.5px"></path><path d="M413.36,365.44A49.35,49.35,0,0,0,403,355.65" style="fill:none;stroke:#263238;stroke-linecap:round;stroke-linejoin:round;stroke-width:0.5px"></path><path d="M414.88,369.67a56.61,56.61,0,0,1,2.86-8.81c1.71-3.78,2-4.27,2-4.27" style="fill:none;stroke:#263238;stroke-linecap:round;stroke-linejoin:round;stroke-width:0.5px"></path><path d="M422.06,395.52a45.78,45.78,0,0,1,5.72-5.93,31,31,0,0,0,3.71-3.23" style="fill:none;stroke:#263238;stroke-linecap:round;stroke-linejoin:round;stroke-width:0.5px"></path><path d="M422.3,390.15a53.13,53.13,0,0,0-4.78-6.54,46,46,0,0,0-5.62-5.21" style="fill:none;stroke:#263238;stroke-linecap:round;stroke-linejoin:round;stroke-width:0.5px"></path><path d="M420.76,407a13.48,13.48,0,0,0-2.37-6.69c-2.18-2.88-4.76-6.71-5.81-8.21" style="fill:none;stroke:#263238;stroke-linecap:round;stroke-linejoin:round;stroke-width:0.5px"></path><path d="M405.36,413.49h45.43a0,0,0,0,1,0,0v34.61a3,3,0,0,1-3,3H408.4a3,3,0,0,1-3-3V413.49A0,0,0,0,1,405.36,413.49Z" style="fill:#263238"></path><path d="M450.39,419.42h-45a3.56,3.56,0,0,1-3.56-3.56h0a3.55,3.55,0,0,1,3.56-3.55h45a3.55,3.55,0,0,1,3.56,3.55h0A3.56,3.56,0,0,1,450.39,419.42Z" style="fill:#263238"></path></g><g id="Character"><path d="M150,149.36,119.68,161,96.19,205.83s.27,11.61,5.54,14,7.13,1.85,9.5.53S124.43,204,124.43,204l-2.64,45.39,75.73.26-2.38-60.16s36.68,18.21,39.85,11.08S243.17,142,243.17,142s15.2-2,15.73-4.36,1.58-15,0-17.15-2.64-.79-3.7,2.11-1.58,4.49-1.58,4.49l-12.3-.13s6.07-7.39,6.07-10-3.43-1.31-5.81,1.06-14.77,11.35-15,17.68-5.8,38.79-5.8,38.79S195.67,151.21,192,150.15,150,149.36,150,149.36Z" style="fill:#b2b2b2;stroke:#263238;stroke-linecap:round;stroke-linejoin:round"></path><path d="M192,150.15c-3.7-1.05-42-.79-42-.79L119.68,161l-14.92,28.49,17.65,17.28c1.21-1.64,2-2.76,2-2.76l-2.64,45.39,75.73.26-2.38-60.16s4.06,2,9.58,4.43l9-25.87C206,161.07,194.4,150.84,192,150.15Z" style="fill:#92E3A9;stroke:#263238;stroke-linecap:round;stroke-linejoin:round"></path><path d="M150,149.36l-8.09,3.1a14.93,14.93,0,0,0-.09,1.65c0,9.33,7.86,16.89,17.55,16.89s17.55-7.56,17.55-16.89a16.4,16.4,0,0,0-.7-4.68C164.29,149.26,150,149.36,150,149.36Z" style="fill:#fff;stroke:#263238;stroke-linecap:round;stroke-linejoin:round"></path><path d="M104.76,189.46l17.65,17.28c1.21-1.64,2-2.76,2-2.76L106.9,185.37Z" style="fill:#fff;stroke:#263238;stroke-linecap:round;stroke-linejoin:round"></path><path d="M213.73,168l-4.18-3.74-9,27.76c1.24.56,2.62,1.19,4.13,1.85Z" style="fill:#fff;stroke:#263238;stroke-linecap:round;stroke-linejoin:round"></path><polygon points="194.56 188.96 192.77 166.51 197.84 190.7 195.14 189.47 194.56 188.96" style="fill:#263238"></polygon><polygon points="124.79 204.15 124.02 179.84 122.41 206.74 124.79 204.15" style="fill:#263238"></polygon><path d="M145.25,139.69,147.71,158s4.24,8.1,12.85,6.82,9.66-12,9.66-12L167.61,136S154.69,143.53,145.25,139.69Z" style="fill:#b2b2b2;stroke:#263238;stroke-linecap:round;stroke-linejoin:round"></path><path d="M168.73,143.18,167.61,136s-12.92,7.49-22.36,3.65l1,7.51a29.26,29.26,0,0,0,3.23,1A19.47,19.47,0,0,0,168.73,143.18Z" style="fill:#263238;stroke:#263238;stroke-linecap:round;stroke-linejoin:round"></path><path d="M127.59,118.22s-5.54,1.32-2.9,7.66S135,131.15,135,131.15s0,10.82,14.51,14.52,23.49-7.92,23.75-13.46.27-10,.27-10A11.62,11.62,0,0,0,177.2,114c0-5-2.38-6.33-4.22-5.28l-1.85,1.06s-1.85-5.28-3.17-9-18.47-4.75-28-.53-12.4,8.18-12.4,11.08Z" style="fill:#b2b2b2;stroke:#263238;stroke-linecap:round;stroke-linejoin:round"></path><path d="M171.59,114l.07-.23Z" style="fill:none;stroke:#263238;stroke-linecap:round;stroke-linejoin:round"></path><path d="M173.21,132.59a28.62,28.62,0,0,1-2.61-5.66c-1.43-4.31.6-11.64,1-13-.45,1.46-3.61,10.32-15,13.23-12.4,3.16-23.75-3.17-23.75-3.17,8,9.36,5,11.89,3.65,12.49,1.72,3.28,5.33,7.2,13,9.15C163.69,149.28,172.57,138.26,173.21,132.59Z" style="fill:#fff;stroke:#263238;stroke-linecap:round;stroke-linejoin:round"></path><path d="M147.9,121.27c.13,1.31-.29,2.42-.94,2.48s-1.29-.94-1.42-2.24.29-2.42,1-2.48S147.77,120,147.9,121.27Z" style="fill:#263238"></path><path d="M160.58,118c.13,1.31-.3,2.42-1,2.48s-1.29-.94-1.42-2.24.3-2.42.95-2.48S160.44,116.66,160.58,118Z" style="fill:#263238"></path><line x1="141.05" y1="117.17" x2="146.85" y2="112.68" style="fill:none;stroke:#263238;stroke-linecap:round;stroke-linejoin:round"></line><line x1="157.41" y1="110.57" x2="164.27" y2="112.95" style="fill:none;stroke:#263238;stroke-linecap:round;stroke-linejoin:round"></line><line x1="155.56" y1="115.06" x2="158.46" y2="126.14" style="fill:none;stroke:#263238;stroke-linecap:round;stroke-linejoin:round"></line><path d="M167.17,88.93S166.91,78.64,150.28,76s-32.45,9.23-29.81,11.61S124.69,90,124.69,90s-7.39,3.69-7.39,11.61,8.71,14,8.71,14,.26,2.11,1.58,2.63a32.34,32.34,0,0,1,3.17,1.59s1.58,7.39,2.37,2.9,0-11.35,0-11.35l19.53-7.12s-17.15,5.54-7.65,7.12,22.43-6.86,22.43-6.86l2.9,10.29s1.58.53,1.32-2.9-.27-5.28-.27-5.28,5.55-13.19,3.43-16.88S167.17,88.93,167.17,88.93Z" style="fill:#263238;stroke:#263238;stroke-linecap:round;stroke-linejoin:round"></path><path d="M120.73,438s-12.14,9-20,12.67,2.37,14.25,19,10,21.63-7.91,27.7-8.44,5.81-3.43,5.54-9.76S124.43,435.39,120.73,438Z" style="fill:#92E3A9;stroke:#263238;stroke-linecap:round;stroke-linejoin:round"></path><path d="M110.44,458.35c-13.19-.26-12.14-5.54-12.14-5.54h0c-2.21,4.48,7.32,11.5,21.4,7.92,16.62-4.22,21.63-7.91,27.7-8.44,5.68-.49,5.81-3.07,5.59-8.58a42.52,42.52,0,0,0-15.61,6.21C127.33,456.77,123.63,458.61,110.44,458.35Z" style="fill:#fff;stroke:#263238;stroke-linecap:round;stroke-linejoin:round"></path><path d="M190.13,438s12.14,9,20.05,12.67-2.37,14.25-19,10-21.63-7.91-27.7-8.44-5.81-3.43-5.54-9.76S186.43,435.39,190.13,438Z" style="fill:#92E3A9;stroke:#263238;stroke-linecap:round;stroke-linejoin:round"></path><path d="M200.42,458.35c13.19-.26,12.14-5.54,12.14-5.54h0c2.21,4.48-7.32,11.5-21.4,7.92-16.62-4.22-21.63-7.91-27.7-8.44-5.68-.49-5.81-3.07-5.59-8.58a42.63,42.63,0,0,1,15.62,6.21C183.53,456.77,187.23,458.61,200.42,458.35Z" style="fill:#fff;stroke:#263238;stroke-linecap:round;stroke-linejoin:round"></path><path d="M121.79,249.37s-4,72.3-3.17,108.45S123.37,419,123.37,419s-5.54,4.49-5.54,7.66,1,11.61,1,12.4,5.81,5,16.1,7.39a64.47,64.47,0,0,0,19.53,1.31s10.29,2.91,19.79-2.11a130.13,130.13,0,0,1,16.36-7.38l1.05-13.2L187,419.3s9.77-78.11,10-108.72.53-60.95.53-60.95Z" style="fill:#263238;stroke:#263238;stroke-linecap:round;stroke-linejoin:round"></path><path d="M188.55,254.38h8.93c0-3,0-4.75,0-4.75l-9.63,0Z" style="fill:#757575;stroke:#263238;stroke-linecap:round;stroke-linejoin:round"></path><path d="M130,249.39l-8.24,0s-.1,1.72-.25,4.76l7.64.25Z" style="fill:#757575;stroke:#263238;stroke-linecap:round;stroke-linejoin:round"></path><polygon points="184.49 249.59 134.19 249.41 134.19 253.59 184.32 254.12 184.49 249.59" style="fill:#757575;stroke:#263238;stroke-linecap:round;stroke-linejoin:round"></polygon><rect x="155.56" y="249.89" width="12.4" height="3.96" style="fill:#fff;stroke:#263238;stroke-linecap:round;stroke-linejoin:round"></rect><line x1="162.69" y1="283.67" x2="154.51" y2="447.79" style="fill:none;stroke:#666;stroke-linecap:round;stroke-linejoin:round"></line><line x1="162.95" y1="297.39" x2="176.67" y2="281.56" style="fill:none;stroke:#666;stroke-linecap:round;stroke-linejoin:round"></line><path d="M140,255.7s-5,21.11-17.94,25.33" style="fill:none;stroke:#666;stroke-linecap:round;stroke-linejoin:round"></path><path d="M184.59,257.28s1.84,18.47,10.29,27.18" style="fill:none;stroke:#666;stroke-linecap:round;stroke-linejoin:round"></path><polyline points="163.16 257.87 162.45 279.34 167.03 272.65 167.03 257.17" style="fill:none;stroke:#666;stroke-linecap:round;stroke-linejoin:round"></polyline><path d="M258.93,135.8s3-2.9,5.07-9.92-1.24-5.95-2.72-3.57a86.66,86.66,0,0,0-5.12,11.26C255.24,136.13,254.14,139.25,258.93,135.8Z" style="fill:#b2b2b2;stroke:#263238;stroke-linecap:round;stroke-linejoin:round"></path><path d="M254.89,140.42s3.87-1.57,8.39-7.32,1.06-6-1.2-4.33a87.24,87.24,0,0,0-8.93,8.56C251.34,139.36,249.17,141.85,254.89,140.42Z" style="fill:#b2b2b2;stroke:#263238;stroke-linecap:round;stroke-linejoin:round"></path><path d="M236,141.44s-.53-5.54,4.75-6.86A19.81,19.81,0,0,1,251,135s4.22-13.72,6.07-10.29-1.58,13.46-2.9,15-10.81,2.6-12.39,2.6" style="fill:#b2b2b2;stroke:#263238;stroke-linecap:round;stroke-linejoin:round"></path><path d="M93.61,144.51s3.25,9.44,2.93,11.72-3.1,5.21-3.42,6.35,7,26.69,9.77,32.55,7.48,17.75,6.51,22.63-4.89,5.86-10.1,5.86-7-2-9.44-8.79-8.79-51.93-8.79-51.93l-3.42-6.67,1.14-15.31Z" style="fill:#b2b2b2;stroke:#263238;stroke-linecap:round;stroke-linejoin:round"></path><path d="M126.59,273.09,118,259.64a25.43,25.43,0,0,1-2.37-22.58l1.53-4.1a23.81,23.81,0,0,0-.61-18.14l-.53-1.18a23.8,23.8,0,0,0-20.33-13.95L86,199.13h-4.3l-9.69.56a23.8,23.8,0,0,0-20.33,13.95l-.53,1.18A23.81,23.81,0,0,0,50.58,233l1.53,4.1a25.43,25.43,0,0,1-2.37,22.58l-8.55,13.45A28.16,28.16,0,0,0,38.94,299l.16.38a34.49,34.49,0,0,0,9.48,13c4.64,3.93,9.31,5.29,15.29,6.33,13.31,2.32,27.43,1.64,40.81.15,10.77-1.21,20-9.58,24-19.47l.16-.38A28.16,28.16,0,0,0,126.59,273.09Z" style="fill:#92E3A9;stroke:#263238;stroke-linecap:round;stroke-linejoin:round"></path><circle cx="83.89" cy="238.01" r="19.23" transform="translate(-83.49 49.14) rotate(-22.13)" style="fill:#999;stroke:#263238;stroke-linecap:round;stroke-linejoin:round"></circle><rect x="69.48" y="92.44" width="28.32" height="2.66" rx="0.85" style="fill:#fff;stroke:#263238;stroke-linecap:round;stroke-linejoin:round"></rect><rect x="69.48" y="99.3" width="28.32" height="2.66" rx="0.85" style="fill:#fff;stroke:#263238;stroke-linecap:round;stroke-linejoin:round"></rect><rect x="69.48" y="106.17" width="28.32" height="2.66" rx="0.85" style="fill:#fff;stroke:#263238;stroke-linecap:round;stroke-linejoin:round"></rect><path d="M92.13,88.3A4.87,4.87,0,0,0,92,86.54c-.24-1.29-2-.94-3.29-1.88a4.74,4.74,0,0,1-1.45-1.48,4.34,4.34,0,0,0,.06-.63,3.71,3.71,0,1,0-7.39,0,5.6,5.6,0,0,0,0,.6,4.49,4.49,0,0,1-1.46,1.51c-1.29.94-3.05.59-3.28,1.88a4.79,4.79,0,0,0-.12,1.76S72.79,89,73,91s.82,21.47,1.52,23.23,4.58,5.75,6,6.81a3.84,3.84,0,0,0,3.1.27,3.84,3.84,0,0,0,3.1-.27c1.41-1.06,5.28-5.05,6-6.81S94,93,94.25,91,92.13,88.3,92.13,88.3ZM78.74,111.88h-.11A2.58,2.58,0,0,1,76,109.33l-.14-15.46a2.57,2.57,0,0,1,2.55-2.6h.11a2.58,2.58,0,0,1,2.61,2.55l.14,15.46A2.57,2.57,0,0,1,78.74,111.88Zm12.16-2.55a2.57,2.57,0,0,1-2.6,2.55h-.11a2.58,2.58,0,0,1-2.56-2.6l.15-15.46a2.57,2.57,0,0,1,2.61-2.55h.1a2.58,2.58,0,0,1,2.56,2.6Z" style="fill:#263238;stroke:#263238;stroke-linecap:round;stroke-linejoin:round"></path><path d="M83.89,224.87a13,13,0,0,1,7,2l-1-108.85h-12l-1,108.85A13,13,0,0,1,83.89,224.87Z" style="fill:#fff;stroke:#263238;stroke-linecap:round;stroke-linejoin:round"></path><circle cx="83.89" cy="238.01" r="13.15" transform="translate(-143.73 129.03) rotate(-45)" style="fill:#263238;stroke:#263238;stroke-linecap:round;stroke-linejoin:round"></circle><rect x="61.03" y="280.22" width="45.94" height="9.13" style="fill:#263238;stroke:#263238;stroke-linecap:round;stroke-linejoin:round"></rect><rect x="73.21" y="280.22" width="19.65" height="2.77" style="fill:#fff;stroke:#263238;stroke-linecap:round;stroke-linejoin:round"></rect><line x1="77.99" y1="126.74" x2="90.74" y2="126.74" style="fill:none;stroke:#263238;stroke-linecap:round;stroke-linejoin:round"></line><line x1="77.91" y1="134.52" x2="90.74" y2="134.52" style="fill:none;stroke:#263238;stroke-linecap:round;stroke-linejoin:round"></line><line x1="77.82" y1="142.3" x2="90.74" y2="142.3" style="fill:none;stroke:#263238;stroke-linecap:round;stroke-linejoin:round"></line><line x1="77.73" y1="150.08" x2="90.74" y2="150.08" style="fill:none;stroke:#263238;stroke-linecap:round;stroke-linejoin:round"></line><line x1="77.65" y1="157.87" x2="90.74" y2="157.87" style="fill:none;stroke:#263238;stroke-linecap:round;stroke-linejoin:round"></line><line x1="77.56" y1="165.65" x2="90.74" y2="165.65" style="fill:none;stroke:#263238;stroke-linecap:round;stroke-linejoin:round"></line><line x1="77.47" y1="173.43" x2="90.74" y2="173.43" style="fill:none;stroke:#263238;stroke-linecap:round;stroke-linejoin:round"></line><line x1="77.39" y1="181.21" x2="90.74" y2="181.21" style="fill:none;stroke:#263238;stroke-linecap:round;stroke-linejoin:round"></line><line x1="77.3" y1="189" x2="90.74" y2="189" style="fill:none;stroke:#263238;stroke-linecap:round;stroke-linejoin:round"></line><line x1="77.21" y1="196.78" x2="90.74" y2="196.78" style="fill:none;stroke:#263238;stroke-linecap:round;stroke-linejoin:round"></line><line x1="77.13" y1="204.56" x2="90.74" y2="204.56" style="fill:none;stroke:#263238;stroke-linecap:round;stroke-linejoin:round"></line><line x1="77.04" y1="212.34" x2="90.74" y2="212.34" style="fill:none;stroke:#263238;stroke-linecap:round;stroke-linejoin:round"></line><line x1="76.95" y1="220.13" x2="90.74" y2="220.13" style="fill:none;stroke:#263238;stroke-linecap:round;stroke-linejoin:round"></line><line x1="78.77" y1="118.41" x2="78.77" y2="289.32" style="fill:none;stroke:#263238;stroke-linecap:round;stroke-linejoin:round;stroke-width:0.5px"></line><line x1="80.8" y1="118.41" x2="80.8" y2="289.32" style="fill:none;stroke:#263238;stroke-linecap:round;stroke-linejoin:round;stroke-width:0.5px"></line><line x1="82.83" y1="118.41" x2="82.83" y2="289.32" style="fill:none;stroke:#263238;stroke-linecap:round;stroke-linejoin:round;stroke-width:0.5px"></line><line x1="84.86" y1="118.41" x2="84.86" y2="289.32" style="fill:none;stroke:#263238;stroke-linecap:round;stroke-linejoin:round;stroke-width:0.5px"></line><line x1="86.89" y1="118.41" x2="86.89" y2="289.32" style="fill:none;stroke:#263238;stroke-linecap:round;stroke-linejoin:round;stroke-width:0.5px"></line><line x1="88.92" y1="118.41" x2="88.92" y2="289.32" style="fill:none;stroke:#263238;stroke-linecap:round;stroke-linejoin:round;stroke-width:0.5px"></line><rect x="74.51" y="137.03" width="10.23" height="5.12" rx="1.72" style="fill:#b2b2b2;stroke:#263238;stroke-linecap:round;stroke-linejoin:round"></rect><rect x="87.04" y="142.56" width="10.23" height="5.12" rx="1.72" transform="translate(237.28 52.96) rotate(90)" style="fill:#b2b2b2;stroke:#263238;stroke-linecap:round;stroke-linejoin:round"></rect><rect x="73.2" y="142.24" width="10.24" height="5.12" rx="1.72" style="fill:#b2b2b2;stroke:#263238;stroke-linecap:round;stroke-linejoin:round"></rect><rect x="71.74" y="147.45" width="10.23" height="5.12" rx="1.72" style="fill:#b2b2b2;stroke:#263238;stroke-linecap:round;stroke-linejoin:round"></rect><rect x="73.71" y="152.65" width="9.85" height="5.12" rx="1.72" style="fill:#b2b2b2;stroke:#263238;stroke-linecap:round;stroke-linejoin:round"></rect></g></svg>