<svg xmlns="http://www.w3.org/2000/svg" viewBox="0 0 500 500"><g id="background-complete"><rect x="243.02" y="102.45" width="31.85" height="54.89" transform="translate(517.89 259.79) rotate(180)" style="fill:#ebebeb"></rect><rect x="154.17" y="89.69" width="25.15" height="68.52" transform="translate(333.49 247.9) rotate(180)" style="fill:#ebebeb"></rect><path d="M153.88,94.64c0-.21,5.75-.38,12.84-.38s12.85.17,12.85.38-5.75.38-12.85.38S153.88,94.85,153.88,94.64Z" style="fill:#fafafa"></path><path d="M155.27,97.89c0-.21,5.44-.38,12.15-.38s12.15.17,12.15.38-5.44.38-12.15.38S155.27,98.1,155.27,97.89Z" style="fill:#fafafa"></path><path d="M166,144.7c-.21,0-.38-9.08-.38-20.27s.17-20.27.38-20.27.38,9.07.38,20.27S166.24,144.7,166,144.7Z" style="fill:#fafafa"></path><path d="M154.17,151c0-.21,5.52-.38,12.31-.38s12.32.17,12.32.38-5.52.38-12.32.38S154.17,151.18,154.17,151Z" style="fill:#fafafa"></path><path d="M154.17,153.91c0-.21,5.65-.38,12.62-.38s12.62.17,12.62.38-5.65.38-12.62.38S154.17,154.12,154.17,153.91Z" style="fill:#fafafa"></path><rect x="179.31" y="82.28" width="20.2" height="75.93" transform="translate(378.82 240.49) rotate(180)" style="fill:#e0e0e0"></rect><path d="M179.18,117.15a19.49,19.49,0,0,1,3.12,2.17l7.29,5.53,7.28,5.54a20,20,0,0,1,2.93,2.44,18.75,18.75,0,0,1-3.24-2c-1.94-1.32-4.58-3.21-7.43-5.37s-5.37-4.2-7.16-5.72A17,17,0,0,1,179.18,117.15Z" style="fill:#fafafa"></path><path d="M179.09,105.27c.14-.16,4.77,3.58,10.34,8.35s10,8.78,9.84,8.94-4.76-3.58-10.34-8.36S179,105.43,179.09,105.27Z" style="fill:#fafafa"></path><rect x="91.5" y="85.93" width="9.66" height="72.33" transform="translate(192.67 244.2) rotate(180)" style="fill:#ebebeb"></rect><path d="M91.9,95.79c0,.25,2,.45,4.53.45S101,96,101,95.79s-2-.46-4.53-.46S91.9,95.54,91.9,95.79Z" style="fill:#fafafa"></path><path d="M91.71,94.21c0,.25,2,.46,4.52.46s4.53-.21,4.53-.46-2-.45-4.53-.45S91.71,94,91.71,94.21Z" style="fill:#fafafa"></path><path d="M91.9,152.67c0,.25,2,.46,4.53.46s4.53-.21,4.53-.46-2-.45-4.53-.45S91.9,152.42,91.9,152.67Z" style="fill:#fafafa"></path><path d="M91.71,151.1c0,.25,2,.45,4.52.45s4.53-.2,4.53-.45-2-.46-4.53-.46S91.71,150.85,91.71,151.1Z" style="fill:#fafafa"></path><path d="M96.63,141.65c.25,0,.45-8.28.45-18.5s-.2-18.51-.45-18.51-.46,8.29-.46,18.51S96.38,141.65,96.63,141.65Z" style="fill:#fafafa"></path><rect x="134.81" y="85.47" width="19.33" height="72.33" transform="translate(288.94 243.27) rotate(180)" style="fill:#e0e0e0"></rect><path d="M148.7,158.73a1.81,1.81,0,0,0,.22-.39c.14-.27.33-.67.55-1.21a21.27,21.27,0,0,0,1.41-4.9,12.88,12.88,0,0,0-1.13-8,10.67,10.67,0,0,0-3.43-3.78,8,8,0,0,0-5.57-1.32,6,6,0,0,0-2.87,1.33,3.83,3.83,0,0,0-1.39,3.06,4.37,4.37,0,0,0,1.65,3.06,6,6,0,0,0,3.3,1.4,8.79,8.79,0,0,0,6.85-2.49,11.05,11.05,0,0,0,3.4-6.95,18.62,18.62,0,0,0-1-8.07,14.89,14.89,0,0,0-4.74-7,7.78,7.78,0,0,0-4.18-1.65,5.45,5.45,0,0,0-4.34,1.54,3.55,3.55,0,0,0-1,2.27,4.14,4.14,0,0,0,.67,2.36,6.24,6.24,0,0,0,3.9,2.66,9.1,9.1,0,0,0,8.51-2.85,14.23,14.23,0,0,0,3.31-8.14,20,20,0,0,0-.83-8.45,11.68,11.68,0,0,0-5-6.42,8.54,8.54,0,0,0-7.68-.8,4,4,0,0,0-2.49,3,4.64,4.64,0,0,0,.87,3.64,6,6,0,0,0,6.52,1.72,11.26,11.26,0,0,0,5.13-3.64,16.46,16.46,0,0,0,3.86-9.92,15.89,15.89,0,0,0-1.79-7.86,15.68,15.68,0,0,0-3-4.1,12,12,0,0,0-1-.87,1.63,1.63,0,0,0-.38-.25,18.26,18.26,0,0,1,4.1,5.38,15.66,15.66,0,0,1,1.6,7.68,16,16,0,0,1-3.84,9.52,10.7,10.7,0,0,1-4.84,3.39,5.33,5.33,0,0,1-5.71-1.5,3.92,3.92,0,0,1-.72-3,3.22,3.22,0,0,1,2.05-2.37,7.78,7.78,0,0,1,6.93.79,10.8,10.8,0,0,1,4.6,6,19.24,19.24,0,0,1,.77,8.06,13.32,13.32,0,0,1-3.1,7.63,8.23,8.23,0,0,1-7.64,2.58,5.4,5.4,0,0,1-3.33-2.26,2.77,2.77,0,0,1,.21-3.53,4.55,4.55,0,0,1,3.62-1.26,6.81,6.81,0,0,1,3.7,1.46,14,14,0,0,1,4.45,6.62,17.63,17.63,0,0,1,1,7.69,10.14,10.14,0,0,1-3.11,6.46,8,8,0,0,1-6.22,2.33c-2.13-.18-4.2-1.8-4.33-3.75a3.13,3.13,0,0,1,1.13-2.51,5.2,5.2,0,0,1,2.54-1.2A7.33,7.33,0,0,1,146,141a10.11,10.11,0,0,1,3.29,3.53,12.5,12.5,0,0,1,1.22,7.67,23.14,23.14,0,0,1-1.22,4.89C148.91,158.15,148.66,158.71,148.7,158.73Z" style="fill:#fafafa"></path><rect x="101.01" y="91.96" width="33.53" height="65.87" transform="translate(235.55 249.79) rotate(180)" style="fill:#fafafa"></rect><path d="M102.16,102.9c0,.26,7.27.46,16.23.46s16.23-.2,16.23-.46-7.27-.45-16.23-.45S102.16,102.65,102.16,102.9Z" style="fill:#e0e0e0"></path><path d="M101.75,107.9c0,.25,7.17.45,16,.45s16-.2,16-.45-7.17-.46-16-.46S101.75,107.65,101.75,107.9Z" style="fill:#e0e0e0"></path><path d="M100.67,150.39c0,.25,7.55.45,16.87.45s16.87-.2,16.87-.45-7.55-.46-16.87-.46S100.67,150.14,100.67,150.39Z" style="fill:#e0e0e0"></path><path d="M101.12,144.52c0,.25,7.36.45,16.44.45s16.44-.2,16.44-.45-7.36-.46-16.44-.46S101.12,144.27,101.12,144.52Z" style="fill:#e0e0e0"></path><rect x="199.49" y="85" width="19.33" height="72.33" transform="translate(418.31 242.34) rotate(180)" style="fill:#ebebeb"></rect><path d="M213.38,158.27a1.8,1.8,0,0,0,.23-.4c.14-.26.32-.67.55-1.2a21,21,0,0,0,1.4-4.91,12.72,12.72,0,0,0-1.13-7.95A10.47,10.47,0,0,0,211,140a8,8,0,0,0-5.57-1.32,5.85,5.85,0,0,0-2.88,1.33,3.8,3.8,0,0,0-1.38,3.05,4.39,4.39,0,0,0,1.65,3.07,6.06,6.06,0,0,0,3.3,1.4,8.8,8.8,0,0,0,6.85-2.5,11,11,0,0,0,3.39-6.95,18.36,18.36,0,0,0-1-8.07,14.92,14.92,0,0,0-4.73-7,7.72,7.72,0,0,0-4.18-1.64,5.4,5.4,0,0,0-4.34,1.54,3.5,3.5,0,0,0-1,2.26,4.24,4.24,0,0,0,.66,2.37,6.33,6.33,0,0,0,3.9,2.66,9.12,9.12,0,0,0,8.52-2.85,14.25,14.25,0,0,0,3.31-8.15,20,20,0,0,0-.83-8.44,11.61,11.61,0,0,0-5-6.42,8.57,8.57,0,0,0-7.68-.81,4.08,4.08,0,0,0-2.5,2.95,4.7,4.7,0,0,0,.88,3.65,6,6,0,0,0,6.51,1.72,11.23,11.23,0,0,0,5.14-3.65,16.39,16.39,0,0,0,3.85-9.92,15.9,15.9,0,0,0-1.78-7.86,15.6,15.6,0,0,0-3-4.09,11.75,11.75,0,0,0-1-.87c-.23-.18-.36-.27-.37-.25a18.1,18.1,0,0,1,4.1,5.37,15.69,15.69,0,0,1,1.59,7.68,15.87,15.87,0,0,1-3.83,9.52,10.62,10.62,0,0,1-4.85,3.4,5.34,5.34,0,0,1-5.71-1.51,3.9,3.9,0,0,1-.71-3,3.22,3.22,0,0,1,2.05-2.36,7.72,7.72,0,0,1,6.93.79,10.86,10.86,0,0,1,4.6,6,19.28,19.28,0,0,1,.77,8.07,13.51,13.51,0,0,1-3.1,7.63,8.23,8.23,0,0,1-7.64,2.57,5.35,5.35,0,0,1-3.33-2.25,2.77,2.77,0,0,1,.21-3.53,4.48,4.48,0,0,1,3.62-1.26,6.91,6.91,0,0,1,3.7,1.45,14.07,14.07,0,0,1,4.45,6.62,17.67,17.67,0,0,1,1,7.69,10.24,10.24,0,0,1-3.11,6.47,8,8,0,0,1-6.22,2.33c-2.13-.18-4.2-1.8-4.33-3.75a3.12,3.12,0,0,1,1.13-2.52,5.28,5.28,0,0,1,2.54-1.19,7.35,7.35,0,0,1,5.14,1.16,10.08,10.08,0,0,1,3.3,3.54,12.5,12.5,0,0,1,1.22,7.67A23,23,0,0,1,214,156.6C213.59,157.69,213.35,158.25,213.38,158.27Z" style="fill:#fafafa"></path><rect x="64.65" y="81.35" width="26.86" height="75.98" transform="translate(156.15 238.69) rotate(180)" style="fill:#e0e0e0"></rect><rect x="218.82" y="89.69" width="25.12" height="67.65" transform="translate(462.76 247.03) rotate(180)" style="fill:#e0e0e0"></rect><path d="M244.57,123.43a21.18,21.18,0,0,0,4,2.84,14,14,0,0,0,5.06,1.4,13,13,0,0,0,6.27-1.09c2.12-.91,4.06-2.07,6-2.75a9.47,9.47,0,0,1,5.47-.5,5.8,5.8,0,0,1,3.17,1.92,2.38,2.38,0,0,1,.63,1.21c-.07,0-.26-.42-.85-1a5.91,5.91,0,0,0-3.07-1.59,9.22,9.22,0,0,0-5.11.63c-1.88.69-3.78,1.85-6,2.79a13.22,13.22,0,0,1-6.63,1.09,13.71,13.71,0,0,1-5.24-1.62,11.54,11.54,0,0,1-2.92-2.25A3.64,3.64,0,0,1,244.57,123.43Z" style="fill:#fafafa"></path><path d="M244,130.12a20.85,20.85,0,0,0,4,2.84,13.88,13.88,0,0,0,5.05,1.4,13,13,0,0,0,6.27-1.09c2.12-.9,4.06-2.07,6-2.75a9.59,9.59,0,0,1,5.48-.5A5.87,5.87,0,0,1,274,132a2.3,2.3,0,0,1,.62,1.21c-.06,0-.25-.42-.84-1a6,6,0,0,0-3.07-1.6,9.36,9.36,0,0,0-5.12.64c-1.87.68-3.78,1.85-6,2.79a13.33,13.33,0,0,1-6.63,1.08,13.71,13.71,0,0,1-5.24-1.62,11.63,11.63,0,0,1-2.93-2.24A3.59,3.59,0,0,1,244,130.12Z" style="fill:#fafafa"></path><path d="M244.42,108.46c0-.22,6.92-.39,15.44-.39s15.45.17,15.45.39-6.91.38-15.45.38S244.42,108.67,244.42,108.46Z" style="fill:#fafafa"></path><path d="M233,100.59a3.65,3.65,0,0,0-2.18-.18,2.59,2.59,0,0,0-1.7,1.41,2.43,2.43,0,0,0,3.11,3,2.65,2.65,0,0,0,1.35-1.76,3.61,3.61,0,0,0-.27-2.17s.25.09.48.47a2.69,2.69,0,0,1,.32,1.81,3.13,3.13,0,0,1-1.56,2.28,3.09,3.09,0,0,1-4.08-3.92,3.1,3.1,0,0,1,2.22-1.65,2.78,2.78,0,0,1,1.83.25C232.94,100.35,233.07,100.56,233,100.59Z" style="fill:#fafafa"></path><path d="M231.42,150.57c-.21,0-.39-9.49-.39-21.18s.18-21.18.39-21.18.38,9.48.38,21.18S231.63,150.57,231.42,150.57Z" style="fill:#fafafa"></path><rect x="41.15" y="156.95" width="259.96" height="14.84" style="fill:#ebebeb"></rect><rect x="278.41" y="156.95" width="22.7" height="14.84" style="fill:#e0e0e0"></rect><path d="M428,340.8c7-3.59,15.15-4.06,22.87-2.78,4.15.68,8.48,1.92,11.3,5s3.36,8.6.12,11.28c-1.93,1.6-4.62,1.84-7.12,1.81-6.05-.07-12.76-1.14-17.59,2.5-2.76,2.08-4.59,5.53-7.88,6.55s-6.87-.91-8.58-3.81-1.76-6.55-1-9.83A15,15,0,0,1,428,340.8Z" style="fill:#ebebeb"></path><path d="M412,310c4.26,6.07,12.53,4.06,16.36.35s5.45-9.08,6.93-14.21c3.37-11.71,6.77-24,4.26-35.92a20,20,0,0,0-4.59-9.77c-2.5-2.64-6.36-4.21-9.88-3.28-4.17,1.1-6.76,5.18-8.63,9.06A85.54,85.54,0,0,0,408,293c0,5.92.67,12.13,4,17" style="fill:#ebebeb"></path><path d="M400.35,318.75c4.62-5.49,5.5-13.48,3.44-20.35s-6.7-12.71-12.05-17.48a64.89,64.89,0,0,0-21.58-12.73,23,23,0,0,0-9.7-1.65c-3.29.32-6.61,2-8.14,4.93-2.27,4.33-.1,9.58,2.26,13.87a164.73,164.73,0,0,0,14.17,21.58c4.25,5.48,9.11,10.88,15.59,13.35s13.2,2.19,16.63-2.3" style="fill:#ebebeb"></path><path d="M411.75,401.68a13.75,13.75,0,0,0,.38-2.76c.2-2,.44-4.53.73-7.53a109.11,109.11,0,0,1,1.7-11.06,85.08,85.08,0,0,1,4-13,47.52,47.52,0,0,1,6.66-11.8,24.73,24.73,0,0,1,8.42-7,23.49,23.49,0,0,1,7.09-2.21,13,13,0,0,0,2.75-.4,12.89,12.89,0,0,0-2.8,0,21.48,21.48,0,0,0-7.39,1.92,25,25,0,0,0-8.89,7.06,47.35,47.35,0,0,0-6.9,12,79.54,79.54,0,0,0-4,13.26,92.48,92.48,0,0,0-1.47,11.19c-.24,3.2-.33,5.79-.37,7.58A12.65,12.65,0,0,0,411.75,401.68Z" style="fill:#e0e0e0"></path><path d="M412.26,395.88a5.09,5.09,0,0,0,.08-1.28c0-1,0-2.17,0-3.66,0-3.18,0-7.78.16-13.46.28-11.36,1.26-23.59,3.15-40.83,1.79-16.22,4.19-35.08,6.73-47.35.54-2.79,1.09-5.3,1.6-7.5s.91-4.1,1.32-5.64.63-2.62.86-3.56a5.3,5.3,0,0,0,.22-1.26,5.34,5.34,0,0,0-.45,1.2l-1.06,3.51c-.47,1.52-.95,3.41-1.51,5.61s-1.18,4.69-1.77,7.47a416.06,416.06,0,0,0-7.07,43.93c-1.9,17.28-2.75,33-2.82,44.4-.07,5.7.05,10.31.2,13.49.09,1.49.16,2.7.22,3.66A5.89,5.89,0,0,0,412.26,395.88Z" style="fill:#e0e0e0"></path><path d="M412.34,365.54a23.25,23.25,0,0,0,0-3.82,103.37,103.37,0,0,0-1.17-10.37,136.61,136.61,0,0,0-3.37-15.11,123.68,123.68,0,0,0-6.32-17.87c-5.24-12.43-12.35-22.59-18.55-28.89a47.09,47.09,0,0,0-4.36-4.05c-.67-.57-1.26-1.13-1.87-1.58L375,282.68a24.55,24.55,0,0,0-3.22-2.06c-.18.25,4.56,3,10.56,9.42s12.89,16.46,18.09,28.78a140.77,140.77,0,0,1,6.35,17.71,152.45,152.45,0,0,1,3.59,15c.79,4.31,1.25,7.83,1.52,10.26A24.52,24.52,0,0,0,412.34,365.54Z" style="fill:#e0e0e0"></path><polygon points="383.02 419.06 386.06 460.71 439.56 460.71 442.6 419.06 383.02 419.06" style="fill:#e0e0e0"></polygon><rect x="377.85" y="402.65" width="71.14" height="16.42" style="fill:#e0e0e0"></rect><polygon points="377.85 459.12 377.85 463.67 381.19 463.67 447.81 463.67 447.81 459.12 377.85 459.12" style="fill:#ebebeb"></polygon><polygon points="384.47 471.68 381.19 463.67 445.26 463.67 441.44 471.68 384.47 471.68" style="fill:#e0e0e0"></polygon><path d="M441.61,432.67a1.79,1.79,0,0,1-.25.39l-.8,1.06-3.12,4-.14.17-.13-.18-7.66-10.59H430c-2.27,3.22-4.81,6.82-7.54,10.67l-.23.34-.27-.32L413,427.56h.52l-.5.62-8,10-.27.33-.24-.34-7.55-10.68.44,0c-3.71,4.24-6.87,7.83-9.29,10.59l-.16.19-.13-.22-2.91-4.88-.74-1.3a2,2,0,0,1-.23-.47,2.13,2.13,0,0,1,.31.41l.83,1.26,3.05,4.79-.29,0L397,427.17l.23-.27.21.29L405,437.81h-.51l8-10,.5-.62.25-.32.26.32,8.92,10.66-.5,0,7.61-10.63.23-.31.21.31,7.5,10.71h-.27l3.24-3.89.87-1A3.27,3.27,0,0,1,441.61,432.67Z" style="fill:#f5f5f5"></path><path d="M443.35,418.79c0,.18-13.41.33-29.94.33s-30-.15-30-.33,13.41-.34,30-.34S443.35,418.6,443.35,418.79Z" style="fill:#f5f5f5"></path><path d="M446.05,464.12c0,.18-14.57.33-32.54.33S381,464.3,381,464.12s14.56-.33,32.54-.33S446.05,463.93,446.05,464.12Z" style="fill:#f5f5f5"></path><path d="M277.19,72.22l6.13-1.76s1.48,5.15,6.86,3.7a5.17,5.17,0,0,0,3.9-4.54,5.72,5.72,0,0,0-1.87-4.85c-1.53-1.41-4.26-2.32-8.18-.4l-4-13.83,6.06-1.74,2.33,8.1A12.33,12.33,0,0,1,300.28,66c2.57,9-4.87,13.36-8.32,14.35C289.33,81.13,280.18,83.07,277.19,72.22Z" style="fill:#ebebeb"></path><rect x="278.28" y="40.95" width="6.4" height="5.98" transform="translate(-1.2 79.37) rotate(-16.02)" style="fill:#ebebeb"></rect><path d="M453.11,159.51l-5.58-3.09s2.59-4.69-2.23-7.47a5.14,5.14,0,0,0-6,.46,5.7,5.7,0,0,0-2.11,4.74c.08,2.08,1.37,4.65,5.5,6.07l-7,12.59-5.52-3.06,4.09-7.37a12.31,12.31,0,0,1-1.91-14.82c4.52-8.16,12.89-6,16-4.27C450.83,144.62,458.67,149.72,453.11,159.51Z" style="fill:#ebebeb"></path><rect x="426.88" y="173.48" width="6.4" height="5.98" transform="translate(720.79 539.24) rotate(-151.02)" style="fill:#ebebeb"></rect><polygon points="54.59 418.89 62.41 470.31 107.87 470.31 118.42 419.63 54.59 418.89" style="fill:#ebebeb"></polygon><path d="M112.06,451.84c0,.15-11.65.27-26,.27s-26-.12-26-.27,11.65-.27,26-.27S112.06,451.69,112.06,451.84Z" style="fill:#fafafa"></path><path d="M112.24,449.31c0,.15-11.73.27-26.19.27s-26.19-.12-26.19-.27,11.72-.26,26.19-.26S112.24,449.16,112.24,449.31Z" style="fill:#fafafa"></path><path d="M112.15,446.46c0,.14-11.73.26-26.19.26s-26.19-.12-26.19-.26,11.72-.27,26.19-.27S112.15,446.31,112.15,446.46Z" style="fill:#fafafa"></path><path d="M67.63,467.37a41.35,41.35,0,0,1-1.39-6.47,40,40,0,0,1-.87-6.57,42,42,0,0,1,1.39,6.48A40.06,40.06,0,0,1,67.63,467.37Z" style="fill:#fafafa"></path><path d="M70.72,466.83a51.08,51.08,0,0,1-.56-6.32,49.5,49.5,0,0,1-.3-6.34,29.57,29.57,0,0,1,.83,6.3A30.08,30.08,0,0,1,70.72,466.83Z" style="fill:#fafafa"></path><path d="M76.36,466.82a51.77,51.77,0,0,1-1.53-13.05,186.15,186.15,0,0,1,1.53,13.05Z" style="fill:#fafafa"></path><path d="M80.32,467.09a52.57,52.57,0,0,1-.43-13.18,56.83,56.83,0,0,1,.33,6.59A58.66,58.66,0,0,1,80.32,467.09Z" style="fill:#fafafa"></path><path d="M87.32,466.83a37.08,37.08,0,0,1-.48-6.25,35.78,35.78,0,0,1,.06-6.26,37.43,37.43,0,0,1,.47,6.24A36.64,36.64,0,0,1,87.32,466.83Z" style="fill:#fafafa"></path><path d="M92.44,467.1a38.48,38.48,0,0,1-.22-6.46,39.1,39.1,0,0,1,.32-6.46,39.1,39.1,0,0,1,.21,6.46A39.83,39.83,0,0,1,92.44,467.1Z" style="fill:#fafafa"></path><path d="M97.23,466.41a44.31,44.31,0,0,1,.39-6.75,42.08,42.08,0,0,1,.92-6.7,44.35,44.35,0,0,1-.39,6.75A42.56,42.56,0,0,1,97.23,466.41Z" style="fill:#fafafa"></path><path d="M103.42,465.74a23.06,23.06,0,0,1,.76-5.75,23.35,23.35,0,0,1,1.69-5.54,47.92,47.92,0,0,1-1.17,5.66A52.88,52.88,0,0,1,103.42,465.74Z" style="fill:#fafafa"></path><path d="M49.37,408.7v9.63a3.78,3.78,0,0,0,3.79,3.78H119a3.79,3.79,0,0,0,3.79-3.78V408.7Z" style="fill:#ebebeb"></path><polyline points="116.36 429.51 117.9 422.11 55.08 422.11 55.62 425.18" style="fill:#e0e0e0"></polyline><path d="M59.28,408.75s-25.59-29.5-22.75-30.57,25.59,15.29,25.59,15.29-19.54-43.72-15.63-46.92S71,385.29,71,385.29s-3.2-61.13,0-61.84,14.93,61.13,14.93,61.13,17.42-56.51,22.39-56.51S103,382.45,103,382.45s20.62-34.83,23.82-30.21-14.58,42.29-14.58,42.29,26-21.68,27-18.83-28.08,33.05-28.08,33.05Z" style="fill:#f5f5f5"></path><path d="M55.71,364.32c.18-.08,4.72,9.65,10.14,21.74s9.67,21.94,9.5,22-4.72-9.65-10.14-21.74S55.53,364.4,55.71,364.32Z" style="fill:#e0e0e0"></path><path d="M76.38,369.76c.2,0,1,8.56,1.69,19.16s1.18,19.19,1,19.2-.94-8.56-1.68-19.16S76.19,369.77,76.38,369.76Z" style="fill:#e0e0e0"></path><path d="M104.9,342.38a2.33,2.33,0,0,1-.15.69c-.15.52-.33,1.17-.56,1.95-.54,1.78-1.26,4.19-2.14,7.12-1.8,6-4.23,14.34-6.7,23.59s-4.52,17.69-5.95,23.8c-.69,3-1.27,5.43-1.69,7.24-.19.79-.35,1.44-.48,2a2.93,2.93,0,0,1-.21.67,2.32,2.32,0,0,1,.07-.7c.1-.54.21-1.19.35-2,.32-1.73.82-4.22,1.48-7.3,1.31-6.14,3.28-14.6,5.75-23.87s5-17.58,6.91-23.56c1-3,1.76-5.4,2.35-7.06.28-.76.5-1.39.69-1.9A2.81,2.81,0,0,1,104.9,342.38Z" style="fill:#e0e0e0"></path><path d="M117.23,373.89c.16.11-4.83,7.56-11.15,16.64S94.5,406.87,94.34,406.76s4.84-7.56,11.16-16.63S117.08,373.78,117.23,373.89Z" style="fill:#e0e0e0"></path><path d="M67.92,408.13a10,10,0,0,1-2.24-1.6,62.15,62.15,0,0,1-4.87-4.5,59.8,59.8,0,0,1-4.37-5,9.09,9.09,0,0,1-1.54-2.28c.16-.13,2.82,3.1,6.41,6.77S68.05,408,67.92,408.13Z" style="fill:#e0e0e0"></path><path d="M83.46,396.41c.19,0,.6,2.7.91,6.08s.4,6.13.21,6.15-.6-2.71-.91-6.08S83.27,396.42,83.46,396.41Z" style="fill:#e0e0e0"></path></g><g id="background-simple"><path d="M439.66,192.13a145.51,145.51,0,0,0-30.79-89.4c-16.32-20.84-43-31.71-68.48-34.2-29.07-2.83-66.87,9.88-86.06,32.61-17.55,20.8-20.22,53.21-41.72,69.64-12.56,9.6-29.08,11.56-44.7,11.43s-31.42-2-46.72,1.27C86.32,190.91,60,226.77,60.34,263.29a109.92,109.92,0,0,0,7.91,40.12c12.82,32,40.19,56,73.32,65.64,56.32,16.37,119.94,30.15,173.69,13.59,36-11.09,65.49-29.36,95.56-72.18C432.82,279.13,439.64,230.66,439.66,192.13Z" style="fill:#ebebeb"></path></g><g id="choice-2"><path d="M381.77,263.42a15.63,15.63,0,0,0-13.16-17.84,1.54,1.54,0,0,0-1.12.13,1.59,1.59,0,0,0-.42,1.5,18.89,18.89,0,0,0,14.69,16.66" style="fill:#455a64"></path><path d="M359.88,292.25c3.94,8.12,9.61,13.6,16.62,13.86,1.41.05,2.47-.87,3.81-.95a8.88,8.88,0,0,1,2.24.84,3.13,3.13,0,0,0,1.17.27c7.25-.39,13.43-5.49,17.59-14,5.8-11.95,4-24.78-4-28.68a19.4,19.4,0,0,0-3.28-1.28,13.38,13.38,0,0,0-4-.46,29.73,29.73,0,0,0-9.09,2.06l-.39.14c-6.5-2.87-11.7-2.89-16.73-.46C355.86,267.47,354.08,280.3,359.88,292.25Z" style="fill:#FF725E"></path><path d="M360,280.15a6.09,6.09,0,0,1-.66-2.4,12.78,12.78,0,0,1,.71-6,13,13,0,0,1,3.34-5,6.09,6.09,0,0,1,2.07-1.39c.06.08-.74.59-1.79,1.67a14,14,0,0,0-3.94,10.66C359.85,279.21,360.12,280.12,360,280.15Z" style="fill:#fafafa"></path><path d="M361.49,285.83c-.15,0-.41-.53-.57-1.26s-.19-1.35,0-1.38.41.53.57,1.26S361.64,285.79,361.49,285.83Z" style="fill:#fafafa"></path><path d="M398.3,243.88c.05.1-1.49.67-3.75,2a30.81,30.81,0,0,0-3.75,2.67,33.3,33.3,0,0,0-3.95,4,32.94,32.94,0,0,0-3.14,4.67,30.81,30.81,0,0,0-1.88,4.2c-.87,2.48-1.13,4.1-1.24,4.08a4.42,4.42,0,0,1,.13-1.14,11.78,11.78,0,0,1,.26-1.33c.14-.51.26-1.1.48-1.73a27.28,27.28,0,0,1,1.8-4.32,31,31,0,0,1,3.16-4.78,30.29,30.29,0,0,1,4.06-4,26.25,26.25,0,0,1,3.88-2.62c.57-.34,1.12-.58,1.6-.81a13.45,13.45,0,0,1,1.24-.53A4.63,4.63,0,0,1,398.3,243.88Z" style="fill:#263238"></path><path d="M353.48,215.11a96,96,0,0,1,5.51,8.34,94.81,94.81,0,0,1,5.08,8.62,95.83,95.83,0,0,1-5.52-8.35A96.74,96.74,0,0,1,353.48,215.11Z" style="fill:#263238"></path><path d="M348,202.36c0-.15.77,0,1.06.84s-.13,1.41-.25,1.32,0-.58-.24-1.14S347.91,202.5,348,202.36Z" style="fill:#263238"></path><path d="M369.78,190.84c.14,0,1.39,8.55,2.8,19.14s2.42,19.2,2.28,19.22-1.4-8.55-2.8-19.15S369.63,190.85,369.78,190.84Z" style="fill:#263238"></path><path d="M401.46,208.52c.13.06-1.92,5.21-4.59,11.51s-4.93,11.35-5.07,11.3,1.92-5.21,4.59-11.51S401.33,208.47,401.46,208.52Z" style="fill:#263238"></path><path d="M405.69,199.42c.13.06,0,.59-.2,1.18s-.56,1-.69,1,0-.58.2-1.17S405.55,199.37,405.69,199.42Z" style="fill:#263238"></path><path d="M428.22,221.51c.08.12-5.71,4.19-12.92,9.1s-13.13,8.79-13.21,8.68,5.7-4.2,12.92-9.11S428.14,221.39,428.22,221.51Z" style="fill:#263238"></path><path d="M417.39,244.68a31.43,31.43,0,0,1-5.6.43,29.68,29.68,0,0,1-5.62-.1,30.92,30.92,0,0,1,5.6-.42A30.23,30.23,0,0,1,417.39,244.68Z" style="fill:#263238"></path><path d="M357.45,241.25c-.08.12-6-3.63-13.25-8.38s-13.05-8.7-13-8.82,6,3.63,13.25,8.38S357.53,241.13,357.45,241.25Z" style="fill:#263238"></path><path d="M350.94,248.59a28.53,28.53,0,0,1-5.43-.35,29.27,29.27,0,0,1-5.37-.87,28.48,28.48,0,0,1,5.43.35A29.06,29.06,0,0,1,350.94,248.59Z" style="fill:#263238"></path></g><g id="choice-1"><path d="M142,279.21c-.69-1-1.69-1.93-1.95-3.14a19.61,19.61,0,0,1,.07-3.06,4.28,4.28,0,0,0-4.66-3.87c1.41-1.3,1.14-3.82-.27-5.12a5.6,5.6,0,0,0-5.42-.94,8.39,8.39,0,0,0-7.52-13.45,5.38,5.38,0,0,1-1.2,5.87,9.77,9.77,0,0,1-4.7,2.09,14.16,14.16,0,0,0-4.91,1.68,4.24,4.24,0,0,0-2,4.43c-2.87.76-5.85,1.71-7.88,3.88s-2.64,5.93-.53,8a6.42,6.42,0,0,0-1.42,11.46l38.44,6a14.54,14.54,0,0,0,4.71-6.26A8.62,8.62,0,0,0,142,279.21Z" style="fill:#FF725E"></path><polygon points="100.56 306 94.93 283.24 97.75 284.52 100.56 281.85 102.86 284.52 106.23 281.85 109.21 284.52 112.78 281.85 115.96 284.52 120.72 281.85 123.3 284.52 127.66 281.85 130.04 284.52 134.81 281.85 137.62 284.52 141.94 281.85 143.69 284.52 147.7 283.04 139.76 308.76 100.56 306" style="fill:#FF725E"></polygon><polygon points="100.56 306 94.93 283.24 97.75 284.52 100.56 281.85 102.86 284.52 106.23 281.85 109.21 284.52 112.78 281.85 115.96 284.52 120.72 281.85 123.3 284.52 127.66 281.85 130.04 284.52 134.81 281.85 137.62 284.52 141.94 281.85 143.69 284.52 147.7 283.04 139.76 308.76 100.56 306" style="opacity:0.30000000000000004"></polygon><path d="M101.54,306.15c-.14,0-1.1-4.8-2.15-10.77s-1.79-10.84-1.64-10.86,1.1,4.79,2.15,10.77S101.68,306.12,101.54,306.15Z" style="fill:#263238"></path><path d="M104.83,306.31a18.5,18.5,0,0,1-.58-3.19c-.27-2-.59-4.72-.85-7.76s-.4-5.8-.45-7.8a17.74,17.74,0,0,1,0-3.23,21.83,21.83,0,0,1,.33,3.21c.16,2.15.37,4.82.6,7.78s.51,5.62.7,7.76A22.75,22.75,0,0,1,104.83,306.31Z" style="fill:#263238"></path><path d="M109.12,306.6a22.58,22.58,0,0,1-.13-3.21c0-2.14-.08-4.8-.13-7.74s0-5.77,0-7.76a18.15,18.15,0,0,1,.24-3.2,22.44,22.44,0,0,1,.13,3.21c0,2.13.08,4.79.13,7.74s0,5.77,0,7.75A18.35,18.35,0,0,1,109.12,306.6Z" style="fill:#263238"></path><path d="M113.76,307.14c-.14,0,.18-5,.72-11.13s1.09-11.1,1.24-11.09-.18,5-.72,11.14S113.9,307.16,113.76,307.14Z" style="fill:#263238"></path><path d="M119.1,307.14c-.14,0,.58-5.09,1.62-11.33s2-11.26,2.13-11.24-.58,5.1-1.62,11.33S119.24,307.17,119.1,307.14Z" style="fill:#263238"></path><path d="M123.59,307.5c-.14,0,1.25-5.26,3.1-11.66s3.45-11.56,3.59-11.52S129,289.58,127.19,296,123.73,307.54,123.59,307.5Z" style="fill:#263238"></path><path d="M128.88,308c-.13-.05,1.72-5.34,4.14-11.81s4.49-11.68,4.62-11.63-1.71,5.34-4.13,11.81S129,308.05,128.88,308Z" style="fill:#263238"></path><path d="M134.24,308c-.13-.06,1.89-5.26,4.52-11.63s4.86-11.49,5-11.43-1.88,5.26-4.51,11.63S134.38,308.05,134.24,308Z" style="fill:#263238"></path><g style="opacity:0.6000000000000001"><path d="M135.49,269.14c1.41-1.3,1.14-3.82-.27-5.12a5.6,5.6,0,0,0-5.42-.94,8.39,8.39,0,0,0-7.52-13.45,5.38,5.38,0,0,1-1.2,5.87,9.77,9.77,0,0,1-4.7,2.09,14.16,14.16,0,0,0-4.91,1.68,4.24,4.24,0,0,0-2,4.43,26.48,26.48,0,0,0-4.61,1.58,5.18,5.18,0,0,0,4.23,3.86,7.74,7.74,0,0,0,6.25-1.66s-2.66,6.3,3.79,7.9a9.25,9.25,0,0,0,9.78-3.11S134.42,273.73,135.49,269.14Z" style="fill:#fff"></path></g><path d="M115.61,262.27l-.36,0a1.06,1.06,0,1,0,.36,0Z" style="fill:#FF725E"></path><path d="M126.61,266.17h-.36a1.07,1.07,0,1,0,.36,0Z" style="fill:#FF725E"></path><path d="M123,260.41l-.36,0a1.06,1.06,0,1,0,.36,0Z" style="fill:#FF725E"></path><path d="M120.26,267.94h-.35a1.07,1.07,0,1,0,.35,0Z" style="fill:#455a64"></path><path d="M128.64,256.44h-.36a1.08,1.08,0,1,0,.36,0Z" style="fill:#455a64"></path><path d="M132.7,266.93l-.36,0a1.06,1.06,0,1,0,.36,0Z" style="fill:#455a64"></path><path d="M108.19,265.69c0,.09-.77.05-1.92.37a7.32,7.32,0,0,0-3.77,2.51,7.41,7.41,0,0,0-1.48,4.28c0,1.2.2,1.93.12,1.95a3.63,3.63,0,0,1-.49-1.94,7,7,0,0,1,1.44-4.61,7.11,7.11,0,0,1,4.1-2.55A3.64,3.64,0,0,1,108.19,265.69Z" style="fill:#fff"></path><path d="M123.81,252a1.72,1.72,0,0,1,.41.71,4.63,4.63,0,0,1,.25,2.23,5.08,5.08,0,0,1-1.47,3,6.43,6.43,0,0,1-3.76,1.56c-1.43.19-2.78.17-4,.36a6,6,0,0,0-2.9,1.13,4,4,0,0,0-1.28,1.65c-.18.47-.19.76-.24.76a1.42,1.42,0,0,1,0-.82,3.85,3.85,0,0,1,1.24-1.88,6.15,6.15,0,0,1,3.06-1.31c1.23-.23,2.6-.22,4-.4a6.26,6.26,0,0,0,3.5-1.4,4.87,4.87,0,0,0,1.44-2.7A6.11,6.11,0,0,0,123.81,252Z" style="fill:#fff"></path><path d="M121.85,273.17c0,.05-.45.37-1.35.41a3.76,3.76,0,0,1-3.78-4.76c.24-.87.67-1.27.71-1.23s-.22.5-.35,1.3a3.64,3.64,0,0,0,3.42,4.32C121.32,273.27,121.82,273.09,121.85,273.17Z" style="fill:#fff"></path><path d="M131,271.21c0,.13-.89.39-2,.07s-1.72-1-1.62-1.13.8.35,1.76.63S131,271.06,131,271.21Z" style="fill:#fff"></path><path d="M102.1,277.53a15.59,15.59,0,0,0-2.41,1.41,15.77,15.77,0,0,0-1.77,2.17,4.24,4.24,0,0,1,4.18-3.58Z" style="fill:#fff"></path><path d="M108.86,275.07c.1.11-.23.57-.47,1.19s-.34,1.18-.48,1.19-.31-.64,0-1.38S108.78,275,108.86,275.07Z" style="fill:#fff"></path><path d="M92.39,228.13a99.37,99.37,0,0,1,5.52,8.34,97.65,97.65,0,0,1,5.07,8.62,97.38,97.38,0,0,1-5.52-8.34A96,96,0,0,1,92.39,228.13Z" style="fill:#263238"></path><path d="M86.88,215.38c0-.14.76.05,1.05.84s-.13,1.41-.25,1.32,0-.57-.24-1.14S86.82,215.52,86.88,215.38Z" style="fill:#263238"></path><path d="M108.69,203.86c.14,0,1.39,8.55,2.8,19.15s2.42,19.19,2.28,19.21-1.39-8.55-2.8-19.15S108.54,203.88,108.69,203.86Z" style="fill:#263238"></path><path d="M140.37,221.55c.13,0-1.92,5.2-4.59,11.5s-4.93,11.36-5.07,11.3,1.93-5.21,4.59-11.5S140.24,221.49,140.37,221.55Z" style="fill:#263238"></path><path d="M144.6,212.45c.13.05,0,.58-.2,1.17s-.55,1-.69,1,0-.58.21-1.18S144.47,212.39,144.6,212.45Z" style="fill:#263238"></path><path d="M167.13,234.53c.08.12-5.7,4.2-12.92,9.1s-13.13,8.8-13.21,8.68,5.7-4.2,12.92-9.11S167.05,234.41,167.13,234.53Z" style="fill:#263238"></path><path d="M156.3,257.7a29.34,29.34,0,0,1-5.6.43,31.31,31.31,0,0,1-5.62-.09,29.45,29.45,0,0,1,5.6-.43A31.31,31.31,0,0,1,156.3,257.7Z" style="fill:#263238"></path><path d="M96.36,254.27c-.08.12-6-3.63-13.25-8.38s-13-8.7-13-8.82,6,3.63,13.25,8.39S96.44,254.15,96.36,254.27Z" style="fill:#263238"></path><path d="M89.85,261.61a27.47,27.47,0,0,1-5.42-.35,27,27,0,0,1-5.37-.87,29,29,0,0,1,5.42.36A28.4,28.4,0,0,1,89.85,261.61Z" style="fill:#263238"></path></g><g id="Desk"><path d="M460.34,470.28c0,.15-95.52.26-213.33.26s-213.35-.11-213.35-.26S129.16,470,247,470,460.34,470.14,460.34,470.28Z" style="fill:#263238"></path></g><g id="Character"><path d="M305.81,237.91l-4.69-88.49c-.38-7.19-.78-14.48-3-21.33s-6.49-13.34-12.88-16.66-15-2.75-20,2.52l3.47,4.78Q264.47,200,265.11,281.4c0,4.06.16,8.41,2.54,11.7,4,5.52,12.1,5.46,18.9,4.85,5.81-.53,12.41-1.51,15.66-6.36a17.71,17.71,0,0,0,2.35-6.8C307.46,269.39,306.64,253.56,305.81,237.91Z" style="fill:#263238"></path><path d="M257.06,119.08c1.84-4,7.19-5.68,11.42-4.31s7.38,5.08,9.25,9.12a12.31,12.31,0,0,1,1.32,5.29,5.91,5.91,0,0,1-2.31,4.76,5.73,5.73,0,0,1-5.52.3,10,10,0,0,1-4.16-3.88" style="fill:#FF725E"></path><path d="M294.54,171c-1.72-19.1-11.82-37.68-28-48s-38.3-11.34-54.49-1.06c-10.3,6.54-17.7,17-21.95,28.46s-2.41,20.89-2.31,33.08c0,6.32.85,23.3,6.3,26.49l85.09,15.27C290.09,209.43,296.26,190.05,294.54,171Z" style="fill:#263238"></path><path d="M237.48,126c-24.46.25-44.14,20.2-45.31,44.2-1,21-1.59,42.23-.7,49.81,2.68,22.87,23,32.76,29.35,33.32.65.06.39,0,.07,0a.18.18,0,0,1,.08.14l-2.45,26.81c-.55,17.47,16.25,117,34,117.68s24.77-99.16,25.66-116.67l5.32-109.6C284.09,146.58,263.42,125.77,237.48,126Z" style="fill:#ffbe9d"></path><path d="M220.89,253.4s0,0-.07,0C220.06,253.34,220.51,253.38,220.89,253.4Z" style="fill:#ffbe9d"></path><path d="M198.92,186.62a3.68,3.68,0,0,0,3.43,3.83,3.56,3.56,0,0,0,4-3.15,3.66,3.66,0,0,0-3.42-3.83A3.57,3.57,0,0,0,198.92,186.62Z" style="fill:#263238"></path><path d="M198.1,176.51c.22.61,3.61.11,7.2,1.87s5.43,4.72,6,4.5c.28-.09.21-1-.56-2.36a10.72,10.72,0,0,0-4.57-4.1,10.23,10.23,0,0,0-6-1C198.72,175.69,198,176.23,198.1,176.51Z" style="fill:#263238"></path><path d="M237.37,187.89a3.66,3.66,0,0,0,3.42,3.83,3.57,3.57,0,0,0,4-3.15,3.68,3.68,0,0,0-3.43-3.83A3.56,3.56,0,0,0,237.37,187.89Z" style="fill:#263238"></path><path d="M237.48,182.63c.61.28,3-2.42,7.11-3.66s7.73-.4,8-1c.16-.26-.56-.88-2.14-1.29a12.45,12.45,0,0,0-6.6.24,12,12,0,0,0-5.5,3.44C237.38,181.61,237.19,182.51,237.48,182.63Z" style="fill:#263238"></path><path d="M221.72,206.77c0-.22-2.44-.74-6.45-1.4-1-.15-2-.38-2.12-1.08s.26-1.8.81-2.95l3.36-7.53c4.68-10.74,8.11-19.58,7.67-19.76s-4.59,8.38-9.27,19.11c-1.13,2.65-2.21,5.17-3.23,7.58-.44,1.13-1.16,2.4-.71,3.93a2.55,2.55,0,0,0,1.62,1.53,7.21,7.21,0,0,0,1.73.31C219.18,206.88,221.7,207,221.72,206.77Z" style="fill:#263238"></path><path d="M221,253.38s15.41,1.84,35.25-8.84c0,0-7,19.85-35.91,16.06Z" style="fill:#eb996e"></path><path d="M237.13,162.52c.48,1,4.43.2,9.15.37s8.62,1.11,9.17.1c.24-.48-.5-1.43-2.1-2.34a16.16,16.16,0,0,0-14-.35C237.72,161.12,236.92,162,237.13,162.52Z" style="fill:#263238"></path><path d="M198,170.39c.67.92,3.47.1,6.79.19s6.1.83,6.79-.08c.3-.44-.1-1.35-1.3-2.24a10,10,0,0,0-10.93-.09C198.13,169,197.7,170,198,170.39Z" style="fill:#263238"></path><path d="M262.44,181.91c.12.06-.42,1.15-1.67,1.87a3.16,3.16,0,0,1-2.46.56c0-.16,1.07-.33,2.19-1S262.32,181.82,262.44,181.91Z" style="fill:#eb996e"></path><path d="M263.05,186.45c-.06.13-1-.24-2.26-.34a20.74,20.74,0,0,1-2.28,0,3.11,3.11,0,0,1,2.32-.47C262.19,185.7,263.13,186.33,263.05,186.45Z" style="fill:#eb996e"></path><path d="M196.49,184.88c0,.14-.8.12-1.73,0s-1.65-.41-1.63-.55.8-.13,1.72,0S196.51,184.74,196.49,184.88Z" style="fill:#eb996e"></path><path d="M195.68,185.06c.09.11-.33.56-.93,1s-1.16.7-1.24.58.33-.56.93-1S195.6,184.94,195.68,185.06Z" style="fill:#eb996e"></path><path d="M243.56,217a6.26,6.26,0,0,0-2.61-6c0-.05.44,0,1,.41a4.82,4.82,0,0,1,1.63,2,4.77,4.77,0,0,1,.36,2.57C243.84,216.62,243.62,217,243.56,217Z" style="fill:#eb996e"></path><path d="M209.53,127.93a44.63,44.63,0,0,0-18.94,30.56l1.68,10.26c.62-4.71.92-10,5.82-15.13,3.29-3.43,9.38-6.65,15.84-8.29,18.49-4.71,24.72-11.42,32.88-23.5C234.84,118.83,219.75,121,209.53,127.93Z" style="fill:#263238"></path><path d="M289.34,155.05c-5.15-18.53-22-33.24-41-35.88l-1.51,2.66-14,16.42c-1.17,1.36-2.39,2.83-2.65,4.6-.35,2.38,1.12,4.69,3,6.22,4.45,3.64,10.69,3.87,16.44,4s12,.63,16.23,4.57c5.22,4.91,5.11,13.24,3.35,20.19a86.81,86.81,0,0,0-1.72,25.27c.64,6.39,9.09-9.13,14.64-5.91,1.55.9-2.63,26-1,25.2s1.44-9.78,2-11.46c2.85-9.08,5.71-18.2,7.23-27.59S291.89,164.22,289.34,155.05Z" style="fill:#263238"></path><path d="M273.59,203.25c.43-6,7.1-9.93,12.27-6.79,2.84,1.72,5,5.11,4.56,11.52-1.07,17.08-18,12.48-18,12C272.42,219.67,273.09,210.31,273.59,203.25Z" style="fill:#ffbe9d"></path><path d="M278,213.81c.08-.05.29.23.77.5a3,3,0,0,0,2.22.19c1.85-.54,3.56-3.31,3.85-6.38a9.77,9.77,0,0,0-.55-4.31,3.45,3.45,0,0,0-2.09-2.44,1.52,1.52,0,0,0-1.81.7c-.26.46-.17.81-.26.83s-.35-.31-.17-1a1.9,1.9,0,0,1,.75-1,2.27,2.27,0,0,1,1.67-.32,4.19,4.19,0,0,1,2.93,2.85,10.17,10.17,0,0,1,.72,4.83c-.34,3.44-2.32,6.54-4.83,7.09a3.23,3.23,0,0,1-2.69-.63C278,214.23,278,213.84,278,213.81Z" style="fill:#eb996e"></path><path d="M277.91,132.62a55.93,55.93,0,0,1,6.09,8.62,71.64,71.64,0,0,1,5,10.31,73.6,73.6,0,0,1,3.81,13.51,66.13,66.13,0,0,1-.27,25.39,22.71,22.71,0,0,1-.54,2.26c-.2.71-.38,1.38-.55,2a26.46,26.46,0,0,1-1.05,3.16c-.3.82-.55,1.47-.74,2a3.71,3.71,0,0,1-.29.67,4.35,4.35,0,0,1,.2-.71c.16-.51.37-1.17.64-2a32.14,32.14,0,0,0,1-3.17c.16-.63.32-1.3.5-2a19.82,19.82,0,0,0,.51-2.26,67.89,67.89,0,0,0,.12-25.21,76.28,76.28,0,0,0-3.74-13.43,75.35,75.35,0,0,0-4.88-10.3c-.4-.71-.79-1.38-1.15-2s-.78-1.19-1.13-1.74l-1-1.51c-.3-.46-.62-.86-.88-1.23l-1.23-1.7A4.08,4.08,0,0,1,277.91,132.62Z" style="fill:#455a64"></path><path d="M279.56,137.82a1.73,1.73,0,0,1-.09.52,4.52,4.52,0,0,1-.68,1.38,9.43,9.43,0,0,1-4.68,3c-2.26.74-5,1.41-8,2.08a72.18,72.18,0,0,1-10,1.47,48.84,48.84,0,0,1-10.15-.3,38.24,38.24,0,0,1-8.06-2,30.09,30.09,0,0,1-5.05-2.39c-.57-.33-1-.62-1.28-.82s-.43-.31-.42-.33.64.36,1.8,1a35.4,35.4,0,0,0,5.08,2.23,40.27,40.27,0,0,0,8,1.87,51,51,0,0,0,10.05.25,91.24,91.24,0,0,0,18-3.38,9.49,9.49,0,0,0,4.63-2.79A6.59,6.59,0,0,0,279.56,137.82Z" style="fill:#455a64"></path><path d="M276.48,131.92s-.08.14-.28.35a12.14,12.14,0,0,1-.9.91,20.69,20.69,0,0,1-3.79,2.77,30.48,30.48,0,0,1-14.91,3.75,62,62,0,0,1-15.29-2.14c-1.92-.48-3.46-.91-4.52-1.22a11.64,11.64,0,0,1-1.63-.53,12.45,12.45,0,0,1,1.68.33l4.55,1.06a68.24,68.24,0,0,0,15.21,2,31.45,31.45,0,0,0,14.73-3.55A30.56,30.56,0,0,0,276.48,131.92Z" style="fill:#455a64"></path><path d="M273,130a6.22,6.22,0,0,1-1.21.41c-.79.25-1.95.54-3.39.84a54.91,54.91,0,0,1-22.88-.13c-1.44-.32-2.59-.62-3.37-.88a5.35,5.35,0,0,1-1.21-.43,6.22,6.22,0,0,1,1.26.24c.8.19,2,.44,3.4.71a62.32,62.32,0,0,0,22.73.13c1.44-.25,2.61-.49,3.41-.67A5.23,5.23,0,0,1,273,130Z" style="fill:#455a64"></path><path d="M250.19,115.47a6.35,6.35,0,0,1-.42,1.22,34.83,34.83,0,0,1-1.44,3.19,47.48,47.48,0,0,1-15,17.36,35,35,0,0,1-2.95,1.89,6.24,6.24,0,0,1-1.15.58,5.94,5.94,0,0,1,1-.76c.69-.45,1.67-1.13,2.84-2A52.76,52.76,0,0,0,248,119.71c.71-1.29,1.24-2.35,1.59-3.1A5.4,5.4,0,0,1,250.19,115.47Z" style="fill:#455a64"></path><path d="M189.49,152.15s.08-.16.29-.44.51-.69.93-1.2a55.48,55.48,0,0,1,3.73-4.16,44.83,44.83,0,0,1,6.34-5.36,39,39,0,0,1,4.23-2.51,35.58,35.58,0,0,1,4.88-2,45.53,45.53,0,0,1,18.27-2,41,41,0,0,1,5.52.9c.64.14,1.13.29,1.47.38a2,2,0,0,1,.5.18s-.72-.12-2-.36a48.75,48.75,0,0,0-5.51-.73A47.36,47.36,0,0,0,210.05,137a39.44,39.44,0,0,0-15.35,9.64c-1.68,1.64-3,3-3.83,4l-1,1.14C189.63,152,189.5,152.17,189.49,152.15Z" style="fill:#455a64"></path><path d="M202.31,133.8a9,9,0,0,1,1.31-.87,17,17,0,0,1,1.59-.9c.64-.33,1.35-.73,2.19-1.07a27.54,27.54,0,0,1,2.73-1.12c1-.4,2.08-.71,3.22-1.06a43.81,43.81,0,0,1,15.4-1.51c1.19.12,2.32.22,3.36.41s2,.36,2.9.57,1.66.43,2.35.63a16,16,0,0,1,1.74.58,9.58,9.58,0,0,1,1.45.59,8.27,8.27,0,0,1-1.51-.4c-.48-.15-1.06-.33-1.76-.49s-1.47-.4-2.35-.55-1.84-.37-2.88-.5-2.16-.25-3.34-.36a49.82,49.82,0,0,0-7.68.11,50.32,50.32,0,0,0-7.55,1.38c-1.13.34-2.22.63-3.2,1s-1.91.71-2.73,1-1.56.7-2.2,1-1.19.58-1.63.82A9.52,9.52,0,0,1,202.31,133.8Z" style="fill:#455a64"></path><path d="M287.11,218.11c.32-.17.82,0,1.4.62a6.51,6.51,0,0,1,1.54,3.21,7.44,7.44,0,0,1,0,2.68,7.32,7.32,0,0,1-1.29,3.07,7.45,7.45,0,0,1-2.92,2.4,6.49,6.49,0,0,1-4.43.41,6.76,6.76,0,0,1-3.61-2.46,7.68,7.68,0,0,1-1.47-3.45,7.56,7.56,0,0,1,1.43-5.66,6.69,6.69,0,0,1,2.74-2.24c.77-.31,1.31-.27,1.53,0,.47.57-.48,2-1,4a5,5,0,0,0,0,2.93,2.93,2.93,0,0,0,1.73,1.89,1.85,1.85,0,0,0,1.08-.06,3.69,3.69,0,0,0,1.21-.75,4.55,4.55,0,0,0,1.29-2.57C286.74,220.11,286.45,218.44,287.11,218.11Z" style="fill:#FF725E"></path><path d="M234.73,218a7.27,7.27,0,0,0-2.54-3.37,6.1,6.1,0,0,0-9.43,6.41l-.24.28a1.64,1.64,0,0,0,.34,1.86,4.35,4.35,0,0,0,1.74,1,12.27,12.27,0,0,0,5.8,1,5.44,5.44,0,0,0,4.55-3.32A5.69,5.69,0,0,0,234.73,218Z" style="fill:#FF725E"></path><path d="M236.2,216.43c0,.46-3.41.86-7.3,2.38s-6.71,3.48-7,3.13c-.13-.16.42-.89,1.54-1.8a18.89,18.89,0,0,1,10.41-4C235.3,216.06,236.19,216.23,236.2,216.43Z" style="fill:#263238"></path><path d="M219,275l-53.27,10.89c-6.89.7-21.38,11.07-25.24,16.82-23.67,35.21-16.1,125.84-16.1,127l66.94-42.8Z" style="fill:#455a64"></path><path d="M164.05,286.75,219,275s19.48,112.77,33.52,112.5,35-119.86,35-119.86l49.71,16.13s-9.71,83.07-12,97.88-5.73,88.63-5.73,88.63L193.68,470s-2.09-57.77-10.44-86.24S164.05,286.75,164.05,286.75Z" style="fill:#455a64"></path><path d="M284,269.22l52.89,12.59c6.87.92,21,11.75,24.7,17.62,22.53,35.94,12.07,126.29,12,127.45L308.08,382Z" style="fill:#455a64"></path><path d="M265.58,403.37a2.54,2.54,0,0,1-.41.48l-1.26,1.32c-1.1,1.14-2.73,2.74-4.78,4.69-4.1,3.91-9.94,9.12-16.72,14.47s-13.23,9.8-18,12.87c-2.38,1.53-4.33,2.74-5.69,3.54l-1.57.92a2.47,2.47,0,0,1-.57.29,4.14,4.14,0,0,1,.51-.38l1.52-1c1.33-.85,3.25-2.11,5.59-3.68,4.7-3.14,11.09-7.64,17.86-13s12.64-10.49,16.8-14.32c2.08-1.92,3.74-3.48,4.89-4.58l1.33-1.24A3.17,3.17,0,0,1,265.58,403.37Z" style="fill:#263238"></path><path d="M267.61,372.59a1.76,1.76,0,0,1-.1.4c-.09.28-.21.67-.37,1.15-.33,1-.84,2.5-1.53,4.4s-1.56,4.22-2.62,6.89c-.53,1.33-1.12,2.75-1.76,4.25a28.53,28.53,0,0,1-2.3,4.64,7.9,7.9,0,0,1-.83,1.12,6.87,6.87,0,0,1-1,1,5.42,5.42,0,0,1-2.66,1.3,6.15,6.15,0,0,1-5.56-2.43,44.45,44.45,0,0,1-7.57-11.28,112,112,0,0,1-5.42-14c-1.62-4.95-3.27-10.07-4.84-15.36-6.38-21.13-10.93-40.61-13.78-54.79-1.44-7.08-2.44-12.85-3.14-16.83-.31-2-.56-3.52-.74-4.59q-.1-.76-.18-1.2a1.81,1.81,0,0,1,0-.41,2.09,2.09,0,0,1,.09.4l.24,1.19c.19,1.07.47,2.61.83,4.58.76,4,1.82,9.72,3.3,16.79,2.94,14.15,7.54,33.59,13.91,54.71,1.58,5.28,3.23,10.4,4.83,15.35a114.67,114.67,0,0,0,5.37,13.95A44.46,44.46,0,0,0,249.19,395a5.75,5.75,0,0,0,5.18,2.33,4.94,4.94,0,0,0,2.48-1.2,6.35,6.35,0,0,0,1-1,8.35,8.35,0,0,0,.81-1.07,28.35,28.35,0,0,0,2.3-4.57q1-2.24,1.79-4.23c1.09-2.66,2-5,2.7-6.85s1.24-3.34,1.62-4.36l.42-1.14C267.55,372.72,267.61,372.59,267.61,372.59Z" style="fill:#263238"></path><path d="M206.84,304.63a12.27,12.27,0,0,0-2.58-4.24,5,5,0,0,0-4.55-1.46c-1.61.42-3,1.9-4.6,1.74-2.2-.22-3.11-3.06-5.08-4.05a3.53,3.53,0,0,0-4.83,2.57l.25.07a4.38,4.38,0,0,0-2.15,2.4,2.06,2.06,0,0,0,1.35,2.59c1.39.25,2.58-1.36,4-1.17,1.56.22,2,2.36,3.24,3.26,1.5,1.07,3.56.13,5.14-.8s3.69-1.82,5.14-.7a6.94,6.94,0,0,1,1.54,2.46c.46.86,1.29,1.7,2.25,1.56a1.94,1.94,0,0,0,1.46-1.81A5.29,5.29,0,0,0,206.84,304.63Z" style="fill:#fff"></path><path d="M364.13,370.62a12.4,12.4,0,0,0-2.57-4.24,5,5,0,0,0-4.55-1.45c-1.61.42-2.95,1.89-4.61,1.73-2.2-.21-3.1-3.06-5.08-4a3.51,3.51,0,0,0-4.82,2.56l.24.08a4.33,4.33,0,0,0-2.15,2.39,2.08,2.08,0,0,0,1.36,2.6c1.38.25,2.57-1.37,4-1.17s1.95,2.35,3.24,3.26c1.5,1.06,3.55.12,5.14-.81s3.68-1.82,5.13-.69a7,7,0,0,1,1.55,2.45c.46.86,1.28,1.71,2.25,1.56a1.93,1.93,0,0,0,1.46-1.81A5.33,5.33,0,0,0,364.13,370.62Z" style="fill:#fff"></path><path d="M180.45,338.88c1.22,1,3.15.23,4.07-1s1.21-2.88,1.81-4.33,1.76-2.9,3.33-2.95c.62,0,1.23.19,1.84.11,1.6-.19,2.34-2,3.23-3.34,1.47-2.23,4.48-3.6,6.94-2.53s3.26,5,1.05,6.51c-1.95,1.33-5.15.46-6.46,2.42s.43,4.83-1.1,6.48-4.6.21-6.43,1.55c-1.6,1.17-1.2,3.74-.07,5.37s2.82,2.9,3.57,4.74c1.41,3.43-1,7.28-3.84,9.65a6,6,0,0,1-3.15,1.58c-2.45.21-4.33-2.12-5.33-4.37a22.24,22.24,0,0,1,.56-19" style="fill:#fff"></path><path d="M314.63,311.29c1.53-.34,2.13-2.32,1.72-3.84s-1.51-2.73-2.27-4.1-1.17-3.19-.23-4.44c.37-.5.91-.85,1.23-1.38.84-1.37-.11-3.07-.6-4.6-.83-2.55,0-5.76,2.34-7s5.94.56,5.75,3.23c-.18,2.35-2.85,4.31-2.13,6.56s4,2.67,4.39,4.9-2.71,3.73-2.8,6c-.07,2,2.18,3.27,4.16,3.4s4-.39,5.94.16c3.56,1,5.09,5.3,5.15,9a5.92,5.92,0,0,1-.73,3.45c-1.35,2.05-4.35,2.07-6.73,1.46a22.24,22.24,0,0,1-14.51-12.27" style="fill:#fff"></path><path d="M231,389.94a12.56,12.56,0,0,0-4.68-3.08c-1.81-.52-4.06,0-5,1.63-.46.84-.52,1.86-1,2.68-1.35,2.3-4.82,1.76-7.19,3-3,1.57-3.35,6.59-.52,8.52-1.23,2.52-2.37,5.24-2.14,8s2.24,5.65,5,5.89c1.41.12,2.83-.42,4.23-.17,1.61.28,2.84,1.53,4.17,2.49s3.18,1.64,4.55.74c2-1.36,1.6-5.37,4-5.83,2.11-.41,4.38,2.63,6,1.21,1-.87.43-2.53.94-3.74.8-1.87,3.46-1.71,5.29-2.61a4.4,4.4,0,0,0-3.15-8.17c-3.35,1-4.88,5.58-8.34,6-2.3.26-4.87-1.5-6.77-.18-1.1.76-1.46,2.29-2.57,3a3.08,3.08,0,0,1-4-1.08,5.17,5.17,0,0,1-.3-4.48c.8-2.33,2.61-4.15,4.36-5.88.81-.8,1.86-1.66,2.93-1.31.63.19,1.06.75,1.63,1.08,1.74,1,4-.79,4.28-2.77s-.76-3.9-1.78-5.63" style="fill:#fff"></path><path d="M144.67,361.44a12.56,12.56,0,0,0-4.68-3.08c-1.81-.53-4.06,0-5,1.63-.46.84-.52,1.85-1,2.68-1.35,2.29-4.82,1.76-7.19,3-3,1.57-3.35,6.59-.52,8.52-1.23,2.52-2.37,5.24-2.14,8s2.24,5.65,5,5.88c1.41.12,2.83-.41,4.23-.16,1.61.28,2.84,1.53,4.17,2.49s3.18,1.64,4.54.73c2-1.35,1.61-5.36,4-5.83,2.11-.41,4.38,2.64,6,1.21,1-.86.43-2.52.94-3.73.8-1.87,3.46-1.72,5.29-2.61a4.4,4.4,0,0,0-3.15-8.17c-3.35,1-4.88,5.58-8.34,6-2.3.26-4.87-1.5-6.77-.18-1.1.75-1.46,2.28-2.57,3a3.07,3.07,0,0,1-4.05-1.07,5.19,5.19,0,0,1-.3-4.49c.8-2.33,2.61-4.14,4.36-5.88.81-.79,1.86-1.65,2.93-1.31.63.2,1.06.76,1.63,1.08,1.74,1,4-.78,4.28-2.77s-.76-3.89-1.78-5.62" style="fill:#fff"></path><path d="M313.86,345.87a12.73,12.73,0,0,0-4.67-3.08c-1.81-.52-4.07,0-5,1.63-.46.84-.52,1.86-1,2.68-1.36,2.3-4.83,1.76-7.19,3-3,1.56-3.35,6.59-.53,8.52-1.23,2.52-2.36,5.24-2.14,8s2.24,5.64,5,5.88c1.41.12,2.84-.41,4.23-.17,1.61.29,2.84,1.54,4.17,2.49s3.19,1.64,4.55.74c2-1.36,1.6-5.36,4-5.83,2.12-.41,4.38,2.63,6,1.21,1-.87.42-2.53.94-3.73.79-1.87,3.46-1.72,5.28-2.62a4.39,4.39,0,0,0-3.15-8.17c-3.35,1-4.88,5.58-8.34,6-2.3.25-4.86-1.5-6.77-.19-1.09.76-1.45,2.29-2.56,3a3.07,3.07,0,0,1-4.05-1.08,5.2,5.2,0,0,1-.31-4.48c.81-2.33,2.61-4.15,4.37-5.88.8-.79,1.85-1.65,2.93-1.31.62.2,1.05.76,1.62,1.08,1.75,1,4-.78,4.29-2.77s-.77-3.9-1.79-5.63" style="fill:#fff"></path><path d="M237.72,461.47a4.49,4.49,0,0,0,4.51-4.65c-.18-2.15-1.91-4.4-.77-6.22.93-1.48,3.16-1.51,4.34-2.79,1.75-1.89.38-5.43,2.24-7.21,1-1,2.51-1,3.89-1,1.61,0,3.54.21,4.3,1.64.66,1.25,0,2.85-1.05,3.81a21.76,21.76,0,0,1-3.61,2.23,4.62,4.62,0,0,0-2.44,3.3c-.09,1.35.76,2.55,1.27,3.81s.45,3-.79,3.58a10.08,10.08,0,0,0-1.56.48c-.65.42-.75,1.29-1,2-.93,2.27-3.81,2.88-6.25,3.18a4.54,4.54,0,0,1-1.8,0,1.52,1.52,0,0,1-1.13-1.27c0-.6.65-1.18,1.2-.91" style="fill:#fff"></path><path d="M159.91,294.17c-.5-1.26-1.36-2.46-1.26-3.82l.89-2.4-8.06,4.81.27,3.82a19.82,19.82,0,0,1-1.38,4.12c-.57.69-1.83.5-1.83.5-.54-.27-1.22.31-1.19.91a1.51,1.51,0,0,0,1.13,1.27,4.49,4.49,0,0,0,1.79,0c2.45-.3,5.33-.91,6.26-3.18.29-.71.39-1.58,1-2,.46-.3,1.07-.26,1.57-.48C160.37,297.2,160.41,295.42,159.91,294.17Z" style="fill:#fff"></path><path d="M309.05,435.27a4.48,4.48,0,0,0-4.06-5c-2.15-.09-4.6,1.35-6.26,0-1.35-1.1-1.1-3.32-2.22-4.65-1.66-2-5.34-1.05-6.88-3.12-.82-1.1-.67-2.62-.49-4,.22-1.6.66-3.49,2.17-4.07,1.33-.5,2.83.36,3.65,1.52a22.53,22.53,0,0,1,1.77,3.86,4.55,4.55,0,0,0,3,2.83c1.32.27,2.63-.43,3.94-.77s3.06-.08,3.45,1.22a10.75,10.75,0,0,0,.28,1.62c.34.68,1.19.9,1.85,1.27,2.15,1.21,2.39,4.15,2.38,6.6a4.43,4.43,0,0,1-.26,1.78,1.5,1.5,0,0,1-1.39,1c-.6-.06-1.09-.8-.76-1.3" style="fill:#fff"></path><path d="M175.55,327.27,148.73,341c1.48,23.68-.42,60.49-1.57,74.2L139,420.39c-1.7,14.93,13.34,48.58,28.2,52.77s29.12-.19,33-8.79c10-22.24-11.65-97.86-11.65-97.86Z" style="fill:#ffbe9d"></path><path d="M175.55,327.27,148.73,341c1.48,23.68-.42,60.49-1.57,74.2L139,420.39c-1.7,14.93,13.34,48.58,28.2,52.77s29.12-.19,33-8.79c10-22.24-11.65-97.86-11.65-97.86Z" style="fill:#ffbe9d"></path><path d="M175.55,327.27s-2.29-9.9-6.86-14.09c0,0-6.71-2.48-12.85-4.44s-16,.28-24.43,0-45.28-3.48-45.28-3.48-3.9,0-5.71,1.67c0,0-10-2.51-13.25,6.14v1.53l2.65,1.67s12.27-.15,14.92,0,29.28,11,29.28,11,7.67,4.48,12.13,4.62,3.06-.28,12.41,1.39S148.73,341,148.73,341Z" style="fill:#ffbe9d"></path><path d="M136.88,320.6a2.88,2.88,0,0,1-.52.1c-.35,0-.86.1-1.52.15a53,53,0,0,1-5.61.13,27.83,27.83,0,0,1-3.88-.33c-1.38-.24-2.83-.61-4.34-1-3-.85-6.29-1.93-9.69-3.14-1.4-.5-2.77-1-4.09-1.5l.09,0L98,315h-.24l0-.24a8.06,8.06,0,0,1,2-4.74,7.48,7.48,0,0,1,3.38-2.08,9.55,9.55,0,0,1,2.51-.41,2.82,2.82,0,0,1,.89.05,13.19,13.19,0,0,0-3.32.6,7.39,7.39,0,0,0-3.19,2.08,7.83,7.83,0,0,0-1.82,4.54l-.22-.24,9.34,0h.05l0,0,4.07,1.49c3.4,1.2,6.66,2.29,9.65,3.17,1.5.43,2.93.81,4.28,1.07a30.44,30.44,0,0,0,3.82.38c2.36.12,4.27.08,5.59,0l1.52-.06A2,2,0,0,1,136.88,320.6Z" style="fill:#eb996e"></path><path d="M128.87,326.86a2.64,2.64,0,0,1-.59-.07c-.39-.06-1-.16-1.68-.31-1.45-.3-3.54-.77-6.1-1.46-5.14-1.36-12-3.91-19.55-6.79-2.15-.84-4.24-1.66-6.23-2.5-1-.42-2-.82-2.9-1.29a9.77,9.77,0,0,0-2.79-.79,38.34,38.34,0,0,0-5.35-.42c-1.65,0-3.15,0-4.45,0h-.15l0-.15a9.36,9.36,0,0,1,.31-4.81c.44-1.07,1-1.41,1-1.37a3.46,3.46,0,0,0-.3.33,4.09,4.09,0,0,0-.59,1.1,9.61,9.61,0,0,0-.15,4.7l-.17-.13c1.32-.08,2.82-.13,4.48-.11a37.55,37.55,0,0,1,5.41.37A10,10,0,0,1,92,314c.91.44,1.89.84,2.87,1.26,2,.82,4.08,1.64,6.23,2.47,7.53,2.88,14.37,5.49,19.46,6.93,2.54.73,4.61,1.26,6.05,1.61l1.65.41A2,2,0,0,1,128.87,326.86Z" style="fill:#eb996e"></path><path d="M149,338.1a1,1,0,0,1,.06.28c0,.21.07.48.11.82.09.73.25,1.8.38,3.19.31,2.77.62,6.79.79,11.77s.16,10.92-.12,17.5-.82,13.8-1.57,21.36a168.6,168.6,0,0,0-1.2,21.34,56.14,56.14,0,0,0,3,17.1,38,38,0,0,0,5.46,10.34c.41.57.81,1,1.15,1.44a13.48,13.48,0,0,0,.89,1l.56.62.18.22a23,23,0,0,1-2.94-3.18,36.7,36.7,0,0,1-5.65-10.34,55.3,55.3,0,0,1-3.09-17.2A163.5,163.5,0,0,1,148.13,393c.75-7.55,1.31-14.76,1.61-21.33s.36-12.5.23-17.47-.38-9-.62-11.76c-.1-1.39-.23-2.47-.28-3.2,0-.34,0-.61-.07-.83A1,1,0,0,1,149,338.1Z" style="fill:#eb996e"></path><path d="M319.57,327l27.68,11.82c.14,23.72,4.55,60.32,6.62,73.93l8.53,4.67c2.71,14.77-10,49.37-24.54,54.57s-29.07,1.79-33.5-6.53c-11.47-21.52,5-98.43,5-98.43Z" style="fill:#ffbe9d"></path><path d="M319.57,327s1.6-10,5.88-14.53c0,0,6.53-2.93,12.51-5.29s16-.81,24.38-1.67S407.28,299,407.28,299s3.89-.27,5.81,1.28c0,0,9.85-3.19,13.64,5.22l.1,1.53-2.53,1.84s-12.25.69-14.88,1-28.47,13-28.47,13-7.34,5-11.78,5.43-3.08-.07-12.29,2.24-9.63,8.34-9.63,8.34Z" style="fill:#ffbe9d"></path><path d="M357.69,317.74a2,2,0,0,1,.53,0l1.52-.05c1.32,0,3.23-.14,5.57-.41a30.29,30.29,0,0,0,3.78-.65c1.34-.35,2.74-.83,4.21-1.36,2.92-1.07,6.1-2.38,9.4-3.82l4-1.76.05,0h0l9.32-.6-.2.25a7.81,7.81,0,0,0-2.12-4.41,7.49,7.49,0,0,0-3.32-1.85,13.08,13.08,0,0,0-3.36-.37,2.62,2.62,0,0,1,.89-.12,9.53,9.53,0,0,1,2.53.24,7.63,7.63,0,0,1,3.51,1.84,8.15,8.15,0,0,1,2.31,4.6l0,.24-.25,0-9.31.67.09,0c-1.29.59-2.62,1.18-4,1.77-3.31,1.44-6.5,2.74-9.45,3.79-1.48.52-2.9,1-4.26,1.33a28.5,28.5,0,0,1-3.85.59,53.2,53.2,0,0,1-5.61.25c-.66,0-1.17,0-1.52-.05A1.84,1.84,0,0,1,357.69,317.74Z" style="fill:#eb996e"></path><path d="M366.1,323.44a2.54,2.54,0,0,1,.56-.21l1.63-.52c1.4-.45,3.44-1.11,5.92-2,5-1.78,11.62-4.84,19-8.23,2.08-1,4.11-1.94,6-2.9.95-.48,1.9-.94,2.77-1.45a10.46,10.46,0,0,1,2.88-1,38.71,38.71,0,0,1,5.38-.73c1.65-.13,3.15-.19,4.48-.2l-.16.15a9.72,9.72,0,0,0-.48-4.68,3.83,3.83,0,0,0-.66-1.06,4.32,4.32,0,0,0-.32-.31s.63.25,1.14,1.29a9.4,9.4,0,0,1,.64,4.79v.14h-.15c-1.31,0-2.81.12-4.45.27a40.79,40.79,0,0,0-5.3.79,9.77,9.77,0,0,0-2.74,1c-.9.53-1.84,1-2.8,1.49-1.92,1-3.95,1.93-6,2.91-7.33,3.39-14,6.4-19,8.11-2.51.86-4.57,1.47-6,1.87-.71.19-1.27.34-1.65.42A2.3,2.3,0,0,1,366.1,323.44Z" style="fill:#eb996e"></path><path d="M346.79,336a1.64,1.64,0,0,1,0,.29c0,.22,0,.49,0,.83,0,.74-.06,1.82-.07,3.21-.05,2.78,0,6.81.18,11.78s.68,10.87,1.43,17.41,1.8,13.69,3.05,21.17A163.93,163.93,0,0,1,354,412a55.56,55.56,0,0,1-1.91,17.38,36.93,36.93,0,0,1-4.93,10.7,24.06,24.06,0,0,1-2.72,3.37,1.58,1.58,0,0,1,.16-.24l.52-.65c.23-.28.51-.64.82-1.08s.68-.92,1.05-1.52a38.1,38.1,0,0,0,4.75-10.69A56.22,56.22,0,0,0,353.53,412a167.67,167.67,0,0,0-2.65-21.21c-1.26-7.49-2.3-14.66-3-21.21s-1.15-12.47-1.31-17.45-.13-9,0-11.8c0-1.39.12-2.47.16-3.2,0-.34.05-.62.06-.83A1.36,1.36,0,0,1,346.79,336Z" style="fill:#eb996e"></path><path d="M292.69,309.88c-.62-7.47,3.2-14.47,5.63-21.55,4.92-14.3,4.57-22.26,5.46-50.42l-22.92-5.31c-.76,9.39.59,5.72-.3,15.88s-3.47,20.34-8.91,29c-3.88,6.17-9.34,11.89-10.07,19.14-1.07,10.49,8.15,19.54,8.74,30.07.81,14.62-15,26.67-13.09,41.18.43,3.21,1.94,6.51,4.81,8,2.07,1.08,4.51,1.08,6.84,1.05l15.38-.21c1.65,0,3.47-.11,4.65-1.27,1.91-1.86.9-5,.51-7.65-1.73-11.41,10.49-20.77,10.78-32.31C300.43,326.51,293.43,318.8,292.69,309.88Z" style="fill:#263238"></path><path d="M286,144.26a2.89,2.89,0,0,1-.44.4c-.31.25-.74.64-1.34,1.08a41.67,41.67,0,0,1-5.33,3.42,44.78,44.78,0,0,1-40.35,1.29,42.18,42.18,0,0,1-5.53-3.07c-.63-.4-1.08-.76-1.4-1a2.13,2.13,0,0,1-.47-.38,3.27,3.27,0,0,1,.53.3c.33.19.81.53,1.45.9a47.93,47.93,0,0,0,5.58,2.91,45.75,45.75,0,0,0,40-1.28,51.37,51.37,0,0,0,5.38-3.26c.62-.41,1.07-.78,1.39-1A2.41,2.41,0,0,1,286,144.26Z" style="fill:#fff"></path></g><g id="speech-bubble"><circle cx="372.54" cy="90.06" r="54.29" transform="translate(-9.54 59.81) rotate(-9.06)" style="fill:#fafafa"></circle><path d="M322.63,128c0,.05.59.09,1.54.48a7,7,0,0,1,3.25,2.79,6.69,6.69,0,0,1,1,2.77,5.9,5.9,0,0,1-.58,3.3,6.44,6.44,0,0,1-12-.72,5.91,5.91,0,0,1-.19-3.34,6.79,6.79,0,0,1,1.32-2.63,7.09,7.09,0,0,1,3.56-2.39c1-.27,1.58-.24,1.58-.29a1.24,1.24,0,0,0-.42,0,2.5,2.5,0,0,0-.52,0,5.13,5.13,0,0,0-.69.11,7.26,7.26,0,0,0-5.24,5.11,6.32,6.32,0,0,0,.16,3.59,7.46,7.46,0,0,0,2.25,3.27,6.94,6.94,0,0,0,3.94,1.63,6.79,6.79,0,0,0,4.09-1.16,7.29,7.29,0,0,0,2.62-3,6.25,6.25,0,0,0,.59-3.55,7.24,7.24,0,0,0-4.6-5.69,3.53,3.53,0,0,0-.67-.2,2.2,2.2,0,0,0-.51-.08A1.29,1.29,0,0,0,322.63,128Z" style="fill:#263238"></path><path d="M311.38,143.3s.29,0,.77.24a3.51,3.51,0,0,1,1.62,1.39,3.39,3.39,0,0,1,.5,1.39A2.93,2.93,0,0,1,314,148a3.21,3.21,0,0,1-6-.36,2.88,2.88,0,0,1-.1-1.66,3.35,3.35,0,0,1,.66-1.32,3.53,3.53,0,0,1,1.77-1.19c.5-.14.8-.12.79-.15h-.21a.72.72,0,0,0-.25,0,1.61,1.61,0,0,0-.35.06,3.57,3.57,0,0,0-2.61,2.55,3.06,3.06,0,0,0,.08,1.79,3.72,3.72,0,0,0,1.12,1.63,3.42,3.42,0,0,0,2,.81,3.37,3.37,0,0,0,2.05-.58,3.61,3.61,0,0,0,1.3-1.48,3.12,3.12,0,0,0,.3-1.77,3.65,3.65,0,0,0-.56-1.46,3.53,3.53,0,0,0-1.74-1.38,1.73,1.73,0,0,0-.33-.1.92.92,0,0,0-.26,0C311.45,143.29,311.38,143.29,311.38,143.3Z" style="fill:#263238"></path><path d="M318.52,94.28s0-.3,0-.88,0-1.45,0-2.57c0-.57,0-1.2,0-1.9s.1-1.46.16-2.28.13-1.71.21-2.66a9.59,9.59,0,0,1,.19-1.46c.09-.5.18-1,.28-1.54a51.77,51.77,0,0,1,4.84-14.79A53.71,53.71,0,0,1,336.6,49.88L338.79,48c.77-.6,1.59-1.15,2.4-1.74l1.23-.88a10.73,10.73,0,0,1,1.27-.84l2.69-1.56,1.36-.79c.48-.21,1-.43,1.45-.66l2.94-1.33c1-.42,2.06-.73,3.1-1.1l1.58-.54c.26-.08.52-.19.79-.26l.82-.19a51,51,0,0,1,6.73-1.32c1.16-.13,2.32-.33,3.49-.41l3.57-.09c.6,0,1.2-.06,1.81,0l1.81.14c1.21.1,2.44.15,3.66.3a57.45,57.45,0,0,1,7.32,1.54l1.84.52c.3.09.61.16.91.26l.9.35,3.6,1.4c1.18.53,2.32,1.16,3.5,1.74.57.31,1.18.56,1.74.92L401,44.45a60.81,60.81,0,0,1,6.5,4.7l3,2.79.75.7c.23.25.45.52.68.77L413.21,55l1.37,1.56,1.22,1.68L417,59.89l.61.85.53.91,2.12,3.64c.59,1.28,1.17,2.57,1.77,3.86a57.46,57.46,0,0,1,4.09,16.72A57.46,57.46,0,0,1,424.69,103l-1.14,4.09q-.76,2-1.53,3.93l-.39,1-.47.93-.94,1.87-.94,1.85-1.11,1.75-1.1,1.74-.55.86-.63.81-2.5,3.22a61.78,61.78,0,0,1-5.68,5.65L406.22,132c-.5.44-1.06.78-1.58,1.18-1.07.75-2.1,1.55-3.19,2.26l-3.34,1.94-.83.48c-.28.15-.58.27-.86.41l-1.74.79a56,56,0,0,1-7,2.66c-1.19.34-2.39.58-3.57.87l-1.77.41c-.59.13-1.2.17-1.79.26l-3.54.46c-1.17.11-2.35.08-3.51.13a50.29,50.29,0,0,1-6.86-.25l-.84-.06-.82-.14-1.64-.29c-1.09-.2-2.18-.34-3.24-.6l-3.11-.87-1.53-.42-1.47-.57-2.89-1.12a10.92,10.92,0,0,1-1.39-.63l-1.35-.68c-.89-.46-1.79-.88-2.65-1.35l-2.46-1.56a53.77,53.77,0,0,1-14.85-14.19c-.44-.62-.9-1.22-1.31-1.82L326,117.45l-1.05-1.8c-.17-.29-.36-.58-.5-.88l-.42-.89c-.54-1.19-1.06-2.32-1.56-3.4s-.78-2.19-1.15-3.2c-.18-.51-.35-1-.51-1.48a8.38,8.38,0,0,1-.42-1.41l-.62-2.59c-.18-.81-.39-1.54-.51-2.23s-.18-1.32-.26-1.88c-.15-1.11-.27-2-.35-2.54s-.14-.87-.14-.87,0,.29.09.87.17,1.44.3,2.56c.07.56.15,1.19.24,1.88s.31,1.43.49,2.24.38,1.68.59,2.61a9.84,9.84,0,0,0,.41,1.42l.5,1.48c.37,1,.67,2.12,1.14,3.22l1.55,3.42c.13.3.27.6.41.91s.33.58.5.88l1,1.81,1.09,1.88c.42.61.87,1.22,1.31,1.84a53.76,53.76,0,0,0,14.89,14.33l2.47,1.57c.86.48,1.77.91,2.66,1.37l1.36.69a11.11,11.11,0,0,0,1.4.64l2.91,1.14c.49.19,1,.39,1.48.57l1.54.43,3.13.88c1.06.27,2.16.41,3.26.62l1.65.29.83.14.85.06a49.37,49.37,0,0,0,6.91.27c1.17,0,2.35,0,3.54-.13l3.57-.46c.6-.08,1.2-.13,1.8-.25l1.78-.42c1.19-.29,2.41-.52,3.6-.87a57.77,57.77,0,0,0,7.07-2.67l1.74-.8.88-.4.83-.49,3.37-2c1.1-.71,2.14-1.51,3.22-2.27.53-.4,1.1-.75,1.6-1.19l1.5-1.32a60.41,60.41,0,0,0,5.74-5.69l2.52-3.25.64-.82.56-.87,1.11-1.76,1.11-1.76,1-1.87.95-1.88.48-.94.38-1c.52-1.32,1-2.64,1.55-4s.77-2.75,1.16-4.13a58.2,58.2,0,0,0,1.46-17.32A58.17,58.17,0,0,0,422.51,69l-1.79-3.9-2.14-3.68c-.18-.3-.35-.61-.54-.91l-.61-.86-1.23-1.7L415,56.21l-1.37-1.57-1.37-1.56-.69-.78-.75-.7-3-2.82A61.79,61.79,0,0,0,401.23,44L399.54,43c-.56-.36-1.18-.62-1.76-.93-1.19-.58-2.34-1.22-3.53-1.75l-3.64-1.41-.9-.35c-.3-.1-.62-.18-.92-.26l-1.85-.52a57.17,57.17,0,0,0-7.39-1.55c-1.24-.15-2.47-.19-3.69-.3L374,35.78c-.61,0-1.22,0-1.82,0l-3.6.1c-1.18.07-2.35.28-3.51.42a50,50,0,0,0-6.79,1.34l-.82.19c-.27.08-.54.18-.8.27l-1.59.54c-1.05.38-2.11.69-3.12,1.11l-3,1.36-1.45.67c-.47.25-.92.53-1.38.79l-2.7,1.57a11.37,11.37,0,0,0-1.28.85l-1.23.89c-.82.6-1.64,1.17-2.42,1.77s-1.47,1.3-2.2,1.93a53.87,53.87,0,0,0-12.49,16.47A51.47,51.47,0,0,0,319.09,81c-.1.53-.18,1.05-.27,1.55a8.32,8.32,0,0,0-.18,1.46c-.07,1-.13,1.84-.19,2.67s-.13,1.59-.14,2.29.05,1.33.07,1.9c0,1.12.07,2,.09,2.57S318.52,94.28,318.52,94.28Z" style="fill:#263238"></path><path d="M359.22,78.13h7.69s0-6.46,6.72-6.58a6.22,6.22,0,0,1,6,4,6.85,6.85,0,0,1-.55,6.23c-1.3,2.15-4.16,4.11-9.35,3.2v17.35h7.61V92.14S388,89.38,388,77.62c0-11.25-10.09-13.87-14.41-13.87C370.33,63.75,359.07,64.55,359.22,78.13Z" style="fill:#FF725E"></path><rect x="369.74" y="105.88" width="7.72" height="7.21" style="fill:#FF725E"></rect></g></svg>