<svg xmlns="http://www.w3.org/2000/svg" viewBox="0 0 500 500"><g id="background-complete"><rect y="382.4" width="500" height="0.25" style="fill:#ebebeb"></rect><rect x="416.78" y="398.49" width="33.12" height="0.25" style="fill:#ebebeb"></rect><rect x="322.53" y="401.21" width="8.69" height="0.25" style="fill:#ebebeb"></rect><rect x="396.59" y="389.21" width="19.19" height="0.25" style="fill:#ebebeb"></rect><rect x="52.46" y="390.89" width="43.19" height="0.25" style="fill:#ebebeb"></rect><rect x="104.56" y="390.89" width="6.33" height="0.25" style="fill:#ebebeb"></rect><rect x="131.47" y="395.11" width="93.68" height="0.25" style="fill:#ebebeb"></rect><path d="M237,337.8H43.91a5.71,5.71,0,0,1-5.7-5.71V60.66A5.71,5.71,0,0,1,43.91,55H237a5.71,5.71,0,0,1,5.71,5.71V332.09A5.71,5.71,0,0,1,237,337.8ZM43.91,55.2a5.46,5.46,0,0,0-5.45,5.46V332.09a5.46,5.46,0,0,0,5.45,5.46H237a5.47,5.47,0,0,0,5.46-5.46V60.66A5.47,5.47,0,0,0,237,55.2Z" style="fill:#ebebeb"></path><path d="M453.31,337.8H260.21a5.72,5.72,0,0,1-5.71-5.71V60.66A5.72,5.72,0,0,1,260.21,55h193.1A5.71,5.71,0,0,1,459,60.66V332.09A5.71,5.71,0,0,1,453.31,337.8ZM260.21,55.2a5.47,5.47,0,0,0-5.46,5.46V332.09a5.47,5.47,0,0,0,5.46,5.46h193.1a5.47,5.47,0,0,0,5.46-5.46V60.66a5.47,5.47,0,0,0-5.46-5.46Z" style="fill:#ebebeb"></path><polygon points="144.5 325.52 142.94 382.36 161.64 382.36 144.5 325.52" style="fill:#ebebeb"></polygon><polygon points="66.52 66.83 49.11 66.83 56.24 325.52 100.38 179.14 66.52 66.83" style="fill:#ebebeb"></polygon><polygon points="151.64 66.83 134.23 66.83 100.38 179.14 144.5 325.52 151.64 66.83" style="fill:#ebebeb"></polygon><polygon points="39.11 382.36 57.81 382.36 56.24 325.52 39.11 382.36" style="fill:#ebebeb"></polygon><polygon points="100.38 179.14 56.24 325.52 57.81 382.36 142.94 382.36 144.5 325.52 100.38 179.14" style="fill:#f5f5f5"></polygon><rect x="176.11" y="73.01" width="125.5" height="24.79" rx="3.22" style="fill:#f0f0f0"></rect><path d="M174.73,101.47H303a4.34,4.34,0,0,1,4.34,4.34V382.36a0,0,0,0,1,0,0H170.39a0,0,0,0,1,0,0V105.81A4.34,4.34,0,0,1,174.73,101.47Z" style="fill:#e0e0e0"></path><polygon points="194.37 77.67 196.84 82.67 202.35 83.47 198.36 87.36 199.3 92.85 194.37 90.25 189.44 92.85 190.38 87.36 186.39 83.47 191.91 82.67 194.37 77.67" style="fill:#e0e0e0"></polygon><polygon points="216.62 77.67 219.08 82.67 224.59 83.47 220.6 87.36 221.55 92.85 216.62 90.25 211.68 92.85 212.63 87.36 208.64 83.47 214.15 82.67 216.62 77.67" style="fill:#e0e0e0"></polygon><polygon points="238.86 77.67 241.32 82.67 246.84 83.47 242.85 87.36 243.79 92.85 238.86 90.25 233.93 92.85 234.87 87.36 230.88 83.47 236.39 82.67 238.86 77.67" style="fill:#e0e0e0"></polygon><polygon points="261.1 77.67 263.57 82.67 269.08 83.47 265.09 87.36 266.04 92.85 261.1 90.25 256.17 92.85 257.12 87.36 253.13 83.47 258.64 82.67 261.1 77.67" style="fill:#e0e0e0"></polygon><polygon points="283.35 77.67 285.81 82.67 291.33 83.47 287.34 87.36 288.28 92.85 283.35 90.25 278.42 92.85 279.36 87.36 275.37 83.47 280.88 82.67 283.35 77.67" style="fill:#e0e0e0"></polygon><rect x="320.11" y="73.01" width="125.5" height="24.79" rx="3.22" style="fill:#f0f0f0"></rect><path d="M318.73,101.47H447a4.34,4.34,0,0,1,4.34,4.34V382.36a0,0,0,0,1,0,0H314.39a0,0,0,0,1,0,0V105.81A4.34,4.34,0,0,1,318.73,101.47Z" style="fill:#e0e0e0"></path><polygon points="338.37 77.67 340.84 82.67 346.35 83.47 342.36 87.36 343.3 92.85 338.37 90.25 333.44 92.85 334.38 87.36 330.39 83.47 335.9 82.67 338.37 77.67" style="fill:#e0e0e0"></polygon><polygon points="360.62 77.67 363.08 82.67 368.59 83.47 364.6 87.36 365.55 92.85 360.62 90.25 355.68 92.85 356.63 87.36 352.64 83.47 358.15 82.67 360.62 77.67" style="fill:#e0e0e0"></polygon><polygon points="382.86 77.67 385.32 82.67 390.84 83.47 386.85 87.36 387.79 92.85 382.86 90.25 377.93 92.85 378.87 87.36 374.88 83.47 380.39 82.67 382.86 77.67" style="fill:#e0e0e0"></polygon><polygon points="405.1 77.67 407.57 82.67 413.08 83.47 409.09 87.36 410.04 92.85 405.1 90.25 400.17 92.85 401.12 87.36 397.13 83.47 402.64 82.67 405.1 77.67" style="fill:#e0e0e0"></polygon><polygon points="427.35 77.67 429.81 82.67 435.33 83.47 431.34 87.36 432.28 92.85 427.35 90.25 422.42 92.85 423.36 87.36 419.37 83.47 424.88 82.67 427.35 77.67" style="fill:#e0e0e0"></polygon><path d="M66.52,66.83c0,2.15-3.9,3.88-8.71,3.88s-8.7-1.73-8.7-3.88S53,63,57.81,63,66.52,64.69,66.52,66.83Z" style="fill:#e0e0e0"></path><path d="M134.23,66.83c0,2.15,3.9,3.88,8.71,3.88s8.7-1.73,8.7-3.88-3.9-3.88-8.7-3.88S134.23,64.69,134.23,66.83Z" style="fill:#e0e0e0"></path></g><g id="background-simple"><path d="M109.2,62.24a63.78,63.78,0,0,1,22-.46c22.57,3.54,41.42,18.63,56.07,35.54s26.33,36.13,41.76,52.38,36,29.79,58.83,30.36c39.59,1,71.85-36.14,111.46-35.68,28.57.33,52.37,22.3,57.58,48.63,5.93,29.94-12.86,64.22-33.33,85.74-21.7,22.82-50.74,38.4-81.32,47.91-53.78,16.72-113.75,15-165.89-6S80.53,259.38,57.82,209.55c-14-30.62-19.89-66.29-7.49-97.53C60.05,87.54,83.15,67.28,109.2,62.24Z" style="fill:#407BFF"></path><path d="M109.2,62.24a63.78,63.78,0,0,1,22-.46c22.57,3.54,41.42,18.63,56.07,35.54s26.33,36.13,41.76,52.38,36,29.79,58.83,30.36c39.59,1,71.85-36.14,111.46-35.68,28.57.33,52.37,22.3,57.58,48.63,5.93,29.94-12.86,64.22-33.33,85.74-21.7,22.82-50.74,38.4-81.32,47.91-53.78,16.72-113.75,15-165.89-6S80.53,259.38,57.82,209.55c-14-30.62-19.89-66.29-7.49-97.53C60.05,87.54,83.15,67.28,109.2,62.24Z" style="fill:#fff;opacity:0.9;isolation:isolate"></path></g><g id="Shadow"><ellipse id="path" cx="250" cy="416.24" rx="193.89" ry="11.32" style="fill:#f5f5f5"></ellipse></g><g id="choice-2"><path d="M437.14,383.53c-2.06.7-3.27,1.72-5.66.66-1.33-.59-2.81-1.35-4.17-1.19a2.65,2.65,0,0,0-1.07.35c-.53.31-.93.81-1.45,1.15-1.68,1.13-3.61.3-5.61-.48a9.71,9.71,0,0,0-4.07-.9,6.34,6.34,0,0,0-2.1.62,13,13,0,0,1-3.82,1.46,9,9,0,0,1-4.12-.88c-1.63-.63-3.24-1.26-4.85-.78a12.07,12.07,0,0,0-2.34,1.27,6,6,0,0,1-.81.39c-3.09,1.26-6.2-1.1-9.45-2.26a8.64,8.64,0,0,0-3.39-.57,8,8,0,0,0-2.63.72c-1.85.81-3.59,2.07-5.58,2.48-2.5.52-5-.36-7.46-1.16a15.72,15.72,0,0,0-5.77-1,13.66,13.66,0,0,0-2.79.56,19.74,19.74,0,0,1-4.81,1.11,16.85,16.85,0,0,1-5.51-1.15,16,16,0,0,0-3.47-.74,15.19,15.19,0,0,0-5,.69c-1.21.34-2.43.72-3.66,1-3.08.71-7.41.74-8.22-2.72a9.92,9.92,0,0,1,0-2.11V134H437.12V364.37C437.12,370.75,437,377.17,437.14,383.53Z" style="fill:#407BFF"></path><path d="M437.14,383.53c-2.06.7-3.27,1.72-5.66.66-1.33-.59-2.81-1.35-4.17-1.19a2.65,2.65,0,0,0-1.07.35c-.53.31-.93.81-1.45,1.15-1.68,1.13-3.61.3-5.61-.48a9.71,9.71,0,0,0-4.07-.9,6.34,6.34,0,0,0-2.1.62,13,13,0,0,1-3.82,1.46,9,9,0,0,1-4.12-.88c-1.63-.63-3.24-1.26-4.85-.78a12.07,12.07,0,0,0-2.34,1.27,6,6,0,0,1-.81.39c-3.09,1.26-6.2-1.1-9.45-2.26a8.64,8.64,0,0,0-3.39-.57,7.68,7.68,0,0,0-2.23.55l-.4.17c-1.54.67-3,1.66-4.59,2.2a6.6,6.6,0,0,1-1,.28c-2.5.52-5-.36-7.46-1.16a15.72,15.72,0,0,0-5.77-1,13.66,13.66,0,0,0-2.79.56,19.74,19.74,0,0,1-4.81,1.11,16.85,16.85,0,0,1-5.51-1.15,16,16,0,0,0-3.47-.74,15.19,15.19,0,0,0-5,.69c-1.21.34-2.43.72-3.66,1-3.08.71-7.41.74-8.22-2.72a9.92,9.92,0,0,1,0-2.11V134H437.12V364.37C437.12,370.75,437,377.17,437.14,383.53Z" style="fill:#fff;opacity:0.2;isolation:isolate"></path><path d="M342.77,253.45c-3.17,0-1.88,107.5-1.58,130.39a15.19,15.19,0,0,1,5-.69,16,16,0,0,1,3.47.74C348.91,356.31,345.84,253.45,342.77,253.45Z" style="opacity:0.2;isolation:isolate"></path><path d="M364.53,196.76c-3.23.92-4.34,159.29-4.53,187.17a13.66,13.66,0,0,1,2.79-.56,15.72,15.72,0,0,1,5.77,1C368.46,353.55,367.73,195.84,364.53,196.76Z" style="opacity:0.2;isolation:isolate"></path><path d="M387.62,382.94a8.64,8.64,0,0,0-3.39-.57,7.68,7.68,0,0,0-2.23.55l-.61-96.21c.1-.57.22-.87.36-.87C383.92,285.84,386.84,361.41,387.62,382.94Z" style="opacity:0.2;isolation:isolate"></path><path d="M400.47,230.67c-5.55-.46-3.06,131.51-2.59,154.14a12.07,12.07,0,0,1,2.34-1.27c1.61-.48,3.22.15,4.85.78C405.26,357.92,405.91,231.13,400.47,230.67Z" style="opacity:0.2;isolation:isolate"></path><path d="M413.64,245.36c-4.08,0-1.26,114.43-.63,138.38a6.34,6.34,0,0,1,2.1-.62,9.71,9.71,0,0,1,4.07.9C419,362,417.75,245.36,413.64,245.36Z" style="opacity:0.2;isolation:isolate"></path><path d="M437.12,364.37V134H329.31v6.41a15.72,15.72,0,0,1,2.72.41c2.41.64,4.9,2.09,7.35.67a11.92,11.92,0,0,1,2.29-1.42c2.53-.78,4.28,2.55,6.66,3.72,4.41,2.19,9.36-3.56,14.14-2.4,2.25.55,4,2.56,6.32,2.7,4.15.24,7.43-5.66,11.29-4.13,1.88.75,2.77,3,4.61,3.87,4.3,2,9.12-5,13.32-2.85,1.67.87,2.67,3.05,4.54,3.15,2.1.11,3.26-2.4,5.12-3.36,3.49-1.81,7.19,2.37,11.11,2.7,3.12.28,6-1.94,9-2.53L427.31,383c1.36-.16,2.84.6,4.17,1.19,2.39,1.06,3.6,0,5.66-.66C437,377.17,437.12,370.75,437.12,364.37Z" style="opacity:0.2;isolation:isolate"></path><path d="M382,382.92l-.4.17c-1.54.67-3,1.66-4.59,2.2l3.07-246.42Z" style="opacity:0.4;isolation:isolate"></path><path d="M378.63,240.53a1.17,1.17,0,0,0,.19-.27,4,4,0,0,0,0-1.19c0-1.43,0-2.86.05-4.3l.18-14,.39-31.4c0-1.76.51-4.36-.07-6-2,2.21-3.35,5.72-4.4,8.52a34.51,34.51,0,0,1-4,8c-1.45,2.08-1.9,5.09-4.17,6.6a2.05,2.05,0,0,1-2.32.06c-.27-.21-.46-.52-.72-.73-.85-.69-2.12-.28-3,.34a7.78,7.78,0,0,1-2.76,1.68c-2,.37-3.94-1.58-5.8-.87-1.1.43-1.79,1.69-3,1.87-1.36.21-2.57-1.2-3.94-1a22.13,22.13,0,0,0-2.34.78,3.39,3.39,0,0,1,.27.39c.32,1.18,3.13,3.06,4,3.9l6.09,6c2.67,2.6,5.37,5.19,8,7.81l-1.86,10.83c-.47,2.77-.95,5.54-1.42,8.31-.25,1.46-1.3,4.18-1,5.64a3.52,3.52,0,0,1,0,.56,3.69,3.69,0,0,1,2.6-.77,4.3,4.3,0,0,0,2.85-.36,3.19,3.19,0,0,0,.82-1,31.4,31.4,0,0,1,2.29-3.78,4.4,4.4,0,0,1,3.82-1.82,15.83,15.83,0,0,0,1.79.38c1.49,0,2.57-1.37,3.25-2.68a2.52,2.52,0,0,1,1-1.25C376.58,240.25,377.91,241.29,378.63,240.53Z" style="fill:#fff;opacity:0.2;isolation:isolate"></path><path d="M417,208.56l0-.05c-2.39.46-4-1.11-6.31-1.13-1.6,0-3.13,1.17-4.69.79-1.22-.3-2.06-1.5-3.27-1.85a6.26,6.26,0,0,0-3.31.42,3.51,3.51,0,0,1-3.23-.28c-.44-.37-.69-.93-1.16-1.25-1.23-.83-2.82.31-3.85-.7s-1.64-3.32-2.26-4.58l-3.64-7.38-4.89-9.9.17,21.37.25,31.78c0,1,0,2,0,3a4.64,4.64,0,0,0,0,1.4c.52,1,2.14.86,3,1.78.54.57,1,1.36,1.76,1.47s1.43-.53,2.2-.64c1.19-.17,2.15.92,2.8,1.92s1.45,2.16,2.65,2.23a16.65,16.65,0,0,0,2.17-.43c1.57-.13,2.81,1.25,3.72,2.54.69,1,2.12,3.15,3.5,2.7-.19-4.6-1.57-9.43-2.35-14l-1.9-11.12.85-.83C405.18,220.09,411.47,214.6,417,208.56Z" style="fill:#fff;opacity:0.2;isolation:isolate"></path><rect x="324.54" y="118.05" width="117.69" height="18.22" style="fill:#407BFF"></rect><rect x="324.54" y="118.05" width="117.69" height="18.22" style="fill:#fff;opacity:0.4;isolation:isolate"></rect><rect x="324.54" y="118.05" width="110.09" height="18.22" style="fill:#fff;opacity:0.4;isolation:isolate"></rect><circle cx="379.26" cy="126.24" r="13.86" transform="translate(169.26 466.35) rotate(-76.72)" style="fill:#407BFF"></circle><circle cx="379.26" cy="126.24" r="13.86" transform="translate(169.26 466.35) rotate(-76.72)" style="fill:#fff;opacity:0.4;isolation:isolate"></circle><circle cx="379.26" cy="126.24" r="10.25" transform="translate(169.26 466.35) rotate(-76.72)" style="fill:#fff;opacity:0.6000000000000001;isolation:isolate"></circle><path d="M376.51,132.21V119.58h2.85a3.58,3.58,0,0,1,2,.6,2.71,2.71,0,0,1,1.11,1.56,4.39,4.39,0,0,1,.18,1.34,3,3,0,0,1-.67,2,1.9,1.9,0,0,1-.67.49,2.15,2.15,0,0,1,1.08,1,3.52,3.52,0,0,1,.43,1.25,4.65,4.65,0,0,1,.07.87,4.27,4.27,0,0,1-.45,2,3,3,0,0,1-2.44,1.49Zm2.05-7.47h.8a1.17,1.17,0,0,0,1.19-.87,2.55,2.55,0,0,0,.11-.79,1.68,1.68,0,0,0-.38-1.19,1.21,1.21,0,0,0-.92-.38h-.8Zm0,5.58h.8a1.36,1.36,0,0,0,1.34-1,2.15,2.15,0,0,0,.13-.79,2.39,2.39,0,0,0-.4-1.54,1.32,1.32,0,0,0-1.07-.44h-.8Z" style="fill:#407BFF"></path><path d="M336.21,385.26l-13.29-7.71V209h-4.35V377.55l-13.3,7.71a2.08,2.08,0,0,0-1,1.79v.39h1.59l14.91-7.77,14.92,7.77h1.58v-.39A2.06,2.06,0,0,0,336.21,385.26Z" style="fill:#263238"></path><polygon points="319.48 378.34 320.65 387.44 322.25 387.44 322.65 378.41 319.48 378.34" style="fill:#263238"></polygon><path d="M336.21,385.26l-13.29-7.71V242.64l-4.35-3.12v138l-13.3,7.71a2.08,2.08,0,0,0-1,1.79v.39h1.59l14.91-7.77,14.92,7.77h1.58v-.39A2.06,2.06,0,0,0,336.21,385.26Z" style="fill:#fff;opacity:0.2;isolation:isolate"></path><path d="M329.94,232.08a3,3,0,0,1-2.81-4.12l1.27-3.3-24-9.26a3.17,3.17,0,0,1-1.82-4.1L308,197.4a3.16,3.16,0,0,1,4.11-1.82l24,9.25,1.28-3.33a3,3,0,0,1,5.59-.14l7.95,17.91a3.48,3.48,0,0,1,.06,2.67,3.42,3.42,0,0,1-1.84,1.93l-17.91,7.94a3,3,0,0,1-1.24.27Z" style="fill:#407BFF;isolation:isolate"></path><path d="M328.94,232.08a3,3,0,0,1-2.81-4.12l1.27-3.3-24-9.26a3.17,3.17,0,0,1-1.82-4.1L307,197.4a3.16,3.16,0,0,1,4.11-1.82l24,9.25,1.28-3.33a3,3,0,0,1,5.59-.14l7.95,17.91a3.48,3.48,0,0,1,.06,2.67,3.42,3.42,0,0,1-1.84,1.93l-17.91,7.94a3,3,0,0,1-1.24.27Z" style="fill:#407BFF"></path><path d="M328.94,232.08a3,3,0,0,1-2.81-4.12l1.27-3.3-24-9.26a3.17,3.17,0,0,1-1.82-4.1L307,197.4a3.16,3.16,0,0,1,4.11-1.82l24,9.25,1.28-3.33a3,3,0,0,1,5.59-.14l7.95,17.91a3.48,3.48,0,0,1,.06,2.67,3.42,3.42,0,0,1-1.84,1.93l-17.91,7.94a3,3,0,0,1-1.24.27Z" style="fill:#fff;opacity:0.4;isolation:isolate"></path><path d="M348,220.08l-7.94-17.91a1,1,0,0,0-1.9.05l-2,5.2-25.85-10a1.18,1.18,0,0,0-1.52.68L303.45,212a1.18,1.18,0,0,0,.68,1.52l25.85,10-2,5.17a1,1,0,0,0,1.38,1.31l17.91-8A1.49,1.49,0,0,0,348,220.08Z" style="fill:#407BFF"></path><path d="M348,220.08l-7.94-17.91a1,1,0,0,0-1.9.05l-2,5.2-25.85-10a1.18,1.18,0,0,0-1.52.68L303.45,212a1.18,1.18,0,0,0,.68,1.52l25.85,10-2,5.17a1,1,0,0,0,1.38,1.31l17.91-8A1.49,1.49,0,0,0,348,220.08Z" style="opacity:0.4;isolation:isolate"></path><path d="M311.53,207a1.69,1.69,0,1,1-1-2.18A1.69,1.69,0,0,1,311.53,207Z" style="fill:#fff;opacity:0.6000000000000001;isolation:isolate"></path><path d="M310.57,206.63a1.06,1.06,0,1,1-.61-1.36A1.06,1.06,0,0,1,310.57,206.63Z" style="fill:#fff;opacity:0.6000000000000001;isolation:isolate"></path><path d="M323.24,206a1.68,1.68,0,1,1-1-2.18A1.68,1.68,0,0,1,323.24,206Z" style="fill:#fff;opacity:0.6000000000000001;isolation:isolate"></path><path d="M322.28,205.66a1.05,1.05,0,1,1-.6-1.36A1.05,1.05,0,0,1,322.28,205.66Z" style="fill:#fff;opacity:0.6000000000000001;isolation:isolate"></path><path d="M319.56,215.59a1.69,1.69,0,1,1-1-2.18A1.68,1.68,0,0,1,319.56,215.59Z" style="fill:#fff;opacity:0.6000000000000001;isolation:isolate"></path><path d="M318.6,215.22a1.06,1.06,0,1,1-.61-1.36A1.06,1.06,0,0,1,318.6,215.22Z" style="fill:#fff;opacity:0.6000000000000001;isolation:isolate"></path><path d="M328.18,207.93a1.68,1.68,0,1,1-1-2.17A1.69,1.69,0,0,1,328.18,207.93Z" style="fill:#fff;opacity:0.6000000000000001;isolation:isolate"></path><path d="M327.22,207.56a1,1,0,0,1-1.36.61,1.06,1.06,0,1,1,.76-2A1.05,1.05,0,0,1,327.22,207.56Z" style="fill:#fff;opacity:0.6000000000000001;isolation:isolate"></path><path d="M324.49,217.49a1.68,1.68,0,1,1-1-2.18A1.69,1.69,0,0,1,324.49,217.49Z" style="fill:#fff;opacity:0.6000000000000001;isolation:isolate"></path><path d="M323.53,217.12a1.05,1.05,0,1,1-.6-1.36A1.06,1.06,0,0,1,323.53,217.12Z" style="fill:#fff;opacity:0.6000000000000001;isolation:isolate"></path><path d="M333.12,209.84a1.69,1.69,0,1,1-1-2.18A1.68,1.68,0,0,1,333.12,209.84Z" style="fill:#fff;opacity:0.6000000000000001;isolation:isolate"></path><path d="M332.16,209.47a1.06,1.06,0,1,1-.61-1.36A1.05,1.05,0,0,1,332.16,209.47Z" style="fill:#fff;opacity:0.6000000000000001;isolation:isolate"></path><path d="M329.43,219.4a1.68,1.68,0,1,1-1-2.18A1.68,1.68,0,0,1,329.43,219.4Z" style="fill:#fff;opacity:0.6000000000000001;isolation:isolate"></path><path d="M328.47,219a1.05,1.05,0,0,1-1.36.6,1.06,1.06,0,1,1,1.36-.6Z" style="fill:#fff;opacity:0.6000000000000001;isolation:isolate"></path><path d="M340.73,207.28a1.69,1.69,0,1,1-1-2.18A1.69,1.69,0,0,1,340.73,207.28Z" style="fill:#fff;opacity:0.6000000000000001;isolation:isolate"></path><path d="M339.77,206.91a1.06,1.06,0,1,1-.61-1.36A1.06,1.06,0,0,1,339.77,206.91Z" style="fill:#fff;opacity:0.6000000000000001;isolation:isolate"></path><path d="M333.35,226.4a1.68,1.68,0,1,1-1-2.18A1.69,1.69,0,0,1,333.35,226.4Z" style="fill:#fff;opacity:0.6000000000000001;isolation:isolate"></path><path d="M332.39,226a1.05,1.05,0,1,1-.6-1.36A1.05,1.05,0,0,1,332.39,226Z" style="fill:#fff;opacity:0.6000000000000001;isolation:isolate"></path><path d="M343,213.65a1.68,1.68,0,1,1-1-2.18A1.68,1.68,0,0,1,343,213.65Z" style="fill:#fff;opacity:0.6000000000000001;isolation:isolate"></path><path d="M342,213.28a1.05,1.05,0,1,1-.6-1.36A1.05,1.05,0,0,1,342,213.28Z" style="fill:#fff;opacity:0.6000000000000001;isolation:isolate"></path><path d="M339.3,223.21a1.68,1.68,0,1,1-1-2.18A1.68,1.68,0,0,1,339.3,223.21Z" style="fill:#fff;opacity:0.6000000000000001;isolation:isolate"></path><path d="M338.34,222.84a1.05,1.05,0,1,1-.6-1.37A1.05,1.05,0,0,1,338.34,222.84Z" style="fill:#fff;opacity:0.6000000000000001;isolation:isolate"></path><circle cx="343.68" cy="219.41" r="1.69" transform="translate(17.69 464.32) rotate(-69.47)" style="fill:#fff;opacity:0.6000000000000001;isolation:isolate"></circle><path d="M344.3,219.64a1.07,1.07,0,0,1-1.37.61,1.06,1.06,0,0,1,.76-2A1,1,0,0,1,344.3,219.64Z" style="fill:#fff;opacity:0.6000000000000001;isolation:isolate"></path><path d="M338.05,211.74a1.68,1.68,0,1,1-1-2.18A1.68,1.68,0,0,1,338.05,211.74Z" style="fill:#fff;opacity:0.6000000000000001;isolation:isolate"></path><path d="M337.09,211.37a1,1,0,0,1-1.36.61,1.06,1.06,0,1,1,1.36-.61Z" style="fill:#fff;opacity:0.6000000000000001;isolation:isolate"></path><path d="M334.37,221.3a1.69,1.69,0,1,1-1-2.18A1.69,1.69,0,0,1,334.37,221.3Z" style="fill:#fff;opacity:0.6000000000000001;isolation:isolate"></path><path d="M333.41,220.93a1.05,1.05,0,0,1-1.36.6,1,1,0,0,1-.61-1.36,1.06,1.06,0,0,1,2,.76Z" style="fill:#fff;opacity:0.6000000000000001;isolation:isolate"></path><path d="M313.37,202.22a1.68,1.68,0,1,1-1-2.18A1.69,1.69,0,0,1,313.37,202.22Z" style="fill:#fff;opacity:0.6000000000000001;isolation:isolate"></path><path d="M312.41,201.85a1.06,1.06,0,1,1-.6-1.36A1.05,1.05,0,0,1,312.41,201.85Z" style="fill:#fff;opacity:0.6000000000000001;isolation:isolate"></path><path d="M309.68,211.78a1.68,1.68,0,1,1-1-2.18A1.69,1.69,0,0,1,309.68,211.78Z" style="fill:#fff;opacity:0.6000000000000001;isolation:isolate"></path><path d="M308.72,211.41a1.05,1.05,0,1,1-.6-1.36A1.05,1.05,0,0,1,308.72,211.41Z" style="fill:#fff;opacity:0.6000000000000001;isolation:isolate"></path><circle cx="316.73" cy="203.52" r="1.69" transform="matrix(0.34, -0.94, 0.94, 0.34, 17.48, 431.97)" style="fill:#fff;opacity:0.6000000000000001;isolation:isolate"></circle><path d="M317.35,203.75a1.05,1.05,0,1,1-.61-1.36A1.06,1.06,0,0,1,317.35,203.75Z" style="fill:#fff;opacity:0.6000000000000001;isolation:isolate"></path><path d="M314.62,213.68a1.68,1.68,0,1,1-3.14-1.21,1.68,1.68,0,0,1,3.14,1.21Z" style="fill:#fff;opacity:0.6000000000000001;isolation:isolate"></path><path d="M313.66,213.31a1.05,1.05,0,1,1-.6-1.36A1,1,0,0,1,313.66,213.31Z" style="fill:#fff;opacity:0.6000000000000001;isolation:isolate"></path></g><g id="choice-1"><path d="M295.14,383.53c-2.06.7-3.27,1.72-5.66.66-1.33-.59-2.81-1.35-4.17-1.19a2.65,2.65,0,0,0-1.07.35c-.53.31-.93.81-1.45,1.15-1.68,1.13-3.61.3-5.61-.48a9.71,9.71,0,0,0-4.07-.9,6.34,6.34,0,0,0-2.1.62,13,13,0,0,1-3.82,1.46,9,9,0,0,1-4.12-.88c-1.63-.63-3.24-1.26-4.85-.78a12.07,12.07,0,0,0-2.34,1.27,6,6,0,0,1-.81.39c-3.09,1.26-6.2-1.1-9.45-2.26a8.64,8.64,0,0,0-3.39-.57,8,8,0,0,0-2.63.72c-1.85.81-3.59,2.07-5.58,2.48-2.5.52-5-.36-7.46-1.16a15.72,15.72,0,0,0-5.77-1,13.66,13.66,0,0,0-2.79.56,19.74,19.74,0,0,1-4.81,1.11,16.85,16.85,0,0,1-5.51-1.15,16,16,0,0,0-3.47-.74,15.19,15.19,0,0,0-5,.69c-1.21.34-2.43.72-3.66,1-3.08.71-7.41.74-8.22-2.72a9.92,9.92,0,0,1,0-2.11V134H295.12V364.37C295.12,370.75,295,377.17,295.14,383.53Z" style="fill:#407BFF"></path><path d="M295.14,383.53c-2.06.7-3.27,1.72-5.66.66-1.33-.59-2.81-1.35-4.17-1.19a2.65,2.65,0,0,0-1.07.35c-.53.31-.93.81-1.45,1.15-1.68,1.13-3.61.3-5.61-.48a9.71,9.71,0,0,0-4.07-.9,6.34,6.34,0,0,0-2.1.62,13,13,0,0,1-3.82,1.46,9,9,0,0,1-4.12-.88c-1.63-.63-3.24-1.26-4.85-.78a12.07,12.07,0,0,0-2.34,1.27,6,6,0,0,1-.81.39c-3.09,1.26-6.2-1.1-9.45-2.26a8.64,8.64,0,0,0-3.39-.57,7.68,7.68,0,0,0-2.23.55l-.4.17c-1.54.67-3,1.66-4.59,2.2a6.6,6.6,0,0,1-1,.28c-2.5.52-5-.36-7.46-1.16a15.72,15.72,0,0,0-5.77-1,13.66,13.66,0,0,0-2.79.56,19.74,19.74,0,0,1-4.81,1.11,16.85,16.85,0,0,1-5.51-1.15,16,16,0,0,0-3.47-.74,15.19,15.19,0,0,0-5,.69c-1.21.34-2.43.72-3.66,1-3.08.71-7.41.74-8.22-2.72a9.92,9.92,0,0,1,0-2.11V134H295.12V364.37C295.12,370.75,295,377.17,295.14,383.53Z" style="fill:#fff;opacity:0.2;isolation:isolate"></path><path d="M200.77,253.45c-3.17,0-1.88,107.5-1.58,130.39a15.19,15.19,0,0,1,5-.69,16,16,0,0,1,3.47.74C206.91,356.31,203.84,253.45,200.77,253.45Z" style="opacity:0.2;isolation:isolate"></path><path d="M222.53,196.76c-3.23.92-4.34,159.29-4.53,187.17a13.66,13.66,0,0,1,2.79-.56,15.72,15.72,0,0,1,5.77,1C226.46,353.55,225.73,195.84,222.53,196.76Z" style="opacity:0.2;isolation:isolate"></path><path d="M245.62,382.94a8.64,8.64,0,0,0-3.39-.57,7.68,7.68,0,0,0-2.23.55l-.61-96.21c.1-.57.22-.87.36-.87C241.92,285.84,244.84,361.41,245.62,382.94Z" style="opacity:0.2;isolation:isolate"></path><path d="M258.47,230.67c-5.55-.46-3.06,131.51-2.59,154.14a12.07,12.07,0,0,1,2.34-1.27c1.61-.48,3.22.15,4.85.78C263.26,357.92,263.91,231.13,258.47,230.67Z" style="opacity:0.2;isolation:isolate"></path><path d="M271.64,245.36c-4.08,0-1.26,114.43-.63,138.38a6.34,6.34,0,0,1,2.1-.62,9.71,9.71,0,0,1,4.07.9C277,362,275.75,245.36,271.64,245.36Z" style="opacity:0.2;isolation:isolate"></path><path d="M295.12,364.37V134H187.31v6.41a15.72,15.72,0,0,1,2.72.41c2.41.64,4.9,2.09,7.35.67a11.92,11.92,0,0,1,2.29-1.42c2.53-.78,4.28,2.55,6.66,3.72,4.41,2.19,9.36-3.56,14.14-2.4,2.25.55,4,2.56,6.32,2.7,4.15.24,7.43-5.66,11.29-4.13,1.88.75,2.77,3,4.61,3.87,4.3,2,9.12-5,13.32-2.85,1.67.87,2.67,3.05,4.54,3.15,2.1.11,3.26-2.4,5.12-3.36,3.49-1.81,7.19,2.37,11.11,2.7,3.12.28,6-1.94,9-2.53L285.31,383c1.36-.16,2.84.6,4.17,1.19,2.39,1.06,3.6,0,5.66-.66C295,377.17,295.12,370.75,295.12,364.37Z" style="opacity:0.2;isolation:isolate"></path><path d="M240,382.92l-.4.17c-1.54.67-3,1.66-4.59,2.2l3.07-246.42Z" style="opacity:0.4;isolation:isolate"></path><path d="M236.63,240.53a1.17,1.17,0,0,0,.19-.27,4,4,0,0,0,0-1.19c0-1.43,0-2.86,0-4.3l.18-14,.39-31.4c0-1.76.51-4.36-.07-6-2,2.21-3.35,5.72-4.4,8.52a34.51,34.51,0,0,1-4,8c-1.45,2.08-1.9,5.09-4.17,6.6a2.05,2.05,0,0,1-2.32.06c-.27-.21-.46-.52-.72-.73-.85-.69-2.12-.28-3,.34a7.78,7.78,0,0,1-2.76,1.68c-2,.37-3.94-1.58-5.8-.87-1.1.43-1.79,1.69-3,1.87-1.36.21-2.57-1.2-3.94-1a22.13,22.13,0,0,0-2.34.78,3.39,3.39,0,0,1,.27.39c.32,1.18,3.13,3.06,4,3.9l6.09,6c2.67,2.6,5.37,5.19,8,7.81l-1.86,10.83c-.47,2.77-.95,5.54-1.42,8.31-.25,1.46-1.3,4.18-1,5.64a3.52,3.52,0,0,1,0,.56,3.69,3.69,0,0,1,2.6-.77,4.3,4.3,0,0,0,2.85-.36,3.19,3.19,0,0,0,.82-1,31.4,31.4,0,0,1,2.29-3.78,4.4,4.4,0,0,1,3.82-1.82,15.83,15.83,0,0,0,1.79.38c1.49,0,2.57-1.37,3.25-2.68a2.52,2.52,0,0,1,1-1.25C234.58,240.25,235.91,241.29,236.63,240.53Z" style="fill:#fff;opacity:0.2;isolation:isolate"></path><path d="M275,208.56l0-.05c-2.39.46-4-1.11-6.31-1.13-1.6,0-3.13,1.17-4.69.79-1.22-.3-2.06-1.5-3.27-1.85a6.26,6.26,0,0,0-3.31.42,3.51,3.51,0,0,1-3.23-.28c-.44-.37-.69-.93-1.16-1.25-1.23-.83-2.82.31-3.85-.7s-1.64-3.32-2.26-4.58l-3.64-7.38-4.89-9.9.17,21.37.25,31.78c0,1,0,2,0,3a4.64,4.64,0,0,0,0,1.4c.52,1,2.14.86,3,1.78.54.57,1,1.36,1.76,1.47s1.43-.53,2.2-.64c1.19-.17,2.15.92,2.8,1.92s1.45,2.16,2.65,2.23a16.65,16.65,0,0,0,2.17-.43c1.57-.13,2.81,1.25,3.72,2.54.69,1,2.12,3.15,3.5,2.7-.19-4.6-1.57-9.43-2.35-14l-1.9-11.12.85-.83C263.18,220.09,269.47,214.6,275,208.56Z" style="fill:#fff;opacity:0.2;isolation:isolate"></path><rect x="182.34" y="118.05" width="117.69" height="18.22" style="fill:#407BFF"></rect><rect x="182.34" y="118.05" width="117.69" height="18.22" style="fill:#fff;opacity:0.4;isolation:isolate"></rect><rect x="182.34" y="118.05" width="110.09" height="18.22" style="fill:#fff;opacity:0.4;isolation:isolate"></rect><circle cx="237.07" cy="126.24" r="13.86" transform="translate(59.74 327.96) rotate(-76.72)" style="fill:#407BFF"></circle><circle cx="237.07" cy="126.24" r="13.86" transform="translate(59.74 327.96) rotate(-76.72)" style="fill:#fff;opacity:0.4;isolation:isolate"></circle><circle cx="237.07" cy="126.24" r="10.25" transform="translate(59.74 327.96) rotate(-76.72)" style="fill:#fff;opacity:0.6000000000000001;isolation:isolate"></circle><path d="M236.53,129.31l-.47,2.9h-2l2.15-12.62h2.62L241,132.21h-2l-.45-2.9Zm1-6.83-.71,5h1.41Z" style="fill:#407BFF"></path><path d="M195.21,385.26l-13.29-7.71V209h-4.35V377.55l-13.3,7.71a2.08,2.08,0,0,0-1,1.79v.39h1.59l14.91-7.77,14.92,7.77h1.58v-.39A2.06,2.06,0,0,0,195.21,385.26Z" style="fill:#263238"></path><polygon points="178.48 378.34 179.65 387.44 181.25 387.44 181.65 378.41 178.48 378.34" style="fill:#263238"></polygon><path d="M195.21,385.26l-13.29-7.71V242.64l-4.35-3.12v138l-13.3,7.71a2.08,2.08,0,0,0-1,1.79v.39h1.59l14.91-7.77,14.92,7.77h1.58v-.39A2.06,2.06,0,0,0,195.21,385.26Z" style="fill:#fff;opacity:0.2;isolation:isolate"></path><path d="M188.94,232.08a3,3,0,0,1-2.81-4.12l1.27-3.3-24-9.26a3.17,3.17,0,0,1-1.82-4.1L167,197.4a3.16,3.16,0,0,1,4.11-1.82l24,9.25,1.28-3.33a3,3,0,0,1,5.59-.14l8,17.91a3.48,3.48,0,0,1,.06,2.67,3.42,3.42,0,0,1-1.84,1.93l-17.91,7.94a3,3,0,0,1-1.24.27Z" style="fill:#407BFF;isolation:isolate"></path><path d="M187.94,232.08a3,3,0,0,1-2.81-4.12l1.27-3.3-24-9.26a3.17,3.17,0,0,1-1.82-4.1L166,197.4a3.16,3.16,0,0,1,4.11-1.82l24,9.25,1.28-3.33a3,3,0,0,1,5.59-.14l8,17.91a3.48,3.48,0,0,1,.06,2.67,3.42,3.42,0,0,1-1.84,1.93l-17.91,7.94a3,3,0,0,1-1.24.27Z" style="fill:#407BFF"></path><path d="M187.94,232.08a3,3,0,0,1-2.81-4.12l1.27-3.3-24-9.26a3.17,3.17,0,0,1-1.82-4.1L166,197.4a3.16,3.16,0,0,1,4.11-1.82l24,9.25,1.28-3.33a3,3,0,0,1,5.59-.14l8,17.91a3.48,3.48,0,0,1,.06,2.67,3.42,3.42,0,0,1-1.84,1.93l-17.91,7.94a3,3,0,0,1-1.24.27Z" style="fill:#fff;opacity:0.4;isolation:isolate"></path><path d="M207,220.08l-7.94-17.91a1,1,0,0,0-1.9.05l-2,5.2-25.85-10a1.18,1.18,0,0,0-1.52.68L162.45,212a1.18,1.18,0,0,0,.68,1.52l25.85,10-2,5.17a1,1,0,0,0,1.38,1.31l17.91-8A1.49,1.49,0,0,0,207,220.08Z" style="fill:#407BFF"></path><path d="M207,220.08l-7.94-17.91a1,1,0,0,0-1.9.05l-2,5.2-25.85-10a1.18,1.18,0,0,0-1.52.68L162.45,212a1.18,1.18,0,0,0,.68,1.52l25.85,10-2,5.17a1,1,0,0,0,1.38,1.31l17.91-8A1.49,1.49,0,0,0,207,220.08Z" style="opacity:0.4;isolation:isolate"></path><path d="M170.53,207a1.69,1.69,0,1,1-1-2.18A1.69,1.69,0,0,1,170.53,207Z" style="fill:#fff;opacity:0.6000000000000001;isolation:isolate"></path><path d="M169.57,206.63a1.06,1.06,0,1,1-.61-1.36A1.06,1.06,0,0,1,169.57,206.63Z" style="fill:#fff;opacity:0.6000000000000001;isolation:isolate"></path><path d="M182.24,206a1.68,1.68,0,1,1-1-2.18A1.68,1.68,0,0,1,182.24,206Z" style="fill:#fff;opacity:0.6000000000000001;isolation:isolate"></path><path d="M181.28,205.66a1.05,1.05,0,1,1-.6-1.36A1.05,1.05,0,0,1,181.28,205.66Z" style="fill:#fff;opacity:0.6000000000000001;isolation:isolate"></path><path d="M178.56,215.59a1.69,1.69,0,1,1-1-2.18A1.68,1.68,0,0,1,178.56,215.59Z" style="fill:#fff;opacity:0.6000000000000001;isolation:isolate"></path><path d="M177.6,215.22a1.06,1.06,0,1,1-.61-1.36A1.06,1.06,0,0,1,177.6,215.22Z" style="fill:#fff;opacity:0.6000000000000001;isolation:isolate"></path><path d="M187.18,207.93a1.68,1.68,0,1,1-1-2.17A1.69,1.69,0,0,1,187.18,207.93Z" style="fill:#fff;opacity:0.6000000000000001;isolation:isolate"></path><path d="M186.22,207.56a1,1,0,0,1-1.36.61,1.06,1.06,0,1,1,.76-2A1.05,1.05,0,0,1,186.22,207.56Z" style="fill:#fff;opacity:0.6000000000000001;isolation:isolate"></path><path d="M183.49,217.49a1.68,1.68,0,1,1-1-2.18A1.69,1.69,0,0,1,183.49,217.49Z" style="fill:#fff;opacity:0.6000000000000001;isolation:isolate"></path><path d="M182.53,217.12a1.05,1.05,0,1,1-.6-1.36A1.06,1.06,0,0,1,182.53,217.12Z" style="fill:#fff;opacity:0.6000000000000001;isolation:isolate"></path><path d="M192.12,209.84a1.69,1.69,0,1,1-1-2.18A1.68,1.68,0,0,1,192.12,209.84Z" style="fill:#fff;opacity:0.6000000000000001;isolation:isolate"></path><path d="M191.16,209.47a1.06,1.06,0,1,1-.61-1.36A1.05,1.05,0,0,1,191.16,209.47Z" style="fill:#fff;opacity:0.6000000000000001;isolation:isolate"></path><path d="M188.43,219.4a1.68,1.68,0,1,1-1-2.18A1.68,1.68,0,0,1,188.43,219.4Z" style="fill:#fff;opacity:0.6000000000000001;isolation:isolate"></path><path d="M187.47,219a1.05,1.05,0,0,1-1.36.6,1.06,1.06,0,1,1,1.36-.6Z" style="fill:#fff;opacity:0.6000000000000001;isolation:isolate"></path><path d="M199.73,207.28a1.69,1.69,0,1,1-1-2.18A1.69,1.69,0,0,1,199.73,207.28Z" style="fill:#fff;opacity:0.6000000000000001;isolation:isolate"></path><path d="M198.77,206.91a1.06,1.06,0,1,1-.61-1.36A1.06,1.06,0,0,1,198.77,206.91Z" style="fill:#fff;opacity:0.6000000000000001;isolation:isolate"></path><path d="M192.35,226.4a1.68,1.68,0,1,1-1-2.18A1.69,1.69,0,0,1,192.35,226.4Z" style="fill:#fff;opacity:0.6000000000000001;isolation:isolate"></path><path d="M191.39,226a1.05,1.05,0,1,1-.6-1.36A1.05,1.05,0,0,1,191.39,226Z" style="fill:#fff;opacity:0.6000000000000001;isolation:isolate"></path><path d="M202,213.65a1.68,1.68,0,1,1-1-2.18A1.68,1.68,0,0,1,202,213.65Z" style="fill:#fff;opacity:0.6000000000000001;isolation:isolate"></path><path d="M201,213.28a1.05,1.05,0,1,1-.6-1.36A1.05,1.05,0,0,1,201,213.28Z" style="fill:#fff;opacity:0.6000000000000001;isolation:isolate"></path><path d="M198.3,223.21a1.68,1.68,0,1,1-1-2.18A1.68,1.68,0,0,1,198.3,223.21Z" style="fill:#fff;opacity:0.6000000000000001;isolation:isolate"></path><path d="M197.34,222.84a1.05,1.05,0,1,1-.6-1.37A1.05,1.05,0,0,1,197.34,222.84Z" style="fill:#fff;opacity:0.6000000000000001;isolation:isolate"></path><circle cx="202.68" cy="219.41" r="1.69" transform="translate(-73.87 332.28) rotate(-69.47)" style="fill:#fff;opacity:0.6000000000000001;isolation:isolate"></circle><path d="M203.3,219.64a1.07,1.07,0,0,1-1.37.61,1.06,1.06,0,0,1,.76-2A1,1,0,0,1,203.3,219.64Z" style="fill:#fff;opacity:0.6000000000000001;isolation:isolate"></path><path d="M197.05,211.74a1.68,1.68,0,1,1-1-2.18A1.68,1.68,0,0,1,197.05,211.74Z" style="fill:#fff;opacity:0.6000000000000001;isolation:isolate"></path><path d="M196.09,211.37a1,1,0,0,1-1.36.61,1.06,1.06,0,1,1,1.36-.61Z" style="fill:#fff;opacity:0.6000000000000001;isolation:isolate"></path><path d="M193.37,221.3a1.69,1.69,0,1,1-1-2.18A1.69,1.69,0,0,1,193.37,221.3Z" style="fill:#fff;opacity:0.6000000000000001;isolation:isolate"></path><path d="M192.41,220.93a1.05,1.05,0,0,1-1.36.6,1,1,0,0,1-.61-1.36,1.06,1.06,0,0,1,2,.76Z" style="fill:#fff;opacity:0.6000000000000001;isolation:isolate"></path><path d="M172.37,202.22a1.68,1.68,0,1,1-1-2.18A1.69,1.69,0,0,1,172.37,202.22Z" style="fill:#fff;opacity:0.6000000000000001;isolation:isolate"></path><path d="M171.41,201.85a1.06,1.06,0,1,1-.6-1.36A1.05,1.05,0,0,1,171.41,201.85Z" style="fill:#fff;opacity:0.6000000000000001;isolation:isolate"></path><path d="M168.68,211.78a1.68,1.68,0,1,1-1-2.18A1.69,1.69,0,0,1,168.68,211.78Z" style="fill:#fff;opacity:0.6000000000000001;isolation:isolate"></path><path d="M167.72,211.41a1.05,1.05,0,1,1-.6-1.36A1.05,1.05,0,0,1,167.72,211.41Z" style="fill:#fff;opacity:0.6000000000000001;isolation:isolate"></path><circle cx="175.73" cy="203.52" r="1.69" transform="matrix(0.34, -0.94, 0.94, 0.34, -75.48, 299.4)" style="fill:#fff;opacity:0.6000000000000001;isolation:isolate"></circle><path d="M176.35,203.75a1.05,1.05,0,1,1-.61-1.36A1.06,1.06,0,0,1,176.35,203.75Z" style="fill:#fff;opacity:0.6000000000000001;isolation:isolate"></path><path d="M173.62,213.68a1.68,1.68,0,1,1-3.14-1.21,1.68,1.68,0,0,1,3.14,1.21Z" style="fill:#fff;opacity:0.6000000000000001;isolation:isolate"></path><path d="M172.66,213.31a1.05,1.05,0,1,1-.6-1.36A1,1,0,0,1,172.66,213.31Z" style="fill:#fff;opacity:0.6000000000000001;isolation:isolate"></path></g><g id="Plant"><path d="M408.91,394.05s4.39-9.58-.62-19-6.47-11.67-3.28-13.6,4.67,7.55,4.67,7.55a21.35,21.35,0,0,0,.47-13.36c-2.23-6.83-3.62-17.95-.58-19.15s.58,13.88,3.21,19a44,44,0,0,0,2.58-11.2c.37-5.49-.2-14.25,2.2-16.5s3.94-.69,1.58,11.42a126.35,126.35,0,0,0-2.34,22s5.2-15.89,8.7-16.35,3.49,4.68.5,9.14-8.76,12.46-9.71,16.57c0,0,5.72-11.95,10.86-8.29s-4.48,10.88-8.76,13.49-7.27,19-7.27,19Z" style="fill:#407BFF"></path><path d="M408.91,394.05s4.39-9.58-.62-19-6.47-11.67-3.28-13.6,4.67,7.55,4.67,7.55a21.35,21.35,0,0,0,.47-13.36c-2.23-6.83-3.62-17.95-.58-19.15s.58,13.88,3.21,19a44,44,0,0,0,2.58-11.2c.37-5.49-.2-14.25,2.2-16.5s3.94-.69,1.58,11.42a126.35,126.35,0,0,0-2.34,22s5.2-15.89,8.7-16.35,3.49,4.68.5,9.14-8.76,12.46-9.71,16.57c0,0,5.72-11.95,10.86-8.29s-4.48,10.88-8.76,13.49-7.27,19-7.27,19Z" style="fill:#fff;opacity:0.6000000000000001;isolation:isolate"></path><path d="M412.38,398s-4.28-9.64.85-19,6.61-11.57,3.44-13.55-4.76,7.48-4.76,7.48a21.28,21.28,0,0,1-.31-13.36c2.31-6.8,3.84-17.9.81-19.14s-.74,13.87-3.44,19a44.39,44.39,0,0,1-2.45-11.25c-.3-5.49.38-14.24-2-16.53s-3.93-.75-1.72,11.4a127.26,127.26,0,0,1,2.08,22s-5-16-8.51-16.47-3.55,4.62-.61,9.13,8.61,12.58,9.51,16.71c0,0-5.57-12-10.76-8.45s4.35,10.95,8.6,13.62,7,19.07,7,19.07Z" style="fill:#407BFF"></path><path d="M412.38,398s-4.28-9.64.85-19,6.61-11.57,3.44-13.55-4.76,7.48-4.76,7.48a21.28,21.28,0,0,1-.31-13.36c2.31-6.8,3.84-17.9.81-19.14s-.74,13.87-3.44,19a44.39,44.39,0,0,1-2.45-11.25c-.3-5.49.38-14.24-2-16.53s-3.93-.75-1.72,11.4a127.26,127.26,0,0,1,2.08,22s-5-16-8.51-16.47-3.55,4.62-.61,9.13,8.61,12.58,9.51,16.71c0,0-5.57-12-10.76-8.45s4.35,10.95,8.6,13.62,7,19.07,7,19.07Z" style="fill:#fff;opacity:0.7000000000000001;isolation:isolate"></path><polygon points="392.66 391.11 427.98 391.11 425.12 416.38 395.52 416.38 392.66 391.11" style="fill:#407BFF"></polygon></g><g id="speech-bubble"><circle cx="148.33" cy="98.8" r="17.32" transform="translate(18.09 220.46) rotate(-76.72)" style="fill:#407BFF"></circle><path d="M147.17,103.82c-.08-1.17-.08-1.27-.08-1.38,0-3.24,3.25-5.14,3.25-8a2.32,2.32,0,0,0-2.62-2.41,3.91,3.91,0,0,0-3.22,1.69l-.73-2.39a4.91,4.91,0,0,1,4.15-1.85,5.17,5.17,0,0,1,5.46,4.94c0,3.14-4,5.27-4,9v.34Zm-.52,5.19v-3.22h3.22V109Z" style="fill:#fff;opacity:0.6000000000000001;isolation:isolate"></path><path d="M142,118.92a4.07,4.07,0,1,1-4.07-4.07A4.07,4.07,0,0,1,142,118.92Z" style="fill:#407BFF"></path><path d="M135.63,124.28a2.18,2.18,0,1,1-2.17-2.17A2.17,2.17,0,0,1,135.63,124.28Z" style="fill:#407BFF"></path><path d="M130.86,126.4a1.39,1.39,0,1,1-1.39-1.38A1.39,1.39,0,0,1,130.86,126.4Z" style="fill:#407BFF"></path></g><g id="Character"><g id="group"><polygon points="128.77 408.93 136.88 409.79 138.41 392.29 130.29 391.43 128.77 408.93" style="fill:#e4897b"></polygon><polygon points="88.29 408.34 96.15 408.34 96.8 390.13 88.93 390.13 88.29 408.34" style="fill:#e4897b"></polygon><path d="M97.24,407.43H87.69A.68.68,0,0,0,87,408l-1.55,7a1.16,1.16,0,0,0,.9,1.37,1.07,1.07,0,0,0,.25,0c3.09-.05,5.34-.24,9.22-.24,2.39,0,9.6.25,12.9.25s3.73-3.26,2.38-3.56c-6.06-1.32-10.62-3.15-12.56-4.89A1.89,1.89,0,0,0,97.24,407.43Z" style="fill:#263238"></path><path d="M97.78,408.52a.21.21,0,0,1-.14-.16.17.17,0,0,1,.09-.18c.28-.18,2.82-1.74,3.69-1.29a.55.55,0,0,1,.32.52,1.08,1.08,0,0,1-.39,1,2.36,2.36,0,0,1-1.51.4A9.65,9.65,0,0,1,97.78,408.52Zm.54-.26a3.82,3.82,0,0,0,2.8-.14.75.75,0,0,0,.25-.67c0-.15-.07-.22-.12-.22a.39.39,0,0,0-.24-.05A7.57,7.57,0,0,0,98.32,408.26Z" style="fill:#407BFF"></path><path d="M97.73,408.56a.22.22,0,0,1-.09-.17c0-.11.2-2.37,1.11-3.11a1,1,0,0,1,.79-.24.6.6,0,0,1,.6.49c.16.83-1.41,2.56-2.22,3h-.09A.17.17,0,0,1,97.73,408.56ZM99,405.5a4.46,4.46,0,0,0-.93,2.46c.81-.61,1.81-1.92,1.71-2.43,0,0,0-.19-.27-.19h-.09A.61.61,0,0,0,99,405.5Z" style="fill:#407BFF"></path><path d="M137.74,407.18h-9.55a.68.68,0,0,0-.67.54l-1.55,7a1.16,1.16,0,0,0,.9,1.37,1.07,1.07,0,0,0,.25,0c3.09-.05,5.34-.24,9.22-.24,2.39,0,9.6.25,12.9.25s3.73-3.26,2.38-3.56c-6.06-1.32-10.62-3.15-12.56-4.89A1.89,1.89,0,0,0,137.74,407.18Z" style="fill:#263238"></path><path d="M138.28,408.27a.21.21,0,0,1-.14-.16.17.17,0,0,1,.09-.18c.28-.18,2.82-1.74,3.69-1.29a.55.55,0,0,1,.32.52,1.08,1.08,0,0,1-.39,1,2.36,2.36,0,0,1-1.51.4A9.65,9.65,0,0,1,138.28,408.27Zm.54-.26a3.82,3.82,0,0,0,2.8-.14.75.75,0,0,0,.25-.67c0-.15-.07-.22-.12-.22a.39.39,0,0,0-.24-.05A7.57,7.57,0,0,0,138.82,408Z" style="fill:#407BFF"></path><path d="M138.23,408.31a.22.22,0,0,1-.09-.17c0-.11.2-2.37,1.11-3.11a1,1,0,0,1,.79-.24.6.6,0,0,1,.6.49c.16.83-1.41,2.56-2.22,3h-.09A.17.17,0,0,1,138.23,408.31Zm1.26-3.06a4.46,4.46,0,0,0-.93,2.46c.81-.61,1.81-1.92,1.71-2.43,0,0,0-.19-.27-.19h-.09A.61.61,0,0,0,139.49,405.25Z" style="fill:#407BFF"></path><polygon points="130.29 391.43 138.41 392.29 137.62 401.31 129.5 400.46 130.29 391.43" style="opacity:0.2;isolation:isolate"></polygon><polygon points="88.93 390.14 96.8 390.14 96.46 399.53 88.59 399.53 88.93 390.14" style="opacity:0.2;isolation:isolate"></polygon><path d="M92.18,230.4H133.9c4,21.66,16.39,98.32,7.48,166.63l-14.13-1.75s1.31-90.68-11.16-124.2c-1.43,17.94-3.14,37-4.62,47.18-3.63,25-11.4,79.64-11.4,79.64H85.69S88.63,345.6,90,321C91.48,294.36,92.12,235.88,92.18,230.4Z" style="fill:#263238"></path><path d="M85.69,397.9h14.38s7.77-54.64,11.4-79.64c1.48-10.15,3.18-29.24,4.62-47.18a111.8,111.8,0,0,1,4.66,18.05c7.45,40.21,6.5,106.15,6.5,106.15l14.12,2c8.91-68.31-3.5-145.38-7.47-166.38H92.18c-.06,5-.7,63.71-2.19,90.38C88.63,345.85,85.69,397.9,85.69,397.9Z" style="fill:#fff;opacity:0.2;isolation:isolate"></path><polygon points="142.99 400.32 125.51 397.72 126.05 392.88 144.23 395.26 142.99 400.32" style="fill:#407BFF"></polygon><polygon points="101.8 398.02 84.84 398.02 84.84 392.95 102.44 392.62 101.8 398.02" style="fill:#407BFF"></polygon><path d="M85,161.91a176.11,176.11,0,0,1,5,25.87c.33,2.68.6,5.31.82,7.86.29,3.24.49,6.36.65,9.32.2,3.75.26,8.18.25,12.54,0,10-.42,19.65-.42,19.65,8,2,31.12.67,43.75-.25a201,201,0,0,0,1.16-36.41,208,208,0,0,0-2.65-23.93A102.87,102.87,0,0,0,130.69,164a8,8,0,0,0-6.64-5.51c-1.53-.19-3.3-.38-5.16-.49-.72,0-1.44-.07-2.17-.08a154.22,154.22,0,0,0-17.84,1.24c-1.12.13-2.26.3-3.36.48A102.46,102.46,0,0,0,85,161.91Z" style="fill:#407BFF"></path><path d="M125.54,171.57a251.81,251.81,0,0,1,10.62,28.92,208,208,0,0,0-2.65-23.93Z" style="opacity:0.2;isolation:isolate"></path><path d="M98.87,159.15c3.83,3.48,13.22,2.19,13.22,2.19s5.85-1.6,4.62-3.43c-3.45-.57-5.12-2.18-5.81-4.24a10,10,0,0,1-.35-3.94,20.71,20.71,0,0,1,.29-2.2l-11.6-8.59C100.76,144.61,102.62,155,98.87,159.15Z" style="fill:#e4897b"></path><path d="M101.92,144.4c.46,7,6.18,8.88,9,9.27a10,10,0,0,1-.35-3.94Z" style="opacity:0.2;isolation:isolate"></path><path d="M122.25,124.32s1.34,8.91-4.41,13.08-5.75-16-5.75-16Z" style="fill:#263238"></path><path d="M120.05,141.34a23,23,0,0,1-.85,2.35,11.2,11.2,0,0,1-.52,1,11,11,0,0,1-6.25,5.09A9.83,9.83,0,0,1,101.14,146a11.92,11.92,0,0,1-1-1.76c-2-4-1.2-8.32-.45-15.07a10.66,10.66,0,0,1,16.28-8C122.16,125,122.13,134.61,120.05,141.34Z" style="fill:#e4897b"></path><path d="M110.94,133.32c-.15.61.13,1.18.55,1.25s.82-.38.93-1-.14-1.18-.55-1.25S111.05,132.68,110.94,133.32Z" style="fill:#263238"></path><path d="M118,134.52c-.15.61.14,1.19.55,1.26s.83-.39.94-1-.15-1.19-.55-1.26S118.1,133.93,118,134.52Z" style="fill:#263238"></path><path d="M115.7,134.45a22.55,22.55,0,0,0,2.08,5.85,3.66,3.66,0,0,1-3.1,0Z" style="fill:#de5753"></path><path d="M109.14,130.65a.38.38,0,0,0,.38-.08,3,3,0,0,1,2.55-.83.37.37,0,1,0,.18-.72h0a3.69,3.69,0,0,0-3.24,1,.37.37,0,0,0,0,.52h0A.51.51,0,0,0,109.14,130.65Z" style="fill:#263238"></path><path d="M121.45,132.6a.43.43,0,0,0,.22.06.39.39,0,0,0,.26-.46h0a3.67,3.67,0,0,0-2.29-2.51.37.37,0,0,0-.46.25h0a.39.39,0,0,0,.25.46h0a3,3,0,0,1,1.78,2A.37.37,0,0,0,121.45,132.6Z" style="fill:#263238"></path><path d="M107.57,121.89H97.34c-1,2.67-1.21,7.24-.5,12.68.91,7,3.66,10.16,3.66,10.16-1.66-3.33-1.16-9.83-.08-10s1,1.09,1,1.09c2.42-1.51,4.58-5.75,3.83-8.75C104.84,125.42,107.57,121.89,107.57,121.89Z" style="fill:#263238"></path><path d="M95.23,134.9a7.4,7.4,0,0,0,3.55,4.41c2.29,1.23,4-.68,3.85-3.14-.16-2.19-1.52-5.53-4.06-5.72S94.57,132.58,95.23,134.9Z" style="fill:#e4897b"></path><path d="M103.32,125.25s4.45-3.06,6.92-3.06,4,2.07,5.94,2.37,2.47-1,2.47-1,3.16.79,3.46,3.17c0,0,2.27-4.26.4-6.53s-6-3.36-6-3.36-.1-3.27-4.25-4.36-16.71,3.86-15.63,11.28S103.32,125.25,103.32,125.25Z" style="fill:#263238"></path><path d="M120.05,141.34a23,23,0,0,1-.85,2.35,11.2,11.2,0,0,1-.52,1,11,11,0,0,1-6.25,5.09A9.83,9.83,0,0,1,101.14,146a11.92,11.92,0,0,1-1-1.76c-.11-4.68,2.13-10.2,2.13-10.2l.79-.39s0,3.66,2.38,4.15,5.93,3.63,9.36,4A11.56,11.56,0,0,0,120.05,141.34Z" style="opacity:0.30000000000000004;isolation:isolate"></path><path d="M113.11,143.41h0a5.69,5.69,0,0,1-4.63-2.52.21.21,0,0,1,.07-.27.19.19,0,0,1,.26.06h0a5.46,5.46,0,0,0,4.31,2.32.19.19,0,0,1,.19.19v0a.18.18,0,0,1-.19.19Z" style="fill:#263238"></path><path d="M91.42,205c.2,3.75.26,8.18.25,12.54,14.74-1.6,18.42-9.64,18.42-9.64L90.77,195.64C91.06,198.88,91.26,202,91.42,205Z" style="opacity:0.2;isolation:isolate"></path><path d="M116.09,271.08a111.8,111.8,0,0,1,4.66,18.05c1.17-16-3.5-32.9-3.5-32.9Z" style="opacity:0.2;isolation:isolate"></path><path d="M96.69,159.47s6.88,5.06,15.56,3.93a6,6,0,0,0,5.56-5.56l-2.13-.77s0,2.65-5.39,3.19c-4.87.5-11.67-2.17-11.67-2.17Z" style="fill:#407BFF"></path><path d="M96.69,159.47s6.88,5.06,15.56,3.93a6,6,0,0,0,5.56-5.56l-2.13-.77s0,2.65-5.39,3.19c-4.87.5-11.67-2.17-11.67-2.17Z" style="fill:#fff;opacity:0.6000000000000001;isolation:isolate"></path><path d="M128.41,173.81,119,158.49a6.68,6.68,0,0,1-3.88-2.49c-1.44-2-2.35-10-1.67-10.34s8,.5,8.5,1.48,2,9.1,2,9.1L134.74,169Z" style="fill:#e4897b"></path><path d="M100.05,177.18l1,7.31s19.78-.39,29.48.2l-.6-7.32S112.52,175.4,100.05,177.18Z" style="fill:#fff;opacity:0.6000000000000001;isolation:isolate"></path><path d="M126.8,159.39c9.45.76,28.06,31.69,24.56,38.42s-9.37,9.84-19.49-9.16S126.8,159.39,126.8,159.39Z" style="fill:#407BFF"></path><path d="M126.8,159.39c9.45.76,28.06,31.69,24.56,38.42s-9.37,9.84-19.49-9.16S126.8,159.39,126.8,159.39Z" style="opacity:0.2;isolation:isolate"></path><path d="M149.61,187.23c-4.6-7.57-20.79-27.29-20.79-27.29L121.31,165s13.53,27.46,18.61,32.81S156.12,197.94,149.61,187.23Z" style="fill:#407BFF"></path><path d="M149.61,187.23c-4.6-7.57-20.79-27.29-20.79-27.29L121.31,165s13.53,27.46,18.61,32.81S156.12,197.94,149.61,187.23Z" style="opacity:0.1;isolation:isolate"></path><polygon points="131.05 161.21 128.63 158.78 120.55 164.78 121.31 167.9 131.05 161.21" style="fill:#407BFF"></polygon><polygon points="131.05 161.21 128.63 158.78 120.55 164.78 121.31 167.9 131.05 161.21" style="fill:#fff;opacity:0.6000000000000001;isolation:isolate"></polygon><path d="M120,198.54l17.94-1.25a6.67,6.67,0,0,1,4-2.28c2.49-.34,9.94,2.53,9.94,3.3s-4.14,6.85-5.24,6.85-9-2.49-9-2.49l-16.29,3.73Z" style="fill:#e4897b"></path><path d="M85.08,162s-3.78,2.15-4.33,12.66c-.49,9.48,2.56,29.65,8.5,34.06,9.5,7,44-2.67,44-2.67l-1.33-10.18s-26.12,3.47-32.34,0-8.08-21.21-8.08-21.21S88.9,163.08,85.08,162Z" style="fill:#407BFF"></path><path d="M85.08,162s-3.78,2.15-4.33,12.66c-.49,9.48,2.56,29.65,8.5,34.06,9.5,7,44-2.67,44-2.67l-1.33-10.18s-26.12,3.47-32.34,0-8.08-21.21-8.08-21.21S88.9,163.08,85.08,162Z" style="opacity:0.1;isolation:isolate"></path><polygon points="129.42 195.08 131.15 207.86 134.32 206.63 133.51 195.28 129.42 195.08" style="fill:#407BFF"></polygon><polygon points="129.42 195.08 131.15 207.86 134.32 206.63 133.51 195.28 129.42 195.08" style="fill:#fff;opacity:0.6000000000000001;isolation:isolate"></polygon></g></g></svg>