<svg xmlns="http://www.w3.org/2000/svg" viewBox="0 0 750 500"><g id="background-complete"><path d="M686.46,178.67a13.61,13.61,0,0,1,3.48,10.05,23.87,23.87,0,0,1-3.24,10.34c-3.4,6.18-9.76,11.2-15.86,14.75-3.5-7-1.34-15.83,0-20.23,2.17-7,10.33-18.23,15.58-14.91" style="fill:#ebebeb"></path><path d="M672.79,227.11a11.58,11.58,0,0,1,7.65-8.76,15.38,15.38,0,0,1,11.84,1c1.68.84,3.34,2.12,3.75,4a5,5,0,0,1-1.84,4.67,10,10,0,0,1-4.82,2c-6,1-11.89.92-16.58-2.88" style="fill:#ebebeb"></path><path d="M657.63,244.1a8.49,8.49,0,0,1,.74-1.25l2.14-3.32c1.84-2.76,4.38-6.75,8.44-10a24.78,24.78,0,0,1,11.85-5.38,16.61,16.61,0,0,1,4-.1,9.08,9.08,0,0,1,1.07.15c.25,0,.37.07.37.09a26.59,26.59,0,0,0-5.36.22A25.69,25.69,0,0,0,669.26,230c-4,3.15-6.54,7.06-8.45,9.77-.95,1.37-1.72,2.48-2.28,3.23A7.2,7.2,0,0,1,657.63,244.1Z" style="fill:#e0e0e0"></path><path d="M681,187.8a3.91,3.91,0,0,1-.18.61l-.58,1.71c-.52,1.49-1.3,3.62-2.28,6.25-2,5.26-4.79,12.49-8.08,20.4s-6.43,15-8.78,20.12c-1.17,2.55-2.14,4.6-2.82,6-.33.66-.6,1.2-.8,1.62a3.36,3.36,0,0,1-.31.55,2.78,2.78,0,0,1,.21-.59c.19-.43.42-1,.72-1.67l2.67-6.08c2.26-5.14,5.35-12.25,8.64-20.16s6.16-15.11,8.21-20.34l2.43-6.19c.28-.68.5-1.24.68-1.67A2.79,2.79,0,0,1,681,187.8Z" style="fill:#e0e0e0"></path><path d="M661.73,227.18a27.09,27.09,0,0,0-6.14-24c-1.46-1.63-3.61-3.17-5.67-2.43s-2.72,3.31-2.76,5.5a23.16,23.16,0,0,0,14.22,21.39" style="fill:#ebebeb"></path><path d="M654,209.71a6.09,6.09,0,0,1,.95,1,11.26,11.26,0,0,1,1,1.23c.37.51.83,1.05,1.24,1.73a24.61,24.61,0,0,1,1.31,2.22,25.58,25.58,0,0,1,1.27,2.67,29.85,29.85,0,0,1,1.82,6.54,29.46,29.46,0,0,1,.18,6.78,24.7,24.7,0,0,1-.45,2.93,21.07,21.07,0,0,1-.65,2.5,19.78,19.78,0,0,1-.71,2,11.6,11.6,0,0,1-.66,1.46,6.87,6.87,0,0,1-.65,1.2c-.11,0,.82-1.77,1.68-4.77a23.21,23.21,0,0,0,.57-2.47,26.87,26.87,0,0,0,.4-2.89,30.33,30.33,0,0,0-.21-6.67,31.73,31.73,0,0,0-1.75-6.43c-.4-.95-.77-1.85-1.21-2.66a24.79,24.79,0,0,0-1.25-2.22C655.2,211.2,653.86,209.78,654,209.71Z" style="fill:#e0e0e0"></path><path d="M65.06,116.34s-9.2,3-.28,22.7,15.29,29.58,15.29,29.58,1.53,4.55-2.27,5.07-12-1.19-13.92,3.34c-2,4.69,1.3,9.36,8.15,13.65S93.55,204.9,94.87,205.8s2.54,3,0,3.8-21.27,1.84-20.23,10.7S96.74,238,99,239s2.79,2,2.54,3.28-6.58,1-11.9,1.56-11.39,2.06-10.36,7.12,13.22,16.17,43.88,20.63l14.34,1.14,8.38-11.77c16.42-26.27,15.82-42.75,12.63-46.81s-8.3-.42-12.13,3.3-7.76,8.7-8.88,8.07-1.57-1.67-.87-4.06,7.61-24.14,1.52-30.66-19,7.08-21.24,8.52-3.05-.9-2.89-2.47,2.06-19.2,3.22-27.2-.29-13.5-5.14-15c-4.68-1.48-8.7,5.9-11.55,8.46s-5.33-1.55-5.33-1.55-3.41-11.22-12.69-30.78-17.67-14.29-17.67-14.29" style="fill:#ebebeb"></path><path d="M138.1,276.12c-6.76-14.4-18.34-40.18-28.4-62.26S90.52,171.8,83.83,157.38L75.9,140.3l-2.15-4.64-.55-1.22A4,4,0,0,1,73,134s.08.13.22.4l.59,1.2c.51,1.07,1.26,2.62,2.23,4.61,1.93,4,4.68,9.81,8.06,17,6.76,14.39,15.93,34.35,26,56.43S131.7,261.56,138.39,276" style="fill:#e0e0e0"></path><path d="M75.3,179.88a5.52,5.52,0,0,1,1,.33c.62.23,1.52.6,2.62,1.06,2.2.93,5.21,2.29,8.51,3.85l8.42,4,2.56,1.2a5.38,5.38,0,0,1,.92.48,4.19,4.19,0,0,1-1-.32c-.63-.23-1.52-.6-2.62-1.07-2.2-1-5.19-2.35-8.48-3.91l-8.45-4-2.56-1.19A4.51,4.51,0,0,1,75.3,179.88Z" style="fill:#e0e0e0"></path><path d="M100.34,190c-.11,0,2.42-6.38,5.65-14.13s6-14,6.06-14-2.41,6.38-5.65,14.14S100.46,190,100.34,190Z" style="fill:#e0e0e0"></path><path d="M114.26,224.55a5,5,0,0,1,.63-.85c.48-.61,1.09-1.36,1.81-2.25,1.52-1.9,3.62-4.54,5.83-7.53s4.12-5.75,5.49-7.77l1.62-2.39a5.76,5.76,0,0,1,.63-.85,3.94,3.94,0,0,1-.49.94c-.34.6-.85,1.44-1.5,2.47-1.3,2.07-3.17,4.88-5.4,7.87s-4.35,5.61-5.94,7.46c-.8.92-1.45,1.66-1.92,2.16A4.35,4.35,0,0,1,114.26,224.55Z" style="fill:#e0e0e0"></path><path d="M89.6,220.44a4,4,0,0,1,1,.06l2.65.33c2.23.31,5.31.76,8.71,1.28s6.47,1,8.69,1.4l2.63.48a4,4,0,0,1,.95.23,4,4,0,0,1-1-.06l-2.64-.33c-2.24-.31-5.32-.76-8.72-1.28s-6.47-1-8.69-1.4l-2.62-.48A4.44,4.44,0,0,1,89.6,220.44Z" style="fill:#e0e0e0"></path><path d="M98,252.55a6.47,6.47,0,0,1,1.25.09l3.4.42c2.86.37,6.81.91,11.17,1.54s8.31,1.22,11.16,1.68l3.38.55a7.86,7.86,0,0,1,1.23.27,6.56,6.56,0,0,1-1.26-.09l-3.39-.42c-2.86-.37-6.82-.92-11.18-1.55s-8.31-1.22-11.16-1.67l-3.37-.56A6.73,6.73,0,0,1,98,252.55Z" style="fill:#e0e0e0"></path><path d="M128.87,256.78a7.63,7.63,0,0,1,.77-1.11c.56-.76,1.3-1.74,2.19-2.93,1.85-2.48,4.39-5.91,7.09-9.78s5.06-7.43,6.74-10l2-3.07a8.29,8.29,0,0,1,.77-1.1,7.69,7.69,0,0,1-.63,1.19c-.43.75-1.07,1.83-1.88,3.14-1.62,2.64-3.94,6.24-6.65,10.11s-5.28,7.29-7.2,9.72c-1,1.21-1.75,2.19-2.31,2.85A6.85,6.85,0,0,1,128.87,256.78Z" style="fill:#e0e0e0"></path><path d="M362.47,234.65c-25.62-12.89-35.26-42.31-38.26-69.57-.5-4.55-1.69-9.25-.11-13.53s6.21-7.73,10.54-6.4c3.59,1.09,5.62,4.79,8,7.75a26.71,26.71,0,0,0,12.09,8.61c3.1,1.08,6.8,1.48,9.42-.5,3.59-2.72,3.27-8.18,2.59-12.68q-1.9-12.59-3.8-25.16c-.68-4.5-1.35-9.09-.57-13.57s3.3-8.89,7.41-10.71,9.77-.12,11.31,4.16c.64,1.78.54,3.74.94,5.59s1.56,3.79,3.41,4.06,3.5-1.27,4.65-2.79c4-5.21,6.3-11.53,8.41-17.78s4.1-12.63,7.6-18.2,8.77-10.34,15.16-11.64,13.85,1.69,16.39,7.79-.22,13.09-3.51,18.81a101.3,101.3,0,0,1-18,23c-1.28,1.21-2.66,2.52-3,4.27-.54,3.14,2.73,5.71,5.84,6.27,3.52.63,7.11-.24,10.68-.34s7.6.91,9.41,4c2.51,4.34-.64,9.72-4,13.43a86.89,86.89,0,0,1-23.35,18.39c-3.14,1.69-6.47,3.26-8.81,6s-3.36,7-1.29,9.93,6.36,3.36,9.74,2.21,6.21-3.48,9.34-5.2c5.85-3.23,13.9-4,18.64.81,3.11,3.14,4.05,8,3.34,12.39s-2.86,8.37-5.22,12.11c-8.24,13.07-19.58,24.28-33.22,31.33s-26.74,10.32-41.76,7.17" style="fill:#f5f5f5"></path><path d="M367,216.63a409.44,409.44,0,0,1,9.74-45.76L379.92,159c1.05-3.89,2.09-7.75,3.34-11.46a203,203,0,0,1,8.41-20.92c3-6.52,6.07-12.6,9-18.27s5.78-10.89,8.56-15.54A161.65,161.65,0,0,1,424,71.87c1.93-2.33,3.49-4.09,4.56-5.26l1.22-1.33a3.46,3.46,0,0,1,.44-.44,2.76,2.76,0,0,1-.37.49l-1.17,1.39c-1,1.21-2.54,3-4.43,5.36a171,171,0,0,0-14.52,21c-2.75,4.66-5.55,9.89-8.45,15.56s-5.95,11.76-8.92,18.27A205.32,205.32,0,0,0,384,147.81c-1.24,3.7-2.27,7.52-3.32,11.42s-2.09,7.86-3.16,11.86a417,417,0,0,0-9.79,45.66" style="fill:#e0e0e0"></path><path d="M383.49,147.48a9.11,9.11,0,0,1-.72-1.86c-.41-1.21-1-3-1.6-5.17-1.28-4.4-2.85-10.52-4.55-17.28s-3.36-12.85-4.7-17.21c-.67-2.18-1.23-3.94-1.63-5.15a9.45,9.45,0,0,1-.54-1.92,8.64,8.64,0,0,1,.84,1.8c.5,1.18,1.14,2.92,1.89,5.09,1.49,4.32,3.24,10.41,4.95,17.18l4.31,17.33q.79,3.12,1.35,5.24A8.72,8.72,0,0,1,383.49,147.48Z" style="fill:#e0e0e0"></path><path d="M439.82,128.29a12.51,12.51,0,0,1-2.27.61c-1.46.35-3.59.84-6.19,1.53-5.22,1.34-12.37,3.44-20.15,6.1s-14.72,5.41-19.68,7.52c-2.49,1-4.48,1.94-5.86,2.55a12.27,12.27,0,0,1-2.18.88,12.42,12.42,0,0,1,2-1.18c1.34-.7,3.3-1.68,5.76-2.8,4.92-2.26,11.85-5.08,19.65-7.77a204.54,204.54,0,0,1,20.28-5.88c2.63-.62,4.78-1,6.27-1.27A12.33,12.33,0,0,1,439.82,128.29Z" style="fill:#e0e0e0"></path><path d="M367.57,215.46a3,3,0,0,1-.5-.64c-.35-.53-.77-1.18-1.29-2-1.12-1.7-2.67-4.2-4.54-7.31-3.75-6.23-8.66-15-13.95-24.75S337.17,162.25,333.55,156l-4.3-7.44-1.16-2a3.18,3.18,0,0,1-.36-.74,2.89,2.89,0,0,1,.5.65l1.29,2c1.12,1.7,2.67,4.2,4.54,7.32,3.75,6.23,8.67,15,14,24.75s10.11,18.54,13.73,24.84l4.3,7.45c.47.81.85,1.49,1.16,2A3.08,3.08,0,0,1,367.57,215.46Z" style="fill:#e0e0e0"></path><path d="M440.92,179.55a3.31,3.31,0,0,1-.72.42L438.08,181l-7.85,3.86c-6.63,3.27-15.74,7.88-25.79,13s-19.22,9.64-25.92,12.77c-3.35,1.56-6.07,2.8-8,3.62l-2.19.92a2.7,2.7,0,0,1-.79.27,3.69,3.69,0,0,1,.72-.42l2.12-1.07,7.86-3.86c6.63-3.26,15.73-7.87,25.79-13s19.21-9.64,25.91-12.77c3.35-1.56,6.07-2.8,8-3.62l2.19-.92A2.7,2.7,0,0,1,440.92,179.55Z" style="fill:#e0e0e0"></path><path d="M568.22,111.65c0-16.32-17.14-26.65-34.62-18.48a19.91,19.91,0,0,0-9.2,8.82c-4.39,8.52-2.45,18.24,1.54,26.32l13.6,34.47a5.86,5.86,0,0,0,10.92,0l13.34-34.66C568.41,117.53,568.22,111.65,568.22,111.65Zm-16.42,14.2c-11.75,6.83-23.66-5.8-17.22-18.26a9.78,9.78,0,0,1,3.74-4c11.75-6.83,23.65,5.8,17.21,18.26A9.76,9.76,0,0,1,551.8,125.85Z" style="fill:#f5f5f5"></path></g><g id="background-simple"><path d="M636.39,230.32c11.52-43,.94-91.33-27.5-125.6s-74-53.57-118.36-50.18S404.05,83.92,381.14,122.1c-7.74,12.9-13.62,27.34-24.64,37.56-14.92,13.84-36.68,17.5-57,17s-40.6-4.43-60.9-3.14c-36,2.28-70.8,22.39-89.26,53.38s-19.28,72.15-.58,103c15.34,25.32,42,42.27,70.19,51.26s58.16,10.8,87.75,11.57c65.6,1.69,132.73-1.68,193.87-25.51s116-71,135.29-133.74" style="fill:#e0e0e0"></path><path d="M112.21,51.89c9-17,27-28.67,47.68-26.54,8.81-.52,24.76,5.34,35,16.82s14.4,28.42,10.41,43.26c-5,18.59-15.85,31.86-34.48,36.72s-39.88-1.52-52.34-16.2S103.22,68.92,112.21,51.89Z" style="fill:#e0e0e0"></path></g><g id="Floor"><path d="M710,444.08c0,.15-150,.26-334.94.26s-335-.11-335-.26,149.94-.26,335-.26S710,443.94,710,444.08Z" style="fill:#263238"></path></g><g id="Device"><path d="M324.16,444.08l-132.92-.61a29,29,0,0,1-28.82-29.08l1.41-333.23a29,29,0,0,1,29.09-28.83l132.92.61A29,29,0,0,1,354.66,82l-1.41,333.23A29,29,0,0,1,324.16,444.08Z" style="fill:#455a64"></path><path d="M325.65,64.44l-25.77-.12a6.41,6.41,0,0,0-6.29,6.51l0,4.68A6.39,6.39,0,0,1,287.29,82l-50.24-.23a6.42,6.42,0,0,1-6.23-6.57l0-4.68A6.41,6.41,0,0,0,224.61,64l-9.06,0L193,63.83A20.28,20.28,0,0,0,172.62,84l-1.37,325.26a20.28,20.28,0,0,0,20.18,20.37l132.66.61a20.28,20.28,0,0,0,20.37-20.19L345.83,84.8A20.27,20.27,0,0,0,325.65,64.44Z" style="fill:#fafafa"></path><polygon points="172.46 123.05 194.2 123.05 213.6 142.46 193.43 162.63 172.69 141.88 172.46 123.05" style="fill:#ebebeb"></polygon><polygon points="218.03 133.94 207.13 123.05 231.65 123.05 218.03 133.94" style="fill:#ebebeb"></polygon><path d="M227.56,142.84l19.09-19.09h66.7s10.21,45.6-30,74.88Z" style="fill:#ebebeb"></path><polygon points="219.39 148.92 198.97 169.35 255.48 225.86 275.9 204.75 219.39 148.92" style="fill:#ebebeb"></polygon><polygon points="172.21 180.93 185.01 167.65 172.46 155.1 172.21 180.93" style="fill:#ebebeb"></polygon><polygon points="192.67 175.48 173.01 195.14 173.01 222.46 213.6 263.99 247.99 231.99 192.67 175.48" style="fill:#ebebeb"></polygon><path d="M291,204.36s42.12-30.88,28.5-80.61h26.19l-.32,140.36Z" style="fill:#ebebeb"></path><polygon points="283.08 212.46 262.72 233.72 325.16 296.17 344.26 275.93 283.08 212.46" style="fill:#ebebeb"></polygon><polygon points="254.21 239.54 222.2 271.32 286.22 334.89 318.17 304 254.21 239.54" style="fill:#ebebeb"></polygon><polygon points="237.43 398.77 286.37 348.05 332.92 395.5 237.43 398.77" style="fill:#ebebeb"></polygon><path d="M294,341.5,345,291c0,2.24-.44,104.71-.44,104.71Z" style="fill:#ebebeb"></path><polygon points="250.37 313.14 279.28 342.05 222.2 400.95 195.83 369.32 250.37 313.14" style="fill:#ebebeb"></polygon><path d="M172.26,373.42c2.73-.27,72.64-65.74,72.64-65.74l-72.64-75.27Z" style="fill:#ebebeb"></path><polyline points="171.25 388.34 188.08 373.42 211.39 400.95 171.25 400.95 171.25 390.42" style="fill:#ebebeb"></polyline><path d="M193,103.23a41.85,41.85,0,0,1-5-4.34h0c0-.76,0-.21,0-.38h0l0,0,.07-.06.12-.11.25-.23.48-.45.91-.84,1.57-1.4A7.66,7.66,0,0,1,193,94.17a7,7,0,0,1-1.28,1.46l-1.5,1.48-.89.86-.48.46-.24.23-.13.11-.06.06,0,0h0v-.38h0A42.46,42.46,0,0,1,193,103.23Z" style="fill:#263238"></path><path d="M331.25,95.6a1.09,1.09,0,1,1-1.08-1.08A1.08,1.08,0,0,1,331.25,95.6Z" style="fill:#263238"></path><path d="M330.94,98.57a1.09,1.09,0,1,1-1.54,0A1.1,1.1,0,0,1,330.94,98.57Z" style="fill:#263238"></path><path d="M331.25,103.07a1.09,1.09,0,0,1-2.17,0,1.09,1.09,0,1,1,2.17,0Z" style="fill:#263238"></path><rect x="237.61" y="100.03" width="46.78" height="3.9" style="fill:#263238"></rect><path d="M279.3,170c0-18.22-19.14-29.76-38.66-20.63a22.16,22.16,0,0,0-10.28,9.85c-4.91,9.51-2.74,20.37,1.71,29.39l15.2,38.51a6.55,6.55,0,0,0,12.2,0l14.89-38.71C279.52,176.61,279.3,170,279.3,170ZM261,185.9c-13.12,7.63-26.42-6.47-19.23-20.39a11,11,0,0,1,4.17-4.42c13.13-7.63,26.43,6.47,19.23,20.39A10.91,10.91,0,0,1,261,185.9Z" style="fill:#FF725E"></path></g><g id="Car"><rect x="122.25" y="309.12" width="554.82" height="81.41" style="fill:#FF725E"></rect><g style="opacity:0.5"><rect x="122.25" y="309.12" width="554.82" height="81.41"></rect></g><circle cx="196.8" cy="389.98" r="53.5" transform="translate(-25.73 14.09) rotate(-3.85)" style="fill:#263238"></circle><path d="M143.32,389.07c0,.05,0,.1,0,.14a53.5,53.5,0,1,0,107,1.55c0-.05,0-.1,0-.14Z" style="fill:#263238"></path><path d="M159.25,389.44a37.56,37.56,0,1,0,38.09-37A37.56,37.56,0,0,0,159.25,389.44Z" style="fill:#fafafa"></path><path d="M197.34,352.43a37.55,37.55,0,0,0-38.09,37l75.11,1.09A37.56,37.56,0,0,0,197.34,352.43Z" style="fill:#e0e0e0"></path><path d="M173.93,389.65a22.88,22.88,0,1,0,23.2-22.54A22.87,22.87,0,0,0,173.93,389.65Z" style="fill:#263238"></path><circle cx="605.9" cy="389.98" r="53.5" transform="translate(-21.54 35.69) rotate(-3.32)" style="fill:#263238"></circle><path d="M552.42,389.07c0,.05,0,.1,0,.14a53.5,53.5,0,1,0,107,1.55c0-.05,0-.1,0-.14Z" style="fill:#263238"></path><path d="M568.35,389.44a37.56,37.56,0,1,0,38.09-37A37.56,37.56,0,0,0,568.35,389.44Z" style="fill:#fafafa"></path><path d="M606.44,352.43a37.55,37.55,0,0,0-38.09,37l75.11,1.09A37.56,37.56,0,0,0,606.44,352.43Z" style="fill:#e0e0e0"></path><path d="M583,389.65a22.88,22.88,0,1,0,23.2-22.54A22.87,22.87,0,0,0,583,389.65Z" style="fill:#263238"></path><path d="M266.93,263.32s-78.78,5.81-108,12.36c-20.58,4.61-60.26,12.58-59.78,37.54l3.15,17.9S87.59,337.84,87.59,355,84,398.76,118.36,399.83c5.66.17,16.41,0,16.41,0s-6.59-73.18,60.63-75.32c68.39-2.18,63.85,74.65,63.85,74.65H544.68s-11.72-74.85,61.9-75S669,399.65,669,399.65s27.08,2.34,39.68-20.42,9.33-39,9.33-39l-.42-14.39a9.32,9.32,0,0,0-9-9h0s4.92-36.22-2.63-42.49-48.92-44.1-48.92-44.1l2-1.23a4.64,4.64,0,0,0-1-8.32c-15.71-5.4-46.77-16.09-54.07-18.64a13.14,13.14,0,0,0-3.39-.72c-4.36-.33-16.7-1.11-39.35-1.35-27.59-.3-137.13,0-137.13,0s-37.7,3.1-58.7,12.34C343.38,222.05,266.93,263.32,266.93,263.32Z" style="fill:#FF725E"></path><g style="opacity:0.4"><path d="M107.57,353c-2.86-.58-7.24-.63-9.42,1.3-1.62,1.44-2.05,3.77-2.29,5.92a25.16,25.16,0,0,0,.2,8.87,10.82,10.82,0,0,0,5,7.07c2.62,1.42,6.2,1.19,8.23-1,1.86-2,2.07-5,2-7.67-.07-3.86.24-7.13-.47-10.92a5.26,5.26,0,0,0-1-2.21,3,3,0,0,0-2.28-1.37"></path></g><path d="M102.32,331.12c8.36,0,16.47-.46,24.82-1a4,4,0,0,0,2.54-.77,4.06,4.06,0,0,0,.87-3c0-4.48-.18-9.58-3.58-12.5-2.08-1.78-4.93-2.34-7.66-2.59a49.33,49.33,0,0,0-20.14,2Z" style="fill:#fafafa"></path><path d="M276,396.87s0-.24-.06-.72-.08-1.19-.14-2.1c-.1-1.86-.25-4.57-.44-8.07s-.43-7.79-.93-12.75a100.8,100.8,0,0,0-2.95-16.63,75.75,75.75,0,0,0-8.05-18.75,59,59,0,0,0-15.57-17.36c-13.49-9.6-31.72-15-50.79-15.26S159.76,311,146.6,321.11a74,74,0,0,0-16.37,16.71,78.66,78.66,0,0,0-9.58,18,72.89,72.89,0,0,0-4.05,16.37,68.63,68.63,0,0,0-.49,12.73,63.7,63.7,0,0,0,1,8c.16.89.29,1.58.37,2.06s.11.71.11.71-.06-.23-.16-.69L117,393a58.35,58.35,0,0,1-1.08-8,67.41,67.41,0,0,1,.4-12.78,72.9,72.9,0,0,1,4-16.46,79,79,0,0,1,9.58-18.15,74,74,0,0,1,16.44-16.84c13.22-10.16,31.5-16.25,50.72-16s37.48,5.7,51.08,15.39a59.4,59.4,0,0,1,15.65,17.52,75.52,75.52,0,0,1,8,18.89,99.05,99.05,0,0,1,2.89,16.7c.47,5,.68,9.26.84,12.76s.27,6.22.35,8.08c0,.91.06,1.61.08,2.1S276,396.87,276,396.87Z" style="fill:#fff"></path><path d="M279,398.11l0-.6-.06-1.77c-.05-1.58-.12-3.89-.22-6.91-.17-6.07-.42-14.94-.74-26.23s-.69-25-1.12-40.7c-.11-3.93-.21-8-.33-12.15a41.24,41.24,0,0,1,.28-6.35l.45-3.22.66-3.23a65.4,65.4,0,0,1,4.45-12.81A64.52,64.52,0,0,1,289.67,272l0,0,0,0,49.43-31.14,13.35-8.4a104.88,104.88,0,0,1,14.13-7.89A145.22,145.22,0,0,1,382,218.36c2.62-.92,5.31-1.67,8-2.47s5.43-1.46,8.21-2a187.26,187.26,0,0,1,31.85-4,301.85,301.85,0,0,1,30.85.1l.29,0-.07.29-13.28,59.41v0l0,0a65.6,65.6,0,0,0-6,12.77,34.86,34.86,0,0,0-2,13.2c.34,4.39.46,8.69.57,12.86s.16,8.21.24,12.14c.23,15.7.29,29.39.33,40.67s0,20.15,0,26.21c0,3,0,5.33,0,6.91,0,.77,0,1.36,0,1.77s0,.6,0,.6,0-.21,0-.6,0-1,0-1.77c0-1.58,0-3.89,0-6.91,0-6.06-.09-14.93-.16-26.2s-.17-25-.44-40.68q-.12-5.88-.26-12.13c-.12-4.17-.24-8.45-.59-12.84a35.22,35.22,0,0,1,2-13.37,65.08,65.08,0,0,1,6-12.87l0,.07c4.07-18.29,8.52-38.25,13.23-59.42l.23.3a300.56,300.56,0,0,0-30.78-.08,185.2,185.2,0,0,0-31.77,4c-2.77.55-5.47,1.32-8.18,2s-5.36,1.55-8,2.46A145,145,0,0,0,366.85,225a104.27,104.27,0,0,0-14.06,7.84l-13.36,8.4L290,272.31l0-.05a63.63,63.63,0,0,0-7.28,12.07,64.35,64.35,0,0,0-4.44,12.72c-2.25,8.57-1.12,17-1.1,24.85l1,40.7c.27,11.28.48,20.16.62,26.22.07,3,.11,5.34.15,6.92q0,1.15,0,1.77C279,397.91,279,398.11,279,398.11Z" style="fill:#263238"></path><path d="M460.55,211.64l.47,0,1.37-.05,5.31-.13,19.69-.38,66.38-1.14h.13l.08.1,9.3,11.39C572.7,233,581.68,244,589.84,254l3,3.7a21.93,21.93,0,0,1,2.49,4,20.79,20.79,0,0,1,.37,16.88l-3,7-9.18,21.24L581,312.58l-.67,1.5c-.15.33-.24.5-.24.5s.06-.18.19-.52.36-.87.62-1.52c.57-1.34,1.38-3.3,2.43-5.8l9-21.3c1.72-4.52,4.75-9.28,4.54-15.08a20.42,20.42,0,0,0-2-8.51,21.25,21.25,0,0,0-2.44-3.89l-3-3.7-26.59-32.54-9.29-11.39.2.1-66.39,1-19.69.23-5.31,0H461Z" style="fill:#263238"></path><path d="M427,299.92s.28,0,.79-.12a5.56,5.56,0,0,0,2.1-.84,5.31,5.31,0,0,0,2.14-2.78,6,6,0,0,0,.28-2.2,5.48,5.48,0,0,0-.62-2.38,5.31,5.31,0,0,0-4.61-2.81l-6.74,0-15.45,0a5.2,5.2,0,0,0-3.52,1.38,5.25,5.25,0,0,0-1.68,3.27,6,6,0,0,0,.64,3.53,5.32,5.32,0,0,0,2.56,2.27,8.13,8.13,0,0,0,3.33.41h3.27l5.88,0,8.51.08,2.31.05a4.29,4.29,0,0,1,.81.06,7.37,7.37,0,0,1-.81.05l-2.31,0-8.51.08-5.88,0h-3.27c-.57,0-1.12,0-1.73,0a5.55,5.55,0,0,1-1.78-.41,5.75,5.75,0,0,1-2.81-2.47,6.31,6.31,0,0,1-.71-3.83,5.75,5.75,0,0,1,5.7-5.11l15.45,0,6.75,0a5.67,5.67,0,0,1,4.92,3.07,5.81,5.81,0,0,1,.63,2.54,6.35,6.35,0,0,1-.33,2.3,5.55,5.55,0,0,1-2.31,2.86,5.13,5.13,0,0,1-2.19.77A3.55,3.55,0,0,1,427,299.92Z" style="fill:#263238"></path><path d="M575,299.92s.28,0,.79-.12a5.56,5.56,0,0,0,2.1-.84,5.31,5.31,0,0,0,2.14-2.78,6,6,0,0,0,.28-2.2,5.48,5.48,0,0,0-.62-2.38,5.31,5.31,0,0,0-4.61-2.81l-6.74,0-15.45,0a5.2,5.2,0,0,0-3.52,1.38,5.25,5.25,0,0,0-1.68,3.27,6,6,0,0,0,.64,3.53,5.32,5.32,0,0,0,2.56,2.27,8.13,8.13,0,0,0,3.33.41h3.27l5.88,0,8.51.08,2.31.05a4.29,4.29,0,0,1,.81.06,7.37,7.37,0,0,1-.81.05l-2.31,0-8.51.08-5.88,0h-3.27c-.57,0-1.12,0-1.73,0a5.55,5.55,0,0,1-1.78-.41,5.75,5.75,0,0,1-2.81-2.47,6.31,6.31,0,0,1-.71-3.83,5.75,5.75,0,0,1,5.7-5.11l15.45,0,6.75,0a5.67,5.67,0,0,1,4.92,3.07,5.81,5.81,0,0,1,.63,2.54,6.35,6.35,0,0,1-.33,2.3,5.55,5.55,0,0,1-2.31,2.86,5.13,5.13,0,0,1-2.19.77A3.55,3.55,0,0,1,575,299.92Z" style="fill:#263238"></path><path d="M704.69,275.78h-29.6a10.93,10.93,0,0,0-9.67,5.83h0a10.94,10.94,0,0,0-.32,9.49l11.6,26.37,29.64-.29S712.65,283.75,704.69,275.78Z" style="fill:#fafafa"></path><path d="M293.6,272.05l152.73-2.82,99.4-1.82,32.78-18.93A5.09,5.09,0,0,0,580,241l-20.41-26.81a11.34,11.34,0,0,0-8.94-4.48l-111.18-.9s-41.86-2.44-74.85,16C329.93,244.28,293.6,272.05,293.6,272.05Z" style="fill:#263238"></path><path d="M363.59,211.58s7.66,3.49,2.68,6.72-82.36,52-82.36,52l-17.79-8.05C297.63,244.72,329.45,227.67,363.59,211.58Z" style="fill:#455a64"></path><path d="M286.41,271.54l-.48.12-1.41.31-5.43,1.12c-4.72.94-11.56,2.26-20,3.72-17,2.92-40.52,6.32-66.69,8.58-6.55.57-13,1-19.12,1.44s-12.14.79-17.8,1.3c-11.33,1-21.47,2.64-29.71,5.09A83.67,83.67,0,0,0,107,301c-2.13,1.12-3.65,2.22-4.72,2.88l-1.22.77-.43.25a4.84,4.84,0,0,1,.4-.29l1.19-.82c1.06-.69,2.56-1.82,4.68-3a81.59,81.59,0,0,1,18.72-8c8.26-2.51,18.43-4.2,29.77-5.21,5.67-.54,11.63-.92,17.81-1.33s12.57-.89,19.11-1.46c26.16-2.26,49.71-5.6,66.68-8.43,8.49-1.41,15.33-2.67,20.06-3.55l5.45-1,1.42-.26Z" style="fill:#263238"></path><path d="M716.52,339.93c0,.15-10.18.26-22.73.26s-22.74-.11-22.74-.26,10.18-.26,22.74-.26S716.52,339.79,716.52,339.93Z" style="fill:#263238"></path><path d="M530.29,365.91c0,.15-57.46.26-128.33.26s-128.34-.11-128.34-.26,57.45-.26,128.34-.26S530.29,365.77,530.29,365.91Z" style="fill:#263238"></path><path d="M128,340.79c0,.15-8.13.26-18.15.26s-18.15-.11-18.15-.26,8.13-.26,18.15-.26S128,340.65,128,340.79Z" style="fill:#263238"></path><path d="M656.27,229.21s-6.82,7.63-4.14,13.23,30.39,25.22,30.39,25.22l20.11,3.77Z" style="fill:#455a64"></path><polygon points="465.07 215.54 460.55 264.38 541.47 262.07 574.08 243.11 552.97 215.54 465.07 215.54" style="fill:#455a64"></polygon><path d="M312.76,266.88s48.82-35.26,68.08-42.27c18.59-6.76,28.28-8.46,45.74-9,16.69-.48,26.86,0,26.86,0l-12.9,49.65Z" style="fill:#455a64"></path><path d="M305.62,267h0a8.57,8.57,0,0,1,4.36-7.46l11.22-6.3a21.31,21.31,0,0,1,10.47-2.74h0a21.57,21.57,0,0,1,6.65,1.06,12.16,12.16,0,0,1,8.18,11.17h0a12.35,12.35,0,0,1-12.35,12.82h-20A8.55,8.55,0,0,1,305.62,267Z" style="fill:#FF725E"></path><path d="M305.62,267s0,.38.13,1.08a8.49,8.49,0,0,0,1,2.93,8.8,8.8,0,0,0,3.44,3.39,8.46,8.46,0,0,0,2.88.9,32.25,32.25,0,0,0,3.45.07l17.11-.06a12.83,12.83,0,0,0,4.76-.78,12.16,12.16,0,0,0,7.08-7,12.45,12.45,0,0,0,.75-5.29,12.11,12.11,0,0,0-5.05-8.95,12.88,12.88,0,0,0-4.63-2,21.23,21.23,0,0,0-13.62,1.31c-1.29.58-2.47,1.31-3.64,1.94l-3.34,1.86-5.75,3.18a8.61,8.61,0,0,0-3.44,3.39,8.77,8.77,0,0,0-1,2.93c-.1.7-.09,1.08-.12,1.08a5.39,5.39,0,0,1,0-1.1,8.27,8.27,0,0,1,.92-3,8.64,8.64,0,0,1,3.47-3.54l5.71-3.25,3.32-1.89c1.16-.64,2.34-1.38,3.66-2a21.5,21.5,0,0,1,13.91-1.4,13.25,13.25,0,0,1,4.81,2,12.6,12.6,0,0,1,5.28,9.33,12.87,12.87,0,0,1-.78,5.52,12.64,12.64,0,0,1-7.4,7.3,13.44,13.44,0,0,1-4.93.79l-17.11-.05a33,33,0,0,1-3.49-.11,8.65,8.65,0,0,1-3-1,8.86,8.86,0,0,1-3.48-3.54,8.41,8.41,0,0,1-.91-3A6.54,6.54,0,0,1,305.62,267Z" style="fill:#263238"></path><path d="M681.74,397.32s0-.23,0-.69.08-1.15.14-2,.16-2,.22-3.3.1-2.82.15-4.51,0-3.59,0-5.65-.15-4.31-.43-6.71a86.58,86.58,0,0,0-2.89-16.08,72.65,72.65,0,0,0-3.19-9,58.58,58.58,0,0,0-4.82-9.08A61.79,61.79,0,0,0,655.28,324a74,74,0,0,0-22.42-11.06c-8.34-2.55-17.42-3.48-26.66-3.55a87.83,87.83,0,0,0-26.6,3.87,74.88,74.88,0,0,0-11.84,4.89,67.92,67.92,0,0,0-10.28,6.72,85.26,85.26,0,0,0-15.84,16.24,62.5,62.5,0,0,0-5.26,8.84,85.89,85.89,0,0,0-3.64,8.79,104.91,104.91,0,0,0-5.78,28c-.16,3.39-.14,6-.05,7.82.05.88.09,1.55.11,2s0,.69,0,.69,0-.23-.08-.69-.1-1.15-.17-2a77.28,77.28,0,0,1,0-7.83,103.1,103.1,0,0,1,5.63-28.17,90.64,90.64,0,0,1,3.62-8.84,65.15,65.15,0,0,1,5.28-8.92,86.08,86.08,0,0,1,15.89-16.36,68.82,68.82,0,0,1,10.34-6.78,75.36,75.36,0,0,1,11.92-4.93,87.74,87.74,0,0,1,26.76-3.91c9.28.07,18.4,1,26.81,3.58a74.36,74.36,0,0,1,22.56,11.16,68.55,68.55,0,0,1,8.84,7.76,54.06,54.06,0,0,1,6.87,8.71,59,59,0,0,1,4.83,9.16,71.13,71.13,0,0,1,3.17,9,85.49,85.49,0,0,1,2.83,16.16c.27,2.4.27,4.65.38,6.72s0,4,0,5.66-.15,3.21-.21,4.52-.19,2.4-.27,3.3-.14,1.55-.18,2S681.74,397.32,681.74,397.32Z" style="fill:#fff"></path><path d="M438.4,272.05l-.23,0-.68,0-2.61.06-9.59.17c-8.1.15-19.28.45-31.64.79s-23.55.57-31.65.63c-4.05,0-7.33,0-9.6,0l-2.61,0-.67,0a.64.64,0,0,1-.24,0,.75.75,0,0,1,.24,0l.67,0,2.61-.06,9.59-.17c8.1-.15,19.29-.45,31.65-.78s23.55-.58,31.65-.64c4,0,7.33,0,9.59,0l2.61,0,.68,0Z" style="fill:#fff"></path><path d="M425.14,287.08a72.38,72.38,0,0,1-8.76.26,72.38,72.38,0,0,1-8.76-.26,74.92,74.92,0,0,1,8.76-.26A74.92,74.92,0,0,1,425.14,287.08Z" style="fill:#fff"></path><path d="M428.36,233.57c.05.13-10.82,4.66-24.29,10.11s-24.43,9.77-24.49,9.63,10.82-4.66,24.29-10.11S428.3,233.44,428.36,233.57Z" style="fill:#fff"></path><path d="M406.32,237c.06.14-10.3,4.7-23.13,10.19s-23.27,9.84-23.33,9.71,10.3-4.69,23.13-10.19S406.26,236.85,406.32,237Z" style="fill:#fff"></path><path d="M546.08,231.68c.06.13-10.82,4.66-24.29,10.11s-24.43,9.76-24.49,9.63,10.82-4.66,24.3-10.11S546,231.54,546.08,231.68Z" style="fill:#fff"></path><path d="M524,235.09c.06.14-10.3,4.7-23.12,10.19s-23.28,9.84-23.34,9.71,10.3-4.69,23.13-10.19S524,235,524,235.09Z" style="fill:#fff"></path><path d="M548.21,272c0,.14-21.63.39-48.31.55s-48.31.17-48.31,0,21.62-.39,48.31-.54S548.21,271.89,548.21,272Z" style="fill:#fff"></path><path d="M572.16,286.25c0,.14-6.06.31-13.55.38s-13.55,0-13.55-.13,6.06-.32,13.55-.39S572.16,286.1,572.16,286.25Z" style="fill:#fff"></path><path d="M158,278.85a2.41,2.41,0,0,1-.59.12l-1.69.22c-.74.08-1.64.19-2.68.37s-2.23.31-3.53.57c-2.61.46-5.7,1.14-9.08,2a112.6,112.6,0,0,0-10.81,3.58c-3.76,1.49-7.25,3.12-10.37,4.73s-5.82,3.23-8,4.68c-1.13.69-2.11,1.39-3,2s-1.62,1.11-2.22,1.55l-1.39,1a3.1,3.1,0,0,1-.51.32,2.89,2.89,0,0,1,.44-.4l1.34-1.07c.58-.46,1.3-1,2.17-1.63s1.82-1.33,3-2c2.2-1.49,4.92-3.12,8-4.79a97.9,97.9,0,0,1,21.28-8.35c3.4-.88,6.51-1.53,9.14-1.94,1.31-.24,2.5-.36,3.55-.5s2-.23,2.69-.28l1.71-.13A3.9,3.9,0,0,1,158,278.85Z" style="fill:#fff"></path><path d="M336.58,255.26s-.29-.39-1-.93a6.66,6.66,0,0,0-3.3-1.33,14.25,14.25,0,0,0-5.34.57,41,41,0,0,0-16.53,8.51c-2.38,2-3.64,3.47-3.71,3.4a6.43,6.43,0,0,1,.84-1.06,35.27,35.27,0,0,1,2.62-2.62,38.35,38.35,0,0,1,10.28-6.56,37.1,37.1,0,0,1,6.39-2.13,14.17,14.17,0,0,1,5.5-.48,6.42,6.42,0,0,1,3.38,1.55,4.33,4.33,0,0,1,.67.76C336.54,255.14,336.6,255.25,336.58,255.26Z" style="fill:#fff"></path><path d="M658.54,228.85a16,16,0,0,1-4.26.44,27,27,0,0,1-5-.62,45.62,45.62,0,0,1-6.37-2c-2.31-.87-4.77-2-7.43-3.11l-4.15-1.67c-1.43-.57-2.94-1.06-4.46-1.62a174.28,174.28,0,0,0-20.38-5.55A234.5,234.5,0,0,0,568.41,210c-2.46-.13-4.68-.13-6.64-.18h-5l-3.16.07h-1.11a.75.75,0,0,1,.28,0l.82-.06,3.17-.17,5-.09c2,0,4.18,0,6.64.12a220.6,220.6,0,0,1,38.18,4.6A167.06,167.06,0,0,1,627,219.85c1.52.56,3,1.06,4.47,1.64l4.15,1.71c2.66,1.15,5.11,2.27,7.4,3.16a43.83,43.83,0,0,0,6.29,2,26.47,26.47,0,0,0,4.94.7,22.77,22.77,0,0,0,3.15-.11l.81-.1Z" style="fill:#263238"></path></g><g id="Character"><path d="M177.41,230.23c-4-21.88-6.69-25.24-8.95-32.77s-5.85-12.42-10.32-14.15c-3-1.16-18.07-6.59-23.31-4.79a65.75,65.75,0,0,0-14.53,7.3,19.46,19.46,0,0,0-7.58,9.7l-8,22.57,14.08,14,7.06-15,7.66,18-1.13,18.15,43.93,11.82C180.28,258.66,179.68,242.64,177.41,230.23Z" style="fill:#FF725E"></path><g style="opacity:0.2"><path d="M166,206.36c-1.94,11.39-2.25,13-4.19,24.35-.67,3.91-2.62,10-5.4,12.84-2.06,2.09-4.08,4.1-6.95,4.78-2.66.63-6.71.7-9.21-.4s-4.64-6-3.61-8.51c3.73.8,4.88,2,8.09,0,2.8-1.78,6.78-5.72,8.3-8.67,6.41-12.4,8.18-12.84,13-24.39"></path></g><path d="M134.17,228.43a27.71,27.71,0,0,1-1.94-3L127.71,218l-4.64-7.31a26.79,26.79,0,0,1-1.87-3.08,3.82,3.82,0,0,1,.63.74c.38.49.91,1.22,1.54,2.13,1.28,1.82,3,4.37,4.78,7.24s3.33,5.53,4.4,7.48c.54,1,1,1.76,1.24,2.32A3.17,3.17,0,0,1,134.17,228.43Z" style="fill:#263238"></path><path d="M164.83,248.86a5,5,0,0,1-1,.39,11.34,11.34,0,0,1-1.25.34,14.46,14.46,0,0,1-1.68.35,26.57,26.57,0,0,1-4.44.41,31.21,31.21,0,0,1-5.45-.47,30.67,30.67,0,0,1-5.27-1.49,28.09,28.09,0,0,1-4-1.94c-.56-.31-1-.65-1.44-.92a11.6,11.6,0,0,1-1.05-.77,4.62,4.62,0,0,1-.83-.73c.06-.08,1.3.89,3.5,2.1a31.62,31.62,0,0,0,4,1.81,30.65,30.65,0,0,0,10.55,1.93,32.81,32.81,0,0,0,4.39-.29C163.3,249.23,164.8,248.76,164.83,248.86Z" style="fill:#263238"></path><path d="M147.2,214.77c-.08.39-4.8,9.79-4.8,9.79l-22.28-11.74-2.27-9.6a6,6,0,0,0-7.22-4.42l-6.57,2.69a1.76,1.76,0,0,0-1.08,1.27c-.09.48,0,1,.87.89,1.63-.13,5-.49,5-.49l-1.55,5.47a5.81,5.81,0,0,0,.44,4.29l1,1.89,2.17,3.51-.05,0s21.66,22.25,33.82,23.7c7.31.87,15.59-19.62,15.59-19.62Z" style="fill:#b78876"></path><path d="M108.69,203.53s.17-.23.54-.48a2.9,2.9,0,0,1,1.69-.52,1.76,1.76,0,0,1,1.49,1c.21.45.07.75,0,.73s0-.28-.24-.62a1.73,1.73,0,0,0-1.31-.75,3.39,3.39,0,0,0-1.55.4C109,203.44,108.72,203.57,108.69,203.53Z" style="fill:#aa6550"></path><path d="M111.5,206.94s-.15-.18-.36-.45a2.44,2.44,0,0,0-2.31-.91c-.34,0-.55.12-.57.08s.16-.19.52-.31a2.24,2.24,0,0,1,2.55,1C111.51,206.69,111.53,206.93,111.5,206.94Z" style="fill:#aa6550"></path><path d="M151.82,185.1l-6,28.59,16,9.61,6.14-17.57S165.38,184.39,151.82,185.1Z" style="fill:#FF725E"></path><path d="M160.44,185.6s-.13.11-.41.26-.68.37-1.21.64c-1.06.54-2.62,1.3-4.57,2.17a67.39,67.39,0,0,1-15.89,5,39.79,39.79,0,0,1-16.62-.56A28.24,28.24,0,0,1,117,191.4c-.55-.23-1-.48-1.23-.62a2.84,2.84,0,0,1-.41-.25,16.76,16.76,0,0,1,1.72.69,34.79,34.79,0,0,0,4.78,1.54,41.24,41.24,0,0,0,16.44.4,72.84,72.84,0,0,0,15.84-4.83c2-.82,3.53-1.53,4.62-2A13.81,13.81,0,0,1,160.44,185.6Z" style="fill:#ebebeb"></path><path d="M164.65,188.76a2.37,2.37,0,0,1-.45.32l-1.32.85a24.17,24.17,0,0,1-2.16,1.26c-.86.45-1.82,1-2.95,1.5l-1.74.8c-.61.28-1.27.51-1.94.78-1.33.55-2.81,1-4.35,1.5a60.29,60.29,0,0,1-20.85,2.47c-1.62-.13-3.16-.22-4.58-.45-.72-.11-1.41-.18-2.07-.3l-1.89-.38c-1.2-.21-2.27-.53-3.21-.77a24.09,24.09,0,0,1-2.39-.71l-1.49-.52a2.12,2.12,0,0,1-.51-.21,1.89,1.89,0,0,1,.54.11l1.52.42c.65.2,1.45.43,2.4.63s2,.51,3.22.69l1.88.34c.65.12,1.34.18,2,.27,1.42.21,3,.29,4.55.4a62.11,62.11,0,0,0,20.7-2.45c1.53-.48,3-.91,4.33-1.45.66-.26,1.32-.48,1.93-.74l1.75-.77c1.13-.46,2.09-1,3-1.42s1.61-.83,2.19-1.17l1.38-.76A2.11,2.11,0,0,1,164.65,188.76Z" style="fill:#ebebeb"></path><path d="M161.78,223.3a10.41,10.41,0,0,1-1.3-.66l-3.52-2-12-6.93-.15-.09,0-.17c.43-2.13.89-4.43,1.37-6.79.72-3.56,1.42-6.94,2-10,.33-1.54.6-3,.9-4.39a15.85,15.85,0,0,1,1.28-3.71,7.51,7.51,0,0,1,4.14-3.79,4.59,4.59,0,0,1,1.53-.25,1.48,1.48,0,0,1,.53.06,6.63,6.63,0,0,0-2,.38,7.46,7.46,0,0,0-3.88,3.76,16.12,16.12,0,0,0-1.19,3.65c-.27,1.37-.55,2.84-.85,4.37-.62,3.1-1.3,6.48-2,10-.48,2.37-.95,4.66-1.38,6.79l-.12-.26,11.93,7.09,3.45,2.1A9.06,9.06,0,0,1,161.78,223.3Z" style="fill:#263238"></path><path d="M166.67,204.88a10.41,10.41,0,0,1-.08,2.67,40,40,0,0,1-1.14,6.33,41.71,41.71,0,0,1-2.12,6.08,10.34,10.34,0,0,1-1.25,2.36,19.06,19.06,0,0,1,.91-2.5,59.48,59.48,0,0,0,3.24-12.32A20.92,20.92,0,0,1,166.67,204.88Z" style="fill:#263238"></path><path d="M79.92,363.91l-.18,15.26s-15.58,4.95-15.88,7.77l29.58,1.4,1.26-23.77Z" style="fill:#455a64"></path><path d="M89,378.32a1.21,1.21,0,0,1,.77,1.42,1.16,1.16,0,0,1-1.4.78,1.29,1.29,0,0,1-.81-1.51,1.21,1.21,0,0,1,1.55-.64" style="fill:#e0e0e0"></path><path d="M93.44,388.34l0-2.4-28.38-.45s-1.35.51-1.24,1.45Z" style="fill:#e0e0e0"></path><path d="M79.27,379c0,.14.72.24,1.4.74s1,1.12,1.18,1.07,0-.89-.89-1.48S79.24,378.86,79.27,379Z" style="fill:#263238"></path><path d="M76.1,380.13c0,.14.58.42,1,1.05s.57,1.29.72,1.29.27-.81-.32-1.59S76.11,380,76.1,380.13Z" style="fill:#263238"></path><path d="M74.16,383.76c.13,0,.37-.67,0-1.48s-1-1.15-1.06-1,.33.56.59,1.23S74,383.74,74.16,383.76Z" style="fill:#263238"></path><path d="M79.69,375.52c.06.14.73,0,1.55.06s1.43.39,1.51.27-.5-.67-1.46-.77S79.63,375.41,79.69,375.52Z" style="fill:#263238"></path><g style="opacity:0.30000000000000004"><polygon points="79.89 366.93 79.85 369.65 94.4 370.21 94.53 367.76 79.89 366.93"></polygon></g><path d="M79.79,372.44a2.74,2.74,0,0,0,1.48.07,6.42,6.42,0,0,0,1.57-.41,5.69,5.69,0,0,0,.87-.41,1.78,1.78,0,0,0,.47-.32.63.63,0,0,0,.1-.77.81.81,0,0,0-.62-.36,2,2,0,0,0-.56.05,5.29,5.29,0,0,0-.93.27,5.47,5.47,0,0,0-1.41.83c-.72.61-1,1.14-.93,1.17s.42-.39,1.14-.88a6.15,6.15,0,0,1,1.36-.68,5.69,5.69,0,0,1,.86-.22c.32-.07.59-.06.66.08s0,.08,0,.17a1.78,1.78,0,0,1-.34.24c-.27.15-.54.29-.8.41a8.51,8.51,0,0,1-1.46.48A11.47,11.47,0,0,0,79.79,372.44Z" style="fill:#263238"></path><path d="M80,372.66a2.36,2.36,0,0,0,.45-1.41,4.7,4.7,0,0,0-.12-1.63,4.65,4.65,0,0,0-.34-.92,1.22,1.22,0,0,0-.91-.79.67.67,0,0,0-.63.38,1.8,1.8,0,0,0-.18.54,3.35,3.35,0,0,0,0,1,3.39,3.39,0,0,0,.56,1.56c.54.8,1.14,1,1.15.95s-.44-.37-.85-1.13a3.39,3.39,0,0,1-.4-1.41,3.16,3.16,0,0,1,.07-.86c.06-.31.19-.56.31-.52s.38.25.49.51a4.69,4.69,0,0,1,.33.82,5.32,5.32,0,0,1,.22,1.49C80.07,372.1,79.89,372.63,80,372.66Z" style="fill:#263238"></path><path d="M140.22,253.4S94,234,79.7,233.19c-9-.52-15.76,5.24-14.54,14.52.61,4.65,13.38,59,13.38,59L98,297.83l-9.36-37.59,38,18.46Z" style="fill:#263238"></path><path d="M82.83,250.73c-.15.13,1.38,2.1,3,4.71s2.7,4.86,2.88,4.79-.65-2.48-2.3-5.14S83,250.61,82.83,250.73Z" style="fill:#455a64"></path><path d="M79.05,252.89c-.1.17,2.23,1.65,5,3.67s4.85,3.79,5,3.65S87.2,258,84.42,256,79.13,252.73,79.05,252.89Z" style="fill:#455a64"></path><path d="M176.27,265.06s-5.81,7.49-11.35,9.54c-7,2.57-58.46,26.86-58.46,26.86s-9.34,69.39-8.6,66.49l-21.55-.52,2.34-63.91c.28-8.18,6.84-17.58,13.89-21.76l47.68-28.36Z" style="fill:#263238"></path><path d="M78.24,315.22a3.38,3.38,0,0,0,.09-.88c0-.64.08-1.47.13-2.51a86.25,86.25,0,0,1,.86-9.19A31.55,31.55,0,0,1,84,290a24.15,24.15,0,0,1,5.54-5.72,66.54,66.54,0,0,1,7.31-4.63c10.37-5.94,19.32-12,25.94-16.15,3.3-2.1,6-3.77,7.84-4.91l2.14-1.32a4.6,4.6,0,0,0,.73-.5,4.36,4.36,0,0,0-.79.38c-.51.27-1.26.67-2.21,1.21-1.91,1.07-4.63,2.69-8,4.73-6.69,4.06-15.69,10.05-26,16a66.27,66.27,0,0,0-7.38,4.69,24.46,24.46,0,0,0-5.66,5.9,31.65,31.65,0,0,0-4.61,12.95,72,72,0,0,0-.64,9.25c0,1,0,1.87,0,2.52A4.59,4.59,0,0,0,78.24,315.22Z" style="fill:#455a64"></path><path d="M157.25,272.37a16.26,16.26,0,0,0-1.32-1.77,12.94,12.94,0,0,1-2-10,16.18,16.18,0,0,0,.52-2.15,4.82,4.82,0,0,0-1,2,11.47,11.47,0,0,0-.22,5.46,11.32,11.32,0,0,0,2.32,4.94C156.46,272,157.21,272.43,157.25,272.37Z" style="fill:#455a64"></path><path d="M84.23,367.43a1.35,1.35,0,0,0,.06-.35c0-.28.08-.62.13-1.05.11-1,.25-2.32.43-4,.35-3.56.85-8.63,1.47-14.87.29-3.14.62-6.58,1-10.27s.73-7.64,1-11.8.71-8.51,1.47-13a53.2,53.2,0,0,1,4-13.35,45,45,0,0,1,7.82-11.47,71.1,71.1,0,0,1,9.76-8.6A197.42,197.42,0,0,1,130.08,267c5.47-3.14,9.83-5.82,12.72-7.84,1.46-1,2.56-1.81,3.3-2.38l.83-.65q.28-.22.27-.24a1.27,1.27,0,0,0-.31.18l-.87.6c-.76.53-1.89,1.31-3.36,2.28-2.94,1.94-7.32,4.55-12.82,7.64A187.9,187.9,0,0,0,111,278.17a70.28,70.28,0,0,0-9.88,8.65,45.3,45.3,0,0,0-7.95,11.64,53.69,53.69,0,0,0-4,13.51c-.75,4.5-1.13,8.87-1.44,13s-.62,8.11-1,11.8-.62,7.13-.89,10.28c-.53,6.25-1,11.32-1.25,14.89q-.2,2.58-.3,4c0,.43-.05.78-.07,1.05S84.21,367.43,84.23,367.43Z" style="fill:#455a64"></path><path d="M135,143.34a8.43,8.43,0,0,0-9.63-5.19,10,10,0,0,1-2.68.58,19.13,19.13,0,0,1-3.26-.86,4.9,4.9,0,0,0-5.52,3.58,6.65,6.65,0,0,0-5.49,1.09,4.31,4.31,0,0,0-1.29,5.18c.39.73,1,1.31,1.39,2.06.59,1.23.32,2.71.73,4a5.4,5.4,0,0,0,4.66,3.34,15.87,15.87,0,0,0,6-.85" style="fill:#263238"></path><path d="M125.69,182.89c-.25-1.94-.41-3.3-.41-3.3s-6.45,0-9-8c-1.29-4-2.15-10.68-2.67-16.2a8.75,8.75,0,0,1,8.25-9.58l17.12-.89.37,2.65,4.51,32.92a9.14,9.14,0,0,1-7.87,10.3h0A9.16,9.16,0,0,1,125.69,182.89Z" style="fill:#b78876"></path><path d="M116,160.1a1.07,1.07,0,0,0,1.18.9,1,1,0,0,0,.93-1.12,1.05,1.05,0,0,0-1.18-.9A1,1,0,0,0,116,160.1Z" style="fill:#263238"></path><path d="M115.56,158.62c.15.11.85-.6,2-.78s2,.26,2.15.1-.12-.3-.52-.5a2.86,2.86,0,0,0-1.75-.25,2.74,2.74,0,0,0-1.55.79C115.56,158.3,115.48,158.57,115.56,158.62Z" style="fill:#263238"></path><path d="M126.72,158.28a1.06,1.06,0,0,0,1.18.89,1,1,0,0,0,.94-1.11,1.07,1.07,0,0,0-1.18-.9A1,1,0,0,0,126.72,158.28Z" style="fill:#263238"></path><path d="M126.7,157.06c.15.12.85-.6,2-.77s2,.25,2.15.09-.12-.29-.52-.5a3,3,0,0,0-1.75-.25,2.84,2.84,0,0,0-1.55.79C126.7,156.74,126.63,157,126.7,157.06Z" style="fill:#263238"></path><path d="M123.93,166.1a7.07,7.07,0,0,0-1.89,0c-.29,0-.57,0-.65-.19a1.47,1.47,0,0,1,0-.89c.16-.74.33-1.52.51-2.33a39.85,39.85,0,0,0,1-6.05,38.87,38.87,0,0,0-1.49,6c-.16.82-.32,1.6-.46,2.35a1.63,1.63,0,0,0,0,1.15.75.75,0,0,0,.54.35,2,2,0,0,0,.5,0A7.83,7.83,0,0,0,123.93,166.1Z" style="fill:#263238"></path><path d="M125.28,179.59a21.09,21.09,0,0,0,10.5-4.67S134,181,125.69,181.51Z" style="fill:#aa6550"></path><path d="M127.38,166.35c-.19,0,0,1.24-.9,2.28s-2.24,1.11-2.23,1.28.33.2.89.12a3,3,0,0,0,1.86-1,2.65,2.65,0,0,0,.68-1.9C127.65,166.61,127.46,166.33,127.38,166.35Z" style="fill:#263238"></path><path d="M125.7,152.68c.16.29,1.27,0,2.62-.09s2.48.14,2.61-.16-.17-.4-.65-.63a4.52,4.52,0,0,0-4,.19C125.84,152.26,125.63,152.54,125.7,152.68Z" style="fill:#263238"></path><path d="M115.45,155.28c.24.22,1-.17,1.91-.33s1.76-.1,1.9-.4c.06-.14-.11-.38-.49-.56a2.7,2.7,0,0,0-1.63-.18,2.66,2.66,0,0,0-1.44.76C115.41,154.89,115.34,155.17,115.45,155.28Z" style="fill:#263238"></path><path d="M112.71,151.78s4.53,1.53,9.73-1.95c3.41-2.28,7.55-3.71,8.58-3.09s1.7,4.34,5.45,5c0,0,.66,7.2,3.49,6.58,2-.44.84-8.38,0-12.91a4,4,0,0,0-3.74-3.21l-5.27-.21-6.58,1.84-7.06,1.92L111.93,148Z" style="fill:#263238"></path><path d="M139.33,155.39c.1-.07,4.47-2.37,5.28,2.4s-4.14,4.59-4.18,4.46S139.33,155.39,139.33,155.39Z" style="fill:#b78876"></path><path d="M141.58,160.19s.1.05.25.09a.85.85,0,0,0,.62-.09,2.11,2.11,0,0,0,.64-2,2.84,2.84,0,0,0-.43-1.15,1,1,0,0,0-.74-.53.43.43,0,0,0-.45.31c0,.14,0,.23,0,.25s-.11-.07-.11-.27a.55.55,0,0,1,.14-.33.65.65,0,0,1,.44-.2,1.18,1.18,0,0,1,1,.59,2.81,2.81,0,0,1,.51,1.28,2.17,2.17,0,0,1-.86,2.27.91.91,0,0,1-.78,0C141.61,160.31,141.57,160.21,141.58,160.19Z" style="fill:#aa6550"></path><path d="M115,139.69s.16.26.5.64a4.11,4.11,0,0,0,1.8,1.16,6,6,0,0,0,3.18.14,29.53,29.53,0,0,0,3.85-1.22,10.53,10.53,0,0,1,4.08-.73,4.52,4.52,0,0,1,3.11,1.4,3.3,3.3,0,0,1,.95,2.08,1.37,1.37,0,0,1-.14.83c-.05,0,0-.3-.06-.81a3.33,3.33,0,0,0-1-1.85,4.21,4.21,0,0,0-2.86-1.17,10.64,10.64,0,0,0-3.89.74,25,25,0,0,1-3.93,1.2,6.14,6.14,0,0,1-3.39-.26,4,4,0,0,1-1.84-1.38C115,140,115,139.7,115,139.69Z" style="fill:#455a64"></path><path d="M131.11,144.26s-.24-.25-.74-.6A4.49,4.49,0,0,0,128,143a7.77,7.77,0,0,0-3.64.89,37.72,37.72,0,0,1-4.34,2,10.79,10.79,0,0,1-8.54-.93,9.38,9.38,0,0,1-2.11-1.62,2.81,2.81,0,0,1-.6-.76,16.83,16.83,0,0,0,2.88,2.05,10.85,10.85,0,0,0,8.21.77,46.55,46.55,0,0,0,4.3-2,7.7,7.7,0,0,1,3.86-.82,4.35,4.35,0,0,1,2.5.91A1.83,1.83,0,0,1,131.11,144.26Z" style="fill:#455a64"></path><path d="M116.3,225.52,93.08,205.73l-7.66,1.73s8.07,16.78,13.91,22.93c0,0,5.77,7.72,15.29,4.38S116.3,225.52,116.3,225.52Z" style="fill:#b78876"></path><path d="M91.32,183.93H81.45a2.51,2.51,0,0,0-2.29,3.15l9.93,19.33a2.24,2.24,0,0,0,2,1.22l12,0a1.72,1.72,0,0,0,1.31-2.55l-9.57-18.93A4,4,0,0,0,91.32,183.93Z" style="fill:#455a64"></path><path d="M90.66,185.1H80.79a1.65,1.65,0,0,0-1.48,2.4L89,206.41a2.26,2.26,0,0,0,2,1.22h11.9a1,1,0,0,0,.87-1.41L94.19,187.3A3.93,3.93,0,0,0,90.66,185.1Z" style="fill:#263238"></path><path d="M89.82,193l-6,2.4-1.28,4.84,2.89,7.2L96,209l-3.1-3.17.39-2.77s3-.93,3-1.38-.37-2-.82-2.05A22.79,22.79,0,0,0,92,200.72s3.67-2.91,3.57-3.38-.5-1.66-1.23-1.8-6.67,2.67-6.67,2.67l-1,2.19-.84-3.51S91.12,195.41,89.82,193Z" style="fill:#b78876"></path><path d="M90.58,204.36s-.15-.2-.21-.6a3.27,3.27,0,0,1,1-2.78c.3-.26.53-.35.55-.32a6.53,6.53,0,0,0-1.11,1.7A6.63,6.63,0,0,0,90.58,204.36Z" style="fill:#aa6550"></path><path d="M87.72,203.31a11.18,11.18,0,0,0,.24-1.57,6.83,6.83,0,0,1,.3-1.74,2.38,2.38,0,0,1,1.54-1.55c1.43-.52,2.73-.94,3.67-1.25a8.88,8.88,0,0,1,1.55-.43,7.44,7.44,0,0,1-1.47.64c-.93.36-2.23.82-3.64,1.33a2.38,2.38,0,0,0-.88.54,2.32,2.32,0,0,0-.5.82,7.13,7.13,0,0,0-.35,1.67A3.19,3.19,0,0,1,87.72,203.31Z" style="fill:#aa6550"></path><path d="M86.34,202.23a2.53,2.53,0,0,1,0-1.19c.11-.64.26-1.14.35-1.13a2.55,2.55,0,0,1,0,1.19C86.58,201.74,86.43,202.24,86.34,202.23Z" style="fill:#aa6550"></path><path d="M86.18,188.75a1.26,1.26,0,1,0,1.26-1.26A1.25,1.25,0,0,0,86.18,188.75Z" style="fill:#fafafa"></path></g><g id="Plant"><path d="M51.6,379.36a12.18,12.18,0,0,1,7.28,6.17A21.48,21.48,0,0,1,61.11,395c.2,6.32-2.42,13.12-5.51,18.65C49.69,409.85,47.33,402,46.37,398c-1.5-6.38-.35-18.82,5.23-18.65" style="fill:#FF725E"></path><path d="M63.19,423.05a10.41,10.41,0,0,1,1.9-10.27,13.78,13.78,0,0,1,9.63-4.61c1.68-.12,3.56.1,4.71,1.34a4.45,4.45,0,0,1,.72,4.45,9,9,0,0,1-2.83,3.73c-4.13,3.52-8.77,6.16-14.13,5.36" style="fill:#FF725E"></path><path d="M59.25,443.12a6.22,6.22,0,0,1,0-1.3c0-.93.08-2.12.13-3.55a36.57,36.57,0,0,1,2-11.57,22.36,22.36,0,0,1,6.7-9.58,15.43,15.43,0,0,1,3-1.9c.38-.19.7-.28.9-.37s.32-.11.33-.09a20.79,20.79,0,0,0-10.52,12.1,39.37,39.37,0,0,0-2.07,11.43c-.1,1.49-.19,2.7-.27,3.54A7.91,7.91,0,0,1,59.25,443.12Z" style="fill:#263238"></path><path d="M51.56,388.91a3.93,3.93,0,0,1,.14.55q.13.62.33,1.59c.28,1.38.66,3.39,1.1,5.87.89,5,2,11.85,3.09,19.47s1.9,14.54,2.42,19.56c.26,2.51.45,4.54.57,5.95q.07,1,.12,1.62a1.83,1.83,0,0,1,0,.56,3.2,3.2,0,0,1-.1-.56c-.05-.41-.12-.94-.21-1.61-.18-1.45-.42-3.46-.72-5.92-.6-5-1.47-11.92-2.54-19.54S53.61,402,52.81,397c-.4-2.45-.72-4.45-1-5.9-.1-.66-.18-1.19-.25-1.6A2.23,2.23,0,0,1,51.56,388.91Z" style="fill:#263238"></path><path d="M54.67,428.16A24.31,24.31,0,0,0,39,412.44c-1.88-.59-4.24-.8-5.5.71s-.58,3.81.39,5.52a20.76,20.76,0,0,0,20.77,10" style="fill:#FF725E"></path><path d="M40.67,418.22a6.72,6.72,0,0,1,1.18.32,11.57,11.57,0,0,1,1.35.49c.52.23,1.13.43,1.75.77a22.15,22.15,0,0,1,2,1.11,26,26,0,0,1,2.21,1.49,25.13,25.13,0,0,1,7.64,9.38,23.84,23.84,0,0,1,1,2.47,18.44,18.44,0,0,1,.65,2.22,16.94,16.94,0,0,1,.36,1.88,11.34,11.34,0,0,1,.17,1.43A7.16,7.16,0,0,1,59,441c-.11,0-.18-1.75-.89-4.46a22.06,22.06,0,0,0-.68-2.17,22.91,22.91,0,0,0-1-2.42,27.58,27.58,0,0,0-3.21-5,28.5,28.5,0,0,0-4.3-4.18,25.41,25.41,0,0,0-2.15-1.49,21.22,21.22,0,0,0-2-1.15C42.32,418.8,40.63,418.31,40.67,418.22Z" style="fill:#263238"></path></g></svg>