<svg xmlns="http://www.w3.org/2000/svg" viewBox="0 0 750 500"><g id="background-complete"><rect x="42.48" y="144.55" width="77.88" height="106.58" transform="translate(-70.53 47.24) rotate(-22.88)" style="fill:#fff"></rect><path d="M138,231.79s-.09-.16-.23-.47-.34-.79-.6-1.39c-.54-1.24-1.31-3-2.31-5.35-2-4.69-4.91-11.51-8.6-20.13l-30-70.71.46.19L25,164.24h0l.2-.51C40.64,200.42,55,234.39,66.56,262l-.41-.16,52.17-21.85,14.53-6,3.83-1.58c.87-.36,1.35-.53,1.35-.53s-.41.2-1.26.57L133,234l-14.4,6.17L66.4,262.37l-.3.12L66,262.2C54.33,234.65,40,200.71,24.47,164l-.15-.36.36-.15h0l71.76-30.25.33-.14.13.32c12.21,29.12,22.53,53.72,29.81,71.06l8.4,20.14c.95,2.3,1.69,4.08,2.19,5.32.24.58.42,1,.56,1.36A3.67,3.67,0,0,1,138,231.79Z" style="fill:#e0e0e0"></path><path d="M77,165.1c.08.2-7.66,3.65-17.28,7.72s-17.51,7.2-17.59,7,7.65-3.65,17.28-7.72S77,164.9,77,165.1Z" style="fill:#e0e0e0"></path><path d="M99.5,165.67c.08.2-11.88,5.44-26.71,11.7s-26.94,11.18-27,11,11.88-5.43,26.71-11.7S99.42,165.47,99.5,165.67Z" style="fill:#e0e0e0"></path><path d="M103.26,174.57c.08.2-11.88,5.44-26.72,11.7s-26.93,11.18-27,11,11.87-5.43,26.71-11.7S103.17,174.38,103.26,174.57Z" style="fill:#e0e0e0"></path><path d="M107,183.47c.09.2-11.87,5.44-26.71,11.7s-26.93,11.18-27,11S65.16,200.72,80,194.46,106.93,183.28,107,183.47Z" style="fill:#e0e0e0"></path><path d="M110.77,192.38c.08.19-11.88,5.43-26.71,11.69s-26.93,11.18-27,11,11.88-5.43,26.72-11.69S110.69,192.18,110.77,192.38Z" style="fill:#e0e0e0"></path><path d="M114.53,201.28c.08.19-11.88,5.43-26.71,11.69s-26.94,11.18-27,11,11.87-5.44,26.71-11.7S114.44,201.08,114.53,201.28Z" style="fill:#e0e0e0"></path><path d="M118.28,210.18c.09.2-11.87,5.43-26.71,11.69s-26.93,11.18-27,11,11.87-5.44,26.71-11.7S118.2,210,118.28,210.18Z" style="fill:#e0e0e0"></path><path d="M97.19,229.57c.09.19-6.31,3.08-14.28,6.45S68.4,242,68.31,241.76s6.32-3.09,14.29-6.46S97.11,229.37,97.19,229.57Z" style="fill:#e0e0e0"></path><rect x="282.76" y="70.28" width="78.44" height="98.11" transform="translate(130.85 404.61) rotate(-76.51)" style="fill:#f5f5f5"></rect><rect x="287.64" y="73.71" width="68.56" height="91.22" transform="translate(130.81 404.54) rotate(-76.51)" style="fill:#ebebeb"></rect><polygon points="269.57 142.02 310.5 108.01 323.47 138.54 339.81 127.8 358.28 163.29 269.57 142.02" style="fill:#e0e0e0"></polygon><path d="M339.05,109.49a7.18,7.18,0,1,1-5.31-8.66A7.19,7.19,0,0,1,339.05,109.49Z" style="fill:#e0e0e0"></path><path d="M562,139.94c4.68-10.95,1.84-22.38-5.86-31.46A33,33,0,0,0,523.85,98a36.08,36.08,0,0,0-71.57,4.66,27,27,0,0,0-20.63,36.65Z" style="fill:#ebebeb"></path><path d="M163.45,106.28a5.74,5.74,0,1,1-7.21-3.73A5.74,5.74,0,0,1,163.45,106.28Z" style="fill:#e0e0e0"></path><circle cx="176.54" cy="102.13" r="5.74" transform="translate(45.26 258.22) rotate(-79.98)" style="fill:#e0e0e0"></circle><path d="M182.13,100.4a1.87,1.87,0,0,1-.2-.4l-.5-1.19c-.44-1-1.08-2.54-2-4.4s-2-4.07-3.45-6.52-3-5.15-4.79-8.08l.33.09A61.09,61.09,0,0,1,161,84.4a61.78,61.78,0,0,1-9.73,2.24l.09-.46A25,25,0,0,1,162.26,100a23.41,23.41,0,0,1,1,5.08c.06.6,0,1.07.06,1.38a1.81,1.81,0,0,1,0,.48s-.07-.65-.21-1.84a25.76,25.76,0,0,0-1.16-5,25.24,25.24,0,0,0-3.61-6.89,24.36,24.36,0,0,0-7.25-6.59l-.6-.36.69-.1a62,62,0,0,0,9.64-2.25,61.25,61.25,0,0,0,10.47-4.43l.21-.11.12.2c1.72,2.94,3.35,5.65,4.73,8.12s2.51,4.71,3.37,6.6,1.45,3.42,1.85,4.47L182,100A2.38,2.38,0,0,1,182.13,100.4Z" style="fill:#e0e0e0"></path><path d="M175.89,87a82.85,82.85,0,0,1-8.63,3,80.89,80.89,0,0,1-8.78,2.51,80.16,80.16,0,0,1,8.63-3A80.18,80.18,0,0,1,175.89,87Z" style="fill:#e0e0e0"></path></g><g id="background-simple"><path d="M372.45,357c49.9-2.16,99.76-5.69,149.42-11.67,37.23-4.48,75.65-10.64,107.45-33.08,48-33.86,72.73-106.44,54.58-167.17S604.66,43.52,549.67,58.16c-49.31,13.14-87.07,63.56-137.23,71.51-38.76,6.15-76.34-14.31-113.6-27.88-33.58-12.22-69.15-19.07-104.21-14.74S125,107.6,100.53,136.43,62.87,207.36,70,246.57c5.53,30.22,16.2,54.78,40,73.78A103.62,103.62,0,0,0,149.88,340C180.17,347.48,255.89,362,372.45,357Z" style="fill:#ebebeb"></path></g><g id="Floor"><path d="M668.83,447.8c0,.15-131.56.26-293.82.26S81.17,448,81.17,447.8s131.54-.26,293.84-.26S668.83,447.66,668.83,447.8Z" style="fill:#263238"></path></g><g id="Device"><path d="M438.89,147.1H98.46a10.62,10.62,0,0,0-10.62,10.62V398.18A10.61,10.61,0,0,0,98.46,408.8H229.12s8.31,25.7-17.45,39H333.84s-29.09-10-21.61-39H438.89a10.62,10.62,0,0,0,10.63-10.62V157.72A10.63,10.63,0,0,0,438.89,147.1Z" style="fill:#263238"></path><path d="M273.22,383.52c4.63,6.61-2.61,13.86-9.23,9.23a2.21,2.21,0,0,1-.57-.57c-4.62-6.62,2.62-13.85,9.23-9.23A2.21,2.21,0,0,1,273.22,383.52Z" style="fill:#455a64"></path><path d="M103.4,151.5H434a9.7,9.7,0,0,1,9.7,9.7V364.81a0,0,0,0,1,0,0H93.7a0,0,0,0,1,0,0V161.2A9.7,9.7,0,0,1,103.4,151.5Z" style="fill:#fff"></path><rect x="330.37" y="225.77" width="61.29" height="90.93" transform="translate(27.84 576.03) rotate(-79.37)" style="fill:#FF725E"></rect><rect x="330.37" y="225.77" width="61.29" height="90.93" transform="translate(27.84 576.03) rotate(-79.37)" style="opacity:0.30000000000000004"></rect><path d="M411.36,249.51a7.91,7.91,0,0,1-1,.64l-2.89,1.72L396.74,258l-35.68,20.15-.29.16-.22-.25-.54-.62C349.49,265.19,340,254.08,333,246l-8.11-9.62c-.91-1.09-1.63-2-2.18-2.64a5.38,5.38,0,0,1-.71-1,8.13,8.13,0,0,1,.84.85l2.29,2.54,8.32,9.45,27.2,31.37.53.62-.51-.09,35.79-19.94c4.54-2.47,8.23-4.49,10.87-5.94l3-1.58A5.86,5.86,0,0,1,411.36,249.51Z" style="fill:#263238"></path><path d="M310.68,293c-.14-.17,8.13-7.17,18.47-15.62s18.85-15.16,19-15S340,269.53,329.67,278,310.82,293.15,310.68,293Z" style="fill:#263238"></path><path d="M378,267.19c.21-.11,5.31,9.33,11.4,21.09s10.86,21.36,10.66,21.47-5.3-9.34-11.39-21.09S377.79,267.29,378,267.19Z" style="fill:#263238"></path><path d="M208.06,322.21a1.41,1.41,0,0,1-.05-.35c0-.26,0-.61-.08-1,0-.23,0-.49-.05-.77s-.09-.58-.14-.92a16.06,16.06,0,0,0-.47-2.26,20.85,20.85,0,0,0-2.45-5.81,21.81,21.81,0,0,0-5.56-6.17,21.56,21.56,0,0,0-9.17-4.05,21.82,21.82,0,0,0-11.42,1,22.08,22.08,0,0,0-2.83,1.24,21.64,21.64,0,0,0-2.67,1.72,24.08,24.08,0,0,0-2.46,2.09,24.65,24.65,0,0,0-2.13,2.52,21,21,0,0,0-3.1,6,23.07,23.07,0,0,0-1.12,6.85,23.45,23.45,0,0,0,1.11,6.86,21.26,21.26,0,0,0,3.11,6,23.62,23.62,0,0,0,2.13,2.52,24.19,24.19,0,0,0,2.46,2.1,21.64,21.64,0,0,0,2.67,1.72,22.08,22.08,0,0,0,2.83,1.24,21.82,21.82,0,0,0,11.42,1,21.56,21.56,0,0,0,9.17-4,21.91,21.91,0,0,0,5.57-6.18,20.92,20.92,0,0,0,2.44-5.8,16.06,16.06,0,0,0,.47-2.26c0-.34.11-.64.14-.92l.05-.77c0-.43.06-.78.08-1a1.58,1.58,0,0,1,.05-.36,2,2,0,0,1,0,.36q0,.39,0,1.05c0,.23,0,.49,0,.77s-.08.59-.12.93a15.9,15.9,0,0,1-.42,2.29,21.15,21.15,0,0,1-2.39,5.9A22.16,22.16,0,0,1,190.17,344a22.3,22.3,0,0,1-11.66-.93,24,24,0,0,1-2.91-1.27,23.24,23.24,0,0,1-2.72-1.75,24.28,24.28,0,0,1-2.53-2.14,23.47,23.47,0,0,1-2.18-2.57,21.42,21.42,0,0,1-3.19-6.13,22,22,0,0,1,0-14,21.75,21.75,0,0,1,3.19-6.12,24.63,24.63,0,0,1,2.18-2.57,24.28,24.28,0,0,1,2.53-2.14,23.24,23.24,0,0,1,2.72-1.75,24,24,0,0,1,2.91-1.27,22.3,22.3,0,0,1,11.66-.93,22.05,22.05,0,0,1,9.32,4.19,21.76,21.76,0,0,1,5.58,6.32,20.91,20.91,0,0,1,2.4,5.9,15.66,15.66,0,0,1,.42,2.29c0,.34.1.64.12.93s0,.54,0,.77q0,.66,0,1.05A1.88,1.88,0,0,1,208.06,322.21Z" style="fill:#263238"></path><path d="M181.24,322.21a2.36,2.36,0,0,1,0,.59c0,.44,0,1,0,1.66,0,1.52-.08,3.59-.14,6.1l-.28-.18,14.71-7.86c0-.1,0,.85,0,.45h0l0,0-.06,0-.13-.08-.25-.16-.51-.32-1-.63-2-1.24-3.72-2.35L181.44,314l.3-.15c-.13,2.51-.23,4.57-.31,6.09-.05.67-.08,1.22-.11,1.66a2.4,2.4,0,0,1-.08.57,2.39,2.39,0,0,1,0-.58c0-.44,0-1,0-1.66,0-1.52.09-3.59.14-6.1v-.33l.29.18,6.44,4,3.74,2.33,2,1.23,1,.63.51.32.25.16.13.08.06,0,0,0h0c0-.4,0,.55,0,.45L181,330.72l-.3.16,0-.34c.12-2.51.23-4.57.31-6.09,0-.67.08-1.22.11-1.66A2.1,2.1,0,0,1,181.24,322.21Z" style="fill:#263238"></path><rect x="128.99" y="191.93" width="118.63" height="94.84" transform="translate(-65.25 70.66) rotate(-18.17)" style="fill:#f5f5f5"></rect><path d="M229.87,175.79l-.54.19-1.57.53-6.11,2-23.05,7.63L117.23,213l.15-.3L147,302.8h0l-.33-.16L259.38,265.7l-.14.27c-8.87-27.16-16.21-49.67-21.35-65.41-2.56-7.88-4.57-14.05-5.94-18.28l-1.56-4.82c-.35-1.09-.52-1.67-.52-1.67s.19.54.55,1.62.9,2.68,1.59,4.76c1.4,4.2,3.44,10.35,6,18.2l21.61,65.46.07.21-.21.07-112.69,37-.25.08-.08-.24h0c-10.67-32.54-20.76-63.29-29.55-90.11l-.07-.22.22-.07,81.58-26.66,23-7.5,6.08-2,1.56-.5Z" style="fill:#263238"></path><rect x="133.08" y="197.92" width="110.29" height="82.9" transform="translate(-65.26 70.64) rotate(-18.17)" style="fill:#FF725E"></rect><polygon points="148.76 295.95 169.29 234.98 202.02 258.16 212.02 236.74 253.55 261.55 148.76 295.95" style="opacity:0.4"></polygon><g style="opacity:0.4"><path d="M199.62,218.38a8.68,8.68,0,1,1-11-5.55A8.7,8.7,0,0,1,199.62,218.38Z"></path></g><path d="M221.44,260.11l3.06,56.3a3.79,3.79,0,0,0,3.76,3.6l101.31.74a3.8,3.8,0,0,0,3.82-3.78l.33-43.82a3.81,3.81,0,0,0-3.8-3.83l-62.3-.05a3.81,3.81,0,0,1-2.69-1.11l-10.75-10.75a3.82,3.82,0,0,0-2.66-1.11l-26.26-.19A3.79,3.79,0,0,0,221.44,260.11Z" style="fill:#FF725E"></path><g style="opacity:0.2"><path d="M221.44,260.11l3.06,56.3a3.79,3.79,0,0,0,3.76,3.6l101.31.74a3.8,3.8,0,0,0,3.82-3.78l.33-43.82a3.81,3.81,0,0,0-3.8-3.83l-62.3-.05a3.81,3.81,0,0,1-2.69-1.11l-10.75-10.75a3.82,3.82,0,0,0-2.66-1.11l-26.26-.19A3.79,3.79,0,0,0,221.44,260.11Z"></path></g><rect x="232.43" y="217.53" width="75" height="102.63" transform="translate(-87.24 136.3) rotate(-24.52)" style="fill:#fff"></rect><path d="M325.35,300l-.23-.45c-.15-.32-.35-.75-.62-1.31q-.83-1.77-2.36-5.09L313.3,274c-7.53-16.42-18.22-39.7-30.86-67.24l.45.17-68.21,31.16h0l.19-.5c15.88,34.89,30.59,67.19,42.53,93.41l-.4-.15,49.61-22.47,13.82-6.22,3.65-1.62c.83-.37,1.28-.55,1.28-.55l-1.19.58-3.57,1.67-13.69,6.33-49.66,22.83-.27.13-.13-.28-42.67-93.35-.15-.34.34-.15h0l68.24-31.1.31-.14.14.31c12.55,27.68,23.16,51.08,30.65,67.58l8.63,19.14q1.47,3.3,2.27,5.06c.24.56.43,1,.57,1.3A3.67,3.67,0,0,1,325.35,300Z" style="fill:#263238"></path><path d="M264.81,237.46c.08.19-7.27,3.72-16.43,7.9s-16.65,7.41-16.73,7.23,7.26-3.73,16.42-7.91S264.72,237.27,264.81,237.46Z" style="fill:#263238"></path><path d="M286.44,237.39c.09.19-11.28,5.56-25.39,12s-25.61,11.51-25.7,11.32,11.28-5.56,25.39-12S286.36,237.2,286.44,237.39Z" style="fill:#263238"></path><path d="M290.3,245.85c.09.19-11.28,5.56-25.39,12s-25.61,11.5-25.7,11.31,11.28-5.55,25.39-12S290.22,245.66,290.3,245.85Z" style="fill:#263238"></path><path d="M294.17,254.32c.08.19-11.29,5.56-25.39,12s-25.62,11.51-25.71,11.32,11.28-5.56,25.4-12S294.08,254.13,294.17,254.32Z" style="fill:#263238"></path><path d="M298,262.78c.08.19-11.28,5.56-25.39,12s-25.62,11.5-25.7,11.31,11.28-5.56,25.39-12S297.94,262.59,298,262.78Z" style="fill:#263238"></path><path d="M301.89,271.25c.09.18-11.28,5.56-25.39,12s-25.62,11.51-25.7,11.32,11.28-5.56,25.39-12S301.8,271.06,301.89,271.25Z" style="fill:#263238"></path><path d="M305.75,279.71c.09.19-11.28,5.56-25.39,12s-25.61,11.5-25.7,11.31,11.28-5.56,25.39-12S305.67,279.52,305.75,279.71Z" style="fill:#263238"></path><path d="M286,299c.09.18-6,3.14-13.57,6.6s-13.8,6.11-13.89,5.93,6-3.15,13.58-6.61S285.9,298.77,286,299Z" style="fill:#263238"></path><rect x="245.12" y="207.44" width="77.88" height="106.58" transform="translate(-54.47 76.17) rotate(-13.95)" style="fill:#fff"></rect><path d="M334.7,303.06s-.06-.18-.15-.51-.22-.83-.38-1.46c-.33-1.3-.82-3.19-1.44-5.64-1.26-4.95-3.07-12.13-5.37-21.22-4.57-18.2-11-44-18.69-74.52l.42.25-75.57,18.81h0l.29-.47,25.62,103.45-.38-.23L314,308.05l15.3-3.72,4-1c.92-.22,1.41-.31,1.41-.31s-.44.13-1.33.36l-4,1-15.18,3.86-55,13.84-.31.08-.07-.31c-7.24-29-16.14-64.79-25.77-103.42l-.09-.38.38-.09h0l75.58-18.74.35-.09.08.35c7.54,30.65,13.91,56.55,18.41,74.82l5.16,21.2c.59,2.42,1,4.29,1.35,5.59l.33,1.43A2.61,2.61,0,0,1,334.7,303.06Z" style="fill:#263238"></path><path d="M284.81,227.7c.05.21-8.13,2.42-18.27,4.94s-18.41,4.39-18.46,4.19,8.13-2.42,18.27-4.94S284.76,227.49,284.81,227.7Z" style="fill:#263238"></path><path d="M306.91,231.76c0,.2-12.58,3.52-28.2,7.4s-28.35,6.86-28.4,6.65,12.58-3.52,28.21-7.4S306.86,231.55,306.91,231.76Z" style="fill:#263238"></path><path d="M309.24,241.13c.05.21-12.58,3.53-28.21,7.41s-28.34,6.86-28.39,6.65,12.58-3.52,28.21-7.41S309.19,240.92,309.24,241.13Z" style="fill:#263238"></path><path d="M311.57,250.51c.05.21-12.58,3.52-28.21,7.4S255,264.78,255,264.57s12.57-3.53,28.21-7.41S311.52,250.3,311.57,250.51Z" style="fill:#263238"></path><path d="M313.9,259.89c.05.2-12.58,3.52-28.21,7.4s-28.34,6.86-28.39,6.65,12.57-3.52,28.21-7.4S313.85,259.68,313.9,259.89Z" style="fill:#263238"></path><path d="M316.23,269.26c0,.21-12.58,3.53-28.21,7.41s-28.34,6.86-28.39,6.65,12.57-3.52,28.2-7.41S316.17,269.05,316.23,269.26Z" style="fill:#263238"></path><path d="M318.56,278.64c.05.21-12.58,3.52-28.21,7.4S262,292.91,262,292.7s12.57-3.53,28.2-7.41S318.5,278.43,318.56,278.64Z" style="fill:#263238"></path><path d="M294.71,294.52c.05.21-6.72,2.07-15.12,4.15s-15.25,3.61-15.3,3.4S271,300,279.4,297.92,294.66,294.31,294.71,294.52Z" style="fill:#263238"></path><path d="M214.26,267.76l7.94,69a2.46,2.46,0,0,0,2.41,2.16l107.87.79a2.44,2.44,0,0,0,2.46-2.23l5.93-68.94a2.43,2.43,0,0,0-2.41-2.65L216.7,265A2.44,2.44,0,0,0,214.26,267.76Z" style="fill:#FF725E"></path><path d="M341.72,204.72c-.05,0,.34-.54.73-1.6a7.19,7.19,0,0,0,0-4.64,7,7,0,0,0-8.88-4.43,6.94,6.94,0,0,0-4.69,6.71,6.86,6.86,0,0,0,1.24,3.83,7,7,0,0,0,5.95,3,7.21,7.21,0,0,0,4.35-1.63c.87-.73,1.21-1.27,1.26-1.24a1.82,1.82,0,0,1-.24.4,6.1,6.1,0,0,1-.88,1,7.26,7.26,0,0,1-7.81,1.23,7.41,7.41,0,0,1-3.05-11,7.43,7.43,0,0,1,3.71-2.77,7.4,7.4,0,0,1,7.67,1.87,7.3,7.3,0,0,1,1.52,7.76,6,6,0,0,1-.63,1.16A1.75,1.75,0,0,1,341.72,204.72Z" style="fill:#263238"></path><path d="M361.67,218.69c-.05,0,.34-.54.73-1.6a7.27,7.27,0,0,0,.05-4.65,7,7,0,0,0-1.69-2.74,7,7,0,0,0-10.64.9,7,7,0,0,0,5.95,11,7.23,7.23,0,0,0,4.35-1.64c.86-.72,1.21-1.27,1.25-1.23s-.07.15-.24.39a5.31,5.31,0,0,1-.88,1,7.11,7.11,0,0,1-4.47,1.85,7.37,7.37,0,0,1-7.72-7.18,7.36,7.36,0,0,1,5-7.2,7.36,7.36,0,0,1,9.4,4.79,7.21,7.21,0,0,1-.21,4.83,5.38,5.38,0,0,1-.63,1.17C361.78,218.58,361.69,218.7,361.67,218.69Z" style="fill:#263238"></path><path d="M361.75,218.81a3.46,3.46,0,0,1,.26-.49c.2-.36.47-.82.81-1.4.69-1.22,1.72-3,2.89-5.29s2.51-5.12,3.87-8.38,2.8-6.94,4.39-10.89l.13.31a74.67,74.67,0,0,1-12.47-7.06,76.36,76.36,0,0,1-9.6-7.94l.42-.21a30.77,30.77,0,0,1-1.14,12.41,31.33,31.33,0,0,1-4.27,8.87,29.2,29.2,0,0,1-4.24,4.89c-.55.52-1,.87-1.32,1.12a3.24,3.24,0,0,1-.48.36,2.53,2.53,0,0,1,.42-.42c.28-.28.73-.64,1.26-1.18a32.3,32.3,0,0,0,4.1-4.94,31.65,31.65,0,0,0,4.12-8.82A30.36,30.36,0,0,0,352,177.52l-.08-.7.5.49a78.71,78.71,0,0,0,9.56,7.88,77.88,77.88,0,0,0,12.37,7l.22.09-.09.22c-1.61,3.94-3.07,7.62-4.47,10.87s-2.76,6.07-4,8.36-2.28,4-3,5.24l-.88,1.35A2.64,2.64,0,0,1,361.75,218.81Z" style="fill:#263238"></path><path d="M370.38,202.4c-.09.11-4.34-2.72-9.51-6.34s-9.29-6.65-9.21-6.77,4.34,2.72,9.51,6.34S370.46,202.28,370.38,202.4Z" style="fill:#263238"></path><path d="M292.72,303.34c-.23,0-.11-2.07-1.36-5a14.72,14.72,0,0,0-3.1-4.56,14.39,14.39,0,0,0-5.73-3.43,14.6,14.6,0,0,0-6.68-.36,14.23,14.23,0,0,0-5.11,2c-2.67,1.76-3.76,3.54-3.93,3.4s.14-.51.69-1.27a12.6,12.6,0,0,1,2.78-2.79,14,14,0,0,1,5.36-2.41A14.33,14.33,0,0,1,289,293a14.32,14.32,0,0,1,3.1,5,13.34,13.34,0,0,1,.76,3.87A4,4,0,0,1,292.72,303.34Z" style="fill:#fff"></path><path d="M286,298.32c.19-.25,3.32,1.81,7,4.6l.2.16-.88.27c1.49-4.25,2.91-7.57,3.21-7.46s-.66,3.58-2.14,7.83l-.25.75-.63-.48-.21-.16C288.59,301,285.77,298.57,286,298.32Z" style="fill:#fff"></path><path d="M266,301c.23,0-.14,2,.7,5a14.44,14.44,0,0,0,2.37,4.8,14,14,0,0,0,5,4.13,16.78,16.78,0,0,0,1.59.67c.54.15,1.07.33,1.61.44a14.31,14.31,0,0,0,3.14.32,14.12,14.12,0,0,0,5.24-1.06,16.17,16.17,0,0,0,3.21-1.77c.72-.49,1.1-.81,1.17-.74s-.23.47-.89,1.09A12.65,12.65,0,0,1,286,316a13.8,13.8,0,0,1-5.55,1.37,14.16,14.16,0,0,1-3.39-.28,16.13,16.13,0,0,1-1.75-.46,14.94,14.94,0,0,1-1.72-.72,14.2,14.2,0,0,1-5.35-4.53,14,14,0,0,1-2.3-5.23,13.42,13.42,0,0,1-.29-2.17,16.09,16.09,0,0,1,.05-1.65C265.85,301.46,266,301,266,301Z" style="fill:#fff"></path><path d="M272.13,306.81c-.22.22-3.08-2.21-6.38-5.43l-.19-.18.91-.16c-2,4-3.82,7.15-4.09,7s1.09-3.47,3.07-7.51l.35-.71.56.55.19.18C269.85,303.78,272.35,306.58,272.13,306.81Z" style="fill:#fff"></path></g><g id="Server"><rect x="531.31" y="343.41" width="127.17" height="34.44" style="fill:#455a64"></rect><rect x="534.72" y="347.74" width="6.85" height="26.36" style="fill:#263238"></rect><path d="M549.64,353.28a2.18,2.18,0,1,1-2.17-2.18A2.18,2.18,0,0,1,549.64,353.28Z" style="fill:#fff"></path><path d="M549.64,362.6a2.18,2.18,0,1,1-2.17-2.18A2.17,2.17,0,0,1,549.64,362.6Z" style="fill:#fff"></path><rect x="558.35" y="351.1" width="6.73" height="20.25" style="fill:#263238"></rect><rect x="568.07" y="351.1" width="6.73" height="20.25" style="fill:#263238"></rect><rect x="577.8" y="351.1" width="6.73" height="20.25" style="fill:#263238"></rect><rect x="587.52" y="351.1" width="6.73" height="20.25" style="fill:#263238"></rect><rect x="597.25" y="351.1" width="6.73" height="20.25" style="fill:#263238"></rect><rect x="606.97" y="351.1" width="6.73" height="20.25" style="fill:#263238"></rect><rect x="616.69" y="351.1" width="6.73" height="20.25" style="fill:#263238"></rect><rect x="626.42" y="351.1" width="6.73" height="20.25" style="fill:#263238"></rect><rect x="636.14" y="351.1" width="6.73" height="20.25" style="fill:#263238"></rect><rect x="645.87" y="351.1" width="6.73" height="20.25" style="fill:#263238"></rect><rect x="658.48" y="343.41" width="22.72" height="34.44" style="fill:#263238"></rect><rect x="531.31" y="381.4" width="127.17" height="34.44" style="fill:#455a64"></rect><rect x="534.72" y="385.73" width="6.85" height="26.36" style="fill:#263238"></rect><path d="M549.64,391.28a2.18,2.18,0,1,1-2.17-2.18A2.17,2.17,0,0,1,549.64,391.28Z" style="fill:#fff"></path><path d="M549.64,400.59a2.18,2.18,0,1,1-2.17-2.18A2.18,2.18,0,0,1,549.64,400.59Z" style="fill:#fff"></path><rect x="558.35" y="389.1" width="6.73" height="20.25" style="fill:#263238"></rect><rect x="568.07" y="389.1" width="6.73" height="20.25" style="fill:#263238"></rect><rect x="577.8" y="389.1" width="6.73" height="20.25" style="fill:#263238"></rect><rect x="587.52" y="389.1" width="6.73" height="20.25" style="fill:#263238"></rect><rect x="597.25" y="389.1" width="6.73" height="20.25" style="fill:#263238"></rect><rect x="606.97" y="389.1" width="6.73" height="20.25" style="fill:#263238"></rect><rect x="616.69" y="389.1" width="6.73" height="20.25" style="fill:#263238"></rect><rect x="626.42" y="389.1" width="6.73" height="20.25" style="fill:#263238"></rect><rect x="636.14" y="389.1" width="6.73" height="20.25" style="fill:#263238"></rect><rect x="645.87" y="389.1" width="6.73" height="20.25" style="fill:#263238"></rect><rect x="658.48" y="381.4" width="22.72" height="34.44" style="fill:#263238"></rect><rect x="531.31" y="418.87" width="127.17" height="34.44" style="fill:#455a64"></rect><rect x="534.72" y="423.2" width="6.85" height="26.36" style="fill:#263238"></rect><path d="M549.64,428.74a2.18,2.18,0,1,1-2.17-2.17A2.17,2.17,0,0,1,549.64,428.74Z" style="fill:#fff"></path><path d="M549.64,438.06a2.18,2.18,0,1,1-2.17-2.18A2.18,2.18,0,0,1,549.64,438.06Z" style="fill:#fff"></path><rect x="558.35" y="426.57" width="6.73" height="20.25" style="fill:#263238"></rect><rect x="568.07" y="426.57" width="6.73" height="20.25" style="fill:#263238"></rect><rect x="577.8" y="426.57" width="6.73" height="20.25" style="fill:#263238"></rect><rect x="587.52" y="426.57" width="6.73" height="20.25" style="fill:#263238"></rect><rect x="597.25" y="426.57" width="6.73" height="20.25" style="fill:#263238"></rect><rect x="606.97" y="426.57" width="6.73" height="20.25" style="fill:#263238"></rect><rect x="616.69" y="426.57" width="6.73" height="20.25" style="fill:#263238"></rect><rect x="626.42" y="426.57" width="6.73" height="20.25" style="fill:#263238"></rect><rect x="636.14" y="426.57" width="6.73" height="20.25" style="fill:#263238"></rect><rect x="645.87" y="426.57" width="6.73" height="20.25" style="fill:#263238"></rect><rect x="658.48" y="418.87" width="22.72" height="34.44" style="fill:#263238"></rect><rect x="681.2" y="360.42" width="8.67" height="6.02" style="fill:#263238"></rect><path d="M577.11,198.12v-6.47a.92.92,0,0,1,.92-.92h6a.92.92,0,0,1,.92.92v6.47a3.93,3.93,0,0,1-3.93,3.93h0A3.93,3.93,0,0,1,577.11,198.12Z" style="fill:#263238"></path><rect x="681.2" y="396.92" width="8.67" height="6.02" style="fill:#263238"></rect><rect x="681.2" y="432.01" width="8.67" height="6.02" style="fill:#263238"></rect><rect x="522.05" y="432.01" width="8.67" height="6.02" style="fill:#263238"></rect><path d="M709.76,380.7a5.16,5.16,0,0,1,0,1.23,8.75,8.75,0,0,1-.09,1.45,15.71,15.71,0,0,1-.31,1.89,14.91,14.91,0,0,1-.64,2.25c-.14.39-.26.81-.45,1.22l-.59,1.25a19.48,19.48,0,0,1-8.57,8.56l-1.25.59c-.4.19-.82.31-1.21.46a16.86,16.86,0,0,1-2.25.63,15.85,15.85,0,0,1-1.9.31,8.58,8.58,0,0,1-1.44.09,5.1,5.1,0,0,1-1.23,0c0-.12,1.76-.06,4.49-.72a17.85,17.85,0,0,0,2.18-.68c.38-.16.79-.28,1.18-.47l1.21-.6a19.76,19.76,0,0,0,8.36-8.36c.21-.41.4-.81.6-1.21s.31-.8.47-1.18a17.85,17.85,0,0,0,.68-2.18C709.7,382.46,709.64,380.69,709.76,380.7Z" style="fill:#263238"></path><path d="M709.76,342.87a5.16,5.16,0,0,1,0,1.23,8.75,8.75,0,0,1-.09,1.45,15.85,15.85,0,0,1-.31,1.9,15.14,15.14,0,0,1-.64,2.24c-.14.39-.26.81-.45,1.22l-.59,1.25a21.28,21.28,0,0,1-3.6,5,20.84,20.84,0,0,1-5,3.6l-1.25.59c-.4.19-.82.31-1.21.46a15.48,15.48,0,0,1-2.25.63,14.07,14.07,0,0,1-1.9.31,8.58,8.58,0,0,1-1.44.09,5.1,5.1,0,0,1-1.23,0c0-.12,1.76-.06,4.49-.71a16.38,16.38,0,0,0,2.18-.69,12.58,12.58,0,0,0,1.18-.47l1.21-.59a19.91,19.91,0,0,0,8.36-8.36c.21-.42.4-.82.6-1.21s.31-.81.47-1.19a17.33,17.33,0,0,0,.68-2.18C709.7,344.64,709.64,342.87,709.76,342.87Z" style="fill:#263238"></path><path d="M526.38,435l-.45,0-1.35,0-5.17.05-19,.08-62.77.08h-26.4c-2.79,0-5.49.08-8.18-.12a27,27,0,0,1-7.58-1.83c-.61-.2-1.15-.53-1.72-.78a14.34,14.34,0,0,1-1.64-.88l-1.56-1-1.44-1.08a12.32,12.32,0,0,1-1.35-1.14c-.42-.4-.88-.77-1.27-1.19a27.24,27.24,0,0,1-2.18-2.57,26.7,26.7,0,0,1-3.2-5.47A27.09,27.09,0,0,1,379,408.61c0-3.18,0-5.93,0-8.18s0-4,.05-5.17c0-.58,0-1,0-1.35s0-.46,0-.46,0,.16,0,.46,0,.77,0,1.35c0,1.2,0,2.94.05,5.17s0,5,0,8.18a26.72,26.72,0,0,0,2.16,10.48,26.13,26.13,0,0,0,3.18,5.37,26.79,26.79,0,0,0,2.16,2.53c.38.41.83.77,1.25,1.16a12,12,0,0,0,1.34,1.12l1.42,1.06,1.53.94a13.11,13.11,0,0,0,1.62.85c.56.25,1.1.57,1.69.77a26.87,26.87,0,0,0,7.45,1.77c2.62.19,5.36.08,8.14.11h26.4l62.77.08,19,.08,5.17,0,1.35,0Z" style="fill:#263238"></path><path d="M581,200.4s0,.31,0,.91,0,1.52,0,2.69v10.32c0,9-.06,22-.1,38,0,8-.06,16.8-.1,26.22q0,3.54,0,7.19c0,1.22,0,2.45,0,3.68s.11,2.47.18,3.71a33.93,33.93,0,0,0,5,14.39,33.23,33.23,0,0,0,11.53,11.09c.3.18.59.37.89.53l.94.45,1.87.9,2,.73a14.47,14.47,0,0,0,2,.63l2,.53c.68.17,1.39.23,2.09.35a31.65,31.65,0,0,0,4.25.37c11.53.07,23.48,0,35.7,0h44.3A16.48,16.48,0,0,1,710,338.86c0,21.21,0,40.3,0,56.34,0,4,0,7.83,0,11.44,0,1.8,0,3.56,0,5.26a32.2,32.2,0,0,1-.24,5,21.22,21.22,0,0,1-8.1,13.81,20.7,20.7,0,0,1-9.41,4.08c-.59.08-1.1.17-1.55.21l-1.12.05-.92,0s.31,0,.91-.08l1.13-.07c.44,0,.95-.14,1.53-.23a20.85,20.85,0,0,0,9.3-4.14,21,21,0,0,0,7.94-13.69,32.82,32.82,0,0,0,.22-4.91c0-1.7,0-3.46,0-5.26,0-3.61,0-7.43,0-11.44,0-16-.06-35.12-.1-56.31a16,16,0,0,0-15.87-15.27h-44.3c-12.23,0-24.16,0-35.71,0a30.82,30.82,0,0,1-4.31-.38c-.71-.12-1.43-.19-2.13-.36l-2.07-.53a14.12,14.12,0,0,1-2-.65l-2-.73-1.9-.92-.95-.46-.9-.54a33.63,33.63,0,0,1-11.68-11.26,34.34,34.34,0,0,1-5.08-14.6c-.06-1.26-.14-2.52-.17-3.76s0-2.46,0-3.68c0-2.43,0-4.83,0-7.19.06-9.42.11-18.21.16-26.22.11-16,.2-29,.27-38,0-4.47.07-7.95.1-10.32,0-1.18,0-2.07,0-2.69S581,200.4,581,200.4Z" style="fill:#263238"></path></g><g id="Character"><path d="M545.31,206.62c-2.22-.51-2.71-3.12-2.91-4.59a5,5,0,0,1,1.33-4.09c2-2.06,5.31-2,8-1.16a39.59,39.59,0,0,0,6.51,1.88c2.18.37,5.11-.52,8.19,1,2.36,1.14,2,3.25,3.21,4s1.84,1.44,3,2.22c1.51,1,1.62,3.17,1.31,5s-.88,3.68-.17,5.35c.49,1.17,1.55,2,2,3.21a3.7,3.7,0,0,1-1.63,4.47,6.35,6.35,0,0,0-1.57.88,5.47,5.47,0,0,0-.93,2.36,4.21,4.21,0,0,1-3.69,2.85,3.79,3.79,0,0,1-3.72-2.69,8.06,8.06,0,0,1,.47-4.1,26.06,26.06,0,0,0,.51-11.15" style="fill:#263238"></path><path d="M565.09,241.44l-14.54-1.16c-.09-1.7,0-8.26,0-8.26s-6.05-.94-6.12-7,1-19.93,1-19.93h0a21,21,0,0,1,21.12,2.65l.9.69Z" style="fill:#ffbe9d"></path><path d="M547,216a.89.89,0,0,0,.06-1.24A.88.88,0,1,0,547,216Z" style="fill:#263238"></path><path d="M545.36,214.11c.09.1.68-.35,1.52-.36s1.44.43,1.53.32,0-.23-.32-.43a2,2,0,0,0-1.22-.39,2.07,2.07,0,0,0-1.21.41C545.4,213.87,545.31,214.06,545.36,214.11Z" style="fill:#263238"></path><path d="M555,214.75a.88.88,0,1,0,1.21.28A.87.87,0,0,0,555,214.75Z" style="fill:#263238"></path><path d="M554.42,214.47c.1.1.69-.35,1.53-.36s1.43.43,1.53.32-.05-.24-.32-.44a2.07,2.07,0,0,0-2.43,0C554.47,214.23,554.38,214.42,554.42,214.47Z" style="fill:#263238"></path><path d="M551.06,221.71a4.06,4.06,0,0,0-1.34-.28c-.22,0-.39-.07-.41-.19a1.22,1.22,0,0,1,.16-.63c.21-.55.43-1.1.66-1.69a23,23,0,0,0,1.42-4.45,23.49,23.49,0,0,0-1.87,4.29l-.62,1.7a1.42,1.42,0,0,0-.12.91.54.54,0,0,0,.38.34,1,1,0,0,0,.37,0A3.83,3.83,0,0,0,551.06,221.71Z" style="fill:#263238"></path><path d="M550.57,231.93a14.06,14.06,0,0,0,7.88-2.24s-1.86,4.35-7.89,3.81Z" style="fill:#eb996e"></path><path d="M545.31,206.62a10.07,10.07,0,0,0,8.49,0c3.25-1.34,7-1.83,7.71-1.14s.69,3.93,3.73,5.1c0,0-.67,6.15,1.8,6.11s1.65-9.69,1.65-9.69l-5.8-3.38-6.46-1.73-6.25.42-4.87.95Z" style="fill:#263238"></path><path d="M566.7,214.71c.1-.05,4.16-1.23,4,2.9s-4.25,3.15-4.26,3S566.7,214.71,566.7,214.71Z" style="fill:#ffbe9d"></path><path d="M567.78,219.11s.07.06.19.12a.73.73,0,0,0,.54,0,1.79,1.79,0,0,0,.87-1.58,2.31,2.31,0,0,0-.17-1,.79.79,0,0,0-.52-.57.35.35,0,0,0-.43.18c-.06.11,0,.2-.06.2s-.09-.07-.05-.24a.43.43,0,0,1,.17-.25.56.56,0,0,1,.41-.1,1.06,1.06,0,0,1,.73.67,2.43,2.43,0,0,1,.21,1.16,1.85,1.85,0,0,1-1.11,1.75.75.75,0,0,1-.65-.13C567.78,219.22,567.76,219.12,567.78,219.11Z" style="fill:#eb996e"></path><path d="M548.88,213c-.13.24-.92,0-1.87,0s-1.75.07-1.87-.18.71-.85,1.91-.79S549,212.74,548.88,213Z" style="fill:#263238"></path><path d="M558.53,213.13c-.13.24-.93.05-1.87,0s-1.76.08-1.87-.18.71-.84,1.91-.79S558.67,212.91,558.53,213.13Z" style="fill:#263238"></path><path d="M558.27,204.57a8.7,8.7,0,0,0,9.18,8.21,16.17,16.17,0,0,0-2.54-6.57c-1.45-1.88-4-3.11-6.23-2.34" style="fill:#263238"></path><path d="M554.36,221.54s.1.26,0,.65a2.56,2.56,0,0,1-.82,1.33,2.64,2.64,0,0,1-1.45.62c-.4,0-.64-.06-.64-.11a5.68,5.68,0,0,0,1.82-.82C554.1,222.49,554.24,221.52,554.36,221.54Z" style="fill:#263238"></path><path d="M554.88,222s-.28-.2-.67-.25a3.05,3.05,0,0,0-.72.08s.26-.35.74-.28S554.94,222,554.88,222Z" style="fill:#263238"></path><path d="M569.41,220.34a1.08,1.08,0,0,1,.17,1,1.36,1.36,0,0,1-.63.9,1.48,1.48,0,0,1-1.35.08,1.37,1.37,0,0,1-.82-1.08,1.47,1.47,0,0,1,.25-1.07c.41-.55.93-.44.89-.41a1,1,0,0,0-.77.49,1.36,1.36,0,0,0-.18,1,1.22,1.22,0,0,0,.71.92,1.36,1.36,0,0,0,1.17-.05,1.3,1.3,0,0,0,.59-.78A1.89,1.89,0,0,0,569.41,220.34Z" style="fill:#455a64"></path><path d="M543.39,198.35a3.57,3.57,0,0,0,1.66,2.86,7.51,7.51,0,0,0,3.53,1.1,11.5,11.5,0,0,0,4.54-.5c1.56-.46,2.83-1.48,4.3-1.72a4.27,4.27,0,0,1,3.56,1.09,4.19,4.19,0,0,1,1.21,2.24,2.71,2.71,0,0,1,0,.94,6.52,6.52,0,0,0-.12-.92,4.23,4.23,0,0,0-1.23-2.15,4.11,4.11,0,0,0-3.43-1c-1.39.23-2.67,1.25-4.27,1.73a11.48,11.48,0,0,1-4.61.49,7.41,7.41,0,0,1-3.6-1.17,3.77,3.77,0,0,1-1.5-2.05A2.28,2.28,0,0,1,543.39,198.35Z" style="fill:#455a64"></path><path d="M562.13,204.23a2.41,2.41,0,0,1,.78-.77,3.18,3.18,0,0,1,2.9-.32,3.36,3.36,0,0,1,1.59,1.31,4.08,4.08,0,0,1,.53,2.31,22.34,22.34,0,0,0,0,2.59,2.85,2.85,0,0,0,1.43,2.17,9.59,9.59,0,0,1,2.32,1.6,4.73,4.73,0,0,1,1,2.44c.17,1.68-.09,3.17.16,4.4a3.9,3.9,0,0,0,1.41,2.48,3.22,3.22,0,0,0,1,.45,2,2,0,0,1-1-.39,3.87,3.87,0,0,1-1.52-2.52c-.26-1.25,0-2.77-.2-4.39a4.49,4.49,0,0,0-.92-2.34,9.46,9.46,0,0,0-2.27-1.55,3.21,3.21,0,0,1-1-1,3.18,3.18,0,0,1-.47-1.33,20.66,20.66,0,0,1,0-2.62,3.93,3.93,0,0,0-.49-2.21,3.22,3.22,0,0,0-1.5-1.28,3.14,3.14,0,0,0-2.8.26A4.09,4.09,0,0,0,562.13,204.23Z" style="fill:#455a64"></path><path d="M573.82,207.87a.75.75,0,0,0-.08-.55,1.23,1.23,0,0,0-1.37-.43,6,6,0,0,1-1.12.15,1.7,1.7,0,0,1-1.18-.57c-.68-.68-.83-1.75-1.42-2.56a4,4,0,0,0-2.35-1.51,3.7,3.7,0,0,0-2.28.24,4.61,4.61,0,0,0-1.7,1.32,2.63,2.63,0,0,1,.34-.49,4.1,4.1,0,0,1,1.3-1,3.82,3.82,0,0,1,2.38-.29,4.07,4.07,0,0,1,2.47,1.58c.64.88.78,1.92,1.4,2.55a1.55,1.55,0,0,0,1,.53,6.38,6.38,0,0,0,1.09-.12,1.89,1.89,0,0,1,.93.06,1,1,0,0,1,.54.48C574,207.67,573.82,207.89,573.82,207.87Z" style="fill:#455a64"></path><path d="M560.58,198.76a.58.58,0,0,1,.28-.06,1.82,1.82,0,0,1,.75.14,2.48,2.48,0,0,1,1.45,2,5.06,5.06,0,0,1-.33,2.47,4.46,4.46,0,0,1-.42.95,5.47,5.47,0,0,1,.28-1,5.49,5.49,0,0,0,.26-2.4,2.39,2.39,0,0,0-1.3-1.88A2.65,2.65,0,0,0,560.58,198.76Z" style="fill:#455a64"></path><path d="M546.5,207a10.87,10.87,0,0,0,2.44.5,8.75,8.75,0,0,0,5.68-1.57c1-.68,1.68-1.57,2.55-2.16a3.31,3.31,0,0,1,2.65-.58,5.5,5.5,0,0,1,1.72.7l.42.26.14.11a3.7,3.7,0,0,1-.6-.3,5.86,5.86,0,0,0-1.7-.63,3.18,3.18,0,0,0-2.52.6c-.84.57-1.56,1.46-2.54,2.17a8.64,8.64,0,0,1-5.81,1.55A6.66,6.66,0,0,1,546.5,207Z" style="fill:#455a64"></path><polygon points="513.14 415.29 514.47 429.85 529.54 431.47 529.54 413.59 513.14 415.29" style="fill:#e0e0e0"></polygon><polygon points="513.72 421.66 529.54 421.66 529.54 423.4 513.92 423.79 513.72 421.66" style="fill:#455a64"></polygon><polygon points="514.03 425.06 514.21 426.99 529.54 426.91 529.54 424.96 514.03 425.06" style="fill:#455a64"></polygon><polygon points="514.47 429.85 514.37 428.72 529.54 428.46 529.52 429.55 514.47 429.85" style="fill:#455a64"></polygon><path d="M514.49,431.41l0-1.63,15.3-.57.23,5.36-.94.1c-4.19.4-21.35,1.73-24.19,1C501.67,434.84,514.49,431.41,514.49,431.41Z" style="fill:#FF725E"></path><g style="opacity:0.30000000000000004"><path d="M524.45,434.67a5.27,5.27,0,0,1,1.81-3.33,5.18,5.18,0,0,1,3.52-1.25l.17,4.26Z" style="fill:#fff"></path></g><g style="opacity:0.30000000000000004"><path d="M508.23,433.31s-4.48,1.49-3.88,2.21,18,0,25.62-.95l0-.34-20.27,1S509.12,433.31,508.23,433.31Z" style="fill:#fff"></path></g><path d="M530.17,434.21a1.11,1.11,0,0,1-.26,0l-.75.07-2.76.23c-2.34.18-5.56.39-9.13.53s-6.81.21-9.15.22h-2.77l-.76,0h-.26a.76.76,0,0,1,.26,0l.76,0,2.77-.06c2.34,0,5.57-.13,9.14-.27s6.79-.33,9.13-.48l2.77-.17.75,0Z" style="fill:#263238"></path><path d="M509.67,435.45a5.57,5.57,0,0,0-.57-1.3,6.17,6.17,0,0,0-1-1,2.07,2.07,0,0,1,1.14.92A2,2,0,0,1,509.67,435.45Z" style="fill:#263238"></path><path d="M514.07,433s-.26-.22-.5-.56-.39-.64-.35-.67.27.22.5.56S514.12,433,514.07,433Z" style="fill:#263238"></path><path d="M515.28,432.29s-.28-.11-.55-.34-.47-.44-.43-.47.28.11.55.33S515.31,432.25,515.28,432.29Z" style="fill:#263238"></path><path d="M516,430.82a1.84,1.84,0,0,1-.79.14.4.4,0,1,1,0-.19A1.86,1.86,0,0,1,516,430.82Z" style="fill:#263238"></path><path d="M516.23,429.8a1.61,1.61,0,0,1-.88.29,1.69,1.69,0,0,1-.92-.08,4.37,4.37,0,0,1,.9-.1A4.44,4.44,0,0,1,516.23,429.8Z" style="fill:#263238"></path><path d="M513.5,431.68a2.37,2.37,0,0,1-1,0,5.72,5.72,0,0,1-1-.19,2.65,2.65,0,0,1-.61-.22.56.56,0,0,1-.26-.3.38.38,0,0,1,.14-.39,1.79,1.79,0,0,1,2.24.43,1.67,1.67,0,0,1,.34.64.56.56,0,0,1,0,.27,2.76,2.76,0,0,0-.48-.82,1.78,1.78,0,0,0-.86-.51,1.47,1.47,0,0,0-1.16.13c-.15.12-.08.3.09.39a3,3,0,0,0,.56.22,7.31,7.31,0,0,0,1,.22C513.13,431.67,513.5,431.65,513.5,431.68Z" style="fill:#263238"></path><path d="M513.25,431.74a1,1,0,0,1-.14-.67,1.74,1.74,0,0,1,.24-.73,1,1,0,0,1,.8-.53.39.39,0,0,1,.32.44,1.14,1.14,0,0,1-.15.44,3.2,3.2,0,0,1-.44.62c-.3.31-.53.43-.54.41s.18-.18.44-.5a3.28,3.28,0,0,0,.39-.6c.12-.22.2-.59,0-.63s-.48.24-.63.45a1.66,1.66,0,0,0-.25.64A4.51,4.51,0,0,0,513.25,431.74Z" style="fill:#263238"></path><path d="M529.69,430.05s-.43,0-1.12.09a4.78,4.78,0,0,0-3.86,3.34,9.53,9.53,0,0,0-.24,1.1s0-.11,0-.31a4.3,4.3,0,0,1,.14-.83,4.63,4.63,0,0,1,4-3.43,4,4,0,0,1,.84,0A.93.93,0,0,1,529.69,430.05Z" style="fill:#263238"></path><path d="M522.47,433.26a8.52,8.52,0,0,1-2.21.31,8.74,8.74,0,0,1-2.24-.09c0-.05,1,0,2.23-.1S522.46,433.21,522.47,433.26Z" style="fill:#263238"></path><path d="M525.45,433.13s-.07.22-.16.45-.14.44-.19.44-.09-.24,0-.51S525.42,433.1,525.45,433.13Z" style="fill:#263238"></path><path d="M526.52,431.69s0,.2-.2.36-.31.27-.34.24,0-.2.2-.36S526.48,431.65,526.52,431.69Z" style="fill:#263238"></path><path d="M528.11,431c0,.06-.21.06-.44.15s-.37.21-.41.18.07-.25.35-.35S528.12,430.94,528.11,431Z" style="fill:#263238"></path><path d="M529.24,430.64s-.06.13-.19.18-.24.06-.26,0,.06-.13.19-.18S529.22,430.59,529.24,430.64Z" style="fill:#263238"></path><polygon points="513.51 419.36 513.6 420.25 529.54 420.03 529.54 418.97 513.51 419.36" style="fill:#455a64"></polygon><polygon points="475 380.17 469.58 393.76 482.27 402.04 490.38 386.1 475 380.17" style="fill:#e0e0e0"></polygon><polygon points="472.63 386.12 486.72 393.29 485.93 394.85 471.83 388.11 472.63 386.12" style="fill:#455a64"></polygon><polygon points="471.36 389.29 470.64 391.09 484.34 397.98 485.23 396.23 471.36 389.29" style="fill:#455a64"></polygon><polygon points="469.58 393.76 470 392.71 483.64 399.35 483.13 400.32 469.58 393.76" style="fill:#455a64"></polygon><path d="M468.89,395.15l.69-1.47,13.89,6.43L481.25,405l-.88-.34c-3.92-1.55-19.82-8.14-22-10.08C455.9,392.39,468.89,395.15,468.89,395.15Z" style="fill:#FF725E"></path><g style="opacity:0.30000000000000004"><path d="M476.28,402.57a5.35,5.35,0,0,1,3.13-2.14,5.13,5.13,0,0,1,3.7.49l-1.78,3.87Z" style="fill:#fff"></path></g><g style="opacity:0.30000000000000004"><path d="M462.45,394s-4.67-.71-4.47.21,16,8.18,23.27,10.77l.12-.32-18.52-8.31S463.24,394.41,462.45,394Z" style="fill:#fff"></path></g><path d="M481.59,404.76l-.25-.08-.7-.27-2.57-1.05c-2.16-.9-5.13-2.19-8.37-3.67s-6.16-2.91-8.26-4L459,394.47l-.66-.35a1.05,1.05,0,0,1-.23-.14l.25.11.68.32,2.49,1.21c2.11,1,5,2.41,8.27,3.9s6.21,2.79,8.35,3.72l2.55,1.1.69.3Z" style="fill:#263238"></path><path d="M462.76,396.57a6,6,0,0,0,.08-1.42,6.64,6.64,0,0,0-.41-1.35,2,2,0,0,1,.59,1.33A2,2,0,0,1,462.76,396.57Z" style="fill:#263238"></path><path d="M467.8,396.38a1.59,1.59,0,0,1-.19-.74,1.52,1.52,0,0,1,0-.75s.13.32.19.73A1.74,1.74,0,0,1,467.8,396.38Z" style="fill:#263238"></path><path d="M469.19,396.3s-.2-.23-.34-.55-.21-.6-.17-.63.2.23.34.55S469.24,396.28,469.19,396.3Z" style="fill:#263238"></path><path d="M470.5,395.32a1.88,1.88,0,0,1-.76-.24,1.93,1.93,0,0,1-.69-.41c0-.05.36.06.76.24S470.52,395.27,470.5,395.32Z" style="fill:#263238"></path><path d="M471.17,394.51a2.27,2.27,0,0,1-1.7-.63,4.28,4.28,0,0,1,.85.32C470.78,394.37,471.18,394.45,471.17,394.51Z" style="fill:#263238"></path><path d="M467.88,395a2.77,2.77,0,0,1-.88-.41,6.07,6.07,0,0,1-.86-.65,2.83,2.83,0,0,1-.43-.47.49.49,0,0,1-.1-.38.4.4,0,0,1,.3-.29,1.8,1.8,0,0,1,1.8,1.4,1.83,1.83,0,0,1,0,.73c0,.17-.08.26-.09.25a2.83,2.83,0,0,0-.06-.94,1.75,1.75,0,0,0-.53-.85,1.56,1.56,0,0,0-1.09-.41c-.19,0-.22.23-.1.4a2.75,2.75,0,0,0,.4.44,6.2,6.2,0,0,0,.81.66C467.56,394.77,467.9,394.92,467.88,395Z" style="fill:#263238"></path><path d="M467.63,394.89a1,1,0,0,1,.18-.66,1.67,1.67,0,0,1,.55-.54,1,1,0,0,1,.95-.12.4.4,0,0,1,.08.54,1.15,1.15,0,0,1-.33.33,3,3,0,0,1-.67.34,1.4,1.4,0,0,1-.68.13s.26-.08.63-.25a3.16,3.16,0,0,0,.62-.36c.21-.13.45-.43.24-.57s-.54,0-.76.1a1.6,1.6,0,0,0-.52.47A5.64,5.64,0,0,0,467.63,394.89Z" style="fill:#263238"></path><path d="M483.05,400.84s-.38-.22-1-.43a4.88,4.88,0,0,0-2.65-.11,5,5,0,0,0-2.3,1.33c-.49.5-.69.89-.72.87a1,1,0,0,1,.13-.28,3.77,3.77,0,0,1,.49-.67,4.59,4.59,0,0,1,5.09-1.26,3.58,3.58,0,0,1,.76.37C483,400.76,483.06,400.83,483.05,400.84Z" style="fill:#263238"></path><path d="M475.16,400.42a8.32,8.32,0,0,1-2.12-.73,8.69,8.69,0,0,1-2-1.09c0-.05.91.42,2,.92S475.18,400.37,475.16,400.42Z" style="fill:#263238"></path><path d="M477.88,401.66s-.17.16-.35.33-.33.32-.37.3,0-.25.24-.44S477.86,401.62,477.88,401.66Z" style="fill:#263238"></path><path d="M479.48,400.86c0,.05-.13.15-.34.23s-.4.11-.42.06.14-.15.35-.23S479.46,400.81,479.48,400.86Z" style="fill:#263238"></path><path d="M481.21,401s-.21,0-.45-.06-.43,0-.45,0,.18-.19.47-.16S481.25,400.92,481.21,401Z" style="fill:#263238"></path><path d="M482.38,401.16s-.11.08-.25.07-.24-.05-.24-.1.12-.09.25-.08S482.39,401.1,482.38,401.16Z" style="fill:#263238"></path><polygon points="473.48 383.98 473.15 384.8 487.46 391.84 487.94 390.89 473.48 383.98" style="fill:#455a64"></polygon><path d="M580.06,316.72s-66.78-18.83-73.26-16.21-40.92,80.09-40.92,80.09l22.92,10.87,31.55-66.14S565,350,573.81,342.65C584.46,333.76,580.21,313.7,580.06,316.72Z" style="fill:#263238"></path><path d="M572.52,317.71c-1,.28-55.09,0-64.14,10.7-3.65,4.3-1.24,91.11-1.24,91.11l23.69-.58.66-75,38.55,0a3.66,3.66,0,0,0,3.64-3.85Z" style="fill:#263238"></path><path d="M572.36,340.1a2,2,0,0,1-.57-.09l-1.59-.37-5.84-1.43c-4.92-1.24-11.72-3-19.12-5.29-3.69-1.18-7.17-2.41-10.3-3.64-7-2.78-.24.31-8.19-3.56-2.28-1.11-4.11-2.07-5.33-2.78l-1.42-.83a1.83,1.83,0,0,1-.47-.32,3.21,3.21,0,0,1,.52.23l1.46.74c1.25.66,3.1,1.57,5.4,2.63s5.07,2.25,8.2,3.46,6.6,2.41,10.29,3.58c7.38,2.32,14.16,4.1,19.06,5.43l5.79,1.59,1.57.46A3.31,3.31,0,0,1,572.36,340.1Z" style="fill:#455a64"></path><path d="M526.46,341.39a7.5,7.5,0,0,1,2.59,1,8,8,0,0,1,2.35,1.49,7.75,7.75,0,0,1-2.59-1A8,8,0,0,1,526.46,341.39Z" style="fill:#455a64"></path><path d="M528.48,339.24a26.46,26.46,0,0,1,1.57,2.51,28.7,28.7,0,0,1,1.72,2.41,5.39,5.39,0,0,1-2.14-2.13A5.47,5.47,0,0,1,528.48,339.24Z" style="fill:#455a64"></path><path d="M519.33,321.59a9.51,9.51,0,0,1-1.59.06,19.34,19.34,0,0,0-4.25.45,7.34,7.34,0,0,0-4.91,3.52c-1.13,2.08-1.21,4.79-1.23,7.55-.08,5.57-.18,10.62-.28,14.27-.06,1.75-.11,3.21-.14,4.32a8.76,8.76,0,0,1-.13,1.58,10.41,10.41,0,0,1-.08-1.58c0-1.12,0-2.57,0-4.33,0-3.65.05-8.69.13-14.27,0-2.75.1-5.55,1.32-7.77a6.66,6.66,0,0,1,2.43-2.53,9.37,9.37,0,0,1,2.82-1.12,17,17,0,0,1,4.35-.29A9.21,9.21,0,0,1,519.33,321.59Z" style="fill:#455a64"></path><path d="M512.29,222.12c.28.4,10.54,29.17,10.54,29.17l-16.63,3.32L497,231.19Z" style="fill:#455a64"></path><polygon points="522.83 251.29 524.29 250.39 513.68 221.26 512.11 222.23 522.83 251.29" style="fill:#263238"></polygon><path d="M505.74,230.33a.71.71,0,1,1-.88-.49A.71.71,0,0,1,505.74,230.33Z" style="fill:#263238"></path><path d="M531.26,256.63l-15.89,15.59-9.78-23.84h0l-.23-1.28,6.25-5-3.73-4.58a4.74,4.74,0,0,0-7-.32L499,239.1a6.76,6.76,0,0,0-2,5.11c.17,3.29.5,6.8.48,6.49h0l5.6,32.93A11.84,11.84,0,0,0,510.5,294c5.64,2.33,11.76-5.07,15-7.88l20.91-19Z" style="fill:#ffbe9d"></path><path d="M595.78,273.48l-20.12,3.13-.48-1.2,6.38,43.15-49.18-14.17,1.43-25.29L517.06,267l12.82-19.65a22.62,22.62,0,0,1,15.12-9c1.78-.24,3.13-.35,4-.46a25.78,25.78,0,0,0,15.5,0h0a22.32,22.32,0,0,1,6.42,1.23c1.52.51,3,.92,4.38,1.32A17.79,17.79,0,0,1,586.81,251Z" style="fill:#FF725E"></path><path d="M535.77,322.3c-.17-2,8.15-3.12,8.84-3.26s.51-1.16-.11-1c-.89.23-10.35,2.5-10.53.54-.1-1.09,1.87-1.1,1.87-1.1s9-1.47,8.88-2.39-5.43-.26-7.21.1-2.63-.34-2.14-1.24c.33-.62,5.74-1.85,7.5-2.16s6.62-1.09,3.92-2.65-4.19-3.79-4.17-4.67a1,1,0,0,1,1.8-.39,11.31,11.31,0,0,0,2.38,2.07,7.44,7.44,0,0,0,2.27,1.09c1,.27,1.77.46,2.47.6,4.72-1.48,17.87-6.15,27.18-14.5,1.68-1.51-2.74-17-2.74-17L593.91,274l2.56,15.26c3.49,20.76-43,31.2-43,31.2v-.05a94.92,94.92,0,0,1-9.3,3.84c-4.45,1.35-4.58.95-4.64.4-.19-1.46,7.73-2.67,5.88-3.4S535.9,323.84,535.77,322.3Z" style="fill:#ffbe9d"></path><path d="M584.71,247.71a2.07,2.07,0,0,1-.43.38,10.26,10.26,0,0,1-1.37.94,16.13,16.13,0,0,1-5.71,2.07,16.43,16.43,0,0,1-8.92-1c-1.59-.62-3.17-1.44-4.87-2.09a14,14,0,0,0-5.47-1c-3.87.07-7.42,1.31-10.69,2.15a23.7,23.7,0,0,1-9,1,11.58,11.58,0,0,1-5.65-2.16,5.89,5.89,0,0,1-1.55-1.61,14.3,14.3,0,0,0,1.67,1.44,11.63,11.63,0,0,0,5.57,2,23.83,23.83,0,0,0,8.79-1.1c3.24-.86,6.82-2.13,10.8-2.21a14.41,14.41,0,0,1,5.66,1c1.74.66,3.31,1.49,4.87,2.12a16.35,16.35,0,0,0,8.69,1.07,16.85,16.85,0,0,0,5.66-1.89C584.06,248.17,584.68,247.67,584.71,247.71Z" style="fill:#fafafa"></path><path d="M592.76,266.57l-.12.16c-.09.09-.22.24-.4.41a9.48,9.48,0,0,1-1.8,1.3,13.66,13.66,0,0,1-7.93,1.42,29.66,29.66,0,0,1-5.5-1.14c-1.93-.55-4-1.27-6.12-1.88a24.36,24.36,0,0,0-6.91-1.06,26.64,26.64,0,0,0-7.37,1.44c-2.47.78-4.87,1.68-7.29,2.23a18.63,18.63,0,0,1-7.13.42,14.82,14.82,0,0,1-5.92-2.58c-1.67-1.15-3.1-2.37-4.45-3.4a17.27,17.27,0,0,0-7.09-3.6,12.18,12.18,0,0,0-2.94-.12l.19-.05c.13,0,.32-.07.57-.09a8.08,8.08,0,0,1,2.21.06A16.82,16.82,0,0,1,532,263.6c1.38,1,2.82,2.21,4.47,3.33a14.45,14.45,0,0,0,5.76,2.46,18.07,18.07,0,0,0,6.93-.44c2.38-.55,4.76-1.44,7.26-2.23a26.83,26.83,0,0,1,7.51-1.45,24.66,24.66,0,0,1,7,1.11c2.18.63,4.2,1.36,6.12,1.93a29.91,29.91,0,0,0,5.41,1.18,13.77,13.77,0,0,0,7.8-1.23A12.86,12.86,0,0,0,592.76,266.57Z" style="fill:#fafafa"></path><path d="M575.93,281.8a9.61,9.61,0,0,0-6.12,1.45,29.53,29.53,0,0,1-3,1.26,14.19,14.19,0,0,1-3.73.65,26.93,26.93,0,0,1-8.52-1.26c-2.93-.85-5.66-1.8-8.22-2.33a20,20,0,0,0-6.88-.4,12.67,12.67,0,0,0-4.41,1.4c-1,.53-1.44.94-1.47.9a1.84,1.84,0,0,1,.32-.32,8.11,8.11,0,0,1,1-.76,12.08,12.08,0,0,1,4.47-1.58,19.39,19.39,0,0,1,7,.29c2.6.52,5.36,1.46,8.27,2.3a27,27,0,0,0,8.35,1.28,14.14,14.14,0,0,0,3.62-.58,31,31,0,0,0,3-1.18,13.23,13.23,0,0,1,4.54-1.34,5.44,5.44,0,0,1,1.29.09A1.59,1.59,0,0,1,575.93,281.8Z" style="fill:#fafafa"></path><path d="M575.37,296.08a14.76,14.76,0,0,0-1.69,0,12.92,12.92,0,0,0-4.28,1.67,16.71,16.71,0,0,1-3,1.25,14,14,0,0,1-3.7.55,27.89,27.89,0,0,1-8.41-1.34c-2.89-.84-5.59-1.77-8.13-2.29a19.68,19.68,0,0,0-6.8-.36A12.63,12.63,0,0,0,535,297c-1,.53-1.42.93-1.45.89a1.74,1.74,0,0,1,.31-.31,7.33,7.33,0,0,1,1-.75,11.77,11.77,0,0,1,4.41-1.59,19.32,19.32,0,0,1,7,.25c2.58.5,5.3,1.42,8.18,2.26a28.44,28.44,0,0,0,8.25,1.36,14,14,0,0,0,3.59-.48,17.06,17.06,0,0,0,3-1.17,12.27,12.27,0,0,1,4.42-1.54,5,5,0,0,1,1.28.08A1.7,1.7,0,0,1,575.37,296.08Z" style="fill:#fafafa"></path><path d="M563.87,272.38s.18-.11.55-.09a2.39,2.39,0,0,1,2.16,2.78,2.52,2.52,0,0,1-2,2,2.44,2.44,0,0,1-2.47-1.34,2.13,2.13,0,0,1,.23-2.28,2.2,2.2,0,0,1,1.3-.83c.36-.07.56,0,.56,0s-.19,0-.5.17a2.17,2.17,0,0,0-1.06.86,1.75,1.75,0,0,0-.11,1.84,2,2,0,0,0,2,1,2.09,2.09,0,0,0,1.62-1.55,1.93,1.93,0,0,0-.53-1.81A3.07,3.07,0,0,0,563.87,272.38Z" style="fill:#fafafa"></path><path d="M542.92,286s.19-.11.55-.09a2.36,2.36,0,0,1,1.42.61,2.25,2.25,0,0,1,.74,2.17,2.53,2.53,0,0,1-2,2,2.48,2.48,0,0,1-2.47-1.34,2.14,2.14,0,0,1,.24-2.29,2.18,2.18,0,0,1,1.29-.83c.37-.07.57,0,.57,0s-.2.06-.51.17a2.27,2.27,0,0,0-1,.86,1.75,1.75,0,0,0-.11,1.84,2,2,0,0,0,2,1,2.05,2.05,0,0,0,1.61-1.55,1.91,1.91,0,0,0-.53-1.8A3,3,0,0,0,542.92,286Z" style="fill:#fafafa"></path><path d="M543.56,258.6s.18-.11.55-.09a2.4,2.4,0,0,1,1.41.61,2.29,2.29,0,0,1,.75,2.18,2.52,2.52,0,0,1-2,2,2.47,2.47,0,0,1-2.47-1.34,2.1,2.1,0,0,1,.24-2.28,2.13,2.13,0,0,1,1.29-.84c.36-.07.56,0,.56,0s-.19.06-.5.17a2.22,2.22,0,0,0-1,.86,1.76,1.76,0,0,0-.12,1.85,2,2,0,0,0,2,1,2.08,2.08,0,0,0,1.62-1.55,1.91,1.91,0,0,0-.53-1.8A3,3,0,0,0,543.56,258.6Z" style="fill:#fafafa"></path><path d="M578.23,257.09s.19-.11.56-.09a2.34,2.34,0,0,1,1.41.61,2.25,2.25,0,0,1,.74,2.17,2.52,2.52,0,0,1-2,2,2.49,2.49,0,0,1-2.47-1.34,2.16,2.16,0,0,1,.24-2.29,2.2,2.2,0,0,1,1.3-.83c.36-.07.56,0,.56,0s-.2.05-.51.17a2.19,2.19,0,0,0-1,.86,1.75,1.75,0,0,0-.11,1.84,2,2,0,0,0,2,1.05,2.09,2.09,0,0,0,1.62-1.55,1.93,1.93,0,0,0-.53-1.8A3,3,0,0,0,578.23,257.09Z" style="fill:#fafafa"></path><path d="M564.66,240.32s.18-.11.55-.09a2.28,2.28,0,0,1,1.41.61,2.25,2.25,0,0,1,.75,2.17,2.51,2.51,0,0,1-2,2,2.45,2.45,0,0,1-2.47-1.34,2.11,2.11,0,0,1,.24-2.28,2.23,2.23,0,0,1,1.29-.84c.37-.06.57,0,.56,0s-.19.05-.5.17a2.14,2.14,0,0,0-1.05.85,1.77,1.77,0,0,0-.12,1.85,2,2,0,0,0,2,1.05,2.06,2.06,0,0,0,1.62-1.55,1.93,1.93,0,0,0-.53-1.81A3,3,0,0,0,564.66,240.32Z" style="fill:#fafafa"></path><path d="M533.55,280.82a17.73,17.73,0,0,1-.16-3.16c0-2,0-4.64.11-7.61s.18-5.51.25-7.61a19.43,19.43,0,0,1,.22-3.15,17.28,17.28,0,0,1,.15,3.16c0,1.95,0,4.64-.1,7.61s-.19,5.5-.26,7.61A22,22,0,0,1,533.55,280.82Z" style="fill:#263238"></path><path d="M595.78,273.48a1.89,1.89,0,0,1-.47.11l-1.35.24-5.07.8-7.67,1.15c-1.46.21-3,.46-4.62.67l-5.05.6-.25,0,0-.26c-.26-2.24-.46-4.6-.8-7-.55-4.33-1.07-8.45-1.55-12.21a26.64,26.64,0,0,1,.11-10c.74-2.77,1.78-4.95,3-6.06a4.41,4.41,0,0,1,1.56-1,2.21,2.21,0,0,1,.63-.16,5.5,5.5,0,0,0-2,1.31,13.3,13.3,0,0,0-2.78,6,26.73,26.73,0,0,0,0,9.91c.49,3.75,1,7.86,1.59,12.18.33,2.42.53,4.81.79,7.06l-.28-.23,5-.57,4.62-.62,7.69-1,5.08-.65,1.37-.16A2.19,2.19,0,0,1,595.78,273.48Z" style="fill:#263238"></path><path d="M568.72,252.32s-2.25,27.16,0,27.7,4.28.8,4.28.8,4.32,13.4,4.28,13-1.62-17.23-1.62-17.23l-4.14.19Z" style="opacity:0.30000000000000004"></path><polygon points="533.55 261.84 529.6 276.06 533.81 279.1 533.55 261.84" style="opacity:0.30000000000000004"></polygon></g><g id="Cloud"><path d="M690.59,191.94c7.26-17,2.85-34.67-9.08-48.75a51.13,51.13,0,0,0-50-16.22,55.92,55.92,0,0,0-110.91,7.21,41.86,41.86,0,0,0-32,56.8Z" style="fill:#FF725E"></path><path d="M606.35,148.57c-.37,0-.17-3.38-2.22-8.18a22.86,22.86,0,0,0-25.32-13.65,23.44,23.44,0,0,0-8.36,3.35c-4.35,2.87-6.14,5.77-6.41,5.55-.09-.06.23-.84,1.12-2.08A20.82,20.82,0,0,1,569.7,129a22.9,22.9,0,0,1,8.77-3.94,23.43,23.43,0,0,1,21.83,6.68,23.31,23.31,0,0,1,5.06,8.16,21.1,21.1,0,0,1,1.24,6.33C606.57,147.75,606.48,148.58,606.35,148.57Z" style="fill:#fff"></path><path d="M595.31,140.37c.32-.41,5.43,3,11.44,7.52l.33.26-1.44.43c2.43-6.93,4.76-12.35,5.24-12.18s-1.07,5.85-3.48,12.8l-.42,1.21-1-.78-.33-.25C599.61,144.81,595,140.78,595.31,140.37Z" style="fill:#fff"></path><path d="M562.77,144.74c.38,0-.22,3.28,1.15,8.16a23.66,23.66,0,0,0,3.88,7.83,22.4,22.4,0,0,0,8.17,6.75,24.07,24.07,0,0,0,2.58,1.1c.89.25,1.75.55,2.63.72a23,23,0,0,0,13.7-1.21,26.61,26.61,0,0,0,5.24-2.88c1.18-.81,1.8-1.33,1.91-1.22s-.37.77-1.45,1.78a20.39,20.39,0,0,1-5.17,3.52,22.42,22.42,0,0,1-9.06,2.25,23.58,23.58,0,0,1-5.54-.45c-.95-.18-1.89-.49-2.86-.75a27.25,27.25,0,0,1-2.8-1.18,23.22,23.22,0,0,1-12.51-15.94,21.87,21.87,0,0,1-.46-3.56c0-1,0-2,.07-2.69C562.47,145.51,562.65,144.72,562.77,144.74Z" style="fill:#fff"></path><path d="M572.73,154.23c-.36.37-5-3.6-10.43-8.86l-.3-.3,1.49-.25c-3.27,6.59-6.24,11.68-6.7,11.45s1.79-5.68,5-12.28l.56-1.15.92.9.31.29C569,149.3,573.09,153.86,572.73,154.23Z" style="fill:#fff"></path></g></svg>