<svg xmlns="http://www.w3.org/2000/svg" viewBox="0 0 500 500"><g id="background-complete"><rect y="382.4" width="500" height="0.25" style="fill:#ebebeb"></rect><rect x="416.78" y="398.49" width="33.12" height="0.25" style="fill:#ebebeb"></rect><rect x="322.53" y="401.21" width="8.69" height="0.25" style="fill:#ebebeb"></rect><rect x="396.59" y="389.21" width="19.19" height="0.25" style="fill:#ebebeb"></rect><rect x="52.46" y="390.89" width="43.19" height="0.25" style="fill:#ebebeb"></rect><rect x="104.56" y="390.89" width="6.33" height="0.25" style="fill:#ebebeb"></rect><rect x="131.47" y="395.11" width="93.68" height="0.25" style="fill:#ebebeb"></rect><path d="M237,337.8H43.91a5.71,5.71,0,0,1-5.7-5.71V60.66A5.71,5.71,0,0,1,43.91,55H237a5.71,5.71,0,0,1,5.71,5.71V332.09A5.71,5.71,0,0,1,237,337.8ZM43.91,55.2a5.46,5.46,0,0,0-5.45,5.46V332.09a5.46,5.46,0,0,0,5.45,5.46H237a5.47,5.47,0,0,0,5.46-5.46V60.66A5.47,5.47,0,0,0,237,55.2Z" style="fill:#ebebeb"></path><path d="M453.31,337.8H260.21a5.72,5.72,0,0,1-5.71-5.71V60.66A5.72,5.72,0,0,1,260.21,55h193.1A5.71,5.71,0,0,1,459,60.66V332.09A5.71,5.71,0,0,1,453.31,337.8ZM260.21,55.2a5.47,5.47,0,0,0-5.46,5.46V332.09a5.47,5.47,0,0,0,5.46,5.46h193.1a5.47,5.47,0,0,0,5.46-5.46V60.66a5.47,5.47,0,0,0-5.46-5.46Z" style="fill:#ebebeb"></path><rect x="82.64" y="101.91" width="94.67" height="213.27" style="fill:#f5f5f5"></rect><rect x="27.34" y="164.78" width="205.27" height="87.53" transform="translate(338.53 78.56) rotate(90)" style="fill:#fafafa"></rect><rect x="128.97" y="104.88" width="2.01" height="208.3" style="fill:#f5f5f5"></rect><rect x="80.46" y="99.13" width="99.04" height="10.04" style="fill:#f5f5f5"></rect><rect x="80.46" y="110.28" width="99.04" height="1.19" style="fill:#f5f5f5"></rect><rect x="80.46" y="112.98" width="99.04" height="1.19" style="fill:#f5f5f5"></rect><rect x="80.46" y="115.68" width="99.04" height="1.19" style="fill:#f5f5f5"></rect><rect x="80.46" y="118.38" width="99.04" height="1.19" style="fill:#f5f5f5"></rect><rect x="80.46" y="121.08" width="99.04" height="1.19" style="fill:#f5f5f5"></rect><rect x="80.46" y="123.78" width="99.04" height="1.19" style="fill:#f5f5f5"></rect><rect x="80.46" y="126.48" width="99.04" height="1.19" style="fill:#f5f5f5"></rect><rect x="80.46" y="129.18" width="99.04" height="1.19" style="fill:#f5f5f5"></rect><rect x="80.46" y="131.88" width="99.04" height="1.19" style="fill:#f5f5f5"></rect><rect x="80.46" y="134.58" width="99.04" height="1.19" style="fill:#f5f5f5"></rect><rect x="80.46" y="137.28" width="99.04" height="1.19" style="fill:#f5f5f5"></rect><rect x="80.46" y="139.98" width="99.04" height="1.19" style="fill:#f5f5f5"></rect><rect x="80.46" y="142.68" width="99.04" height="1.19" style="fill:#f5f5f5"></rect><rect x="80.46" y="145.38" width="99.04" height="1.19" style="fill:#f5f5f5"></rect><rect x="80.46" y="148.08" width="99.04" height="1.19" style="fill:#f5f5f5"></rect><rect x="80.46" y="150.78" width="99.04" height="1.19" style="fill:#f5f5f5"></rect><rect x="80.46" y="153.48" width="99.04" height="1.19" style="fill:#f5f5f5"></rect><rect x="80.46" y="156.18" width="99.04" height="1.19" style="fill:#f5f5f5"></rect><rect x="194.73" y="101.91" width="94.67" height="213.27" style="fill:#f5f5f5"></rect><rect x="139.43" y="164.78" width="205.27" height="87.53" transform="translate(450.61 -33.52) rotate(90)" style="fill:#fafafa"></rect><rect x="241.06" y="104.88" width="2.01" height="208.3" style="fill:#f5f5f5"></rect><rect x="192.55" y="99.13" width="99.04" height="10.04" style="fill:#f5f5f5"></rect><rect x="192.55" y="110.28" width="99.04" height="1.19" style="fill:#f5f5f5"></rect><rect x="192.55" y="112.98" width="99.04" height="1.19" style="fill:#f5f5f5"></rect><rect x="192.55" y="115.68" width="99.04" height="1.19" style="fill:#f5f5f5"></rect><rect x="192.55" y="118.38" width="99.04" height="1.19" style="fill:#f5f5f5"></rect><rect x="192.55" y="121.08" width="99.04" height="1.19" style="fill:#f5f5f5"></rect><rect x="192.55" y="123.78" width="99.04" height="1.19" style="fill:#f5f5f5"></rect><rect x="192.55" y="126.48" width="99.04" height="1.19" style="fill:#f5f5f5"></rect><rect x="192.55" y="129.18" width="99.04" height="1.19" style="fill:#f5f5f5"></rect><rect x="192.55" y="131.88" width="99.04" height="1.19" style="fill:#f5f5f5"></rect><rect x="192.55" y="134.58" width="99.04" height="1.19" style="fill:#f5f5f5"></rect><rect x="192.55" y="137.28" width="99.04" height="1.19" style="fill:#f5f5f5"></rect><rect x="192.55" y="139.98" width="99.04" height="1.19" style="fill:#f5f5f5"></rect><rect x="192.55" y="142.68" width="99.04" height="1.19" style="fill:#f5f5f5"></rect><rect x="192.55" y="145.38" width="99.04" height="1.19" style="fill:#f5f5f5"></rect><rect x="192.55" y="148.08" width="99.04" height="1.19" style="fill:#f5f5f5"></rect><rect x="192.55" y="150.78" width="99.04" height="1.19" style="fill:#f5f5f5"></rect><rect x="192.55" y="153.48" width="99.04" height="1.19" style="fill:#f5f5f5"></rect><rect x="192.55" y="156.18" width="99.04" height="1.19" style="fill:#f5f5f5"></rect><rect x="306.82" y="101.91" width="94.67" height="213.27" style="fill:#f5f5f5"></rect><rect x="251.52" y="164.78" width="205.27" height="87.53" transform="translate(562.7 -145.61) rotate(90)" style="fill:#fafafa"></rect><rect x="353.15" y="104.88" width="2.01" height="208.3" style="fill:#f5f5f5"></rect><rect x="304.63" y="99.13" width="99.04" height="10.04" style="fill:#f5f5f5"></rect><rect x="304.63" y="110.28" width="99.04" height="1.19" style="fill:#f5f5f5"></rect><rect x="304.63" y="112.98" width="99.04" height="1.19" style="fill:#f5f5f5"></rect><rect x="304.63" y="115.68" width="99.04" height="1.19" style="fill:#f5f5f5"></rect><rect x="304.63" y="118.38" width="99.04" height="1.19" style="fill:#f5f5f5"></rect><rect x="304.63" y="121.08" width="99.04" height="1.19" style="fill:#f5f5f5"></rect><rect x="304.63" y="123.78" width="99.04" height="1.19" style="fill:#f5f5f5"></rect><rect x="304.63" y="126.48" width="99.04" height="1.19" style="fill:#f5f5f5"></rect><rect x="304.63" y="129.18" width="99.04" height="1.19" style="fill:#f5f5f5"></rect><rect x="304.63" y="131.88" width="99.04" height="1.19" style="fill:#f5f5f5"></rect><rect x="304.63" y="134.58" width="99.04" height="1.19" style="fill:#f5f5f5"></rect><rect x="304.63" y="137.28" width="99.04" height="1.19" style="fill:#f5f5f5"></rect><rect x="304.63" y="139.98" width="99.04" height="1.19" style="fill:#f5f5f5"></rect><rect x="304.63" y="142.68" width="99.04" height="1.19" style="fill:#f5f5f5"></rect><rect x="304.63" y="145.38" width="99.04" height="1.19" style="fill:#f5f5f5"></rect><rect x="304.63" y="148.08" width="99.04" height="1.19" style="fill:#f5f5f5"></rect><rect x="304.63" y="150.78" width="99.04" height="1.19" style="fill:#f5f5f5"></rect><rect x="304.63" y="153.48" width="99.04" height="1.19" style="fill:#f5f5f5"></rect><rect x="304.63" y="156.18" width="99.04" height="1.19" style="fill:#f5f5f5"></rect><path d="M150.31,277.42h12.47v-.83c0-1.63-1.83-2.93-4-2.84l-4.88.2c-2,.08-3.59,1.33-3.59,2.84Z" style="fill:#f0f0f0"></path><path d="M185,277.84h16.49l2.63-23a1.62,1.62,0,0,0-1.62-1.54H191.45a1.62,1.62,0,0,0-1.61,1.54Z" style="fill:#e6e6e6"></path><path d="M159.82,219.4h4.12l4.63,43.5h-4.12a1.42,1.42,0,0,1-1.37-1.24l-4.36-41A1.09,1.09,0,0,1,159.82,219.4Z" style="fill:#e6e6e6"></path><path d="M166.19,262.9h61.72a1.09,1.09,0,0,0,1.1-1.24l-4.36-41a1.43,1.43,0,0,0-1.37-1.24H161.56a1.09,1.09,0,0,0-1.1,1.24l4.36,41A1.42,1.42,0,0,0,166.19,262.9Z" style="fill:#ebebeb"></path><path d="M167.34,258.88h58.2a1,1,0,0,0,1-1.08L222.7,222a1.24,1.24,0,0,0-1.19-1.08h-58.2a1,1,0,0,0-1,1.08l3.81,35.79A1.23,1.23,0,0,0,167.34,258.88Z" style="fill:#fafafa"></path><rect x="183.49" y="276.05" width="22.08" height="1.79" rx="0.88" transform="translate(389.05 553.9) rotate(180)" style="fill:#e6e6e6"></rect><rect x="105.41" y="277.32" width="50.24" height="7.58" transform="translate(261.07 562.23) rotate(180)" style="fill:#e6e6e6"></rect><path d="M245.42,382h1.25a.3.3,0,0,0,.29-.29l2-96.79h-5.8l2,96.79A.29.29,0,0,0,245.42,382Z" style="fill:#e6e6e6"></path><polygon points="290.13 381.98 293.03 381.98 284.85 284.9 279.06 284.9 290.13 381.98" style="fill:#f0f0f0"></polygon><polygon points="103.45 381.98 103.45 381.98 114.56 284.9 108.76 284.9 100.58 381.98 103.45 381.98" style="fill:#e6e6e6"></polygon><rect x="141.32" y="277.32" width="146.88" height="7.58" transform="translate(429.53 562.23) rotate(180)" style="fill:#f5f5f5"></rect><polygon points="145.91 381.98 149.24 381.98 149.24 381.98 150.47 284.9 144.68 284.9 145.91 381.98" style="fill:#f0f0f0"></polygon><path d="M211.83,276h1.54a.29.29,0,0,0,.29-.29V274a.29.29,0,0,0-.29-.29h-1.11a.29.29,0,0,0-.28.22l-.44,1.62A.3.3,0,0,0,211.83,276Z" style="fill:#f5f5f5"></path><path d="M209.7,276h1.54a.29.29,0,0,0,.29-.29V274a.29.29,0,0,0-.29-.29h-1.1a.3.3,0,0,0-.29.22l-.43,1.62A.29.29,0,0,0,209.7,276Z" style="fill:#f5f5f5"></path><path d="M207.57,276h1.54a.29.29,0,0,0,.3-.29V274a.29.29,0,0,0-.3-.29H208a.31.31,0,0,0-.29.22l-.43,1.62A.29.29,0,0,0,207.57,276Z" style="fill:#f5f5f5"></path><path d="M205.45,276H207a.29.29,0,0,0,.29-.29V274a.29.29,0,0,0-.29-.29h-1.11a.29.29,0,0,0-.28.22l-.44,1.62A.29.29,0,0,0,205.45,276Z" style="fill:#f5f5f5"></path><path d="M203.32,276h1.54a.29.29,0,0,0,.29-.29V274a.29.29,0,0,0-.29-.29h-1.11a.3.3,0,0,0-.28.22l-.43,1.62A.29.29,0,0,0,203.32,276Z" style="fill:#f5f5f5"></path><path d="M201.19,276h1.54a.29.29,0,0,0,.3-.29V274a.29.29,0,0,0-.3-.29h-1.1a.3.3,0,0,0-.29.22l-.43,1.62A.29.29,0,0,0,201.19,276Z" style="fill:#f5f5f5"></path><path d="M199.07,276h1.54a.29.29,0,0,0,.29-.29V274a.29.29,0,0,0-.29-.29H199.5a.29.29,0,0,0-.28.22l-.44,1.62A.29.29,0,0,0,199.07,276Z" style="fill:#f5f5f5"></path><path d="M196.94,276h1.54a.29.29,0,0,0,.29-.29V274a.29.29,0,0,0-.29-.29h-1.11a.29.29,0,0,0-.28.22l-.43,1.62A.29.29,0,0,0,196.94,276Z" style="fill:#f5f5f5"></path><path d="M194.81,276h1.54a.3.3,0,0,0,.3-.29V274a.3.3,0,0,0-.3-.29h-1.1a.3.3,0,0,0-.29.22l-.43,1.62A.29.29,0,0,0,194.81,276Z" style="fill:#f5f5f5"></path><path d="M192.69,276h1.53a.29.29,0,0,0,.3-.29V274a.29.29,0,0,0-.3-.29h-1.1a.29.29,0,0,0-.28.22l-.44,1.62A.29.29,0,0,0,192.69,276Z" style="fill:#f5f5f5"></path><path d="M190.56,276h1.54a.29.29,0,0,0,.29-.29V274a.29.29,0,0,0-.29-.29H191a.29.29,0,0,0-.28.22l-.44,1.62A.3.3,0,0,0,190.56,276Z" style="fill:#f5f5f5"></path><path d="M188.43,276H190a.29.29,0,0,0,.29-.29V274a.29.29,0,0,0-.29-.29h-1.1a.3.3,0,0,0-.29.22l-.43,1.62A.29.29,0,0,0,188.43,276Z" style="fill:#f5f5f5"></path><path d="M186.31,276h1.53a.29.29,0,0,0,.3-.29V274a.29.29,0,0,0-.3-.29h-1.1a.29.29,0,0,0-.28.22l-.44,1.62A.29.29,0,0,0,186.31,276Z" style="fill:#f5f5f5"></path><path d="M184.18,276h1.54a.29.29,0,0,0,.29-.29V274a.29.29,0,0,0-.29-.29h-1.11a.29.29,0,0,0-.28.22l-.44,1.62A.3.3,0,0,0,184.18,276Z" style="fill:#f5f5f5"></path><path d="M182.05,276h1.54a.29.29,0,0,0,.29-.29V274a.29.29,0,0,0-.29-.29h-1.1a.3.3,0,0,0-.29.22l-.43,1.62A.29.29,0,0,0,182.05,276Z" style="fill:#f5f5f5"></path><rect x="180.5" y="274.85" width="34.41" height="2.56" transform="translate(395.42 552.27) rotate(180)" style="fill:#ebebeb"></rect><path d="M279.36,311.84h62.46a0,0,0,0,1,0,0V315a5,5,0,0,1-5,5H284.36a5,5,0,0,1-5-5v-3.12A0,0,0,0,1,279.36,311.84Z" transform="translate(621.18 631.79) rotate(180)" style="fill:#e0e0e0"></path><path d="M339.79,366.18l-20-2V336.09h-7.93v28.12l-20.09,2a3.9,3.9,0,0,0-3.52,3.88v3H343.3v-3A3.9,3.9,0,0,0,339.79,366.18Z" style="fill:#e0e0e0"></path><path d="M295.54,376.79a5.19,5.19,0,1,1-5.19-5.18A5.19,5.19,0,0,1,295.54,376.79Z" style="fill:#e0e0e0"></path><path d="M336,376.79a5.19,5.19,0,1,0,5.19-5.18A5.19,5.19,0,0,0,336,376.79Z" style="fill:#e0e0e0"></path><path d="M310.48,317.08h10.66a0,0,0,0,1,0,0V338a4.13,4.13,0,0,1-4.13,4.13h-2.4a4.13,4.13,0,0,1-4.13-4.13V317.08A0,0,0,0,1,310.48,317.08Z" style="fill:#e6e6e6"></path><path d="M305.27,312.36a345.4,345.4,0,0,0,10.31-73.31,10.29,10.29,0,0,1,10.29-9.9h18.47a10.29,10.29,0,0,1,10.3,10.25c.07,16.82-1.1,51.21-10.59,79.16l-35.14-1.3A3.9,3.9,0,0,1,305.27,312.36Z" style="fill:#ebebeb"></path><path d="M310.24,316.68a363.09,363.09,0,0,0,11.05-76.43,9.49,9.49,0,0,1,9.49-9.13h17a9.51,9.51,0,0,1,9.51,9.45c.06,15.52-1,50.33-9.77,76.11Z" style="fill:#e6e6e6"></path><path d="M317.54,292.16s-20.23-4.09-39.77-2.11S287,317.57,287,317.57h4s-15.22-16.19-14.37-20.22,39.19,1.28,39.19,1.28Z" style="fill:#e6e6e6"></path><path d="M347.55,316.68H314.4a362.82,362.82,0,0,0,11.06-76.43,9.49,9.49,0,0,1,9.49-9.13h12.86a9.5,9.5,0,0,1,9.51,9.46C357.38,256.09,356.3,290.9,347.55,316.68Z" style="fill:#e0e0e0"></path><rect x="277.13" y="315.9" width="71.08" height="4.06" rx="2" transform="translate(625.35 635.85) rotate(-180)" style="fill:#e0e0e0"></rect><path d="M93.73,362.1a2.38,2.38,0,0,0-1.91-3.42,5.15,5.15,0,0,0-1.62-5.59,1.23,1.23,0,0,0-.71-.31,1.32,1.32,0,0,0-.75.34l-4.47,3.21a2.65,2.65,0,0,0-.89.87c-.91,1.77,2.38,4,1,5.5-.39.42-1,.51-1.5.81-1.07.67-1.19,2.13-1.69,3.28s-2.22,2-2.89,1c.49-1.11-1-2.06-2.19-2.2s-2.45-.2-3.11-1.33c-1.71,1.49-5.52-2.66-5.43-4.34a3.3,3.3,0,0,0-2.66,2.73,19.35,19.35,0,0,0-.14,4.17c0,2.71-.92,5.37-.87,8.08,0,2.11.85,4.45,2.78,5.3a7.21,7.21,0,0,0,3,.4l22-.14a3.22,3.22,0,0,0,1.54-.26c1-.51,1.21-1.82,1.3-2.93q.58-7.17,1.18-14.34Z" style="fill:#e0e0e0"></path><path d="M95,338.86H60.89l.28,3.44.2,2.47.52,6.4.3,3.68.39,4.9.17,2.1,0,.63L63,365l.27,3.38.17,2.1.17,2.13.2,2.47L64,376.9l.16,2.1.08.92H95.53l.07-.92.17-2.09.16-1.89.2-2.46.17-2.13.17-2.1.27-3.39.2-2.46,0-.63.17-2.1.4-4.9.3-3.67.51-6.41.2-2.47.28-3.44Zm2,2.26h0l-.65-.66h.71Zm-.16,2.09-.07.83-3,3.06-3.51-3.5,3.14-3.14h.74ZM96,354.13l-2.23,2.24-3.51-3.51,3.51-3.49,2.42,2.42Zm-32.47-2.34h0L66,349.37l3.51,3.49L66,356.37l-2.22-2.24Zm29.11-3.56-3.51,3.5-3.5-3.5,3.5-3.5Zm-5.51-7.77h4l-2,2Zm.86,12.4-3.49,3.51L81,352.86l3.51-3.49ZM76.37,357.5l3.5-3.5,3.5,3.5-3.5,3.5Zm2.37,4.63-3.51,3.51-3.49-3.5,3.5-3.5Zm5.77-3.49,3.49,3.5-3.49,3.5L81,362.13Zm-4.64-6.91-3.5-3.5,3.5-3.5,3.5,3.5Zm-1.13,1.13-3.5,3.51-3.5-3.51,3.5-3.49Zm-8.14-1.13-3.5-3.5,3.5-3.5,3.5,3.5Zm0,2.27,3.5,3.5L70.6,361l-3.5-3.5Zm3.5,12.77-3.5,3.5-3.5-3.5,3.5-3.5Zm1.13,1.13,3.51,3.51-3.5,3.5-3.5-3.5Zm1.14-1.13,3.5-3.5,3.5,3.5-3.5,3.5Zm8.14,1.13L88,371.41l-3.49,3.5L81,371.41Zm4.63,4.64,3.51,3.5-2.27,2.27H87.91L85.64,376Zm-3.5-5.77,3.5-3.5,3.51,3.5-3.51,3.5Zm0-9.27,3.5-3.5,3.51,3.5L89.14,361ZM88,343.6l-3.49,3.5L81,343.6l3.14-3.14h.74Zm-8.13-1.14-2-2h4Zm-1.13,1.14-3.5,3.5-3.5-3.5,3.13-3.14h.74Zm-6.14-3.14-2,2-2-2Zm-6.27,0,3.14,3.14L66,347.1l-3-3.06-.07-.83,2.75-2.75Zm-3,0-.65.65h0l0-.65Zm-.21,6.05,1.71,1.72-1.46,1.46Zm.95,11.75-.13-1.66h0l.89.9-.76.76Zm.17,2.11L66,358.64l3.51,3.5L66,365.64l-1.41-1.42Zm.52,6.48v-.16l.08.08-.07.08Zm.61,7.46-.44-5.37,1-1,3.51,3.51L66,374.9l-.59-.59Zm.32,4-.06-.8.33-.34,1.14,1.14ZM67.1,376l3.5-3.5,3.5,3.5-2.27,2.27H69.36Zm7,2.27,1.14-1.14,1.14,1.14Zm4.54,0L76.37,376l3.5-3.5,3.5,3.5-2.26,2.27Zm4.73,0,1.14-1.14,1.14,1.14Zm10.68,0H92.64l1.14-1.14.33.34Zm.33-4-.6.59-3.51-3.49,3.51-3.51,1,1Zm.62-7.62,0,.16-.07-.08.09-.08Zm.2-2.47-1.42,1.42-3.51-3.5,3.51-3.5,1.73,1.73Zm.48-6-.77-.77.9-.9Zm.95-11.76-.26,3.19-1.46-1.47,1.72-1.72Z" style="fill:#e6e6e6"></path><rect x="58.7" y="337.43" width="42.34" height="4.46" rx="1.64" transform="translate(159.74 679.32) rotate(180)" style="fill:#f0f0f0"></rect><rect x="61.76" y="377.52" width="36.23" height="4.46" rx="1.64" style="fill:#f0f0f0"></rect><path d="M408.06,346l10.64-30.64S404,326.32,404.05,314.2s6.72-2.7,9-7.18-6.54-4.43-3.44-11.22,11.92,3.64,13.48-2.37,4-9.07,10.46-8.53c0,0,3.47,7.91-.79,13.62s10.52,1.14,9,6.89-6.43,10.77-8.6,6.72-4.93,3.71-1.22,5.71-4.85,10.66-6.73,6.12a47.45,47.45,0,0,0-4.83-8.58l-9.8,32.78Z" style="fill:#ebebeb"></path><path d="M397.11,346.3l-12-19.59s11.86,5.33,10-3-5.06-.86-7.32-3.61,3.85-4.05.68-8.28-7.69,4.32-9.68.4-4.17-5.67-8.53-4.33c0,0-1.2,6,2.6,9.31s-7.1,2.38-5.19,6.13,6.07,6.48,7,3.35,4,1.82,1.71,3.77,5,6.64,5.58,3.21a33.84,33.84,0,0,1,2.05-6.66l11.73,21.2Z" style="fill:#e6e6e6"></path><path d="M405.18,346.49l-5.49-31.56s12.64,13,14.47,1.17-6.12-3.71-7.64-8.44,7.08-3.28,5.13-10.39-12.19,1.65-12.75-4.46-2.5-9.49-8.84-10c0,0-4.65,7.16-1.41,13.41s-10.44-.57-9.89,5.28,4.56,11.52,7.32,7.92,4.22,4.4.28,5.76,3,11.16,5.59,7a47.22,47.22,0,0,1,6.07-7.6l4.34,33.52Z" style="fill:#f5f5f5"></path><path d="M412,382H393.14a2.5,2.5,0,0,1-2.49-2.34l-2-32.5a2.49,2.49,0,0,1,2.49-2.64H414a2.49,2.49,0,0,1,2.48,2.64l-2,32.5A2.5,2.5,0,0,1,412,382Z" style="fill:#ebebeb"></path><rect x="386.18" y="343.17" width="32.52" height="4.99" rx="2.48" style="fill:#f5f5f5"></rect></g><g id="background-simple"><path d="M104.56,101.62c27.91-59.44,127.05-51.06,165.31-9.25s50.7,68.6,85.21,53,78.52-11.44,81,38.17S398.21,291.78,334,309.13s-64.16,78.76-149.1,66.37c-46.31-6.76-47.36-56.86-40.82-98.3S72.18,170.57,104.56,101.62Z" style="fill:#407BFF"></path><path d="M104.56,101.62c27.91-59.44,127.05-51.06,165.31-9.25s50.7,68.6,85.21,53,78.52-11.44,81,38.17S398.21,291.78,334,309.13s-64.16,78.76-149.1,66.37c-46.31-6.76-47.36-56.86-40.82-98.3S72.18,170.57,104.56,101.62Z" style="fill:#fff;opacity:0.9"></path></g><g id="Shadow"><ellipse id="path" cx="250" cy="416.24" rx="193.89" ry="11.32" style="fill:#f5f5f5"></ellipse></g><g id="light-bulb"><path d="M173.28,114.24a14.72,14.72,0,1,0-24.42,9.26l.46,1.73,2.42.29,10.64,1.24,2.43.29.84-1.59A14.67,14.67,0,0,0,173.28,114.24Z" style="fill:#407BFF"></path><path d="M173.28,114.24a14.72,14.72,0,1,0-24.42,9.26l.46,1.73,2.42.29,10.64,1.24,2.43.29.84-1.59A14.67,14.67,0,0,0,173.28,114.24Z" style="fill:#fff;opacity:0.7000000000000001"></path><path d="M160.9,126.82s1.53-6.95,5.28-9.82l-3-.35-.71-3.31L159.53,119l-1-5.33-2.22,5-1.55-6.2-1.46,3.06-3-.35c3,3.65,2.87,10.76,2.87,10.76" style="fill:none;stroke:#407BFF;stroke-linecap:round;stroke-linejoin:round;stroke-width:0.5px"></path><path d="M162.22,135.23c-.22,1.9-3.15,3.13-6.54,2.73s-6-2.26-5.73-4.17,3.15-3.12,6.54-2.73S162.44,133.32,162.22,135.23Z" style="fill:#263238"></path><path d="M161.15,136.34l-10.42-1.22a2.57,2.57,0,0,1-2.28-2.71l.41-7.22a.5.5,0,0,1,.55-.46l15.42,1.81a.49.49,0,0,1,.43.57L164,134.23A2.57,2.57,0,0,1,161.15,136.34Z" style="fill:#407BFF"></path><path d="M161.15,136.34l-10.42-1.22a2.57,2.57,0,0,1-2.28-2.71l.41-7.22a.5.5,0,0,1,.55-.46l15.42,1.81a.49.49,0,0,1,.43.57L164,134.23A2.57,2.57,0,0,1,161.15,136.34Z" style="fill:#fff;opacity:0.30000000000000004"></path><path d="M148.69,127.23l16.27,1.9a.65.65,0,0,0,.15-1.29l-16.27-1.9a.65.65,0,0,0-.15,1.29Z" style="fill:#407BFF"></path><path d="M164.57,130.92l-15.92-1.86a.65.65,0,1,0-.15,1.29l15.92,1.86a.64.64,0,0,0,.72-.57A.64.64,0,0,0,164.57,130.92Z" style="fill:#407BFF"></path><path d="M163.91,134l-15.32-1.79a.65.65,0,0,0-.72.57.66.66,0,0,0,.57.73l15.32,1.79a.66.66,0,0,0,.72-.57A.67.67,0,0,0,163.91,134Z" style="fill:#407BFF"></path><g style="opacity:0.5"><path d="M148.69,127.23l16.27,1.9a.65.65,0,0,0,.15-1.29l-16.27-1.9a.65.65,0,0,0-.15,1.29Z" style="fill:#fff"></path><path d="M164.57,130.92l-15.92-1.86a.65.65,0,1,0-.15,1.29l15.92,1.86a.64.64,0,0,0,.72-.57A.64.64,0,0,0,164.57,130.92Z" style="fill:#fff"></path><path d="M163.91,134l-15.32-1.79a.65.65,0,0,0-.72.57.66.66,0,0,0,.57.73l15.32,1.79a.66.66,0,0,0,.72-.57A.67.67,0,0,0,163.91,134Z" style="fill:#fff"></path></g><polygon points="159.06 91.08 159.53 75.2 162.79 74.95 159.06 91.08" style="fill:#407BFF"></polygon><polygon points="171.07 97.26 182.71 81.36 184.06 82.88 171.07 97.26" style="fill:#407BFF"></polygon><polygon points="177.38 108.19 191.31 106.09 191.8 107.55 177.38 108.19" style="fill:#407BFF"></polygon><polygon points="145.77 95.05 134.69 82.59 133.19 84.42 145.77 95.05" style="fill:#407BFF"></polygon><polygon points="139.29 107.78 124.13 104.12 124.63 106.14 139.29 107.78" style="fill:#407BFF"></polygon></g><g id="character-3"><g id="group"><path d="M338.2,186.49l-12.63,11.35c-2,1.77-15.53-12.39-15.53-12.39l-3.72,3.22S319,204.4,323.7,204.74s17.76-10,17.76-10Z" style="fill:#eec1bb"></path><path d="M330.16,192.65l4.81,8.17,5-3,8.36-5.12V174.26S335.19,182.87,330.16,192.65Z" style="fill:#407BFF"></path><path d="M340,197.77l8.36-5.12v-.12c-.58-2.22-1.07-4-1.07-4S338.55,192.68,340,197.77Z" style="opacity:0.2;isolation:isolate"></path><path d="M400.08,196.8s7.09,8.48,6.17,12.64-7.15,6.5-7.15,6.5L392,215.3s6-4.31,6-5.86-4.45-5.75-4.45-5.75Z" style="fill:#eec1bb"></path><path d="M342.24,238.64l39.4,2.76a371.62,371.62,0,0,1,1.53-37.65q.33-3.62.66-6.84c1.23-11.61,2.49-19.15,2.49-19.15l-.12,0-37.89-3.48C340.41,201.27,342.24,238.64,342.24,238.64Z" style="fill:#407BFF"></path><polygon points="370.82 400.33 364.18 404.15 356.21 389.7 362.85 385.88 370.82 400.33" style="fill:#eec1bb"></polygon><path d="M363.37,403.3l7.38-4.7a.62.62,0,0,1,.8.07L376,403.3a1.1,1.1,0,0,1-.12,1.56l-.19.13c-2.57,1.58-4,2.29-7.18,4.33-2,1.25-10.34,5.75-13.43,6s-3.44-2.71-2.18-3.18c6.35-2.37,8.82-5.39,9.63-7.77A2.05,2.05,0,0,1,363.37,403.3Z" style="fill:#263238"></path><polygon points="362.85 385.88 356.21 389.7 360.32 397.15 366.97 393.33 362.85 385.88" style="opacity:0.2;isolation:isolate"></polygon><path d="M342.25,238.65s-19.69,64.23-18.49,85.65c1.3,23.49,32.88,72.9,32.88,72.9l11.9-7.52S346.24,341,345.4,323c1.23-26.08,25.37-82.29,25.37-82.29Z" style="fill:#263238"></path><path d="M361.56,256.12c-6.57,4-9.18,21.18-7.79,29.89,3.56-11,7.62-21.9,10.87-30.24A3.1,3.1,0,0,0,361.56,256.12Z" style="opacity:0.2;isolation:isolate"></path><polygon points="355.32 398.35 369.35 389.46 367.05 385.5 352.34 394.48 355.32 398.35" style="fill:#407BFF"></polygon><path d="M361.85,405.73a2.42,2.42,0,0,1-1.44.48.93.93,0,0,1-.76-.56.55.55,0,0,1,0-.58c.52-.81,3.32-.94,3.64-.94a.14.14,0,0,1,.15.1.17.17,0,0,1,0,.19A10.15,10.15,0,0,1,361.85,405.73Zm-1.71-.66a.59.59,0,0,0-.18.17.2.2,0,0,0,0,.23.6.6,0,0,0,.51.39,3.89,3.89,0,0,0,2.37-1.35A7.58,7.58,0,0,0,360.14,405.07Z" style="fill:#407BFF"></path><path d="M363.39,404.46h-.09c-.87.09-3-.44-3.22-1.21a.6.6,0,0,1,.27-.69,1,1,0,0,1,.76-.23c1.1.1,2.29,1.78,2.33,1.88a.15.15,0,0,1,0,.18A.18.18,0,0,1,363.39,404.46Zm-2.77-1.65-.06.05c-.19.15-.15.24-.14.29.15.45,1.58.94,2.52,1-.38-.47-1.19-1.37-1.88-1.43a.67.67,0,0,0-.44.1Z" style="fill:#407BFF"></path><polygon points="385.3 409.02 377.91 409.02 377.3 391.91 384.7 391.91 385.3 409.02" style="fill:#eec1bb"></polygon><path d="M376.89,408.16h9a.67.67,0,0,1,.63.51l1.46,6.58a1.09,1.09,0,0,1-.84,1.29,1,1,0,0,1-.24,0c-2.91,0-5-.22-8.67-.22-2.24,0-9,.23-12.12.23s-3.5-3.06-2.23-3.34c5.69-1.24,10-3,11.8-4.6A1.83,1.83,0,0,1,376.89,408.16Z" style="fill:#263238"></path><polygon points="384.7 391.92 377.3 391.92 377.62 400.74 385.01 400.74 384.7 391.92" style="opacity:0.2;isolation:isolate"></polygon><path d="M375.36,177.1c-1.6,1.45-9.89,2.39-9.89,2.39l-3.19,4.81-1.51-6.85s-2.75-.65-2.17-1.51a6.84,6.84,0,0,0,4.68-2.48c1.4-1.91,1.3-4.58.85-7.18,0,0,0-.07,0-.1h0l6.45-4.76,4.44-3.3C373.58,163.44,371.83,173.24,375.36,177.1Z" style="fill:#eec1bb"></path><path d="M373.2,162.7c-1.37,6.25-7,9.88-9.92,10.76,1.4-1.91,1.3-4.58.85-7.18a.37.37,0,0,0,0-.11l6.45-4.76C370.72,162.38,373.4,161.74,373.2,162.7Z" style="opacity:0.2;isolation:isolate"></path><path d="M356.22,239.62s4.18,63.26,7.3,84.68c3.41,23.49,10.71,74.73,10.71,74.73h13.51s-2.76-49-4-72.13c-1.47-26.31-2.06-85.5-2.06-85.5Z" style="fill:#263238"></path><polygon points="372.6 399.32 388.54 399.32 388.54 394.56 372 394.25 372.6 399.32" style="fill:#407BFF"></polygon><path d="M365.22,135.81a6.64,6.64,0,0,0-7.07,2.62c-3.11,3.94-.83,6.56-.83,6.56a6.92,6.92,0,0,1,1.43-3.06s-1.82,4,2.12,8.73,15.54,10.15,15.54,10.15,7.06-2.77,9.1-9.08,2-10.8-5.39-14.89S365.42,131.57,365.22,135.81Z" style="fill:#263238"></path><path d="M378.1,151c-.83,6.43-1.09,10.53-3.88,13.79A10.94,10.94,0,0,1,373,166c-5.94,5.26-14.71,1.28-16-6.13a23.65,23.65,0,0,1-.3-4.07c0-6.31,2.31-13.82,8.29-15.78a10,10,0,0,1,13.08,11Z" style="fill:#eec1bb"></path><path d="M366.88,152.26c0,.59-.38,1.05-.78,1s-.67-.54-.63-1.13.4-1.05.78-1S366.92,151.65,366.88,152.26Z" style="fill:#263238"></path><path d="M360.16,151.79c0,.59-.39,1.05-.78,1s-.66-.54-.63-1.13.4-1.05.78-1S360.2,151.22,360.16,151.79Z" style="fill:#263238"></path><path d="M362.28,152.23a21.09,21.09,0,0,1-3.2,4.88,3.47,3.47,0,0,0,2.82.74Z" style="fill:#d4827d"></path><path d="M369.32,149.94a.39.39,0,0,1-.36-.09,2.81,2.81,0,0,0-2.38-.84.34.34,0,0,1-.41-.27.35.35,0,0,1,.26-.41h0a3.46,3.46,0,0,1,3,1,.35.35,0,0,1,0,.49h0Z" style="fill:#263238"></path><path d="M363.53,161h0a5.36,5.36,0,0,0,4.08-2.81.18.18,0,0,0-.09-.24.17.17,0,0,0-.24.08h0a5.15,5.15,0,0,1-3.8,2.59.17.17,0,0,0-.16.19v0a.18.18,0,0,0,.2.16Z" style="fill:#263238"></path><path d="M357.57,148.39a.35.35,0,0,1-.19-.1.34.34,0,0,1,.09-.48h0a3.47,3.47,0,0,1,3.17-.42.36.36,0,0,1,.18.46h0a.36.36,0,0,1-.46.18h0a2.81,2.81,0,0,0-2.5.37A.39.39,0,0,1,357.57,148.39Z" style="fill:#263238"></path><path d="M360.77,142.6c1.7-.56,3.41,1,3.41,1a39.71,39.71,0,0,1,6.84,0c2.23.38,2.88,2.61,3.07,3.16s-.88,1.64-.88,1.64.24,6.73.33,8.59l2.75,5A30.35,30.35,0,0,0,381.06,146c.09-9.57-18.78-9.11-18.78-9.11Z" style="fill:#263238"></path><path d="M380.83,159.26a7,7,0,0,1-4.54,2.77c-2.42.35-3.32-1.88-2.4-4,.84-1.87,3.1-4.39,5.4-3.75S382.15,157.42,380.83,159.26Z" style="fill:#eec1bb"></path><path d="M374.45,409.46a2.15,2.15,0,0,1-1.42-.38,1,1,0,0,1-.37-.93.52.52,0,0,1,.3-.49c.82-.43,3.2,1,3.47,1.21a.16.16,0,0,1,.08.17.18.18,0,0,1-.13.15A9,9,0,0,1,374.45,409.46Zm-1.1-1.53a.37.37,0,0,0-.23.05c-.05,0-.1.06-.11.2a.74.74,0,0,0,.23.63,3.52,3.52,0,0,0,2.63.13A7.18,7.18,0,0,0,373.35,407.93Z" style="fill:#407BFF"></path><path d="M376.33,409.2h-.08c-.76-.42-2.24-2-2.09-2.82a.58.58,0,0,1,.57-.46.94.94,0,0,1,.74.22c.85.7,1,2.82,1,2.93a.21.21,0,0,1-.08.16A.17.17,0,0,1,376.33,409.2Zm-1.48-3h-.09c-.22,0-.24.13-.25.18-.09.48.85,1.71,1.61,2.28a4.14,4.14,0,0,0-.88-2.31A.58.58,0,0,0,374.85,406.2Z" style="fill:#407BFF"></path><path d="M307.53,189.74s-7.53-.65-9.22-1.27-1.27-6-1.15-6.89,10.54,1,12.17,1.82,2.53,4.79,2.53,4.79Z" style="fill:#eec1bb"></path><rect x="337.15" y="210.24" width="87.82" height="59.96" transform="translate(19.61 -28.6) rotate(4.41)" style="fill:#407BFF"></rect><rect x="337.15" y="210.24" width="87.82" height="59.96" transform="translate(19.61 -28.6) rotate(4.41)" style="fill:#fff;opacity:0.7000000000000001;isolation:isolate"></rect><rect x="337.15" y="210.24" width="87.82" height="59.96" transform="translate(19.61 -28.6) rotate(4.41)" style="fill:none;stroke:#000;stroke-miterlimit:10;stroke-width:0.5px"></rect><rect x="338.69" y="206.05" width="1.79" height="1.79" transform="translate(16.93 -25.52) rotate(4.41)"></rect><rect x="334.08" y="265.83" width="1.79" height="1.79" transform="translate(21.52 -24.99) rotate(4.41)"></rect><rect x="421.63" y="272.59" width="1.79" height="1.79" transform="translate(22.3 -31.7) rotate(4.41)"></rect><rect x="426.25" y="212.81" width="1.79" height="1.79" transform="translate(17.7 -32.21) rotate(4.41)"></rect><rect x="337.07" y="260.13" width="84.25" height="8.34" transform="translate(21.46 -28.39) rotate(4.41)" style="fill:#407BFF"></rect><path d="M413.05,267.61l-67.81-5.23a.76.76,0,0,1-.7-.81h0a.76.76,0,0,1,.82-.7l67.8,5.23a.76.76,0,0,1,.7.81h0A.76.76,0,0,1,413.05,267.61Z" style="opacity:0.2;isolation:isolate"></path><polygon points="372.05 241.48 373.09 228.04 390.28 236.13 372.05 241.48" style="fill:#407BFF"></polygon><path d="M355.5,262.47a1.6,1.6,0,1,1-1.47-1.72A1.61,1.61,0,0,1,355.5,262.47Z" style="fill:#407BFF"></path><path d="M355.5,262.47a1.6,1.6,0,1,1-1.47-1.72A1.61,1.61,0,0,1,355.5,262.47Z" style="fill:#fff;opacity:0.4;isolation:isolate"></path><path d="M374.55,173.46l-9.08,4.31L362.28,184v-7s-1.29-1.4,0-4.14L356.67,175l-2.53,6.44,6.54-2.73,1.6,6.72,3.19-5.32,4.09,4.59,8.65-7.72Z" style="fill:#407BFF"></path><path d="M374.55,173.46l-9.08,4.31L362.28,184v-7s-1.29-1.4,0-4.14L356.67,175l-2.53,6.44,6.54-2.73,1.6,6.72,3.19-5.32,4.09,4.59,8.65-7.72Z" style="opacity:0.2;isolation:isolate"></path><path d="M381.53,196.57a23.32,23.32,0,0,0,1.64,7.18q.33-3.62.66-6.84Z" style="opacity:0.2;isolation:isolate"></path><path d="M386.32,177.77C394,181.12,404,199.48,404,199.48l-8.86,8.07-13.65-11Z" style="fill:#407BFF"></path><path d="M388.58,211.36s1-4.9,1.95-5,8.2,1.18,8.65,2.52.83,4.63-1,4.82S388,213.7,388.58,211.36Z" style="fill:#eec1bb"></path></g></g><g id="character-2"><path d="M238.11,187.92c1.54-1.71,5.34-4.73,1-8.23s-2.65-10.18,2-10.05.3-2.89.49-8.23,7-6,10.91-3.29,7-4.28,12-3.06,3.22,5.6,4.35,10.2,8.47.82,10.74,6-1.59,4.88-1.23,10.5,4.95,6.64,4.51,10.95-9.65,4.76-9,11.09-3.21,11.36-8.38,8.74-4.15,5.56-11,3.76-7.88-6.73-8-11.59-4.83-1.18-7.95-3.25S233.18,193.42,238.11,187.92Z" style="fill:#2e353a"></path><polygon points="234.22 241.68 236.68 198.87 274 200.1 267.1 244.53 234.22 241.68" style="fill:#407BFF"></polygon><polygon points="234.22 241.68 236.68 198.87 274 200.1 267.1 244.53 234.22 241.68" style="fill:#fff;opacity:0.7000000000000001;isolation:isolate"></polygon><path d="M237.76,251.13s-10.18,54.27-12.9,76.55c-3.55,29.07-18.06,71.6-18.06,71.6l5.8,1.5s20.46-36.14,24.45-68.65C253.31,298.89,254.62,258,254.62,258Z" style="fill:#9f5b53"></path><path d="M196,412.44a8.35,8.35,0,0,1,3-.76h0s3.57-2.1,7.11-10.26l4,0a3.28,3.28,0,0,1,3.06,2.18,2.15,2.15,0,0,1,.11.55,22.88,22.88,0,0,1-.3,2.87,79.29,79.29,0,0,1-2.33,9.36l-.67-.17,1.22-5.94c.41-2-1.71-.07-2.69,2s-2.49,4.08-6.88,3.07C196.45,414.09,194.38,413.36,196,412.44Z" style="fill:#2e353a"></path><path d="M248.34,250.26s1.26,55.21,3.21,77.57c2.54,29.18-2.86,73.79-2.86,73.79l6,.26s12.55-39.59,9.73-72.23c9-35.87,1.85-76.18,1.85-76.18Z" style="fill:#9f5b53"></path><path d="M239.36,414.25a8.55,8.55,0,0,1,2.89-1.07h0s3.32-2.48,5.95-11l4-.45a3.28,3.28,0,0,1,3.28,1.84,2,2,0,0,1,.17.54,23.06,23.06,0,0,1,0,2.88,80.35,80.35,0,0,1-1.3,9.55l-.69-.09.57-6c.19-2.05-1.71.12-2.46,2.25s-2,4.32-6.51,3.8C240,415.85,237.87,415.34,239.36,414.25Z" style="fill:#2e353a"></path><path d="M251.14,204.66c7.64-1,9.94-4.24,9.94-4.24-4.85-4.57-.82-12.5-.82-12.5l-9.2,1.72a28.05,28.05,0,0,1,.36,3.87c.07,5.58-2.46,5.64-2.46,5.64C247.35,202.17,251.14,204.66,251.14,204.66Z" style="fill:#9f5b53"></path><path d="M251.06,189.64a28.05,28.05,0,0,1,.36,3.87c6.21,0,8.84-5.59,8.84-5.59Z" style="opacity:0.2;isolation:isolate"></path><path d="M256.14,163.91c-8-.44-10.8,3.7-11.84,11.91-1.3,10.26.59,17.7,10.71,16.05C268.75,189.63,269.42,164.64,256.14,163.91Z" style="fill:#9f5b53"></path><path d="M249.49,175.66a16.74,16.74,0,0,1-2.51,3.19,2.22,2.22,0,0,0,2.06,1Z" style="fill:#892b29"></path><path d="M254.42,175.27c0,.66.27,1.22.7,1.25s.84-.47.89-1.12-.26-1.22-.7-1.25S254.48,174.62,254.42,175.27Z" style="fill:#2e353a"></path><path d="M255.49,174.19l-1.38-.67S254.72,174.78,255.49,174.19Z" style="fill:#2e353a"></path><path d="M246.28,174.5c-.05.65.26,1.21.7,1.25s.83-.47.88-1.13-.26-1.21-.7-1.25S246.33,173.84,246.28,174.5Z" style="fill:#2e353a"></path><path d="M247.34,173.42l-1.38-.67S246.58,174,247.34,173.42Z" style="fill:#2e353a"></path><path d="M254.86,169.64a4.19,4.19,0,0,1,3.3,1.63" style="fill:none;stroke:#2e353a;stroke-linecap:round;stroke-linejoin:round;stroke-width:0.7246800000000001px"></path><path d="M249,168.9a3.71,3.71,0,0,0-3.14.88" style="fill:none;stroke:#2e353a;stroke-linecap:round;stroke-linejoin:round;stroke-width:0.7246800000000001px"></path><path d="M264.14,177.87s-3.38-6.78-2.53-11.82c0,0-15.49-7.34-17.16,8.7,0,0-.76-14.37,13-13.93s12.61,20.54,5.18,26.15C262.63,187,266.23,182.1,264.14,177.87Z" style="fill:#2e353a"></path><path d="M262.75,179.48a3.5,3.5,0,0,1,3.95-3c2.46.4,3.36,5.55-2.87,6.44C262.94,183.06,262.49,182.17,262.75,179.48Z" style="fill:#9f5b53"></path><path d="M253.86,180.23s-.6,3-4.64,3" style="fill:none;stroke:#2e353a;stroke-linecap:round;stroke-linejoin:round;stroke-width:0.7246800000000001px"></path><path d="M234.28,242.07,214.73,356.91s47.3,5.64,63.34,2.34c0,0,3.93-82.19-12.81-114.62Z" style="fill:#407BFF"></path><path d="M206.8,399.28s-5,10.39-7.83,12.4c0,0,3.83,2.28,7.83-2.8,5.16-6.58,6.42-4.75,6.42-4.75a18.78,18.78,0,0,0-.62-3.35C211.82,398.66,206.8,399.28,206.8,399.28Z" style="fill:#9f5b53"></path><path d="M249.29,399.2s-1.41,3.84-3.28,8.07a18.36,18.36,0,0,1-3.76,5.91s3.26,1.06,5-1,4.78-9.44,8.16-8.59a7.91,7.91,0,0,0-.76-1.72C254.17,401.05,249.29,399.2,249.29,399.2Z" style="fill:#9f5b53"></path><polygon points="234.22 241.68 233.3 247.82 267.78 250.26 267.24 243.62 234.22 241.68"></polygon><path d="M251,242.38c-.37-.4-9.39-1.12-10.13-.39,0,0-.93,6.1-.56,6.67s9.07.64,9.88.7S251.35,242.78,251,242.38Zm-1.62,6.29c-.66,0-7.81-.1-8.11-.57s.46-5.48.46-5.48c.61-.6,8,0,8.32.32S250,248.72,249.36,248.67Z" style="fill:#fff"></path><path d="M249.17,244.66l-1.78-.12a.64.64,0,0,0-.69.55v0a.65.65,0,0,0,.61.76l1.79.1a.66.66,0,0,0,.08-1.31Z" style="fill:#fff"></path><path d="M274,200.1c6.27,4.08,1.91,36.89-24.78,62l-2.95-3.68s17.31-23.93,19.35-33.89C270.21,202.1,274,200.1,274,200.1Z" style="fill:#9f5b53"></path><path d="M236.68,198.87c-3-.81-8.68,17.12-8.68,33.56,0,9.25,2.71,27.07,2.71,27.07l4.72-3s-1.55-25.73-1.21-28.1,3.85-17.89,3.85-17.89a29,29,0,0,0,1.09-6.78A6.51,6.51,0,0,0,236.68,198.87Z" style="fill:#9f5b53"></path><rect x="201.46" y="263.82" width="87.82" height="59.96" transform="translate(12 -9.62) rotate(2.3)" style="fill:#407BFF"></rect><rect x="201.46" y="263.82" width="87.82" height="59.96" transform="translate(12 -9.62) rotate(2.3)" style="fill:#fff;opacity:0.7000000000000001;isolation:isolate"></rect><rect x="201.46" y="263.82" width="87.82" height="59.96" transform="translate(12 -9.62) rotate(2.3)" style="fill:none;stroke:#000;stroke-miterlimit:10;stroke-width:0.5px"></rect><rect x="201.8" y="261.19" width="1.79" height="1.79" transform="translate(10.69 -7.93) rotate(2.3)"></rect><rect x="199.39" y="321.1" width="1.79" height="1.79" transform="translate(13.08 -7.78) rotate(2.3)"></rect><rect x="287.14" y="324.63" width="1.79" height="1.79" transform="translate(13.29 -11.3) rotate(2.3)"></rect><rect x="289.55" y="264.72" width="1.79" height="1.79" transform="translate(10.91 -11.46) rotate(2.3)"></rect><path d="M283.21,274.12l-50.28-2a.75.75,0,0,1-.72-.79h0a.76.76,0,0,1,.78-.73l50.28,2a.75.75,0,0,1,.73.78h0A.76.76,0,0,1,283.21,274.12Z" style="fill:#407BFF"></path><path d="M283,279.64l-50.29-2a.75.75,0,0,1-.72-.78h0a.75.75,0,0,1,.79-.73l50.28,2a.76.76,0,0,1,.72.79h0A.76.76,0,0,1,283,279.64Z" style="fill:#407BFF"></path><path d="M282.76,285.15l-50.28-2a.76.76,0,0,1-.73-.79h0a.75.75,0,0,1,.79-.72l50.28,2a.77.77,0,0,1,.73.79h0A.76.76,0,0,1,282.76,285.15Z" style="fill:#407BFF"></path><path d="M282.53,290.67l-50.28-2a.77.77,0,0,1-.73-.79h0a.76.76,0,0,1,.79-.73l50.28,2a.77.77,0,0,1,.73.79h0A.76.76,0,0,1,282.53,290.67Z" style="fill:#407BFF"></path><path d="M282.3,296.19l-73.47-3a.76.76,0,0,1-.73-.79h0a.76.76,0,0,1,.79-.73l73.47,3a.76.76,0,0,1,.73.79h0A.77.77,0,0,1,282.3,296.19Z" style="fill:#407BFF"></path><path d="M282.07,301.7l-73.47-3a.76.76,0,0,1-.73-.79h0a.76.76,0,0,1,.79-.72l73.48,3a.75.75,0,0,1,.72.78h0A.75.75,0,0,1,282.07,301.7Z" style="fill:#407BFF"></path><path d="M281.85,307.22l-73.48-3a.77.77,0,0,1-.73-.79h0a.77.77,0,0,1,.79-.73l73.48,3a.77.77,0,0,1,.73.79h0A.77.77,0,0,1,281.85,307.22Z" style="fill:#407BFF"></path><path d="M281.62,312.73l-73.48-3a.75.75,0,0,1-.72-.78h0a.75.75,0,0,1,.78-.73l73.48,3a.77.77,0,0,1,.73.79h0A.76.76,0,0,1,281.62,312.73Z" style="fill:#407BFF"></path><path d="M281.39,318.25l-73.47-3a.76.76,0,0,1-.73-.79h0a.77.77,0,0,1,.79-.73l73.47,3a.76.76,0,0,1,.73.79h0A.76.76,0,0,1,281.39,318.25Z" style="fill:#407BFF"></path><path d="M216.91,274.22l-4.16-.17.06-1.52,10.05.42-.07,1.51-4.16-.17-.44,10.64-1.72-.07Z" style="fill:#407BFF"></path><rect x="208.67" y="269.9" width="17.83" height="17.83" transform="translate(11.68 -8.73) rotate(2.36)" style="fill:none;stroke:#407BFF;stroke-miterlimit:10;stroke-width:0.5px"></rect><path d="M247.08,257.32s-3,1.38-3.4,2.18-3.74,9.7-3.47,10.87,5.69,2.62,6.47,2.33,3.87-10.54,3.86-11.83S247.08,257.32,247.08,257.32Z" style="fill:#9f5b53"></path><path d="M232.37,254.46s-2.66,1.9-2.94,2.77-1.9,10.21-1.42,11.31,6.07,1.54,6.79,1.11,1.87-11.07,1.62-12.34S232.37,254.46,232.37,254.46Z" style="fill:#9f5b53"></path><path d="M259.39,197.18s-4.54,5-7.85,6.56c0,0-1.85-4.06-1-6.56,0,0-5.75,3.27-5.18,7.48s5.76.61,5.76.61,4.41,4,8,1.75,2.79-7.32,2.79-7.32Z" style="fill:#407BFF"></path><path d="M251.19,209.76a.77.77,0,0,1-.77.76.77.77,0,0,1,0-1.53A.77.77,0,0,1,251.19,209.76Z" style="fill:#407BFF"></path><path d="M249.71,219a.77.77,0,1,1-.77-.77A.76.76,0,0,1,249.71,219Z" style="fill:#407BFF"></path></g><g id="character-1"><g id="group"><path d="M172.75,179.16c-.65-1.44,0-10.15,0-10.15s10.72-5.62,12.43-7,3.65,4.83,2.57,6.12-4.28,6.13-9.64,6.13l-.72,7.08Z" style="fill:#e4897b"></path><path d="M141.73,178.58c3.34.81,19.44,11.52,22.72,11.16s7.15-15,7.15-15l6.69,2s-.32,26.71-6.44,29.6-31.28-2.62-31.28-2.62Z" style="fill:#263238"></path><path d="M178.28,176.76s-.31,26.72-6.43,29.61c-2.16,1-6.66,1-11.6.54a190.54,190.54,0,0,1-19.69-3.16l.15-3.06,1-22.1c3.33.79,19.43,11.51,22.71,11.14s7.16-15,7.16-15Z" style="fill:#fff;opacity:0.2"></path><path d="M160.25,206.91a190.54,190.54,0,0,1-19.69-3.16l.15-3.06c.67-3,1.29-5.59,1.29-5.59S160.15,199,160.25,206.91Z" style="opacity:0.2;isolation:isolate"></path><path d="M109.47,407.65H100a.68.68,0,0,0-.67.54l-1.54,7a1.16,1.16,0,0,0,.89,1.37,1.06,1.06,0,0,0,.25,0c3.09-.05,5.33-.24,9.2-.24,2.38,0,9.57.25,12.86.25s3.72-3.25,2.38-3.55c-6-1.31-10.59-3.14-12.53-4.87A1.89,1.89,0,0,0,109.47,407.65Z" style="fill:#263238"></path><path d="M149.86,407.4h-9.52a.68.68,0,0,0-.67.54l-1.55,7a1.16,1.16,0,0,0,.9,1.37.69.69,0,0,0,.25,0c3.08-.05,5.32-.24,9.19-.24,2.39,0,9.58.25,12.87.25s3.72-3.25,2.37-3.55c-6-1.31-10.59-3.14-12.52-4.87A1.89,1.89,0,0,0,149.86,407.4Z" style="fill:#263238"></path><path d="M153.49,408.55H139.4s-1.3-44.24,2.6-75.93c0,0-3.87-19-7.25-36.88-1.75-9.23-3.37-18.17-4.27-24.06-3.51,46.25-8.87,59.41-8.87,59.41-3,47.18-9.31,77.4-9.31,77.4H98c-1.33-37.17,5.75-82.54,5.75-82.54-4.54-52.53-4.78-88.87-4.71-94.33h55.24C158.2,253.22,169.32,322,153.49,408.55Z" style="fill:#407BFF"></path><polygon points="154.24 231.62 98.99 231.62 98.99 236.61 154.94 236.09 154.24 231.62"></polygon><rect x="116.75" y="229.38" width="1.97" height="8.85" transform="translate(235.47 467.61) rotate(180)" style="fill:#407BFF"></rect><rect x="144.7" y="229.38" width="1.97" height="8.85" transform="translate(291.37 467.61) rotate(180)" style="fill:#407BFF"></rect><rect x="129.06" y="230.75" width="10.22" height="5.58" transform="translate(268.33 467.08) rotate(180)" style="fill:#fff"></rect><path d="M154.24,231.62H99c-.26-2.38-.45-6.63-.59-11.72-.15-5.63-.25-12.28-.31-18.53-.11-11.45-.1-21.54-.1-21.54s7-6.42,24-6.37a44.36,44.36,0,0,1,20,5.26C154.24,210.13,154.24,231.62,154.24,231.62Z" style="fill:#263238"></path><path d="M109.68,176.12c4.82,4.47,13.78,5.9,13.78,5.9s6.43-3.36,8.35-6.05c-3.25-2.51-3.93-2.74-5-4.63a6.43,6.43,0,0,1-.66-3.67,13.92,13.92,0,0,1,.32-2.09l-16.79-7.33C112.07,163.48,114.82,172,109.68,176.12Z" style="fill:#e4897b"></path><path d="M113.7,163.21c1,6.5,9.13,7.94,13.11,8.13a6.43,6.43,0,0,1-.66-3.67Z" style="opacity:0.2;isolation:isolate"></path><path d="M123.1,139.07s10.27,3.77,4,15.06c-3.36,6-9.88-13.19-9.88-13.19Z" style="fill:#263238"></path><path d="M114.06,166.85a9.53,9.53,0,0,0,11.54.32,10.54,10.54,0,0,0,4.34-6.49,9.88,9.88,0,0,0,.19-1.11c.74-6.94-1.72-17.92-9.44-19.95a10.33,10.33,0,0,0-12.8,12.06C109.3,159.1,109.77,163.52,114.06,166.85Z" style="fill:#e4897b"></path><path d="M119.52,152.31c0,.61.46,1.06.87,1s.65-.59.58-1.19-.47-1.06-.87-1S119.45,151.69,119.52,152.31Z" style="fill:#263238"></path><path d="M128.8,152.43a5.87,5.87,0,0,1,3.7,6.53c-1.11,7.48-9.74,13.29-18.44,7.89C106.27,162,128.8,152.43,128.8,152.43Z" style="fill:#e4897b"></path><path d="M126.41,151.42c0,.61.47,1.06.86,1s.66-.59.58-1.2-.47-1.06-.86-1S126.34,150.84,126.41,151.42Z" style="fill:#263238"></path><path d="M124.26,152a21.8,21.8,0,0,0,3.59,4.84,3.58,3.58,0,0,1-2.86.92Z" style="fill:#de5753"></path><path d="M128.56,148.26a.39.39,0,0,1-.38,0,2.91,2.91,0,0,0-2.6-.16.35.35,0,0,1-.48-.14.36.36,0,0,1,.14-.49h0a3.61,3.61,0,0,1,3.29.15.37.37,0,0,1,.15.49h0A.37.37,0,0,1,128.56,148.26Z" style="fill:#263238"></path><path d="M117.81,149.74a.32.32,0,0,1-.21,0,.37.37,0,0,1,0-.51h0a3.55,3.55,0,0,1,3.05-1.25.36.36,0,0,1,.3.4h0a.37.37,0,0,1-.41.3h0a2.87,2.87,0,0,0-2.4,1A.35.35,0,0,1,117.81,149.74Z" style="fill:#263238"></path><path d="M112.18,141.64l.89,1.29c-2.31,1.24-1.32,4-.59,5.2,1.55,2.57.75,7.12-1.06,9.2,0,0-.28-1.18-1.24-.72s.43,6.63,2.92,9.24c0,0-3.45-2.15-6.29-8.38-2.62-5.75-4.93-11.46-2-15.83Z" style="fill:#263238"></path><path d="M105.42,158.24a7.15,7.15,0,0,0,4.54,3.07c2.47.49,3.51-1.77,2.67-4-.77-2-3-4.68-5.38-4.14S104.15,156.28,105.42,158.24Z" style="fill:#e4897b"></path><path d="M121.25,142.43s7.05-4.65,5.71-8.21-3,.91-3,.91.66-2.92-1.38-3.06-1.17,1.45-2.1,2.66-11.64,1-14.75,3.55.42,9.46.42,9.46S111.57,140,121.25,142.43Z" style="fill:#263238"></path><path d="M125.75,160.6a23.55,23.55,0,0,0-1.74,2.77l-.55-.19c-2.46-.87-3.31-2.09-3.51-3.18a3.42,3.42,0,0,1,.12-1.59,3.19,3.19,0,0,1,.38-.83,12.22,12.22,0,0,0,4.47,2.71C125.43,160.5,125.75,160.6,125.75,160.6Z" style="fill:#263238"></path><path d="M124.92,160.29l-.54.8c-2.31-.82-3.83-1.72-4.31-2.68a3.19,3.19,0,0,1,.38-.83A12.22,12.22,0,0,0,124.92,160.29Z" style="fill:#fff"></path><path d="M123.46,163.18c-2.46-.87-3.31-2.09-3.51-3.18a8.61,8.61,0,0,1,2.54,1.51A3.17,3.17,0,0,1,123.46,163.18Z" style="fill:#de5753"></path><polygon points="127.29 179.02 125.05 184.94 130.9 215.25 128.72 218.52 125.05 215.54 123 185.63 117.48 179.41 123 177.99 127.29 179.02" style="fill:#407BFF"></polygon><polygon points="111.87 171.45 123.1 176.92 127.84 171.89 133.37 175.24 129.66 183.84 123.46 179.11 119.16 184.34 107.78 175.17 111.87 171.45" style="fill:#263238"></polygon><polygon points="111.87 171.45 123.1 176.92 127.84 171.89 133.37 175.24 129.66 183.84 123.46 179.11 119.16 184.34 107.78 175.17 111.87 171.45" style="fill:#fff;opacity:0.2"></polygon><path d="M98.41,219.9c-.15-5.63-.25-12.28-.31-18.53l4.69-4S103.47,213.8,98.41,219.9Z" style="opacity:0.2;isolation:isolate"></path><path d="M134.75,295.74c-1.75-9.23-3.37-18.17-4.27-24.06a20,20,0,0,0,4.87-9.44S137.63,280.16,134.75,295.74Z" style="opacity:0.2;isolation:isolate"></path><path d="M72.07,204.75l-7.52-3.47s-2.43-1.92-4-1.76-11.46,1.59-12,1.76,1,6.74,2.91,6.45,9.2.35,10.17-.78l8.8,6.81Z" style="fill:#e4897b"></path><path d="M98.36,179.58c-3.94.44-13.6,22.81-17.39,25.14S68.12,202,68.12,202l-4,9.81s14.9,11,20.15,10.06c10.17-1.75,16.82-16.18,16.82-16.18s3.91-12.18.43-21.41A14.56,14.56,0,0,0,98.36,179.58Z" style="fill:#263238"></path><path d="M98.36,179.58c-3.94.44-13.6,22.81-17.39,25.14S68.12,202,68.12,202l-4,9.81s14.9,11,20.15,10.06c10.17-1.75,16.82-16.18,16.82-16.18s3.91-12.18.43-21.41A14.56,14.56,0,0,0,98.36,179.58Z" style="fill:#fff;opacity:0.2"></path></g></g></svg>