<svg xmlns="http://www.w3.org/2000/svg" viewBox="0 0 500 500"><g id="background-complete"><path d="M356,183.29a45,45,0,1,1-9.17-62.93A45,45,0,0,1,356,183.29Z" style="fill:#f0f0f0"></path><path d="M347.41,176.88a34.31,34.31,0,1,1-7-48A34.27,34.27,0,0,1,347.41,176.88Z" style="fill:#f5f5f5"></path><path d="M348.05,176c-.17-.11.61-1.41,1.74-3.84a36.61,36.61,0,0,0,3.13-10.79,35.23,35.23,0,0,0,.09-7.72,34.12,34.12,0,0,0-2-8.58,32.78,32.78,0,0,0-4.69-8.49,32.41,32.41,0,0,0-3.41-3.85,37.27,37.27,0,0,0-4.08-3.37,37.85,37.85,0,0,0-4.57-2.68,32.73,32.73,0,0,0-4.78-1.89,31.54,31.54,0,0,0-4.84-1.11,31,31,0,0,0-4.75-.38,34,34,0,0,0-8.75,1,35.48,35.48,0,0,0-7.22,2.73,36.51,36.51,0,0,0-9.06,6.64c-1.9,1.9-2.84,3.08-3,3s.53-1.47,2.25-3.64a31.81,31.81,0,0,1,8.93-7.59,34.35,34.35,0,0,1,16.85-4.56,34.88,34.88,0,0,1,10.34,1.45,34.56,34.56,0,0,1,5.18,2,38.37,38.37,0,0,1,4.93,2.88,38.92,38.92,0,0,1,4.4,3.65,34.82,34.82,0,0,1,3.65,4.17,32.59,32.59,0,0,1,2.85,4.53,33.78,33.78,0,0,1,2.06,4.69,34.86,34.86,0,0,1,1.91,9.23,35.29,35.29,0,0,1-.42,8.17,32.06,32.06,0,0,1-4.06,11C349.25,175,348.17,176.1,348.05,176Z" style="fill:#e0e0e0"></path><path d="M310.79,175.06l-3.51,4.83L303,176.76l3.41-4.71c-4.08-3.36-7.22-7.67-8.24-11.25l6.19-3.55a21.49,21.49,0,0,0,6.16,9.14l5.23-7.21c-3.95-4.64-8.15-10.13-3.67-16.3,3.32-4.58,9.5-6.1,16.89-1.93l3.48-4.79,4.32,3.13L333.31,144a24.2,24.2,0,0,1,6.86,9l-6,3.75a22,22,0,0,0-5-7L323.85,157c4,4.6,8.09,10,3.67,16.11C324.27,177.65,318.16,179.15,310.79,175.06Zm9.52-22.23,4.45-6.13c-2.66-1.15-4.48-.55-5.51.88S318.85,150.85,320.31,152.83Zm-.12,15.8c1.1-1.51.44-3.24-.94-5.24l-4.33,6C317.43,170.45,319.19,170,320.19,168.63Z" style="fill:#e0e0e0"></path><path d="M194.91,249.84A51.94,51.94,0,1,1,136.06,206,51.88,51.88,0,0,1,194.91,249.84Z" style="fill:#f0f0f0"></path><path d="M182.68,251.61a39.58,39.58,0,1,1-44.85-33.38A39.54,39.54,0,0,1,182.68,251.61Z" style="fill:#f5f5f5"></path><path d="M182.49,250.39c-.24,0-.65-1.65-1.72-4.56a42.06,42.06,0,0,0-6.26-11.35,41.22,41.22,0,0,0-6.22-6.37,40,40,0,0,0-8.65-5.34,37.25,37.25,0,0,0-5.16-1.91,36.36,36.36,0,0,0-5.6-1.19,37.37,37.37,0,0,0-5.92-.34,42,42,0,0,0-6.08.58,43.77,43.77,0,0,0-5.91,1.54,39.16,39.16,0,0,0-5.45,2.37,37.1,37.1,0,0,0-4.85,3,36.34,36.34,0,0,0-4.18,3.57,39.68,39.68,0,0,0-6.28,8,40.08,40.08,0,0,0-3.65,8.11,42.34,42.34,0,0,0-2,12.81c0,3.1.2,4.83,0,4.87s-.77-1.63-1.14-4.81a36.74,36.74,0,0,1,1.09-13.47,39.65,39.65,0,0,1,10-17.48,38.18,38.18,0,0,1,4.43-3.91,39.63,39.63,0,0,1,5.18-3.35,40.55,40.55,0,0,1,5.85-2.59,43.29,43.29,0,0,1,6.38-1.67,44.39,44.39,0,0,1,6.56-.63,42.09,42.09,0,0,1,6.39.42,40.24,40.24,0,0,1,6,1.36,38.54,38.54,0,0,1,5.5,2.15,40.74,40.74,0,0,1,9.09,6,39.73,39.73,0,0,1,6.32,7,36.68,36.68,0,0,1,5.67,12.27C182.64,248.59,182.66,250.36,182.49,250.39Z" style="fill:#e0e0e0"></path><path d="M151.33,280l1.09,6.81-6.07,1-1.06-6.62c-6.08.6-12.16-.36-15.92-2.44l2.16-7.95A25,25,0,0,0,144,273.22l-1.63-10.16c-7-.55-14.9-1.6-16.29-10.29-1-6.44,2.76-12.72,12.19-15.35l-1.08-6.75,6.08-1,1.06,6.62a27.94,27.94,0,0,1,12.93,1.73l-1.84,8a25.17,25.17,0,0,0-9.81-1.68l1.66,10.34c7,.5,14.77,1.56,16.14,10.13C164.44,271.13,160.69,277.34,151.33,280ZM141,254.13l-1.39-8.63c-3.1,1.24-4.1,3.21-3.78,5.22S138.14,253.71,141,254.13Zm12.8,13c-.35-2.13-2.29-3-5-3.5l1.34,8.39C153,270.84,154.07,269.05,153.76,267.11Z" style="fill:#e0e0e0"></path><path d="M300.06,69.44a25.66,25.66,0,1,1-20.55-29.86A25.62,25.62,0,0,1,300.06,69.44Z" style="fill:#f0f0f0"></path><path d="M294.06,68.32a19.55,19.55,0,1,1-15.67-22.75A19.54,19.54,0,0,1,294.06,68.32Z" style="fill:#f5f5f5"></path><path d="M294.16,67.72a12.25,12.25,0,0,1-.07-2.41A21,21,0,0,0,293,59a20.31,20.31,0,0,0-1.89-4,19.63,19.63,0,0,0-3.2-3.87,17.16,17.16,0,0,0-2.11-1.72A17.67,17.67,0,0,0,283.33,48a18.54,18.54,0,0,0-2.71-1.11,20.29,20.29,0,0,0-2.94-.69,20.52,20.52,0,0,0-3-.22,18.76,18.76,0,0,0-2.92.24,17.5,17.5,0,0,0-2.75.65,18.25,18.25,0,0,0-2.53,1,19.23,19.23,0,0,0-7.2,6,20.59,20.59,0,0,0-3,5.68,11.92,11.92,0,0,1-.8,2.27,5.59,5.59,0,0,1,.24-2.43,17.85,17.85,0,0,1,2.65-6.13,19.4,19.4,0,0,1,3-3.53,19.85,19.85,0,0,1,4.42-3.05,19,19,0,0,1,2.69-1.13,20.34,20.34,0,0,1,3-.74,19.22,19.22,0,0,1,3.15-.28,19.82,19.82,0,0,1,6.42,1A19.28,19.28,0,0,1,284,46.7a20.21,20.21,0,0,1,4.83,3.47,20,20,0,0,1,3.3,4.24A19.45,19.45,0,0,1,294,58.69a18.1,18.1,0,0,1,.7,6.64A5.75,5.75,0,0,1,294.16,67.72Z" style="fill:#e0e0e0"></path><path d="M274.88,76.62,274.3,80l-3-.51.56-3.27a14.46,14.46,0,0,1-7.06-3.67l2.27-3.38a12.25,12.25,0,0,0,5.46,3.12l.85-5c-3.19-1.38-6.72-3.12-6-7.41.54-3.18,3.31-5.51,8.14-5.24l.57-3.33,3,.51-.56,3.27a13.7,13.7,0,0,1,5.77,2.87l-2.13,3.43A12.33,12.33,0,0,0,277.88,59L277,64.12c3.2,1.35,6.66,3.08,5.94,7.31C282.42,74.55,279.68,76.86,274.88,76.62Zm-.74-13.76.73-4.26c-1.65.09-2.43.85-2.6,1.84S272.9,62.22,274.14,62.86ZM278.07,71c.17-1-.6-1.77-1.81-2.44l-.71,4.13C277.11,72.59,277.9,71.93,278.07,71Z" style="fill:#e0e0e0"></path></g><g id="background-simple"><path d="M63.77,191.2C75,279.38,119,342.17,248.29,366.3c71.89,13.41,203-29.44,194.34-107.69-9.6-86.87-100.12-50.48-174.79-78.49C223.18,163.37,199.35,72.2,126.91,77.59,69.64,81.85,57.77,144,63.77,191.2Z" style="fill:#e0e0e0;opacity:0.4"></path></g><g id="Floor"><path d="M455.25,455.46c0,.15-129.16.26-215.17.26S48,455.61,48,455.46s106-.26,192.08-.26S455.25,455.32,455.25,455.46Z" style="fill:#263238"></path></g><g id="Plant"><path d="M122.78,414.6c17.16-12,21.06-34.25,20.38-54.26-.11-3.34.25-6.86-1.33-9.8s-5.3-4.93-8.29-3.52c-2.48,1.17-3.56,4.05-4.95,6.44a19.59,19.59,0,0,1-7.84,7.48c-2.12,1.1-4.75,1.78-6.85.62-2.88-1.59-3.22-5.57-3.2-8.89q.06-9.29.11-18.58c0-3.32,0-6.71-1-9.86s-3.32-6.09-6.48-7-7.07.94-7.73,4.19a29.91,29.91,0,0,0-.1,4.13c-.09,1.38-.73,2.91-2,3.29s-2.66-.55-3.65-1.52c-3.43-3.36-5.76-7.68-7.93-12s-4.29-8.7-7.4-12.36-7.41-6.56-12.17-6.83-9.83,2.67-11,7.34,1.53,9.44,4.5,13.23a74.32,74.32,0,0,0,15.44,14.72,6,6,0,0,1,2.58,2.77c.72,2.22-1.37,4.42-3.56,5.15-2.48.82-5.16.56-7.75.87s-5.4,1.45-6.38,3.89c-1.36,3.4,1.48,7,4.27,9.29a63.47,63.47,0,0,0,18.8,10.85c2.45.9,5,1.68,7,3.4s3.16,4.7,2,7-4.25,3.09-6.81,2.62-4.85-1.87-7.29-2.79c-4.56-1.72-10.46-1.41-13.38,2.54-1.93,2.59-2.09,6.21-1.12,9.3a24.3,24.3,0,0,0,5,8.21,64,64,0,0,0,27.28,19.17c10.59,3.67,20.4,4.66,30.93.81" style="fill:#FF725E"></path><path d="M56.08,299a1.84,1.84,0,0,0,.32.32l1,.88c.87.77,2.15,1.9,3.76,3.41a123.91,123.91,0,0,1,12.69,13.7c2.48,3.08,5,6.56,7.73,10.35s5.53,7.88,8.36,12.28a151.27,151.27,0,0,1,8.19,14.2c1.28,2.54,2.43,5.19,3.59,7.9l3.53,8.24a303.46,303.46,0,0,1,11.83,32,148.24,148.24,0,0,1,5.54,27.26,107.5,107.5,0,0,1,.31,18.76c-.17,2.22-.34,3.93-.5,5.09-.06.56-.11,1-.15,1.32a2.61,2.61,0,0,0,0,.46,2.71,2.71,0,0,0,.09-.45c0-.32.13-.76.22-1.31.19-1.16.4-2.87.61-5.09a102.87,102.87,0,0,0-.12-18.82,145,145,0,0,0-5.43-27.38A297.39,297.39,0,0,0,105.8,370l-3.53-8.24c-1.17-2.71-2.32-5.39-3.61-7.94A149.54,149.54,0,0,0,90.4,339.6c-2.85-4.41-5.71-8.48-8.41-12.27s-5.31-7.26-7.81-10.33a118.11,118.11,0,0,0-12.87-13.6c-1.64-1.48-2.94-2.59-3.84-3.32l-1-.84Z" style="fill:#263238"></path><path d="M98.48,353.81a6.51,6.51,0,0,0,.33-1.42c.17-.92.38-2.25.61-3.91.47-3.3,1-7.89,1.49-13s1.08-9.63,1.6-12.92c.25-1.65.47-3,.64-3.9a6.34,6.34,0,0,0,.18-1.44,7.19,7.19,0,0,0-.41,1.39c-.24.91-.53,2.23-.83,3.87-.64,3.29-1.26,7.87-1.79,12.94s-1,9.51-1.31,13q-.24,2.34-.42,3.93A6.57,6.57,0,0,0,98.48,353.81Z" style="fill:#263238"></path><path d="M55.77,345.83a9.73,9.73,0,0,0,1.7.2c1.1.1,2.69.23,4.64.46,3.91.42,9.3,1.19,15.2,2.3s11.2,2.37,15,3.38c1.91.49,3.44.93,4.51,1.23a9.57,9.57,0,0,0,1.66.41,8.39,8.39,0,0,0-1.59-.64c-1-.37-2.56-.87-4.46-1.42-3.79-1.12-9.09-2.44-15-3.56a148.85,148.85,0,0,0-15.27-2.14c-2-.17-3.56-.24-4.66-.26A7.93,7.93,0,0,0,55.77,345.83Z" style="fill:#263238"></path><path d="M117.09,401.27a2,2,0,0,0,.29-.52l.73-1.54c.63-1.35,1.49-3.32,2.52-5.76,2.06-4.9,4.69-11.75,7.5-19.34s5.37-14.47,7.32-19.39l2.34-5.84c.25-.63.45-1.16.62-1.59a2,2,0,0,0,.18-.57,2,2,0,0,0-.29.52l-.73,1.55c-.63,1.34-1.49,3.31-2.52,5.76-2.06,4.89-4.69,11.74-7.5,19.34s-5.37,14.46-7.32,19.39l-2.34,5.83-.62,1.59A2.06,2.06,0,0,0,117.09,401.27Z" style="fill:#263238"></path><path d="M60.33,383a2.2,2.2,0,0,0,.56.23l1.65.55,6.08,2c5.13,1.67,12.19,4,20,6.69s14.89,5,20.06,6.52c2.59.78,4.68,1.39,6.14,1.78l1.68.44a2.41,2.41,0,0,0,.6.11,2.42,2.42,0,0,0-.57-.23l-1.64-.55-6.08-2c-5.13-1.67-12.19-4-20-6.69s-14.89-5-20-6.51c-2.59-.78-4.68-1.39-6.14-1.79l-1.68-.44A2.41,2.41,0,0,0,60.33,383Z" style="fill:#263238"></path></g><g id="Device"><path d="M285.84,405.54l-111-.51a24.17,24.17,0,0,1-24.06-24.28L152,102.49a24.19,24.19,0,0,1,24.29-24.07l111,.51a24.18,24.18,0,0,1,24.07,24.28l-1.18,278.26A24.17,24.17,0,0,1,285.84,405.54Z" style="fill:#263238"></path><path d="M287.08,88.54l-21.51-.1a5.34,5.34,0,0,0-5.25,5.43l0,3.91a5.35,5.35,0,0,1-5.25,5.44l-41.94-.2a5.35,5.35,0,0,1-5.21-5.48l0-3.91a5.35,5.35,0,0,0-5.2-5.48l-7.57,0L176.32,88a16.93,16.93,0,0,0-17,16.86l-1.15,271.6a16.94,16.94,0,0,0,16.85,17l110.77.51a16.94,16.94,0,0,0,17-16.86l1.15-271.6A16.93,16.93,0,0,0,287.08,88.54Z" style="fill:#fff"></path><rect x="190.58" y="222.86" width="71.34" height="68.72" style="fill:#FF725E"></rect><polygon points="210.25 203.71 190.57 222.86 261.91 222.86 275.55 203.71 210.25 203.71" style="fill:#FF725E"></polygon><polygon points="210.25 203.71 190.57 222.86 261.91 222.86 275.55 203.71 210.25 203.71" style="opacity:0.1"></polygon><polygon points="261.91 291.57 275.55 272.17 275.55 203.71 261.91 222.86 261.91 291.57" style="fill:#FF725E"></polygon><polygon points="261.91 291.57 275.55 272.17 275.55 203.71 261.91 222.86 261.91 291.57" style="opacity:0.30000000000000004"></polygon><rect x="206.01" y="251.39" width="37.24" height="4.22" style="fill:#FF725E"></rect><rect x="206.01" y="251.39" width="37.24" height="4.22" style="opacity:0.2"></rect><rect x="212.75" y="258.77" width="23.77" height="3.98" style="fill:#FF725E"></rect><rect x="212.75" y="258.77" width="23.77" height="3.98" style="opacity:0.2"></rect><path d="M205.12,201a23.22,23.22,0,0,0-.43-2.58,10.65,10.65,0,0,0-3.91-5.77,10.38,10.38,0,0,0-4.42-1.94,10.55,10.55,0,0,0-5.49.48,9.56,9.56,0,0,0-2.64,1.43,9.66,9.66,0,0,0-2.2,2.22,10.38,10.38,0,0,0,0,12.33,9.86,9.86,0,0,0,2.2,2.22,10.12,10.12,0,0,0,2.64,1.43,10.49,10.49,0,0,0,9.92-1.47,10.69,10.69,0,0,0,3.9-5.76,22.72,22.72,0,0,0,.43-2.59,8.13,8.13,0,0,1-.23,2.64,10.62,10.62,0,0,1-3.87,6,10.81,10.81,0,0,1-10.32,1.63,10.9,10.9,0,0,1-5.1-3.8,10.88,10.88,0,0,1,0-13,11,11,0,0,1,5.1-3.8,11,11,0,0,1,5.74-.44,10.79,10.79,0,0,1,8.45,8.09A8.07,8.07,0,0,1,205.12,201Z" style="fill:#263238"></path><path d="M189.64,199.52c0-1.5.84-2.5,2.08-2.5s2.08,1,2.08,2.5-.86,2.5-2.08,2.5S189.64,201,189.64,199.52Zm3.5,0c0-1.2-.57-1.91-1.42-1.91s-1.42.72-1.42,1.91.55,1.9,1.42,1.9S193.14,200.71,193.14,199.52Zm4.15-2.44h.78l-6.29,9.21H191Zm-2,6.78c0-1.5.86-2.5,2.08-2.5s2.08,1,2.08,2.5-.84,2.5-2.08,2.5S195.28,205.36,195.28,203.86Zm3.5,0c0-1.19-.55-1.91-1.42-1.91s-1.42.71-1.42,1.91.57,1.9,1.42,1.9S198.78,205,198.78,203.86Z" style="fill:#263238"></path><path d="M250.71,314.82c0,2-1.45,3.7-4.65,3.7a7.69,7.69,0,0,1-4.26-1.2l1-2a5.38,5.38,0,0,0,3.18,1c1.29,0,2.09-.54,2.09-1.45s-.57-1.46-2.6-1.46h-2.86l.58-6.28H250v2.07h-4.66l-.17,2.12h.91C249.4,311.35,250.71,312.84,250.71,314.82Z" style="fill:#263238"></path><path d="M251.76,312.74c0-3.69,2.05-5.78,4.79-5.78s4.79,2.09,4.79,5.78-2,5.78-4.79,5.78S251.76,316.43,251.76,312.74Zm7,0c0-2.54-.89-3.59-2.19-3.59s-2.17,1.05-2.17,3.59.9,3.59,2.17,3.59S258.74,315.28,258.74,312.74Z" style="fill:#263238"></path><path d="M268,309.6a2.21,2.21,0,0,1-2.32,2.45,2.45,2.45,0,0,1-1.26-.31l.39-.77a1.48,1.48,0,0,0,.86.22,1.21,1.21,0,0,0,1.28-1.32,1.56,1.56,0,0,1-1.14.41,1.44,1.44,0,0,1-1.56-1.42,1.56,1.56,0,0,1,1.72-1.51C267.26,307.35,268,308.13,268,309.6Zm-1.17-.79a.7.7,0,0,0-.79-.68.69.69,0,1,0,0,1.36A.7.7,0,0,0,266.86,308.81Z" style="fill:#263238"></path><path d="M272.17,309.6a2.21,2.21,0,0,1-2.32,2.45,2.45,2.45,0,0,1-1.26-.31L269,311a1.46,1.46,0,0,0,.85.22,1.2,1.2,0,0,0,1.28-1.32,1.52,1.52,0,0,1-1.13.41,1.45,1.45,0,0,1-1.57-1.42,1.56,1.56,0,0,1,1.73-1.51C271.4,307.35,272.17,308.13,272.17,309.6Zm-1.18-.79a.7.7,0,0,0-.79-.68.68.68,0,1,0,0,1.36A.7.7,0,0,0,271,308.81Z" style="fill:#263238"></path><rect x="264.15" y="313.61" width="7.98" height="1.01" style="fill:#263238"></rect><rect x="185.55" y="310.43" width="41.2" height="1.28" style="fill:#263238"></rect><rect x="185.55" y="314.51" width="25.01" height="1.28" style="fill:#263238"></rect><path d="M274.19,367.28l-82.37-.38c-.85,0-1.54-.94-1.53-2.08l.09-21.55c0-1.14.7-2.06,1.55-2.06l82.37.39c.85,0,1.54.93,1.54,2.07l-.09,21.55C275.74,366.36,275.05,367.28,274.19,367.28Z" style="fill:#FF725E"></path><path d="M229.65,355.21c0,1.1-.78,1.72-2.32,1.71h-2.84l0-6.45h2.67c1.37,0,2.16.62,2.16,1.67a1.49,1.49,0,0,1-1,1.46A1.52,1.52,0,0,1,229.65,355.21Zm-.65-.06c0-.84-.58-1.21-1.67-1.21h-2.18v2.42h2.18C228.41,356.37,229,356,229,355.15ZM225.16,351v2.34h2c1,0,1.56-.39,1.57-1.16s-.57-1.17-1.56-1.18Z" style="fill:#fff"></path><path d="M231.1,354.18v-3.69h.65v3.67c0,1.53.68,2.23,1.88,2.24s1.9-.69,1.9-2.22l0-3.67h.63v3.7c0,1.85-1,2.8-2.54,2.8S231.09,356,231.1,354.18Z" style="fill:#fff"></path><path d="M240.16,354.75V357h-.64v-2.23l-2.45-4.23h.69l2.11,3.63,2.13-3.61h.65Z" style="fill:#fff"></path><rect x="174.92" y="148.85" width="31.14" height="15.9" style="fill:#FF725E"></rect><polygon points="181.64 143.28 174.92 148.85 206.06 148.85 210.65 143.28 181.64 143.28" style="fill:#FF725E"></polygon><polygon points="181.64 143.28 174.92 148.85 206.06 148.85 210.65 143.28 181.64 143.28" style="opacity:0.2"></polygon><polygon points="206.06 164.75 210.65 158.69 210.65 143.28 206.06 148.85 206.06 164.75" style="fill:#FF725E"></polygon><polygon points="206.06 164.75 210.65 158.69 210.65 143.28 206.06 148.85 206.06 164.75" style="opacity:0.1"></polygon><rect x="179.53" y="154.02" width="21.23" height="1.64" style="fill:#FF725E"></rect><rect x="179.53" y="154.02" width="21.23" height="1.64" style="opacity:0.1"></rect><rect x="183.73" y="156.98" width="13.18" height="1.64" style="fill:#FF725E"></rect><rect x="183.73" y="156.98" width="13.18" height="1.64" style="opacity:0.1"></rect><rect x="183.73" y="173.32" width="14.19" height="2.17" style="fill:#263238"></rect><path d="M174.92,148.85a9.19,9.19,0,0,1,1.51-.1l4.11-.09c3.47,0,8.27-.07,13.56-.07l12,.06-.16.07,3.42-4a12,12,0,0,1,1.33-1.43,12,12,0,0,1-1.15,1.58L206.22,149l-.06.07h-.1l-12,.06c-5.29,0-10.09,0-13.56-.08l-4.11-.08A7.34,7.34,0,0,1,174.92,148.85Z" style="fill:#FF725E"></path><g style="opacity:0.2"><path d="M174.92,148.85a9.19,9.19,0,0,1,1.51-.1l4.11-.09c3.47,0,8.27-.07,13.56-.07l12,.06-.16.07,3.42-4a12,12,0,0,1,1.33-1.43,12,12,0,0,1-1.15,1.58L206.22,149l-.06.07h-.1l-12,.06c-5.29,0-10.09,0-13.56-.08l-4.11-.08A7.34,7.34,0,0,1,174.92,148.85Z"></path></g><path d="M206.06,164.75a59.68,59.68,0,0,1-.26-7.95,59.68,59.68,0,0,1,.26-8,58.59,58.59,0,0,1,.27,8A58.59,58.59,0,0,1,206.06,164.75Z" style="fill:#FF725E"></path><g style="opacity:0.2"><path d="M206.06,164.75a59.68,59.68,0,0,1-.26-7.95,59.68,59.68,0,0,1,.26-8,58.59,58.59,0,0,1,.27,8A58.59,58.59,0,0,1,206.06,164.75Z"></path></g><rect x="228.15" y="173.32" width="14.19" height="2.17" style="fill:#263238"></rect><rect x="222.41" y="141.28" width="24.62" height="22.33" transform="translate(80.3 385.87) rotate(-89.52)" style="fill:#FF725E"></rect><polygon points="230.15 135.07 223.56 140.13 245.89 140.13 250.48 135.07 230.15 135.07" style="fill:#FF725E"></polygon><polygon points="245.89 164.75 250.48 158.69 250.48 135.07 245.89 140.13 245.89 164.75" style="fill:#FF725E"></polygon><rect x="228.4" y="150.08" width="11.29" height="1.64" style="fill:#FF725E"></rect><rect x="228.4" y="150.08" width="11.29" height="1.64" style="opacity:0.2"></rect><rect x="230.64" y="153.05" width="7.01" height="1.64" style="fill:#FF725E"></rect><rect x="230.64" y="153.05" width="7.01" height="1.64" style="opacity:0.2"></rect><path d="M223.56,140.13a5.36,5.36,0,0,1,1.15-.1l3.12-.09c2.64-.05,6.28-.08,10.31-.08l7.75,0-.17.07c1.4-1.51,2.57-2.75,3.4-3.61a9.43,9.43,0,0,1,1.36-1.3,10.57,10.57,0,0,1-1.16,1.48c-.78.91-1.9,2.19-3.26,3.73l-.07.08h-.1l-7.75,0c-4,0-7.67,0-10.31-.08l-3.12-.08A4.89,4.89,0,0,1,223.56,140.13Z" style="fill:#FF725E"></path><g style="opacity:0.30000000000000004"><path d="M223.56,140.13a5.36,5.36,0,0,1,1.15-.1l3.12-.09c2.64-.05,6.28-.08,10.31-.08l7.75,0-.17.07c1.4-1.51,2.57-2.75,3.4-3.61a9.43,9.43,0,0,1,1.36-1.3,10.57,10.57,0,0,1-1.16,1.48c-.78.91-1.9,2.19-3.26,3.73l-.07.08h-.1l-7.75,0c-4,0-7.67,0-10.31-.08l-3.12-.08A4.89,4.89,0,0,1,223.56,140.13Z"></path></g><path d="M245.89,164.75c-.15,0-.27-5.51-.27-12.31s.12-12.31.27-12.31.27,5.51.27,12.31S246,164.75,245.89,164.75Z" style="fill:#FF725E"></path><g style="opacity:0.30000000000000004"><path d="M245.89,164.75c-.15,0-.27-5.51-.27-12.31s.12-12.31.27-12.31.27,5.51.27,12.31S246,164.75,245.89,164.75Z"></path></g><rect x="267.69" y="173.32" width="14.19" height="2.17" style="fill:#263238"></rect><path d="M264.65,149.26a20.58,20.58,0,0,1,3.5-.19c2.17,0,5.16-.08,8.47-.08,2.93,0,5.62,0,7.66.06l-.15.07c.91-1,1.65-1.74,2.18-2.27a4.39,4.39,0,0,1,.86-.78,4.37,4.37,0,0,1-.69.93c-.47.58-1.17,1.4-2,2.39l-.06.07h-.1c-2,0-4.73.06-7.66.06-3.31,0-6.3,0-8.47-.08A22.91,22.91,0,0,1,264.65,149.26Z" style="fill:#FF725E"></path><rect x="264.65" y="149.26" width="19.64" height="15.5" style="fill:#FF725E"></rect><rect x="264.65" y="149.26" width="19.64" height="15.5" style="opacity:0.2"></rect><polygon points="268.8 146.07 264.65 149.25 284.29 149.25 287.17 146.07 268.8 146.07" style="fill:#FF725E"></polygon><polygon points="284.29 164.75 287.17 160.94 287.17 146.07 284.29 149.25 284.29 164.75" style="fill:#FF725E"></polygon><polygon points="284.29 164.75 287.17 160.94 287.17 146.07 284.29 149.25 284.29 164.75" style="opacity:0.1"></polygon><rect x="270.21" y="155.17" width="8.99" height="1.2" style="fill:#FF725E"></rect><rect x="271.99" y="157.35" width="5.58" height="1.2" style="fill:#FF725E"></rect><path d="M284.29,164.75A55.69,55.69,0,0,1,284,157a55.48,55.48,0,0,1,.27-7.74,58.49,58.49,0,0,1,.26,7.74A58.71,58.71,0,0,1,284.29,164.75Z" style="fill:#FF725E"></path><polygon points="312.32 74.58 310.28 78.3 306.56 80.33 310.28 82.37 312.32 86.08 314.35 82.37 318.07 80.33 314.35 78.3 312.32 74.58" style="fill:#FF725E"></polygon><polygon points="138.35 170.27 136.31 173.99 132.59 176.02 136.31 178.05 138.35 181.77 140.38 178.05 144.1 176.02 140.38 173.99 138.35 170.27" style="fill:#FF725E"></polygon><polygon points="327.14 90.36 325.89 92.64 323.61 93.89 325.89 95.14 327.14 97.43 328.4 95.14 330.68 93.89 328.4 92.64 327.14 90.36" style="fill:#FF725E"></polygon><polygon points="127.19 148.89 125.94 151.17 123.66 152.42 125.94 153.67 127.19 155.96 128.44 153.67 130.72 152.42 128.44 151.17 127.19 148.89" style="fill:#FF725E"></polygon></g><g id="Character"><path d="M409.69,409l-7.36-5.79,10.75-13.85,10.85,8.35-.61.9c-2.75,4-14.28,20.08-17,22C403.2,422.86,409.69,409,409.69,409Z" style="fill:#FF725E"></path><path d="M405.35,420.48c-.13-.1,3.82-5.34,8.82-11.7s9.16-11.43,9.29-11.33-3.82,5.34-8.82,11.7S405.48,420.58,405.35,420.48Z" style="fill:#263238"></path><path d="M411,410.46c0,.16-.51.22-1.07.22s-1.05-.08-1.07-.24.45-.37,1.07-.36S411,410.3,411,410.46Z" style="fill:#263238"></path><path d="M410.79,411.72c-.05.16-.58.15-1.2.06s-1.14-.21-1.14-.37.55-.31,1.22-.22S410.84,411.56,410.79,411.72Z" style="fill:#263238"></path><path d="M420.14,401.56c-.08,0-.25-.29-.45-.83a6.21,6.21,0,0,1-.39-2.26,3.51,3.51,0,0,1,.82-2.2c.41-.46.79-.57.83-.5s-.22.3-.49.75a4.15,4.15,0,0,0-.56,2,11.25,11.25,0,0,0,.2,2.13C420.19,401.18,420.22,401.54,420.14,401.56Z" style="fill:#263238"></path><path d="M409.58,409.41c-.06-.15.24-.42.63-.67s.77-.41.88-.29-.11.51-.55.8S409.64,409.57,409.58,409.41Z" style="fill:#263238"></path><path d="M409,408.64c-.12-.12.07-.57.42-1s.76-.73.9-.63-.06.54-.43,1S409.16,408.75,409,408.64Z" style="fill:#263238"></path><path d="M360.93,290s-22,58.34-19,69.24,62.18,54.18,62.18,54.18l16.07-23.14S374,353.73,373.85,351.72s18.34-50.49,18.34-50.49Z" style="fill:#263238"></path><path d="M403.09,395.63l-.21-.11c-.15-.11-.34-.23-.58-.38l-2.2-1.51c-1.89-1.33-4.63-3.27-8-5.73-6.66-4.92-15.71-11.94-25.31-20.16-2.4-2.06-4.73-4.09-7-6.06l-3.27-2.93a12.49,12.49,0,0,1-2.82-3.2,5.85,5.85,0,0,1-.41-4.05c.25-1.29.58-2.5.89-3.69.63-2.35,1.26-4.53,1.83-6.52l2.74-9.41c.3-1.08.54-1.94.72-2.57l.18-.67a.12.12,0,1,1,.06,0c0,.18-.08.41-.14.68-.13.59-.33,1.47-.62,2.59-.57,2.25-1.46,5.48-2.57,9.47-.55,2-1.16,4.17-1.77,6.53-.3,1.17-.62,2.4-.86,3.65a5.43,5.43,0,0,0,.39,3.74,12,12,0,0,0,2.72,3.05l3.28,2.91c2.23,2,4.56,4,7,6.05,9.59,8.21,18.59,15.27,25.19,20.26l7.86,5.87,2.14,1.59.55.42C403,395.57,403.1,395.63,403.09,395.63Z" style="fill:#455a64"></path><path d="M397.73,402.68c-.12-.09,2.93-4.3,6.81-9.4s7.13-9.17,7.25-9.08-2.94,4.3-6.82,9.41S397.85,402.77,397.73,402.68Z" style="fill:#455a64"></path><path d="M399.71,179.06c2,3.92,3,7.32,6.88,9.34,1.75.92,3.89,1.44,5,3.1,1.15,1.82.61,4.45,2.06,6,2.12,2.31,6.44.44,8.81,2.47,2.12,1.82,1.44,5.72,3.73,7.32,1.28.91,3,.71,4.5,1.27,2.4.93,3.54,3.7,3.85,6.25a10.94,10.94,0,0,1-.75,6.05,6.16,6.16,0,0,1-4.7,3.59c-2.73.29-5.81-1.59-8,0a10.83,10.83,0,0,0-1.84,2.24,6.87,6.87,0,0,1-11.29-.71c-1.52-2.54-1.42-6-3.65-8a12.86,12.86,0,0,0-4.18-1.92c-1.45-.54-2.95-1.44-3.38-2.92a12.76,12.76,0,0,0-2.1-3.61c-1.11-1.66-2.59.37-4.07-.45s-.91-2.42-1-4.1" style="fill:#263238"></path><path d="M373.84,235.74l-19-6.35s-8.39,24.16-11,24.4c-14.24,1.3-29.48-3.43-34.82-5.29-.55-.61-1.17-1.34-1.86-2.24a8.59,8.59,0,0,1-1.34-2.56,13.23,13.23,0,0,1-.76-3.52,1.12,1.12,0,0,0-1.92-.88c-.61.8-.77,3.85.63,7.14s-3.57.67-5.4-.25-7.62-3.5-8.35-3.16c-1.07.5-.73,1.73,1.12,2.61s7.21,3.89,6.67,4.83-9.77-3.88-9.77-3.88-1.82-1.34-2.47-.27c-1.17,1.93,9,6.31,10,6.7.69.28.15,1.32-.57,1S286,249,284.76,251c-.94,1.5,8.36,3.69,9.56,5.62s-6.88-2.37-7.71-.9c-.31.54-.47,1,4.53,2.8a108.38,108.38,0,0,0,11.15,2.84l0,.05s49.94,22.34,60.72.81C374.42,239.32,373.84,235.74,373.84,235.74Z" style="fill:#e5baab"></path><path d="M392.61,215.73h0l8.29.15,6.58,18.87-5.36,21.62c-1.57,6.31,5.55,18.95,5.36,25.92L361,289.82l-1-31.05,0-1-16.09-8,5.31-13c8.17-19.14,22.44-20.3,22.44-20.3Z" style="fill:#FF725E"></path><g style="opacity:0.2"><path d="M392.61,215.73h0l8.29.15,6.58,18.87-5.36,21.62c-1.57,6.31,5.55,18.95,5.36,25.92L361,289.82l-1-31.05,0-1-16.09-8,5.31-13c8.17-19.14,22.44-20.3,22.44-20.3Z" style="fill:#fff"></path></g><path d="M401.24,215.93s-.09,0-.27.11a7.7,7.7,0,0,1-.81.23,19.69,19.69,0,0,1-3.22.32l.1-.19,3.17,5.15.22.34-.41-.07a20.19,20.19,0,0,0-5.56-.18l.19-.24a29,29,0,0,0,.9,6.26l.14.42-.44-.1a22.79,22.79,0,0,1-6.05-2.22l.39-.17c-.38,1.86-.77,3.81-1.17,5.8l-.09.43-.34-.27a26.2,26.2,0,0,1-2.39-2.15,25.75,25.75,0,0,1-2.09-2.36l.38.05-5.32,4.19-.33.26-.09-.41c-.38-1.85-.74-3.65-1.09-5.37l.32.18-5.69,2-.39.14.11-.4c.6-2.27,1.15-4.33,1.65-6.16l.14.22-4.94-.85-.2,0,.11-.17,2.16-3.16.58-.81c.13-.18.21-.27.22-.26a2.41,2.41,0,0,1-.16.3l-.52.84-2.05,3.23-.09-.2,4.95.75.2,0,0,.2-1.58,6.18-.28-.27,5.66-2,.27-.1.06.28,1.12,5.37-.42-.15,5.31-4.21.21-.17.17.21A26.06,26.06,0,0,0,386,229a26.53,26.53,0,0,0,2.34,2.11l-.42.16c.4-2,.8-3.94,1.18-5.8l.07-.36.32.19a22.44,22.44,0,0,0,5.9,2.18l-.29.31a28.42,28.42,0,0,1-.86-6.36l0-.22.22,0a19.75,19.75,0,0,1,5.68.25l-.19.28c-1.21-2-2.24-3.8-3.08-5.21l-.1-.18h.2a22.15,22.15,0,0,0,3.21-.2C400.86,216,401.24,215.91,401.24,215.93Z" style="fill:#455a64"></path><path d="M410.42,223.86s-.32-.15-1-.34a5.83,5.83,0,0,0-2.94-.05l.08-.11c.19,1.1.49,2.42.9,3.93s.91,3.22,1.36,5.15l.07.28-.29-.08c-2.37-.69-5.16-1.21-8.09-2.2l.27-.22c.31,2.85.29,6,.46,9.4l0,.29-.3,0a47.3,47.3,0,0,1-7.85-2.07c-.32-.09-.69-.22-.78-.08a2.3,2.3,0,0,0-.44.82l-.83,2c-.55,1.35-1.12,2.72-1.69,4.1l-.17.42-.28-.35-5.32-6.6-.4-.49.36,0L375,243.54l-.28.19-.12-.32c-1-2.78-1.9-5.46-2.8-8.06l.38.13a48.54,48.54,0,0,1-9.52,4.79l-.35.14,0-.38c.61-4.33,1.16-8.22,1.63-11.58l.25.19a18.08,18.08,0,0,1-7.65,1.23h-.17l.06-.16,1.79-4.82c.21-.51.36-.92.48-1.23a2.27,2.27,0,0,1,.19-.41,2.38,2.38,0,0,1-.12.43c-.11.32-.25.73-.42,1.26-.4,1.14-1,2.77-1.69,4.86l-.11-.17a18,18,0,0,0,7.5-1.31l.29-.12,0,.31c-.45,3.37-1,7.25-1.54,11.59l-.31-.24a48.82,48.82,0,0,0,9.4-4.79l.27-.17.11.3,2.82,8-.4-.12,8.55-5.89.21-.14.15.19.4.49,5.31,6.61-.45.06,1.7-4.1.83-2a2.47,2.47,0,0,1,.61-1,.71.71,0,0,1,.36-.17,1.72,1.72,0,0,1,.34,0,4.41,4.41,0,0,1,.55.15,48.32,48.32,0,0,0,7.77,2.08l-.28.25c-.15-3.38-.12-6.55-.4-9.38l0-.33.31.11c2.9,1,5.67,1.55,8.06,2.27l-.22.2c-.42-1.91-.91-3.62-1.29-5.15s-.66-2.85-.83-4v-.09l.09,0a5.67,5.67,0,0,1,3,.14A4,4,0,0,1,410.42,223.86Z" style="fill:#455a64"></path><path d="M360.26,257.5a2.85,2.85,0,0,1-1-.53,8.08,8.08,0,0,1-2.15-2.21,7.08,7.08,0,0,1-1.09-4.44,9.86,9.86,0,0,1,5.1-8.26l-.14.2c.38-2.85.73-5.3,1-7a18.75,18.75,0,0,1,.51-2.75,17.8,17.8,0,0,1-.2,2.8c-.17,1.74-.46,4.2-.81,7.06v.12l-.13.07a9.63,9.63,0,0,0-4.83,7.83,6.91,6.91,0,0,0,.92,4.21,8.85,8.85,0,0,0,2,2.25A9.68,9.68,0,0,1,360.26,257.5Z" style="fill:#455a64"></path><path d="M362,236.55c-.13.07-.59-.6-1-1.48s-.68-1.65-.54-1.72.59.6,1,1.49S362.15,236.49,362,236.55Z" style="fill:#455a64"></path><path d="M392.05,216l1.43-32.67-13-9.83-11.79,5.76s-.4,14.81,0,21.24,6.87,7.1,6.87,7.1-.15,3.77-.3,7.72a8.38,8.38,0,0,0,8.46,8.71h0A8.39,8.39,0,0,0,392.05,216Z" style="fill:#e5baab"></path><path d="M370,190.06a.83.83,0,1,0,.82-.82A.82.82,0,0,0,370,190.06Z" style="fill:#263238"></path><path d="M369.2,189.16c.1.11.71-.41,1.59-.46s1.55.38,1.65.26-.07-.24-.36-.44a2.19,2.19,0,0,0-2.59.15C369.23,188.91,369.14,189.12,369.2,189.16Z" style="fill:#263238"></path><path d="M379.52,190.06a.82.82,0,1,0,.82-.82A.82.82,0,0,0,379.52,190.06Z" style="fill:#263238"></path><path d="M379,189.16c.1.11.71-.41,1.6-.46s1.54.38,1.64.26-.07-.24-.36-.44a2.19,2.19,0,0,0-2.59.15C379,188.91,379,189.12,379,189.16Z" style="fill:#263238"></path><path d="M378.74,197.47a16,16,0,0,1-4.28,1.48,2.48,2.48,0,0,0,2.93.83A1.84,1.84,0,0,0,378.74,197.47Z" style="fill:#fff"></path><path d="M375.57,207.6a16,16,0,0,0,8.51-2.87s-1.93,4.72-8.37,4.45Z" style="fill:#d78776"></path><path d="M412.17,201.79a4.61,4.61,0,0,1-2.33-.53,6.44,6.44,0,0,1-2.54-2.46,26.63,26.63,0,0,1-1.9-4.07c-1.2-3-2.1-5.75-2.72-7.77-.09-.32-.18-.61-.26-.89s-.11-.65-.17-.88C398.74,171.8,387,169.3,384.64,169.3c-2.49,0-6.86-1.37-13.23,5.24a14.54,14.54,0,0,0-2.42,3.34,14.42,14.42,0,0,0-2.84,6.05,7.37,7.37,0,0,0-.15,3.19c.12,0,.14-1.22.64-3.08a16,16,0,0,1,1.24-3.16,12.21,12.21,0,0,0,.65,7.4l2.28-.63,8.18-2.78c-.74-2.54.35-5.68,1-7.15l.06-.05a12.8,12.8,0,0,0,10.82,10.5l1.51,21c10.87-2.32,10.62-16.87,10.55-19.83.5,1.67,1.14,3.58,1.94,5.59a24.46,24.46,0,0,0,2,4.14,6.71,6.71,0,0,0,2.83,2.55,4.4,4.4,0,0,0,2.53.37,1.72,1.72,0,0,0,.88-.34S412.74,201.75,412.17,201.79Z" style="fill:#263238"></path><path d="M375.81,196.64a5.46,5.46,0,0,0-1.44-.18c-.23,0-.45-.05-.5-.21a1.28,1.28,0,0,1,.13-.72l.6-1.83c.43-1.31.79-2.5,1-3.36a6.23,6.23,0,0,0,.33-1.42,5.75,5.75,0,0,0-.57,1.34c-.3.85-.7,2-1.13,3.33-.2.64-.39,1.26-.58,1.84a1.42,1.42,0,0,0-.08.92.53.53,0,0,0,.37.32,1.43,1.43,0,0,0,.39,0A5.94,5.94,0,0,0,375.81,196.64Z" style="fill:#263238"></path><path d="M394.16,196.37a7.87,7.87,0,0,1,.35-3.17,3,3,0,0,1,2.31-2,2.53,2.53,0,0,1,2.6,2.11,3.11,3.11,0,0,1-1.58,3.09,4.07,4.07,0,0,1-3.57.1" style="fill:#e5baab"></path><path d="M396,195.43c0-.07.35.09.81-.05a1.45,1.45,0,0,0,1-1.36,1.11,1.11,0,0,0-.23-.86,1,1,0,0,0-.7-.21c-.48.05-.82.17-.85.09s.22-.3.79-.46a1.25,1.25,0,0,1,1.08.21,1.46,1.46,0,0,1,.44,1.26,2,2,0,0,1-.48,1.2,1.4,1.4,0,0,1-.94.5C396.27,195.82,396,195.47,396,195.43Z" style="fill:#d78776"></path><path d="M386.19,450.82v-9.36l17.54-.11.14,13.69-1.08.08c-4.84.3-24.62,1.18-27.86.22C371.32,454.27,386.19,450.82,386.19,450.82Z" style="fill:#FF725E"></path><path d="M374.52,454.48c0-.16,6.56-.3,14.65-.3s14.64.14,14.64.3-6.55.3-14.64.3S374.52,454.65,374.52,454.48Z" style="fill:#263238"></path><path d="M385.89,452.73c-.15.08-.49-.26-.84-.71s-.58-.86-.47-1,.57.13.95.62S386,452.65,385.89,452.73Z" style="fill:#263238"></path><path d="M384.77,453.35c-.16.06-.47-.37-.79-.91s-.54-1-.41-1.13.58.24.92.83S384.92,453.29,384.77,453.35Z" style="fill:#263238"></path><path d="M398.53,454.42c-.06-.05.08-.38.38-.87a6.12,6.12,0,0,1,1.54-1.7,3.51,3.51,0,0,1,2.23-.72c.62,0,.94.27.91.34s-.38,0-.9.08a4.09,4.09,0,0,0-1.89.78,10.67,10.67,0,0,0-1.55,1.48C398.86,454.22,398.6,454.47,398.53,454.42Z" style="fill:#263238"></path><path d="M385.83,451c.09-.14.48-.07.92.08s.8.35.77.51-.47.23-1,.06S385.75,451.11,385.83,451Z" style="fill:#263238"></path><path d="M386.11,450.06c0-.16.48-.29,1.05-.28s1,.15,1,.31-.46.3-1.05.29S386.09,450.23,386.11,450.06Z" style="fill:#263238"></path><path d="M370.53,288.4l-9.6,1.61,5.53,6.8c1.59,32,1.2,63.05,2.67,78.52.22,2.35,10.14,76,9.15,74.31l29.21,1.22-8.72-74,4.13-65.73a34.81,34.81,0,0,0,3.66-25.67l-.72-2.95" style="fill:#455a64"></path><rect x="313.22" y="207.55" width="98.59" height="151.61" rx="7.76" transform="translate(-10.96 552.11) rotate(-73.75)" style="fill:#FF725E"></rect><g style="opacity:0.30000000000000004"><rect x="313.22" y="207.55" width="98.59" height="151.61" rx="7.76" transform="translate(-10.96 552.11) rotate(-73.75)"></rect></g><path d="M421.22,273a10.46,10.46,0,1,1-7.12-13A10.46,10.46,0,0,1,421.22,273Z" style="fill:#fff"></path><path d="M423.3,284.6a11,11,0,1,1,5.26-1.36A11,11,0,0,1,423.3,284.6Zm0-20.94a10,10,0,1,0,9.56,12.74,10,10,0,0,0-9.56-12.74Z" style="fill:#fff"></path><path d="M298.79,279.1l-2.36,8.08-.83-.24,2.14-7.34-1.91-.56.22-.74Z" style="fill:#fff"></path><path d="M305,288.86l-.22.74L299.07,288l.17-.59,4.32-2.31c1.18-.63,1.51-1.13,1.67-1.68.27-.94-.22-1.7-1.45-2.06a2.87,2.87,0,0,0-2.47.25l-.44-.68a3.81,3.81,0,0,1,3.2-.32c1.64.48,2.43,1.62,2,3-.22.77-.67,1.39-2.06,2.14l-3.54,1.9Z" style="fill:#fff"></path><path d="M313.87,290l-1.62-.47-.62,2.12-.83-.24.62-2.13-4.56-1.33.17-.6,5.85-4.1.92.27-5.65,4,3.51,1,.54-1.87.81.24-.54,1.87,1.61.47Z" style="fill:#fff"></path><path d="M326.25,293.57l-1.62-.48-.62,2.13-.83-.24.62-2.13-4.56-1.33.18-.6,5.84-4.11.92.27-5.65,4,3.51,1,.54-1.87.81.23-.54,1.88,1.61.47Z" style="fill:#fff"></path><path d="M333.39,295.37c-.41,1.37-1.68,2.17-3.65,1.59a4.33,4.33,0,0,1-2.6-1.88l.6-.54A3.68,3.68,0,0,0,330,296.2c1.37.4,2.3-.06,2.58-1s-.15-1.88-2.21-2.47l-1.72-.51,1.6-3.93,4.42,1.29-.21.74-3.7-1.08-1,2.5,1,.3C333.16,292.71,333.8,293.94,333.39,295.37Z" style="fill:#fff"></path><path d="M341.38,297.66a2.62,2.62,0,0,1-3.48,1.68c-2.15-.62-2.88-2.45-2.14-5,.8-2.74,2.72-3.74,4.91-3.1a3.8,3.8,0,0,1,1.79,1l-.53.57a2.92,2.92,0,0,0-1.46-.84c-1.74-.51-3.19.29-3.82,2.48a6.66,6.66,0,0,0-.16.67,2.7,2.7,0,0,1,2.87-.67A2.55,2.55,0,0,1,341.38,297.66Zm-.83-.21a1.84,1.84,0,0,0-1.52-2.34,1.86,1.86,0,1,0-1,3.52A1.84,1.84,0,0,0,340.55,297.45Z" style="fill:#fff"></path><path d="M352.41,301c-.39,1.35-1.68,2.1-3.63,1.53a4.4,4.4,0,0,1-2.61-1.88l.6-.55a3.68,3.68,0,0,0,2.23,1.67c1.34.39,2.26,0,2.56-1s-.22-1.81-1.72-2.24l-.58-.17.18-.61,3.06-2.16-4.13-1.2.21-.74,5.2,1.51-.17.59-3.13,2.21C352.19,298.52,352.79,299.68,352.41,301Z" style="fill:#fff"></path><path d="M360.54,303.25a2.63,2.63,0,0,1-3.49,1.67c-2.14-.62-2.87-2.45-2.13-5,.8-2.75,2.72-3.74,4.91-3.11a3.94,3.94,0,0,1,1.79,1l-.53.57a3.08,3.08,0,0,0-1.46-.84c-1.74-.5-3.19.29-3.83,2.48a6.85,6.85,0,0,0-.15.67,2.67,2.67,0,0,1,2.87-.66A2.55,2.55,0,0,1,360.54,303.25Zm-.83-.22a1.86,1.86,0,0,0-1.52-2.34,1.86,1.86,0,1,0-1,3.52A1.84,1.84,0,0,0,359.71,303Z" style="fill:#fff"></path><path d="M369.62,299.74l-.17.59-5.56,6.51-.9-.26,5.46-6.38L364.29,299l-.44,1.51-.82-.24.66-2.25Z" style="fill:#fff"></path><path d="M381.17,303.11l-.17.59-5.56,6.5-.9-.26,5.46-6.37-4.16-1.21-.44,1.51-.82-.24.66-2.25Z" style="fill:#fff"></path><path d="M387.43,311.26c-.42,1.43-1.89,2-3.82,1.4s-2.86-1.8-2.44-3.23a2.09,2.09,0,0,1,2.14-1.53,1.88,1.88,0,0,1-.75-2.15c.38-1.31,1.74-1.81,3.45-1.31s2.61,1.65,2.22,3a1.9,1.9,0,0,1-1.81,1.4A2.12,2.12,0,0,1,387.43,311.26Zm-.85-.26c.29-1-.39-1.87-1.82-2.29s-2.46,0-2.75,1,.37,1.87,1.81,2.29S386.28,312,386.58,311ZM385,308.05c1.26.37,2.18,0,2.43-.85s-.37-1.7-1.58-2.05-2.16,0-2.42.87S383.69,307.69,385,308.05Z" style="fill:#fff"></path><path d="M395.82,311.68c-.8,2.75-2.72,3.75-4.92,3.11a3.82,3.82,0,0,1-1.78-1l.53-.57a2.93,2.93,0,0,0,1.45.84c1.75.51,3.19-.29,3.83-2.48a6.66,6.66,0,0,0,.16-.67,2.67,2.67,0,0,1-2.87.66,2.54,2.54,0,0,1-2-3.21,2.61,2.61,0,0,1,3.48-1.68C395.83,307.3,396.56,309.13,395.82,311.68Zm-.68-1.93a2,2,0,0,0-1.63-2.36,1.84,1.84,0,1,0-1,3.52A2,2,0,0,0,395.14,309.75Z" style="fill:#fff"></path><path d="M405.17,310.1l-2.36,8.08-.83-.24,2.14-7.34-1.91-.56.22-.74Z" style="fill:#fff"></path><path d="M411.34,319.86l-.22.74L405.45,319l.17-.59,4.32-2.31c1.18-.63,1.51-1.13,1.67-1.68.27-.93-.22-1.7-1.45-2.06a2.87,2.87,0,0,0-2.47.25l-.44-.68a3.81,3.81,0,0,1,3.2-.31c1.64.47,2.43,1.61,2,3-.23.77-.67,1.39-2.06,2.14l-3.54,1.9Z" style="fill:#fff"></path><path d="M419.05,320.4c-.4,1.35-1.68,2.1-3.63,1.53a4.37,4.37,0,0,1-2.61-1.89l.6-.54a3.68,3.68,0,0,0,2.23,1.67c1.34.39,2.26,0,2.55-1s-.21-1.81-1.71-2.24l-.58-.17.18-.62,3.05-2.15-4.13-1.2.22-.74,5.19,1.51-.17.59-3.12,2.21C418.82,317.94,419.42,319.1,419.05,320.4Z" style="fill:#fff"></path><rect x="384.58" y="288.13" width="3.65" height="67.41" transform="translate(-30.66 602.8) rotate(-73.76)" style="fill:#fff"></rect><rect x="398.3" y="316.15" width="3.66" height="34.58" transform="translate(-31.92 624.32) rotate(-73.76)" style="fill:#fff"></rect><rect x="298.26" y="253.99" width="28.29" height="21.13" rx="4.96" transform="translate(86.5 -76.84) rotate(16.25)" style="fill:#263238"></rect><path d="M297.51,265.12l.38-1.3,14,4.08a3.05,3.05,0,0,0,1.71-5.86l-14-4.07.38-1.3,14,4.07a4.41,4.41,0,0,1-2.46,8.46Z" style="fill:#fff"></path><rect x="320.42" y="262.41" width="1.36" height="10" transform="translate(-25.69 500.53) rotate(-73.7)" style="fill:#fff"></rect><rect x="307.53" y="244.75" width="72.75" height="6.24" transform="translate(83.1 -86.33) rotate(16.25)" style="fill:#fff"></rect><path d="M390.66,172.74a4.94,4.94,0,0,1-3-3.34,4.33,4.33,0,0,1,1.33-4.23,3.86,3.86,0,0,1,4.35-.41,5.51,5.51,0,0,1,2.16,3,4.36,4.36,0,0,1,.26,2.49,3.67,3.67,0,0,1-2.69,2.43,11.14,11.14,0,0,1-3.78.1" style="fill:#263238"></path><path d="M416.43,190.56a3.06,3.06,0,0,0,.06-1.31,3,3,0,0,0-.69-1.33,3.64,3.64,0,0,0-1.72-1,7.31,7.31,0,0,0-2.47-.17c-.91.06-1.88.22-2.94.24a5.76,5.76,0,0,1-3.25-.77,5.2,5.2,0,0,1-1.95-3,16,16,0,0,0-3.2-5.74,17.08,17.08,0,0,0-4.14-3.46,23.9,23.9,0,0,0-4.62-1.93s.12,0,.35,0,.57.08,1,.2a14.68,14.68,0,0,1,3.47,1.38,16.72,16.72,0,0,1,4.32,3.46A16.1,16.1,0,0,1,404,183a4.75,4.75,0,0,0,1.72,2.74,5.38,5.38,0,0,0,3,.72c1,0,2-.15,2.92-.19a7.55,7.55,0,0,1,2.6.25,3.77,3.77,0,0,1,1.84,1.16,3.07,3.07,0,0,1,.68,1.5,2.21,2.21,0,0,1-.09,1C416.53,190.47,416.44,190.57,416.43,190.56Z" style="fill:#263238"></path><path d="M398,196.31c0-.05.48.33.48,1.19a1.9,1.9,0,0,1-.61,1.34,2.06,2.06,0,0,1-1.73.54,2.09,2.09,0,0,1-1.47-1.06,1.87,1.87,0,0,1-.14-1.46c.27-.82.82-1,.83-1s-.34.37-.46,1.07a1.63,1.63,0,0,0,.2,1.13,1.69,1.69,0,0,0,1.13.77,1.67,1.67,0,0,0,1.31-.37,1.62,1.62,0,0,0,.56-1C398.16,196.77,397.88,196.35,398,196.31Z" style="fill:#e0e0e0"></path><path d="M395.37,174a15.19,15.19,0,0,0-7.84-4.15,8.83,8.83,0,0,1,7.84,4.15Z" style="fill:#FF725E"></path><path d="M399.1,195.08c0-.07.29-.09.47.24a.76.76,0,0,1,0,.63.79.79,0,0,1-.68.42.81.81,0,0,1-.86-.91c0-.34.24-.45.29-.41s0,.2.09.4a.44.44,0,0,0,.46.38.32.32,0,0,0,.33-.38C399.2,195.26,399.08,195.16,399.1,195.08Z" style="fill:#e0e0e0"></path><path d="M392.26,215a3,3,0,0,1,.11,1.08,8.39,8.39,0,0,1-.58,2.91,8.94,8.94,0,0,1-2.58,3.58,8.88,8.88,0,0,1-10.26.61,8.87,8.87,0,0,1-3-3.24,8.46,8.46,0,0,1-.93-2.82,2.92,2.92,0,0,1,0-1.08,11.64,11.64,0,0,0,1.27,3.72,9,9,0,0,0,2.92,3,8.57,8.57,0,0,0,9.69-.59,8.86,8.86,0,0,0,2.54-3.34A11.8,11.8,0,0,0,392.26,215Z" style="fill:#455a64"></path><path d="M390.16,444.17a1,1,0,0,1-.06-.27c0-.21-.07-.47-.11-.8-.1-.74-.24-1.77-.41-3.07-.34-2.67-.79-6.53-1.32-11.32-1.07-9.56-2.38-22.78-3.56-37.41s-2-27.91-2.46-37.52c-.25-4.8-.41-8.69-.5-11.38q-.06-2-.09-3.09c0-.33,0-.6,0-.81a1.1,1.1,0,0,1,0-.27,1.14,1.14,0,0,1,0,.27c0,.21,0,.48.06.8.05.75.11,1.78.2,3.09.16,2.73.38,6.6.66,11.37.58,9.6,1.46,22.86,2.63,37.49s2.43,27.86,3.39,37.42c.49,4.76.88,8.62,1.16,11.34.13,1.3.23,2.33.3,3.08,0,.33.05.59.07.8A1,1,0,0,1,390.16,444.17Z" style="fill:#263238"></path><path d="M406.48,444.24a4.48,4.48,0,0,1-1.12.16c-.72.06-1.77.13-3.06.19-2.59.13-6.17.19-10.12.13s-7.53-.18-10.11-.28l-3.06-.15a4.32,4.32,0,0,1-1.13-.12,4.33,4.33,0,0,1,1.13-.09c.72,0,1.77,0,3.07,0,2.58,0,6.16.06,10.11.12s7.51.06,10.1,0l3.06,0A4.55,4.55,0,0,1,406.48,444.24Z" style="fill:#263238"></path><path d="M412.17,248.91,395,237.63s-8.39,24.16-11,24.4c-14.24,1.3-29.48-3.43-34.82-5.29-.54-.61-1.16-1.34-1.85-2.24a8.59,8.59,0,0,1-1.34-2.56,12.85,12.85,0,0,1-.76-3.52,1.12,1.12,0,0,0-1.92-.88c-.62.8-.78,3.85.63,7.14s-3.57.67-5.4-.25-7.63-3.5-8.36-3.16c-1.06.5-.73,1.73,1.12,2.61s7.21,3.89,6.68,4.83-9.78-3.88-9.78-3.88-1.81-1.34-2.46-.27c-1.18,1.93,9,6.31,10,6.7.68.28.14,1.32-.58,1s-9.12-5-10.33-3.06c-.93,1.5,8.37,3.69,9.57,5.62s-6.89-2.37-7.72-.91c-.31.55-.46,1,4.54,2.81a107.42,107.42,0,0,0,11.14,2.84l0,.05s51.06,22.86,60.72.81C413.43,246.92,412.17,248.91,412.17,248.91Z" style="fill:#e5baab"></path><path d="M400.9,215.88s15.6,1.84,14,20.4a90.57,90.57,0,0,1-9.5,32.91l-20.46-10.74a126.22,126.22,0,0,0,10.32-28.94l5.69-13.63Z" style="fill:#FF725E"></path><g style="opacity:0.2"><path d="M400.9,215.88s15.6,1.84,14,20.4a90.57,90.57,0,0,1-9.5,32.91l-20.46-10.74a126.22,126.22,0,0,0,10.32-28.94l5.69-13.63Z" style="fill:#fff"></path></g><path d="M401.24,215.93c0,.13-1.69.59-4.3.77l.19-.36,1.93,3.13,1.22,2,.29.49-.56-.11a44.57,44.57,0,0,0-5.58-.47,5,5,0,0,1,1.59-.25,17.45,17.45,0,0,1,4.08.22l-.26.38-1.24-2-1.87-3.16-.21-.35h.4c1.28-.06,2.37-.14,3.12-.21A5.92,5.92,0,0,1,401.24,215.93Z" style="fill:#455a64"></path><path d="M410.42,223.86c0,.09-1.45-.26-3.94-.32l.17-.19c.59,2.34,1.37,5.46,2.28,9.06l.1.42-.41-.11L402.26,231l-1.73-.48.34-.27c.14,3.45.27,6.65.38,9.4l0,.3-.28-.08-6.11-1.71-1.69-.5a2.4,2.4,0,0,1-.58-.23,2.19,2.19,0,0,1,.62.1l1.72.39,6.13,1.52-.27.23c-.14-2.75-.3-5.95-.47-9.39l0-.37.36.1,1.73.48,6.34,1.77-.31.31c-.84-3.63-1.56-6.77-2.11-9.13l-.05-.2h.22a19.72,19.72,0,0,1,2.91.37A4.89,4.89,0,0,1,410.42,223.86Z" style="fill:#455a64"></path><path d="M411.68,249.22a3,3,0,0,1-.72-.75c-.42-.53-.88-1.41-1.54-2.43h.27a60.42,60.42,0,0,1-5.66,9l-.2.27-.21-.27c-1-1.25-2-2.58-3-4l-2.3-3,.38,0L395,251.3l-1.66,1.43-.77.67-.37.32-.09.08,0,0-.05,0-.06,0c0,.09-.33-.12-.26-.21s0,0,0,0v-.06s0,0,0,0,.07.17.1.16,0,0,0,0l-.17.05-.06-.19c-.59-2-1-3.58-1.25-4.72a5.16,5.16,0,0,1-.2-1.79s.1.63.41,1.74.78,2.7,1.43,4.65l-.23-.14a.42.42,0,0,1,.22,0,.25.25,0,0,1,.17.24.49.49,0,0,1,0,.14s0,0-.05,0l-.14-.06a.27.27,0,0,0-.06-.1l-.06-.06h0l.05,0,.08-.08.37-.33.76-.68c.52-.47,1.06-1,1.63-1.46l3.65-3.25.21-.19.18.23,2.3,3c1.06,1.38,2.08,2.72,3,4h-.41a70.77,70.77,0,0,0,5.79-8.84l.14-.24.14.23c.64,1.07,1,2,1.41,2.51S411.71,249.19,411.68,249.22Z" style="fill:#455a64"></path><path d="M394,235a3.47,3.47,0,0,1-.17,1c-.15.62-.38,1.5-.7,2.59-.63,2.17-1.61,5.15-2.87,8.36s-2.58,6.06-3.6,8.08c-.51,1-.94,1.82-1.26,2.37a3.53,3.53,0,0,1-.53.83,30.84,30.84,0,0,1,1.45-3.36c.93-2.06,2.18-4.91,3.44-8.11s2.29-6.15,3-8.29A29.47,29.47,0,0,1,394,235Z" style="fill:#455a64"></path><path d="M401.24,215.93c0,.13-1.69.59-4.3.77l.19-.36,1.93,3.13,1.22,2,.29.49-.56-.11a44.57,44.57,0,0,0-5.58-.47,5,5,0,0,1,1.59-.25,17.45,17.45,0,0,1,4.08.22l-.26.38-1.24-2-1.87-3.16-.21-.35h.4c1.28-.06,2.37-.14,3.12-.21A5.92,5.92,0,0,1,401.24,215.93Z" style="fill:#455a64"></path><path d="M410.42,223.86c0,.09-1.45-.26-3.94-.32l.17-.19c.59,2.34,1.37,5.46,2.28,9.06l.1.42-.41-.11L402.26,231l-1.73-.48.34-.27c.14,3.45.27,6.65.38,9.4l0,.3-.28-.08-6.11-1.71-1.69-.5a2.4,2.4,0,0,1-.58-.23,2.19,2.19,0,0,1,.62.1l1.72.39,6.13,1.52-.27.23c-.14-2.75-.3-5.95-.47-9.39l0-.37.36.1,1.73.48,6.34,1.77-.31.31c-.84-3.63-1.56-6.77-2.11-9.13l-.05-.2h.22a19.72,19.72,0,0,1,2.91.37A4.89,4.89,0,0,1,410.42,223.86Z" style="fill:#455a64"></path><path d="M411.68,249.22a3,3,0,0,1-.72-.75c-.42-.53-.88-1.41-1.54-2.43h.27a60.42,60.42,0,0,1-5.66,9l-.2.27-.21-.27c-1-1.25-2-2.58-3-4l-2.3-3,.38,0L395,251.3l-1.66,1.43-.77.67-.37.32-.09.08,0,0-.05,0-.06,0c0,.09-.33-.12-.26-.21s0,0,0,0v-.06s0,0,0,0,.07.17.1.16,0,0,0,0l-.17.05-.06-.19c-.59-2-1-3.58-1.25-4.72a5.16,5.16,0,0,1-.2-1.79s.1.63.41,1.74.78,2.7,1.43,4.65l-.23-.14a.42.42,0,0,1,.22,0,.25.25,0,0,1,.17.24.49.49,0,0,1,0,.14s0,0-.05,0l-.14-.06a.27.27,0,0,0-.06-.1l-.06-.06h0l.05,0,.08-.08.37-.33.76-.68c.52-.47,1.06-1,1.63-1.46l3.65-3.25.21-.19.18.23,2.3,3c1.06,1.38,2.08,2.72,3,4h-.41a70.77,70.77,0,0,0,5.79-8.84l.14-.24.14.23c.64,1.07,1,2,1.41,2.51S411.71,249.19,411.68,249.22Z" style="fill:#455a64"></path><path d="M394,235a3.47,3.47,0,0,1-.17,1c-.15.62-.38,1.5-.7,2.59-.63,2.17-1.61,5.15-2.87,8.36s-2.58,6.06-3.6,8.08c-.51,1-.94,1.82-1.26,2.37a3.53,3.53,0,0,1-.53.83,30.84,30.84,0,0,1,1.45-3.36c.93-2.06,2.18-4.91,3.44-8.11s2.29-6.15,3-8.29A29.47,29.47,0,0,1,394,235Z" style="fill:#455a64"></path></g></svg>