<svg xmlns="http://www.w3.org/2000/svg" viewBox="0 0 750 500"><g id="background-complete"><rect x="136.89" y="276.15" width="94.82" height="179.25" style="fill:#e0e0e0"></rect><rect x="108.75" y="276.15" width="94.82" height="179.25" style="fill:#f5f5f5"></rect><path d="M196.59,313.05H115.2V284.63h81.39Zm-80.39-1h79.39V285.63H116.2Z" style="fill:#e0e0e0"></path><path d="M141,285.13h30.89a0,0,0,0,1,0,0v.71a4.95,4.95,0,0,1-4.95,4.95h-21a4.95,4.95,0,0,1-4.95-4.95v-.71A0,0,0,0,1,141,285.13Z" style="fill:#ebebeb"></path><path d="M196.59,349.14H115.2V320.73h81.39Zm-80.39-1h79.39V321.73H116.2Z" style="fill:#e0e0e0"></path><path d="M141,321.23h30.89a0,0,0,0,1,0,0v.71a4.95,4.95,0,0,1-4.95,4.95h-21a4.95,4.95,0,0,1-4.95-4.95v-.71A0,0,0,0,1,141,321.23Z" style="fill:#ebebeb"></path><path d="M196.59,385.23H115.2V356.82h81.39Zm-80.39-1h79.39V357.82H116.2Z" style="fill:#e0e0e0"></path><path d="M141,357.32h30.89a0,0,0,0,1,0,0V358a4.95,4.95,0,0,1-4.95,4.95h-21A4.95,4.95,0,0,1,141,358v-.71a0,0,0,0,1,0,0Z" style="fill:#ebebeb"></path><path d="M196.59,421.32H115.2V392.91h81.39Zm-80.39-1h79.39V393.91H116.2Z" style="fill:#e0e0e0"></path><path d="M141,393.41h30.89a0,0,0,0,1,0,0v.71a4.95,4.95,0,0,1-4.95,4.95h-21a4.95,4.95,0,0,1-4.95-4.95v-.71A0,0,0,0,1,141,393.41Z" style="fill:#ebebeb"></path><rect x="104.54" y="269.44" width="103" height="8.93" style="fill:#ebebeb"></rect><rect x="207.53" y="269.44" width="30.97" height="8.93" style="fill:#e0e0e0"></rect><rect x="108.75" y="455.4" width="4.98" height="9.16" style="fill:#e0e0e0"></rect><rect x="139.53" y="455.4" width="4.98" height="9.16" style="fill:#e0e0e0"></rect><rect x="195.77" y="455.4" width="4.98" height="9.16" style="fill:#e0e0e0"></rect><rect x="223.89" y="455.4" width="4.98" height="9.16" style="fill:#e0e0e0"></rect><path d="M623.57,244.6c-4.76.11-7.63,5.53-7.88,10.28s1,9.61-.11,14.22c-1.48,5.86-6.67,10.26-8,16.14-1.6,6.95,2.51,13.87,3,21,.26,3.46-.33,7,.47,10.37a12.75,12.75,0,0,0,25-1c.85-5.38-1.78-10.92-.62-16.25.85-3.94,3.7-7.38,3.75-11.41.06-4.79-3.84-8.74-4.76-13.45s1.25-9.45,1.38-14.24c.22-8.6-3.66-15.15-12.24-15.65" style="fill:#ebebeb"></path><path d="M625.92,267.05a4,4,0,0,1,0,.76c0,.54-.08,1.27-.14,2.18-.14,1.94-.34,4.67-.59,8-.51,6.77-1.2,16.12-1.9,26.46s-1.28,19.7-1.68,26.47c-.21,3.36-.38,6.09-.5,8-.06.91-.11,1.64-.15,2.18a3.83,3.83,0,0,1-.09.76,7.54,7.54,0,0,1,0-.77c0-.53,0-1.26.07-2.18.08-1.94.2-4.67.35-8,.33-6.79.85-16.15,1.55-26.49s1.44-19.69,2-26.45c.31-3.35.56-6.08.74-8,.09-.92.17-1.64.22-2.18A6.76,6.76,0,0,1,625.92,267.05Z" style="fill:#e0e0e0"></path><path d="M622.58,359.59h0a15.17,15.17,0,0,0,15.17-15.17V329.25H607.41v15.17A15.17,15.17,0,0,0,622.58,359.59Z" style="fill:#e0e0e0"></path><path d="M607.41,336.71a2.83,2.83,0,0,1,.49.33l1.33,1,4.7,3.8-.26,0,8.75-5.36h0l.14-.08.14.09,8.14,5.36h-.26l5.15-3.8,1.45-1a2.62,2.62,0,0,1,.55-.33,2.59,2.59,0,0,1-.46.44l-1.39,1.13-5,3.94-.12.1-.13-.09-8.19-5.3h.26l-8.79,5.28-.14.08-.11-.1c-1.85-1.58-3.4-2.92-4.58-3.94l-1.25-1.12C607.54,336.88,607.39,336.73,607.41,336.71Z" style="fill:#fff"></path><path d="M607.41,333.68a2.23,2.23,0,0,1,.49.33l1.33,1,4.7,3.81-.26,0,8.75-5.36h0l.14-.09.14.09,8.14,5.37h-.26l5.15-3.8,1.45-1a2.16,2.16,0,0,1,.55-.33,2.59,2.59,0,0,1-.46.44l-1.39,1.13-5,3.94-.12.1-.13-.09-8.19-5.3h.26l-8.79,5.29-.14.08-.11-.1-4.58-3.94-1.25-1.13C607.54,333.85,607.39,333.7,607.41,333.68Z" style="fill:#fff"></path><path d="M607.41,339.8a2.23,2.23,0,0,1,.49.33l1.33,1,4.7,3.81-.26,0,8.75-5.36h0l.14-.09.14.09,8.14,5.37h-.26l5.15-3.8,1.45-1a2.16,2.16,0,0,1,.55-.33,2.39,2.39,0,0,1-.46.43l-1.39,1.13-5,3.95-.12.09-.13-.08-8.19-5.3h.26l-8.79,5.29-.14.08-.11-.1-4.58-3.94-1.25-1.13C607.54,340,607.39,339.82,607.41,339.8Z" style="fill:#fff"></path><polygon points="644.13 436.22 653.81 463.99 648.97 463.99 632.02 436.22 644.13 436.22" style="fill:#ebebeb"></polygon><polygon points="588.56 436.22 578.88 463.99 583.72 463.99 600.67 436.22 588.56 436.22" style="fill:#ebebeb"></polygon><rect x="565.53" y="359.53" width="77.39" height="77.39" transform="translate(1208.44 796.44) rotate(180)" style="fill:#ebebeb"></rect><rect x="589.77" y="359.53" width="77.39" height="77.39" transform="translate(1256.93 796.44) rotate(180)" style="fill:#f5f5f5"></rect><path d="M662.05,432.14H594.88V365h67.17Zm-66.17-1h65.17V366H595.88Z" style="fill:#e0e0e0"></path><path d="M661.16,385.83c-21.84-.64-43.93-.47-65.78,0a.27.27,0,0,0,0,.53c21.85.44,43.94.61,65.78,0a.24.24,0,0,0,0-.47Z" style="fill:#e0e0e0"></path><path d="M626.58,376.33a1.89,1.89,0,1,0,1.89-1.88A1.89,1.89,0,0,0,626.58,376.33Z" style="fill:#ebebeb"></path><path d="M653.72,406.56a1.88,1.88,0,1,0,1.88-1.89A1.88,1.88,0,0,0,653.72,406.56Z" style="fill:#ebebeb"></path><polygon points="165.74 245.38 175.34 269.94 169.37 269.91 164.59 254.82 165.74 245.38" style="fill:#e0e0e0"></polygon><polygon points="132.96 222.69 129.66 269.74 163.73 270.45 167.56 222.69 132.96 222.69" style="fill:#ebebeb"></polygon><polygon points="136.37 226.48 133.63 265.64 158.95 266.83 162.49 226.25 136.37 226.48" style="fill:#fafafa"></polygon><polygon points="141.93 232.02 139.87 259.55 153.84 259.55 156.31 232.02 141.93 232.02" style="fill:#e0e0e0"></polygon><rect x="505.32" y="88.54" width="109.94" height="108.02" style="fill:#e0e0e0"></rect><rect x="509.15" y="91.49" width="102.23" height="102.23" style="fill:#fafafa"></rect><rect x="543.59" y="125.93" width="33.35" height="33.35" style="fill:#e0e0e0"></rect></g><g id="background-simple"><path d="M591.71,176.22c14.06,64.34-13.38,134-62.65,177.7S411.55,416.63,345.8,413.1c-46.94-2.52-94.54-16.6-130.19-47.24s-57.36-79.5-48.19-125.61c3.47-17.41,11.77-34.72,26.51-44.62,23.54-15.81,55-8.55,82.21-.69s58.63,15.2,82.23-.51c18.14-12.06,26-34.27,38.52-52.11,21.24-30.35,58.49-48.76,95.5-47.22a107.34,107.34,0,0,1,15.29,1.77c39.24,7.46,70.79,36.69,82.63,74.83Z" style="fill:#ebebeb"></path></g><g id="Floor"><path d="M660.22,464.55c0,.15-127.71.26-285.21.26s-285.23-.11-285.23-.26,127.68-.26,285.23-.26S660.22,464.41,660.22,464.55Z" style="fill:#263238"></path></g><g id="credit-card"><rect x="470.56" y="197.02" width="105.37" height="162.04" rx="7.54" transform="translate(207.92 779.7) rotate(-85.83)" style="fill:#FF725E"></rect><path d="M582.28,254.09a11.18,11.18,0,1,1-10.34-12A11.17,11.17,0,0,1,582.28,254.09Z" style="fill:#fff"></path><path d="M584.58,266c-.29,0-.57,0-.86,0a11.69,11.69,0,1,1,12.51-10.81h0A11.71,11.71,0,0,1,584.58,266Zm0-22.37A10.68,10.68,0,1,0,595.23,255h0a10.71,10.71,0,0,0-9.88-11.44Z" style="fill:#fff"></path><path d="M455.73,287.88l-.66,9-.92-.07.59-8.15-2.11-.15.06-.82Z" style="fill:#fff"></path><path d="M464.36,296.7l-.06.82-6.29-.46,0-.65,4-3.38c1.08-.92,1.32-1.51,1.36-2.13.08-1-.6-1.73-2-1.83a3.06,3.06,0,0,0-2.52.82l-.62-.61a4,4,0,0,1,3.27-1c1.82.13,2.91,1.14,2.8,2.64-.06.86-.39,1.61-1.68,2.7l-3.27,2.77Z" style="fill:#fff"></path><path d="M473.91,295.85l-1.79-.13-.17,2.36L471,298l.17-2.35-5.06-.37.05-.67,5.18-5.6,1,.08-5,5.45,3.89.29.15-2.08.9.07-.15,2.07L474,295Z" style="fill:#fff"></path><path d="M487.66,296.85l-1.79-.13-.17,2.36-.93-.07.18-2.35-5.07-.37.05-.67,5.19-5.6,1,.08-5,5.46,3.89.28.15-2.08.9.07-.15,2.07,1.79.13Z" style="fill:#fff"></path><path d="M495.53,297.14c-.12,1.53-1.27,2.64-3.46,2.48a4.64,4.64,0,0,1-3.13-1.38l.5-.7a3.94,3.94,0,0,0,2.68,1.24c1.53.11,2.39-.58,2.47-1.67s-.58-1.92-2.86-2.09l-1.91-.13.78-4.47,4.91.36-.06.82-4.1-.3-.51,2.84,1.15.08C494.69,294.42,495.64,295.56,495.53,297.14Z" style="fill:#fff"></path><path d="M504.4,297.75a2.81,2.81,0,0,1-3.27,2.53c-2.38-.17-3.56-1.92-3.35-4.75.22-3,2-4.52,4.44-4.34a4.2,4.2,0,0,1,2.09.64l-.42.72a3.2,3.2,0,0,0-1.72-.55c-1.93-.14-3.27,1-3.44,3.45,0,.2,0,.46,0,.73a2.87,2.87,0,0,1,2.86-1.34A2.73,2.73,0,0,1,504.4,297.75Zm-.92,0c.09-1.18-.73-2-2.11-2.1a2.08,2.08,0,0,0-2.45,1.79c-.07,1,.68,2,2.23,2.1A2,2,0,0,0,503.48,297.71Z" style="fill:#fff"></path><path d="M516.66,298.75c-.11,1.5-1.28,2.57-3.44,2.41a4.67,4.67,0,0,1-3.15-1.38l.5-.7a4,4,0,0,0,2.71,1.24c1.48.11,2.35-.53,2.43-1.64s-.62-1.84-2.29-2l-.64,0,.05-.68,2.71-2.94-4.58-.33.06-.82,5.76.42,0,.65L514,296C515.88,296.23,516.77,297.31,516.66,298.75Z" style="fill:#fff"></path><path d="M525.67,299.3a2.81,2.81,0,0,1-3.27,2.53c-2.38-.17-3.55-1.92-3.35-4.75.22-3.05,2-4.52,4.44-4.34a4.1,4.1,0,0,1,2.09.64l-.42.72a3.2,3.2,0,0,0-1.72-.55c-1.93-.14-3.26,1-3.44,3.44,0,.21,0,.47,0,.74a2.87,2.87,0,0,1,2.86-1.34A2.73,2.73,0,0,1,525.67,299.3Zm-.92,0c.09-1.18-.73-2-2.11-2.1a2.08,2.08,0,0,0-2.45,1.79c-.07,1,.68,2,2.23,2.1A2,2,0,0,0,524.75,299.26Z" style="fill:#fff"></path><path d="M534.38,293.61l0,.65L530,302.31l-1-.08,4.28-7.88-4.61-.33-.12,1.68-.91-.07.18-2.5Z" style="fill:#fff"></path><path d="M547.2,294.55l-.05.65-4.36,8-1-.07,4.29-7.88-4.61-.34-.13,1.68-.91-.07.19-2.5Z" style="fill:#fff"></path><path d="M555.56,301.66c-.12,1.59-1.53,2.48-3.67,2.32s-3.39-1.24-3.28-2.83a2.25,2.25,0,0,1,1.89-2.08,2,2,0,0,1-1.26-2.07c.1-1.46,1.41-2.28,3.31-2.14s3.1,1.14,3,2.6a2,2,0,0,1-1.58,1.87A2.26,2.26,0,0,1,555.56,301.66Zm-.95-.08c.08-1.11-.82-1.87-2.41-2s-2.57.51-2.65,1.61.8,1.87,2.39,2S554.53,302.69,554.61,301.58Zm-2.35-2.71c1.39.1,2.27-.47,2.35-1.44s-.77-1.69-2.12-1.79-2.26.45-2.33,1.45S550.86,298.77,552.26,298.87Z" style="fill:#fff"></path><path d="M564.42,300.23c-.22,3-2,4.52-4.44,4.34a4.23,4.23,0,0,1-2.09-.64l.43-.72a3.16,3.16,0,0,0,1.71.55c1.93.14,3.27-1,3.45-3.44,0-.21,0-.47,0-.74a2.86,2.86,0,0,1-2.85,1.34,2.72,2.72,0,0,1-2.83-2.91,2.8,2.8,0,0,1,3.26-2.53C563.45,295.65,564.63,297.4,564.42,300.23Zm-1.14-1.87c.08-1-.68-2-2.23-2.1a2,2,0,0,0-2.33,1.79c-.09,1.18.73,2,2.11,2.1A2.08,2.08,0,0,0,563.28,298.36Z" style="fill:#fff"></path><path d="M573.84,296.48l-.65,9-.93-.07.6-8.15-2.12-.16.06-.82Z" style="fill:#fff"></path><path d="M582.47,305.31l-.06.82-6.29-.46,0-.66,4-3.38c1.09-.92,1.32-1.51,1.37-2.12.08-1-.61-1.74-2-1.84a3.1,3.1,0,0,0-2.52.82l-.61-.61a4,4,0,0,1,3.27-1.05c1.82.14,2.9,1.14,2.8,2.64a3.73,3.73,0,0,1-1.68,2.7L577.54,305Z" style="fill:#fff"></path><path d="M590.65,304.14c-.11,1.5-1.29,2.57-3.45,2.41a4.64,4.64,0,0,1-3.15-1.39l.51-.69a4,4,0,0,0,2.7,1.24c1.49.1,2.36-.53,2.44-1.64s-.63-1.84-2.29-2l-.64-.05.05-.67,2.71-2.94-4.59-.33.06-.82,5.77.42,0,.65-2.77,3C589.86,301.62,590.75,302.7,590.65,304.14Z" style="fill:#fff"></path><rect x="554.87" y="276.88" width="3.91" height="72.05" transform="translate(204.32 845.55) rotate(-85.84)" style="fill:#fff"></rect><rect x="571.8" y="303.49" width="3.91" height="36.95" transform="translate(210.99 870.83) rotate(-85.84)" style="fill:#fff"></rect><g style="opacity:0.5"><rect x="451.55" y="258.3" width="30.23" height="22.58" rx="4.96" transform="translate(20.82 -33.2) rotate(4.17)"></rect></g><path d="M451.22,273.52l.11-1.44,15.53,1.13a3.26,3.26,0,0,0,.47-6.5l-15.53-1.13.11-1.45,15.52,1.13a4.71,4.71,0,1,1-.68,9.39Z" style="fill:#FF725E"></path><rect x="475.67" y="265.29" width="1.45" height="10.68" transform="translate(171.44 725.82) rotate(-85.78)" style="fill:#FF725E"></rect><rect x="456.98" y="241.78" width="77.75" height="6.67" transform="translate(19.13 -35.4) rotate(4.17)" style="fill:#fff"></rect></g><g id="Device"><polygon points="339.68 150.98 339.68 51.78 346.48 57.27 352.03 51.78 357.91 56.62 363.46 51.78 369.02 56.95 375.71 51.78 380.61 56.62 386 51.78 391.39 57.11 397.92 51.78 403.48 56.95 409.36 51.78 415.56 57.11 421.11 51.78 426.5 56.46 432.38 51.78 438.59 56.46 443.98 51.78 443.98 150.98 339.68 150.98" style="fill:#fafafa"></polygon><path d="M339.68,151l1.93,0,5.57,0,21.13-.06,75.67-.11-.22.22c0-28.8,0-62.74,0-99.2l.43.2-5.39,4.67-.16.14-.17-.12L432.22,52h.32l-1.73,1.37-4.15,3.3-.17.14-.16-.15L420.94,52h.35l-5.55,5.33-.17.16-.18-.15L409.19,52h.34l-5.88,5.16-.18.15-.17-.15L397.75,52h.33l-6.53,5.33-.18.14-.16-.16c-1.81-1.79-3.6-3.57-5.39-5.33h.35l-5.39,4.84-.18.15-.16-.16Q378,54.34,375.54,52l.32,0-6.7,5.16-.16.12-.15-.14c-1.88-1.75-3.72-3.47-5.55-5.16h.32l-5.55,4.84-.15.13-.16-.13L351.89,52l.3,0c-1.9,1.89-3.74,3.7-5.55,5.49l-.15.14-.15-.12-6.8-5.5.36-.17c0,29.88-.09,54.65-.12,72,0,8.67,0,15.46,0,20.11,0,2.31,0,4.09,0,5.3s0,1.83,0,1.83,0-.6,0-1.79,0-3,0-5.25c0-4.64,0-11.42-.06-20.06,0-17.35-.06-42.17-.11-72.1v-.45l.36.28,6.8,5.49h-.3l5.55-5.49.15-.15.16.14,5.88,4.83h-.3l5.55-4.84.16-.14.16.15,5.55,5.16h-.31l6.69-5.17.17-.13.16.15,4.9,4.83h-.34l5.38-4.84.18-.16.17.16,5.39,5.33-.34,0,6.53-5.33.17-.14.17.16,5.55,5.16h-.34l5.87-5.16.17-.15.17.15,6.21,5.32h-.35l5.55-5.33.17-.16.18.16c1.79,1.54,3.58,3.1,5.39,4.67h-.33l4.15-3.3,1.73-1.37.16-.13.16.12,6.2,4.68h-.32l5.39-4.67.43-.38v.57c0,36.46,0,70.4,0,99.2v.22H444l-75.81-.11L347.09,151l-5.53,0C340.31,151,339.68,151,339.68,151Z" style="fill:#263238"></path><path d="M393.94,92c0,.15-9.73.27-21.72.27s-21.71-.12-21.71-.27,9.72-.26,21.71-.26S393.94,91.9,393.94,92Z" style="fill:#263238"></path><path d="M393.94,103.36c0,.15-9.73.26-21.72.26s-21.71-.11-21.71-.26,9.72-.26,21.71-.26S393.94,103.22,393.94,103.36Z" style="fill:#263238"></path><path d="M393.94,114.68c0,.14-9.73.26-21.72.26s-21.71-.12-21.71-.26,9.72-.26,21.71-.26S393.94,114.54,393.94,114.68Z" style="fill:#263238"></path><path d="M393.94,126c0,.14-9.73.26-21.72.26s-21.71-.12-21.71-.26,9.72-.26,21.71-.26S393.94,125.85,393.94,126Z" style="fill:#263238"></path><path d="M429.74,91.81a108.59,108.59,0,0,1-15,0,108.59,108.59,0,0,1,15,0Z" style="fill:#263238"></path><path d="M429.74,103.36a108.59,108.59,0,0,1-15,0,108.59,108.59,0,0,1,15,0Z" style="fill:#263238"></path><path d="M429.74,114.91a108.59,108.59,0,0,1-15,0,108.59,108.59,0,0,1,15,0Z" style="fill:#263238"></path><path d="M429.74,126.46a108.59,108.59,0,0,1-15,0,108.59,108.59,0,0,1,15,0Z" style="fill:#263238"></path><polygon points="339.75 137.65 339.75 134.51 443.74 129.79 443.74 138.13 339.75 137.65" style="fill:#ebebeb"></polygon><path d="M444.76,467.31l-111.52-.51a24.29,24.29,0,0,1-24.18-24.4l1.18-279.59a24.3,24.3,0,0,1,24.41-24.19l111.52.52a24.29,24.29,0,0,1,24.18,24.39l-1.18,279.59A24.29,24.29,0,0,1,444.76,467.31Z" style="fill:#263238"></path><path d="M446,148.79l-21.62-.1a5.37,5.37,0,0,0-5.28,5.46v3.92a5.38,5.38,0,0,1-5.28,5.47l-42.14-.2a5.38,5.38,0,0,1-5.23-5.51l0-3.92a5.39,5.39,0,0,0-5.23-5.52l-7.61,0-18.92-.09a17,17,0,0,0-17.09,16.94l-1.16,272.9A17,17,0,0,0,333.4,455.2l111.3.51a17,17,0,0,0,17.09-16.94L463,165.87A17,17,0,0,0,446,148.79Z" style="fill:#fafafa"></path><path d="M383,429.59a2.32,2.32,0,1,1-2.29-2A2.15,2.15,0,0,1,383,429.59Z" style="fill:#455a64"></path><path d="M390.14,429.62a2.33,2.33,0,1,1-2.29-2A2.15,2.15,0,0,1,390.14,429.62Z" style="fill:#455a64"></path><path d="M397.25,429.65a2.32,2.32,0,1,1-2.29-2A2.14,2.14,0,0,1,397.25,429.65Z" style="fill:#455a64"></path><rect x="335.35" y="202.17" width="108.63" height="112.08" rx="8.76" style="fill:#455a64;stroke:#455a64;stroke-miterlimit:10"></rect><text transform="translate(408.68 340.98)" style="font-size:15.518839836120605px;font-family:Montserrat-Bold, Montserrat;font-weight:700">10</text><text transform="translate(427.84 334.8)" style="font-size:6.312300205230713px;fill:#263238;font-family:Montserrat-Bold, Montserrat;font-weight:700">99</text><rect x="427.84" y="336.39" width="7.76" height="0.98" style="fill:#263238"></rect><rect x="341.86" y="333.3" width="40.05" height="1.24" style="fill:#263238"></rect><rect x="341.86" y="337.27" width="24.31" height="1.24" style="fill:#263238"></rect><path d="M428,395.27,348,394.9c-.83,0-1.49-.91-1.49-2l.09-20.94c0-1.11.68-2,1.51-2l80.06.37c.83,0,1.5.9,1.49,2l-.08,20.95C429.53,394.38,428.85,395.27,428,395.27Z" style="fill:#FF725E"></path><g style="opacity:0.5"><path d="M428,395.27,348,394.9c-.83,0-1.49-.91-1.49-2l.09-20.94c0-1.11.68-2,1.51-2l80.06.37c.83,0,1.5.9,1.49,2l-.08,20.95C429.53,394.38,428.85,395.27,428,395.27Z"></path></g><path d="M428,388.56,348,388.19c-.83,0-1.49-.91-1.49-2l.09-20.94c0-1.11.68-2,1.51-2l80.06.37a1.81,1.81,0,0,1,1.49,2l-.08,20.95C429.53,387.66,428.85,388.56,428,388.56Z" style="fill:#FF725E"></path><path d="M384.43,374.38c0,1.34-.94,2.14-2.47,2.13h-1.61v2h-.63l0-6.27H382C383.51,372.23,384.43,373,384.43,374.38Zm-.64,0c0-1-.63-1.58-1.83-1.59h-1.59l0,3.13H382C383.15,375.93,383.79,375.36,383.79,374.38Z" style="fill:#fff"></path><path d="M389.25,376.85l-3.34,0-.73,1.68h-.66l2.77-6.25h.63l2.71,6.28H390Zm-.23-.54-1.42-3.37-1.46,3.36Z" style="fill:#fff"></path><path d="M393.34,376.38v2.16h-.62v-2.17l-2.39-4.11H391l2.05,3.53,2.07-3.51h.63Z" style="fill:#fff"></path><path d="M406.51,276.27a3.08,3.08,0,0,1-.71.05l-2,.05-7.5.08-25.16.08h-.22l0-.22c-.19-1.33-.39-2.74-.59-4.17-1.71-12.23-3.19-23.15-4.12-30.22l.16.15-6.7-.08-1.78,0a3,3,0,0,1-.62,0,3.69,3.69,0,0,1,.62,0l1.78-.05,6.7-.07h.14l0,.15c1,7.05,2.61,18,4.32,30.19.2,1.43.39,2.84.58,4.17l-.26-.23,25.16.09,7.5.08,2,0A5.79,5.79,0,0,1,406.51,276.27Z" style="fill:#fff"></path><path d="M370.1,268.94l.7,0,2,0,7.57-.07,26.12-.1-.25.21c.77-4.39,1.61-9.15,2.48-14.07.44-2.53.88-5,1.3-7.38l.26.3-30.78-.09-9.11-.07-2.46-.05-.63,0-.22,0,.22,0,.63,0,2.46,0,9.11-.08,30.78-.08h.3l-.05.3c-.42,2.37-.86,4.85-1.3,7.38-.87,4.92-1.72,9.67-2.5,14.07l0,.2h-.21l-26.12-.09-7.57-.07-2,0A3.81,3.81,0,0,1,370.1,268.94Z" style="fill:#fff"></path><path d="M380,285.88c-.05,0-.05-.32-.21-.84a3.55,3.55,0,0,0-1.3-1.83,3.32,3.32,0,1,0,0,5.33,3.54,3.54,0,0,0,1.3-1.82c.16-.53.16-.84.21-.84a1.8,1.8,0,0,1,0,.89,3.54,3.54,0,0,1-1.28,2.07,3.71,3.71,0,0,1-3.54.59,3.77,3.77,0,0,1,0-7.1,3.71,3.71,0,0,1,3.54.59A3.54,3.54,0,0,1,380,285,1.82,1.82,0,0,1,380,285.88Z" style="fill:#fff"></path><path d="M402.74,285.88c-.05,0-.05-.32-.21-.84a3.5,3.5,0,0,0-1.3-1.83,3.32,3.32,0,1,0,0,5.33,3.48,3.48,0,0,0,1.3-1.82c.16-.53.16-.84.21-.84a1.8,1.8,0,0,1,0,.89,3.54,3.54,0,0,1-1.28,2.07,3.71,3.71,0,0,1-3.54.59,3.77,3.77,0,0,1,0-7.1,3.71,3.71,0,0,1,3.54.59,3.54,3.54,0,0,1,1.28,2.07A1.82,1.82,0,0,1,402.74,285.88Z" style="fill:#fff"></path><circle cx="408.36" cy="243.91" r="10.1" style="fill:#FF725E"></circle><path d="M413.42,241.26a50.32,50.32,0,0,1-4.7,5.34l-1.45,1.51-.16.18-.18-.16a28.52,28.52,0,0,1-3.62-3.48,31.46,31.46,0,0,1,3.95,3.11h-.35c.46-.48.94-1,1.43-1.53A47.77,47.77,0,0,1,413.42,241.26Z" style="fill:#263238"></path></g><g id="Character"><path d="M303.84,168c-.13.35-3.16,28.11-3.16,28.11L312.39,194l3-22.94Z" style="fill:#455a64"></path><polygon points="300.68 196.1 299.8 195.58 302.46 167.61 303.8 167.99 300.68 196.1" style="fill:#263238"></polygon><circle cx="309.44" cy="172.26" r="0.54" style="fill:#263238"></circle><path d="M293.65,211.07l22.46,5.84L312.68,189h0l-.46-1.27L304,186.46l1-6.08a5,5,0,0,1,6.14-3.9l2.7.72a7,7,0,0,1,4.45,3.58c1.56,3.06,3.09,6.4,2.94,6.11h0l12.05,32.68a12.35,12.35,0,0,1-1.34,13.17c-3.88,5-13.25,1.53-17.67.68l-28.77-6.34Z" style="fill:#c67761"></path><path d="M208.38,259.55a15.38,15.38,0,0,1,.07-20.25L233,211.45l6.57,18.38c-.45.3-19.12,20.31-19.12,20.31l16,20a11.49,11.49,0,0,1,1.9,10.94l-.72,2.95a7.07,7.07,0,0,1-9.77,4.76l-4.51-2a1,1,0,0,1-.41-1.39h0a.94.94,0,0,1,.8-.44h6.11a2.77,2.77,0,0,0,2.7-2.11h0Z" style="fill:#c67761"></path><path d="M217,246.57a9,9,0,0,1,2.15,1.83,6.06,6.06,0,0,1,1.72,2.26,10.92,10.92,0,0,1-2.09-1.89A7.1,7.1,0,0,1,217,246.57Z" style="fill:#9b4e3d"></path><path d="M222.85,451.06s25.21-80.1,25.75-82.7c.48-2.35-9.15-60-10.37-74.91l34.08,1.27V295l14.49.8-13,163.82H258.14l1.56-54.35c-9.67,26-23.53,52.41-23.53,52.41Z" style="fill:#c67761"></path><path d="M259.06,424.72c0-.5.19-18.21.19-18.21s6.92-19.7,7.06-19.2S259.06,424.72,259.06,424.72Z" style="fill:#9b4e3d"></path><path d="M246.57,170c-1.81-2.5-5.91-2.33-8.22-.28s-3.11,5.33-3.2,8.42c-.08,2.87.12,6.29-2.19,8a25,25,0,0,1-3.14,1.48,5.73,5.73,0,0,0-2.9,5c0,1.52.62,3.28-.39,4.44a7.41,7.41,0,0,1-1.94,1.22,6,6,0,0,0-2.47,5.61,10.9,10.9,0,0,0,1.42,4.83s16.18-.16,23.54,0c0,0-.13-25.94-.51-38.72" style="fill:#263238"></path><path d="M272.81,203.33c-.05-1.82.49-9.06.49-9.06s6.75-.66,7.23-7.51.23-22.66.23-22.66l-12.2-6.29L255,168.16l1.36,35.24Z" style="fill:#c67761"></path><path d="M279.3,175.61a.85.85,0,0,1-.86.86.88.88,0,0,1,0-1.75A.86.86,0,0,1,279.3,175.61Z" style="fill:#263238"></path><path d="M280.14,174.66c-.11.11-.74-.45-1.66-.51s-1.61.39-1.71.26.07-.26.38-.47a2.19,2.19,0,0,1,1.37-.36,2.21,2.21,0,0,1,1.31.55C280.11,174.39,280.19,174.61,280.14,174.66Z" style="fill:#263238"></path><path d="M269.4,175.5a.87.87,0,0,1-.87.87.88.88,0,0,1,0-1.75A.87.87,0,0,1,269.4,175.5Z" style="fill:#263238"></path><path d="M269.94,174.55c-.11.11-.74-.44-1.66-.5s-1.62.38-1.71.26.07-.27.37-.48a2.16,2.16,0,0,1,1.38-.35,2.21,2.21,0,0,1,1.31.55C269.9,174.28,270,174.5,269.94,174.55Z" style="fill:#263238"></path><path d="M273.17,182.57a5.31,5.31,0,0,1,1.51-.19c.24,0,.46,0,.51-.22a1.33,1.33,0,0,0-.13-.75c-.19-.63-.39-1.28-.61-2a36.48,36.48,0,0,1-1.34-5.12,35.61,35.61,0,0,1,1.72,5c.2.69.4,1.35.58,2a1.5,1.5,0,0,1,.08,1,.56.56,0,0,1-.4.34,1.46,1.46,0,0,1-.4,0A6,6,0,0,1,273.17,182.57Z" style="fill:#263238"></path><path d="M273.3,194.27a16.32,16.32,0,0,1-8.82-3.16s2,5.06,8.66,4.84Z" style="fill:#9b4e3d"></path><path d="M245.34,174.61c.07-.48-.07.53,0-.23h0a25.41,25.41,0,0,1,.44-2.77c3.79-14.26,16.06-16.8,18.49-16.77,2.59,0,10-.19,14.16,5a13.58,13.58,0,0,1,2.36,13.61h0L270,171.5c.8-2.69-.3-6.06-.93-7.63l-.06-.06C267,174.05,255.93,175,255.93,175l-.14,16.36c-8-1.16-10.64-10.81-10.45-16.75Z" style="fill:#263238"></path><path d="M252.71,176a4.38,4.38,0,0,1,1,.07,14.64,14.64,0,0,0,2.62,0,13.91,13.91,0,0,0,3.76-.82,13,13,0,0,0,7-6,14,14,0,0,0,1.41-3.59,29.86,29.86,0,0,0,.47-3.56,3.19,3.19,0,0,1,.12,1,11.94,11.94,0,0,1-.23,2.67,13.65,13.65,0,0,1-1.35,3.74,13.25,13.25,0,0,1-11.18,6.95,11.28,11.28,0,0,1-2.66-.19A3.07,3.07,0,0,1,252.71,176Z" style="fill:#263238"></path><path d="M256.05,182.58c.07-1,.54-3.49.2-4.46s-1.42-1.19-2.61-1.18a2.67,2.67,0,0,0-2.57,2.56,3.49,3.49,0,0,0,1.45,3,3.94,3.94,0,0,0,3.42.2" style="fill:#c67761"></path><path d="M254.77,181.23c0-.07-.34.08-.77-.07a1.4,1.4,0,0,1-.89-1.34,1,1,0,0,1,.25-.81,1,1,0,0,1,.67-.19c.47.06.79.19.82.11s-.2-.29-.75-.46a1.21,1.21,0,0,0-1,.17,1.41,1.41,0,0,0-.46,1.2A1.88,1.88,0,0,0,253,181a1.42,1.42,0,0,0,.89.51C254.53,181.59,254.82,181.27,254.77,181.23Z" style="fill:#9b4e3d"></path><path d="M251.91,182.41a4.15,4.15,0,0,0-.13,1.11,1.52,1.52,0,0,0,.51,1,1.53,1.53,0,0,0,2.35-.32,1.5,1.5,0,0,0,.23-1.08c-.1-.67-.47-1-.41-1s.53.17.77,1a1.79,1.79,0,0,1-.18,1.4,1.94,1.94,0,0,1-3.09.42,1.8,1.8,0,0,1-.54-1.3C251.43,182.71,251.88,182.36,251.91,182.41Z" style="fill:#455a64"></path><path d="M247,178.72a3.23,3.23,0,0,1-.94-1.2,8.71,8.71,0,0,1-.54-7.15,3.1,3.1,0,0,1,.76-1.32,14.11,14.11,0,0,0-.75,4.91A14.41,14.41,0,0,0,247,178.72Z" style="fill:#455a64"></path><path d="M219.75,205.86a2.76,2.76,0,0,1-.27-.45,5.24,5.24,0,0,1-.4-1.44,6,6,0,0,1,.21-2.37A5.5,5.5,0,0,1,221,199c.9-.8,2.2-1.15,3-2.11a2.66,2.66,0,0,0,.56-1.8,17.88,17.88,0,0,0-.3-2.17,5.48,5.48,0,0,1,.07-2.41,5.35,5.35,0,0,1,1.31-2.16,17.21,17.21,0,0,1,4.27-2.9,8.08,8.08,0,0,0,3.58-3.31,11.37,11.37,0,0,0,.54-4.59,10.22,10.22,0,0,1,3-7.43,7.48,7.48,0,0,1,5-2,6,6,0,0,1,1.48.2,1.6,1.6,0,0,1,.49.19,9.67,9.67,0,0,0-2-.18,7.42,7.42,0,0,0-4.78,2.07,10,10,0,0,0-2.79,7.16,11.73,11.73,0,0,1-.56,4.8,8.5,8.5,0,0,1-3.78,3.55,17.13,17.13,0,0,0-4.16,2.8,4.37,4.37,0,0,0-1.27,4.15,16.78,16.78,0,0,1,.28,2.23,3.1,3.1,0,0,1-.69,2.09c-1,1.08-2.31,1.38-3.14,2.11a5.32,5.32,0,0,0-1.66,2.45,6,6,0,0,0-.29,2.26A8.45,8.45,0,0,0,219.75,205.86Z" style="fill:#263238"></path><path d="M270.42,183.13a1.9,1.9,0,0,1,1.46,0,1.48,1.48,0,0,1,.86,1.15,1.22,1.22,0,0,1-.68,1.23,1.54,1.54,0,0,1-1.39-.16,1.63,1.63,0,0,1-.83-1,1,1,0,0,1,.59-1.12" style="fill:#9b4e3d"></path><path d="M269.76,181.85c.15,0,.45,1.24,1.64,2.12a8,8,0,0,0,2.5,1c0,.07-.31.18-.85.16a3.65,3.65,0,0,1-2-.71,3.6,3.6,0,0,1-1.24-1.68C269.68,182.2,269.7,181.86,269.76,181.85Z" style="fill:#263238"></path><path d="M241,204.91c-3.89,1-6.07,2.2-11.87,8.49l-15.54,17.45,21.35,15.53,8.74-11.87,1.86,26s-4.84,5.94-9.13,22.47c-3.47,13.37-3.79,27-4.78,37.37L229,385.64l60.8,1.66s-2.28-19.33-1.19-60.52c.62-23.42-3.17-46.84-5.22-53.32l-3.13-16.95a15.45,15.45,0,0,1,2.66-8.74c4.93-6.94,1.42-15.14,1.42-15.14l16.23,6,10.71-24.16-22.15-8.35c-8-3.31-17.53-2.83-17.53-2.83l-16.87-.2s-7.92-.61-13.72,1.81" style="fill:#FF725E"></path><path d="M274.12,460.4v-1.48l-16.06-.7,0,6.08,1,.07c4.41.25,22.43,1,25.39.11C287.69,463.5,274.12,460.4,274.12,460.4Z" style="fill:#FF725E"></path><g style="opacity:0.5"><path d="M263.81,464.19a5.48,5.48,0,0,0-2-3.41,5.37,5.37,0,0,0-3.73-1.18v4.47Z" style="fill:#fff"></path></g><g style="opacity:0.5"><path d="M280.75,462.15s4.75,1.38,4.16,2.17-18.85.71-26.89,0l0-.36,21.28.26S279.82,462.18,280.75,462.15Z" style="fill:#fff"></path></g><path d="M257.79,463.93l.28,0,.79.05,2.9.14c2.45.09,5.85.18,9.59.2s7.14,0,9.59-.12l2.91-.11.79,0,.27,0h-1.06l-2.91,0c-2.45.05-5.84.08-9.59.07s-7.13-.09-9.58-.15l-2.91-.07-.79,0Z" style="fill:#263238"></path><path d="M279.32,464.45a6.81,6.81,0,0,1,.55-1.39,7.17,7.17,0,0,1,1-1.1,2.18,2.18,0,0,0-1.16,1A2.13,2.13,0,0,0,279.32,464.45Z" style="fill:#263238"></path><path d="M274.61,462c.05,0,.28-.25.51-.61s.39-.69.34-.72-.27.25-.5.61A1.76,1.76,0,0,0,274.61,462Z" style="fill:#263238"></path><path d="M273.32,461.35s.29-.13.57-.37.47-.48.43-.52-.28.13-.56.37S273.29,461.31,273.32,461.35Z" style="fill:#263238"></path><path d="M272.51,459.84a2,2,0,0,0,.83.11c.47,0,.84,0,.84-.09a2,2,0,0,0-.83-.11A2,2,0,0,0,272.51,459.84Z" style="fill:#263238"></path><path d="M272.23,458.77a1.61,1.61,0,0,0,.93.28,1.64,1.64,0,0,0,1-.13,5.83,5.83,0,0,0-.94-.06A6,6,0,0,0,272.23,458.77Z" style="fill:#263238"></path><path d="M275.16,460.65a3,3,0,0,0,1,0,5.77,5.77,0,0,0,1.09-.23,3.24,3.24,0,0,0,.63-.26.61.61,0,0,0,.26-.32.41.41,0,0,0-.16-.41,1.88,1.88,0,0,0-2.33.55,1.94,1.94,0,0,0-.34.68c0,.17,0,.27,0,.28a2.67,2.67,0,0,1,.47-.88,1.77,1.77,0,0,1,.88-.56,1.57,1.57,0,0,1,1.22.08c.16.12.1.32-.08.42a3,3,0,0,1-.58.25,6.88,6.88,0,0,1-1.06.27C275.55,460.62,275.16,460.62,275.16,460.65Z" style="fill:#263238"></path><path d="M275.43,460.7a1.09,1.09,0,0,0,.12-.71,1.74,1.74,0,0,0-.28-.75,1,1,0,0,0-.85-.53.4.4,0,0,0-.32.47,1.19,1.19,0,0,0,.17.46,2.74,2.74,0,0,0,.49.62,1.45,1.45,0,0,0,.58.42s-.2-.18-.48-.51a3.19,3.19,0,0,1-.43-.62c-.14-.21-.24-.6,0-.65s.52.23.68.44a1.66,1.66,0,0,1,.28.67A4.53,4.53,0,0,1,275.43,460.7Z" style="fill:#263238"></path><path d="M258.14,459.56s.45,0,1.18.05a5.07,5.07,0,0,1,2.57,1.07,5.12,5.12,0,0,1,1.6,2.28c.24.68.26,1.14.3,1.14a.9.9,0,0,0,0-.32,4.32,4.32,0,0,0-.17-.87,4.87,4.87,0,0,0-4.29-3.44,4,4,0,0,0-.88,0A1,1,0,0,0,258.14,459.56Z" style="fill:#263238"></path><path d="M265.83,462.66a9.3,9.3,0,0,0,2.33.22,9,9,0,0,0,2.34-.2c0-.05-1.05,0-2.34,0S265.83,462.6,265.83,462.66Z" style="fill:#263238"></path><path d="M262.7,462.62s.08.23.19.47.16.45.22.44.08-.25-.05-.52S262.73,462.59,262.7,462.62Z" style="fill:#263238"></path><path d="M261.52,461.15s.07.2.23.37.33.28.37.24-.07-.2-.23-.37S261.56,461.11,261.52,461.15Z" style="fill:#263238"></path><path d="M259.84,460.47c0,.06.22.06.45.14s.41.21.45.17-.09-.25-.38-.35S259.82,460.42,259.84,460.47Z" style="fill:#263238"></path><path d="M258.63,460.15c0,.05.08.13.21.19s.25.05.27,0-.07-.13-.2-.18S258.65,460.1,258.63,460.15Z" style="fill:#263238"></path><path d="M236.49,459l.6-1.34-14.36-7.22-2.53,5.52.88.47c3.91,2,20,10.11,23.11,10.51C247.59,467.36,236.49,459,236.49,459Z" style="fill:#FF725E"></path><g style="opacity:0.5"><path d="M225.53,458.22a5.58,5.58,0,0,0-.45-4,5.36,5.36,0,0,0-2.93-2.59l-1.84,4.06Z" style="fill:#fff"></path></g><g style="opacity:0.5"><path d="M241.82,463.29s3.77,3.21,2.9,3.68-17.48-7.06-24.52-11l.17-.31,19.31,8.95S241,462.94,241.82,463.29Z" style="fill:#fff"></path></g><path d="M220.15,455.52l.23.14.7.37,2.6,1.31c2.19,1.09,5.25,2.56,8.66,4.11s6.53,2.89,8.8,3.82l2.7,1.09.73.29a1,1,0,0,0,.27.08l-.25-.12-.73-.32-2.67-1.14c-2.25-1-5.36-2.32-8.77-3.87s-6.47-3-8.68-4.06L221.12,456l-.72-.34Z" style="fill:#263238"></path><path d="M239.57,464.81a6.59,6.59,0,0,1,1.07-1,6.8,6.8,0,0,1,1.36-.61,2.24,2.24,0,0,0-1.47.45A2.12,2.12,0,0,0,239.57,464.81Z" style="fill:#263238"></path><path d="M236.27,460.68c0,.05.34-.11.71-.35s.63-.47.6-.51-.34.11-.71.35S236.24,460.64,236.27,460.68Z" style="fill:#263238"></path><path d="M235.37,459.52c0,.06.32,0,.67-.11s.62-.24.61-.29-.32,0-.67.11S235.35,459.47,235.37,459.52Z" style="fill:#263238"></path><path d="M235.25,457.81c0,.05.3.25.71.44a1.85,1.85,0,0,0,.8.27s-.3-.25-.71-.44A1.85,1.85,0,0,0,235.25,457.81Z" style="fill:#263238"></path><path d="M235.43,456.73a1.72,1.72,0,0,0,.74.63,1.61,1.61,0,0,0,.92.28c0-.06-.38-.2-.83-.45A4.63,4.63,0,0,0,235.43,456.73Z" style="fill:#263238"></path><path d="M237.34,459.64a2.87,2.87,0,0,0,.93.41,5.83,5.83,0,0,0,1.1.24,3.72,3.72,0,0,0,.68,0,.54.54,0,0,0,.36-.19.4.4,0,0,0,0-.43,1.87,1.87,0,0,0-2.35-.46,1.8,1.8,0,0,0-.59.48.6.6,0,0,0-.14.24,2.94,2.94,0,0,1,.79-.6,1.87,1.87,0,0,1,1-.16,1.57,1.57,0,0,1,1.08.58c.1.18,0,.33-.25.35a3.22,3.22,0,0,1-.62,0,6.84,6.84,0,0,1-1.08-.19C237.71,459.77,237.35,459.61,237.34,459.64Z" style="fill:#263238"></path><path d="M237.56,459.79s.25-.16.4-.6a1.6,1.6,0,0,0,0-.8,1,1,0,0,0-.56-.83c-.23-.07-.76.39-.8.57s.27.08.29.22a3,3,0,0,0,.18.77,1.4,1.4,0,0,0,.37.62s-.12-.25-.24-.66a4.44,4.44,0,0,1-.14-.74c0-.26,0-.65.29-.59s.38.43.44.68a1.72,1.72,0,0,1,0,.72A3.59,3.59,0,0,1,237.56,459.79Z" style="fill:#263238"></path><path d="M222.25,451.67s.43.15,1.06.52a5.12,5.12,0,0,1,1.9,2,5,5,0,0,1,.53,2.73c-.06.73-.23,1.16-.19,1.17a1.13,1.13,0,0,0,.13-.3,4.11,4.11,0,0,0,.2-.85,5,5,0,0,0-.49-2.84,4.88,4.88,0,0,0-2-2.06,4.32,4.32,0,0,0-.8-.35A1.24,1.24,0,0,0,222.25,451.67Z" style="fill:#263238"></path><path d="M228,457.65a9,9,0,0,0,2,1.16,8.67,8.67,0,0,0,2.21.77c0-.05-1-.42-2.13-.95S228,457.6,228,457.65Z" style="fill:#263238"></path><path d="M225.15,456.33c-.05,0,0,.24,0,.5s0,.48,0,.5.18-.19.18-.5S225.2,456.31,225.15,456.33Z" style="fill:#263238"></path><path d="M224.69,454.51c-.05,0,0,.21.05.43s.19.39.24.37,0-.21-.06-.44S224.74,454.49,224.69,454.51Z" style="fill:#263238"></path><path d="M223.43,453.2c0,.05.18.14.36.31s.28.36.33.34,0-.27-.2-.48S223.43,453.15,223.43,453.2Z" style="fill:#263238"></path><path d="M222.46,452.41s0,.15.11.26.21.15.25.11,0-.15-.11-.25S222.5,452.38,222.46,452.41Z" style="fill:#263238"></path><path d="M320.38,221.12a9.2,9.2,0,0,1-2.26-2.11,9.48,9.48,0,0,1-1.87-2.46,9.61,9.61,0,0,1,2.26,2.11A9.3,9.3,0,0,1,320.38,221.12Z" style="fill:#9b4e3d"></path><path d="M295.82,208.73a3.15,3.15,0,0,1-.63.05l-1.8.05-6.61.08-21.84.08-21.83-.08-6.62-.08-1.8-.05a3.15,3.15,0,0,1-.63-.05,2.42,2.42,0,0,1,.63,0l1.8-.05,6.62-.09,21.83-.07,21.84.07,6.61.09,1.8.05A2.42,2.42,0,0,1,295.82,208.73Z" style="fill:#263238"></path><path d="M309.46,218.36a5.82,5.82,0,0,1-.86,0l-2.47.05-9.07.08-29.92.08-29.94-.08-9.07-.08-2.46-.05a5.65,5.65,0,0,1-.86,0,4.35,4.35,0,0,1,.86-.05l2.46-.05,9.07-.09,29.94-.07,29.92.07,9.07.09,2.47.05A4.46,4.46,0,0,1,309.46,218.36Z" style="fill:#263238"></path><path d="M302.78,229.89a6,6,0,0,1-.89.05l-2.56.05-9.41.08-31.05.08-31.06-.08L218.4,230l-2.56-.05a6.22,6.22,0,0,1-.89-.05,4.77,4.77,0,0,1,.89,0l2.56-.05,9.41-.09,31.06-.07,31.05.07,9.41.09,2.56.05A4.65,4.65,0,0,1,302.78,229.89Z" style="fill:#263238"></path><path d="M284.78,241.72a8.9,8.9,0,0,1-1.6.1l-4.36.08c-3.68,0-8.76.08-14.37.08s-10.7,0-14.37-.08l-4.36-.08a8.9,8.9,0,0,1-1.6-.1,8.9,8.9,0,0,1,1.6-.1l4.36-.08c3.67,0,8.76-.08,14.37-.08s10.69,0,14.37.08l4.36.08A8.9,8.9,0,0,1,284.78,241.72Z" style="fill:#263238"></path><path d="M280.56,253.3a6.68,6.68,0,0,1-1.39.1l-3.8.08c-3.2.05-7.63.08-12.52.08s-9.33,0-12.53-.08l-3.8-.08a6.68,6.68,0,0,1-1.39-.1,6.68,6.68,0,0,1,1.39-.1l3.8-.08c3.2-.05,7.63-.08,12.53-.08s9.32,0,12.52.08l3.8.08A6.68,6.68,0,0,1,280.56,253.3Z" style="fill:#263238"></path><path d="M282.79,247.83a7.78,7.78,0,0,1-1.5.1l-4.07.09c-3.44,0-8.19.07-13.44.07s-10,0-13.45-.07l-4.07-.09a7.72,7.72,0,0,1-1.49-.1,8.91,8.91,0,0,1,1.49-.1l4.07-.08c3.44-.05,8.2-.08,13.45-.08s10,0,13.44.08l4.07.08A9,9,0,0,1,282.79,247.83Z" style="fill:#263238"></path><path d="M285.24,236a10.64,10.64,0,0,1-1.63.1l-4.44.08c-3.76.05-8.94.08-14.66.08s-10.92,0-14.67-.08l-4.44-.08a10.64,10.64,0,0,1-1.63-.1,9.22,9.22,0,0,1,1.63-.1l4.44-.09c3.75,0,8.94-.07,14.67-.07s10.9,0,14.66.07l4.44.09A9.22,9.22,0,0,1,285.24,236Z" style="fill:#263238"></path><path d="M242.6,235.94a18.66,18.66,0,0,1-3.23.19c-2,.05-4.75.07-7.8.07s-5.8,0-7.79-.07a18.66,18.66,0,0,1-3.23-.19,20.93,20.93,0,0,1,3.23-.18c2,0,4.75-.08,7.79-.08s5.81,0,7.8.08A20.93,20.93,0,0,1,242.6,235.94Z" style="fill:#263238"></path><path d="M302.09,235.32a57.36,57.36,0,0,1-10.91,0,57.36,57.36,0,0,1,10.91,0Z" style="fill:#263238"></path><path d="M306.16,223.91a8.56,8.56,0,0,1-.88.05l-2.52,0-9.26.08-30.56.08-30.56-.08-9.26-.08-2.52,0a8.47,8.47,0,0,1-.87-.05,4.93,4.93,0,0,1,.87-.06l2.52,0,9.26-.08,30.56-.07,30.56.07,9.26.08,2.52,0A5,5,0,0,1,306.16,223.91Z" style="fill:#263238"></path><path d="M307.83,213.15a5.06,5.06,0,0,1-.8,0l-2.29.05-8.43.08-27.8.08-27.81-.08-8.42-.08-2.3-.05a4.83,4.83,0,0,1-.79,0,3.71,3.71,0,0,1,.79-.05l2.3,0,8.42-.09,27.81-.07,27.8.07,8.43.09,2.29,0A3.87,3.87,0,0,1,307.83,213.15Z" style="fill:#263238"></path></g><g id="speech-bubble"><path d="M153.05,141.55s-.05-.21-.11-.64-.14-1.08-.26-1.91c0-.41-.14-.88-.16-1.4s0-1.09,0-1.71-.06-1.29,0-2,.11-1.46.17-2.26a36.3,36.3,0,0,1,12-23.77l1.64-1.44c.59-.45,1.2-.87,1.81-1.31a37.84,37.84,0,0,1,18.2-6.6c.87-.1,1.76-.06,2.64-.1l1.34,0c.45,0,.9.07,1.35.1a35.07,35.07,0,0,1,10.83,2.37,36.92,36.92,0,0,1,18.14,14.94,37.62,37.62,0,0,1,5.23,24.64c-.08.56-.18,1.12-.28,1.68l0-.2,11.77,16.36.35.5-.6-.1L219.6,156l.24-.11a36.66,36.66,0,0,1-21.66,15.21,29.43,29.43,0,0,1-4.08.74l-2,.24c-.67.08-1.34,0-2,.07a36.58,36.58,0,0,1-14.59-2.65,37.42,37.42,0,0,1-10.8-6.73l-2.06-2-1.76-2a18.52,18.52,0,0,1-1.52-2c-.46-.68-1-1.29-1.33-1.95a37.67,37.67,0,0,1-3.34-7l-.87-2.66c-.17-.79-.31-1.45-.43-2l-.25-1.22c-.05-.27-.07-.42-.07-.42l.11.41.3,1.21c.12.54.28,1.2.46,2l.9,2.63a37.64,37.64,0,0,0,3.39,6.9c.37.66.88,1.26,1.33,1.93a21,21,0,0,0,1.53,2l1.76,2,2,1.92a37.28,37.28,0,0,0,10.74,6.62,36.28,36.28,0,0,0,14.44,2.57c.66,0,1.32,0,2-.07l2-.25a27.17,27.17,0,0,0,4-.75,36.31,36.31,0,0,0,8-3,36.78,36.78,0,0,0,13.41-12l.09-.13.16,0,17.38,2.69-.25.4L225,142.21l-.07-.09,0-.11q.15-.82.27-1.65a37,37,0,0,0-5.14-24.3,36.54,36.54,0,0,0-17.88-14.77,34.83,34.83,0,0,0-10.69-2.35c-.45,0-.89-.09-1.33-.1l-1.32,0c-.88,0-1.76,0-2.62.09a37.55,37.55,0,0,0-5,.79,36.3,36.3,0,0,0-9.08,3.29,35.75,35.75,0,0,0-3.89,2.39c-.6.44-1.21.85-1.79,1.3l-1.63,1.42a36.1,36.1,0,0,0-9,12.31,36.75,36.75,0,0,0-3,11.2c-.07.79-.13,1.54-.19,2.25s0,1.37,0,2,0,1.18,0,1.7.1,1,.14,1.4c.09.83.16,1.46.21,1.91S153.05,141.55,153.05,141.55Z" style="fill:#263238"></path><polygon points="177.25 121.25 172.86 154.51 205.37 154.51 200.64 121.25 177.25 121.25" style="fill:#455a64"></polygon><path d="M198,126.08a2.47,2.47,0,0,1-.19,1,9.46,9.46,0,0,1-1.17,2.39,8.68,8.68,0,0,1-2.9,2.71,9.52,9.52,0,0,1-4.71,1.19,9.71,9.71,0,0,1-4.73-1.09,7.68,7.68,0,0,1-2.87-2.74,8.67,8.67,0,0,1-1.06-2.45,2.31,2.31,0,0,1-.13-1,13.5,13.5,0,0,0,1.49,3.21,7.78,7.78,0,0,0,2.79,2.53,9.59,9.59,0,0,0,4.5,1,9.26,9.26,0,0,0,4.49-1.09,8.65,8.65,0,0,0,2.83-2.5A16.23,16.23,0,0,0,198,126.08Z" style="fill:#fff"></path></g></svg>