<svg xmlns="http://www.w3.org/2000/svg" viewBox="0 0 500 500"><g id="background-complete"><rect y="382.4" width="500" height="0.25" style="fill:#ebebeb"></rect><rect x="416.78" y="398.49" width="33.12" height="0.25" style="fill:#ebebeb"></rect><rect x="322.53" y="401.21" width="8.69" height="0.25" style="fill:#ebebeb"></rect><rect x="396.59" y="389.21" width="19.19" height="0.25" style="fill:#ebebeb"></rect><rect x="52.46" y="390.89" width="43.19" height="0.25" style="fill:#ebebeb"></rect><rect x="104.56" y="390.89" width="6.33" height="0.25" style="fill:#ebebeb"></rect><rect x="131.47" y="395.11" width="93.68" height="0.25" style="fill:#ebebeb"></rect><path d="M237,337.8H43.91a5.71,5.71,0,0,1-5.7-5.71V60.66A5.71,5.71,0,0,1,43.91,55H237a5.71,5.71,0,0,1,5.71,5.71V332.09A5.71,5.71,0,0,1,237,337.8ZM43.91,55.2a5.46,5.46,0,0,0-5.45,5.46V332.09a5.46,5.46,0,0,0,5.45,5.46H237a5.47,5.47,0,0,0,5.46-5.46V60.66A5.47,5.47,0,0,0,237,55.2Z" style="fill:#ebebeb"></path><path d="M453.31,337.8H260.21a5.72,5.72,0,0,1-5.71-5.71V60.66A5.72,5.72,0,0,1,260.21,55h193.1A5.71,5.71,0,0,1,459,60.66V332.09A5.71,5.71,0,0,1,453.31,337.8ZM260.21,55.2a5.47,5.47,0,0,0-5.46,5.46V332.09a5.47,5.47,0,0,0,5.46,5.46h193.1a5.47,5.47,0,0,0,5.46-5.46V60.66a5.47,5.47,0,0,0-5.46-5.46Z" style="fill:#ebebeb"></path><rect x="200.95" y="84.62" width="90.9" height="113.34" style="fill:#f5f5f5"></rect><path d="M217.6,99.41c11.45-8.2,11.48-12.7,19.68-3.51s13.91,20.31,28.79,14.51,23.17,9.21,13.64,23-6,32.69,0,41.72,3.22,21.2-6.4,14.39-22.64-6.8-31.95-2-20.2,16.67-19.37-4.08-9.84-14.25-12.59-24.74,10.52-3.84,8.2-26.82S207.45,106.69,217.6,99.41Z" style="fill:#e0e0e0"></path><path d="M273.6,95.9c-13.92-6.17-19.82-9.21-26.34,4.54s-19.66,32.05-29.14,27-6.61,18,11.6,12.22,22.6-2.86,29,11,4.89,21.6,12.62,16.54-2.94-20.64,1.44-33.22S286.1,101.44,273.6,95.9Z" style="fill:#ebebeb"></path><path d="M224.82,166.09c5.61-10.77-2-28,12.68-20.76s8.53,35,21.15,28.42,4.07-25.57,14.84-26.5,9.6,41.43-6.11,42.29-29.27-13.09-34-8.27-17.93,15.84-20.67,2.19S220.5,174.35,224.82,166.09Z" style="fill:#ebebeb"></path><rect x="316.28" y="82.04" width="88.34" height="118.49" transform="translate(720.89 282.57) rotate(180)" style="fill:#f5f5f5"></rect><path d="M328.75,93.94c2.55-4.74,65.76,19.09,64.06,24.24s-49.39,9.42-53.59,16.39,50.51,16.26,49.52,21S336,156.09,335,160.8s54.54,12.89,50.84,20-49.81,2-54.88-10,22.84-11.18,23.64-19.13-29.75-9.5-25.87-22.27,44-3.56,40.26-14.7S323.91,102.91,328.75,93.94Z" style="fill:#e6e6e6"></path><path d="M377.1,94.58c8.25-1.94,17.78,12.81,8,9.51S368.85,96.51,377.1,94.58Z" style="fill:#ebebeb"></path><path d="M339.87,113.23c.41-4.11-11.76-3.38-11.9,0S339.44,117.52,339.87,113.23Z" style="fill:#ebebeb"></path><path d="M385.86,138c-4.46-7.35-17.57-4.17-17.43-.78S390.67,145.91,385.86,138Z" style="fill:#ebebeb"></path><rect x="89.47" y="82.04" width="88.34" height="118.49" style="fill:#f5f5f5"></rect><path d="M105.91,168.55S97.57,104,102.72,96.27s15.73,20.19,17.63,13.65,3.1-20.46,9.93-19.25,4.43,13.22,9.71,13.69S151.72,89,154,90.67s.37,12.75,4.68,13.69,3.13-10.75,8.75-7.06-3.26,71.25-3.26,71.25,3.37-53.18-2.5-53.18-8.26,16.51-12.1,8.73.4-13.39-2.19-14.18-8,13.14-12,11.21-2.33-9.94-5.09-11.21,7.73,19-7.58,14.35-12.84-17.26-15-12.6S105.91,168.55,105.91,168.55Z" style="fill:#ebebeb"></path><path d="M151.22,150.92c-6-7.92-9.78,7.42-16.58,12.47s-4.38-18.64-13.15-13.09-2.52,19.89-8.33,24.22-4.84,19.86,1.68,11.92,6.4-28.9,11.31-15.54,7.06,26.39,11.38,14.84.52-29.18,6.91-19.11,6.54,23.66,12.94,18.12-3.82-9.09-3.57-15.22S153.75,154.27,151.22,150.92Z" style="fill:#ebebeb"></path><path d="M411.56,348.59c.15-1,3.65-25.17-3.36-33.51a7.59,7.59,0,0,0-5.82-2.87c-14.15-.33-16.09,11-16.11,11.15l1.67.26c.07-.41,1.75-10,14.4-9.72a5.93,5.93,0,0,1,4.57,2.27c6.53,7.76,3,31.93,3,32.17Z" style="fill:#ebebeb"></path><path d="M412.42,347.49l1.68-.06c0-.22-.56-22.24,10.3-26.8,10.63-4.45,15.42,4.71,15.62,5.1l1.51-.76c-.06-.11-5.67-11-17.79-5.89C411.82,324.08,412.39,346.53,412.42,347.49Z" style="fill:#ebebeb"></path><path d="M412.37,349.22c0-.35.1-35.19,6.89-45.38,6.52-9.78,17-5.18,17.49-5l.7-1.53c-.13-.06-12.27-5.42-19.59,5.57-7.08,10.61-7.18,44.86-7.18,46.32Z" style="fill:#ebebeb"></path><path d="M400.35,313.05s6.18,2.28,4.35,7.66-21.38,14.23-21.38,14.23-8.18-7.51-.67-19.7S400.19,309.2,400.35,313.05Z" style="fill:#e0e0e0"></path><path d="M419.57,302s-4.39-.47-4-3.14,17.06-9.55,26.91,1.57c0,0-6.31,10.84-15.43,11S419.57,302,419.57,302Z" style="fill:#e0e0e0"></path><path d="M424.07,319.86s-3-2.45.24-3.64,19.3-.86,19.47,15c0,0-18.68,3.1-21-2.95S424.07,319.86,424.07,319.86Z" style="fill:#e0e0e0"></path><polygon points="397.03 380.94 426.01 380.94 429.14 349.22 393.91 349.22 397.03 380.94" style="fill:#ebebeb"></polygon><rect x="392.36" y="345.72" width="38.32" height="7" transform="translate(823.05 698.43) rotate(180)" style="fill:#e0e0e0"></rect><path d="M93.13,352.22s5.65-12.33-.8-24.48-8.33-15-4.21-17.5,6,9.72,6,9.72,3.47-8.4.6-17.19-4.66-23.11-.74-24.65.74,17.86,4.14,24.48a57.1,57.1,0,0,0,3.32-14.43c.46-7.06-.27-18.33,2.82-21.22s5.07-.89,2,14.69a163.44,163.44,0,0,0-3,28.25s6.7-20.44,11.2-21,4.5,6,.64,11.76-11.27,16-12.49,21.32c0,0,7.36-15.38,14-10.66s-5.77,14-11.28,17.36S96,353,96,353Z" style="fill:#e0e0e0"></path><path d="M97.59,357.27s-5.5-12.41,1.1-24.46,8.51-14.89,4.42-17.44S97,325,97,325s-3.36-8.45-.39-17.2,4.93-23,1-24.63-1,17.85-4.43,24.41a57.22,57.22,0,0,1-3.15-14.47c-.38-7.07.48-18.33-2.57-21.27s-5-1-2.21,14.66A163.35,163.35,0,0,1,88,314.79S81.5,294.26,77,293.59s-4.57,6-.79,11.76,11.09,16.19,12.24,21.5c0,0-7.17-15.49-13.84-10.88s5.59,14.09,11.07,17.53,9,24.54,9,24.54Z" style="fill:#ebebeb"></path><polygon points="72.22 348.42 117.67 348.42 113.99 380.94 75.9 380.94 72.22 348.42" style="fill:#ebebeb"></polygon></g><g id="background-simple"><path d="M70.82,308.44c5.15,16.69,15.1,37.75,33,43.74,26.47,8.88,41.44-21.87,47.76-42,9.25-29.41,15.49-60,29-87.87,10.68-22,29.95-47.41,56.51-49.8,14.29-1.28,22.55,7.94,27.06,20.56,5.58,15.61,8.12,32.11,12.19,48.18,8,31.78,32.21,61.15,63.84,71.39,18,5.82,37.15,5.12,54.11-3.62,73.24-37.76,44.44-150.49-3.14-195.52C314.23,40.67,189,62.37,118.83,133.18c-28.08,28.32-47.18,66-52.57,105.63C63.25,261,63.93,286.12,70.82,308.44Z" style="fill:#407BFF"></path><path d="M70.82,308.44c5.15,16.69,15.1,37.75,33,43.74,26.47,8.88,41.44-21.87,47.76-42,9.25-29.41,15.49-60,29-87.87,10.68-22,29.95-47.41,56.51-49.8,14.29-1.28,22.55,7.94,27.06,20.56,5.58,15.61,8.12,32.11,12.19,48.18,8,31.78,32.21,61.15,63.84,71.39,18,5.82,37.15,5.12,54.11-3.62,73.24-37.76,44.44-150.49-3.14-195.52C314.23,40.67,189,62.37,118.83,133.18c-28.08,28.32-47.18,66-52.57,105.63C63.25,261,63.93,286.12,70.82,308.44Z" style="fill:#fff;opacity:0.9"></path></g><g id="Shadow"><ellipse id="path" cx="250" cy="416.24" rx="193.89" ry="11.32" style="fill:#f5f5f5"></ellipse></g><g id="Device"><path d="M240.91,399.58a9,9,0,0,1-1,4.15,6.24,6.24,0,0,1-2.53,2.67s-3.75,2.25-4.26,2.47l0,0h0a5.64,5.64,0,0,1-2.19.45c-4.08,0-7.38-4.31-7.38-9.63a11.31,11.31,0,0,1,1.95-6.5L223.11,380,217,345.81,203.8,272.53h9.84l13.17,73.28L233,380,235,391.51l2.06,1.1C239.31,393.6,240.91,396.34,240.91,399.58Z" style="fill:#263238"></path><path d="M240.91,399.58a9,9,0,0,1-1,4.15,6.24,6.24,0,0,1-2.53,2.67s-3.75,2.25-4.26,2.47l0,0h0a5.64,5.64,0,0,1-2.19.45c-4.08,0-7.38-4.31-7.38-9.63a11.31,11.31,0,0,1,1.95-6.5L223.11,380,217,345.81,203.8,272.53h9.84l13.17,73.28L233,380,235,391.51l2.06,1.1C239.31,393.6,240.91,396.34,240.91,399.58Z" style="fill:#fff;opacity:0.4"></path><path d="M240.91,399.58c0,4.07-2.53,7.38-5.65,7.38s-5.66-3.31-5.66-7.38,2.53-7.38,5.66-7.38S240.91,395.5,240.91,399.58Z" style="fill:#fff;opacity:0.2"></path><polygon points="232.95 380 223.11 380 216.97 345.81 203.8 272.53 213.64 272.53 226.81 345.81 232.95 380" style="opacity:0.2;isolation:isolate"></polygon><rect x="367.31" y="294.8" width="44.07" height="12.6" style="fill:#263238"></rect><path d="M407.52,333.56l13.9-69.68a2.41,2.41,0,0,0-2.36-2.88h-4.23a3.57,3.57,0,0,0-3.5,2.87l-13.91,69.68a2.41,2.41,0,0,0,2.36,2.88H404A3.57,3.57,0,0,0,407.52,333.56Z" style="fill:#263238"></path><path d="M418.65,291.66h-8.54c-2.57,0-4.64,4-4.64,9s2.07,9,4.64,9h8.54c2.56,0,4.64-4,4.64-9S421.21,291.66,418.65,291.66Z" style="fill:#263238"></path><path d="M422.72,300.68c0,3.71-1.47,6.71-3.29,6.71s-3.3-3-3.3-6.71,1.48-6.72,3.3-6.72S422.72,297,422.72,300.68Z" style="fill:#fff;opacity:0.2"></path><path d="M407.52,333.56l13.9-69.68a2.41,2.41,0,0,0-2.36-2.88h-4.23a3.57,3.57,0,0,0-3.5,2.87l-13.91,69.68a2.41,2.41,0,0,0,2.36,2.88H404A3.57,3.57,0,0,0,407.52,333.56Z" style="fill:#fff;opacity:0.2"></path><polygon points="406.91 391.12 406.91 413.36 180.69 413.36 180.69 407.17 227.79 407.17 235 391.12 406.91 391.12" style="fill:#263238"></polygon><polygon points="406.91 391.12 406.91 413.36 320.69 413.36 320.69 407.17 367.79 407.17 375 391.12 406.91 391.12" style="fill:#fff;opacity:0.2"></polygon><path d="M400.91,399.58a9,9,0,0,1-1,4.15,6.24,6.24,0,0,1-2.53,2.67s-3.75,2.25-4.26,2.47l0,0h0a5.64,5.64,0,0,1-2.19.45c-4.08,0-7.38-4.31-7.38-9.63a11.31,11.31,0,0,1,2-6.5L383.11,380,377,345.81,363.8,272.53h9.84l13.17,73.28L393,380,395,391.51l2.06,1.1C399.31,393.6,400.91,396.34,400.91,399.58Z" style="fill:#263238"></path><path d="M400.91,399.58a9,9,0,0,1-1,4.15,6.24,6.24,0,0,1-2.53,2.67s-3.75,2.25-4.26,2.47l0,0h0a5.64,5.64,0,0,1-2.19.45c-4.08,0-7.38-4.31-7.38-9.63a11.31,11.31,0,0,1,2-6.5L383.11,380,377,345.81,363.8,272.53h9.84l13.17,73.28L393,380,395,391.51l2.06,1.1C399.31,393.6,400.91,396.34,400.91,399.58Z" style="fill:#fff;opacity:0.4"></path><path d="M400.91,399.58c0,4.07-2.53,7.38-5.65,7.38s-5.66-3.31-5.66-7.38,2.53-7.38,5.66-7.38S400.91,395.5,400.91,399.58Z" style="fill:#fff;opacity:0.2"></path><polygon points="392.95 380 383.11 380 376.97 345.81 363.8 272.53 373.64 272.53 386.81 345.81 392.95 380" style="opacity:0.2;isolation:isolate"></polygon><path d="M376.73,374.08H167.56c-4.43,0-7.3-3.65-6.4-8.14l28.4-142.28a10.37,10.37,0,0,1,9.65-8.14H408.38c4.43,0,7.3,3.65,6.41,8.14l-28.4,142.28A10.38,10.38,0,0,1,376.73,374.08Z" style="fill:#263238"></path><path d="M376.73,374.08H167.56c-4.43,0-7.3-3.65-6.4-8.14l28.4-142.28a10.37,10.37,0,0,1,9.65-8.14H408.38c4.43,0,7.3,3.65,6.41,8.14l-28.4,142.28A10.38,10.38,0,0,1,376.73,374.08Z" style="fill:#fff;opacity:0.1"></path><polygon points="366.05 350.67 187.59 350.67 211.92 228.79 390.37 228.79 366.05 350.67" style="fill:#407BFF"></polygon><path d="M389.37,313.84h-7.91a2.69,2.69,0,0,1-2.68-3.4L385,279.16a4.35,4.35,0,0,1,4-3.41H397a2.7,2.7,0,0,1,2.69,3.41l-6.25,31.28A4.33,4.33,0,0,1,389.37,313.84Z" style="fill:#fff;opacity:0.2"></path><path d="M396.76,285.07a7.23,7.23,0,0,1-6.73,5.68,4.5,4.5,0,0,1-4.47-5.68,7.23,7.23,0,0,1,6.73-5.67A4.49,4.49,0,0,1,396.76,285.07Z" style="opacity:0.2;isolation:isolate"></path><path d="M388.55,309.73h-4.62a1,1,0,0,1-1-1.27l3.15-15.77a1.61,1.61,0,0,1,1.5-1.27h4.62a1,1,0,0,1,1,1.27l-3.15,15.77A1.61,1.61,0,0,1,388.55,309.73Z" style="opacity:0.2;isolation:isolate"></path><path d="M215.75,284.26s15.49-20.24,25.16-24.8,8.09,21.17,14.42,27.89S275.51,266,285,263.62s3.71,34.94,12.14,43.77,67.94-52.48,67.94-52.48l-3.26,7.52,8.33-8.7L361.82,266l5.49-5s-27.64,32.33-52.41,48.73-28.71-1-28.71-7.12.14-26.19-3.89-26.86-19.85,22.73-27.37,24.68-9.89-9-9.89-9,3,3.71,7.43,3.38c0,0-5.05.21-7-10.54s-3.17-19.06-7.52-15.9-17.4,19-17.4,19l1.84-5.58L211,294.8l9.5-13Z" style="fill:#fff"></path><polygon points="203.69 345.41 194.2 345.41 195.99 336.45 205.48 336.45 203.69 345.41" style="fill:#fff"></polygon><polygon points="214.88 345.41 205.38 345.41 207.17 336.45 216.66 336.45 214.88 345.41" style="fill:#fff;opacity:0.8"></polygon><polygon points="226.05 345.41 216.56 345.41 218.35 336.45 227.84 336.45 226.05 345.41" style="fill:#fff;opacity:0.6000000000000001"></polygon><polygon points="237.23 345.41 227.74 345.41 229.53 336.45 239.02 336.45 237.23 345.41" style="fill:#fff;opacity:0.4"></polygon><polygon points="248.41 345.41 238.92 345.41 240.71 336.45 250.2 336.45 248.41 345.41" style="fill:#fff;opacity:0.2"></polygon></g><g id="character-2"><rect x="245.36" y="178.38" width="61.35" height="17.64" transform="translate(-38.65 76.67) rotate(-14.79)" style="fill:#407BFF"></rect><rect x="245.36" y="178.38" width="61.35" height="17.64" transform="translate(-38.65 76.67) rotate(-14.79)" style="fill:#fff;opacity:0.6000000000000001;isolation:isolate"></rect><rect x="247.68" y="186.38" width="9.98" height="13.64" transform="matrix(0.97, -0.26, 0.26, 0.97, -40.95, 70.91)" style="fill:#263238"></rect><rect x="258.07" y="183.64" width="9.98" height="13.64" transform="translate(-39.9 73.47) rotate(-14.79)" style="fill:#263238;opacity:0.8"></rect><rect x="268.46" y="180.89" width="9.98" height="13.64" transform="matrix(0.97, -0.26, 0.26, 0.97, -38.86, 76.03)" style="fill:#263238;opacity:0.6000000000000001"></rect><rect x="278.85" y="178.15" width="9.98" height="13.64" transform="translate(-37.82 78.59) rotate(-14.79)" style="fill:#263238;opacity:0.4"></rect><rect x="289.24" y="175.41" width="9.98" height="13.64" transform="matrix(0.97, -0.26, 0.26, 0.97, -36.77, 81.15)" style="fill:#263238;opacity:0.2"></rect><rect x="246.67" y="170.07" width="61.35" height="17.64" style="fill:#407BFF"></rect><rect x="246.67" y="170.07" width="61.35" height="17.64" style="fill:#fff;opacity:0.7000000000000001;isolation:isolate"></rect><rect x="248.24" y="171.9" width="9.98" height="13.64" style="fill:#407BFF"></rect><rect x="258.99" y="171.9" width="9.98" height="13.64" style="fill:#407BFF;opacity:0.8"></rect><rect x="269.73" y="171.9" width="9.98" height="13.64" style="fill:#407BFF;opacity:0.6000000000000001"></rect><rect x="280.48" y="171.9" width="9.98" height="13.64" style="fill:#407BFF;opacity:0.4"></rect><rect x="291.23" y="171.9" width="9.98" height="13.64" style="fill:#407BFF;opacity:0.2"></rect><circle cx="305.54" cy="185.54" r="1.09" style="fill:#263238"></circle><path d="M309.64,190.39a1.54,1.54,0,0,1-1.62,1.55h0c-1.7,0-2.81-1.73-3.42-3.15l1-.26c.53,1.18,1.35,2.38,2.41,2.38h0c.33,0,.56-.1.59-.6a4.41,4.41,0,0,0-.77-2.37,3.89,3.89,0,0,0-2.38-1.89.51.51,0,0,1,.17-1,3.87,3.87,0,0,1,1.79.86A6.1,6.1,0,0,1,309.64,190.39Z" style="fill:#263238"></path><g style="opacity:0.2;isolation:isolate"><path d="M309.64,190.39a1.54,1.54,0,0,1-1.62,1.55h0c-1.7,0-2.81-1.73-3.42-3.15l1-.26c.53,1.18,1.35,2.38,2.41,2.38h0c.33,0,.56-.1.59-.6a4.41,4.41,0,0,0-.77-2.37,3.89,3.89,0,0,0-2.38-1.89.51.51,0,0,1,.17-1,3.87,3.87,0,0,1,1.79.86A6.1,6.1,0,0,1,309.64,190.39Z" style="fill:#fff"></path></g><path d="M366.53,189.15c4.58,10.11,7.68,22.32,3.62,26.37s-18.07-10.7-18.07-10.7l3.15-2.13s9.84,5.18,10.35,4.83-3.76-14.94-3.76-14.94Z" style="fill:#ebb376"></path><path d="M298.88,191.6a24.16,24.16,0,0,1-2.06-1.87c-.86-.9-10.05-.81-10.47.18s1.34,5.51,2.87,6,8-.21,9.08-.86S298.88,191.6,298.88,191.6Z" style="fill:#ebb376"></path><path d="M338.3,393.9,333,394c-5.43-25.48-9.26-57-11.65-80.81-.37-3.73-.72-7.26-1-10.56-.14-1.56-.28-3.07-.41-4.51-.64-7.16-1.08-12.83-1.34-16.33-.19-2.56-.29-4-.29-4h19.29l-.18,4.91-.6,16.23-.06,1.85-.4,10.71-.68,18.24C342.25,355.42,338.3,393.9,338.3,393.9Z" style="fill:#ebb376"></path><path d="M381.57,392.53l-5.25,1c-10.52-26.29-20.4-60-26.83-83.49-1-3.64-1.91-7-2.73-10.14,0-.16-.07-.31-.12-.46-1.62-6.14-2.86-11-3.64-14.14l-.93-3.76,19-3.28,1.07,8L363.75,298l.31,2.3,1.08,8L368,329.76C378.92,353.94,381.57,392.53,381.57,392.53Z" style="fill:#ebb376"></path><path d="M363.75,298l-17,1.9c0-.16-.07-.31-.12-.46-1.62-6.14-2.86-11-3.64-14.14l19.16.95Z" style="opacity:0.2;isolation:isolate"></path><path d="M337.37,282.71l-.6,16.23-.06,1.85-16.41,1.82c-.14-1.56-.28-3.07-.41-4.51-.64-7.16-1.08-12.83-1.34-16.33Z" style="opacity:0.2;isolation:isolate"></path><path d="M322.53,411.61a10.76,10.76,0,0,1,3.34-1.82h0s3.64-3.6,5.39-14.46l4.76-1.24a4.05,4.05,0,0,1,4.32,1.69,2.06,2.06,0,0,1,.31.63,29.84,29.84,0,0,1,.51,3.52,99.37,99.37,0,0,1,.06,11.92h-.86l-.34-7.48c-.12-2.54-2.07.44-2.63,3.18s-1.73,5.64-7.3,5.78C323.59,413.46,320.89,413.2,322.53,411.61Z" style="fill:#407BFF"></path><path d="M340.51,395.87c.31-2.54.41-7,.41-7l-10.57,1.18s1.28,5,.22,8.79C335.9,397.48,340.51,395.87,340.51,395.87Z" style="fill:#407BFF"></path><path d="M365.55,411.61a10.65,10.65,0,0,1,3.34-1.82h0s3.64-3.6,5.39-14.46l4.75-1.24a4.06,4.06,0,0,1,4.33,1.69,2,2,0,0,1,.3.63,26.19,26.19,0,0,1,.51,3.52c.48,3.68.07,11.92.07,11.92h-.86l-.34-7.48c-.13-2.54-2.07.44-2.63,3.18s-1.74,5.64-7.31,5.78C366.61,413.46,363.91,413.2,365.55,411.61Z" style="fill:#407BFF"></path><path d="M383.53,395.87c.31-2.54.41-7,.41-7l-10.57,1.18s1.28,5,.22,8.79C378.92,397.48,383.53,395.87,383.53,395.87Z" style="fill:#407BFF"></path><path d="M352.33,168.93a1.6,1.6,0,0,1-.25.18,11.61,11.61,0,0,1-4.08,2c-4.32,1-7.27.41-9.2-1.55h0c-2.69-2.93-3.37-8.12-3-14.39a23.61,23.61,0,0,1,1.37-7.31s0-.09,0-.11.07-.19.11-.27a8.57,8.57,0,0,1,6.28-5.22,17.65,17.65,0,0,1,3.7-.41C359.5,141.72,361.69,162,352.33,168.93Z" style="fill:#ebb376"></path><path d="M352.08,169.11a11.32,11.32,0,0,1-4.08,1.83c-4.32,1-7.27.26-9.2-1.72a12.17,12.17,0,0,0,7.75-.64C348.3,167.78,350.24,168.19,352.08,169.11Z" style="opacity:0.2;isolation:isolate"></path><path d="M353.32,180.14c.75,3.48-3.75,4.9-3.75,4.9-7.37-3.15-8.73-7.07-8.73-7.07,6.14-3.2,4.36-12.27,4.36-12.27l1.25.62,8.78,1.71s-2.44,4.68-2.76,5.74c0,0,0,0,0,0C350.81,179.37,353.32,180.14,353.32,180.14Z" style="fill:#ebb376"></path><path d="M337.17,147.78s-.68,8.56,7.44,12.24c0,0,3.48,8.9,8.62,9,7,.18,13.15-9.78,10.73-19.91C360.82,136,340.9,134.91,337.17,147.78Z" style="fill:#263238"></path><path d="M340.5,157.56c0-1.33,1.08-3.58,3.15-3.27s3.34,5.61-1.94,6.79C341,161.25,340.49,160.35,340.5,157.56Z" style="fill:#ebb376"></path><path d="M352.08,138.68s-8.17-2.07-12.69,1.21c-5.27,3.84-7.27,7.81-1,14,0,0,13.72-4.45,18.28-3.5a49.47,49.47,0,0,1,7.83,2.27C365.43,143.57,356.64,136.82,352.08,138.68Z" style="fill:#263238"></path><path d="M340.84,139.07c.51-1.22,1.55-3.87,4.64-2.41s5.36-1.71,7.34-1.18,4,2.74,5.31,2.55a4.63,4.63,0,0,1,5.37,4.49c.24,4.27,4,4.43,4.35,6.93s-1.32,3.56,0,5.94,3.3,2.33,1.72,5.71-3.43,4.27-1.45,7.06.52,5.43-2.38,6.61c0,0-3.82-3.82-5.67-2.24s-5.84,3.67-7.6,1.24a3.42,3.42,0,0,0-5.55-.18c-.69,1.31-4-1.06-6.08-1.06s-3.19,2.35-3.19,2.35-2.82-.77-1.95-5.11,2.8-16.49,1.45-19.92S340.84,139.07,340.84,139.07Z" style="fill:#263238"></path><path d="M328.87,179.3s9.75-3.28,24.45.72,13.21,9.13,13.21,9.13-11.1,19.9-12.56,42.45l-31.56-3.07S318.93,192.84,328.87,179.3Z" style="fill:#263238"></path><path d="M321.19,230.57h0l.63-6.21,33.41,3.35-.7,4.87h0c12.58,22.28,9.54,47.68,9.54,47.68l1.52,12.5s-3.15,1.95-24.32,3.33c-18.61,1.22-23.34-.71-23.34-.71C311.33,256.72,317,238.32,321.19,230.57Z" style="fill:#407BFF"></path><path d="M365.58,292.76s-3.15,1.95-24.32,3.33c-18.61,1.22-23.34-.71-23.34-.71-.22-1.28-.42-2.53-.61-3.76-4-25.74-2.39-42,.35-51.93a42.89,42.89,0,0,1,3.53-9.12l.23-2.24.4-4,33.41,3.35-.7,4.87h0c12.58,22.28,9.54,47.68,9.54,47.68l1.2,9.9Z" style="fill:#fff;opacity:0.6000000000000001;isolation:isolate"></path><polygon points="335.64 231 320.61 229.81 320.81 225.26 335.98 226.85 335.64 231" style="fill:#263238"></polygon><polygon points="350.69 232.19 336.72 231.09 337.06 226.96 350.99 228.42 350.69 232.19" style="fill:#263238"></polygon><polygon points="352.07 228.53 355.62 228.91 355.17 232.55 351.77 232.28 352.07 228.53" style="fill:#263238"></polygon><path d="M344,251.29c-.07,2.51-.16,4.41-.16,4.41l-6.49,5.3-11.07-4.9a45,45,0,0,0,.28-5.23c.05-3.75-.1-8.08-.2-10.43-.05-1.07-.08-1.73-.08-1.73l17.56,2.09c.05.37.09.81.12,1.29C344.16,244.59,344.11,248.35,344,251.29Z" style="fill:#fff;opacity:0.30000000000000004;isolation:isolate"></path><path d="M361,255.57l-4.22,4.85-6.33-4.06a43,43,0,0,0-.27-4.59,93,93,0,0,0-1.53-9.55c-.19-.89-.31-1.42-.31-1.42h9.36c.09.27.19.54.27.82a72.7,72.7,0,0,1,2.27,9.14C360.74,253.58,361,255.57,361,255.57Z" style="fill:#fff;opacity:0.30000000000000004;isolation:isolate"></path><path d="M344,251.29c-.07,2.51-.16,4.41-.16,4.41l-6.49,5.3-11.07-4.9a45,45,0,0,0,.28-5.23,16.7,16.7,0,0,1,10.14,5.82A10.91,10.91,0,0,1,344,251.29Z" style="opacity:0.15;isolation:isolate"></path><path d="M326.38,240.44c-.05-1.07-.08-1.73-.08-1.73l17.56,2.09c.05.37.09.81.12,1.29Z" style="opacity:0.15;isolation:isolate"></path><path d="M358,241.62l-9.32.6c-.19-.89-.31-1.42-.31-1.42h9.36C357.77,241.07,357.87,241.34,358,241.62Z" style="opacity:0.15;isolation:isolate"></path><path d="M361,255.57l-4.22,4.85-6.33-4.06a43,43,0,0,0-.27-4.59,10.8,10.8,0,0,1,6.6,5.91s.1-4.63,3.46-6.92C360.74,253.58,361,255.57,361,255.57Z" style="opacity:0.15;isolation:isolate"></path><path d="M365.58,292.76s-3.15,1.95-24.32,3.33c-18.61,1.22-23.34-.71-23.34-.71-.22-1.28-.42-2.53-.61-3.76l1.94.09c-.94-7.91-3.68-34.84.45-49.62a21.85,21.85,0,0,1-2-2.4,42.89,42.89,0,0,1,3.53-9.12l.23-2.24a14,14,0,0,1,2,.3v1s-4.91,17.51-4.91,34.85a176,176,0,0,0,2.07,27.34,311.31,311.31,0,0,0,44.64-1.61Z" style="opacity:0.15;isolation:isolate"></path><g style="opacity:0.30000000000000004;isolation:isolate"><polygon points="335.64 231 320.61 229.81 320.81 225.26 335.98 226.85 335.64 231" style="fill:#fff"></polygon><polygon points="350.69 232.19 336.72 231.09 337.06 226.96 350.99 228.42 350.69 232.19" style="fill:#fff"></polygon><polygon points="352.07 228.53 355.62 228.91 355.17 232.55 351.77 232.28 352.07 228.53" style="fill:#fff"></polygon></g><path d="M298.88,191.6l-1.74,2.52s9.49,14.64,16.48,13.32,16.48-15.43,17.8-19.65,2.67-9.2-2.55-8.49-11.69,19.32-16.31,21.41S298.88,191.6,298.88,191.6Z" style="fill:#ebb376"></path></g><g id="character-1"><g id="group"><path d="M113.59,146.94s15.76.15,20.25,2.37-9.59,17.23-14.15,14.64S109.19,153.2,113.59,146.94Z" style="fill:#407BFF"></path><path d="M113.59,146.94s15.76.15,20.25,2.37-9.59,17.23-14.15,14.64S109.19,153.2,113.59,146.94Z" style="opacity:0.2;isolation:isolate"></path><path d="M113.51,403.86H103.38a.73.73,0,0,0-.71.57L101,411.86a1.23,1.23,0,0,0,1,1.46l.27,0c3.28-.06,5.67-.26,9.79-.26,2.53,0,10.19.27,13.69.27s4-3.46,2.52-3.78c-6.43-1.4-11.27-3.34-13.33-5.19A2,2,0,0,0,113.51,403.86Z" style="fill:#407BFF"></path><path d="M156.5,403.59H146.36a.74.74,0,0,0-.71.58L144,411.6a1.24,1.24,0,0,0,.95,1.46l.28,0c3.27-.05,5.66-.25,9.78-.25,2.54,0,10.19.26,13.69.26s4-3.46,2.53-3.78c-6.43-1.4-11.27-3.34-13.33-5.19A2,2,0,0,0,156.5,403.59Z" style="fill:#407BFF"></path><path d="M108.14,216h44.28c4.21,23,17.39,116.35,7.93,188.84h-15s1.39-110.09-11.84-145.67c-1.53,19-17,145.6-17,145.6H101.26s2.28-47.61,4.56-92.58C107.26,283.85,108.08,221.8,108.14,216Z" style="fill:#263238"></path><path d="M133.52,259.16a119,119,0,0,1,4.95,19.15c1.23-16.94-3.72-34.91-3.72-34.91Z" style="opacity:0.2;isolation:isolate"></path><path d="M100.18,152.42a200.77,200.77,0,0,1,43.18.21s7.37,33.75,8.11,66H106.89S106.85,173.1,100.18,152.42Z" style="fill:#407BFF"></path><path d="M100.18,152.42a200.77,200.77,0,0,1,43.18.21s7.37,33.75,8.11,66H106.89S106.85,173.1,100.18,152.42Z" style="fill:#fff;opacity:0.6000000000000001;isolation:isolate"></path><path d="M115.86,153.31c3.83,3.48,13.21,2.2,13.21,2.2s5.86-1.61,4.63-3.44c-3.45-.57-5.12-2.18-5.81-4.24a10,10,0,0,1-.35-3.94,20.71,20.71,0,0,1,.29-2.2l-11.6-8.59C117.75,138.77,119.61,149.2,115.86,153.31Z" style="fill:#e4897b"></path><path d="M118.91,138.56c.46,7,6.18,8.88,9,9.27a10,10,0,0,1-.35-3.94Z" style="opacity:0.2;isolation:isolate"></path><path d="M140,117s1.73,11.17-4.19,15.48-6-16.48-6-16.48Z" style="fill:#263238"></path><path d="M118.63,141.41a10.16,10.16,0,0,0,11.66,3.89,11.26,11.26,0,0,0,6.43-5.27,11.83,11.83,0,0,0,.53-1.07c2.9-6.84,3.79-18.79-3.44-23.24a11,11,0,0,0-15.13,3.49,10.86,10.86,0,0,0-1.64,4.84C116.18,132,115.3,136.69,118.63,141.41Z" style="fill:#e4897b"></path><path d="M128.69,128.28c-.15.63.14,1.23.57,1.3s.85-.4,1-1.05-.15-1.22-.57-1.29S128.81,127.63,128.69,128.28Z" style="fill:#263238"></path><path d="M136,129.51c-.15.63.15,1.22.57,1.29s.85-.4,1-1-.15-1.23-.57-1.3S136.09,128.89,136,129.51Z" style="fill:#263238"></path><path d="M133.61,129.43a23.41,23.41,0,0,0,2.16,6,3.81,3.81,0,0,1-3.2.06Z" style="fill:#de5753"></path><path d="M139.21,126.84a.41.41,0,0,1-.4-.07,3.08,3.08,0,0,0-2.66-.77.4.4,0,0,1-.47-.27.38.38,0,0,1,.27-.47h0a3.82,3.82,0,0,1,3.37.93.39.39,0,0,1,.05.54h0A.49.49,0,0,1,139.21,126.84Z" style="fill:#263238"></path><path d="M127.74,125.13a.43.43,0,0,1-.2-.11.39.39,0,0,1,.12-.53h0a3.78,3.78,0,0,1,3.5-.3.39.39,0,0,1,.17.51h0a.4.4,0,0,1-.51.18h0a3.09,3.09,0,0,0-2.76.27A.42.42,0,0,1,127.74,125.13Z" style="fill:#263238"></path><path d="M124.51,115.15v3.56a2.64,2.64,0,0,0-1.71,3.15c.78,3.09-1.44,7.47-3.93,9,0,0,.09-1.29-1-1.11s-1.61,6.88.12,10.31c0,0-2.85-3.26-3.82-10.47-.89-6.68-.46-12.1,1.17-14.45Z" style="fill:#263238"></path><path d="M112.49,130a7.62,7.62,0,0,0,3.68,4.53c2.37,1.26,4.13-.72,4-3.25-.17-2.25-1.58-5.69-4.2-5.88S111.81,127.58,112.49,130Z" style="fill:#e4897b"></path><path d="M131.74,137.49a21.12,21.12,0,0,0-1.49,2.66,5.08,5.08,0,0,1-.52-.15c-2.34-.68-3.19-1.77-3.44-2.77a3.07,3.07,0,0,1,0-1.49,2.88,2.88,0,0,1,.3-.79,11.59,11.59,0,0,0,4.31,2.29C131.42,137.41,131.74,137.49,131.74,137.49Z" style="fill:#263238"></path><path d="M130.94,137.24l-.46.78c-2.2-.66-3.66-1.41-4.15-2.28a2.88,2.88,0,0,1,.3-.79A11.59,11.59,0,0,0,130.94,137.24Z" style="fill:#fff"></path><path d="M129.73,140c-2.34-.68-3.19-1.77-3.44-2.77a7.87,7.87,0,0,1,2.45,1.27A2.94,2.94,0,0,1,129.73,140Z" style="fill:#de5753"></path><path d="M124.52,118.71s17.77,6.07,15.72-5.91c0,0-9.58-5.66-18-4.07s-7.7,10.24-7.7,10.24Z" style="fill:#263238"></path><path d="M113.54,149.9s1.19,40.77-7.73,79.24l-5.63-4.84s2.7-48.5,0-71.88Z" style="fill:#407BFF"></path><path d="M133.84,150.56s11.62,19.33,16.78,77.28l4.56-2.25s-5.2-55.53-11.82-73Z" style="fill:#407BFF"></path><path d="M105.81,229.14l-5.63-4.84s1.16-20.84,1.2-41.78c0-3.8,0-7.61-.11-11.29-.15-7-.48-13.54-1.09-18.81l13.36-2.52S114.73,190.67,105.81,229.14Z" style="fill:#fff;opacity:0.2;isolation:isolate"></path><path d="M133.84,150.56s11.62,19.33,16.78,77.28l4.56-2.25s-5.2-55.53-11.82-73Z" style="fill:#fff;opacity:0.2;isolation:isolate"></path><path d="M113.59,146.94s1,3.39,3.12,4.82L113.55,160v-4.55l-.9,2-3.94-6.6Z" style="fill:#407BFF"></path><path d="M130.73,148.36s3.59,1.06,6.54,10v-3.66l3.14,1.55s-4.52-6.06-5.63-6.79A13.43,13.43,0,0,0,130.73,148.36Z" style="fill:#407BFF"></path><path d="M137.77,176.88a.73.73,0,0,1-.68.78l-19.35,1.16a.71.71,0,0,1-.75-.68l-.4-6.87-.4-6.84a.72.72,0,0,1,.7-.76l19.07-.52a.71.71,0,0,1,.73.66l.55,6.64Z" style="fill:#407BFF"></path><path d="M137.77,176.88a.73.73,0,0,1-.68.78l-19.35,1.16a.71.71,0,0,1-.75-.68l-.4-6.87-.4-6.84a.72.72,0,0,1,.7-.76l19.07-.52a.71.71,0,0,1,.73.66l.55,6.64Z" style="fill:#fff;opacity:0.4;isolation:isolate"></path><path d="M137.77,176.88a.73.73,0,0,1-.68.78l-19.35,1.16a.71.71,0,0,1-.75-.68l-.4-6.87c1.25-2.6,2.92-5.5,4.08-5.46,2.11.07,1.11,6.69,2.19,7.59s4.3-5.29,4.66-4.69.27,2.71.43,3.23c.12.37,6-.8,9.29-1.49Z" style="opacity:0.2;isolation:isolate"></path><path d="M101.38,182.52c0-3.8,0-7.61-.11-11.29.74-1.62,1.25-2.68,1.25-2.68A17.49,17.49,0,0,1,101.38,182.52Z" style="opacity:0.30000000000000004;isolation:isolate"></path><path d="M93.18,164.78S82.45,190.24,80.35,190s-4.56-6.45-4.56-6.45L70.69,186s3.83,9.75,9.66,12.39,17.92-22.55,17.92-22.55Z" style="fill:#407BFF"></path><path d="M93.18,164.78S82.45,190.24,80.35,190s-4.56-6.45-4.56-6.45L70.69,186s3.83,9.75,9.66,12.39,17.92-22.55,17.92-22.55Z" style="fill:#fff;opacity:0.6000000000000001;isolation:isolate"></path><path d="M100.18,152.42c-2.68,1.21-15.7,25.31-15.7,25.31l11.13,7.86,5.44-7.86s1.3-.62,1.3-9.13A67.13,67.13,0,0,0,100.18,152.42Z" style="fill:#407BFF"></path><rect x="205.7" y="256.46" width="1.6" height="6.93" rx="0.69" transform="translate(537.98 241.93) rotate(125.36)" style="fill:#263238"></rect><path d="M58.61,153H69.43a0,0,0,0,1,0,0v7.52a4.22,4.22,0,0,1-4.22,4.22H62.83a4.22,4.22,0,0,1-4.22-4.22V153a0,0,0,0,1,0,0Z" transform="translate(230.65 198.61) rotate(125.36)" style="fill:#263238"></path><path d="M186.6,261.16l20.09.27,1.25-1.76L201,240.79h0a44.06,44.06,0,0,1-16.94-7.21L70.13,154a1.35,1.35,0,0,0-1.87.32l-7.12,10a1.34,1.34,0,0,0,.31,1.87l112.73,81.29a44.18,44.18,0,0,1,12.42,13.61Z" style="fill:#263238"></path><path d="M186.59,261.16a44,44,0,0,0-12.4-13.62L147,227.94l-.94-.68-.93-.67-74.93-54-.93-.68-.94-.67-6.89-5a1.33,1.33,0,0,1-.3-1.86l7.12-10a1.34,1.34,0,0,1,1.86-.33l7,4.86,1,.67.95.66,75.73,52.86,1.9,1.32,27.47,19.18a45.69,45.69,0,0,0,8.19,4.55,42.45,42.45,0,0,0,8.76,2.67l.31.83.48,1.32,6.11,16.72-1.25,1.76-17.81-.23-1.41,0Z" style="fill:#fff;opacity:0.30000000000000004"></path><rect x="169.07" y="218.58" width="3.51" height="32.17" rx="1.52" transform="translate(461.06 231.16) rotate(125.36)" style="fill:#263238"></rect><g style="opacity:0.2;isolation:isolate"><polygon points="187.47 261.17 201.35 241.62 201.83 242.94 188.88 261.19 187.47 261.17"></polygon></g><g style="opacity:0.2;isolation:isolate"><path d="M156.62,214.4l-1.9-1.32-9.59,13.51.94.68.93.68Z"></path></g><g style="opacity:0.2;isolation:isolate"><path d="M79,160.21l-1-.66-.94-.67-8.76,12.34,1,.67.93.68Z"></path></g><path d="M157.25,209.83l-.94,1.71a4.6,4.6,0,0,0-3.49,1.15s.66,3.91.89,4.41c.52,1.1,6.17,3.8,7.53,3.79.43,0,.83-2.87.57-3.79a17,17,0,0,0-2.27-3.33l.77-1.51Z" style="fill:#e4897b"></path><path d="M145.84,161.41s17.31,12.49,22.27,26.14c3.72,10.26-7.41,26.29-7.41,26.29L156,210.37s7.82-15.1,5.82-21.41-11.55-12.57-11.55-12.57Z" style="fill:#407BFF"></path><path d="M145.84,161.41s17.31,12.49,22.27,26.14c3.72,10.26-7.41,26.29-7.41,26.29L156,210.37s7.82-15.1,5.82-21.41-11.55-12.57-11.55-12.57Z" style="fill:#fff;opacity:0.6000000000000001;isolation:isolate"></path><path d="M162.8,175l-5.58,9.56-2.75-1.19-4.64-2-2.68-11.89-3.79-16.82C148,154.86,162.8,175,162.8,175Z" style="fill:#407BFF"></path><path d="M75.23,183.83l-1.15-3.67s1.7-.35,1.71-1.85-.15-5.18-.86-5.91a46.06,46.06,0,0,0-5.54-3.8c-.88-.45-1.83,2.92-1.87,4.39s3.17,6.29,3.17,6.29L72,185.37Z" style="fill:#e4897b"></path><path d="M154.47,183.35l-4.64-2-2.68-11.89C150,172.57,154.3,178.07,154.47,183.35Z" style="opacity:0.2;isolation:isolate"></path></g></g></svg>