<svg xmlns="http://www.w3.org/2000/svg" viewBox="0 0 500 500"><g id="background-complete"><rect y="382.4" width="500" height="0.25" style="fill:#ebebeb"></rect><rect x="416.78" y="398.49" width="33.12" height="0.25" style="fill:#ebebeb"></rect><rect x="322.53" y="401.21" width="8.69" height="0.25" style="fill:#ebebeb"></rect><rect x="396.59" y="389.21" width="19.19" height="0.25" style="fill:#ebebeb"></rect><rect x="52.46" y="390.89" width="43.19" height="0.25" style="fill:#ebebeb"></rect><rect x="104.56" y="390.89" width="6.33" height="0.25" style="fill:#ebebeb"></rect><rect x="131.47" y="395.11" width="93.68" height="0.25" style="fill:#ebebeb"></rect><path d="M237,337.8H43.91a5.71,5.71,0,0,1-5.7-5.71V60.66A5.71,5.71,0,0,1,43.91,55H237a5.71,5.71,0,0,1,5.71,5.71V332.09A5.71,5.71,0,0,1,237,337.8ZM43.91,55.2a5.46,5.46,0,0,0-5.45,5.46V332.09a5.46,5.46,0,0,0,5.45,5.46H237a5.47,5.47,0,0,0,5.46-5.46V60.66A5.47,5.47,0,0,0,237,55.2Z" style="fill:#ebebeb"></path><path d="M453.31,337.8H260.21a5.72,5.72,0,0,1-5.71-5.71V60.66A5.72,5.72,0,0,1,260.21,55h193.1A5.71,5.71,0,0,1,459,60.66V332.09A5.71,5.71,0,0,1,453.31,337.8ZM260.21,55.2a5.47,5.47,0,0,0-5.46,5.46V332.09a5.47,5.47,0,0,0,5.46,5.46h193.1a5.47,5.47,0,0,0,5.46-5.46V60.66a5.47,5.47,0,0,0-5.46-5.46Z" style="fill:#ebebeb"></path><circle cx="354.83" cy="96.28" r="23.55" transform="translate(179.6 419.5) rotate(-76.72)" style="fill:#e0e0e0"></circle><circle cx="354.83" cy="96.28" r="20.03" transform="translate(202.96 431.11) rotate(-80.78)" style="fill:#f0f0f0"></circle><polyline points="353.89 82.54 353.89 96.54 344.61 91.29" style="fill:#f0f0f0"></polyline><path d="M353.89,97.54a1,1,0,0,1-.49-.13l-9.28-5.25a1,1,0,0,1,1-1.74l7.79,4.41V82.54a1,1,0,0,1,2,0v14a1,1,0,0,1-.5.87A1,1,0,0,1,353.89,97.54Z" style="fill:#e0e0e0"></path><rect x="85.49" y="107.27" width="163.56" height="6.51" rx="2.12" style="fill:#e0e0e0"></rect><rect x="95.2" y="112.45" width="144.13" height="127.9" style="fill:#e6e6e6"></rect><rect x="98.81" y="115.96" width="136.73" height="120.95" style="fill:#f0f0f0"></rect><polygon points="130.9 115.96 98.81 236.65 98.81 179.94 115.75 115.96 130.9 115.96" style="fill:#fff"></polygon><polygon points="142.26 115.96 109.89 236.91 104.73 236.91 137.1 115.96 142.26 115.96" style="fill:#fff"></polygon><polygon points="235.54 192.28 235.54 211.61 228.99 236.91 223.82 236.91 235.54 192.28" style="fill:#fff"></polygon><rect x="144.2" y="113.78" width="2.3" height="125.83" style="fill:#e6e6e6"></rect><rect x="188.83" y="113.78" width="2.3" height="125.83" style="fill:#e6e6e6"></rect><path d="M215.84,109.35s3.32,43.27,22.39,65.33c0,0-13.89,55.68-13.88,75.1L250.16,245l-9.3-70,4.45-65.65Z" style="fill:#e0e0e0"></path><path d="M118.69,109.35s-3.31,43.27-22.38,65.33c0,0,13.89,55.68,13.88,75.1L84.37,245l9.31-70-4.45-65.65Z" style="fill:#e0e0e0"></path><rect x="282.46" y="135.35" width="138.88" height="248.28" style="fill:#e0e0e0"></rect><rect x="282.46" y="135.35" width="89.28" height="64.45" style="fill:#e6e6e6"></rect><rect x="282.46" y="205.04" width="89.28" height="178.6" style="fill:#e6e6e6"></rect><rect x="280.46" y="138.21" width="89.28" height="60.71" rx="2.35" style="fill:#f0f0f0"></rect><rect x="280.46" y="206.24" width="89.28" height="175.75" rx="2.35" style="fill:#f0f0f0"></rect><path d="M294.37,167.57h-4.64s-6.53,10.11-6.53,29.64h5Z" style="fill:#ebebeb"></path><path d="M294.37,197.21V167.57s-4.93,10.18-6.2,29.64Z" style="fill:#e0e0e0"></path><path d="M293.61,177.77v15.72h-2.28S291.55,181,293.61,177.77Z" style="fill:#e6e6e6"></path><path d="M294.37,238.21h-4.64s-6.53-10.11-6.53-29.64h5Z" style="fill:#ebebeb"></path><path d="M294.37,208.57v29.64s-4.93-10.17-6.2-29.64Z" style="fill:#e0e0e0"></path><path d="M293.61,228V212.29h-2.28S291.55,224.75,293.61,228Z" style="fill:#e6e6e6"></path></g><g id="background-simple"><path d="M80.09,105.18C108,45.73,207.15,54.12,245.41,95.93s50.7,68.6,85.21,53,78.52-11.44,81,38.17S373.75,295.34,309.57,312.69s-64.16,78.76-149.1,66.37c-46.31-6.76-47.36-56.86-40.82-98.3S47.71,174.13,80.09,105.18Z" style="fill:#407BFF"></path><path d="M80.09,105.18C108,45.73,207.15,54.12,245.41,95.93s50.7,68.6,85.21,53,78.52-11.44,81,38.17S373.75,295.34,309.57,312.69s-64.16,78.76-149.1,66.37c-46.31-6.76-47.36-56.86-40.82-98.3S47.71,174.13,80.09,105.18Z" style="fill:#fff;opacity:0.9"></path></g><g id="Shadow"><ellipse id="path" cx="250" cy="416.24" rx="193.89" ry="11.32" style="fill:#f5f5f5"></ellipse></g><g id="speech-bubble"><rect x="200.09" y="125" width="21.1" height="21.1" rx="3.69" transform="translate(1.65 -2.54) rotate(0.69)" style="fill:#407BFF"></rect><path d="M216.5,131.46c-1.46-2.43-4.32-1.54-5.81.32-1.45-1.89-4.29-2.86-5.81-.46-2.56,4.05,2.57,7.9,5,9.41l.69.42c.2-.1.43-.24.71-.41C213.74,139.29,219,135.57,216.5,131.46Z" style="fill:#fff;opacity:0.6000000000000001;isolation:isolate"></path><path d="M212.8,144.49s-2.84,6.3-9.07,8.2c0,0,3.46-1.94,3.27-8.53Z" style="fill:#407BFF"></path></g><g id="Character"><polygon points="140.17 238.99 145 238.99 158.47 318 153.63 318 140.17 238.99" style="fill:#407BFF"></polygon><polygon points="158.12 238.99 162.95 238.99 176.42 318 171.58 318 158.12 238.99" style="fill:#407BFF"></polygon><polygon points="176.07 238.99 180.91 238.99 194.37 318 189.53 318 176.07 238.99" style="fill:#407BFF"></polygon><polygon points="140.17 238.99 145 238.99 158.47 318 153.63 318 140.17 238.99" style="fill:#fff;opacity:0.4;isolation:isolate"></polygon><polygon points="158.12 238.99 162.95 238.99 176.42 318 171.58 318 158.12 238.99" style="fill:#fff;opacity:0.4;isolation:isolate"></polygon><polygon points="176.07 238.99 180.91 238.99 194.37 318 189.53 318 176.07 238.99" style="fill:#fff;opacity:0.4;isolation:isolate"></polygon><polygon points="181.49 320.05 181.9 337.51 183.74 416.53 189.81 416.53 191.63 337.51 192.04 320.05 181.49 320.05" style="fill:#407BFF"></polygon><polygon points="181.49 320.05 181.9 337.51 183.74 416.53 189.81 416.53 191.63 337.51 192.04 320.05 181.49 320.05" style="fill:#fff;opacity:0.4;isolation:isolate"></polygon><polygon points="181.49 320.05 181.9 338 191.63 338 192.04 320.05 181.49 320.05" style="opacity:0.2;isolation:isolate"></polygon><polygon points="148.53 416.25 154.14 321.28 163.31 321.28 155.46 416.25 148.53 416.25" style="fill:#407BFF"></polygon><polygon points="155.47 416.25 148.54 416.25 153.63 329.81 154.13 321.17 163.3 321.17 162.59 329.81 155.47 416.25" style="fill:#fff;opacity:0.4;isolation:isolate"></polygon><polygon points="163.3 321.17 162.59 330.14 153.63 330.14 154.13 321.17 163.3 321.17" style="opacity:0.2;isolation:isolate"></polygon><polygon points="218.08 416.25 210.23 321.28 219.4 321.28 225 416.25 218.08 416.25" style="fill:#407BFF"></polygon><polygon points="218.07 416.25 210.94 329.81 210.24 321.17 219.4 321.17 219.91 329.81 225 416.25 218.07 416.25" style="fill:#fff;opacity:0.4;isolation:isolate"></polygon><polygon points="210.24 321.17 210.94 330.14 219.91 330.14 219.4 321.17 210.24 321.17" style="opacity:0.2;isolation:isolate"></polygon><path d="M149.23,311.45h75.08a0,0,0,0,1,0,0v8.11a5,5,0,0,1-5,5H154.23a5,5,0,0,1-5-5v-8.11A0,0,0,0,1,149.23,311.45Z" transform="translate(373.54 636.01) rotate(180)" style="fill:#407BFF"></path><path d="M148.52,248.11c7.79-4.71,18.6-4.71,28.92,0,5.22,2.29,11.4,2.94,14.13-.35h0c4.66-4.86-3.51-19.23-19.19-23.78-11.23-3.22-22.34-3.22-31.83,0-13.22,4.55-13.63,18.92-6.35,23.78h0C138.72,251.05,144.54,250.4,148.52,248.11Z" style="fill:#407BFF"></path><path d="M149.23,311.45h75.08a0,0,0,0,1,0,0v8.11a5,5,0,0,1-5,5H154.23a5,5,0,0,1-5-5v-8.11A0,0,0,0,1,149.23,311.45Z" transform="translate(373.54 636.01) rotate(180)" style="opacity:0.2;isolation:isolate"></path><path d="M148.52,248.11c7.79-4.71,18.6-4.71,28.92,0,5.22,2.29,11.4,2.94,14.13-.35h0c4.66-4.86-3.51-19.23-19.19-23.78-11.23-3.22-22.34-3.22-31.83,0-13.22,4.55-13.63,18.92-6.35,23.78h0C138.72,251.05,144.54,250.4,148.52,248.11Z" style="opacity:0.2;isolation:isolate"></path><rect x="145.63" y="318" width="82.28" height="6.56" rx="2.01" transform="translate(373.54 642.56) rotate(180)" style="fill:#407BFF"></rect><rect x="145.63" y="318" width="82.28" height="6.56" rx="2.01" transform="translate(373.54 642.56) rotate(180)" style="fill:#fff;opacity:0.6000000000000001;isolation:isolate"></rect><g id="group"><path d="M143.48,227.91s-7.2,10-2.77,17,11.67,2.91,19-5.1S143.48,227.91,143.48,227.91Z" style="fill:#e4897b"></path><path d="M234.34,204.54l5.1,1-5.1-11.77,2.76-6.54s16,12.57,17.28,23.77c.55,4.62-8.83,14.11-24.79,11.34Z" style="fill:#e4897b"></path><path d="M237.37,204.14,234,223.92s-3.42.68-7.52,1.12c-1.85.21-3.85.37-5.72.39-2.75,0-5.24-.19-6.68-1l-18.76-30.31s14.78.54,20.07,2.24S237.37,204.14,237.37,204.14Z" style="fill:#407BFF"></path><path d="M305.82,406.52H295.13a.77.77,0,0,0-.75.61L292.65,415a1.28,1.28,0,0,0,1,1.53,1.36,1.36,0,0,0,.29,0c3.45,0,6-.27,10.31-.27,2.67,0,10.74.28,14.43.28s4.18-3.64,2.67-4c-6.78-1.48-11.89-3.52-14.06-5.47A2.11,2.11,0,0,0,305.82,406.52Z" style="fill:#407BFF"></path><path d="M278.13,406.24H267.44a.77.77,0,0,0-.75.61L265,414.68a1.3,1.3,0,0,0,1,1.54l.29,0c3.45-.05,6-.27,10.31-.27,2.67,0,10.74.28,14.43.28s4.17-3.64,2.66-4c-6.77-1.48-11.88-3.52-14-5.47A2.11,2.11,0,0,0,278.13,406.24Z" style="fill:#407BFF"></path><path d="M312.21,407.22l-20.83-.09L276.5,318s-39.54,6.08-71.36-1.91a57.11,57.11,0,0,1-12.74-4.64c-27.48-14.61-28.34-46.83-28.34-46.83l62.77-.57,4.87,8.88s51.91,9.67,67.72,19.56c5.48,3.43,8.7,18.26,10.56,36.18C313.5,362.45,312.21,407.22,312.21,407.22Z" style="fill:#263238"></path><path d="M312.21,407.22l-20.83-.09L276.5,318s-39.54,6.08-71.36-1.91A112.08,112.08,0,0,1,220.63,281s62.77,4.71,89.35,47.71C313.5,362.45,312.21,407.22,312.21,407.22Z" style="opacity:0.2;isolation:isolate"></path><polygon points="226.04 259.03 164.06 259.03 164.06 264.62 226.83 264.05 226.04 259.03"></polygon><rect x="183.98" y="256.51" width="2.21" height="9.93" transform="translate(370.17 522.95) rotate(180)" style="fill:#263238"></rect><rect x="215.34" y="256.51" width="2.21" height="9.93" transform="translate(432.89 522.95) rotate(180)" style="fill:#263238"></rect><rect x="197.79" y="258.05" width="11.46" height="6.26" transform="translate(407.04 522.36) rotate(180)" style="fill:#fff"></rect><path d="M226,259h-62c-.28-2.67-.5-7.45-.66-13.15-.06-2.41-.12-5-.17-7.64-.08-4.3-.13-8.81-.17-13.15-.13-12.85-.12-24.17-.12-24.17s7.92-7.2,26.94-7.15a49.82,49.82,0,0,1,22.39,5.91,229,229,0,0,1,7.95,24.12v0C226,245.46,226,259,226,259Z" style="fill:#407BFF"></path><path d="M176.05,196.76c2.44,6.62,15.46,6.62,15.46,6.62s10.23-2.07,9.36-6.79c-3.64-2.82-4.41-3.07-5.6-5.19a7.23,7.23,0,0,1-.74-4.13,13.42,13.42,0,0,1,.36-2.33l-18.84-8.23C178.73,182.57,181.81,192.16,176.05,196.76Z" style="fill:#e4897b"></path><path d="M180.56,182.27c1.06,7.3,10.24,8.92,14.71,9.13a7.23,7.23,0,0,1-.74-4.13Z" style="opacity:0.2;isolation:isolate"></path><path d="M191.1,155.19s11.53,4.23,4.46,16.9c-3.76,6.74-11.08-14.8-11.08-14.8Z" style="fill:#263238"></path><path d="M181,186.36a10.69,10.69,0,0,0,12.95.36,11.92,11.92,0,0,0,4.87-7.28c.09-.41.16-.83.21-1.25.83-7.78-1.93-20.11-10.59-22.39A11.57,11.57,0,0,0,174.21,164a11.38,11.38,0,0,0-.17,5.38C175.62,177.66,176.15,182.63,181,186.36Z" style="fill:#e4897b"></path><path d="M197.5,170.18a6.58,6.58,0,0,1,4.15,7.32c-1.25,8.4-10.93,14.92-20.69,8.86C172.22,180.94,197.5,170.18,197.5,170.18Z" style="fill:#e4897b"></path><path d="M192.4,169.7a24.56,24.56,0,0,0,4,5.42,4,4,0,0,1-3.21,1Z" style="fill:#de5753"></path><path d="M196.93,164.24a.41.41,0,0,1-.41-.11,3.24,3.24,0,0,0-2.73-1.06.41.41,0,0,1-.14-.8h0a4,4,0,0,1,3.45,1.3.4.4,0,0,1,0,.57h0A.5.5,0,0,1,196.93,164.24Z" style="fill:#263238"></path><path d="M184.69,166.53a.38.38,0,0,1-.23.06.39.39,0,0,1-.3-.48h0a4,4,0,0,1,2.38-2.83.4.4,0,0,1,.51.25h0a.41.41,0,0,1-.24.51h0A3.3,3.3,0,0,0,185,166.3.42.42,0,0,1,184.69,166.53Z" style="fill:#263238"></path><path d="M178.85,158.07l1,1.45c-2.59,1.39-1.47,4.49-.66,5.84,1.73,2.88.84,8-1.2,10.32,0,0-.31-1.33-1.38-.81s.48,7.43,3.28,10.37c0,0-3.87-2.42-7.06-9.4-2.94-6.46-5.53-12.86-2.26-17.77Z" style="fill:#263238"></path><path d="M171.26,176.7a8.07,8.07,0,0,0,5.1,3.45c2.78.55,3.94-2,3-4.49-.86-2.22-3.34-5.26-6-4.65S169.85,174.5,171.26,176.7Z" style="fill:#e4897b"></path><path d="M193.2,178.54c-3,0-3.65-2.23-3.66-2.25a.38.38,0,0,1,.27-.46.38.38,0,0,1,.46.27c0,.08.5,1.69,2.93,1.69h.1a.38.38,0,0,1,0,.75Z" style="fill:#263238"></path><path d="M188.22,179.08a.41.41,0,0,1-.21-.1.37.37,0,0,1,0-.53c2.5-2.55,1.38-4.59,1.33-4.67a.37.37,0,0,1,.14-.51.37.37,0,0,1,.51.13c.06.1,1.47,2.6-1.45,5.57A.37.37,0,0,1,188.22,179.08Z" style="fill:#e4897b"></path><g style="opacity:0.2;isolation:isolate"><path d="M188.22,179.08a.41.41,0,0,1-.21-.1.37.37,0,0,1,0-.53c2.5-2.55,1.38-4.59,1.33-4.67a.37.37,0,0,1,.14-.51.37.37,0,0,1,.51.13c.06.1,1.47,2.6-1.45,5.57A.37.37,0,0,1,188.22,179.08Z"></path></g><path d="M186.93,170.28s.21-1.05.86-1.24,1.21.79,1.21.79A1.37,1.37,0,0,0,186.93,170.28Z" style="fill:#263238"></path><path d="M194.42,169s.21-1.05.86-1.24,1.21.79,1.21.79A1.37,1.37,0,0,0,194.42,169Z" style="fill:#263238"></path><path d="M170.57,160.92s-3.3-3.18,4-7.35,17.69-2,20.33,1.62-3.46,5.77-3.74,5.3.43-1.71.43-1.71-4,2.7-5.13,1.78.46-1.91.46-1.91S177.26,163.32,170.57,160.92Z" style="fill:#263238"></path><path d="M164.06,264.62s-7.28,37,12,46.83,51.75,8.6,51.75,8.6l35.71,89.05,18.87-2S270,304,254.33,291.7c-4.24-3.31-50.81-13.2-50.81-13.2Z" style="fill:#263238"></path><path d="M238.3,190.05l-3.7-8.7s-8.61-5.59-9.25-5.77-2.48,11.85-1.82,13.15,5.4,3.54,7.31,4.2a18.39,18.39,0,0,0,3.5.84Z" style="fill:#e4897b"></path><path d="M219.51,176a1.46,1.46,0,0,0-1.74,1.06c-.12.61-.47.49-.65.74s0,.86,0,.94-.53,1.38.38,1.91,3,1.45,3.87-.21S220.88,176.22,219.51,176Z" style="fill:#407BFF"></path><path d="M219.51,176a1.46,1.46,0,0,0-1.74,1.06c-.12.61-.47.49-.65.74s0,.86,0,.94-.53,1.38.38,1.91,3,1.45,3.87-.21S220.88,176.22,219.51,176Z" style="fill:#fff;opacity:0.4"></path><path d="M230.43,183.23a3.59,3.59,0,0,1-.09.86c-.73,3-5.5,4.46-10.64,3.22a13.86,13.86,0,0,1-5.7-2.74,4.2,4.2,0,0,1-.19-.81,2.21,2.21,0,0,0,.22-.24,1.66,1.66,0,0,0,.4-1.39c-.2-.94,1.11-1.28,1.11-1.28a.14.14,0,0,1,0-.07.62.62,0,0,1,.08-.24c.39-.7,1.71-.71,1.85-.71h0l.91.57a1.69,1.69,0,0,0,1.36-2,2.46,2.46,0,0,0-.13-.46.89.89,0,0,0,.27-.82,1.32,1.32,0,0,0-.06-.39,2,2,0,0,0-.34-.73,15,15,0,0,1,2.82.41C227,177.49,230.38,180.44,230.43,183.23Z" style="fill:#407BFF"></path><g style="opacity:0.6000000000000001"><path d="M230.43,183.23a3.59,3.59,0,0,1-.09.86c-.73,3-5.5,4.46-10.64,3.22a13.86,13.86,0,0,1-5.7-2.74,4.2,4.2,0,0,1-.19-.81,2.21,2.21,0,0,0,.22-.24,1.66,1.66,0,0,0,.4-1.39c-.2-.94,1.11-1.28,1.11-1.28a.14.14,0,0,1,0-.07.62.62,0,0,1,.08-.24c.39-.7,1.71-.71,1.85-.71h0l.91.57a1.69,1.69,0,0,0,1.36-2,2.46,2.46,0,0,0-.13-.46.89.89,0,0,0,.27-.82,1.32,1.32,0,0,0-.06-.39,2,2,0,0,0-.34-.73,15,15,0,0,1,2.82.41C227,177.49,230.38,180.44,230.43,183.23Z" style="fill:#fff"></path></g><path d="M230.43,183.23c-.85,1.77-1.48,2.76-2.33,1.7s-1.3.06-2.49,1.33-2.65.31-3.52-.58-3,.72-4.18-.12-1.08-1.41-2.89-1.51a1.26,1.26,0,0,1-1-.53,1.66,1.66,0,0,0,.4-1.39c-.2-.94,1.11-1.28,1.11-1.28a.14.14,0,0,1,0-.07.62.62,0,0,1,.08-.24c.39-.7,1.71-.71,1.85-.71h0l.91.57a1.69,1.69,0,0,0,1.36-2,2.46,2.46,0,0,0-.13-.46.89.89,0,0,0,.27-.82,1.32,1.32,0,0,0-.06-.39,2,2,0,0,0-.34-.73,15,15,0,0,1,2.82.41C227,177.49,230.38,180.44,230.43,183.23Z" style="fill:#407BFF"></path><g style="opacity:0.2;isolation:isolate"><path d="M217.5,179.83l.91.57A6.09,6.09,0,0,1,217.5,179.83Z"></path><path d="M225.69,181.21c0,.12-.66.53-2.16.49a11.34,11.34,0,0,1-2.46-.35,11.81,11.81,0,0,1-2.4-.82l-.26-.13a1.69,1.69,0,0,0,1.36-2,8.53,8.53,0,0,1,2,.26C224.67,179.31,225.71,180.91,225.69,181.21Z"></path></g><g style="opacity:0.2;isolation:isolate"><path d="M223.53,181.7a12,12,0,0,1-2.46-.34,12.39,12.39,0,0,1-2.4-.83,4.61,4.61,0,0,1,2.53-.11A5.54,5.54,0,0,1,223.53,181.7Z"></path></g><path d="M220.35,177.31a.12.12,0,0,1-.09,0,.16.16,0,0,1-.09,0l-.26-.24a1.32,1.32,0,0,0-.06-.39l.49.44A.13.13,0,0,1,220.35,177.31Z" style="fill:#fff"></path><path d="M222.62,177.76a.12.12,0,0,1-.12-.1.12.12,0,0,1,.09-.15l.81-.2a.12.12,0,1,1,.06.24l-.81.2Z" style="fill:#fff"></path><path d="M225.23,179.33a.13.13,0,0,1-.12-.08l-.24-.55a.11.11,0,0,1,.07-.16.12.12,0,0,1,.16.06l.24.55a.13.13,0,0,1-.06.17Z" style="fill:#fff"></path><path d="M218.29,182.23a.12.12,0,0,1-.1,0l-1.05-1.37a.13.13,0,0,1,0-.18.12.12,0,0,1,.17,0l1,1.37a.13.13,0,0,1,0,.18A.08.08,0,0,1,218.29,182.23Z" style="fill:#fff"></path><path d="M216.38,181a.12.12,0,0,1-.11.09h-.05l-.66-.25a.62.62,0,0,1,.08-.24l.67.25A.13.13,0,0,1,216.38,181Z" style="fill:#fff"></path><path d="M220.72,182.26h-1.29a.13.13,0,0,1-.12-.13.12.12,0,0,1,.13-.12h1.28a.13.13,0,0,1,.13.13A.12.12,0,0,1,220.72,182.26Z" style="fill:#fff"></path><path d="M223.5,183.49a.16.16,0,0,1-.11-.05l-.48-.68a.13.13,0,0,1,0-.17.13.13,0,0,1,.18,0l.48.68a.13.13,0,0,1,0,.17A.11.11,0,0,1,223.5,183.49Z" style="fill:#fff"></path><path d="M224.87,183.26h-.05a.13.13,0,0,1-.06-.17l.32-.7a.13.13,0,0,1,.17-.06.12.12,0,0,1,.06.16l-.32.71A.14.14,0,0,1,224.87,183.26Z" style="fill:#fff"></path><path d="M226.93,182.25a.11.11,0,0,1-.1-.06l-.42-.64a.13.13,0,0,1,0-.18.12.12,0,0,1,.17,0l.43.64a.14.14,0,0,1,0,.18Z" style="fill:#fff"></path><path d="M228.55,181h-.05l-1.19-.56a.13.13,0,0,1,.11-.23l1.18.56a.12.12,0,0,1,.06.17A.12.12,0,0,1,228.55,181Z" style="fill:#fff"></path><path d="M228,181.89h0a.15.15,0,0,1-.09-.16l.11-.43a.11.11,0,0,1,.15-.09.13.13,0,0,1,.09.15l-.1.43A.14.14,0,0,1,228,181.89Z" style="fill:#fff"></path><path d="M226.65,179.53a.14.14,0,0,1-.11-.06.13.13,0,0,1,.05-.17l.31-.18a.13.13,0,0,1,.17,0,.12.12,0,0,1,0,.17l-.32.18Z" style="fill:#fff"></path><path d="M225.52,178.12h0l-1-.3a.12.12,0,0,1-.08-.16.12.12,0,0,1,.15-.08l1,.3a.14.14,0,0,1,.09.16A.13.13,0,0,1,225.52,178.12Z" style="fill:#fff"></path><path d="M221.83,177.17h-.05l-.64-.29a.12.12,0,0,1-.07-.17.13.13,0,0,1,.17-.06l.64.29a.13.13,0,0,1,.06.17A.12.12,0,0,1,221.83,177.17Z" style="fill:#fff"></path><path d="M220.84,177.63a.15.15,0,0,1-.12-.07.13.13,0,0,1,.06-.17l.41-.2a.11.11,0,0,1,.16.06.12.12,0,0,1,0,.16l-.41.2Z" style="fill:#fff"></path><path d="M216.63,182.11h0l-1.1-.06a.14.14,0,0,1-.12-.14.12.12,0,0,1,.13-.11l1.11.06a.12.12,0,0,1,.12.13A.13.13,0,0,1,216.63,182.11Z" style="fill:#fff"></path><path d="M218.59,183.43l-.06,0-.74-.45a.12.12,0,0,1,0-.17.12.12,0,0,1,.17,0l.74.45a.12.12,0,0,1,0,.17A.11.11,0,0,1,218.59,183.43Z" style="fill:#fff"></path><path d="M221.19,183.71a.14.14,0,0,1-.13-.1l-.08-.43a.12.12,0,0,1,.1-.14.13.13,0,0,1,.15.1l.08.42a.13.13,0,0,1-.1.15Z" style="fill:#fff"></path><path d="M222.41,184.07a.1.1,0,0,1-.09,0,.12.12,0,0,1,0-.17l.4-.38a.12.12,0,0,1,.17,0,.13.13,0,0,1,0,.18l-.4.38A.11.11,0,0,1,222.41,184.07Z" style="fill:#fff"></path><path d="M225,184.42h0l-.9-.21a.15.15,0,0,1-.09-.16.14.14,0,0,1,.15-.09l.9.22a.13.13,0,0,1,.1.15A.14.14,0,0,1,225,184.42Z" style="fill:#fff"></path><path d="M226,183.52a.13.13,0,0,1-.12-.09.12.12,0,0,1,.09-.15l.71-.22a.13.13,0,0,1,.16.08.13.13,0,0,1-.09.16l-.71.22Z" style="fill:#fff"></path><path d="M228,183a.13.13,0,0,1-.12-.07.12.12,0,0,1,.06-.16l.73-.36a.13.13,0,0,1,.17.06.14.14,0,0,1-.06.17l-.73.35Z" style="fill:#fff"></path><path d="M174.91,195.48s-11.84.63-19.56,10.65-14.17,24.45-14.17,24.45l18.52,10.84,14.67-13.61S170.74,199.42,174.91,195.48Z" style="fill:#407BFF"></path><path d="M226,259h-62c-.27-2.6-.49-7.19-.65-12.69,0-.15,0-.31,0-.46-.06-2.41-.12-5-.17-7.64,1-3.79,2-7.43,3.07-10.84a255.12,255.12,0,0,1,9.75-26.69c16.53,10.49,26.58-.91,26.58-.91,10.16,7.39,15.8,19.6,17.59,24v0C226,245.46,226,259,226,259Z" style="fill:#fff;opacity:0.6000000000000001;isolation:isolate"></path><path d="M187,209.8c0,3.1-4.3,5.62-9.59,5.62-4.84,0-8.85-2.11-9.5-4.84a2.88,2.88,0,0,1-.1-.78c0-3.11,4.3-5.63,9.6-5.63,4.79,0,8.78,2.07,9.48,4.77A3.56,3.56,0,0,1,187,209.8Z" style="fill:#263238"></path><path d="M186.88,208.94c-.41,1.92-.79,3-1.87,2.2s-1.25.36-2.11,1.88-2.5.92-3.56.26-2.7,1.39-4.09.86-1.38-1.12-3.16-.79-2.11-2.84-3.5-2.49a.55.55,0,0,1-.69-.28,2.88,2.88,0,0,1-.1-.78c0-3.11,4.3-5.63,9.6-5.63C182.19,204.17,186.18,206.24,186.88,208.94Z" style="fill:#263238"></path><path d="M186.88,208.94c-.41,1.92-.79,3-1.87,2.2s-1.25.36-2.11,1.88-2.5.92-3.56.26-2.7,1.39-4.09.86-1.38-1.12-3.16-.79-2.11-2.84-3.5-2.49a.55.55,0,0,1-.69-.28,2.88,2.88,0,0,1-.1-.78c0-3.11,4.3-5.63,9.6-5.63C182.19,204.17,186.18,206.24,186.88,208.94Z" style="fill:#fff;opacity:0.2"></path><path d="M181.8,208.09c0,.12-.52.67-2,1a11.48,11.48,0,0,1-2.47.24,12.1,12.1,0,0,1-2.53-.24c-1.53-.32-2.11-.88-2.11-1,0-.3,1.7-1.61,4.69-1.61S181.75,207.79,181.8,208.09Z" style="opacity:0.2;isolation:isolate"></path><path d="M179.81,209.07a11.48,11.48,0,0,1-2.47.24,12.1,12.1,0,0,1-2.53-.24,4.55,4.55,0,0,1,2.43-.7A5.54,5.54,0,0,1,179.81,209.07Z" style="opacity:0.2;isolation:isolate"></path><path d="M171,208.49a.11.11,0,0,1-.1-.05l-.66-.85a.14.14,0,0,1,0-.18.13.13,0,0,1,.18,0l.66.85a.14.14,0,0,1,0,.18Z" style="fill:#fff"></path><path d="M171.82,206.61h-.72a.13.13,0,0,1-.13-.13.12.12,0,0,1,.13-.12h.72a.12.12,0,0,1,.13.12A.13.13,0,0,1,171.82,206.61Z" style="fill:#fff"></path><path d="M173.06,206.24H173a.13.13,0,0,1-.06-.17l.21-.49a.12.12,0,0,1,.16-.07.12.12,0,0,1,.07.17l-.21.49A.14.14,0,0,1,173.06,206.24Z" style="fill:#fff"></path><path d="M175.58,205.61l-.06,0-.57-.31a.12.12,0,0,1,0-.17.12.12,0,0,1,.16-.05l.58.31a.12.12,0,0,1,.05.17A.11.11,0,0,1,175.58,205.61Z" style="fill:#fff"></path><path d="M178,205.45a.12.12,0,0,1-.11-.07.11.11,0,0,1,.06-.16l.74-.39a.12.12,0,1,1,.11.22l-.74.39Z" style="fill:#fff"></path><path d="M180.87,206.37a.16.16,0,0,1-.1-.05l-.36-.48a.13.13,0,0,1,0-.18.12.12,0,0,1,.17,0l.36.48a.12.12,0,0,1,0,.17A.11.11,0,0,1,180.87,206.37Z" style="fill:#fff"></path><path d="M174.81,210.82a.11.11,0,0,1-.08,0l-1.34-1.09a.12.12,0,0,1,.16-.19l1.34,1.09a.12.12,0,0,1,0,.17A.14.14,0,0,1,174.81,210.82Z" style="fill:#fff"></path><path d="M172.57,210.13h0l-1-.11a.13.13,0,0,1,0-.25l1,.12a.12.12,0,0,1,.11.14A.13.13,0,0,1,172.57,210.13Z" style="fill:#fff"></path><path d="M170.8,209.43a.1.1,0,0,1-.07,0l-.69-.47a.12.12,0,0,1,0-.17.13.13,0,0,1,.17,0l.69.47a.14.14,0,0,1,0,.18A.16.16,0,0,1,170.8,209.43Z" style="fill:#fff"></path><path d="M175.93,210.57a.12.12,0,0,1-.12-.1.12.12,0,0,1,.09-.15l1.25-.29a.11.11,0,0,1,.15.09.12.12,0,0,1-.09.15l-1.25.3Z" style="fill:#fff"></path><path d="M180.17,210.82a.16.16,0,0,1-.09,0l-.62-.55a.12.12,0,0,1,0-.17.14.14,0,0,1,.18,0l.63.55a.12.12,0,0,1,0,.17A.14.14,0,0,1,180.17,210.82Z" style="fill:#fff"></path><path d="M181.45,210.27h0a.12.12,0,0,1-.1-.15l.15-.75a.12.12,0,0,1,.14-.1.12.12,0,0,1,.1.14l-.15.76A.12.12,0,0,1,181.45,210.27Z" style="fill:#fff"></path><path d="M183.21,208.81a.09.09,0,0,1-.08,0l-.56-.52a.13.13,0,0,1,.17-.19l.56.53a.14.14,0,0,1,0,.18A.18.18,0,0,1,183.21,208.81Z" style="fill:#fff"></path><path d="M184.5,207.22h0l-1.29-.26a.13.13,0,1,1,.05-.25l1.28.27a.12.12,0,0,1,.1.14A.12.12,0,0,1,184.5,207.22Z" style="fill:#fff"></path><path d="M184.15,208.21a.12.12,0,0,1-.12-.12v-.45a.12.12,0,0,1,.12-.12.12.12,0,0,1,.13.12v.45A.12.12,0,0,1,184.15,208.21Z" style="fill:#fff"></path><path d="M182.31,206.24a.13.13,0,0,1-.09-.22l.27-.25a.12.12,0,0,1,.17.18l-.27.25A.12.12,0,0,1,182.31,206.24Z" style="fill:#fff"></path><path d="M180.87,205.13h0l-1-.07a.12.12,0,1,1,0-.24l1,.06a.13.13,0,1,1,0,.25Z" style="fill:#fff"></path><path d="M177.07,205.06h0l-.69-.13a.13.13,0,0,1-.1-.15.12.12,0,0,1,.15-.09l.69.13a.12.12,0,0,1,.1.14A.13.13,0,0,1,177.07,205.06Z" style="fill:#fff"></path><path d="M176.21,205.74a.13.13,0,0,1-.1,0,.14.14,0,0,1,0-.18l.35-.29a.12.12,0,0,1,.16.19l-.35.29A.11.11,0,0,1,176.21,205.74Z" style="fill:#fff"></path><path d="M173.17,206.83a.11.11,0,0,1-.11-.07.12.12,0,0,1,.05-.17l1.06-.59a.13.13,0,0,1,.12.22l-1.06.59Z" style="fill:#fff"></path><path d="M169.37,208.13h0a.13.13,0,0,1-.08-.16l.21-.72a.13.13,0,0,1,.16-.09.13.13,0,0,1,.08.16l-.21.72A.13.13,0,0,1,169.37,208.13Z" style="fill:#fff"></path><path d="M172.08,211.28a.12.12,0,0,1-.12-.1.12.12,0,0,1,.1-.15l1.09-.2a.12.12,0,0,1,.14.1.13.13,0,0,1-.1.15l-1.09.2Z" style="fill:#fff"></path><path d="M175.38,211.91h0l-.83-.26a.14.14,0,0,1-.08-.16.12.12,0,0,1,.16-.08l.82.26a.12.12,0,0,1,.08.16A.12.12,0,0,1,175.38,211.91Z" style="fill:#fff"></path><path d="M178,211.58a.13.13,0,0,1-.11-.08l-.18-.39a.13.13,0,0,1,.06-.17.13.13,0,0,1,.17.06l.18.4a.11.11,0,0,1-.07.16Z" style="fill:#fff"></path><path d="M179.24,211.64a.1.1,0,0,1-.07,0,.13.13,0,0,1,0-.17l.29-.46a.13.13,0,0,1,.18,0,.13.13,0,0,1,0,.17l-.29.46A.14.14,0,0,1,179.24,211.64Z" style="fill:#fff"></path><path d="M181.8,211.38h-.93a.13.13,0,0,1-.12-.13.12.12,0,0,1,.12-.12h.93a.12.12,0,0,1,.12.12A.12.12,0,0,1,181.8,211.38Z" style="fill:#fff"></path><path d="M182.57,210.27a.14.14,0,0,1-.11-.06.13.13,0,0,1,0-.17l.64-.38a.13.13,0,0,1,.17.05.12.12,0,0,1,0,.17l-.64.38Z" style="fill:#fff"></path><path d="M184.43,209.32a.11.11,0,0,1-.09,0,.13.13,0,0,1,0-.18l.63-.52a.13.13,0,0,1,.16.2l-.63.51A.11.11,0,0,1,184.43,209.32Z" style="fill:#fff"></path><path d="M172,209.06a.12.12,0,0,1-.12-.1.12.12,0,0,1,.1-.14l.59-.1a.12.12,0,0,1,.15.1.12.12,0,0,1-.1.14l-.6.1Z" style="fill:#fff"></path><path d="M170.46,210.82a.13.13,0,0,1-.12-.08l-.35-.93a.13.13,0,0,1,.24-.08l.34.92a.12.12,0,0,1-.07.16Z" style="fill:#fff"></path><path d="M144,232.24l17.28-11.75s1-8.39,1.67-9.33a36.8,36.8,0,0,1,4.25-3.59s6.29,1.88,7.76,2.76-.13,3.36-.68,7.49a8.65,8.65,0,0,1-7.86,7.13S156,243.78,150.51,247.4,133.56,242.5,144,232.24Z" style="fill:#e4897b"></path><path d="M226.43,225c-1.85.21-3.85.37-5.72.39a45.45,45.45,0,0,0-6-12.28S225.29,218.39,226.43,225Z" style="opacity:0.2;isolation:isolate"></path><path d="M163.41,246.34c0-.15,0-.31,0-.46-.06-2.41-.12-5-.17-7.64,1-3.79,2-7.43,3.07-10.84C166.39,227.81,169,240.09,163.41,246.34Z" style="opacity:0.2;isolation:isolate"></path><path d="M209.32,224.66c1.71,5.51-.76,11.18-5.52,12.65s-10-1.8-11.7-7.31.76-11.18,5.52-12.65S207.61,219.15,209.32,224.66Z" style="fill:#407BFF"></path><path d="M206.43,225.56c1,3.34-.46,6.76-3.34,7.65s-6.05-1.09-7.08-4.42.46-6.77,3.34-7.66S205.4,222.22,206.43,225.56Z" style="opacity:0.2;isolation:isolate"></path><path d="M188.35,217.72a9.92,9.92,0,0,0-.51,2.11,12.23,12.23,0,0,0-.14,1.48c-.08,2.17,1.33,9.7,1.33,9.7l1.27-.06a74.81,74.81,0,0,1,1.29,8.32.48.48,0,0,0,.51.45.47.47,0,0,0,.46-.5v0C192.23,236.47,190.61,223.82,188.35,217.72Z" style="fill:#407BFF"></path><path d="M211.08,221.69a1,1,0,0,0,.63-.41,1,1,0,0,0,.12-.89c-.36-1.1-2.25-4.4-2.42-4.28s1.35,3.46,1.71,4.52a.29.29,0,0,1,0,.22.24.24,0,0,1-.2.11h-.07c-.87-2.48-2.44-4.92-2.61-4.79s1,2.45,1.82,4.82a.84.84,0,0,1-.84-.59c-.65-2-2.05-4.07-2.23-4s.89,2.28,1.51,4.2a1.6,1.6,0,0,0,1.61,1.12h.21a62.59,62.59,0,0,1,3.3,16.11.38.38,0,0,0,.39.35h0a.37.37,0,0,0,.35-.4A65.14,65.14,0,0,0,211.08,221.69Z" style="fill:#407BFF"></path></g></g><g id="Table"><polygon points="326.78 416.53 333.65 416.53 334.78 249.6 325.66 249.6 326.78 416.53" style="fill:#407BFF"></polygon><polygon points="325.65 249.88 325.83 277.62 326.78 416.53 333.65 416.53 334.6 277.62 334.77 249.88 325.65 249.88" style="fill:#fff;opacity:0.4;isolation:isolate"></polygon><polygon points="325.65 249.88 325.83 277.93 334.6 277.93 334.77 249.88 325.65 249.88" style="opacity:0.2;isolation:isolate"></polygon><polygon points="253.81 416.53 260.68 416.53 273.03 249.6 263.91 249.6 253.81 416.53" style="fill:#407BFF"></polygon><polygon points="253.81 416.53 260.68 416.53 272.43 258.14 273.04 249.88 263.91 249.88 263.42 258.14 253.81 416.53" style="fill:#fff;opacity:0.5;isolation:isolate"></polygon><polygon points="263.42 257.73 272.43 257.73 273.04 249.88 263.91 249.88 263.42 257.73" style="opacity:0.2;isolation:isolate"></polygon><polygon points="399.75 416.53 406.63 416.53 396.52 249.6 387.4 249.6 399.75 416.53" style="fill:#407BFF"></polygon><polygon points="387.41 249.88 388.01 258.14 399.76 416.53 406.63 416.53 397.02 258.14 396.53 249.88 387.41 249.88" style="fill:#fff;opacity:0.5;isolation:isolate"></polygon><polygon points="396.53 249.88 387.41 249.88 388.01 257.73 397.02 257.73 396.53 249.88" style="opacity:0.2;isolation:isolate"></polygon><path d="M258.85,245.29H401.59a2.16,2.16,0,0,1,2.16,2.16v6.45a0,0,0,0,1,0,0H256.68a0,0,0,0,1,0,0v-6.45A2.16,2.16,0,0,1,258.85,245.29Z" transform="translate(660.44 499.2) rotate(180)" style="fill:#407BFF"></path><path d="M258.85,245.29H401.59a2.16,2.16,0,0,1,2.16,2.16v6.45a0,0,0,0,1,0,0H256.68a0,0,0,0,1,0,0v-6.45A2.16,2.16,0,0,1,258.85,245.29Z" transform="translate(660.44 499.2) rotate(180)" style="fill:#fff;opacity:0.6000000000000001;isolation:isolate"></path><rect x="256.68" y="245.29" width="147.07" height="4.31" transform="translate(660.44 494.89) rotate(180)" style="opacity:0.2;isolation:isolate"></rect><path d="M252.42,246.42H408a2.43,2.43,0,0,0,2.43-2.43h0a2.43,2.43,0,0,0-2.43-2.43H252.42A2.43,2.43,0,0,0,250,244h0A2.43,2.43,0,0,0,252.42,246.42Z" style="fill:#407BFF"></path><path d="M252.42,246.42H408a2.43,2.43,0,0,0,2.43-2.43h0a2.43,2.43,0,0,0-2.43-2.43H252.42A2.43,2.43,0,0,0,250,244h0A2.43,2.43,0,0,0,252.42,246.42Z" style="fill:#fff;opacity:0.6000000000000001;isolation:isolate"></path><polygon points="400.56 241.56 377.03 288.69 339.97 241.56 320.22 241.56 288.42 288.69 262.43 241.56 400.56 241.56" style="fill:#407BFF"></polygon><rect x="311.22" y="231.69" width="13.99" height="5.81" rx="2.9" style="fill:#407BFF"></rect><rect x="327.78" y="231.69" width="13.99" height="5.81" rx="2.9" style="fill:#407BFF"></rect><rect x="305.97" y="233.44" width="84.37" height="8.13" style="fill:#263238"></rect><rect x="305.97" y="233.44" width="84.37" height="8.13" style="fill:#fff;opacity:0.1;isolation:isolate"></rect><rect x="305.97" y="233.44" width="38.48" height="8.13" style="fill:#fff;opacity:0.2;isolation:isolate"></rect><polygon points="410.09 197.37 364.2 197.37 344.45 233.44 390.34 233.44 410.09 197.37" style="fill:#263238"></polygon><path d="M360.8,211c0-2.28,1.14-5.15,5.25-6s4.67-2.76,6.52-4.25,4.18-2.27,6.63-1.08,3.86,2.76,8,.89,8.35-2.18,10.3-.4.66,4,1.75,5.44,2.18,1.45,2.08,3.89-5.91,6.72-5.78,8.83-.36,5.77-6.69,7.26-6.26,4.35-9.65,5.14-5.22-2.08-8.76-1.29-4.68,2-8,1.43-2.8-3.28-4.88-3.88-3.85-5.39-2-7.55S360.84,214.55,360.8,211Z" style="fill:#407BFF"></path><g style="opacity:0.4;isolation:isolate"><path d="M383,205c-7.72,0-16.68,4.92-20,11s.25,11,8,11,16.66-4.92,20-11S390.75,205,383,205Zm-11.79,11c1.37-2.51,5.06-4.53,8.25-4.53s4.65,2,3.28,4.53-5.06,4.53-8.24,4.53S369.87,218.44,371.24,215.94Z"></path></g><g style="opacity:0.4;isolation:isolate"><path d="M390.27,214.53l0-.06c-.43-.76,0-1.83.74-2.78,1.39-1.7-.4-2.12-1.17-3.05s-.39-2.18-2.63-2a6.79,6.79,0,0,1-1.94.07c-.47-.14-.46-.51-.75-.76-.75-.64-4.11-.55-5.54.23-.9.49-1.46,1.33-2.51,1.65-1.58.48-3.29-.12-4.86.74s-1.55,2.22-3,3c-1.81,1.07-3.79,1.63-3.93,3.34a4.57,4.57,0,0,1-.42,2c-.68,1.26-2.49,3.1-1.47,4a9.86,9.86,0,0,0,1.73.82c1.06.58-.32,2.18.65,2.86.82.57,2.3,0,3.46.09,1.5.14,1.4,1.94,3.68,1.14,1.73-.61,3.12-1.08,4.58-.67a3.55,3.55,0,0,0,2.92-1.12,9.9,9.9,0,0,1,4.36-2.43,2.32,2.32,0,0,0,1.43-.66,8.17,8.17,0,0,0,.92-1.2,7.13,7.13,0,0,1,2.31-2.46c.9-.56,2-1.28,1.89-2A2.22,2.22,0,0,0,390.27,214.53Zm-15.74,5.94c-3.19,0-4.66-2-3.29-4.53s5.06-4.53,8.25-4.53,4.65,2,3.28,4.53S377.71,220.47,374.53,220.47Z" style="fill:#fff"></path></g><path d="M366.77,220.67c-.07,0-.13,0-.15-.07l-.44-.9c0-.08.05-.21.19-.27s.3-.06.34,0l.43.89c0,.09,0,.21-.19.28A.39.39,0,0,1,366.77,220.67Z" style="fill:#407BFF"></path><path d="M368.42,221.1c-.09,0-.15,0-.16-.1s.09-.22.24-.27l1.18-.43c.15-.05.29,0,.3.08s-.09.21-.24.27l-1.18.42Z" style="fill:#407BFF"></path><path d="M368.55,223.14h-.09l-1.2-.52c-.11-.05-.1-.16,0-.26a.41.41,0,0,1,.38-.1l1.21.52c.1,0,.09.16,0,.26A.48.48,0,0,1,368.55,223.14Z" style="fill:#407BFF"></path><path d="M370.83,222.88c-.08,0-.15,0-.16-.09l-.23-1.09c0-.09.09-.21.24-.27s.28,0,.3.07l.23,1.09c0,.09-.09.21-.23.27A.41.41,0,0,1,370.83,222.88Z" style="fill:#407BFF"></path><path d="M368.22,218.87h-.07c-.12,0-.13-.14,0-.25l.77-.8a.45.45,0,0,1,.38-.13c.12,0,.13.15,0,.25l-.77.8A.44.44,0,0,1,368.22,218.87Z" style="fill:#407BFF"></path><path d="M367.44,217.76h-.05l-1.22-.23c-.12,0-.15-.13-.06-.24a.45.45,0,0,1,.38-.15l1.22.24c.12,0,.15.12.06.23A.46.46,0,0,1,367.44,217.76Z" style="fill:#407BFF"></path><path d="M368,215.92c-.11,0-.18-.06-.17-.14a.38.38,0,0,1,.3-.25l1.87-.39c.14,0,.25,0,.23.13s-.15.22-.3.25l-1.86.39Z" style="fill:#407BFF"></path><path d="M369.59,214.44c-.1,0-.17-.05-.17-.13l0-.67a.36.36,0,0,1,.29-.25c.15,0,.26,0,.26.11l0,.67a.37.37,0,0,1-.28.26Z" style="fill:#407BFF"></path><path d="M371.68,213.14a.18.18,0,0,1-.13,0c-.07-.06,0-.19.11-.27l1.07-.7c.14-.09.3-.11.37,0s0,.19-.1.28l-1.08.7A.44.44,0,0,1,371.68,213.14Z" style="fill:#407BFF"></path><path d="M374.25,211.38h-.05l-1.46-.26c-.12,0-.15-.13-.07-.23a.46.46,0,0,1,.38-.16l1.46.26c.12,0,.15.13.07.24A.48.48,0,0,1,374.25,211.38Z" style="fill:#407BFF"></path><path d="M376.24,210.66l-.09,0c-.1,0-.1-.16,0-.26l1.33-1.21a.42.42,0,0,1,.38-.11c.11,0,.1.16,0,.26l-1.32,1.22A.49.49,0,0,1,376.24,210.66Z" style="fill:#407BFF"></path><path d="M380.79,209.93a.18.18,0,0,1-.13,0l-1.14-1.12c-.07-.07,0-.19.12-.27s.3-.1.36,0l1.14,1.11c.07.07,0,.19-.11.28A.44.44,0,0,1,380.79,209.93Z" style="fill:#407BFF"></path><path d="M385.38,209.44h-2.21c-.14,0-.2-.09-.14-.2a.44.44,0,0,1,.36-.19h2.21c.13,0,.2.08.14.19A.44.44,0,0,1,385.38,209.44Z" style="fill:#407BFF"></path><path d="M384.22,211.86c-.12,0-.19-.07-.15-.17l.32-.89a.4.4,0,0,1,.33-.22c.14,0,.23.06.19.16l-.32.89a.44.44,0,0,1-.33.23Z" style="fill:#407BFF"></path><path d="M387.36,212.44a.21.21,0,0,1-.12,0l-1.15-.84c-.09-.06,0-.18.08-.27a.35.35,0,0,1,.37-.06l1.16.84c.08.06,0,.19-.08.28A.52.52,0,0,1,387.36,212.44Z" style="fill:#407BFF"></path><path d="M385.35,213.77a.16.16,0,0,1-.16-.09c0-.09.07-.21.21-.27l1.47-.62c.14-.07.29,0,.32,0s-.06.21-.21.28l-1.46.62A.59.59,0,0,1,385.35,213.77Z" style="fill:#407BFF"></path><path d="M386.11,216.3c-.08,0-.15,0-.16-.08l-.37-1.19c0-.09.07-.22.21-.28s.29,0,.32.06l.37,1.19c0,.09-.07.21-.22.27Z" style="fill:#407BFF"></path><path d="M383.63,217.52a.17.17,0,0,1-.13,0c-.08-.06,0-.18.09-.27l1.26-.86a.36.36,0,0,1,.38,0c.07.06,0,.19-.1.27l-1.26.86A.49.49,0,0,1,383.63,217.52Z" style="fill:#407BFF"></path><path d="M383.35,219.1h0l-1.52-.23a.13.13,0,0,1-.08-.23.46.46,0,0,1,.38-.16l1.52.23c.13,0,.16.12.08.23A.46.46,0,0,1,383.35,219.1Z" style="fill:#407BFF"></path><path d="M379.65,221.64h-.07c-.11,0-.13-.14,0-.24l1.31-1.42a.44.44,0,0,1,.38-.13c.12,0,.13.14,0,.24L380,221.5A.45.45,0,0,1,379.65,221.64Z" style="fill:#407BFF"></path><path d="M376.09,221.64c-.12,0-.19-.07-.15-.17a.45.45,0,0,1,.33-.22l2.18-.23c.13,0,.23.06.19.16a.44.44,0,0,1-.34.23l-2.17.23Z" style="fill:#407BFF"></path><path d="M374,223.74l-.09,0c-.1,0-.09-.16,0-.26l1-.85a.41.41,0,0,1,.38-.1c.11,0,.1.16,0,.26l-1,.85A.42.42,0,0,1,374,223.74Z" style="fill:#407BFF"></path><path d="M372,223.31h-.09c-.1,0-.1-.16,0-.26l1-1a.43.43,0,0,1,.39-.11c.1,0,.1.16,0,.26l-1,1A.44.44,0,0,1,372,223.31Z" style="fill:#407BFF"></path><path d="M377.59,222.88c-.13,0-.19-.07-.15-.17a.44.44,0,0,1,.34-.22l.83-.06c.14,0,.22.07.17.18a.44.44,0,0,1-.34.22l-.83,0Z" style="fill:#407BFF"></path><path d="M382.49,220.67c-.09,0-.16,0-.16-.12s.12-.21.27-.26l1.14-.32c.15,0,.27,0,.27.1s-.12.22-.27.26l-1.14.33Z" style="fill:#407BFF"></path><path d="M385.77,218.07h-.07c-.11,0-.13-.14,0-.25l.74-.8a.45.45,0,0,1,.38-.13c.12,0,.14.14,0,.24l-.73.8A.46.46,0,0,1,385.77,218.07Z" style="fill:#407BFF"></path><path d="M387.9,214.44c-.1,0-.16-.05-.16-.12l0-.86c0-.1.13-.21.28-.25s.27,0,.26.1l0,.86c0,.1-.13.21-.28.25Z" style="fill:#407BFF"></path><path d="M387.62,210.66c-.13,0-.2-.08-.16-.18l.25-.61a.43.43,0,0,1,.34-.21c.14,0,.23.06.18.17l-.25.61a.43.43,0,0,1-.34.22Z" style="fill:#407BFF"></path><path d="M383,208.14a.15.15,0,0,1-.1,0l-.56-.31c-.09-.05-.07-.17.05-.27a.4.4,0,0,1,.38-.08l.55.31c.1.06.08.18,0,.27A.44.44,0,0,1,383,208.14Z" style="fill:#407BFF"></path><path d="M383.13,210.66h-.89c-.14,0-.2-.09-.14-.2a.44.44,0,0,1,.36-.2h.89c.14,0,.2.09.14.2A.44.44,0,0,1,383.13,210.66Z" style="fill:#407BFF"></path><path d="M377.92,210.66c-.09,0-.15,0-.16-.11s.1-.21.25-.26l.89-.31c.15,0,.28,0,.29.08s-.09.22-.24.27l-.9.3A.31.31,0,0,1,377.92,210.66Z" style="fill:#407BFF"></path><path d="M375,209.44c-.13,0-.2-.08-.15-.18a.41.41,0,0,1,.34-.21l1-.07c.14,0,.22.07.17.18a.43.43,0,0,1-.34.21l-1,.07Z" style="fill:#407BFF"></path><path d="M366.81,215.11a.17.17,0,0,1-.14-.06c-.06-.07,0-.2.15-.27l1-.57c.14-.08.3-.08.35,0s0,.2-.15.27l-1,.57A.42.42,0,0,1,366.81,215.11Z" style="fill:#407BFF"></path><path d="M371,212c-.1,0-.17-.05-.16-.13l.05-.64c0-.1.14-.21.29-.25s.27,0,.26.12l-.06.64c0,.1-.14.21-.29.25Z" style="fill:#407BFF"></path><path d="M369.21,220c-.1,0-.17,0-.17-.12v-.36c0-.1.12-.22.27-.26s.27,0,.27.1v.37c0,.1-.13.21-.28.25Z" style="fill:#407BFF"></path><path d="M371.71,224.21h0l-.95-.1c-.13,0-.17-.11-.1-.22a.44.44,0,0,1,.38-.17l.94.1c.13,0,.18.12.1.23A.49.49,0,0,1,371.71,224.21Z" style="fill:#407BFF"></path><path d="M362.74,217.24c-.19.38-.44.89-.75,1.55-.49,1.06-.93,1.93-1.33,2.62a8,8,0,0,1-1.53,1.88,5.21,5.21,0,0,1-2.26,1.21,2.93,2.93,0,0,1-1.76,0,.87.87,0,0,1-.65-.94,2,2,0,0,1,.4-1,3.91,3.91,0,0,1,1-.94,3.64,3.64,0,0,1,1.23-.58,1.85,1.85,0,0,1,.49-.08.25.25,0,0,1,.18,0,.12.12,0,0,1,.06.13c0,.08,0,.15-.15.23a.61.61,0,0,1-.32.13l-.28.05a2.48,2.48,0,0,0-.88.43,3,3,0,0,0-.68.69,1.51,1.51,0,0,0-.29.73.62.62,0,0,0,.46.68,2.3,2.3,0,0,0,1.24,0,4.11,4.11,0,0,0,1.93-1.1,7.41,7.41,0,0,0,1.32-1.71c.34-.6.73-1.4,1.18-2.38.28-.62.52-1.14.74-1.56a9.43,9.43,0,0,1,.67-1.15,3.74,3.74,0,0,1,.7-.74,3.84,3.84,0,0,1,.92-.54l.1,0a.27.27,0,0,1,.2,0,.21.21,0,0,1,.11.12.29.29,0,0,1-.09.21.8.8,0,0,1-.21.15,2.12,2.12,0,0,0-.61.37,2.5,2.5,0,0,0-.48.52A9.84,9.84,0,0,0,362.74,217.24Zm4.82,2.37a8.74,8.74,0,0,1-2,2.58,6.7,6.7,0,0,1-2.86,1.56,4.11,4.11,0,0,1-2,.11A.81.81,0,0,1,360,223a1.55,1.55,0,0,1,.57-1.05,3,3,0,0,1,1.27-.68,1.8,1.8,0,0,1,1,0,.93.93,0,0,1,.6.51.08.08,0,0,1,0,.07.34.34,0,0,1-.11.2.51.51,0,0,1-.25.14c-.17,0-.28,0-.33-.07a.84.84,0,0,0-.39-.33.91.91,0,0,0-.57,0,1.74,1.74,0,0,0-.75.42,1,1,0,0,0-.34.64q0,.5.57.6a3.63,3.63,0,0,0,1.49-.12,5.46,5.46,0,0,0,2.49-1.41A8,8,0,0,0,367,219.5a6.59,6.59,0,0,0,.68-2.42,2.33,2.33,0,0,0-.78-2.16,3.47,3.47,0,0,0-2.83-.22,8.61,8.61,0,0,0-2.66,1.18,6.24,6.24,0,0,0-1.78,1.81,4.55,4.55,0,0,0-.72,2.15.33.33,0,0,1-.12.2.6.6,0,0,1-.26.14.39.39,0,0,1-.24,0,.12.12,0,0,1-.1-.14,5.1,5.1,0,0,1,.84-2.44,7.18,7.18,0,0,1,2.06-2.05,9.36,9.36,0,0,1,3-1.32c1.53-.35,2.65-.28,3.35.22a2.6,2.6,0,0,1,1,2.46A7,7,0,0,1,367.56,219.61Z" style="fill:#fff"></path><path d="M375.19,218.62a3.36,3.36,0,0,1-1.42.77,2.24,2.24,0,0,1-1.28,0,7.85,7.85,0,0,1-1.18,1.06,3.72,3.72,0,0,1-1.22.6c-1,.26-1.47,0-1.42-.78a6.72,6.72,0,0,1,1.64-3.47,6,6,0,0,1,1.21-1.2,3.75,3.75,0,0,1,1.28-.64,1.83,1.83,0,0,1,1.25,0,.73.73,0,0,1,.39.77,4.15,4.15,0,0,1-.44,1.41,10.11,10.11,0,0,1-1.06,1.7,1.12,1.12,0,0,0,.86,0,2.31,2.31,0,0,0,1-.6,5.48,5.48,0,0,0,1-1.29.64.64,0,0,1,.14-.15.72.72,0,0,1,.2-.09.45.45,0,0,1,.26,0c.07,0,.11.08.1.14a.27.27,0,0,1,0,.1A6.62,6.62,0,0,1,375.19,218.62Zm-2.4-.88a.15.15,0,0,1,0,.2.44.44,0,0,0-.06.16c0,.06,0,.1,0,.12a7.52,7.52,0,0,0,.7-1.25,3.15,3.15,0,0,0,.28-1,.41.41,0,0,0-.25-.47,1.12,1.12,0,0,0-.71,0,2.5,2.5,0,0,0-.94.51,5.29,5.29,0,0,0-.89.93,6.26,6.26,0,0,0-1.52,3.16c0,.47.21.64.71.51a2.65,2.65,0,0,0,1-.52,7.14,7.14,0,0,0,1-1,.93.93,0,0,1-.1-.52,1.79,1.79,0,0,1,.13-.57.32.32,0,0,1,.13-.16.9.9,0,0,1,.24-.12A.34.34,0,0,1,372.79,217.74Z" style="fill:#fff"></path><path d="M383.34,215.15a.24.24,0,0,1,0,.11,12.49,12.49,0,0,1-1.7,2.29,3.33,3.33,0,0,1-1.58.95,1.12,1.12,0,0,1-.9,0,.64.64,0,0,1-.28-.62,2.49,2.49,0,0,1,.23-.83c.14-.31.33-.69.57-1.13s.43-.83.55-1.1a2.18,2.18,0,0,0,.2-.72c0-.4-.27-.52-.86-.37a3.54,3.54,0,0,0-1.6,1.23,11.62,11.62,0,0,0-1.45,2.06l-1.34,2.6a.39.39,0,0,1-.19.19.85.85,0,0,1-.28.1.28.28,0,0,1-.2-.07.16.16,0,0,1,0-.19l1.52-3,1.42-2.72a.5.5,0,0,1,.35-.25.35.35,0,0,1,.29,0q.1.08,0,.21l-.15.26a4,4,0,0,1,1.63-1c1.07-.27,1.59-.05,1.55.67a2.55,2.55,0,0,1-.22.8c-.13.3-.33.71-.6,1.22s-.4.79-.52,1.06a2.2,2.2,0,0,0-.21.71.36.36,0,0,0,.1.33.45.45,0,0,0,.39,0,2.46,2.46,0,0,0,1.15-.77,14.9,14.9,0,0,0,1.45-2A.57.57,0,0,1,383,215h.15C383.28,215,383.35,215.05,383.34,215.15Z" style="fill:#fff"></path><path d="M390.22,213.37a.54.54,0,0,1,0,.12,12.24,12.24,0,0,1-1.67,2.27,3.54,3.54,0,0,1-1.6,1c-.71.19-1.1,0-1.18-.5a4.7,4.7,0,0,1-1,.84,3.82,3.82,0,0,1-1.14.51h0a1.83,1.83,0,0,1-1.21,0,.75.75,0,0,1-.36-.79,3,3,0,0,1,.38-1.09c.23-.48.77-1.48,1.6-3l.32-.57a.39.39,0,0,1,.14-.15.72.72,0,0,1,.2-.09c.14,0,.24,0,.3,0s.07.12,0,.21l-.87,1.61c-.63,1.18-1,1.91-1.15,2.18a1.85,1.85,0,0,0-.22.69q0,.72.9.48a2.76,2.76,0,0,0,1.06-.57,4.93,4.93,0,0,0,1-1.12c.25-.37.5-.79.76-1.26s.65-1.2,1.17-2.18l.42-.79a.34.34,0,0,1,.13-.14.62.62,0,0,1,.2-.1.38.38,0,0,1,.31,0q.1.07,0,.21l-.66,1.26-.4.74c-.36.67-.64,1.25-.86,1.74a3.91,3.91,0,0,0-.33,1c0,.17,0,.29.09.34a.49.49,0,0,0,.39,0,2.56,2.56,0,0,0,1.19-.8,14.15,14.15,0,0,0,1.41-2,.44.44,0,0,1,.13-.15.88.88,0,0,1,.2-.09H390C390.16,213.23,390.22,213.28,390.22,213.37Z" style="fill:#fff"></path><path d="M393.78,212.45a.24.24,0,0,1,0,.11,12.33,12.33,0,0,1-1.74,2.25,4.31,4.31,0,0,1-1.93,1.1,1.27,1.27,0,0,1-.92,0,.62.62,0,0,1-.29-.62,3.71,3.71,0,0,1,.33-1,14.52,14.52,0,0,1,.79-1.58l1-1.88-1.08.28a.41.41,0,0,1-.25,0,.14.14,0,0,1-.1-.14.39.39,0,0,1,.12-.2.6.6,0,0,1,.26-.14l1.32-.34.5-1c.23-.44.39-.77.49-1a.53.53,0,0,1,.36-.26.35.35,0,0,1,.29,0q.11.07,0,.21c-.06.14-.2.4-.39.79l-.51,1,1.15-.3a.41.41,0,0,1,.25,0,.13.13,0,0,1,.09.14.27.27,0,0,1-.11.2.6.6,0,0,1-.26.14l-1.41.36-.46.92-.61,1.16c-.39.76-.66,1.32-.81,1.67a2.66,2.66,0,0,0-.24.78.33.33,0,0,0,.12.32.48.48,0,0,0,.4,0,3.2,3.2,0,0,0,1.53-.94,12,12,0,0,0,1.46-1.95.62.62,0,0,1,.35-.23l.15,0C393.73,212.3,393.79,212.36,393.78,212.45Z" style="fill:#fff"></path><path d="M397.92,212.92a4.32,4.32,0,0,1-1.17,1,5.92,5.92,0,0,1-1.59.66,3.42,3.42,0,0,1-1.28.11,1.61,1.61,0,0,1-.91-.37.89.89,0,0,1-.3-.76,2.58,2.58,0,0,1,.78-1.44,3.64,3.64,0,0,1,1.66-.89,1.62,1.62,0,0,1,1.12,0,.73.73,0,0,1,.45.7.29.29,0,0,1-.11.2.58.58,0,0,1-.26.13.38.38,0,0,1-.26,0,.16.16,0,0,1-.09-.15.44.44,0,0,0-.26-.41.9.9,0,0,0-.61,0,2.49,2.49,0,0,0-1.15.63,1.84,1.84,0,0,0-.55,1,.68.68,0,0,0,.5.72,2,2,0,0,0,1.3,0,4.37,4.37,0,0,0,1.75-.87,1.94,1.94,0,0,0,.76-1.32,1.07,1.07,0,0,0-.2-.65,7.53,7.53,0,0,0-.87-1l-.36.36a.52.52,0,0,1-.28.16.43.43,0,0,1-.25,0,.16.16,0,0,1-.11-.17.35.35,0,0,1,.1-.17c.21-.21.41-.41.6-.58a1.15,1.15,0,0,1-.21-.7,1.42,1.42,0,0,1,.42-.87,1.8,1.8,0,0,1,.9-.56.77.77,0,0,1,.57,0,.43.43,0,0,1,.22.37,1.64,1.64,0,0,1-.31.76,6.08,6.08,0,0,1-.73.86l.38.41a5.5,5.5,0,0,1,.68.81,1.26,1.26,0,0,1,.17.73A2.25,2.25,0,0,1,397.92,212.92Zm-.61-4.11a1.13,1.13,0,0,0,.18-.46c0-.08,0-.11-.1-.09a1,1,0,0,0-.26.17.84.84,0,0,0-.29.58,1,1,0,0,0,.07.35A4,4,0,0,0,397.31,208.81Z" style="fill:#fff"></path><polygon points="364.2 197.37 360.8 192.1 341.55 228.23 344.45 233.44 364.2 197.37" style="fill:#263238"></polygon><polygon points="360.8 192.1 407.22 192.76 410.09 197.37 364.2 197.37 360.8 192.1" style="fill:#263238"></polygon><polygon points="360.8 192.1 407.22 192.76 410.09 197.37 364.2 197.37 360.8 192.1" style="fill:#fff;opacity:0.2;isolation:isolate"></polygon><polygon points="364.2 197.37 360.8 192.1 341.55 228.23 344.45 233.44 364.2 197.37" style="fill:#fff;opacity:0.1;isolation:isolate"></polygon><path d="M290.68,236.87a1.15,1.15,0,0,1,0,.19,2.61,2.61,0,0,1-.77,1.7,2.69,2.69,0,0,1-1.89.78H277.42a2.66,2.66,0,0,1-2.5-1.74,2.84,2.84,0,0,1-.17-.93,2.66,2.66,0,0,1,2.67-2.67H288A2.68,2.68,0,0,1,290.68,236.87Z" style="fill:#407BFF"></path><path d="M290.68,236.87a1.15,1.15,0,0,1,0,.19,1.32,1.32,0,0,0-1.62.35c-.6.7-.94,0-1.83-.54s-1.69-.1-2.48.83-1.28.06-2-.83-2.18,0-2.92.83-1.23-.29-1.83-.83-1.29,0-2.28.83a.66.66,0,0,1-.77.1,2.84,2.84,0,0,1-.17-.93,2.66,2.66,0,0,1,2.67-2.67H288A2.68,2.68,0,0,1,290.68,236.87Z" style="fill:#263238"></path><polygon points="291.98 241.56 275.87 241.56 270.87 239.09 296.98 239.09 291.98 241.56" style="fill:#407BFF"></polygon><polygon points="291.98 241.56 275.87 241.56 270.87 239.09 296.98 239.09 291.98 241.56" style="fill:#fff;opacity:0.6000000000000001;isolation:isolate"></polygon><path d="M300.39,239.84H268.25a.75.75,0,0,1-.74-.75h0a.74.74,0,0,1,.74-.74h32.14a.74.74,0,0,1,.74.74h0A.75.75,0,0,1,300.39,239.84Z" style="fill:#407BFF"></path><path d="M300.39,239.84H268.25a.75.75,0,0,1-.74-.75h0a.74.74,0,0,1,.74-.74h32.14a.74.74,0,0,1,.74.74h0A.75.75,0,0,1,300.39,239.84Z" style="fill:#fff;opacity:0.7000000000000001;isolation:isolate"></path><path d="M390.27,214.53l0-.06c-.43-.76,0-1.83.74-2.78,1.39-1.7-.4-2.12-1.17-3.05s-.39-2.18-2.63-2a6.79,6.79,0,0,1-1.94.07c-.47-.14-.46-.51-.75-.76-.75-.64-4.11-.55-5.54.23-.9.49-1.46,1.33-2.51,1.65-1.58.48-3.29-.12-4.86.74s-1.55,2.22-3,3c-1.81,1.07-3.79,1.63-3.93,3.34a4.57,4.57,0,0,1-.42,2c-.68,1.26-2.49,3.1-1.47,4a9.86,9.86,0,0,0,1.73.82c1.06.58-.32,2.18.65,2.86.82.57,2.3,0,3.46.09,1.5.14,1.4,1.94,3.68,1.14,1.73-.61,3.12-1.08,4.58-.67a3.55,3.55,0,0,0,2.92-1.12,9.9,9.9,0,0,1,4.36-2.43,2.32,2.32,0,0,0,1.43-.66,8.17,8.17,0,0,0,.92-1.2,7.13,7.13,0,0,1,2.31-2.46c.9-.56,2-1.28,1.89-2A2.22,2.22,0,0,0,390.27,214.53Zm-15.74,5.94c-3.19,0-4.66-2-3.29-4.53s5.06-4.53,8.25-4.53,4.65,2,3.28,4.53S377.71,220.47,374.53,220.47Z" style="fill:#407BFF"></path></g><g id="Plant"><path d="M93.34,328.39c.25,1.74-4.48,2.89-8.34,3.53.31,3.17,2.42,6.37,5.33,9.36,3.66-2.06,8.89-4.79,9.85-4.12s-4.3,4.19-7.65,6.22a68.93,68.93,0,0,0,7.58,5.74c1.65-1.53,3.57-2.88,4.71-2.15s.87,3.13.28,5.25c4,2.32,7,3.73,7,3.73a80.9,80.9,0,0,0,2.66-11.31c-.2-.39-.4-.79-.59-1.22-.64-1.48,0-2.11,1-2.32a39.7,39.7,0,0,0,.06-8.15c-4.51-.94-10-2.69-7.93-5.4,1.23-1.63,3.5-1.81,5.86-1.4a10.05,10.05,0,0,0-1.11-1.52c-8.21-9-13.93,0-13.93,0-4.77-4-11.46-2.9-12.91,3.31C87.91,327.25,93,326.23,93.34,328.39Z" style="fill:#407BFF"></path><path d="M93.34,328.39c.25,1.74-4.48,2.89-8.34,3.53.31,3.17,2.42,6.37,5.33,9.36,3.66-2.06,8.89-4.79,9.85-4.12s-4.3,4.19-7.65,6.22a68.93,68.93,0,0,0,7.58,5.74c1.65-1.53,3.57-2.88,4.71-2.15s.87,3.13.28,5.25c4,2.32,7,3.73,7,3.73a80.9,80.9,0,0,0,2.66-11.31c-.2-.39-.4-.79-.59-1.22-.64-1.48,0-2.11,1-2.32a39.7,39.7,0,0,0,.06-8.15c-4.51-.94-10-2.69-7.93-5.4,1.23-1.63,3.5-1.81,5.86-1.4a10.05,10.05,0,0,0-1.11-1.52c-8.21-9-13.93,0-13.93,0-4.77-4-11.46-2.9-12.91,3.31C87.91,327.25,93,326.23,93.34,328.39Z" style="fill:#fff;opacity:0.30000000000000004;isolation:isolate"></path><path d="M103.57,394.82l-1.18-.1c0-.61,4.86-61.14-8.73-66.84a4.6,4.6,0,0,0-4.11.1c-4.91,2.55-7.26,13.15-7.29,13.26L81.1,341c.1-.46,2.5-11.25,7.9-14.06a5.82,5.82,0,0,1,5.12-.15C108.49,332.82,103.78,392.29,103.57,394.82Z" style="fill:#407BFF"></path><path d="M105.28,393.51c-.24-2.73-5.78-66.77,4.59-73.57,2.48-1.62,4.7-2,6.58-1,4.9,2.47,5.54,12.95,5.57,13.39l-1.19.07c0-.11-.62-10.24-4.91-12.4-1.48-.74-3.3-.42-5.4,1-9.78,6.41-4.11,71.8-4,72.46Z" style="fill:#407BFF"></path><path d="M106.84,398.68c-.07-2.08-1.78-51.1,7.66-55.39a6.6,6.6,0,0,1,5.61-.05c6.48,2.85,10.48,14.93,10.65,15.44l-1.13.37c0-.12-4-12.09-10-14.72a5.38,5.38,0,0,0-4.65,0c-7.24,3.29-7.48,40.29-7,54.27Z" style="fill:#407BFF"></path><path d="M104.44,396.44l-1.18-.13c1.67-14.59,4.85-53.47-.35-58.11a2,2,0,0,0-2.13-.65c-3.48,1.33-5.6,14-6.12,18.74l-1.18-.13c.2-1.83,2.1-17.89,6.88-19.72a3.13,3.13,0,0,1,3.34.88C110.42,343.31,104.69,394.27,104.44,396.44Z" style="fill:#407BFF"></path><polygon points="84.64 368.78 127.27 368.78 123.71 416.53 88.2 416.53 84.64 368.78" style="fill:#263238"></polygon><polygon points="97.59 368.78 98.78 416.53 123.71 416.53 127.27 368.78 97.59 368.78" style="fill:#fff;opacity:0.2;isolation:isolate"></polygon><path d="M90.45,351.26c-.45,1.16-3.76.25-6.36-.68-.89,2.06-.69,4.76.08,7.6,3,0,7.13.09,7.49.84s-4.09,1.1-6.85,1.21a47.62,47.62,0,0,0,2.71,6.14c1.54-.38,3.18-.55,3.64.29s-.54,2.22-1.63,3.33c1.66,2.8,3,4.69,3,4.69a56.62,56.62,0,0,0,5.52-6.06c0-.31,0-.63.05-.95.12-1.14.72-1.32,1.45-1.08a28.66,28.66,0,0,0,2.83-5c-2.46-2.13-5.24-5.09-3.05-6,1.33-.58,2.79.08,4.1,1.14a6.44,6.44,0,0,0-.16-1.32c-2-8.38-8.59-4.77-8.59-4.77-1.58-4.09-6.08-5.72-9.1-2.39C87.49,348.7,91,349.83,90.45,351.26Z" style="fill:#407BFF"></path><path d="M90.45,351.26c-.45,1.16-3.76.25-6.36-.68-.89,2.06-.69,4.76.08,7.6,3,0,7.13.09,7.49.84s-4.09,1.1-6.85,1.21a47.62,47.62,0,0,0,2.71,6.14c1.54-.38,3.18-.55,3.64.29s-.54,2.22-1.63,3.33c1.66,2.8,3,4.69,3,4.69a56.62,56.62,0,0,0,5.52-6.06c0-.31,0-.63.05-.95.12-1.14.72-1.32,1.45-1.08a28.66,28.66,0,0,0,2.83-5c-2.46-2.13-5.24-5.09-3.05-6,1.33-.58,2.79.08,4.1,1.14a6.44,6.44,0,0,0-.16-1.32c-2-8.38-8.59-4.77-8.59-4.77-1.58-4.09-6.08-5.72-9.1-2.39C87.49,348.7,91,349.83,90.45,351.26Z" style="fill:#fff;opacity:0.30000000000000004;isolation:isolate"></path><path d="M122.1,356.93a16.51,16.51,0,0,0-3.9.82,9.25,9.25,0,0,1-.57-2.82c-.27-8.6,5.88-5,9.14-7.5a7,7,0,0,1,5.44-1.71,12,12,0,0,0-.74,1.48,1.35,1.35,0,0,0,1,1.84,4,4,0,0,0,2.42-.29,6.26,6.26,0,0,0,.62-.43,12.36,12.36,0,0,1,1.18,2.87,16.37,16.37,0,0,1,.55,3.68,12.22,12.22,0,0,0-1.43.41,1.33,1.33,0,0,0-.54,2,6.19,6.19,0,0,0,1.77,1.25,20.43,20.43,0,0,1-1.08,4l-.44.06c-.31.06-.62.14-.93.23a3.13,3.13,0,0,0-.51.19,1.37,1.37,0,0,0-.81,1,1.34,1.34,0,0,0,.51,1.24,4.27,4.27,0,0,0,.64.4,9.45,9.45,0,0,1-3.4,3.43,35.09,35.09,0,0,1-3.63-1.91c.26-.34.52-.69.76-1a2,2,0,0,0,.36-1.35,1.83,1.83,0,0,0-.7-1.22,1.84,1.84,0,0,0-2.56.33c-.28.43-.6.83-.91,1.24A23.05,23.05,0,0,1,120,361l.13,0a14.35,14.35,0,0,1,2.43-.41,1.85,1.85,0,0,0,1.58-2A1.87,1.87,0,0,0,122.1,356.93Z" style="fill:#407BFF"></path><path d="M122.1,356.93a16.51,16.51,0,0,0-3.9.82,9.25,9.25,0,0,1-.57-2.82c-.27-8.6,5.88-5,9.14-7.5a7,7,0,0,1,5.44-1.71,12,12,0,0,0-.74,1.48,1.35,1.35,0,0,0,1,1.84,4,4,0,0,0,2.42-.29,6.26,6.26,0,0,0,.62-.43,12.36,12.36,0,0,1,1.18,2.87,16.37,16.37,0,0,1,.55,3.68,12.22,12.22,0,0,0-1.43.41,1.33,1.33,0,0,0-.54,2,6.19,6.19,0,0,0,1.77,1.25,20.43,20.43,0,0,1-1.08,4l-.44.06c-.31.06-.62.14-.93.23a3.13,3.13,0,0,0-.51.19,1.37,1.37,0,0,0-.81,1,1.34,1.34,0,0,0,.51,1.24,4.27,4.27,0,0,0,.64.4,9.45,9.45,0,0,1-3.4,3.43,35.09,35.09,0,0,1-3.63-1.91c.26-.34.52-.69.76-1a2,2,0,0,0,.36-1.35,1.83,1.83,0,0,0-.7-1.22,1.84,1.84,0,0,0-2.56.33c-.28.43-.6.83-.91,1.24A23.05,23.05,0,0,1,120,361l.13,0a14.35,14.35,0,0,1,2.43-.41,1.85,1.85,0,0,0,1.58-2A1.87,1.87,0,0,0,122.1,356.93Z" style="fill:#fff;opacity:0.5;isolation:isolate"></path><path d="M124.56,327.29A11.15,11.15,0,0,1,127,326a6.31,6.31,0,0,0-.94-1.73c-3.63-4.64-5.27,0-8.09.07a4.79,4.79,0,0,0-3.61,1.49,7.83,7.83,0,0,1,1,.45.92.92,0,0,1,.26,1.42,2.66,2.66,0,0,1-1.39.91,2.94,2.94,0,0,1-.51.05,7.92,7.92,0,0,0,.64,2,11.24,11.24,0,0,0,1.32,2.17,9.76,9.76,0,0,1,.93-.42.92.92,0,0,1,1.18.84,4,4,0,0,1-.38,1.43,13.31,13.31,0,0,0,2.33,1.64l.26-.15a6.45,6.45,0,0,1,.59-.29l.35-.13a.93.93,0,0,1,.88.2.88.88,0,0,1,.28.87,2.81,2.81,0,0,1-.16.49,6.45,6.45,0,0,0,3.3.31,25.31,25.31,0,0,0,1.06-2.59l-.85-.22a1.4,1.4,0,0,1-.79-.55,1.24,1.24,0,0,1-.16-.94,1.3,1.3,0,0,1,.54-.79,1.27,1.27,0,0,1,.95-.16c.33.09.68.17,1,.24a15.42,15.42,0,0,0,.43-4.14l-.09,0a9.64,9.64,0,0,0-1.45.85,1.25,1.25,0,0,1-1.34-2.11Z" style="fill:#407BFF"></path><path d="M124.56,327.29A11.15,11.15,0,0,1,127,326a6.31,6.31,0,0,0-.94-1.73c-3.63-4.64-5.27,0-8.09.07a4.79,4.79,0,0,0-3.61,1.49,7.83,7.83,0,0,1,1,.45.92.92,0,0,1,.26,1.42,2.66,2.66,0,0,1-1.39.91,2.94,2.94,0,0,1-.51.05,7.92,7.92,0,0,0,.64,2,11.24,11.24,0,0,0,1.32,2.17,9.76,9.76,0,0,1,.93-.42.92.92,0,0,1,1.18.84,4,4,0,0,1-.38,1.43,13.31,13.31,0,0,0,2.33,1.64l.26-.15a6.45,6.45,0,0,1,.59-.29l.35-.13a.93.93,0,0,1,.88.2.88.88,0,0,1,.28.87,2.81,2.81,0,0,1-.16.49,6.45,6.45,0,0,0,3.3.31,25.31,25.31,0,0,0,1.06-2.59l-.85-.22a1.4,1.4,0,0,1-.79-.55,1.24,1.24,0,0,1-.16-.94,1.3,1.3,0,0,1,.54-.79,1.27,1.27,0,0,1,.95-.16c.33.09.68.17,1,.24a15.42,15.42,0,0,0,.43-4.14l-.09,0a9.64,9.64,0,0,0-1.45.85,1.25,1.25,0,0,1-1.34-2.11Z" style="fill:#fff;opacity:0.30000000000000004;isolation:isolate"></path><path d="M89.83,335.89c-.25,1.75,4.48,2.9,8.34,3.54-.32,3.17-2.43,6.37-5.34,9.36C89.17,346.72,84,344,83,344.66s4.3,4.19,7.65,6.22a68.38,68.38,0,0,1-7.58,5.75c-1.64-1.54-3.56-2.88-4.71-2.15s-.86,3.12-.28,5.24c-4,2.32-7,3.74-7,3.74a80.9,80.9,0,0,1-2.66-11.31c.2-.4.4-.8.58-1.22.64-1.49,0-2.12-1-2.33a38.93,38.93,0,0,1-.07-8.14c4.51-.95,10-2.7,7.94-5.4-1.24-1.63-3.51-1.82-5.87-1.41a10.45,10.45,0,0,1,1.12-1.52c8.2-9,13.92,0,13.92,0,4.77-4,11.47-2.89,12.92,3.32C95.26,334.76,90.13,333.74,89.83,335.89Z" style="fill:#407BFF"></path><path d="M89.83,335.89c-.25,1.75,4.48,2.9,8.34,3.54-.32,3.17-2.43,6.37-5.34,9.36C89.17,346.72,84,344,83,344.66s4.3,4.19,7.65,6.22a68.38,68.38,0,0,1-7.58,5.75c-1.64-1.54-3.56-2.88-4.71-2.15s-.86,3.12-.28,5.24c-4,2.32-7,3.74-7,3.74a80.9,80.9,0,0,1-2.66-11.31c.2-.4.4-.8.58-1.22.64-1.49,0-2.12-1-2.33a38.93,38.93,0,0,1-.07-8.14c4.51-.95,10-2.7,7.94-5.4-1.24-1.63-3.51-1.82-5.87-1.41a10.45,10.45,0,0,1,1.12-1.52c8.2-9,13.92,0,13.92,0,4.77-4,11.47-2.89,12.92,3.32C95.26,334.76,90.13,333.74,89.83,335.89Z" style="fill:#fff;opacity:0.5;isolation:isolate"></path></g></svg>