<svg xmlns="http://www.w3.org/2000/svg" xmlns:xlink="http://www.w3.org/1999/xlink" viewBox="0 0 500 500"><defs><clippath id="clip-path"><path d="M411.52,405.29h-9.19s1.53-108.87,1.53-165.49a3.08,3.08,0,1,1,6.13,0C410,289.87,411.52,405.29,411.52,405.29Z" style="fill:#92E3A9;stroke:#263238;stroke-linecap:round;stroke-linejoin:round"></path></clippath><clippath id="clip-path-2"><path d="M415.43,177q-.53,3-1,5.92l14.66-3.3a10.3,10.3,0,0,1-2.86,3.83l7.58.27a3.94,3.94,0,0,1-3.61,3.79l1.31,2.69a17.15,17.15,0,0,1,13.52,3,14.21,14.21,0,0,1-8.32,2.39,37.81,37.81,0,0,1,11.81,4.62c1.24.74,2.6,2.24,1.77,3.43l-5.32-.4a16,16,0,0,0,5.42,5l-5.38.19a6.69,6.69,0,0,0,2.13,3.81l-4.27.69a27.72,27.72,0,0,1,6.65,12.6l-5.83-1.73a16.86,16.86,0,0,1,8.14,14.35,7.64,7.64,0,0,1-4.15-2.49,47.29,47.29,0,0,1,3.91,18.27,12.15,12.15,0,0,0-8.21-4,10,10,0,0,1,3.4,8.78c-.34-1.66-3-1.79-4-.44s-.78,3.27-.17,4.86a18.42,18.42,0,0,1-2.95-4.45,40.63,40.63,0,0,1,.82,13.9,19.1,19.1,0,0,1-6.37-8.42,44.48,44.48,0,0,0,1.56,10.05,15,15,0,0,1-7.55-9.35,33.72,33.72,0,0,0-.24,11l-4.59-11.46-.43,14.07a23.78,23.78,0,0,1-3.71-6l.06,2.84a11.91,11.91,0,0,1-4.34-3.57c0,1.2.05,2.4.08,3.6a23,23,0,0,1-5.46-6.89,15.83,15.83,0,0,0-4.83,9.45,10.56,10.56,0,0,1-1.62-8.74l-8,4.23a10.75,10.75,0,0,1,2-7.68,35,35,0,0,0-7,5.06,6.36,6.36,0,0,1,1.57-5.71,27.07,27.07,0,0,1-18.49,7.38,25.21,25.21,0,0,1,5.68-5.52,19.53,19.53,0,0,0-6.77,2.71l5-6.52a36.8,36.8,0,0,0-14.09,1,44.22,44.22,0,0,1,8.13-8.77,23.1,23.1,0,0,0-9.32.75,15,15,0,0,1,7.42-10.2l-14.21,4.94c5.16-7.57,10.61-15.41,18.61-19.89a103.6,103.6,0,0,0-14.09.73,14.5,14.5,0,0,1,7-5.82,27.2,27.2,0,0,0-12.74,1.49A11.14,11.14,0,0,1,366,222.07a30.13,30.13,0,0,1-9.35-4l10.71-.79L357.12,209a52.21,52.21,0,0,1,13.53,2.9A99.25,99.25,0,0,1,363.74,200l5.45,4.91.15-2.67a4.51,4.51,0,0,1,4.16,1.54,21.86,21.86,0,0,0-5.42-14,41.84,41.84,0,0,1,20.18,6.41,27,27,0,0,0-2.77-13.58,24.67,24.67,0,0,1,9.84,5.2A36.17,36.17,0,0,0,391.49,176a9.83,9.83,0,0,1,6.69,6.13,6.27,6.27,0,0,0,2.05-4.64c.65,1.66,1.31,3.31,2,5q1.65-2.52,3.31-5c-.2.3,2.18,4.88,2.51,5.5C410.67,181.38,413,179,415.43,177Z" style="fill:#92E3A9;stroke:#263238;stroke-linecap:round;stroke-linejoin:round"></path></clippath><clippath id="clip-path-3"><path d="M434.16,414.16h-11.9s2-140.9,2-214.19c0-5.85,7.94-5.85,7.94,0C432.18,264.78,434.16,414.16,434.16,414.16Z" style="fill:#92E3A9;stroke:#263238;stroke-linecap:round;stroke-linejoin:round"></path></clippath><clippath id="clip-path-4"><path d="M439.21,98c-.44,2.56-.89,5.11-1.34,7.67l19-4.28a13.39,13.39,0,0,1-3.7,5l9.81.36a5.1,5.1,0,0,1-4.68,4.9l1.7,3.48a22.19,22.19,0,0,1,17.5,3.85A18.45,18.45,0,0,1,466.71,122,49.17,49.17,0,0,1,482,128c1.61,1,3.36,2.9,2.29,4.44l-6.88-.51a20.6,20.6,0,0,0,7,6.44l-7,.24a8.59,8.59,0,0,0,2.75,4.93l-5.53.89a35.86,35.86,0,0,1,8.61,16.31l-7.55-2.23a21.83,21.83,0,0,1,10.54,18.58,9.92,9.92,0,0,1-5.37-3.23A61.11,61.11,0,0,1,486,197.48a15.71,15.71,0,0,0-10.62-5.13,13,13,0,0,1,4.39,11.36c-.44-2.15-3.87-2.31-5.2-.57s-1,4.24-.21,6.29a22.91,22.91,0,0,1-3.82-5.76,52.91,52.91,0,0,1,1.06,18,24.78,24.78,0,0,1-8.25-10.9,57.25,57.25,0,0,0,2,13,19.45,19.45,0,0,1-9.78-12.1,44,44,0,0,0-.3,14.21l-5.94-14.83-.57,18.21a30.78,30.78,0,0,1-4.79-7.82c0,1.23.05,2.46.08,3.69a15.36,15.36,0,0,1-5.62-4.62c0,1.55.07,3.09.1,4.64a29.53,29.53,0,0,1-7.06-8.91,20.46,20.46,0,0,0-6.26,12.23,13.6,13.6,0,0,1-2.09-11.3l-10.34,5.46a13.87,13.87,0,0,1,2.58-9.93,45.7,45.7,0,0,0-9,6.54,8.19,8.19,0,0,1,2-7.38,35.09,35.09,0,0,1-23.93,9.55,32.19,32.19,0,0,1,7.36-7.14,25.12,25.12,0,0,0-8.77,3.5l6.47-8.44a47.57,47.57,0,0,0-18.24,1.34,57.29,57.29,0,0,1,10.52-11.36,30,30,0,0,0-12.06,1,19.49,19.49,0,0,1,9.6-13.2l-18.39,6.4c6.68-9.8,13.73-19.95,24.09-25.74a132.38,132.38,0,0,0-18.24.94,18.86,18.86,0,0,1,9-7.54,35,35,0,0,0-16.48,1.94,14.4,14.4,0,0,1,15.87-6.76,39,39,0,0,1-12.09-5.16l13.86-1-13.2-10.78a67.23,67.23,0,0,1,17.52,3.75,129.76,129.76,0,0,1-8.95-15.34l7.06,6.36.19-3.46a5.82,5.82,0,0,1,5.38,2,28.17,28.17,0,0,0-7-18.15,54.11,54.11,0,0,1,26.12,8.29,35.06,35.06,0,0,0-3.58-17.58,32.18,32.18,0,0,1,12.74,6.73,46.85,46.85,0,0,0-5-15.23,12.77,12.77,0,0,1,8.67,7.94,8.15,8.15,0,0,0,2.64-6l2.55,6.43,4.29-6.52c-.26.39,2.82,6.31,3.25,7.12C433.05,103.65,436.13,100.54,439.21,98Z" style="fill:#92E3A9;stroke:#263238;stroke-linecap:round;stroke-linejoin:round"></path></clippath><clippath id="clip-path-5"><polygon points="80.89 396.57 75.55 396.57 76.73 289.25 79.7 289.25 80.89 396.57" style="fill:#92E3A9;stroke:#263238;stroke-linecap:round;stroke-linejoin:round"></polygon></clippath><clippath id="clip-path-6"><polygon points="80.72 289.97 75.71 289.97 74 276.48 82.44 276.48 80.72 289.97" style="fill:#92E3A9;stroke:#263238;stroke-linecap:round;stroke-linejoin:round"></polygon></clippath><clippath id="clip-path-7"><path d="M179.62,388.28h2a2.77,2.77,0,0,1,2.77,2.77v20.52a0,0,0,0,1,0,0h-7.54a0,0,0,0,1,0,0V391.05A2.77,2.77,0,0,1,179.62,388.28Z" style="fill:#92E3A9;stroke:#263238;stroke-linecap:round;stroke-linejoin:round"></path></clippath><clippath id="clip-path-8"><polygon points="182.48 312.28 178.75 312.28 177.47 302.22 183.76 302.22 182.48 312.28" style="fill:#92E3A9;stroke:#263238;stroke-linecap:round;stroke-linejoin:round"></polygon></clippath><clippath id="clip-path-9"><polygon points="180.96 299.43 180.26 299.43 176.29 302.22 184.94 302.22 180.96 299.43" style="fill:#92E3A9;stroke:#263238;stroke-linecap:round;stroke-linejoin:round"></polygon></clippath><clippath id="clip-path-10"><polygon points="239.64 389.65 236.74 389.65 237.38 331.21 239 331.21 239.64 389.65" style="fill:#92E3A9;stroke:#263238;stroke-linecap:round;stroke-linejoin:round"></polygon></clippath><clippath id="clip-path-11"><path d="M238.19,387.08h0a2.75,2.75,0,0,0-2.75,2.75v14.26h5.5V389.83A2.75,2.75,0,0,0,238.19,387.08Z" style="fill:#92E3A9;stroke:#263238;stroke-linecap:round;stroke-linejoin:round"></path></clippath><clippath id="clip-path-12"><polygon points="239.56 331.6 236.83 331.6 235.89 324.25 240.49 324.25 239.56 331.6" style="fill:#92E3A9;stroke:#263238;stroke-linecap:round;stroke-linejoin:round"></polygon></clippath><clippath id="clip-path-13"><polygon points="238.45 322.21 237.93 322.21 235.03 324.25 241.35 324.25 238.45 322.21" style="fill:#92E3A9;stroke:#263238;stroke-linecap:round;stroke-linejoin:round"></polygon></clippath><clippath id="clip-path-14"><path d="M273.07,387.4l-.52-46.18H273l.77-6.08h.72l-2.41-1.69h-.42l-2.4,1.69H270l.77,6.08h.46l-.51,46.18a2.15,2.15,0,0,0-1.09,1.87v11.9h4.55v-11.9A2.15,2.15,0,0,0,273.07,387.4Z" style="fill:#92E3A9;stroke:#263238;stroke-linecap:round;stroke-linejoin:round"></path></clippath><clippath id="clip-path-15"><path d="M360.92,377l-1.26-114.5h1.14l1.92-15.17h1.78l-6-4.21h-1.06l-6,4.21h1.78l1.93,15.17h1.14L355,377a2.78,2.78,0,0,0-2.74,2.77v32.32h11.36V379.8A2.77,2.77,0,0,0,360.92,377Z" style="fill:#92E3A9;stroke:#263238;stroke-linecap:round;stroke-linejoin:round"></path></clippath><clippath id="clip-path-16"><path d="M349.54,379.29h9.38a2.77,2.77,0,0,1,2.77,2.77v43.35a0,0,0,0,1,0,0H346.77a0,0,0,0,1,0,0V382.06A2.77,2.77,0,0,1,349.54,379.29Z" style="fill:#92E3A9;stroke:#263238;stroke-linecap:round;stroke-linejoin:round"></path></clippath><clippath id="clip-path-17"><polygon points="357.93 228.77 350.53 228.77 348 208.84 360.46 208.84 357.93 228.77" style="fill:#92E3A9;stroke:#263238;stroke-linecap:round;stroke-linejoin:round"></polygon></clippath><clippath id="clip-path-18"><polygon points="354.93 203.31 353.54 203.31 345.66 208.84 362.8 208.84 354.93 203.31" style="fill:#92E3A9;stroke:#263238;stroke-linecap:round;stroke-linejoin:round"></polygon></clippath><clippath id="clip-path-19"><polygon points="354.26 393.95 343.58 393.95 345.95 179.33 351.89 179.33 354.26 393.95" style="fill:#92E3A9;stroke:#263238;stroke-linecap:round;stroke-linejoin:round"></polygon></clippath><clippath id="clip-path-20"><polygon points="353.93 180.76 343.91 180.76 340.48 153.77 357.36 153.77 353.93 180.76" style="fill:#92E3A9;stroke:#263238;stroke-linecap:round;stroke-linejoin:round"></polygon></clippath></defs><g id="background-simple"><path d="M41.76,285.86a108.7,108.7,0,0,1,5.79-64.5c11.55-28.56,36.37-48.85,64.17-60.69,40.41-17.2,80.08-17.53,112.92-51.25,10.13-10.4,18.63-22.31,29-32.49,30.52-30,75.19-26.39,108.55-2.58,69.58,49.69,94.61,148.11,90.74,229.47-1.73,36.51-19.17,70.49-46.76,94.45-62.4,54.18-168.35,45.07-240,16.78C112.68,394,54.31,344.76,41.76,285.86Z" style="fill:#92E3A9"></path><path d="M41.76,285.86a108.7,108.7,0,0,1,5.79-64.5c11.55-28.56,36.37-48.85,64.17-60.69,40.41-17.2,80.08-17.53,112.92-51.25,10.13-10.4,18.63-22.31,29-32.49,30.52-30,75.19-26.39,108.55-2.58,69.58,49.69,94.61,148.11,90.74,229.47-1.73,36.51-19.17,70.49-46.76,94.45-62.4,54.18-168.35,45.07-240,16.78C112.68,394,54.31,344.76,41.76,285.86Z" style="fill:#fff;opacity:0.7000000000000001"></path></g><g id="Buildings"><polygon points="69.72 82.39 69.72 117.72 107.18 125.11 117.2 131.44 117.2 99.79 109.29 91.35 69.72 82.39" style="fill:#fff;opacity:0.7000000000000001"></polygon><polygon points="68.67 155.7 109.29 162.56 117.72 167.84 117.72 201.59 109.81 195.26 63.92 188.41 68.67 155.7" style="fill:#fff;opacity:0.7000000000000001"></polygon><polygon points="63.92 229.02 100.85 230.6 117.2 234.3 117.2 269.11 102.43 265.42 60.23 263.83 63.92 229.02" style="fill:#fff"></polygon><polygon points="65.51 300.76 102.43 302.87 117.72 306.03 117.2 339.26 96.63 335.57 62.34 335.57 65.51 300.76" style="fill:#fff"></polygon><polygon points="56.01 122.47 106.12 130.91 115.09 137.24 90.82 145.15 86.6 150.43 54.43 146.74 56.01 122.47" style="fill:#92E3A9;opacity:0.4"></polygon><polygon points="54.43 193.15 107.58 198.43 116.14 204.23 90.3 211.09 69.72 223.75 53.9 223.22 54.43 193.15" style="fill:#92E3A9;opacity:0.4"></polygon><polygon points="54.96 267.53 99.26 269.64 112.98 271.22 92.93 273.86 57.59 296.01 57.07 272.8 54.96 267.53" style="fill:#92E3A9;opacity:0.4"></polygon><path d="M58.12,339.79l43.78,2.64s10,.53,7.91.53-20.57,4.74-20.57,4.74L59.18,378.3Z" style="fill:#92E3A9;opacity:0.4"></path><path d="M101.37,213.73,122,209l.52-22.68,37.45-3.7L175.22,210,162,197.37l-31.65,6.86,31.13,1.58L176.8,230.6l-12.13-12.13-31.12,6.86,30.07,1,14.76,24.8L165.2,239.57,132.49,247l32.71,1.58,13.18,21.1-14.24-8.44-31.65,6.85,31.65,1.59,14.24,21.62s-9.49-7.91-12.13-8.44S133,288.63,133,288.63l31.65,2.63s15.82,23.21,13.71,21.1S167.84,305,166.25,305s-33.76,4.22-33.76,4.22L165.2,314s23.21,22.15,21.62,21.62-21.62-9-21.62-9l-30.07,2.64,30.07,8.44,21.62,16.88s-20-4.75-22.68-5.8-30.06,2.11-30.06,2.11l30.59,5.27,29,20.57-24.79-5.8-29,2.64,31.65,6.33s28.48,7.38,24.79,7.38-95.47-4.74-95.47-4.74l.52-31.12L122,345.07V298.12l-23.21-3.69s-1.59-13.72,1.05-14.77S123,275.44,123,275.44l-1-44.31-22.16-5.8Z" style="fill:#92E3A9;opacity:0.4"></path><polygon points="203.31 268.19 225.86 265.81 225.86 388.85 208.45 390.03 206.47 379.35 202.91 373.81 208.06 365.11 202.91 354.43 209.64 344.54 204.1 338.6 204.1 333.07 207.26 331.09 207.26 326.34 204.1 323.18 203.7 316.06 208.45 310.52 203.31 303.79 204.1 297.46 207.26 294.3 203.31 284.01 204.49 279.66 208.06 279.66 204.89 273.33 203.31 268.19" style="fill:#92E3A9;opacity:0.4"></polygon><polygon points="261.46 348.76 274.38 349.29 261.73 376.71 261.46 348.76" style="fill:#92E3A9;opacity:0.4"></polygon><polygon points="261.73 380.14 273.33 380.41 261.99 395.7 261.73 380.14" style="fill:#92E3A9;opacity:0.4"></polygon><polygon points="303.13 280.98 303.13 364.85 296.8 323.44 301.81 318.43 303.13 280.98" style="fill:#92E3A9;opacity:0.4"></polygon><polygon points="292.58 364.58 284.93 390.96 284.93 364.06 292.58 364.58" style="fill:#92E3A9;opacity:0.4"></polygon><polygon points="333.99 361.94 324.23 395.97 324.23 361.42 333.99 361.94" style="fill:#92E3A9;opacity:0.4"></polygon><polygon points="346.38 343.22 337.94 366.43 337.94 358.52 331.88 358.52 331.88 343.22 346.38 343.22" style="fill:#92E3A9;opacity:0.4"></polygon><path d="M353,357.2v22.94s12.39-22.15,9.76-21.89S353,357.2,353,357.2Z" style="fill:#92E3A9;opacity:0.4"></path><polygon points="378.82 309.99 378.82 361.42 370.91 395.18 384.1 395.18 384.1 324.5 393.33 315.79 393.33 309.2 378.82 309.99" style="fill:#92E3A9;opacity:0.4"></polygon><polygon points="395.97 318.43 393.59 325.55 393.59 381.99 397.02 356.41 395.97 318.43" style="fill:#92E3A9;opacity:0.4"></polygon><path d="M435.53,298.65H418.12v75.43l17.93,13.18S434.74,298.65,435.53,298.65Z" style="fill:#92E3A9;opacity:0.4"></path><polygon points="450.56 75 450.56 377.24 456.36 380.93 456.36 159.92 461.64 172.58 463.75 72.36 450.56 75" style="fill:#92E3A9;opacity:0.4"></polygon><polyline points="57.47 76.06 109.83 88.71 119.71 98.74 119.71 135.66 94.92 144.63 94.92 157.81 109.83 160.73 119.71 167.31 119.71 205.81 94.92 210.56 94.92 228.49 109.83 230.82 119.71 234.3 119.71 272.8 94.92 274.91 94.92 299.65 109.83 301.16 119.71 303.4 119.71 342.96 94.92 346.65 94.92 377.77" style="fill:none;stroke:#263238;stroke-linecap:round;stroke-linejoin:round"></polyline><polyline points="94.92 144.63 82.26 138.3 52.2 135.66" style="fill:none;stroke:#263238;stroke-linecap:round;stroke-linejoin:round"></polyline><line x1="94.92" y1="157.81" x2="52.2" y2="150.43" style="fill:none;stroke:#263238;stroke-linecap:round;stroke-linejoin:round"></line><polyline points="94.92 210.56 79.63 206.34 51.14 203.18" style="fill:none;stroke:#263238;stroke-linecap:round;stroke-linejoin:round"></polyline><polyline points="94.92 274.91 75.41 272.8 52.73 271.75" style="fill:none;stroke:#263238;stroke-linecap:round;stroke-linejoin:round"></polyline><line x1="94.92" y1="346.65" x2="56.42" y2="346.65" style="fill:none;stroke:#263238;stroke-linecap:round;stroke-linejoin:round"></line><line x1="94.92" y1="228.49" x2="49.56" y2="226.38" style="fill:none;stroke:#263238;stroke-linecap:round;stroke-linejoin:round"></line><line x1="94.92" y1="299.65" x2="52.2" y2="298.65" style="fill:none;stroke:#263238;stroke-linecap:round;stroke-linejoin:round"></line><line x1="82.79" y1="143.57" x2="82.79" y2="154.65" style="fill:none;stroke:#263238;stroke-linecap:round;stroke-linejoin:round"></line><line x1="82.79" y1="211.09" x2="82.79" y2="226.38" style="fill:none;stroke:#263238;stroke-linecap:round;stroke-linejoin:round"></line><line x1="83.32" y1="282.3" x2="83.32" y2="298.12" style="fill:none;stroke:#263238;stroke-linecap:round;stroke-linejoin:round"></line><line x1="84.37" y1="351.4" x2="84.37" y2="380.41" style="fill:none;stroke:#263238;stroke-linecap:round;stroke-linejoin:round"></line><line x1="64.86" y1="272.8" x2="64.86" y2="291.26" style="fill:none;stroke:#263238;stroke-linecap:round;stroke-linejoin:round"></line><line x1="63.8" y1="205.81" x2="63.8" y2="221.64" style="fill:none;stroke:#263238;stroke-linecap:round;stroke-linejoin:round"></line><line x1="64.86" y1="137.24" x2="64.86" y2="146.74" style="fill:none;stroke:#263238;stroke-linecap:round;stroke-linejoin:round"></line><polyline points="119.71 205.81 107.58 198.43 50.62 191.57" style="fill:none;stroke:#263238;stroke-linecap:round;stroke-linejoin:round"></polyline><polyline points="119.71 135.66 107.58 127.75 54.31 118.78" style="fill:none;stroke:#263238;stroke-linecap:round;stroke-linejoin:round"></polyline><polyline points="119.71 272.8 102.31 269.64 49.56 266.47" style="fill:none;stroke:#263238;stroke-linecap:round;stroke-linejoin:round"></polyline><polyline points="119.71 342.96 99.14 341.37 52.73 340.32" style="fill:none;stroke:#263238;stroke-linecap:round;stroke-linejoin:round"></polyline><line x1="64.33" y1="346.65" x2="64.33" y2="376.71" style="fill:none;stroke:#263238;stroke-linecap:round;stroke-linejoin:round"></line><polyline points="127.34 184.71 162.68 179.44 204.88 225.07 199.36 228.49 199.36 234.82" style="fill:none;stroke:#263238;stroke-linecap:round;stroke-linejoin:round"></polyline><polyline points="127.87 205.6 163.21 200.92 204.88 242.35 199.89 245.9 199.89 252.23" style="fill:none;stroke:#263238;stroke-linecap:round;stroke-linejoin:round"></polyline><polyline points="129.98 372.73 165.85 372.73 204.88 380.64" style="fill:none;stroke:#263238;stroke-linecap:round;stroke-linejoin:round"></polyline><polyline points="129.98 351.83 165.85 351.25 204.88 363.35 199.89 365.64 199.89 375.13" style="fill:none;stroke:#263238;stroke-linecap:round;stroke-linejoin:round"></polyline><polyline points="129.98 330.94 165.85 329.77 204.88 346.07 200.42 347.7 200.42 358.25" style="fill:none;stroke:#263238;stroke-linecap:round;stroke-linejoin:round"></polyline><polyline points="129.98 310.06 165.85 308.3 204.88 328.78 200.94 330.82 200.94 338.74" style="fill:none;stroke:#263238;stroke-linecap:round;stroke-linejoin:round"></polyline><polyline points="129.98 289.17 165.85 286.82 204.88 311.5 200.42 313.42 200.42 319.75" style="fill:none;stroke:#263238;stroke-linecap:round;stroke-linejoin:round"></polyline><polyline points="129.98 268.27 165.85 265.34 204.88 294.21 200.42 296.54 200.42 303.92" style="fill:none;stroke:#263238;stroke-linecap:round;stroke-linejoin:round"></polyline><polyline points="129.98 247.38 165.85 243.87 204.88 276.92 200.42 278.6 200.42 286.52" style="fill:none;stroke:#263238;stroke-linecap:round;stroke-linejoin:round"></polyline><polyline points="129.98 226.49 165.85 222.39 204.88 259.64 199.89 262.78 199.89 270.17" style="fill:none;stroke:#263238;stroke-linecap:round;stroke-linejoin:round"></polyline><polyline points="207.4 267 226.91 264.36 258.56 287.57 258.56 394.12" style="fill:none;stroke:#263238;stroke-linecap:round;stroke-linejoin:round"></polyline><line x1="225.33" y1="268.58" x2="225.33" y2="392.41" style="fill:none;stroke:#263238;stroke-linecap:round;stroke-linejoin:round"></line><line x1="233.24" y1="276.49" x2="233.24" y2="382.52" style="fill:none;stroke:#263238;stroke-linecap:round;stroke-linejoin:round"></line><line x1="241.15" y1="284.41" x2="241.15" y2="386.21" style="fill:none;stroke:#263238;stroke-linecap:round;stroke-linejoin:round"></line><line x1="249.07" y1="288.63" x2="249.07" y2="387.26" style="fill:none;stroke:#263238;stroke-linecap:round;stroke-linejoin:round"></line><line x1="254.87" y1="292.32" x2="254.87" y2="396.76" style="fill:none;stroke:#263238;stroke-linecap:round;stroke-linejoin:round"></line><line x1="214.78" y1="273.33" x2="214.78" y2="387.79" style="fill:none;stroke:#263238;stroke-linecap:round;stroke-linejoin:round"></line><polyline points="262.25 347.7 275.44 347.7 283.88 355.09 283.88 381.46" style="fill:none;stroke:#263238;stroke-linecap:round;stroke-linejoin:round"></polyline><polyline points="348.23 374.08 348.23 341.9 330.82 341.9 330.82 359.83 323.18 359.83 323.18 336.89 313.94 327.66 313.94 306.03 306.03 297.59 306.03 275.97 301.81 280.19 301.81 314.47 294.96 321.33 294.96 362.47 287.04 362.47" style="fill:none;stroke:#263238;stroke-linecap:round;stroke-linejoin:round"></polyline><line x1="306.56" y1="305.51" x2="306.56" y2="392.54" style="fill:none;stroke:#263238;stroke-linecap:round;stroke-linejoin:round"></line><line x1="293.9" y1="367.22" x2="293.9" y2="380.41" style="fill:none;stroke:#263238;stroke-linecap:round;stroke-linejoin:round"></line><line x1="323.18" y1="359.84" x2="323.18" y2="380.41" style="fill:none;stroke:#263238;stroke-linecap:round;stroke-linejoin:round"></line><polyline points="330.82 359.83 336.1 359.83 336.1 368.8 340.32 368.8 340.32 377.77" style="fill:none;stroke:#263238;stroke-linecap:round;stroke-linejoin:round"></polyline><polyline points="263.83 378.82 275.97 378.82 275.97 393.07" style="fill:none;stroke:#263238;stroke-linecap:round;stroke-linejoin:round"></polyline><polyline points="352.45 355.62 364.58 355.62 364.58 323.44 376.19 308.14 382.52 308.14 382.52 277.02 386.21 277.02 386.21 308.14 394.65 308.14 394.65 317.11 386.21 324.5 386.21 394.12" style="fill:none;stroke:#263238;stroke-linecap:round;stroke-linejoin:round"></polyline><polyline points="437.37 367.75 437.37 297.59 416.8 297.59 397.81 314.47 397.81 352.98" style="fill:none;stroke:#263238;stroke-linecap:round;stroke-linejoin:round"></polyline><polyline points="437.37 292.32 437.37 211.09 437.37 85.55 447.4 75.53 447.4 45.99 450.56 43.35 450.56 72.89 464.27 70.78" style="fill:none;stroke:#263238;stroke-linecap:round;stroke-linejoin:round"></polyline><path d="M458,188.93c-1.06,1.59,0,172,0,172" style="fill:none;stroke:#263238;stroke-linecap:round;stroke-linejoin:round"></path><line x1="416.8" y1="297.59" x2="416.8" y2="348.23" style="fill:none;stroke:#263238;stroke-linecap:round;stroke-linejoin:round"></line><line x1="393.59" y1="336.1" x2="393.59" y2="376.19" style="fill:none;stroke:#263238;stroke-linecap:round;stroke-linejoin:round"></line><line x1="415.75" y1="359.84" x2="415.75" y2="376.71" style="fill:none;stroke:#263238;stroke-linecap:round;stroke-linejoin:round"></line><line x1="376.19" y1="308.14" x2="376.19" y2="367.22" style="fill:none;stroke:#263238;stroke-linecap:round;stroke-linejoin:round"></line><line x1="364.58" y1="355.62" x2="364.58" y2="389.9" style="fill:none;stroke:#263238;stroke-linecap:round;stroke-linejoin:round"></line><line x1="370.38" y1="387.26" x2="370.38" y2="350.87" style="fill:none;stroke:#263238;stroke-linecap:round;stroke-linejoin:round"></line></g><g id="Trees"><path d="M411.52,405.29h-9.19s1.53-108.87,1.53-165.49a3.08,3.08,0,1,1,6.13,0C410,289.87,411.52,405.29,411.52,405.29Z" style="fill:#92E3A9"></path><g style="clip-path:url(#clip-path)"><path d="M411.52,405.29h-9.19s1.53-108.87,1.53-165.49a3.08,3.08,0,1,1,6.13,0C410,289.87,411.52,405.29,411.52,405.29Z" style="opacity:0.4"></path></g><path d="M411.52,405.29h-9.19s1.53-108.87,1.53-165.49a3.08,3.08,0,1,1,6.13,0C410,289.87,411.52,405.29,411.52,405.29Z" style="fill:none;stroke:#263238;stroke-linecap:round;stroke-linejoin:round"></path><path d="M415.43,177q-.53,3-1,5.92l14.66-3.3a10.3,10.3,0,0,1-2.86,3.83l7.58.27a3.94,3.94,0,0,1-3.61,3.79l1.31,2.69a17.15,17.15,0,0,1,13.52,3,14.21,14.21,0,0,1-8.32,2.39,37.81,37.81,0,0,1,11.81,4.62c1.24.74,2.6,2.24,1.77,3.43l-5.32-.4a16,16,0,0,0,5.42,5l-5.38.19a6.69,6.69,0,0,0,2.13,3.81l-4.27.69a27.72,27.72,0,0,1,6.65,12.6l-5.83-1.73a16.86,16.86,0,0,1,8.14,14.35,7.64,7.64,0,0,1-4.15-2.49,47.29,47.29,0,0,1,3.91,18.27,12.15,12.15,0,0,0-8.21-4,10,10,0,0,1,3.4,8.78c-.34-1.66-3-1.79-4-.44s-.78,3.27-.17,4.86a18.42,18.42,0,0,1-2.95-4.45,40.63,40.63,0,0,1,.82,13.9,19.1,19.1,0,0,1-6.37-8.42,44.48,44.48,0,0,0,1.56,10.05,15,15,0,0,1-7.55-9.35,33.72,33.72,0,0,0-.24,11l-4.59-11.46-.43,14.07a23.78,23.78,0,0,1-3.71-6l.06,2.84a11.91,11.91,0,0,1-4.34-3.57c0,1.2.05,2.4.08,3.6a23,23,0,0,1-5.46-6.89,15.83,15.83,0,0,0-4.83,9.45,10.56,10.56,0,0,1-1.62-8.74l-8,4.23a10.75,10.75,0,0,1,2-7.68,35,35,0,0,0-7,5.06,6.36,6.36,0,0,1,1.57-5.71,27.07,27.07,0,0,1-18.49,7.38,25.21,25.21,0,0,1,5.68-5.52,19.53,19.53,0,0,0-6.77,2.71l5-6.52a36.8,36.8,0,0,0-14.09,1,44.22,44.22,0,0,1,8.13-8.77,23.1,23.1,0,0,0-9.32.75,15,15,0,0,1,7.42-10.2l-14.21,4.94c5.16-7.57,10.61-15.41,18.61-19.89a103.6,103.6,0,0,0-14.09.73,14.5,14.5,0,0,1,7-5.82,27.2,27.2,0,0,0-12.74,1.49A11.14,11.14,0,0,1,366,222.07a30.13,30.13,0,0,1-9.35-4l10.71-.79L357.12,209a52.21,52.21,0,0,1,13.53,2.9A99.25,99.25,0,0,1,363.74,200l5.45,4.91.15-2.67a4.51,4.51,0,0,1,4.16,1.54,21.86,21.86,0,0,0-5.42-14,41.84,41.84,0,0,1,20.18,6.41,27,27,0,0,0-2.77-13.58,24.67,24.67,0,0,1,9.84,5.2A36.17,36.17,0,0,0,391.49,176a9.83,9.83,0,0,1,6.69,6.13,6.27,6.27,0,0,0,2.05-4.64c.65,1.66,1.31,3.31,2,5q1.65-2.52,3.31-5c-.2.3,2.18,4.88,2.51,5.5C410.67,181.38,413,179,415.43,177Z" style="fill:#92E3A9"></path><g style="clip-path:url(#clip-path-2)"><path d="M447.64,235.6a47.29,47.29,0,0,1,3.91,18.27,12.15,12.15,0,0,0-8.21-4,10,10,0,0,1,3.4,8.78c-.34-1.66-3-1.79-4-.44s-.78,3.27-.17,4.86a18.42,18.42,0,0,1-2.95-4.45,40.63,40.63,0,0,1,.82,13.9,19.1,19.1,0,0,1-6.37-8.42,44.48,44.48,0,0,0,1.56,10.05,15,15,0,0,1-7.55-9.35,33.72,33.72,0,0,0-.24,11l-4.59-11.46q-.21,7-.43,14.07a23.78,23.78,0,0,1-3.71-6l.06,2.84a11.91,11.91,0,0,1-4.34-3.57c0,1.2.05,2.4.08,3.6a23,23,0,0,1-5.46-6.89,15.83,15.83,0,0,0-4.83,9.45,10.56,10.56,0,0,1-1.62-8.74l-8,4.23a10.75,10.75,0,0,1,2-7.68,35,35,0,0,0-7,5.06,6.36,6.36,0,0,1,1.57-5.71,27.07,27.07,0,0,1-18.49,7.38,25.21,25.21,0,0,1,5.68-5.52,19.53,19.53,0,0,0-6.77,2.71l5-6.52a36.8,36.8,0,0,0-14.09,1,44.22,44.22,0,0,1,8.13-8.77,22.39,22.39,0,0,0-2.59-.18,10.32,10.32,0,0,1,2.76-4.37,14.76,14.76,0,0,0,3.57,4.51c0-.78,0-1.57,0-2.35a7.86,7.86,0,0,0,2.84,2.34c0-.62,0-1.25,0-1.87a15.8,15.8,0,0,0,2.43,4c.09-3.07.19-6.14.28-9.22l3,7.51c-.17-1.22-1.19-7,.13-7.73a7.27,7.27,0,0,1,1.16-.28c1.38-.46,1.15-2.3,2.16-3.08s2.77-.6,4.06-1.48c2-1.34,3.57-4.73,1.26-6.61a1.4,1.4,0,0,1-.42-.42c-.24-.51.32-1,.8-1.29l1.13-.66a1.06,1.06,0,0,0,.54-.5c.18-.42-.19-.87-.58-1.11s-.87-.41-1.08-.82c-.39-.75.35-1.56,1-2.13s1.19-1.6.56-2.16a1.61,1.61,0,0,0-1.38-.17l-5.7,1,4.21-4.43a126.52,126.52,0,0,1-12.76-.68q2.08-4.83,4.18-9.65l-6.09.07,1.58-2a8.69,8.69,0,0,1-5.85-2.22,1.29,1.29,0,0,1-.48-.72,1.16,1.16,0,0,1,.39-.89c1.07-1.19,2.78-1.68,3.8-2.9.86-1,1.12-2.41,1.69-3.61,1.27-2.63,3.24-1.8,5.55-1.74.75,0,9-.61,9.05-.13l-.09-5.6a3.71,3.71,0,0,0,2.19.28,3.84,3.84,0,0,0,1.28-.77c5.13-4,12.78-8.81,19.26-7a16,16,0,0,0-2.73-6.22c1.15-1,2.27-2,3.39-2.94q-.53,3-1,5.92l14.66-3.3a10.3,10.3,0,0,1-2.86,3.83l7.58.27a3.94,3.94,0,0,1-3.61,3.79l1.31,2.69a17.15,17.15,0,0,1,13.52,3,14.21,14.21,0,0,1-8.32,2.39,37.81,37.81,0,0,1,11.81,4.62c1.24.74,2.6,2.24,1.77,3.43l-5.31-.4a15.94,15.94,0,0,0,5.41,5l-5.38.19a6.69,6.69,0,0,0,2.13,3.81l-4.27.69a27.72,27.72,0,0,1,6.65,12.6l-5.83-1.73a16.86,16.86,0,0,1,8.14,14.35A7.64,7.64,0,0,1,447.64,235.6Z" style="opacity:0.2"></path></g><path d="M415.43,177q-.53,3-1,5.92l14.66-3.3a10.3,10.3,0,0,1-2.86,3.83l7.58.27a3.94,3.94,0,0,1-3.61,3.79l1.31,2.69a17.15,17.15,0,0,1,13.52,3,14.21,14.21,0,0,1-8.32,2.39,37.81,37.81,0,0,1,11.81,4.62c1.24.74,2.6,2.24,1.77,3.43l-5.32-.4a16,16,0,0,0,5.42,5l-5.38.19a6.69,6.69,0,0,0,2.13,3.81l-4.27.69a27.72,27.72,0,0,1,6.65,12.6l-5.83-1.73a16.86,16.86,0,0,1,8.14,14.35,7.64,7.64,0,0,1-4.15-2.49,47.29,47.29,0,0,1,3.91,18.27,12.15,12.15,0,0,0-8.21-4,10,10,0,0,1,3.4,8.78c-.34-1.66-3-1.79-4-.44s-.78,3.27-.17,4.86a18.42,18.42,0,0,1-2.95-4.45,40.63,40.63,0,0,1,.82,13.9,19.1,19.1,0,0,1-6.37-8.42,44.48,44.48,0,0,0,1.56,10.05,15,15,0,0,1-7.55-9.35,33.72,33.72,0,0,0-.24,11l-4.59-11.46-.43,14.07a23.78,23.78,0,0,1-3.71-6l.06,2.84a11.91,11.91,0,0,1-4.34-3.57c0,1.2.05,2.4.08,3.6a23,23,0,0,1-5.46-6.89,15.83,15.83,0,0,0-4.83,9.45,10.56,10.56,0,0,1-1.62-8.74l-8,4.23a10.75,10.75,0,0,1,2-7.68,35,35,0,0,0-7,5.06,6.36,6.36,0,0,1,1.57-5.71,27.07,27.07,0,0,1-18.49,7.38,25.21,25.21,0,0,1,5.68-5.52,19.53,19.53,0,0,0-6.77,2.71l5-6.52a36.8,36.8,0,0,0-14.09,1,44.22,44.22,0,0,1,8.13-8.77,23.1,23.1,0,0,0-9.32.75,15,15,0,0,1,7.42-10.2l-14.21,4.94c5.16-7.57,10.61-15.41,18.61-19.89a103.6,103.6,0,0,0-14.09.73,14.5,14.5,0,0,1,7-5.82,27.2,27.2,0,0,0-12.74,1.49A11.14,11.14,0,0,1,366,222.07a30.13,30.13,0,0,1-9.35-4l10.71-.79L357.12,209a52.21,52.21,0,0,1,13.53,2.9A99.25,99.25,0,0,1,363.74,200l5.45,4.91.15-2.67a4.51,4.51,0,0,1,4.16,1.54,21.86,21.86,0,0,0-5.42-14,41.84,41.84,0,0,1,20.18,6.41,27,27,0,0,0-2.77-13.58,24.67,24.67,0,0,1,9.84,5.2A36.17,36.17,0,0,0,391.49,176a9.83,9.83,0,0,1,6.69,6.13,6.27,6.27,0,0,0,2.05-4.64c.65,1.66,1.31,3.31,2,5q1.65-2.52,3.31-5c-.2.3,2.18,4.88,2.51,5.5C410.67,181.38,413,179,415.43,177Z" style="fill:none;stroke:#263238;stroke-linecap:round;stroke-linejoin:round"></path><path d="M367.13,255.14a23.1,23.1,0,0,0-5.41.9,15.4,15.4,0,0,1,.68-2.41l4.58-2.42A6.84,6.84,0,0,0,367.13,255.14Z" style="opacity:0.2"></path><path d="M412.89,207.64c-.48-.19-1-.35-1.44-.5A1.46,1.46,0,0,1,412.89,207.64Z" style="opacity:0.2"></path><path d="M367.13,255.14a6.72,6.72,0,0,0,.91,1.79,10.21,10.21,0,0,1,.41-1.82Z" style="opacity:0.2"></path><line x1="442.31" y1="389.84" x2="442.31" y2="426.58" style="fill:#92E3A9;stroke:#263238;stroke-linecap:round;stroke-linejoin:round"></line><line x1="439.52" y1="389.84" x2="439.52" y2="426.06" style="fill:#92E3A9;stroke:#263238;stroke-linecap:round;stroke-linejoin:round"></line><line x1="436.7" y1="389.84" x2="436.7" y2="422.44" style="fill:#92E3A9;stroke:#263238;stroke-linecap:round;stroke-linejoin:round"></line><line x1="426.29" y1="389.84" x2="426.29" y2="419.48" style="fill:#92E3A9;stroke:#263238;stroke-linecap:round;stroke-linejoin:round"></line><line x1="423.95" y1="389.84" x2="423.95" y2="417.02" style="fill:#92E3A9;stroke:#263238;stroke-linecap:round;stroke-linejoin:round"></line><line x1="420.43" y1="389.84" x2="420.43" y2="414.93" style="fill:#92E3A9;stroke:#263238;stroke-linecap:round;stroke-linejoin:round"></line><line x1="414.55" y1="389.84" x2="414.55" y2="413.14" style="fill:#92E3A9;stroke:#263238;stroke-linecap:round;stroke-linejoin:round"></line><line x1="412.19" y1="389.84" x2="412.19" y2="411.59" style="fill:#92E3A9;stroke:#263238;stroke-linecap:round;stroke-linejoin:round"></line><line x1="410.25" y1="389.84" x2="410.25" y2="410.23" style="fill:#92E3A9;stroke:#263238;stroke-linecap:round;stroke-linejoin:round"></line><line x1="407.66" y1="389.84" x2="407.66" y2="409.03" style="fill:#92E3A9;stroke:#263238;stroke-linecap:round;stroke-linejoin:round"></line><line x1="404.35" y1="389.84" x2="404.35" y2="407.96" style="fill:#92E3A9;stroke:#263238;stroke-linecap:round;stroke-linejoin:round"></line><line x1="402.89" y1="389.84" x2="402.89" y2="407.01" style="fill:#92E3A9;stroke:#263238;stroke-linecap:round;stroke-linejoin:round"></line><line x1="401.43" y1="389.84" x2="401.43" y2="406.15" style="fill:#92E3A9;stroke:#263238;stroke-linecap:round;stroke-linejoin:round"></line><line x1="399.75" y1="389.84" x2="399.75" y2="405.38" style="fill:#92E3A9;stroke:#263238;stroke-linecap:round;stroke-linejoin:round"></line><line x1="398.22" y1="389.84" x2="398.22" y2="404.67" style="fill:#92E3A9;stroke:#263238;stroke-linecap:round;stroke-linejoin:round"></line><line x1="396.83" y1="389.84" x2="396.83" y2="404.02" style="fill:#92E3A9;stroke:#263238;stroke-linecap:round;stroke-linejoin:round"></line><line x1="395.55" y1="389.84" x2="395.55" y2="403.43" style="fill:#92E3A9;stroke:#263238;stroke-linecap:round;stroke-linejoin:round"></line><line x1="394.37" y1="389.84" x2="394.37" y2="402.89" style="fill:#92E3A9;stroke:#263238;stroke-linecap:round;stroke-linejoin:round"></line><path d="M434.16,414.16h-11.9s2-140.9,2-214.19c0-5.85,7.94-5.85,7.94,0C432.18,264.78,434.16,414.16,434.16,414.16Z" style="fill:#92E3A9"></path><g style="clip-path:url(#clip-path-3)"><path d="M434.16,414.16h-11.9s2-140.9,2-214.19c0-5.85,7.94-5.85,7.94,0C432.18,264.78,434.16,414.16,434.16,414.16Z" style="opacity:0.30000000000000004"></path></g><path d="M434.16,414.16h-11.9s2-140.9,2-214.19c0-5.85,7.94-5.85,7.94,0C432.18,264.78,434.16,414.16,434.16,414.16Z" style="fill:none;stroke:#263238;stroke-linecap:round;stroke-linejoin:round"></path><path d="M439.21,98c-.44,2.56-.89,5.11-1.34,7.67l19-4.28a13.39,13.39,0,0,1-3.7,5l9.81.36a5.1,5.1,0,0,1-4.68,4.9l1.7,3.48a22.19,22.19,0,0,1,17.5,3.85A18.45,18.45,0,0,1,466.71,122,49.17,49.17,0,0,1,482,128c1.61,1,3.36,2.9,2.29,4.44l-6.88-.51a20.6,20.6,0,0,0,7,6.44l-7,.24a8.59,8.59,0,0,0,2.75,4.93l-5.53.89a35.86,35.86,0,0,1,8.61,16.31l-7.55-2.23a21.83,21.83,0,0,1,10.54,18.58,9.92,9.92,0,0,1-5.37-3.23A61.11,61.11,0,0,1,486,197.48a15.71,15.71,0,0,0-10.62-5.13,13,13,0,0,1,4.39,11.36c-.44-2.15-3.87-2.31-5.2-.57s-1,4.24-.21,6.29a22.91,22.91,0,0,1-3.82-5.76,52.91,52.91,0,0,1,1.06,18,24.78,24.78,0,0,1-8.25-10.9,57.25,57.25,0,0,0,2,13,19.45,19.45,0,0,1-9.78-12.1,44,44,0,0,0-.3,14.21l-5.94-14.83-.57,18.21a30.78,30.78,0,0,1-4.79-7.82c0,1.23.05,2.46.08,3.69a15.36,15.36,0,0,1-5.62-4.62c0,1.55.07,3.09.1,4.64a29.53,29.53,0,0,1-7.06-8.91,20.46,20.46,0,0,0-6.26,12.23,13.6,13.6,0,0,1-2.09-11.3l-10.34,5.46a13.87,13.87,0,0,1,2.58-9.93,45.7,45.7,0,0,0-9,6.54,8.19,8.19,0,0,1,2-7.38,35.09,35.09,0,0,1-23.93,9.55,32.19,32.19,0,0,1,7.36-7.14,25.12,25.12,0,0,0-8.77,3.5l6.47-8.44a47.57,47.57,0,0,0-18.24,1.34,57.29,57.29,0,0,1,10.52-11.36,30,30,0,0,0-12.06,1,19.49,19.49,0,0,1,9.6-13.2l-18.39,6.4c6.68-9.8,13.73-19.95,24.09-25.74a132.38,132.38,0,0,0-18.24.94,18.86,18.86,0,0,1,9-7.54,35,35,0,0,0-16.48,1.94,14.4,14.4,0,0,1,15.87-6.76,39,39,0,0,1-12.09-5.16l13.86-1-13.2-10.78a67.23,67.23,0,0,1,17.52,3.75,129.76,129.76,0,0,1-8.95-15.34l7.06,6.36.19-3.46a5.82,5.82,0,0,1,5.38,2,28.17,28.17,0,0,0-7-18.15,54.11,54.11,0,0,1,26.12,8.29,35.06,35.06,0,0,0-3.58-17.58,32.18,32.18,0,0,1,12.74,6.73,46.85,46.85,0,0,0-5-15.23,12.77,12.77,0,0,1,8.67,7.94,8.15,8.15,0,0,0,2.64-6l2.55,6.43,4.29-6.52c-.26.39,2.82,6.31,3.25,7.12C433.05,103.65,436.13,100.54,439.21,98Z" style="fill:#92E3A9"></path><g style="clip-path:url(#clip-path-4)"><path d="M480.9,173.83A60.94,60.94,0,0,1,486,197.48a15.71,15.71,0,0,0-10.62-5.13,13,13,0,0,1,4.39,11.36c-.44-2.15-3.87-2.31-5.2-.57s-1,4.24-.21,6.29a22.91,22.91,0,0,1-3.82-5.76,52.91,52.91,0,0,1,1.06,18,24.75,24.75,0,0,1-8.25-10.91,57.24,57.24,0,0,0,2,13,19.45,19.45,0,0,1-9.78-12.1,44,44,0,0,0-.3,14.21l-5.94-14.83-.57,18.21a30.78,30.78,0,0,1-4.79-7.82c0,1.23.05,2.46.08,3.69a15.36,15.36,0,0,1-5.62-4.62c0,1.54.07,3.09.1,4.64a29.53,29.53,0,0,1-7.06-8.91,20.46,20.46,0,0,0-6.26,12.23,13.6,13.6,0,0,1-2.09-11.3l-10.34,5.46a13.87,13.87,0,0,1,2.58-9.93,45.7,45.7,0,0,0-9,6.54,8.19,8.19,0,0,1,2-7.38,35.09,35.09,0,0,1-23.93,9.55,32.19,32.19,0,0,1,7.36-7.14,25.12,25.12,0,0,0-8.77,3.5l6.47-8.44a47.57,47.57,0,0,0-18.24,1.34c.45-.65.92-1.29,1.4-1.91a79.72,79.72,0,0,1,28.21-14.13l-6.6,6.6,3.81-2.83c0,1.1,0,2.2,0,3.3a5.91,5.91,0,0,0,3.29-1.09,5.13,5.13,0,0,1,3.32-.92c1.16.22,2.1,1.64,1.43,2.6a7,7,0,0,0,4-4.22,8,8,0,0,0,4.68,5.45,48.69,48.69,0,0,1,2.67-10.71,26.27,26.27,0,0,0,13.91,6.59c.31-9-5-17.42-11.45-23.74a29.23,29.23,0,0,0,12.5-1.14,1.67,1.67,0,0,0,1.05-.68,1.53,1.53,0,0,0,0-1.17c-.9-2.84-3.62-4.63-6.16-6.19a46,46,0,0,0,6.2-.6,2.86,2.86,0,0,1-.31-3.52,8.43,8.43,0,0,1,2.81-2.56c-2.69-.36-3.76-4.55-1.57-6.16a15.38,15.38,0,0,1-8.78-1.45l14.28-10.41-12.43,1q1.15-2.39,2.33-4.77l-1.44.49a11.7,11.7,0,0,1,2.52-6.68l-5.55,1.09a23.51,23.51,0,0,1,4.81-5.43,18.07,18.07,0,0,1-8,4.14,8.76,8.76,0,0,1,.94-7,22.41,22.41,0,0,0-10,3.24,31.65,31.65,0,0,0,4-8.83,20.8,20.8,0,0,0-7.63,4.85,9.38,9.38,0,0,1,.35-2,2.06,2.06,0,0,1-.52.35,14.18,14.18,0,0,0-6.88-12.62,34.71,34.71,0,0,0-1.84-4.47,32.18,32.18,0,0,1,12.74,6.73,46.85,46.85,0,0,0-5-15.23,12.77,12.77,0,0,1,8.67,7.94,8.15,8.15,0,0,0,2.64-6l2.55,6.43,4.29-6.52c-.26.39,2.82,6.31,3.25,7.12,3.42-2,6.5-5.12,9.58-7.69-.44,2.56-.89,5.11-1.34,7.67l19-4.28a13.28,13.28,0,0,1-3.7,5l9.81.36a5.1,5.1,0,0,1-4.68,4.9l1.7,3.48a22.19,22.19,0,0,1,17.5,3.85A18.45,18.45,0,0,1,466.71,122,49.17,49.17,0,0,1,482,128c1.61,1,3.36,2.9,2.29,4.44l-6.88-.51a20.6,20.6,0,0,0,7,6.44l-7,.24a8.59,8.59,0,0,0,2.75,4.93l-5.53.89a35.86,35.86,0,0,1,8.61,16.31l-7.55-2.23a21.83,21.83,0,0,1,10.54,18.58A10,10,0,0,1,480.9,173.83Z" style="opacity:0.1"></path></g><path d="M439.21,98c-.44,2.56-.89,5.11-1.34,7.67l19-4.28a13.39,13.39,0,0,1-3.7,5l9.81.36a5.1,5.1,0,0,1-4.68,4.9l1.7,3.48a22.19,22.19,0,0,1,17.5,3.85A18.45,18.45,0,0,1,466.71,122,49.17,49.17,0,0,1,482,128c1.61,1,3.36,2.9,2.29,4.44l-6.88-.51a20.6,20.6,0,0,0,7,6.44l-7,.24a8.59,8.59,0,0,0,2.75,4.93l-5.53.89a35.86,35.86,0,0,1,8.61,16.31l-7.55-2.23a21.83,21.83,0,0,1,10.54,18.58,9.92,9.92,0,0,1-5.37-3.23A61.11,61.11,0,0,1,486,197.48a15.71,15.71,0,0,0-10.62-5.13,13,13,0,0,1,4.39,11.36c-.44-2.15-3.87-2.31-5.2-.57s-1,4.24-.21,6.29a22.91,22.91,0,0,1-3.82-5.76,52.91,52.91,0,0,1,1.06,18,24.78,24.78,0,0,1-8.25-10.9,57.25,57.25,0,0,0,2,13,19.45,19.45,0,0,1-9.78-12.1,44,44,0,0,0-.3,14.21l-5.94-14.83-.57,18.21a30.78,30.78,0,0,1-4.79-7.82c0,1.23.05,2.46.08,3.69a15.36,15.36,0,0,1-5.62-4.62c0,1.55.07,3.09.1,4.64a29.53,29.53,0,0,1-7.06-8.91,20.46,20.46,0,0,0-6.26,12.23,13.6,13.6,0,0,1-2.09-11.3l-10.34,5.46a13.87,13.87,0,0,1,2.58-9.93,45.7,45.7,0,0,0-9,6.54,8.19,8.19,0,0,1,2-7.38,35.09,35.09,0,0,1-23.93,9.55,32.19,32.19,0,0,1,7.36-7.14,25.12,25.12,0,0,0-8.77,3.5l6.47-8.44a47.57,47.57,0,0,0-18.24,1.34,57.29,57.29,0,0,1,10.52-11.36,30,30,0,0,0-12.06,1,19.49,19.49,0,0,1,9.6-13.2l-18.39,6.4c6.68-9.8,13.73-19.95,24.09-25.74a132.38,132.38,0,0,0-18.24.94,18.86,18.86,0,0,1,9-7.54,35,35,0,0,0-16.48,1.94,14.4,14.4,0,0,1,15.87-6.76,39,39,0,0,1-12.09-5.16l13.86-1-13.2-10.78a67.23,67.23,0,0,1,17.52,3.75,129.76,129.76,0,0,1-8.95-15.34l7.06,6.36.19-3.46a5.82,5.82,0,0,1,5.38,2,28.17,28.17,0,0,0-7-18.15,54.11,54.11,0,0,1,26.12,8.29,35.06,35.06,0,0,0-3.58-17.58,32.18,32.18,0,0,1,12.74,6.73,46.85,46.85,0,0,0-5-15.23,12.77,12.77,0,0,1,8.67,7.94,8.15,8.15,0,0,0,2.64-6l2.55,6.43,4.29-6.52c-.26.39,2.82,6.31,3.25,7.12C433.05,103.65,436.13,100.54,439.21,98Z" style="fill:none;stroke:#263238;stroke-linecap:round;stroke-linejoin:round"></path><path d="M443.82,389.1v25l-8.7-3.06V389l-7.32-.07v19.55l-6.72-2.37V388.87l-5.61-.06v15.33l-5.34-1.88V388.75l-4.42,0v12l-4.41-1.55V388.66l-3.5,0v9.29l-4.22-1.49v-7.85l-2.37,0v13.76l56.84,27.93s5-.26,8.84-12.79a59.79,59.79,0,0,0,1.18-28.21Z" style="fill:#bfbfbf"></path><polyline points="458.07 389.25 443.82 389.1 443.82 414.13 435.12 411.07 435.12 389.01 427.8 388.94 427.8 408.49 421.08 406.12 421.08 388.87 415.47 388.81 415.47 404.14 410.13 402.26 410.13 388.75 405.71 388.71 405.71 400.7 401.3 399.15 401.3 388.66 397.8 388.63 397.8 397.92 393.58 396.43 393.58 388.58 391.21 388.56 391.21 402.32 448.06 430.25" style="fill:none;stroke:#263238;stroke-linecap:round;stroke-linejoin:round"></polyline><path d="M143.72,409.55h-6s1-36.13,1-54.92c0-1.5,4-1.5,4,0C142.72,371.24,143.72,409.55,143.72,409.55Z" style="fill:#92E3A9"></path><path d="M143.72,409.55h-6s1-36.13,1-54.92c0-1.5,4-1.5,4,0C142.72,371.24,143.72,409.55,143.72,409.55Z" style="opacity:0.2"></path><path d="M199.25,404.25h5s-.83-20.94-.83-36.52c0-1.24-3.32-1.24-3.32,0C200.07,381.5,199.25,404.25,199.25,404.25Z" style="fill:#92E3A9"></path><path d="M204,404.74c-.24-10-.61-26.68-.61-37,0-1.24-3.32-1.24-3.32,0,0,9.25-.37,26.61-.62,37Z" style="opacity:0.30000000000000004"></path><path d="M240.69,402.2h3.23s-.54-19.43-.54-29.54c0-.8-2.15-.8-2.15,0C241.23,381.6,240.69,402.2,240.69,402.2Z" style="fill:#92E3A9"></path><path d="M240.69,402.2h3.23s-.54-19.43-.54-29.54c0-.8-2.15-.8-2.15,0C241.23,381.6,240.69,402.2,240.69,402.2Z" style="opacity:0.4"></path><path d="M143.72,409.55h-6s1-36.13,1-54.92c0-1.5,4-1.5,4,0C142.72,371.24,143.72,409.55,143.72,409.55Z" style="fill:none;stroke:#263238;stroke-linecap:round;stroke-linejoin:round"></path><path d="M199.25,404.25h5s-.83-20.94-.83-36.52c0-1.24-3.32-1.24-3.32,0C200.07,381.5,199.25,404.25,199.25,404.25Z" style="fill:none;stroke:#263238;stroke-linecap:round;stroke-linejoin:round"></path><path d="M240.69,402.2h3.23s-.54-19.43-.54-29.54c0-.8-2.15-.8-2.15,0C241.23,381.6,240.69,402.2,240.69,402.2Z" style="fill:none;stroke:#263238;stroke-linecap:round;stroke-linejoin:round;stroke-width:0.75px"></path><path d="M240.42,350.12l.29,1.63-4-.91a2.83,2.83,0,0,0,.79,1.05l-2.09.08a1.08,1.08,0,0,0,1,1l-.36.74a4.76,4.76,0,0,0-3.73.82,4,4,0,0,0,2.29.66,10.58,10.58,0,0,0-3.25,1.27c-.34.21-.71.62-.48.94l1.46-.1a4.55,4.55,0,0,1-1.49,1.37l1.48.05a1.82,1.82,0,0,1-.59,1.05l1.18.19a7.58,7.58,0,0,0-1.83,3.47l1.6-.48a4.67,4.67,0,0,0-2.24,3.95,2.19,2.19,0,0,0,1.15-.68,13,13,0,0,0-1.08,5,3.32,3.32,0,0,1,2.26-1.09,2.76,2.76,0,0,0-.94,2.41c.1-.45.83-.49,1.11-.12a1.41,1.41,0,0,1,0,1.34,5.08,5.08,0,0,0,.82-1.23,11.23,11.23,0,0,0-.23,3.83,5.32,5.32,0,0,0,1.76-2.32,12.3,12.3,0,0,1-.43,2.77,4.17,4.17,0,0,0,2.08-2.57,9.56,9.56,0,0,1,.06,3l1.26-3.16.12,3.88a6.09,6.09,0,0,0,1-1.67v.79a3.26,3.26,0,0,0,1.19-1l0,1a6.12,6.12,0,0,0,1.5-1.89,4.35,4.35,0,0,1,1.34,2.6,2.9,2.9,0,0,0,.44-2.41l2.2,1.17a3,3,0,0,0-.55-2.12,10.15,10.15,0,0,1,1.92,1.4,1.73,1.73,0,0,0-.43-1.57,7.48,7.48,0,0,0,5.09,2,7,7,0,0,0-1.56-1.52,5.45,5.45,0,0,1,1.86.74L251,373.81a10.14,10.14,0,0,1,3.88.28,11.9,11.9,0,0,0-2.24-2.41,6.37,6.37,0,0,1,2.57.2,4.14,4.14,0,0,0-2-2.81l3.91,1.37c-1.42-2.09-2.92-4.25-5.12-5.48a29.67,29.67,0,0,1,3.88.2,4,4,0,0,0-1.92-1.6,7.32,7.32,0,0,1,3.5.41,3.05,3.05,0,0,0-3.37-1.44,8.36,8.36,0,0,0,2.57-1.1l-3-.22,2.81-2.29a14.44,14.44,0,0,0-3.73.8,27.36,27.36,0,0,0,1.91-3.27l-1.5,1.36,0-.74a1.23,1.23,0,0,0-1.14.42,6,6,0,0,1,1.49-3.86,11.47,11.47,0,0,0-5.56,1.77,7.43,7.43,0,0,1,.77-3.74,6.69,6.69,0,0,0-2.71,1.43,9.8,9.8,0,0,1,1.06-3.24,2.72,2.72,0,0,0-1.85,1.69,1.76,1.76,0,0,1-.56-1.28l-.54,1.37-.92-1.39a9.26,9.26,0,0,1-.69,1.51A16.56,16.56,0,0,1,240.42,350.12Z" style="fill:#92E3A9"></path><path d="M198.84,333c.14.83.29,1.67.44,2.51l-6.22-1.4a4.48,4.48,0,0,0,1.21,1.62l-3.22.12a1.68,1.68,0,0,0,1.54,1.6c-.19.38-.37.77-.56,1.15a7.22,7.22,0,0,0-5.74,1.26,6.08,6.08,0,0,0,3.53,1,16,16,0,0,0-5,2c-.52.31-1.1.95-.75,1.45l2.26-.16a6.74,6.74,0,0,1-2.3,2.11l2.28.08a2.8,2.8,0,0,1-.9,1.61l1.81.3a11.71,11.71,0,0,0-2.82,5.34l2.48-.73a7.13,7.13,0,0,0-3.46,6.09,3.25,3.25,0,0,0,1.76-1.06,20.08,20.08,0,0,0-1.66,7.75,5.18,5.18,0,0,1,3.48-1.68,4.25,4.25,0,0,0-1.44,3.72c.15-.7,1.27-.76,1.71-.18a2.17,2.17,0,0,1,.07,2.06,7.48,7.48,0,0,0,1.25-1.89,17.47,17.47,0,0,0-.35,5.9,8.14,8.14,0,0,0,2.71-3.58,18.63,18.63,0,0,1-.67,4.27,6.41,6.41,0,0,0,3.21-4,14.3,14.3,0,0,1,.1,4.66l1.95-4.86.18,6a10,10,0,0,0,1.57-2.57c0,.41,0,.81,0,1.21a5.09,5.09,0,0,0,1.84-1.51c0,.5,0,1,0,1.52a9.67,9.67,0,0,0,2.32-2.92,6.68,6.68,0,0,1,2.05,4,4.48,4.48,0,0,0,.69-3.71l3.38,1.79a4.54,4.54,0,0,0-.84-3.25,15.18,15.18,0,0,1,3,2.14,2.69,2.69,0,0,0-.67-2.42,11.46,11.46,0,0,0,7.85,3.13,10.75,10.75,0,0,0-2.42-2.34,8.37,8.37,0,0,1,2.88,1.15c-.71-.92-1.42-1.84-2.12-2.77a15.68,15.68,0,0,1,6,.44,19,19,0,0,0-3.45-3.72,9.77,9.77,0,0,1,4,.32,6.39,6.39,0,0,0-3.15-4.33l6,2.1c-2.19-3.21-4.5-6.54-7.89-8.44a44.15,44.15,0,0,1,6,.31,6.15,6.15,0,0,0-3-2.47,11.69,11.69,0,0,1,5.4.63,4.71,4.71,0,0,0-5.2-2.21,12.74,12.74,0,0,0,4-1.69l-4.54-.34,4.32-3.53a22.1,22.1,0,0,0-5.74,1.22,41.88,41.88,0,0,0,2.93-5l-2.31,2.08-.06-1.13a1.89,1.89,0,0,0-1.77.65,9.27,9.27,0,0,1,2.3-5.95,17.75,17.75,0,0,0-8.56,2.72,11.36,11.36,0,0,1,1.18-5.76,10.4,10.4,0,0,0-4.18,2.2,15.4,15.4,0,0,1,1.63-5,4.18,4.18,0,0,0-2.84,2.6,2.63,2.63,0,0,1-.86-2l-.84,2.11L203,333.18a14.46,14.46,0,0,1-1.06,2.34A25.86,25.86,0,0,1,198.84,333Z" style="fill:#92E3A9"></path><path d="M144.22,312.71c-.18,1-.36,2-.53,3l7.5-1.69a5.15,5.15,0,0,1-1.46,2l3.88.14a2,2,0,0,1-1.85,1.94l.67,1.38a8.75,8.75,0,0,1,6.92,1.52,7.25,7.25,0,0,1-4.26,1.22,19.47,19.47,0,0,1,6,2.37c.63.38,1.33,1.14.9,1.75l-2.72-.2a8.25,8.25,0,0,0,2.77,2.55l-2.75.09a3.38,3.38,0,0,0,1.09,2l-2.19.36a14.11,14.11,0,0,1,3.41,6.45l-3-.89a8.64,8.64,0,0,1,4.17,7.35,4,4,0,0,1-2.13-1.28,24.17,24.17,0,0,1,2,9.36,6.19,6.19,0,0,0-4.2-2,5.13,5.13,0,0,1,1.74,4.49c-.18-.85-1.53-.91-2.06-.23a2.61,2.61,0,0,0-.09,2.49,9.41,9.41,0,0,1-1.51-2.28,20.81,20.81,0,0,1,.42,7.12,9.73,9.73,0,0,1-3.26-4.31,22.84,22.84,0,0,0,.8,5.14,7.68,7.68,0,0,1-3.87-4.78,17.67,17.67,0,0,0-.12,5.62c-.78-2-1.56-3.91-2.35-5.87-.07,2.4-.15,4.8-.22,7.2a12.24,12.24,0,0,1-1.9-3.09l0,1.46a6.06,6.06,0,0,1-2.22-1.83l0,1.84a11.78,11.78,0,0,1-2.79-3.52,8.11,8.11,0,0,0-2.48,4.83,5.41,5.41,0,0,1-.82-4.47L133.76,362a5.48,5.48,0,0,1,1-3.93,18.59,18.59,0,0,0-3.57,2.59,3.23,3.23,0,0,1,.8-2.92,13.87,13.87,0,0,1-9.46,3.78,12.37,12.37,0,0,1,2.91-2.82,9.87,9.87,0,0,0-3.47,1.38l2.56-3.34a18.91,18.91,0,0,0-7.22.53,22.77,22.77,0,0,1,4.17-4.49,11.88,11.88,0,0,0-4.78.38,7.77,7.77,0,0,1,3.8-5.22l-7.27,2.53c2.64-3.87,5.43-7.89,9.53-10.18a52.85,52.85,0,0,0-7.22.38,7.46,7.46,0,0,1,3.57-3,13.92,13.92,0,0,0-6.52.77,5.69,5.69,0,0,1,6.28-2.67,15.69,15.69,0,0,1-4.78-2l5.48-.41-5.22-4.27a27,27,0,0,1,6.93,1.49,51.1,51.1,0,0,1-3.54-6.07l2.79,2.51c0-.45,0-.91.08-1.36a2.27,2.27,0,0,1,2.12.78,11.13,11.13,0,0,0-2.77-7.18,21.42,21.42,0,0,1,10.33,3.29,13.84,13.84,0,0,0-1.42-7,12.7,12.7,0,0,1,5,2.66,18.29,18.29,0,0,0-2-6,5,5,0,0,1,3.43,3.14,3.26,3.26,0,0,0,1.05-2.38c.33.85.67,1.7,1,2.54l1.69-2.57a18.22,18.22,0,0,0,1.29,2.81A30.22,30.22,0,0,0,144.22,312.71Z" style="fill:#92E3A9"></path><path d="M112.48,338.51l0,4.43C110.92,342.11,111.19,339.71,112.48,338.51Z" style="opacity:0.1"></path><path d="M160.43,330.72l-1.83.3a8.35,8.35,0,0,1,1-1l.26.12A3.15,3.15,0,0,0,160.43,330.72Z" style="opacity:0.1"></path><path d="M160.7,342.71a24.17,24.17,0,0,1,2,9.36,6.19,6.19,0,0,0-4.2-2,5.13,5.13,0,0,1,1.74,4.49c-.18-.85-1.53-.91-2.06-.23a2.61,2.61,0,0,0-.09,2.49,9.41,9.41,0,0,1-1.51-2.28,20.81,20.81,0,0,1,.42,7.12,9.73,9.73,0,0,1-3.26-4.31,22.84,22.84,0,0,0,.8,5.14,7.68,7.68,0,0,1-3.87-4.78,17.67,17.67,0,0,0-.12,5.62c-.78-2-1.56-3.91-2.35-5.87-.07,2.4-.15,4.8-.22,7.2a12.24,12.24,0,0,1-1.9-3.09l0,1.46a6.06,6.06,0,0,1-2.22-1.83c0,.62,0,1.23,0,1.84a11.78,11.78,0,0,1-2.79-3.52,8.11,8.11,0,0,0-2.48,4.83,5.41,5.41,0,0,1-.82-4.47L133.76,362a5.48,5.48,0,0,1,1-3.93,18.59,18.59,0,0,0-3.57,2.59,3.23,3.23,0,0,1,.8-2.92,13.87,13.87,0,0,1-9.46,3.78,12.37,12.37,0,0,1,2.91-2.82,9.87,9.87,0,0,0-3.47,1.38l2.56-3.34a18.91,18.91,0,0,0-7.22.53,22.77,22.77,0,0,1,4.17-4.49,11.88,11.88,0,0,0-4.78.38,7.77,7.77,0,0,1,3.8-5.22l-7.27,2.53c2.64-3.87,5.43-7.89,9.53-10.18a52.85,52.85,0,0,0-7.22.38,7.46,7.46,0,0,1,3.57-3,13.92,13.92,0,0,0-6.52.77l.07-.12.14-.11c1.57-1.05,3.63-.91,5.51-.73.06-.6.11-1.2.17-1.8v0c0-.35.07-.71.1-1.06l4,.36a4.21,4.21,0,0,0,2.26-.23,1.42,1.42,0,0,0,.67-1.92l3.56,5a17.56,17.56,0,0,1,5.92-7.5v4a4.23,4.23,0,0,0,3.1-2.3,7.38,7.38,0,0,1,.06,2.73l1.76.53a5.82,5.82,0,0,1-1.32,5.83,8.7,8.7,0,0,1,3,.11c.21,1.28.43,2.56.65,3.83a2.44,2.44,0,0,0,1.5.27c0,1.21-.05,2.42-.07,3.64,3-.48,6.68-1.53,7.29-4.53a20.61,20.61,0,0,0,1.26,5.36c1.73-2.56,3.53-5.7,2.33-8.55l1.22,1.18c.25-1,.51-2.07.77-3.1l-2.49-4.11a5,5,0,0,1,2.4,1.2,8.84,8.84,0,0,1,1.88-5.17,14,14,0,0,1,3.25,6.26l-3-.89a8.64,8.64,0,0,1,4.17,7.35A4,4,0,0,1,160.7,342.71Z" style="opacity:0.1"></path><path d="M184.06,344.28c-.35-.5.23-1.14.75-1.45.35-.21.71-.41,1.07-.59a8.93,8.93,0,0,1-1.14,2Z" style="opacity:0.2"></path><path d="M213.35,352.27l-.5-.22A.91.91,0,0,1,213.35,352.27Z" style="opacity:0.2"></path><path d="M224.5,364.3l-6-2.1a6.39,6.39,0,0,1,3.15,4.33,9.77,9.77,0,0,0-4-.32,19,19,0,0,1,3.45,3.72,15.68,15.68,0,0,0-6-.44c.7.93,1.41,1.85,2.12,2.77a8.37,8.37,0,0,0-2.88-1.15,10.75,10.75,0,0,1,2.42,2.34,11.46,11.46,0,0,1-7.85-3.13,2.69,2.69,0,0,1,.67,2.42,15.18,15.18,0,0,0-3-2.14,4.54,4.54,0,0,1,.84,3.25l-3.38-1.79a4.48,4.48,0,0,1-.69,3.71,6.68,6.68,0,0,0-2.05-4,9.67,9.67,0,0,1-2.32,2.92c0-.51,0-1,0-1.52a5.09,5.09,0,0,1-1.84,1.51c0-.4,0-.8,0-1.21a10,10,0,0,1-1.57,2.57l-.18-6-1.95,4.86a14.3,14.3,0,0,0-.1-4.66,6.41,6.41,0,0,1-3.21,4,18.72,18.72,0,0,0,.67-4.27,8.14,8.14,0,0,1-2.71,3.58,17.47,17.47,0,0,1,.35-5.9,7.48,7.48,0,0,1-1.25,1.89,2.17,2.17,0,0,0-.07-2.06c-.44-.58-1.56-.52-1.71.18a4.25,4.25,0,0,1,1.44-3.72,5.18,5.18,0,0,0-3.48,1.68,20.08,20.08,0,0,1,1.66-7.75,3.25,3.25,0,0,1-1.76,1.06,7.13,7.13,0,0,1,3.46-6.09l-2.48.73a11.71,11.71,0,0,1,2.82-5.34l-1.81-.3a2.8,2.8,0,0,0,.9-1.61l-2.28-.08a7,7,0,0,0,1.32-1,7.88,7.88,0,0,0,2.27-.2,3.68,3.68,0,0,1-.85,2.66,6.26,6.26,0,0,0,2.72-.28l-.48,2.34,2.33-1.4a104.36,104.36,0,0,0-.76,10.75,4.9,4.9,0,0,0,4.65-5l.72,6.11a4.44,4.44,0,0,0,1.44-1.8c.16.68.32,1.35.47,2l1.61-2a5.61,5.61,0,0,0,1.24,1.92,12.49,12.49,0,0,0,1.28-5.88,19.32,19.32,0,0,1,4.17,5.17c-.24-1.44-.47-2.87-.71-4.31a44.52,44.52,0,0,1,5.88,5,13.26,13.26,0,0,0-.41-5.05c.19.35.92.25,1.16-.16s.2-1.06.41-1.56,1-.79,1.24-.3a1.08,1.08,0,0,0-.36-1l1.84.81c-.26-.77-.51-1.54-.76-2.31,1.51.53,3.07-.52,4.41-1.39a6.43,6.43,0,0,1,2.5-1l-2.1,1.72,4.54.34a12.74,12.74,0,0,1-4,1.69,4.71,4.71,0,0,1,5.2,2.21,11.69,11.69,0,0,0-5.4-.63,6.15,6.15,0,0,1,3,2.47,44.15,44.15,0,0,0-6-.31C220,357.76,222.31,361.09,224.5,364.3Z" style="opacity:0.2"></path><path d="M231.38,363.37l-.33.1c0-.22.11-.43.17-.64l.14-.08C231.36,363,231.37,363.16,231.38,363.37Z" style="opacity:0.30000000000000004"></path><path d="M231.46,366.36a2.11,2.11,0,0,1-1.05.58,4.55,4.55,0,0,1,1-2.83Z" style="opacity:0.30000000000000004"></path><path d="M257.08,370.44l-3.91-1.37a4.14,4.14,0,0,1,2,2.81,6.37,6.37,0,0,0-2.57-.2,11.9,11.9,0,0,1,2.24,2.41,10.14,10.14,0,0,0-3.88-.28l1.38,1.79a5.45,5.45,0,0,0-1.86-.74,7,7,0,0,1,1.56,1.52,7.48,7.48,0,0,1-5.09-2,1.73,1.73,0,0,1,.43,1.57,10.15,10.15,0,0,0-1.92-1.4,3,3,0,0,1,.55,2.12l-2.2-1.17a2.9,2.9,0,0,1-.44,2.41,4.35,4.35,0,0,0-1.34-2.6,6.12,6.12,0,0,1-1.5,1.89c0-.33,0-.66,0-1a3.26,3.26,0,0,1-1.19,1c0-.26,0-.52,0-.79a6.09,6.09,0,0,1-1,1.67l-.12-3.88L237,377.33a9.56,9.56,0,0,0-.06-3,4.17,4.17,0,0,1-2.08,2.57,12.3,12.3,0,0,0,.43-2.77,5.32,5.32,0,0,1-1.76,2.32,11.23,11.23,0,0,1,.23-3.83,5.08,5.08,0,0,1-.82,1.23,1.41,1.41,0,0,0,0-1.34c-.28-.37-1-.33-1.11.12a2.76,2.76,0,0,1,.94-2.41,3.32,3.32,0,0,0-2.26,1.09,12.84,12.84,0,0,1,1-4.78v0a2.81,2.81,0,0,1,1.41-1.22l.33,1.4L234,366l.54,2.68,1.79-2.43a10.31,10.31,0,0,1,2.42,2.24c0-.81,0-1.61.05-2.42a11.62,11.62,0,0,0,1.85,3.91c.36-1.31.73-2.62,1.1-3.93a11.56,11.56,0,0,1,2.77,3.52c0-.91.05-1.81.07-2.71a7.85,7.85,0,0,0,1.16,2.29,15.06,15.06,0,0,0,.15-3l1.27,1.68-.69-1.62a.7.7,0,0,0,.48-1.16l1.23,0,1-3.09a2.55,2.55,0,0,1,.32-.69c.49-.68,4.52-1.61,6.08-1.69l-2,1.6,3,.22a8.36,8.36,0,0,1-2.57,1.1,3.05,3.05,0,0,1,3.37,1.44,7.32,7.32,0,0,0-3.5-.41,4,4,0,0,1,1.92,1.6A29.67,29.67,0,0,0,252,365C254.16,366.19,255.66,368.35,257.08,370.44Z" style="opacity:0.30000000000000004"></path><path d="M144.22,312.71c-.18,1-.36,2-.53,3l7.5-1.69a5.15,5.15,0,0,1-1.46,2l3.88.14a2,2,0,0,1-1.85,1.94l.67,1.38a8.75,8.75,0,0,1,6.92,1.52,7.25,7.25,0,0,1-4.26,1.22,19.47,19.47,0,0,1,6,2.37c.63.38,1.33,1.14.9,1.75l-2.72-.2a8.25,8.25,0,0,0,2.77,2.55l-2.75.09a3.38,3.38,0,0,0,1.09,2l-2.19.36a14.11,14.11,0,0,1,3.41,6.45l-3-.89a8.64,8.64,0,0,1,4.17,7.35,4,4,0,0,1-2.13-1.28,24.17,24.17,0,0,1,2,9.36,6.19,6.19,0,0,0-4.2-2,5.13,5.13,0,0,1,1.74,4.49c-.18-.85-1.53-.91-2.06-.23a2.61,2.61,0,0,0-.09,2.49,9.41,9.41,0,0,1-1.51-2.28,20.81,20.81,0,0,1,.42,7.12,9.73,9.73,0,0,1-3.26-4.31,22.84,22.84,0,0,0,.8,5.14,7.68,7.68,0,0,1-3.87-4.78,17.67,17.67,0,0,0-.12,5.62c-.78-2-1.56-3.91-2.35-5.87-.07,2.4-.15,4.8-.22,7.2a12.24,12.24,0,0,1-1.9-3.09l0,1.46a6.06,6.06,0,0,1-2.22-1.83l0,1.84a11.78,11.78,0,0,1-2.79-3.52,8.11,8.11,0,0,0-2.48,4.83,5.41,5.41,0,0,1-.82-4.47L133.76,362a5.48,5.48,0,0,1,1-3.93,18.59,18.59,0,0,0-3.57,2.59,3.23,3.23,0,0,1,.8-2.92,13.87,13.87,0,0,1-9.46,3.78,12.37,12.37,0,0,1,2.91-2.82,9.87,9.87,0,0,0-3.47,1.38l2.56-3.34a18.91,18.91,0,0,0-7.22.53,22.77,22.77,0,0,1,4.17-4.49,11.88,11.88,0,0,0-4.78.38,7.77,7.77,0,0,1,3.8-5.22l-7.27,2.53c2.64-3.87,5.43-7.89,9.53-10.18a52.85,52.85,0,0,0-7.22.38,7.46,7.46,0,0,1,3.57-3,13.92,13.92,0,0,0-6.52.77,5.69,5.69,0,0,1,6.28-2.67,15.69,15.69,0,0,1-4.78-2l5.48-.41-5.22-4.27a27,27,0,0,1,6.93,1.49,51.1,51.1,0,0,1-3.54-6.07l2.79,2.51c0-.45,0-.91.08-1.36a2.27,2.27,0,0,1,2.12.78,11.13,11.13,0,0,0-2.77-7.18,21.42,21.42,0,0,1,10.33,3.29,13.84,13.84,0,0,0-1.42-7,12.7,12.7,0,0,1,5,2.66,18.29,18.29,0,0,0-2-6,5,5,0,0,1,3.43,3.14,3.26,3.26,0,0,0,1.05-2.38c.33.85.67,1.7,1,2.54l1.69-2.57a18.22,18.22,0,0,0,1.29,2.81A30.22,30.22,0,0,0,144.22,312.71Z" style="fill:none;stroke:#263238;stroke-linecap:round;stroke-linejoin:round"></path><path d="M198.84,333c.14.83.29,1.67.44,2.51l-6.22-1.4a4.48,4.48,0,0,0,1.21,1.62l-3.22.12a1.68,1.68,0,0,0,1.54,1.6c-.19.38-.37.77-.56,1.15a7.22,7.22,0,0,0-5.74,1.26,6.08,6.08,0,0,0,3.53,1,16,16,0,0,0-5,2c-.52.31-1.1.95-.75,1.45l2.26-.16a6.74,6.74,0,0,1-2.3,2.11l2.28.08a2.8,2.8,0,0,1-.9,1.61l1.81.3a11.71,11.71,0,0,0-2.82,5.34l2.48-.73a7.13,7.13,0,0,0-3.46,6.09,3.25,3.25,0,0,0,1.76-1.06,20.08,20.08,0,0,0-1.66,7.75,5.18,5.18,0,0,1,3.48-1.68,4.25,4.25,0,0,0-1.44,3.72c.15-.7,1.27-.76,1.71-.18a2.17,2.17,0,0,1,.07,2.06,7.48,7.48,0,0,0,1.25-1.89,17.47,17.47,0,0,0-.35,5.9,8.14,8.14,0,0,0,2.71-3.58,18.63,18.63,0,0,1-.67,4.27,6.41,6.41,0,0,0,3.21-4,14.3,14.3,0,0,1,.1,4.66l1.95-4.86.18,6a10,10,0,0,0,1.57-2.57c0,.41,0,.81,0,1.21a5.09,5.09,0,0,0,1.84-1.51c0,.5,0,1,0,1.52a9.67,9.67,0,0,0,2.32-2.92,6.68,6.68,0,0,1,2.05,4,4.48,4.48,0,0,0,.69-3.71l3.38,1.79a4.54,4.54,0,0,0-.84-3.25,15.18,15.18,0,0,1,3,2.14,2.69,2.69,0,0,0-.67-2.42,11.46,11.46,0,0,0,7.85,3.13,10.75,10.75,0,0,0-2.42-2.34,8.37,8.37,0,0,1,2.88,1.15c-.71-.92-1.42-1.84-2.12-2.77a15.68,15.68,0,0,1,6,.44,19,19,0,0,0-3.45-3.72,9.77,9.77,0,0,1,4,.32,6.39,6.39,0,0,0-3.15-4.33l6,2.1c-2.19-3.21-4.5-6.54-7.89-8.44a44.15,44.15,0,0,1,6,.31,6.15,6.15,0,0,0-3-2.47,11.69,11.69,0,0,1,5.4.63,4.71,4.71,0,0,0-5.2-2.21,12.74,12.74,0,0,0,4-1.69l-4.54-.34,4.32-3.53a22.1,22.1,0,0,0-5.74,1.22,41.88,41.88,0,0,0,2.93-5l-2.31,2.08-.06-1.13a1.89,1.89,0,0,0-1.77.65,9.27,9.27,0,0,1,2.3-5.95,17.75,17.75,0,0,0-8.56,2.72,11.36,11.36,0,0,1,1.18-5.76,10.4,10.4,0,0,0-4.18,2.2,15.4,15.4,0,0,1,1.63-5,4.18,4.18,0,0,0-2.84,2.6,2.63,2.63,0,0,1-.86-2l-.84,2.11L203,333.18a14.46,14.46,0,0,1-1.06,2.34A25.86,25.86,0,0,1,198.84,333Z" style="fill:none;stroke:#263238;stroke-linecap:round;stroke-linejoin:round"></path><path d="M240.42,350.12l.29,1.63-4-.91a2.83,2.83,0,0,0,.79,1.05l-2.09.08a1.08,1.08,0,0,0,1,1l-.36.74a4.76,4.76,0,0,0-3.73.82,4,4,0,0,0,2.29.66,10.58,10.58,0,0,0-3.25,1.27c-.34.21-.71.62-.48.94l1.46-.1a4.55,4.55,0,0,1-1.49,1.37l1.48.05a1.82,1.82,0,0,1-.59,1.05l1.18.19a7.58,7.58,0,0,0-1.83,3.47l1.6-.48a4.67,4.67,0,0,0-2.24,3.95,2.19,2.19,0,0,0,1.15-.68,13,13,0,0,0-1.08,5,3.32,3.32,0,0,1,2.26-1.09,2.76,2.76,0,0,0-.94,2.41c.1-.45.83-.49,1.11-.12a1.41,1.41,0,0,1,0,1.34,5.08,5.08,0,0,0,.82-1.23,11.23,11.23,0,0,0-.23,3.83,5.32,5.32,0,0,0,1.76-2.32,12.3,12.3,0,0,1-.43,2.77,4.17,4.17,0,0,0,2.08-2.57,9.56,9.56,0,0,1,.06,3l1.26-3.16.12,3.88a6.09,6.09,0,0,0,1-1.67v.79a3.26,3.26,0,0,0,1.19-1l0,1a6.12,6.12,0,0,0,1.5-1.89,4.35,4.35,0,0,1,1.34,2.6,2.9,2.9,0,0,0,.44-2.41l2.2,1.17a3,3,0,0,0-.55-2.12,10.15,10.15,0,0,1,1.92,1.4,1.73,1.73,0,0,0-.43-1.57,7.48,7.48,0,0,0,5.09,2,7,7,0,0,0-1.56-1.52,5.45,5.45,0,0,1,1.86.74L251,373.81a10.14,10.14,0,0,1,3.88.28,11.9,11.9,0,0,0-2.24-2.41,6.37,6.37,0,0,1,2.57.2,4.14,4.14,0,0,0-2-2.81l3.91,1.37c-1.42-2.09-2.92-4.25-5.12-5.48a29.67,29.67,0,0,1,3.88.2,4,4,0,0,0-1.92-1.6,7.32,7.32,0,0,1,3.5.41,3.05,3.05,0,0,0-3.37-1.44,8.36,8.36,0,0,0,2.57-1.1l-3-.22,2.81-2.29a14.44,14.44,0,0,0-3.73.8,27.36,27.36,0,0,0,1.91-3.27l-1.5,1.36,0-.74a1.23,1.23,0,0,0-1.14.42,6,6,0,0,1,1.49-3.86,11.47,11.47,0,0,0-5.56,1.77,7.43,7.43,0,0,1,.77-3.74,6.69,6.69,0,0,0-2.71,1.43,9.8,9.8,0,0,1,1.06-3.24,2.72,2.72,0,0,0-1.85,1.69,1.76,1.76,0,0,1-.56-1.28l-.54,1.37-.92-1.39a9.26,9.26,0,0,1-.69,1.51A16.56,16.56,0,0,1,240.42,350.12Z" style="fill:none;stroke:#263238;stroke-linecap:round;stroke-linejoin:round;stroke-width:0.75px"></path><line x1="65.38" y1="387.28" x2="65.38" y2="420.11" style="fill:none;stroke:#263238;stroke-linecap:round;stroke-linejoin:round"></line><line x1="76.99" y1="387.74" x2="76.99" y2="419.01" style="fill:none;stroke:#263238;stroke-linecap:round;stroke-linejoin:round"></line><line x1="87.54" y1="388.17" x2="87.54" y2="418.02" style="fill:none;stroke:#263238;stroke-linecap:round;stroke-linejoin:round"></line><line x1="97.18" y1="388.56" x2="97.18" y2="417.11" style="fill:none;stroke:#263238;stroke-linecap:round;stroke-linejoin:round"></line><line x1="106.01" y1="388.92" x2="106.01" y2="416.28" style="fill:none;stroke:#263238;stroke-linecap:round;stroke-linejoin:round"></line><line x1="114.13" y1="389.25" x2="114.13" y2="415.51" style="fill:none;stroke:#263238;stroke-linecap:round;stroke-linejoin:round"></line><line x1="121.63" y1="389.55" x2="121.63" y2="414.8" style="fill:none;stroke:#263238;stroke-linecap:round;stroke-linejoin:round"></line><line x1="128.58" y1="389.83" x2="128.58" y2="414.15" style="fill:none;stroke:#263238;stroke-linecap:round;stroke-linejoin:round"></line><line x1="135.02" y1="390.09" x2="135.02" y2="413.54" style="fill:none;stroke:#263238;stroke-linecap:round;stroke-linejoin:round"></line><line x1="141.03" y1="390.33" x2="141.03" y2="412.97" style="fill:none;stroke:#263238;stroke-linecap:round;stroke-linejoin:round"></line><line x1="146.63" y1="390.56" x2="146.63" y2="412.44" style="fill:none;stroke:#263238;stroke-linecap:round;stroke-linejoin:round"></line><line x1="151.87" y1="390.77" x2="151.87" y2="411.95" style="fill:none;stroke:#263238;stroke-linecap:round;stroke-linejoin:round"></line><line x1="156.78" y1="390.97" x2="156.78" y2="411.49" style="fill:none;stroke:#263238;stroke-linecap:round;stroke-linejoin:round"></line><line x1="161.4" y1="391.16" x2="161.4" y2="411.05" style="fill:none;stroke:#263238;stroke-linecap:round;stroke-linejoin:round"></line><line x1="165.74" y1="391.33" x2="165.74" y2="410.64" style="fill:none;stroke:#263238;stroke-linecap:round;stroke-linejoin:round"></line><line x1="169.84" y1="391.5" x2="169.84" y2="410.26" style="fill:none;stroke:#263238;stroke-linecap:round;stroke-linejoin:round"></line><line x1="173.71" y1="391.65" x2="173.71" y2="409.89" style="fill:none;stroke:#263238;stroke-linecap:round;stroke-linejoin:round"></line><line x1="177.36" y1="391.8" x2="177.36" y2="409.55" style="fill:none;stroke:#263238;stroke-linecap:round;stroke-linejoin:round"></line><line x1="180.83" y1="391.94" x2="180.83" y2="409.22" style="fill:none;stroke:#263238;stroke-linecap:round;stroke-linejoin:round"></line><line x1="184.12" y1="392.07" x2="184.12" y2="408.91" style="fill:none;stroke:#263238;stroke-linecap:round;stroke-linejoin:round"></line><line x1="187.24" y1="392.2" x2="187.24" y2="408.61" style="fill:none;stroke:#263238;stroke-linecap:round;stroke-linejoin:round"></line><line x1="190.21" y1="392.32" x2="190.21" y2="408.33" style="fill:none;stroke:#263238;stroke-linecap:round;stroke-linejoin:round"></line><line x1="193.04" y1="392.44" x2="193.04" y2="408.07" style="fill:none;stroke:#263238;stroke-linecap:round;stroke-linejoin:round"></line><line x1="195.74" y1="392.54" x2="195.74" y2="407.81" style="fill:none;stroke:#263238;stroke-linecap:round;stroke-linejoin:round"></line><line x1="198.32" y1="392.65" x2="198.32" y2="407.57" style="fill:none;stroke:#263238;stroke-linecap:round;stroke-linejoin:round"></line><line x1="200.78" y1="392.75" x2="200.78" y2="407.34" style="fill:none;stroke:#263238;stroke-linecap:round;stroke-linejoin:round"></line><line x1="203.13" y1="392.84" x2="203.13" y2="407.11" style="fill:none;stroke:#263238;stroke-linecap:round;stroke-linejoin:round"></line><line x1="205.39" y1="392.93" x2="205.39" y2="406.9" style="fill:none;stroke:#263238;stroke-linecap:round;stroke-linejoin:round"></line><line x1="207.55" y1="393.02" x2="207.55" y2="406.7" style="fill:none;stroke:#263238;stroke-linecap:round;stroke-linejoin:round"></line><line x1="209.62" y1="393.11" x2="209.62" y2="406.5" style="fill:none;stroke:#263238;stroke-linecap:round;stroke-linejoin:round"></line><line x1="211.61" y1="393.19" x2="211.61" y2="406.32" style="fill:none;stroke:#263238;stroke-linecap:round;stroke-linejoin:round"></line><line x1="213.52" y1="393.26" x2="213.52" y2="406.14" style="fill:none;stroke:#263238;stroke-linecap:round;stroke-linejoin:round"></line><line x1="215.35" y1="393.34" x2="215.35" y2="405.96" style="fill:none;stroke:#263238;stroke-linecap:round;stroke-linejoin:round"></line><line x1="217.12" y1="393.41" x2="217.12" y2="405.8" style="fill:none;stroke:#263238;stroke-linecap:round;stroke-linejoin:round"></line><line x1="218.83" y1="393.48" x2="218.83" y2="405.63" style="fill:none;stroke:#263238;stroke-linecap:round;stroke-linejoin:round"></line><line x1="220.47" y1="393.54" x2="220.47" y2="405.48" style="fill:none;stroke:#263238;stroke-linecap:round;stroke-linejoin:round"></line><line x1="222.05" y1="393.61" x2="222.05" y2="405.33" style="fill:none;stroke:#263238;stroke-linecap:round;stroke-linejoin:round"></line><line x1="223.57" y1="393.67" x2="223.57" y2="405.19" style="fill:none;stroke:#263238;stroke-linecap:round;stroke-linejoin:round"></line><line x1="225.05" y1="393.73" x2="225.05" y2="405.05" style="fill:none;stroke:#263238;stroke-linecap:round;stroke-linejoin:round"></line><line x1="226.47" y1="393.79" x2="226.47" y2="404.91" style="fill:none;stroke:#263238;stroke-linecap:round;stroke-linejoin:round"></line><line x1="227.85" y1="393.84" x2="227.85" y2="404.78" style="fill:none;stroke:#263238;stroke-linecap:round;stroke-linejoin:round"></line><line x1="229.18" y1="393.9" x2="229.18" y2="404.66" style="fill:none;stroke:#263238;stroke-linecap:round;stroke-linejoin:round"></line><line x1="230.47" y1="393.95" x2="230.47" y2="404.54" style="fill:none;stroke:#263238;stroke-linecap:round;stroke-linejoin:round"></line><line x1="231.72" y1="394" x2="231.72" y2="404.42" style="fill:none;stroke:#263238;stroke-linecap:round;stroke-linejoin:round"></line><line x1="232.92" y1="394.05" x2="232.92" y2="404.3" style="fill:none;stroke:#263238;stroke-linecap:round;stroke-linejoin:round"></line><line x1="234.1" y1="394.09" x2="234.1" y2="404.19" style="fill:none;stroke:#263238;stroke-linecap:round;stroke-linejoin:round"></line><line x1="235.23" y1="394.14" x2="235.23" y2="404.09" style="fill:none;stroke:#263238;stroke-linecap:round;stroke-linejoin:round"></line><path d="M235,393.24v6.24l-19.61.85v-8l-4.81-.22v8.41l-24.36,1.05V391l-5.58-.26v11.08L152.22,403V389.43l-8.11-.37v14.33L109,404.9V387.44L99.41,387v18.32l-37.72,1.62V385.26L46,384.53s-6.12,8.83-.74,23.11c4,10.48,16.43,14.46,16.43,14.46l185.67-18.35v-9.93Z" style="fill:#bfbfbf"></path><polyline points="61.69 422.1 247.36 403.75 247.36 393.81 234.97 393.24 234.97 399.48 215.36 400.33 215.36 392.34 210.55 392.12 210.55 400.53 186.19 401.58 186.19 391 180.61 390.74 180.61 401.82 152.22 403.04 152.22 389.43 144.11 389.06 144.11 403.39 108.97 404.9 108.97 387.44 99.41 387 99.41 405.31 61.69 406.93 61.69 385.26 46 384.53" style="fill:none;stroke:#263238;stroke-linecap:round;stroke-linejoin:round"></polyline></g><g id="Street"><path d="M330.69,447l16.22-44H289.56L64.69,435.15S223.06,469.45,330.69,447Z" style="fill:#bfbfbf"></path><polyline points="330.69 447 346.92 402.97 289.56 402.97 64.69 435.15" style="fill:none;stroke:#263238;stroke-linecap:round;stroke-linejoin:round"></polyline><path d="M49.16,415.76,245,401.16h44.57V403L65.24,437.11S50.49,431,49.16,415.76Z" style="fill:#92E3A9"></path><path d="M49.16,415.76,245,401.16h44.57V403L65.24,437.11S50.49,431,49.16,415.76Z" style="opacity:0.1"></path><path d="M289.56,401.16V403l-.94.14-3.25.5-1.42.21-3.6.55-1.58.24-4,.61-1.77.27-4.52.69-2,.3-5.12.78-2.26.35-5.85.89-2.58.39-6.73,1-3,.46-7.84,1.19-3.51.54-9.25,1.41-4.16.63-11.06,1.68-5,.77-13.47,2.05-6.18.94-16.77,2.55-7.79,1.19-21.45,3.26-10.11,1.54-28.38,4.32-13.68,2.08-17,2.59s-4.84-1.58-6.62-3.66c-2.85-3.32-2.35-4.25-2.35-4.25l11.83-1.45,21.15-2.58,24.93-3.05,15.43-1.89L148.25,418,160,416.51l14.5-1.77,9.28-1.13,11.61-1.42,7.48-.92,9.49-1.16,6.16-.75,7.93-1,5.16-.63,6.7-.82,4.38-.54,5.74-.7,3.77-.46,5-.61,3.28-.4,4.36-.53,2.87-.35,3.85-.48,2.54-.31,3.43-.42,2.26-.27,3.08-.38,2-.25.69-.08Z" style="fill:#fff;opacity:0.7000000000000001"></path><g style="opacity:0.7000000000000001"><polygon points="95.93 432.44 82.25 434.52 81.99 428.32 68.1 427.75 89.25 425.17 95.67 425.84 95.93 432.44" style="fill:#263238"></polygon><polygon points="134.42 426.58 124.31 428.12 124.15 422.81 114.18 422.12 129.61 420.23 134.27 420.9 134.42 426.58" style="fill:#263238"></polygon><polygon points="163.66 422.13 155.87 423.32 155.77 418.69 148.25 417.95 160.03 416.51 163.56 417.15 163.66 422.13" style="fill:#263238"></polygon><polygon points="186.61 418.64 180.43 419.58 180.37 415.48 174.53 414.74 183.81 413.61 186.55 414.2 186.61 418.64" style="fill:#263238"></polygon><polygon points="205.11 415.82 200.08 416.59 200.05 412.91 195.42 412.19 202.9 411.27 205.08 411.83 205.11 415.82" style="fill:#263238"></polygon><polygon points="220.33 413.51 216.17 414.14 216.16 410.81 212.39 410.11 218.55 409.36 220.32 409.88 220.33 413.51" style="fill:#263238"></polygon><polygon points="233.09 408.24 233.09 411.56 229.58 412.1 229.58 409.05 226.48 408.39 231.64 407.76 233.09 408.24" style="fill:#263238"></polygon><polygon points="243.94 406.85 243.93 409.91 240.93 410.37 240.94 407.57 238.34 406.94 242.72 406.4 243.94 406.85" style="fill:#263238"></polygon><polygon points="253.26 405.66 253.24 408.5 250.66 408.89 250.67 406.3 248.46 405.7 252.23 405.24 253.26 405.66" style="fill:#263238"></polygon><polygon points="261.37 404.62 261.35 407.26 259.09 407.61 259.11 405.2 257.22 404.63 260.5 404.23 261.37 404.62" style="fill:#263238"></polygon><polygon points="268.48 403.71 268.46 406.18 266.47 406.48 266.49 404.24 264.86 403.7 267.73 403.35 268.48 403.71" style="fill:#263238"></polygon><polygon points="274.78 402.91 274.75 405.22 272.98 405.49 273.01 403.39 271.58 402.87 274.12 402.56 274.78 402.91" style="fill:#263238"></polygon><polygon points="280.38 402.19 280.35 404.37 278.77 404.61 278.8 402.63 277.55 402.14 279.81 401.87 280.38 402.19" style="fill:#263238"></polygon><polygon points="285.4 401.54 285.37 403.61 283.95 403.82 283.98 401.95 282.89 401.49 284.91 401.24 285.4 401.54" style="fill:#263238"></polygon><polygon points="289.56 401.16 289.56 402.97 288.62 403.11 288.65 401.35 288.23 401.16 289.56 401.16" style="fill:#263238"></polygon></g><path d="M451.6,429.84C408,449,354.35,451.19,330.13,451.08c-7.84,0-12.6-.3-12.95-.32h0l1.36-2.18,1.48-2.37,7.27-11.68,2.87-4.62,4.18-6.71,1.77-2.84L338.8,416l1.2-1.93,1.9-3.05.87-1.4,1.4-2.25.66-1.06,1.08-1.73.51-.83.86-1.37.41-.67.7-1.12.34-.54.19-.31H392Z" style="fill:#92E3A9"></path><path d="M451.6,429.84C408,449,354.35,451.19,330.13,451.08c-7.84,0-12.6-.3-12.95-.32h0l1.36-2.18,1.48-2.37,7.27-11.68,2.87-4.62,4.18-6.71,1.77-2.84L338.8,416l1.2-1.93,1.9-3.05.87-1.4,1.4-2.25.66-1.06,1.08-1.73.51-.83.86-1.37.41-.67.7-1.12.34-.54.19-.31H392Z" style="opacity:0.1"></path><path d="M353,399.75l-.14.31-.24.54-.5,1.12-.29.67-.61,1.37-.37.83-.77,1.73-.47,1.06-1,2.25L348,411l-1.36,3.05-.85,1.93-1.94,4.35-1.26,2.84-3,6.71-2.05,4.62-5.19,11.68-2.19,4.87c-7.84,0-12.6-.3-12.95-.32l2.82-4.55,7.27-11.68,2.87-4.62,4.18-6.71,1.77-2.84L338.8,416l1.2-1.93,1.9-3.05.87-1.4,1.4-2.25.66-1.06,1.08-1.73.51-.83.86-1.37.41-.67.7-1.12.34-.54.19-.31Z" style="fill:#fff;opacity:0.7000000000000001"></path><polygon points="337.51 434.53 332.32 446.21 320 446.21 327.27 434.53 337.51 434.53" style="fill:#263238;opacity:0.7000000000000001"></polygon><polygon points="342.54 423.2 339.56 429.91 330.14 429.91 334.32 423.2 342.54 423.2" style="fill:#263238;opacity:0.7000000000000001"></polygon><polygon points="345.74 416.01 343.8 420.36 336.09 420.36 338.8 416.01 345.74 416.01" style="fill:#263238;opacity:0.7000000000000001"></polygon><polygon points="347.95 411.03 346.59 414.08 340 414.08 341.9 411.03 347.95 411.03" style="fill:#263238;opacity:0.7000000000000001"></polygon><polygon points="349.57 407.38 348.57 409.63 342.77 409.63 344.17 407.38 349.57 407.38" style="fill:#263238;opacity:0.7000000000000001"></polygon><polygon points="350.81 404.59 350.04 406.32 344.83 406.32 345.91 404.59 350.81 404.59" style="fill:#263238;opacity:0.7000000000000001"></polygon><polygon points="351.79 402.39 351.18 403.76 346.42 403.76 347.28 402.39 351.79 402.39" style="fill:#263238;opacity:0.7000000000000001"></polygon><polygon points="352.58 400.6 352.08 401.72 347.69 401.72 348.39 400.6 352.58 400.6" style="fill:#263238;opacity:0.7000000000000001"></polygon><polygon points="352.96 399.75 352.82 400.06 348.73 400.06 348.92 399.75 352.96 399.75" style="fill:#263238;opacity:0.7000000000000001"></polygon><line x1="352.82" y1="400.06" x2="331.09" y2="448.98" style="fill:none;stroke:#263238;stroke-linecap:round;stroke-linejoin:round"></line><polyline points="451.6 429.84 392 399.75 348.92 399.75 317.16 450.76" style="fill:none;stroke:#263238;stroke-linecap:round;stroke-linejoin:round"></polyline><polyline points="49.16 415.76 244.99 401.16 289.56 401.16 289.56 402.97 65.24 437.11" style="fill:none;stroke:#263238;stroke-linecap:round;stroke-linejoin:round"></polyline><polygon points="80.89 396.57 75.55 396.57 76.73 289.25 79.7 289.25 80.89 396.57" style="fill:#92E3A9"></polygon><g style="clip-path:url(#clip-path-5)"><polygon points="80.89 396.57 75.55 396.57 76.73 289.25 79.7 289.25 80.89 396.57" style="opacity:0.2"></polygon></g><polygon points="80.89 396.57 75.55 396.57 76.73 289.25 79.7 289.25 80.89 396.57" style="fill:none;stroke:#263238;stroke-linecap:round;stroke-linejoin:round"></polygon><path d="M75.94,391.86h4.56a2.77,2.77,0,0,1,2.77,2.77v28.45a0,0,0,0,1,0,0H73.16a0,0,0,0,1,0,0V394.63A2.77,2.77,0,0,1,75.94,391.86Z" style="fill:#92E3A9;stroke:#263238;stroke-linecap:round;stroke-linejoin:round"></path><polygon points="80.72 289.97 75.71 289.97 74 276.48 82.44 276.48 80.72 289.97" style="fill:#92E3A9"></polygon><g style="clip-path:url(#clip-path-6)"><polygon points="80.72 289.97 75.71 289.97 74 276.48 82.44 276.48 80.72 289.97" style="fill:#fff;opacity:0.5"></polygon></g><polygon points="80.72 289.97 75.71 289.97 74 276.48 82.44 276.48 80.72 289.97" style="fill:none;stroke:#263238;stroke-linecap:round;stroke-linejoin:round"></polygon><polygon points="78.69 272.73 77.75 272.73 72.41 276.48 84.02 276.48 78.69 272.73" style="fill:#92E3A9;stroke:#263238;stroke-linecap:round;stroke-linejoin:round"></polygon><polygon points="182.6 391.79 178.62 391.79 179.51 311.75 181.72 311.75 182.6 391.79" style="fill:#92E3A9;stroke:#263238;stroke-linecap:round;stroke-linejoin:round"></polygon><path d="M179.62,388.28h2a2.77,2.77,0,0,1,2.77,2.77v20.52a0,0,0,0,1,0,0h-7.54a0,0,0,0,1,0,0V391.05A2.77,2.77,0,0,1,179.62,388.28Z" style="fill:#92E3A9"></path><g style="clip-path:url(#clip-path-7)"><path d="M179.62,388.28h2a2.77,2.77,0,0,1,2.77,2.77v20.52a0,0,0,0,1,0,0h-7.54a0,0,0,0,1,0,0V391.05A2.77,2.77,0,0,1,179.62,388.28Z" style="fill:#fff;opacity:0.2"></path></g><path d="M179.62,388.28h2a2.77,2.77,0,0,1,2.77,2.77v20.52a0,0,0,0,1,0,0h-7.54a0,0,0,0,1,0,0V391.05A2.77,2.77,0,0,1,179.62,388.28Z" style="fill:none;stroke:#263238;stroke-linecap:round;stroke-linejoin:round"></path><polygon points="182.48 312.28 178.75 312.28 177.47 302.22 183.76 302.22 182.48 312.28" style="fill:#92E3A9"></polygon><g style="clip-path:url(#clip-path-8)"><polygon points="182.48 312.28 178.75 312.28 177.47 302.22 183.76 302.22 182.48 312.28" style="fill:#fff;opacity:0.6000000000000001"></polygon></g><polygon points="182.48 312.28 178.75 312.28 177.47 302.22 183.76 302.22 182.48 312.28" style="fill:none;stroke:#263238;stroke-linecap:round;stroke-linejoin:round"></polygon><polygon points="180.96 299.43 180.26 299.43 176.29 302.22 184.94 302.22 180.96 299.43" style="fill:#92E3A9"></polygon><g style="clip-path:url(#clip-path-9)"><polygon points="180.96 299.43 180.26 299.43 176.29 302.22 184.94 302.22 180.96 299.43" style="fill:#fff;opacity:0.2"></polygon></g><polygon points="180.96 299.43 180.26 299.43 176.29 302.22 184.94 302.22 180.96 299.43" style="fill:none;stroke:#263238;stroke-linecap:round;stroke-linejoin:round"></polygon><polygon points="239.64 389.65 236.74 389.65 237.38 331.21 239 331.21 239.64 389.65" style="fill:#92E3A9"></polygon><g style="clip-path:url(#clip-path-10)"><polygon points="239.64 389.65 236.74 389.65 237.38 331.21 239 331.21 239.64 389.65" style="fill:#fff;opacity:0.2"></polygon></g><polygon points="239.64 389.65 236.74 389.65 237.38 331.21 239 331.21 239.64 389.65" style="fill:none;stroke:#263238;stroke-linecap:round;stroke-linejoin:round"></polygon><path d="M238.19,387.08h0a2.75,2.75,0,0,0-2.75,2.75v14.26h5.5V389.83A2.75,2.75,0,0,0,238.19,387.08Z" style="fill:#92E3A9"></path><g style="clip-path:url(#clip-path-11)"><path d="M238.19,387.08h0a2.75,2.75,0,0,0-2.75,2.75v14.26h5.5V389.83A2.75,2.75,0,0,0,238.19,387.08Z" style="fill:#fff;opacity:0.5"></path></g><path d="M238.19,387.08h0a2.75,2.75,0,0,0-2.75,2.75v14.26h5.5V389.83A2.75,2.75,0,0,0,238.19,387.08Z" style="fill:none;stroke:#263238;stroke-linecap:round;stroke-linejoin:round"></path><polygon points="239.56 331.6 236.83 331.6 235.89 324.25 240.49 324.25 239.56 331.6" style="fill:#92E3A9"></polygon><g style="clip-path:url(#clip-path-12)"><polygon points="239.56 331.6 236.83 331.6 235.89 324.25 240.49 324.25 239.56 331.6" style="fill:#fff;opacity:0.8"></polygon></g><polygon points="239.56 331.6 236.83 331.6 235.89 324.25 240.49 324.25 239.56 331.6" style="fill:none;stroke:#263238;stroke-linecap:round;stroke-linejoin:round"></polygon><polygon points="238.45 322.21 237.93 322.21 235.03 324.25 241.35 324.25 238.45 322.21" style="fill:#92E3A9"></polygon><g style="clip-path:url(#clip-path-13)"><polygon points="238.45 322.21 237.93 322.21 235.03 324.25 241.35 324.25 238.45 322.21" style="fill:#fff;opacity:0.5"></polygon></g><polygon points="238.45 322.21 237.93 322.21 235.03 324.25 241.35 324.25 238.45 322.21" style="fill:none;stroke:#263238;stroke-linecap:round;stroke-linejoin:round"></polygon><path d="M273.07,387.4l-.52-46.18H273l.77-6.08h.72l-2.41-1.69h-.42l-2.4,1.69H270l.77,6.08h.46l-.51,46.18a2.15,2.15,0,0,0-1.09,1.87v11.9h4.55v-11.9A2.15,2.15,0,0,0,273.07,387.4Z" style="fill:#92E3A9"></path><g style="clip-path:url(#clip-path-14)"><path d="M273.07,387.4l-.52-46.18H273l.77-6.08h.72l-2.41-1.69h-.42l-2.4,1.69H270l.77,6.08h.46l-.51,46.18a2.15,2.15,0,0,0-1.09,1.87v11.9h4.55v-11.9A2.15,2.15,0,0,0,273.07,387.4Z" style="fill:#fff;opacity:0.6000000000000001"></path></g><path d="M273.07,387.4l-.52-46.18H273l.77-6.08h.72l-2.41-1.69h-.42l-2.4,1.69H270l.77,6.08h.46l-.51,46.18a2.15,2.15,0,0,0-1.09,1.87v11.9h4.55v-11.9A2.15,2.15,0,0,0,273.07,387.4Z" style="fill:none;stroke:#263238;stroke-linecap:round;stroke-linejoin:round"></path><line x1="56.27" y1="429.2" x2="285.6" y2="401.16" style="fill:none;stroke:#263238;stroke-linecap:round;stroke-linejoin:round"></line><path d="M360.92,377l-1.26-114.5h1.14l1.92-15.17h1.78l-6-4.21h-1.06l-6,4.21h1.78l1.93,15.17h1.14L355,377a2.78,2.78,0,0,0-2.74,2.77v32.32h11.36V379.8A2.77,2.77,0,0,0,360.92,377Z" style="fill:#92E3A9"></path><g style="clip-path:url(#clip-path-15)"><path d="M360.92,377l-1.26-114.5h1.14l1.92-15.17h1.78l-6-4.21h-1.06l-6,4.21h1.78l1.93,15.17h1.14L355,377a2.78,2.78,0,0,0-2.74,2.77v32.32h11.36V379.8A2.77,2.77,0,0,0,360.92,377Z" style="fill:#fff;opacity:0.4"></path></g><path d="M360.92,377l-1.26-114.5h1.14l1.92-15.17h1.78l-6-4.21h-1.06l-6,4.21h1.78l1.93,15.17h1.14L355,377a2.78,2.78,0,0,0-2.74,2.77v32.32h11.36V379.8A2.77,2.77,0,0,0,360.92,377Z" style="fill:none;stroke:#263238;stroke-linecap:round;stroke-linejoin:round"></path><polygon points="358.18 386.25 350.29 386.25 352.04 227.72 356.42 227.72 358.18 386.25" style="fill:#92E3A9;stroke:#263238;stroke-linecap:round;stroke-linejoin:round"></polygon><path d="M349.54,379.29h9.38a2.77,2.77,0,0,1,2.77,2.77v43.35a0,0,0,0,1,0,0H346.77a0,0,0,0,1,0,0V382.06A2.77,2.77,0,0,1,349.54,379.29Z" style="fill:#92E3A9"></path><g style="clip-path:url(#clip-path-16)"><path d="M349.54,379.29h9.38a2.77,2.77,0,0,1,2.77,2.77v43.35a0,0,0,0,1,0,0H346.77a0,0,0,0,1,0,0V382.06A2.77,2.77,0,0,1,349.54,379.29Z" style="fill:#fff;opacity:0.2"></path></g><path d="M349.54,379.29h9.38a2.77,2.77,0,0,1,2.77,2.77v43.35a0,0,0,0,1,0,0H346.77a0,0,0,0,1,0,0V382.06A2.77,2.77,0,0,1,349.54,379.29Z" style="fill:none;stroke:#263238;stroke-linecap:round;stroke-linejoin:round"></path><polygon points="357.93 228.77 350.53 228.77 348 208.84 360.46 208.84 357.93 228.77" style="fill:#92E3A9"></polygon><g style="clip-path:url(#clip-path-17)"><polygon points="357.93 228.77 350.53 228.77 348 208.84 360.46 208.84 357.93 228.77" style="fill:#fff;opacity:0.6000000000000001"></polygon></g><polygon points="357.93 228.77 350.53 228.77 348 208.84 360.46 208.84 357.93 228.77" style="fill:none;stroke:#263238;stroke-linecap:round;stroke-linejoin:round"></polygon><polygon points="354.93 203.31 353.54 203.31 345.66 208.84 362.8 208.84 354.93 203.31" style="fill:#92E3A9"></polygon><g style="clip-path:url(#clip-path-18)"><polygon points="354.93 203.31 353.54 203.31 345.66 208.84 362.8 208.84 354.93 203.31" style="fill:#fff;opacity:0.2"></polygon></g><polygon points="354.93 203.31 353.54 203.31 345.66 208.84 362.8 208.84 354.93 203.31" style="fill:none;stroke:#263238;stroke-linecap:round;stroke-linejoin:round"></polygon><polygon points="354.26 393.95 343.58 393.95 345.95 179.33 351.89 179.33 354.26 393.95" style="fill:#92E3A9"></polygon><g style="clip-path:url(#clip-path-19)"><polygon points="354.26 393.95 343.58 393.95 345.95 179.33 351.89 179.33 354.26 393.95" style="opacity:0.2"></polygon></g><polygon points="354.26 393.95 343.58 393.95 345.95 179.33 351.89 179.33 354.26 393.95" style="fill:none;stroke:#263238;stroke-linecap:round;stroke-linejoin:round"></polygon><path d="M341.59,384.53h14.66a2.77,2.77,0,0,1,2.77,2.77V447a0,0,0,0,1,0,0H338.82a0,0,0,0,1,0,0V387.31A2.77,2.77,0,0,1,341.59,384.53Z" style="fill:#92E3A9;stroke:#263238;stroke-linecap:round;stroke-linejoin:round"></path><polygon points="353.93 180.76 343.91 180.76 340.48 153.77 357.36 153.77 353.93 180.76" style="fill:#92E3A9"></polygon><g style="clip-path:url(#clip-path-20)"><polygon points="353.93 180.76 343.91 180.76 340.48 153.77 357.36 153.77 353.93 180.76" style="fill:#fff;opacity:0.5"></polygon></g><polygon points="353.93 180.76 343.91 180.76 340.48 153.77 357.36 153.77 353.93 180.76" style="fill:none;stroke:#263238;stroke-linecap:round;stroke-linejoin:round"></polygon><polygon points="349.86 146.28 347.98 146.28 337.31 153.77 360.52 153.77 349.86 146.28" style="fill:#92E3A9;stroke:#263238;stroke-linecap:round;stroke-linejoin:round"></polygon><polygon points="255.8 416.23 245.84 418.84 249.48 418.84 258.78 416.23 255.8 416.23" style="fill:#fff;opacity:0.7000000000000001"></polygon><polygon points="230.49 422.87 216.12 426.63 221.7 426.63 235.13 422.87 230.49 422.87" style="fill:#fff;opacity:0.7000000000000001"></polygon><polygon points="132.32 448.6 121.81 451.35 129.33 452.54 143.38 448.6 132.32 448.6" style="fill:#fff;opacity:0.7000000000000001"></polygon><polygon points="193.1 432.67 170.59 438.57 179.14 438.57 200.19 432.67 193.1 432.67" style="fill:#fff;opacity:0.7000000000000001"></polygon><polygon points="274.07 411.44 266.77 413.36 269.04 413.36 275.86 411.44 274.07 411.44" style="fill:#fff;opacity:0.7000000000000001"></polygon><polygon points="298.7 404.99 294.29 406.14 294.76 406.14 298.88 404.99 298.7 404.99" style="fill:#fff;opacity:0.7000000000000001"></polygon><polygon points="287.89 407.82 282.31 409.28 283.56 409.28 288.77 407.82 287.89 407.82" style="fill:#fff;opacity:0.7000000000000001"></polygon><polygon points="292.93 422.87 286.42 426.63 290.03 426.63 295.91 422.87 292.93 422.87" style="fill:#fff;opacity:0.7000000000000001"></polygon><polygon points="276 432.67 265.8 438.57 271.37 438.57 280.6 432.67 276 432.67" style="fill:#fff;opacity:0.7000000000000001"></polygon><polygon points="304.39 416.23 299.88 418.84 302.21 418.84 306.29 416.23 304.39 416.23" style="fill:#fff;opacity:0.7000000000000001"></polygon><polygon points="248.48 448.6 230.24 459.15 239.18 459.15 255.69 448.6 248.48 448.6" style="fill:#fff;opacity:0.7000000000000001"></polygon><polygon points="312.66 411.44 309.36 413.36 310.78 413.36 313.78 411.44 312.66 411.44" style="fill:#fff;opacity:0.7000000000000001"></polygon><polygon points="323.82 404.99 321.82 406.14 322.06 406.14 323.87 404.99 323.82 404.99" style="fill:#fff;opacity:0.7000000000000001"></polygon><polygon points="318.92 407.82 316.39 409.28 317.15 409.28 319.44 407.82 318.92 407.82" style="fill:#fff;opacity:0.7000000000000001"></polygon></g><g id="Leaves"><path d="M335.57,129.33s-.24.87-.72,2.39" style="fill:none;stroke:#92E3A9;stroke-linecap:round;stroke-linejoin:round"></path><path d="M333.22,136.54c-5.92,16.39-23.17,54.39-53.56,46.06-38.51-10.55-1.06-32.7,10-12.13,10.49,19.49-42,36.13-71.28,26.18" style="fill:none;stroke:#92E3A9;stroke-linecap:round;stroke-linejoin:round;stroke-dasharray:5.09596061706543,5.09596061706543"></path><path d="M216,195.76c-.78-.32-1.55-.66-2.28-1" style="fill:none;stroke:#92E3A9;stroke-linecap:round;stroke-linejoin:round"></path><path d="M200.8,184.19a6.87,6.87,0,0,1,5.8,1.58c2.91,2.37.8,8.18.8,8.18S201.07,195.53,200.8,184.19Z" style="fill:#92E3A9"></path><path d="M269,207.08a6.86,6.86,0,0,1,.15,6c-1.44,3.46-7.61,3.11-7.61,3.11S258.2,210.59,269,207.08Z" style="fill:#92E3A9"></path><path d="M313.47,152.64a6.84,6.84,0,0,1,1.71-5.76c2.44-2.85,8.19-.61,8.19-.61S324.81,152.63,313.47,152.64Z" style="fill:#92E3A9"></path></g></svg>