<svg xmlns="http://www.w3.org/2000/svg" viewBox="0 0 500 500"><g id="background-complete"><rect x="416.3" y="392.36" width="33.12" height="0.25" style="fill:#ebebeb"></rect><rect x="322.04" y="395.07" width="8.69" height="0.25" style="fill:#ebebeb"></rect><rect x="396.1" y="383.07" width="19.19" height="0.25" style="fill:#ebebeb"></rect><rect x="51.98" y="384.75" width="43.19" height="0.25" style="fill:#ebebeb"></rect><rect x="104.07" y="384.75" width="6.33" height="0.25" style="fill:#ebebeb"></rect><rect x="130.99" y="388.97" width="93.68" height="0.25" style="fill:#ebebeb"></rect><path d="M238.4,336.66H45.3a5.71,5.71,0,0,1-5.71-5.7V59.52a5.71,5.71,0,0,1,5.71-5.7H238.4a5.71,5.71,0,0,1,5.71,5.7V331A5.71,5.71,0,0,1,238.4,336.66ZM45.3,54.07a5.46,5.46,0,0,0-5.46,5.45V331a5.46,5.46,0,0,0,5.46,5.45H238.4a5.46,5.46,0,0,0,5.46-5.45V59.52a5.46,5.46,0,0,0-5.46-5.45Z" style="fill:#ebebeb"></path><path d="M454.7,336.66H261.6a5.71,5.71,0,0,1-5.71-5.7V59.52a5.71,5.71,0,0,1,5.71-5.7H454.7a5.71,5.71,0,0,1,5.71,5.7V331A5.71,5.71,0,0,1,454.7,336.66ZM261.6,54.07a5.46,5.46,0,0,0-5.46,5.45V331a5.46,5.46,0,0,0,5.46,5.45H454.7a5.46,5.46,0,0,0,5.46-5.45V59.52a5.46,5.46,0,0,0-5.46-5.45Z" style="fill:#ebebeb"></path><rect x="-0.48" y="381.26" width="500" height="0.25" style="fill:#ebebeb"></rect><rect x="224.34" y="233.97" width="64.22" height="121.04" style="fill:#ebebeb"></rect><polygon points="236.67 218.45 236.67 233.97 241.74 233.97 271.16 233.97 276.23 233.97 276.23 218.45 236.67 218.45" style="fill:#ebebeb"></polygon><rect x="228.45" y="238.08" width="8.22" height="8.22" style="fill:#fafafa"></rect><rect x="244.38" y="238.08" width="8.22" height="8.22" style="fill:#fafafa"></rect><rect x="260.3" y="238.08" width="8.22" height="8.22" style="fill:#fafafa"></rect><rect x="276.23" y="238.08" width="8.22" height="8.22" style="fill:#fafafa"></rect><rect x="228.45" y="253.02" width="8.22" height="8.22" style="fill:#fafafa"></rect><rect x="244.38" y="253.02" width="8.22" height="8.22" style="fill:#fafafa"></rect><rect x="260.3" y="253.02" width="8.22" height="8.22" style="fill:#fafafa"></rect><rect x="276.23" y="253.02" width="8.22" height="8.22" style="fill:#fafafa"></rect><rect x="228.45" y="267.95" width="8.22" height="8.22" style="fill:#fafafa"></rect><rect x="244.38" y="267.95" width="8.22" height="8.22" style="fill:#fafafa"></rect><rect x="260.3" y="267.95" width="8.22" height="8.22" style="fill:#fafafa"></rect><rect x="244.38" y="225.16" width="8.22" height="8.22" style="fill:#fafafa"></rect><rect x="260.3" y="225.16" width="8.22" height="8.22" style="fill:#fafafa"></rect><rect x="276.23" y="267.95" width="8.22" height="8.22" style="fill:#fafafa"></rect><rect x="228.45" y="282.89" width="8.22" height="8.22" style="fill:#fafafa"></rect><rect x="244.38" y="282.89" width="8.22" height="8.22" style="fill:#fafafa"></rect><rect x="260.3" y="282.89" width="8.22" height="8.22" style="fill:#fafafa"></rect><rect x="276.23" y="282.89" width="8.22" height="8.22" style="fill:#fafafa"></rect><rect x="228.45" y="297.83" width="8.22" height="8.22" style="fill:#fafafa"></rect><rect x="244.38" y="297.83" width="8.22" height="8.22" style="fill:#fafafa"></rect><rect x="260.3" y="297.83" width="8.22" height="8.22" style="fill:#fafafa"></rect><rect x="276.23" y="297.83" width="8.22" height="8.22" style="fill:#fafafa"></rect><rect x="228.45" y="312.77" width="8.22" height="8.22" style="fill:#fafafa"></rect><rect x="244.38" y="312.77" width="8.22" height="8.22" style="fill:#fafafa"></rect><rect x="260.3" y="312.77" width="8.22" height="8.22" style="fill:#fafafa"></rect><rect x="276.23" y="312.77" width="8.22" height="8.22" style="fill:#fafafa"></rect><rect x="228.45" y="327.71" width="8.22" height="8.22" style="fill:#fafafa"></rect><rect x="244.38" y="327.71" width="8.22" height="8.22" style="fill:#fafafa"></rect><rect x="260.3" y="327.71" width="8.22" height="8.22" style="fill:#fafafa"></rect><rect x="276.23" y="327.71" width="8.22" height="8.22" style="fill:#fafafa"></rect><rect x="223.02" y="232.37" width="66.87" height="1.68" transform="translate(512.9 466.42) rotate(180)" style="fill:#f5f5f5"></rect><rect x="149.79" y="213.01" width="76.34" height="142" style="fill:#e6e6e6"></rect><polygon points="164.45 194.56 164.45 213.01 170.47 213.01 205.45 213.01 211.47 213.01 211.47 194.56 164.45 194.56" style="fill:#e6e6e6"></polygon><rect x="148.21" y="211.11" width="79.49" height="1.99" transform="translate(375.91 424.22) rotate(180)" style="fill:#f5f5f5"></rect><rect x="162.45" y="192.57" width="51.01" height="1.99" transform="translate(375.92 387.13) rotate(180)" style="fill:#f5f5f5"></rect><rect x="133.87" y="213.01" width="76.34" height="142" style="fill:#f0f0f0"></rect><polygon points="148.53 194.56 148.53 213.01 154.55 213.01 189.53 213.01 195.55 213.01 195.55 194.56 148.53 194.56" style="fill:#f0f0f0"></polygon><rect x="138.76" y="217.89" width="9.77" height="9.77" style="fill:#fff"></rect><rect x="157.69" y="217.89" width="9.77" height="9.77" style="fill:#fff"></rect><rect x="176.62" y="217.89" width="9.77" height="9.77" style="fill:#fff"></rect><rect x="195.55" y="217.89" width="9.77" height="9.77" style="fill:#fff"></rect><rect x="138.76" y="235.65" width="9.77" height="9.77" style="fill:#fff"></rect><rect x="157.69" y="235.65" width="9.77" height="9.77" style="fill:#fff"></rect><rect x="176.62" y="235.65" width="9.77" height="9.77" style="fill:#fff"></rect><rect x="195.55" y="235.65" width="9.77" height="9.77" style="fill:#fff"></rect><rect x="138.76" y="253.41" width="9.77" height="9.77" style="fill:#fff"></rect><rect x="157.69" y="253.41" width="9.77" height="9.77" style="fill:#fff"></rect><rect x="176.62" y="253.41" width="9.77" height="9.77" style="fill:#fff"></rect><rect x="157.69" y="202.54" width="9.77" height="9.77" style="fill:#fff"></rect><rect x="176.62" y="202.54" width="9.77" height="9.77" style="fill:#fff"></rect><rect x="195.55" y="253.41" width="9.77" height="9.77" style="fill:#fff"></rect><rect x="138.76" y="271.17" width="9.77" height="9.77" style="fill:#fff"></rect><rect x="157.69" y="271.17" width="9.77" height="9.77" style="fill:#fff"></rect><rect x="176.62" y="271.17" width="9.77" height="9.77" style="fill:#fff"></rect><rect x="195.55" y="271.17" width="9.77" height="9.77" style="fill:#fff"></rect><rect x="138.76" y="288.93" width="9.77" height="9.77" style="fill:#fff"></rect><rect x="157.69" y="288.93" width="9.77" height="9.77" style="fill:#fff"></rect><rect x="176.62" y="288.93" width="9.77" height="9.77" style="fill:#fff"></rect><rect x="195.55" y="288.93" width="9.77" height="9.77" style="fill:#fff"></rect><rect x="138.76" y="306.68" width="9.77" height="9.77" style="fill:#fff"></rect><rect x="157.69" y="306.68" width="9.77" height="9.77" style="fill:#fff"></rect><rect x="176.62" y="306.68" width="9.77" height="9.77" style="fill:#fff"></rect><rect x="195.55" y="306.68" width="9.77" height="9.77" style="fill:#fff"></rect><rect x="138.76" y="324.44" width="9.77" height="9.77" style="fill:#fff"></rect><rect x="157.69" y="324.44" width="9.77" height="9.77" style="fill:#fff"></rect><rect x="176.62" y="324.44" width="9.77" height="9.77" style="fill:#fff"></rect><rect x="195.55" y="324.44" width="9.77" height="9.77" style="fill:#fff"></rect><rect x="132.29" y="211.11" width="79.49" height="1.99" transform="translate(344.08 424.22) rotate(180)" style="fill:#f5f5f5"></rect><rect x="146.53" y="192.57" width="51.01" height="1.99" transform="translate(344.08 387.13) rotate(180)" style="fill:#f5f5f5"></rect><polygon points="95.45 277.33 52.72 277.33 52.72 354.44 120.91 354.44 120.91 277.33 120.91 247.56 95.45 277.33" style="fill:#f5f5f5"></polygon><rect x="120.91" y="247.56" width="12.73" height="106.88" style="fill:#e6e6e6"></rect><rect x="55.9" y="290.93" width="10.15" height="10.15" style="fill:#e0e0e0"></rect><rect x="57.03" y="290.93" width="9.02" height="10.15" style="fill:#fff;opacity:0.30000000000000004;isolation:isolate"></rect><rect x="55.9" y="308.01" width="10.15" height="10.15" style="fill:#e0e0e0"></rect><rect x="57.03" y="308.01" width="9.02" height="10.15" style="fill:#fff;opacity:0.30000000000000004;isolation:isolate"></rect><rect x="55.9" y="325.08" width="10.15" height="10.15" style="fill:#e0e0e0"></rect><rect x="57.03" y="325.08" width="9.02" height="10.15" style="fill:#fff;opacity:0.30000000000000004;isolation:isolate"></rect><rect x="57.03" y="325.08" width="10.15" height="10.15" style="fill:#fff;opacity:0.2;isolation:isolate"></rect><rect x="73.01" y="290.93" width="10.15" height="10.15" style="fill:#e0e0e0"></rect><rect x="74.14" y="290.93" width="9.02" height="10.15" style="fill:#fff;opacity:0.30000000000000004;isolation:isolate"></rect><rect x="73.01" y="308.01" width="10.15" height="10.15" style="fill:#e0e0e0"></rect><rect x="74.14" y="308.01" width="9.02" height="10.15" style="fill:#fff;opacity:0.30000000000000004;isolation:isolate"></rect><rect x="73.01" y="325.08" width="10.15" height="10.15" style="fill:#e0e0e0"></rect><rect x="74.14" y="325.08" width="9.02" height="10.15" style="fill:#fff;opacity:0.30000000000000004;isolation:isolate"></rect><rect x="74.14" y="325.08" width="10.15" height="10.15" style="fill:#fff;opacity:0.2;isolation:isolate"></rect><rect x="90.12" y="290.93" width="10.15" height="10.15" style="fill:#e0e0e0"></rect><rect x="91.25" y="290.93" width="9.02" height="10.15" style="fill:#fff;opacity:0.30000000000000004;isolation:isolate"></rect><rect x="90.12" y="308.01" width="10.15" height="10.15" style="fill:#e0e0e0"></rect><rect x="91.25" y="308.01" width="9.02" height="10.15" style="fill:#fff;opacity:0.30000000000000004;isolation:isolate"></rect><rect x="90.12" y="325.08" width="10.15" height="10.15" style="fill:#e0e0e0"></rect><rect x="91.25" y="325.08" width="9.02" height="10.15" style="fill:#fff;opacity:0.30000000000000004;isolation:isolate"></rect><rect x="91.25" y="325.08" width="10.15" height="10.15" style="fill:#fff;opacity:0.2;isolation:isolate"></rect><rect x="107.22" y="290.93" width="10.15" height="10.15" style="fill:#e0e0e0"></rect><rect x="108.35" y="290.93" width="9.02" height="10.15" style="fill:#fff;opacity:0.30000000000000004;isolation:isolate"></rect><rect x="107.22" y="308.01" width="10.15" height="10.15" style="fill:#e0e0e0"></rect><rect x="108.35" y="308.01" width="9.02" height="10.15" style="fill:#fff;opacity:0.30000000000000004;isolation:isolate"></rect><rect x="107.22" y="325.08" width="10.15" height="10.15" style="fill:#e0e0e0"></rect><rect x="108.35" y="325.08" width="9.02" height="10.15" style="fill:#fff;opacity:0.30000000000000004;isolation:isolate"></rect><rect x="108.36" y="325.08" width="10.15" height="10.15" style="fill:#fff;opacity:0.2;isolation:isolate"></rect><path d="M343.4,110.46l26.63-.3a4.85,4.85,0,0,1,2.67.76h0c8.42,8,18.12,3.38,22.43.58a10.42,10.42,0,0,1,5.51-1.7l29.67-.34c11.14-.13,13.65-15.75,3.09-19.28L433,90c11.52-9.82-14.24-30-41.64-1.35,2.06-9.46-22.55-5.77-29.94,7.19C358.64,87.46,335.31,102.42,343.4,110.46Z" style="fill:#f0f0f0"></path><path d="M191.22,149.83h44.22c5.66,0,7-7.93,1.68-9.79l-.21-.07c5.92-4.93-7.06-15.33-21.17-.93,1.1-4.8-11.44-3.07-15.27,3.48C199.11,138.22,187.15,145.69,191.22,149.83Z" style="fill:#f0f0f0"></path><path d="M67.43,111.85h75.12c9.62,0,11.94-13.47,2.85-16.64l-.35-.11c10.06-8.38-12-26-36-1.59,1.87-8.15-19.43-5.2-25.94,5.92C80.83,92.13,60.52,104.81,67.43,111.85Z" style="fill:#f0f0f0"></path></g><g id="background-simple"><path d="M396.61,156.39c-15.61-13.19-37-17.53-56.78-18-29.92-.71-59,6.19-83.4,19.77-5.32,3-11.67,6.32-17.9,3.65-5.46-2.34-8.08-8.22-10.71-13.3-17.58-33.85-66.62-62.87-104.11-56.43-24.85,4.28-44.78,22.29-50.14,45.31-2.92,12.54-1.76,26,.3,39.29,8.48,54.52,35.28,112,85.62,145A169.93,169.93,0,0,0,257.83,349a158.47,158.47,0,0,0,89.59-31.89c16.78-12.8,30.48-28.7,43-45.3s24-34.39,27.31-55.12S414.66,171.63,396.61,156.39Z" style="fill:#407BFF"></path><path d="M396.61,156.39c-15.61-13.19-37-17.53-56.78-18-29.92-.71-59,6.19-83.4,19.77-5.32,3-11.67,6.32-17.9,3.65-5.46-2.34-8.08-8.22-10.71-13.3-17.58-33.85-66.62-62.87-104.11-56.43-24.85,4.28-44.78,22.29-50.14,45.31-2.92,12.54-1.76,26,.3,39.29,8.48,54.52,35.28,112,85.62,145A169.93,169.93,0,0,0,257.83,349a158.47,158.47,0,0,0,89.59-31.89c16.78-12.8,30.48-28.7,43-45.3s24-34.39,27.31-55.12S414.66,171.63,396.61,156.39Z" style="fill:#fff;opacity:0.9"></path></g><g id="Buildings"><rect x="210.62" y="264.42" width="63.69" height="97.87" style="fill:#407BFF"></rect><rect x="210.62" y="264.41" width="52.94" height="97.88" style="fill:#fff;opacity:0.6;isolation:isolate"></rect><rect x="263.56" y="264.41" width="10.76" height="97.88" style="fill:#fff;opacity:0.3;isolation:isolate"></rect><rect x="215.17" y="269.39" width="11.55" height="11.55" style="fill:#407BFF"></rect><rect x="231.31" y="269.39" width="11.55" height="11.55" style="fill:#407BFF"></rect><rect x="247.46" y="269.39" width="11.55" height="11.55" style="fill:#407BFF"></rect><rect x="215.17" y="284.44" width="11.55" height="11.55" style="fill:#407BFF"></rect><rect x="231.31" y="284.44" width="11.55" height="11.55" style="fill:#407BFF"></rect><rect x="247.46" y="284.44" width="11.55" height="11.55" style="fill:#407BFF"></rect><rect x="215.17" y="299.49" width="11.55" height="11.55" style="fill:#407BFF"></rect><rect x="231.31" y="299.49" width="11.55" height="11.55" style="fill:#407BFF"></rect><rect x="247.46" y="299.49" width="11.55" height="11.55" style="fill:#407BFF"></rect><rect x="215.17" y="314.54" width="11.55" height="11.55" style="fill:#407BFF"></rect><rect x="231.31" y="314.54" width="11.55" height="11.55" style="fill:#407BFF"></rect><rect x="247.46" y="314.54" width="11.55" height="11.55" style="fill:#407BFF"></rect><rect x="215.17" y="329.59" width="11.55" height="11.55" style="fill:#407BFF"></rect><rect x="231.31" y="329.59" width="11.55" height="11.55" style="fill:#407BFF"></rect><rect x="247.46" y="329.59" width="11.55" height="11.55" style="fill:#407BFF"></rect><rect x="215.17" y="348.64" width="11.55" height="13.65" style="fill:#407BFF"></rect><rect x="231.31" y="344.64" width="11.55" height="17.65" style="fill:#407BFF"></rect><rect x="247.46" y="348.64" width="11.55" height="13.65" style="fill:#407BFF"></rect><rect x="216.12" y="269.39" width="10.6" height="11.55" style="fill:#fff;opacity:0.4;isolation:isolate"></rect><rect x="232.27" y="269.39" width="10.6" height="11.55" style="fill:#fff;opacity:0.4;isolation:isolate"></rect><rect x="248.42" y="269.39" width="10.6" height="11.55" style="fill:#fff;opacity:0.4;isolation:isolate"></rect><rect x="216.12" y="284.44" width="10.6" height="11.55" style="fill:#fff;opacity:0.4;isolation:isolate"></rect><rect x="232.27" y="284.44" width="10.6" height="11.55" style="fill:#fff;opacity:0.4;isolation:isolate"></rect><rect x="248.42" y="284.44" width="10.6" height="11.55" style="fill:#fff;opacity:0.4;isolation:isolate"></rect><rect x="216.12" y="299.49" width="10.6" height="11.55" style="fill:#fff;opacity:0.4;isolation:isolate"></rect><rect x="232.27" y="299.49" width="10.6" height="11.55" style="fill:#fff;opacity:0.4;isolation:isolate"></rect><rect x="248.42" y="299.49" width="10.6" height="11.55" style="fill:#fff;opacity:0.4;isolation:isolate"></rect><rect x="216.12" y="314.54" width="10.6" height="11.55" style="fill:#fff;opacity:0.4;isolation:isolate"></rect><rect x="232.27" y="314.54" width="10.6" height="11.55" style="fill:#fff;opacity:0.4;isolation:isolate"></rect><rect x="248.42" y="314.54" width="10.6" height="11.55" style="fill:#fff;opacity:0.4;isolation:isolate"></rect><rect x="216.12" y="329.59" width="10.6" height="11.55" style="fill:#fff;opacity:0.4;isolation:isolate"></rect><rect x="232.27" y="329.59" width="10.6" height="11.55" style="fill:#fff;opacity:0.4;isolation:isolate"></rect><rect x="248.42" y="329.59" width="10.6" height="11.55" style="fill:#fff;opacity:0.4;isolation:isolate"></rect><rect x="216.12" y="348.64" width="10.6" height="13.65" style="fill:#fff;opacity:0.4;isolation:isolate"></rect><rect x="232.27" y="344.64" width="10.6" height="17.65" style="fill:#fff;opacity:0.4;isolation:isolate"></rect><rect x="248.42" y="348.64" width="10.6" height="13.65" style="fill:#fff;opacity:0.4;isolation:isolate"></rect><polygon points="206.75 260.18 285.23 260.18 282.9 265.15 209.09 265.15 206.75 260.18" style="fill:#407BFF"></polygon><polygon points="264.72 260.18 285.23 260.18 282.9 265.15 263.6 265.15 264.72 260.18" style="opacity:0.2;isolation:isolate"></polygon><rect x="376.54" y="205.87" width="64.28" height="156.42" style="fill:#407BFF"></rect><rect x="376.54" y="205.87" width="48.9" height="156.42" style="fill:#fff;opacity:0.4;isolation:isolate"></rect><rect x="373.52" y="201.24" width="70.31" height="4.99" style="fill:#407BFF"></rect><rect x="425.45" y="201.24" width="18.38" height="4.99" style="opacity:0.2;isolation:isolate"></rect><rect x="425.45" y="206.23" width="15.38" height="156.06" style="fill:#fff;opacity:0.3;isolation:isolate"></rect><rect x="383.1" y="212.11" width="8.31" height="12.59" style="fill:#407BFF"></rect><rect x="383.1" y="212.94" width="8.31" height="11.75" style="fill:#fff;opacity:0.2;isolation:isolate"></rect><rect x="383.1" y="212.11" width="1.19" height="12.59" style="fill:#407BFF"></rect><rect x="396.19" y="212.11" width="8.31" height="12.59" style="fill:#407BFF"></rect><rect x="396.19" y="212.94" width="8.31" height="11.75" style="fill:#fff;opacity:0.2;isolation:isolate"></rect><rect x="396.19" y="212.11" width="1.19" height="12.59" style="fill:#407BFF"></rect><rect x="409.28" y="212.11" width="8.31" height="12.59" style="fill:#407BFF"></rect><rect x="409.28" y="212.94" width="8.31" height="11.75" style="fill:#fff;opacity:0.2;isolation:isolate"></rect><rect x="409.28" y="212.11" width="1.19" height="12.59" style="fill:#407BFF"></rect><rect x="383.1" y="231.07" width="8.31" height="12.59" style="fill:#407BFF"></rect><rect x="383.1" y="231.9" width="8.31" height="11.75" style="fill:#fff;opacity:0.2;isolation:isolate"></rect><rect x="383.1" y="231.07" width="1.19" height="12.59" style="fill:#407BFF"></rect><rect x="396.19" y="231.07" width="8.31" height="12.59" style="fill:#407BFF"></rect><rect x="396.19" y="231.9" width="8.31" height="11.75" style="fill:#fff;opacity:0.2;isolation:isolate"></rect><rect x="396.19" y="231.07" width="1.19" height="12.59" style="fill:#407BFF"></rect><rect x="409.28" y="231.07" width="8.31" height="12.59" style="fill:#407BFF"></rect><rect x="409.28" y="231.9" width="8.31" height="11.75" style="fill:#fff;opacity:0.2;isolation:isolate"></rect><rect x="409.28" y="231.07" width="1.19" height="12.59" style="fill:#407BFF"></rect><rect x="383.1" y="250.02" width="8.31" height="12.59" style="fill:#407BFF"></rect><rect x="383.1" y="250.86" width="8.31" height="11.75" style="fill:#fff;opacity:0.2;isolation:isolate"></rect><rect x="383.1" y="250.02" width="1.19" height="12.59" style="fill:#407BFF"></rect><rect x="396.19" y="250.02" width="8.31" height="12.59" style="fill:#407BFF"></rect><rect x="396.19" y="250.86" width="8.31" height="11.75" style="fill:#fff;opacity:0.2;isolation:isolate"></rect><rect x="396.19" y="250.02" width="1.19" height="12.59" style="fill:#407BFF"></rect><rect x="409.28" y="250.02" width="8.31" height="12.59" style="fill:#407BFF"></rect><rect x="409.28" y="250.86" width="8.31" height="11.75" style="fill:#fff;opacity:0.2;isolation:isolate"></rect><rect x="409.28" y="250.02" width="1.19" height="12.59" style="fill:#407BFF"></rect><rect x="383.1" y="268.98" width="8.31" height="12.59" style="fill:#407BFF"></rect><rect x="383.1" y="269.82" width="8.31" height="11.75" style="fill:#fff;opacity:0.2;isolation:isolate"></rect><rect x="383.1" y="268.98" width="1.19" height="12.59" style="fill:#407BFF"></rect><rect x="396.19" y="268.98" width="8.31" height="12.59" style="fill:#407BFF"></rect><rect x="396.19" y="269.82" width="8.31" height="11.75" style="fill:#fff;opacity:0.2;isolation:isolate"></rect><rect x="396.19" y="268.98" width="1.19" height="12.59" style="fill:#407BFF"></rect><rect x="409.28" y="268.98" width="8.31" height="12.59" style="fill:#407BFF"></rect><rect x="409.28" y="269.82" width="8.31" height="11.75" style="fill:#fff;opacity:0.2;isolation:isolate"></rect><rect x="409.28" y="268.98" width="1.19" height="12.59" style="fill:#407BFF"></rect><rect x="383.1" y="287.94" width="8.31" height="12.59" style="fill:#407BFF"></rect><rect x="383.1" y="288.77" width="8.31" height="11.75" style="fill:#fff;opacity:0.2;isolation:isolate"></rect><rect x="383.1" y="287.94" width="1.19" height="12.59" style="fill:#407BFF"></rect><rect x="396.19" y="287.94" width="8.31" height="12.59" style="fill:#407BFF"></rect><rect x="396.19" y="288.77" width="8.31" height="11.75" style="fill:#fff;opacity:0.2;isolation:isolate"></rect><rect x="396.19" y="287.94" width="1.19" height="12.59" style="fill:#407BFF"></rect><rect x="409.28" y="287.94" width="8.31" height="12.59" style="fill:#407BFF"></rect><rect x="409.28" y="288.77" width="8.31" height="11.75" style="fill:#fff;opacity:0.2;isolation:isolate"></rect><rect x="409.28" y="287.94" width="1.19" height="12.59" style="fill:#407BFF"></rect><rect x="383.1" y="306.89" width="8.31" height="12.59" style="fill:#407BFF"></rect><rect x="383.1" y="307.73" width="8.31" height="11.75" style="fill:#fff;opacity:0.2;isolation:isolate"></rect><rect x="383.1" y="306.89" width="1.19" height="12.59" style="fill:#407BFF"></rect><rect x="396.19" y="306.89" width="8.31" height="12.59" style="fill:#407BFF"></rect><rect x="396.19" y="307.73" width="8.31" height="11.75" style="fill:#fff;opacity:0.2;isolation:isolate"></rect><rect x="396.19" y="306.89" width="1.19" height="12.59" style="fill:#407BFF"></rect><rect x="409.28" y="306.89" width="8.31" height="12.59" style="fill:#407BFF"></rect><rect x="409.28" y="307.73" width="8.31" height="11.75" style="fill:#fff;opacity:0.2;isolation:isolate"></rect><rect x="409.28" y="306.89" width="1.19" height="12.59" style="fill:#407BFF"></rect><rect x="383.1" y="325.85" width="8.31" height="12.59" style="fill:#407BFF"></rect><rect x="383.1" y="326.69" width="8.31" height="11.75" style="fill:#fff;opacity:0.2;isolation:isolate"></rect><rect x="383.1" y="325.85" width="1.19" height="12.59" style="fill:#407BFF"></rect><rect x="396.19" y="325.85" width="8.31" height="12.59" style="fill:#407BFF"></rect><rect x="396.19" y="326.69" width="8.31" height="11.75" style="fill:#fff;opacity:0.2;isolation:isolate"></rect><rect x="396.19" y="325.85" width="1.19" height="12.59" style="fill:#407BFF"></rect><rect x="409.28" y="325.85" width="8.31" height="12.59" style="fill:#407BFF"></rect><rect x="409.28" y="326.69" width="8.31" height="11.75" style="fill:#fff;opacity:0.2;isolation:isolate"></rect><rect x="409.28" y="325.85" width="1.19" height="12.59" style="fill:#407BFF"></rect><rect x="383.1" y="344.81" width="8.31" height="12.59" style="fill:#407BFF"></rect><rect x="383.1" y="345.64" width="8.31" height="11.75" style="fill:#fff;opacity:0.2;isolation:isolate"></rect><rect x="383.1" y="344.81" width="1.19" height="12.59" style="fill:#407BFF"></rect><rect x="396.19" y="344.81" width="8.31" height="12.59" style="fill:#407BFF"></rect><rect x="396.19" y="345.64" width="8.31" height="11.75" style="fill:#fff;opacity:0.2;isolation:isolate"></rect><rect x="396.19" y="344.81" width="1.19" height="12.59" style="fill:#407BFF"></rect><rect x="409.28" y="344.81" width="8.31" height="12.59" style="fill:#407BFF"></rect><rect x="409.28" y="345.64" width="8.31" height="11.75" style="fill:#fff;opacity:0.2;isolation:isolate"></rect><rect x="409.28" y="344.81" width="1.19" height="12.59" style="fill:#407BFF"></rect><rect x="303.89" y="117.17" width="1.43" height="30.8" style="fill:#263238"></rect><rect x="334.97" y="117.17" width="1.43" height="30.8" style="fill:#263238"></rect><rect x="314.98" y="131.2" width="48.31" height="25.53" style="fill:#407BFF"></rect><rect x="314.98" y="131.2" width="48.31" height="25.53" style="fill:#fff;opacity:0.7000000000000001;isolation:isolate"></rect><rect x="287.04" y="131.2" width="48.31" height="25.53" style="fill:#407BFF"></rect><rect x="287.04" y="131.2" width="48.31" height="25.53" style="fill:#fff;opacity:0.4;isolation:isolate"></rect><rect x="280.03" y="170.42" width="2.42" height="10" style="fill:#fff;opacity:0.5;isolation:isolate"></rect><rect x="280.03" y="196.24" width="2.42" height="10" style="fill:#fff;opacity:0.5;isolation:isolate"></rect><rect x="280.03" y="213.72" width="2.42" height="10" style="fill:#fff;opacity:0.5;isolation:isolate"></rect><rect x="280.03" y="231.21" width="2.42" height="10" style="fill:#fff;opacity:0.5;isolation:isolate"></rect><rect x="280.03" y="248.69" width="2.42" height="10" style="fill:#fff;opacity:0.5;isolation:isolate"></rect><rect x="280.03" y="266.17" width="2.42" height="10" style="fill:#fff;opacity:0.5;isolation:isolate"></rect><rect x="280.03" y="285.44" width="2.42" height="10" style="fill:#fff;opacity:0.5;isolation:isolate"></rect><rect x="280.03" y="304.71" width="2.42" height="10" style="fill:#fff;opacity:0.5;isolation:isolate"></rect><rect x="280.03" y="323.97" width="2.42" height="10" style="fill:#fff;opacity:0.5;isolation:isolate"></rect><rect x="280.03" y="343.24" width="2.42" height="10" style="fill:#fff;opacity:0.5;isolation:isolate"></rect><rect x="301.4" y="157.1" width="75.49" height="205.19" style="fill:#407BFF"></rect><rect x="273.44" y="157.1" width="75.49" height="205.19" style="fill:#407BFF"></rect><rect x="348.94" y="159.92" width="27.94" height="202.38" style="fill:#fff;opacity:0.3;isolation:isolate"></rect><rect x="273.44" y="157.1" width="75.49" height="205.19" style="fill:#fff;opacity:0.5;isolation:isolate"></rect><rect x="332.52" y="166.07" width="9.26" height="191.32" style="fill:#407BFF"></rect><rect x="314.68" y="166.07" width="9.26" height="191.32" style="fill:#407BFF"></rect><rect x="296.84" y="166.07" width="9.26" height="191.32" style="fill:#407BFF"></rect><rect x="278.99" y="166.07" width="9.26" height="191.32" style="fill:#407BFF"></rect><rect x="332.52" y="168.49" width="9.26" height="188.9" style="fill:#fff;opacity:0.2;isolation:isolate"></rect><rect x="314.68" y="168.49" width="9.26" height="188.9" style="fill:#fff;opacity:0.2;isolation:isolate"></rect><rect x="296.84" y="168.49" width="9.26" height="188.9" style="fill:#fff;opacity:0.2;isolation:isolate"></rect><rect x="278.99" y="168.49" width="9.26" height="188.9" style="fill:#fff;opacity:0.2;isolation:isolate"></rect><rect x="369.78" y="166.07" width="3.88" height="191.32" style="fill:#407BFF"></rect><rect x="362.3" y="166.07" width="3.88" height="191.32" style="fill:#407BFF"></rect><rect x="354.81" y="166.07" width="3.88" height="191.32" style="fill:#407BFF"></rect><g style="opacity:0.3"><rect x="369.78" y="168.49" width="3.88" height="188.9" style="fill:#fff;opacity:0.4;isolation:isolate"></rect><rect x="362.3" y="168.49" width="3.88" height="188.9" style="fill:#fff;opacity:0.4;isolation:isolate"></rect><rect x="354.81" y="168.49" width="3.88" height="188.9" style="fill:#fff;opacity:0.4;isolation:isolate"></rect></g><rect x="348.94" y="151.27" width="26.33" height="3.85" style="fill:#407BFF"></rect><rect x="273.44" y="150.33" width="101.83" height="4.79" style="fill:#f0f0f0"></rect><rect x="271.31" y="155.13" width="107.53" height="4.79" style="fill:#407BFF"></rect><rect x="271.31" y="146.48" width="107.53" height="4.79" style="fill:#407BFF"></rect><rect x="271.31" y="155.13" width="107.53" height="4.79" style="opacity:0.1;isolation:isolate"></rect><rect x="271.31" y="146.48" width="107.53" height="4.79" style="opacity:0.1;isolation:isolate"></rect><rect x="348.94" y="155.13" width="29.9" height="4.79" style="opacity:0.2;isolation:isolate"></rect><rect x="348.94" y="146.48" width="29.9" height="4.79" style="opacity:0.2;isolation:isolate"></rect><rect x="305.45" y="131.2" width="11.54" height="11.54" style="fill:#fff;opacity:0.30000000000000004;isolation:isolate"></rect></g><g id="Tree"><path d="M189,223.72c-9.8-11.56-22.08-15.51-31.09-11.2a6.57,6.57,0,0,1-7.79-1.61c-10.9-11.81-28.57-13.21-35.9-2.07a23,23,0,0,0-2.1,4,13.33,13.33,0,0,1-4.33,5.68,13.69,13.69,0,0,0-3.33,3.55,22.37,22.37,0,0,0-3.16,13.12,3.61,3.61,0,0,1-1.82,3.43,13.15,13.15,0,0,0-5,4.6c-5.94,9-3.32,25.1,5.85,35.91,8.17,9.63,18.78,11.84,25.19,5.82a1.4,1.4,0,0,1,1.94,0c4.62,4.15,10,4.18,12.77-.32h0a1.42,1.42,0,0,1,2.27-.31c4.76,4.77,10.51,5,13.44.31a11,11,0,0,0,1.2-2.8,1.48,1.48,0,0,1,1.95-1.11c3.11,1.25,6.16.71,8.24-1.75a1.36,1.36,0,0,1,1.76-.31c10.67,6.38,21.92,5.15,28.18-4.36C205.64,261.57,202,238.94,189,223.72Z" style="fill:#407BFF"></path><path d="M189,223.72c-9.8-11.56-22.08-15.51-31.09-11.2a6.57,6.57,0,0,1-7.79-1.61c-10.9-11.81-28.57-13.21-35.9-2.07a23,23,0,0,0-2.1,4,13.33,13.33,0,0,1-4.33,5.68,13.69,13.69,0,0,0-3.33,3.55,22.37,22.37,0,0,0-3.16,13.12,3.61,3.61,0,0,1-1.82,3.43,13.15,13.15,0,0,0-5,4.6c-5.94,9-3.32,25.1,5.85,35.91,8.17,9.63,18.78,11.84,25.19,5.82a1.4,1.4,0,0,1,1.94,0c4.62,4.15,10,4.18,12.77-.32h0a1.42,1.42,0,0,1,2.27-.31c4.76,4.77,10.51,5,13.44.31a11,11,0,0,0,1.2-2.8,1.48,1.48,0,0,1,1.95-1.11c3.11,1.25,6.16.71,8.24-1.75a1.36,1.36,0,0,1,1.76-.31c10.67,6.38,21.92,5.15,28.18-4.36C205.64,261.57,202,238.94,189,223.72Z" style="fill:#fff;opacity:0.6000000000000001"></path><path d="M123.77,290.22l9.29,9.09c-.74,12.83-1.35,42.38-1.35,42.38l-3.3,20.66,29.11.28s-1.32-17.45-1.32-18.39-5.63-34.37-5.63-34.37l-2-18.72,15-4.83,2.74-8.34,11-6.58,5.39-8.73-2.08-.53-6,8.06-6.95,1.59,3-7.42h-3.31l-8.27,17.2-10.66,2.3,1.39-24.15c-8.52,4.2-11.25-2.8-11.25-2.8s-3.52,32.51-4.76,36.21l-5.49-2.91-6-9.92H119.8Z" style="fill:#407BFF"></path><rect x="79.7" y="330.56" width="1.47" height="18.9" style="fill:#407BFF"></rect><rect x="79.7" y="330.56" width="1.47" height="18.9" style="opacity:0.2"></rect><rect x="110.17" y="330.56" width="1.47" height="18.9" style="fill:#407BFF"></rect><rect x="110.17" y="330.56" width="1.47" height="18.9" style="opacity:0.2"></rect><rect x="78.09" y="347.62" width="35.22" height="2.3" style="fill:#407BFF"></rect><rect x="78.09" y="347.62" width="35.22" height="2.3" style="fill:#fff;opacity:0.2"></rect><rect x="78.96" y="349.85" width="1.47" height="12.79" style="fill:#407BFF"></rect><rect x="78.96" y="349.85" width="1.47" height="12.79" style="opacity:0.2"></rect><rect x="111.11" y="349.85" width="1.47" height="12.79" style="fill:#407BFF"></rect><rect x="111.11" y="349.85" width="1.47" height="12.79" style="opacity:0.2"></rect><rect x="78.09" y="331.41" width="35.22" height="11.12" style="fill:#407BFF"></rect><rect x="78.09" y="331.41" width="35.22" height="11.12" style="fill:#fff;opacity:0.2"></rect><rect x="78.14" y="349.46" width="35.1" height="3.58" style="fill:#407BFF"></rect><rect x="78.14" y="349.46" width="35.1" height="3.58" style="opacity:0.1"></rect><rect x="76.67" y="344.37" width="1.47" height="18.25" style="fill:#407BFF"></rect><rect x="76.15" y="342.54" width="2.56" height="2.56" style="fill:#407BFF"></rect><rect x="76.15" y="342.54" width="2.56" height="2.56" style="fill:#fff;opacity:0.2"></rect><rect x="78.7" y="342.54" width="2" height="2.56" style="fill:#407BFF"></rect><rect x="113.24" y="344.37" width="1.47" height="18.25" transform="translate(227.96 706.99) rotate(180)" style="fill:#407BFF"></rect><rect x="112.68" y="342.54" width="2.55" height="2.56" transform="translate(227.92 687.63) rotate(180)" style="fill:#407BFF"></rect><rect x="112.68" y="342.54" width="2.55" height="2.56" transform="translate(227.92 687.63) rotate(180)" style="fill:#fff;opacity:0.2"></rect><rect x="110.68" y="342.54" width="2" height="2.56" style="fill:#407BFF"></rect><rect x="78.7" y="342.54" width="2" height="2.56" style="opacity:0.1"></rect><rect x="110.68" y="342.54" width="2" height="2.56" style="opacity:0.1"></rect></g><g id="Streetlight"><rect x="76.79" y="202.95" width="1.29" height="5.64" style="fill:#263238"></rect><path d="M86.82,200.6c-8,1-20.1,3.68-29.59,8.67v1.89a78.55,78.55,0,0,1,29.65-9Z" style="fill:#407BFF"></path><path d="M100.71,203.41A6.82,6.82,0,0,0,99,202.33c-1.37-.59-9.66.65-12.5,1.1v-1.21l-.07-1.57c1.93-.2,3.66-.34,5.12-.43,2.39-.13,4.16-.21,5.47-.25A3.53,3.53,0,0,1,100.71,203.41Z" style="fill:#407BFF"></path><path d="M57.23,222.57a1,1,0,0,1-1-1c0-.51,0-1.57,5.32-6.38a22.18,22.18,0,0,1,2.38-1.91,41.81,41.81,0,0,1,16.12-6.08,1,1,0,0,1,.26,2c-.08,0-8.59,1.2-15.25,5.75a19.56,19.56,0,0,0-2.17,1.75c-3.46,3.13-4.56,4.6-4.67,5A1,1,0,0,1,57.23,222.57Z" style="fill:#263238"></path><path d="M55.9,209h2a.24.24,0,0,1,.24.24V362.71a0,0,0,0,1,0,0h-2.5a0,0,0,0,1,0,0V209.22A.24.24,0,0,1,55.9,209Z" style="fill:#263238"></path><path d="M100.72,203.52v.08l-11.61,1.09-2.58-1.09v-.17c2.84-.45,11.13-1.69,12.5-1.1a6.82,6.82,0,0,1,1.68,1.08A.37.37,0,0,1,100.72,203.52Z" style="fill:#407BFF"></path><path d="M100.72,203.52v.08l-11.61,1.09-2.58-1.09v-.17c2.84-.45,11.13-1.69,12.5-1.1a6.82,6.82,0,0,1,1.68,1.08A.37.37,0,0,1,100.72,203.52Z" style="fill:#fff;opacity:0.6000000000000001"></path></g><g id="street-sign"><g id="street-sign"><path d="M396.94,274.78h2.59a.31.31,0,0,1,.31.31v95.39a0,0,0,0,1,0,0h-3.21a0,0,0,0,1,0,0V275.09A.31.31,0,0,1,396.94,274.78Z" style="fill:#263238"></path><rect x="379.31" y="277.37" width="37.73" height="12.79" rx="3.54" style="fill:#407BFF"></rect><rect x="379.31" y="277.37" width="37.73" height="12.79" rx="3.54" style="fill:#fff;opacity:0.9"></rect><rect x="380.45" y="278.32" width="35.63" height="10.72" rx="3.54" style="fill:#407BFF"></rect><path d="M408.3,284.84l.18-.39a1.54,1.54,0,0,0,.9.3c.42,0,.6-.16.6-.36,0-.58-1.62-.2-1.62-1.21,0-.44.35-.81,1.1-.81a1.69,1.69,0,0,1,.91.24l-.16.39a1.58,1.58,0,0,0-.75-.21c-.42,0-.59.16-.59.37,0,.57,1.61.2,1.61,1.2,0,.43-.35.81-1.1.81A1.74,1.74,0,0,1,408.3,284.84Z" style="fill:#fff"></path><path d="M411.5,282.83h-.9v-.43h2.31v.43H412v2.3h-.51Z" style="fill:#fff"></path></g></g><g id="Street"><rect x="38.37" y="361.71" width="420.16" height="10.56" style="fill:#407BFF"></rect><g style="opacity:0.7000000000000001"><rect x="38.37" y="361.71" width="420.16" height="10.56" style="fill:#fff"></rect></g><rect x="60.03" y="361.71" width="1" height="11.31" style="fill:#fff"></rect><rect x="154.01" y="361.71" width="1" height="11.31" style="fill:#fff"></rect><rect x="247.99" y="361.71" width="1" height="11.31" style="fill:#fff"></rect><rect x="341.97" y="361.71" width="1" height="11.31" style="fill:#fff"></rect><rect x="435.95" y="361.71" width="1" height="11.31" style="fill:#fff"></rect><rect x="38.37" y="376.41" width="420.16" height="4.9" style="fill:#407BFF"></rect><rect x="38.37" y="376.41" width="420.16" height="4.9" style="fill:#fff;opacity:0.9"></rect></g><g id="Leaves"><path d="M201.6,413.59l-.28,0c-2,1.67-5.32,2.75-8.39,3.23-3.53.56-7,.54-10.51,1.07a23.05,23.05,0,0,0-6.12,1.73,10.94,10.94,0,0,0-1.27,1.17c-.71.77-.83,1.59.75,2.05A23.06,23.06,0,0,0,201.6,413.59Z" style="fill:#263238"></path><path d="M177.36,422.11l-5.31,1.8c-1.43.21-1.55-.63-.56-1C173.37,422.84,177,421.55,177.36,422.11Z" style="fill:#263238"></path><g style="opacity:0.8"><path d="M201.6,413.59l-.28,0c-2,1.67-5.32,2.75-8.39,3.23-3.53.56-7,.54-10.51,1.07a23.05,23.05,0,0,0-6.12,1.73,10.94,10.94,0,0,0-1.27,1.17c-.71.77-.83,1.59.75,2.05A23.06,23.06,0,0,0,201.6,413.59Z" style="fill:#fff"></path><path d="M177.36,422.11l-5.31,1.8c-1.43.21-1.55-.63-.56-1C173.37,422.84,177,421.55,177.36,422.11Z" style="fill:#fff"></path></g><path d="M199.64,409.53c0,.22-.12.46-.21.73s-.09.28-.14.42c-.1.3-.22.61-.35.95l-.23.53c-.09.22-.18.43-.29.65s-.21.45-.33.68-.23.46-.36.7-.24.44-.37.66-.3.52-.47.78l-.47.73c-.17.25-.34.49-.52.73s-.36.48-.55.72-.39.49-.6.72-.4.45-.61.67-.44.45-.67.66a2.8,2.8,0,0,0-.7-.39,2.4,2.4,0,0,0-3.21,1,2,2,0,0,0,.33,1.93,11.71,11.71,0,0,1-1.35.59l-.39.13-.44.14a4.77,4.77,0,0,1-.65.17,4.1,4.1,0,0,1-.48.1,6,6,0,0,1-.72.13l-.82.08q-.43,0-.9,0a14.78,14.78,0,0,1-3.39-.41,18.55,18.55,0,0,1-1.83-.54,23.34,23.34,0,0,1-3.26-1.46c-.45-.24-.9-.5-1.37-.79a2.54,2.54,0,0,1-1.15-3.64,10.91,10.91,0,0,1,1.11-1.76,13.45,13.45,0,0,1,6.09-1.84c3.6-.27,7.22.4,10.81.09,3.12-.27,6.43-1.5,8.2-4Z" style="fill:#407BFF"></path><path d="M175.81,419.68l-5.23,2.1c-1.46.11-1.73-1.35-.76-1.78C171.77,420.2,175.29,418.65,175.81,419.68Z" style="fill:#407BFF"></path><path d="M199.64,409.53c0,.22-.12.46-.21.73s-.09.28-.14.42c-.1.3-.22.61-.35.95l-.23.53c-.09.22-.18.43-.29.65s-.21.45-.33.68-.23.46-.36.7-.24.44-.37.66-.3.52-.47.78l-.47.73c-.17.25-.34.49-.52.73s-.36.48-.55.72-.39.49-.6.72-.4.45-.61.67-.44.45-.67.66a2.8,2.8,0,0,0-.7-.39,2.4,2.4,0,0,0-3.21,1,2,2,0,0,0,.33,1.93,11.71,11.71,0,0,1-1.35.59l-.39.13-.44.14a4.77,4.77,0,0,1-.65.17,4.1,4.1,0,0,1-.48.1,6,6,0,0,1-.72.13l-.82.08q-.43,0-.9,0a14.78,14.78,0,0,1-3.39-.41,17.08,17.08,0,0,1-1.83-.54,21.22,21.22,0,0,1-3.26-1.46c-.45-.24-.9-.5-1.37-.79a2.54,2.54,0,0,1-1.15-3.64,10.91,10.91,0,0,1,1.11-1.76,13.45,13.45,0,0,1,6.09-1.84c3.6-.27,7.22.4,10.81.09,3.12-.27,6.43-1.5,8.2-4Z" style="fill:#fff;opacity:0.2"></path><path d="M300,413.81l.16-.07a11.58,11.58,0,0,0,5.69.61c2.26-.23,4.38-.81,6.63-1.07a14.81,14.81,0,0,1,4.05.06,7.42,7.42,0,0,1,1,.51c.56.36.77.85-.12,1.38A14.64,14.64,0,0,1,300,413.81Z" style="fill:#263238"></path><path d="M316.27,415.07l3.56.23c.91-.1.85-.64.18-.7C318.84,414.86,316.43,414.65,316.27,415.07Z" style="fill:#263238"></path><g style="opacity:0.8"><path d="M300,413.81l.16-.07a11.58,11.58,0,0,0,5.69.61c2.26-.23,4.38-.81,6.63-1.07a14.81,14.81,0,0,1,4.05.06,7.42,7.42,0,0,1,1,.51c.56.36.77.85-.12,1.38A14.64,14.64,0,0,1,300,413.81Z" style="fill:#fff"></path><path d="M316.27,415.07l3.56.23c.91-.1.85-.64.18-.7C318.84,414.86,316.43,414.65,316.27,415.07Z" style="fill:#fff"></path></g><path d="M301,409.82l.17-.09a7.1,7.1,0,0,0,5.51,1.81c2.29-.12,4.52-.86,6.81-1a8.52,8.52,0,0,1,4,.63,7.69,7.69,0,0,1,.85,1,1.63,1.63,0,0,1-.41,2.4C308.45,422.38,302.11,412.53,301,409.82Z" style="fill:#407BFF"></path><path d="M316.91,414.13l3.48.87c.93-.06,1-1,.32-1.19C319.5,414.1,317.15,413.44,316.91,414.13Z" style="fill:#407BFF"></path><path d="M301,409.82l.17-.09a7.1,7.1,0,0,0,5.51,1.81c2.29-.12,4.52-.86,6.81-1a8.52,8.52,0,0,1,4,.63,7.69,7.69,0,0,1,.85,1,1.63,1.63,0,0,1-.41,2.4C308.45,422.38,302.11,412.53,301,409.82Z" style="fill:#fff;opacity:0.2"></path><path d="M240.91,411.61l-.16-.07a11.38,11.38,0,0,1-5.67.41c-2.24-.31-4.32-1-6.56-1.29a15.07,15.07,0,0,0-4-.08,8,8,0,0,0-1,.47c-.57.34-.8.81.07,1.38A14.56,14.56,0,0,0,240.91,411.61Z" style="fill:#263238"></path><path d="M224.68,412.3l-3.55.11c-.9-.14-.82-.67-.15-.7C222.13,412,224.54,411.89,224.68,412.3Z" style="fill:#263238"></path><g style="opacity:0.8"><path d="M240.91,411.61l-.16-.07a11.38,11.38,0,0,1-5.67.41c-2.24-.31-4.32-1-6.56-1.29a15.07,15.07,0,0,0-4-.08,8,8,0,0,0-1,.47c-.57.34-.8.81.07,1.38A14.56,14.56,0,0,0,240.91,411.61Z" style="fill:#fff"></path><path d="M224.68,412.3l-3.55.11c-.9-.14-.82-.67-.15-.7C222.13,412,224.54,411.89,224.68,412.3Z" style="fill:#fff"></path></g><path d="M240.47,408.8a.74.74,0,0,0-.16-.12,7.07,7.07,0,0,1-5.69.91c-2.23-.47-4.3-1.55-6.52-2a8.58,8.58,0,0,0-4,0,8,8,0,0,0-1,.86,1.62,1.62,0,0,0,0,2.42C231.2,420,239,411.29,240.47,408.8Z" style="fill:#407BFF"></path><path d="M224.19,410.54l-3.55.31c-.9-.2-.8-1.14-.13-1.21C221.65,410.11,224.06,409.82,224.19,410.54Z" style="fill:#407BFF"></path><path d="M240.47,408.8a.74.74,0,0,0-.16-.12,7.07,7.07,0,0,1-5.69.91c-2.23-.47-4.3-1.55-6.52-2a8.58,8.58,0,0,0-4,0,8,8,0,0,0-1,.86,1.62,1.62,0,0,0,0,2.42C231.2,420,239,411.29,240.47,408.8Z" style="fill:#fff;opacity:0.2"></path><path d="M354.1,421.16l.13,0a9.15,9.15,0,0,1,4.34-1c1.77,0,3.47.21,5.24.19a11.52,11.52,0,0,0,3.12-.43,5.13,5.13,0,0,0,.7-.49c.4-.33.52-.72-.22-1.06A11.42,11.42,0,0,0,354.1,421.16Z" style="fill:#263238"></path><path d="M366.58,418.63l2.73-.52c.72,0,.72.41.21.52C368.59,418.54,366.74,418.93,366.58,418.63Z" style="fill:#263238"></path><g style="opacity:0.8"><path d="M354.1,421.16l.13,0a9.15,9.15,0,0,1,4.34-1c1.77,0,3.47.21,5.24.19a11.52,11.52,0,0,0,3.12-.43,5.13,5.13,0,0,0,.7-.49c.4-.33.52-.72-.22-1.06A11.42,11.42,0,0,0,354.1,421.16Z" style="fill:#fff"></path><path d="M366.58,418.63l2.73-.52c.72,0,.72.41.21.52C368.59,418.54,366.74,418.93,366.58,418.63Z" style="fill:#fff"></path></g><path d="M354.05,420.84l.14.07a5.5,5.5,0,0,1,4.29-1.41c1.79.1,3.52.67,5.3.79a6.73,6.73,0,0,0,3.12-.49,6.49,6.49,0,0,0,.67-.79,1.27,1.27,0,0,0-.32-1.87C359.85,411.05,354.9,418.72,354.05,420.84Z" style="fill:#407BFF"></path><path d="M366.44,417.48l2.71-.67c.72,0,.76.78.25.92C368.46,417.5,366.62,418,366.44,417.48Z" style="fill:#407BFF"></path><path d="M354.05,420.84l.14.07a5.5,5.5,0,0,1,4.29-1.41c1.79.1,3.52.67,5.3.79a6.73,6.73,0,0,0,3.12-.49,6.49,6.49,0,0,0,.67-.79,1.27,1.27,0,0,0-.32-1.87C359.85,411.05,354.9,418.72,354.05,420.84Z" style="fill:#fff;opacity:0.2"></path><path d="M148.05,416.79l-.19,0a12,12,0,0,0-5.45-2.36c-2.31-.47-4.59-.54-6.91-1a15.3,15.3,0,0,1-4-1.3,7.74,7.74,0,0,1-.81-.81c-.44-.53-.5-1.07.55-1.33A15.22,15.22,0,0,1,148.05,416.79Z" style="fill:#263238"></path><path d="M132.27,410.52l-3.45-1.32c-.94-.18-1,.37-.39.63C129.66,409.94,132,410.88,132.27,410.52Z" style="fill:#263238"></path><g style="opacity:0.8"><path d="M148.05,416.79l-.19,0a12,12,0,0,0-5.45-2.36c-2.31-.47-4.59-.54-6.91-1a15.3,15.3,0,0,1-4-1.3,7.74,7.74,0,0,1-.81-.81c-.44-.53-.5-1.07.55-1.33A15.22,15.22,0,0,1,148.05,416.79Z" style="fill:#fff"></path><path d="M132.27,410.52l-3.45-1.32c-.94-.18-1,.37-.39.63C129.66,409.94,132,410.88,132.27,410.52Z" style="fill:#fff"></path></g><path d="M148.19,416.39l-.2.05a7.38,7.38,0,0,0-5.3-2.85c-2.36-.3-4.77,0-7.14-.23a8.94,8.94,0,0,1-4-1.38,6.93,6.93,0,0,1-.68-1.19,1.68,1.68,0,0,1,.85-2.37C142.9,402.18,147.58,413.41,148.19,416.39Z" style="fill:#407BFF"></path><path d="M132.74,409.05l-3.4-1.52c-1-.11-1.18.84-.55,1.15C130.08,408.61,132.36,409.72,132.74,409.05Z" style="fill:#407BFF"></path><path d="M148.19,416.39l-.2.05a7.38,7.38,0,0,0-5.3-2.85c-2.36-.3-4.77,0-7.14-.23a8.94,8.94,0,0,1-4-1.38,6.93,6.93,0,0,1-.68-1.19,1.68,1.68,0,0,1,.85-2.37C142.9,402.18,147.58,413.41,148.19,416.39Z" style="fill:#fff;opacity:0.2"></path></g></svg>