<svg xmlns="http://www.w3.org/2000/svg" viewBox="0 0 500 500"><g id="background-complete"><path d="M61,223.44S46,213,39.08,214.88s-15.75,11.58-15.75,11.58,17.49-5,22.77-4S61,223.44,61,223.44Z" style="fill:#ebebeb"></path><path d="M66,227.23c-2.18,4.94-6,9.07-8.07,14a23.72,23.72,0,0,0-.1,18c4-4.18,6.37-9.7,7.65-15.34s1.49-10.27,1.75-16Z" style="fill:#ebebeb"></path><path d="M63.72,225.93c.69-2-16.31-1.14-21.72,5.42S31.17,245,35.73,261.55c0,0,10.26-17.91,10.26-17.65S62.36,229.92,63.72,225.93Z" style="fill:#ebebeb"></path><path d="M63.85,225.73c-1.57.61,13.86,5.31,21,5.88s11.43-1.8,11.43-1.8S85.92,217.17,63.85,225.73Z" style="fill:#ebebeb"></path><path d="M141.83,290.76s7.43-3,9.52-.93S162,303.3,170.16,304c0,0-7.43-15.79-14.16-18.35C151.57,284,141.83,290.76,141.83,290.76Z" style="fill:#ebebeb"></path><path d="M143.74,289.91s-.3-5.58-3.09-8.51-12.92-4.95-12.92-4.95,3.64,5.85,7.38,8.69A41.82,41.82,0,0,0,143.74,289.91Z" style="fill:#ebebeb"></path><path d="M143.73,289.59s-5.17-.08-8.83,6.39-5.65,14.6-5.34,14.06,9.76-4.68,12.25-9.92A21.91,21.91,0,0,0,143.73,289.59Z" style="fill:#ebebeb"></path><path d="M144.91,289.59s.93,12.32,3,14.41,5.11,9.75,5.11,9.75,4.64-11.14,2.09-16.49S144.91,289.59,144.91,289.59Z" style="fill:#ebebeb"></path><path d="M99.77,313.38c-.6.89-12.52,10.13-14.31,14.61s-.3,11.32,0,13.41S96.19,338.72,98,330.67A92.85,92.85,0,0,0,99.77,313.38Z" style="fill:#ebebeb"></path><path d="M102.09,306.46c0,1.49.18,16.09,4,21.19s11,10.51,11,10.51,2.52-18.46-2.8-24.16A28.82,28.82,0,0,0,102.09,306.46Z" style="fill:#ebebeb"></path><path d="M100.34,309c-.87-.2-11.66-1.22-16.78,4.92a56.89,56.89,0,0,0-8,13.12s16.3-8.09,19.29-11.67S100.34,309,100.34,309Z" style="fill:#ebebeb"></path><path d="M107.75,302.29a8.48,8.48,0,0,1,9.24-.24c4.85,3,12.9,14.74,12.9,14.74s-9.85-.65-15-5.58A34.5,34.5,0,0,1,107.75,302.29Z" style="fill:#ebebeb"></path><path d="M100.75,304.09s-6.26-5.32-11-6.5-18.78,2.31-18.78,2.31a25.05,25.05,0,0,0,16.24,4.19C96.87,303.26,100.75,304.09,100.75,304.09Z" style="fill:#ebebeb"></path><path d="M80,358.22s-4.47,8.65,0,13.41,6.88,14.31,6.88,14.31,7.73-7.45,3.85-15.8A27.07,27.07,0,0,0,80,358.22Z" style="fill:#ebebeb"></path><path d="M72.82,358.41c-1.2.59-8.94,11-9.54,18.48s-1.19,20.27,0,19.37,9.84-8.94,12.22-16.69S72.82,358.41,72.82,358.41Z" style="fill:#ebebeb"></path><path d="M69.9,357.59c-1.19.3-12.52-1.79-18.78,6.26s-11,19.67-11,19.67,16.39-8.38,20.26-13S69.9,357.59,69.9,357.59Z" style="fill:#ebebeb"></path><path d="M133.87,343.29s-3.4,10.13,0,19.07a87,87,0,0,0,7.28,14.9s5-17.88,1.78-22.65S133.87,343.29,133.87,343.29Z" style="fill:#ebebeb"></path><path d="M135.74,342.21c1.2,1.12,15.18,21.18,24.68,23s1.49-.75,1.49-.75-3-13.53-7.25-19.13S135.74,342.21,135.74,342.21Z" style="fill:#ebebeb"></path><path d="M133.61,341.86s10.32-7.16,14.35-9,17.37.57,17.37.57-16.2,8.44-20.1,7.54-11.62,2.56-11.62,2.56" style="fill:#ebebeb"></path><path d="M169.47,244.27s-8.94,9.48-7.76,16.88a87.49,87.49,0,0,0,3.83,14.5l3.93-13Z" style="fill:#ebebeb"></path><path d="M170.68,242.38s-2.07,14.5,2.07,20.42,9.77,17.17,10.36,16.28,9.18-8.58,3-19.53A56.15,56.15,0,0,0,170.68,242.38Z" style="fill:#ebebeb"></path><path d="M167.68,245s-14.28-4.15-16.33,2.66l-3.83,12.73A55.82,55.82,0,0,1,157.6,252,105,105,0,0,0,167.68,245Z" style="fill:#ebebeb"></path><path d="M103.64,248.79s.43-.39,1.16-1C108.17,244.9,118,237,123,238.19a105,105,0,0,1,14.4,5.24S115.82,254.64,103.64,248.79Z" style="fill:#ebebeb"></path><path d="M106.53,248.89c0-1.08-6.49-2.82-12.22,3.1s-6.62,9.56-6.62,9.56S106.13,259.1,106.53,248.89Z" style="fill:#ebebeb"></path><path d="M105.51,250.08S99,257.63,104,265s9.39,14.5,9.39,14.5a24,24,0,0,0,0-14.73A52.76,52.76,0,0,0,105.51,250.08Z" style="fill:#ebebeb"></path><path d="M130.05,268.87c-.3-1.8,2.09-16.59-17.47-15.12h-1.79s9.36,15.09,11.49,19.83a20.51,20.51,0,0,0,6.06,8.28C130.64,283.94,130.34,270.67,130.05,268.87Z" style="fill:#ebebeb"></path><path d="M133.83,342.67a17,17,0,0,0-4.64-12.62c-.3-.31-.73-.64-1.12-.46a1,1,0,0,0-.48.7,10.82,10.82,0,0,0,1.09,8.12,27.08,27.08,0,0,0,5.29,6.5" style="fill:#ebebeb"></path><path d="M78.73,356.3a33.31,33.31,0,0,0-15.85-14.49,2.21,2.21,0,0,0-1.32-.27,1.75,1.75,0,0,0-1.21,1.58,5.74,5.74,0,0,0,1.52,3.95,27.77,27.77,0,0,0,17.6,10.53" style="fill:#ebebeb"></path><path d="M157.07,334.48c0,.06-1,.06-2.8.28a31.43,31.43,0,0,0-7.38,1.9,42.34,42.34,0,0,0-9.84,5.55,102.41,102.41,0,0,0-10.4,9.23c-7.1,6.91-13.36,13.32-17.7,18.15-2.18,2.4-3.9,4.39-5.08,5.76l-1.38,1.58c-.32.36-.49.54-.51.52a3.16,3.16,0,0,1,.4-.61c.29-.39.71-.95,1.27-1.66,1.12-1.43,2.79-3.47,4.92-5.92,4.25-4.92,10.47-11.42,17.58-18.33a97.35,97.35,0,0,1,10.52-9.25,41.31,41.31,0,0,1,10.05-5.49,28.78,28.78,0,0,1,7.52-1.7,19,19,0,0,1,2.1-.07A2.78,2.78,0,0,1,157.07,334.48Z" style="fill:#e0e0e0"></path><path d="M101.6,373.16c-.12.08-1.28-1.94-3.82-4.64a32.36,32.36,0,0,0-26-10.22c-3.71.26-5.93.95-6,.81a6.07,6.07,0,0,1,1.54-.52,27.85,27.85,0,0,1,4.37-.79,31.08,31.08,0,0,1,26.42,10.38,26.62,26.62,0,0,1,2.68,3.55A6.33,6.33,0,0,1,101.6,373.16Z" style="fill:#e0e0e0"></path><path d="M105.44,248.68a2,2,0,0,1,0,.43c0,.32-.06.73-.11,1.24-.11,1.14-.27,2.74-.47,4.78-.42,4.14-1,10.14-1.69,17.56-1.32,14.83-2.87,35.37-2.84,58.1s1.67,43.27,2.82,58.12c.6,7.39,1.09,13.38,1.43,17.58.16,2,.29,3.64.37,4.79,0,.51.06.92.08,1.24a1.19,1.19,0,0,1,0,.43,2.78,2.78,0,0,1-.07-.42c0-.32-.09-.73-.15-1.24-.12-1.14-.29-2.74-.5-4.77-.42-4.15-1-10.15-1.66-17.57-1.28-14.84-3-35.39-3-58.16s1.6-43.32,3-58.15c.73-7.41,1.41-13.41,1.91-17.54.26-2,.47-3.63.61-4.76.07-.52.13-.92.18-1.24A2,2,0,0,1,105.44,248.68Z" style="fill:#e0e0e0"></path><path d="M150,288.69a11.56,11.56,0,0,1-2.08.31c-1.35.15-3.28.41-5.66.79a105.12,105.12,0,0,0-35.36,12.38c-2.1,1.19-3.77,2.19-4.91,2.92a13.3,13.3,0,0,1-1.82,1.05,11.52,11.52,0,0,1,1.67-1.28c1.09-.8,2.73-1.87,4.81-3.12a94.17,94.17,0,0,1,35.53-12.45c2.41-.32,4.36-.5,5.71-.56A12.13,12.13,0,0,1,150,288.69Z" style="fill:#e0e0e0"></path><path d="M101.76,282.08a3,3,0,0,1-.19-.79c-.11-.6-.24-1.36-.4-2.3a34,34,0,0,0-.72-3.6c-.36-1.39-.63-3-1.23-4.71-.28-.86-.56-1.76-.86-2.7s-.72-1.87-1.09-2.86c-.72-2-1.76-4-2.79-6.17A80.69,80.69,0,0,0,86,246a100.73,100.73,0,0,0-20.83-18.87c-1.46-1.07-2.88-1.88-4.08-2.68s-2.26-1.42-3.13-1.93l-2-1.21a4.44,4.44,0,0,1-.68-.47,3.73,3.73,0,0,1,.75.34l2.06,1.1c.89.47,2,1.06,3.2,1.83s2.66,1.56,4.15,2.61a95.37,95.37,0,0,1,21.1,18.83,79.24,79.24,0,0,1,8.54,13.08c1,2.17,2,4.22,2.75,6.24.36,1,.79,2,1.06,2.9s.56,1.86.82,2.74c.57,1.72.81,3.36,1.14,4.76a28,28,0,0,1,.6,3.65l.27,2.32A4.48,4.48,0,0,1,101.76,282.08Z" style="fill:#e0e0e0"></path><path d="M171.7,243.59a3.14,3.14,0,0,1-.74.34l-2.19.82c-1.91.69-4.66,1.74-8,3.09a230.1,230.1,0,0,0-49.53,27.26c-2.95,2.12-5.3,3.88-6.9,5.12l-1.87,1.41a3.25,3.25,0,0,1-.68.45,3.38,3.38,0,0,1,.59-.56l1.78-1.51c1.56-1.32,3.87-3.14,6.78-5.32a207,207,0,0,1,49.65-27.32c3.4-1.3,6.18-2.27,8.12-2.88l2.23-.7A4.24,4.24,0,0,1,171.7,243.59Z" style="fill:#e0e0e0"></path><polygon points="124.58 463.32 83.71 463.21 73.2 413.27 132.67 413.6 124.58 463.32" style="fill:#e0e0e0"></polygon><rect x="67.75" y="411.04" width="71.61" height="8.25" rx="3.03" style="fill:#e0e0e0"></rect><path d="M132.67,419.31c0,.15-13.55.28-30.26.28s-30.27-.13-30.27-.28,13.55-.28,30.27-.28S132.67,419.16,132.67,419.31Z" style="fill:#ebebeb"></path><path d="M421.09,286,391.5,257.14a5.38,5.38,0,0,1,.18-7.59l42.94-44a5.36,5.36,0,0,1,7.58-.36L461,223.51l-1.17,30.26-31.13,31.89A5.36,5.36,0,0,1,421.09,286Z" style="fill:#ebebeb"></path><path d="M461,223.51l-12.09,12.38a5,5,0,0,0-.16,7.06l11.08,10.82Z" style="fill:#f5f5f5"></path><path d="M448,237.13a5.73,5.73,0,0,0-.86,7,4.08,4.08,0,0,0,.28.44c1.17,1.69,8.92,12.81,9.15,12.58l3.25-3.33L448.72,243S446.05,240.15,448,237.13Z" style="fill:#e0e0e0"></path><path d="M446.9,233c-.16.15-3.35-2.71-7.13-6.4s-6.72-6.81-6.56-7,3.34,2.7,7.12,6.39S447.05,232.81,446.9,233Z" style="fill:#e0e0e0"></path><path d="M448.9,248.59c-.15.16-5.32-4.63-11.54-10.7s-11.14-11.12-11-11.28,5.32,4.63,11.54,10.7S449.06,248.44,448.9,248.59Z" style="fill:#e0e0e0"></path><path d="M445.23,256.42c-.16.16-5.78-5.08-12.56-11.69s-12.16-12.12-12-12.28,5.78,5.08,12.56,11.7S445.38,256.26,445.23,256.42Z" style="fill:#e0e0e0"></path><path d="M439.85,261.94c-.16.16-5.78-5.08-12.56-11.7s-12.16-12.11-12-12.27,5.77,5.07,12.56,11.69S440,261.78,439.85,261.94Z" style="fill:#e0e0e0"></path><path d="M434.46,267.45c-.15.16-5.78-5.08-12.56-11.69s-12.15-12.12-12-12.28,5.78,5.08,12.56,11.7S434.62,267.29,434.46,267.45Z" style="fill:#e0e0e0"></path><path d="M429.08,273c-.16.16-5.78-5.08-12.56-11.7s-12.15-12.11-12-12.27,5.78,5.07,12.56,11.69S429.23,272.81,429.08,273Z" style="fill:#e0e0e0"></path><path d="M352.87,169l-30.23,15.26a4.41,4.41,0,0,1-5.83-2.15l-22.69-44.94a4.39,4.39,0,0,1,1.73-6L315,121.48l23.14,8.93L354.6,163A4.41,4.41,0,0,1,352.87,169Z" style="fill:#ebebeb"></path><path d="M315,121.48l6.39,12.64a4.1,4.1,0,0,0,5.43,2l11.32-5.72Z" style="fill:#f5f5f5"></path><path d="M322.12,135.16a4.69,4.69,0,0,0,5.16,2.5,2.71,2.71,0,0,0,.41-.09c1.63-.47,12.29-3.52,12.17-3.76l-1.71-3.4-11.32,5.72S324,137.45,322.12,135.16Z" style="fill:#e0e0e0"></path><path d="M318.61,134.89c.08.16-3,1.87-6.85,3.82s-7.05,3.4-7.14,3.24,3-1.88,6.85-3.83S318.52,134.72,318.61,134.89Z" style="fill:#e0e0e0"></path><path d="M331.25,137.48c.08.16-5,2.89-11.36,6.1s-11.57,5.68-11.65,5.52,5-2.9,11.35-6.11S331.17,137.32,331.25,137.48Z" style="fill:#e0e0e0"></path><path d="M336.34,142.4c.08.16-5.47,3.13-12.4,6.63s-12.61,6.2-12.69,6,5.47-3.13,12.4-6.63S336.25,142.24,336.34,142.4Z" style="fill:#e0e0e0"></path><path d="M339.18,148c.08.16-5.47,3.13-12.39,6.62s-12.61,6.21-12.69,6,5.46-3.13,12.39-6.62S339.1,147.87,339.18,148Z" style="fill:#e0e0e0"></path><path d="M342,153.67c.08.16-5.47,3.13-12.4,6.63s-12.61,6.2-12.69,6,5.47-3.13,12.4-6.63S341.94,153.51,342,153.67Z" style="fill:#e0e0e0"></path><path d="M344.87,159.3c.08.17-5.47,3.13-12.39,6.63s-12.61,6.2-12.69,6,5.46-3.13,12.39-6.63S344.79,159.14,344.87,159.3Z" style="fill:#e0e0e0"></path><rect x="78.16" y="31.88" width="106.34" height="110.85" style="fill:#e0e0e0"></rect><rect x="70.96" y="31.88" width="106.34" height="110.85" style="fill:#ebebeb"></rect><rect x="85.25" y="46.78" width="77.75" height="81.05" style="fill:#fafafa"></rect><path d="M85.25,128.37a14,14,0,0,1-1.94,2.2c-1.25,1.3-3,3.07-5,5s-3.75,3.65-5.07,4.87a14.54,14.54,0,0,1-2.22,1.9A13.76,13.76,0,0,1,73,140.15c1.25-1.31,3-3.08,5-5s3.76-3.66,5.08-4.88A13.61,13.61,0,0,1,85.25,128.37Z" style="fill:#e0e0e0"></path><path d="M163,128.17a14.68,14.68,0,0,1,2.2,1.94c1.3,1.25,3.07,3,5,4.95s3.65,3.75,4.87,5.07a14.54,14.54,0,0,1,1.9,2.22,13.76,13.76,0,0,1-2.19-1.93c-1.31-1.25-3.08-3-5-5s-3.66-3.76-4.88-5.08A13.61,13.61,0,0,1,163,128.17Z" style="fill:#e0e0e0"></path><path d="M162.79,47a15.21,15.21,0,0,1,2-2.2c1.24-1.3,3-3.07,4.95-5s3.75-3.65,5.07-4.87A14,14,0,0,1,177,33a13.76,13.76,0,0,1-1.93,2.19c-1.25,1.31-3,3.08-5,5s-3.75,3.66-5.07,4.88A12.9,12.9,0,0,1,162.79,47Z" style="fill:#e0e0e0"></path><path d="M85,47.19a14.68,14.68,0,0,1-2.2-1.94c-1.3-1.25-3.07-3-5-5S74.19,36.55,73,35.23A13.94,13.94,0,0,1,71.07,33a15.62,15.62,0,0,1,2.19,1.94c1.3,1.25,3.08,3,5,5s3.66,3.76,4.88,5.08A14.3,14.3,0,0,1,85,47.19Z" style="fill:#e0e0e0"></path><path d="M162.79,127.83s0-.14,0-.39,0-.65,0-1.13c0-1,0-2.47,0-4.37,0-3.84,0-9.42-.07-16.52,0-14.19-.08-34.42-.13-58.64l.25.25-77.53,0h0l.3-.29c0,29.75,0,57.58,0,81.05l-.26-.25,56.16.12,15.77.07,4.17,0h1.07l.37,0h-.34l-1,0-4.12,0-15.71.07-56.32.13H85v-.25c0-23.47,0-51.3,0-81v-.29h.3l77.53,0h.26v.26c-.06,24.29-.1,44.57-.13,58.81,0,7.07,0,12.63-.07,16.45,0,1.88,0,3.33,0,4.32,0,.48,0,.84,0,1.1S162.79,127.83,162.79,127.83Z" style="fill:#e0e0e0"></path><path d="M105.77,80.64s-1.66,20.06,20.07,20.06C125.84,90,117,81.54,105.77,80.64Z" style="fill:#ebebeb"></path><path d="M145.54,80.65S125.47,79,125.47,100.72C136.18,100.72,144.64,91.88,145.54,80.65Z" style="fill:#ebebeb"></path><path d="M124.88,69.67s-16.4,14.72.9,31C133.82,92.18,133.14,78.82,124.88,69.67Z" style="fill:#e0e0e0"></path><path d="M417.55,380.72c4.43-2.29,9.65-2.59,14.57-1.77,2.64.43,5.4,1.23,7.2,3.21s2.14,5.48.07,7.19a6.91,6.91,0,0,1-4.54,1.15c-3.85-.05-8.12-.72-11.2,1.59-1.76,1.33-2.92,3.53-5,4.18a5,5,0,0,1-5.47-2.43,8.52,8.52,0,0,1-.61-6.26A9.54,9.54,0,0,1,417.55,380.72Z" style="fill:#ebebeb"></path><path d="M407.39,361.11c2.71,3.87,8,2.59,10.42.23s3.48-5.79,4.42-9c2.14-7.47,4.31-15.29,2.71-22.89a12.6,12.6,0,0,0-2.92-6.22,6.65,6.65,0,0,0-6.3-2.1c-2.65.7-4.3,3.3-5.5,5.78a54.69,54.69,0,0,0-5.39,23.41c0,3.77.43,7.73,2.56,10.84" style="fill:#ebebeb"></path><path d="M400,366.67c2.94-3.49,3.5-8.59,2.19-13s-4.27-8.1-7.68-11.14a41.12,41.12,0,0,0-13.75-8.11,14.61,14.61,0,0,0-6.18-1,6.48,6.48,0,0,0-5.19,3.14c-1.44,2.76-.06,6.1,1.44,8.83a105.42,105.42,0,0,0,9,13.75c2.71,3.49,5.81,6.94,9.94,8.51s8.4,1.39,10.59-1.47" style="fill:#ebebeb"></path><path d="M407.21,419.51a8.58,8.58,0,0,0,.24-1.76c.13-1.28.28-2.89.47-4.8a68.72,68.72,0,0,1,1.08-7,55,55,0,0,1,2.56-8.31,30.46,30.46,0,0,1,4.24-7.52,15.94,15.94,0,0,1,5.37-4.46,14.84,14.84,0,0,1,4.52-1.41,8.19,8.19,0,0,0,1.75-.25,8.17,8.17,0,0,0-1.78,0,13.75,13.75,0,0,0-4.71,1.23,15.68,15.68,0,0,0-5.66,4.5,29.33,29.33,0,0,0-4.4,7.67,50,50,0,0,0-2.54,8.44,58.58,58.58,0,0,0-.94,7.13c-.15,2-.21,3.69-.24,4.83A8.48,8.48,0,0,0,407.21,419.51Z" style="fill:#e0e0e0"></path><path d="M407.54,415.82a4.1,4.1,0,0,0,0-.82c0-.61,0-1.39,0-2.33,0-2,0-5,.1-8.58.18-7.24.81-15,2-26,1.14-10.33,2.67-22.35,4.29-30.16.34-1.78.69-3.38,1-4.78s.58-2.61.84-3.59l.54-2.27a3.9,3.9,0,0,0,.15-.81,3,3,0,0,0-.29.77c-.18.59-.4,1.33-.68,2.24s-.6,2.17-1,3.57-.75,3-1.13,4.76a265.62,265.62,0,0,0-4.5,28c-1.21,11-1.75,21-1.8,28.29,0,3.63,0,6.57.13,8.59.06.95.1,1.72.14,2.34A3.11,3.11,0,0,0,407.54,415.82Z" style="fill:#e0e0e0"></path><path d="M407.59,396.49a15.75,15.75,0,0,0,0-2.44,65.4,65.4,0,0,0-.75-6.61,86.47,86.47,0,0,0-2.14-9.62,79.77,79.77,0,0,0-4-11.39A60.64,60.64,0,0,0,388.83,348a30.05,30.05,0,0,0-2.78-2.58c-.43-.36-.8-.72-1.19-1l-1.08-.74a13.34,13.34,0,0,0-2-1.31c-.12.15,2.91,1.93,6.73,6A63.83,63.83,0,0,1,400,366.72,88.74,88.74,0,0,1,404,378a97.1,97.1,0,0,1,2.29,9.53c.5,2.75.79,5,1,6.54A14.91,14.91,0,0,0,407.59,396.49Z" style="fill:#e0e0e0"></path><polygon points="388.9 430.58 390.84 457.12 424.93 457.12 426.87 430.58 388.9 430.58" style="fill:#e0e0e0"></polygon><rect x="385.61" y="420.13" width="45.33" height="10.46" style="fill:#e0e0e0"></rect><polygon points="385.61 456.11 385.61 459.01 387.74 459.01 430.19 459.01 430.19 456.11 385.61 456.11" style="fill:#ebebeb"></polygon><polygon points="389.83 464.11 387.74 459.01 428.56 459.01 426.13 464.11 389.83 464.11" style="fill:#e0e0e0"></polygon><path d="M426.24,439.26a2.56,2.56,0,0,1-.16.24c-.14.18-.31.4-.51.68l-2,2.54-.09.11-.08-.12L418.53,436h.28l-4.8,6.8-.16.21-.16-.2L408,436h.33l-.32.39c-1.76,2.22-3.47,4.36-5.09,6.39l-.17.21-.16-.22-4.8-6.8h.28l-5.92,6.75-.11.12-.08-.14-1.85-3.11c-.19-.34-.35-.61-.48-.83a1.21,1.21,0,0,1-.14-.3,1.57,1.57,0,0,1,.2.27l.52.79,1.95,3.06H392l5.83-6.83.14-.17.14.18c1.47,2.06,3.1,4.34,4.85,6.77h-.33l5.08-6.39.32-.4.16-.2.16.2,5.69,6.79h-.32l4.85-6.76.14-.2.14.2,4.78,6.82h-.18l2.07-2.47.55-.64Q426.23,439.25,426.24,439.26Z" style="fill:#f5f5f5"></path><path d="M427.34,430.41c0,.12-8.54.21-19.07.21s-19.08-.09-19.08-.21,8.54-.21,19.08-.21S427.34,430.29,427.34,430.41Z" style="fill:#f5f5f5"></path><path d="M429.07,459.29c0,.12-9.29.21-20.74.21s-20.73-.09-20.73-.21,9.28-.21,20.73-.21S429.07,459.18,429.07,459.29Z" style="fill:#f5f5f5"></path></g><g id="background-simple"><path d="M75.92,122.1l2.2-3.62c18.53-30.53,52-48.94,87.35-46.7A92.13,92.13,0,0,1,179,73.63c32.11,6.88,60,31.16,71.63,62.26,6.81,18.29,8.71,39.35,21.64,53.87,16.82,18.89,45.38,19.48,70.49,18.7s53.69-.11,70.43,18.85c10.48,11.88,13.81,28.78,13,44.69-2.24,42.12-31.59,79.78-68.92,98.5S276,390.9,235.11,382.66c-57.23-11.53-111.66-43.21-144.37-92.15S49.75,174.92,75.92,122.1Z" style="fill:#f5f5f5"></path></g><g id="Floor"><path d="M461.67,463.41c0,.14-94.78.26-211.66.26s-211.68-.12-211.68-.26,94.76-.26,211.68-.26S461.67,463.26,461.67,463.41Z" style="fill:#263238"></path></g><g id="Character"><path d="M111.65,396.49c1.5-6.24,3.63-12.73,8.51-16.89,5.59-4.77,13.48-5.46,20.82-5.84,40.69-2.11,81.47-1.64,122.21-1.18a183.89,183.89,0,0,1,20.33,1c6.79.83,13.87,2.64,18.66,7.51a28.58,28.58,0,0,1,6,10.39c7.37,19.9,7.76,54.69-14.6,71.46l-165,.05c-11.35-6.37-15.52-15.11-18.4-27.8S108.62,409.15,111.65,396.49Z" style="fill:#455a64"></path><g style="opacity:0.30000000000000004"><path d="M270.36,365.27a3.55,3.55,0,0,1,4.78,1.18q11.46,12.32,22.93,24.64a3.79,3.79,0,0,1,1,1.49,3.68,3.68,0,0,1-.42,2.3l-17.53,42.24a10.94,10.94,0,0,0-1.23,5.3c.21,2.07,1.55,3.82,2.83,5.45l9.81,12.46c-6.69.76-13.42,1.2-20.15,1.33l.94.28a41.08,41.08,0,0,1-12-4.28,9,9,0,0,1-3.56-3c-1.68-2.77-.36-6.31.93-9.28a269.62,269.62,0,0,0,14.14-41.57,24.48,24.48,0,0,1-9.15-9.25,2.87,2.87,0,0,0-1.17-1.37,2.76,2.76,0,0,0-1.81.09q-14.81,4.2-29.94,7.06c-13.18,2.5-26.65,4.23-40,2.89s-26.66-5.95-36.67-14.88A476.5,476.5,0,0,0,270.36,365.27Z"></path></g><path d="M116.38,389.14a1.92,1.92,0,0,1,.4.16l1.14.54c1,.49,2.49,1.17,4.42,2a151,151,0,0,0,16.74,6.25A145.76,145.76,0,0,0,165,403.52c9.91,1.18,20.92,1.19,32.43.77s22.5-.88,32.47-1.5,18.92-1.49,26.4-2.53,13.49-2.18,17.61-3.09c2.07-.43,3.66-.84,4.74-1.09l1.24-.28.42-.08a2,2,0,0,1-.41.13l-1.22.34c-1.08.27-2.66.72-4.72,1.17-4.12,1-10.12,2.21-17.61,3.27s-16.45,2-26.42,2.64-21,1.09-32.49,1.54-22.55.39-32.49-.81a144.3,144.3,0,0,1-26-5.52,140.91,140.91,0,0,1-16.72-6.42c-1.91-.89-3.39-1.61-4.37-2.13l-1.13-.58A2.92,2.92,0,0,1,116.38,389.14Z" style="fill:#263238"></path><path d="M147.27,419.62a9.91,9.91,0,0,1-.18-2.82,25.69,25.69,0,0,1,1.07-6.75,25.22,25.22,0,0,1,2.79-6.24,3,3,0,0,1,1.63-1.35c.53-.1.79.09.77.11a3,3,0,0,0-.71.09,3,3,0,0,0-1.38,1.35,30.37,30.37,0,0,0-2.6,6.19,32,32,0,0,0-1.21,6.62A25.77,25.77,0,0,1,147.27,419.62Z" style="fill:#263238"></path><path d="M138.94,410.09a4.29,4.29,0,0,1-.38-1.75,12,12,0,0,1,2.37-8.16,4.39,4.39,0,0,1,1.26-1.27,20.83,20.83,0,0,0-2.69,5.28A20.56,20.56,0,0,0,138.94,410.09Z" style="fill:#263238"></path><path d="M248.6,418.7a46.54,46.54,0,0,0,.7-8.11,45.87,45.87,0,0,0-1.27-8,8,8,0,0,1,.88,2.25,24.23,24.23,0,0,1,.41,11.6A7.89,7.89,0,0,1,248.6,418.7Z" style="fill:#263238"></path><path d="M254.19,413.69a54.29,54.29,0,0,0-.14-6,58,58,0,0,0-1.33-5.85,16.53,16.53,0,0,1,1.47,11.84Z" style="fill:#263238"></path><path d="M283,282.64l6,25,11.87,11.57-19.36,4s-13.69-1.62-16.16-5-6-30.27-6-30.27Z" style="fill:#ffbe9d"></path><path d="M241.8,212.2l18.06,6.67L259.18,313s-28.64,25-30.37,24.77-71.14,21.78-73,25.86c0,0-8.58-1.31-8.58-6.4,0-8.37,8-13.11,8-13.11-3.06-8.11,1.26-22.66,1.26-23.21,0-3.9.12-25.22.12-25.22s3.8-62.21,16.07-75.15C188,204.47,241.8,212.2,241.8,212.2Z" style="fill:#455a64"></path><g style="opacity:0.30000000000000004"><path d="M185.88,347.67c-4,.26-8.41.44-11.75-1.82-3-2-4.54-5.64-5.74-9.08a118.58,118.58,0,0,1-6.33-31.34,3.54,3.54,0,0,0-.49-1.88,7.16,7.16,0,0,0-1.49-1.16c-1.61-1.29-1.58-3.71-1.32-5.76a1.53,1.53,0,0,1,.34-.93,1.56,1.56,0,0,1,.94-.36l8.88-1.31a1.28,1.28,0,0,1,.93.11,1.17,1.17,0,0,1,.36.58c6.51,17,6.77,36.44,16.06,52.16"></path></g><path d="M289,280.92s-17.41-62.66-32.21-63.19l1.62,74.88S284.93,288.06,289,280.92Z" style="fill:#455a64"></path><g style="opacity:0.30000000000000004"><path d="M237.12,290c.9,2.44.06,5-1.23,7.24a15.53,15.53,0,0,1-5.58,5.34c-5.62,3.37-12.91,4.24-18.82,1.41a1.81,1.81,0,0,1-1.07-1,1.32,1.32,0,0,1,1-1.47,4.39,4.39,0,0,1,1.91,0c8.2.87,18.53-3.66,23.84-11.5"></path></g><path d="M211.11,301.25c0-.12,1.8.18,4.68,0a21.29,21.29,0,0,0,2.35-.24c.84-.1,1.72-.31,2.65-.51a28.61,28.61,0,0,0,11.05-5.4,26.32,26.32,0,0,0,2-1.78,22.92,22.92,0,0,0,1.63-1.7c1.9-2.18,2.76-3.77,2.86-3.72a5.92,5.92,0,0,1-.59,1.13,9,9,0,0,1-.8,1.25,16.71,16.71,0,0,1-1.19,1.57,17,17,0,0,1-1.61,1.77,23.19,23.19,0,0,1-2,1.85A27.38,27.38,0,0,1,220.9,301a26.93,26.93,0,0,1-2.7.47,21.26,21.26,0,0,1-2.39.18,17.86,17.86,0,0,1-2,0,9.55,9.55,0,0,1-1.48-.14A6.5,6.5,0,0,1,211.11,301.25Z" style="fill:#263238"></path><path d="M202.49,268.21a3.6,3.6,0,0,1,.57-.34c.37-.21.94-.49,1.69-.82a23.21,23.21,0,0,1,6.68-1.85,16.48,16.48,0,0,1,4.82.15,14.86,14.86,0,0,1,5.14,2c1.67,1,3.27,2.28,5,3.47a15.26,15.26,0,0,0,5.75,2.68,13.63,13.63,0,0,0,6.3-.48A37.74,37.74,0,0,0,244,270.8c1.75-.81,3.42-1.59,5.05-2.17a17.45,17.45,0,0,1,4.7-1.06,10.61,10.61,0,0,1,6.69,1.6,7.21,7.21,0,0,1,1.41,1.26,2.62,2.62,0,0,1,.38.54,10,10,0,0,0-1.9-1.63,10.68,10.68,0,0,0-6.55-1.41,17.67,17.67,0,0,0-4.58,1.1c-1.6.59-3.25,1.38-5,2.21a38.7,38.7,0,0,1-5.65,2.28,14,14,0,0,1-6.54.5,15.7,15.7,0,0,1-5.94-2.77c-1.73-1.21-3.31-2.48-4.94-3.48a14.94,14.94,0,0,0-9.67-2.2,24.28,24.28,0,0,0-6.64,1.67c-.76.29-1.34.55-1.73.73A2.92,2.92,0,0,1,202.49,268.21Z" style="fill:#fff"></path><path d="M202.49,274.61a3.6,3.6,0,0,1,.57-.34c.37-.21.94-.5,1.69-.83a23.25,23.25,0,0,1,6.68-1.84,16.46,16.46,0,0,1,4.82.14,14.89,14.89,0,0,1,5.14,2c1.67,1,3.27,2.28,5,3.46a15.28,15.28,0,0,0,5.75,2.69,13.77,13.77,0,0,0,6.3-.48A38.86,38.86,0,0,0,244,277.2c1.75-.81,3.42-1.6,5.05-2.18a17.83,17.83,0,0,1,4.7-1.06,10.6,10.6,0,0,1,6.69,1.61,7.21,7.21,0,0,1,1.41,1.26,2.33,2.33,0,0,1,.38.54,10,10,0,0,0-1.9-1.63,10.68,10.68,0,0,0-6.55-1.41,17.67,17.67,0,0,0-4.58,1.1c-1.6.59-3.25,1.38-5,2.2a37.63,37.63,0,0,1-5.65,2.29,14.17,14.17,0,0,1-6.54.5,15.57,15.57,0,0,1-5.94-2.78c-1.73-1.2-3.31-2.47-4.94-3.47a14.88,14.88,0,0,0-9.67-2.2,24.7,24.7,0,0,0-6.64,1.66c-.76.3-1.34.55-1.73.73A3.52,3.52,0,0,1,202.49,274.61Z" style="fill:#fff"></path><path d="M202.49,281a4.28,4.28,0,0,1,.57-.33c.37-.21.94-.5,1.69-.83a23.25,23.25,0,0,1,6.68-1.84,16.13,16.13,0,0,1,4.82.14,14.69,14.69,0,0,1,5.14,2c1.67,1,3.27,2.28,5,3.46a15.26,15.26,0,0,0,5.75,2.68,13.5,13.5,0,0,0,6.3-.48A37.72,37.72,0,0,0,244,283.6c1.75-.82,3.42-1.6,5.05-2.18a17.83,17.83,0,0,1,4.7-1.06,10.67,10.67,0,0,1,6.69,1.6,7.19,7.19,0,0,1,1.41,1.27,2.33,2.33,0,0,1,.38.54,10.24,10.24,0,0,0-1.9-1.64,10.75,10.75,0,0,0-6.55-1.4,17.67,17.67,0,0,0-4.58,1.1c-1.6.58-3.25,1.37-5,2.2a36.59,36.59,0,0,1-5.65,2.28,14,14,0,0,1-6.54.51,15.72,15.72,0,0,1-5.94-2.78c-1.73-1.21-3.31-2.47-4.94-3.47a14.89,14.89,0,0,0-9.67-2.21,24.65,24.65,0,0,0-6.64,1.67c-.76.3-1.34.55-1.73.73A2.34,2.34,0,0,1,202.49,281Z" style="fill:#fff"></path><path d="M197.6,225.77a15.68,15.68,0,0,0-22.8-8.19,26.58,26.58,0,0,0-8.59,7.85c-7,10.74-9.68,70.45-9.68,70.45l45.3-1.79s1.4-36.66,0-53.23C201.17,233,199.22,230.19,197.6,225.77Z" style="fill:#455a64"></path><path d="M197.6,225.77a1.34,1.34,0,0,1,.14.3l.37.9,1.47,3.49a31.61,31.61,0,0,1,1.74,5.81,59.13,59.13,0,0,1,.9,8.12c.66,12.18.51,29.45-.15,49.71v.22h-.22l-43.55,1.74-1.75.07h-.28v-.28c.76-15.34,1.9-29.91,3.5-43.1a182.67,182.67,0,0,1,3.11-18.59c.34-1.44.72-2.84,1.15-4.2.2-.69.47-1.35.7-2a18.28,18.28,0,0,1,.89-1.9,21.6,21.6,0,0,1,5.21-5.93,26,26,0,0,1,6.08-3.78,15.52,15.52,0,0,1,6.29-1.15,16.1,16.1,0,0,1,9.46,3.52,15.77,15.77,0,0,1,4.06,5,13,13,0,0,1,.68,1.53c.14.35.2.53.2.53s-.09-.17-.25-.51a15.11,15.11,0,0,0-.72-1.5,15.73,15.73,0,0,0-13.44-8.27,15.38,15.38,0,0,0-6.15,1.17,25.49,25.49,0,0,0-6,3.77,21,21,0,0,0-5.09,5.83,17.59,17.59,0,0,0-.86,1.86c-.22.65-.49,1.3-.69,2-.42,1.35-.79,2.75-1.12,4.18a180.91,180.91,0,0,0-3.05,18.55c-1.58,13.17-2.7,27.74-3.46,43.06l-.27-.27,1.75-.07,43.55-1.7-.23.23c.7-20.25.91-37.51.34-49.67a59.11,59.11,0,0,0-.83-8.09,32.31,32.31,0,0,0-1.67-5.81c-.6-1.52-1.07-2.69-1.39-3.51S197.6,225.77,197.6,225.77Z" style="fill:#263238"></path><path d="M259.33,298.47a2.27,2.27,0,0,1,0-.52c.05-.4.11-.89.18-1.48l.68-5.45c.54-4.6,1.2-11,1.63-18s.45-13.46.26-18.08q-.08-1.72-.15-3.12c-.07-.9-.13-1.68-.18-2.35s-.08-1.09-.11-1.49a1.72,1.72,0,0,1,0-.52,1.78,1.78,0,0,1,.1.51c.06.39.13.88.21,1.48s.19,1.43.27,2.35.15,2,.23,3.12a158.41,158.41,0,0,1-.11,18.13c-.43,7.07-1.15,13.44-1.79,18-.32,2.29-.61,4.15-.84,5.43-.11.64-.2,1.13-.27,1.46A1.72,1.72,0,0,1,259.33,298.47Z" style="fill:#263238"></path><path d="M322.94,286.37c1.11-1.62,2.72-3.95,3.83-5.58a1.84,1.84,0,0,1,.44-.48,1.45,1.45,0,0,1,.8-.17,11,11,0,0,1,4.91,1.67L337,284a1,1,0,0,1,.32.22.79.79,0,0,1-.19,1.1,2.18,2.18,0,0,1-1.18.38c-4.08.51-8.19.84-12.3,1-.27,0-.62,0-.7-.29" style="fill:#ffbe9d"></path><path d="M353.36,410.61l26.87,24.53s34.19-19.09,39.39-15l-45.68,51.67-41.72-36.51Z" style="fill:#FF725E"></path><path d="M364.51,448a2.82,2.82,0,0,0,1.12,3.59,2.7,2.7,0,0,0,3.56-1.08,3,3,0,0,0-1.2-3.79c-1.28-.52-3.27.19-3.59,1.53" style="fill:#e0e0e0"></path><path d="M373.94,471.78l-4.06-3.85,45.32-48.1s3-1.42,4.42.28Z" style="fill:#263238"></path><path d="M381.35,433.85c.25.24-.75,1.6-1,3.56s.19,3.55-.12,3.7-1.43-1.52-1-3.89S381.17,433.59,381.35,433.85Z" style="fill:#263238"></path><path d="M388.39,429.51c.29.16-.25,1.63.06,3.43s1.22,3,1,3.29-1.8-.86-2.14-3.11S388.14,429.3,388.39,429.51Z" style="fill:#263238"></path><path d="M397.59,432.16c-.15.28-1.72-.48-2.53-2.35s-.31-3.54,0-3.46.4,1.46,1.09,3S397.79,431.89,397.59,432.16Z" style="fill:#263238"></path><path d="M250.81,349.84c.09,0-.42,1-.7,2.75a15.92,15.92,0,0,0,.5,6.73,35.27,35.27,0,0,0,2.63,6.32,16.83,16.83,0,0,1,1.24,2.59,14.39,14.39,0,0,1-1.56-2.41,28.41,28.41,0,0,1-2.81-6.36,14.53,14.53,0,0,1-.36-6.94,9.57,9.57,0,0,1,.66-2C250.63,350.05,250.78,349.83,250.81,349.84Z" style="fill:#FF725E"></path><path d="M314.71,416.56l-12.92,32.05s28.19,27.44,26,33.66l-63.46-27,21.44-51.12Z" style="fill:#FF725E"></path><path d="M283.87,438.8a2.83,2.83,0,0,0-3.05,2.2,2.71,2.71,0,0,0,2.15,3,3,3,0,0,0,3.22-2.34c.09-1.38-1.21-3-2.59-2.92" style="fill:#e0e0e0"></path><path d="M264.31,455.26l2.36-5.07,60,27.79s2.3,2.43,1.14,4.29Z" style="fill:#263238"></path><path d="M303.49,450c-.14.31-1.75-.21-3.7.13s-3.32,1.31-3.55,1.06,1-1.83,3.36-2.21S303.68,449.76,303.49,450Z" style="fill:#263238"></path><path d="M309,455.61c-.06.33-1.63.28-3.24,1.14s-2.5,2.12-2.81,2,.25-2,2.27-3S309.09,455.31,309,455.61Z" style="fill:#263238"></path><path d="M309.37,465.18c-.31-.05-.09-1.79,1.43-3.14s3.26-1.42,3.28-1.11-1.26.84-2.49,2S309.69,465.28,309.37,465.18Z" style="fill:#263238"></path><path d="M347.46,286.67l-27.22,27.41-58.82,13.39,16.17-31.63a8,8,0,0,1,6.09-4.33c11.94-1.61,46.35-6.29,61.65-8.84A2.39,2.39,0,0,1,347.46,286.67Z" style="fill:#e0e0e0"></path><path d="M347.46,286.67s.12-.15.3-.45a2.24,2.24,0,0,0,.27-1.51,2.36,2.36,0,0,0-1.52-1.86,2.85,2.85,0,0,0-1.59,0l-1.86.32c-5.26.88-12.88,2-22.3,3.41s-20.65,2.95-33.12,4.66c-1.55.23-3.17.39-4.71.68a7.71,7.71,0,0,0-4,2.41,8.38,8.38,0,0,0-1.32,2l-1.14,2.24-2.31,4.53L264.52,322l-2.87,5.61-.29-.38,58.83-13.33-.09.06c8.37-8.38,15.19-15.21,19.94-19.95l5.48-5.45,1.44-1.4c.32-.32.5-.47.5-.47s-.15.18-.46.51l-1.4,1.45-5.4,5.51-19.82,20.08,0,0h-.06l-58.8,13.45-.54.13.25-.5c.94-1.84,1.9-3.71,2.86-5.6l9.66-18.88,2.32-4.53,1.15-2.24a8.88,8.88,0,0,1,1.38-2.12,8.28,8.28,0,0,1,4.26-2.55c1.63-.32,3.18-.46,4.75-.69l33.14-4.54c9.43-1.33,17.05-2.44,22.31-3.25l1.87-.29a3,3,0,0,1,1.67,0,2.49,2.49,0,0,1,1.57,2,2.24,2.24,0,0,1-.33,1.56A1.81,1.81,0,0,1,347.46,286.67Z" style="fill:#263238"></path><path d="M303.22,305.54c.17,1.25,2,2,4,1.76s3.6-1.49,3.44-2.74-2-2-4-1.76S303.06,304.3,303.22,305.54Z" style="fill:#fff"></path><path d="M306.46,307.38c-1.73,0-3.12-.74-3.26-1.83h0a2,2,0,0,1,.89-1.76,5.72,5.72,0,0,1,5.31-.7,1.75,1.75,0,0,1,.43,3.23,5.26,5.26,0,0,1-2.57,1A5.46,5.46,0,0,1,306.46,307.38Zm1-4.61a5.52,5.52,0,0,0-.81.06,5.14,5.14,0,0,0-2.54,1,1.91,1.91,0,0,0-.88,1.71h0c.16,1.23,2,2,4,1.74a5.27,5.27,0,0,0,2.55-1,1.92,1.92,0,0,0,.87-1.71,1.9,1.9,0,0,0-1.29-1.43A4.73,4.73,0,0,0,307.48,302.77Z" style="fill:#fff"></path><path d="M279,300.77a2.73,2.73,0,0,1,.23-.72,20.38,20.38,0,0,1,.85-2,10.68,10.68,0,0,1,1.9-2.83,7.76,7.76,0,0,1,4.21-1.57c6.54-1.12,15.57-2.69,25.59-4.2l7.3-1.12c2.37-.31,4.66-.54,6.84-.79l11.59-1.27c3.28-.36,5.9-1,7.74-1.26.92-.15,1.63-.25,2.12-.29a3.18,3.18,0,0,1,.74,0,4.17,4.17,0,0,1-.73.14c-.48.08-1.19.21-2.1.39-1.82.33-4.42,1-7.73,1.43L326,288.06c-2.18.26-4.46.5-6.83.81l-7.3,1.14c-10,1.5-19,3-25.6,4a7.56,7.56,0,0,0-4.07,1.42,10.82,10.82,0,0,0-1.92,2.71c-.44.82-.73,1.47-.94,1.91A5,5,0,0,1,279,300.77Z" style="fill:#263238"></path><path d="M249,304.56s10.84-6.7,14.34-8.11,9.95-.7,11.5-2.1,5-4.62,5-4.62,2.8,2.94,1,5.6-8.69,6.16-8.69,6.16l24.11-1.59s1.82,1.32.84,2.86c0,0,1.7,1.82.29,3.64s-18.55,16.36-23.93,16.8-21-2.43-21-2.43Z" style="fill:#ffbe9d"></path><path d="M194.88,294.39l2.25,24.13s44.34-11,51.86-14l3.53,16.21S197.38,348.24,184,347.41s-21.84-51.53-21.84-51.53Z" style="fill:#ffbe9d"></path><path d="M180.43,328.21a2,2,0,0,1,0-.88,6.9,6.9,0,0,1,.67-2.3,9.2,9.2,0,0,1,2.17-2.84A12,12,0,0,1,187,320a32.7,32.7,0,0,1,7.69-1.5,20,20,0,0,1,3.23-.28,20.06,20.06,0,0,1-3.17.64,40,40,0,0,0-7.56,1.63,12.3,12.3,0,0,0-3.63,2.09,9.53,9.53,0,0,0-2.15,2.65A10.37,10.37,0,0,0,180.43,328.21Z" style="fill:#eb996e"></path><path d="M271.6,306.79a38.86,38.86,0,0,1,3.88.37,27.84,27.84,0,0,0,9.27-.33,41.33,41.33,0,0,0,4.84-1.71l4-1.53c1.12-.43,2-.77,2.67-1a4.74,4.74,0,0,1,1-.3,4.23,4.23,0,0,1-.93.49c-.61.28-1.51.67-2.62,1.14l-3.9,1.63a36.07,36.07,0,0,1-4.9,1.78,25.4,25.4,0,0,1-9.43.18c-1.2-.17-2.16-.34-2.82-.47A3.66,3.66,0,0,1,271.6,306.79Z" style="fill:#eb996e"></path><path d="M274.29,314.69c0-.1,1.51.09,3.92.05a13,13,0,0,0,4.13-.74,25.11,25.11,0,0,0,4.64-2.28c1.59-.94,3.1-1.88,4.55-2.61s2.75-1.33,3.79-1.95a13.94,13.94,0,0,0,3.05-2.4,2.75,2.75,0,0,1-.61.87,10.71,10.71,0,0,1-2.25,1.85c-1,.66-2.35,1.31-3.76,2s-2.9,1.69-4.51,2.64a24.23,24.23,0,0,1-4.75,2.29,13.14,13.14,0,0,1-4.27.65,22.61,22.61,0,0,1-2.89-.22A3.54,3.54,0,0,1,274.29,314.69Z" style="fill:#eb996e"></path><path d="M263.67,306.28c-.06,0-.28-.28-.37-.87a4.24,4.24,0,0,1,.35-2.24,6.45,6.45,0,0,1,1.28-1.84c.39-.4.68-.61.73-.56s-.84,1.14-1.53,2.61a5.11,5.11,0,0,0-.46,2C263.66,305.92,263.74,306.25,263.67,306.28Z" style="fill:#eb996e"></path><path d="M265.36,313c0,.05-.26,0-.53-.21a2.2,2.2,0,0,1-.72-1.15,2.14,2.14,0,0,1,.06-1.35c.13-.33.3-.47.35-.44s-.15.79.09,1.66S265.44,312.87,265.36,313Z" style="fill:#eb996e"></path><path d="M252.52,320.77l.27,0,.79.11,3,.48c2.66.39,6.51,1,11.36,1.45,1.21.1,2.49.21,3.82.21.33,0,.66,0,1,0a4.78,4.78,0,0,0,1-.1,9.51,9.51,0,0,0,2-.64,50.82,50.82,0,0,0,7.86-4.84c2.66-1.91,5.4-4,8.18-6.36,1.38-1.16,2.8-2.35,4.17-3.63.65-.66,1.45-1.25,1.65-2.09a2.86,2.86,0,0,0-.72-2.45l-.13-.15.1-.16a1.43,1.43,0,0,0,.15-1.32,2.79,2.79,0,0,0-.92-1.19l.16.05-9.1.6-15,1-1.18.08,1.05-.56a40.61,40.61,0,0,0,7.29-4.68,7.67,7.67,0,0,0,1.37-1.49,3.08,3.08,0,0,0,.52-1.81,5.74,5.74,0,0,0-1.52-3.4H280l-2.85,2.59c-.46.43-.92.84-1.38,1.26a5.46,5.46,0,0,1-1.48,1.14,13,13,0,0,1-3.5.63c-1.13.1-2.23.16-3.29.27a20.2,20.2,0,0,0-3,.48,12.62,12.62,0,0,0-2.65,1.05c-1.65.82-3.14,1.65-4.48,2.4-2.67,1.52-4.76,2.75-6.18,3.58l-1.63.95-.42.24-.15.07.13-.1.4-.27,1.59-1c1.41-.87,3.47-2.14,6.13-3.69,1.33-.77,2.81-1.62,4.47-2.46a12.82,12.82,0,0,1,2.7-1.1,23,23,0,0,1,3.08-.52c1.07-.11,2.17-.19,3.3-.29a12.77,12.77,0,0,0,3.36-.61,5.34,5.34,0,0,0,1.36-1.08l1.37-1.26,2.84-2.61.17-.16.15.17a6.16,6.16,0,0,1,1.66,3.71,3.52,3.52,0,0,1-.59,2.08,7.9,7.9,0,0,1-1.45,1.6,40.23,40.23,0,0,1-7.38,4.76l-.13-.48,15-1,9.1-.6h.1l.07.06a3.42,3.42,0,0,1,1.11,1.44,2,2,0,0,1-.21,1.77l0-.31a3.3,3.3,0,0,1,.83,2.91,2.91,2.91,0,0,1-.77,1.32c-.34.38-.69.68-1,1-1.39,1.28-2.81,2.48-4.2,3.64-2.8,2.31-5.55,4.44-8.23,6.35a50.45,50.45,0,0,1-8,4.83,8.89,8.89,0,0,1-2.07.65,4.68,4.68,0,0,1-1.05.11c-.34,0-.68,0-1,0-1.35,0-2.62-.14-3.84-.24-4.86-.5-8.71-1.17-11.36-1.62l-3-.55-.78-.17Z" style="fill:#eb996e"></path><path d="M265.21,327.28s65.08-16.6,72.16-16.15,29.89,4.64,21,31.21-48.7,94.07-48.7,94.07l-33.5-14.08,20-48.57s-41.9,12.61-59.14,13.61S205.67,364,205.67,364Z" style="fill:#263238"></path><path d="M320.77,335.88a11.91,11.91,0,0,1,2.16-2.06,30.82,30.82,0,0,1,6.12-3.82,32.92,32.92,0,0,1,6.83-2.3c1.79-.41,2.82-.87,2.85-.81a7.91,7.91,0,0,1-2.75,1.17,40.22,40.22,0,0,0-6.71,2.41,38.36,38.36,0,0,0-6.12,3.64C321.68,335.19,320.82,335.94,320.77,335.88Z" style="fill:#455a64"></path><path d="M308.25,357.23a3.83,3.83,0,0,1,.35-1c.26-.61.65-1.48,1.15-2.54a80.91,80.91,0,0,1,9.59-15.67c.73-.93,1.32-1.68,1.74-2.18a3.56,3.56,0,0,1,.7-.75,3.64,3.64,0,0,1-.54.87l-1.6,2.28c-1.35,1.91-3.23,4.56-5.1,7.61s-3.37,5.92-4.46,8c-.5,1-.93,1.78-1.3,2.47A4,4,0,0,1,308.25,357.23Z" style="fill:#455a64"></path><path d="M250.53,320.12a25.33,25.33,0,0,1,8.28-1.84c4.43-.23,10.83,0,15,2.8,6.88,4.58,94.87,97.46,94.87,97.46L344,448.89S298.67,416.05,286.55,403s-25.87-33.73-25.87-33.73-16.42,17.35-31.7,24.94c-9.51,4.72-32.79,10-52.82,8.23a30.59,30.59,0,0,1-27.78-33.82c0-.12,0-.23,0-.34a82.78,82.78,0,0,1,1.87-8.86h0Z" style="fill:#263238"></path><path d="M250.53,320.12s-.6.26-1.78.73l-5.24,2.08-20.06,7.92-73.08,28.71.12-.13c-.66,2.54-1.29,5.15-1.72,7.82a39.18,39.18,0,0,0-.35,4.07,20.29,20.29,0,0,0,0,2.06,18,18,0,0,0,.15,2.07c.1.68.2,1.37.31,2.06s.32,1.37.48,2.05a33.88,33.88,0,0,0,1.32,4,33.49,33.49,0,0,0,4.46,7.41,33.14,33.14,0,0,0,6.51,6,32.62,32.62,0,0,0,8.15,3.92,37.59,37.59,0,0,0,9.14,1.44c1.57.13,3.15.11,4.73.16s3.18,0,4.78-.08a131.34,131.34,0,0,0,19.41-2.22c3.27-.6,6.53-1.37,9.78-2.26a71.22,71.22,0,0,0,9.61-3.29,61.33,61.33,0,0,0,9-5.06c2.89-1.91,5.71-4,8.44-6.18A173.13,173.13,0,0,0,260.5,369l.22-.23.18.26c4.91,7.25,10.34,14.82,16.16,22.22,4.81,6.07,9.71,12,15.41,17s11.49,9.78,17.29,14.38c11.62,9.18,23.15,17.82,34.35,26l-.34,0,24.7-30.34v.31c-32.73-34.51-60.38-63.43-80.12-83.44q-3.71-3.75-7.06-7.05-1.65-1.66-3.26-3.17c-1.07-1-2.07-2-3.13-2.87l-.77-.66a4.08,4.08,0,0,0-.8-.58,8,8,0,0,0-.85-.48c-.28-.15-.57-.28-.86-.4a19,19,0,0,0-3.45-1.08,31.78,31.78,0,0,0-6.27-.67,34.78,34.78,0,0,0-5,.2,25.16,25.16,0,0,0-3.56.7c-1,.25-1.65.5-2.12.66l-.71.26a18.88,18.88,0,0,1,2.81-1,24.44,24.44,0,0,1,3.57-.74,35.91,35.91,0,0,1,5-.24,32,32,0,0,1,6.31.64,19.38,19.38,0,0,1,3.49,1.08c.29.12.59.25.87.4a7.37,7.37,0,0,1,.87.48,4.19,4.19,0,0,1,.81.59l.78.66c1.08.86,2.08,1.87,3.16,2.87s2.17,2.05,3.28,3.16q3.36,3.29,7.07,7c19.81,20,47.5,48.83,80.27,83.31l.14.14-.13.16-24.68,30.37-.15.18-.19-.14c-11.21-8.18-22.73-16.83-34.37-26-5.81-4.6-11.65-9.33-17.32-14.41s-10.66-11-15.47-17.07c-5.83-7.42-11.27-15-16.18-22.25l.4,0A175.39,175.39,0,0,1,245,383.81c-2.75,2.21-5.58,4.29-8.49,6.21a63.65,63.65,0,0,1-9.06,5.1,73.21,73.21,0,0,1-9.68,3.31c-3.27.89-6.54,1.65-9.81,2.25a129.74,129.74,0,0,1-19.49,2.22c-1.61.08-3.21.06-4.8.08s-3.18,0-4.75-.16a38.82,38.82,0,0,1-9.26-1.47,33.44,33.44,0,0,1-8.27-4,31.11,31.11,0,0,1-11.11-13.6,33.12,33.12,0,0,1-1.34-4.09c-.16-.69-.38-1.37-.49-2.08l-.3-2.09a14.94,14.94,0,0,1-.15-2.1,20.88,20.88,0,0,1,0-2.09c.11-1.39.12-2.77.36-4.12.44-2.7,1.07-5.31,1.74-7.87l0-.1.1,0,73.14-28.54,20.11-7.82,5.26-2Z" style="fill:#455a64"></path><path d="M340.42,293.76c-6.05,2.33-13.48,4.65-19.53,6.53a4.73,4.73,0,0,0-2.19,1.12,1.67,1.67,0,0,0-.14,2.25,2.42,2.42,0,0,0,1.89.39l4.45-.31a32.44,32.44,0,0,0-9.51,4.55c-.77.54-1.59,1.26-1.57,2.21a2,2,0,0,0,1.69,1.77,5.94,5.94,0,0,0,2.61-.17q8.25-1.83,16.42-4.08a6.11,6.11,0,0,0,1.82-.71,6.37,6.37,0,0,0,1.77-2.08q1.26-2,2.54-4.05a6.67,6.67,0,0,0,1.2-2.79,5.71,5.71,0,0,0-1.45-4.63" style="fill:#ffbe9d"></path><path d="M227.3,187.2,233.89,118c12.41-5.07,21.15,7.33,22.82,11.91s1.57,9.6,1.47,14.48-.17,9.89,1.55,14.45c1.61,4.28,4.66,7.82,7,11.75s4,8.75,2.36,13c-1.14,3.05-3.88,6-2.88,9.08a22.61,22.61,0,0,0,1.78,3.18,8.09,8.09,0,0,1-.23,7.16,14.06,14.06,0,0,1-5.05,5.31,22.91,22.91,0,0,1-35.4-21.13Z" style="fill:#FF725E"></path><path d="M166.21,174.73c.5-2.64,2.37-4.79,4.39-6.55s4.26-3.3,5.94-5.38c2.6-3.22,3.59-7.43,4.17-11.53s2.78-8.73,4.25-12.6,5.11-7.71,7.47-10.31l2,80.9A26.52,26.52,0,0,1,174.56,201a21,21,0,0,1-4.89-19.89C167.08,180.48,165.72,177.36,166.21,174.73Z" style="fill:#FF725E"></path><path d="M200.45,131.69l33.73-8.6c10.8-1.16,18,12.12,18.72,23,.79,12,1.27,26.78-.14,35.77-2.83,18.09-16.68,20.42-16.68,20.42s.08,5.69.1,13.77a19,19,0,0,1-18.32,19h0a19,19,0,0,1-19.6-18.12l-3.48-78.74A6.37,6.37,0,0,1,200.45,131.69Z" style="fill:#ffbe9d"></path><path d="M248.24,162.26A2.31,2.31,0,0,1,246,164.6a2.2,2.2,0,0,1-2.39-2.08,2.33,2.33,0,0,1,2.22-2.35A2.23,2.23,0,0,1,248.24,162.26Z" style="fill:#263238"></path><path d="M248.68,153c-.28.3-2-1-4.54-1s-4.32,1.27-4.59,1c-.13-.13.16-.68,1-1.26a6.37,6.37,0,0,1,3.67-1.14,6,6,0,0,1,3.61,1.16C248.56,152.33,248.82,152.88,248.68,153Z" style="fill:#263238"></path><path d="M223.19,162.26A2.31,2.31,0,0,1,221,164.6a2.2,2.2,0,0,1-2.39-2.08,2.33,2.33,0,0,1,2.22-2.35A2.23,2.23,0,0,1,223.19,162.26Z" style="fill:#263238"></path><path d="M223.7,153.59c-.29.3-2-1-4.54-1s-4.32,1.27-4.59,1c-.13-.13.15-.68,1-1.26a6.4,6.4,0,0,1,3.68-1.14,6,6,0,0,1,3.61,1.16C223.58,152.9,223.84,153.45,223.7,153.59Z" style="fill:#263238"></path><path d="M233.26,172.73c0-.14,1.54-.41,4.05-.74.63-.07,1.24-.19,1.34-.63a3.25,3.25,0,0,0-.43-1.89l-1.89-4.84c-2.63-6.9-4.54-12.58-4.26-12.68s2.64,5.41,5.27,12.31c.63,1.7,1.24,3.32,1.81,4.87a3.66,3.66,0,0,1,.34,2.5,1.59,1.59,0,0,1-1,.93,4.22,4.22,0,0,1-1.09.16C234.84,172.86,233.27,172.87,233.26,172.73Z" style="fill:#263238"></path><path d="M236.08,202.25a48.75,48.75,0,0,1-25.26-6.41s7.17,12.7,25.26,11Z" style="fill:#eb996e"></path><path d="M232.22,178.75a4.47,4.47,0,0,0-4-1.66,4.09,4.09,0,0,0-2.83,1.52,2.62,2.62,0,0,0-.19,3,3,3,0,0,0,3.27.82,9.65,9.65,0,0,0,3.19-1.91,2.93,2.93,0,0,0,.71-.74.83.83,0,0,0,0-.93" style="fill:#eb996e"></path><path d="M225.44,148.38c-.24.67-2.73.36-5.66.72s-5.29,1.16-5.68.55c-.17-.29.24-.93,1.19-1.59a9.56,9.56,0,0,1,4.21-1.48,9.46,9.46,0,0,1,4.43.51C225,147.52,225.55,148.05,225.44,148.38Z" style="fill:#FF725E"></path><path d="M248.57,143.56c-.54.57-2.67,0-5.24,0s-4.73.39-5.23-.2c-.22-.29.12-.85,1.07-1.39a8.5,8.5,0,0,1,4.25-.94,8.37,8.37,0,0,1,4.18,1.13C248.51,142.7,248.81,143.28,248.57,143.56Z" style="fill:#FF725E"></path><path d="M179.79,179.81c-.1-10.52,2.7-21,4.12-31.38.57-4.2,1.17-8.47,2.94-12.33,2.5-5.46,7.16-9.64,12.1-13.06,5.67-3.93,12-7.13,18.83-8.17s14.18.24,19.62,4.48a4.28,4.28,0,0,1,1.85,2.53c.68,2.58-.59,3.65-2.05,5.88a28.63,28.63,0,0,1-5.55,5.72l-9.69,8.3a74.32,74.32,0,0,1-7.14,5.61,73.19,73.19,0,0,1-7,3.93l-7.47,3.82a3.85,3.85,0,0,0-1.65,1.26,3.9,3.9,0,0,0-.41,1.58c-.8,7-.74,14.77-1.18,21.83-.5,8.05,6,30.4,6,30.4l-12-1.19c-5.31-1.21-10.54-7.78-11.29-13.18C179.09,190.79,179.83,183.9,179.79,179.81Z" style="fill:#FF725E"></path><path d="M199.09,162.91c-.19-3.84-4.38-6.41-7.71-4.48-1.83,1-3.23,3.18-3.06,7.26.45,10.89,11.29,8.2,11.29,7.88S199.32,167.41,199.09,162.91Z" style="fill:#ffbe9d"></path><path d="M196.12,169.58c-.05,0-.19.15-.5.31a1.94,1.94,0,0,1-1.42.08c-1.17-.37-2.21-2.16-2.35-4.12a6.4,6.4,0,0,1,.42-2.74,2.21,2.21,0,0,1,1.37-1.51,1,1,0,0,1,1.14.47c.16.3.1.52.16.54s.22-.19.12-.64a1.2,1.2,0,0,0-.46-.66,1.4,1.4,0,0,0-1.06-.24,2.66,2.66,0,0,0-1.91,1.77,6.36,6.36,0,0,0-.53,3.06c.16,2.19,1.36,4.2,3,4.59a2,2,0,0,0,1.72-.36C196.11,169.85,196.15,169.6,196.12,169.58Z" style="fill:#eb996e"></path><path d="M192.43,174.3a2.14,2.14,0,1,0,2.14-2.13A2.14,2.14,0,0,0,192.43,174.3Z" style="fill:#263238"></path><path d="M247.75,168.2c2.09-.23,4.68-.66,5.45-1.39,1.15-1.09,2.34-5.12,3.36-8.92.13-.49.21-.82.25-.91l-.8-.31a10.63,10.63,0,0,0-.29,1c-.54,2-2,7.46-3.12,8.53-1.34,1.26-12.5,1.91-13.54,1.19-.64-.52-2.15-5.37-3-8.65l-.07-.3-4.45-.12-.11.28c-.87,2.22-3.57,8.22-5.52,9.33-2.45,1.39-12,.72-12.69-.23s-2.27-6.48-3.24-10.08l-.08-.31-13.55.54,0,.82,12.85-.52c.49,1.79,2.45,8.91,3.29,10,1.15,1.53,11.36,1.86,13.83.45s5.18-8,5.78-9.47l3.18.09c.49,1.85,2.19,7.95,3.22,8.77s6.55.38,7.19.33S247,168.29,247.75,168.2Z" style="fill:#455a64"></path><path d="M231.26,159.78l.87-1.42c-5.86-3.22-16.3-4.55-22.93-1.1l.81,1.44C215.93,155.62,225.77,156.77,231.26,159.78Z" style="fill:#455a64"></path><path d="M256.27,157.83l.65-1.53c-7.11-2.7-16.28-1.82-21.8,2.1l1,1.31C241.13,156.17,249.78,155.36,256.27,157.83Z" style="fill:#455a64"></path><path d="M234.09,180.65a3.27,3.27,0,0,1-1.7.51,6.85,6.85,0,0,1-4.2-.91,6.77,6.77,0,0,1-2.81-3.25,3.42,3.42,0,0,1-.37-1.74c.09,0,.22.65.7,1.59a7.17,7.17,0,0,0,6.65,4C233.42,180.77,234.07,180.57,234.09,180.65Z" style="fill:#263238"></path><path d="M180.74,187.16a13,13,0,0,1-2.94-2.36,17.09,17.09,0,0,1-4.53-9.16,16.72,16.72,0,0,1,.49-7.12,17.19,17.19,0,0,1,4.07-7.1,22.93,22.93,0,0,1,7.59-4.92c2.89-1.24,6-2.16,9.1-3.32A74.71,74.71,0,0,0,211,144.54a78.26,78.26,0,0,0,6.42-5c1.9-1.69,3.64-3.31,5.12-4.89a77.36,77.36,0,0,0,6.59-7.86c.73-1,1.23-1.77,1.61-2.28l.43-.59c.1-.13.15-.2.16-.19a.75.75,0,0,1-.12.22c-.1.16-.22.37-.38.62-.35.53-.82,1.35-1.54,2.34a69.34,69.34,0,0,1-6.48,8c-1.48,1.6-3.2,3.25-5.11,5a77,77,0,0,1-6.43,5,73.07,73.07,0,0,1-16.53,8.73c-3.11,1.18-6.22,2.09-9.08,3.31a22.43,22.43,0,0,0-7.44,4.79,16.81,16.81,0,0,0-4.55,13.82,17.22,17.22,0,0,0,4.32,9.08,19.13,19.13,0,0,0,2,1.9l.57.44C180.68,187.1,180.75,187.15,180.74,187.16Z" style="fill:#263238"></path></g><g id="speech-bubble"><path d="M140.46,196.14l-9.07-16a42.78,42.78,0,1,0-10.25,11.41v0Z" style="fill:#fafafa"></path><path d="M140.46,196.14l-19.31-4.65.06.16v0a.09.09,0,0,0,0-.14.09.09,0,0,0-.12,0,44,44,0,0,1-8.76,5.22A42.76,42.76,0,0,1,100.67,200a38.1,38.1,0,0,1-6.72.32c-1.15-.07-2.33-.1-3.51-.2l-3.58-.55a42.79,42.79,0,0,1-26.44-17,42.4,42.4,0,0,1-7.13-16.35,43.23,43.23,0,0,1,.51-18.81c.21-.79.39-1.58.62-2.36s.56-1.53.85-2.29a37.53,37.53,0,0,1,2-4.5,19.11,19.11,0,0,1,1.23-2.16c.43-.71.85-1.43,1.3-2.13l1.5-2,.75-1c.25-.33.56-.62.83-.94l1.73-1.9c.56-.64,1.24-1.17,1.86-1.75l.94-.86a9.55,9.55,0,0,1,1-.82l2-1.51a12.15,12.15,0,0,1,1-.74l1.07-.65,2.15-1.31,2.24-1.09a19.89,19.89,0,0,1,2.27-1,43.18,43.18,0,0,1,19-2.92,41.7,41.7,0,0,1,17.41,5.12,43.06,43.06,0,0,1,20.14,24.7A45.87,45.87,0,0,1,137.56,159a42.49,42.49,0,0,1-2,11.93,43.59,43.59,0,0,1-4.22,9.16.09.09,0,0,0,0,.1l9.15,15.93-9-16v.1a43.41,43.41,0,0,0,4.28-9.19,42.4,42.4,0,0,0,2.08-12A45.8,45.8,0,0,0,136,145.14a43.3,43.3,0,0,0-20.27-24.94A42.2,42.2,0,0,0,98.14,115,43.54,43.54,0,0,0,79,118a19.42,19.42,0,0,0-2.29,1c-.75.37-1.52.73-2.27,1.11l-2.16,1.31-1.09.66c-.37.21-.69.5-1,.74l-2,1.54a8.62,8.62,0,0,0-1,.82l-.95.86c-.62.6-1.3,1.13-1.88,1.77l-1.74,1.92c-.28.32-.59.61-.84,1l-.76,1c-.5.68-1,1.35-1.51,2s-.88,1.44-1.32,2.15A20.3,20.3,0,0,0,56.9,138a39,39,0,0,0-2,4.54L54,144.88c-.24.79-.42,1.59-.63,2.38a43.59,43.59,0,0,0-.51,19,42.65,42.65,0,0,0,7.22,16.49,43.06,43.06,0,0,0,26.67,17.13l3.61.55c1.2.1,2.38.13,3.54.2a39.58,39.58,0,0,0,6.77-.34,43.11,43.11,0,0,0,11.71-3.34,43.89,43.89,0,0,0,8.78-5.29l-.14-.15v0a.11.11,0,0,0,0,.15l0,0Z" style="fill:#263238"></path><polygon points="78.51 161.28 83.07 156.31 92.61 164.1 109.92 145.97 114.55 150.55 92.32 173.32 78.51 161.28" style="fill:#FF725E"></polygon></g><g id="hot-air-balloon"><path d="M300.52,287.23c.14,0,.25.57.23,1.26s-.14,1.24-.29,1.24-.24-.56-.23-1.25S300.37,287.22,300.52,287.23Z" style="fill:#263238"></path><path d="M301.91,277.43a6.08,6.08,0,0,1-.21,2.48,6.15,6.15,0,0,1-.72,2.39,6.08,6.08,0,0,1,.21-2.48A6.19,6.19,0,0,1,301.91,277.43Z" style="fill:#263238"></path><path d="M305.1,268.06a6.08,6.08,0,0,1-.66,2.4,6.23,6.23,0,0,1-1.15,2.21,6,6,0,0,1,.66-2.4A6.18,6.18,0,0,1,305.1,268.06Z" style="fill:#263238"></path><path d="M310,259.46a6.38,6.38,0,0,1-1.11,2.23c-.72,1.15-1.42,2-1.54,1.95a6,6,0,0,1,1.1-2.23C309.18,260.25,309.87,259.37,310,259.46Z" style="fill:#263238"></path><path d="M316.45,252c.1.11-.58,1-1.52,2s-1.79,1.71-1.9,1.62.57-1,1.52-2S316.35,251.86,316.45,252Z" style="fill:#263238"></path><path d="M324.35,246c.08.13-.82.78-2,1.53a7.19,7.19,0,0,1-2.17,1.23c-.08-.12.73-.89,1.88-1.66A5.38,5.38,0,0,1,324.35,246Z" style="fill:#263238"></path><path d="M333.5,242.34a8.67,8.67,0,0,1-2.33.83,7.64,7.64,0,0,1-2.4.6,5.05,5.05,0,0,1,2.25-1.1A4.75,4.75,0,0,1,333.5,242.34Z" style="fill:#263238"></path><path d="M343,244.23a12,12,0,0,1-2.26-1,13.34,13.34,0,0,1-2.27-.95,4.13,4.13,0,0,1,2.48.47A4.21,4.21,0,0,1,343,244.23Z" style="fill:#263238"></path><path d="M347.3,252.67a18.37,18.37,0,0,1-.44-2.41,15.46,15.46,0,0,1-.62-2.37,3.91,3.91,0,0,1,1.13,2.26A3.78,3.78,0,0,1,347.3,252.67Z" style="fill:#263238"></path><path d="M341.11,259.65c0-.15,1-.52,2.13-1.21s1.94-1.44,2.05-1.34-.56,1-1.78,1.78A3.88,3.88,0,0,1,341.11,259.65Z" style="fill:#263238"></path><path d="M332.16,256.91c.12-.1.9.67,2,1.43s2.1,1.16,2.06,1.31a3.59,3.59,0,0,1-2.36-.89C332.7,258,332.06,257,332.16,256.91Z" style="fill:#263238"></path><path d="M328.8,247.8a10.3,10.3,0,0,1,.51,2.41,9.59,9.59,0,0,1,.38,2.44,6.94,6.94,0,0,1-.89-4.85Z" style="fill:#263238"></path><path d="M331.71,238.51a9.39,9.39,0,0,1-1.06,2.23,9.57,9.57,0,0,1-1.18,2.17,4.54,4.54,0,0,1,.72-2.4C330.82,239.26,331.6,238.42,331.71,238.51Z" style="fill:#263238"></path><path d="M339.28,232.27c.07.13-.88.71-2,1.43s-2.05,1.34-2.15,1.22.7-.92,1.87-1.66A4.93,4.93,0,0,1,339.28,232.27Z" style="fill:#263238"></path><path d="M348.78,229.6a7,7,0,0,1-2.4.65,7.49,7.49,0,0,1-2.46.3,5.23,5.23,0,0,1,2.37-.81A5.42,5.42,0,0,1,348.78,229.6Z" style="fill:#263238"></path><path d="M358.67,229a6.24,6.24,0,0,1-2.47.33,6.06,6.06,0,0,1-2.48-.18,6.23,6.23,0,0,1,2.46-.34A6,6,0,0,1,358.67,229Z" style="fill:#263238"></path><path d="M368.56,228.5a11.9,11.9,0,0,1-4.94.38,11.9,11.9,0,0,1,4.94-.38Z" style="fill:#263238"></path><path d="M378.12,226c0,.06-.2.23-.6.45l-.71.36-.92.31a6.11,6.11,0,0,1-2.45.49,6.1,6.1,0,0,1,2.28-1l.91-.26c.28-.1.53-.19.75-.25C377.8,226,378.09,226,378.12,226Z" style="fill:#263238"></path><path d="M386.15,220.32c.1.1-.58,1-1.63,1.89s-2,1.45-2.12,1.33.75-.84,1.78-1.72S386.05,220.22,386.15,220.32Z" style="fill:#263238"></path><path d="M391.76,212.21a5.18,5.18,0,0,1-.92,2.32c-.69,1.2-1.43,2.05-1.55,2a8,8,0,0,1,1.1-2.23A7.72,7.72,0,0,1,391.76,212.21Z" style="fill:#263238"></path><path d="M394.06,205.14c.14,0,.13.6,0,1.28s-.4,1.19-.54,1.15-.13-.61,0-1.27S393.92,205.11,394.06,205.14Z" style="fill:#263238"></path><path d="M376.58,167.25c-.13,0-4.21-12.12-9.11-27.17s-8.75-27.28-8.62-27.33,4.22,12.12,9.12,27.17S376.72,167.2,376.58,167.25Z" style="fill:#263238"></path><path d="M435.06,100.37c.14,0-3.21,15-7.48,33.5s-7.86,33.41-8,33.38,3.22-15,7.49-33.5S434.92,100.34,435.06,100.37Z" style="fill:#263238"></path><path d="M388.5,33.78s-35.4,6.82-40,40.24a52.12,52.12,0,0,0,6,31.54c6.54,12.28,19.66,29.28,43.32,33.35,0,0,27.53-5.49,39.43-46.17S410.35,31.42,388.5,33.78Z" style="fill:#FF725E"></path><g style="opacity:0.6000000000000001"><path d="M388.5,33.78s-39.63,17.13-27.15,59.87,36.42,45.26,36.42,45.26-13.11-14.54-18.73-39C373.55,76,376.35,50.23,388.5,33.78Z" style="fill:#fff"></path></g><g style="opacity:0.6000000000000001"><path d="M392.09,33.43S412.64,47.72,410,88.68s-12.26,50.23-12.26,50.23,14.85-4,22.88-27.37,8.52-38.43,2.71-51S403.46,34.61,392.09,33.43Z" style="fill:#fff"></path></g><path d="M351.06,80.13a2.79,2.79,0,0,1-.22-.93,18.61,18.61,0,0,1-.27-2.6A27.78,27.78,0,0,1,355,60.21a19.85,19.85,0,0,1,1.55-2.1c.4-.47.63-.72.66-.69s-.78,1.11-1.9,3A32,32,0,0,0,352,68.19a31.34,31.34,0,0,0-1.09,8.4C351,78.77,351.15,80.12,351.06,80.13Z" style="fill:#fff"></path><path d="M351.39,85.3c-.15,0-.26-.41-.42-.89s-.31-.88-.19-1,.5.23.68.81S351.53,85.31,351.39,85.3Z" style="fill:#fff"></path><path d="M362.07,78.07a7.52,7.52,0,0,1-.49-2.19,23,23,0,0,1-.09-5.41,23.58,23.58,0,0,1,1.14-5.3,6.93,6.93,0,0,1,.91-2A53.62,53.62,0,0,0,362,70.52,54,54,0,0,0,362.07,78.07Z" style="fill:#fff"></path><path d="M381.35,82.22a6.23,6.23,0,0,1-.61-1.91,22,22,0,0,1-.52-4.81,22.58,22.58,0,0,1,.51-4.8,6.1,6.1,0,0,1,.61-1.91,66.92,66.92,0,0,0-.6,6.71C380.73,79.23,381.51,82.18,381.35,82.22Z" style="fill:#fff"></path><path d="M412.7,79.62a17,17,0,0,1-.07-2.57,48.69,48.69,0,0,0-.47-6.15,47.89,47.89,0,0,0-1.25-6,19,19,0,0,1-.64-2.49,9.9,9.9,0,0,1,1,2.38A35.37,35.37,0,0,1,413,77.05,10.06,10.06,0,0,1,412.7,79.62Z" style="fill:#fff"></path><path d="M429.42,68.78a40.46,40.46,0,0,0-1.68-6.43,38.8,38.8,0,0,0-3.22-5.82A5.48,5.48,0,0,1,425.87,58a18.26,18.26,0,0,1,3.53,8.82A5.83,5.83,0,0,1,429.42,68.78Z" style="fill:#fff"></path><path d="M393.85,138a25.8,25.8,0,0,1-4.63-2,43.55,43.55,0,0,1-10.81-8.52,66.73,66.73,0,0,1-11.25-17c-.84-1.74-1.55-3.59-2.36-5.43s-1.41-3.83-2.08-5.82-1.27-4-1.81-6.13c-.25-1-.56-2.11-.77-3.19s-.43-2.16-.6-3.26a52.16,52.16,0,0,1-.44-13,45.65,45.65,0,0,1,2.72-11.79,48.64,48.64,0,0,1,11.19-17,60.36,60.36,0,0,1,10.8-8.56c1.39-.86,2.49-1.48,3.25-1.88l.87-.44a1.43,1.43,0,0,1,.3-.14,1.53,1.53,0,0,1-.28.18l-.84.49c-.74.43-1.82,1.08-3.19,2A63.74,63.74,0,0,0,373.27,45a48.7,48.7,0,0,0-11,16.92,45.21,45.21,0,0,0-2.66,11.67,51.16,51.16,0,0,0,.45,12.85c.16,1.09.4,2.16.59,3.24s.51,2.11.76,3.16c.54,2.08,1.21,4.1,1.8,6.1s1.38,3.9,2.05,5.79,1.51,3.68,2.34,5.41a67,67,0,0,0,11.08,17,44.3,44.3,0,0,0,10.64,8.59c1.41.8,2.56,1.33,3.34,1.68l.89.38Z" style="fill:#263238"></path><path d="M388.51,33.89a1.15,1.15,0,0,1-.14.25l-.45.72c-.39.64-1.05,1.53-1.76,2.76a63.4,63.4,0,0,0-5.06,10.87c-3.45,9.53-5.57,23.71-3.85,39.12a105.71,105.71,0,0,0,4.54,21.3,104.65,104.65,0,0,0,7,16.36,93.83,93.83,0,0,0,6.32,10.22c.82,1.16,1.5,2,2,2.62l.53.67.17.23s-.08-.06-.22-.2-.32-.35-.56-.64c-.49-.57-1.19-1.42-2-2.56a85.66,85.66,0,0,1-6.49-10.16,102,102,0,0,1-7.14-16.39,104.18,104.18,0,0,1-4.61-21.4c-1.73-15.48.47-29.75,4-39.29A60,60,0,0,1,386,37.51c.74-1.21,1.43-2.09,1.85-2.71l.5-.69Z" style="fill:#263238"></path><path d="M392.09,33.43a20.31,20.31,0,0,1,3.28,2.77A47.71,47.71,0,0,1,405.9,52.85a59.66,59.66,0,0,1,2.34,9A124.6,124.6,0,0,1,410.42,83a128.13,128.13,0,0,1-1.36,21.22,123.22,123.22,0,0,1-3.74,17c-.17.59-.34,1.17-.5,1.74s-.37,1.1-.54,1.63c-.35,1-.68,2-1,3-.69,1.84-1.27,3.43-1.79,4.71l-1.25,2.93-.34.75c-.07.17-.12.26-.13.25a1,1,0,0,1,.09-.27l.29-.77c.27-.72.66-1.71,1.16-3s1-2.89,1.7-4.73c.3-.94.62-1.93.95-3l.52-1.63c.16-.57.32-1.15.49-1.74a129.4,129.4,0,0,0,3.62-16.92A131.9,131.9,0,0,0,409.9,83a127,127,0,0,0-2.13-21.07A60.73,60.73,0,0,0,405.49,53a45.73,45.73,0,0,0-3.37-7.29,47,47,0,0,0-6.89-9.36c-1-1-1.75-1.71-2.3-2.19l-.63-.53A1.32,1.32,0,0,1,392.09,33.43Z" style="fill:#263238"></path><path d="M393.61,33.46l.31,0,.91.21c.4.1.9.21,1.48.38l2,.73a40,40,0,0,1,11.05,7.28,70.35,70.35,0,0,1,6.41,6.55,50.61,50.61,0,0,1,6.17,8.54A54.89,54.89,0,0,1,426.11,68a53,53,0,0,1,2,12.33,57.85,57.85,0,0,1-1.63,12.39c-.92,3.93-2,7.68-3.13,11.2a122.28,122.28,0,0,1-7.56,18.15,38.13,38.13,0,0,1-4.14,6.33,32.88,32.88,0,0,1-4,4.06c-1.19,1-2.18,1.74-2.84,2.22l-.77.54a1.93,1.93,0,0,1-.28.17,1.58,1.58,0,0,1,.25-.21l.73-.58c.65-.51,1.61-1.25,2.78-2.29a34.16,34.16,0,0,0,3.92-4.09,39.5,39.5,0,0,0,4.05-6.32,126.45,126.45,0,0,0,7.43-18.13c1.15-3.51,2.17-7.25,3.08-11.17a57.06,57.06,0,0,0,1.61-12.26,52.29,52.29,0,0,0-2-12.2,53.42,53.42,0,0,0-4.14-10.76,50.45,50.45,0,0,0-6.07-8.48,68.79,68.79,0,0,0-6.33-6.55A40.44,40.44,0,0,0,398.19,35l-1.92-.78-1.46-.41-.9-.27Z" style="fill:#263238"></path><path d="M361.09,92.79A4,4,0,0,1,359.58,94a9.15,9.15,0,0,1-4.49,1.1,9.29,9.29,0,0,1-4.47-1.2,4.06,4.06,0,0,1-1.48-1.22c.06-.07.62.39,1.65.89a10.31,10.31,0,0,0,4.3,1,10.46,10.46,0,0,0,4.33-.9C360.46,93.17,361,92.72,361.09,92.79Z" style="fill:#263238"></path><path d="M377.06,93.61a2.26,2.26,0,0,1-.38.67,8.41,8.41,0,0,1-1.45,1.51,9.55,9.55,0,0,1-12.75-.4,8.44,8.44,0,0,1-1.34-1.6c-.26-.42-.37-.67-.34-.69a27.77,27.77,0,0,0,1.93,2,10,10,0,0,0,6.07,2.39,10.08,10.08,0,0,0,6.21-2C376.38,94.47,377,93.55,377.06,93.61Z" style="fill:#263238"></path><path d="M409.85,91a5.9,5.9,0,0,1-1,1,23.62,23.62,0,0,1-3,2.33,25.54,25.54,0,0,1-24,2.3,22.74,22.74,0,0,1-3.37-1.71,6.5,6.5,0,0,1-1.13-.81c.06-.09,1.68,1.05,4.63,2.18A26.4,26.4,0,0,0,405.72,94C408.4,92.3,409.78,90.87,409.85,91Z" style="fill:#263238"></path><path d="M426.13,89.93s-.11.24-.41.58a9.42,9.42,0,0,1-1.44,1.32,10.77,10.77,0,0,1-12.2.45,9.66,9.66,0,0,1-1.53-1.21c-.32-.32-.47-.53-.45-.55s.78.66,2.17,1.44a11.46,11.46,0,0,0,6,1.47,11.58,11.58,0,0,0,5.84-1.9C425.4,90.64,426.06,89.86,426.13,89.93Z" style="fill:#263238"></path><path d="M437.22,87.18a3.4,3.4,0,0,1-1,1.39,7.59,7.59,0,0,1-7.68,1.77,3.41,3.41,0,0,1-1.48-.83,15.12,15.12,0,0,1,1.58.48,8.43,8.43,0,0,0,3.87,0A8.52,8.52,0,0,0,436,88.3C436.77,87.65,437.14,87.12,437.22,87.18Z" style="fill:#263238"></path><path d="M412.76,135.8c-.48-.86-1.67-.92-2.66-.88l-21.67,1L386,136a2.42,2.42,0,0,0-2.84,2.55,3.46,3.46,0,0,0,2.34,2.82,10.2,10.2,0,0,0,3.82.43l18.6-.28c1.67,0,3.63-.21,4.53-1.62a5.1,5.1,0,0,0,.51-2.82A2.6,2.6,0,0,0,412.76,135.8Z" style="fill:#FF725E"></path><path d="M411.23,135a3.85,3.85,0,0,1-1,.13l-2.82.16-9.32.41-9.3.45-2.83.12a3.91,3.91,0,0,1-1,0,3.72,3.72,0,0,1,1-.18c.66-.08,1.62-.18,2.81-.29,2.38-.21,5.67-.44,9.31-.6s6.94-.24,9.32-.26c1.2,0,2.16,0,2.83,0A3.74,3.74,0,0,1,411.23,135Z" style="fill:#263238"></path><path d="M371,159.62l2.26,26.56a1.81,1.81,0,0,0,1.84,1.65L423,186.71a1.79,1.79,0,0,0,1.75-1.84l-.48-20.71a1.81,1.81,0,0,0-1.85-1.76l-29.45.88a1.79,1.79,0,0,1-1.28-.49l-5.24-4.92a1.81,1.81,0,0,0-1.27-.49l-12.42.29A1.81,1.81,0,0,0,371,159.62Z" style="fill:#FF725E"></path><g style="opacity:0.30000000000000004"><path d="M371,159.62l2.26,26.56a1.81,1.81,0,0,0,1.84,1.65L423,186.71a1.79,1.79,0,0,0,1.75-1.84l-.48-20.71a1.81,1.81,0,0,0-1.85-1.76l-29.45.88a1.79,1.79,0,0,1-1.28-.49l-5.24-4.92a1.81,1.81,0,0,0-1.27-.49l-12.42.29A1.81,1.81,0,0,0,371,159.62Z"></path></g><path d="M378.73,189.23c-.69-4.32-2.94-20.64-3.6-25.45a1.22,1.22,0,0,1,1.17-1.39l46.92-1.76a1.23,1.23,0,0,1,1.27,1.35L422,189a1.23,1.23,0,0,1-1.23,1.12l-40.76.19A1.23,1.23,0,0,1,378.73,189.23Z" style="fill:#e0e0e0"></path><path d="M375.93,191.24c-.68-4.21-3-20.87-3.63-25.61a1.15,1.15,0,0,1,1.11-1.29l47.06-1.22a1.14,1.14,0,0,1,1.17,1.25L419.13,191a1.15,1.15,0,0,1-1.14,1l-40.92.19A1.15,1.15,0,0,1,375.93,191.24Z" style="fill:#f5f5f5"></path><path d="M368,167.66l4.73,31.51a1.14,1.14,0,0,0,1.17,1l51-1.19a1.13,1.13,0,0,0,1.13-1.06l1.83-31.66a1.13,1.13,0,0,0-1.18-1.18l-57.55,1.34A1.13,1.13,0,0,0,368,167.66Z" style="fill:#FF725E"></path><polygon points="409.17 185.25 388.13 185.64 387.43 178.06 409.32 177.66 409.17 185.25" style="fill:#fafafa"></polygon><path d="M409.17,185.25v-.53c0-.4,0-.9,0-1.51,0-1.37,0-3.24.07-5.56l.07.07-21.47.43h-.42l.1-.11c.25,2.64.48,5.2.7,7.58l-.1-.09,15.06-.23,4.39-.06h1.59l-.39,0-1.16,0-4.37.11-15.12.33H388v-.09c-.22-2.38-.46-4.94-.71-7.58V178h.54l21.47-.36h.07v.08c-.06,2.33-.11,4.22-.15,5.59,0,.61,0,1.1,0,1.49S409.17,185.25,409.17,185.25Z" style="fill:#263238"></path><path d="M406.5,180.91c0,.06-3.5.2-7.82.33s-7.83.17-7.83.11,3.5-.2,7.82-.32S406.49,180.85,406.5,180.91Z" style="fill:#263238"></path><path d="M406.76,182.52c0,.06-3.51.2-7.83.33s-7.82.17-7.82.11,3.5-.2,7.82-.32S406.75,182.46,406.76,182.52Z" style="fill:#263238"></path><path d="M367.9,167.07l-.16-1.51a1.19,1.19,0,0,1,1.17-1.31l13.46-.19a1.18,1.18,0,0,1,1.16.84l.62,2Z" style="fill:#FF725E"></path></g></svg>