<svg xmlns="http://www.w3.org/2000/svg" viewBox="0 0 500 500"><g id="Floor"><path d="M409,259.73c-88.41-51-231.28-51-319.12,0S2.55,393.54,91,444.58s231.28,51,319.12,0S497.45,310.78,409,259.73Z" style="fill:#f5f5f5"></path></g><g id="Shadows"><path d="M118.18,360.23c25.92-15,67.8-15,93.54,0,22.75,13.22,25.28,33.69,7.69,48.6,14.19-.88,28.9,1.83,39.74,8.13,19,11.06,18.93,29-.22,40s-50.1,11.06-69.13,0c-15.13-8.8-18.15-21.94-9.11-32.52-21.82,3.16-45.83-.2-62.81-10.07C92.13,399.45,92.27,375.19,118.18,360.23Z" style="fill:#e0e0e0"></path><path d="M190.79,286.63l64.48-37.23a5,5,0,0,1,5,0l4.18,2.41a2.13,2.13,0,0,1,0,3.68l-64.24,37.4a5,5,0,0,1-5,0l-4.39-2.58A2.12,2.12,0,0,1,190.79,286.63Z" style="fill:#e0e0e0"></path><path d="M214,316l139.53,80.56a10.38,10.38,0,0,0,9.43,0L451.52,345a3.45,3.45,0,0,0,1.93-2.5c.1-1.07-.55-2.15-2-3L312,259a10.36,10.36,0,0,0-9.42,0L214,310.49A3.38,3.38,0,0,0,212,313.1v.19A3.35,3.35,0,0,0,214,316Z" style="fill:#e0e0e0"></path><path d="M70.78,352.53c-6.21-3.59-16.23-3.58-22.4,0s-6.13,9.39.07,13,16.24,3.58,22.4,0S77,356.11,70.78,352.53Z" style="fill:#e0e0e0"></path><path d="M436.12,398.19c-6.21-3.58-16.23-3.58-22.4,0s-6.13,9.4.08,13,16.23,3.58,22.39,0S442.32,401.78,436.12,398.19Z" style="fill:#e0e0e0"></path></g><g id="Window"><polygon points="140.16 83.74 144.73 81.14 145.02 208.75 145.01 208.76 108.19 229.78 108.17 224.55 107.9 102.17 140.16 83.74" style="fill:#f0f0f0"></polygon><polygon points="140.44 206.13 140.16 83.74 144.73 81.14 145.02 208.75 145.01 208.76 140.42 206.14 140.44 206.13" style="opacity:0.1"></polygon><polygon points="108.17 224.55 140.42 206.14 145.01 208.76 108.19 229.78 108.17 224.55" style="opacity:0.2"></polygon><polygon points="190.07 54.76 194.64 52.15 194.92 179.77 194.91 179.78 158.09 200.8 158.08 195.57 157.8 73.19 190.07 54.76" style="fill:#f0f0f0"></polygon><polygon points="190.34 177.15 190.07 54.76 194.64 52.15 194.92 179.77 194.91 179.78 190.32 177.16 190.34 177.15" style="opacity:0.1"></polygon><polygon points="158.08 195.57 190.32 177.16 194.91 179.78 158.09 200.8 158.08 195.57" style="opacity:0.2"></polygon><polygon points="89.78 112.51 94.35 109.9 94.63 237.52 94.62 237.53 57.8 258.55 57.78 253.32 57.51 130.94 89.78 112.51" style="fill:#f0f0f0"></polygon><polygon points="90.05 234.9 89.78 112.51 94.35 109.9 94.63 237.52 94.62 237.53 90.03 234.91 90.05 234.9" style="opacity:0.1"></polygon><polygon points="57.78 253.32 90.03 234.91 94.62 237.53 57.8 258.55 57.78 253.32" style="opacity:0.2"></polygon></g><g id="Lines"><rect x="227.63" y="151.4" width="0.92" height="1.38" style="fill:#BA68C8"></rect><path d="M375.78,189.41h-.92v-2.74h.92Zm0-4.56h-.92v-2.74h.92Zm0-4.56h-.92v-2.74h.92Zm0-4.57h-.92V173h.92Zm0-4.56h-.92v-2.73h.92Zm0-4.56h-.92v-2.73h.92Zm0-4.56h-.92V159.3h.92Zm0-4.56h-.92v-2.74h.92Zm0-4.56h-.92v-2.74h.92Zm-147.23-3.35h-.92v-2.73h.92Zm147.23-1.21h-.92v-2.74h.92ZM228.55,145h-.92v-2.73h.92Zm147.23-1.21h-.92v-2.74h.92Zm-147.23-3.35h-.92v-2.74h.92Zm147.23-1.22h-.92V136.5h.92Zm-147.23-3.34h-.92v-2.74h.92Zm147.23-1.22h-.92v-2.73h.92Zm-147.23-3.34h-.92v-2.74h.92Zm147.23-1.22h-.92v-1.29a6.79,6.79,0,0,0-.13-1.35l.9-.18a7.78,7.78,0,0,1,.15,1.53Zm-147.23-3.34h-.92V124h.92Zm145.64-.91a6.69,6.69,0,0,0-1.51-2.06l.63-.67a7.72,7.72,0,0,1,1.71,2.33Zm-2.89-3.07-2.37-1.37.45-.79,2.37,1.36Zm-142.75-.58h-.92v-2.74h.92Zm138.8-1.7L365,119.14l.45-.79,2.37,1.36Zm-4-2.28L361,116.86l.45-.8,2.37,1.37Zm-134.85-.59h-.92v-2.73h.92ZM359.45,116l-2.37-1.37.45-.8,2.37,1.37Zm-3.95-2.28-2.38-1.37.46-.8,2.37,1.37Zm-126.95-.59h-.92v-2.73h.92Zm123-1.7L349.17,110l.46-.8,2.37,1.37Zm-4-2.28-2.37-1.36.46-.8,2.37,1.37Zm-119-.58h-.92v-2.74h.92Zm115.09-1.7-2.37-1.36.46-.8L344.1,106Zm-3.95-2.28-2.37-1.37.46-.79,2.37,1.37ZM228.55,104h-.92v-2.74h.92Zm107.19-1.7-2.37-1.37.46-.79,2.37,1.37ZM331.79,100l-2.37-1.37.46-.79,2.37,1.37ZM228.55,99.4h-.92V96.66h.92Zm99.29-1.7-2.37-1.37.46-.79,2.37,1.37Zm-3.95-2.28-2.37-1.37.46-.79,2.37,1.37Zm-95.34-.58h-.92V92.1h.92Zm91.39-1.7-2.37-1.37L318,91l2.37,1.37ZM316,90.86l-2.37-1.37.46-.79,2.37,1.37Zm-87.44-.58h-.92V87.54h.92ZM312,88.58l-2.37-1.37.46-.79,2.37,1.36Zm-4-2.28-2.37-1.37.46-.79,2.37,1.36Zm-79.54-.58h-.92V83h.92ZM304.14,84l-2.37-1.37.46-.8,2.37,1.37Zm-3.95-2.28-2.37-1.37.46-.8,2.37,1.37Zm-71.64-.59h-.92V78.42h.92Zm67.69-1.69-2.37-1.37.46-.8,2.37,1.37Zm-3.95-2.28-2.37-1.37.46-.8,2.37,1.37Zm-63.74-.59h-.92V73.86h.92Zm59.79-1.7L286,73.53l.46-.8,2.37,1.37Zm-3.95-2.28L282,71.25l.46-.8,2.37,1.37ZM228.55,72h-.92V69.29h.92Zm51.89-1.7L278.07,69l.46-.79,2.37,1.37Zm-3.95-2.28-2.37-1.37.46-.79L277,67.26Zm-47.94-.58h-.92V64.73h.92Zm44-1.7-2.37-1.37.46-.79L273,65Zm-4-2.28-2.37-1.37.46-.79,2.37,1.37Zm-40-.58h-.92V60.17h.92Zm36.09-1.7-2.37-1.37.46-.79,2.37,1.37Zm-3.95-2.28-2.37-1.37.46-.79,2.37,1.37Zm-32.14-.58h-.92V55.61h.92Zm28.19-1.7-2.37-1.37.46-.79,2.37,1.36Zm-4-2.28L250.42,53l.46-.79,2.37,1.36Zm-24.24-.58h-.92V51.05h.92Zm20.29-1.7-2.37-1.37.46-.79,2.37,1.36Zm-4-2.28-2.37-1.37.46-.8L245.35,49Zm-16.34-.59h-.92V46.49h.92Zm12.39-1.69-2.37-1.37.46-.8,2.37,1.37ZM237,45.25l-2.37-1.37.46-.8,2.37,1.37Zm-8.44-.59h-.92v-.32a3.22,3.22,0,0,1,1.16-2.47l.59.71a2.23,2.23,0,0,0-.83,1.76ZM233,43l-1-.61a2.22,2.22,0,0,0-1.14-.31l-.11-.92h.11a3.25,3.25,0,0,1,1.6.43l1.05.61Z" style="fill:#BA68C8"></path><rect x="374.86" y="191.26" width="0.92" height="1.38" style="fill:#BA68C8"></rect><g style="opacity:0.5"><rect x="227.63" y="151.4" width="0.92" height="1.38" style="fill:#fff"></rect><path d="M375.78,189.41h-.92v-2.74h.92Zm0-4.56h-.92v-2.74h.92Zm0-4.56h-.92v-2.74h.92Zm0-4.57h-.92V173h.92Zm0-4.56h-.92v-2.73h.92Zm0-4.56h-.92v-2.73h.92Zm0-4.56h-.92V159.3h.92Zm0-4.56h-.92v-2.74h.92Zm0-4.56h-.92v-2.74h.92Zm-147.23-3.35h-.92v-2.73h.92Zm147.23-1.21h-.92v-2.74h.92ZM228.55,145h-.92v-2.73h.92Zm147.23-1.21h-.92v-2.74h.92Zm-147.23-3.35h-.92v-2.74h.92Zm147.23-1.22h-.92V136.5h.92Zm-147.23-3.34h-.92v-2.74h.92Zm147.23-1.22h-.92v-2.73h.92Zm-147.23-3.34h-.92v-2.74h.92Zm147.23-1.22h-.92v-1.29a6.79,6.79,0,0,0-.13-1.35l.9-.18a7.78,7.78,0,0,1,.15,1.53Zm-147.23-3.34h-.92V124h.92Zm145.64-.91a6.69,6.69,0,0,0-1.51-2.06l.63-.67a7.72,7.72,0,0,1,1.71,2.33Zm-2.89-3.07-2.37-1.37.45-.79,2.37,1.36Zm-142.75-.58h-.92v-2.74h.92Zm138.8-1.7L365,119.14l.45-.79,2.37,1.36Zm-4-2.28L361,116.86l.45-.8,2.37,1.37Zm-134.85-.59h-.92v-2.73h.92ZM359.45,116l-2.37-1.37.45-.8,2.37,1.37Zm-3.95-2.28-2.38-1.37.46-.8,2.37,1.37Zm-126.95-.59h-.92v-2.73h.92Zm123-1.7L349.17,110l.46-.8,2.37,1.37Zm-4-2.28-2.37-1.36.46-.8,2.37,1.37Zm-119-.58h-.92v-2.74h.92Zm115.09-1.7-2.37-1.36.46-.8L344.1,106Zm-3.95-2.28-2.37-1.37.46-.79,2.37,1.37ZM228.55,104h-.92v-2.74h.92Zm107.19-1.7-2.37-1.37.46-.79,2.37,1.37ZM331.79,100l-2.37-1.37.46-.79,2.37,1.37ZM228.55,99.4h-.92V96.66h.92Zm99.29-1.7-2.37-1.37.46-.79,2.37,1.37Zm-3.95-2.28-2.37-1.37.46-.79,2.37,1.37Zm-95.34-.58h-.92V92.1h.92Zm91.39-1.7-2.37-1.37L318,91l2.37,1.37ZM316,90.86l-2.37-1.37.46-.79,2.37,1.37Zm-87.44-.58h-.92V87.54h.92ZM312,88.58l-2.37-1.37.46-.79,2.37,1.36Zm-4-2.28-2.37-1.37.46-.79,2.37,1.36Zm-79.54-.58h-.92V83h.92ZM304.14,84l-2.37-1.37.46-.8,2.37,1.37Zm-3.95-2.28-2.37-1.37.46-.8,2.37,1.37Zm-71.64-.59h-.92V78.42h.92Zm67.69-1.69-2.37-1.37.46-.8,2.37,1.37Zm-3.95-2.28-2.37-1.37.46-.8,2.37,1.37Zm-63.74-.59h-.92V73.86h.92Zm59.79-1.7L286,73.53l.46-.8,2.37,1.37Zm-3.95-2.28L282,71.25l.46-.8,2.37,1.37ZM228.55,72h-.92V69.29h.92Zm51.89-1.7L278.07,69l.46-.79,2.37,1.37Zm-3.95-2.28-2.37-1.37.46-.79L277,67.26Zm-47.94-.58h-.92V64.73h.92Zm44-1.7-2.37-1.37.46-.79L273,65Zm-4-2.28-2.37-1.37.46-.79,2.37,1.37Zm-40-.58h-.92V60.17h.92Zm36.09-1.7-2.37-1.37.46-.79,2.37,1.37Zm-3.95-2.28-2.37-1.37.46-.79,2.37,1.37Zm-32.14-.58h-.92V55.61h.92Zm28.19-1.7-2.37-1.37.46-.79,2.37,1.36Zm-4-2.28L250.42,53l.46-.79,2.37,1.36Zm-24.24-.58h-.92V51.05h.92Zm20.29-1.7-2.37-1.37.46-.79,2.37,1.36Zm-4-2.28-2.37-1.37.46-.8L245.35,49Zm-16.34-.59h-.92V46.49h.92Zm12.39-1.69-2.37-1.37.46-.8,2.37,1.37ZM237,45.25l-2.37-1.37.46-.8,2.37,1.37Zm-8.44-.59h-.92v-.32a3.22,3.22,0,0,1,1.16-2.47l.59.71a2.23,2.23,0,0,0-.83,1.76ZM233,43l-1-.61a2.22,2.22,0,0,0-1.14-.31l-.11-.92h.11a3.25,3.25,0,0,1,1.6.43l1.05.61Z" style="fill:#fff"></path><rect x="374.86" y="191.26" width="0.92" height="1.38" style="fill:#fff"></rect></g><path d="M385.5,181.57h-1V144.38a7.51,7.51,0,0,0-3.75-6.49L227.15,49.26a2.49,2.49,0,0,0-3.74,2.17v93.75h-1V51.43a3.49,3.49,0,0,1,5.24-3L381.25,137a8.53,8.53,0,0,1,4.25,7.36Z" style="fill:#BA68C8"></path><g style="opacity:0.30000000000000004"><path d="M385.5,181.57h-1V144.38a7.51,7.51,0,0,0-3.75-6.49L227.15,49.26a2.49,2.49,0,0,0-3.74,2.17v93.75h-1V51.43a3.49,3.49,0,0,1,5.24-3L381.25,137a8.53,8.53,0,0,1,4.25,7.36Z" style="fill:#fff"></path></g><rect x="218.47" y="139.91" width="1" height="1.5" style="fill:#BA68C8"></rect><path d="M380,181.35h-1v-3h1Zm0-5h-1v-3h1Zm0-5h-1v-3h1Zm0-5h-1v-3h1Zm0-5h-1v-3h1Zm0-5h-1v-3h1Zm0-5h-1v-3h1Zm-1.07-4.9A7.75,7.75,0,0,0,378,144l.87-.49a8.38,8.38,0,0,1,1,3Zm-2-4.12a7.32,7.32,0,0,0-1.68-1.31l-.61-.36.5-.86.61.35a8.28,8.28,0,0,1,1.9,1.49Zm-4-2.66-2.58-1.49.5-.87L373.4,139Zm-153.43-1.93h-1v-3h1Zm149.12-.56L366,135.87l.5-.86,2.58,1.49Zm-4.3-2.48-2.58-1.49.5-.87,2.58,1.49ZM219.47,133h-1v-3h1ZM360,132.39l-2.59-1.49.5-.86,2.59,1.49Zm-4.31-2.48-2.58-1.49.5-.87,2.58,1.49ZM219.47,128h-1v-3h1Zm131.91-.56-2.59-1.49.5-.86,2.59,1.49Zm-4.31-2.48-2.58-1.49.5-.87,2.58,1.49ZM219.47,123h-1v-3h1Zm123.3-.56L340.18,121l.5-.86,2.59,1.49ZM338.46,120l-2.58-1.49.5-.87L339,119.1Zm-119-1.93h-1v-3h1Zm114.69-.56L331.58,116l.5-.86,2.58,1.49ZM329.85,115l-2.58-1.49.5-.87,2.58,1.49Zm-110.38-1.93h-1v-3h1Zm106.08-.56L323,111l.5-.87,2.58,1.5ZM321.24,110l-2.58-1.49.5-.87,2.58,1.49ZM219.47,108.1h-1v-3h1Zm97.47-.56-2.58-1.49.5-.87,2.58,1.5Zm-4.3-2.48-2.59-1.49.5-.87,2.59,1.49Zm-93.17-1.93h-1v-3h1Zm88.86-.56-2.58-1.49.5-.87,2.58,1.49Zm-4.3-2.48-2.59-1.5.5-.86,2.59,1.49Zm-84.56-1.93h-1v-3h1Zm80.25-.56-2.58-1.49.5-.87,2.58,1.49Zm-4.3-2.48-2.59-1.5.5-.86,2.59,1.49Zm-76-1.93h-1v-3h1Zm71.64-.56-2.58-1.49.5-.87,2.58,1.49Zm-4.3-2.49-2.58-1.49.5-.86,2.58,1.49Zm-67.34-1.92h-1v-3h1Zm63-.56-2.58-1.49.5-.87L283,86.79Zm-4.3-2.49-2.58-1.49.5-.86,2.58,1.49Zm-58.73-1.92h-1v-3h1Zm54.42-.56-2.58-1.49.5-.87,2.58,1.49Zm-4.3-2.49L267,78.71l.5-.86,2.58,1.49Zm-50.12-1.92h-1v-3h1Zm45.82-.56-2.59-1.49.5-.87,2.59,1.49ZM261,75.23l-2.58-1.49.5-.86,2.58,1.49Zm-41.51-1.92h-1v-3h1Zm37.21-.56-2.59-1.49.5-.87,2.59,1.49Zm-4.31-2.49-2.58-1.49.5-.86,2.58,1.49Zm-32.9-1.92h-1v-3h1Zm28.6-.56-2.59-1.49.5-.87,2.59,1.49Zm-4.31-2.49-2.58-1.49.5-.87,2.58,1.5Zm-24.29-1.92h-1v-3h1Zm20-.56-2.59-1.49.5-.87L240,61.94Zm-4.31-2.49-2.58-1.49.5-.87,2.58,1.5Zm-15.68-1.93h-1V55.6a1.7,1.7,0,0,1,0-.22l1,.06v3Zm11.38-.55-2.58-1.49.5-.87L231.35,57Zm-4.31-2.49L224,53.86l.5-.87L227,54.48Zm-6.45-1.41-.74-.66A3.49,3.49,0,0,1,222,52.09h0a4.38,4.38,0,0,1,.5,0l-.14,1-.36,0h0A2.53,2.53,0,0,0,220.09,53.94Z" style="fill:#BA68C8"></path><rect x="378.98" y="183.36" width="1" height="1.5" style="fill:#BA68C8"></rect><g style="opacity:0.5"><rect x="218.47" y="139.91" width="1" height="1.5" style="fill:#fff"></rect><path d="M380,181.35h-1v-3h1Zm0-5h-1v-3h1Zm0-5h-1v-3h1Zm0-5h-1v-3h1Zm0-5h-1v-3h1Zm0-5h-1v-3h1Zm0-5h-1v-3h1Zm-1.07-4.9A7.75,7.75,0,0,0,378,144l.87-.49a8.38,8.38,0,0,1,1,3Zm-2-4.12a7.32,7.32,0,0,0-1.68-1.31l-.61-.36.5-.86.61.35a8.28,8.28,0,0,1,1.9,1.49Zm-4-2.66-2.58-1.49.5-.87L373.4,139Zm-153.43-1.93h-1v-3h1Zm149.12-.56L366,135.87l.5-.86,2.58,1.49Zm-4.3-2.48-2.58-1.49.5-.87,2.58,1.49ZM219.47,133h-1v-3h1ZM360,132.39l-2.59-1.49.5-.86,2.59,1.49Zm-4.31-2.48-2.58-1.49.5-.87,2.58,1.49ZM219.47,128h-1v-3h1Zm131.91-.56-2.59-1.49.5-.86,2.59,1.49Zm-4.31-2.48-2.58-1.49.5-.87,2.58,1.49ZM219.47,123h-1v-3h1Zm123.3-.56L340.18,121l.5-.86,2.59,1.49ZM338.46,120l-2.58-1.49.5-.87L339,119.1Zm-119-1.93h-1v-3h1Zm114.69-.56L331.58,116l.5-.86,2.58,1.49ZM329.85,115l-2.58-1.49.5-.87,2.58,1.49Zm-110.38-1.93h-1v-3h1Zm106.08-.56L323,111l.5-.87,2.58,1.5ZM321.24,110l-2.58-1.49.5-.87,2.58,1.49ZM219.47,108.1h-1v-3h1Zm97.47-.56-2.58-1.49.5-.87,2.58,1.5Zm-4.3-2.48-2.59-1.49.5-.87,2.59,1.49Zm-93.17-1.93h-1v-3h1Zm88.86-.56-2.58-1.49.5-.87,2.58,1.49Zm-4.3-2.48-2.59-1.5.5-.86,2.59,1.49Zm-84.56-1.93h-1v-3h1Zm80.25-.56-2.58-1.49.5-.87,2.58,1.49Zm-4.3-2.48-2.59-1.5.5-.86,2.59,1.49Zm-76-1.93h-1v-3h1Zm71.64-.56-2.58-1.49.5-.87,2.58,1.49Zm-4.3-2.49-2.58-1.49.5-.86,2.58,1.49Zm-67.34-1.92h-1v-3h1Zm63-.56-2.58-1.49.5-.87L283,86.79Zm-4.3-2.49-2.58-1.49.5-.86,2.58,1.49Zm-58.73-1.92h-1v-3h1Zm54.42-.56-2.58-1.49.5-.87,2.58,1.49Zm-4.3-2.49L267,78.71l.5-.86,2.58,1.49Zm-50.12-1.92h-1v-3h1Zm45.82-.56-2.59-1.49.5-.87,2.59,1.49ZM261,75.23l-2.58-1.49.5-.86,2.58,1.49Zm-41.51-1.92h-1v-3h1Zm37.21-.56-2.59-1.49.5-.87,2.59,1.49Zm-4.31-2.49-2.58-1.49.5-.86,2.58,1.49Zm-32.9-1.92h-1v-3h1Zm28.6-.56-2.59-1.49.5-.87,2.59,1.49Zm-4.31-2.49-2.58-1.49.5-.87,2.58,1.5Zm-24.29-1.92h-1v-3h1Zm20-.56-2.59-1.49.5-.87L240,61.94Zm-4.31-2.49-2.58-1.49.5-.87,2.58,1.5Zm-15.68-1.93h-1V55.6a1.7,1.7,0,0,1,0-.22l1,.06v3Zm11.38-.55-2.58-1.49.5-.87L231.35,57Zm-4.31-2.49L224,53.86l.5-.87L227,54.48Zm-6.45-1.41-.74-.66A3.49,3.49,0,0,1,222,52.09h0a4.38,4.38,0,0,1,.5,0l-.14,1-.36,0h0A2.53,2.53,0,0,0,220.09,53.94Z" style="fill:#fff"></path><rect x="378.98" y="183.36" width="1" height="1.5" style="fill:#fff"></rect></g></g><g id="device-2"><path d="M448.32,329.8a3.06,3.06,0,0,0-1.87-2.83l-133.6-77.14a9.92,9.92,0,0,0-9,0L219,299.12a3.2,3.2,0,0,0-1.84,2.5s0,0,0,0v8.06a3.11,3.11,0,0,0,1.87,2.71l133.61,77.14a9.92,9.92,0,0,0,9,0l84.81-49.29a3.24,3.24,0,0,0,1.85-2.5h0v-8Z" style="fill:#37474f"></path><path d="M309.65,273.77a.58.58,0,0,1,0,1.1l-5.54,3.22a2.09,2.09,0,0,1-1.9,0l-16.72-9.65a.59.59,0,0,1,0-1.11l5.54-3.21a2.09,2.09,0,0,1,1.9,0Z" style="fill:#455a64"></path><path d="M307.53,262.58a.59.59,0,0,1,0,1.11L302,266.9a2.06,2.06,0,0,1-1.9,0l-6-3.46c-.52-.31-.53-.8,0-1.1l5.54-3.22a2.09,2.09,0,0,1,1.9,0Z" style="fill:#455a64"></path><path d="M332.43,269.7a.58.58,0,0,1,0,1.1l-3.2,1.86a2.11,2.11,0,0,1-1.91,0l-6-3.46a.59.59,0,0,1,0-1.11l3.2-1.86a2.12,2.12,0,0,1,1.9,0Z" style="fill:#455a64"></path><path d="M326.16,273.34c.53.3.54.8,0,1.1l-5.53,3.22a2.14,2.14,0,0,1-1.91,0l-6-3.47c-.53-.3-.53-.79,0-1.1l5.53-3.21a2.06,2.06,0,0,1,1.9,0Z" style="fill:#455a64"></path><path d="M341.74,275.07c.53.31.54.8,0,1.1l-3.2,1.87a2.12,2.12,0,0,1-1.9,0l-6-3.47a.58.58,0,0,1,0-1.1l3.2-1.86a2.06,2.06,0,0,1,1.9,0Z" style="fill:#455a64"></path><path d="M335.48,278.72a.58.58,0,0,1,0,1.1L330,283a2.08,2.08,0,0,1-1.91,0l-6-3.46a.58.58,0,0,1,0-1.1l5.53-3.22a2.12,2.12,0,0,1,1.9,0Z" style="fill:#455a64"></path><path d="M316.85,268c.53.31.53.8,0,1.1l-5.53,3.22a2.06,2.06,0,0,1-1.9,0l-6-3.46c-.53-.31-.54-.8,0-1.11l5.53-3.21a2.08,2.08,0,0,1,1.91,0Z" style="fill:#455a64"></path><path d="M313.8,258.94c.53.31.53.8,0,1.1l-3.2,1.86a2.08,2.08,0,0,1-1.91,0l-6-3.46a.58.58,0,0,1,0-1.1l3.2-1.86a2.06,2.06,0,0,1,1.9,0Z" style="fill:#455a64"></path><path d="M323.12,264.32c.53.3.53.79,0,1.1l-3.2,1.86a2.06,2.06,0,0,1-1.9,0l-6-3.46c-.53-.31-.53-.8,0-1.1l3.2-1.87a2.14,2.14,0,0,1,1.91,0Z" style="fill:#455a64"></path><path d="M354.11,289.47c.52.31.53.8,0,1.1l-5.53,3.22a2.11,2.11,0,0,1-1.91,0l-6-3.46a.59.59,0,0,1,0-1.11L346.2,286a2.06,2.06,0,0,1,1.9,0Z" style="fill:#455a64"></path><path d="M363.42,294.85c.53.3.53.79,0,1.1l-5.53,3.22a2.12,2.12,0,0,1-1.9,0l-6-3.47a.58.58,0,0,1,0-1.1l5.53-3.22a2.14,2.14,0,0,1,1.91,0Z" style="fill:#455a64"></path><path d="M369.69,291.2a.59.59,0,0,1,0,1.11l-3.2,1.86a2.12,2.12,0,0,1-1.9,0l-6-3.47a.58.58,0,0,1,0-1.1l3.2-1.86a2.11,2.11,0,0,1,1.91,0Z" style="fill:#455a64"></path><path d="M360.38,285.83a.58.58,0,0,1,0,1.1l-3.2,1.86a2.06,2.06,0,0,1-1.9,0l-6-3.46c-.52-.31-.53-.8,0-1.1l3.2-1.87a2.12,2.12,0,0,1,1.9,0Z" style="fill:#455a64"></path><path d="M351.06,280.45c.53.31.53.8,0,1.1l-3.21,1.86a2.06,2.06,0,0,1-1.9,0L340,280c-.53-.31-.53-.8,0-1.1l3.21-1.86a2.06,2.06,0,0,1,1.9,0Z" style="fill:#455a64"></path><path d="M333.41,297.45a.58.58,0,0,1,0,1.1l-5.53,3.22a2.06,2.06,0,0,1-1.9,0l-6-3.46c-.53-.31-.54-.8,0-1.11L325.5,294a2.11,2.11,0,0,1,1.91,0Z" style="fill:#455a64"></path><path d="M346.46,295a.58.58,0,0,1,0,1.1l-5.53,3.22a2.06,2.06,0,0,1-1.9,0l-6-3.46c-.53-.31-.54-.8,0-1.11l5.54-3.21a2.09,2.09,0,0,1,1.9,0Z" style="fill:#455a64"></path><path d="M434.89,328.85a.58.58,0,0,1,0,1.1l-3.2,1.86a2.06,2.06,0,0,1-1.9,0l-6-3.46c-.53-.31-.54-.8,0-1.11l3.2-1.86a2.12,2.12,0,0,1,1.9,0Z" style="fill:#455a64"></path><path d="M300.24,299.19c.53.31.53.8,0,1.1l-5.54,3.22a2.06,2.06,0,0,1-1.9,0l-6-3.46a.59.59,0,0,1,0-1.11l5.54-3.21a2.06,2.06,0,0,1,1.9,0Z" style="fill:#455a64"></path><path d="M356.12,331.46a.58.58,0,0,1,0,1.1l-5.53,3.21a2.08,2.08,0,0,1-1.91,0l-6-3.46a.58.58,0,0,1,0-1.1l5.53-3.22a2.12,2.12,0,0,1,1.9,0Z" style="fill:#455a64"></path><path d="M372.73,300.23a.58.58,0,0,1,0,1.1l-5.54,3.22a2.12,2.12,0,0,1-1.9,0l-6-3.47c-.53-.31-.53-.8,0-1.1l5.54-3.22a2.12,2.12,0,0,1,1.9,0Z" style="fill:#455a64"></path><path d="M355.66,300.33a.58.58,0,0,1,0,1.1l-5.54,3.22a2.12,2.12,0,0,1-1.9,0l-6-3.47c-.53-.3-.53-.79,0-1.1l5.53-3.21a2.11,2.11,0,0,1,1.91,0Z" style="fill:#455a64"></path><path d="M388.32,302a.58.58,0,0,1,0,1.1l-3.2,1.86a2.06,2.06,0,0,1-1.9,0l-6-3.46c-.53-.31-.53-.8,0-1.1l3.2-1.86a2.08,2.08,0,0,1,1.91,0Z" style="fill:#455a64"></path><path d="M342.44,302.66a.59.59,0,0,1,0,1.11L336.91,307a2.06,2.06,0,0,1-1.9,0l-6-3.46c-.53-.31-.53-.8,0-1.1l5.54-3.22a2.09,2.09,0,0,1,1.9,0Z" style="fill:#455a64"></path><path d="M328.88,305.27a.59.59,0,0,1,0,1.11l-5.54,3.22a2.12,2.12,0,0,1-1.9,0l-6-3.47a.58.58,0,0,1,0-1.1l5.54-3.22a2.09,2.09,0,0,1,1.9,0Z" style="fill:#455a64"></path><path d="M382.05,305.6a.59.59,0,0,1,0,1.11l-5.53,3.21a2.06,2.06,0,0,1-1.9,0l-6-3.46c-.53-.31-.54-.8,0-1.1l5.53-3.22a2.08,2.08,0,0,1,1.91,0Z" style="fill:#455a64"></path><path d="M364.85,305.64a.58.58,0,0,1,0,1.1L359.32,310a2.12,2.12,0,0,1-1.9,0l-6-3.47a.58.58,0,0,1,0-1.1l5.54-3.22a2.12,2.12,0,0,1,1.9,0Z" style="fill:#455a64"></path><path d="M397.63,307.34c.53.3.53.79,0,1.1l-3.2,1.86a2.06,2.06,0,0,1-1.9,0l-6-3.46a.59.59,0,0,1,0-1.11l3.21-1.86a2.12,2.12,0,0,1,1.9,0Z" style="fill:#455a64"></path><path d="M351.47,307.88a.58.58,0,0,1,0,1.1l-5.54,3.22a2.12,2.12,0,0,1-1.9,0l-6-3.47a.58.58,0,0,1,0-1.1l5.53-3.22a2.14,2.14,0,0,1,1.91,0Z" style="fill:#455a64"></path><path d="M337.9,310.49a.58.58,0,0,1,0,1.1l-5.54,3.22a2.09,2.09,0,0,1-1.9,0l-6-3.46a.59.59,0,0,1,0-1.11L330,307a2.14,2.14,0,0,1,1.91,0Z" style="fill:#455a64"></path><path d="M391.36,311c.53.31.53.8,0,1.1l-5.54,3.22a2.12,2.12,0,0,1-1.9,0l-6-3.47a.58.58,0,0,1,0-1.1l5.54-3.21a2.06,2.06,0,0,1,1.9,0Z" style="fill:#455a64"></path><path d="M374,310.94c.53.31.54.81,0,1.11l-5.53,3.22a2.11,2.11,0,0,1-1.91,0l-6-3.46a.58.58,0,0,1,0-1.1l5.54-3.22a2.14,2.14,0,0,1,1.91,0Z" style="fill:#455a64"></path><path d="M360.5,313.09c.53.31.53.8,0,1.1L355,317.41a2.06,2.06,0,0,1-1.9,0l-6-3.46c-.53-.31-.54-.8,0-1.11l5.54-3.21a2.06,2.06,0,0,1,1.9,0Z" style="fill:#455a64"></path><path d="M346.94,315.7a.59.59,0,0,1,0,1.11L341.4,320a2.06,2.06,0,0,1-1.9,0l-6-3.46c-.53-.31-.53-.8,0-1.1l5.54-3.22a2.06,2.06,0,0,1,1.9,0Z" style="fill:#455a64"></path><path d="M383.24,316.25a.59.59,0,0,1,0,1.11l-5.54,3.22a2.11,2.11,0,0,1-1.91,0l-6-3.46c-.53-.3-.54-.8,0-1.1l5.53-3.22a2.08,2.08,0,0,1,1.91,0Z" style="fill:#455a64"></path><path d="M400.67,316.36c.53.3.54.8,0,1.1l-5.53,3.22a2.14,2.14,0,0,1-1.91,0l-6-3.47c-.53-.3-.53-.79,0-1.1l5.53-3.22a2.12,2.12,0,0,1,1.9,0Z" style="fill:#455a64"></path><path d="M369.53,318.3a.59.59,0,0,1,0,1.11L364,322.63a2.12,2.12,0,0,1-1.9,0l-6-3.47a.58.58,0,0,1,0-1.1l5.54-3.22a2.09,2.09,0,0,1,1.9,0Z" style="fill:#455a64"></path><path d="M356,320.92a.58.58,0,0,1,0,1.1l-5.54,3.22a2.12,2.12,0,0,1-1.9,0l-6-3.47a.58.58,0,0,1,0-1.1l5.54-3.22a2.14,2.14,0,0,1,1.91,0Z" style="fill:#455a64"></path><path d="M392.43,321.56a.59.59,0,0,1,0,1.11l-5.54,3.21a2.06,2.06,0,0,1-1.9,0l-6-3.46c-.53-.31-.53-.8,0-1.1l5.54-3.22a2.06,2.06,0,0,1,1.9,0Z" style="fill:#455a64"></path><path d="M410,321.74a.58.58,0,0,1,0,1.1l-5.54,3.22a2.12,2.12,0,0,1-1.9,0l-6-3.47a.58.58,0,0,1,0-1.1l5.54-3.22a2.12,2.12,0,0,1,1.9,0Z" style="fill:#455a64"></path><path d="M346.81,326.08c.53.3.54.8,0,1.1l-5.54,3.22a2.12,2.12,0,0,1-1.9,0l-43.26-25c-.53-.3-.53-.79,0-1.1l5.53-3.21a2.08,2.08,0,0,1,1.91,0Z" style="fill:#455a64"></path><path d="M401.63,326.87a.58.58,0,0,1,0,1.1l-5.53,3.22a2.08,2.08,0,0,1-1.91,0l-6-3.46a.59.59,0,0,1,0-1.11l5.53-3.21a2.08,2.08,0,0,1,1.91,0Z" style="fill:#455a64"></path><path d="M410.82,332.18a.58.58,0,0,1,0,1.1l-5.54,3.22a2.12,2.12,0,0,1-1.9,0l-6-3.47a.58.58,0,0,1,0-1.1l5.54-3.21a2.09,2.09,0,0,1,1.9,0Z" style="fill:#455a64"></path><path d="M428.62,332.49c.53.31.53.8,0,1.1l-5.53,3.22a2.12,2.12,0,0,1-1.9,0L405.87,328a.59.59,0,0,1,0-1.11l5.54-3.21a2.09,2.09,0,0,1,1.9,0Z" style="fill:#455a64"></path><path d="M420,337.49a.58.58,0,0,1,0,1.1l-5.53,3.22a2.14,2.14,0,0,1-1.91,0l-6-3.47c-.53-.3-.53-.79,0-1.1l5.53-3.22a2.14,2.14,0,0,1,1.91,0Z" style="fill:#455a64"></path><path d="M379,296.58c.53.31.53.8,0,1.1l-3.2,1.87a2.14,2.14,0,0,1-1.91,0l-6-3.47a.58.58,0,0,1,0-1.1l3.2-1.86a2.06,2.06,0,0,1,1.9,0Z" style="fill:#455a64"></path><path d="M406.94,312.72a.58.58,0,0,1,0,1.1l-3.2,1.86a2.14,2.14,0,0,1-1.91,0l-6-3.47c-.53-.3-.53-.79,0-1.1l3.2-1.86a2.12,2.12,0,0,1,1.9,0Z" style="fill:#455a64"></path><path d="M416.26,318.09a.59.59,0,0,1,0,1.11l-3.21,1.86a2.12,2.12,0,0,1-1.9,0l-6-3.47a.58.58,0,0,1,0-1.1l3.21-1.86a2.06,2.06,0,0,1,1.9,0Z" style="fill:#455a64"></path><path d="M425.57,323.47a.58.58,0,0,1,0,1.1l-3.21,1.86a2.06,2.06,0,0,1-1.9,0l-6-3.46a.58.58,0,0,1,0-1.1l3.21-1.87a2.12,2.12,0,0,1,1.9,0Z" style="fill:#455a64"></path><path d="M328.07,284.4a.59.59,0,0,1,0,1.11l-5.53,3.21a2.06,2.06,0,0,1-1.9,0l-6-3.46c-.53-.31-.54-.8,0-1.1l5.54-3.22a2.06,2.06,0,0,1,1.9,0Z" style="fill:#455a64"></path><path d="M337.27,289.71a.59.59,0,0,1,0,1.11L331.73,294a2.06,2.06,0,0,1-1.9,0l-6-3.46c-.53-.31-.53-.8,0-1.1l5.53-3.22a2.08,2.08,0,0,1,1.91,0Z" style="fill:#455a64"></path><path d="M324.38,292.23a.59.59,0,0,1,0,1.11l-5.54,3.22a2.12,2.12,0,0,1-1.9,0l-6-3.47c-.53-.3-.54-.8,0-1.1l5.53-3.22a2.14,2.14,0,0,1,1.91,0Z" style="fill:#455a64"></path><path d="M272.3,283.06a.58.58,0,0,1,0,1.1l-5.53,3.22a2.12,2.12,0,0,1-1.9,0l-6-3.47a.58.58,0,0,1,0-1.1l5.54-3.22a2.12,2.12,0,0,1,1.9,0Z" style="fill:#455a64"></path><path d="M281.61,288.44a.58.58,0,0,1,0,1.1l-5.53,3.22a2.14,2.14,0,0,1-1.91,0l-6-3.47a.58.58,0,0,1,0-1.1l5.53-3.22a2.12,2.12,0,0,1,1.9,0Z" style="fill:#455a64"></path><path d="M306.32,281.81a.58.58,0,0,1,0,1.1l-5.53,3.22a2.12,2.12,0,0,1-1.9,0l-6-3.47a.58.58,0,0,1,0-1.1l5.53-3.21a2.11,2.11,0,0,1,1.91,0Z" style="fill:#455a64"></path><path d="M292.51,284.28a.59.59,0,0,1,0,1.11L287,288.6a2.06,2.06,0,0,1-1.9,0l-17.2-9.93a.58.58,0,0,1,0-1.1l5.53-3.21a2.11,2.11,0,0,1,1.91,0Z" style="fill:#455a64"></path><path d="M315.35,287a.59.59,0,0,1,0,1.11l-5.54,3.21a2.06,2.06,0,0,1-1.9,0l-6-3.46c-.53-.31-.53-.8,0-1.1l5.54-3.22a2.09,2.09,0,0,1,1.9,0Z" style="fill:#455a64"></path><path d="M301.78,289.63a.59.59,0,0,1,0,1.11L296.25,294a2.06,2.06,0,0,1-1.9,0l-6-3.46c-.53-.31-.53-.8,0-1.1l5.54-3.22a2.09,2.09,0,0,1,1.9,0Z" style="fill:#455a64"></path><path d="M310.81,294.85a.58.58,0,0,1,0,1.1l-5.54,3.22a2.12,2.12,0,0,1-1.9,0l-6-3.47a.58.58,0,0,1,0-1.1l5.53-3.22a2.16,2.16,0,0,1,1.92,0Z" style="fill:#455a64"></path><path d="M297,276.42a.59.59,0,0,1,0,1.11l-5.54,3.21a2.06,2.06,0,0,1-1.9,0l-12.66-7.31a.58.58,0,0,1,0-1.1l5.54-3.21a2.09,2.09,0,0,1,1.9,0Z" style="fill:#455a64"></path><path d="M318.88,279.09a.59.59,0,0,1,0,1.11l-5.54,3.21a2.06,2.06,0,0,1-1.9,0l-6-3.46a.58.58,0,0,1,0-1.1l5.53-3.22a2.14,2.14,0,0,1,1.91,0Z" style="fill:#455a64"></path><path d="M365.44,336.83a.59.59,0,0,1,0,1.11l-5.54,3.21a2.06,2.06,0,0,1-1.9,0l-6-3.46c-.53-.31-.53-.8,0-1.1l5.54-3.22a2.06,2.06,0,0,1,1.9,0Z" style="fill:#455a64"></path><path d="M371.1,344.8c.53.3.54.8,0,1.1l-1.48.86a2.08,2.08,0,0,1-1.91,0L361.2,343c-.53-.31-.53-.8,0-1.1l1.48-.87a2.12,2.12,0,0,1,1.9,0Z" style="fill:#455a64"></path><path d="M383.06,336.56a.58.58,0,0,1,0,1.1l-5.54,3.22a2.12,2.12,0,0,1-1.9,0l-6-3.47a.58.58,0,0,1,0-1.1l5.54-3.22a2.14,2.14,0,0,1,1.91,0Z" style="fill:#455a64"></path><path d="M411.42,342.49c.53.3.52.79,0,1.1l-5.54,3.22a2.12,2.12,0,0,1-1.9,0L392.22,340a.59.59,0,0,1,0-1.11l5.54-3.21a2.08,2.08,0,0,1,1.91,0Z" style="fill:#455a64"></path><path d="M402.4,347.73c.53.3.53.79,0,1.1l-5.53,3.22a2.12,2.12,0,0,1-1.9,0l-16.32-9.42c-.53-.31-.53-.8,0-1.1l5.53-3.22a2.08,2.08,0,0,1,1.91,0Z" style="fill:#455a64"></path><path d="M396.63,334a.58.58,0,0,1,0,1.1l-5.54,3.22a2.12,2.12,0,0,1-1.9,0l-6-3.47a.58.58,0,0,1,0-1.1l5.54-3.22a2.12,2.12,0,0,1,1.9,0Z" style="fill:#455a64"></path><path d="M374,331.34a.59.59,0,0,1,0,1.11l-5.54,3.21a2.06,2.06,0,0,1-1.9,0l-6-3.46a.58.58,0,0,1,0-1.1l5.54-3.22a2.06,2.06,0,0,1,1.9,0Z" style="fill:#455a64"></path><path d="M387.59,328.73a.59.59,0,0,1,0,1.11l-5.54,3.21a2.06,2.06,0,0,1-1.9,0l-6-3.46c-.53-.31-.53-.8,0-1.1l5.54-3.22a2.06,2.06,0,0,1,1.9,0Z" style="fill:#455a64"></path><path d="M365,326.13a.58.58,0,0,1,0,1.1l-5.53,3.22a2.11,2.11,0,0,1-1.91,0l-6-3.46a.59.59,0,0,1,0-1.11l5.54-3.21a2.08,2.08,0,0,1,1.91,0Z" style="fill:#455a64"></path><path d="M378.57,323.52a.58.58,0,0,1,0,1.1L373,327.84a2.09,2.09,0,0,1-1.9,0l-6-3.46c-.53-.31-.54-.8,0-1.11l5.53-3.22a2.16,2.16,0,0,1,1.92,0Z" style="fill:#455a64"></path><path d="M319.84,300.06c.53.31.53.8,0,1.1l-5.54,3.22a2.06,2.06,0,0,1-1.9,0l-6-3.46a.59.59,0,0,1,0-1.11l5.54-3.21a2.06,2.06,0,0,1,1.9,0Z" style="fill:#455a64"></path><path d="M344.79,284.09a.59.59,0,0,1,0,1.11l-5.54,3.21a2.06,2.06,0,0,1-1.9,0l-6-3.46c-.53-.31-.53-.8,0-1.1l5.54-3.22a2.06,2.06,0,0,1,1.9,0Z" style="fill:#455a64"></path><path d="M290.93,293.82a.58.58,0,0,1,0,1.1l-5.54,3.21a2.06,2.06,0,0,1-1.9,0l-6-3.46c-.53-.31-.53-.8,0-1.1l5.54-3.22a2.12,2.12,0,0,1,1.9,0Z" style="fill:#455a64"></path><path d="M380.22,350.06c.52.31.53.8,0,1.1l-1.48.86a2.06,2.06,0,0,1-1.9,0l-6.52-3.76c-.53-.31-.54-.8,0-1.1l1.48-.86a2.06,2.06,0,0,1,1.9,0Z" style="fill:#455a64"></path><path d="M389.33,355.32c.53.31.53.8,0,1.1l-1.49.87a2.12,2.12,0,0,1-1.9,0l-6.52-3.77c-.53-.3-.54-.8,0-1.1l1.48-.87a2.11,2.11,0,0,1,1.91,0Z" style="fill:#455a64"></path><path d="M384.27,347.71c.53.3.53.79,0,1.1l-1.48.86a2.12,2.12,0,0,1-1.9,0l-6.52-3.77a.58.58,0,0,1,0-1.1l1.48-.86a2.14,2.14,0,0,1,1.91,0Z" style="fill:#455a64"></path><path d="M294.68,311.17,271,325a1.2,1.2,0,0,0,0,2.07l39.75,23a3,3,0,0,0,3,0l23.7-13.78a1.19,1.19,0,0,0,0-2.07l-39.75-23A3,3,0,0,0,294.68,311.17Z" style="fill:#455a64"></path><path d="M352.64,381.48,219,304.35a3.27,3.27,0,0,1-1.88-2.55v7.92a3.11,3.11,0,0,0,1.87,2.71l133.61,77.14a9,9,0,0,0,4.15,1.06v-8.08A9,9,0,0,1,352.64,381.48Z" style="fill:#455a64"></path><path d="M448.32,329.8a3.27,3.27,0,0,1-1.84,2.39l-84.81,49.29a9.4,9.4,0,0,1-4.88,1.07v8.08a9.29,9.29,0,0,0,4.88-1.06l84.81-49.29a3.24,3.24,0,0,0,1.85-2.5h0v-8Z" style="opacity:0.2"></path><path d="M449.48,210.46,315.65,133.15a4,4,0,0,0-4.1,0h0l-2.83,1.86h0a4,4,0,0,0-1.83,3.37V240.65a10.53,10.53,0,0,0,5.26,9.11L446,327.06a4,4,0,0,0,4.18-.09h0l2.8-1.85h0a4,4,0,0,0,1.77-3.33V219.56A10.5,10.5,0,0,0,449.48,210.46Z" style="fill:#37474f"></path><path d="M315.8,243.45a3.22,3.22,0,0,1-1.62-2.8V144l129,74.51a3.25,3.25,0,0,1,1.61,2.8V318Z" style="fill:#BA68C8"></path><path d="M315.8,243.45a3.22,3.22,0,0,1-1.62-2.8V144l129,74.51a3.25,3.25,0,0,1,1.61,2.8V318Z" style="opacity:0.30000000000000004"></path><path d="M315.8,243.45a3.22,3.22,0,0,1-1.62-2.8V144l129,74.51a3.25,3.25,0,0,1,1.61,2.8V318Z" style="fill:#fff;opacity:0.1"></path><path d="M449.48,210.46,315.65,133.15a4,4,0,0,0-4.1,0h0l-2.83,1.86h0a4,4,0,0,1,4.24-.13l133.84,77.3a10.54,10.54,0,0,1,4.38,4.92l2.76-1.59A10.5,10.5,0,0,0,449.48,210.46Z" style="fill:#455a64"></path><path d="M451.19,217.15a10.58,10.58,0,0,1,.87,4.19V323.56a4,4,0,0,1-1.89,3.41h0l2.8-1.85h0a4,4,0,0,0,1.77-3.33V219.56a10.6,10.6,0,0,0-.79-4Z" style="opacity:0.2"></path><path d="M359.31,243.31a11.85,11.85,0,0,1-3.09-2.77l-1,2.06a15.35,15.35,0,0,0,4.09,3.47c2.91,1.68,4.37.86,4.38-1.11,0-4-5.18-5.89-5.18-7.19,0-.37.3-.51,1.22,0a10.53,10.53,0,0,1,2.62,2.31l1-2.08a13.36,13.36,0,0,0-3.54-3c-2.91-1.68-4.37-.89-4.38,1.11,0,4,5.18,5.92,5.17,7.28C360.53,243.8,360.21,243.83,359.31,243.31Z" style="fill:#fff"></path><polygon points="380.08 251.94 376.53 244.98 373.93 243.48 373.9 254.26 376.98 256.04 377 251.15 380.55 258.1 383.15 259.6 383.18 248.82 380.1 247.04 380.08 251.94" style="fill:#fff"></polygon><path d="M345.45,243c-1.19-.69-2.17-.13-2.17,1.24a4.76,4.76,0,0,0,2.16,3.75l38.83,22.42,0-5Z" style="fill:#BA68C8"></path><path d="M345.45,243c-1.19-.69-2.17-.13-2.17,1.24a4.76,4.76,0,0,0,2.16,3.75l38.83,22.42,0-5Z" style="fill:#fff;opacity:0.30000000000000004"></path><polygon points="369.96 251.99 369.97 248.08 373.53 243.25 370.48 241.49 368.53 244.1 366.63 239.27 363.29 237.34 366.81 246.2 366.8 250.16 369.96 251.99" style="fill:#fff"></polygon><path d="M389.71,255.29a5.46,5.46,0,0,1,2.05,2.45l2-.89a10.43,10.43,0,0,0-4.2-4.59c-3-1.74-5.23-.7-5.24,2.62a10.62,10.62,0,0,0,5.21,8.65c1.83,1.06,3.28,1.13,4.21.27l-2-3.2a1.59,1.59,0,0,1-2.05.08,4.58,4.58,0,0,1-2.19-4C387.51,255.07,388.4,254.53,389.71,255.29Z" style="fill:#fff"></path><path d="M370.06,201.3c1.61-1.75,5.59-3.4,10.2-.75,3.26,1.89,6.84,5.94,10.11,13.68-1.23-8.58-7.73-17.89-14.76-21.95-3.87-2.24-7.9-2.88-11.3-.94l-3.86-6.69-3.1,17.73,17,6.28Z" style="fill:#fff"></path><path d="M374.87,213.5l4.25,7.36c-1.61,1.75-5.59,3.4-10.2.75-3.26-1.89-6.84-6-10.11-13.68,1.23,8.58,7.73,17.89,14.76,21.95,3.87,2.24,7.9,2.88,11.3.94l3.86,6.69,3.1-17.73Z" style="fill:#fff"></path><path d="M403.45,276.48l-19.16-11.07,0,5,19.16,11.06c1.2.69,2.17.13,2.18-1.24A4.78,4.78,0,0,0,403.45,276.48Z" style="fill:#fff"></path></g><g id="device-1"><path d="M258.18,119.6h0c-.4-1.42-3.28-4.11-6.14-4.06a2.4,2.4,0,0,0-.8.16l-55.6,31.63A5.44,5.44,0,0,0,193,152V272.2c0,3.07,3.54,6,6.85,4.58h0a1.89,1.89,0,0,0,.21-.09L255.63,245a5.33,5.33,0,0,0,2.69-4.62V120.18A1.34,1.34,0,0,0,258.18,119.6Z" style="fill:#455a64"></path><path d="M200.71,164.66a2.66,2.66,0,0,1,1.34-2.31L253.67,133a1.33,1.33,0,0,1,2,1.16v97a2.67,2.67,0,0,1-1.34,2.31L202.7,262.83a1.33,1.33,0,0,1-2-1.15Z" style="fill:#BA68C8"></path><path d="M200.71,164.66a2.66,2.66,0,0,1,1.34-2.31L253.67,133a1.33,1.33,0,0,1,2,1.16v97a2.67,2.67,0,0,1-1.34,2.31L202.7,262.83a1.33,1.33,0,0,1-2-1.15Z" style="opacity:0.2"></path><path d="M200.71,164.66a2.66,2.66,0,0,1,1.34-2.31L253.67,133a1.33,1.33,0,0,1,2,1.16v97a2.67,2.67,0,0,1-1.34,2.31L202.7,262.83a1.33,1.33,0,0,1-2-1.15Z" style="fill:#fff;opacity:0.1"></path><path d="M193,152V272.2c0,3.07,3.54,6,6.85,4.58h0a1.33,1.33,0,0,1-1.78-1.24V155.27a5.3,5.3,0,0,1,.9-2.93l-5.44-2.72A5.3,5.3,0,0,0,193,152Z" style="opacity:0.30000000000000004"></path><path d="M252,115.54a2.4,2.4,0,0,0-.8.16l-55.6,31.63a5.29,5.29,0,0,0-2.13,2.29l5.44,2.72a5.28,5.28,0,0,1,1.79-1.69L256.33,119a1.33,1.33,0,0,1,1.85.58h0C257.78,118.18,254.9,115.49,252,115.54Z" style="fill:#fff;opacity:0.1"></path><path d="M235,138.88c.39-.22.71,0,.71.4a1.59,1.59,0,0,1-.71,1.23l-10.91,6.3c-.39.22-.7,0-.7-.42a1.54,1.54,0,0,1,.7-1.21Z" style="fill:#263238"></path><path d="M221.33,146.8c.39-.23.7-.05.71.4a1.55,1.55,0,0,1-.71,1.22c-.39.23-.71.05-.71-.4A1.55,1.55,0,0,1,221.33,146.8Z" style="fill:#263238"></path><path d="M228.31,138c.78-.45,1.41-.09,1.41.81a3.12,3.12,0,0,1-1.4,2.45c-.78.45-1.43.08-1.43-.82A3.15,3.15,0,0,1,228.31,138Z" style="fill:#263238"></path><path d="M228.31,251.17c1.59-.91,2.87-.18,2.88,1.64a6.34,6.34,0,0,1-2.86,5c-1.59.92-2.9.17-2.91-1.66A6.4,6.4,0,0,1,228.31,251.17Z" style="fill:#263238"></path><path d="M236.74,200.59c0,2.17,1.46,2.86,3.44,1.72a6.87,6.87,0,0,0,2.76-3l-1.32-.59a3.59,3.59,0,0,1-1.34,1.61c-.86.49-1.45.14-1.45-.94a3,3,0,0,1,1.44-2.6,1.06,1.06,0,0,1,1.35.05l1.31-2.1c-.61-.56-1.56-.52-2.77.18A7,7,0,0,0,236.74,200.59Z" style="fill:#fff"></path><path d="M233.19,184.28c-1,2.34-3.62,6.42-6.63,8.15-2.13,1.23-4.47,1.28-6.62-1.29.83,4.66,5.09,5.82,9.68,3.18a21.14,21.14,0,0,0,7.34-7.89l2.54,1.44L241.45,174l-11,8.67Z" style="fill:#fff"></path><path d="M227.23,178.37c1-2.34,3.62-6.41,6.62-8.15,2.13-1.23,4.47-1.28,6.63,1.29-.83-4.65-5.09-5.82-9.68-3.17a21.12,21.12,0,0,0-7.35,7.88l-2.53-1.44L219,188.63,230,180Z" style="fill:#fff"></path><polygon points="227.62 202.31 226.36 205.49 225.1 203.77 222.91 205.03 225.24 208.17 225.25 210.77 227.32 209.57 227.32 207 229.63 201.15 227.62 202.31" style="fill:#fff"></polygon><path d="M220.32,212a3.63,3.63,0,0,1-2,.53l-.67,2.12a5,5,0,0,0,2.69-.82,5.1,5.1,0,0,0,2.86-4c0-2.61-3.41.06-3.41-.79,0-.24.19-.55.8-.9a3.37,3.37,0,0,1,1.72-.47l.62-2.09a4.53,4.53,0,0,0-2.33.73,5.07,5.07,0,0,0-2.86,4c0,2.64,3.41,0,3.41.85C221.12,211.35,220.91,211.61,220.32,212Z" style="fill:#fff"></path><polygon points="235.99 204.57 235.97 197.49 233.94 198.66 233.95 201.88 231.6 200.01 229.9 201 229.92 208.07 231.94 206.91 231.93 203.69 234.28 205.55 235.99 204.57" style="fill:#fff"></polygon><path d="M247.45,203.42l-10.69,6.17V212l10.69-6.17a2.28,2.28,0,0,0,1-1.79C248.49,203.36,248,203.09,247.45,203.42Z" style="fill:#fff"></path><path d="M213.15,223.23a2.26,2.26,0,0,0-1,1.78c0,.65.46.92,1,.59L236.77,212v-2.38Z" style="fill:#BA68C8"></path><path d="M213.15,223.23a2.26,2.26,0,0,0-1,1.78c0,.65.46.92,1,.59L236.77,212v-2.38Z" style="fill:#fff;opacity:0.30000000000000004"></path></g><g id="Folders"><path d="M306.65,69.44h0Z" style="fill:#BA68C8"></path><path d="M306.32,69.37l-.07,0h0Z" style="fill:#BA68C8"></path><path d="M309.27,66.85l-.09,0,.09,0Z" style="fill:#BA68C8"></path><path d="M307.24,69.33Z" style="fill:#BA68C8"></path><path d="M307,69.43h0Z" style="fill:#BA68C8"></path><path d="M308.62,66.8l-.12,0,.12,0Z" style="fill:#BA68C8"></path><path d="M308.94,66.78h0Z" style="fill:#BA68C8"></path><path d="M307.24,69.33h0a1.08,1.08,0,0,1-.27.1h0a1,1,0,0,1-.3,0h0a1.18,1.18,0,0,1-.3-.07l-.07,0h0a1.74,1.74,0,0,1-.34-.16L277.34,52.7l1.18-.68,28.57,16.49a1.74,1.74,0,0,0,.34.16l.07,0,.19,0A1,1,0,0,1,307.24,69.33Z" style="fill:#BA68C8"></path><path d="M309.69,67a2.12,2.12,0,0,0-.42-.18h0l-.09,0-.24,0h-.32l-.12,0a.94.94,0,0,0-.15.06h0l1.18-.68h0l.09,0,.1,0,.07,0h.41l.17,0,.07,0,.07,0,.08,0a1.66,1.66,0,0,1,.27.13L325,74.51l-1.18.69Z" style="fill:#BA68C8"></path><path d="M307.24,69.33h0a1.08,1.08,0,0,1-.27.1h0a1,1,0,0,1-.3,0h0a1.18,1.18,0,0,1-.3-.07l-.07,0h0a1.74,1.74,0,0,1-.34-.16L277.34,52.7l1.18-.68,28.57,16.49a1.74,1.74,0,0,0,.34.16l.07,0,.19,0A1,1,0,0,1,307.24,69.33Z" style="opacity:0.1"></path><path d="M309.69,67a2.12,2.12,0,0,0-.42-.18h0l-.09,0-.24,0h-.32l-.12,0a.94.94,0,0,0-.15.06h0l1.18-.68h0l.09,0,.1,0,.07,0h.41l.17,0,.07,0,.07,0,.08,0a1.66,1.66,0,0,1,.27.13L325,74.51l-1.18.69Z" style="opacity:0.1"></path><polygon points="323.82 79.53 323.83 75.2 325.01 74.51 325 78.85 324.99 80.28 324.9 121.56 323.72 122.25 323.81 80.96 323.82 79.53" style="fill:#BA68C8"></polygon><polygon points="323.82 79.53 323.83 75.2 325.01 74.51 325 78.85 324.99 80.28 324.9 121.56 323.72 122.25 323.81 80.96 323.82 79.53" style="opacity:0.2"></polygon><path d="M277.34,52.7l28.57,16.49a1.74,1.74,0,0,0,.34.16l.07,0a1.18,1.18,0,0,0,.3.07h0a1,1,0,0,0,.3,0h0a1.08,1.08,0,0,0,.27-.1h0a1,1,0,0,0,.45-.6,1.91,1.91,0,0,0,.11-.62,1.32,1.32,0,0,1,.55-1.21.94.94,0,0,1,.15-.06l.12,0h.32l.24,0,.09,0a2.12,2.12,0,0,1,.42.18l14.14,8.17V81l-.09,41.28L277.24,95.41Z" style="fill:#BA68C8"></path><path d="M277.34,52.7l28.57,16.49a1.74,1.74,0,0,0,.34.16l.07,0a1.18,1.18,0,0,0,.3.07h0a1,1,0,0,0,.3,0h0a1.08,1.08,0,0,0,.27-.1h0a1,1,0,0,0,.45-.6,1.91,1.91,0,0,0,.11-.62,1.32,1.32,0,0,1,.55-1.21.94.94,0,0,1,.15-.06l.12,0h.32l.24,0,.09,0a2.12,2.12,0,0,1,.42.18l14.14,8.17V81l-.09,41.28L277.24,95.41Z" style="opacity:0.30000000000000004"></path><path d="M309.69,67a2.12,2.12,0,0,0-.42-.18h0l-.09,0-.24,0h-.32l-.12,0a.94.94,0,0,0-.15.06h0l1.18-.68h0l.09,0,.1,0,.07,0h.41l.17,0,.07,0,.07,0,.08,0a1.66,1.66,0,0,1,.27.13L325,74.51l-1.18.69Z" style="fill:#BA68C8"></path><path d="M309.69,67a2.12,2.12,0,0,0-.42-.18h0l-.09,0-.24,0h-.32l-.12,0a.94.94,0,0,0-.15.06h0l1.18-.68h0l.09,0,.1,0,.07,0h.41l.17,0,.07,0,.07,0,.08,0a1.66,1.66,0,0,1,.27.13L325,74.51l-1.18.69Z" style="opacity:0.1"></path><polygon points="323.82 79.53 323.83 75.2 325.01 74.51 325 78.85 324.99 80.28 324.9 121.56 323.72 122.25 323.81 80.96 323.82 79.53" style="fill:#BA68C8"></polygon><polygon points="323.82 79.53 323.83 75.2 325.01 74.51 325 78.85 324.99 80.28 324.9 121.56 323.72 122.25 323.81 80.96 323.82 79.53" style="opacity:0.2"></polygon><path d="M277.34,52.7l28.57,16.49a1.74,1.74,0,0,0,.34.16l.07,0a1.18,1.18,0,0,0,.3.07h0a1,1,0,0,0,.3,0h0a1.08,1.08,0,0,0,.27-.1h0a1,1,0,0,0,.45-.6,1.91,1.91,0,0,0,.11-.62,1.32,1.32,0,0,1,.55-1.21.94.94,0,0,1,.15-.06l.12,0h.32l.24,0,.09,0a2.12,2.12,0,0,1,.42.18l14.14,8.17V81l-.09,41.28L277.24,95.41Z" style="fill:#BA68C8"></path><path d="M277.34,52.7l28.57,16.49a1.74,1.74,0,0,0,.34.16l.07,0a1.18,1.18,0,0,0,.3.07h0a1,1,0,0,0,.3,0h0a1.08,1.08,0,0,0,.27-.1h0a1,1,0,0,0,.45-.6,1.91,1.91,0,0,0,.11-.62,1.32,1.32,0,0,1,.55-1.21.94.94,0,0,1,.15-.06l.12,0h.32l.24,0,.09,0a2.12,2.12,0,0,1,.42.18l14.14,8.17V81l-.09,41.28L277.24,95.41Z" style="opacity:0.30000000000000004"></path><polygon points="320.59 119.78 320.59 80.91 280.45 57.74 280.45 96.61 320.59 119.78" style="fill:#fafafa"></polygon><polygon points="317.46 91.91 322.55 122.92 276.09 96.19 270.99 65.08 317.46 91.91" style="fill:#BA68C8"></polygon><polygon points="317.46 91.91 322.55 122.92 276.09 96.19 270.99 65.08 317.46 91.91" style="opacity:0.30000000000000004"></polygon><polygon points="318.62 91 323.72 122.25 322.55 122.92 317.46 91.91 318.62 91" style="fill:#BA68C8"></polygon><polygon points="318.62 91 323.72 122.25 322.55 122.92 317.46 91.91 318.62 91" style="opacity:0.2"></polygon><polygon points="270.99 65.08 272.15 64.17 318.62 91 317.46 91.91 270.99 65.08" style="fill:#BA68C8"></polygon><polygon points="270.99 65.08 272.15 64.17 318.62 91 317.46 91.91 270.99 65.08" style="opacity:0.1"></polygon><path d="M424.29,142.4h0Z" style="fill:#BA68C8"></path><path d="M424.08,142.36l0,0h0Z" style="fill:#BA68C8"></path><path d="M425.93,140.79l-.06,0,.06,0Z" style="fill:#BA68C8"></path><path d="M424.66,142.33Z" style="fill:#BA68C8"></path><polygon points="424.49 142.39 424.48 142.39 424.48 142.39 424.49 142.39" style="fill:#BA68C8"></polygon><path d="M425.52,140.75l-.07,0,.07,0Z" style="fill:#BA68C8"></path><path d="M425.72,140.74h0Z" style="fill:#BA68C8"></path><path d="M424.66,142.33h0a.49.49,0,0,1-.17.06h0a.4.4,0,0,1-.19,0h0l-.19,0h0l-.21-.09L406,132l.73-.43,17.8,10.28.22.1h0l.12,0A.64.64,0,0,1,424.66,142.33Z" style="fill:#BA68C8"></path><path d="M426.18,140.9a1.06,1.06,0,0,0-.25-.11h0l-.06,0-.15,0h-.2l-.07,0-.1,0h0l.73-.43h0l.06,0,.06,0h.3l.11,0,0,0h0l.05,0,.17.08,8.81,5.09L435,146Z" style="fill:#BA68C8"></path><path d="M424.66,142.33h0a.49.49,0,0,1-.17.06h0a.4.4,0,0,1-.19,0h0l-.19,0h0l-.21-.09L406,132l.73-.43,17.8,10.28.22.1h0l.12,0A.64.64,0,0,1,424.66,142.33Z" style="opacity:0.1"></path><path d="M426.18,140.9a1.06,1.06,0,0,0-.25-.11h0l-.06,0-.15,0h-.2l-.07,0-.1,0h0l.73-.43h0l.06,0,.06,0h.3l.11,0,0,0h0l.05,0,.17.08,8.81,5.09L435,146Z" style="opacity:0.1"></path><polygon points="434.99 148.69 435 145.99 435.73 145.56 435.72 148.26 435.72 149.15 435.66 174.88 434.93 175.31 434.99 149.58 434.99 148.69" style="fill:#BA68C8"></polygon><polygon points="434.99 148.69 435 145.99 435.73 145.56 435.72 148.26 435.72 149.15 435.66 174.88 434.93 175.31 434.99 149.58 434.99 148.69" style="opacity:0.2"></polygon><path d="M406,132l17.8,10.28.21.09,0,0,.19,0h0a.4.4,0,0,0,.19,0h0a.49.49,0,0,0,.17-.06h0a.64.64,0,0,0,.28-.37,1.13,1.13,0,0,0,.07-.39.81.81,0,0,1,.34-.75l.1,0,.07,0h.2l.15,0,.06,0a1.06,1.06,0,0,1,.25.11L435,146v3.59l-.06,25.73-29-16.72Z" style="fill:#BA68C8"></path><path d="M406,132l17.8,10.28.21.09,0,0,.19,0h0a.4.4,0,0,0,.19,0h0a.49.49,0,0,0,.17-.06h0a.64.64,0,0,0,.28-.37,1.13,1.13,0,0,0,.07-.39.81.81,0,0,1,.34-.75l.1,0,.07,0h.2l.15,0,.06,0a1.06,1.06,0,0,1,.25.11L435,146v3.59l-.06,25.73-29-16.72Z" style="opacity:0.30000000000000004"></path><path d="M426.18,140.9a1.06,1.06,0,0,0-.25-.11h0l-.06,0-.15,0h-.2l-.07,0-.1,0h0l.73-.43h0l.06,0,.06,0h.3l.11,0,0,0h0l.05,0,.17.08,8.81,5.09L435,146Z" style="fill:#BA68C8"></path><path d="M426.18,140.9a1.06,1.06,0,0,0-.25-.11h0l-.06,0-.15,0h-.2l-.07,0-.1,0h0l.73-.43h0l.06,0,.06,0h.3l.11,0,0,0h0l.05,0,.17.08,8.81,5.09L435,146Z" style="opacity:0.1"></path><polygon points="434.99 148.69 435 145.99 435.73 145.56 435.72 148.26 435.72 149.15 435.66 174.88 434.93 175.31 434.99 149.58 434.99 148.69" style="fill:#BA68C8"></polygon><polygon points="434.99 148.69 435 145.99 435.73 145.56 435.72 148.26 435.72 149.15 435.66 174.88 434.93 175.31 434.99 149.58 434.99 148.69" style="opacity:0.2"></polygon><path d="M406,132l17.8,10.28.21.09,0,0,.19,0h0a.4.4,0,0,0,.19,0h0a.49.49,0,0,0,.17-.06h0a.64.64,0,0,0,.28-.37,1.13,1.13,0,0,0,.07-.39.81.81,0,0,1,.34-.75l.1,0,.07,0h.2l.15,0,.06,0a1.06,1.06,0,0,1,.25.11L435,146v3.59l-.06,25.73-29-16.72Z" style="fill:#BA68C8"></path><path d="M406,132l17.8,10.28.21.09,0,0,.19,0h0a.4.4,0,0,0,.19,0h0a.49.49,0,0,0,.17-.06h0a.64.64,0,0,0,.28-.37,1.13,1.13,0,0,0,.07-.39.81.81,0,0,1,.34-.75l.1,0,.07,0h.2l.15,0,.06,0a1.06,1.06,0,0,1,.25.11L435,146v3.59l-.06,25.73-29-16.72Z" style="opacity:0.30000000000000004"></path><polygon points="432.98 173.78 432.98 149.55 407.96 135.11 407.96 159.33 432.98 173.78" style="fill:#fafafa"></polygon><polygon points="431.03 156.4 434.2 175.73 405.25 159.07 402.06 139.68 431.03 156.4" style="fill:#BA68C8"></polygon><polygon points="431.03 156.4 434.2 175.73 405.25 159.07 402.06 139.68 431.03 156.4" style="opacity:0.30000000000000004"></polygon><polygon points="431.75 155.84 434.93 175.31 434.2 175.73 431.03 156.4 431.75 155.84" style="fill:#BA68C8"></polygon><polygon points="431.75 155.84 434.93 175.31 434.2 175.73 431.03 156.4 431.75 155.84" style="opacity:0.2"></polygon><polygon points="402.06 139.68 402.79 139.11 431.75 155.84 431.03 156.4 402.06 139.68" style="fill:#BA68C8"></polygon><polygon points="402.06 139.68 402.79 139.11 431.75 155.84 431.03 156.4 402.06 139.68" style="opacity:0.1"></polygon><path d="M386.73,78.54h0Z" style="fill:#BA68C8"></path><path d="M386.52,78.5h0Z" style="fill:#BA68C8"></path><path d="M388.36,76.93h0Z" style="fill:#BA68C8"></path><path d="M387.09,78.47Z" style="fill:#BA68C8"></path><polygon points="386.93 78.53 386.92 78.54 386.92 78.53 386.93 78.53" style="fill:#BA68C8"></polygon><path d="M388,76.89l-.08,0,.07,0Z" style="fill:#BA68C8"></path><path d="M388.15,76.88h0Z" style="fill:#BA68C8"></path><path d="M387.09,78.47h0a.44.44,0,0,1-.16.06h-.22a.72.72,0,0,1-.19,0h0l-.22-.1-17.8-10.28.74-.43L387,78l.22.1h0a.53.53,0,0,0,.12,0A.65.65,0,0,1,387.09,78.47Z" style="fill:#BA68C8"></path><path d="M388.62,77a1,1,0,0,0-.26-.11h-.05l-.16,0H388l-.07,0-.09,0h0l.74-.43h0l.05,0,.07,0h.3l.1,0,.05,0h0l.05,0,.16.08,8.82,5.09-.74.43Z" style="fill:#BA68C8"></path><path d="M387.09,78.47h0a.44.44,0,0,1-.16.06h-.22a.72.72,0,0,1-.19,0h0l-.22-.1-17.8-10.28.74-.43L387,78l.22.1h0a.53.53,0,0,0,.12,0A.65.65,0,0,1,387.09,78.47Z" style="opacity:0.1"></path><path d="M388.62,77a1,1,0,0,0-.26-.11h-.05l-.16,0H388l-.07,0-.09,0h0l.74-.43h0l.05,0,.07,0h.3l.1,0,.05,0h0l.05,0,.16.08,8.82,5.09-.74.43Z" style="opacity:0.1"></path><polygon points="397.43 84.83 397.43 82.13 398.17 81.7 398.16 84.4 398.16 85.3 398.1 111.02 397.36 111.45 397.42 85.72 397.43 84.83" style="fill:#BA68C8"></polygon><polygon points="397.43 84.83 397.43 82.13 398.17 81.7 398.16 84.4 398.16 85.3 398.1 111.02 397.36 111.45 397.42 85.72 397.43 84.83" style="opacity:0.2"></polygon><path d="M368.46,68.11l17.8,10.28.22.1h0a.72.72,0,0,0,.19,0h.22a.44.44,0,0,0,.16-.06h0a.65.65,0,0,0,.29-.37,1.45,1.45,0,0,0,.06-.39.8.8,0,0,1,.35-.75l.09,0,.08,0h.19l.16,0h.05a1,1,0,0,1,.26.11l8.81,5.09v3.59l-.06,25.73-29-16.72Z" style="fill:#BA68C8"></path><path d="M368.46,68.11l17.8,10.28.22.1h0a.72.72,0,0,0,.19,0h.22a.44.44,0,0,0,.16-.06h0a.65.65,0,0,0,.29-.37,1.45,1.45,0,0,0,.06-.39.8.8,0,0,1,.35-.75l.09,0,.08,0h.19l.16,0h.05a1,1,0,0,1,.26.11l8.81,5.09v3.59l-.06,25.73-29-16.72Z" style="opacity:0.30000000000000004"></path><path d="M388.62,77a1,1,0,0,0-.26-.11h-.05l-.16,0H388l-.07,0-.09,0h0l.74-.43h0l.05,0,.07,0h.3l.1,0,.05,0h0l.05,0,.16.08,8.82,5.09-.74.43Z" style="fill:#BA68C8"></path><path d="M388.62,77a1,1,0,0,0-.26-.11h-.05l-.16,0H388l-.07,0-.09,0h0l.74-.43h0l.05,0,.07,0h.3l.1,0,.05,0h0l.05,0,.16.08,8.82,5.09-.74.43Z" style="opacity:0.1"></path><polygon points="397.43 84.83 397.43 82.13 398.17 81.7 398.16 84.4 398.16 85.3 398.1 111.02 397.36 111.45 397.42 85.72 397.43 84.83" style="fill:#BA68C8"></polygon><polygon points="397.43 84.83 397.43 82.13 398.17 81.7 398.16 84.4 398.16 85.3 398.1 111.02 397.36 111.45 397.42 85.72 397.43 84.83" style="opacity:0.2"></polygon><path d="M368.46,68.11l17.8,10.28.22.1h0a.72.72,0,0,0,.19,0h.22a.44.44,0,0,0,.16-.06h0a.65.65,0,0,0,.29-.37,1.45,1.45,0,0,0,.06-.39.8.8,0,0,1,.35-.75l.09,0,.08,0h.19l.16,0h.05a1,1,0,0,1,.26.11l8.81,5.09v3.59l-.06,25.73-29-16.72Z" style="fill:#BA68C8"></path><path d="M368.46,68.11l17.8,10.28.22.1h0a.72.72,0,0,0,.19,0h.22a.44.44,0,0,0,.16-.06h0a.65.65,0,0,0,.29-.37,1.45,1.45,0,0,0,.06-.39.8.8,0,0,1,.35-.75l.09,0,.08,0h.19l.16,0h.05a1,1,0,0,1,.26.11l8.81,5.09v3.59l-.06,25.73-29-16.72Z" style="opacity:0.30000000000000004"></path><polygon points="395.41 109.92 395.41 85.69 370.4 71.25 370.4 95.47 395.41 109.92" style="fill:#fafafa"></polygon><polygon points="393.46 92.55 396.64 111.87 367.68 95.21 364.5 75.82 393.46 92.55" style="fill:#BA68C8"></polygon><polygon points="393.46 92.55 396.64 111.87 367.68 95.21 364.5 75.82 393.46 92.55" style="opacity:0.30000000000000004"></polygon><polygon points="394.19 91.98 397.36 111.45 396.64 111.87 393.46 92.55 394.19 91.98" style="fill:#BA68C8"></polygon><polygon points="394.19 91.98 397.36 111.45 396.64 111.87 393.46 92.55 394.19 91.98" style="opacity:0.2"></polygon><polygon points="364.5 75.82 365.23 75.25 394.19 91.98 393.46 92.55 364.5 75.82" style="fill:#BA68C8"></polygon><polygon points="364.5 75.82 365.23 75.25 394.19 91.98 393.46 92.55 364.5 75.82" style="opacity:0.1"></polygon></g><g id="Character"><path d="M199.2,308.68c8.84,6.13,18.8,10.38,26.18,18.61,13.78,15.37,14.1,40.09,3.28,57.67s-31,28.14-51.47,30.56c-21.51,2.54-44.09-3.41-61-17s-27.61-34.79-27.6-56.45,11.1-43.23,29.24-55.06c16.56-10.8,40.34-13.88,57-1.53,8.4,6.25,14,15.47,22.37,21.73C197.85,307.72,198.52,308.2,199.2,308.68Z" style="fill:#BA68C8"></path><path d="M199.2,308.68c8.84,6.13,18.8,10.38,26.18,18.61,13.78,15.37,14.1,40.09,3.28,57.67s-31,28.14-51.47,30.56c-21.51,2.54-44.09-3.41-61-17s-27.61-34.79-27.6-56.45,11.1-43.23,29.24-55.06c16.56-10.8,40.34-13.88,57-1.53,8.4,6.25,14,15.47,22.37,21.73C197.85,307.72,198.52,308.2,199.2,308.68Z" style="opacity:0.2"></path><path d="M199.2,308.68c8.84,6.13,18.8,10.38,26.18,18.61,13.78,15.37,14.1,40.09,3.28,57.67s-31,28.14-51.47,30.56c-21.51,2.54-44.09-3.41-61-17s-27.61-34.79-27.6-56.45,11.1-43.23,29.24-55.06c16.56-10.8,40.34-13.88,57-1.53,8.4,6.25,14,15.47,22.37,21.73C197.85,307.72,198.52,308.2,199.2,308.68Z" style="fill:#fff;opacity:0.1"></path><path d="M195.6,398.72l-.06-.44a23.26,23.26,0,0,0-18.85-19.38,73.41,73.41,0,0,1-24.15-9.25c-5.27-3.19-10.26-7.1-16.18-8.83a26.37,26.37,0,0,0-17.44,1c5-5.23,13.51-7.53,20.32-5.16-4.72-7.23-8.87-15-10.49-23.47s-.47-17.77,4.63-24.72a24.87,24.87,0,0,1,38.4-2.05c5.05,5.53,7.91,13.32,11.23,20,2.38,4.83,4.85,9.77,8.79,13.44,5.93,5.56,14.47,7.56,20.62,12.87,7,6,10,15.64,10,24.86a73.13,73.13,0,0,1-2.7,18.38,69.69,69.69,0,0,1-25.24,15.43A27.19,27.19,0,0,0,195.6,398.72Z" style="opacity:0.1"></path><path d="M100.17,339.11a63.2,63.2,0,0,1,53.93-61.38,44.74,44.74,0,0,1,6.09,1,61.63,61.63,0,0,0-58.36,60.39c-.39,20.16,9.47,40.71,26.38,55,13.26,11.17,30.86,18.58,50.22,21.25l-1.24.16c-1.74.21-3.49.35-5.24.44-17.19-3.33-32.76-10.42-44.81-20.58C109.84,380.8,99.76,359.77,100.17,339.11Z" style="fill:#fff"></path><path d="M203.41,413.55l-2.22,4.39c-3.13-2.9-3.69-5.23-3.69-5.23,1-3.59,2.19-7.23,2.78-9,.3,2.46,2,4.59,2.69,7A11.43,11.43,0,0,1,203.41,413.55Z" style="fill:#37474f"></path><path d="M203.3,418.05l-2.11-.11,2.22-4.39C203.47,415,203.35,416.54,203.3,418.05Z" style="fill:#263238"></path><path d="M201.7,398.52a19.53,19.53,0,0,1,2.62-3.06,10.52,10.52,0,0,0,0,5.86c.66,2.55,1.85,4.94,2.44,7.5.73,3.11.56,6.46,1.88,9.38a10.09,10.09,0,0,0,7,5.61,4.43,4.43,0,0,0,3.34-.4,2.36,2.36,0,0,0,.92-1.25,22.5,22.5,0,0,0,2.4,3.92c1.05,1.35,2.34,2.83,2.06,4.51a3.63,3.63,0,0,1-2.94,2.69,9.35,9.35,0,0,1-4.19-.35,25.87,25.87,0,0,1-8.37-3.41,12.49,12.49,0,0,1-5.31-7.12,16.23,16.23,0,0,1-.33-4.35c0-1.51.17-3,.11-4.5a11.43,11.43,0,0,0-.44-2.84c-.71-2.41-2.39-4.54-2.69-7,0-.14-.05-.27-.06-.4A8,8,0,0,1,201.7,398.52Z" style="fill:#455a64"></path><path d="M201.7,398.52a19.53,19.53,0,0,1,2.62-3.06,10.52,10.52,0,0,0,0,5.86c.66,2.55,1.85,4.94,2.44,7.5.73,3.11.56,6.46,1.88,9.38a10.09,10.09,0,0,0,7,5.61,4.43,4.43,0,0,0,3.34-.4,2.36,2.36,0,0,0,.92-1.25,22.5,22.5,0,0,0,2.4,3.92c1.05,1.35,2.34,2.83,2.06,4.51a3.63,3.63,0,0,1-2.94,2.69,9.35,9.35,0,0,1-4.19-.35,25.87,25.87,0,0,1-8.37-3.41,12.49,12.49,0,0,1-5.31-7.12,16.23,16.23,0,0,1-.33-4.35c0-1.51.17-3,.11-4.5a11.43,11.43,0,0,0-.44-2.84c-.71-2.41-2.39-4.54-2.69-7,0-.14-.05-.27-.06-.4A8,8,0,0,1,201.7,398.52Z" style="opacity:0.1"></path><path d="M215.72,423.81a10.09,10.09,0,0,1-7-5.61c-1.32-2.92-1.15-6.27-1.88-9.38-.59-2.56-1.78-4.95-2.44-7.5a10.52,10.52,0,0,1,0-5.86l.76-.75c3.77,2,8.07,3.57,11.51,6.07a80.55,80.55,0,0,0,.84,13.18,30.76,30.76,0,0,0,2.55,8.2,2.36,2.36,0,0,1-.92,1.25A4.43,4.43,0,0,1,215.72,423.81Z" style="fill:#f28f8f"></path><path d="M228.54,412.18c.63,3.65,3.42,11.07,3.42,11.07s-13.09.54-13.38-.07l-3.84-5.94Z" style="fill:#ffa8a7"></path><path d="M189.36,325.43,222.75,344A16.56,16.56,0,0,1,231,361.5l-6.48,34.9,5.31,16.88c-4.58,6.14-15.11,6.46-15.11,6.46C208.81,408,204.51,403,201.17,393.1s-5.56-16.68-5.56-16.68l-27.72-7.57a32.85,32.85,0,0,1-24-28c-.47-4.2-.5-7.06-.5-7.06Z" style="fill:#455a64"></path><path d="M189.11,334.81A15.81,15.81,0,0,1,185.38,345l23.55,14.74a16.89,16.89,0,0,1,7.21,9.4l8.34,27.27L217,366a13.81,13.81,0,0,0-6.12-8.4l-21.75-13.44C191.31,338.63,189.11,334.81,189.11,334.81Z" style="opacity:0.2"></path><path d="M224.86,440.17l-.31,4.91c-4-1.43-5.46-3.36-5.46-3.36-.48-3.69-.82-7.51-1-9.37,1.25,2.15,3.63,3.45,5.23,5.38A11.86,11.86,0,0,1,224.86,440.17Z" style="fill:#37474f"></path><path d="M226.53,444.35l-2,.73.31-4.91C225.5,441.51,226,443,226.53,444.35Z" style="fill:#263238"></path><path d="M217.38,427a20,20,0,0,1,1.2-3.85,10.64,10.64,0,0,0,2.35,5.38c1.6,2.08,3.64,3.81,5.19,5.93,1.89,2.58,3.06,5.72,5.42,7.88a10.06,10.06,0,0,0,8.67,2.4,4.46,4.46,0,0,0,2.92-1.69,2.48,2.48,0,0,0,.36-1.51,21.87,21.87,0,0,0,3.74,2.66c1.5.83,3.27,1.69,3.67,3.34a3.63,3.63,0,0,1-1.65,3.63,9.54,9.54,0,0,1-4,1.33,26.16,26.16,0,0,1-9,.15,12.51,12.51,0,0,1-7.69-4.46,16.54,16.54,0,0,1-2-3.87c-.54-1.4-1-2.84-1.67-4.18a11.86,11.86,0,0,0-1.52-2.44c-1.6-1.93-4-3.23-5.23-5.38l-.21-.34A8,8,0,0,1,217.38,427Z" style="fill:#455a64"></path><path d="M240.21,444.77a10.06,10.06,0,0,1-8.67-2.4c-2.36-2.16-3.53-5.3-5.42-7.88-1.55-2.12-3.59-3.85-5.19-5.93a10.64,10.64,0,0,1-2.35-5.38c.14-.33.27-.66.41-1,4.24.31,8.82.1,13,1.05A81.37,81.37,0,0,0,237.91,435a30.92,30.92,0,0,0,5.58,6.53,2.48,2.48,0,0,1-.36,1.51A4.46,4.46,0,0,1,240.21,444.77Z" style="fill:#ffa8a7"></path><path d="M211.79,288.27l4.67,4.53c4.8-6.13,11.24-10.27,16.87-18.86,1.62-2.05,1.46-6.15,2.56-8.24.86-1.64,2.37-4.1,3-5.48a.91.91,0,0,1,1.34-.4c1.6,1.16.76,3.94-.09,6.86-1,3.43,4.18-1.21,4.88-2,3.28-3.05,6.1-10.52,8.33-9.78s.47,4.47.47,4.47c2,.43,1.27,3.72,1.27,3.72,1.22,2.14.87,5.45-1.62,8.53-1.82,2.23-6.72,5.3-9.27,6.8a8.29,8.29,0,0,0-2.66,2.51l-16,23.83a9.72,9.72,0,0,1-13.89,2.36l-8.7-6.52Z" style="fill:#ffa8a7"></path><path d="M228.06,280.7c-2.95,3.51-8.16,5.69-11.47,11.25l-4.21-3.9c-6.79-6.8-18.85-21.21-27.73-20.82v20.29a191.79,191.79,0,0,0,18.27,14.28l9.87,6.82a9.35,9.35,0,0,0,13.33-2.86l11.26-18.63A10.34,10.34,0,0,1,228.06,280.7Z" style="fill:#BA68C8"></path><path d="M228.06,280.7c-2.95,3.51-8.16,5.69-11.47,11.25l-4.21-3.9c-6.79-6.8-18.85-21.21-27.73-20.82v20.29a191.79,191.79,0,0,0,18.27,14.28l9.87,6.82a9.35,9.35,0,0,0,13.33-2.86l11.26-18.63A10.34,10.34,0,0,1,228.06,280.7Z" style="fill:#fff;opacity:0.30000000000000004"></path><path d="M184.65,267.23c6,1,9.75,16.19,11.71,22,2,6-.73,10.3-3.79,13.91h0a6.21,6.21,0,0,0-1.41,4.79l6.33,23.52c-17.28,12.83-46.26,6.61-54.12,2.42A55.41,55.41,0,0,1,148.46,310a39.07,39.07,0,0,0,3.82-15.4l.3-8.64-2.09-14.9,15-3.57,13.23-.59A53.09,53.09,0,0,1,184.65,267.23Z" style="fill:#BA68C8"></path><path d="M184.65,267.23c6,1,9.75,16.19,11.71,22,2,6-.73,10.3-3.79,13.91h0a6.21,6.21,0,0,0-1.41,4.79l6.33,23.52c-17.28,12.83-46.26,6.61-54.12,2.42A55.41,55.41,0,0,1,148.46,310a39.07,39.07,0,0,0,3.82-15.4l.3-8.64-2.09-14.9,15-3.57,13.23-.59A53.09,53.09,0,0,1,184.65,267.23Z" style="fill:#fff;opacity:0.5"></path><path d="M190.05,248.15a12.22,12.22,0,0,0,1.47-15.37,4.24,4.24,0,0,0,2.62-4.25,4.18,4.18,0,0,0-3.36-3.66c-1.49-.27-3,.31-4.45.63a21.66,21.66,0,0,1-7.66,0c-2.55-.37-5.07-.92-7.63-1.1a15.46,15.46,0,0,0-7.54,1.07,8.46,8.46,0,0,0-4.89,5.6c-2-.53-4.32.74-5.59,2.34a9.88,9.88,0,0,0-1.83,5.75c-.09,2,.2,4.07.3,6.11a13.79,13.79,0,0,1-.77,6c-.92,2.21-2.74,4-3.33,6.33a6.36,6.36,0,0,0,7.79,7.7,17,17,0,0,1-.6-5c.2,2.25,2.44,4,4.57,4.76a17.68,17.68,0,0,0,6.69.59l7.94-.31L183,265a12.56,12.56,0,0,0,4.84-.83c2.64-1.22,4.13-4.2,4.3-7.1S191.19,250.83,190.05,248.15Z" style="fill:#263238"></path><polygon points="178.73 261.03 178.73 277.46 165.5 267.51 165.5 255.38 178.73 261.03" style="fill:#ffa8a7"></polygon><path d="M165.5,255.38c2,6,9.43,10.63,13.23,11.54V261Z" style="opacity:0.30000000000000004"></path><path d="M167.08,245.78a12.6,12.6,0,0,1,.15,3.18,3.78,3.78,0,0,1-1,2.13,2.41,2.41,0,0,1-2.15.63,4.14,4.14,0,0,0-8-2,5.2,5.2,0,0,0,.87,4.32,9.78,9.78,0,0,0,3.46,2.88,3.5,3.5,0,0,0,4.18-1.64c4,5.11,11.06,8.95,17.65,8.4a9.43,9.43,0,0,0,5-1.77c2.49-1.93,2.68-4.84,3-7.71a41,41,0,0,0-.08-10.95c-.81-5-3-9.93-6.93-13.19C180.89,241,170.9,245,167.08,245.78Z" style="fill:#ffa8a7"></path><polygon points="180.8 244.55 185.31 250.11 181.11 251.55 180.8 244.55" style="fill:#f28f8f"></polygon><path d="M177.26,254.26l3.51,1.11a2.17,2.17,0,0,1-2.38,1.07A2,2,0,0,1,177.26,254.26Z" style="fill:#f28f8f"></path><path d="M177.26,254.26l3.51,1.11a2.17,2.17,0,0,1-2.38,1.07A2,2,0,0,1,177.26,254.26Z" style="opacity:0.30000000000000004"></path><path d="M179.55,256.38a2,2,0,0,1-1.16.06,1.77,1.77,0,0,1-1.13-1.6,2.07,2.07,0,0,1,1.36.26A2.09,2.09,0,0,1,179.55,256.38Z" style="fill:#f28f8f"></path><path d="M174.59,245.7a1.25,1.25,0,1,0,1.19-1.3A1.25,1.25,0,0,0,174.59,245.7Z" style="fill:#263238"></path><path d="M185.07,244.83a1.25,1.25,0,1,0,1.19-1.31A1.25,1.25,0,0,0,185.07,244.83Z" style="fill:#263238"></path><path d="M186.06,239.79l2.86,1.79a1.76,1.76,0,0,0-.63-1.93A2.12,2.12,0,0,0,186.06,239.79Z" style="fill:#263238"></path><path d="M175.35,240.12l-2.69,2a1.8,1.8,0,0,1,.45-2A2.12,2.12,0,0,1,175.35,240.12Z" style="fill:#263238"></path><path d="M178.73,267.51a31.2,31.2,0,0,1,5.29,7.8,2.1,2.1,0,0,1-2.43,2.84l-2.86-.69Z" style="fill:#e0e0e0"></path><path d="M178.73,277.46l-13.23-9.95c-.22,6.26,2.81,11.79,4.7,14.6a2.08,2.08,0,0,0,3.17.36Z" style="fill:#e0e0e0"></path><path d="M165.81,348.71a1.29,1.29,0,0,0,0,.44.08.08,0,0,0,0,0,1.8,1.8,0,0,0,.17.34l0,0a1.88,1.88,0,0,0,.3.34l0,0a3.25,3.25,0,0,0,.45.32l24.43,14.2a4.48,4.48,0,0,0,.7.31l.27.08.35.09.44.07.1,0,.6,0h.1l.59,0h.08l.57-.1.11,0a4,4,0,0,0,.49-.15l.09,0a3.32,3.32,0,0,0,.54-.25l40.3-23.27a2.36,2.36,0,0,0,.46-.33c.05,0,.07-.08.11-.12a2.34,2.34,0,0,0,.22-.23,1.11,1.11,0,0,0,.07-.16.72.72,0,0,0,.12-.23.9.9,0,0,0,0-.16.93.93,0,0,0,0-.23v1.43a.93.93,0,0,1,0,.23.9.9,0,0,1,0,.16.72.72,0,0,1-.12.23,1.11,1.11,0,0,1-.07.16,2.34,2.34,0,0,1-.22.23,1.2,1.2,0,0,1-.11.12,2.36,2.36,0,0,1-.46.33l-40.3,23.27a4.45,4.45,0,0,1-.54.25l-.09,0a4,4,0,0,1-.49.15l-.11,0a4.85,4.85,0,0,1-.57.09l-.08,0-.59,0h-.1a4,4,0,0,1-.6,0H193l-.44-.07-.35-.09-.27-.08a4.48,4.48,0,0,1-.7-.31l-24.43-14.2a3.25,3.25,0,0,1-.45-.32l0,0a1.88,1.88,0,0,1-.3-.34l0,0a1.87,1.87,0,0,1-.17-.35,0,0,0,0,1,0,0,1.12,1.12,0,0,1,0-.32h0v-1.55Z" style="fill:#e0e0e0"></path><path d="M165.81,348.71a1.29,1.29,0,0,0,0,.44.08.08,0,0,0,0,0,1.8,1.8,0,0,0,.17.34l0,0a1.88,1.88,0,0,0,.3.34l0,0a3.25,3.25,0,0,0,.45.32l24.43,14.2a4.48,4.48,0,0,0,.7.31l.27.08.35.09.44.07.1,0,.6,0h.1l.59,0h.08l.57-.1.11,0a4,4,0,0,0,.49-.15l.09,0a3.32,3.32,0,0,0,.54-.25l40.3-23.27a2.36,2.36,0,0,0,.46-.33c.05,0,.07-.08.11-.12a2.34,2.34,0,0,0,.22-.23,1.11,1.11,0,0,0,.07-.16.72.72,0,0,0,.12-.23.9.9,0,0,0,0-.16.93.93,0,0,0,0-.23v1.43a.93.93,0,0,1,0,.23.9.9,0,0,1,0,.16.72.72,0,0,1-.12.23,1.11,1.11,0,0,1-.07.16,2.34,2.34,0,0,1-.22.23,1.2,1.2,0,0,1-.11.12,2.36,2.36,0,0,1-.46.33l-40.3,23.27a4.45,4.45,0,0,1-.54.25l-.09,0a4,4,0,0,1-.49.15l-.11,0a4.85,4.85,0,0,1-.57.09l-.08,0-.59,0h-.1a4,4,0,0,1-.6,0H193l-.44-.07-.35-.09-.27-.08a4.48,4.48,0,0,1-.7-.31l-24.43-14.2a3.25,3.25,0,0,1-.45-.32l0,0a1.88,1.88,0,0,1-.3-.34l0,0a1.87,1.87,0,0,1-.17-.35,0,0,0,0,1,0,0,1.12,1.12,0,0,1,0-.32h0v-1.55Z" style="opacity:0.2"></path><path d="M237.56,340.1a.72.72,0,0,1-.12.23,1.11,1.11,0,0,1-.07.16,2.34,2.34,0,0,1-.22.23s-.06.09-.11.12a2.36,2.36,0,0,1-.46.33l-40.3,23.27a3.32,3.32,0,0,1-.54.25l-.09,0a4,4,0,0,1-.49.15l-.11,0-.57.1h-.08l-.59,0h-.1l-.6,0-.1,0-.44-.07-.35-.09-.27-.08a4.48,4.48,0,0,1-.7-.31l-24.43-14.2a3.25,3.25,0,0,1-.45-.32l0,0a1.88,1.88,0,0,1-.3-.34l0,0a1.8,1.8,0,0,1-.17-.34.08.08,0,0,1,0,0,1.29,1.29,0,0,1,0-.44,1.81,1.81,0,0,1,1-1.38l40.31-23.27a5.53,5.53,0,0,1,5,0l24.43,14.2a1.78,1.78,0,0,1,1,1.45.93.93,0,0,1,0,.23A.9.9,0,0,1,237.56,340.1Z" style="fill:#e0e0e0"></path><path d="M234.21,339.71l-39.16,22.61-.15.07-.09,0-.3.09-.22.05h-.15l-.38,0h0l-.41,0-.25,0-.32-.09a1.53,1.53,0,0,1-.27-.11L179.89,355l40.44-23.35Z" style="fill:#e0e0e0"></path><path d="M193.72,362.59h0Z" style="fill:#263238"></path><path d="M197,333.49l7.36,4.34a.74.74,0,0,1,0,1.28l-11,6.36a1.23,1.23,0,0,1-1.23,0l-7.37-4.34a.74.74,0,0,1,0-1.28l11-6.36A1.25,1.25,0,0,1,197,333.49Z" style="fill:#e0e0e0"></path><path d="M234.21,339.71l-39.16,22.61-.15.07-.09,0-.3.09-.22.05h-.15l-.38,0h0l-.41,0-.25,0-.32-.09a1.53,1.53,0,0,1-.27-.11L179.89,355l40.44-23.35Z" style="opacity:0.4"></path><path d="M197,333.49l7.36,4.34a.74.74,0,0,1,0,1.28l-11,6.36a1.23,1.23,0,0,1-1.23,0l-7.37-4.34a.74.74,0,0,1,0-1.28l11-6.36A1.25,1.25,0,0,1,197,333.49Z" style="opacity:0.4"></path><path d="M194,363l4.17-26.53a4.89,4.89,0,0,1,2.37-3.47l40.59-23.6a1.22,1.22,0,0,1,1.08-.07h0l1,.48-.32.12a1.16,1.16,0,0,1,.1.72l-4.17,26.53a4.91,4.91,0,0,1-2.38,3.48l-40.58,23.59a1.45,1.45,0,0,1-.26.11l0,.39-.93-.46h0A1.2,1.2,0,0,1,194,363Z" style="fill:#e0e0e0"></path><path d="M194,363l4.17-26.53a4.89,4.89,0,0,1,2.37-3.47l40.59-23.6a1.22,1.22,0,0,1,1.08-.07h0l1,.48-.32.12a1.16,1.16,0,0,1,.1.72l-4.17,26.53a4.91,4.91,0,0,1-2.38,3.48l-40.58,23.59a1.45,1.45,0,0,1-.26.11l0,.39-.93-.46h0A1.2,1.2,0,0,1,194,363Z" style="opacity:0.30000000000000004"></path><path d="M201.37,333.39,242,309.8a1.23,1.23,0,0,1,1.83,1.25l-4.17,26.53a4.87,4.87,0,0,1-2.38,3.47l-40.58,23.6a1.23,1.23,0,0,1-1.83-1.25L199,336.87A4.94,4.94,0,0,1,201.37,333.39Z" style="fill:#e0e0e0"></path><path d="M221,334.08a9,9,0,0,0-4,5.8c-.26,2.07,1.1,2.84,3.07,1.71a9,9,0,0,0,4-5.81C224.37,333.71,223,333,221,334.08Z" style="fill:#fff"></path><path d="M153.18,304.14l-3.66,12.56,22.39,15.91,7.53,3.17a11.75,11.75,0,0,1,5,4l6.14,8.5c.69,1.43-2.51,3.74-4,4.14h0a5.49,5.49,0,0,1-5.08-1.28l-4.74-4.34-1.31-.46a19.83,19.83,0,0,1-9.52-7.14h0L139.61,329a10,10,0,0,1-6.06-12l4.36-16.2Z" style="fill:#ffa8a7"></path><path d="M164.13,327.07,149.52,316.7l3.41-10,6.49-19.41s.21-17-7-16.48-10.88,4.71-16.43,29.93l-3.28,15.06a12.48,12.48,0,0,0,8.14,14.46l18.58,6.38A9.39,9.39,0,0,1,164.13,327.07Z" style="fill:#BA68C8"></path><path d="M164.13,327.07,149.52,316.7l3.41-10,6.49-19.41s.21-17-7-16.48-10.88,4.71-16.43,29.93l-3.28,15.06a12.48,12.48,0,0,0,8.14,14.46l18.58,6.38A9.39,9.39,0,0,1,164.13,327.07Z" style="fill:#fff;opacity:0.30000000000000004"></path></g><g id="Plants"><path d="M74.64,331.91l-15,.44-15-.44c-.64,10.15,1.34,20.49,4.07,25.54h0a6.79,6.79,0,0,0,3,3c4.43,2.56,11.6,2.56,16,0a6.57,6.57,0,0,0,3-3.1C73.32,352.29,75.28,342,74.64,331.91Z" style="fill:#fff"></path><path d="M70.2,325.76c5.89,3.4,5.92,8.91.07,12.31s-15.36,3.4-21.24,0-5.92-8.91-.07-12.31S64.32,322.36,70.2,325.76Z" style="fill:#ebebeb"></path><path d="M67.88,327.11c4.59,2.65,4.61,6.95.05,9.6s-12,2.66-16.57,0-4.62-6.95-.06-9.6S63.28,324.46,67.88,327.11Z" style="fill:#e0e0e0"></path><g style="opacity:0.15"><path d="M67.88,327.11c4.59,2.65,4.61,6.95.05,9.6s-12,2.66-16.57,0-4.62-6.95-.06-9.6S63.28,324.46,67.88,327.11Z"></path></g><path d="M52,301.17c-2.44-3-5.28-5.76-7.52-8.95-1.53-2.18-2.8-4.84-2.16-7.42a6.63,6.63,0,0,1,5.26-4.63,10.1,10.1,0,0,1,7.06,1.58,21.57,21.57,0,0,1,5.33,5.07,53.05,53.05,0,0,1,11.17,37.86,7.92,7.92,0,0,1-1.4,4.35,4.34,4.34,0,0,1-4.49,1.37c-4.09-1.21-3.55-6.74-4.22-10a45,45,0,0,0-4.7-12.76A44.6,44.6,0,0,0,52,301.17Z" style="fill:#BA68C8"></path><path d="M65.46,326.28a.35.35,0,0,1-.29-.33c-.29-6.57-2.42-29-17.88-41.72a.36.36,0,0,1,0-.5.36.36,0,0,1,.51-.05c15.68,12.91,17.84,35.59,18.13,42.24a.36.36,0,0,1-.34.37Z" style="fill:#f0f0f0"></path><path d="M67.72,327a11,11,0,0,1-5,7,14.06,14.06,0,0,1-7.6,1.27,33.19,33.19,0,0,1-7.7-1.82c-1.24-.42-2.62-1-2.75-2.52a2.72,2.72,0,0,1,.88-2.16,8.87,8.87,0,0,1,.79-.69.79.79,0,0,0-.42-1.42,17.7,17.7,0,0,1-2.19-.27,9.7,9.7,0,0,1-4.62-2.09A7.74,7.74,0,0,1,37,321.1a3,3,0,0,1,.31-3.1,3.35,3.35,0,0,1,1.71-.74c.55-.12,1.1-.22,1.65-.31a.73.73,0,0,0,.17-1.4l-2.33-1a4.39,4.39,0,0,1-1.77-1.1,3.88,3.88,0,0,1-.45-3.21c.29-1.46.79-2.87,1.13-4.31a9.2,9.2,0,0,0,.16-4.42,37,37,0,0,1,13.05.88A9.27,9.27,0,0,1,54.15,304a5.19,5.19,0,0,1,1.68,4.8.34.34,0,0,0,.64.17L58,306.21a1.76,1.76,0,0,1,2.31-.74,10.69,10.69,0,0,1,3.41,2.68,5.87,5.87,0,0,1,1.45,4.35,37.37,37.37,0,0,1-1.08,6.4.59.59,0,0,0,.93.63l.07,0a2,2,0,0,1,1.4-.41c1.32.16,1.65,1.5,1.74,2.63A21.79,21.79,0,0,1,67.72,327Z" style="fill:#BA68C8"></path><path d="M67.72,327a11,11,0,0,1-5,7,14.06,14.06,0,0,1-7.6,1.27,33.19,33.19,0,0,1-7.7-1.82c-1.24-.42-2.62-1-2.75-2.52a2.72,2.72,0,0,1,.88-2.16,8.87,8.87,0,0,1,.79-.69.79.79,0,0,0-.42-1.42,17.7,17.7,0,0,1-2.19-.27,9.7,9.7,0,0,1-4.62-2.09A7.74,7.74,0,0,1,37,321.1a3,3,0,0,1,.31-3.1,3.35,3.35,0,0,1,1.71-.74c.55-.12,1.1-.22,1.65-.31a.73.73,0,0,0,.17-1.4l-2.33-1a4.39,4.39,0,0,1-1.77-1.1,3.88,3.88,0,0,1-.45-3.21c.29-1.46.79-2.87,1.13-4.31a9.2,9.2,0,0,0,.16-4.42,37,37,0,0,1,13.05.88A9.27,9.27,0,0,1,54.15,304a5.19,5.19,0,0,1,1.68,4.8.34.34,0,0,0,.64.17L58,306.21a1.76,1.76,0,0,1,2.31-.74,10.69,10.69,0,0,1,3.41,2.68,5.87,5.87,0,0,1,1.45,4.35,37.37,37.37,0,0,1-1.08,6.4.59.59,0,0,0,.93.63l.07,0a2,2,0,0,1,1.4-.41c1.32.16,1.65,1.5,1.74,2.63A21.79,21.79,0,0,1,67.72,327Z" style="opacity:0.2"></path><path d="M60.79,333.59a53,53,0,0,0-3.51-10.17.36.36,0,0,0-.12-.27c-.08-.18-.16-.35-.25-.53A32.81,32.81,0,0,1,60.39,311a.36.36,0,0,0-.62-.36,33.24,33.24,0,0,0-3.43,10.83,47.71,47.71,0,0,0-15-18,.36.36,0,1,0-.41.59c7.55,5.26,12.31,12.54,15.21,18.58a22,22,0,0,0-12.45-1.68.36.36,0,0,0-.28.42.34.34,0,0,0,.28.28h.14c.07,0,6.9-1.25,12.81,2a52.35,52.35,0,0,1,3.48,10.08.34.34,0,0,0,.28.28h.14A.35.35,0,0,0,60.79,333.59Z" style="fill:#f0f0f0"></path><path d="M440,377.58,425,378l-15-.44c-.64,10.15,1.34,20.49,4.07,25.54h0a6.86,6.86,0,0,0,3,3c4.44,2.56,11.6,2.56,16,0a6.74,6.74,0,0,0,3-3.1C438.67,398,440.62,387.68,440,377.58Z" style="fill:#fff"></path><path d="M435.55,371.43c5.88,3.4,5.91,8.91.07,12.3s-15.36,3.4-21.25,0-5.92-8.9-.07-12.3S429.66,368,435.55,371.43Z" style="fill:#ebebeb"></path><path d="M433.22,372.78c4.59,2.65,4.61,7,0,9.6s-12,2.65-16.57,0-4.62-6.95-.06-9.6S428.63,370.13,433.22,372.78Z" style="fill:#e0e0e0"></path><g style="opacity:0.15"><path d="M433.22,372.78c4.59,2.65,4.61,7,0,9.6s-12,2.65-16.57,0-4.62-6.95-.06-9.6S428.63,370.13,433.22,372.78Z"></path></g><path d="M449.66,313.48c-33.86,11.08-34.16,33.73-26.53,49.86,1.92,3.26,7.75,5,12.82-15l-8.89,1.14,10.36-5.26,2.69-8-8.64.64,11-4.61A161.17,161.17,0,0,1,449.66,313.48Z" style="fill:#BA68C8"></path><path d="M449.66,313.48c-33.86,11.08-34.16,33.73-26.53,49.86,1.92,3.26,7.75,5,12.82-15l-8.89,1.14,10.36-5.26,2.69-8-8.64.64,11-4.61A161.17,161.17,0,0,1,449.66,313.48Z" style="opacity:0.2"></path><path d="M440.08,319.14c-17.85,13.55-19.46,29.08-14.42,45.3C423.88,350.16,422,335.72,440.08,319.14Z" style="fill:#fff"></path><path d="M392.32,336.48c33.37,4.7,37.42,25.74,33,42-1.25,3.36-6.39,6-14.44-11.88l8.47-.41-10.52-3.17L405,356l8.16-.84-11-2.47A155.14,155.14,0,0,0,392.32,336.48Z" style="fill:#BA68C8"></path><path d="M392.32,336.48c33.37,4.7,37.42,25.74,33,42-1.25,3.36-6.39,6-14.44-11.88l8.47-.41-10.52-3.17L405,356l8.16-.84-11-2.47A155.14,155.14,0,0,0,392.32,336.48Z" style="fill:#fff;opacity:0.2"></path><path d="M402.17,340.17c18.88,9.65,23,23.85,21,39.79C422.42,366.37,421.82,352.6,402.17,340.17Z" style="fill:#fff"></path><path d="M459.42,344.37c-30.6.5-36.6,19-34.44,34.19.76,3.17,5.09,6.08,14.35-9.09l-7.59-1.32,9.84-1.68,4.25-5.92-7.25-1.67,10.17-1A139.13,139.13,0,0,1,459.42,344.37Z" style="fill:#BA68C8"></path><path d="M450.13,346.58c-18.1,6.59-23.37,18.93-23.35,33.53C429,367.93,431,355.59,450.13,346.58Z" style="fill:#fff"></path></g></svg>