<svg xmlns="http://www.w3.org/2000/svg" viewBox="0 0 500 500"><g id="background-complete"><circle cx="404.19" cy="96.96" r="54.93" transform="translate(49.82 314.21) rotate(-45)" style="fill:#fafafa"></circle><path d="M405,152.67a55.71,55.71,0,1,1,54.57-61.73h0a55.78,55.78,0,0,1-49.37,61.41C408.47,152.54,406.73,152.64,405,152.67ZM403.39,42.81c-1.67,0-3.35.13-5.05.32a54.06,54.06,0,1,0,5.05-.32Z" style="fill:#e0e0e0"></path><path d="M429.62,90.25a3.86,3.86,0,0,0-6.21-.22,13.33,13.33,0,0,0-1.63,3.81c-1,3.34-1.93,6.72-2.92,10.07-.11.36-.53.63-.81.94-.23-.34-.61-.66-.67-1q-.44-2.85-.73-5.72c-.41-3.75-.77-7.51-1.17-11.26-.68-6.31-1.36-12.61-2.09-18.91a3.78,3.78,0,0,0-.87-1.94,3.65,3.65,0,0,0-4.27-.7,3.49,3.49,0,0,0-1.84,3.6q1.08,10,2.17,20.06a2.35,2.35,0,0,1,.06.94c-.08.25-.36.59-.59.61s-.57-.24-.7-.47a2.28,2.28,0,0,1-.15-.92q-1.27-11.65-2.54-23.31a11.76,11.76,0,0,0-.2-1.45A2.72,2.72,0,0,0,402,62c-2.88-.44-4.77,1.35-4.45,4.25q1.23,11.5,2.49,23a5.6,5.6,0,0,1,.08,1.35.84.84,0,0,1-.52.61.88.88,0,0,1-.71-.42,4.53,4.53,0,0,1-.22-1.23c-.67-6.14-1.31-12.27-2-18.4a3.53,3.53,0,0,0-7,.79c.69,6.52,1.41,13,2.11,19.55a3.73,3.73,0,0,1,.1,1.14,3.79,3.79,0,0,1-.56,1c-.28-.29-.78-.54-.82-.86-.3-2.36-.51-4.74-.76-7.1-.27-2.51-.52-5-.83-7.53a3.33,3.33,0,0,0-4-2.83,3.05,3.05,0,0,0-2.77,3.53q.59,7.38,1.18,14.77s0,0,0,0c.32,3,.61,6,.81,9A45.66,45.66,0,0,0,388.3,120a16.22,16.22,0,0,0,12.29,9.36,23.44,23.44,0,0,0,17-3.7,15.67,15.67,0,0,0,7.06-9.47c1.88-7.63,3.6-15.31,5.3-23A4.42,4.42,0,0,0,429.62,90.25Z" style="fill:#e0e0e0"></path><polygon points="445.87 231.19 438.17 223.49 445.87 215.79 441.45 211.37 433.74 219.07 426.04 211.37 421.62 215.79 429.32 223.49 421.62 231.19 426.04 235.62 433.74 227.92 441.45 235.62 445.87 231.19" style="fill:#e0e0e0"></polygon><polygon points="254.89 65.74 246.99 57.83 254.89 49.92 250.35 45.38 242.44 53.29 234.53 45.38 229.99 49.92 237.9 57.83 229.99 65.74 234.53 70.28 242.44 62.37 250.35 70.28 254.89 65.74" style="fill:#e0e0e0"></polygon><polygon points="110.09 238.98 99.62 230.97 107.63 220.5 101.61 215.9 93.6 226.37 83.13 218.36 78.53 224.38 89 232.38 80.99 242.86 87.01 247.46 95.02 236.99 105.49 245 110.09 238.98" style="fill:#ebebeb"></polygon></g><g id="background-simple"><path d="M419.29,116.89l-2.22-3.62c-18.73-30.48-52.61-48.86-88.32-46.63a95.54,95.54,0,0,0-13.67,1.85c-32.47,6.87-60.73,31.11-72.44,62.17-6.89,18.26-8.81,39.29-21.88,53.78-17,18.87-45.89,19.46-71.28,18.68S95.19,203,78.26,222c-10.6,11.86-14,28.73-13.11,44.61,2.26,42.06,31.94,79.67,69.68,98.36s82.19,20.37,123.5,12.15c57.87-11.52,112.9-43.16,146-92S445.76,169.63,419.29,116.89Z" style="fill:#ebebeb"></path></g><g id="speech-bubble"><path d="M197.8,166.87l-16.49-20.1a60.63,60.63,0,1,0-11.56,18.37l0,0Z" style="fill:#fafafa"></path><path d="M197.8,166.87l-28.07-1.57h-.2l.09-.18,0,0,.21.15a61.94,61.94,0,0,1-11,9.49,60.53,60.53,0,0,1-15.53,7.47,61.65,61.65,0,0,1-9.35,2.14,59.18,59.18,0,0,1-10.15.66,60.78,60.78,0,0,1-55.34-38.76,61.84,61.84,0,0,1-3.92-26.61,60.58,60.58,0,0,1,8.58-26.69,58.57,58.57,0,0,1,8.94-11.46A59.26,59.26,0,0,1,93.27,72.6a60.57,60.57,0,0,1,12.65-5.91,61.63,61.63,0,0,1,13.33-2.81,60.14,60.14,0,0,1,25.75,3,60.51,60.51,0,0,1,40.19,48.81,60.17,60.17,0,0,1,0,17.23,61.35,61.35,0,0,1-3.76,13.86l0-.13c10.56,13,15.83,19.49,16.4,20.18l-16.59-20-.05-.06,0-.07a61.44,61.44,0,0,0,3.68-13.8,60,60,0,0,0,0-17.14,60.39,60.39,0,0,0-40-48.41,59.65,59.65,0,0,0-25.54-3,61.22,61.22,0,0,0-13.22,2.79A60.07,60.07,0,0,0,93.54,73a58.57,58.57,0,0,0-11.08,8.8,64.5,64.5,0,0,0-4.77,5.38,63.18,63.18,0,0,0-4.1,6,60.1,60.1,0,0,0-8.5,26.46A61.17,61.17,0,0,0,69,146.05a60.32,60.32,0,0,0,54.88,38.53,58.56,58.56,0,0,0,10.09-.64,59.9,59.9,0,0,0,24.75-9.48,61.92,61.92,0,0,0,11-9.4l.68-.73-.47.87v0l-.11-.19Z" style="fill:#263238"></path><polygon points="142.56 135.54 131.33 124.31 142.56 113.09 136.11 106.64 124.88 117.86 113.66 106.64 107.21 113.09 118.43 124.31 107.21 135.54 113.66 141.99 124.88 130.76 136.11 141.99 142.56 135.54" style="fill:#FF725E"></polygon></g><g id="Characters"><path d="M332.36,229.94c8.79,4.8,20.33-.26,26.08-8.45s7.17-18.56,8.43-28.49q2.44-19.22,4.88-38.42c1.42-11.25,4-20.49.32-33.85-4.26-15.49-23.94-19.86-23.94-19.86s-8.69-8-13.71-11.32c-8.28-5.46-16.75-6.66-25.64-5.4a89.45,89.45,0,0,0-38.1,15.27,39,39,0,0,1-22.88,7.11,22.3,22.3,0,0,1-2.91-.19c-5.53-.78-16-4.36-18.74,2.68s6,19.59,6,19.59-9.79-2.5-10.3,5.53,10.52,27.41,29.75,27.64" style="fill:#FF725E"></path><g style="opacity:0.30000000000000004"><path d="M332.36,229.94c8.79,4.8,20.33-.26,26.08-8.45s7.17-18.56,8.43-28.49q2.44-19.22,4.88-38.42c1.42-11.25,4-20.49.32-33.85-4.26-15.49-23.94-19.86-23.94-19.86s-8.69-8-13.71-11.32c-8.28-5.46-16.75-6.66-25.64-5.4a89.45,89.45,0,0,0-38.1,15.27,39,39,0,0,1-22.88,7.11,22.3,22.3,0,0,1-2.91-.19c-5.53-.78-16-4.36-18.74,2.68s6,19.59,6,19.59-9.79-2.5-10.3,5.53,10.52,27.41,29.75,27.64"></path></g><path d="M452.56,317.59c-6.89-26.17-30.83-33.23-30.83-33.23v.07c-21.84-8.7-34.25-9.47-65.2-18.21l2-106C360.06,126.51,341.7,97.54,308,97l-3.12.13A60.31,60.31,0,0,0,247.05,155c-1.15,29.23-2,61.55-1.2,77.18,1.73,32.33,34.3,36,34.3,36,0,.49,0,2.74-.06,6.06-1.46,0-18.93,2.36-37.6,6.16-11.8-3.59-46.71-13-69-6.27h0c-19.61,1-70,4.58-103.78,16.56C51,297.3,31,312.79,31,335.68c0,21.55,26.07,27.43,52.37,29.11,18.63,1.19,51.13-1.43,68.53-3.06l64.36,33.53,4.88,24.83,4,51.52,181.48-.26h60.86S459.44,343.76,452.56,317.59Z" style="fill:#FF725E"></path><g style="opacity:0.30000000000000004"><path d="M280.15,268.17s20.44.35,41.6-14.2c0,0-9.29,24-41.69,22.38Z"></path></g><g style="opacity:0.30000000000000004"><path d="M259,180a4.61,4.61,0,0,0,4.65,4.48,4.43,4.43,0,0,0,4.59-4.36,4.63,4.63,0,0,0-4.65-4.48A4.41,4.41,0,0,0,259,180Z"></path><path d="M254.51,170.24c.6.58,4-2.16,9-2.35s8.72,2.14,9.23,1.51c.25-.28-.38-1.34-2-2.43a12.68,12.68,0,0,0-7.42-2,12.22,12.22,0,0,0-7.11,2.62C254.69,168.87,254.22,170,254.51,170.24Z"></path><path d="M303.14,180a4.63,4.63,0,0,0,4.65,4.48,4.43,4.43,0,0,0,4.59-4.36,4.63,4.63,0,0,0-4.64-4.48A4.42,4.42,0,0,0,303.14,180Z"></path><path d="M302.38,169.45c.6.58,4-2.15,9-2.34s8.72,2.14,9.23,1.51c.25-.28-.37-1.35-2-2.44a12.76,12.76,0,0,0-7.42-2,12.16,12.16,0,0,0-7.11,2.62C302.57,168.08,302.09,169.2,302.38,169.45Z"></path><path d="M287,207.07c0-.29-3.1-.69-8.14-1.13-1.27-.07-2.48-.28-2.73-1.13s.14-2.3.69-3.8q1.61-4.68,3.35-9.82c4.65-14,8-25.45,7.39-25.64s-4.79,11-9.43,25L275,200.4c-.42,1.47-1.18,3.14-.45,5a3.15,3.15,0,0,0,2.17,1.77,8.23,8.23,0,0,0,2.16.21C283.9,207.46,287,207.35,287,207.07Z"></path><path d="M292.11,227.79c.81.08,1-5.31,5.81-9s10.49-2.82,10.56-3.57c.09-.34-1.24-1.1-3.66-1.27a13.49,13.49,0,0,0-8.81,2.68,11.71,11.71,0,0,0-4.52,7.53C291.19,226.45,291.74,227.81,292.11,227.79Z"></path><path d="M323.13,152.23c-1-1-5.27,1.6-10.88,3.36s-10.57,2.26-10.77,3.69c-.08.67,1.2,1.49,3.47,1.9a19.75,19.75,0,0,0,16.49-5.37C323,154.14,323.58,152.72,323.13,152.23Z"></path><path d="M271.76,158c-.45-1.36-4.07-1.38-8-2.69s-6.93-3.24-8.08-2.39c-.52.43-.38,1.68.71,3.19a12.2,12.2,0,0,0,12.94,4.09C271.11,159.57,272,158.63,271.76,158Z"></path></g><path d="M356.9,184.29c.54-.26,22-7.5,22.17,14.65S357,216.73,357,216.09,356.9,184.29,356.9,184.29Z" style="fill:#FF725E"></path><g style="opacity:0.30000000000000004"><path d="M363.64,207.64c.09-.07.39.26,1,.56a3.91,3.91,0,0,0,2.89,0c2.33-.88,4.26-4.61,4.33-8.61a12.69,12.69,0,0,0-1.13-5.51c-.69-1.61-1.75-2.74-2.93-2.93a2,2,0,0,0-2.27,1.08c-.29.62-.14,1.06-.26,1.1s-.48-.37-.31-1.29a2.45,2.45,0,0,1,.86-1.39,2.92,2.92,0,0,1,2.13-.59c1.71.11,3.26,1.66,4.06,3.4a13.07,13.07,0,0,1,1.4,6.16c-.1,4.46-2.35,8.66-5.54,9.62a4.13,4.13,0,0,1-3.54-.56C363.68,208.17,363.56,207.68,363.64,207.64Z"></path></g><path d="M244.37,142.84c10.2,8.33,29.68,1,42.14-3.29s21.54-13.4,33.79-18.22A27.52,27.52,0,0,1,330.46,119c3.5,0,7.14,1.33,9.26,4.11,2.34,3.06,2.45,7.31,1.58,11.06s-2.62,7.24-3.7,10.93c-2,6.78-1.7,14-1.39,21.06.44,9.94,1,20.29,5.86,29,1.92,3.42,5.76,6.84,9.34,5.23,4.09-1.84,3.31-7.77,4.81-12s5.75-7.07,8.19-10.94,3-8.85,3.12-13.53c.42-15.36-2.38-31-9.8-44.47S338,94.89,323.18,90.71c-15.38-4.36-32.43-.95-45.92,7.64s-23.51,22-29.57,36.79" style="fill:#FF725E"></path><g style="opacity:0.30000000000000004"><path d="M244.37,142.84c10.2,8.33,29.68,1,42.14-3.29s21.54-13.4,33.79-18.22A27.52,27.52,0,0,1,330.46,119c3.5,0,7.14,1.33,9.26,4.11,2.34,3.06,2.45,7.31,1.58,11.06s-2.62,7.24-3.7,10.93c-2,6.78-1.7,14-1.39,21.06.44,9.94,1,20.29,5.86,29,1.92,3.42,5.76,6.84,9.34,5.23,4.09-1.84,3.31-7.77,4.81-12s5.75-7.07,8.19-10.94,3-8.85,3.12-13.53c.42-15.36-2.38-31-9.8-44.47S338,94.89,323.18,90.71c-15.38-4.36-32.43-.95-45.92,7.64s-23.51,22-29.57,36.79"></path></g><g style="opacity:0.30000000000000004"><path d="M396.69,472.22c-.14,0-1.7-20.78-3.48-46.43s-3.1-46.45-3-46.46,1.71,20.77,3.48,46.43S396.84,472.21,396.69,472.22Z"></path></g><g style="opacity:0.30000000000000004"><path d="M417.09,297.85a3.11,3.11,0,0,1-.5.37l-1.5,1-1.08.7c-.39.27-.79.59-1.23.92a35.69,35.69,0,0,0-2.91,2.33l-1.63,1.44c-.56.51-1.08,1.1-1.66,1.67a50.2,50.2,0,0,0-3.43,3.89,53.13,53.13,0,0,0-10.21,21.27,50.48,50.48,0,0,0-.88,5.12c-.09.8-.22,1.58-.27,2.33s-.07,1.48-.1,2.17a35.56,35.56,0,0,0,0,3.74c0,.55,0,1.06.05,1.53s.09.89.13,1.28c.07.73.13,1.32.17,1.78a2.75,2.75,0,0,1,0,.63,3.51,3.51,0,0,1-.12-.61l-.27-1.78c-.06-.39-.12-.82-.18-1.28s-.06-1-.09-1.54a32,32,0,0,1-.09-3.76c0-.7.05-1.43.07-2.19s.16-1.54.24-2.36a50.62,50.62,0,0,1,.84-5.16,52.22,52.22,0,0,1,10.3-21.47,48.73,48.73,0,0,1,3.5-3.89c.59-.57,1.12-1.16,1.7-1.66l1.66-1.43a34.36,34.36,0,0,1,3-2.29c.45-.31.86-.63,1.26-.88L415,299l1.55-.9A2.47,2.47,0,0,1,417.09,297.85Z"></path></g><path d="M161.62,208.93c-11.43,7.28-16,22.52-13.81,31.52,1.1,4.54,3.16,9.11,2.26,13.69-.78,4-3.63,7.13-5.76,10.56-7.1,11.43-5.85,27.42,3,37.6s24.46,13.72,36.79,8.33" style="fill:#263238"></path><path d="M154.86,268.41c-27.81-61.15,38.33-91.87,74.41-81.68,33.91,9.58,48.38,26.46,54,49.14s5.31,47.27-3.58,68.88c-4.38,10.65-12.28,21.48-23.73,22.81" style="fill:#263238"></path><path d="M104.48,440.41c-9.33-5.76-15.8-19.2-14.32-28.82s6.36-19.21,14.83-24c5.71-3.24,13.07-4.47,16.68-9.95,3.2-4.84,2.27-11.37,4.65-16.66,1.93-4.27,5.9-7.34,10.21-9.18s9-2.56,13.63-3.28l29.8-4.62c3.29-.51,7-.93,9.65,1.09s3.25,5.74,3.59,9.08a564.08,564.08,0,0,1,2.87,69.87" style="fill:#263238"></path><path d="M187.16,395.19c-.48-29.21-.55-46.6-.56-46.43,0,0-25.11-4.17-30.32-36.93-2.58-16.3-1.76-43-.39-64.85,1.24-19.66,14.26-43.78,33.85-41.71l61.16,15.46a11.53,11.53,0,0,1,10.31,11.69h0l-3.8,144.77" style="fill:#ffbe9d"></path><path d="M179.43,268.49c-.53-.54-3.68,1.86-8.2,1.9s-7.87-2.18-8.35-1.62c-.24.25.3,1.23,1.76,2.27a11.53,11.53,0,0,0,6.69,2,11,11,0,0,0,6.52-2.2C179.23,269.73,179.69,268.73,179.43,268.49Z" style="fill:#263238"></path><path d="M223.85,266.71c-.56-.5-3.55,2.09-8.06,2.43s-8-1.66-8.43-1.07c-.22.26.38,1.21,1.9,2.15a11.58,11.58,0,0,0,6.81,1.53,11.06,11.06,0,0,0,6.36-2.61C223.73,268,224.13,266.94,223.85,266.71Z" style="fill:#263238"></path><path d="M189.72,295.25c0-.26-2.79-.74-7.34-1.32-1.16-.12-2.25-.35-2.44-1.14s.21-2.08.77-3.42q1.62-4.2,3.41-8.79c4.74-12.52,8.18-22.82,7.67-23s-4.76,9.81-9.5,22.32L179,288.75c-.44,1.31-1.19,2.8-.6,4.53a2.91,2.91,0,0,0,1.9,1.69,7.9,7.9,0,0,0,2,.27C186.86,295.49,189.71,295.51,189.72,295.25Z" style="fill:#263238"></path><path d="M186.6,348.76a83.35,83.35,0,0,0,43.88-11.71s-11.09,22.8-43.88,19.73Z" style="fill:#eb996e"></path><path d="M191.64,306.15a8.15,8.15,0,0,1,7.3-3,7.44,7.44,0,0,1,5.14,2.76,4.72,4.72,0,0,1,.36,5.39c-1.23,1.71-3.78,2.11-5.93,1.5a17.26,17.26,0,0,1-5.78-3.45,4.83,4.83,0,0,1-1.29-1.34,1.51,1.51,0,0,1,0-1.68" style="fill:#eb996e"></path><path d="M192.78,314.5c.7.23,1.94-4.52,6.88-6.85s9.86-.49,10.07-1.15c.14-.28-.89-1.21-3-1.82a12.2,12.2,0,0,0-8.34.69,10.65,10.65,0,0,0-5.45,5.82C192.22,313.13,192.45,314.45,192.78,314.5Z" style="fill:#263238"></path><path d="M204.1,253.8c.45,1.23,5,.65,10.26,1.29s9.6,2.08,10.3,1c.32-.53-.43-1.68-2.16-2.87a17.91,17.91,0,0,0-15.66-1.73C204.89,252.25,203.91,253.22,204.1,253.8Z" style="fill:#263238"></path><path d="M176.72,250.22c-1-.82-3.8.92-7.44,1.82s-6.89.89-7.36,2.1c-.19.58.53,1.47,2.1,2.1a11,11,0,0,0,11.92-3.16C177,251.76,177.18,250.63,176.72,250.22Z" style="fill:#263238"></path><path d="M255.59,275.35c.48-.23,17.54-7.77,17.74,11.84S253.79,303,253.75,302.4,255.59,275.35,255.59,275.35Z" style="fill:#ffbe9d"></path><path d="M259.67,294.91c.08-.06.34.24.92.49a3.41,3.41,0,0,0,2.56,0c2.06-.78,3.77-4.09,3.83-7.63a11.27,11.27,0,0,0-1-4.88,4,4,0,0,0-2.6-2.59,1.75,1.75,0,0,0-2,.95c-.26.55-.13.94-.23,1s-.42-.33-.27-1.14a2.14,2.14,0,0,1,.75-1.23,2.59,2.59,0,0,1,1.89-.52c1.51.09,2.89,1.46,3.6,3a11.62,11.62,0,0,1,1.24,5.46c-.08,3.95-2.07,7.67-4.9,8.52a3.67,3.67,0,0,1-3.13-.49C259.71,295.38,259.6,295,259.67,294.91Z" style="fill:#eb996e"></path><path d="M183.21,195.4c-10.92,5.64-15.41,28-10.89,39.39s16.68,17,28.68,19.63,23.77,2.94,35.6-.35c.82,8,5.6,16.13,13.32,18.23,10.22,2.78,20.52-6.58,22.8-16.93s-1.13-21-4.5-31.05" style="fill:#263238"></path><path d="M269.76,266.58c.05.06-.49.57-1.51,1.43a54.77,54.77,0,0,1-4.53,3.41,27.6,27.6,0,0,1-7.62,3.69,16.51,16.51,0,0,1-10.41-.15,16.13,16.13,0,0,1-7.88-6.81,22,22,0,0,1-2.83-8,29.14,29.14,0,0,1-.3-5.68,6.6,6.6,0,0,1,.25-2.07c.22,0,0,3,.84,7.61a22.61,22.61,0,0,0,2.92,7.6,15.5,15.5,0,0,0,7.4,6.3,15.9,15.9,0,0,0,9.73.21,28.82,28.82,0,0,0,7.47-3.37C267.3,268.24,269.64,266.42,269.76,266.58Z" style="fill:#263238"></path><path d="M226.66,272.06c-1,2.13-2.13,4.61-1.89,6.94a4,4,0,0,0,.74,2.07,2.29,2.29,0,0,0,1.91.95,2.59,2.59,0,0,0,2.12-2.56,7.51,7.51,0,0,0-1-3.45l-1.88-3.95" style="fill:#455a64"></path><path d="M223.94,272.06a5.44,5.44,0,0,1-1.62,1.6,11.76,11.76,0,0,1-10.55,1.61,5.57,5.57,0,0,1-2-1c0-.08.8.33,2.12.69a12.87,12.87,0,0,0,10.24-1.57C223.26,272.61,223.87,272,223.94,272.06Z" style="fill:#eb996e"></path><path d="M177.65,274.13a4.41,4.41,0,0,1-1.52,1.14,10.76,10.76,0,0,1-4.42,1.24,10.62,10.62,0,0,1-4.53-.74,4.33,4.33,0,0,1-1.64-1,18.3,18.3,0,0,1,1.76.62,12.25,12.25,0,0,0,4.38.57,12.63,12.63,0,0,0,4.29-1.05A14.07,14.07,0,0,1,177.65,274.13Z" style="fill:#eb996e"></path><path d="M341.24,389.29c-.33-7.08-5.18-13.33-11.13-17.18s-12.94-5.69-19.81-7.45c4.72-9.13,1.48-21.56-7.08-27.24-4.63-3.07-10.53-4.37-14.21-8.54-2.9-3.29-3.91-7.9-3.79-12.29s1.22-8.68,2.06-13a106.64,106.64,0,0,0-1.21-46.05l-2.14,8.67-5,13.34-7.86,27.34-12,6.14c-.64,11-.25,23-.89,34l21.65,10.71.23.47Z" style="fill:#263238"></path><path d="M272.64,277.66s0-.13.05-.36.1-.62.17-1.06a40.64,40.64,0,0,0,.41-4.08,37,37,0,0,0-2.36-14.76,35.51,35.51,0,0,0-5-9,36.87,36.87,0,0,0-8.69-8.06,35.62,35.62,0,0,0-12-5.12,61.2,61.2,0,0,0-14.07-1.12c-4.87.06-9.63.29-14.23.08a41.75,41.75,0,0,1-13-2.44,35.13,35.13,0,0,1-10.26-6.23,36.37,36.37,0,0,1-6.83-7.92,35.27,35.27,0,0,1-5.32-14.09l-.24-2.37c-.06-.68,0-1.27,0-1.74s0-.8,0-1.07a1.41,1.41,0,0,1,0-.36,1.65,1.65,0,0,1,0,.36c0,.27,0,.62,0,1.07s0,1.05.08,1.73.18,1.47.29,2.35a36.56,36.56,0,0,0,12.24,21.71A34.47,34.47,0,0,0,204,231.25a41.25,41.25,0,0,0,12.89,2.38c4.57.2,9.32,0,14.2-.1a61.3,61.3,0,0,1,14.19,1.15,36,36,0,0,1,12.19,5.22,36.92,36.92,0,0,1,8.76,8.2,35.78,35.78,0,0,1,5.05,9.17,36.6,36.6,0,0,1,2.21,14.9A26.54,26.54,0,0,1,272.64,277.66Z" style="fill:#455a64"></path><path d="M284.59,258.06a1.37,1.37,0,0,1,0-.33c0-.25,0-.58.06-1,.09-.86.08-2.13.06-3.77a36.13,36.13,0,0,0-.76-5.89,35.34,35.34,0,0,0-2.44-7.47,35.81,35.81,0,0,0-13.05-15.38,42,42,0,0,0-11-4.85,79,79,0,0,0-12.76-2.46c-8.86-1-17.42-1.32-25.05-2.9a54.4,54.4,0,0,1-10.56-3.2,37.12,37.12,0,0,1-8.26-4.91,30.39,30.39,0,0,1-5.56-5.66,25.41,25.41,0,0,1-3-5.19,19.38,19.38,0,0,1-.73-2.06,11.9,11.9,0,0,1-.4-1.55q-.12-.6-.18-1a1.63,1.63,0,0,1-.05-.34,1.89,1.89,0,0,1,.1.33c.06.24.13.55.23.95a12.44,12.44,0,0,0,.45,1.52,17.29,17.29,0,0,0,.77,2,25.24,25.24,0,0,0,3,5.1,30.25,30.25,0,0,0,5.55,5.54,37.28,37.28,0,0,0,8.2,4.8,53.78,53.78,0,0,0,10.48,3.13c7.59,1.54,16.12,1.82,25,2.85a78,78,0,0,1,12.84,2.49,42.31,42.31,0,0,1,11.14,4.94,36,36,0,0,1,13.13,15.63A36.45,36.45,0,0,1,284.91,253a30.22,30.22,0,0,1-.16,3.77c0,.41-.08.73-.11,1A1.23,1.23,0,0,1,284.59,258.06Z" style="fill:#455a64"></path><path d="M283.7,357.25a3.41,3.41,0,0,1-.55-.33c-.34-.24-.87-.56-1.5-1.05a40.36,40.36,0,0,1-5-4.46A43,43,0,0,1,266,310.14a40.53,40.53,0,0,1,2.27-6.34c.31-.73.62-1.27.81-1.64a2.34,2.34,0,0,1,.32-.55,2.58,2.58,0,0,1-.23.59c-.15.39-.43.94-.72,1.68a45.12,45.12,0,0,0-2.09,6.35,43.75,43.75,0,0,0,10.52,40.93,45.47,45.47,0,0,0,4.9,4.55c.61.51,1.12.86,1.44,1.12A2.74,2.74,0,0,1,283.7,357.25Z" style="fill:#455a64"></path><path d="M83.76,407l-.11-.33a3.14,3.14,0,0,1-.14-1,4.77,4.77,0,0,1,1.7-3.49A4.7,4.7,0,0,1,87.8,401a5.38,5.38,0,0,1,3.32.77,6.72,6.72,0,0,1,2.62,2.91,6.61,6.61,0,0,1,.35,4.37,8.32,8.32,0,0,1-2.51,4.12,7.92,7.92,0,0,1-4.77,2.12,10.3,10.3,0,0,1-9.57-5.61,13.53,13.53,0,0,1,.5-12.39,21.28,21.28,0,0,1,10.19-8.88,55.7,55.7,0,0,1,13.12-3.6c4.29-.79,8.5-1.67,11.89-3.8a14.59,14.59,0,0,0,4.25-3.89,11.69,11.69,0,0,0,2-5c.3-1.75.38-3.48.61-5.14a20.72,20.72,0,0,1,.48-2.42,10.93,10.93,0,0,1,.39-1.14,8,8,0,0,1,.47-1.08,13.32,13.32,0,0,1,2.55-3.56,19.24,19.24,0,0,1,3-2.48,32.74,32.74,0,0,1,5.49-2.93c1.57-.68,2.82-1.12,3.66-1.43l1-.33a1.36,1.36,0,0,1,.34-.09l-.32.14-.95.38c-.83.34-2.07.81-3.62,1.51a33.91,33.91,0,0,0-5.41,3,18.8,18.8,0,0,0-2.94,2.47,12.85,12.85,0,0,0-2.46,3.5,8.81,8.81,0,0,0-.45,1,10.32,10.32,0,0,0-.37,1.11,19.49,19.49,0,0,0-.45,2.37c-.22,1.64-.29,3.38-.59,5.17a12.1,12.1,0,0,1-2,5.21,15,15,0,0,1-4.37,4c-3.49,2.21-7.76,3.11-12.06,3.9a55.24,55.24,0,0,0-13,3.58,20.8,20.8,0,0,0-10,8.64,13,13,0,0,0-.52,11.93,9.86,9.86,0,0,0,9.11,5.4,7.5,7.5,0,0,0,4.53-2,7.92,7.92,0,0,0,2.42-3.92,6.17,6.17,0,0,0-.3-4.13A6.33,6.33,0,0,0,91,402a5.12,5.12,0,0,0-3.14-.78,4.55,4.55,0,0,0-2.49,1.11,4.72,4.72,0,0,0-1.73,3.33A7,7,0,0,0,83.76,407Z" style="fill:#263238"></path><path d="M303.86,359.73s.33.37,1,1a8.92,8.92,0,0,0,3.59,1.91,11.5,11.5,0,0,0,2.91.43,12.51,12.51,0,0,0,3.47-.49,10.54,10.54,0,0,0,3.56-1.81,10.93,10.93,0,0,0,2.84-3.46,14.17,14.17,0,0,0,1.06-10.06,16.29,16.29,0,0,0-6.94-9.3,21.86,21.86,0,0,0-5.83-2.69,42.31,42.31,0,0,0-6.65-1.16,16.93,16.93,0,0,1-6.78-2.06,10.38,10.38,0,0,1-4.28-5.88,16.86,16.86,0,0,1-.48-7.29A43.32,43.32,0,0,1,293,312,55.25,55.25,0,0,0,295.72,299a51.4,51.4,0,0,0-.5-12A49.47,49.47,0,0,0,292.57,277l-.4-1.11-.46-1.06c-.3-.7-.6-1.38-.89-2-.68-1.27-1.22-2.52-1.9-3.59s-1.23-2.12-1.88-3-1.15-1.74-1.73-2.43l-1.47-1.87-1.16-1.3-.7-.81a1.61,1.61,0,0,1-.23-.29s.1.08.27.25.43.45.74.78l1.2,1.27,1.51,1.85c.59.68,1.14,1.51,1.78,2.41s1.25,1.9,1.92,3,1.26,2.33,1.95,3.6c.3.66.6,1.34.91,2,.16.35.31.71.47,1.06l.42,1.12A50.48,50.48,0,0,1,295.65,287a51.17,51.17,0,0,1,.54,12.06,55,55,0,0,1-2.69,13.05,45.22,45.22,0,0,0-1.63,6.8,16.29,16.29,0,0,0,.47,7.07,9.84,9.84,0,0,0,4.05,5.59,16.4,16.4,0,0,0,6.58,2,43.5,43.5,0,0,1,6.72,1.19,22,22,0,0,1,5.95,2.77,16.67,16.67,0,0,1,7.1,9.6,14.5,14.5,0,0,1-1.16,10.34,11.09,11.09,0,0,1-3,3.54,10.75,10.75,0,0,1-3.68,1.83,12.69,12.69,0,0,1-3.55.46,12.3,12.3,0,0,1-3-.48,8.89,8.89,0,0,1-3.6-2,5.75,5.75,0,0,1-.73-.78A2.22,2.22,0,0,1,303.86,359.73Z" style="fill:#263238"></path><path d="M373,472S354.48,395.06,338,386.69s-79.78-39.63-79.78-39.63-3.87,29.27-34.59,29.42c-31.4.16-36.91-16-36.91-16S111.91,390.79,105,398.64c-10.3,11.64-17,73.33-17,73.33H373" style="fill:#455a64"></path><path d="M206.16,422.82a35.61,35.61,0,0,0-4.21-6.5,5.89,5.89,0,0,0-1.58-1.49,2.28,2.28,0,0,0-2.1-.19,2.34,2.34,0,0,0-1.2,1.85,3,3,0,0,0,.49,2.14,24,24,0,0,0,6.75,7,2,2,0,0,0,1.22.47,1.43,1.43,0,0,0,1.18-1.4A3.94,3.94,0,0,0,206.16,422.82Z" style="fill:#fff"></path><path d="M251.64,453.53a36,36,0,0,0-4.21-6.5,6.22,6.22,0,0,0-1.58-1.49,2.09,2.09,0,0,0-3.3,1.66,3.07,3.07,0,0,0,.49,2.15,24.11,24.11,0,0,0,6.75,7,2,2,0,0,0,1.22.47,1.43,1.43,0,0,0,1.18-1.4A4,4,0,0,0,251.64,453.53Z" style="fill:#fff"></path><path d="M289.45,461.18a35.56,35.56,0,0,0-4.2-6.5,6.08,6.08,0,0,0-1.59-1.49,2.26,2.26,0,0,0-2.09-.19,2.32,2.32,0,0,0-1.2,1.85,3,3,0,0,0,.49,2.14,24,24,0,0,0,6.75,7,2,2,0,0,0,1.21.47,1.42,1.42,0,0,0,1.18-1.4A3.83,3.83,0,0,0,289.45,461.18Z" style="fill:#fff"></path><path d="M325,447a35,35,0,0,0-4.2-6.5,5.92,5.92,0,0,0-1.59-1.49,2.26,2.26,0,0,0-2.09-.19,2.32,2.32,0,0,0-1.2,1.85,3,3,0,0,0,.49,2.14,24,24,0,0,0,6.75,7,2,2,0,0,0,1.21.47,1.42,1.42,0,0,0,1.18-1.4A3.83,3.83,0,0,0,325,447Z" style="fill:#fff"></path><path d="M330,404.87a36,36,0,0,0-4.21-6.5,6.1,6.1,0,0,0-1.59-1.49,2.32,2.32,0,0,0-2.09-.19,2.36,2.36,0,0,0-1.2,1.85,3,3,0,0,0,.49,2.15,24,24,0,0,0,6.75,7,2,2,0,0,0,1.22.47,1.43,1.43,0,0,0,1.18-1.4A4,4,0,0,0,330,404.87Z" style="fill:#fff"></path><path d="M359.25,451.68a35.09,35.09,0,0,0-4.21-6.5,5.89,5.89,0,0,0-1.58-1.49,2.28,2.28,0,0,0-2.1-.19,2.33,2.33,0,0,0-1.19,1.85,3,3,0,0,0,.48,2.14,24.15,24.15,0,0,0,6.75,7,2,2,0,0,0,1.22.47,1.42,1.42,0,0,0,1.18-1.4A3.83,3.83,0,0,0,359.25,451.68Z" style="fill:#fff"></path><path d="M103.84,459a35.56,35.56,0,0,0-4.2-6.5A6.08,6.08,0,0,0,98.05,451a2.29,2.29,0,0,0-2.09-.2,2.35,2.35,0,0,0-1.2,1.86,3,3,0,0,0,.49,2.14,23.87,23.87,0,0,0,6.75,7,1.94,1.94,0,0,0,1.21.48,1.43,1.43,0,0,0,1.18-1.4A3.83,3.83,0,0,0,103.84,459Z" style="fill:#fff"></path><path d="M115,426.21a35.09,35.09,0,0,0-4.21-6.5,5.89,5.89,0,0,0-1.58-1.49,2.29,2.29,0,0,0-2.09-.2,2.34,2.34,0,0,0-1.2,1.85,3,3,0,0,0,.49,2.15,24,24,0,0,0,6.74,7,2.12,2.12,0,0,0,1.22.48,1.44,1.44,0,0,0,1.18-1.4A3.8,3.8,0,0,0,115,426.21Z" style="fill:#fff"></path><path d="M134.92,463.34a35.09,35.09,0,0,0-4.21-6.5,5.89,5.89,0,0,0-1.58-1.49,2.31,2.31,0,0,0-2.1-.2,2.37,2.37,0,0,0-1.19,1.86,3,3,0,0,0,.48,2.14,23.87,23.87,0,0,0,6.75,7,2.12,2.12,0,0,0,1.22.48,1.45,1.45,0,0,0,1.18-1.4A3.8,3.8,0,0,0,134.92,463.34Z" style="fill:#fff"></path><path d="M135.5,398.31a35.91,35.91,0,0,0-4.2-6.5,6.09,6.09,0,0,0-1.59-1.49,2.08,2.08,0,0,0-3.29,1.66,3,3,0,0,0,.49,2.15,24.11,24.11,0,0,0,6.75,7,2,2,0,0,0,1.21.47,1.42,1.42,0,0,0,1.18-1.4A3.86,3.86,0,0,0,135.5,398.31Z" style="fill:#fff"></path><path d="M169.46,464.83a35.09,35.09,0,0,0-4.21-6.5,5.89,5.89,0,0,0-1.58-1.49,2.29,2.29,0,0,0-2.09-.2,2.35,2.35,0,0,0-1.2,1.86,3,3,0,0,0,.49,2.14,23.87,23.87,0,0,0,6.75,7,2.07,2.07,0,0,0,1.21.48,1.44,1.44,0,0,0,1.18-1.4A3.8,3.8,0,0,0,169.46,464.83Z" style="fill:#fff"></path><path d="M284.54,379.81a35.17,35.17,0,0,0-4.21-6.51,6.22,6.22,0,0,0-1.58-1.49,2.08,2.08,0,0,0-3.29,1.66,3,3,0,0,0,.49,2.15,24.08,24.08,0,0,0,6.74,7,2,2,0,0,0,1.22.47,1.42,1.42,0,0,0,1.18-1.4A3.8,3.8,0,0,0,284.54,379.81Z" style="fill:#fff"></path><path d="M272.83,432a34.72,34.72,0,0,0-4.2-6.5A6,6,0,0,0,267,424a2.32,2.32,0,0,0-2.09-.19,2.36,2.36,0,0,0-1.2,1.85,3,3,0,0,0,.49,2.15,24,24,0,0,0,6.75,7,2,2,0,0,0,1.21.47,1.41,1.41,0,0,0,1.18-1.39A3.8,3.8,0,0,0,272.83,432Z" style="fill:#fff"></path><path d="M300,412.63a35.12,35.12,0,0,0-4.2-6.51,6.26,6.26,0,0,0-1.59-1.49,2.32,2.32,0,0,0-2.09-.19,2.36,2.36,0,0,0-1.2,1.85,3,3,0,0,0,.49,2.15,24,24,0,0,0,6.75,7,2,2,0,0,0,1.21.47,1.42,1.42,0,0,0,1.18-1.4A3.8,3.8,0,0,0,300,412.63Z" style="fill:#fff"></path><path d="M240.06,417.1a35.09,35.09,0,0,0-4.21-6.5,6,6,0,0,0-1.58-1.49,2.28,2.28,0,0,0-2.1-.19,2.33,2.33,0,0,0-1.19,1.85,2.93,2.93,0,0,0,.49,2.14,24,24,0,0,0,6.74,7,2,2,0,0,0,1.22.47,1.42,1.42,0,0,0,1.18-1.4A3.86,3.86,0,0,0,240.06,417.1Z" style="fill:#fff"></path><path d="M253.25,392.1a35.69,35.69,0,0,0-4.21-6.51,6.1,6.1,0,0,0-1.59-1.49,2.32,2.32,0,0,0-2.09-.19,2.36,2.36,0,0,0-1.2,1.85,3,3,0,0,0,.49,2.15,24,24,0,0,0,6.75,7,2,2,0,0,0,1.22.47A1.43,1.43,0,0,0,253.8,394,3.91,3.91,0,0,0,253.25,392.1Z" style="fill:#fff"></path><path d="M208.84,391.44a35.17,35.17,0,0,0-4.21-6.51,6.22,6.22,0,0,0-1.58-1.49,2.08,2.08,0,0,0-3.29,1.66,3,3,0,0,0,.48,2.15,24.12,24.12,0,0,0,6.75,7,2,2,0,0,0,1.22.47,1.42,1.42,0,0,0,1.18-1.4A3.8,3.8,0,0,0,208.84,391.44Z" style="fill:#fff"></path><path d="M212.19,459.36a36,36,0,0,0-4.21-6.5,5.93,5.93,0,0,0-1.59-1.49,2.26,2.26,0,0,0-2.09-.19,2.34,2.34,0,0,0-1.2,1.85,3,3,0,0,0,.49,2.14,24,24,0,0,0,6.75,7,2,2,0,0,0,1.22.47,1.43,1.43,0,0,0,1.18-1.4A4,4,0,0,0,212.19,459.36Z" style="fill:#fff"></path><path d="M175.34,435.36a35.43,35.43,0,0,0-4.21-6.5,6.22,6.22,0,0,0-1.58-1.49,2.08,2.08,0,0,0-3.29,1.66,3,3,0,0,0,.48,2.15,24.11,24.11,0,0,0,6.75,7,2,2,0,0,0,1.22.47,1.43,1.43,0,0,0,1.18-1.4A3.86,3.86,0,0,0,175.34,435.36Z" style="fill:#fff"></path><path d="M310.08,471.69c-.14,0-.64-11-1.11-24.51s-.74-24.52-.6-24.52.65,11,1.12,24.5S310.23,471.68,310.08,471.69Z" style="fill:#263238"></path><path d="M124.21,472.67c-.14,0-1.18-8.27-2.31-18.51s-2-18.55-1.8-18.57,1.18,8.27,2.31,18.51S124.36,472.65,124.21,472.67Z" style="fill:#263238"></path><path d="M322.45,388.52c.05.09-1.29.69-3.21,2a25.92,25.92,0,0,0-3.17,2.59,26.16,26.16,0,0,0-5.74,8.16,26.81,26.81,0,0,0-1.37,3.86c-.6,2.26-.71,3.72-.81,3.71a3.57,3.57,0,0,1,0-1,8.88,8.88,0,0,1,.14-1.2c.08-.46.14-1,.29-1.57a23,23,0,0,1,1.3-4,24.35,24.35,0,0,1,5.84-8.31,23.36,23.36,0,0,1,3.29-2.56,15.65,15.65,0,0,1,1.38-.81,8.08,8.08,0,0,1,1.08-.53A4.22,4.22,0,0,1,322.45,388.52Z" style="fill:#263238"></path><path d="M221.93,386.91a22,22,0,0,1,0-10.77c.15,0-.15,2.42-.14,5.39S222.08,386.89,221.93,386.91Z" style="fill:#263238"></path><path d="M236.29,384.12a19.78,19.78,0,0,1-1.25-4.33,19.57,19.57,0,0,1-.74-4.44,19.35,19.35,0,0,1,1.25,4.33A19.57,19.57,0,0,1,236.29,384.12Z" style="fill:#263238"></path><path d="M252.25,373.75c-.15.05-.75-1.62-1.85-3.48s-2.25-3.19-2.14-3.3a11.55,11.55,0,0,1,4,6.78Z" style="fill:#263238"></path><path d="M261.36,366.19a46.26,46.26,0,0,0-2.6-4.65,44.09,44.09,0,0,0-3.56-4,13.21,13.21,0,0,1,6.16,8.61Z" style="fill:#263238"></path><path d="M200.81,382.93a10.22,10.22,0,0,1,1.54-4.68,10,10,0,0,1,3.17-3.76c.11.11-1.43,1.68-2.72,4S201,383,200.81,382.93Z" style="fill:#263238"></path><path d="M186.82,376.53a21.17,21.17,0,0,1,3.4-3.21A21.48,21.48,0,0,1,194,370.5a41.13,41.13,0,0,1-7.14,6Z" style="fill:#263238"></path><path d="M147.54,371.11c.63,7.66-3.7,14.83-8.58,20.78s-10.54,11.49-13.47,18.6c-2.57,6.26-2.78,13.26-2.08,20,.82,7.78,2.91,15.64,7.61,21.9,2.3,3.07,5.4,5.8,9.17,6.54,5.64,1.09,11.4-2.74,14-7.87s2.54-11.2,1.57-16.86c-.57-3.36-1.46-6.71-1.28-10.1s1.64-7,4.64-8.59c2.14-1.15,4.71-1.14,7-1.86,5.28-1.63,8.63-6.72,11.05-11.68a87,87,0,0,0,8.6-43.69,4,4,0,0,0-.84-2.61c-.85-.86-2.24-.78-3.43-.63a178.88,178.88,0,0,0-28.69,6" style="fill:#263238"></path><path d="M225.49,322.93c8.3-7.66,5.39-10.16,4.2-11.76-1.32-1.77-5.51-.56-5.51-.56s1.61-2.19,3-4.34,2.16-5.89-1.32-8.7-9.42,3.93-8.77,2.72,3.61-5.55.19-9.76S207,294.58,201.11,296c-4,1-20,1.76-31.68,1-7.3-.45-10.1-3.31-12-9.48l4.9-9.65c2.55-8-4.65-8.16-4.9-7.93l-11.62,7.87a5.84,5.84,0,0,0-2.49,3.92c-.63,4-1.76,10.81.74,22.19l-85.28.52a25.35,25.35,0,0,0-25.2,25.34h0a20.59,20.59,0,0,0,.17,2.62c-.22,9.47,5.95,18.43,14.07,23.46,8.47,5.25,18.71,6.85,28.68,7.19a140.9,140.9,0,0,0,62.64-12.37l23.14-.22,36.18-1.79a45.61,45.61,0,0,0,25.5-14.6,24.93,24.93,0,0,0,2.5-3.29C229.75,325.34,225.49,322.93,225.49,322.93Z" style="fill:#FF725E"></path><g style="opacity:0.30000000000000004"><path d="M217.05,300.29a7.15,7.15,0,0,1-1,1.1,15.24,15.24,0,0,1-1.21,1.21c-.51.43-1,1-1.73,1.47a24.12,24.12,0,0,1-2.24,1.59,29.09,29.09,0,0,1-2.74,1.57,34.47,34.47,0,0,1-6.79,2.5,42.5,42.5,0,0,1-13,1c-1.67-.13-3-.29-3.94-.45A7.74,7.74,0,0,1,183,310a8.29,8.29,0,0,1,1.46.1c.92.1,2.27.2,3.93.28a46,46,0,0,0,12.9-1.16,36,36,0,0,0,6.7-2.42,29.93,29.93,0,0,0,2.72-1.51,24.38,24.38,0,0,0,2.25-1.51C215.6,301.78,217,300.21,217.05,300.29Z"></path></g><g style="opacity:0.30000000000000004"><path d="M223.94,310.4a13.2,13.2,0,0,1-1.27,1.25,17.88,17.88,0,0,1-1.59,1.36,27.46,27.46,0,0,1-2.21,1.68l-1.33.92c-.46.31-1,.6-1.49.92-1,.65-2.18,1.23-3.38,1.86a56.16,56.16,0,0,1-8.24,3.23,58.89,58.89,0,0,1-8.65,1.83c-1.35.15-2.63.32-3.84.36s-2.33.11-3.36.12-2,0-2.77-.07-1.52-.09-2.09-.15a11.11,11.11,0,0,1-1.77-.24,13.42,13.42,0,0,1,1.78,0c.58,0,1.27.07,2.09.07s1.73,0,2.75,0,2.14-.06,3.34-.18,2.47-.24,3.81-.4a64.22,64.22,0,0,0,8.57-1.86,58.5,58.5,0,0,0,8.17-3.16c1.19-.62,2.35-1.17,3.37-1.8.52-.31,1-.59,1.5-.89l1.33-.88c.87-.54,1.59-1.12,2.24-1.6s1.2-.92,1.63-1.29A9.76,9.76,0,0,1,223.94,310.4Z"></path></g><g style="opacity:0.30000000000000004"><path d="M225.49,322.93a10.3,10.3,0,0,1-1.3,1c-.86.64-2.14,1.51-3.75,2.54A70.44,70.44,0,0,1,207,333.09a58.45,58.45,0,0,1-7.94,2.21,46.22,46.22,0,0,1-6.69.82c-1,.07-1.82.05-2.59,0a18,18,0,0,1-2-.09,9.93,9.93,0,0,1-1.65-.19,9.35,9.35,0,0,1,1.66,0c.54,0,1.19,0,1.94,0s1.62,0,2.57-.12a49.67,49.67,0,0,0,6.61-.92,61.93,61.93,0,0,0,7.86-2.23,77.19,77.19,0,0,0,13.4-6.42c1.64-1,2.94-1.8,3.83-2.39A10.71,10.71,0,0,1,225.49,322.93Z"></path></g><g style="opacity:0.30000000000000004"><path d="M142.54,295a5.94,5.94,0,0,1,.13.59c.08.43.19,1,.32,1.74.28,1.57.67,3.81,1.17,6.67l0,.15H144c-10.61.27-30.1.69-52.34,1.11l-26.48.47h0a38.79,38.79,0,0,0-14,1.12,26.13,26.13,0,0,0-9.74,4.91,22.44,22.44,0,0,0-4.68,5.34c-.46.7-.74,1.27-.95,1.64l-.24.43a.77.77,0,0,1-.09.13s0,0,.06-.15l.2-.44A15.53,15.53,0,0,1,36.6,317a21.48,21.48,0,0,1,4.63-5.48A25.92,25.92,0,0,1,51,306.46a38.91,38.91,0,0,1,14.19-1.22h0l26.48-.52c22.24-.42,41.73-.74,52.35-.86l-.13.15c-.45-2.87-.8-5.12-1-6.69l-.25-1.75A3,3,0,0,1,142.54,295Z"></path></g><g style="opacity:0.30000000000000004"><path d="M137,351.47a1.4,1.4,0,0,1-.23.12l-.67.34c-.61.27-1.48.71-2.64,1.2-2.31,1-5.71,2.37-10,3.8A142.22,142.22,0,0,1,89,363.79a102.11,102.11,0,0,1-19.39-.4,59.93,59.93,0,0,1-15.37-3.81A35.5,35.5,0,0,1,45,354.22c-.48-.41-.93-.75-1.28-1.09l-.86-.87-.53-.55a1.05,1.05,0,0,1-.16-.19s.07,0,.2.16l.56.5.9.84c.35.32.81.65,1.3,1a36.82,36.82,0,0,0,9.23,5.18,60.63,60.63,0,0,0,15.28,3.67,103.83,103.83,0,0,0,19.3.36,147.34,147.34,0,0,0,34.41-6.69c4.28-1.38,7.69-2.68,10-3.63,1.17-.46,2.06-.87,2.67-1.12l.7-.28A.86.86,0,0,1,137,351.47Z"></path></g></g><g id="Desk"><path d="M471.4,471.69c0,.14-99.13.26-221.39.26s-221.41-.12-221.41-.26,99.11-.26,221.41-.26S471.4,471.55,471.4,471.69Z" style="fill:#263238"></path></g></svg>