<svg xmlns="http://www.w3.org/2000/svg" viewBox="0 0 500 500"><g id="Shadows"><path id="Shadow" d="M78.88,461.17a8.11,8.11,0,0,1-1.29,3,14.14,14.14,0,0,1-4.84,4.3c-8.37,4.84-22,4.84-30.33,0a14.24,14.24,0,0,1-4.84-4.3,8.25,8.25,0,0,1-1.28-3h0c-.75-3.63,1.3-7.42,6.13-10.21,8.37-4.84,22-4.84,30.33,0C77.58,453.75,79.63,457.54,78.88,461.17Z" style="fill:#e0e0e0"></path><path id="shadow" d="M451.89,306.11l39.43-22.72a1,1,0,0,0,0-1.93L393.87,225a3.7,3.7,0,0,0-3.32,0l-39.43,22.73a1,1,0,0,0,0,1.92l97.45,56.47A3.66,3.66,0,0,0,451.89,306.11Z" style="fill:#e6e6e6"></path><path id="shadow" d="M30.92,384.58l169.56,97.95a15.7,15.7,0,0,0,14.19,0L463.28,339c3.91-2.27,3.91-5.93,0-8.2L293.72,232.85a15.7,15.7,0,0,0-14.19,0L30.92,376.39C27,378.65,27,382.32,30.92,384.58Z" style="fill:#e0e0e0"></path><path id="shadow" d="M409.26,476.32c19.46,2.61,65.57,4.3,67.34-21.88,1.09-15.54-14.26-27.19-26.47-27.44-4.82-.1-11.54.65-13.38,6.77-3,10.11-10.59,12.52-18.66,13.07-9,.27-17.83.13-26.77.77-4.86.24-9.21.44-13,4.11C366,466.92,398.1,474.83,409.26,476.32Z" style="fill:#ebebeb"></path></g><g id="Window"><g id="window"><polygon points="397.03 106 480.34 154.13 480.34 85.39 397.03 37.26 397.03 106" style="fill:#fff"></polygon><polygon points="480.34 154.13 480.34 156.69 394.85 107.3 397.03 106 480.34 154.13" style="fill:#fafafa"></polygon><path d="M390.74,109.67l93.67,54.12V83L390.74,28.87ZM394.85,36l85.49,49.39v71.3L394.85,107.3Z" style="fill:#f0f0f0"></path><polygon points="394.85 107.3 397.03 106 397.03 37.26 394.85 36 394.85 107.3" style="fill:#e0e0e0"></polygon><polygon points="390.74 28.87 392.95 27.61 486.62 81.72 484.41 82.99 390.74 28.87" style="fill:#fafafa"></polygon><polygon points="486.62 81.72 484.41 82.99 484.41 163.79 486.62 162.52 486.62 81.72" style="fill:#e0e0e0"></polygon><polygon points="441.84 63.13 439.63 61.85 439.63 133.16 441.84 131.89 441.84 63.13" style="fill:#e0e0e0"></polygon><polygon points="435.51 59.49 439.63 61.85 439.63 133.16 435.52 130.78 435.51 59.49" style="fill:#f0f0f0"></polygon></g></g><g id="Furniture"><g id="Drawer"><polygon points="443.55 284.13 446.94 300.93 450.23 302.83 453.49 300.95 456.91 284.13 450.23 280.27 443.55 284.13" style="fill:#e0e0e0"></polygon><polygon points="443.55 284.13 446.94 300.93 450.23 302.83 453.49 300.95 456.91 284.13 450.23 280.27 443.55 284.13" style="opacity:0.05"></polygon><polygon points="450.23 302.83 450.23 287.99 443.55 284.13 446.94 300.93 450.23 302.83" style="fill:#ebebeb"></polygon><polygon points="443.55 284.13 445.74 294.98 450.23 297.57 454.7 294.99 456.91 284.13 450.23 280.27 443.55 284.13" style="opacity:0.05"></polygon><polygon points="472.92 267.18 476.3 283.98 479.59 285.88 482.86 283.99 486.27 267.18 479.59 263.32 472.92 267.18" style="fill:#e0e0e0"></polygon><polygon points="472.92 267.18 476.3 283.98 479.59 285.88 482.86 283.99 486.27 267.18 479.59 263.32 472.92 267.18" style="opacity:0.05"></polygon><polygon points="479.59 285.88 479.59 271.03 472.92 267.18 476.3 283.98 479.59 285.88" style="fill:#ebebeb"></polygon><polygon points="472.92 267.18 475.1 278.02 479.59 280.62 484.07 278.04 486.27 267.18 479.59 263.32 472.92 267.18" style="opacity:0.05"></polygon><polygon points="356.68 233.98 360.07 250.78 363.36 252.68 366.63 250.79 370.04 233.98 363.36 230.12 356.68 233.98" style="opacity:0.05"></polygon><polygon points="363.36 252.68 363.36 237.83 356.68 233.98 360.07 250.78 363.36 252.68" style="fill:#ebebeb"></polygon><polygon points="356.69 233.98 358.87 244.83 363.36 247.42 367.84 244.84 370.04 233.98 363.36 230.12 356.69 233.98" style="opacity:0.05"></polygon><g id="Cabinet"><g id="cabinet"><polygon points="450.23 294.86 486.62 273.85 486.62 195.09 450.23 216.1 450.23 294.86" style="fill:#e0e0e0"></polygon><polygon points="450.23 216.1 354.79 161 354.79 239.76 450.23 294.86 450.23 216.1" style="fill:#ebebeb"></polygon><polygon points="354.79 161 450.23 216.1 486.62 195.09 391.18 139.98 354.79 161" style="fill:#f5f5f5"></polygon><polygon points="445.03 255.12 359.99 206.02 359.99 234.92 359.04 235.48 444.07 284.57 445.03 284.02 445.03 255.12" style="fill:#e0e0e0"></polygon><polygon points="444.07 255.67 359.03 206.57 359.04 235.48 444.07 284.57 444.07 255.67" style="fill:#f5f5f5"></polygon><path d="M403.19,237.53l-7.07-4.09c-.92-.53-1.66-.29-1.66.54a3.32,3.32,0,0,0,1.66,2.46l7.07,4.09c.92.53,1.66.29,1.66-.54A3.32,3.32,0,0,0,403.19,237.53Z" style="fill:#e0e0e0"></path><polygon points="445.03 220.21 359.99 171.11 359.99 200.02 359.04 200.57 444.08 249.67 445.03 249.12 445.03 220.21" style="fill:#e0e0e0"></polygon><polygon points="444.07 220.76 359.04 171.67 359.04 200.57 444.08 249.67 444.07 220.76" style="fill:#f5f5f5"></polygon><path d="M403.19,202.62l-7.07-4.08c-.92-.53-1.66-.29-1.66.54a3.32,3.32,0,0,0,1.66,2.46l7.07,4.08c.92.53,1.67.29,1.66-.54A3.32,3.32,0,0,0,403.19,202.62Z" style="fill:#e0e0e0"></path></g></g><g id="Pot"><path d="M387.12,153.14c-4.41,2.55-4.41,6.68,0,9.23s11.56,2.55,16,0,4.41-6.68,0-9.23S391.53,150.6,387.12,153.14Z" style="fill:#e0e0e0"></path><path d="M402.13,158.33c3.85-3.92,6.1-13.71,2.36-16.82H385.42c-3.75,3.11-1.49,12.89,2.35,16.81l.1.11a1.59,1.59,0,0,1,.13.13l.35.31.09.07.29.22c.17.12.33.22.5.32a12.67,12.67,0,0,0,11.44,0h0l.5-.32.27-.21.12-.09a3.11,3.11,0,0,0,.33-.29l.16-.15Z" style="fill:#ebebeb"></path><path d="M387.07,140.25c-4.35,2.52-4.35,6.59,0,9.1a17.43,17.43,0,0,0,15.76,0c4.35-2.51,4.35-6.58,0-9.09A17.4,17.4,0,0,0,387.07,140.25Z" style="fill:#fafafa"></path><path d="M390.16,142c-2.65,1.52-2.65,4,0,5.53a10.57,10.57,0,0,0,9.58,0c2.65-1.53,2.65-4,0-5.53A10.57,10.57,0,0,0,390.16,142Z" style="fill:#f5f5f5"></path><path d="M399.74,144.66a10.57,10.57,0,0,0-9.58,0,4.46,4.46,0,0,0-1.59,1.46,4.36,4.36,0,0,0,1.59,1.45,10.57,10.57,0,0,0,9.58,0,4.36,4.36,0,0,0,1.59-1.45A4.46,4.46,0,0,0,399.74,144.66Z" style="fill:#ebebeb"></path><path d="M390.74,146.12a21.89,21.89,0,0,1-3.46-4.61c-1.6-2.83-1.9-6.63-1.07-7.09s4.19,3.31,4.19,3.31a20.72,20.72,0,0,1-.35-4.83c.14-2.52.76-4.81,1.48-5.28s2.34,2.72,3,5,1.1,4.2,1.1,4.2a36.07,36.07,0,0,1,1.25-5.31c.84-2.39,1.6-2.93,2.19-2.7s1,1.36,1.15,4.55a30.34,30.34,0,0,1-.14,4.56s1.19-1.31,2.51-2.58,2.07-1.58,2.48-1.31.53,2.43-1.71,6.48a22.72,22.72,0,0,1-4.24,5.58S396.05,148.12,390.74,146.12Z" style="fill:#e0e0e0"></path></g><g id="Picture"><g id="Frame"><polygon points="445.41 199.21 443.99 199.89 417.74 184.74 419.16 184.06 445.41 199.21" style="fill:#fafafa"></polygon><polygon points="419.16 184.06 444.13 198.47 447.76 161.12 422.79 146.72 419.16 184.06" style="fill:#fff"></polygon><path d="M415.07,186l31.08,17.94,4.28-44-31.07-17.94Zm6.44-40,26.25,15.15L444,199.89l-26.25-15.15Z" style="fill:#f0f0f0"></path><polygon points="417.74 184.74 419.16 184.06 422.79 146.72 421.51 145.97 417.74 184.74" style="fill:#e0e0e0"></polygon><polygon points="419.36 141.94 420.79 141.27 451.87 159.21 450.43 159.88 419.36 141.94" style="fill:#fafafa"></polygon><polygon points="451.87 159.21 450.43 159.88 446.15 203.92 447.58 203.26 451.87 159.21" style="fill:#e0e0e0"></polygon></g><g id="Land"><polygon points="420.26 183.34 443.28 196.63 443.89 190.34 439.61 171.86 435.53 178.17 436.37 183.48 429.57 163.87 420.87 177.05 420.26 183.34" style="fill:#f0f0f0"></polygon><path d="M440,164.08a3.24,3.24,0,0,1,1.52,2.84c-.1,1-.94,1.42-1.88.88a3.23,3.23,0,0,1-1.52-2.84C438.18,163.93,439,163.54,440,164.08Z" style="fill:#f0f0f0"></path></g></g></g></g><g id="Pictures"><g id="picture"><g id="frame"><polygon points="103.11 95.4 104.82 96.42 139.77 76.23 138.07 75.22 103.11 95.4" style="fill:#fafafa"></polygon><polygon points="138.07 75.22 104.82 94.41 104.82 59.59 138.07 40.41 138.07 75.22" style="fill:#fff"></polygon><path d="M143,33.84,101.6,57.73V102L143,78.09Zm-3.22,42.39-35,20.19V59.59l35-20.18Z" style="fill:#f0f0f0"></path><polygon points="139.77 76.23 138.07 75.22 138.07 40.41 139.77 39.41 139.77 76.23" style="fill:#e0e0e0"></polygon><polygon points="142.99 33.84 141.26 32.85 99.87 56.74 101.6 57.73 142.99 33.84" style="fill:#fafafa"></polygon><polygon points="99.87 56.74 101.6 57.73 101.6 101.98 99.87 100.99 99.87 56.74" style="fill:#e0e0e0"></polygon></g><g id="land"><polygon points="136.77 74.18 106.12 91.88 106.12 83.03 113.78 65.33 118.56 69.75 116.84 77.17 127.42 54.53 136.77 65.33 136.77 74.18" style="fill:#f0f0f0"></polygon><path d="M118.27,56.78A5,5,0,0,0,116,60.71c0,1.44,1,2,2.27,1.31a5,5,0,0,0,2.26-3.93C120.53,56.64,119.52,56.06,118.27,56.78Z" style="fill:#f0f0f0"></path></g></g><g id="picture"><g id="frame"><polygon points="37.39 133.32 39.09 134.34 74.05 114.15 72.34 113.14 37.39 133.32" style="fill:#fafafa"></polygon><polygon points="72.34 113.14 39.09 132.33 39.09 97.51 72.35 78.33 72.34 113.14" style="fill:#fff"></polygon><path d="M77.26,71.76,35.88,95.66V139.9L77.26,116Zm-3.21,42.39-35,20.19V97.51l35-20.18Z" style="fill:#f0f0f0"></path><polygon points="74.05 114.15 72.34 113.14 72.35 78.33 74.05 77.33 74.05 114.15" style="fill:#e0e0e0"></polygon><polygon points="77.26 71.76 75.53 70.77 34.15 94.67 35.88 95.66 77.26 71.76" style="fill:#fafafa"></polygon><polygon points="34.15 94.67 35.88 95.66 35.88 139.9 34.15 138.91 34.15 94.67" style="fill:#e0e0e0"></polygon></g><g id="land"><polygon points="71.05 112.1 40.39 129.8 40.39 120.95 48.06 103.25 52.83 107.67 51.11 115.09 61.7 92.45 71.05 103.25 71.05 112.1" style="fill:#f0f0f0"></polygon><path d="M52.54,94.7a5,5,0,0,0-2.27,3.93c0,1.44,1,2,2.27,1.31A5,5,0,0,0,54.81,96C54.81,94.56,53.79,94,52.54,94.7Z" style="fill:#f0f0f0"></path></g></g></g><g id="Device"><g id="Laptop"><path d="M47.46,380.73c0,3.89,2.91,6.38,6.49,8.45l147,84.85a14.34,14.34,0,0,0,13,0L451,337.15c3.58-2.07,6.49-4.74,6.49-8.62s-2.91-6.29-6.49-8.36L304,235.32a14.34,14.34,0,0,0-13,0L54,372.2C50.36,374.27,47.46,376.85,47.46,380.73Z" style="fill:#37474f"></path><path d="M54,379.7l147,84.85a14.34,14.34,0,0,0,13,0L451,327.67c3.58-2.07,3.58-5.43,0-7.5L304,235.32a14.34,14.34,0,0,0-13,0L54,372.2C50.36,374.27,50.36,377.63,54,379.7Z" style="fill:#455a64"></path><path d="M207.41,466.11v9.47a13.17,13.17,0,0,1-6.49-1.55L54,389.18c-3.58-2.07-6.49-4.56-6.49-8.45,0-3.64,2.61-6.18,6-8.24-2.78,2-2.83,5.28.51,7.21l147,84.85A13.18,13.18,0,0,0,207.41,466.11Z" style="fill:#263238"></path><path d="M44.64,373.2c-2.85-1.31-3.62-3.57-3.89-7.55L28,179.26a12.89,12.89,0,0,1,6-11L271.09,31.41c3.59-2.07,6.22-3.19,9.53-.93,3.47,2.37,3.38,3.52,3.65,7.5L297,224.37a12.89,12.89,0,0,1-6,11L53.92,372.22C50.34,374.29,48.31,374.9,44.64,373.2Z" style="fill:#37474f"></path><path d="M156.71,108.55a4.85,4.85,0,0,0-2.6,4.32c.11,1.64,1.46,2.35,3,1.6a4.89,4.89,0,0,0,2.61-4.32C159.61,108.52,158.27,107.8,156.71,108.55Z" style="fill:#263238"></path><path d="M157.84,109.4a1.55,1.55,0,0,0-.84,1.39.62.62,0,0,0,1,.52,1.58,1.58,0,0,0,.84-1.4A.61.61,0,0,0,157.84,109.4Z" style="fill:#455a64"></path><path d="M284.28,38c-.28-4-3.41-5.53-7-3.47L40.2,171.4a12.26,12.26,0,0,0-4.44,4.77l-6.19-3.11h0A12.37,12.37,0,0,1,34,168.29L271.09,31.41c3.59-2.07,6.23-3.21,9.52-.93C284.1,32.89,284,34,284.28,38Z" style="fill:#455a64"></path><path d="M53.44,372.49c-3.26,1.93-5.33,2.17-8.8.71-2.66-1.12-3.62-3.57-3.89-7.55L28,179.25a11.58,11.58,0,0,1,1.56-6.19l6.18,3.09v0a11.62,11.62,0,0,0-1.55,6.18l12.74,186.4C47.19,372.45,50.38,374.3,53.44,372.49Z" style="fill:#263238"></path><path d="M44.7,183.93,272.86,52.24c2.15-1.24,4-.31,4.19,2.08L288.56,222.8a7.73,7.73,0,0,1-3.61,6.57L56.79,361.07c-2.15,1.24-4,.31-4.19-2.08L41.1,190.51A7.73,7.73,0,0,1,44.7,183.93Z"></path><path d="M44.7,183.93a7.73,7.73,0,0,0-3.6,6.58L52.4,356.09,278,225.9a7.74,7.74,0,0,0,3.6-6.57L270.25,53.74Z" style="fill:#BA68C8"></path><path d="M44.7,183.93a7.73,7.73,0,0,0-3.6,6.58L52.4,356.09,278,225.9a7.74,7.74,0,0,0,3.6-6.57L270.25,53.74Z" style="fill:#fff;opacity:0.45"></path><path d="M74,373.3,291.88,247.52a6.74,6.74,0,0,1,6.12,0l7.94,4.45c1.69,1,1.69,2.56,0,3.53L88,381.27a6.74,6.74,0,0,1-6.12,0L74,376.84C72.31,375.86,72.31,374.28,74,373.3Z" style="fill:#263238"></path><path d="M95.4,385.92,313.27,260.13a6.27,6.27,0,0,1,5.6-.3l56.71,32.74c1.39.81,1.16,2.26-.53,3.23L157.43,421.42a6.24,6.24,0,0,1-5.6.31l-57-32.59C93.48,388.34,93.71,386.9,95.4,385.92Z" style="fill:#263238"></path><path d="M284.19,313,291,309c.29-.17.32-.42.06-.57l-6.53-3.77a1.12,1.12,0,0,0-1,0l-6.82,3.94c-.29.17-.32.42-.06.57L283.2,313A1.12,1.12,0,0,0,284.19,313Zm-10-13.63-6.82,3.94c-.29.17-.32.42-.06.57l6.53,3.77a1.12,1.12,0,0,0,1,0l6.82-3.94c.29-.17.31-.43.06-.58l-6.53-3.76A1.08,1.08,0,0,0,274.23,299.34Zm-22,12.72-11.54,6.67c-.29.17-.32.42-.06.57l6.52,3.77a1.11,1.11,0,0,0,1,0l11.55-6.67c.29-.17.31-.42.06-.57L253.18,312A1.12,1.12,0,0,0,252.19,312.06Zm12.07-7L257.44,309c-.29.17-.32.43-.06.58l6.53,3.76a1.08,1.08,0,0,0,1,0l6.82-3.94c.29-.17.31-.42.06-.57l-6.53-3.77A1.09,1.09,0,0,0,264.26,305.1ZM237.5,320.55l-6.82,3.94c-.29.16-.32.42-.06.57l6.52,3.77a1.12,1.12,0,0,0,1,0l6.83-3.94c.29-.16.31-.42,0-.57l-6.52-3.77A1.09,1.09,0,0,0,237.5,320.55Zm-10,5.75-6.82,3.94c-.29.17-.32.43-.06.57l6.52,3.77a1.08,1.08,0,0,0,1,0l6.83-3.94c.29-.17.31-.42,0-.57l-6.52-3.77A1.12,1.12,0,0,0,227.53,326.3Zm25.58,15.38,6.82-3.94c.29-.17.32-.42.06-.57l-6.53-3.77a1.12,1.12,0,0,0-1,0l-6.82,3.94c-.29.17-.32.43-.06.57l6.53,3.77A1.08,1.08,0,0,0,253.11,341.68Zm-10,5.75L250,343.5c.29-.17.32-.43.06-.58l-6.53-3.76a1.08,1.08,0,0,0-1,0l-6.82,3.94c-.29.17-.32.42-.06.57l6.53,3.77A1.09,1.09,0,0,0,243.14,347.43Zm-10,5.76,6.82-3.94c.29-.17.32-.42.06-.57l-6.53-3.77a1.09,1.09,0,0,0-1,0l-6.82,3.93c-.29.17-.32.43-.06.58l6.53,3.76A1.08,1.08,0,0,0,233.17,353.19Zm-10,5.76L230,355c.29-.17.32-.43.06-.57l-6.53-3.77a1.08,1.08,0,0,0-1,0l-6.82,3.94c-.29.17-.32.42-.06.57l6.53,3.77A1.12,1.12,0,0,0,223.2,359Zm51-40.23,6.82-3.93c.29-.17.32-.43.06-.58l-6.53-3.76a1.08,1.08,0,0,0-1,0l-6.82,3.94c-.29.16-.32.42-.06.57l6.53,3.77A1.09,1.09,0,0,0,274.22,318.72Zm-11.14,17.2,15.22-8.78c.28-.17.31-.43.05-.58l-15.85-9.15a1.09,1.09,0,0,0-1,0L253.64,322c-.29.17-.31.42-.06.57l8.39,4.85c.26.15.24.4-.05.57l-6.3,3.64c-.29.16-.32.42-.06.57l6.53,3.77A1.12,1.12,0,0,0,263.08,335.92Zm-45.52-3.86L210.74,336c-.29.17-.32.42-.06.57l6.52,3.77a1.09,1.09,0,0,0,1,0l6.83-3.93c.29-.17.31-.43,0-.58L218.55,332A1.08,1.08,0,0,0,217.56,332.06Zm-10,5.76-6.82,3.93c-.29.17-.32.43-.06.58l6.52,3.76a1.08,1.08,0,0,0,1,0l6.83-3.94c.29-.17.31-.42,0-.57l-6.52-3.77A1.09,1.09,0,0,0,207.59,337.82Zm-55.17,61.45a1.08,1.08,0,0,0,1,0l6.82-3.94c.29-.17.31-.42.06-.57L153.76,391a1.09,1.09,0,0,0-1,0L146,394.93c-.29.17-.32.43-.06.58Zm-24.59-15.4L121,387.8c-.29.17-.32.43-.06.58l6.52,3.76a1.08,1.08,0,0,0,1,0l6.83-3.94c.29-.17.31-.42.05-.57l-6.52-3.77A1.09,1.09,0,0,0,127.83,383.87Zm12.64,11.54a1.09,1.09,0,0,0,1,0l6.82-3.94c.29-.16.32-.42.06-.57l-6.53-3.77a1.12,1.12,0,0,0-1,0L134,391.07c-.29.16-.31.42-.06.57ZM168,401.59l6.82-3.93c.29-.17.31-.43.06-.58l-6.53-3.77a1.12,1.12,0,0,0-1,0l-6.82,3.94c-.29.16-.32.42-.06.57l6.53,3.77A1.09,1.09,0,0,0,168,401.59Zm-11,5.79a1.08,1.08,0,0,0,1,0l6.82-3.94c.29-.17.31-.42.06-.57l-6.53-3.77a1.12,1.12,0,0,0-1,0L150.55,403c-.29.17-.32.43-.06.58ZM137.8,378.11,131,382.05c-.29.17-.32.42-.06.57l6.52,3.77a1.09,1.09,0,0,0,1,0l6.83-3.93c.29-.17.31-.43.05-.58l-6.52-3.76A1.08,1.08,0,0,0,137.8,378.11Zm49.85-28.78-6.82,3.94c-.29.16-.32.42-.06.57l6.52,3.77a1.09,1.09,0,0,0,1,0l6.83-3.94c.29-.16.31-.42,0-.57l-6.52-3.77A1.12,1.12,0,0,0,187.65,349.33Zm-39.88,23L141,376.29c-.29.17-.32.43-.06.57l6.52,3.77a1.08,1.08,0,0,0,1,0l6.83-3.94c.29-.17.31-.42.05-.57l-6.52-3.77A1.12,1.12,0,0,0,147.77,372.35Zm49.85-28.78-6.82,3.94c-.29.17-.32.42-.06.57l6.52,3.77a1.12,1.12,0,0,0,1,0l6.83-3.94c.29-.17.31-.43,0-.57l-6.52-3.77A1.08,1.08,0,0,0,197.62,343.57Zm-19.94,11.51L170.86,359c-.29.17-.32.43-.06.58l6.52,3.76a1.08,1.08,0,0,0,1,0l6.83-3.94c.29-.17.31-.42.05-.57l-6.52-3.77A1.12,1.12,0,0,0,177.68,355.08Zm-10,5.76-6.82,3.94c-.29.17-.32.42-.06.57l6.52,3.77a1.12,1.12,0,0,0,1,0l6.83-3.94c.29-.17.31-.43.05-.58l-6.52-3.76A1.08,1.08,0,0,0,167.71,360.84Zm-10,5.76-6.82,3.94c-.29.16-.32.42-.06.57l6.52,3.77a1.12,1.12,0,0,0,1,0l6.83-3.94c.29-.16.31-.42.05-.57l-6.52-3.77A1.09,1.09,0,0,0,157.74,366.6Zm45.52,3.86,6.82-3.94c.29-.17.31-.42.06-.57l-6.53-3.77a1.12,1.12,0,0,0-1,0l-6.82,3.94c-.29.17-.32.43-.06.58l6.53,3.76A1.08,1.08,0,0,0,203.26,370.46Zm93-83.84-6.82,3.93c-.29.17-.32.43-.06.58l6.52,3.76a1.1,1.1,0,0,0,1,0l6.82-3.94c.29-.17.31-.42.06-.57l-6.53-3.77A1.09,1.09,0,0,0,296.27,286.62Zm-12.07,7-6.82,3.94c-.29.17-.32.43-.06.57l6.53,3.77a1.08,1.08,0,0,0,1,0l6.82-3.94c.29-.17.31-.42.06-.57l-6.53-3.77A1.12,1.12,0,0,0,284.2,293.58Zm22-12.72-6.82,3.94c-.29.17-.32.42-.06.57l6.52,3.77a1.09,1.09,0,0,0,1,0l6.83-3.93c.29-.17.31-.43.06-.58l-6.53-3.76A1.08,1.08,0,0,0,306.24,280.86Zm-55.11,51.19,6.82-3.93c.29-.17.32-.43.06-.58l-6.52-3.76a1.1,1.1,0,0,0-1,0l-6.82,3.94c-.29.16-.31.42-.06.57l6.53,3.77A1.09,1.09,0,0,0,251.13,332.05Zm66.07-57a1.12,1.12,0,0,0-1,0L309.39,279c-.29.17-.32.43-.06.57l6.52,3.77a1.1,1.1,0,0,0,1,0l6.82-3.94c.29-.17.31-.42.06-.57Zm-104,89.63,6.82-3.94c.29-.16.31-.42.06-.57l-6.53-3.77a1.12,1.12,0,0,0-1,0l-6.82,3.94c-.29.16-.32.42-.06.57l6.53,3.77A1.09,1.09,0,0,0,213.23,364.7Zm122.26-70.59,6.82-3.93c.29-.17.32-.43.06-.58l-6.52-3.76a1.1,1.1,0,0,0-1,0L328,289.81c-.29.16-.31.42-.06.57l6.53,3.77A1.09,1.09,0,0,0,335.49,294.11Zm-19.29.38,6.82-3.94c.29-.17.32-.42.06-.57l-6.53-3.77a1.12,1.12,0,0,0-1,0l-6.82,3.94c-.29.17-.32.42-.06.57l6.53,3.77A1.12,1.12,0,0,0,316.2,294.49Zm10.32-14a1.09,1.09,0,0,0-1,0l-6.82,3.93c-.29.17-.32.43-.06.58l6.53,3.76a1.08,1.08,0,0,0,1,0l6.82-3.94c.29-.17.32-.42.06-.57Zm2.1-1.21,15.85,9.15a1.12,1.12,0,0,0,1,0l6.82-3.94c.29-.17.32-.42.06-.57l-15.85-9.15a1.08,1.08,0,0,0-1,0l-6.82,3.94C328.39,278.84,328.36,279.09,328.62,279.24Zm-23,12.76-6.82,3.94c-.29.16-.32.42-.06.57l6.53,3.77a1.09,1.09,0,0,0,1,0l6.82-3.94c.29-.16.32-.42.06-.57L306.58,292A1.12,1.12,0,0,0,305.59,292Zm-75,43.32-6.82,3.94c-.29.17-.31.42-.06.57l6.53,3.77a1.12,1.12,0,0,0,1,0l6.82-3.94c.29-.17.32-.43.06-.57l-6.53-3.77A1.08,1.08,0,0,0,230.55,335.32Zm94-35.42a1.08,1.08,0,0,0,1,0l6.82-3.94c.29-.17.32-.42.06-.57l-6.52-3.77a1.11,1.11,0,0,0-1,0l-6.83,3.94c-.29.17-.31.43-.06.58Zm-84,29.67-6.82,3.93c-.29.17-.31.43-.06.58l6.53,3.76a1.08,1.08,0,0,0,1,0l6.82-3.94c.29-.17.32-.42.06-.57l-6.53-3.77A1.09,1.09,0,0,0,240.52,329.57Zm-78.13,63.95a1.09,1.09,0,0,0,1,0l6.82-3.93c.29-.17.31-.43.06-.58l-6.53-3.76a1.08,1.08,0,0,0-1,0l-6.82,3.94c-.29.17-.32.42-.06.57Zm-11.6-12.15L144,385.31c-.29.17-.31.42-.06.57l6.53,3.77a1.12,1.12,0,0,0,1,0l6.82-3.94c.29-.17.32-.43.06-.57l-6.53-3.77A1.08,1.08,0,0,0,150.79,381.37Zm22.56,6.36,6.82-3.94c.29-.17.32-.42.06-.57l-6.53-3.77a1.12,1.12,0,0,0-1,0l-6.82,3.94c-.29.17-.32.43-.06.57l6.53,3.77A1.08,1.08,0,0,0,173.35,387.73Zm10-5.76,6.82-3.94c.29-.16.31-.42.06-.57l-6.53-3.77a1.09,1.09,0,0,0-1,0l-6.82,3.94c-.29.16-.32.42-.06.57l6.53,3.77A1.12,1.12,0,0,0,183.32,382Zm10-5.75,6.82-3.94c.29-.17.31-.43.06-.58l-6.53-3.76a1.08,1.08,0,0,0-1,0l-6.82,3.94c-.29.17-.32.42-.06.57l6.53,3.77A1.12,1.12,0,0,0,193.29,376.22Zm-32.53-.6-6.82,3.93c-.29.17-.31.43-.06.58l6.53,3.76a1.08,1.08,0,0,0,1,0l6.82-3.94c.29-.17.32-.42.06-.57l-6.53-3.77A1.09,1.09,0,0,0,160.76,375.62Zm10-5.76-6.82,3.94c-.29.16-.31.42-.06.57l6.53,3.77a1.09,1.09,0,0,0,1,0l6.82-3.94c.29-.16.32-.42.06-.57l-6.53-3.76A1.08,1.08,0,0,0,170.73,369.86Zm39.88-23-6.82,3.94c-.29.17-.31.43-.06.58l6.53,3.76a1.08,1.08,0,0,0,1,0l6.82-3.94c.29-.17.32-.42.06-.57l-6.53-3.77A1.12,1.12,0,0,0,210.61,346.83Zm-10,5.76-6.82,3.94c-.29.17-.31.42-.06.57l6.53,3.77a1.09,1.09,0,0,0,1,0l6.82-3.93c.29-.17.32-.43.06-.58l-6.53-3.76A1.08,1.08,0,0,0,200.64,352.59Zm19.94-11.51L213.76,345c-.29.16-.31.42-.06.57l6.53,3.77a1.09,1.09,0,0,0,1,0l6.82-3.94c.29-.16.32-.42.06-.57L221.57,341A1.12,1.12,0,0,0,220.58,341.08Zm-39.88,23L173.88,368c-.29.17-.31.42-.06.57l6.53,3.77a1.08,1.08,0,0,0,1,0l6.82-3.94c.29-.17.32-.42.06-.57l-6.53-3.77A1.12,1.12,0,0,0,180.7,364.1Zm10-5.75-6.82,3.93c-.29.17-.31.43-.06.58l6.53,3.77a1.12,1.12,0,0,0,1,0l6.82-3.94c.29-.16.32-.42.06-.57l-6.53-3.77A1.09,1.09,0,0,0,190.67,358.35ZM178,395.84l6.82-3.94c.29-.17.31-.42.06-.57l-6.53-3.77a1.12,1.12,0,0,0-1,0l-6.82,3.94c-.29.17-.32.42-.06.57l6.53,3.77A1.12,1.12,0,0,0,178,395.84Zm-52.58-2.48-6.52-3.77a1.08,1.08,0,0,0-1,0L111,393.56c-.29.17-.31.42,0,.57l6.52,3.77a1.12,1.12,0,0,0,1,0l6.83-3.94C125.61,393.76,125.63,393.5,125.37,393.36Zm13,3.26-6.53-3.77a1.12,1.12,0,0,0-1,0l-10.49,6.06c-.29.17-.32.43-.06.58l6.53,3.76a1.08,1.08,0,0,0,1,0l10.49-6.06C138.6,397,138.63,396.77,138.37,396.62Zm-22.74-10.71-6.52-3.76a1.08,1.08,0,0,0-1,0L99.72,387c-.29.16-.32.42-.06.57l6.53,3.77a1.09,1.09,0,0,0,1,0l8.39-4.84C115.86,386.32,115.89,386.06,115.63,385.91Zm6.44-3.71a1.09,1.09,0,0,0,1,0l6.82-3.93c.29-.17.32-.43.06-.58l-6.53-3.76a1.08,1.08,0,0,0-1,0l-6.82,3.94c-.29.17-.31.42-.06.57Zm28.25,18.29-6.53-3.77a1.08,1.08,0,0,0-1,0l-13.12,7.58c-.29.16-.31.42-.06.57l6.53,3.77a1.12,1.12,0,0,0,1,0l13.12-7.57C150.55,400.89,150.57,400.63,150.32,400.49Zm4.6,8.11-6.53-3.77a1.08,1.08,0,0,0-1,0l-8.4,4.85c-.29.17-.31.42-.05.57l6.52,3.77a1.09,1.09,0,0,0,1,0l8.4-4.84C155.15,409,155.17,408.74,154.92,408.6Zm41.28-69.2a1.12,1.12,0,0,0,1,0l6.82-3.94c.29-.17.32-.43.06-.57l-6.53-3.77a1.08,1.08,0,0,0-1,0l-6.82,3.94c-.29.17-.32.42-.06.57Zm-19.94,11.51a1.08,1.08,0,0,0,1,0l6.82-3.94c.29-.17.32-.42.06-.57l-6.53-3.77a1.12,1.12,0,0,0-1,0l-6.82,3.94c-.29.17-.32.43-.06.57ZM132,376.44a1.08,1.08,0,0,0,1,0l6.82-3.94c.29-.17.32-.42.06-.57l-6.53-3.77a1.12,1.12,0,0,0-1,0l-6.82,3.94c-.29.17-.31.43-.06.57Zm54.19-31.28a1.12,1.12,0,0,0,1,0l6.82-3.94c.29-.16.32-.42.06-.57l-6.53-3.77a1.12,1.12,0,0,0-1,0l-6.82,3.94c-.29.16-.32.42-.06.57Zm-19.94,11.51a1.09,1.09,0,0,0,1,0l6.82-3.93c.29-.17.32-.43.06-.58l-6.53-3.76a1.08,1.08,0,0,0-1,0l-6.82,3.94c-.29.17-.32.42-.06.57ZM159.81,409a1.08,1.08,0,0,0-1,0l-10.49,6.06c-.29.17-.32.42-.06.57l6.53,3.77a1.12,1.12,0,0,0,1,0l10.49-6.06c.29-.17.32-.43.06-.57ZM152,364.93a1.12,1.12,0,0,0,1,0l6.82-3.94c.29-.17.32-.43.06-.58l-6.53-3.76a1.08,1.08,0,0,0-1,0l-6.82,3.94c-.29.17-.31.42-.06.57Zm-10,5.76a1.12,1.12,0,0,0,1,0l6.82-3.94c.29-.16.32-.42.06-.57l-6.53-3.77a1.09,1.09,0,0,0-1,0l-6.82,3.94c-.29.16-.31.42-.06.57Zm202.51-68.33a1.08,1.08,0,0,0-1,0l-16.79,9.7c-.29.16-.32.42-.06.57l6.53,3.77a1.12,1.12,0,0,0,1,0L351,306.7c.29-.17.32-.43.06-.58Zm-22,12.72a1.09,1.09,0,0,0-1,0l-6.82,3.93c-.29.17-.32.43-.06.58l6.53,3.76a1.08,1.08,0,0,0,1,0l6.82-3.94c.29-.17.32-.42.06-.57Zm-134.56,75,6.82-3.94c.29-.16.32-.42.06-.57l-6.53-3.77a1.09,1.09,0,0,0-1,0l-6.82,3.93c-.29.17-.32.43-.06.58l6.53,3.76A1.08,1.08,0,0,0,187.92,390.08Zm114.62-63.49a1.09,1.09,0,0,0-1,0l-6.82,3.94c-.29.16-.32.42-.06.57l6.53,3.77a1.12,1.12,0,0,0,1,0l6.82-3.94c.29-.16.32-.42.06-.57Zm51.95-30a1.12,1.12,0,0,0-1,0l-6.82,3.94c-.29.17-.32.43-.06.57l6.53,3.77a1.08,1.08,0,0,0,1,0l6.82-3.94c.29-.17.32-.42.06-.57Zm16.5-2-15.85-9.15a1.09,1.09,0,0,0-1,0l-6.82,3.93c-.29.17-.32.43-.06.58l15.85,9.15a1.09,1.09,0,0,0,1,0l6.82-3.94C371.22,295,371.25,294.76,371,294.61ZM265.29,348.1a1.09,1.09,0,0,0-1,0L255.9,353c-.29.17-.32.43-.06.58l6.53,3.76a1.08,1.08,0,0,0,1,0l8.39-4.85c.29-.16.32-.42.06-.57Zm25.18-14.54a1.09,1.09,0,0,0-1,0l-10.49,6c-.29.17-.32.43-.06.58l6.53,3.76a1.08,1.08,0,0,0,1,0l10.49-6.06c.29-.17.32-.42.06-.57ZM242.2,361.43a1.09,1.09,0,0,0-1,0l-56.15,32.41c-.29.17-.32.43-.06.58l6.53,3.76a1.08,1.08,0,0,0,1,0l56.15-32.42c.29-.16.31-.42.05-.57Zm-59.3,34.24a1.08,1.08,0,0,0-1,0l-8.39,4.85c-.29.17-.32.42-.06.57l6.52,3.77a1.12,1.12,0,0,0,1,0l8.4-4.85c.29-.17.32-.43.06-.57Zm70.84-40.9a1.12,1.12,0,0,0-1,0l-8.39,4.85c-.29.17-.32.42-.06.57l6.52,3.77a1.12,1.12,0,0,0,1,0l8.4-4.85c.29-.17.32-.42.06-.57Zm-82.38,47.56a1.09,1.09,0,0,0-1,0l-8.4,4.84c-.29.17-.32.43-.06.58l6.53,3.76a1.08,1.08,0,0,0,1,0l8.39-4.85c.29-.16.32-.42.06-.57Zm105.47-60.89a1.08,1.08,0,0,0-1,0l-8.4,4.85c-.29.17-.31.42-.05.57l6.52,3.77a1.12,1.12,0,0,0,1,0l8.4-4.85c.29-.17.31-.43.06-.57Zm35.68-20.6a1.08,1.08,0,0,0-1,0l-6.82,3.94c-.29.17-.32.42-.06.57l6.53,3.77a1.12,1.12,0,0,0,1,0l6.82-3.94c.29-.17.32-.43.06-.57Zm22.33-15.59,6.83-3.94c.29-.16.31-.42.06-.57L335.2,297a1.12,1.12,0,0,0-1,0L327.39,301c-.29.16-.32.42-.06.57l6.52,3.77A1.12,1.12,0,0,0,334.84,305.25Zm-40.68,2,6.82-3.94c.29-.16.32-.42.06-.57l-6.53-3.77a1.09,1.09,0,0,0-1,0l-6.82,3.94c-.29.16-.31.42-.06.57l6.53,3.76A1.08,1.08,0,0,0,294.16,307.21ZM267.68,344l19.94-11.51c.29-.17.31-.42.06-.57l-6.53-3.77a1.08,1.08,0,0,0-1,0l-19.94,11.52c-.29.16-.32.42-.06.57l6.53,3.76A1.08,1.08,0,0,0,267.68,344Zm56.2-33a1.08,1.08,0,0,0,1,0l6.83-3.94c.29-.17.31-.42.05-.57l-6.52-3.77a1.12,1.12,0,0,0-1,0l-6.82,3.94c-.29.17-.32.43-.06.57Zm-8.33-5.41,6.82-3.94c.29-.17.32-.43.06-.57l-6.52-3.77a1.08,1.08,0,0,0-1,0l-6.83,3.94c-.29.17-.31.42-.06.57l6.53,3.77A1.12,1.12,0,0,0,315.55,305.63Zm-57.84,44.16,6.82-3.94c.29-.17.32-.42.06-.57l-6.53-3.77a1.12,1.12,0,0,0-1,0l-6.82,3.94c-.29.17-.32.42-.06.57l6.53,3.77A1.12,1.12,0,0,0,257.71,349.79Zm44.13-26a1.11,1.11,0,0,0,1,0l6.82-3.94c.29-.16.31-.42.06-.57l-6.53-3.77a1.12,1.12,0,0,0-1,0l-6.82,3.94c-.29.16-.32.42-.06.57Zm-94,54.8,6.82-3.94c.29-.17.32-.42.06-.57l-6.53-3.77a1.12,1.12,0,0,0-1,0l-6.82,3.94c-.29.17-.32.43-.06.57l6.53,3.77A1.08,1.08,0,0,0,207.86,378.57Zm10-5.76,6.82-3.94c.29-.16.32-.42.06-.57l-6.53-3.77a1.12,1.12,0,0,0-1,0l-6.82,3.94c-.29.16-.32.42-.06.57l6.53,3.77A1.12,1.12,0,0,0,217.83,372.81Zm-19.94,11.51,6.82-3.93c.29-.17.32-.43.06-.58l-6.53-3.76a1.08,1.08,0,0,0-1,0L190.43,380c-.29.17-.32.42-.06.57l6.53,3.77A1.09,1.09,0,0,0,197.89,384.32Zm39.88-23,6.82-3.94c.29-.17.32-.42.06-.57L238.12,353a1.09,1.09,0,0,0-1,0L230.31,357c-.29.17-.32.43-.06.58l6.53,3.76A1.08,1.08,0,0,0,237.77,361.3Zm-10,5.76,6.82-3.94c.29-.17.32-.43.06-.57l-6.53-3.77a1.08,1.08,0,0,0-1,0l-6.82,3.94c-.29.17-.32.42-.06.57l6.53,3.77A1.12,1.12,0,0,0,227.8,367.06Zm19.94-11.52,6.82-3.93c.29-.17.32-.43.06-.58l-6.53-3.76a1.08,1.08,0,0,0-1,0l-6.82,3.94c-.29.16-.32.42-.06.57l6.53,3.77A1.09,1.09,0,0,0,247.74,355.54Zm54.4-80.07a1.11,1.11,0,0,0,1,0l6.82-3.94c.29-.16.31-.42.06-.57l-1.74-1a1.12,1.12,0,0,0-1,0l-6.82,3.94c-.29.17-.32.42-.06.57Zm-49.55,31.37a1.08,1.08,0,0,0,1,0l6.82-3.94c.29-.17.32-.42.06-.57l-6.52-3.77a1.14,1.14,0,0,0-1,0l-6.82,3.94c-.29.17-.31.43-.06.57Zm19.94-11.51a1.12,1.12,0,0,0,1,0l6.82-3.94c.29-.17.32-.43.06-.58L273.88,287a1.1,1.1,0,0,0-1,0L266.06,291c-.29.17-.31.42-.06.57Zm-32.11,18.54a1.12,1.12,0,0,0,1,0l6.82-3.94c.29-.17.31-.43.06-.57l-6.53-3.77a1.08,1.08,0,0,0-1,0L234,309.53c-.29.17-.32.42-.06.57Zm22.14-12.78a1.12,1.12,0,0,0,1,0l6.82-3.94c.29-.16.32-.42.06-.57l-6.53-3.77a1.09,1.09,0,0,0-1,0l-6.82,3.94c-.29.16-.31.42-.06.57Zm-42.08,24.29a1.08,1.08,0,0,0,1,0l6.82-3.94c.29-.17.31-.42.06-.57l-6.53-3.77a1.12,1.12,0,0,0-1,0L214,321c-.29.17-.32.43-.06.58Zm10-5.75a1.09,1.09,0,0,0,1,0l6.82-3.94c.29-.16.31-.42.06-.57l-6.53-3.77a1.12,1.12,0,0,0-1,0L224,315.29c-.29.16-.32.42-.06.57ZM282.2,287a1.14,1.14,0,0,0,1,0L290,283c.29-.17.31-.43.06-.58l-1.74-1a1.09,1.09,0,0,0-1,0l-6.82,3.93c-.29.17-.32.43-.06.58Zm29.91-17.27a1.14,1.14,0,0,0,1,0l6.82-3.94c.29-.17.31-.43.06-.57l-1.74-1a1.09,1.09,0,0,0-1,0l-6.82,3.94c-.29.16-.32.42-.06.57Zm13.71,7.92a1.14,1.14,0,0,0,1,0l6.82-3.94c.29-.16.31-.42.06-.57l-6.53-3.77a1.09,1.09,0,0,0-1,0l-6.82,3.94c-.29.16-.32.42-.06.57Zm19,21.87,6.83-3.94c.29-.17.31-.43.06-.57l-6.53-3.77a1.08,1.08,0,0,0-1,0l-6.82,3.94c-.29.17-.32.42-.06.57l6.52,3.77A1.12,1.12,0,0,0,344.81,299.5Zm-52.64-18.28a1.1,1.1,0,0,0,1,0l6.82-3.94c.29-.17.31-.42.06-.57l-1.74-1a1.08,1.08,0,0,0-1,0l-6.82,3.94c-.29.17-.32.42-.06.57Zm-81.66,49.92a1.12,1.12,0,0,0,1,0l6.82-3.94c.29-.17.31-.43.06-.57l-6.53-3.77a1.08,1.08,0,0,0-1,0L204,326.8c-.29.17-.32.42-.06.57Z" style="fill:#455a64"></path><polygon points="239.06 387.88 240.54 388.73 279.94 411.47 350 371.02 351.46 370.19 310.58 346.59 239.06 387.88" style="fill:#263238"></polygon><polygon points="349.11 371.54 310.58 349.32 241.44 389.25 279.94 411.47 349.11 371.54" style="fill:#37474f"></polygon></g></g><g id="Chat"><g id="chat"><g id="shadow" style="opacity:0.2"><path d="M58.31,199.77a7.57,7.57,0,0,0-3.42,5.93l0,202.92,67.86-39.16a7.58,7.58,0,0,0,3.42-5.92l0-202.92Z"></path></g><g id="window"><path d="M66.74,205.52a7.57,7.57,0,0,0-3.42,5.93l0,202.91,67.86-39.15a7.55,7.55,0,0,0,3.42-5.93l0-202.92Z" style="fill:#fff"></path><path d="M134.6,166.36l-4.68-3.13L62.07,202.39a7.55,7.55,0,0,0-3.42,5.92l0,202.92,4.67,3.13,67.86-39.15a7.55,7.55,0,0,0,3.42-5.93Z" style="fill:#e0e0e0"></path><path d="M63.94,211.45a7,7,0,0,1,3.11-5.39L134,167.44l0,201.84a7,7,0,0,1-3.11,5.39L64,413.29Z" style="fill:#fff"></path><path d="M133.35,168.52l0,200.76a6.27,6.27,0,0,1-2.8,4.85l-66,38.08,0-200.76a6.33,6.33,0,0,1,2.8-4.85l66-38.08m1.25-2.16L66.74,205.52a7.57,7.57,0,0,0-3.42,5.93l0,202.92,67.86-39.16a7.55,7.55,0,0,0,3.42-5.93l0-202.92Z" style="fill:#f0f0f0"></path><path d="M66.74,402.3l0-5.41a4.85,4.85,0,0,1,2.15-3.84l48.86-28.21c1.2-.69,2.17-.09,2.17,1.34v5.44a4.88,4.88,0,0,1-2.16,3.84L68.92,403.64C67.73,404.33,66.75,403.73,66.74,402.3Z" style="fill:#ebebeb"></path><path d="M126.08,360.5c2.48-1.43,4.49-.27,4.49,2.6a10,10,0,0,1-4.49,7.79c-2.49,1.43-4.5.27-4.5-2.6A9.93,9.93,0,0,1,126.08,360.5Z" style="fill:#BA68C8"></path><path d="M128.62,364l-2.12-2,0,0a.78.78,0,0,0-.18-.11l-.1,0-.1,0-.07,0h0l0,0a.48.48,0,0,0-.16.08l-.08.05a.7.7,0,0,0-.13.16l0,0-2.12,4.49a.61.61,0,0,0,.29.81.53.53,0,0,0,.27.06.61.61,0,0,0,.55-.35l.95-2v4.14a.62.62,0,0,0,1.23,0v-5.43l1.08,1a.62.62,0,0,0,.87,0A.63.63,0,0,0,128.62,364Z" style="fill:#fafafa"></path><path d="M134.59,166.36l-4.66-3.13L62.07,202.39a7.63,7.63,0,0,0-3.2,4.39c-.06.22-.11.43-.15.65a4,4,0,0,0-.07.59c0,.09,0,.19,0,.3V216l4.68,3.15L134.6,178Z" style="fill:#37474f"></path><path d="M134.59,166.36,66.75,205.53A7.19,7.19,0,0,0,64,208.66l-4.66-3.14a6.7,6.7,0,0,0-.49,1.26,7.63,7.63,0,0,1,3.2-4.39l67.86-39.16Z" style="fill:#455a64"></path><path d="M63.32,211.45v7.74L58.64,216v-7.72c0-.11,0-.21,0-.3a4,4,0,0,1,.07-.59c0-.22.09-.43.15-.65a7,7,0,0,1,.48-1.27L64,208.66A6.46,6.46,0,0,0,63.32,211.45Z" style="fill:#263238"></path></g><path d="M73.92,219.59c2.3-1.32,4.16-.25,4.16,2.4a9.17,9.17,0,0,1-4.16,7.2c-2.29,1.32-4.15.25-4.15-2.4A9.21,9.21,0,0,1,73.92,219.59Z" style="fill:#BA68C8"></path><path d="M73.92,219.59c2.3-1.32,4.16-.25,4.16,2.4a9.17,9.17,0,0,1-4.16,7.2c-2.29,1.32-4.15.25-4.15-2.4A9.21,9.21,0,0,1,73.92,219.59Z" style="fill:#fff;opacity:0.2"></path><rect x="66.72" y="207.84" width="1.24" height="156.05" style="fill:#f0f0f0"></rect><rect x="125.51" y="180.1" width="1.24" height="156.05" style="fill:#f0f0f0"></rect><rect x="113.38" y="185.84" width="1.24" height="156.05" style="fill:#f0f0f0"></rect><path d="M81,220.92v-.62a4.54,4.54,0,0,1,2-3.56l14.39-8.28c1.1-.64,2-.08,2,1.24l0,.67a4.52,4.52,0,0,1-2,3.55l-14.34,8.24C82,222.8,81,222.25,81,220.92Z" style="fill:#ebebeb"></path><path d="M123.44,208.35c2.29-1.32,4.15-.25,4.15,2.4a9.21,9.21,0,0,1-4.15,7.2c-2.3,1.32-4.16.25-4.16-2.4A9.19,9.19,0,0,1,123.44,208.35Z" style="fill:#BA68C8"></path><path d="M123.45,286.38c2.29-1.32,4.15-.25,4.15,2.4a9.21,9.21,0,0,1-4.15,7.2c-2.3,1.32-4.16.25-4.16-2.4A9.19,9.19,0,0,1,123.45,286.38Z" style="fill:#BA68C8"></path><path d="M86.8,234.93l0-.64a4.49,4.49,0,0,1,2-3.55L114.35,216c1.11-.64,2-.08,2,1.24l0,.67a4.5,4.5,0,0,1-2,3.55L88.9,236.17C87.8,236.81,86.81,236.25,86.8,234.93Z" style="fill:#ebebeb"></path><path d="M81,264v-.64a4.5,4.5,0,0,1,2-3.55l22-12.71c1.1-.63,2-.08,2,1.24l0,.67a4.52,4.52,0,0,1-2,3.55l-22,12.68A1.3,1.3,0,0,1,81,264Z" style="fill:#ebebeb"></path><path d="M73.92,254.27c2.3-1.33,4.16-.25,4.16,2.4a9.22,9.22,0,0,1-4.16,7.2c-2.29,1.32-4.15.25-4.15-2.4A9.14,9.14,0,0,1,73.92,254.27Z" style="fill:#BA68C8"></path><path d="M73.92,254.27c2.3-1.33,4.16-.25,4.16,2.4a9.22,9.22,0,0,1-4.16,7.2c-2.29,1.32-4.15.25-4.15-2.4A9.14,9.14,0,0,1,73.92,254.27Z" style="fill:#fff;opacity:0.6000000000000001"></path><path d="M81,255.6V255a4.5,4.5,0,0,1,2-3.55L113.16,234c1.11-.64,2-.09,2,1.24v.66a4.5,4.5,0,0,1-2,3.56l-30.1,17.35C82,257.48,81,256.92,81,255.6Z" style="fill:#ebebeb"></path><path d="M86.83,321.33v-.63a4.5,4.5,0,0,1,2-3.55l25.52-14.7c1.11-.64,2-.09,2,1.24v.66a4.47,4.47,0,0,1-2,3.55L88.93,322.57C87.83,323.21,86.84,322.65,86.83,321.33Z" style="fill:#ebebeb"></path><path d="M78.69,317.59V317a4.53,4.53,0,0,1,2-3.55L114.37,294c1.1-.64,2-.1,2,1.22v.68a4.49,4.49,0,0,1-2,3.55L80.8,318.83A1.31,1.31,0,0,1,78.69,317.59Z" style="fill:#ebebeb"></path><path d="M73.92,280.27c2.3-1.33,4.16-.25,4.16,2.4a9.16,9.16,0,0,1-4.16,7.19c-2.29,1.33-4.15.25-4.15-2.4A9.17,9.17,0,0,1,73.92,280.27Z" style="fill:#BA68C8"></path><path d="M73.92,280.27c2.3-1.33,4.16-.25,4.16,2.4a9.16,9.16,0,0,1-4.16,7.19c-2.29,1.33-4.15.25-4.15-2.4A9.17,9.17,0,0,1,73.92,280.27Z" style="fill:#fff;opacity:0.2"></path><path d="M81,281.6V281a4.62,4.62,0,0,1,2-3.6l39.07-22.53c1.11-.64,2-.11,2,1.21v.69a4.5,4.5,0,0,1-2,3.56l-39,22.5A1.31,1.31,0,0,1,81,281.6Z" style="fill:#ebebeb"></path><path d="M73.92,338.7c2.3-1.32,4.16-.25,4.16,2.4a9.19,9.19,0,0,1-4.16,7.2c-2.29,1.32-4.15.25-4.15-2.4A9.21,9.21,0,0,1,73.92,338.7Z" style="fill:#BA68C8"></path><path d="M73.92,338.7c2.3-1.32,4.16-.25,4.16,2.4a9.19,9.19,0,0,1-4.16,7.2c-2.29,1.32-4.15.25-4.15-2.4A9.21,9.21,0,0,1,73.92,338.7Z" style="fill:#fff;opacity:0.2"></path><path d="M81,340v-.62a4.58,4.58,0,0,1,2-3.57l14.39-8.27c1.1-.64,2-.08,2,1.24l0,.67a4.52,4.52,0,0,1-2,3.55l-14.34,8.24C82,341.91,81,341.35,81,340Z" style="fill:#ebebeb"></path><path d="M123.44,327.46c2.29-1.33,4.15-.25,4.15,2.4a9.21,9.21,0,0,1-4.15,7.2c-2.3,1.32-4.16.25-4.16-2.4A9.17,9.17,0,0,1,123.44,327.46Z" style="fill:#BA68C8"></path><path d="M86.8,354l0-.64a4.49,4.49,0,0,1,2-3.55l25.52-14.7c1.11-.64,2-.08,2,1.24l0,.67a4.5,4.5,0,0,1-2,3.55L88.9,355.28C87.8,355.92,86.81,355.36,86.8,354Z" style="fill:#ebebeb"></path><path d="M73.92,373.38c2.3-1.33,4.16-.26,4.16,2.39a9.2,9.2,0,0,1-4.16,7.2c-2.29,1.33-4.15.25-4.15-2.4A9.12,9.12,0,0,1,73.92,373.38Z" style="fill:#BA68C8"></path><path d="M73.92,373.38c2.3-1.33,4.16-.26,4.16,2.39a9.2,9.2,0,0,1-4.16,7.2c-2.29,1.33-4.15.25-4.15-2.4A9.12,9.12,0,0,1,73.92,373.38Z" style="fill:#fff;opacity:0.6000000000000001"></path><path d="M81,374.7v-.63a4.5,4.5,0,0,1,2-3.55l30.15-17.39c1.11-.63,2-.08,2,1.24V355a4.5,4.5,0,0,1-2,3.55L83.08,376C82,376.58,81,376,81,374.7Z" style="fill:#ebebeb"></path><path d="M73.93,297.62c2.3-1.33,4.16-.26,4.16,2.4a9.2,9.2,0,0,1-4.16,7.19c-2.29,1.33-4.15.25-4.16-2.4A9.16,9.16,0,0,1,73.93,297.62Z" style="fill:#BA68C8"></path><path d="M73.93,297.62c2.3-1.33,4.16-.26,4.16,2.4a9.2,9.2,0,0,1-4.16,7.19c-2.29,1.33-4.15.25-4.16-2.4A9.16,9.16,0,0,1,73.93,297.62Z" style="opacity:0.30000000000000004"></path><path d="M81,298.94v-.6a4.55,4.55,0,0,1,2-3.58l20.2-11.61c1.11-.64,2-.12,2,1.21v.69a4.5,4.5,0,0,1-2,3.56L83.09,300.19A1.31,1.31,0,0,1,81,298.94Z" style="fill:#ebebeb"></path></g></g><g id="video-controls"><g id="video-bar"><g id="window"><path d="M372.72,249.85a1.68,1.68,0,0,0-.07-.39.11.11,0,0,0,0-.08,1.81,1.81,0,0,0-.1-.37,1.91,1.91,0,0,0-.25-.54.68.68,0,0,0-.14-.23.88.88,0,0,0-.12-.15,1.43,1.43,0,0,0-.28-.27l0,0a1.62,1.62,0,0,0-.36-.21,3.05,3.05,0,0,0-2.83.36L156.39,370c-2.33,1.34-4.22,3.65-4.22,9.58v9.92A2.9,2.9,0,0,0,156.5,392l212-122.08a9.32,9.32,0,0,0,4.22-7.3V250.38C372.75,250.2,372.73,250,372.72,249.85Z" style="fill:#BA68C8;opacity:0.75"></path><path d="M153.62,392l-.15-.07L149,389.36a4.45,4.45,0,0,1-2.21-3.26,4.3,4.3,0,0,1,0-.62V374.25a8.87,8.87,0,0,1,1.49-4.58l.06,0,5.25,3a13.34,13.34,0,0,0-1.41,6.44V389.5a3.21,3.21,0,0,0,.19,1A2.93,2.93,0,0,0,153.62,392Z" style="fill:#BA68C8;opacity:0.9"></path><path d="M371.36,247.59a3,3,0,0,0-2.84.36L156.39,370a9.14,9.14,0,0,0-1.17.82,7.49,7.49,0,0,0-.7.68,5.87,5.87,0,0,0-.94,1.24l-5.3-3.05a10.73,10.73,0,0,1,.9-1.2l.33-.36c.12-.12.23-.23.36-.34a3.37,3.37,0,0,1,.36-.3A6.13,6.13,0,0,1,151,367L363.15,244.89a2.91,2.91,0,0,1,3.05-.24C367,245.11,370.46,247.11,371.36,247.59Z" style="fill:#BA68C8;opacity:0.5"></path><path d="M371.36,247.59a3,3,0,0,0-2.84.36L156.39,370a9.14,9.14,0,0,0-1.17.82,7.49,7.49,0,0,0-.7.68,5.87,5.87,0,0,0-.94,1.24l-5.3-3.05a10.73,10.73,0,0,1,.9-1.2l.33-.36c.12-.12.23-.23.36-.34a3.37,3.37,0,0,1,.36-.3A6.13,6.13,0,0,1,151,367L363.15,244.89a2.91,2.91,0,0,1,3.05-.24C367,245.11,370.46,247.11,371.36,247.59Z" style="fill:#fff;opacity:0.15"></path><path d="M153.62,392l.06,0Z" style="fill:#263238;opacity:0.9"></path></g><path d="M262.46,328.21a16.1,16.1,0,0,0,7.28-12.62c0-4.64-3.26-6.52-7.28-4.2A16.08,16.08,0,0,0,255.17,324C255.17,328.65,258.43,330.53,262.46,328.21Z" style="fill:#BA68C8"></path><path d="M262.46,328.21a16.1,16.1,0,0,0,7.28-12.62c0-4.64-3.26-6.52-7.28-4.2A16.08,16.08,0,0,0,255.17,324C255.17,328.65,258.43,330.53,262.46,328.21Z" style="fill:#fff;opacity:0.45"></path><path d="M258.33,325.21c.23-.24,1.38-1.37,1.58-1.6a.93.93,0,0,0,.29-.79c0-.38,0-1.36,0-1.65a.9.9,0,0,1,.32-.73,8.39,8.39,0,0,1,2-1.69,4.69,4.69,0,0,1,1.88-.58c.24,0,.23.25.22.49s0,.5,0,.76a1.27,1.27,0,0,0,0,.2,3.55,3.55,0,0,0,.06.4c0,.22.15.26.26.27s1.14.2,1.56.28.5-.25.6-.43.22-.37.33-.58a2.5,2.5,0,0,0,.26-1.05,3.78,3.78,0,0,0-.61-2.51,1.51,1.51,0,0,0-.57-.41,2.62,2.62,0,0,0-1.56,0,8.31,8.31,0,0,0-4.93,2.81c-2.22,2.52-2,2.75-2.31,3.35a6.07,6.07,0,0,0-.43,2.91c.19.66.47,1,.57,1S258.09,325.43,258.33,325.21Z" style="fill:#fff;fill-rule:evenodd"></path><path d="M278.37,316.5a11.27,11.27,0,0,0,5.09-8.83c0-3.25-2.28-4.57-5.09-2.94a11.25,11.25,0,0,0-5.1,8.83C273.27,316.81,275.55,318.13,278.37,316.5Z" style="fill:#BA68C8"></path><g style="opacity:0.45"><path d="M278.37,316.5a11.27,11.27,0,0,0,5.09-8.83c0-3.25-2.28-4.57-5.09-2.94a11.25,11.25,0,0,0-5.1,8.83C273.27,316.81,275.55,318.13,278.37,316.5Z" style="fill:#fff"></path></g><path d="M278.77,313.07l-2.83,1.63c-.15.09-.28,0-.28-.22V310a.69.69,0,0,1,.28-.54l2.83-1.63c.15-.09.28,0,.28.21v4.47A.69.69,0,0,1,278.77,313.07Z" style="fill:#fff"></path><path d="M280.79,311.38l-1-.22c-.12,0-.23-.24-.23-.46v-1.39a1.57,1.57,0,0,1,.23-.73l1-1.38c.13-.18.23-.14.23.08V311C281,311.25,280.92,311.41,280.79,311.38Z" style="fill:#fff"></path><path d="M246.55,334.88a11.28,11.28,0,0,0,5.1-8.83c0-3.25-2.29-4.57-5.1-2.94a11.25,11.25,0,0,0-5.1,8.83C241.45,335.19,243.73,336.51,246.55,334.88Z" style="fill:#BA68C8"></path><path d="M246.55,334.88a11.28,11.28,0,0,0,5.1-8.83c0-3.25-2.29-4.57-5.1-2.94a11.25,11.25,0,0,0-5.1,8.83C241.45,335.19,243.73,336.51,246.55,334.88Z" style="fill:#fff;opacity:0.45"></path><path d="M246.62,329.87a1.67,1.67,0,0,0,.76-1.31c0-.49-.34-.68-.76-.44a1.67,1.67,0,0,0-.76,1.31C245.86,329.92,246.2,330.11,246.62,329.87Z" style="fill:#fff"></path><path d="M249.11,328.44a1.67,1.67,0,0,0,.76-1.32c0-.48-.34-.68-.76-.44a1.71,1.71,0,0,0-.76,1.32C248.35,328.48,248.69,328.68,249.11,328.44Z" style="fill:#fff"></path><path d="M244.12,331.31a1.69,1.69,0,0,0,.76-1.32c0-.48-.34-.68-.76-.44a1.67,1.67,0,0,0-.76,1.32C243.36,331.35,243.7,331.55,244.12,331.31Z" style="fill:#fff"></path></g></g><g id="Plant"><g id="plant"><g id="pot"><path d="M76.87,442H38.29l4,16.62h0c.3,2,1.78,4,4.43,5.49,6,3.47,15.73,3.47,21.73,0,2.86-1.65,4.34-3.79,4.47-5.95Z" style="fill:#BA68C8"></path><path d="M76.87,442H38.29l4,16.62h0c.3,2,1.78,4,4.43,5.49,6,3.47,15.73,3.47,21.73,0,2.86-1.65,4.34-3.79,4.47-5.95Z" style="fill:#fff;opacity:0.6000000000000001"></path><path d="M76.87,442H38.29l4,16.62h0c.3,2,1.78,4,4.43,5.49,6,3.47,15.73,3.47,21.73,0,2.86-1.65,4.34-3.79,4.47-5.95Z" style="fill:#fff;opacity:0.6000000000000001"></path><path d="M72.17,453.34a16.2,16.2,0,0,0,2.31-1.62l2.18-8.88a15.59,15.59,0,0,1-3.91,3.1c-8.14,4.7-21.18,4.82-29.6.39l1-4-.3-.42H38.29l4,16.61h0c.3,2,1.78,4,4.43,5.49,4.28,2.47,10.44,3.17,15.8,2.12-9.61.72-16.21-3.48-17.2-7.36-.39-1.54-1.08-5-1.08-5C52.27,457.92,64.5,457.76,72.17,453.34Z" style="fill:#BA68C8;opacity:0.2"></path><path d="M78.88,437a8.11,8.11,0,0,1-1.29,3,14.14,14.14,0,0,1-4.84,4.3c-8.37,4.83-22,4.83-30.33,0a14.24,14.24,0,0,1-4.84-4.3,8.25,8.25,0,0,1-1.28-3h0c-.75-3.63,1.3-7.42,6.13-10.21,8.37-4.84,22-4.84,30.33,0C77.58,429.61,79.63,433.4,78.88,437Z" style="fill:#BA68C8"></path><path d="M78.88,437a8.11,8.11,0,0,1-1.29,3,14.14,14.14,0,0,1-4.84,4.3c-8.37,4.83-22,4.83-30.33,0a14.24,14.24,0,0,1-4.84-4.3,8.25,8.25,0,0,1-1.28-3h0c-.75-3.63,1.3-7.42,6.13-10.21,8.37-4.84,22-4.84,30.33,0C77.58,429.61,79.63,433.4,78.88,437Z" style="fill:#fff;opacity:0.8"></path><path d="M77.59,440a14.14,14.14,0,0,1-4.84,4.3c-8.37,4.83-22,4.83-30.33,0a14.24,14.24,0,0,1-4.84-4.3,8.25,8.25,0,0,1-1.28-3h0l1,6.54c.44,2.63,2.4,5.2,5.9,7.21,8,4.61,20.91,4.61,28.9,0,3.44-2,5.4-4.52,5.87-7.12l0-.33.92-6.3A8.11,8.11,0,0,1,77.59,440Z" style="fill:#BA68C8"></path><path d="M77.59,440a14.14,14.14,0,0,1-4.84,4.3c-8.37,4.83-22,4.83-30.33,0a14.24,14.24,0,0,1-4.84-4.3,8.25,8.25,0,0,1-1.28-3h0l1,6.54c.44,2.63,2.4,5.2,5.9,7.21,8,4.61,20.91,4.61,28.9,0,3.44-2,5.4-4.52,5.87-7.12l0-.33.92-6.3A8.11,8.11,0,0,1,77.59,440Z" style="fill:#fff;opacity:0.6000000000000001"></path><path d="M70.23,428.28c-7-4-18.3-4-25.28,0-4,2.28-5.66,5.36-5.14,8.33.39,2.29,2.11,4.51,5.14,6.26,7,4,18.29,4,25.28,0,3-1.75,4.74-4,5.14-6.25C75.89,433.64,74.18,430.56,70.23,428.28Z" style="fill:#BA68C8"></path><path d="M70.23,428.28c-7-4-18.3-4-25.28,0-4,2.28-5.66,5.36-5.14,8.33.39,2.29,2.11,4.51,5.14,6.26,7,4,18.29,4,25.28,0,3-1.75,4.74-4,5.14-6.25C75.89,433.64,74.18,430.56,70.23,428.28Z" style="fill:#fff;opacity:0.6000000000000001"></path><path d="M41,439.38a12,12,0,0,0,4,3.49c7,4,18.29,4,25.28,0a12.06,12.06,0,0,0,4-3.49c0-2.42-1.67-4.82-4.86-6.66-6.49-3.75-17-3.75-23.48,0C42.66,434.56,41,437,41,439.38Z" style="fill:#fafafa"></path></g><path d="M52.19,413.38c-.34-9.86-4-25.19-7.61-31.37a50.38,50.38,0,0,1,11.23,29.16Z" style="fill:#263238"></path><path d="M62.9,434.65c.33-6.86,5.37-9.09,11-6.86,4,1.59,9.87,7.59,11.7,17.14C83.84,440,70.75,423.39,62.9,434.65Z" style="fill:#455a64"></path><path d="M63.2,438c.32-2.56,2.62-5.91,6.63-5.08s13.44,8.19,17.45,20.28C86.55,445,83.92,438,78.5,433.51s-9.37-5.24-13.33-2.89C61.76,432.65,63.2,438,63.2,438Z" style="fill:#37474f"></path><path d="M56,441.26c-3.26-10.9-3.74-31.17-.6-42.12,4.43-15.48,13.64-22.26,20.51-23.91-6.5,2.72-13.37,12.64-15.31,22.35s-.82,43.68-.82,43.68Z" style="fill:#455a64"></path><path d="M58.68,430.62c.42-6.09,4-19.61,11-25.06s14.9-1.8,17.28,1.06c-4.28-3-9.4-2.85-13.1.21s-7.48,12.24-9.37,21Z" style="fill:#263238"></path><path d="M68.27,406.83c4.43-4.35,7.89-7.28,13.39-7s12.84,8,17.11,24.25c-4.41-10.35-10.1-19.44-19.22-20.41A14.7,14.7,0,0,0,68.27,406.83Z" style="fill:#37474f"></path><path d="M18.73,397.16a33.55,33.55,0,0,1,24.37,8.39,33.67,33.67,0,0,1,12.07,21.54l-4.89-.8s-4.05-12.81-11.08-19.46C32.94,400.91,28.3,398.56,18.73,397.16Z" style="fill:#455a64"></path><path d="M56.37,424c.38-5.5-2.21-17.06-10.62-24.9s-11.43-9.54-20.09-11.75a54.64,54.64,0,0,1,18,15c5.56,7.27,5.81,15.88,5.81,19.13C50.43,424,53.84,429.33,56.37,424Z" style="fill:#37474f"></path><path d="M56,426.73c-1.09-7,2.67-19.55,7.08-25.69,5.33-7.42,13.18-13,21.91-14.49-9.34,3.57-18.74,14-21.49,23.82a53.08,53.08,0,0,0-1.15,20Z" style="fill:#37474f"></path><path d="M59,441.26c-1.19-6.55.9-20.19,11.68-27.7s18.23-5.53,21.06-4.68c-8.35-.56-16.72,4.08-21.84,9.83-3.56,4-6.9,10.53-7.11,21.36Z" style="fill:#455a64"></path><path d="M59.13,441.8s2.82-.07,3.95-1.39c0-4.23,1.14-12.71,7.08-17.71s10.57-4,11.5-2.08c0-2.88-3.61-5.44-7.63-4.59C67.32,417.46,57.86,426.13,59.13,441.8Z" style="fill:#263238"></path><path d="M70.53,417.32c3.65-2,6.79-3.7,10.87-1.8.18-.11,2.5-.69,3.38.35,3.41,4,2.3,14-3.93,23.61,2.87-7.19,3-20.46-2.3-22.53A10.6,10.6,0,0,0,70.53,417.32Z" style="fill:#37474f"></path><path d="M81.4,415.52c1.64.76,5,6.51,2.83,14.54,2-6.07,1.3-11.9-2.1-14.73A4.29,4.29,0,0,0,81.4,415.52Z" style="fill:#263238"></path><path d="M52,439.85c-.33-2.56-2.62-5.91-6.63-5.08S31.87,443,27.86,455.05c.73-8.11,3.69-14.92,8.55-20.05,4.37-4.6,10.08-6.81,14.63-4.38S52,439.85,52,439.85Z" style="fill:#263238"></path><path d="M50.28,424.57c-3.51-3.52-6-6.9-12.45-5.56s-10.91,8.37-12.67,17.87c1.1-3.67,4.44-12.07,11.05-13.49S46.06,422.46,50.28,424.57Z" style="fill:#455a64"></path><path d="M52,439.85c-.92-6.21-3.28-15.07-9.9-15.43s-13.86,3.8-16.89,12.46c1.55-7.88,8.27-15.39,15.27-15.41S54.33,423,56,441.26Z" style="fill:#37474f"></path><path d="M46.38,413.49A18,18,0,0,0,37.26,409c-2.25-.37-6.63-2.11-11.32,2.26s-9.63,14.56-7.88,21.69C18.81,425.36,29,404.12,46.38,413.49Z" style="fill:#37474f"></path><path d="M56.94,441.88c0-5.77-4.21-24-10.85-28.68-8.32-5.82-13.88-.86-13.88-.86a11.11,11.11,0,0,1,9.91,1.57c4.29,3.14,8.3,12.32,9.83,25.94A6,6,0,0,0,56.94,441.88Z" style="fill:#263238"></path><path d="M53.17,424.72c-.41,1.69,1.34,14.25,2.69,17.08a11.79,11.79,0,0,0,4-.06c1.26-2.2,0-16.41,2.47-16.68C60.46,424.18,54.05,421.82,53.17,424.72Z" style="fill:#37474f"></path><path d="M53.17,424.72c1.95-2,9.92,2,11.41,13.83,2-5.63,1.11-12.59-.88-14.36a3.59,3.59,0,0,0-4.09-.55S53.44,420.93,53.17,424.72Z" style="fill:#455a64"></path><path d="M59.61,423.64c2.44,1,5.23,4.41,5.2,10.18.19-2.95-.38-8.14-4.57-10.43A3.76,3.76,0,0,0,59.61,423.64Z" style="fill:#37474f"></path></g></g><g id="character-5"><g id="Character"><g id="character"><g id="Bottom"><path d="M383.53,457.37c-.56-.07-.54,1.65-.37,2.39s2.36,3.27,6.36,4.26,11.88.12,14.27.09,6.46,1.29,8.83,1.72,6.67-.28,8.12-1.63a2.66,2.66,0,0,0,.64-2c0-1.64-.14-2-.32-2Z" style="fill:#37474f"></path><path d="M420.55,454.41c.06.33.11.66.16,1a23.57,23.57,0,0,1,.23,5.93,4.44,4.44,0,0,1-3,2.15c-2.85.81-5,.57-8.09-.17a22.79,22.79,0,0,0-6.12-.85c-2.46.07-8.17.66-10.62.33a19.39,19.39,0,0,1-6-1.54,7.83,7.83,0,0,1-3.58-3.57c0-3.21,1.05-4.67,2.77-5.63s4.63-1.18,6.69-1.39c2.8-.28,5.47-.44,7.54-.52a9.17,9.17,0,0,0,4-.78,2.68,2.68,0,0,0,1.36-1.25c.36-.74.38-1.85,1-1.89,0,0,10.85-.1,11.83,0s1.18,4.24,1.29,5c.08.63.08,1.3.22,1.91C420.39,453.6,420.47,454,420.55,454.41Z" style="fill:#455a64"></path><path d="M397.57,449.92a1.42,1.42,0,0,0-.5-.2c-.94-.19-1.7.75-2.12,1.49a6.75,6.75,0,0,0-.55,1.46,3.64,3.64,0,0,0-.1,1.91c.05.16.16.34.32.31s.18-.22.2-.37a7.59,7.59,0,0,1,.8-2.55,2.84,2.84,0,0,1,.61-.92,3.46,3.46,0,0,1,1-.74,3.15,3.15,0,0,1,.63,0,1,1,0,0,0-.21-.25Z" style="fill:#fafafa"></path><path d="M401.46,449.76a1.73,1.73,0,0,0-1.26.32,2.83,2.83,0,0,0-.89,1.26,4.25,4.25,0,0,0-.08,3.3c.17.31.42.16.53-.11a4.83,4.83,0,0,0,.15-1,8.22,8.22,0,0,1,.49-2,3.36,3.36,0,0,1,.48-.76,2.26,2.26,0,0,1,.54-.53.85.85,0,0,1,.26-.11l.29,0c0-.14-.18-.23-.31-.26Z" style="fill:#fafafa"></path><path d="M404.74,448.79a1.76,1.76,0,0,0-.82.54,3.11,3.11,0,0,0-.55.95,8.75,8.75,0,0,0-.3,2.05,2.74,2.74,0,0,0,.3,1.49c.1.17.28.35.47.27s.18-.41.21-.59c0-.35,0-.7,0-1.05a6,6,0,0,1,.94-3.15,2.75,2.75,0,0,1,.37-.51c0-.09-.14-.11-.23-.09Z" style="fill:#fafafa"></path><path d="M420.68,436s-1.17,8.52-1.56,10.93c-.22,1.36-1.62,2.58-5.67,2.51-2.85-.05-6.14-.95-6.51-2.45l-.45-12.9Z" style="fill:#ffbda7"></path><path d="M467.88,427.8c-1.39-2.35-3.92-9.08-5.61-15.72L449.37,418s8.23,15.22,9.15,16.62C460,437,467.88,427.8,467.88,427.8Z" style="fill:#ffbda7"></path><path d="M471.82,432.38a2.57,2.57,0,0,0-.06-.4,5.17,5.17,0,0,0-2.17-2.77,7.69,7.69,0,0,1-1.9-2.18c-.31-.44-.69-1.12-1.18-1.31a5.27,5.27,0,0,0-1.68,0,10.67,10.67,0,0,0-4.49,2,12.22,12.22,0,0,0-2.39,2.47,4,4,0,0,0-.9,2.27c0,.48.2,1,1.06,2.69a12.16,12.16,0,0,1,1.19,4,35.18,35.18,0,0,1-.09,4.23c-.06,2.55-.37,2.51-.37,2.51s-4.12-1-7.06.55a3.48,3.48,0,0,0-1.91,4,20.6,20.6,0,0,0,6.89,3.17.5.5,0,0,0,0,.13,3.87,3.87,0,0,0,4,1.19c.16-.07.31-.13.46-.21,2.57-1.3,8.94-4.71,8.86-5.12a5.56,5.56,0,0,1,.05-1.29c.06-1,.13-2,.2-3a14.35,14.35,0,0,1,.24-2.86,16.63,16.63,0,0,0,.42-2.36c.24-2,.47-4,.71-6A7.27,7.27,0,0,0,471.82,432.38Z" style="fill:#455a64"></path><path d="M473,433.1c1.13.51.68,3.79-.19,6.92s-1.32,4.22-1.07,6.87.41,3.84-.67,4.76-9.47,4.52-9.47,4.52a32.71,32.71,0,0,0,2.29-9.81c.48-5.83,1-9.57,3.75-12.1A4.78,4.78,0,0,1,473,433.1Z"></path><path d="M449.87,450.49s4.59,2.82,8.24,3.43,3.89-.85,4.49-5.35,1-10.74,2.86-13.41,4.77-3.75,5.89-3.42c.23-.11,1.32.81,1.66,1.36a6.09,6.09,0,0,0-4.89,1.77c-2.4,2.22-3,7.12-3.35,11.58s-.73,9.63-4.18,10a14.57,14.57,0,0,1-10.2-3.27A2.39,2.39,0,0,1,449.87,450.49Z" style="fill:#37474f"></path><path d="M459.17,444.32a1.25,1.25,0,0,0-.54.81,2.57,2.57,0,0,0,1.13,2.4c.45.3.85.21.15-.77A5.08,5.08,0,0,1,459.17,444.32Z" style="fill:#fafafa"></path><path d="M459.24,441.17a1.15,1.15,0,0,0-.34.67,4,4,0,0,0,1.4,2.54c.78.41.39-.54,0-1A17.46,17.46,0,0,1,459.24,441.17Z" style="fill:#fafafa"></path><path d="M459,437.64a1.53,1.53,0,0,0-.09,1,3.55,3.55,0,0,0,1.95,1.34c.52,0,.73-.32,0-.67A5.29,5.29,0,0,1,459,437.64Z" style="fill:#fafafa"></path><path d="M453.79,426.56s-19.85-35.89-20.52-38.88-3.76-18-3.76-18l-4.35,24.22a54.84,54.84,0,0,1,1.09,9.63c-.09,4-.89,8.59-2.49,16.57-2.5,12.52-3.75,21.39-3.75,21.39a9.94,9.94,0,0,1-7.16,1.45,18.75,18.75,0,0,1-6.3-2.43s-.62-19.47-.8-27.23-.11-19.67-.25-24.78c-.25-9.24,0-7.9.31-23,.29-15.68,1.85-39.66,1.85-39.66L447.85,324s4.64,6.63,4.61,23.52c0,13.19.19,35.47.19,35.47,3.87,6.72,4.45,8.75,6.41,16.44,1.6,6.24,3.84,13.83,5,19.42C460.46,418.7,455.17,423.61,453.79,426.56Z" style="fill:#BA68C8"></path><path d="M453.79,426.56s-19.85-35.89-20.52-38.88-3.76-18-3.76-18l-4.35,24.22a54.84,54.84,0,0,1,1.09,9.63c-.09,4-.89,8.59-2.49,16.57-2.5,12.52-3.75,21.39-3.75,21.39a9.94,9.94,0,0,1-7.16,1.45,18.75,18.75,0,0,1-6.3-2.43s-.62-19.47-.8-27.23-.11-19.67-.25-24.78c-.25-9.24,0-7.9.31-23,.29-15.68,1.85-39.66,1.85-39.66L447.85,324s4.64,6.63,4.61,23.52c0,13.19.19,35.47.19,35.47,3.87,6.72,4.45,8.75,6.41,16.44,1.6,6.24,3.84,13.83,5,19.42C460.46,418.7,455.17,423.61,453.79,426.56Z" style="opacity:0.35000000000000003"></path><path d="M429.47,369.78l2.89-17.37s5.78-.3,12.86-5.89c0,0-1,5.14-11,8.42l-2.77,16.8,1.45,14.31S429.51,370.11,429.47,369.78Z" style="opacity:0.2"></path><path d="M406.22,436.12c2.63,1.5,11.53,2.5,14.62.53l-1,6.53s-1.86,1.25-6.39.95c-5-.33-6.93-1.71-6.93-1.71Z"></path><path d="M451,421.55l2.76,5s2.6-4,6-5.72c3.11-1.6,4.75-1.12,4.75-1.12l-1.7-6.16a15.26,15.26,0,0,0-6.72,2C451.56,418.55,451,421.55,451,421.55Z"></path></g><g id="Top"><polygon points="423.89 264.64 425.09 275.92 440.01 274.24 438.63 262.06 423.89 264.64" style="fill:#ffbda7"></polygon><path d="M415.33,245.66c-.94,1.6-3.9,6.46-3.92,7.32l3.14,1.38Z" style="fill:#f0997a"></path><path d="M422.1,233.54c-4.66.13-7.19,3.79-7.2,13.73a26.68,26.68,0,0,0-.72,2.59c-1,6.52.85,12.35,2.13,13.79,2.95,1.78,6,2.18,10.25,1.23,3.22-.72,11.41-2.84,15-7.82,4.26-5.86,5.7-14,1.63-17.59C437.49,234.44,424.67,233.47,422.1,233.54Z" style="fill:#ffbda7"></path><path d="M417.92,256.72a.41.41,0,0,0-.15.07.48.48,0,0,0-.09.11,1.89,1.89,0,0,1-.2.2,2.52,2.52,0,0,1-.49.37,3.61,3.61,0,0,1-1.06.37.1.1,0,0,0-.05.06.12.12,0,0,0,0,.1c.05.08.19.07.28.07l.3-.05a2.77,2.77,0,0,0,.63-.22,2.36,2.36,0,0,0,.53-.36,2.39,2.39,0,0,0,.23-.22l.1-.12a.4.4,0,0,0,.07-.24S418,256.7,417.92,256.72Z" style="fill:#b16668"></path><path d="M416.31,263.65c.71.8,5,2.29,7.7,2.1l-.16-1.95A28.45,28.45,0,0,1,416.31,263.65Z" style="fill:#f0997a"></path><path d="M421.47,240.78a3.94,3.94,0,0,0,.51,2.37,4.72,4.72,0,0,0,2.58,2.06,9.65,9.65,0,0,0-1.27,4.22,2.4,2.4,0,0,0,.23,1.35.86.86,0,0,0,1.56.05,11.11,11.11,0,0,1,1.42-2.17,4.23,4.23,0,0,1,2.7-1.35c3.9-.23,3.64,5,2,7-2.7,3.31-4.68,1-4.68,1s-1.56,5.21,2.07,7.64c0,0,5.92,1.66,10.12-.3,2.81-4,6.08-6.51,7.87-9.85,4.26-7.93,2.93-14.49-.7-16.08-.33-3.31-3.24-5.48-6.1-6.66-3.89-1.61-7.79-.49-11.84-.69a13.54,13.54,0,0,1-5.92-1.7c-.8-.45-1.79-1-2.57-.5a1.85,1.85,0,0,0-.67.84,4.27,4.27,0,0,0,.14,3.74,3.69,3.69,0,0,0-4,.26c-1.6,1.17-1.91,2.61-1.46,4.68C413.68,238,416,242.13,421.47,240.78Z" style="fill:#263238"></path><path d="M445.62,237.57l3.8-2a2.14,2.14,0,0,0-3.8,2Z" style="fill:#263238"></path><path d="M442.52,268.47c6.1.52,9.53,1.68,13.15,9.32C459.09,285,465.2,294.7,467,300c.88,2.57,2.43,4.86-2.28,9.58a76.87,76.87,0,0,1-14.53,11L445,310.3l7.39-7.53-3.57-6.87Z" style="fill:#ffbda7"></path><path d="M452.41,302.77a9.89,9.89,0,0,0,4.62,3.68c-2.12.58-4.54-1.65-5.3-3Z" style="fill:#f0997a"></path><path d="M442.93,268.34c2.7.09,6.38.1,9.6,3.69s11.35,20.73,11.35,20.73-1.7,2.9-6.9,5.16-7.7,1.37-7.7,1.37l-7.88-16.57Z" style="fill:#BA68C8"></path><path d="M442.93,268.34c2.7.09,6.38.1,9.6,3.69s11.35,20.73,11.35,20.73-1.7,2.9-6.9,5.16-7.7,1.37-7.7,1.37l-7.88-16.57Z" style="opacity:0.2"></path><path d="M447.85,269.66c4,2.06,5.55,9.43,5.45,15.5-.07,3.84-1.12,13.78-2,22.58-.28,2.77.32,11,.54,15.13s.51,11.35.51,11.35-3.74,5.22-18,6.13c-17.28,1.09-28.12-4.82-28.12-4.82s.48-16.63,1.19-28.4c.76-12.8.19-25.19,2.84-29.69.85-1.79,1.44-3.84,4.39-4.71,2.33-.68,7.73-2.15,9.87-2.54,3.56.8,12.71.6,14.92-1.4l-.06-.51C443.27,268.12,445.42,268.39,447.85,269.66Z" style="fill:#37474f"></path><path d="M384.33,289.7s-20.24-5.12-21.57-6.14c-1.13-.86-1.47-2.23-2-3.47a15.75,15.75,0,0,0-2.53-3.87c-.66-.78-1.46-1.45-2.07-2.26s-.78-1.67-1.33-2.43-1.33-.24-1.71.47a4.28,4.28,0,0,0,0,3.24c.16.46.31.92.48,1.38a7.23,7.23,0,0,1,.46,1.28,1.06,1.06,0,0,1-.07.68c-.27.42-1.06.11-1.42,0a19,19,0,0,1-6.29-4.41c-.76-.8-1.35-1.7-2.17-2.46a10.06,10.06,0,0,0-2.52-1.77,3.63,3.63,0,0,0-2-.41c-1,.35.07,2,.32,2.58a3.72,3.72,0,0,1,.43,2,3.16,3.16,0,0,0,.64,2.3,6,6,0,0,1,1.25,2.35,7.1,7.1,0,0,1,0,.92,4.45,4.45,0,0,0,1,2.56,3.66,3.66,0,0,1,.89,2.41c.16,2,2.23,3.54,3.77,4.55a27.45,27.45,0,0,0,5.72,2.7c1.08.38,2.12.84,3.2,1.2s2,.53,2.9.91c2.24.92,16.16,7.83,23.09,9.94,3.42,1,4.32,2.38,9.22,0,8.84-4.34,9.72-4.45,14.82-7.4,7-4,10.77-6.45,11.82-10.92,2.43-10.34-3.4-12-3.4-12-2.53.58-3.84,1.13-11.59,5.36C395.37,283.38,384.33,289.7,384.33,289.7Z" style="fill:#ffbda7"></path><path d="M415.19,272.56c-3.95.36-6,2-10.47,4.63s-12,7.27-12,7.27-2.94,4.37,1,11.87c2.46,4.7,5,5.36,5,5.36s16.46-8.15,18.91-11.41S422.76,274.83,415.19,272.56Z" style="fill:#BA68C8"></path><path d="M415.19,272.56c-3.95.36-6,2-10.47,4.63s-12,7.27-12,7.27-2.94,4.37,1,11.87c2.46,4.7,5,5.36,5,5.36s16.46-8.15,18.91-11.41S422.76,274.83,415.19,272.56Z" style="opacity:0.2"></path></g></g></g></g><g id="character-4"><g id="videocall-window"><g id="window"><g id="shadow" style="opacity:0.2"><path d="M261.81,193.47l101.56-58.64c.71-.42,1.3-.08,1.3.75v90a2.88,2.88,0,0,1-1.3,2.25L261.81,286.49c-.71.41-1.29.07-1.29-.75v-90A2.9,2.9,0,0,1,261.81,193.47Z"></path></g><g id="speech-bubble"><path d="M270.2,200.52a3.84,3.84,0,0,1,.18-.35h0A3.9,3.9,0,0,0,270.2,200.52Z" style="fill:#ebebeb"></path><path d="M372.73,141.78a.77.77,0,0,0-.74-.6,1.21,1.21,0,0,0-.66.21l-99.92,57.69a3,3,0,0,0-1,1.09L265,197.09a2.94,2.94,0,0,1,1-1L366,138.36a3.23,3.23,0,0,1,2.92,0l2.44,1.37A3.12,3.12,0,0,1,372.73,141.78Z" style="fill:#37474f;opacity:0.5"></path><g style="opacity:0.9"><path d="M271.41,292a3.33,3.33,0,0,1-2.92,0l-2.44-1.45a3.15,3.15,0,0,1-1.47-2.5V198.58a3.08,3.08,0,0,1,.46-1.49l5.35,3.08a2.91,2.91,0,0,0-.44,1.44v89.57C270,292,270.55,292.52,271.41,292Z" style="fill:#263238"></path></g><g style="opacity:0.85"><path d="M372,141.42a1.3,1.3,0,0,0-.65.2l-99.92,57.7a3.22,3.22,0,0,0-1.46,2.52v89.58c0,.66.33,1,.81,1a1.35,1.35,0,0,0,.65-.2l99.92-57.7a3.23,3.23,0,0,0,1.46-2.53V142.46c0-.66-.33-1-.81-1Z" style="fill:#37474f"></path></g><polygon points="270.03 287.21 372.79 227.87 372.79 146.57 270.03 205.92 270.03 287.21" style="fill:#fafafa"></polygon><path d="M372,141.83c.15,0,.16.33.16.39V231.8a2.6,2.6,0,0,1-1.13,2l-99.92,57.7a.71.71,0,0,1-.33.11c-.15,0-.15-.33-.15-.39V201.61a2.54,2.54,0,0,1,1.13-2L371.66,142a.73.73,0,0,1,.32-.12m0-.65a1.42,1.42,0,0,0-.65.2l-99.92,57.7a3.24,3.24,0,0,0-1.45,2.53v89.57c0,.66.32,1,.8,1a1.25,1.25,0,0,0,.65-.2l99.92-57.7a3.19,3.19,0,0,0,1.46-2.52V142.22c0-.65-.33-1-.81-1Z" style="fill:#455a64"></path></g><path d="M366.69,148.16a1.71,1.71,0,0,0,.77-1.34c0-.49-.35-.69-.77-.45a1.72,1.72,0,0,0-.78,1.35C365.91,148.21,366.26,148.41,366.69,148.16Z" style="fill:#fafafa"></path><path d="M369.23,146.7a1.68,1.68,0,0,0,.77-1.34c0-.49-.34-.69-.77-.45a1.72,1.72,0,0,0-.78,1.35C368.45,146.75,368.8,147,369.23,146.7Z" style="fill:#fafafa"></path><path d="M364.14,149.63a1.72,1.72,0,0,0,.78-1.35c0-.49-.35-.69-.78-.44a1.68,1.68,0,0,0-.77,1.34C363.37,149.67,363.71,149.87,364.14,149.63Z" style="fill:#fafafa"></path><path d="M276.15,205.56c1.42-.82,2.56-.16,2.56,1.48a5.66,5.66,0,0,1-2.56,4.44c-1.42.82-2.56.16-2.56-1.48A5.65,5.65,0,0,1,276.15,205.56Z" style="fill:#455a64"></path><path d="M276.13,208.77a1.84,1.84,0,0,0,.83-1.44c0-.53-.37-.75-.83-.48a1.83,1.83,0,0,0-.83,1.44C275.3,208.82,275.67,209,276.13,208.77Zm.27.12-.47.27a3,3,0,0,0-1.36,2.36v.24a1.23,1.23,0,0,0,.44.07,2.29,2.29,0,0,0,1.14-.35,5,5,0,0,0,1.62-1.6v-.21C277.77,208.8,277.16,208.45,276.4,208.89Z" style="fill:#BA68C8"></path><path d="M276.13,208.77a1.84,1.84,0,0,0,.83-1.44c0-.53-.37-.75-.83-.48a1.83,1.83,0,0,0-.83,1.44C275.3,208.82,275.67,209,276.13,208.77Zm.27.12-.47.27a3,3,0,0,0-1.36,2.36v.24a1.23,1.23,0,0,0,.44.07,2.29,2.29,0,0,0,1.14-.35,5,5,0,0,0,1.62-1.6v-.21C277.77,208.8,277.16,208.45,276.4,208.89Z" style="fill:#fff;opacity:0.45"></path><path d="M281.1,207.66l7.54-4.35a1.91,1.91,0,0,0,.87-1.5v-.28c0-.55-.39-.78-.87-.5l-7.54,4.35a1.91,1.91,0,0,0-.86,1.5v.29C280.24,207.72,280.62,207.94,281.1,207.66Z" style="fill:#455a64"></path></g><g id="character"><g id="window"><path d="M337.26,242.44v-52.9c0-9.12,6-20,13.43-24.28,3.47-2,6.79-2.3,9.35-.82,2.79,1.61,4.33,5.07,4.33,9.73v52.61l-.12.07ZM356.46,164a11.21,11.21,0,0,0-5.52,1.68h0c-7.27,4.2-13.18,14.89-13.18,23.85v52l26.11-15.08V174.17c0-4.41-1.49-7.8-4.08-9.3A6.61,6.61,0,0,0,356.46,164Zm-17.75,75.91V192.66L350.34,186V233.2l-.13.07Zm.5-47v46.1l10.63-6.14V186.82Zm12.08,39.7V185.4l11.62-6.71v47.25Zm.5-47v46.09l10.62-6.13V179.56Zm-13.08,5.84v-2c0-8,4.83-17.46,11.23-22.06l.4-.29v17.63Zm11.13-23.35c-6.09,4.62-10.63,13.7-10.63,21.36v1.12l10.63-6.13Zm1.45,16.09V166.59l.13-.07a10.2,10.2,0,0,1,5-1.55,5.66,5.66,0,0,1,2,.35c2.81,1,4.42,4.26,4.42,8.85v3.39Zm.5-17.39V183.4l10.62-6.13v-3.1c0-4.37-1.49-7.43-4.1-8.38C356.52,165.11,354.22,165.51,351.79,166.88Z" style="fill:#e6e6e6"></path></g><g id="picture"><path d="M274.05,230.23a.07.07,0,0,1-.06,0,.12.12,0,0,1-.07-.12v-12.9a.12.12,0,0,1,.07-.12l13.41-7.74a.12.12,0,0,1,.14,0,.11.11,0,0,1,.06.11v12.91a.14.14,0,0,1-.06.12l-13.42,7.74A.08.08,0,0,1,274.05,230.23Zm.14-13v12.59l13.14-7.59V209.68Z" style="fill:#e6e6e6"></path><path d="M275.15,228.33l-.06,0a.13.13,0,0,1-.07-.12V217.82a.13.13,0,0,1,.07-.12l11.21-6.47a.15.15,0,0,1,.13,0,.13.13,0,0,1,.07.12v10.36a.12.12,0,0,1-.07.12l-11.21,6.48Zm.14-10.43v10l10.94-6.31v-10Z" style="fill:#e6e6e6"></path><path d="M276.29,226.36l-.07,0a.14.14,0,0,1-.07-.12v-2.58a.19.19,0,0,1,0-.07l3-5.16a.15.15,0,0,1,.09-.06.14.14,0,0,1,.11,0l2.66,2-.33-.57a.12.12,0,0,1,0-.16l1.54-1.75a.15.15,0,0,1,.18,0l1.9,1.16a.14.14,0,0,1,.07.11v1.93a.15.15,0,0,1-.07.12l-8.94,5.12Zm.14-2.68V226l8.66-5v-1.77l-1.74-1.05-1.4,1.58.66,1.1a.14.14,0,0,1,0,.17.12.12,0,0,1-.17,0l-3.11-2.37Z" style="fill:#e6e6e6"></path><path d="M282.59,217.06a.6.6,0,0,1-.29-.08.73.73,0,0,1-.32-.68,2.12,2.12,0,0,1,1-1.67.66.66,0,0,1,1.07.62,2.09,2.09,0,0,1-1,1.67A1,1,0,0,1,282.59,217.06Zm.81-2.34a.67.67,0,0,0-.35.11,1.87,1.87,0,0,0-.85,1.47.55.55,0,0,0,.21.49.53.53,0,0,0,.53-.06,1.88,1.88,0,0,0,.85-1.48.53.53,0,0,0-.21-.49A.34.34,0,0,0,283.4,214.72Z" style="fill:#e6e6e6"></path></g><g id="picture"><path d="M291,217.32l-.07,0a.13.13,0,0,1-.07-.12V204.27a.13.13,0,0,1,.07-.12l13.41-7.74a.12.12,0,0,1,.14,0,.14.14,0,0,1,.07.12v12.9a.14.14,0,0,1-.07.12L291,217.3Zm.13-13v12.59l13.14-7.59V196.77Z" style="fill:#e6e6e6"></path><path d="M292.06,215.41l-.07,0a.14.14,0,0,1-.07-.12V204.91a.14.14,0,0,1,.07-.12l11.21-6.47a.12.12,0,0,1,.14,0,.14.14,0,0,1,.07.11V208.8a.15.15,0,0,1-.07.12l-11.21,6.47Zm.13-10.42v10l10.94-6.31V198.67Z" style="fill:#e6e6e6"></path><path d="M293.19,213.44h-.07a.15.15,0,0,1-.07-.12v-2.59a.14.14,0,0,1,0-.06l3-5.16a.13.13,0,0,1,.09-.07.11.11,0,0,1,.11,0l2.67,2-.34-.57a.14.14,0,0,1,0-.16l1.55-1.75a.14.14,0,0,1,.17,0l1.9,1.16a.13.13,0,0,1,.07.12v1.92a.15.15,0,0,1-.07.12l-8.94,5.13Zm.14-2.68v2.31l8.67-5v-1.76l-1.74-1.06-1.41,1.59.66,1.09a.15.15,0,0,1,0,.18.14.14,0,0,1-.17,0l-3.11-2.37Z" style="fill:#e6e6e6"></path><path d="M299.49,204.14a.59.59,0,0,1-.29-.07.74.74,0,0,1-.32-.69,2.09,2.09,0,0,1,1-1.66.74.74,0,0,1,.75-.07.75.75,0,0,1,.33.69,2.1,2.1,0,0,1-1,1.66A.85.85,0,0,1,299.49,204.14Zm.81-2.34a.78.78,0,0,0-.35.11,1.87,1.87,0,0,0-.85,1.47.53.53,0,0,0,.21.49.52.52,0,0,0,.53-.06,1.87,1.87,0,0,0,.85-1.47.52.52,0,0,0-.21-.49A.35.35,0,0,0,300.3,201.8Z" style="fill:#e6e6e6"></path></g><g id="Plants"><path d="M282.24,252.43c-2.89-.81-3.92-1.71-5.17-4.54a31.35,31.35,0,0,0-3.14-5.39S283.1,244.56,282.24,252.43Z" style="fill:#e6e6e6"></path><path d="M281.74,262.63a4.59,4.59,0,0,1-3.72-3,20.23,20.23,0,0,0-2.26-3.55S282.36,257.45,281.74,262.63Z" style="fill:#e6e6e6"></path><path d="M280.5,263.06a4.63,4.63,0,0,1-4.61,1.26,21.07,21.07,0,0,0-4.2-.24S276.65,259.52,280.5,263.06Z" style="fill:#e6e6e6"></path><path d="M289.3,259a4.6,4.6,0,0,0,.46-4.75,20.79,20.79,0,0,1-1-4.1S285.16,255.82,289.3,259Z" style="fill:#e6e6e6"></path><path d="M289.76,271.08a4.6,4.6,0,0,0,3.82-2.86,20.56,20.56,0,0,1,2.38-3.47S289.33,265.87,289.76,271.08Z" style="fill:#e6e6e6"></path><path d="M290.48,258.42A4.62,4.62,0,0,0,294.6,256a20.62,20.62,0,0,1,2.76-3.17S290.64,253.19,290.48,258.42Z" style="fill:#e6e6e6"></path><path d="M283.41,248.4a4.62,4.62,0,0,0,2-4.33,20.78,20.78,0,0,1,.46-4.18S280.56,244,283.41,248.4Z" style="fill:#e6e6e6"></path><path d="M280.81,273a4.59,4.59,0,0,0-4.44-1.74,21.16,21.16,0,0,1-4.21-.21S276.61,276.14,280.81,273Z" style="fill:#e6e6e6"></path><path d="M286.54,276.26c-1.94,1.68-3.07,2-5.68,1.53a27.08,27.08,0,0,0-5.32-.3S281.34,271.92,286.54,276.26Z" style="fill:#e6e6e6"></path><path d="M285.16,273.1a4.59,4.59,0,0,0-2.5-4.06,20.59,20.59,0,0,1-3.23-2.7S279.94,273.06,285.16,273.1Z" style="fill:#e6e6e6"></path><path d="M288.64,272a49.39,49.39,0,0,0-1.13-6.83,62.48,62.48,0,0,0-1.92-6.43,18.52,18.52,0,0,0-3-5.9c-.15-.18-.3.2-.22.33a37,37,0,0,1,4.27,12c.42,2.06.73,5.45.91,7.54.11,1.28.07,2.86.05,4.36l1.26-.73A33.49,33.49,0,0,0,288.64,272Z" style="fill:#f0f0f0"></path></g><g id="character"><path d="M337.75,244.81a16.45,16.45,0,0,1-.19,3.41L305.06,267a10.87,10.87,0,0,1-4.15-8.63s-5.11,1.1-8.41-5-.6-12.72,7.12-20,9.1-14.84,8.24-22.37l30.68,3.6c.58,9,4.69,15.68,5.55,23C344.53,241.36,342.81,246.18,337.75,244.81Z" style="fill:#37474f"></path><path d="M349.5,241.32l-8.86,5.12L336.39,234c7.25.2,8.6,2.71,13,7.17Z" style="fill:#c8856a"></path><path d="M346,243.35l-5.34,3.09-31.75,18.34c-.23-4.35-.64-8.71-.84-12.26-.7-12.36,1-15,2.76-15.93l3.19-.45c3.76-.6,16.55-2.19,16.55-2.19l5.84.09a53.2,53.2,0,0,1,9.14,8.76Z" style="fill:#BA68C8"></path><g style="opacity:0.5"><path d="M346,243.35l-5.34,3.09-31.75,18.34c-.23-4.35-.64-8.71-.84-12.26-.7-12.36,1-15,2.76-15.93l3.19-.45c3.76-.6,16.55-2.19,16.55-2.19l5.84.09a53.2,53.2,0,0,1,9.14,8.76Z" style="fill:#fff"></path></g><path d="M312.68,197.83c-5.27.78-5.92,10.18-4.3,15.42,3.13,10.12,9.58,11.13,10.12,15.48l9.13-6.31,7.1-4.91c3.12-2.16,7.89-2.95,8.7-7.83a4.82,4.82,0,0,0-2-4.9c1.33-1,1.92-3.23,1.59-5.64-.65-4.69-5.32-7.83-9.13-9.34a18.93,18.93,0,0,0-12-.54C317.8,190.37,313.62,193.08,312.68,197.83Z" style="fill:#37474f"></path><path d="M319,232.8l-1.18-9.43s-2.3,1.62-4.77-.88c-2.81-2.85-3.29-6-2-8.13,1.42-2.3,5-1.54,6.67,1.17,2.31.52,3-3,1-6.56,0,0,4.45-3.05,3.21-8.29,4.1,2.55,13.33,3.55,15.21-.92,1.41,2,3.31,4.38,4,15.49.66,10.15-1,12.6-3.49,13.89-1.48.77-3.34,1-6.26.82l.31,2.62h0c.14,1.32.43,1.35,1.49,1.38l1.58.06s4.28,4.87-3.19,6.14c-11.15,1.9-17.65-4-17.65-4s.64-.1,2.57-.45S319,234.57,319,232.8Z" style="fill:#c8856a"></path><path d="M328,220.55l4.16,1.31a2,2,0,0,1-2.55,1.63A2.55,2.55,0,0,1,328,220.55Z" style="fill:#af6152"></path><path d="M328.31,221.56a2.52,2.52,0,0,1,2.48,1.92,1.86,1.86,0,0,1-1.19,0,2.45,2.45,0,0,1-1.6-1.88Z" style="fill:#ffa8a7"></path><path d="M339,209.37,335.92,208a1.49,1.49,0,0,1,2.05-1A2,2,0,0,1,339,209.37Z" style="fill:#37474f"></path><path d="M324.63,210.13l2.8-1.8a1.59,1.59,0,0,0-2.26-.7A1.93,1.93,0,0,0,324.63,210.13Z" style="fill:#37474f"></path><polygon points="331.72 210.05 332.77 219.36 337.07 217.27 331.72 210.05" style="fill:#af6152"></polygon><path d="M335.61,211.61a1.58,1.58,0,0,0,1.37,1.58,1.29,1.29,0,0,0,1.38-1.34,1.55,1.55,0,0,0-1.36-1.58A1.29,1.29,0,0,0,335.61,211.61Z" style="fill:#263238"></path><path d="M325.72,212.11a1.57,1.57,0,0,0,1.36,1.58,1.29,1.29,0,0,0,1.38-1.34,1.55,1.55,0,0,0-1.36-1.58A1.28,1.28,0,0,0,325.72,212.11Z" style="fill:#263238"></path><path d="M331.46,230c-5.24-.44-10.33-2.15-11.67-4.69a5.44,5.44,0,0,0,2.36,4.08c3.08,1.81,9.54,2.6,9.54,2.6Z" style="fill:#af6152"></path><path d="M313.09,254.47l-4.2,10.31-19.11,11a8.65,8.65,0,0,1,.2-3.57c1.12-4.9,6.6-17.77,10-26.53,3-7.53,5.84-8.82,11.78-9.27C317.49,242.3,313.09,254.47,313.09,254.47Z" style="fill:#c8856a"></path></g></g></g></g><g id="character-3"><g id="videocall-window"><g id="window"><g id="shadow" style="opacity:0.2"><path d="M261.81,81.93,363.37,23.28c.71-.41,1.3-.08,1.3.75v90a2.88,2.88,0,0,1-1.3,2.25L261.81,174.94c-.71.41-1.29.08-1.29-.75v-90A2.87,2.87,0,0,1,261.81,81.93Z"></path></g><g id="speech-bubble"><path d="M270.2,89a3.84,3.84,0,0,1,.18-.35h0A3.9,3.9,0,0,0,270.2,89Z" style="fill:#ebebeb"></path><path d="M372.73,30.23a.77.77,0,0,0-.74-.6,1.3,1.3,0,0,0-.66.21L271.41,87.53a3,3,0,0,0-1,1.09L265,85.54a3,3,0,0,1,1-1L366,26.81a3.23,3.23,0,0,1,2.92,0l2.44,1.37A3.12,3.12,0,0,1,372.73,30.23Z" style="fill:#37474f;opacity:0.5"></path><g style="opacity:0.9"><path d="M271.41,180.47a3.33,3.33,0,0,1-2.92,0L266.05,179a3.15,3.15,0,0,1-1.47-2.5V87a3,3,0,0,1,.46-1.48l5.35,3.07a2.94,2.94,0,0,0-.44,1.44v89.57C270,180.48,270.55,181,271.41,180.47Z" style="fill:#263238"></path></g><g style="opacity:0.85"><path d="M372,29.87a1.42,1.42,0,0,0-.65.2l-99.92,57.7A3.26,3.26,0,0,0,270,90.3v89.57c0,.66.33,1,.81,1a1.35,1.35,0,0,0,.65-.2L371.33,123a3.19,3.19,0,0,0,1.46-2.52V30.91c0-.66-.33-1-.81-1Z" style="fill:#37474f"></path></g><polygon points="270.03 175.66 372.79 116.32 372.79 35.02 270.03 94.37 270.03 175.66" style="fill:#fafafa"></polygon><path d="M372,30.29c.15,0,.16.32.16.39v89.57a2.59,2.59,0,0,1-1.13,2l-99.92,57.7a.71.71,0,0,1-.33.11c-.15,0-.15-.32-.15-.39V90.06a2.56,2.56,0,0,1,1.13-2l99.92-57.7a.66.66,0,0,1,.32-.11m0-.65a1.3,1.3,0,0,0-.65.2L271.41,87.53A3.24,3.24,0,0,0,270,90.06v89.57c0,.66.32,1,.8,1a1.25,1.25,0,0,0,.65-.2l99.92-57.7a3.19,3.19,0,0,0,1.46-2.52V30.68c0-.66-.33-1-.81-1Z" style="fill:#455a64"></path></g><path d="M366.69,36.62a1.74,1.74,0,0,0,.77-1.35c0-.49-.35-.69-.77-.44a1.69,1.69,0,0,0-.78,1.34C365.91,36.66,366.26,36.86,366.69,36.62Z" style="fill:#fafafa"></path><path d="M369.23,35.16a1.71,1.71,0,0,0,.77-1.35c0-.49-.34-.69-.77-.44a1.69,1.69,0,0,0-.78,1.34C368.45,35.2,368.8,35.4,369.23,35.16Z" style="fill:#fafafa"></path><path d="M364.14,38.08a1.72,1.72,0,0,0,.78-1.34c0-.5-.35-.7-.78-.45a1.71,1.71,0,0,0-.77,1.34C363.37,38.12,363.71,38.33,364.14,38.08Z" style="fill:#fafafa"></path><path d="M276.15,94c1.42-.82,2.56-.15,2.56,1.48a5.65,5.65,0,0,1-2.56,4.44c-1.42.82-2.56.16-2.56-1.48A5.66,5.66,0,0,1,276.15,94Z" style="fill:#455a64"></path><path d="M276.13,97.22a1.84,1.84,0,0,0,.83-1.44c0-.53-.37-.75-.83-.48a1.83,1.83,0,0,0-.83,1.44C275.3,97.27,275.67,97.48,276.13,97.22Zm.27.12-.47.27a3,3,0,0,0-1.36,2.37v.23a1.23,1.23,0,0,0,.44.07,2.29,2.29,0,0,0,1.14-.35,5,5,0,0,0,1.62-1.6v-.2C277.77,97.25,277.16,96.9,276.4,97.34Z" style="fill:#BA68C8"></path><path d="M276.13,97.22a1.84,1.84,0,0,0,.83-1.44c0-.53-.37-.75-.83-.48a1.83,1.83,0,0,0-.83,1.44C275.3,97.27,275.67,97.48,276.13,97.22Zm.27.12-.47.27a3,3,0,0,0-1.36,2.37v.23a1.23,1.23,0,0,0,.44.07,2.29,2.29,0,0,0,1.14-.35,5,5,0,0,0,1.62-1.6v-.2C277.77,97.25,277.16,96.9,276.4,97.34Z" style="fill:#fff;opacity:0.45"></path><path d="M281.24,96l7.54-4.35a1.91,1.91,0,0,0,.87-1.5v-.28c0-.55-.39-.78-.87-.5l-7.54,4.35a1.94,1.94,0,0,0-.86,1.5v.28C280.38,96.08,280.77,96.3,281.24,96Z" style="fill:#455a64"></path></g><g id="character"><g id="picture"><path d="M274.66,159.09a.27.27,0,0,1-.12,0,.26.26,0,0,1-.13-.22V106a.23.23,0,0,1,.13-.21l24.37-14.08a.28.28,0,0,1,.25,0,.26.26,0,0,1,.13.22v52.8a.26.26,0,0,1-.13.22l-24.37,14.07A.28.28,0,0,1,274.66,159.09Zm.25-52.9v52.22l23.88-13.79V92.4Z" style="fill:#e6e6e6"></path><path d="M276.66,155.63a.19.19,0,0,1-.12,0,.23.23,0,0,1-.13-.21V107.2a.26.26,0,0,1,.13-.22l20.37-11.76a.23.23,0,0,1,.25,0,.24.24,0,0,1,.13.21v48.18a.25.25,0,0,1-.13.22l-20.37,11.76A.2.2,0,0,1,276.66,155.63Zm.25-48.29v47.6l19.88-11.47V95.87Z" style="fill:#e6e6e6"></path></g><g id="plants"><path d="M355.33,98.67c-2.88-.8-3.91-1.71-5.16-4.54A32.26,32.26,0,0,0,347,88.74S356.19,90.8,355.33,98.67Z" style="fill:#e6e6e6"></path><path d="M354.83,108.88a4.62,4.62,0,0,1-3.71-3,20.9,20.9,0,0,0-2.26-3.55S355.45,103.69,354.83,108.88Z" style="fill:#e6e6e6"></path><path d="M353.59,109.3a4.59,4.59,0,0,1-4.6,1.26,21.07,21.07,0,0,0-4.2-.24S349.74,105.76,353.59,109.3Z" style="fill:#e6e6e6"></path><path d="M362.4,105.25a4.6,4.6,0,0,0,.45-4.75,21.2,21.2,0,0,1-1-4.1S358.25,102.06,362.4,105.25Z" style="fill:#e6e6e6"></path><path d="M362.86,117.32a4.6,4.6,0,0,0,3.81-2.86,21,21,0,0,1,2.39-3.47S362.42,112.12,362.86,117.32Z" style="fill:#e6e6e6"></path><path d="M363.57,104.66a4.62,4.62,0,0,0,4.12-2.41,21.25,21.25,0,0,1,2.76-3.17S363.73,99.44,363.57,104.66Z" style="fill:#e6e6e6"></path><path d="M356.5,94.64a4.59,4.59,0,0,0,2-4.33,21.18,21.18,0,0,1,.45-4.18S353.65,90.26,356.5,94.64Z" style="fill:#e6e6e6"></path><path d="M353.9,119.27a4.58,4.58,0,0,0-4.44-1.74,21,21,0,0,1-4.2-.21S349.7,122.38,353.9,119.27Z" style="fill:#e6e6e6"></path><path d="M359.63,122.5c-1.94,1.68-3.07,2-5.68,1.53a28,28,0,0,0-5.32-.3S354.43,118.17,359.63,122.5Z" style="fill:#e6e6e6"></path><path d="M358.25,119.34a4.59,4.59,0,0,0-2.5-4.06,21.41,21.41,0,0,1-3.23-2.69S353,119.3,358.25,119.34Z" style="fill:#e6e6e6"></path><path d="M361.73,118.22a49.39,49.39,0,0,0-1.13-6.83,60.78,60.78,0,0,0-1.92-6.43,18.54,18.54,0,0,0-3-5.89c-.16-.19-.31.2-.23.33a36.64,36.64,0,0,1,4.27,12,75.85,75.85,0,0,1,.91,7.53c.11,1.28.07,2.86.05,4.37l1.27-.73A35.41,35.41,0,0,0,361.73,118.22Z" style="fill:#f0f0f0"></path></g><g id="picture"><path d="M338.68,79.9a.17.17,0,0,1-.1,0,.19.19,0,0,1-.11-.18V60.54a.18.18,0,0,1,.11-.17l19.9-11.49a.18.18,0,0,1,.2,0,.19.19,0,0,1,.1.17V68.2a.21.21,0,0,1-.1.18l-19.9,11.49A.19.19,0,0,1,338.68,79.9Zm.2-19.24V79.34l19.5-11.25V49.41Z" style="fill:#e6e6e6"></path><path d="M340.31,77.07a.21.21,0,0,1-.2-.2V61.49a.21.21,0,0,1,.1-.18l16.63-9.61a.26.26,0,0,1,.21,0,.22.22,0,0,1,.1.18V67.26a.22.22,0,0,1-.1.18L340.41,77A.17.17,0,0,1,340.31,77.07Zm.2-15.47V76.51l16.23-9.37V52.24Z" style="fill:#e6e6e6"></path><path d="M342,74.15l-.1,0a.22.22,0,0,1-.1-.18V70.12a.17.17,0,0,1,0-.1l4.4-7.66a.19.19,0,0,1,.14-.09.18.18,0,0,1,.16,0l4,3-.5-.84a.21.21,0,0,1,0-.24l2.3-2.6a.2.2,0,0,1,.25,0l2.83,1.72a.19.19,0,0,1,.1.17v2.85a.2.2,0,0,1-.11.18L342.1,74.13Zm.21-4V73.6l12.86-7.38V63.61L352.48,62,350.4,64.4l1,1.62a.21.21,0,0,1,0,.26.21.21,0,0,1-.26,0l-4.61-3.52Z" style="fill:#e6e6e6"></path><path d="M351.34,60.35a.81.81,0,0,1-.43-.11,1.09,1.09,0,0,1-.47-1,3.12,3.12,0,0,1,1.42-2.48,1.12,1.12,0,0,1,1.12-.09,1.1,1.1,0,0,1,.48,1A3.13,3.13,0,0,1,352,60.15,1.46,1.46,0,0,1,351.34,60.35Zm1.21-3.47A1,1,0,0,0,352,57a2.78,2.78,0,0,0-1.26,2.19.78.78,0,0,0,.31.72.76.76,0,0,0,.78-.09,2.78,2.78,0,0,0,1.26-2.19.78.78,0,0,0-.31-.72A.46.46,0,0,0,352.55,56.88Z" style="fill:#e6e6e6"></path></g><g id="picture"><path d="M372.05,80.51,364.22,85V66.35l7.83-4.51v-.48l-8.13,4.7a.2.2,0,0,0-.11.18V85.39a.18.18,0,0,0,.11.17.17.17,0,0,0,.1,0,.19.19,0,0,0,.1,0L372.05,81Z" style="fill:#e6e6e6"></path><path d="M372.05,78.63l-6.19,3.57V67.3l6.19-3.58v-.47L365.55,67a.22.22,0,0,0-.1.18V82.56a.22.22,0,0,0,.1.18l.1,0,.1,0,6.3-3.64Z" style="fill:#e6e6e6"></path><path d="M372.05,76.7l-4.51,2.59V75.87l4.26-7.41.25.19v-.51l-.19-.14a.18.18,0,0,0-.16,0,.21.21,0,0,0-.14.1l-4.4,7.65a.19.19,0,0,0,0,.1v3.83a.22.22,0,0,0,.1.18.23.23,0,0,0,.11,0,.19.19,0,0,0,.1,0l4.61-2.64Z" style="fill:#e6e6e6"></path></g><g id="character"><path d="M345.9,131.85l-15.38,8.89-.76-1.33,2.8-18.2c3.15.36,6,.94,8.35,3.45A34.68,34.68,0,0,1,345.9,131.85Z" style="fill:#455a64"></path><path d="M341.36,134.48l-10.84,6.26-29.77,17.19c-.39-4.94-.78-9.69-1.12-13.49-.74-8.1-.51-15,1.54-16.89,0,0,8.79-4.72,15.16-5.81,8.22-1.41,13.7-1,16.23-.53C333.53,121.39,338.5,123.15,341.36,134.48Z" style="fill:#BA68C8"></path><path d="M333.75,95.86a7.06,7.06,0,0,0,2.4-3.68,12.45,12.45,0,0,0,.31-5.13,6.28,6.28,0,0,0-.56-1.75,2.44,2.44,0,0,0-1.88-.91c-.44-.06-.88-.11-1.33-.15a8.72,8.72,0,0,0,1.79-3.08,5.15,5.15,0,0,0,0-2.78,1.62,1.62,0,0,0-.33-.67,1.4,1.4,0,0,0-1.5-.16,26.5,26.5,0,0,1-9.33,1c-2.51-.08-3.77-.37-7.22-.62s-9.44,1.61-10,8.61c-4.53.94-4.58,8.94-3,12.27,2.83,6.14,5.42,10.18,6.94,14.61.22-.19,14.95-10.21,18.29-13q1.88-1.58,3.76-3.14C332.58,96.81,333.18,96.35,333.75,95.86Z" style="fill:#263238"></path><path d="M305.16,109c2.88,2.13,4.51,0,4.51,0l.92,15c6.17,7.8,21.23,6.16,14.16-1.69l-.09-3.61a20.4,20.4,0,0,0,4.18-.3,6.58,6.58,0,0,0,2.37-1,7.62,7.62,0,0,0,3-4.91,41.77,41.77,0,0,0,.59-10.81c-.26-4.38-1-10-2.55-12.91-2.57-2.26-9.81-2.31-15.76-.3,0,1.64.24,3.07-.86,4.89a6.15,6.15,0,0,1-2.19,2c0,3.18,0,4-.49,5.46-.25.81-.77,2-2.31,1.48-.72-.26-1.35-1.93-2.15-3-1.08-1.48-4.22-2.12-5.51,1.18A7.78,7.78,0,0,0,305.16,109Z" style="fill:#ffa8a7"></path><path d="M324.66,118.72c-3.09-.26-8.63-1.39-10.34-3.37s-3.23-6.62-3.23-6.62.94,5.22,2.28,7.47,4.06,3.11,6,3.7a31.38,31.38,0,0,0,5.31.82Z" style="fill:#f28f8f"></path><path d="M321.18,96.46l-2.85,1.44a1.82,1.82,0,0,1,.72-2.35A1.58,1.58,0,0,1,321.18,96.46Z" style="fill:#263238"></path><path d="M329.66,96.09l2.93,1.54a1.93,1.93,0,0,0-.84-2.37A1.47,1.47,0,0,0,329.66,96.09Z" style="fill:#263238"></path><path d="M321,107.86l5.45,2.07a2.81,2.81,0,0,1-3.66,1.89A3.19,3.19,0,0,1,321,107.86Z" style="fill:#b16668"></path><path d="M321.19,109.05a3,3,0,0,1,3,2.9,2.64,2.64,0,0,1-1.41-.13,3.12,3.12,0,0,1-1.94-2.72A2.44,2.44,0,0,1,321.19,109.05Z" style="fill:#f28f8f"></path><polygon points="324.61 96.72 326.22 107.04 331.04 104.68 324.61 96.72" style="fill:#f28f8f"></polygon><path d="M319.62,100.27a1.45,1.45,0,0,0,1.38,1.41,1.29,1.29,0,0,0,1.24-1.42,1.42,1.42,0,0,0-1.38-1.4A1.29,1.29,0,0,0,319.62,100.27Z" style="fill:#263238"></path><path d="M329.31,99.75a1.44,1.44,0,0,0,1.38,1.41,1.3,1.3,0,0,0,1.24-1.42,1.45,1.45,0,0,0-1.38-1.41A1.3,1.3,0,0,0,329.31,99.75Z" style="fill:#263238"></path><path d="M309.19,153.06l-8.44,4.87-9,5.19c-.18-3.89-.35-8.36-.36-11,0-9.38-.44-11.12,1-15.37s5.46-7.52,8.72-9.23c0,0,7,5.33,7.48,13.88C308.87,145.69,309.05,149.67,309.19,153.06Z" style="fill:#455a64"></path></g></g></g></g><g id="character-2"><g id="videocall-window"><g id="window"><g id="shadow" style="opacity:0.2"><path d="M144,261.49l101.55-58.65c.72-.41,1.3-.08,1.3.75v90a2.86,2.86,0,0,1-1.3,2.25L144,354.5c-.72.41-1.3.08-1.3-.75v-90A2.86,2.86,0,0,1,144,261.49Z"></path></g><g id="speech-bubble"><path d="M152.4,268.53a2.71,2.71,0,0,1,.18-.34h0A2.74,2.74,0,0,0,152.4,268.53Z" style="fill:#ebebeb"></path><path d="M254.93,209.79a.77.77,0,0,0-.74-.6,1.3,1.3,0,0,0-.65.21l-99.93,57.69a3,3,0,0,0-1,1.1l-5.33-3.09a3.06,3.06,0,0,1,1-1l99.92-57.7a3.32,3.32,0,0,1,2.93,0l2.44,1.37A3.17,3.17,0,0,1,254.93,209.79Z" style="fill:#37474f;opacity:0.5"></path><g style="opacity:0.9"><path d="M153.62,360a3.35,3.35,0,0,1-2.93,0l-2.44-1.45a3.15,3.15,0,0,1-1.47-2.5V266.6a2.93,2.93,0,0,1,.47-1.49l5.34,3.08a2.89,2.89,0,0,0-.43,1.43v89.57C152.16,360,152.76,360.53,153.62,360Z" style="fill:#263238"></path></g><g style="opacity:0.85"><path d="M254.19,209.44a1.33,1.33,0,0,0-.65.19l-99.92,57.7a3.23,3.23,0,0,0-1.46,2.53v89.57c0,.66.33,1,.8,1a1.31,1.31,0,0,0,.66-.2l99.92-57.7a3.21,3.21,0,0,0,1.45-2.52V210.48c0-.66-.32-1-.8-1Z" style="fill:#37474f"></path></g><polygon points="152.23 355.23 254.99 295.88 254.99 214.59 152.23 273.93 152.23 355.23" style="fill:#fafafa"></polygon><path d="M254.19,209.85c.15,0,.15.32.15.39v89.57a2.59,2.59,0,0,1-1.13,2l-99.92,57.7a.68.68,0,0,1-.33.11c-.14,0-.15-.32-.15-.39V269.62a2.59,2.59,0,0,1,1.13-2L253.86,210a.71.71,0,0,1,.33-.11m0-.65a1.25,1.25,0,0,0-.65.2l-99.92,57.7a3.19,3.19,0,0,0-1.46,2.52v89.57c0,.66.33,1,.8,1a1.31,1.31,0,0,0,.66-.2l99.92-57.69a3.24,3.24,0,0,0,1.45-2.53V210.24c0-.66-.32-1-.8-1Z" style="fill:#455a64"></path></g><path d="M248.89,216.18a1.71,1.71,0,0,0,.77-1.34c0-.5-.34-.7-.77-.45a1.72,1.72,0,0,0-.78,1.34C248.11,216.22,248.46,216.42,248.89,216.18Z" style="fill:#fafafa"></path><path d="M251.43,214.72a1.72,1.72,0,0,0,.78-1.34c0-.5-.35-.7-.78-.45a1.71,1.71,0,0,0-.77,1.34C250.66,214.76,251,215,251.43,214.72Z" style="fill:#fafafa"></path><path d="M246.35,217.64a1.74,1.74,0,0,0,.77-1.34c0-.5-.35-.7-.77-.45a1.72,1.72,0,0,0-.78,1.34C245.57,217.69,245.92,217.89,246.35,217.64Z" style="fill:#fafafa"></path><path d="M158.35,273.57c1.42-.82,2.57-.15,2.57,1.48a5.64,5.64,0,0,1-2.57,4.44c-1.41.82-2.56.16-2.56-1.48A5.69,5.69,0,0,1,158.35,273.57Z" style="fill:#455a64"></path><path d="M158.33,276.78a1.84,1.84,0,0,0,.84-1.44c0-.53-.38-.75-.84-.48a1.85,1.85,0,0,0-.83,1.44C157.5,276.83,157.88,277.05,158.33,276.78Zm.28.12-.47.27a3,3,0,0,0-1.37,2.37v.24a1.51,1.51,0,0,0,.44.06,2.19,2.19,0,0,0,1.14-.35,4.94,4.94,0,0,0,1.62-1.6v-.2C160,276.82,159.36,276.46,158.61,276.9Z" style="fill:#BA68C8"></path><path d="M158.33,276.78a1.84,1.84,0,0,0,.84-1.44c0-.53-.38-.75-.84-.48a1.85,1.85,0,0,0-.83,1.44C157.5,276.83,157.88,277.05,158.33,276.78Zm.28.12-.47.27a3,3,0,0,0-1.37,2.37v.24a1.51,1.51,0,0,0,.44.06,2.19,2.19,0,0,0,1.14-.35,4.94,4.94,0,0,0,1.62-1.6v-.2C160,276.82,159.36,276.46,158.61,276.9Z" style="fill:#fff;opacity:0.45"></path><path d="M163.24,275.68l7.54-4.35a1.91,1.91,0,0,0,.86-1.5v-.28c0-.56-.38-.78-.86-.5l-7.54,4.35a1.91,1.91,0,0,0-.87,1.5v.28C162.37,275.73,162.76,276,163.24,275.68Z" style="fill:#455a64"></path></g><g id="character"><g id="window"><path d="M198.25,293.77a.28.28,0,0,1-.12,0,.24.24,0,0,1-.13-.21V252a.23.23,0,0,1,.13-.21l26.94-15.56h0l25.32-14.61a.23.23,0,0,1,.25,0,.23.23,0,0,1,.13.21v41.49a.23.23,0,0,1-.13.21l-52.26,30.18A.33.33,0,0,1,198.25,293.77Zm.25-41.6v40.91l51.77-29.89V222.28ZM199.87,291a.28.28,0,0,1-.13,0,.26.26,0,0,1-.12-.21V272.8a.27.27,0,0,1,.12-.22l23.72-13.69a.25.25,0,0,1,.37.22V277a.27.27,0,0,1-.12.22L200,290.94A.28.28,0,0,1,199.87,291Zm.25-18v17.34l23.21-13.4V259.54Zm25.07,3.41a.17.17,0,0,1-.12,0,.24.24,0,0,1-.13-.21V258.18a.23.23,0,0,1,.13-.21l23.72-13.71a.25.25,0,0,1,.37.22v17.93a.27.27,0,0,1-.12.22l-23.72,13.69A.22.22,0,0,1,225.19,276.36Zm.25-18v17.34l23.22-13.4V244.91Zm23.47,4.08h0Zm-49,8.73a.2.2,0,0,1-.13,0,.24.24,0,0,1-.12-.21V253a.26.26,0,0,1,.12-.22l23.72-13.69a.23.23,0,0,1,.25,0,.24.24,0,0,1,.12.21v17.93a.27.27,0,0,1-.12.22L200,271.1A.19.19,0,0,1,199.87,271.14Zm.25-18v17.35l23.21-13.4V239.69Zm25.07,3.42a.17.17,0,0,1-.12,0,.23.23,0,0,1-.13-.21V238.34a.25.25,0,0,1,.13-.22l23.72-13.7a.23.23,0,0,1,.25,0,.26.26,0,0,1,.12.21v17.94a.24.24,0,0,1-.12.21l-23.72,13.7A.22.22,0,0,1,225.19,256.52Zm.25-18v17.35l23.22-13.41V225.07Z" style="fill:#e6e6e6"></path></g><g id="plants"><path d="M170.58,308.5c-3.76-1.05-5.1-2.23-6.73-5.92a41.72,41.72,0,0,0-4.1-7S171.7,298.25,170.58,308.5Z" style="fill:#e6e6e6"></path><path d="M169.92,321.8c-2.7-.69-3.66-1.47-4.83-3.91a27.74,27.74,0,0,0-3-4.62S170.73,315,169.92,321.8Z" style="fill:#e6e6e6"></path><path d="M168.31,322.35c-2.15,1.79-3.34,2.12-6,1.65a26.81,26.81,0,0,0-5.47-.32S163.29,317.74,168.31,322.35Z" style="fill:#e6e6e6"></path><path d="M179.78,317.07c1.4-2.41,1.52-3.65.6-6.19a27.46,27.46,0,0,1-1.25-5.34S174.38,312.92,179.78,317.07Z" style="fill:#e6e6e6"></path><path d="M180.38,332.81c2.73-.6,3.72-1.35,5-3.74a27.5,27.5,0,0,1,3.11-4.52S179.81,326,180.38,332.81Z" style="fill:#e6e6e6"></path><path d="M181.31,316.3c2.78-.28,3.85-.9,5.37-3.13a27.18,27.18,0,0,1,3.6-4.13S181.52,309.5,181.31,316.3Z" style="fill:#e6e6e6"></path><path d="M172.1,303.25c2.12-1.82,2.64-2.94,2.61-5.64a27.58,27.58,0,0,1,.6-5.45S168.38,297.55,172.1,303.25Z" style="fill:#e6e6e6"></path><path d="M168.72,335.34c-1.95-2-3.1-2.46-5.79-2.27a27.39,27.39,0,0,1-5.48-.26S163.24,339.39,168.72,335.34Z" style="fill:#e6e6e6"></path><path d="M176.18,339.55c-2.52,2.19-4,2.59-7.4,2a35.44,35.44,0,0,0-6.94-.4S169.41,333.9,176.18,339.55Z" style="fill:#e6e6e6"></path><path d="M174.38,335.44c-.34-2.77-1-3.83-3.25-5.3a27.12,27.12,0,0,1-4.22-3.51S167.58,335.38,174.38,335.44Z" style="fill:#e6e6e6"></path><path d="M178.91,334a63.78,63.78,0,0,0-1.47-8.9,78.34,78.34,0,0,0-2.5-8.38,24,24,0,0,0-4-7.68c-.2-.24-.39.26-.29.43,3,5,4.42,10.06,5.57,15.68.54,2.68.95,7.1,1.18,9.82.15,1.67.09,3.73.07,5.69l1.64-.95A43.14,43.14,0,0,0,178.91,334Z" style="fill:#f0f0f0"></path></g><g id="character"><g id="Chest"><path d="M232.35,309l-14,8.1-3.7-19.9c4.57-.05,7.62.44,9.87,1.81C228.22,301.25,229.75,304.58,232.35,309Z" style="fill:#263238"></path><g id="chest"><path d="M225.44,313l-43.95,25.37c-.79-5.34-1.57-9.17-2.51-13.67-1.45-6.89-1.75-16.93,1.3-18.42,4-2,6.25-3.25,8.25-4.08a22.4,22.4,0,0,1,14.77-5.1c3.62,0,7.24,0,11.3.12,4.5.19,8.61,5.35,10.75,15.31C225.38,312.62,225.41,312.78,225.44,313Z" style="fill:#37474f"></path></g><g id="Head"><path d="M189.74,262.57c-4,5.1-2.66,11.45-.88,17.47,2.06,6.84,1.13,9.87,4.86,11.58-1.79-21.51,6.07,3.68,21.32-13.06,2.76-3,2.52-12.39-1.18-16.63C208.63,255.94,197.49,252.94,189.74,262.57Z" style="fill:#263238"></path><path d="M188.23,286.77c2.28,1.58,4.2-.86,4.2-.86l1.14,14.26s0,1.81,4,4.07c2.6,1.49,8,2.35,11.06,5.59,1.29-2.35,2.33-6.69-.55-10.37l-.23-3.87a8.72,8.72,0,0,0,3.09-.28,8.48,8.48,0,0,0,5.58-6c1.17-5.18.6-13-1.57-23.08-3.18-2.63-13.38-3.18-19.75,1.17.5,5.95-1,8.56-.87,10.72a5.09,5.09,0,0,1-1.14,1.65c-1,.94-1.89-1.53-2.77-2.5s-3.71-2.31-5,.82S186.25,285.41,188.23,286.77Z" style="fill:#b16668"></path><path d="M202.36,272.68l-2.63,1.77a1.83,1.83,0,0,1,.43-2.41A1.55,1.55,0,0,1,202.36,272.68Z" style="fill:#263238"></path><path d="M214.3,272.62l-3.18-1a1.44,1.44,0,0,1,1.88-1.17A2,2,0,0,1,214.3,272.62Z" style="fill:#263238"></path><path d="M201.24,276.71a1.45,1.45,0,0,0,1.4,1.38,1.29,1.29,0,0,0,1.21-1.44,1.42,1.42,0,0,0-1.39-1.38A1.3,1.3,0,0,0,201.24,276.71Z" style="fill:#263238"></path><path d="M211.37,276a1.42,1.42,0,0,0,1.39,1.38,1.3,1.3,0,0,0,1.22-1.44,1.42,1.42,0,0,0-1.39-1.37A1.29,1.29,0,0,0,211.37,276Z" style="fill:#263238"></path><path d="M205.54,272.67l1.9,8.65,3.95-1.7A15.92,15.92,0,0,0,205.54,272.67Z" style="fill:#9a4a4d"></path><path d="M194.35,277.14c.28,5.87,2.81,7,4.89,7.6,3.31,1,4.83-2,8.67-2.29,2.2-.16,2.77.26,4.85,1.58a7,7,0,0,0,1.57.72c.78.16,2,.27,2.31-.89a21.88,21.88,0,0,0,0-7.15l-.14-1.4a48.06,48.06,0,0,1,.72,11c-.27,3-1.26,5.82-2.74,7.25-2,2-5.66,3.08-11.32,2s-7.87-3-8.71-5.1c-2.7-6.79-2.1-10.07-2.93-11.34S194.35,277.14,194.35,277.14Z" style="fill:#263238"></path><path d="M209.32,284.2c2.62.25,4,1.33,4.09,3.16s-.32,4.08-1.82,4.76-1.43-1.09-1.24-2.05-.33-.74-1.18-.72-1.2-.11-.88.85.8,2.32-1,2.16-3.11-2-3.53-4.29S205.35,283.82,209.32,284.2Z" style="fill:#b16668"></path><path d="M205.77,285.69h4.46a2.24,2.24,0,0,1-2.2,2.22A2.19,2.19,0,0,1,205.77,285.69Z" style="fill:#9a4a4d"></path><path d="M205.84,286.29A2.24,2.24,0,0,0,208,287.9a2.11,2.11,0,0,0,1.23-.38A4.65,4.65,0,0,0,205.84,286.29Z" style="fill:#f28f8f"></path></g><g id="head"><path d="M208.58,309.83c-1.7-1.06-6.17-3.07-6.53-1.88-.25.84-1,3.88-2.23,3.81-1.68-.09-6.22-1.79-9.23-5.53a8.49,8.49,0,0,1-2.07-4.07s1.49-3.21,2.41-4.68,1.16-2.4,2.19-2.5l.28,3a11.07,11.07,0,0,0,3.08,3.45C199.5,303.63,205.53,306,208.58,309.83Z" style="fill:#263238"></path><path d="M208.58,309.83c.92-1,2.45-5,3.24-4.82,1.65.32,2.78,1.59,2.78.67s-1.23-2.88-2.72-5.54c-1.15-2.05-3-3.73-4-3.91l.25,4.13a11.33,11.33,0,0,1,.87,3.54A12.8,12.8,0,0,1,208.58,309.83Z" style="fill:#263238"></path></g><path d="M185.43,326.9c-.28,1.37-.87,5.42-1.5,10l-19.4,11.19c.18-2.05.52-4.67,1-8.38,1.44-12,2.89-19.71,4.7-24.14s5.21-7.13,10.09-9.37C185.63,312.89,186.21,323.11,185.43,326.9Z" style="fill:#263238"></path></g><g id="Hand"><path d="M245.78,297.64c-.14,1.58-.16,2.57-.17,3.66l-10.8,6.25c.12-2.32.25-4.4.39-5.67.5-4.35-1.85-5.6-3.18-8.24s-1-4.83-2-7.56-1.91-4-.16-4.15,3.43,3.16,3.9,3.81c.23.31.48,1.21.82,1.61s.75.37,1.3-1.2c1.1-3.14-.8-9.3-.64-12.62.05-1,1-3.24,1.89-2.76.56.31,1.79,4,1.79,4a11.61,11.61,0,0,1,5,3.46,9.54,9.54,0,0,1,2.48,6.43,48.49,48.49,0,0,1-.06,9.34C246.35,294.86,245.86,296.78,245.78,297.64Z" style="fill:#b16668"></path><path d="M237.5,288.55c2,2.52,2.71,6.73,2.15,9.78C241.14,295.75,241.32,290.28,237.5,288.55Z" style="fill:#9a4a4d"></path></g></g></g></g></g><g id="character-1"><g id="videocall-window"><g id="window"><g id="shadow" style="opacity:0.2"><path d="M144,149.94,245.57,91.29c.72-.41,1.3-.07,1.3.75v90a2.89,2.89,0,0,1-1.3,2.25L144,243c-.72.42-1.3.08-1.3-.75v-90A2.87,2.87,0,0,1,144,149.94Z"></path></g><g id="speech-bubble"><path d="M152.4,157a3.84,3.84,0,0,1,.18-.35h0A3.9,3.9,0,0,0,152.4,157Z" style="fill:#ebebeb"></path><path d="M254.93,98.25a.76.76,0,0,0-.74-.6,1.28,1.28,0,0,0-.65.2l-99.93,57.7a3,3,0,0,0-1,1.09l-5.33-3.08a3,3,0,0,1,1-1l99.92-57.69a3.25,3.25,0,0,1,2.93,0l2.44,1.36A3.19,3.19,0,0,1,254.93,98.25Z" style="fill:#37474f;opacity:0.5"></path><g style="opacity:0.9"><path d="M153.62,248.49a3.35,3.35,0,0,1-2.93,0l-2.44-1.44a3.17,3.17,0,0,1-1.47-2.51v-89.5a2.93,2.93,0,0,1,.47-1.49l5.34,3.08a2.89,2.89,0,0,0-.43,1.43v89.58C152.16,248.5,152.76,249,153.62,248.49Z" style="fill:#263238"></path></g><g style="opacity:0.85"><path d="M254.19,97.89a1.25,1.25,0,0,0-.65.2l-99.92,57.7a3.19,3.19,0,0,0-1.46,2.52v89.57c0,.66.33,1,.8,1a1.31,1.31,0,0,0,.66-.2L253.54,191A3.21,3.21,0,0,0,255,188.5V98.93c0-.66-.32-1-.8-1Z" style="fill:#37474f"></path></g><polygon points="152.23 243.68 254.99 184.33 254.99 103.04 152.23 162.38 152.23 243.68" style="fill:#fafafa"></polygon><path d="M254.19,98.3c.15,0,.15.33.15.39v89.57a2.61,2.61,0,0,1-1.13,2l-99.92,57.69a.63.63,0,0,1-.33.12c-.14,0-.15-.33-.15-.39V158.07a2.6,2.6,0,0,1,1.13-2l99.92-57.7a.71.71,0,0,1,.33-.11m0-.65a1.25,1.25,0,0,0-.65.2l-99.92,57.7a3.19,3.19,0,0,0-1.46,2.52v89.58c0,.65.33,1,.8,1a1.42,1.42,0,0,0,.66-.2l99.92-57.7a3.24,3.24,0,0,0,1.45-2.53V98.69c0-.66-.32-1-.8-1Z" style="fill:#455a64"></path></g><path d="M248.89,104.63a1.71,1.71,0,0,0,.77-1.34c0-.5-.34-.7-.77-.45a1.72,1.72,0,0,0-.78,1.34C248.11,104.68,248.46,104.88,248.89,104.63Z" style="fill:#fafafa"></path><path d="M251.43,103.17a1.72,1.72,0,0,0,.78-1.34c0-.5-.35-.7-.78-.45a1.71,1.71,0,0,0-.77,1.34C250.66,103.22,251,103.42,251.43,103.17Z" style="fill:#fafafa"></path><path d="M246.35,106.09a1.72,1.72,0,0,0,.77-1.34c0-.49-.35-.69-.77-.45a1.72,1.72,0,0,0-.78,1.35C245.57,106.14,245.92,106.34,246.35,106.09Z" style="fill:#fafafa"></path><path d="M158.35,162c1.42-.81,2.57-.15,2.57,1.49a5.67,5.67,0,0,1-2.57,4.44c-1.41.81-2.56.15-2.56-1.48A5.69,5.69,0,0,1,158.35,162Z" style="fill:#455a64"></path><path d="M158.33,165.23a1.84,1.84,0,0,0,.84-1.44c0-.53-.38-.74-.84-.48a1.87,1.87,0,0,0-.83,1.44C157.5,165.28,157.88,165.5,158.33,165.23Zm.28.12-.47.27a3,3,0,0,0-1.37,2.37v.24a1.5,1.5,0,0,0,.44.07,2.4,2.4,0,0,0,1.14-.35,5,5,0,0,0,1.62-1.61v-.2C160,165.27,159.36,164.92,158.61,165.35Z" style="fill:#BA68C8"></path><path d="M158.33,165.23a1.84,1.84,0,0,0,.84-1.44c0-.53-.38-.74-.84-.48a1.87,1.87,0,0,0-.83,1.44C157.5,165.28,157.88,165.5,158.33,165.23Zm.28.12-.47.27a3,3,0,0,0-1.37,2.37v.24a1.5,1.5,0,0,0,.44.07,2.4,2.4,0,0,0,1.14-.35,5,5,0,0,0,1.62-1.61v-.2C160,165.27,159.36,164.92,158.61,165.35Z" style="fill:#fff;opacity:0.45"></path><path d="M163.57,163.93l7.54-4.35a1.92,1.92,0,0,0,.87-1.5v-.28c0-.55-.39-.78-.87-.5l-7.54,4.35a1.94,1.94,0,0,0-.86,1.5v.28C162.71,164,163.1,164.21,163.57,163.93Z" style="fill:#455a64"></path></g><g id="character"><g id="picture"><path d="M225.47,141.66l-.08,0a.19.19,0,0,1-.09-.15V125.94a.19.19,0,0,1,.09-.15l16.16-9.33a.17.17,0,0,1,.17,0,.16.16,0,0,1,.08.14v15.56a.16.16,0,0,1-.08.14l-16.17,9.34Zm.17-15.63v15.18l15.83-9.15V116.89Z" style="fill:#e6e6e6"></path><path d="M226.8,139.36l-.09,0a.16.16,0,0,1-.08-.14V126.7a.16.16,0,0,1,.08-.14l13.52-7.8a.15.15,0,0,1,.16,0,.17.17,0,0,1,.09.14v12.49a.19.19,0,0,1-.09.15l-13.51,7.8ZM227,126.8v12.11l13.18-7.61V119.19Z" style="fill:#e6e6e6"></path><path d="M228.16,137a.13.13,0,0,1-.08,0,.16.16,0,0,1-.08-.14v-3.11a.29.29,0,0,1,0-.09l3.58-6.21a.13.13,0,0,1,.11-.08.16.16,0,0,1,.13,0l3.21,2.45-.41-.69a.17.17,0,0,1,0-.19l1.86-2.11a.17.17,0,0,1,.21,0l2.3,1.39a.16.16,0,0,1,.08.14v2.32a.15.15,0,0,1-.09.14L228.25,137A.15.15,0,0,1,228.16,137Zm.17-3.23v2.78l10.45-6v-2.12l-2.1-1.28L235,129.07l.79,1.32a.17.17,0,0,1,0,.21.17.17,0,0,1-.21,0l-3.75-2.86Z" style="fill:#e6e6e6"></path><path d="M235.76,125.78a.68.68,0,0,1-.35-.09.88.88,0,0,1-.39-.82,2.53,2.53,0,0,1,1.16-2,.92.92,0,0,1,.91-.08.91.91,0,0,1,.39.83,2.54,2.54,0,0,1-1.16,2A1.17,1.17,0,0,1,235.76,125.78Zm1-2.82a.82.82,0,0,0-.42.13,2.28,2.28,0,0,0-1,1.78.66.66,0,0,0,.25.59.64.64,0,0,0,.64-.08,2.25,2.25,0,0,0,1-1.77A.62.62,0,0,0,237,123,.37.37,0,0,0,236.74,123Z" style="fill:#e6e6e6"></path></g><g id="picture"><path d="M225.47,162l-.08,0a.19.19,0,0,1-.09-.15V146.32a.19.19,0,0,1,.09-.15l16.16-9.33a.17.17,0,0,1,.17,0,.16.16,0,0,1,.08.14v15.56a.16.16,0,0,1-.08.14L225.55,162Zm.17-15.63v15.18l15.83-9.15V137.27Z" style="fill:#e6e6e6"></path><path d="M226.8,159.74l-.09,0a.18.18,0,0,1-.08-.15V147.08a.16.16,0,0,1,.08-.14l13.52-7.8a.15.15,0,0,1,.16,0,.17.17,0,0,1,.09.14v12.49a.19.19,0,0,1-.09.15l-13.51,7.8Zm.16-12.56v12.11l13.18-7.61V139.57Z" style="fill:#e6e6e6"></path><path d="M228.16,157.37l-.08,0a.17.17,0,0,1-.08-.14v-3.12a.31.31,0,0,1,0-.08l3.58-6.22a.15.15,0,0,1,.11-.08.21.21,0,0,1,.13,0l3.21,2.46-.41-.69a.17.17,0,0,1,0-.19l1.86-2.11a.16.16,0,0,1,.21,0l2.3,1.39a.16.16,0,0,1,.08.14V151a.15.15,0,0,1-.09.14l-10.77,6.18Zm.17-3.23v2.78l10.45-6V148.8l-2.1-1.27L235,149.45l.79,1.31a.17.17,0,0,1,0,.21.15.15,0,0,1-.21,0l-3.75-2.86Z" style="fill:#e6e6e6"></path><path d="M235.76,146.16a.68.68,0,0,1-.35-.09.89.89,0,0,1-.39-.82,2.53,2.53,0,0,1,1.16-2,.8.8,0,0,1,1.3.74,2.51,2.51,0,0,1-1.16,2A1.09,1.09,0,0,1,235.76,146.16Zm1-2.82a.82.82,0,0,0-.42.13,2.26,2.26,0,0,0-1,1.78.53.53,0,0,0,.89.51,2.26,2.26,0,0,0,1-1.78.64.64,0,0,0-.26-.59A.46.46,0,0,0,236.74,143.34Z" style="fill:#e6e6e6"></path></g><g id="plants"><path d="M164.44,208.9c-2.89-.8-3.92-1.71-5.17-4.54a32.26,32.26,0,0,0-3.14-5.38S165.3,201,164.44,208.9Z" style="fill:#e6e6e6"></path><path d="M163.94,219.11a4.6,4.6,0,0,1-3.72-3,20.9,20.9,0,0,0-2.26-3.55S164.56,213.92,163.94,219.11Z" style="fill:#e6e6e6"></path><path d="M162.69,219.53a4.56,4.56,0,0,1-4.6,1.26,21.07,21.07,0,0,0-4.2-.24S158.85,216,162.69,219.53Z" style="fill:#e6e6e6"></path><path d="M171.5,215.48a4.62,4.62,0,0,0,.46-4.75,20.79,20.79,0,0,1-1-4.1S167.36,212.29,171.5,215.48Z" style="fill:#e6e6e6"></path><path d="M172,227.56a4.6,4.6,0,0,0,3.82-2.87,21.06,21.06,0,0,1,2.38-3.47S171.52,222.35,172,227.56Z" style="fill:#e6e6e6"></path><path d="M172.67,214.89a4.59,4.59,0,0,0,4.12-2.41,21,21,0,0,1,2.77-3.17S172.84,209.67,172.67,214.89Z" style="fill:#e6e6e6"></path><path d="M165.61,204.87a4.6,4.6,0,0,0,2-4.33,20.78,20.78,0,0,1,.46-4.18S162.75,200.49,165.61,204.87Z" style="fill:#e6e6e6"></path><path d="M163,229.5a4.6,4.6,0,0,0-4.45-1.74,21.52,21.52,0,0,1-4.2-.2S158.81,232.61,163,229.5Z" style="fill:#e6e6e6"></path><path d="M168.74,232.74c-1.94,1.67-3.07,2-5.68,1.53a27.63,27.63,0,0,0-5.33-.31S163.54,228.4,168.74,232.74Z" style="fill:#e6e6e6"></path><path d="M167.36,229.58a4.6,4.6,0,0,0-2.5-4.07,20.83,20.83,0,0,1-3.23-2.69S162.13,229.53,167.36,229.58Z" style="fill:#e6e6e6"></path><path d="M170.83,228.45a49.22,49.22,0,0,0-1.12-6.82,62.66,62.66,0,0,0-1.92-6.44,18.56,18.56,0,0,0-3-5.89c-.15-.18-.3.2-.23.33a36.66,36.66,0,0,1,4.28,12c.42,2.05.73,5.45.91,7.53.11,1.29.06,2.86.05,4.37l1.26-.73A31.91,31.91,0,0,0,170.83,228.45Z" style="fill:#f0f0f0"></path></g><g id="top"><g id="Arm"><path d="M227.88,200l-11.95,6.9-5.81-17c5.07-.15,7.78,0,11.32,3.47C222.78,194.7,226.24,198.4,227.88,200Z" style="fill:#f0997a"></path></g><g id="chest"><path d="M222.23,203.26l-38.38,22.17c-.55-2.65-1.12-4.9-1.12-4.9s4.32-1.29,5.05-9c.95-9.93-3.33-14.64-3.33-14.64a56.14,56.14,0,0,1,7.1-3.36c4-1.55,6.26-2.35,13.81-3.47l4.76-.15a72.18,72.18,0,0,1,9.13,8.24C220,199,222,201.65,222.23,203.26Z" style="fill:#f0f0f0"></path></g><g id="head"><path id="Hair" d="M216.44,187c1.05-7.89-8.14-7.16-10.83-12.21l7-5.43c4.31-2.94,3.44-9.36,2-12.64-3.21-7.33-11-9.65-15.63-9.63-8.84,0-12.89,2.77-13.31,7.74-3.27-.08-7.84,3.76-7.36,14.4.1,2.13.34,4.72-.63,6.56-.85,1.62-2.14,3.19-2.68,5-.9,3,.22,7.4,3.76,7.86-.3-.8-.77-1.85-.17-2.62.42,3.76,6.56,5.88,9.3,4.85a3.18,3.18,0,0,1-1.63-1.82c4.64,2.38,8.46,1.26,12.95-.68.8-.35,1.35-.51,4,.18,1.62.42,3.56.6,6.52-1.19C211.6,186.31,214.52,184.63,216.44,187Z" style="fill:#37474f"></path><path d="M189.05,179.41a4.48,4.48,0,0,1-4.15-1.58c-2.3-2.49-2.66-5.07-1.77-6.81.73-1.43,2.69-2.37,4.17-1.45s1.67,1.83,2.31,3,2.85,1,3.09-3.68c.22-4.35.59-8.35,2.44-10.35a4.86,4.86,0,0,1,7.53-.07,3.68,3.68,0,0,1,5.23-1.76c2,1.1,3.34,3.48,4.54,11.71,1.23,8.39,0,14.38-1.72,15.83-1.29,1.1-3,1.37-5.91,1.57l.23,5.55a15.56,15.56,0,0,1,5.08,10.86c-5.09-1.11-14.4-4.36-18.73-8.27l-.75-15.87S190.54,179.08,189.05,179.41Z" style="fill:#ffbda7"></path><path d="M200.57,169.38a1.24,1.24,0,0,1-1.56,1,1.51,1.51,0,0,1-.95-1.77,1.25,1.25,0,0,1,1.56-1A1.52,1.52,0,0,1,200.57,169.38Z" style="fill:#263238"></path><path d="M199.16,167.57c-.81,0-1.21,1.22-2,.77a1.17,1.17,0,0,0,1.61.66C199.1,168.79,199.16,167.57,199.16,167.57Z" style="fill:#263238"></path><path d="M210.35,165.23l-2.84-1.45a1.39,1.39,0,0,1,2-.81A1.89,1.89,0,0,1,210.35,165.23Z" style="fill:#263238"></path><path d="M207.36,168.79a1.33,1.33,0,0,0,1.72.84,1.4,1.4,0,0,0,.64-1.84A1.33,1.33,0,0,0,208,167,1.41,1.41,0,0,0,207.36,168.79Z" style="fill:#263238"></path><path d="M208.45,166.86c.81,0,1.41,1.09,2.13.56a1.1,1.1,0,0,1-1.48.81C208.71,168.06,208.45,166.86,208.45,166.86Z" style="fill:#263238"></path><path d="M199.2,164.43l-2.67,1.94a1.76,1.76,0,0,1,.32-2.43A1.67,1.67,0,0,1,199.2,164.43Z" style="fill:#263238"></path><path d="M200,176.36l4.37,1.21a2.12,2.12,0,0,1-2.85,1.65A2.4,2.4,0,0,1,200,176.36Z" style="fill:#b16668"></path><path d="M202.78,179.28a2.51,2.51,0,0,0-2.56-2.09.78.78,0,0,0-.21,0,2.21,2.21,0,0,0,1.54,2A2.36,2.36,0,0,0,202.78,179.28Z" style="fill:#f0997a"></path><polygon points="202.98 166.34 204.37 174.57 208.41 172.76 202.98 166.34" style="fill:#f0997a"></polygon><path d="M204.81,185.79a26.13,26.13,0,0,1-8.42-1.48c-1-.39-2.46-2.21-3.7-4.25,0,0,1.11,4.09,3.31,5.41,3.34,2,8.89,2.21,8.89,2.21Z" style="fill:#f0997a"></path><path d="M191.78,179.7a3.75,3.75,0,0,1-1.74,3.74,3.12,3.12,0,0,1-1.32.43,3.85,3.85,0,0,1-4-3.49,4,4,0,0,1,.39-2.35,2.34,2.34,0,0,0,.33.31,3.52,3.52,0,0,0,.66.45,2.64,2.64,0,0,0-.24,1.48,2.59,2.59,0,0,0,2.72,2.34,2.2,2.2,0,0,0,1.34-.64,2.56,2.56,0,0,0,.71-2.16,2.6,2.6,0,0,0-2.7-2.35.61.61,0,0,1-.66-.57.59.59,0,0,1,.49-.68A3.87,3.87,0,0,1,191.78,179.7Z" style="fill:#BA68C8"></path><path d="M191.78,179.7a3.75,3.75,0,0,1-1.74,3.74,3.12,3.12,0,0,1-1.32.43,3.85,3.85,0,0,1-4-3.49,4,4,0,0,1,.39-2.35,2.34,2.34,0,0,0,.33.31,3.52,3.52,0,0,0,.66.45,2.64,2.64,0,0,0-.24,1.48,2.59,2.59,0,0,0,2.72,2.34,2.2,2.2,0,0,0,1.34-.64,2.56,2.56,0,0,0,.71-2.16,2.6,2.6,0,0,0-2.7-2.35.61.61,0,0,1-.66-.57.59.59,0,0,1,.49-.68A3.87,3.87,0,0,1,191.78,179.7Z" style="opacity:0.2"></path></g><g id="arm"><path d="M190.25,221.73l-13.87,8c0-2.74,0-7.92-.2-12.37-.56-14.45,1.62-16.34,8.27-20.46,6.9,6.39,6,18.46,6,18.46C190.46,216.65,190.36,219.29,190.25,221.73Z" style="fill:#ffbda7"></path></g><g id="hand"><path d="M246.19,169.52a54.09,54.09,0,0,0-1.55,6c-.26,1.57-.27,3.63-.38,4.74a11.11,11.11,0,0,1-1.92,5.94c-1,1.48-.63,3.65-.51,5.73l-9.18,5.3c.08-2.15.25-4,.27-5.67,0-3.21.29-5.26-1.57-8.18-.54-.83-1.55-2.2-2.24-3.45-1.34-2.39-2.11-4.19-3.1-5.59-.7-1,.08-2.08,2.05-1.27,1.19.49,2.09,1.89,3.09,3.11s1.45.63,1.57-.79.61-8.37.9-10.57c.17-1.22.27-2.13.75-2.36s1.93-.08,1.86,2.82c-.07,3.13-.64,7.73-.42,7.73s.51-3,1.05-6.13a30.37,30.37,0,0,1,1-5c.32-.75,1.81-1.39,2.11,1,.14,1.13,0,1.93-.54,6.17a26.68,26.68,0,0,0-.33,3.91c.25.14.69-2.15,1.68-4.85a22.93,22.93,0,0,1,1.92-4.55c.29-.41,1.3.11,1.43,1.27a10.57,10.57,0,0,1-.63,3.05c-.52,1.84-.55,2.15-.9,3.56a6.37,6.37,0,0,0-.4,2.3c.16.07,1-3.32,2.61-5.71C245.66,166.75,246.53,168.25,246.19,169.52Z" style="fill:#ffbda7"></path><path d="M233.55,178c2,.76,4.74,4.08,5.24,6.84C239.41,181.42,236.68,178,233.55,178Z" style="fill:#f0997a"></path></g></g></g></g></g></svg>