<svg xmlns="http://www.w3.org/2000/svg" viewBox="0 0 500 500"><g id="Floor"><path id="floor" d="M96.91,454.55c-85.66-49.45-85.66-129.64,0-179.09s224.53-49.45,310.19,0,85.66,129.64,0,179.09S182.56,504,96.91,454.55Z" style="fill:#fafafa"></path></g><g id="Shadows"><ellipse id="Shadow" cx="254.46" cy="405.92" rx="96.43" ry="55.68" style="fill:#e6e6e6"></ellipse><path id="shadow" d="M202.49,447.76a14.57,14.57,0,0,1-2.31,5.37,25.42,25.42,0,0,1-8.66,7.69c-15,8.65-39.29,8.65-54.28,0a25.42,25.42,0,0,1-8.66-7.69,14.72,14.72,0,0,1-2.3-5.37h0c-1.33-6.5,2.33-13.28,11-18.27,15-8.66,39.29-8.66,54.28,0C200.16,434.48,203.82,441.26,202.49,447.76Z" style="fill:#e6e6e6"></path></g><g id="Envelope"><g id="Notification"><g id="Mails"><g id="Letter"><path d="M20.23,310.44l39.85-23a.85.85,0,0,1,1,0c.23.2,3.38,1.88,3.63,2.05a1.28,1.28,0,0,1,.42,1.08v35.86a3.29,3.29,0,0,1-1.38,2.63l-7,4L19.29,311.48A2.74,2.74,0,0,1,20.23,310.44Z" style="fill:#BA68C8"></path><path d="M20.23,310.44l39.85-23a.85.85,0,0,1,1,0c.23.2,3.38,1.88,3.63,2.05a1.28,1.28,0,0,1,.42,1.08v35.86a3.29,3.29,0,0,1-1.38,2.63l-7,4L19.29,311.48A2.74,2.74,0,0,1,20.23,310.44Z" style="fill:#fff;opacity:0.7000000000000001"></path><path d="M23,352.11c-.27-.17-3.43-1.93-3.68-2.09a1.26,1.26,0,0,1-.44-1.09V313.07a3.4,3.4,0,0,1,.44-1.59l37.47,21.61-32.85,19A.87.87,0,0,1,23,352.11Z" style="fill:#BA68C8"></path><path d="M23,352.11c-.27-.17-3.43-1.93-3.68-2.09a1.26,1.26,0,0,1-.44-1.09V313.07a3.4,3.4,0,0,1,.44-1.59l37.47,21.61-32.85,19A.87.87,0,0,1,23,352.11Z" style="fill:#fff;opacity:0.4"></path><path d="M23.91,352.06l39.85-23a3.29,3.29,0,0,0,1.38-2.63V290.56c0-1-.62-1.48-1.38-1l-39.85,23a3.29,3.29,0,0,0-1.38,2.63V351C22.53,352,23.15,352.5,23.91,352.06Z" style="fill:#BA68C8"></path><path d="M23.91,352.06l39.85-23a3.29,3.29,0,0,0,1.38-2.63V290.56c0-1-.62-1.48-1.38-1l-39.85,23a3.29,3.29,0,0,0-1.38,2.63V351C22.53,352,23.15,352.5,23.91,352.06Z" style="fill:#fff;opacity:0.55"></path><path d="M22.53,351v-.7L39,323l-16.27-9,.12-.3,20.27,8.45c.43.18,1-.14,1.41-.82l20.24-31.8a.81.81,0,0,1,.12.14L48.66,317.44l16.48,8.28v.7a3.61,3.61,0,0,1-.42,1.62l-16.9-9.17L45.43,323c-1,1.62-2.24,2.37-3.19,1.84l-2.39-1.33L23,352.11A1.3,1.3,0,0,1,22.53,351Z" style="fill:#BA68C8;opacity:0.4"></path></g></g><g id="notification"><path d="M72.77,282.62l-3.27-1.9h0l0,0h0c-1.43-.81-3.39-.69-5.55.56A17.46,17.46,0,0,0,56,295c0,2.52.88,4.29,2.31,5.11h0l3,1.71.7-1.17a8.2,8.2,0,0,0,2.27-.88,17.48,17.48,0,0,0,7.9-13.69,8.33,8.33,0,0,0-.25-2Z" style="fill:#37474f"></path><path d="M56.3,292.31A12.9,12.9,0,0,0,56,295c0,2.52.88,4.29,2.31,5.11h0l3,1.71.7-1.17a8.2,8.2,0,0,0,2.27-.88,13.09,13.09,0,0,0,2.15-1.59Z" style="fill:#263238"></path><path d="M67,283.07a17.45,17.45,0,0,0-7.91,13.69c0,5,3.54,7.08,7.91,4.56a17.48,17.48,0,0,0,7.9-13.69C74.92,282.59,71.38,280.55,67,283.07Z" style="fill:#455a64"></path><path d="M70.14,290.08v-1.93c0-2.21-1.34-3.23-3-2.27h0a7.18,7.18,0,0,0-3,5.73v1.73a6.85,6.85,0,0,1-1,3.38h0a1.88,1.88,0,0,0-.24.88h0c0,.56.34.82.76.58l7-4.05a1.81,1.81,0,0,0,.76-1.44h0a.74.74,0,0,0-.22-.59h0A2,2,0,0,1,70.14,290.08Z" style="fill:#fff"></path><path d="M68.58,295.93a3.46,3.46,0,0,1-1.44,2.75c-.8.46-1.44,0-1.44-1.09Z" style="fill:#fff"></path></g></g></g><g id="Icons"><g id="World"><path d="M95,101.93a41.32,41.32,0,1,1,41.31-41.32A41.37,41.37,0,0,1,95,101.93Zm0-81a39.73,39.73,0,1,0,39.72,39.72A39.77,39.77,0,0,0,95,20.89Z" style="fill:#e0e0e0"></path><path d="M95,40.85A41.34,41.34,0,0,1,67.88,30.68l1-1.2A39.74,39.74,0,0,0,95,39.26a39.73,39.73,0,0,0,26.1-9.78l1,1.2A41.31,41.31,0,0,1,95,40.85Z" style="fill:#e0e0e0"></path><path d="M68.92,91.75l-1-1.2a41.31,41.31,0,0,1,54.29,0l-1,1.2a39.73,39.73,0,0,0-52.21,0Z" style="fill:#e0e0e0"></path><path d="M94.65,102a45.42,45.42,0,0,1,0-82.69l.73,1.59a43.67,43.67,0,0,0,0,79.51Z" style="fill:#e0e0e0"></path><path d="M95.4,102l-.72-1.59a43.68,43.68,0,0,0,0-79.51l.72-1.59a45.42,45.42,0,0,1,0,82.69Z" style="fill:#e0e0e0"></path><rect x="94.15" y="20.09" width="1.75" height="81.04" style="fill:#e0e0e0"></rect><rect x="54.51" y="59.74" width="81.04" height="1.75" style="fill:#e0e0e0"></rect></g><g id="247"><circle cx="143.02" cy="84.88" r="33.66" transform="translate(-21.59 61.19) rotate(-22.5)" style="fill:#BA68C8"></circle><path d="M142,88a2.64,2.64,0,0,0,0-1.25,2.6,2.6,0,0,0-.56-1.08,3.19,3.19,0,0,0-1.07-.78,3.83,3.83,0,0,0-1.53-.29,5.32,5.32,0,0,0-1.85.29,4.09,4.09,0,0,0-1.29.77,3.66,3.66,0,0,0-.82,1,5.18,5.18,0,0,0-.44,1.16.24.24,0,0,0,.05.22.25.25,0,0,0,.2.09h1.71a1,1,0,0,0,.35-.06.56.56,0,0,0,.27-.26l.14-.26a2,2,0,0,1,.27-.34,1.88,1.88,0,0,1,.44-.3,1.57,1.57,0,0,1,.65-.13,1.11,1.11,0,0,1,.6.13.69.69,0,0,1,.29.3.71.71,0,0,1,.08.34,1.65,1.65,0,0,1,0,.27c0,.1,0,.19-.07.29a1.23,1.23,0,0,1-.14.31,3.3,3.3,0,0,1-.27.33,3.73,3.73,0,0,1-.45.35l-4.71,2.93a1.16,1.16,0,0,0-.39.37,1.41,1.41,0,0,0-.18.45L133,94.11a.3.3,0,0,0,.06.26.29.29,0,0,0,.24.12h7.19a.44.44,0,0,0,.29-.12.48.48,0,0,0,.16-.26l.32-1.47a.33.33,0,0,0-.06-.26.27.27,0,0,0-.24-.12h-3.2L140,91a5.53,5.53,0,0,0,.91-.7,4.15,4.15,0,0,0,.59-.72,3.21,3.21,0,0,0,.36-.75A7.1,7.1,0,0,0,142,88Zm-9.7,13.75a.51.51,0,0,0,.29.08.56.56,0,0,0,.5-.29l1.11-1.91a.58.58,0,0,0-.21-.79.57.57,0,0,0-.79.21L132.12,101A.58.58,0,0,0,132.33,101.78Zm8.23-2.16v3.89a.58.58,0,1,0,1.16,0V99.62a.58.58,0,0,0-1.16,0Zm6.27,8.48a23,23,0,0,1-14.42-1.71,22.74,22.74,0,0,1-10.29-9.88,22.07,22.07,0,0,1-2.18-13.84,21.63,21.63,0,0,1,6.45-12.14,21.25,21.25,0,0,1,12.26-5.65,20.51,20.51,0,0,1,18.91,8.24l-4.61,0a.63.63,0,0,0-.25,1.21l10.48,4.74a1.83,1.83,0,0,0,2.56-1.43l1.46-11.48a.63.63,0,0,0-1.17-.41l-2.86,4.74a26.54,26.54,0,0,0-8.85-7.68A26,26,0,0,0,138,60.16a25.66,25.66,0,0,0-14.42,7.56,25.26,25.26,0,0,0-6.8,14.52,24.54,24.54,0,0,0,15,25.6,24.18,24.18,0,0,0,15.24,1,23.58,23.58,0,0,0,12.56-8.24A23.2,23.2,0,0,1,146.83,108.1Zm5-12.45h2a.68.68,0,0,0,.44-.14.92.92,0,0,0,.25-.28L161.52,84a.37.37,0,0,0,0-.29.22.22,0,0,0-.23-.14h-2a.68.68,0,0,0-.44.13,1,1,0,0,0-.27.28l-7,11.23a.35.35,0,0,0,0,.28A.21.21,0,0,0,151.8,95.65Zm-4.69-1.28a.31.31,0,0,0,.24.12h1.83a.41.41,0,0,0,.28-.12.43.43,0,0,0,.16-.26l.3-1.42H151a.38.38,0,0,0,.28-.11.44.44,0,0,0,.17-.26l.32-1.48a.32.32,0,0,0-.06-.25.29.29,0,0,0-.24-.12h-1.06l1.15-5.33a.35.35,0,0,0-.07-.26.3.3,0,0,0-.24-.11h-2.37a.76.76,0,0,0-.29,0,.87.87,0,0,0-.28.2L143,90.25a1.19,1.19,0,0,0-.3.59l-.31,1.48a.26.26,0,0,0,0,.26.29.29,0,0,0,.24.11h4.65l-.3,1.42A.3.3,0,0,0,147.11,94.37Zm-1.23-3.9,2.56-2.55-.54,2.55ZM128.75,78.84l-2.19-1.26a.58.58,0,1,0-.58,1l2.19,1.26a.51.51,0,0,0,.29.08.58.58,0,0,0,.29-1.08Zm40.61,6a.31.31,0,0,0-.25-.11h-6.63a.43.43,0,0,0-.28.11.45.45,0,0,0-.16.27l-.32,1.47a.33.33,0,0,0,.05.26A.28.28,0,0,0,162,87h4L161.5,94a.37.37,0,0,0,0,.28.23.23,0,0,0,.26.17h2.08a.41.41,0,0,0,.28-.11,1.06,1.06,0,0,0,.19-.23l4.5-7c.1-.15.18-.29.25-.41a1.28,1.28,0,0,0,.12-.29l.28-1.29A.32.32,0,0,0,169.36,84.88ZM128.51,86.6a.58.58,0,0,0-.58-.58H124a.58.58,0,0,0,0,1.16h3.89A.58.58,0,0,0,128.51,86.6Zm13-13.21V69.5a.58.58,0,0,0-1.16,0v3.89a.58.58,0,0,0,1.16,0ZM126.36,95.67a.6.6,0,0,0,.29-.08l2.1-1.21a.58.58,0,1,0-.58-1l-2.09,1.21a.58.58,0,0,0-.22.79A.59.59,0,0,0,126.36,95.67Zm7.37-21.08a.6.6,0,0,0,.29-.08.58.58,0,0,0,.21-.79L133,71.53a.59.59,0,0,0-.79-.21.57.57,0,0,0-.21.79l1.26,2.19A.58.58,0,0,0,133.73,74.59Z" style="fill:#fff"></path></g><g id="Video"><path d="M66.26,111.9,22.52,137.16a2.26,2.26,0,0,0-1,1.77v41.68a2.26,2.26,0,0,0,1,1.77l1.68,1a2.29,2.29,0,0,0,2,0L70,158.09a2.26,2.26,0,0,0,1-1.77V114.64a2.25,2.25,0,0,0-1-1.77l-1.68-1A2.29,2.29,0,0,0,66.26,111.9Z" style="fill:#BA68C8"></path><path d="M66.26,111.9,22.52,137.16a2.26,2.26,0,0,0-1,1.77v41.68a2.26,2.26,0,0,0,1,1.77l1.68,1a2.29,2.29,0,0,0,2,0L70,158.09a2.26,2.26,0,0,0,1-1.77V114.64a2.25,2.25,0,0,0-1-1.77l-1.68-1A2.29,2.29,0,0,0,66.26,111.9Z" style="opacity:0.30000000000000004"></path><path d="M71,114.34c-.12-.42-.51-.56-1-.28L26.25,139.32a2,2,0,0,0-.73.76l-3.72-2.15a2,2,0,0,1,.72-.77L66.26,111.9a2.31,2.31,0,0,1,2,0l1.67,1A2.23,2.23,0,0,1,71,114.34Z" style="fill:#BA68C8"></path><path d="M71,114.34c-.12-.42-.51-.56-1-.28L26.25,139.32a2,2,0,0,0-.73.76l-3.72-2.15a2,2,0,0,1,.72-.77L66.26,111.9a2.31,2.31,0,0,1,2,0l1.67,1A2.23,2.23,0,0,1,71,114.34Z" style="fill:#fff;opacity:0.24"></path><path d="M70,114.05,26.24,139.31a2.28,2.28,0,0,0-1,1.78v41.67c0,.65.46.91,1,.59L70,158.09a2.26,2.26,0,0,0,1-1.77V114.64C71,114,70.55,113.73,70,114.05Z" style="fill:#BA68C8"></path><path d="M44.33,164.38a6.26,6.26,0,0,1-3.15-.83c-2.62-1.52-4.13-5-4.13-9.44a26.06,26.06,0,0,1,3.52-12.61,22.81,22.81,0,0,1,2.5-3.53h0a16.7,16.7,0,0,1,4.19-3.56c2.82-1.63,5.58-1.82,7.78-.56,2.63,1.52,4.14,5,4.14,9.45a26.13,26.13,0,0,1-3.52,12.6A19.33,19.33,0,0,1,49,163,9.33,9.33,0,0,1,44.33,164.38ZM44.22,139a21.64,21.64,0,0,0-2.33,3.3,24.41,24.41,0,0,0-3.31,11.84c0,3.92,1.22,6.88,3.37,8.12,1.7,1,3.92.78,6.25-.56a17.92,17.92,0,0,0,6.14-6.53,24.58,24.58,0,0,0,3.31-11.84c0-3.93-1.23-6.89-3.37-8.12-1.71-1-3.93-.79-6.25.55A15.26,15.26,0,0,0,44.22,139Z" style="fill:#fff"></path><path d="M54,146.33,45.38,157c-.78,1-1.4.8-1.4-.35v-11c0-1.15.62-2,1.4-2l8.59.77C54.74,144.53,54.74,145.37,54,146.33Z" style="fill:#fff"></path></g></g><g id="Picture"><g id="Image"><path d="M476.71,360.06,433,385.32a2.26,2.26,0,0,0-1,1.77v41.67a2.26,2.26,0,0,0,1,1.77l1.68,1a2.25,2.25,0,0,0,2.05,0l43.74-25.26a2.26,2.26,0,0,0,1-1.77V362.8a2.26,2.26,0,0,0-1-1.77l-1.68-1A2.25,2.25,0,0,0,476.71,360.06Z" style="fill:#BA68C8"></path><path d="M476.71,360.06,433,385.32a2.26,2.26,0,0,0-1,1.77v41.67a2.26,2.26,0,0,0,1,1.77l1.68,1a2.25,2.25,0,0,0,2.05,0l43.74-25.26a2.26,2.26,0,0,0,1-1.77V362.8a2.26,2.26,0,0,0-1-1.77l-1.68-1A2.25,2.25,0,0,0,476.71,360.06Z" style="opacity:0.30000000000000004"></path><path d="M481.42,362.5c-.13-.43-.52-.56-1-.29L436.7,387.47a2,2,0,0,0-.72.76l-3.73-2.15a2,2,0,0,1,.72-.76l43.74-25.26a2.31,2.31,0,0,1,2.05,0l1.68,1A2.25,2.25,0,0,1,481.42,362.5Z" style="fill:#BA68C8"></path><path d="M481.42,362.5c-.13-.43-.52-.56-1-.29L436.7,387.47a2,2,0,0,0-.72.76l-3.73-2.15a2,2,0,0,1,.72-.76l43.74-25.26a2.31,2.31,0,0,1,2.05,0l1.68,1A2.25,2.25,0,0,1,481.42,362.5Z" style="fill:#fff;opacity:0.24"></path><path d="M480.44,362.21,436.7,387.47a2.26,2.26,0,0,0-1,1.77v41.67c0,.66.46.92,1,.59l43.74-25.26a2.26,2.26,0,0,0,1-1.77V362.8C481.46,362.15,481,361.88,480.44,362.21Z" style="fill:#BA68C8"></path><path d="M468.4,388.64l-6.6,11.69,4.64,6-15.32-13.21-13.21,28.6v5.18c0,.64.45.9,1,.58l39.51-22.81a2.23,2.23,0,0,0,1-1.74v-4.22Zm3.18-9a4.37,4.37,0,0,0,2-3.43c0-1.26-.89-1.77-2-1.14a4.36,4.36,0,0,0-2,3.43C469.6,379.8,470.48,380.31,471.58,379.68Z" style="fill:#fff"></path></g></g><g id="Alert"><g id="alert"><g id="Bubble"><path d="M390.54,98.2c-3.91-2.22-9.3-1.88-15.25,1.55-12,6.91-21.67,23.72-21.67,37.54,0,6.9,2.42,11.75,6.34,14,1.63.94,5.77,3.31,7.4,4.26,3.92,2.25,9.33,1.92,15.31-1.53,12-6.91,21.67-23.71,21.67-37.53,0-6.89-2.41-11.74-6.31-14C396.39,101.55,392.2,99.14,390.54,98.2Z" style="fill:#BA68C8"></path><path d="M390.54,98.2c-3.91-2.22-9.3-1.88-15.25,1.55-12,6.91-21.67,23.72-21.67,37.54,0,6.9,2.42,11.75,6.34,14,1.63.94,5.77,3.31,7.4,4.26,3.92,2.25,9.33,1.92,15.31-1.53,12-6.91,21.67-23.71,21.67-37.53,0-6.89-2.41-11.74-6.31-14C396.39,101.55,392.2,99.14,390.54,98.2Z" style="fill:#fff;opacity:0.25"></path><path d="M370.63,155.86a16.16,16.16,0,0,1-5.42,5.37,15.05,15.05,0,0,1-8.13,2.06.74.74,0,0,1-.38-.1L349.32,159a.74.74,0,0,1,0-1.28,13.08,13.08,0,0,0,6.77-10.19Z" style="fill:#BA68C8"></path><path d="M370.63,155.86a16.16,16.16,0,0,1-5.42,5.37,15.05,15.05,0,0,1-8.13,2.06.74.74,0,0,1-.38-.1L349.32,159a.74.74,0,0,1,0-1.28,13.08,13.08,0,0,0,6.77-10.19Z" style="opacity:0.15"></path><ellipse cx="382.67" cy="129.02" rx="30.65" ry="17.69" transform="translate(79.6 395.91) rotate(-60)" style="fill:#BA68C8"></ellipse><path d="M363.41,148.48a13.12,13.12,0,0,1-6.7,13.43.74.74,0,0,0,.36,1.38,15.22,15.22,0,0,0,8.14-2c5.76-3.66,6.48-8,6.48-8Z" style="fill:#BA68C8"></path></g><path d="M385.2,139v-19.2l-7.36,4.24v3.86l2.56-.82V141.8l-2.31,2v3.84l9.41-5.44v-3.83Zm-2.9-20.83a6.69,6.69,0,0,0,2.79-5.34c0-2.06-1.25-3-2.79-2.11a6.68,6.68,0,0,0-2.8,5.34C379.5,118.15,380.75,119.09,382.3,118.2Z" style="fill:#fafafa"></path></g></g><g id="Location"><g id="bubble"><g id="bubble"><path d="M134.39,262.24a16.16,16.16,0,0,1,5.42-5.38,15.08,15.08,0,0,1,8.13-2.05.8.8,0,0,1,.38.1l7.37,4.24a.74.74,0,0,1,0,1.28,13.14,13.14,0,0,0-6.77,10.19Z" style="fill:#BA68C8"></path><path d="M134.39,262.24a16.16,16.16,0,0,1,5.42-5.38,15.08,15.08,0,0,1,8.13-2.05.8.8,0,0,1,.38.1l7.37,4.24a.74.74,0,0,1,0,1.28,13.14,13.14,0,0,0-6.77,10.19Z" style="fill:#fff;opacity:0.25"></path><path d="M149,273.88a13.13,13.13,0,0,1,6.69-13.43.73.73,0,0,0-.35-1.37,15.17,15.17,0,0,0-8.15,2.05c-5.76,3.65-6.48,8-6.48,8Z" style="fill:#BA68C8"></path><path d="M135.6,260.23c-3.91-2.22-9.3-1.88-15.25,1.56-12,6.91-21.67,23.71-21.67,37.53,0,6.91,2.42,11.76,6.34,14l7.4,4.26c3.92,2.26,9.33,1.93,15.31-1.52,12-6.91,21.67-23.72,21.67-37.54,0-6.89-2.41-11.73-6.32-14C141.45,263.59,137.26,261.17,135.6,260.23Z" style="fill:#BA68C8"></path><path d="M135.6,260.23c-3.91-2.22-9.3-1.88-15.25,1.56-12,6.91-21.67,23.71-21.67,37.53,0,6.91,2.42,11.76,6.34,14l7.4,4.26c3.92,2.26,9.33,1.93,15.31-1.52,12-6.91,21.67-23.72,21.67-37.54,0-6.89-2.41-11.73-6.32-14C141.45,263.59,137.26,261.17,135.6,260.23Z" style="opacity:0.15"></path><path d="M106.06,303.57c0,13.82,9.7,19.42,21.67,12.51s21.67-23.72,21.67-37.54-9.7-19.42-21.67-12.51S106.06,289.75,106.06,303.57Z" style="fill:#BA68C8"></path></g><path d="M136.31,282.71c0-5.83-3.84-8.34-8.58-5.61s-8.58,9.68-8.58,15.52v1.32c0,4.49,5.09,9.7,7.43,11.86a1.15,1.15,0,0,0,1.82-.34c2-4.13,7.91-16.59,7.91-21.42Zm-8.58,9.56c-2.52,1.45-4.56.27-4.56-2.63a10.05,10.05,0,0,1,4.56-7.89c2.51-1.45,4.55-.27,4.55,2.63A10.1,10.1,0,0,1,127.73,292.27Z" style="fill:#fafafa"></path></g></g><g id="social-media-icons"><g id="social-media-icon"><path d="M405.87,233.35a2.11,2.11,0,0,0-2.15.19l-24.64,14.23a6.65,6.65,0,0,0-3,5.2v28.21a2.13,2.13,0,0,0,.88,1.95l7,4a2.1,2.1,0,0,0,2.13-.2l24.58-14.19a6.68,6.68,0,0,0,3-5.2l.05-28.26a2.13,2.13,0,0,0-.88-1.94C412.28,237,406.4,233.67,405.87,233.35Z" style="fill:#BA68C8"></path><path d="M405.87,233.35a2.11,2.11,0,0,0-2.15.19l-24.64,14.23a6.65,6.65,0,0,0-3,5.2v28.21a2.13,2.13,0,0,0,.88,1.95l7,4a2.1,2.1,0,0,0,2.13-.2l24.58-14.19a6.68,6.68,0,0,0,3-5.2l.05-28.26a2.13,2.13,0,0,0-.88-1.94C412.28,237,406.4,233.67,405.87,233.35Z" style="fill:#fff;opacity:0.4"></path><path d="M405.87,233.34c.51.31,5.89,3.38,6.85,3.93a2.17,2.17,0,0,0-2,.27l-24.65,14.23A6.14,6.14,0,0,0,384,254l-7-4a6.05,6.05,0,0,1,2.1-2.21l24.64-14.23A2.07,2.07,0,0,1,405.87,233.34Z" style="fill:#fff;opacity:0.7000000000000001"></path><path d="M412.83,237.33a.66.66,0,0,1,.17.12,2,2,0,0,0-.24-.16Z" style="fill:#fff;opacity:0.7000000000000001"></path><path d="M383.06,285.18V257a6.62,6.62,0,0,1,3-5.2l24.64-14.23c1.66-.95,3-.18,3,1.73l-.05,28.26a6.68,6.68,0,0,1-3,5.2l-24.58,14.19C384.4,287.87,383.06,287.1,383.06,285.18Z" style="fill:#BA68C8"></path><path d="M383.06,285.18V257a6.62,6.62,0,0,1,3-5.2l24.64-14.23c1.66-.95,3-.18,3,1.73l-.05,28.26a6.68,6.68,0,0,1-3,5.2l-24.58,14.19C384.4,287.87,383.06,287.1,383.06,285.18Z" style="fill:#fff;opacity:0.55"></path><path d="M395.91,277.29l3.94-2.27V261.86l2.75-1.59.29-4.57-3,1.75v-2.51c0-1,.16-1.54.91-2l2.13-1.23v-4.57l-2.72,1.57a8,8,0,0,0-4.26,7.48v3.51l-2.05,1.18v4.46l2.05-1.18Z" style="fill:#fff"></path></g><g id="social-media-icon"><path d="M465.4,199.09a2.09,2.09,0,0,0-2.14.19l-24.64,14.23a6.62,6.62,0,0,0-3,5.2v28.22a2.1,2.1,0,0,0,.88,1.94l7,4a2.08,2.08,0,0,0,2.12-.2l24.58-14.19a6.65,6.65,0,0,0,3-5.2l.05-28.25a2.13,2.13,0,0,0-.87-2C471.81,202.76,465.93,199.41,465.4,199.09Z" style="fill:#BA68C8"></path><path d="M465.4,199.09a2.09,2.09,0,0,0-2.14.19l-24.64,14.23a6.62,6.62,0,0,0-3,5.2v28.22a2.1,2.1,0,0,0,.88,1.94l7,4a2.08,2.08,0,0,0,2.12-.2l24.58-14.19a6.65,6.65,0,0,0,3-5.2l.05-28.25a2.13,2.13,0,0,0-.87-2C471.81,202.76,465.93,199.41,465.4,199.09Z" style="fill:#fff;opacity:0.4"></path><path d="M465.4,199.09l6.84,3.92a2.17,2.17,0,0,0-2,.27l-24.64,14.23a6.06,6.06,0,0,0-2.11,2.23l-7-4a6.05,6.05,0,0,1,2.1-2.21l24.64-14.23A2.11,2.11,0,0,1,465.4,199.09Z" style="fill:#fff;opacity:0.7000000000000001"></path><path d="M442.59,250.93V222.71a6.65,6.65,0,0,1,3-5.2l24.65-14.23c1.65-.95,3-.18,3,1.74l-.05,28.25a6.65,6.65,0,0,1-3,5.2l-24.58,14.19C443.94,253.61,442.59,252.84,442.59,250.93Z" style="fill:#BA68C8"></path><path d="M442.59,250.93V222.71a6.65,6.65,0,0,1,3-5.2l24.65-14.23c1.65-.95,3-.18,3,1.74l-.05,28.25a6.65,6.65,0,0,1-3,5.2l-24.58,14.19C443.94,253.61,442.59,252.84,442.59,250.93Z" style="fill:#fff;opacity:0.55"></path><path d="M463.07,230.41a27.19,27.19,0,0,0,2.37-11.21,21.56,21.56,0,0,0,1.94-3.8,14.1,14.1,0,0,1-2.23,2.1,10.29,10.29,0,0,0,1.7-3.85,15.16,15.16,0,0,1-2.46,2.68,2.38,2.38,0,0,0-2.84,0c-2.5,1.45-4.35,5.63-3.78,8.54-3.23,1.65-6.09,1.24-8-.79-1,2.92-.53,5.68,1.2,6.22a2.78,2.78,0,0,1-1.76.37c0,2.42,1.25,3.92,3.11,3.35a4.8,4.8,0,0,1-1.75,1.1,2.29,2.29,0,0,0,3.63,1.5,13.35,13.35,0,0,1-5.75,5.46A7.71,7.71,0,0,0,454.4,241c3.84-2.22,6.79-6.22,8.67-10.56" style="fill:#fff"></path></g></g><g id="News"><g id="speech-bubble"><g id="speech-bubble"><g id="message-icon"><path d="M157.36,146.8a1.33,1.33,0,0,0-.65-.16l-10.87-.77v14.07l5.93,3.43,11.73-11a1.31,1.31,0,0,0-.19-2.11Z" style="fill:#f0f0f0"></path><path d="M52.31,265.39a3.9,3.9,0,0,0,1.76,3.06l1.44.83a4,4,0,0,0,3.23.15c-.83.31-1.46-.16-1.46-1.17V193.33a3.64,3.64,0,0,1,.52-1.74l-5-2.87a3.74,3.74,0,0,0-.51,1.74Z" style="fill:#e0e0e0"></path><path d="M64.54,265.53l-5.74,3.32a1.2,1.2,0,0,1-.23.11h0l-.06,0a1,1,0,0,1-.27,0c-.41,0-.47-.48-.47-.77V193.33a3.45,3.45,0,0,1,1.51-2.63l95-54.83a1.12,1.12,0,0,1,.54-.17c.09,0,.32,0,.42.39a1.57,1.57,0,0,1,.05.37v74.93a2.25,2.25,0,0,1-1.35,2.5L70.41,262.13Z" style="fill:#fafafa"></path><path d="M154.81,136.21a1.07,1.07,0,0,1,0,.25v74.93c0,1,0,1.45-1.1,2.07L70.16,261.7l-5.87,3.4-5.76,3.32-.13.07h0l0,0a.79.79,0,0,1,0-.26V193.33a2.65,2.65,0,0,1,.39-1.25,2.57,2.57,0,0,1,.87-.94l95-54.83a.94.94,0,0,1,.24-.1m.06-1a1.62,1.62,0,0,0-.79.24L59,190.27a3.52,3.52,0,0,0-1.24,1.32,3.61,3.61,0,0,0-.52,1.74v74.93c0,.8.39,1.27,1,1.27a1.35,1.35,0,0,0,.43-.08l.06,0a1.77,1.77,0,0,0,.31-.15L64.79,266l5.87-3.4,83.58-48.23a2.73,2.73,0,0,0,1.6-2.94V136.46a2.2,2.2,0,0,0-.06-.5.92.92,0,0,0-.91-.76Z" style="fill:#e0e0e0"></path><path d="M151.77,149.3l10.88.76a1.31,1.31,0,0,1,.85,2.29l-11.73,11Z" style="fill:#fafafa"></path><path d="M162.65,150.06l-7.81-.76v1l7.81.77a.31.31,0,0,1,.2.54l-8,7.8v1.32l8.66-8.37A1.3,1.3,0,0,0,162.65,150.06Z" style="fill:#e0e0e0"></path><path d="M155.78,136c-.21-.75-.89-1-1.71-.52L59,190.28a3.45,3.45,0,0,0-1.24,1.32l-5-2.87a3.6,3.6,0,0,1,1.24-1.32l95-54.84a3.92,3.92,0,0,1,3.53,0l1.44.84A3.85,3.85,0,0,1,155.78,136Z" style="fill:#f0f0f0"></path></g></g><path d="M72.72,206.82a7.25,7.25,0,0,1,0,1.13,8,8,0,0,1,0,1.19l-5.39,3.12a6.06,6.06,0,0,1-.06-1.13,7.75,7.75,0,0,1,.06-1.19L69,209V197.24l-1.4.8a7,7,0,0,1,0-1.12,9.28,9.28,0,0,1,0-1.19l4.67-2.7,4.43,8.43v-8.67l-1.39.81a7.25,7.25,0,0,1,0-1.13,9.28,9.28,0,0,1,0-1.19l5.29-3.06a7.25,7.25,0,0,1,.05,1.13,8,8,0,0,1-.05,1.19l-1.57.91V205.5L76.44,207l-5.11-9.61v10.25Z" style="fill:#455a64"></path><path d="M91.2,182.1v4a8.78,8.78,0,0,1-.85.56,6.65,6.65,0,0,1-.89.44v-1.71l-4.19,2.42v4.26l2-1.15v-1.7a7.22,7.22,0,0,1,.87-.57,3.68,3.68,0,0,1,.84-.41V194a4.42,4.42,0,0,1-.84.55,5.25,5.25,0,0,1-.87.43v-1.76l-2,1.15v5.2l4.37-2.52v-2.18a7.78,7.78,0,0,1,.88-.58,8.1,8.1,0,0,1,.86-.43v4.5l-10,5.77a8,8,0,0,1-.06-1.12,9,9,0,0,1,.06-1.19l1.56-.91V189.19l-1.39.8a8.31,8.31,0,0,1,0-1.13c0-.67,0-1.19,0-1.19Z" style="fill:#455a64"></path><path d="M99.41,180.38l2.42-1.4,2.17,9.55.12-.07s1-7.83,1.31-12.25l-1.4.8s0-.4,0-1.18,0-1.14,0-1.14l4.73-2.73a6.78,6.78,0,0,1,.06,1.09,8.43,8.43,0,0,1-.06,1.23l-1.21.7c-.44,5-1.67,15-1.67,15l-3.55,2.05-1.79-7.9-1.79,10-3.55,2s-1.32-8.35-1.65-13.09l-1.22.7s0-.4,0-1.19,0-1.13,0-1.13l4.92-2.84a8,8,0,0,1,0,1.08,10.4,10.4,0,0,1,0,1.24l-1.39.8c.24,4.17,1.27,10.77,1.27,10.77l.12-.07Z" style="fill:#455a64"></path><path d="M117.3,171.35a7,7,0,0,1-.92.6,6.82,6.82,0,0,1-1,.5v-1.64s-.61-.28-1.78.39a4.38,4.38,0,0,0-2,3.37c0,.81.19,1.56,1,1.43l2.28-.34c1.22-.17,3.06,0,3.06,3a8.35,8.35,0,0,1-4.52,7.34c-2.8,1.62-4.07.38-4.07.38V183.3a9.19,9.19,0,0,1,.92-.6,8.21,8.21,0,0,1,1-.5v1.74s.65.46,2.16-.41a4,4,0,0,0,2.19-3.49c0-1.19-.75-1.57-1.55-1.45l-2.48.37c-1.72.25-2.28-1.05-2.28-3.07a9.14,9.14,0,0,1,4.38-7.19,4.1,4.1,0,0,1,3.69-.27Z" style="fill:#455a64"></path><polygon points="146.77 149.64 122.1 163.89 122.1 180.63 146.77 166.39 146.77 149.64" style="fill:#e0e0e0"></polygon><polygon points="146.77 176.14 67.38 221.98 67.38 217.65 146.77 171.81 146.77 176.14" style="fill:#BA68C8"></polygon><path d="M67.38,258.17a.31.31,0,0,1-.13,0,.27.27,0,0,1-.12-.22V225a.27.27,0,0,1,.12-.22L101,205.32a.28.28,0,0,1,.25,0,.25.25,0,0,1,.12.22v32.88a.25.25,0,0,1-.12.22L67.5,258.14A.24.24,0,0,1,67.38,258.17Zm.25-33v32.31l33.24-19.21V206Zm33.49,13.24h0Z" style="fill:#e0e0e0"></path><path d="M69.93,227.85a.3.3,0,0,1-.25-.14.29.29,0,0,1,.11-.39l28.64-16.55a.28.28,0,1,1,.29.48L70.07,227.81A.25.25,0,0,1,69.93,227.85Z" style="fill:#e0e0e0"></path><path d="M69.93,231.37a.31.31,0,0,1-.25-.15.28.28,0,0,1,.11-.38l28.64-16.56a.3.3,0,0,1,.39.1.29.29,0,0,1-.1.39L70.07,231.33A.37.37,0,0,1,69.93,231.37Z" style="fill:#e0e0e0"></path><path d="M69.93,234.88a.3.3,0,0,1-.25-.14.28.28,0,0,1,.11-.38L98.43,217.8a.29.29,0,0,1,.39.1.28.28,0,0,1-.1.38L70.07,234.84A.25.25,0,0,1,69.93,234.88Z" style="fill:#e0e0e0"></path><path d="M69.93,238.4a.3.3,0,0,1-.25-.14.29.29,0,0,1,.11-.39l28.64-16.56a.29.29,0,0,1,.39.11.28.28,0,0,1-.1.38L70.07,238.36A.37.37,0,0,1,69.93,238.4Z" style="fill:#e0e0e0"></path><path d="M69.93,241.91a.3.3,0,0,1-.25-.14.28.28,0,0,1,.11-.38l28.64-16.56a.28.28,0,1,1,.29.49L70.07,241.87A.25.25,0,0,1,69.93,241.91Z" style="fill:#e0e0e0"></path><path d="M69.93,245.43a.3.3,0,0,1-.25-.14.29.29,0,0,1,.11-.39l28.64-16.56a.29.29,0,0,1,.39.11.28.28,0,0,1-.1.38L70.07,245.39A.25.25,0,0,1,69.93,245.43Z" style="fill:#e0e0e0"></path><path d="M69.93,248.94a.3.3,0,0,1-.25-.14.28.28,0,0,1,.11-.38l28.64-16.56a.28.28,0,1,1,.29.49L70.07,248.91A.35.35,0,0,1,69.93,248.94Z" style="fill:#e0e0e0"></path><path d="M69.93,252.46a.3.3,0,0,1-.25-.14.28.28,0,0,1,.11-.38l28.64-16.56a.28.28,0,0,1,.39.1.28.28,0,0,1-.1.38L70.07,252.42A.25.25,0,0,1,69.93,252.46Z" style="fill:#e0e0e0"></path><polygon points="146.77 212.35 105.61 236.11 105.61 202.96 146.77 179.2 146.77 212.35" style="fill:#e0e0e0"></polygon><path d="M108.51,203.91l35.78-20.65c.5-.29.91-.06.91.53v26.1a2,2,0,0,1-.91,1.58l-35.78,20.65c-.5.29-.91,0-.91-.53v-26.1A2,2,0,0,1,108.51,203.91Z" style="fill:#fff"></path><path d="M135.22,197l-6,10.57,4.2,5.45-13.88-12-12,25.9v4.68c0,.58.41.82.91.53l35.78-20.65a2,2,0,0,0,.91-1.58v-3.82Zm4.13-4.62a4,4,0,0,0,1.79-3.1c0-1.15-.8-1.61-1.79-1a4,4,0,0,0-1.8,3.11C137.55,192.44,138.36,192.9,139.35,192.33Z" style="fill:#BA68C8"></path><g style="opacity:0.5"><path d="M135.22,197l-6,10.57,4.2,5.45-13.88-12-12,25.9v4.68c0,.58.41.82.91.53l35.78-20.65a2,2,0,0,0,.91-1.58v-3.82Zm4.13-4.62a4,4,0,0,0,1.79-3.1c0-1.15-.8-1.61-1.79-1a4,4,0,0,0-1.8,3.11C137.55,192.44,138.36,192.9,139.35,192.33Z" style="fill:#fff"></path></g></g><g id="speech-bubble"><g id="notification"><g id="message-icon"><path d="M361.61,398.87a3.94,3.94,0,0,0,1.71,3.06l1.38.83a3.69,3.69,0,0,0,3.12.15c-.81.31-1.42-.16-1.42-1.17V326.67a3.69,3.69,0,0,1,.5-1.74l-4.79-2.87a3.65,3.65,0,0,0-.5,1.74Z" style="fill:#e0e0e0"></path><path d="M361.61,398.87a3.94,3.94,0,0,0,1.71,3.06l1.38.83a3.69,3.69,0,0,0,3.12.15c-.81.31-1.42-.16-1.42-1.17V326.67a3.69,3.69,0,0,1,.5-1.74l-4.79-2.87a3.65,3.65,0,0,0-.5,1.74Z" style="opacity:0.1"></path><path d="M373.4,399l-5.53,3.33-.22.11h0l-.06,0a.82.82,0,0,1-.26,0c-.39,0-.45-.48-.45-.76V326.67a3.27,3.27,0,0,1,.43-1.49,3,3,0,0,1,1-1.14l91.57-54.87a1,1,0,0,1,.52-.18c.09,0,.31,0,.41.39a1.57,1.57,0,0,1,0,.37v75.07a2.27,2.27,0,0,1-1.3,2.51L379.07,395.6Z" style="fill:#fafafa"></path><path d="M460.39,269.5a2.5,2.5,0,0,1,0,.25v75.07c0,1,0,1.45-1.06,2.08l-80.52,48.26-5.67,3.41-5.55,3.33-.13.07h0l-.05,0a.84.84,0,0,1,0-.26V326.67a2.81,2.81,0,0,1,.38-1.26,2.57,2.57,0,0,1,.83-.94l91.58-54.87a.78.78,0,0,1,.23-.1m.05-1a1.58,1.58,0,0,0-.76.24L368.1,323.61a3.41,3.41,0,0,0-1.19,1.32,3.7,3.7,0,0,0-.51,1.74v75.07c0,.8.39,1.27.94,1.27a1.24,1.24,0,0,0,.41-.08l.06,0a1.68,1.68,0,0,0,.3-.15l5.53-3.32,5.67-3.41,80.53-48.26a2.78,2.78,0,0,0,1.54-2.95V269.75a2.2,2.2,0,0,0-.06-.5.89.89,0,0,0-.88-.76Z" style="fill:#e0e0e0"></path><path d="M461.33,269.25c-.2-.75-.86-1-1.65-.52l-91.57,54.88a3.43,3.43,0,0,0-1.2,1.32l-4.79-2.87a3.51,3.51,0,0,1,1.2-1.32l91.56-54.88a3.67,3.67,0,0,1,3.41,0l1.39.84A3.92,3.92,0,0,1,461.33,269.25Z" style="fill:#f0f0f0"></path></g></g><path d="M361.62,334.31l-7.75,8.34a1.15,1.15,0,0,0,.23,1.76h0l5.74,3.44h0a1,1,0,0,0,.69.16l6.84-.85v-9.39Z" style="fill:#e0e0e0"></path><path d="M367.36,337.76l-7.75,8.34a1.13,1.13,0,0,0,.91,1.9l6.84-.85Z" style="fill:#fafafa"></path><path d="M360.16,346.65a.34.34,0,0,0-.06.35.31.31,0,0,0,.28.2l7-.84v.79l-6.86.84a1.12,1.12,0,0,1-.9-1.89l6.79-7.31V336.7h1v2.18Z" style="fill:#e0e0e0"></path><polygon points="452.22 282.48 428.43 296.75 428.43 313.52 452.22 299.25 452.22 282.48" style="fill:#e0e0e0"></polygon><polygon points="452.22 309.02 375.67 354.92 375.67 350.58 452.22 304.68 452.22 309.02" style="fill:#BA68C8"></polygon><path d="M375.67,392.16a.24.24,0,0,1-.12,0,.23.23,0,0,1-.13-.21V359a.24.24,0,0,1,.12-.21l32.54-19.53a.21.21,0,0,1,.24,0,.23.23,0,0,1,.13.21v32.93a.27.27,0,0,1-.12.21l-32.54,19.53A.24.24,0,0,1,375.67,392.16Zm.24-33v32.35l32-19.23V339.89Zm32.29,13.26h0Z" style="fill:#e0e0e0"></path><path d="M378.12,361.8a.27.27,0,0,1-.23-.14.29.29,0,0,1,.1-.38l27.62-16.59a.27.27,0,0,1,.37.11.28.28,0,0,1-.1.38l-27.62,16.58A.23.23,0,0,1,378.12,361.8Z" style="fill:#e0e0e0"></path><path d="M378.12,365.32a.27.27,0,0,1-.23-.14.29.29,0,0,1,.1-.38l27.62-16.58a.26.26,0,0,1,.37.1.28.28,0,0,1-.1.38l-27.62,16.58A.23.23,0,0,1,378.12,365.32Z" style="fill:#e0e0e0"></path><path d="M378.12,368.84a.27.27,0,0,1-.23-.14.29.29,0,0,1,.1-.38l27.62-16.58a.26.26,0,0,1,.37.1.28.28,0,0,1-.1.38L378.26,368.8A.23.23,0,0,1,378.12,368.84Z" style="fill:#e0e0e0"></path><path d="M378.12,372.36a.27.27,0,0,1-.23-.14.29.29,0,0,1,.1-.38l27.62-16.58a.26.26,0,0,1,.37.1.28.28,0,0,1-.1.38l-27.62,16.59A.32.32,0,0,1,378.12,372.36Z" style="fill:#e0e0e0"></path><path d="M378.12,375.88a.27.27,0,0,1-.23-.14.29.29,0,0,1,.1-.38l27.62-16.58a.27.27,0,0,1,.37.1.28.28,0,0,1-.1.38l-27.62,16.59A.32.32,0,0,1,378.12,375.88Z" style="fill:#e0e0e0"></path><path d="M378.12,379.4a.27.27,0,0,1-.23-.14.29.29,0,0,1,.1-.38l27.62-16.58a.27.27,0,0,1,.37.1.29.29,0,0,1-.1.39l-27.62,16.58A.32.32,0,0,1,378.12,379.4Z" style="fill:#e0e0e0"></path><path d="M378.12,382.93a.28.28,0,0,1-.23-.15.29.29,0,0,1,.1-.38l27.62-16.58a.27.27,0,0,1,.37.1.29.29,0,0,1-.1.39l-27.62,16.58A.33.33,0,0,1,378.12,382.93Z" style="fill:#e0e0e0"></path><path d="M378.12,386.45a.27.27,0,0,1-.23-.14.3.3,0,0,1,.1-.39l27.62-16.58a.27.27,0,0,1,.37.1.29.29,0,0,1-.1.39l-27.62,16.58A.33.33,0,0,1,378.12,386.45Z" style="fill:#e0e0e0"></path><polygon points="452.22 346.28 412.53 370.08 412.53 336.88 452.22 313.09 452.22 346.28" style="fill:#e0e0e0"></polygon><path d="M415.33,337.83l34.49-20.68c.48-.29.88-.06.88.53v26.14a2.07,2.07,0,0,1-.88,1.58l-34.49,20.68c-.49.29-.88.05-.88-.53V339.41A2,2,0,0,1,415.33,337.83Z" style="fill:#BA68C8"></path><g style="opacity:0.5"><path d="M415.33,337.83l34.49-20.68c.48-.29.88-.06.88.53v26.14a2.07,2.07,0,0,1-.88,1.58l-34.49,20.68c-.49.29-.88.05-.88-.53V339.41A2,2,0,0,1,415.33,337.83Z" style="fill:#fff"></path></g><path d="M376,332.68l1.61-1,.09-1.93,1.93-1.15v11.84l-1.13,1v2l4.36-2.61v-2l-1.12.33V327.36l1.93-1.16.09,1.83,1.61-1v-4.48L376,328.2Zm25-19.49-3.61,2.16-1.12.67v2l1.12-.33V329.8l-1.12,1v2L401,330a8.38,8.38,0,0,0,3.18-3.87,13.66,13.66,0,0,0,1.25-5.79v-2.79c0-2.05-.42-3.48-1.25-4.3S402.3,312.42,401,313.19Zm2.31,8.41a9.6,9.6,0,0,1-.64,3.59,4.51,4.51,0,0,1-1.78,2.29l-1.39.83V316.69l1.39-.84c.76-.45,1.35-.4,1.78.16a4.66,4.66,0,0,1,.64,2.79Zm16.92-19.94v2l.85-.31-1.63,6.49,0,0-1.63-4.54.86-.71v-2l-4,2.38v2l.89-.3,2.81,6.78v3.72l-1.13,1v2l4.36-2.61v-2l-1.13.33v-3.55l2.86-10.35.89-.76v-2Zm-8.2,4.92-2.16,1.29-3.2,16.54-.75.62v2l3.58-2.15v-2l-.73.23.46-2.58,3.41-2,.46,2-.73.65v2L416,321v-2l-.75.28Zm-2.3,11.16,1.18-6.63.05,0,1.18,5.21Zm-19.09,1.42a8.85,8.85,0,0,0-3.43,4.48,17.89,17.89,0,0,0-1.31,6.88v.26c0,2.46.43,4.23,1.31,5.32s2,1.2,3.44.35a9,9,0,0,0,3.46-4.49,18,18,0,0,0,1.32-6.9v-.25q0-3.68-1.33-5.3T390.65,319.16Zm2.69,7.16a15.1,15.1,0,0,1-.67,4.68,5,5,0,0,1-2,2.83c-.88.53-1.54.38-2-.44a8.56,8.56,0,0,1-.66-3.88v-.27a14.92,14.92,0,0,1,.65-4.65,4.89,4.89,0,0,1,2-2.8c.89-.53,1.56-.39,2,.43a8.21,8.21,0,0,1,.68,3.82Z" style="fill:#455a64"></path><path d="M436.67,338.53l-6-.56c-.54-.05-1,.59-1,1.43v8c0,.84.44.95,1,.25l6-7.77C437.22,339.19,437.22,338.58,436.67,338.53Zm.76-7.72c-1.54-.92-3.48-.78-5.45.41a11.88,11.88,0,0,0-2.94,2.59,16.57,16.57,0,0,0-1.75,2.57,19.44,19.44,0,0,0-2.46,9.16c0,3.27,1.05,5.77,2.89,6.87a4.23,4.23,0,0,0,2.2.6,6.37,6.37,0,0,0,3.25-1,14,14,0,0,0,4.69-5.16,19.6,19.6,0,0,0,2.46-9.17C440.32,334.42,439.27,331.92,437.43,330.81Zm-.5,15.48a12.8,12.8,0,0,1-4.29,4.76c-1.63,1-3.19,1.12-4.39.4-1.49-.9-2.36-3.05-2.36-5.91a18.31,18.31,0,0,1,2.33-8.61,15.32,15.32,0,0,1,1.63-2.4,10.84,10.84,0,0,1,2.66-2.35c1.63-1,3.19-1.12,4.38-.4,1.5.89,2.36,3.05,2.36,5.9A18.26,18.26,0,0,1,436.93,346.29Z" style="fill:#fff"></path></g></g><g id="speech-bubbles"><g id="speech-bubble"><g id="message-icon"><path d="M224.65,79.7,221,77.59a.31.31,0,0,1-.17-.15l-.67-1.17L222.33,75l-.07.19Z" style="fill:#e0e0e0"></path><path d="M198.91,80.77a3.89,3.89,0,0,0,1.77,3.06l1.43.83a4,4,0,0,0,3.23.15c-.83.31-1.46-.16-1.46-1.17V66a3.64,3.64,0,0,1,.52-1.74l-5-2.87a3.64,3.64,0,0,0-.52,1.75Z" style="fill:#e0e0e0"></path><path d="M222.43,75a.5.5,0,0,0-.3-.23l-.13,0a.43.43,0,0,0-.25.07L205.4,84.22a1.27,1.27,0,0,1-.23.12h0a.71.71,0,0,1-.27.05c-.41,0-.47-.48-.47-.76V66a3.49,3.49,0,0,1,1.51-2.63l38.9-22.45a1.12,1.12,0,0,1,.54-.17c.09,0,.32,0,.42.38a1.65,1.65,0,0,1,.05.38V59.14a2.26,2.26,0,0,1-1.35,2.51l-16.82,9.72a.47.47,0,0,0-.23.27l-2.58,7.45Z" style="fill:#fafafa"></path><path d="M245.27,41.22a1.07,1.07,0,0,1,0,.25V59.14c0,1,0,1.45-1.1,2.08l-16.83,9.72a1,1,0,0,0-.44.53l-2.22,6.42-1.85-3.19a1,1,0,0,0-.6-.46.82.82,0,0,0-.26,0,1,1,0,0,0-.5.14L205.14,83.8l-.14.07h-.09a1.11,1.11,0,0,1,0-.25V66a2.56,2.56,0,0,1,.4-1.25,2.47,2.47,0,0,1,.86-.94L245,41.31a.82.82,0,0,1,.24-.09m.06-1a1.52,1.52,0,0,0-.79.24L205.64,62.9a3.52,3.52,0,0,0-1.24,1.32,3.61,3.61,0,0,0-.52,1.74V83.64c0,.8.4,1.26,1,1.26a1.33,1.33,0,0,0,.43-.07l.06,0a1.77,1.77,0,0,0,.31-.15L222,75.2l2.52,4.37a.38.38,0,0,0,.33.19.37.37,0,0,0,.36-.25l2.67-7.71,16.82-9.72a2.73,2.73,0,0,0,1.6-2.94V41.47a2.2,2.2,0,0,0-.06-.5.92.92,0,0,0-.91-.76Z" style="fill:#e0e0e0"></path><path d="M246.24,41c-.21-.75-.89-1-1.7-.52L205.65,62.91a3.47,3.47,0,0,0-1.25,1.32l-5-2.87A3.54,3.54,0,0,1,200.68,60l38.88-22.46a3.92,3.92,0,0,1,3.53,0l1.45.83A3.89,3.89,0,0,1,246.24,41Z" style="fill:#f0f0f0"></path><path d="M217.14,64.56a5,5,0,0,0-2.25,3.9c0,1.43,1,2,2.25,1.29a5,5,0,0,0,2.25-3.89C219.39,64.43,218.38,63.85,217.14,64.56Z" style="fill:#455a64"></path><path d="M224.65,60.26a5,5,0,0,0-2.25,3.89c0,1.44,1,2,2.25,1.3a5,5,0,0,0,2.25-3.89C226.9,60.12,225.89,59.54,224.65,60.26Z" style="fill:#455a64"></path><path d="M232.17,56a4.94,4.94,0,0,0-2.25,3.89c0,1.43,1,2,2.25,1.3a5,5,0,0,0,2.24-3.89C234.41,55.82,233.41,55.24,232.17,56Z" style="fill:#455a64"></path></g></g><g id="speech-bubble"><g id="notification"><g id="message-icon"><path d="M282.21,123.67a3.9,3.9,0,0,0,1.76,3.06l1.44.83a4,4,0,0,0,3.23.15c-.83.32-1.46-.16-1.46-1.17V93.79a3.62,3.62,0,0,1,.51-1.74l-5-2.87a3.62,3.62,0,0,0-.51,1.74Z" style="fill:#e0e0e0"></path><path d="M294.44,123.81l-5.74,3.32a1.2,1.2,0,0,1-.23.11h0l-.06,0a1,1,0,0,1-.27,0c-.41,0-.47-.48-.47-.77V93.79a3.45,3.45,0,0,1,1.51-2.63l34-19.6a1.08,1.08,0,0,1,.54-.18c.09,0,.32,0,.42.39a1.57,1.57,0,0,1,.05.37v32.75a2.25,2.25,0,0,1-1.35,2.51l-22.5,13Z" style="fill:#fafafa"></path><path d="M323.63,71.89a1.13,1.13,0,0,1,0,.25v32.75c0,1,0,1.45-1.1,2.08l-22.5,13-5.88,3.4-5.75,3.33a.59.59,0,0,1-.14.06h0l-.05,0a.79.79,0,0,1,0-.26V93.79a2.65,2.65,0,0,1,.39-1.25,2.49,2.49,0,0,1,.87-.94L323.39,72a.94.94,0,0,1,.24-.1m.06-1a1.62,1.62,0,0,0-.79.24l-34,19.61a3.52,3.52,0,0,0-1.24,1.32,3.61,3.61,0,0,0-.52,1.74v32.75c0,.81.39,1.27,1,1.27a1.41,1.41,0,0,0,.43-.08l.06,0a1.77,1.77,0,0,0,.31-.15l5.74-3.32,5.87-3.4,22.5-13a2.73,2.73,0,0,0,1.6-2.94V72.14a2.2,2.2,0,0,0-.06-.5.92.92,0,0,0-.91-.76Z" style="fill:#e0e0e0"></path><path d="M324.6,71.64c-.2-.75-.89-1-1.7-.52l-34,19.62a3.49,3.49,0,0,0-1.24,1.31l-5-2.86A3.6,3.6,0,0,1,284,87.87l33.95-19.61a3.92,3.92,0,0,1,3.53,0l1.45.83A3.89,3.89,0,0,1,324.6,71.64Z" style="fill:#f0f0f0"></path></g></g><path d="M297.86,111.71a1.45,1.45,0,0,1-.73-.19,2.18,2.18,0,0,1-.9-2V96a5.1,5.1,0,0,1,2.18-4.13L315.52,82a1.7,1.7,0,0,1,1.73-.1,2.16,2.16,0,0,1,.91,2V97.41a5.12,5.12,0,0,1-2.18,4.13l-1.07.61v3.58a2,2,0,0,1-.82,1.58.87.87,0,0,1-.86.08l-4-2-10.35,6A2.08,2.08,0,0,1,297.86,111.71ZM316.52,82.6a1.11,1.11,0,0,0-.54.17h0l-17.11,9.88A4.24,4.24,0,0,0,297.15,96v13.56a1.36,1.36,0,0,0,.44,1.18.86.86,0,0,0,.82-.1l10.56-6.1a.47.47,0,0,1,.43,0l4.23,2.06a1.39,1.39,0,0,0,.36-.83v-3.84a.46.46,0,0,1,.23-.4l1.3-.75a4.24,4.24,0,0,0,1.72-3.33V83.84a1.33,1.33,0,0,0-.45-1.17A.52.52,0,0,0,316.52,82.6Zm-.77-.23h0Z" style="fill:#455a64"></path><path d="M295.91,120.29l-.19,0a.74.74,0,0,1-.51-.78v-1.58l-.11.06a1.23,1.23,0,0,1-1.25.07,1.52,1.52,0,0,1-.65-1.38v-8.39a3.33,3.33,0,0,1,1.44-2.7l1.82-1a.45.45,0,0,1,.63.17.46.46,0,0,1-.17.63l-1.82,1.05a2.46,2.46,0,0,0-1,1.9v8.39c0,.33.1.53.19.58s.26,0,.33-.06l.8-.47a.46.46,0,0,1,.69.4v1.81l2.4-3.92a.35.35,0,0,1,.16-.16l5.73-3.31a2.46,2.46,0,0,0,1-1.91v-2.74a.47.47,0,1,1,.93,0v2.74a3.36,3.36,0,0,1-1.44,2.71l-5.63,3.25-2.55,4.19A1,1,0,0,1,295.91,120.29Z" style="fill:#455a64"></path><path d="M314.23,90.67l-14.07,8.12c-.41.24-.74,0-.74-.55h0a1.76,1.76,0,0,1,.74-1.4l14.07-8.12c.4-.24.73,0,.73.55h0A1.77,1.77,0,0,1,314.23,90.67Z" style="fill:#455a64"></path><path d="M314.23,96.74l-14.07,8.13c-.41.23-.74,0-.74-.56h0a1.72,1.72,0,0,1,.74-1.39l14.07-8.13c.4-.23.73,0,.73.55h0A1.76,1.76,0,0,1,314.23,96.74Z" style="fill:#455a64"></path><path d="M321,79.09a8,8,0,0,1-3.32,6.35c-1.84,1-3.32-.07-3.32-2.51a7.94,7.94,0,0,1,3.32-6.35C319.53,75.53,321,76.65,321,79.09Z" style="fill:#BA68C8"></path><path d="M282.22,101.42l-8.05,8.33a1.13,1.13,0,0,0,.24,1.75h0l5.94,3.43h0a1.06,1.06,0,0,0,.71.16l7.1-.85v-9.38Z" style="fill:#f0f0f0"></path><path d="M288.17,104.86l-8,8.33a1.13,1.13,0,0,0,.94,1.9l7.1-.85Z" style="fill:#fafafa"></path><path d="M280.7,113.75a.32.32,0,0,0,.22.55l7.25-.84v.79l-7.11.84a1.12,1.12,0,0,1-.94-1.89l7.06-7.3v-2.09h1V106Z" style="fill:#e0e0e0"></path></g><g id="speech-bubble"><g id="speech-bubble"><path d="M391.25,233l-3.72-7,3-8.64v-5.29l-9.16,5.29v5.29l3.94,6.82a.55.55,0,0,0,.26.24h0Z" style="fill:#BA68C8"></path><path d="M391.25,233l-3.72-7,3-8.64v-5.29l-9.16,5.29v5.29l3.94,6.82a.55.55,0,0,0,.26.24h0Z" style="opacity:0.2"></path><path d="M423.51,175a6.08,6.08,0,0,0-2.75-4.76L418.52,169a6.1,6.1,0,0,0-5.49,0l-59.62,34.46a6.07,6.07,0,0,0-2.74,4.76V235a6.06,6.06,0,0,0,2.74,4.75l2.24,1.3a6.1,6.1,0,0,0,5.49,0l26-15,3.93,6.81a.58.58,0,0,0,1.06-.1l4.16-12,24.5-14.15a6,6,0,0,0,2.75-4.76Z" style="fill:#BA68C8"></path><path d="M350.67,235a6.06,6.06,0,0,0,2.74,4.75l2.24,1.3a6.13,6.13,0,0,0,5,.22c-1.29.49-2.27-.24-2.27-1.81V212.67a5.57,5.57,0,0,1,.8-2.71l-7.73-4.46a5.57,5.57,0,0,0-.8,2.71Z" style="opacity:0.2"></path><path d="M423.42,174.26c-.32-1.16-1.39-1.54-2.66-.81l-59.62,34.46a5.46,5.46,0,0,0-1.93,2.05l-7.73-4.46a5.62,5.62,0,0,1,1.93-2.05L413,169a6.06,6.06,0,0,1,5.5,0l2.24,1.29A6,6,0,0,1,423.42,174.26Z" style="fill:#fff;opacity:0.24"></path></g><path d="M373.52,222.42a.27.27,0,0,1,.35,0,.62.62,0,0,1,.15.46v3a1.38,1.38,0,0,1-.15.62.82.82,0,0,1-.35.43L365,231.9a.26.26,0,0,1-.35,0,.58.58,0,0,1-.15-.45V213.06a1.45,1.45,0,0,1,.15-.63A.91.91,0,0,1,365,212l2.42-1.39a.27.27,0,0,1,.35,0,.62.62,0,0,1,.14.46v14.58Z" style="fill:#fff"></path><path d="M377,224.94a.27.27,0,0,1-.35,0,.62.62,0,0,1-.15-.46V206.1a1.45,1.45,0,0,1,.15-.63A1,1,0,0,1,377,205l2.42-1.39a.27.27,0,0,1,.35,0,.62.62,0,0,1,.15.46v18.36a1.38,1.38,0,0,1-.15.62.87.87,0,0,1-.35.43Z" style="fill:#fff"></path><path d="M387.37,219c-.48.28-.81.09-1-.57l-3.76-15.59c0-.12,0-.2-.05-.23a.37.37,0,0,1,0-.11,1.19,1.19,0,0,1,.12-.51.8.8,0,0,1,.29-.35l2.32-1.34c.25-.14.42-.16.53-.06a.64.64,0,0,1,.19.35l2.57,11,2.56-14a2.23,2.23,0,0,1,.2-.58,1.3,1.3,0,0,1,.52-.55l2.33-1.34a.22.22,0,0,1,.29,0,.5.5,0,0,1,.12.37s0,.08,0,.12,0,.14-.05.28l-3.76,19.94a2.38,2.38,0,0,1-1,1.7Z" style="fill:#fff"></path><path d="M406.48,203.39a.26.26,0,0,1,.35,0,.58.58,0,0,1,.15.45v3a1.45,1.45,0,0,1-.15.63,1,1,0,0,1-.35.43L397.73,213a.27.27,0,0,1-.35,0,.62.62,0,0,1-.15-.46V194.15a1.38,1.38,0,0,1,.15-.62.82.82,0,0,1,.35-.43l8.6-5a.27.27,0,0,1,.35,0,.62.62,0,0,1,.15.46v3a1.45,1.45,0,0,1-.15.63,1,1,0,0,1-.35.43L400.64,196V199l5.28-3.05a.26.26,0,0,1,.35,0,.58.58,0,0,1,.15.45v3a1.45,1.45,0,0,1-.15.63.86.86,0,0,1-.35.43l-5.28,3.05v3.18Z" style="fill:#fff"></path><path d="M414.3,188.8c2.27-1.31,4.12-.24,4.12,2.38a9.1,9.1,0,0,1-4.12,7.13c-2.27,1.31-4.12.25-4.12-2.38A9.13,9.13,0,0,1,414.3,188.8Z" style="fill:#fff"></path></g></g><g id="paper-planes"><g id="paper-plane"><polygon points="127.45 470.46 76 455.22 58.65 466.89 127.45 470.46" style="fill:#BA68C8"></polygon><g style="opacity:0.15"><polygon points="127.45 470.46 76 455.22 58.65 466.89 127.45 470.46" style="fill:#fff"></polygon></g><polygon points="127.45 470.46 80.88 450.02 86.43 437.99 127.45 470.46" style="fill:#BA68C8"></polygon><g style="opacity:0.15"><polygon points="127.45 470.46 80.88 450.02 86.43 437.99 127.45 470.46" style="fill:#fff"></polygon></g><polygon points="80.88 450.02 82.98 457.29 127.45 470.46 80.88 450.02" style="fill:#BA68C8"></polygon><g style="opacity:0.2"><polygon points="80.88 450.02 82.98 457.29 127.45 470.46 80.88 450.02"></polygon></g><path d="M74.47,449.39a.47.47,0,0,0,.26-.22.56.56,0,0,0-.17-.72l-1.24-.87a.44.44,0,0,0-.66.14.56.56,0,0,0,.17.72l1.24.88A.45.45,0,0,0,74.47,449.39Z" style="fill:#455a64"></path><path d="M68.83,445.43c-.79-.63-1.57-1.27-2.33-1.92a.57.57,0,0,1-.11-.74.45.45,0,0,1,.67-.07c.76.64,1.52,1.27,2.3,1.9a.56.56,0,0,1,.13.73.39.39,0,0,1-.24.18A.44.44,0,0,1,68.83,445.43Zm-6.08-5.31q-1.11-1.06-2.16-2.16a.56.56,0,0,1,0-.74.45.45,0,0,1,.68,0c.7.72,1.41,1.43,2.13,2.12a.58.58,0,0,1,.07.74.54.54,0,0,1-.22.15A.45.45,0,0,1,62.75,440.12Zm-5.58-5.95c-.66-.78-1.31-1.59-1.93-2.39a.54.54,0,0,1,0-.73.45.45,0,0,1,.67.08c.62.79,1.26,1.59,1.91,2.36a.56.56,0,0,1,0,.74.42.42,0,0,1-.18.11A.48.48,0,0,1,57.17,434.17Zm-4.94-6.58c-.57-.86-1.13-1.75-1.65-2.62a.54.54,0,0,1,.13-.72.47.47,0,0,1,.66.18c.52.86,1.06,1.73,1.63,2.59a.54.54,0,0,1-.09.72.46.46,0,0,1-.14.07A.48.48,0,0,1,52.23,427.59Zm-4.15-7.17c-.46-.92-.9-1.88-1.32-2.83a.52.52,0,0,1,.21-.68.49.49,0,0,1,.65.28c.41.93.85,1.87,1.3,2.77a.53.53,0,0,1-.18.7l-.08,0A.51.51,0,0,1,48.08,420.42Zm-3.24-7.67c-.27-.77-.52-1.55-.77-2.33l-.19-.65a.5.5,0,0,1,.3-.64h0a.51.51,0,0,1,.61.37l.19.63c.24.77.49,1.54.76,2.3a.5.5,0,0,1-.28.65h0A.5.5,0,0,1,44.84,412.75Zm-1.69-7.6a.52.52,0,0,1-.58-.42c-.22-1-.42-2-.6-3.07a.48.48,0,0,1,.38-.58.52.52,0,0,1,.57.45c.17,1,.37,2,.59,3a.51.51,0,0,1-.31.6ZM41.8,397a.53.53,0,0,1-.53-.5c-.1-1-.17-2.07-.21-3.1a.47.47,0,0,1,.45-.52.54.54,0,0,1,.51.53c0,1,.11,2,.21,3a.5.5,0,0,1-.32.53Zm-.28-8.19a.55.55,0,0,1-.46-.58c0-1,.13-2.05.23-3.07a.46.46,0,0,1,.53-.43.55.55,0,0,1,.43.6c-.1,1-.18,2-.23,3a.46.46,0,0,1-.32.44A.37.37,0,0,1,41.52,388.82Zm.9-8.07a.55.55,0,0,1-.37-.64c.19-1,.42-2,.67-3a.45.45,0,0,1,.59-.33.57.57,0,0,1,.34.67c-.25.95-.47,1.93-.66,2.91a.47.47,0,0,1-.32.36A.36.36,0,0,1,42.42,380.75Zm2-7.74a.57.57,0,0,1-.28-.69c.34-.95.71-1.89,1.09-2.8a.45.45,0,0,1,.64-.22.57.57,0,0,1,.24.71c-.38.89-.74,1.81-1.07,2.74a.44.44,0,0,1-.29.29A.47.47,0,0,1,44.47,373Zm3.13-7.24a.57.57,0,0,1-.18-.72c.47-.87,1-1.74,1.47-2.57a.45.45,0,0,1,.67-.11.57.57,0,0,1,.14.73c-.5.81-1,1.66-1.44,2.51a.45.45,0,0,1-.27.22A.46.46,0,0,1,47.6,365.77Zm4.13-6.58a.57.57,0,0,1-.08-.74q.91-1.18,1.86-2.25a.44.44,0,0,1,.67,0,.56.56,0,0,1,0,.74c-.62.69-1.23,1.43-1.81,2.2a.54.54,0,0,1-.22.15A.48.48,0,0,1,51.73,359.19Z" style="fill:#455a64"></path><path d="M57.47,353.79a.42.42,0,0,0,.13-.07,8.38,8.38,0,0,1,1.14-.73.52.52,0,0,0,.21-.68.49.49,0,0,0-.65-.27,8.14,8.14,0,0,0-1.28.81.54.54,0,0,0-.09.72A.48.48,0,0,0,57.47,353.79Z" style="fill:#455a64"></path></g><g id="paper-plane"><polygon points="398.09 59.09 347.33 50.6 388.33 71.43 398.09 59.09" style="fill:#BA68C8"></polygon><polygon points="398.09 59.09 347.33 50.6 388.33 71.43 398.09 59.09" style="fill:#fff;opacity:0.15"></polygon><polygon points="347.33 50.6 400.95 52.09 410.71 39.74 347.33 50.6" style="fill:#BA68C8"></polygon><polygon points="347.33 50.6 400.95 52.09 410.71 39.74 347.33 50.6" style="fill:#fff;opacity:0.15"></polygon><polygon points="400.95 52.09 402.72 65.06 398.09 59.09 347.33 50.6 400.95 52.09" style="fill:#BA68C8"></polygon><polygon points="400.95 52.09 402.72 65.06 398.09 59.09 347.33 50.6 400.95 52.09" style="opacity:0.2"></polygon><polygon points="402.72 65.06 394.84 63.2 398.09 59.09 402.72 65.06" style="fill:#BA68C8"></polygon><polygon points="398.09 59.09 394.84 63.2 396.1 63.5 398.09 59.09" style="opacity:0.2"></polygon><path d="M408,57.9a.45.45,0,0,0-.14.3.58.58,0,0,0,.47.58l1.5.24a.44.44,0,0,0,.53-.41.57.57,0,0,0-.47-.58l-1.5-.25A.45.45,0,0,0,408,57.9Z" style="fill:#455a64"></path><path d="M414.79,59c1,.22,2,.46,2.94.71a.57.57,0,0,1,.41.62.45.45,0,0,1-.57.36c-1-.25-1.92-.49-2.9-.71a.56.56,0,0,1-.43-.6.43.43,0,0,1,.13-.27A.45.45,0,0,1,414.79,59Zm7.79,2.13c1,.32,1.93.65,2.88,1a.54.54,0,0,1,.35.65.44.44,0,0,1-.61.29c-.93-.34-1.88-.67-2.84-1a.56.56,0,0,1-.38-.64.41.41,0,0,1,.13-.22A.49.49,0,0,1,422.58,61.13Zm7.61,2.92c.94.42,1.87.86,2.78,1.32a.55.55,0,0,1,.29.68.46.46,0,0,1-.65.21c-.9-.44-1.82-.88-2.74-1.29a.55.55,0,0,1-.32-.67.43.43,0,0,1,.12-.17A.47.47,0,0,1,430.19,64.05Zm7.31,3.78c.9.53,1.78,1.08,2.63,1.64a.54.54,0,0,1,.2.7.47.47,0,0,1-.68.13c-.84-.55-1.71-1.1-2.59-1.62a.54.54,0,0,1-.23-.69.27.27,0,0,1,.09-.12A.48.48,0,0,1,437.5,67.83Zm6.86,4.65c.82.63,1.63,1.29,2.42,2a.53.53,0,0,1,.11.72.51.51,0,0,1-.7,0c-.78-.67-1.58-1.32-2.39-1.94a.51.51,0,0,1-.13-.7.18.18,0,0,1,.05-.07A.5.5,0,0,1,444.36,72.48ZM450.62,78q.86.87,1.71,1.77l.45.49a.5.5,0,0,1,0,.71h0a.5.5,0,0,1-.71-.07l-.45-.48q-.83-.89-1.68-1.74a.52.52,0,0,1,0-.71h0A.5.5,0,0,1,450.62,78Zm4.83,6.11a.51.51,0,0,1,.7.12c.64.82,1.27,1.66,1.88,2.5a.49.49,0,0,1-.09.7.53.53,0,0,1-.7-.16c-.6-.84-1.22-1.66-1.85-2.46a.51.51,0,0,1,0-.67Zm4.76,6.73a.53.53,0,0,1,.69.22c.54.89,1.06,1.79,1.55,2.7a.48.48,0,0,1-.19.67.54.54,0,0,1-.68-.26c-.48-.89-1-1.78-1.52-2.65a.48.48,0,0,1,.06-.61ZM464,98.07a.54.54,0,0,1,.66.32c.4.94.78,1.9,1.14,2.86a.47.47,0,0,1-.29.62.56.56,0,0,1-.65-.36c-.34-.94-.72-1.89-1.11-2.81a.48.48,0,0,1,.09-.54A.51.51,0,0,1,464,98.07Zm2.71,7.65a.55.55,0,0,1,.61.41q.39,1.49.69,3a.45.45,0,0,1-.39.55.55.55,0,0,1-.59-.45c-.2-1-.43-1.94-.68-2.91a.47.47,0,0,1,.13-.46A.36.36,0,0,1,466.74,105.72Zm1.52,7.86a.57.57,0,0,1,.55.5c.11,1,.19,2,.24,3a.45.45,0,0,1-.48.48.56.56,0,0,1-.52-.53c-.05-1-.13-2-.23-2.93a.44.44,0,0,1,.13-.39A.48.48,0,0,1,468.26,113.58Zm.33,7.88a.57.57,0,0,1,.48.58c0,1-.11,2-.21,2.94a.44.44,0,0,1-.54.4.57.57,0,0,1-.45-.6c.09-1,.16-1.92.2-2.89a.45.45,0,0,1,.14-.31A.46.46,0,0,1,468.59,121.46Zm-.85,7.73a.55.55,0,0,1,.39.63c-.2,1-.43,1.92-.68,2.83a.46.46,0,0,1-.62.29.57.57,0,0,1-.35-.66c.25-.88.48-1.81.67-2.76a.44.44,0,0,1,.59-.33Z" style="fill:#455a64"></path><path d="M464.93,136.54a.47.47,0,0,0-.09.12,7.59,7.59,0,0,1-.71,1.15.52.52,0,0,0,.12.71.47.47,0,0,0,.69,0,7.75,7.75,0,0,0,.8-1.28.55.55,0,0,0-.23-.7A.49.49,0,0,0,464.93,136.54Z" style="fill:#455a64"></path></g></g><g id="Character"><g id="Chair"><path d="M327.42,387a2,2,0,0,1-1.45-.62L252.88,309l-73,77a2,2,0,1,1-2.89-2.74l74.41-78.55a2,2,0,0,1,1.45-.63h0a2,2,0,0,1,1.45.63l74.54,78.88a2,2,0,0,1-.08,2.82A2,2,0,0,1,327.42,387Z" style="fill:#263238"></path><path d="M252.88,445.58a2,2,0,0,1-2-2V315.47a2,2,0,0,1,4,0V443.58A2,2,0,0,1,252.88,445.58Z" style="fill:#37474f"></path><path d="M332.14,399a2,2,0,0,1-1.85-1.27L291,298.25a2,2,0,0,1,3.71-1.46L334,396.22a2,2,0,0,1-1.12,2.59A2.1,2.1,0,0,1,332.14,399Z" style="fill:#37474f"></path><path d="M173.62,399a2.11,2.11,0,0,1-.74-.14,2,2,0,0,1-1.12-2.59l39.29-99.43a2,2,0,1,1,3.7,1.46l-39.28,99.43A2,2,0,0,1,173.62,399Z" style="fill:#37474f"></path><path d="M329.43,383.93l5.2,13.71a1.34,1.34,0,0,1,0,.35,1,1,0,0,1,0,.25,1.57,1.57,0,0,1-.78.86,3.45,3.45,0,0,1-3.16,0,1.41,1.41,0,0,1-.62-.65v0l0-.19-4.82-12.84Z" style="fill:#BA68C8"></path><path d="M176.32,383.93l-5.19,13.71a1.34,1.34,0,0,0,0,.35v.25a1.6,1.6,0,0,0,.79.86,3.45,3.45,0,0,0,3.16,0,1.34,1.34,0,0,0,.61-.65v0l0-.19,4.81-12.84Z" style="fill:#BA68C8"></path><path d="M255.18,433.66V445a1.15,1.15,0,0,1-.68.94,3.58,3.58,0,0,1-3.25,0,1.16,1.16,0,0,1-.67-.94V433.66A4.93,4.93,0,0,1,255.18,433.66Z" style="fill:#BA68C8"></path><g id="chair"><path d="M174.2,196.44a49.44,49.44,0,0,0-3.52,15.47c-1,11.87,2.83,55.72,5.24,72.9h0c3.49,28.71,7.77,28.76,14,33.56,10.7,8.27,41.47,24.47,51.63,28.47,18.41,7.24,33.47-3.93,44.69-9.48s32.32-18.05,37-21.48c2.8-2,4.25-4.1,4.22-6.28,0-.86,0-4.38,0-5.29,0-2.77-2.44-5.75-7.59-9.08C310.39,289,276,269,262.7,261.62a.13.13,0,0,0-.11-.11c-10.25-6.23-16.25-54-23.35-76.46-.15-.48-.3-1-.46-1.4s-.24-.7-.36-1c-.45-1.23-.91-2.35-1.4-3.37" style="fill:#BA68C8"></path><path d="M327.5,304.3c0-2.77-2.44-5.75-7.59-9.08C310.39,289,276,269,262.7,261.62a.13.13,0,0,0-.11-.11c-10.25-6.23-16.25-54-23.35-76.46a39.81,39.81,0,0,0-1.48-4.14l-.13-.3c-.13-.3-.26-.6-.41-.92-.07-.14-.13-.31-.2-.45h0a21.63,21.63,0,0,0-4.74-6.84,10.1,10.1,0,0,0-2.32-1.63c-1.15-.66-3.57-2-4.18-2.36-7-4.16-23.4,4.71-34.78,10.94-7.08,3.88-13.12,8.5-16.79,17.09h0a49.44,49.44,0,0,0-3.52,15.47c-1,11.87,2.83,55.72,5.24,72.9h0c3.49,28.71,7.77,28.76,14,33.56,10.7,8.27,41.47,24.47,51.63,28.47,18.41,7.24,33.47-3.93,44.69-9.48s32.32-18.05,37-21.48c2.8-2,4.25-4.1,4.22-6.28C327.48,308.73,327.5,305.21,327.5,304.3Z" style="fill:#BA68C8"></path><path d="M327.5,304.3c0-2.77-2.44-5.75-7.59-9.08C310.39,289,276,269,262.7,261.62a.13.13,0,0,0-.11-.11c-10.25-6.23-16.25-54-23.35-76.46a39.81,39.81,0,0,0-1.48-4.14l-.13-.3c-.13-.3-.26-.6-.41-.92-.07-.14-.13-.31-.2-.45h0a21.63,21.63,0,0,0-4.74-6.84,10.1,10.1,0,0,0-2.32-1.63c-1.15-.66-3.57-2-4.18-2.36-7-4.16-23.4,4.71-34.78,10.94-7.08,3.88-13.12,8.5-16.79,17.09h0a49.44,49.44,0,0,0-3.52,15.47c-1,11.87,2.83,55.72,5.24,72.9h0c3.49,28.71,7.77,28.76,14,33.56,10.7,8.27,41.47,24.47,51.63,28.47,18.41,7.24,33.47-3.93,44.69-9.48s32.32-18.05,37-21.48c2.8-2,4.25-4.1,4.22-6.28C327.48,308.73,327.5,305.21,327.5,304.3Z" style="fill:#fff;opacity:0.15"></path><path d="M286.22,332c11.22-5.54,32.32-18.06,37-21.49,6.39-4.64,5.8-9.38-3.35-15.31-12.71-8.25-64.52-37.65-64.52-37.65s-72.82,42.53-70,49.67,43.36,29.22,56.13,34.25C260,348.73,275,337.56,286.22,332Z" style="fill:#BA68C8"></path><g style="opacity:0.4"><path d="M286.22,332c11.22-5.54,32.32-18.06,37-21.49,6.39-4.64,5.8-9.38-3.35-15.31-12.71-8.25-64.52-37.65-64.52-37.65s-72.82,42.53-70,49.67,43.36,29.22,56.13,34.25C260,348.73,275,337.56,286.22,332Z" style="fill:#fff"></path></g><path d="M230,170.77c-6.89-3.62-23.16,5.17-34.25,11.24-7.1,3.89-13.15,8.51-16.82,17.14l-4.68-2.71c3.67-8.59,9.71-13.21,16.79-17.09,11.38-6.23,27.82-15.1,34.78-10.94C226.38,168.77,228.8,170.11,230,170.77Z" style="fill:#BA68C8"></path><path d="M230,170.77c-6.89-3.62-23.16,5.17-34.25,11.24-7.1,3.89-13.15,8.51-16.82,17.14l-4.68-2.71c3.67-8.59,9.71-13.21,16.79-17.09,11.38-6.23,27.82-15.1,34.78-10.94C226.38,168.77,228.8,170.11,230,170.77Z" style="fill:#fff;opacity:0.4"></path><path d="M239.24,185.05c-.15-.48-2.52-8.73-7-12.65a11.18,11.18,0,0,0-7.53-2.87c-6,0-20.56,7.85-29,12.48-.71.39-1.4.79-2.09,1.2-.27.15-.53.31-.79.47s-.63.39-.94.59-.46.29-.69.45a38.24,38.24,0,0,0-4.26,3.24l-.64.58a27.51,27.51,0,0,0-2.42,2.52l-.41.48c-.16.19-.33.39-.48.59s-.31.41-.47.62l-.45.63a30.29,30.29,0,0,0-1.69,2.71c-.07.12-.14.24-.2.36s-.27.51-.4.77-.37.76-.55,1.14a49,49,0,0,0-3.84,16.22c-1.64,19.49,4.86,89.33,11.56,94.89,0,0,1.43-5.82,12.45-14.79a243,243,0,0,1,33.93-22.54c22.38-12.62,29.27-10.63,29.27-10.63C252.34,255.28,246.34,207.55,239.24,185.05Z" style="fill:#BA68C8"></path><g style="opacity:0.2"><path d="M239.24,185.05c-.15-.48-2.52-8.73-7-12.65a11.18,11.18,0,0,0-7.53-2.87c-6,0-20.56,7.85-29,12.48-.71.39-1.4.79-2.09,1.2-.27.15-.53.31-.79.47s-.63.39-.94.59-.46.29-.69.45a38.24,38.24,0,0,0-4.26,3.24l-.64.58a27.51,27.51,0,0,0-2.42,2.52l-.41.48c-.16.19-.33.39-.48.59s-.31.41-.47.62l-.45.63a30.29,30.29,0,0,0-1.69,2.71c-.07.12-.14.24-.2.36s-.27.51-.4.77-.37.76-.55,1.14a49,49,0,0,0-3.84,16.22c-1.64,19.49,4.86,89.33,11.56,94.89,0,0,1.43-5.82,12.45-14.79a243,243,0,0,1,33.93-22.54c22.38-12.62,29.27-10.63,29.27-10.63C252.34,255.28,246.34,207.55,239.24,185.05Z" style="fill:#fff"></path></g></g></g><g id="character"><g id="Bottom"><path d="M266,253.89c.16,4.08,25.09,10.93,42.83,16.51,20.37,6.42,30.09,11.05,37.63,18.56,4.25,4.24,6.72,9.61,5.49,16.52-.89,5-5.18,13.18-14.69,20.78-18,14.41-26.79,17.79-39.51,26.1,0,0-13.1-8.57-15.2-18.56l18.1-20-52.3-15.2Z" style="fill:#455a64"></path><path d="M306.94,334.6c.34,3.79.65,7.83.91,11.55-3.25,1.92-6.52,3.87-10.1,6.21,0,0-13.1-8.57-15.2-18.56l15.85-17.54C303.81,321.57,306,323.92,306.94,334.6Z" style="fill:#37474f"></path><path d="M248.35,298.57l1.62-3.4s30.26,6.95,40.78,9.31c8.91,2,10.68,2.29,15.18-1.71,6.26-5.56,10.63-6.43,15-5.44-6.66.86-13.7,8.38-20.3,16.44Z" style="fill:#37474f"></path><path d="M261.52,284l32.07,27.68-45.24-13.15,13.13-35.95,3.6-.49A66.69,66.69,0,0,1,261.52,284Z" style="fill:#37474f"></path><path d="M285.83,332.3c-3.21,3.6-5.64,6.17-6.22,6.34a7.24,7.24,0,0,1-2,.41s-12.77,10.83-20.95,19.1-13,12.31-10.86,19.67S258.26,398,259.93,399s4.42-10.11,4.42-10.11c1.21-4,4.23-11.72,7.41-15.95s7.51-7.43,13.18-11.82c2.27-1.76,8-5.85,14.32-10.23Z" style="fill:#ffa8a7"></path><path d="M284.94,361.12c2.27-1.76,8-5.85,14.32-10.23L285.83,332.3c-3.21,3.6-5.64,6.17-6.22,6.34a7.24,7.24,0,0,1-2,.41s-5.11,4.34-10.94,9.62a17.6,17.6,0,0,1,1.7,7.89,76.19,76.19,0,0,0,2.32,18c.36-.57.73-1.12,1.1-1.61C274.94,368.71,279.27,365.51,284.94,361.12Z" style="fill:#f28f8f"></path><path d="M262.44,342.21c-2.09,1.7-3.62,5.15-6.75,8a73.55,73.55,0,0,1-11.56,8.8l-5.74,3.59,1,1.56,10.46-6.53c3.19-2,6-2.8,7.32-1.49C257.14,356.17,267.15,349.76,262.44,342.21Z" style="fill:#BA68C8"></path><path d="M262.44,342.21c-2.09,1.7-3.62,5.15-6.75,8a73.55,73.55,0,0,1-11.56,8.8l-5.74,3.59,1,1.56,10.46-6.53c3.19-2,6-2.8,7.32-1.49C257.14,356.17,267.15,349.76,262.44,342.21Z" style="opacity:0.4"></path><path d="M279,338.47c-3.28.7-7.55-.15-12.36,1.18a10.12,10.12,0,0,0-5.08,3.44c-.52,2-.46,3.13-.76,4.61a15.29,15.29,0,0,1-2.56,6.9,111.27,111.27,0,0,1-10.06,11.74c-3.53,3.68-5.8,5.68-5.56,10.6.2,3.83,3.93,13.59,7.31,19.63,4.62,8.23,10.82,8.91,12,4s2.38-10.34,2.44-11.67a17.12,17.12,0,0,0-5.78-6.68c-4.77-3.19-8.26-2.94-8.95-9.09-.62-5.57,5.72-13.4,17.15-20.29C279.75,345,279,338.47,279,338.47Z" style="fill:#BA68C8"></path><path d="M279,338.47c-3.28.7-7.55-.15-12.36,1.18a10.12,10.12,0,0,0-5.08,3.44c-.52,2-.46,3.13-.76,4.61a15.29,15.29,0,0,1-2.56,6.9,111.27,111.27,0,0,1-10.06,11.74c-3.53,3.68-5.8,5.68-5.56,10.6.2,3.83,3.93,13.59,7.31,19.63,4.62,8.23,10.82,8.91,12,4s2.38-10.34,2.44-11.67a17.12,17.12,0,0,0-5.78-6.68c-4.77-3.19-8.26-2.94-8.95-9.09-.62-5.57,5.72-13.4,17.15-20.29C279.75,345,279,338.47,279,338.47Z" style="opacity:0.35000000000000003"></path><path d="M279,338.47c-3.28.7-7.55-.15-12.36,1.18a10.09,10.09,0,0,0-4.95,3.28,15,15,0,0,1,6.14,9.22C279.7,344.63,279,338.47,279,338.47Z" style="opacity:0.35000000000000003"></path><path d="M326,455.89a48.22,48.22,0,0,1-9.3-12.7c-2.26-4.86-4.08-11.87-5.66-19-.89-4-1.75-11.47-2.72-22.2l-22.73,4.14c1.81,5.28,3.24,10.16,2.84,12.07a7.56,7.56,0,0,1-.6,2s3.56,16.57,7,27.83,4.79,17.48,12.38,19.1,24-1.49,25.67-2.51S326,455.89,326,455.89Z" style="fill:#ffa8a7"></path><path d="M283.38,435.28c.52,2.68,2.86,5.69,3.94,9.86a74.85,74.85,0,0,1,2.33,14.53c.4,6,.46,6.84.46,6.84l1.85-.12-.82-12.46c-.26-3.81.37-6.72,2.16-7.25C293.3,446.68,292.37,434.68,283.38,435.28Z" style="fill:#BA68C8"></path><path d="M283.38,435.28c.52,2.68,2.86,5.69,3.94,9.86a74.85,74.85,0,0,1,2.33,14.53c.4,6,.46,6.84.46,6.84l1.85-.12-.82-12.46c-.26-3.81.37-6.72,2.16-7.25C293.3,446.68,292.37,434.68,283.38,435.28Z" style="opacity:0.25"></path><path d="M288,418.68c-.94,3.26-3.74,6.67-4.85,11.59a10.2,10.2,0,0,0,.64,6.19c1.57,1.43,2.58,1.9,3.75,2.88a15.41,15.41,0,0,1,4.94,5.59,113.09,113.09,0,0,1,5.67,14.59c1.59,4.9,2.3,7.89,6.8,10,3.52,1.66,14,3,21,2.86,9.55-.18,13.13-5.4,9.27-8.75s-8.09-7.07-9.24-7.76a17.32,17.32,0,0,0-8.74,2c-5.12,2.73-6.57,6-12.39,3.64-5.27-2.1-9.23-11.5-9.91-25C294.14,421.16,288,418.68,288,418.68Z" style="fill:#BA68C8"></path><path d="M288,418.68c-.94,3.26-3.74,6.67-4.85,11.59a10.2,10.2,0,0,0,.64,6.19c1.57,1.43,2.58,1.9,3.75,2.88a15.41,15.41,0,0,1,4.94,5.59,113.09,113.09,0,0,1,5.67,14.59c1.59,4.9,2.3,7.89,6.8,10,3.52,1.66,14,3,21,2.86,9.55-.18,13.13-5.4,9.27-8.75s-8.09-7.07-9.24-7.76a17.32,17.32,0,0,0-8.74,2c-5.12,2.73-6.57,6-12.39,3.64-5.27-2.1-9.23-11.5-9.91-25C294.14,421.16,288,418.68,288,418.68Z" style="opacity:0.2"></path><path d="M266,253.89h0l-71.9,5.48c-3,15.24-2.83,24.68-.12,33.16,2.48,7.76,9.41,16.91,24.37,25.57,17.76,10.29,39.61,19.59,43.82,22.26,6.07,3.85,9.28,2.62,9.63,17.43.22,9.47,5.26,23.26,8,31.72,2.83,8.87,6.45,20.08,6.45,20.08,3,4.43,17.92,4.27,23.11-1.66,0,0-3-58.87-4.75-70.88-1-6.71-2-12.74-9.49-20.61-6.45-6.74-38.58-31.51-38.58-31.51S264.8,274.21,266,253.89Z" style="fill:#455a64"></path><path d="M280.05,377.07c2.18,9.93,8,26.25,10.46,35a17,17,0,0,0,2,.39c-2.51-8.8-8.41-25.51-10.67-35.8-3-13.46-2.42-16.26-2.66-25.7-.1-4-.19-7.43-.47-10.33-.73-7.6-16.2-15.81-35.78-26.2-6.6-3.51-13.43-7.13-20-10.92C201.2,291,202.13,281,203.69,264.42c.16-1.73.32-3.53.47-5.39l-1.87.28c-.14,1.7-.29,3.35-.43,4.93-1.57,16.71-2.61,27.75,20.19,40.9,6.58,3.8,13.42,7.43,20,10.95,17.57,9.32,34.16,18.13,34.8,24.72.27,2.84.36,6.25.46,10.2C277.59,360.53,277.05,363.43,280.05,377.07Z" style="fill:#37474f"></path><path d="M216,300.93c.28-.19,7.06-4.91,4.54-17.11-2.76-13.33-2.16-19.48-.94-28.43l-1.82-.26c-1.25,9.18-1.81,15.72,1,29.07,2.27,11-3.7,15.13-3.76,15.17Z" style="fill:#37474f"></path></g><g id="Top"><path id="Hair" d="M260.07,148.27a13.59,13.59,0,0,1-2.59-2.66c-1.69-2.6-1.21-6.07-2.69-8.79-.42-.77-1-1.35-1.52-2.08a9.07,9.07,0,0,1-.82-3.59c9.76-2.62,9.94-15.8,7.56-21.6-4.6-12.59-18.29-17.21-26.73-17.61-16-.75-23.81,3.45-25.4,11.75a10.91,10.91,0,0,0-8.87,8.65c-1.44,5.93-.57,10.11-3.94,14-1.73,2.34-4,4.68-4.36,7.72-.56,5.09,4.85,9.66,3.63,14.63-1,3.9-5.73,6.31-5.84,10.32-.1,3.46,3.34,5.94,4.5,9.21.68,1.89.57,4,1.43,5.84,1.35,2.83,4.73,4.15,7.86,4.19,5.57.09,10.81-3,16.37-3,5.14-.07,10.08,2.38,15.21,2.17s9.78-3,14.86-3.3c6.17-.38,12.85,3,18.72,0,2.81-1.47,4.79-4.91,3.68-7.88-2.18.79-4.64-.69-5.78-2.71C262.8,158.74,265.18,151.77,260.07,148.27Z" style="fill:#37474f"></path><g id="Arm"><g id="arm"><path d="M246.15,165.18c7.16,1.22,12.6,1.31,18.8,10.28,6.34,9.19,13.65,20.48,23.21,34.57L312.3,198.2,322.38,215s-25.88,17.32-35.5,20.77c-7.19,2.59-9-.57-14.42-6.06-6.07-6.11-23.95-26.09-23.95-26.09Z" style="fill:#ffa8a7"></path><path d="M245.4,164.61c8.69,1.1,13.34,3.13,16.1,5.8s27.08,39.08,27.08,39.08l4.56-1.9s-3.63,4-.82,13.53,7.15,8.25,7.15,8.25-8.24,5.27-13,7.18-7.26.56-12.28-4.22-26.63-28.58-26.63-28.58Z" style="fill:#BA68C8"></path><path d="M245.4,164.61c8.69,1.1,13.34,3.13,16.1,5.8s27.08,39.08,27.08,39.08l4.56-1.9s-3.63,4-.82,13.53,7.15,8.25,7.15,8.25-8.24,5.27-13,7.18-7.26.56-12.28-4.22-26.63-28.58-26.63-28.58Z" style="opacity:0.15"></path><path d="M288.58,209.49c-4.09,1.47-8.82,6-9.53,8.37,1.14-6.56,6.39-9.16,8.34-10.14Z" style="opacity:0.35000000000000003"></path></g><g id="Tablet"><path d="M338.4,168.57h0l-2.16-1.42v0a2.24,2.24,0,0,0-2,0L314,175.64a7.78,7.78,0,0,0-4.17,5l-9.57,45.74a2,2,0,0,0,.57,2.2h0l2.23,1.47v0a2.19,2.19,0,0,0,2.05,0l20.27-8.43a7.85,7.85,0,0,0,4.17-5c1.88-9,7.69-36.74,9.56-45.73C339.31,169.71,339,168.92,338.4,168.57Z" style="fill:#455a64"></path><path d="M314,178.58a7.7,7.7,0,0,0-2,3.53l-9.57,45.72a2.11,2.11,0,0,0,.49,2.17l-2.09-1.38,0,0a2,2,0,0,1-.58-2.2l9.57-45.74a7.54,7.54,0,0,1,1.86-3.33Z" style="fill:#263238"></path><path d="M302.41,227.84,312,182.1a7.85,7.85,0,0,1,4.18-5l20.26-8.44c1.89-.78,3.08.21,2.66,2.21-1.87,9-7.68,36.74-9.56,45.73a7.85,7.85,0,0,1-4.17,5L305.07,230C303.18,230.82,302,229.84,302.41,227.84Z" style="fill:#37474f"></path><path d="M313.18,191.29l1.79-8.56a1.49,1.49,0,0,1,.78-.95l3.81-1.58c.35-.14.57,0,.5.42-.36,1.68-1.44,6.87-1.79,8.56a1.49,1.49,0,0,1-.78.94l-3.81,1.58C313.32,191.84,313.1,191.66,313.18,191.29Z" style="fill:#455a64"></path><path d="M315.41,184.66a3.67,3.67,0,0,1,2-2.33c.91-.38,1.5,0,1.31,1a3.7,3.7,0,0,1-2,2.33C315.81,186,315.22,185.57,315.41,184.66Z" style="fill:#263238"></path><path d="M314.56,189a3.69,3.69,0,0,1,2-2.33c.91-.38,1.5.05,1.3,1a3.69,3.69,0,0,1-2,2.34C315,190.32,314.37,189.88,314.56,189Z" style="fill:#263238"></path><path d="M337.32,197.79c1.78-2.81,1.58-3.16.45-4.48a8.55,8.55,0,0,0-7.14-3.15c-2.37.21-4.78.31-6,1s0,3.22,3.15,3.74c4.95.81,5,2.14,5,2.14a62.4,62.4,0,0,0-6.37-.74c-1.81,0-5.05,1.06-7.09,1.5s-2.3,3.13,1.25,3.84l-3.74.82c-2.62.58-3.43,2-1.26,3.55a3.86,3.86,0,0,0,2.44.76s-2.81.16-2.82,1.1c0,2.69,1.78,3.3,7.56,4.61,5.51,1.26,6.8,4.11,5.84,6.19,0,0,2.11-1.4,4-2.86,1.37-1.06,2.51-2.24,1.74-4.43,0,0,3.1-.12,3.18-2a9.87,9.87,0,0,0-1-4.07A3.37,3.37,0,0,0,338,202a5.51,5.51,0,0,0-1.32-3.3Z" style="fill:#ffa8a7"></path><path d="M320.59,201.65a17.13,17.13,0,0,1,3.4-.57,11,11,0,0,1,3.38.86,40,40,0,0,1,6.17,2.84,39.91,39.91,0,0,1-6.51-1.9,17.5,17.5,0,0,0-3.09-1C322.9,201.75,321.71,201.8,320.59,201.65Z" style="fill:#f28f8f"></path><path d="M318,206.78a7.61,7.61,0,0,1,3.7-.33,19.57,19.57,0,0,1,3.6.91,35.21,35.21,0,0,1,6.66,3.07c-2.4-.55-4.7-1.35-7-2.12S320.51,206.68,318,206.78Z" style="fill:#f28f8f"></path></g></g><g id="Coat"><path d="M276.2,259.91c-6-2.28-10.13-4.38-10.2-6l-9.25,6,1.51-59.48,13.13.32C274.36,214.91,275.81,248.93,276.2,259.91Z" style="fill:#BA68C8"></path><path d="M276.2,259.91c-6-2.28-10.13-4.38-10.2-6l-9.25,6,1.51-59.48,13.13.32C274.36,214.91,275.81,248.93,276.2,259.91Z" style="opacity:0.35000000000000003"></path></g><g id="Chest"><path d="M221.3,161.05l-20.72,5c-3.55,1.12-14.67,12.6-10.54,32.69,1.12,5.43,4.55,16.07,7.82,26.49a29.08,29.08,0,0,1,.67,15.13c-2.1,9.1-4.48,15.63-7.4,29.21,0,0,9.53,8.19,44.49,5.14C262.29,272.34,270,257,270,257c-.6-4.21-2.58-10.51-4.49-18.64.41-9.82.19-15.88.35-20.89,0,0,7.67-3.89,7.95-15.17.22-8.83-3.15-13.54-11.95-22.78a133.87,133.87,0,0,0-16.43-14.91Z" style="fill:#37474f"></path></g><g id="Head"><path d="M209.53,145.17c-2.9.45-5.14-1-6.83-3-3.75-4.39-4-8.75-2.07-11.59,1.56-2.33,5.27-3.73,7.79-2,2.69,1.81,2.73,3.21,3.71,5.19s5,1.93,6.19-5.88c1.13-7.29,2.45-13.95,6.13-17.14,5.5-4.77,11.42-3.78,13.47-.8,2.28-3.34,5.65-4.62,9.24-2.54s6.2,7.61,7,21.52c.83,14.19-2.77,22.91-6.08,25.19-2.52,1.72-5.3,2.45-10.62,2.52l.25,7.53s8.82,19.18,8.42,31.31c0,0-4.47-7.66-17.75-19.09L214,163.91l-.91-20.86A4.54,4.54,0,0,1,209.53,145.17Z" style="fill:#ffa8a7"></path><path d="M251.41,122.08,246,120.57a2.67,2.67,0,0,1,3.34-2A2.93,2.93,0,0,1,251.41,122.08Z" style="fill:#263238"></path><path d="M232.3,121.52l-5.66,1.94a2.87,2.87,0,0,1,1.75-3.78A3.14,3.14,0,0,1,232.3,121.52Z" style="fill:#263238"></path><path d="M230.38,141.07l7.72,2.44a4.06,4.06,0,0,1-5.45,2.5C230.55,145.26,229.78,143.25,230.38,141.07Z" style="fill:#b16668"></path><path d="M234.87,146.23a4.25,4.25,0,0,0-4.29-3.75,2.6,2.6,0,0,0-.39.05,3.57,3.57,0,0,0,2.46,3.48A4.52,4.52,0,0,0,234.87,146.23Z" style="fill:#f28f8f"></path><polygon points="237.38 124.54 238.53 138.48 246.16 135.82 237.38 124.54" style="fill:#f28f8f"></polygon><path d="M232.92,128.23a2.15,2.15,0,1,1-2.22-2.08A2.15,2.15,0,0,1,232.92,128.23Z" style="fill:#263238"></path><path d="M249.8,127.65a2.15,2.15,0,1,1-2.22-2.08A2.15,2.15,0,0,1,249.8,127.65Z" style="fill:#263238"></path><path d="M237.49,156.57c-4.91-.47-10.09-1.15-15-3.26-1.75-.75-4.09-3.93-6-7.48,0,0,1.33,7,5.1,9.38,5.72,3.66,16,4.46,16,4.46Z" style="fill:#f28f8f"></path></g><path d="M214,162.8c4.92,8.92,9.3,22.39,8.95,41.32S216,283,216,283s-15.56,2.65-25.51-12.33c.26-5.44,4.36-18.32,6.84-27.37s-1.64-15.9-5.09-27.17c-2.26-7.39-5.6-19.5-4.21-29.66s5.43-18.72,12.6-20.44Z" style="fill:#BA68C8"></path><path d="M214,162.8c4.92,8.92,9.3,22.39,8.95,41.32S216,283,216,283s-15.56,2.65-25.51-12.33c.26-5.44,4.36-18.32,6.84-27.37s-1.64-15.9-5.09-27.17c-2.26-7.39-5.6-19.5-4.21-29.66s5.43-18.72,12.6-20.44Z" style="opacity:0.35000000000000003"></path><path d="M237.74,164.1s25.07,15,29.44,21.33c-8.51-12.49-18.62-24.75-29.66-28.16Z"></path><path d="M222.62,211.75c-.4-5.93-4.22-21.8-8.08-30.88-4.59-10.81-7.33-16.45-7.33-16.45a22.1,22.1,0,0,0,4-5.68c1.12-2.73,2.4-3.43,2.4-3.43l.15,3.5s2.58,5.42,5.28,12S224.93,195.44,222.62,211.75Z"></path><g id="arm"><path d="M234.69,199.28c4.2-3.56,6.34-5,8.36-5.69s9-4.16,11.75-5c1.72-.55,2.61,2.2.5,4.26-1.62,1.58-6,3.8-7.86,5s-5.44,6.12-5.44,6.12Z" style="fill:#f28f8f"></path><path d="M179.19,182.42c4-10.82,10.13-14.62,20.65-15.65,6.4,15.13.95,38.89.95,38.89l-6.3,17.23s21.27-6.75,24.13-8.84,10-9.19,12.52-11.93c3.43-3.74,5.27-3.38,7.14-3.22,6.13.52,7.5.95,8.84,1.69a2.77,2.77,0,0,1,1.33,2.29c1.62.1,4-.11,4.52,2.52a7.79,7.79,0,0,1,.23,2.12,1.74,1.74,0,0,1,1.08.53c1.45,1.47-.51,7-1.89,8.41-1,1-2.43,1.2-4.37,1.06-1.65-.12-1-1.83-1-1.83l-2.28.28c-4.72,3.82-4.53,10.79-11,12.74-1.36.41-4.2.55-7.88,2.06-13.77,5.61-32,22.72-47.51,23.63-12.29.72-13.79-5-13.77-12.54C164.66,234.06,175.64,192.06,179.19,182.42Z" style="fill:#ffa8a7"></path><path d="M200.1,166c-5.95.95-11.41,1.73-15.93,6.57s-5.77,9.28-9,21.06-6.47,23.84-9.05,35.65-2.94,19.11.78,23,10.89,3.32,14.56,2.7,10.44-3.85,10.44-3.85-3.45-4.87-1.86-14.9,6.9-14.11,6.9-14.11l-2.07.57s4.64-11.42,7.86-19.3S205.17,173,200.1,166Z" style="fill:#BA68C8"></path><path d="M200.1,166c-5.95.95-11.41,1.73-15.93,6.57s-5.77,9.28-9,21.06-6.47,23.84-9.05,35.65-2.94,19.11.78,23,10.89,3.32,14.56,2.7,10.44-3.85,10.44-3.85-3.45-4.87-1.86-14.9,6.9-14.11,6.9-14.11l-2.07.57s4.64-11.42,7.86-19.3S205.17,173,200.1,166Z" style="opacity:0.15"></path><path d="M196.15,219.41l-1.33,3.28c-7.27,1.68-14.64,3.53-16.63,6.21C180.29,224.42,185.93,221.35,196.15,219.41Z" style="opacity:0.35000000000000003"></path><path d="M248.45,202.88l-7.31-1h7.09A2.72,2.72,0,0,1,248.45,202.88Z" style="fill:#f28f8f"></path><path d="M253.2,207.52l-8.38-.55,8.33-.41A4.93,4.93,0,0,1,253.2,207.52Z" style="fill:#f28f8f"></path><path d="M252.33,211.25a2.63,2.63,0,0,1-1.05,1,5.29,5.29,0,0,1-1.39.57l.11-.08c-.2.45-.41.89-.62,1.33l-.19-.21a1.69,1.69,0,0,1,1.34.23,2.24,2.24,0,0,1,.8,1,2.73,2.73,0,0,0-.91-.85,1.68,1.68,0,0,0-1.14-.13l-.31.08.13-.29c.19-.45.4-.9.61-1.33l0-.07.07,0a8,8,0,0,0,1.35-.47A3.12,3.12,0,0,0,252.33,211.25Z" style="fill:#f28f8f"></path><path d="M250.2,212.46a26.65,26.65,0,0,1-3,.4,3.19,3.19,0,0,1-.93,1.66,16.88,16.88,0,0,1-1.52,1.45l2.28-.28a3.65,3.65,0,0,1,2.52-1.58Z" style="fill:#f28f8f"></path></g></g></g></g><g id="Plant"><g id="plant"><g id="Pot"><path d="M194,418.87l-59.93,0,6.2,25.82h0c.48,3.11,2.77,6.15,6.89,8.53,9.32,5.38,24.44,5.38,33.76,0,4.44-2.56,6.74-5.88,6.95-9.24Z" style="fill:#BA68C8"></path><path d="M194,418.87l-59.93,0,6.2,25.82h0c.48,3.11,2.77,6.15,6.89,8.53,9.32,5.38,24.44,5.38,33.76,0,4.44-2.56,6.74-5.88,6.95-9.24Z" style="fill:#fff;opacity:0.6000000000000001"></path><path d="M194,418.87l-59.93,0,6.2,25.82h0c.48,3.11,2.77,6.15,6.89,8.53,9.32,5.38,24.44,5.38,33.76,0,4.44-2.56,6.74-5.88,6.95-9.24Z" style="fill:#fff;opacity:0.6000000000000001"></path><path d="M186.64,436.56a24.78,24.78,0,0,0,3.6-2.51l3.37-13.79a24.34,24.34,0,0,1-6.06,4.81c-12.65,7.3-32.91,7.48-46,.6l1.52-6.15-.47-.65H134l6.2,25.8h0c.48,3.11,2.77,6.15,6.89,8.53,6.64,3.84,16.21,4.92,24.54,3.3-14.93,1.11-25.17-5.42-26.71-11.44-.61-2.4-1.68-7.71-1.68-7.71C155.73,443.68,174.73,443.43,186.64,436.56Z" style="fill:#BA68C8;opacity:0.2"></path><path d="M197.07,411.23a12.72,12.72,0,0,1-2,4.66,22.36,22.36,0,0,1-7.52,6.68c-13,7.51-34.11,7.51-47.12,0a22.36,22.36,0,0,1-7.52-6.68,12.86,12.86,0,0,1-2-4.66h0c-1.16-5.65,2-11.53,9.52-15.86,13-7.52,34.11-7.52,47.12,0C195.05,399.7,198.23,405.58,197.07,411.23Z" style="fill:#BA68C8"></path><path d="M197.07,411.23a12.72,12.72,0,0,1-2,4.66,22.36,22.36,0,0,1-7.52,6.68c-13,7.51-34.11,7.51-47.12,0a22.36,22.36,0,0,1-7.52-6.68,12.86,12.86,0,0,1-2-4.66h0c-1.16-5.65,2-11.53,9.52-15.86,13-7.52,34.11-7.52,47.12,0C195.05,399.7,198.23,405.58,197.07,411.23Z" style="fill:#fff;opacity:0.8"></path><path d="M195.07,415.89a22.36,22.36,0,0,1-7.52,6.68c-13,7.51-34.11,7.51-47.12,0a22.36,22.36,0,0,1-7.52-6.68,12.86,12.86,0,0,1-2-4.66h0l1.48,10.16c.68,4.08,3.72,8.07,9.15,11.2,12.4,7.15,32.5,7.15,44.9,0,5.35-3.09,8.4-7,9.12-11.06l.08-.52,1.43-9.78A12.72,12.72,0,0,1,195.07,415.89Z" style="fill:#BA68C8"></path><path d="M195.07,415.89a22.36,22.36,0,0,1-7.52,6.68c-13,7.51-34.11,7.51-47.12,0a22.36,22.36,0,0,1-7.52-6.68,12.86,12.86,0,0,1-2-4.66h0l1.48,10.16c.68,4.08,3.72,8.07,9.15,11.2,12.4,7.15,32.5,7.15,44.9,0,5.35-3.09,8.4-7,9.12-11.06l.08-.52,1.43-9.78A12.72,12.72,0,0,1,195.07,415.89Z" style="fill:#fff;opacity:0.6000000000000001"></path><path d="M183.62,397.63c-10.84-6.26-28.42-6.26-39.26,0-6.13,3.55-8.79,8.33-8,12.95.62,3.55,3.29,7,8,9.71,10.84,6.27,28.42,6.27,39.26,0,4.7-2.71,7.37-6.16,8-9.7C192.42,406,189.76,401.18,183.62,397.63Z" style="fill:#BA68C8"></path><path d="M183.62,397.63c-10.84-6.26-28.42-6.26-39.26,0-6.13,3.55-8.79,8.33-8,12.95.62,3.55,3.29,7,8,9.71,10.84,6.27,28.42,6.27,39.26,0,4.7-2.71,7.37-6.16,8-9.7C192.42,406,189.76,401.18,183.62,397.63Z" style="fill:#fff;opacity:0.6000000000000001"></path><path d="M138.2,414.87a18.56,18.56,0,0,0,6.16,5.42c10.84,6.27,28.42,6.27,39.26,0a18.56,18.56,0,0,0,6.16-5.42c-.08-3.75-2.59-7.48-7.55-10.34-10.07-5.82-26.41-5.82-36.48,0C140.8,407.39,138.29,411.13,138.2,414.87Z" style="fill:#fafafa"></path></g><path d="M155.61,374.48c-.53-15.31-6.29-39.12-11.83-48.72,8.38,10,16.78,26.83,17.45,45.3Z" style="fill:#263238"></path><path d="M172.24,407.53c.51-10.65,8.34-14.12,17.16-10.65,6.26,2.46,15.32,11.78,18.18,26.62C204.77,415.84,184.44,390,172.24,407.53Z" style="fill:#455a64"></path><path d="M172.7,412.65c.51-4,4.08-9.17,10.3-7.89s20.89,12.73,27.12,31.51c-1.14-12.61-5.23-23.47-13.65-30.51s-14.54-8.14-20.7-4.48C170.48,404.42,172.7,412.65,172.7,412.65Z" style="fill:#37474f"></path><path d="M161.53,417.8c-5.06-16.94-5.82-48.41-.94-65.43,6.89-24.05,21.19-34.59,31.87-37.14-10.11,4.22-20.78,19.63-23.78,34.71s-1.28,67.86-1.28,67.86Z" style="fill:#455a64"></path><path d="M165.69,401.28c.65-9.47,6.18-30.47,17.13-38.94s23.15-2.8,26.84,1.65c-6.64-4.64-14.59-4.43-20.35.32s-11.61,19-14.54,32.57Z" style="fill:#263238"></path><path d="M180.58,364.31c6.89-6.75,12.27-11.31,20.81-10.87s20,12.37,26.57,37.67c-6.84-16.07-15.69-30.2-29.85-31.7C187,358.22,180.58,364.31,180.58,364.31Z" style="fill:#37474f"></path><path d="M103.64,349.29c12.57-.8,25.72,2.75,37.84,13s16.93,21.74,18.76,33.45l-7.59-1.23s-6.3-19.91-17.23-30.24C125.7,355.13,118.5,351.47,103.64,349.29Z" style="fill:#455a64"></path><path d="M162.1,391c.59-8.54-3.43-26.51-16.49-38.68s-17.77-14.83-31.22-18.26c7.17,3.34,19.34,12,28,23.26s9,24.67,9,29.71C152.88,391,158.18,399.26,162.1,391Z" style="fill:#37474f"></path><path d="M161.53,395.22c-1.7-10.88,4.15-30.37,11-39.9,8.28-11.53,20.48-20.16,34-22.51-14.51,5.55-29.1,21.74-33.38,37s-1.78,31.06-1.78,31.06Z" style="fill:#37474f"></path><path d="M166.15,417.8c-1.84-10.18,1.4-31.36,18.15-43s28.31-8.6,32.71-7.27c-13-.88-26,6.34-33.93,15.27-5.52,6.2-10.71,16.36-11,33.18Z" style="fill:#455a64"></path><path d="M166.39,418.64s4.38-.11,6.14-2.17c0-6.57,1.77-19.73,11-27.5s16.41-6.28,17.86-3.23c0-4.48-5.62-8.46-11.86-7.13C179.1,380.82,164.42,394.3,166.39,418.64Z" style="fill:#263238"></path><path d="M184.09,380.61c5.68-3.09,10.55-5.75,16.89-2.8.28-.17,3.88-1.07,5.25.54,5.29,6.25,3.58,21.79-6.11,36.68,4.46-11.17,4.67-31.78-3.57-35A16.5,16.5,0,0,0,184.09,380.61Z" style="fill:#37474f"></path><path d="M201,377.81c2.55,1.18,7.78,10.12,4.4,22.59,3.14-9.42,2-18.48-3.27-22.87A5.19,5.19,0,0,0,201,377.81Z" style="fill:#263238"></path><path d="M155.23,415.6c-.5-4-4.07-9.17-10.3-7.89s-20.88,12.73-27.11,31.51c1.13-12.61,5.72-23.18,13.28-31.14,6.78-7.15,15.66-10.58,22.71-6.8S155.23,415.6,155.23,415.6Z" style="fill:#263238"></path><path d="M152.65,391.87c-5.47-5.47-9.29-10.72-19.35-8.64s-16.94,13-19.67,27.76c1.71-5.7,6.88-18.74,17.16-21S146.09,388.59,152.65,391.87Z" style="fill:#455a64"></path><path d="M155.23,415.6c-1.43-9.65-5.1-23.41-15.37-24s-21.53,5.9-26.23,19.34c2.4-12.24,12.83-23.91,23.72-23.93s21.59,2.34,24.18,30.74Z" style="fill:#37474f"></path><path d="M146.58,374.66c-4.38-4.37-10.67-6.44-14.17-7s-10.29-3.28-17.58,3.51-15,22.62-12.24,33.7C103.75,393.09,119.55,360.11,146.58,374.66Z" style="fill:#37474f"></path><path d="M163,418.75c0-8.95-6.54-37.32-16.86-44.54-12.92-9-21.56-1.34-21.56-1.34A17.27,17.27,0,0,1,140,375.31c6.67,4.88,12.89,19.15,15.27,40.29C155.23,415.6,157.48,418.81,163,418.75Z" style="fill:#263238"></path><path d="M157.13,392.11c-.63,2.62,2.09,22.13,4.18,26.53a18.4,18.4,0,0,0,6.24-.1c2-3.41.06-25.49,3.84-25.91C168.45,391.27,158.49,387.6,157.13,392.11Z" style="fill:#37474f"></path><path d="M157.13,392.11c3-3.14,15.41,3,17.73,21.47,3.09-8.75,1.71-19.56-1.37-22.3a5.56,5.56,0,0,0-6.35-.85S157.55,386.21,157.13,392.11Z" style="fill:#455a64"></path><path d="M167.14,390.43c3.79,1.59,8.12,6.85,8.07,15.82.29-4.6-.59-12.65-7.09-16.22A6.2,6.2,0,0,0,167.14,390.43Z" style="fill:#37474f"></path></g></g></svg>