<svg xmlns="http://www.w3.org/2000/svg" viewBox="0 0 750 500"><g id="background-complete"><path d="M406,394.48v43.74h-7.3V443H406v29.27H542.55V445.6H532.44v-5.8h10.11v-8.7h4.5v-4h-5.34V394.48Z" style="fill:#f5f5f5"></path><polygon points="506.3 394.61 506.3 471.75 542.55 471.75 542.55 445.12 532.44 445.12 532.44 439.8 542.55 439.98 542.55 431.28 547.13 431.29 547.05 426.79 541.71 426.66 541.71 394.48 506.3 394.61" style="fill:#e0e0e0"></polygon><path d="M508.88,442.34c0,.27-24.7.48-55.16.48s-55.18-.21-55.18-.48,24.7-.49,55.18-.49S508.88,442.07,508.88,442.34Z" style="fill:#e0e0e0"></path><path d="M508.88,437.9c0,.26-24.7.48-55.16.48s-55.18-.22-55.18-.48,24.7-.49,55.18-.49S508.88,437.63,508.88,437.9Z" style="fill:#e0e0e0"></path><path d="M516,425.94c0,.27-24.7.48-55.17.48s-55.17-.21-55.17-.48,24.7-.49,55.17-.49S516,425.67,516,425.94Z" style="fill:#e0e0e0"></path><path d="M516.65,458.52c0,.27-24.7.49-55.17.49s-55.17-.22-55.17-.49S431,458,461.48,458,516.65,458.26,516.65,458.52Z" style="fill:#e0e0e0"></path><rect x="118.43" y="259.58" width="53.48" height="65.03" transform="translate(38.07 -16) rotate(7.26)" style="fill:#fff"></rect><rect x="119.49" y="259.65" width="53.48" height="48.39" transform="translate(37.03 -16.2) rotate(7.26)" style="fill:#ebebeb"></rect><path d="M149.49,314.16c0,.09-6.89-.7-15.35-1.78s-15.31-2-15.3-2.13,6.88.7,15.35,1.77S149.5,314.06,149.49,314.16Z" style="fill:#e0e0e0"></path><path d="M131.74,315.25c0,.09-3-.21-6.68-.67a62.45,62.45,0,0,1-6.64-1,61.76,61.76,0,0,1,6.68.67A62.45,62.45,0,0,1,131.74,315.25Z" style="fill:#e0e0e0"></path><path d="M167.59,327.73a2.33,2.33,0,0,1,0-.31c0-.22.06-.52.1-.91.1-.8.24-2,.43-3.5.38-3.06.94-7.53,1.64-13.2,1.42-11.33,3.45-27.44,5.85-46.61l.14.18-53-6.74h0l.21-.16c-3,23.86-5.89,46-8.25,64.51l-.13-.17,38.46,5,10.75,1.41,2.84.38,1,.14-1-.11-2.81-.34L153.1,326l-38.58-4.84-.15,0,0-.15c2.34-18.46,5.16-40.66,8.19-64.51l0-.18.18,0h0l53,6.78.16,0,0,.16c-2.48,19.21-4.56,35.35-6,46.69-.73,5.65-1.32,10.1-1.71,13.16-.2,1.51-.36,2.67-.46,3.46l-.13.89C167.61,327.63,167.59,327.73,167.59,327.73Z" style="fill:#e0e0e0"></path><rect x="49.4" y="235.53" width="53.48" height="65.03" transform="translate(-33.41 11.84) rotate(-7.29)" style="fill:#f5f5f5"></rect><rect x="48.35" y="235.6" width="53.48" height="48.39" transform="translate(-32.37 11.63) rotate(-7.29)" style="fill:#e0e0e0"></rect><path d="M85.86,288.32c0,.09-6.84,1.05-15.3,2.14s-15.33,1.88-15.34,1.78,6.83-1.06,15.3-2.14S85.85,288.22,85.86,288.32Z" style="fill:#e0e0e0"></path><path d="M69,293.83a61.43,61.43,0,0,1-6.63,1,62,62,0,0,1-6.68.67,65.15,65.15,0,0,1,6.63-1A62,62,0,0,1,69,293.83Z" style="fill:#e0e0e0"></path><path d="M106.79,296.91s0-.11-.05-.31-.07-.51-.13-.91c-.1-.8-.26-2-.46-3.49-.4-3.06-1-7.53-1.73-13.19l-6-46.59.18.14-53,6.81h0l.16-.2c3,23.85,5.87,46,8.23,64.51l-.17-.13L92.2,298.7,103,297.36l2.84-.34,1-.11-1,.14-2.81.37-10.71,1.41-38.55,5h-.15l0-.15c-2.38-18.46-5.23-40.65-8.29-64.5l0-.18.18,0h0l53-6.77.16,0,0,.16c2.43,19.22,4.47,35.36,5.9,46.71.7,5.65,1.26,10.11,1.64,13.17.19,1.51.33,2.67.43,3.47,0,.38.08.67.1.88Z" style="fill:#e0e0e0"></path><rect x="87.59" y="217.54" width="53.48" height="65.03" transform="translate(60.39 -19.55) rotate(13.26)" style="fill:#fff"></rect><rect x="89.5" y="217.76" width="53.48" height="48.39" transform="translate(58.58 -20.21) rotate(13.26)" style="fill:#ebebeb"></rect><path d="M116.31,272.45c0,.09-6.77-1.41-15.07-3.37s-15-3.62-15-3.72,6.78,1.41,15.08,3.37S116.34,272.35,116.31,272.45Z" style="fill:#e0e0e0"></path><path d="M98.55,271.68A66.27,66.27,0,0,1,92,270.31a63.27,63.27,0,0,1-6.49-1.71A61.28,61.28,0,0,1,92.06,270,61.67,61.67,0,0,1,98.55,271.68Z" style="fill:#e0e0e0"></path><path d="M132.9,287.84l.06-.31c0-.21.11-.5.2-.89.18-.79.45-1.94.79-3.44.7-3,1.72-7.39,3-12.95,2.6-11.12,6.29-26.93,10.69-45.75l.12.2L95.72,212.45h0l.21-.13c-5.52,23.4-10.66,45.17-14.94,63.29l-.11-.18,37.73,9,10.54,2.52,2.79.68,1,.24-.94-.2L129.2,287l-10.53-2.44-37.86-8.84-.15,0,0-.15,14.88-63.3,0-.18.18,0h0l52.05,12.28.15,0,0,.16c-4.47,18.84-8.23,34.67-10.87,45.81-1.32,5.54-2.37,9.9-3.08,12.9-.36,1.48-.63,2.62-.82,3.4-.1.37-.17.66-.22.86Z" style="fill:#e0e0e0"></path><rect x="615.1" y="267.99" width="58.95" height="71.69" transform="translate(-66.02 250.46) rotate(-20.94)" style="fill:#fff"></rect><rect x="611.82" y="268.6" width="58.95" height="53.35" transform="translate(-63.18 248.72) rotate(-20.94)" style="fill:#ebebeb"></rect><path d="M660.26,323c0,.11-7,2.91-15.83,6.28s-15.94,6-16,5.9,7-2.91,15.83-6.28S660.22,322.92,660.26,323Z" style="fill:#e0e0e0"></path><path d="M643.58,333.33a138.48,138.48,0,0,1-13.82,5.29,69.15,69.15,0,0,1,6.84-2.83A70.48,70.48,0,0,1,643.58,333.33Z" style="fill:#e0e0e0"></path><path d="M684.91,326.78s0-.11-.13-.32l-.37-.93c-.32-.83-.79-2-1.41-3.63-1.22-3.17-3-7.8-5.28-13.67-44.79-27.6-37.9-39.07-18.6-48.34l.23.1-55,21.09h0l.12-.25c9.46,24.76,18.27,47.79,25.59,67l-.21-.09,40-15.2c4.81-1.83,8.59-3.26,11.18-4.23l2.95-1.11,1-.38-1,.4L681,328.31l-11.11,4.3-40,15.4-.16.06-.06-.16L604.05,281l-.07-.19.18-.07h0l55.06-21,.16-.06.06.16c7.6,20,14,36.72,18.47,48.51,2.23,5.87,4,10.5,5.19,13.67l1.35,3.61.35.92Z" style="fill:#e0e0e0"></path></g><g id="background-simple"><path d="M148.38,417.31l2.27-.8c19.21-6.72,33.42-23.22,36.35-43.17a54.43,54.43,0,0,0,.56-7.76c0-18.71-10.28-37.15-26.25-47.28-9.39-5.95-20.9-9.5-27.47-18.42-8.55-11.6-5.5-27.59-2.1-41.5s6.4-29.91-2.2-41.48c-5.38-7.24-14.41-11.1-23.38-12.5-23.74-3.73-48.2,8.19-63,26.78s-21,42.9-21.19,66.64c-.33,33.26,10.91,67.34,34.32,91.35S115.85,425.66,148.38,417.31Z" style="fill:#f5f5f5"></path><path d="M697.73,352.05l-.45-2.38c-3.81-20-18-36.48-37.33-42.32a52.74,52.74,0,0,0-7.59-1.7,57.22,57.22,0,0,0-50.63,19c-7.28,8.4-12.49,19.27-22.28,24.44-12.74,6.74-28.11,1.37-41.36-4.05s-28.63-10.75-41.35-4c-8,4.25-13.1,12.61-15.82,21.27-7.19,22.93,1,48.88,17.17,66.31s39.33,27.07,62.78,30.81c32.84,5.24,68.2-.84,95.41-20.44S701.18,385.45,697.73,352.05Z" style="fill:#f5f5f5"></path><circle cx="683.62" cy="228.47" r="29.31" style="fill:#f5f5f5"></circle></g><g id="Table"><path d="M698.46,472.8c0,.14-144.83.26-323.44.26s-323.48-.12-323.48-.26,144.8-.26,323.48-.26S698.46,472.65,698.46,472.8Z" style="fill:#263238"></path></g><g id="color-palette"><rect x="580.61" y="132.41" width="141.4" height="46.57" rx="6.39" transform="translate(-14.66 85.44) rotate(-7.42)" style="fill:#fafafa"></rect><path d="M583.39,181.59s0,.32.21.91a6.29,6.29,0,0,0,1.31,2.4,6.4,6.4,0,0,0,3.82,2.12,9.2,9.2,0,0,0,2.84-.12l3.24-.43,38.77-5.12,57.51-7.53,16.63-2.17,8.58-1.12c.72-.11,1.46-.17,2.16-.31a6.1,6.1,0,0,0,2-.75,6.25,6.25,0,0,0,2.67-3.27,5.86,5.86,0,0,0,.35-2.12c0-.71-.15-1.46-.24-2.2-.19-1.49-.39-3-.58-4.48-.4-3-.79-6-1.19-9.05q-1.19-9.14-2.41-18.5a6.21,6.21,0,0,0-6.31-5.4c-3.05.33-6.14.78-9.17,1.16l-18,2.34-34,4.41-57.52,7.45-6,.78-2.89.37a7.23,7.23,0,0,0-2.67.71,6.28,6.28,0,0,0-3.25,4c-.47,1.68,0,3.38.18,5,.84,6.51,1.55,12.11,2.14,16.69s1,8.13,1.34,10.55c.15,1.2.26,2.12.34,2.74s.1.94.1.94-.06-.32-.14-.93-.22-1.54-.38-2.74c-.32-2.42-.8-6-1.41-10.54s-1.35-10.18-2.21-16.68c-.1-.81-.21-1.64-.32-2.48a6.79,6.79,0,0,1,.13-2.61,6.55,6.55,0,0,1,3.36-4.17,7.75,7.75,0,0,1,2.76-.74l2.88-.38,6-.78L651.57,132l34-4.44,18-2.34c3-.38,6.08-.83,9.21-1.17a6.6,6.6,0,0,1,6.71,5.75q1.23,9.36,2.41,18.5.6,4.56,1.18,9c.2,1.5.39,3,.58,4.48.09.74.22,1.47.25,2.25a6.41,6.41,0,0,1-.38,2.25,6.52,6.52,0,0,1-4.94,4.27c-.74.14-1.45.2-2.18.31L707.76,172l-16.62,2.16-57.52,7.45-38.79,5-3.24.41a9,9,0,0,1-2.87.1,6.42,6.42,0,0,1-3.87-2.18,6.11,6.11,0,0,1-1.28-2.44,4,4,0,0,1-.15-.69Z" style="fill:#263238"></path><rect x="680.08" y="138.19" width="42.84" height="21.95" transform="translate(758.79 -565.72) rotate(82.58)" style="fill:#FF725E"></rect><rect x="649.25" y="142.21" width="42.84" height="21.95" transform="translate(735.93 -531.66) rotate(82.58)" style="fill:#FF725E"></rect><rect x="618.43" y="146.22" width="42.84" height="21.95" transform="translate(713.06 -497.6) rotate(82.58)" style="fill:#FF725E"></rect><rect x="587.6" y="150.24" width="42.84" height="21.95" transform="translate(690.2 -463.53) rotate(82.58)" style="fill:#FF725E"></rect><g style="opacity:0.5"><rect x="680.08" y="138.19" width="42.84" height="21.95" transform="translate(758.79 -565.72) rotate(82.58)"></rect></g><g style="opacity:0.6000000000000001"><rect x="649.25" y="142.21" width="42.84" height="21.95" transform="translate(735.93 -531.66) rotate(82.58)"></rect></g><g style="opacity:0.7000000000000001"><rect x="618.43" y="146.22" width="42.84" height="21.95" transform="translate(713.06 -497.6) rotate(82.58)"></rect></g><g style="opacity:0.8"><rect x="587.6" y="150.24" width="42.84" height="21.95" transform="translate(690.2 -463.53) rotate(82.58)"></rect></g><path d="M583.38,175.69l-15.14-29.34a6.79,6.79,0,0,1,2.92-9.14L684.77,78.6a6.77,6.77,0,0,1,9.13,2.91L709,110.85a6.78,6.78,0,0,1-2.92,9.14L592.51,178.6A6.77,6.77,0,0,1,583.38,175.69Z" style="fill:#fafafa"></path><path d="M583.38,175.69a1.53,1.53,0,0,1,.13.2c.09.13.19.34.38.59a6.46,6.46,0,0,0,2,1.84,6.62,6.62,0,0,0,4.27.93,7.26,7.26,0,0,0,2.67-.89l2.9-1.51L630.4,158.9l51.43-26.59,14.87-7.67,7.68-4a10.69,10.69,0,0,0,3.57-2.36,6.6,6.6,0,0,0,1.43-6,10.05,10.05,0,0,0-.86-2l-2.07-4-4.18-8.1-8.54-16.55a6.57,6.57,0,0,0-7.72-3.3,12,12,0,0,0-2.08.94l-2.06,1.06-4.1,2.12L661.7,90.72l-30.4,15.67L579.83,132.9l-5.36,2.76L571.89,137a7.91,7.91,0,0,0-2.31,1.54,6.64,6.64,0,0,0-1.47,7.25c.32.76.75,1.49,1.11,2.22l7.67,14.94c2.09,4.1,3.72,7.28,4.83,9.45.55,1.08,1,1.9,1.25,2.46s.41.85.41.85-.16-.28-.45-.83l-1.28-2.44c-1.12-2.16-2.78-5.33-4.9-9.42L569,148.1c-.37-.74-.78-1.45-1.13-2.24a7,7,0,0,1,1.51-7.52,8.5,8.5,0,0,1,2.37-1.59l2.58-1.33,5.35-2.77,51.44-26.59,30.38-15.69,16.07-8.29,4.1-2.12,2.06-1.06a12.35,12.35,0,0,1,2.15-1,7,7,0,0,1,8.18,3.5L702.62,98l4.18,8.1,2.06,4a9.46,9.46,0,0,1,.89,2.09,6.72,6.72,0,0,1,.22,2.27,7,7,0,0,1-1.73,4.13A6.61,6.61,0,0,1,706.5,120c-.65.37-1.3.68-1.94,1l-7.69,4L682,132.64l-51.47,26.51L595.81,177l-2.9,1.49a7.53,7.53,0,0,1-2.73.89,6.83,6.83,0,0,1-4.33-1,6.38,6.38,0,0,1-2-1.89,5.26,5.26,0,0,1-.37-.6A2.35,2.35,0,0,1,583.38,175.69Z" style="fill:#263238"></path><rect x="662.2" y="94.42" width="42.84" height="21.95" transform="translate(463.82 -550.45) rotate(62.71)" style="fill:#FF725E"></rect><rect x="634.57" y="108.68" width="42.84" height="21.95" transform="translate(461.53 -518.18) rotate(62.71)" style="fill:#FF725E"></rect><rect x="606.95" y="122.93" width="42.84" height="21.95" transform="translate(459.24 -485.91) rotate(62.71)" style="fill:#FF725E"></rect><rect x="579.32" y="137.18" width="42.84" height="21.95" transform="translate(456.95 -453.64) rotate(62.71)" style="fill:#FF725E"></rect><g style="opacity:0.1"><rect x="662.2" y="94.42" width="42.84" height="21.95" transform="translate(463.82 -550.45) rotate(62.71)"></rect></g><g style="opacity:0.2"><rect x="634.57" y="108.68" width="42.84" height="21.95" transform="translate(461.53 -518.18) rotate(62.71)"></rect></g><g style="opacity:0.30000000000000004"><rect x="606.95" y="122.93" width="42.84" height="21.95" transform="translate(459.24 -485.91) rotate(62.71)"></rect></g><g style="opacity:0.4"><rect x="579.32" y="137.18" width="42.84" height="21.95" transform="translate(456.95 -453.64) rotate(62.71)"></rect></g><path d="M586.85,175.06l-25.19-20.65a7,7,0,0,1-1-9.85L641.43,46a7,7,0,0,1,9.85-1l25.2,20.65a7,7,0,0,1,1,9.85l-80.74,98.54A7,7,0,0,1,586.85,175.06Z" style="fill:#fafafa"></path><path d="M586.85,175.06l.2.13c.13.08.31.24.58.39a6.76,6.76,0,0,0,2.56.93,7,7,0,0,0,4.32-.72c1.63-.76,2.74-2.57,4.23-4.32l24.67-30.2L660,96.51l10.59-12.93,5.47-6.68a11.62,11.62,0,0,0,2.38-3.57,6.91,6.91,0,0,0,.08-4.22,7.06,7.06,0,0,0-2.47-3.5q-1.74-1.41-3.48-2.85L665.55,57,651.17,45.2A6.91,6.91,0,0,0,647,43.66a6.78,6.78,0,0,0-4.23,1.39,9.34,9.34,0,0,0-1.58,1.62l-1.47,1.79c-1,1.2-1.95,2.38-2.92,3.57L625.31,66,603.65,92.41,567,137.12l-3.83,4.66L561.29,144a8.84,8.84,0,0,0-1.53,2.31,6.93,6.93,0,0,0-.07,5.18,6.63,6.63,0,0,0,1.34,2.13,19.3,19.3,0,0,0,1.86,1.64l13,10.65c3.55,2.93,6.3,5.21,8.18,6.75l2.12,1.77c.48.39.71.61.71.61l-.74-.58L584,172.74l-8.23-6.69-13-10.6a20.66,20.66,0,0,1-1.89-1.65,7,7,0,0,1-1.39-2.21,7.16,7.16,0,0,1,.06-5.36,8.85,8.85,0,0,1,1.56-2.37l1.84-2.25,3.81-4.66,36.63-44.77L625,65.75l11.45-14,2.92-3.57c.49-.59,1-1.19,1.46-1.79a10.13,10.13,0,0,1,1.65-1.69,7.23,7.23,0,0,1,8.93.17L665.8,56.69l7.05,5.77,3.47,2.85a7.37,7.37,0,0,1,2.6,3.68,7.26,7.26,0,0,1-.09,4.47,7,7,0,0,1-1.06,2c-.45.59-.92,1.13-1.38,1.7q-2.76,3.38-5.47,6.68-5.43,6.6-10.6,12.92l-36.69,44.71-24.77,30.12-2.07,2.52a7,7,0,0,1-6.61,2.5,6.59,6.59,0,0,1-2.57-1A7.53,7.53,0,0,1,586.85,175.06Z" style="fill:#263238"></path><rect x="629.73" y="59.93" width="42.84" height="21.95" transform="translate(192.44 -396.65) rotate(39.33)" style="fill:#FF725E"></rect><rect x="610.02" y="83.98" width="42.84" height="21.95" transform="translate(203.22 -378.72) rotate(39.33)" style="fill:#FF725E"></rect><rect x="590.32" y="108.02" width="42.84" height="21.95" transform="translate(213.99 -360.78) rotate(39.33)" style="fill:#FF725E"></rect><rect x="570.62" y="132.07" width="42.84" height="21.95" transform="translate(224.77 -342.85) rotate(39.33)" style="fill:#FF725E"></rect><g style="opacity:0.5"><rect x="629.73" y="59.93" width="42.84" height="21.95" transform="translate(192.44 -396.65) rotate(39.33)" style="fill:#fff"></rect></g><g style="opacity:0.6000000000000001"><rect x="610.02" y="83.98" width="42.84" height="21.95" transform="translate(203.22 -378.72) rotate(39.33)" style="fill:#fff"></rect></g><g style="opacity:0.7000000000000001"><rect x="590.32" y="108.02" width="42.84" height="21.95" transform="translate(213.99 -360.78) rotate(39.33)" style="fill:#fff"></rect></g><g style="opacity:0.8"><rect x="570.62" y="132.07" width="42.84" height="21.95" transform="translate(224.77 -342.85) rotate(39.33)" style="fill:#fff"></rect></g><rect x="520.94" y="79.23" width="141.4" height="46.57" rx="6.51" transform="translate(319.2 637.61) rotate(-72.85)" style="fill:#fafafa"></rect><path d="M586.82,175a8.76,8.76,0,0,0,.92.19A6.47,6.47,0,0,0,594,172.5a8.09,8.09,0,0,0,1.12-2.6l1-3.13,11.46-37.36L624.62,74q2.4-7.81,4.93-16l2.55-8.27c.21-.69.45-1.4.63-2.09a6.84,6.84,0,0,0,.16-2.12,6.45,6.45,0,0,0-1.8-3.81,6,6,0,0,0-1.75-1.25,15.59,15.59,0,0,0-2.09-.72l-4.31-1.33-8.72-2.69-17.82-5.5a6.32,6.32,0,0,0-4.45.28,6.18,6.18,0,0,0-3.15,3.12c-.3.68-.5,1.45-.74,2.18L587.38,38c-.45,1.48-.91,3-1.36,4.41q-2.71,8.79-5.35,17.31l-10.1,32.71-17.14,55.38-1.79,5.77c-.29.94-.58,1.86-.86,2.78a7.4,7.4,0,0,0-.48,2.72,6.36,6.36,0,0,0,2.21,4.66c1.29,1.19,3,1.45,4.58,2l16.06,5,10.14,3.16,2.63.84.9.29-.91-.25-2.64-.8-10.17-3.1L557,166l-2.39-.74a6.62,6.62,0,0,1-4.58-6.11,7.69,7.69,0,0,1,.48-2.81c.29-.91.57-1.84.86-2.78.57-1.87,1.17-3.8,1.77-5.77C558,132,563.8,113.19,570.22,92.33c3.21-10.43,6.59-21.37,10.09-32.72,1.75-5.67,3.53-11.45,5.33-17.3.46-1.47.91-2.94,1.36-4.42l.69-2.21a21.64,21.64,0,0,1,.75-2.23,6.59,6.59,0,0,1,3.34-3.32,6.74,6.74,0,0,1,4.74-.3l17.82,5.5L623.06,38l4.3,1.33a16,16,0,0,1,2.14.75,6.82,6.82,0,0,1,1.87,1.32,6.9,6.9,0,0,1,1.9,4.06,6.75,6.75,0,0,1-.17,2.24c-.19.74-.42,1.41-.63,2.11-.86,2.79-1.71,5.54-2.56,8.27q-2.52,8.19-4.94,16l-17.14,55.38-11.59,37.33c-.34,1.1-.66,2.14-1,3.12-.15.49-.3,1-.47,1.41l-.31.64c-.13.19-.24.39-.37.58a6.49,6.49,0,0,1-3.64,2.54,6.23,6.23,0,0,1-2.75.14,4.82,4.82,0,0,1-.69-.16Z" style="fill:#263238"></path><rect x="585.14" y="43.19" width="42.84" height="21.95" transform="translate(42.95 -176.47) rotate(17.15)" style="fill:#FF725E"></rect><rect x="575.97" y="72.89" width="42.84" height="21.95" transform="translate(51.3 -172.44) rotate(17.15)" style="fill:#FF725E"></rect><rect x="566.81" y="102.6" width="42.84" height="21.95" transform="translate(59.65 -168.42) rotate(17.15)" style="fill:#FF725E"></rect><rect x="557.64" y="132.3" width="42.83" height="21.95" transform="translate(68.01 -164.4) rotate(17.15)" style="fill:#FF725E"></rect><g style="opacity:0.2"><rect x="575.97" y="72.89" width="42.84" height="21.95" transform="translate(51.3 -172.44) rotate(17.15)" style="fill:#fff"></rect></g><g style="opacity:0.30000000000000004"><rect x="566.81" y="102.6" width="42.84" height="21.95" transform="translate(59.65 -168.42) rotate(17.15)" style="fill:#fff"></rect></g><g style="opacity:0.4"><rect x="557.64" y="132.3" width="42.83" height="21.95" transform="translate(68.01 -164.4) rotate(17.15)" style="fill:#fff"></rect></g><g style="opacity:0.1"><rect x="585.14" y="43.19" width="42.84" height="21.95" transform="translate(42.95 -176.47) rotate(17.15)" style="fill:#fff"></rect></g><path d="M591.54,168.29a5.15,5.15,0,1,1-1.86-7A5.15,5.15,0,0,1,591.54,168.29Z" style="fill:#455a64"></path><path d="M591.54,168.29s.21-.41.42-1.19a5.12,5.12,0,0,0-.24-3.32,5,5,0,0,0-3.74-3,5,5,0,0,0-2.87.34,5,5,0,0,0-3,5.07,4.92,4.92,0,0,0,1.12,2.66,5,5,0,0,0,4.43,1.79,5.12,5.12,0,0,0,3-1.43c.57-.56.79-1,.82-1s0,.11-.14.3a4.21,4.21,0,0,1-.57.76,5.12,5.12,0,0,1-3.09,1.6,5.46,5.46,0,0,1-2.43-.24,5.32,5.32,0,0,1-2.31-1.6,5.23,5.23,0,0,1-1.22-2.85A5.3,5.3,0,0,1,585,160.8a5.29,5.29,0,0,1,7,2.87,5.1,5.1,0,0,1,.13,3.47,3.61,3.61,0,0,1-.38.88C591.62,168.2,591.56,168.3,591.54,168.29Z" style="fill:#263238"></path></g><g id="Blueprint"><rect x="223.21" y="67.38" width="339.22" height="226.15" style="fill:#fafafa"></rect><path d="M562.44,293.53c0-1.7-.08-88.31-.21-226.15l.21.2-339.2.06h0l.26-.26c0,80.53,0,157.13,0,226.15l-.24-.24,339.23.24-339.23.23H223v-.23c0-69,0-145.62,0-226.15v-.26h.29l339.2,0h.2v.21C562.52,205.22,562.44,291.83,562.44,293.53Z" style="fill:#263238"></path><path d="M403.78,165.74s0-.26,0-.73,0-1.19,0-2.08c0-1.84,0-4.49-.06-7.86,0-6.77-.06-16.43-.11-28.08l.22.21-49.8,0c-.06,0,.49-.49.26-.26h0v10.3q0,5.08,0,10c0,6.49,0,12.69,0,18.48l-.23-.24,35.91.12,10.21.06,2.72,0h.71l.25,0h-.91l-2.67,0-10.16.06L354,166h-.23v-.23c0-5.79,0-12,0-18.48,0-3.25,0-6.57,0-10V127h0l.26-.26,49.8,0H404V127c-.05,11.71-.08,21.41-.11,28.21,0,3.36,0,6-.06,7.82,0,.87,0,1.55,0,2S403.78,165.74,403.78,165.74Z" style="fill:#263238"></path><path d="M508.77,257.5H241.43V87.07H508.77Zm-266.34-1H507.77V88.07H242.43Z" style="fill:#263238"></path><rect x="241.93" y="87.57" width="266.34" height="8.63" style="fill:#263238"></rect><rect x="241.93" y="133.73" width="9.67" height="123.27" style="fill:#263238"></rect><rect x="241.93" y="87.57" width="9.67" height="16.25" style="fill:#263238"></rect><path d="M265.69,129.14l-17.67-26,3.11-2.11,17.67,26Zm-16.28-25.73L266,127.75l1.46-1-16.54-24.34Z" style="fill:#263238"></path><path d="M277.25,191H254v-25h23.23ZM255,190h21.23v-23H255Z" style="fill:#263238"></path><rect x="241.93" y="247.24" width="266.34" height="9.76" style="fill:#263238"></rect><path d="M265.64,185.45a6.66,6.66,0,1,1,6.65-6.66A6.67,6.67,0,0,1,265.64,185.45Zm0-12.32a5.66,5.66,0,1,0,5.65,5.66A5.67,5.67,0,0,0,265.64,173.13Z" style="fill:#263238"></path><path d="M425.21,120h-90V95.7h90Zm-89-1h88V96.7h-88Z" style="fill:#263238"></path><path d="M365.58,116.88,355,108.05l8.83-10.55,10.55,8.83Zm-9.15-8.95,9,7.55,7.55-9-9-7.55Z" style="fill:#263238"></path><path d="M379.63,116.88l-10.55-8.83,8.83-10.55,10.56,8.83Zm-9.14-8.95,9,7.55,7.55-9-9-7.55Z" style="fill:#263238"></path><path d="M393.69,116.88l-10.56-8.83L392,97.5l10.56,8.83Zm-9.15-8.95,9,7.55,7.55-9-9-7.55Z" style="fill:#263238"></path><path d="M439.53,115.44a8.25,8.25,0,1,1,8.25-8.25A8.26,8.26,0,0,1,439.53,115.44Zm0-15.5a7.25,7.25,0,1,0,7.25,7.25A7.26,7.26,0,0,0,439.53,99.94Z" style="fill:#263238"></path><path d="M329.49,117.46H290.9V95.7h38.59Zm-37.59-1h36.59V96.7H291.9Z" style="fill:#263238"></path><path d="M499.88,167.73H477.6V110.35h22.28Zm-21.28-1h20.28V111.35H478.6Z" style="fill:#263238"></path><rect x="499.38" y="87.57" width="8.89" height="159.67" style="fill:#263238"></rect><path d="M467.12,155.54H465.5a6.78,6.78,0,0,1-6.77-6.77v-13A6.78,6.78,0,0,1,465.5,129h1.62a6.78,6.78,0,0,1,6.77,6.77v13A6.78,6.78,0,0,1,467.12,155.54ZM465.5,130a5.78,5.78,0,0,0-5.77,5.77v13a5.78,5.78,0,0,0,5.77,5.77h1.62a5.78,5.78,0,0,0,5.77-5.77v-13a5.78,5.78,0,0,0-5.77-5.77Z" style="fill:#263238"></path><path d="M362.81,195.25c0,.14-25.25.26-56.39.26s-56.4-.12-56.4-.26,25.24-.26,56.4-.26S362.81,195.11,362.81,195.25Z" style="fill:#263238"></path><path d="M362,216.19a17.69,17.69,0,0,1-.19-3.14c-.05-1.94-.07-4.63-.07-7.59s0-5.65.07-7.59a17.76,17.76,0,0,1,.19-3.15,19.92,19.92,0,0,1,.18,3.15c0,1.94.08,4.62.08,7.59s0,5.65-.08,7.59A19.85,19.85,0,0,1,362,216.19Z" style="fill:#263238"></path><path d="M280.55,248.41H251.1V194.75h29.45Zm-28.45-1h27.45V195.75H252.1Z" style="fill:#263238"></path><path d="M541.72,87.57c0,.14-11.09.26-24.77.26s-24.77-.12-24.77-.26,11.08-.26,24.77-.26S541.72,87.42,541.72,87.57Z" style="fill:#263238"></path><path d="M541.32,272.85c-.14,0-.26-42.68-.26-95.31s.12-95.32.26-95.32.26,42.67.26,95.32S541.46,272.85,541.32,272.85Z" style="fill:#263238"></path><path d="M551.23,257.39c0,.15-9.94.27-22.19.27s-22.2-.12-22.2-.27,9.94-.26,22.2-.26S551.23,257.25,551.23,257.39Z" style="fill:#263238"></path><path d="M507.63,272.06a95.91,95.91,0,0,1-.26-9.91,95.91,95.91,0,0,1,.26-9.91,92.65,92.65,0,0,1,.26,9.91A92.65,92.65,0,0,1,507.63,272.06Z" style="fill:#263238"></path><path d="M244.07,268.1c0-.15,66-.26,147.43-.26s147.44.11,147.44.26-66,.26-147.44.26S244.07,268.24,244.07,268.1Z" style="fill:#263238"></path><path d="M242.89,272.85a59.27,59.27,0,0,1-.26-7.92,59.37,59.37,0,0,1,.26-7.93,61.46,61.46,0,0,1,.26,7.93A61.36,61.36,0,0,1,242.89,272.85Z" style="fill:#263238"></path><path d="M268.66,127a4,4,0,0,1-.72.69c-.48.42-1.22,1-2.16,1.65a29.34,29.34,0,0,1-8.07,3.87,35.54,35.54,0,0,1-8.84,1.41c-1.15,0-2.07,0-2.71,0a3.28,3.28,0,0,1-1-.09c0-.09,1.41-.11,3.68-.28a42.22,42.22,0,0,0,8.71-1.55,33.11,33.11,0,0,0,8-3.68C267.49,127.8,268.6,126.92,268.66,127Z" style="fill:#263238"></path><path d="M378,242.52l-17.67-26,3.11-2.11,17.66,26Zm-16.28-25.73,16.54,24.34,1.46-1L363.17,215.8Z" style="fill:#263238"></path><path d="M381,240.36a3.63,3.63,0,0,1-.72.69,23.16,23.16,0,0,1-2.16,1.65,29.05,29.05,0,0,1-8.07,3.88,36.5,36.5,0,0,1-8.84,1.41c-1.15,0-2.07,0-2.71,0a3.37,3.37,0,0,1-1-.1c0-.08,1.41-.11,3.68-.28a42.11,42.11,0,0,0,8.71-1.54,33.09,33.09,0,0,0,8-3.69C379.79,241.18,380.9,240.29,381,240.36Z" style="fill:#263238"></path><path d="M354,118.41c-.14,0-.26-4.87-.26-10.87s.12-10.88.26-10.88.26,4.87.26,10.88S354.12,118.41,354,118.41Z" style="fill:#263238"></path><path d="M403,119.36c-.14,0-.26-4.92-.26-11s.12-11,.26-11,.27,4.92.27,11S403.11,119.36,403,119.36Z" style="fill:#263238"></path><path d="M477.58,202.18a2.08,2.08,0,0,1,0-.55c0-.42.08-.94.14-1.57.16-1.43.37-3.38.63-5.76l1-8.53a12.26,12.26,0,0,0,.16-2.41,2.15,2.15,0,0,0-1.3-1.81,16.07,16.07,0,0,0-2.51-.72l-2.69-.65-18.55-4.58-5.61-1.45-1.52-.42a1.81,1.81,0,0,1-.52-.18,2,2,0,0,1,.54.08l1.54.32,5.65,1.29,18.59,4.44,2.68.65a15.07,15.07,0,0,1,2.63.76,3,3,0,0,1,1.1.9,2.72,2.72,0,0,1,.46,1.31,11.47,11.47,0,0,1-.18,2.53c-.41,3.19-.79,6.07-1.11,8.52s-.6,4.31-.8,5.73q-.13.94-.24,1.56A2,2,0,0,1,477.58,202.18Z" style="fill:#263238"></path><path d="M458.17,171.63a19.19,19.19,0,0,1-3.13.71c-2,.37-4.65.85-7.64,1.35l.16-.42.09.11c1.92,2.39,3.63,4.57,4.85,6.17a19.56,19.56,0,0,1,1.88,2.65,20,20,0,0,1-2.17-2.42c-1.29-1.54-3-3.69-5-6.08l-.08-.11-.28-.34.44-.08c3-.49,5.7-.91,7.66-1.19A20,20,0,0,1,458.17,171.63Z" style="fill:#263238"></path><path d="M339.94,192.18H280.46v-39.4h59.48Zm-58.48-1h57.48v-37.4H281.46Z" style="fill:#263238"></path><path d="M297.23,191.52c-.14,0-.26-8.46-.26-18.89s.12-18.88.26-18.88.26,8.45.26,18.88S297.38,191.52,297.23,191.52Z" style="fill:#263238"></path><path d="M324.11,191.39c-.14,0-.26-8.43-.26-18.82s.12-18.82.26-18.82.26,8.42.26,18.82S324.26,191.39,324.11,191.39Z" style="fill:#263238"></path><path d="M375.86,144s-3.25,47.63.8,55.34h49.81l-2-53.12Z" style="fill:#e0e0e0"></path><path d="M375.86,144c.35,19.82,2,37.74,5.61,52.93l56.06.42S432,151.8,432,144Z" style="fill:#FF725E"></path><path d="M425.78,161.91a4.43,4.43,0,0,1-.67.75,8.22,8.22,0,0,1-7,2.05,8.5,8.5,0,0,1-5.15-3.15,6.11,6.11,0,0,1-.88-1.54,2.9,2.9,0,0,1-.11-1.89,2.1,2.1,0,0,1,1.44-1.39,1.63,1.63,0,0,1,1.08.14,1.76,1.76,0,0,1,.73.82,4.37,4.37,0,0,1-.72,4.07,10.27,10.27,0,0,1-3.16,3.06,10,10,0,0,1-9.13.87,5.55,5.55,0,0,1-3.32-3.7,4.14,4.14,0,0,1,.38-2.61,3.35,3.35,0,0,1,2-1.79,2.89,2.89,0,0,1,2.63.52,4.09,4.09,0,0,1,1.44,2.21,4,4,0,0,1-.22,2.59,5.87,5.87,0,0,1-1.48,2.05,8.93,8.93,0,0,1-9,1.5A8.69,8.69,0,0,1,391,164a9.43,9.43,0,0,1-1.9-3.69,9.06,9.06,0,0,1-.19-3.86,6.6,6.6,0,0,1,.53-1.77,2.38,2.38,0,0,1,1.27-1.3,1.66,1.66,0,0,1,1.7.36,3.28,3.28,0,0,1,.85,1.39,5.83,5.83,0,0,1,0,2.9,7.87,7.87,0,0,1-2.28,4,7.26,7.26,0,0,1-2.46,1.53,3.75,3.75,0,0,1-1,.25s.34-.09.94-.35a7.49,7.49,0,0,0,2.36-1.58A7.74,7.74,0,0,0,393,158a5.51,5.51,0,0,0-.07-2.73,2.9,2.9,0,0,0-.76-1.24,1.32,1.32,0,0,0-1.34-.28,2.12,2.12,0,0,0-1.06,1.12,6.44,6.44,0,0,0-.47,1.67,8.92,8.92,0,0,0,.2,3.69,9,9,0,0,0,1.84,3.5,8.31,8.31,0,0,0,3.44,2.34,8.47,8.47,0,0,0,8.48-1.42,5.34,5.34,0,0,0,1.35-1.88,3.51,3.51,0,0,0,.2-2.26,3.58,3.58,0,0,0-1.26-1.93,2.38,2.38,0,0,0-2.16-.44,3.4,3.4,0,0,0-2,3.81,5,5,0,0,0,3,3.33,9.85,9.85,0,0,0,11.69-3.71,5,5,0,0,0,.83-1.8,3.17,3.17,0,0,0-.11-1.84,1.17,1.17,0,0,0-1.33-.73,1.7,1.7,0,0,0-1.15,1.11,3.61,3.61,0,0,0,.91,3.07,8,8,0,0,0,9.32,2.7A9.18,9.18,0,0,0,425.78,161.91Z" style="fill:#263238"></path><path d="M431.62,180.83a10.06,10.06,0,0,1-3.11,1.63,13.23,13.23,0,0,1-4.07.71,13,13,0,0,1-5.37-1,7,7,0,0,1-2.7-1.78,2.27,2.27,0,0,1-.53-1.72,1.87,1.87,0,0,1,1.13-1.51,1.52,1.52,0,0,1,1.77.81,2.17,2.17,0,0,1,0,2,4.72,4.72,0,0,1-1.22,1.57,8.11,8.11,0,0,1-1.63,1.21,10.48,10.48,0,0,1-8.28.91,9.21,9.21,0,0,1-3.87-2.3,5.83,5.83,0,0,1-1.31-2,3.42,3.42,0,0,1-.09-2.42,2.86,2.86,0,0,1,1.64-1.81,2.41,2.41,0,0,1,2.38.44,3.22,3.22,0,0,1,1.16,2.06,4.61,4.61,0,0,1-.31,2.28,8.91,8.91,0,0,1-6.46,5.19,9,9,0,0,1-7.3-1.83,5.74,5.74,0,0,1-2-2.84,3.88,3.88,0,0,1-.14-1.69,2.25,2.25,0,0,1,.86-1.41,2.41,2.41,0,0,1,2.88.17,2.82,2.82,0,0,1,1.14,2.35,4.87,4.87,0,0,1-1.93,3.6,11.45,11.45,0,0,1-2.22,1.37l-.62.28-.21.08a6.6,6.6,0,0,1,.78-.45,13.49,13.49,0,0,0,2.14-1.43,4.67,4.67,0,0,0,1.77-3.45,2.54,2.54,0,0,0-1-2.09,2.09,2.09,0,0,0-2.47-.13,1.83,1.83,0,0,0-.7,1.18,3.38,3.38,0,0,0,.15,1.5,5.29,5.29,0,0,0,1.93,2.62,8.42,8.42,0,0,0,13-3.2,4.06,4.06,0,0,0,.28-2,2.7,2.7,0,0,0-1-1.73,1.87,1.87,0,0,0-1.86-.35,2.35,2.35,0,0,0-1.34,1.48,3,3,0,0,0,.08,2.07,5.48,5.48,0,0,0,1.2,1.78,8.82,8.82,0,0,0,3.65,2.18,10,10,0,0,0,7.89-.85,7.55,7.55,0,0,0,1.54-1.13,4.39,4.39,0,0,0,1.14-1.42,1.74,1.74,0,0,0,0-1.6,1.06,1.06,0,0,0-1.23-.61,1.44,1.44,0,0,0-.86,1.16,1.86,1.86,0,0,0,.44,1.41,6.87,6.87,0,0,0,2.52,1.69,12.68,12.68,0,0,0,5.23,1.07,13.22,13.22,0,0,0,4-.61A18.61,18.61,0,0,0,431.62,180.83Z" style="fill:#263238"></path></g><g id="Picture"><rect x="72.34" y="48.42" width="124.78" height="124.78" transform="translate(-11.69 15.98) rotate(-6.51)" style="fill:#fff"></rect><path d="M203.79,165.73s0-.2-.08-.59-.12-1-.21-1.71c-.18-1.52-.44-3.75-.78-6.66-.68-5.82-1.67-14.35-2.94-25.2L189.43,41.78l.25.2-124,14.17h0l.22-.29c5.17,45.4,10,88,14.11,124l-.25-.2,89.82-10.13,25.22-2.81,6.66-.74,1.71-.18.59-.05-.56.07-1.69.21-6.61.78-25.15,2.93L79.84,180.09l-.22,0,0-.23c-4.12-36-9-78.57-14.17-124l0-.26.26,0h0l124-14.1.23,0,0,.23c4.2,37.21,7.7,68.23,10.15,90l2.81,25.17c.32,2.89.56,5.11.73,6.62l.18,1.69C203.78,165.54,203.79,165.73,203.79,165.73Z" style="fill:#263238"></path><rect x="78.79" y="54.86" width="111.89" height="111.89" transform="translate(-11.69 15.98) rotate(-6.51)" style="fill:#ebebeb"></rect><path d="M196.66,160.05s0-.18-.07-.52-.11-.87-.19-1.54c-.16-1.36-.4-3.36-.71-6-.61-5.23-1.5-12.87-2.64-22.6-2.24-19.45-5.45-47.21-9.3-80.51l.25.2L72.85,61.82h0l.23-.28c4.63,40.71,9,78.86,12.64,111.17l-.25-.2L166,163.44l22.61-2.52,6-.66,1.54-.16.53,0-.5.07-1.52.19-5.92.7-22.55,2.63L85.51,173l-.22,0,0-.22c-3.69-32.31-8.05-70.46-12.71-111.17l0-.25.26,0h0L184,48.66l.23,0,0,.22c3.76,33.37,6.89,61.19,9.09,80.67l2.51,22.57c.29,2.59.51,4.58.65,5.93.07.67.13,1.17.16,1.52S196.66,160.05,196.66,160.05Z" style="fill:#263238"></path><path d="M149.34,129.76c-.05,0,4.22,23.44,4.22,23.44l-4.21.48L142.08,131Z" style="fill:#455a64"></path><path d="M173.9,126.54c-.05,0,4.21,23.45,4.21,23.45l-4.21.48-7.26-22.72Z" style="fill:#455a64"></path><polygon points="102.76 134.24 102.77 159 106.95 158.52 109.86 134.26 102.76 134.24" style="fill:#455a64"></polygon><path d="M178,77.39c.8,8.57,3.83,35.86-2.52,49.39l-28.78,3.66-46.54,5.3S87.86,118.45,87.06,101.2l23-9.84s3.38-10,7.36-10.27c2.81-.2,44.87-5.19,57.08-6.52A3.12,3.12,0,0,1,178,77.39Z" style="fill:#FF725E"></path><path d="M170.92,75s0,.06,0,.17-.11.28-.2.5c-.19.42-.49,1-.91,1.82-.83,1.57-2.11,3.79-3.74,6.5A11.84,11.84,0,0,1,164.6,86a7,7,0,0,1-2.25,1.6c-1.73.71-3.55,1.47-5.47,2.31s-3.92,1.73-5.95,2.74c-1,.5-2,1-3,1.64-.5.3-1,.62-1.46,1a2.63,2.63,0,0,0-1,1.28,27.9,27.9,0,0,0-.91,3.4c-.24,1.15-.47,2.28-.67,3.4-.42,2.23-.8,4.39-1.14,6.46-.66,4.11-1.25,7.83-1.75,11l-1.15,7.4c-.13.83-.24,1.5-.32,2a3.48,3.48,0,0,1-.15.7,3.77,3.77,0,0,1,0-.71c.06-.52.14-1.19.23-2,.22-1.75.55-4.29,1-7.43s1-6.86,1.65-11c.33-2.07.69-4.23,1.1-6.47.2-1.13.44-2.26.68-3.42a26.73,26.73,0,0,1,.93-3.5,3.09,3.09,0,0,1,1.18-1.48c.49-.36,1-.69,1.5-1,1-.6,2.05-1.14,3.08-1.64,2-1,4-1.91,6-2.74s3.77-1.57,5.49-2.26a6.42,6.42,0,0,0,2.12-1.48,11.18,11.18,0,0,0,1.41-2c1.67-2.69,3-4.88,3.88-6.41.45-.76.78-1.36,1-1.77A4.76,4.76,0,0,1,170.92,75Z" style="fill:#263238"></path><path d="M146.69,130.44a4.48,4.48,0,0,1,.05-.7c.06-.51.13-1.17.23-2,.23-1.79.56-4.27,1-7.31s.94-6.76,1.56-10.83c.3-2,.64-4.17,1-6.38.18-1.1.38-2.23.6-3.37.12-.57.23-1.13.4-1.73l.14-.45a1.36,1.36,0,0,1,.29-.43,4.5,4.5,0,0,1,.72-.6,47.52,47.52,0,0,1,6.18-3.23c2-.93,4-1.79,5.91-2.6s3.69-1.58,5.34-2.36,2.53-2.23,3.29-3.55a56.18,56.18,0,0,0,2.93-6.74c.29-.77.51-1.4.69-1.88a6.1,6.1,0,0,1,.26-.65,2.73,2.73,0,0,1-.16.69c-.12.44-.33,1.08-.6,1.91a50.62,50.62,0,0,1-2.79,6.84,15,15,0,0,1-1.29,2.11,5.06,5.06,0,0,1-.94,1,6.54,6.54,0,0,1-1.2.69c-1.66.8-3.45,1.57-5.34,2.41S161.07,93,159,93.89A47.27,47.27,0,0,0,153,97.08a4.29,4.29,0,0,0-.64.53.72.72,0,0,0-.2.29l-.12.39c-.15.53-.26,1.12-.38,1.68-.22,1.13-.42,2.25-.61,3.35q-.54,3.32-1,6.37c-.63,4-1.19,7.71-1.67,10.8s-.85,5.5-1.12,7.28c-.14.82-.24,1.48-.33,2A3.47,3.47,0,0,1,146.69,130.44Z" style="fill:#263238"></path><path d="M108.32,134.81a3,3,0,0,1-.3-.56l-.8-1.67c-.67-1.45-1.63-3.56-2.78-6.17s-2.55-5.72-3.83-9.32a2.19,2.19,0,0,1,.1-1.57,3,3,0,0,1,1.1-1.15,6.71,6.71,0,0,1,3-1l6.33-.72,22.22-2.46,6.74-.69,1.83-.16a4,4,0,0,1,.65,0,3.14,3.14,0,0,1-.63.13l-1.83.26-6.72.85-22.2,2.6-6.33.72a6.26,6.26,0,0,0-2.76.86,2.51,2.51,0,0,0-.92.94,1.68,1.68,0,0,0-.08,1.23c1.23,3.53,2.62,6.66,3.71,9.3s2,4.71,2.63,6.24l.7,1.7A2.59,2.59,0,0,1,108.32,134.81Z" style="fill:#263238"></path><path d="M104.74,126.83c0-.14,8-1.17,17.84-2.29s17.89-1.93,17.9-1.78-8,1.17-17.84,2.3S104.76,127,104.74,126.83Z" style="fill:#263238"></path><path d="M87.06,101.2a2.26,2.26,0,0,1,.84-.48,8.48,8.48,0,0,1,2.58-.61,6.46,6.46,0,0,1,3.86.79A5,5,0,0,1,96,102.64a13.81,13.81,0,0,1,1.1,2.25c1.11,3.21,2,6.08,2.71,8.19a23.58,23.58,0,0,1,1,3.45,23.94,23.94,0,0,1-1.32-3.32c-.77-2.06-1.77-5-2.86-8.13a12.8,12.8,0,0,0-1-2.17,4.62,4.62,0,0,0-1.44-1.61,6.23,6.23,0,0,0-3.58-.82A13.37,13.37,0,0,0,87.06,101.2Z" style="fill:#263238"></path><path d="M122.65,111.93a4.58,4.58,0,0,1-.36-1c-.21-.66-.49-1.61-.82-2.79-.67-2.35-1.55-5.62-2.5-9.23a17.56,17.56,0,0,0-1.89-4.81A7.06,7.06,0,0,0,114,91.35a5.27,5.27,0,0,0-2.75-.46c-.66.08-1,.24-1,.2s.07-.07.24-.15a2.78,2.78,0,0,1,.76-.25,5,5,0,0,1,2.92.33,7.07,7.07,0,0,1,3.32,2.82,16.82,16.82,0,0,1,2,4.94c1,3.61,1.78,6.89,2.36,9.27.28,1.19.51,2.16.65,2.83A3.56,3.56,0,0,1,122.65,111.93Z" style="fill:#263238"></path><path d="M131.79,92.52a2.46,2.46,0,0,0-1.45.37,1.18,1.18,0,0,0-.55,1.3A1.49,1.49,0,0,0,131,95.45a1.34,1.34,0,0,0,1.46-.83,1.48,1.48,0,0,0-.09-1.47,2.41,2.41,0,0,0-1.29-.75s.15-.09.45-.07a1.75,1.75,0,0,1,1.13.59,1.86,1.86,0,0,1,.25,1.88,2,2,0,0,1-.74.92,1.82,1.82,0,0,1-1.25.25,2,2,0,0,1-1.58-1.7,1.5,1.5,0,0,1,.18-1.06,1.7,1.7,0,0,1,.65-.63,1.87,1.87,0,0,1,1.24-.25C131.67,92.39,131.81,92.5,131.79,92.52Z" style="fill:#263238"></path><path d="M153.78,91.05c-.09,0-.32-.57-1-.7h-.05a1.51,1.51,0,0,0-1.09.09,1.34,1.34,0,0,0-.9,1.15v0c.08.52.19.83.13.87s-.32-.24-.5-.77v0A1.65,1.65,0,0,1,151.42,90a1.88,1.88,0,0,1,1.47,0h0a1.32,1.32,0,0,1,.88.73C153.84,90.88,153.82,91,153.78,91.05Z" style="fill:#263238"></path><g style="opacity:0.30000000000000004"><path d="M142.64,109.32a41.47,41.47,0,0,1,2.51-13.22c-1.52,1.08-2.23,2.93-3,4.63s-1.74,3.5-3.48,4.15-3.49,0-5.25.09c-2.21.06-4.34,1.11-6.54.92a7.89,7.89,0,0,1-5-2.74,23.47,23.47,0,0,1-3.15-4.89c.57,2.74,1.1,5.78-.32,8.2-1.61,2.76-5.1,3.66-8.25,4.23s-6.63,1.29-8.48,3.89a15.46,15.46,0,0,1,4.08-1Z"></path></g><rect x="70.93" y="35.67" width="8.63" height="45.54" transform="translate(68.88 -36.62) rotate(48.33)" style="fill:#e0e0e0"></rect></g><g id="Character"><polygon points="378.33 324.24 402.24 297.68 421.07 296.2 423.93 316.57 408.7 323.38 392.07 340.89 381.98 343.19 378.33 324.24" style="fill:#efbe9d"></polygon><rect x="416.74" y="196.44" width="180.87" height="211.14" transform="translate(106.64 735.61) rotate(-78.04)" style="fill:#fff"></rect><path d="M591.71,412.35l37.26-177,.17.26-206.55-43.7h0l.31-.2c-13.61,64.2-26.43,124.71-37.5,176.94l-.18-.27,206.5,44-206.6-43.51-.22,0,0-.23c11.06-52.23,23.86-112.74,37.45-176.94l.05-.26.25,0h0L629.23,235.2l.22,0-.05.22C606.71,342,592.1,410.55,591.71,412.35Z" style="fill:#263238"></path><rect x="425.3" y="206" width="163.75" height="192.03" transform="translate(106.64 735.61) rotate(-78.04)" style="fill:#ebebeb"></rect><path d="M584.14,402s.2-1,.6-2.95,1-4.82,1.79-8.56c1.57-7.5,3.88-18.48,6.82-32.48,5.9-28,14.33-68,24.5-116.25l.17.26L430.17,202.28h0l.31-.2c-12.32,58.1-23.93,112.87-33.95,160.19l-.18-.28,135.83,28.89,38.34,8.18,10.14,2.17,2.61.57.89.2-.87-.17-2.59-.53-10.11-2.12-38.31-8.05-136-28.69-.22,0,0-.23c10-47.32,21.61-102.09,33.9-160.2l.05-.26.26.06h0l187.83,39.82.21,0,0,.21c-10.27,48.27-18.79,88.33-24.75,116.33-3,14-5.33,24.94-6.92,32.42-.8,3.72-1.42,6.57-1.83,8.5S584.14,402,584.14,402Z" style="fill:#263238"></path><polygon points="489.25 348.95 484.34 365.25 485.74 365.54 494.34 350.02 489.25 348.95" style="fill:#263238"></polygon><polygon points="550.53 361.92 548.41 378.81 547.01 378.52 545.44 360.85 550.53 361.92" style="fill:#263238"></polygon><rect x="481.39" y="330.22" width="80.11" height="25.26" transform="translate(82.34 -100.59) rotate(11.96)" style="fill:#263238"></rect><path d="M520.93,342.31l0-.21c0-.15.06-.34.1-.57.11-.54.25-1.26.42-2.19.39-1.92.94-4.66,1.62-8.09l.13.2L486,323.65l.3-.2h0v.07l0,.09,0,.17-.08.36-.15.71-.3,1.41c-.2.94-.39,1.87-.59,2.79-.39,1.84-.77,3.65-1.15,5.4l-.19-.3,26.53,5.74,7.81,1.73,2.11.48.56.13.19.06-.7-.11-2.07-.41-7.78-1.57-26.76-5.55-.25-.05.06-.25,1.14-5.4c.19-.92.39-1.85.59-2.79.09-.47.19-.94.29-1.42l.15-.71.08-.35,0-.18,0-.09v-.07h0c.62-.4.18-.11.32-.2l37.23,8,.16,0,0,.16c-.77,3.46-1.39,6.21-1.82,8.15-.21.9-.37,1.61-.49,2.13A6.52,6.52,0,0,1,520.93,342.31Z" style="fill:#455a64"></path><path d="M518.47,353.92s0-.08,0-.21l.1-.57c.11-.54.25-1.26.43-2.19.38-1.92.93-4.66,1.62-8.09l.12.2-37.27-7.8.31-.2h0v.07l0,.09,0,.17-.07.36-.16.71c-.1.47-.2.95-.29,1.41l-.6,2.79c-.39,1.84-.77,3.65-1.15,5.4l-.19-.3,26.53,5.74,7.81,1.73,2.11.48.56.13.19.06-.7-.11-2.07-.41-7.78-1.57-26.76-5.55-.24,0L481,346l1.14-5.4c.19-.92.39-1.85.59-2.79l.3-1.42.15-.71.07-.35,0-.18,0-.09V335h0l.31-.2,37.23,8,.16,0,0,.16c-.77,3.46-1.39,6.21-1.82,8.15-.21.9-.37,1.61-.49,2.13A6.52,6.52,0,0,1,518.47,353.92Z" style="fill:#455a64"></path><path d="M559.42,350.46l0-.21c0-.15.06-.34.1-.57.11-.54.25-1.26.43-2.19.38-1.92.93-4.65,1.62-8.09l.12.2-37.27-7.8.31-.2h0v.07l0,.09,0,.18-.07.35-.16.71c-.1.48-.2,1-.29,1.42l-.6,2.79q-.59,2.76-1.15,5.39l-.19-.3,26.53,5.74,7.81,1.73,2.11.48.56.13.19.06a3.59,3.59,0,0,1-.7-.11l-2.07-.41-7.78-1.57-26.76-5.55-.24-.05,0-.25,1.14-5.4c.19-.92.39-1.85.59-2.79l.3-1.41.15-.72.07-.35,0-.18,0-.09v-.07h0l.31-.2,37.23,8,.16,0,0,.16c-.77,3.46-1.39,6.21-1.82,8.15-.21.9-.37,1.61-.49,2.13A5.71,5.71,0,0,1,559.42,350.46Z" style="fill:#455a64"></path><path d="M557,362.07l0-.21c0-.15.06-.34.1-.57.11-.54.25-1.26.43-2.19.38-1.92.93-4.65,1.62-8.09l.12.2L522,343.41l.31-.2h0v.07l0,.09,0,.18-.07.35-.15.71-.3,1.42-.6,2.78-1.14,5.4-.2-.3,26.53,5.74,7.82,1.73,2.11.48.55.13.19.06a3.59,3.59,0,0,1-.7-.11l-2.07-.41L546.41,360l-26.75-5.55-.25-.05.05-.25,1.14-5.4c.19-.92.39-1.85.59-2.79l.3-1.41.15-.72.07-.35,0-.18,0-.09v-.07h0l.31-.2,37.23,8,.17,0,0,.16c-.77,3.46-1.39,6.21-1.82,8.15-.21.9-.37,1.61-.49,2.13A5.71,5.71,0,0,1,557,362.07Z" style="fill:#455a64"></path><path d="M486,323.39c-.11.1-.45-.08-.76-.41s-.48-.68-.38-.78.44.09.76.42S486.11,323.3,486,323.39Z" style="fill:#455a64"></path><path d="M481.1,346c.07.12-.21.44-.64.7s-.83.38-.9.26.2-.44.63-.7S481,345.86,481.1,346Z" style="fill:#455a64"></path><path d="M558,363.51c0,.14-17.62-3.47-39.3-8.06s-39.22-8.42-39.19-8.57,17.62,3.47,39.3,8.06S558,363.37,558,363.51Z" style="fill:#455a64"></path><path d="M502.14,344.7c-.09,0,0-.46-.4-.87a1,1,0,0,0-.85-.27,1,1,0,0,0-.75.72.94.94,0,0,0,.39,1,1,1,0,0,0,.89.1c.54-.21.64-.66.72-.63s.05.12,0,.31a1.12,1.12,0,0,1-.55.66,1.31,1.31,0,0,1-1.3,0,1.37,1.37,0,0,1,.54-2.55,1.32,1.32,0,0,1,1.2.5,1.15,1.15,0,0,1,.24.83C502.23,344.62,502.17,344.71,502.14,344.7Z" style="fill:#455a64"></path><path d="M504.59,333.09c-.08,0,0-.46-.39-.87a1,1,0,0,0-.86-.27,1,1,0,0,0-.74.72.94.94,0,0,0,.39.95,1,1,0,0,0,.89.1c.54-.21.64-.66.71-.63s.06.12,0,.31a1.12,1.12,0,0,1-.55.66,1.31,1.31,0,0,1-1.3,0,1.37,1.37,0,0,1,.54-2.55,1.32,1.32,0,0,1,1.2.5,1.2,1.2,0,0,1,.24.83C504.69,333,504.63,333.1,504.59,333.09Z" style="fill:#455a64"></path><path d="M541.09,353c-.08,0,0-.46-.39-.87a1,1,0,0,0-.86-.27.94.94,0,0,0-.74.72.9.9,0,0,0,.39,1,1,1,0,0,0,.89.1c.53-.21.63-.66.71-.63s0,.12,0,.31a1.2,1.2,0,0,1-.55.66,1.36,1.36,0,0,1-1.31,0,1.38,1.38,0,0,1,.54-2.55,1.32,1.32,0,0,1,1.2.5,1.11,1.11,0,0,1,.24.83C541.19,352.87,541.12,353,541.09,353Z" style="fill:#455a64"></path><path d="M543.55,341.34c-.09,0,0-.46-.4-.87a1,1,0,0,0-.85-.27.93.93,0,0,0-.74.72.9.9,0,0,0,.39.95,1,1,0,0,0,.89.1c.53-.21.63-.66.71-.63s.05.12,0,.31a1.18,1.18,0,0,1-.56.66,1.31,1.31,0,0,1-1.3,0,1.38,1.38,0,0,1,.54-2.55,1.32,1.32,0,0,1,1.2.5,1.15,1.15,0,0,1,.24.83C543.65,341.26,543.58,341.35,543.55,341.34Z" style="fill:#455a64"></path><path d="M563.27,338.74c0,.15-.3.34-.71.52s-.77.29-.85.17.18-.45.64-.65S563.24,338.61,563.27,338.74Z" style="fill:#455a64"></path><path d="M558.2,363.55c-.11.09-.47-.18-.8-.6s-.5-.84-.38-.93.47.19.8.61S558.31,363.47,558.2,363.55Z" style="fill:#455a64"></path><rect x="484.11" y="278.39" width="15.69" height="191.55" transform="matrix(0.21, -0.98, 0.98, 0.21, 23.99, 777.93)" style="fill:#e0e0e0"></rect><path d="M455.43,294A64.71,64.71,0,0,0,448,259.12c-9.48-17.9-21.24-19.64-21.24-19.64s14.1-2.25,24.43,17A51.12,51.12,0,0,1,455.43,294Z" style="fill:#455a64"></path><path d="M464.65,233.66c-.18-.51-6.77,37.26-6.77,37.26l-2.62,27.53s6.33-19.45,7.95-29.76S466.28,238.31,464.65,233.66Z" style="fill:#455a64"></path><path d="M478.6,236.62s-6.41,2.37-13.91,29.48c-5.74,20.78-8.34,28.65-9.19,31.22a4,4,0,0,0-.24,1.13s10.9-18.11,15.11-28.25S474.93,244.25,478.6,236.62Z" style="fill:#455a64"></path><path d="M455.36,304.38c-.17.68,4.14-8.55,18.65-17.94,13.5-8.74,18.61-8.12,18.61-8.12s-11.93-.84-21.42,5.86C462.82,290.09,457.12,297.47,455.36,304.38Z" style="fill:#455a64"></path><path d="M451.76,315c-.3-5.05-.74-10.18-2.63-14.87s-5.44-8.95-10.24-10.53c6.7,7.48,11.08,15.4,12.87,25.4" style="fill:#455a64"></path><path d="M455.76,296.13s1.71-19.06-10.41-27.67c-6.75-4.8-18.23-5.08-18.23-5.08s13.52,4.68,18,9S455.76,296.13,455.76,296.13Z" style="fill:#455a64"></path><path d="M444.2,350.38a.8.8,0,0,1,0-.23q.06-.28.12-.69c.13-.65.3-1.53.51-2.65.48-2.33,1.15-5.63,2-9.69l6.69-31.95c.33-1.56.66-3.1,1-4.62l.48-2.26c.1-.38.13-.74.27-1.14s.33-.69.47-1c.58-1.37,1.06-2.77,1.64-4.11s1.14-2.62,1.68-3.89c1.09-2.54,2.18-4.92,3.09-7.21s1.77-4.39,2.56-6.32,1.4-3.72,2-5.28,1-2.89,1.44-4,.7-1.91.93-2.52l.23-.66a.9.9,0,0,1,.1-.22.82.82,0,0,1-.05.23l-.18.68c-.17.59-.47,1.45-.84,2.56s-.83,2.47-1.36,4-1.11,3.38-1.91,5.31-1.6,4.08-2.5,6.36-2,4.68-3,7.23c-.55,1.27-1.1,2.57-1.67,3.9s-1,2.72-1.63,4.11c-.14.35-.33.72-.46,1s-.16.72-.25,1.07c-.16.75-.31,1.5-.47,2.26-.32,1.52-.65,3.06-1,4.62-2.67,12.44-5.08,23.71-6.84,31.91-.89,4.05-1.61,7.34-2.13,9.67-.25,1.1-.45,2-.6,2.62l-.17.68C444.24,350.31,444.21,350.39,444.2,350.38Z" style="fill:#263238"></path><path d="M458.06,299.05a14.87,14.87,0,0,1-1,2.3c-.67,1.4-1.54,3.35-2.4,5.56s-1.54,4.23-2,5.71a14.77,14.77,0,0,1-.86,2.37,11.24,11.24,0,0,1,.51-2.48,54.45,54.45,0,0,1,1.88-5.79,49.67,49.67,0,0,1,2.56-5.54A9.72,9.72,0,0,1,458.06,299.05Z" style="fill:#263238"></path><path d="M451,358.13c3.38-2,4.76-6.29,4.52-10.21s-1.77-7.6-2.9-11.35l-10.4-2.2c-2.56,3-5.46,5.72-7.26,9.2s-2.3,8,0,11.16Z" style="fill:#FF725E"></path><path d="M463.75,249.55a1.41,1.41,0,0,1,0,.49c0,.37-.07.83-.12,1.37-.13,1.2-.34,2.92-.62,5-.57,4.25-1.47,10.11-2.59,16.56s-2.26,12.26-3.2,16.45c-.46,2.1-.88,3.78-1.19,4.94-.14.53-.27,1-.37,1.33a2.29,2.29,0,0,1-.16.46,1.44,1.44,0,0,1,.06-.48c.07-.37.17-.82.28-1.35.26-1.26.6-2.94,1-5,.85-4.2,1.93-10,3-16.46s2.07-12.29,2.73-16.53c.32-2,.59-3.75.78-5,.09-.55.17-1,.23-1.37A2.71,2.71,0,0,1,463.75,249.55Z" style="fill:#263238"></path><path d="M452.15,263.6a4.78,4.78,0,0,1,.45,1c.26.65.6,1.61,1,2.8a69.28,69.28,0,0,1,3.26,19.24c0,1.25,0,2.26,0,3a4.07,4.07,0,0,1-.1,1.08c-.08,0-.1-1.54-.25-4a88.12,88.12,0,0,0-3.24-19.15C452.56,265.09,452.07,263.63,452.15,263.6Z" style="fill:#263238"></path><path d="M444.93,269.76a3.6,3.6,0,0,1,.9.67,20,20,0,0,1,2.13,2.2,36.66,36.66,0,0,1,2.68,3.65,23.08,23.08,0,0,1,2.35,5.05,74.63,74.63,0,0,1,2.57,9.72c.26,1.26.43,2.29.54,3a4.6,4.6,0,0,1,.11,1.11,4.38,4.38,0,0,1-.31-1.07c-.19-.81-.42-1.8-.7-3-.6-2.49-1.43-5.94-2.7-9.63a23.92,23.92,0,0,0-2.27-5,40.82,40.82,0,0,0-2.56-3.68c-.79-1-1.48-1.77-2-2.29A6.27,6.27,0,0,1,444.93,269.76Z" style="fill:#263238"></path><rect x="579.26" y="251.9" width="3.91" height="65.33" transform="translate(71.57 -114.24) rotate(11.96)" style="fill:#263238"></rect><rect x="501.1" y="243.93" width="79.05" height="64.19" transform="translate(68.91 -106.02) rotate(11.96)" style="fill:#fff"></rect><path d="M573.8,317.39l-80.27-17,13.92-65.73,80.27,17Zm-76.71-19.32,74.4,15.76L584.16,254l-74.4-15.75Z" style="fill:#455a64"></path><rect x="511.17" y="252.47" width="58.37" height="45.45" transform="translate(68.74 -105.98) rotate(11.96)" style="fill:#e0e0e0"></rect><path d="M309.45,323.48,323,366.9l45.13-40,17,14.51s-38.3,60.88-56.88,72.34c-20.61,12.72-45.13-4-48.23-16.27S260.6,330.2,260.6,330.2Z" style="fill:#efbe9d"></path><path d="M324.07,366.14c.05.09-1.19.78-2.93,2.22a26,26,0,0,0-2.84,2.78,25.21,25.21,0,0,0-4.85,8.34,25.66,25.66,0,0,0-1,3.84c-.4,2.23-.39,3.65-.49,3.65a4,4,0,0,1-.07-1,8.22,8.22,0,0,1,0-1.17c0-.45.05-1,.15-1.54a23.42,23.42,0,0,1,.92-3.93,23.88,23.88,0,0,1,4.95-8.51,23.12,23.12,0,0,1,3-2.74c.44-.37.89-.64,1.26-.9a10.85,10.85,0,0,1,1-.61A3.67,3.67,0,0,1,324.07,366.14Z" style="fill:#e7996e"></path><path d="M275.53,366.57,323,353.76s-10.18-30.11-18.1-51.87c-7-19.19-18.73-27.18-24.83-31.52a18.45,18.45,0,0,0-8.33-3.3c-11.23-1.5-41.95-5.54-57.19-6.81-18.85-1.57-58.22,8.81-58.22,8.81S121.81,288.21,110.17,296a16.16,16.16,0,0,0-6.23,7.84c-2.15,5.79-4.89,15.74-8.17,28.61-2.09,8.18-9,35.26-9,35.26l40.49-1.25c8.16,24.78,15.72,47,15.72,47l-3.28,59.36,150.16,0S276,381,276,378.87C276,378.09,275.81,372.84,275.53,366.57Z" style="fill:#FF725E"></path><g style="opacity:0.30000000000000004"><path d="M228.83,318.38c-3-3.79-8.16-5.34-12.94-4.86s-9.22,2.74-13.2,5.44c-12.28,8.33-21,20.89-28.7,33.56a404.55,404.55,0,0,0-33.72,69.66l.31,6.2c10.07-1.27,16.63-9.76,21-18.91s6.25-19.31,10.1-28.69a74,74,0,0,1,39.85-39.85c6,.62,12.44-1.31,16.36-5.89S232.56,323.11,228.83,318.38Z"></path></g><path d="M276,374.43c-.23,0-1.57-13.13-3-29.36s-2.41-29.42-2.19-29.44,1.57,13.12,3,29.37S276.21,374.41,276,374.43Z" style="fill:#263238"></path><path d="M116.48,315.63a9.77,9.77,0,0,1,.6,2c.35,1.48.8,3.37,1.33,5.63,1.09,4.76,2.54,11.34,4.09,18.63s2.92,13.89,3.87,18.68c.43,2.28.79,4.19,1.08,5.68a10.46,10.46,0,0,1,.28,2.11,11.2,11.2,0,0,1-.59-2c-.35-1.48-.8-3.37-1.33-5.63-1.09-4.76-2.54-11.34-4.1-18.63s-2.91-13.89-3.86-18.68c-.43-2.28-.8-4.19-1.08-5.69A11,11,0,0,1,116.48,315.63Z" style="fill:#263238"></path><path d="M268.75,267.64c.24.06-1.13,5.33-2.07,12s-1.14,12.06-1.38,12a13.59,13.59,0,0,1-.16-3.57,74.21,74.21,0,0,1,.74-8.6A72.36,72.36,0,0,1,267.6,271,13.91,13.91,0,0,1,268.75,267.64Z" style="fill:#263238"></path><path d="M204,295.19l13.66-27.55-4.24-12s20.49-10.64,13.49-32.35c-3.38-10.48-12.1-31.5-20.21-50.43a42.51,42.51,0,0,0-52.62-23.55L152,150c-22.05,8.88-26.83,32.56-17.35,54.36l27.73,81Z" style="fill:#efbe9d"></path><path d="M213.42,255.56s-13.29,5.71-30.88,1.47c0,0,11.9,13.32,32.81,4.12Z" style="fill:#e7996e"></path><path d="M207.85,194.22a3.27,3.27,0,0,1-1.93,4.12,3.12,3.12,0,0,1-4.12-1.71,3.26,3.26,0,0,1,1.92-4.12A3.12,3.12,0,0,1,207.85,194.22Z" style="fill:#263238"></path><path d="M205.52,183.7c-.24.53-3.17-.42-6.49.71s-5.19,3.6-5.69,3.32c-.24-.12-.09-1,.71-2.11a9,9,0,0,1,4.39-3.16,8.63,8.63,0,0,1,5.33-.06C205.06,182.84,205.65,183.45,205.52,183.7Z" style="fill:#263238"></path><path d="M179,202.87a3.25,3.25,0,0,1-1.93,4.11,3.11,3.11,0,0,1-4.12-1.71,3.27,3.27,0,0,1,1.93-4.12A3.12,3.12,0,0,1,179,202.87Z" style="fill:#263238"></path><path d="M173.25,193.54c-.19.55-3.2-.07-6.38,1.41s-4.77,4.15-5.29,3.92c-.25-.1-.21-1,.47-2.17a9,9,0,0,1,4-3.62,8.67,8.67,0,0,1,5.3-.64C172.69,192.74,173.35,193.28,173.25,193.54Z" style="fill:#263238"></path><path d="M193.47,217.13c-.07-.19,1.87-1.24,5.07-2.79.82-.38,1.57-.81,1.52-1.44a4.58,4.58,0,0,0-1.42-2.33L194,205c-6.57-8-11.64-14.74-11.31-15s5.92,6,12.49,14.06c1.61,2,3.14,3.88,4.59,5.69.65.86,1.57,1.77,1.56,3.18a2.24,2.24,0,0,1-1,1.71,6.33,6.33,0,0,1-1.38.69C195.63,216.59,193.55,217.31,193.47,217.13Z" style="fill:#263238"></path><path d="M168.74,182c0,1-3.49,1.7-7.23,3.48s-6.54,3.9-7.32,3.26c-.37-.31-.1-1.34.87-2.64a13.94,13.94,0,0,1,11.09-5.14C167.77,181,168.73,181.48,168.74,182Z" style="fill:#263238"></path><path d="M201.56,174.76c-.33,1-2.88.94-5.64,1.83s-4.92,2.21-5.72,1.6c-.36-.3-.25-1.18.53-2.24a8.6,8.6,0,0,1,9.15-2.76C201.12,173.63,201.7,174.3,201.56,174.76Z" style="fill:#263238"></path><path d="M141.77,219.74c-.42,0-16.33.6-10.89,15.22s19,6.14,18.87,5.71S141.77,219.74,141.77,219.74Z" style="fill:#efbe9d"></path><path d="M143.22,236.8c-.08,0-.19.27-.54.63a2.67,2.67,0,0,1-1.89.74c-1.76,0-4-2-5-4.56a8.92,8.92,0,0,1-.65-3.92,3.18,3.18,0,0,1,1.19-2.67,1.39,1.39,0,0,1,1.76.14c.35.34.37.67.46.66s.22-.36-.12-.92a1.72,1.72,0,0,0-.92-.7,2,2,0,0,0-1.55.15,3.82,3.82,0,0,0-1.82,3.26,9.32,9.32,0,0,0,.64,4.4c1.19,2.91,3.72,5.11,6.06,4.93a2.89,2.89,0,0,0,2.19-1.25C143.33,237.16,143.28,236.8,143.22,236.8Z" style="fill:#e7996e"></path><path d="M184.47,222.71c.53-.21,1.75,3.39,5.7,4.91s7.65-.16,7.85.33c.12.21-.62,1-2.23,1.58a9.49,9.49,0,0,1-6.49-.07,8.25,8.25,0,0,1-4.54-4.2C184.11,223.8,184.22,222.77,184.47,222.71Z" style="fill:#263238"></path><path d="M212,140.83a9,9,0,0,0-7-4.92,13.46,13.46,0,0,0-1.09-2.36c-2.68-4.54-8.72-7-13.62-5a11.23,11.23,0,0,0-19.84,1,13.41,13.41,0,0,0-14.27,2.75,3.38,3.38,0,0,0-1,1.6,1.61,1.61,0,0,0,.24,1.21,8.43,8.43,0,0,0-7.65-1.6,7.83,7.83,0,0,0-2.46,1.25,9.48,9.48,0,0,0-5,5.13,13.53,13.53,0,0,0-13.27,12.12,12.88,12.88,0,0,0-7.92,12,9.4,9.4,0,0,0-1.91,16.17s-9.56,5.83-3.77,14.17c3,4.26,9,1.31,9,1.31l18,27.19c-.08.19,3.09,3,4.62,1.66s1.93-3.53,2.4-5.51c.55-2.27,1.33-4.55,1.14-6.88s-1.67-4.77-4-5.13c2.27-1.7,3-4.86,2.63-7.67s-1.79-5.36-3.15-7.85l-6-11a15.58,15.58,0,0,0,9.95-12.66c4.82,1.66,10.71-2.06,11.26-7.14a11.61,11.61,0,0,0,15.68,2.31c.44,3.26,6.89,4.26,10.17,4.05s6.34-3.59,6.34-3.59a18.42,18.42,0,0,0,6.7.14h0l.33-.09c4.31-1,7.12-6.15,7.91-10.5a8.2,8.2,0,0,0,3.07-1.42A9,9,0,0,0,212,140.83Z" style="fill:#263238"></path><path d="M188.52,132.87a2.93,2.93,0,0,1,.59.48,7.22,7.22,0,0,1,1.31,1.74,9,9,0,0,1,1.06,3.28,9.25,9.25,0,0,1-.58,4.53,7.92,7.92,0,0,1-3.75,4,9.48,9.48,0,0,1-6.29.78,8.21,8.21,0,0,1-3.17-1.45,5.31,5.31,0,0,1-1.29-1.3,3.48,3.48,0,0,1-.66-1.8,2.4,2.4,0,0,1,.76-1.83,3.59,3.59,0,0,1,1.79-.85,4.52,4.52,0,0,1,2,.06,5.6,5.6,0,0,1,1.84.76,7.24,7.24,0,0,1,3.32,6.6,9,9,0,0,1-3.36,6.11,11.51,11.51,0,0,1-5.86,2.46,17,17,0,0,1-5.53-.24,32.19,32.19,0,0,1-7.5-2.71c-.85-.41-1.49-.75-1.93-1a6.26,6.26,0,0,1-.66-.37,3.55,3.55,0,0,1,.7.28l2,.89a34.77,34.77,0,0,0,7.48,2.53,16.88,16.88,0,0,0,5.4.17,11,11,0,0,0,5.61-2.4,8.6,8.6,0,0,0,3.17-5.78,6.75,6.75,0,0,0-3.1-6.12,4.89,4.89,0,0,0-1.67-.69,4.08,4.08,0,0,0-1.77-.06,3,3,0,0,0-1.52.72,1.85,1.85,0,0,0-.61,1.44,3.88,3.88,0,0,0,1.74,2.71,7.71,7.71,0,0,0,3,1.38,9,9,0,0,0,6-.7,7.55,7.55,0,0,0,3.6-3.8,9.09,9.09,0,0,0-.32-7.58A9.28,9.28,0,0,0,188.52,132.87Z" style="fill:#455a64"></path><path d="M91.68,367.51s-9.48,34.32-11.57,42.7S78,438.06,82.75,443.82s20.43,9.43,20.43,9.43,30.77-15,41.25-33.36,39.12-68.2,39.12-68.2l-9.07-24.9-47.71,45.55.5-5.93Z" style="fill:#efbe9d"></path><path d="M191.32,248.26h0a3.34,3.34,0,0,1,4.51,1.48l27.46,54.68-7,3.13L189.82,252.7A3.35,3.35,0,0,1,191.32,248.26Z" style="fill:#455a64"></path><path d="M173,328.36l25.67-26.47h24.6L239,322.69s-7.47,1.39-10.14-2.62l-3.48-4.95s3.48,7.62,1.61,11.37c0,0-3.69,8.69-4.28,9.62-1.12,1.75-2,2.87-5.18,2.34s-8.19-3.14-7.66-5a3.1,3.1,0,0,1,2.41-2.14l-7.49-1.07s-7.54,13.66-12.08,16.87a35.52,35.52,0,0,1-9.14,4.59Z" style="fill:#efbe9d"></path><path d="M127.73,371.54c.06.13-2.07,1.12-5.34,3a75.4,75.4,0,0,0-11.91,8.65,76.19,76.19,0,0,0-10,10.86c-2.27,3-3.49,5-3.61,5a6.75,6.75,0,0,1,.73-1.48,42.41,42.41,0,0,1,2.42-3.81,64.17,64.17,0,0,1,22-19.68c1.68-.89,3.08-1.56,4.06-2A6.7,6.7,0,0,1,127.73,371.54Z" style="fill:#e7996e"></path><path d="M204.26,309.58a16.29,16.29,0,0,1,3.61-.61c2.23-.28,5.33-.6,8.75-.9a10.77,10.77,0,0,1,2.6,0,5.48,5.48,0,0,1,2.3.93,8.19,8.19,0,0,1,2.61,3.14,10.38,10.38,0,0,1,1.15,3.5c-.13.05-.6-1.29-1.66-3.23a8.15,8.15,0,0,0-2.51-2.79,4.89,4.89,0,0,0-2-.76,10.86,10.86,0,0,0-2.41,0c-3.42.3-6.52.53-8.77.66A16.41,16.41,0,0,1,204.26,309.58Z" style="fill:#e7996e"></path><path d="M223.86,334.78c-.14,0,.1-1.87-.06-4.85a32.52,32.52,0,0,0-.71-5.17c-.42-1.87-1-4.11-2.9-5.2a11,11,0,0,0-3-1.07l-3-.69A36.58,36.58,0,0,0,209,317a42.87,42.87,0,0,0-4.82.12,3.5,3.5,0,0,1,1.26-.4,16.06,16.06,0,0,1,3.59-.29,31.92,31.92,0,0,1,5.29.63c1,.19,2,.41,3.06.65a11,11,0,0,1,3.26,1.15,5.74,5.74,0,0,1,2.3,2.67,14.16,14.16,0,0,1,.91,3.07,28.56,28.56,0,0,1,.55,5.3,24.55,24.55,0,0,1-.22,3.58A3.93,3.93,0,0,1,223.86,334.78Z" style="fill:#e7996e"></path><path d="M215,325.89c.21,0,.37,2.14.39,4.93v.48l-.5-.09a4.3,4.3,0,0,0-.82-.08,5,5,0,0,0-3.4,1.5c-.69.72-.91,1.35-1,1.31s-.06-.75.6-1.68a4.92,4.92,0,0,1,3.84-1.94,4.71,4.71,0,0,1,1,.11l-.49.39C214.58,328,214.75,325.89,215,325.89Z" style="fill:#e7996e"></path><path d="M215,326.71c0,.23-2.26-.1-5-.24s-5-.06-5-.29,2.21-.67,5-.52S215,326.5,215,326.71Z" style="fill:#e7996e"></path><path d="M205.41,325.43c.21,0,0,2.43-1.11,5.15s-2.73,4.53-2.9,4.4,1.06-2.1,2.15-4.72S205.17,325.39,205.41,325.43Z" style="fill:#e7996e"></path><path d="M366.55,328.34s16.92-22,18.77-23,25.41-4.4,25.41-4.4-1,7.44-7.81,9.63c-4.82,1.55-10.47,2.76-10.47,2.76s1.88,14.42-1.59,20.2a89.74,89.74,0,0,1-9.7,12.42Z" style="fill:#efbe9d"></path><path d="M387.68,336.88a20.43,20.43,0,0,0,3.53-6,27,27,0,0,0,1.38-7.47,42.3,42.3,0,0,0,0-4.51,18.34,18.34,0,0,0-.34-2.34,6.29,6.29,0,0,1-.08-2.57,1.84,1.84,0,0,1,1-1,6.9,6.9,0,0,1,1.19-.45,23,23,0,0,1,2.37-.53,33,33,0,0,0,4.38-1,14.42,14.42,0,0,0,6.46-3.78,12.37,12.37,0,0,0,2.56-4.38c.4-1.15.53-1.82.58-1.81a1.51,1.51,0,0,1-.06.49,10.31,10.31,0,0,1-.33,1.38,11.85,11.85,0,0,1-2.48,4.57,14.51,14.51,0,0,1-6.59,4,32.24,32.24,0,0,1-4.43,1.08,23.36,23.36,0,0,0-2.31.53,5.91,5.91,0,0,0-1.11.42,1.37,1.37,0,0,0-.75.68,6.12,6.12,0,0,0,.1,2.32,17.7,17.7,0,0,1,.34,2.41,40.52,40.52,0,0,1,0,4.56,26.05,26.05,0,0,1-1.52,7.57A16.57,16.57,0,0,1,389,335.5a10.24,10.24,0,0,1-.95,1.05A2.12,2.12,0,0,1,387.68,336.88Z" style="fill:#e7996e"></path></g><g id="Device"><path d="M258.56,473.06H372.94a5.58,5.58,0,0,0,5.49-4.59l14.17-78.19a5.58,5.58,0,0,0-5.49-6.58H272.73a5.59,5.59,0,0,0-5.5,4.59l-14.16,78.19A5.58,5.58,0,0,0,258.56,473.06Z" style="fill:#263238"></path><path d="M191,465.59h73.46a0,0,0,0,1,0,0v.76a6.71,6.71,0,0,1-6.71,6.71H191a0,0,0,0,1,0,0v-7.47A0,0,0,0,1,191,465.59Z" transform="translate(455.37 938.64) rotate(180)" style="fill:#263238"></path><path d="M273.93,383.7c-.11,0-4.17,20-9.07,44.63S256.07,473,256.17,473s4.17-19.95,9.08-44.63S274,383.72,273.93,383.7Z" style="fill:#455a64"></path><path d="M326.63,429.65a4,4,0,0,1,3.41-2.93h-.33a3.92,3.92,0,1,1-3.08,2.93Z" style="fill:#455a64"></path></g></svg>