<svg xmlns="http://www.w3.org/2000/svg" viewBox="0 0 500 500"><g id="background-complete"><rect x="416.78" y="398.49" width="33.12" height="0.25" style="fill:#ebebeb"></rect><rect x="322.53" y="401.21" width="8.69" height="0.25" style="fill:#ebebeb"></rect><rect x="396.59" y="389.21" width="19.19" height="0.25" style="fill:#ebebeb"></rect><rect x="52.46" y="390.89" width="43.19" height="0.25" style="fill:#ebebeb"></rect><rect x="104.56" y="390.89" width="6.33" height="0.25" style="fill:#ebebeb"></rect><rect x="131.47" y="395.11" width="93.68" height="0.25" style="fill:#ebebeb"></rect><path d="M237,337.8H43.92a5.71,5.71,0,0,1-5.71-5.71V60.66A5.71,5.71,0,0,1,43.92,55H237a5.71,5.71,0,0,1,5.71,5.71V332.09A5.71,5.71,0,0,1,237,337.8ZM43.92,55.2a5.47,5.47,0,0,0-5.46,5.46V332.09a5.47,5.47,0,0,0,5.46,5.46H237a5.47,5.47,0,0,0,5.46-5.46V60.66A5.47,5.47,0,0,0,237,55.2Z" style="fill:#ebebeb"></path><path d="M453.31,337.8H260.21a5.72,5.72,0,0,1-5.71-5.71V60.66A5.72,5.72,0,0,1,260.21,55h193.1A5.71,5.71,0,0,1,459,60.66V332.09A5.71,5.71,0,0,1,453.31,337.8ZM260.21,55.2a5.47,5.47,0,0,0-5.46,5.46V332.09a5.47,5.47,0,0,0,5.46,5.46h193.1a5.47,5.47,0,0,0,5.46-5.46V60.66a5.47,5.47,0,0,0-5.46-5.46Z" style="fill:#ebebeb"></path><rect y="382.4" width="500" height="0.25" style="fill:#ebebeb"></rect><rect x="81.41" y="113.33" width="331.35" height="269.26" style="fill:#f5f5f5"></rect><rect x="69.94" y="83.28" width="50.61" height="35.85" style="fill:#f0f0f0"></rect><rect x="120.25" y="83.28" width="50.61" height="35.85" style="fill:#f5f5f5"></rect><rect x="170.57" y="83.28" width="50.61" height="35.85" style="fill:#f0f0f0"></rect><rect x="220.89" y="83.28" width="50.61" height="35.85" style="fill:#f5f5f5"></rect><rect x="271.2" y="83.28" width="50.61" height="35.85" style="fill:#f0f0f0"></rect><rect x="321.52" y="83.28" width="50.61" height="35.85" style="fill:#f5f5f5"></rect><rect x="371.83" y="83.28" width="50.61" height="35.85" style="fill:#f0f0f0"></rect><path d="M122.08,143.93c0,8.75-11.67,15.85-26.07,15.85s-26.07-7.1-26.07-15.85V118.78h50.63Z" style="fill:#e6e6e6"></path><path d="M172.44,143.93c0,8.75-11.67,15.85-26.07,15.85s-26.07-7.1-26.07-15.85V118.78h50.63Z" style="fill:#f0f0f0"></path><path d="M222.8,143.93c0,8.75-11.67,15.85-26.07,15.85s-26.07-7.1-26.07-15.85V118.78h50.63Z" style="fill:#e6e6e6"></path><path d="M273.16,143.93c0,8.75-11.67,15.85-26.07,15.85S221,152.68,221,143.93V118.78h50.62Z" style="fill:#f0f0f0"></path><path d="M323.52,143.93c0,8.75-11.68,15.85-26.07,15.85s-26.08-7.1-26.08-15.85V118.78H322Z" style="fill:#e6e6e6"></path><path d="M373.88,143.93c0,8.75-11.68,15.85-26.08,15.85s-26.07-7.1-26.07-15.85V118.78h50.63Z" style="fill:#f0f0f0"></path><path d="M424.23,143.93c0,8.75-11.67,15.85-26.07,15.85s-26.07-7.1-26.07-15.85V118.78h50.63Z" style="fill:#e6e6e6"></path><rect x="245.08" y="171.34" width="151.1" height="85.72" style="fill:#fafafa"></rect><polygon points="341.84 257 314.49 257 335.03 172.18 362.38 172.18 341.84 257" style="fill:#f5f5f5"></polygon><polygon points="355.11 257 349.05 257 369.59 172.18 375.65 172.18 355.11 257" style="fill:#f5f5f5"></polygon><polygon points="270.85 257 267.78 257 288.32 172.18 291.39 172.18 270.85 257" style="fill:#f5f5f5"></polygon><path d="M399.18,260.06H242.08V168.34h157.1Zm-151.1-6h145.1V174.34H248.08Z" style="fill:#ebebeb"></path><rect x="98.14" y="166.22" width="90.84" height="215.61" style="fill:#ebebeb"></rect><rect x="102.01" y="170.13" width="83.12" height="211.71" style="fill:#f5f5f5"></rect><rect x="108.29" y="198.06" width="33.32" height="77.53" style="fill:#fafafa"></rect><rect x="145.95" y="198.06" width="33.32" height="77.53" style="fill:#fafafa"></rect><rect x="108.29" y="299.04" width="70.98" height="77.53" style="fill:#ebebeb"></rect><path d="M125.58,175.75H162A17.28,17.28,0,0,1,179.27,193v1a0,0,0,0,1,0,0h-71a0,0,0,0,1,0,0v-1A17.28,17.28,0,0,1,125.58,175.75Z" style="fill:#fafafa"></path><rect x="108.29" y="279.08" width="6.06" height="15.79" style="fill:#e6e6e6"></rect><rect x="114.35" y="279.08" width="1.19" height="15.79" transform="translate(229.9 573.95) rotate(180)" style="fill:#e0e0e0"></rect><circle cx="109.8" cy="285.29" r="2.56" style="fill:#e0e0e0"></circle><rect x="110.55" y="289.7" width="1.32" height="3.2" style="fill:#e0e0e0"></rect><path d="M111.11,285.29a3.57,3.57,0,1,1-3.57-3.58A3.57,3.57,0,0,1,111.11,285.29Z" style="fill:#ebebeb"></path><rect x="345.95" y="323.87" width="5.75" height="41.5" style="fill:#e6e6e6"></rect><polygon points="405.83 316.68 317.83 334.68 291.83 316.68 291.83 299 405.83 299 405.83 316.68" style="fill:#ebebeb"></polygon><path d="M345.62,356.4a21.05,21.05,0,0,1-21.05,21.06h0a2.57,2.57,0,1,0,0,5.13h48.52a2.57,2.57,0,0,0,0-5.13A21.06,21.06,0,0,1,352,356.4Z" style="fill:#e6e6e6"></path><path d="M267.61,284.84a404,404,0,0,1,5.06,44.56l2.35-.2a406.53,406.53,0,0,0-5.1-44.85c-1.42-9.58-11-17.06-20.16-16.44a14.26,14.26,0,0,0-10.56,5.95A15.39,15.39,0,0,0,236.79,286,364.38,364.38,0,0,1,242,326.49l2.35-.15a369.68,369.68,0,0,0-5.21-40.77,13,13,0,0,1,2-10.3,12.21,12.21,0,0,1,.91-1.11,363.64,363.64,0,0,1,7.62,53.06l2.35-.17a359.26,359.26,0,0,0-8-54.61,12.41,12.41,0,0,1,5-1.93A363.62,363.62,0,0,1,257.32,328l2.35-.18a367.25,367.25,0,0,0-8.29-57.44,14.86,14.86,0,0,1,5.7,1.23A374,374,0,0,1,265,328.67l2.35-.19a377.55,377.55,0,0,0-7.51-55.43A18.29,18.29,0,0,1,267.61,284.84Z" style="fill:#e0e0e0"></path><path d="M296,327.7H241.91a5.76,5.76,0,0,1,5.75-5.75h42.61A5.76,5.76,0,0,1,296,327.7Z" style="fill:#f0f0f0"></path><polygon points="243.75 382.59 240.87 382.59 243.22 327.7 246.88 327.7 243.75 382.59" style="fill:#e0e0e0"></polygon><polygon points="262.95 382.59 260.08 382.59 261.65 327.7 265.31 327.7 262.95 382.59" style="fill:#e0e0e0"></polygon><polygon points="277.85 382.59 274.98 382.59 272.63 327.7 276.29 327.7 277.85 382.59" style="fill:#e0e0e0"></polygon><polygon points="297.06 382.59 294.19 382.59 291.05 327.7 294.71 327.7 297.06 382.59" style="fill:#e0e0e0"></polygon><rect x="266.23" y="325.61" width="32.15" height="4.18" style="fill:#e6e6e6"></rect><rect x="239.55" y="325.61" width="26.67" height="4.18" style="fill:#ebebeb"></rect><path d="M413.21,284.84a403.93,403.93,0,0,0-5,44.56l-2.35-.2a406.53,406.53,0,0,1,5.1-44.85c1.41-9.58,11-17.06,20.16-16.44a14.24,14.24,0,0,1,10.55,5.95A15.35,15.35,0,0,1,444,286a366.77,366.77,0,0,0-5.17,40.46l-2.34-.15a369.65,369.65,0,0,1,5.2-40.77,13,13,0,0,0-2-10.3,10.83,10.83,0,0,0-.92-1.11,362.27,362.27,0,0,0-7.61,53.06l-2.35-.17a358,358,0,0,1,8-54.61,12.4,12.4,0,0,0-5-1.93A364.79,364.79,0,0,0,423.5,328l-2.35-.18a367.27,367.27,0,0,1,8.3-57.44,15,15,0,0,0-5.71,1.23,372.76,372.76,0,0,0-7.91,57.11l-2.35-.19A374.88,374.88,0,0,1,421,273.05,18.34,18.34,0,0,0,413.21,284.84Z" style="fill:#e0e0e0"></path><path d="M384.81,327.7h54.1a5.75,5.75,0,0,0-5.75-5.75h-42.6a5.75,5.75,0,0,0-5.75,5.75Z" style="fill:#f0f0f0"></path><polygon points="437.08 382.59 439.95 382.59 437.6 327.7 433.94 327.7 437.08 382.59" style="fill:#e0e0e0"></polygon><polygon points="417.87 382.59 420.74 382.59 419.18 327.7 415.52 327.7 417.87 382.59" style="fill:#e0e0e0"></polygon><polygon points="402.97 382.59 405.85 382.59 408.2 327.7 404.54 327.7 402.97 382.59" style="fill:#e0e0e0"></polygon><polygon points="383.76 382.59 386.64 382.59 389.77 327.7 386.11 327.7 383.76 382.59" style="fill:#e0e0e0"></polygon><rect x="382.45" y="325.61" width="32.15" height="4.18" transform="translate(797.05 655.4) rotate(180)" style="fill:#e6e6e6"></rect><rect x="414.6" y="325.61" width="26.67" height="4.18" transform="translate(855.87 655.4) rotate(180)" style="fill:#ebebeb"></rect></g><g id="background-simple"><path d="M268.27,364.94c51-1.15,105.77-4.37,138.74-53.88,45.85-68.84-50.08-102.47-100.69-110.35-29-4.52-43.42-20.72-60.43-40.85-21.39-25.31-49.69-36.52-85.5-36.87-39.94-.39-79.45,26-91.85,64.65-15,46.85,11.52,91.6,41.33,121.37C147.41,346.5,210.89,366.23,268.27,364.94Z" style="fill:#407BFF"></path><g style="opacity:0.9"><path d="M268.27,364.94c51-1.15,105.77-4.37,138.74-53.88,45.85-68.84-50.08-102.47-100.69-110.35-29-4.52-43.42-20.72-60.43-40.85-21.39-25.31-49.69-36.52-85.5-36.87-39.94-.39-79.45,26-91.85,64.65-15,46.85,11.52,91.6,41.33,121.37C147.41,346.5,210.89,366.23,268.27,364.94Z" style="fill:#fff"></path></g></g><g id="Shadow"><ellipse id="path" cx="245.18" cy="412.39" rx="193.89" ry="11.32" style="fill:#f5f5f5"></ellipse></g><g id="Device"><path d="M98.62,74.24h7.69A13.18,13.18,0,0,0,93,88.27l12.24,233.58a15,15,0,0,0,14.76,14h-7.69a14.94,14.94,0,0,1-14.76-14L85.33,88.27A13.17,13.17,0,0,1,98.62,74.24Z" style="fill:#263238"></path><path d="M98.62,74.24h7.69A13.18,13.18,0,0,0,93,88.27l12.24,233.58a15,15,0,0,0,14.76,14h-7.69a14.94,14.94,0,0,1-14.76-14L85.33,88.27A13.17,13.17,0,0,1,98.62,74.24Z" style="fill:#fff;opacity:0.30000000000000004"></path><path d="M116.62,335.87h94.22a13.18,13.18,0,0,0,13.29-14L211.89,88.27a15,15,0,0,0-14.76-14H102.91a13.18,13.18,0,0,0-13.29,14l12.24,233.58A15,15,0,0,0,116.62,335.87Z" style="fill:#263238"></path><path d="M219.3,322.08,207.06,88.5a10.42,10.42,0,0,0-10.27-9.76h-19.2l.25,4.84a4.18,4.18,0,0,1-4.24,4.48H128.11a5,5,0,0,1-5-4.71l-.24-4.61H102.58A8.69,8.69,0,0,0,93.78,88L106,321.61a10.42,10.42,0,0,0,10.27,9.76H210.5a8.67,8.67,0,0,0,8.8-9.29Z" style="fill:#407BFF"></path><path d="M219.3,322.08,207.06,88.5a10.42,10.42,0,0,0-10.27-9.76h-19.2l.25,4.84a4.18,4.18,0,0,1-4.24,4.48H128.11a5,5,0,0,1-5-4.71l-.24-4.61H102.58A8.69,8.69,0,0,0,93.78,88L106,321.61a10.42,10.42,0,0,0,10.27,9.76H210.5a8.67,8.67,0,0,0,8.8-9.29Z" style="opacity:0.1"></path><g style="opacity:0.8"><path d="M192.77,252.74H125.93c-3.29,0-4-5.11-.71-5.11h66.84c3.29,0,4,5.11.71,5.11Z" style="fill:#fff"></path><path d="M183.42,265.57H126.6c-3.29,0-4-5.11-.71-5.11h56.82c3.29,0,4,5.11.71,5.11Z" style="fill:#fff"></path><path d="M191.38,278.4h-64.1c-3.29,0-4-5.11-.72-5.11h64.1c3.3,0,4,5.11.72,5.11Z" style="fill:#fff"></path><path d="M172.74,291.23H128c-3.29,0-4-5.11-.72-5.11H172c3.29,0,4,5.11.72,5.11Z" style="fill:#fff"></path></g><g style="opacity:0.8"><path d="M119.17,112.54l-2,7.18h-1.78l-1.84-4.86-1.37,4.86h-1.78l-2.73-7.18h1.72l1.89,5,1.42-5h1.54l1.91,5.09,1.41-5.09Z" style="fill:#fff"></path><path d="M126,118.39l.07,1.33h-5.56l-.38-7.18h5.43l.07,1.33h-3.78l.08,1.56h3.34l.07,1.29H122l.09,1.67Z" style="fill:#fff"></path><path d="M134.9,118.18h-3.33l-.56,1.54h-1.7l2.83-7.18h1.64l3.58,7.18h-1.74Zm-.59-1.26L133,114.17l-1,2.75Z" style="fill:#fff"></path><path d="M142.69,119.72l-1.49-2h-1.53l.11,2h-1.67l-.37-7.18h3.11a4,4,0,0,1,1.67.32,2.52,2.52,0,0,1,1.58,2.28,2.28,2.28,0,0,1-.31,1.38,2.25,2.25,0,0,1-1,.89l1.74,2.31Zm-.71-5.5a1.8,1.8,0,0,0-1.16-.33h-1.35l.13,2.51H141a1.65,1.65,0,0,0,1.12-.33,1.09,1.09,0,0,0,.34-.93A1.18,1.18,0,0,0,142,114.22Z" style="fill:#fff"></path><path d="M151.15,118.39l.07,1.33h-5.57l-.37-7.18h5.43l.07,1.33H147l.08,1.56h3.34l.06,1.29h-3.33l.09,1.67Z" style="fill:#fff"></path><path d="M161.65,112.54l.38,7.18h-1.66l-.16-2.94H157l.15,2.94h-1.66l-.37-7.18h1.66l.15,2.83h3.26l-.15-2.83Z" style="fill:#fff"></path><path d="M163.36,112.54H165l.37,7.18h-1.66Z" style="fill:#fff"></path><path d="M171.67,119.72l-1.49-2h-1.52l.1,2H167.1l-.38-7.18h3.11a4,4,0,0,1,1.67.32,2.61,2.61,0,0,1,1.13.9,2.56,2.56,0,0,1,.46,1.38,2.36,2.36,0,0,1-.32,1.38,2.18,2.18,0,0,1-1,.89l1.73,2.31Zm-.71-5.5a1.77,1.77,0,0,0-1.15-.33h-1.36l.14,2.51h1.35a1.65,1.65,0,0,0,1.12-.33,1.09,1.09,0,0,0,.34-.93A1.15,1.15,0,0,0,171,114.22Z" style="fill:#fff"></path><path d="M174.26,112.54h1.66l.38,7.18h-1.66Z" style="fill:#fff"></path><path d="M184.21,112.54l.38,7.18h-1.36l-3.81-4.36.23,4.36H178l-.37-7.18H179l3.8,4.36-.23-4.36Z" style="fill:#fff"></path><path d="M191,116h1.52l.15,2.91a4.17,4.17,0,0,1-1.31.68,5.42,5.42,0,0,1-1.54.23,4.44,4.44,0,0,1-2-.47,3.85,3.85,0,0,1-1.47-1.33,3.79,3.79,0,0,1-.61-1.91,3.56,3.56,0,0,1,.41-1.91,3.3,3.3,0,0,1,1.34-1.33,4.14,4.14,0,0,1,2-.47,4.59,4.59,0,0,1,1.73.31,3.72,3.72,0,0,1,1.34.93l-1,1a2.63,2.63,0,0,0-1.9-.81,2.49,2.49,0,0,0-1.21.29,1.87,1.87,0,0,0-.79.81,2.25,2.25,0,0,0-.23,1.2,2.41,2.41,0,0,0,.36,1.19,2.22,2.22,0,0,0,.87.82,2.56,2.56,0,0,0,1.22.29,2.52,2.52,0,0,0,1.27-.31Z" style="fill:#fff"></path><path d="M194.13,119.53a.91.91,0,0,1-.32-.66.84.84,0,0,1,.24-.65.94.94,0,0,1,.7-.26,1,1,0,0,1,.72.26.9.9,0,0,1,.31.65.84.84,0,0,1-.25.66.91.91,0,0,1-.68.27A1,1,0,0,1,194.13,119.53Zm-.62-7h1.91l-.07,4.69h-1.28Z" style="fill:#fff"></path></g><polygon points="152.84 132.76 160.28 139.18 169.55 137.17 172.96 146.29 182.24 149.23 180.72 158.6 187.52 165.71 181.46 172.81 183.97 182.18 175 185.12 172.54 194.24 163.06 192.23 156.29 198.66 148.85 192.23 139.59 194.24 136.17 185.12 126.89 182.18 128.42 172.81 121.62 165.71 127.67 158.6 125.17 149.23 134.13 146.29 136.6 137.17 146.07 139.18 152.84 132.76" style="fill:#fff;opacity:0.8"></polygon><polygon points="156.58 167.15 152.7 167.15 152.37 160.83 156.25 160.83 156.58 167.15" style="fill:#263238"></polygon><polygon points="156.58 167.15 152.7 167.15 152.37 160.83 156.25 160.83 156.58 167.15" style="fill:#fff;opacity:0.2"></polygon><path d="M137.4,166.27l-.6-11.39h-2.19l.62,12a4,4,0,0,0,1.73,3.07l4,2.75-.13-2.53-.9-.37A4.06,4.06,0,0,1,137.4,166.27Z" style="fill:#263238"></path><path d="M137.4,166.27l-.6-11.39h-2.19l.62,12a4,4,0,0,0,1.73,3.07l4,2.75-.13-2.53-.9-.37A4.06,4.06,0,0,1,137.4,166.27Z" style="fill:#fff;opacity:0.2"></path><path d="M171.79,166.27l-.59-11.39h2.19l.63,12a3.58,3.58,0,0,1-1.41,3.07l-3.67,2.75-.13-2.53.86-.37A3.56,3.56,0,0,0,171.79,166.27Z" style="fill:#263238"></path><path d="M171.79,166.27l-.59-11.39h2.19l.63,12a3.58,3.58,0,0,1-1.41,3.07l-3.67,2.75-.13-2.53.86-.37A3.56,3.56,0,0,0,171.79,166.27Z" style="fill:#fff;opacity:0.2"></path><path d="M177.8,195l-20.09-6.25L157,175.64h-3.88l.68,13.07L134.4,195a.74.74,0,0,0-.51.75h0a.83.83,0,0,0,1,.77l19.74-4.91.5,4.2a1.07,1.07,0,0,0,1.05.95,1,1,0,0,0,1-.95l0-4.2,20.26,4.91a.74.74,0,0,0,.93-.77A.84.84,0,0,0,177.8,195Z" style="fill:#263238"></path><path d="M177.8,195l-20.09-6.25L157,175.64h-3.88l.68,13.07L134.4,195a.74.74,0,0,0-.51.75h0a.83.83,0,0,0,1,.77l19.74-4.91.5,4.2a1.07,1.07,0,0,0,1.05.95,1,1,0,0,0,1-.95l0-4.2,20.26,4.91a.74.74,0,0,0,.93-.77A.84.84,0,0,0,177.8,195Z" style="fill:#fff;opacity:0.2"></path><path d="M135.69,198.3a1.57,1.57,0,0,1-1.58,1.67,1.79,1.79,0,0,1-1.76-1.67,1.57,1.57,0,0,1,1.58-1.67A1.78,1.78,0,0,1,135.69,198.3Z" style="fill:#263238"></path><path d="M157.94,198.3a1.57,1.57,0,0,1-1.58,1.67,1.79,1.79,0,0,1-1.76-1.67,1.58,1.58,0,0,1,1.59-1.67A1.77,1.77,0,0,1,157.94,198.3Z" style="fill:#263238"></path><path d="M180.2,198.3a1.57,1.57,0,0,1-1.59,1.67,1.77,1.77,0,0,1-1.75-1.67,1.57,1.57,0,0,1,1.58-1.67A1.79,1.79,0,0,1,180.2,198.3Z" style="fill:#263238"></path><path d="M138.59,154.06c.06,1.11-1.71,1.69-3.94,1.69s-4.06-.58-4.12-1.69,1.75-1.05,4-1.05S138.54,153,138.59,154.06Z" style="fill:#263238"></path><path d="M169.32,154.06c.06,1.11,1.89,1.69,4.12,1.69s4-.58,3.94-1.69-1.86-1.05-4.09-1.05S169.26,153,169.32,154.06Z" style="fill:#263238"></path><path d="M172,169.2c.25,4.75-7.34,7.23-16.86,7.23s-17.37-2.48-17.62-7.23,7.48-4.48,17-4.48S171.74,164.45,172,169.2Z" style="fill:#263238"></path><path d="M157.72,162.19c2.71-.8,8.61-1.82,9.42-4.52,1.59-5.24-2.34-19.79-6.39-23.83a11.16,11.16,0,0,0-4.17-2,17.62,17.62,0,0,0-7.58,0,9.93,9.93,0,0,0-4,2c-3.62,4-6,18.59-3.89,23.83,1.09,2.7,7.1,3.72,9.89,4.52A12.23,12.23,0,0,0,157.72,162.19Z" style="fill:#263238"></path><path d="M194.05,234.05h-71.8a7.36,7.36,0,0,1-7.27-6.9l-.37-7a6.49,6.49,0,0,1,6.55-6.9H193a7.36,7.36,0,0,1,7.27,6.9l.37,7A6.49,6.49,0,0,1,194.05,234.05Z" style="fill:#fff;opacity:0.8"></path><path d="M127.09,226h-3.7l-.62,1.71h-1.89l3.14-8h1.82l4,8h-1.94Zm-.65-1.4L125,221.49l-1.1,3.06Z" style="fill:#407BFF"></path><path d="M135.55,220a2.82,2.82,0,0,1,1.76,2.55,2.67,2.67,0,0,1-.34,1.53,2.46,2.46,0,0,1-1.15,1,4.41,4.41,0,0,1-1.82.35h-1.61l.11,2.2h-1.84l-.42-8h3.45A4.64,4.64,0,0,1,135.55,220Zm-.49,3.57a1.16,1.16,0,0,0,.38-1,1.32,1.32,0,0,0-.49-1,2,2,0,0,0-1.28-.35h-1.5l.14,2.77h1.51A1.84,1.84,0,0,0,135.06,223.6Z" style="fill:#407BFF"></path><path d="M143.78,220a2.82,2.82,0,0,1,1.76,2.55,2.67,2.67,0,0,1-.34,1.53,2.46,2.46,0,0,1-1.15,1,4.41,4.41,0,0,1-1.82.35h-1.61l.12,2.2h-1.85l-.42-8h3.45A4.64,4.64,0,0,1,143.78,220Zm-.49,3.57a1.16,1.16,0,0,0,.38-1,1.34,1.34,0,0,0-.48-1,2,2,0,0,0-1.29-.35h-1.5l.14,2.77h1.51A1.84,1.84,0,0,0,143.29,223.6Z" style="fill:#407BFF"></path><path d="M146.7,219.68h1.85l.34,6.48h4l.08,1.5h-5.85Z" style="fill:#407BFF"></path><path d="M156.87,224.83l.15,2.83h-1.85l-.15-2.85-3.36-5.13h2l2.32,3.55,1.95-3.55h1.81Z" style="fill:#407BFF"></path><path d="M171,219.68l.42,8h-1.52l-4.23-4.84.25,4.84h-1.82l-.42-8h1.53l4.22,4.85-.26-4.85Z" style="fill:#407BFF"></path><path d="M174.93,227.26a4.34,4.34,0,0,1-1.64-1.48,4.15,4.15,0,0,1-.67-2.11,3.9,3.9,0,0,1,.45-2.11,3.66,3.66,0,0,1,1.49-1.48,4.44,4.44,0,0,1,2.21-.54,4.74,4.74,0,0,1,2.26.54,4.34,4.34,0,0,1,1.64,1.48,4.16,4.16,0,0,1,.68,2.11,3.82,3.82,0,0,1-.46,2.11,3.76,3.76,0,0,1-1.48,1.48,4.47,4.47,0,0,1-2.21.54A4.81,4.81,0,0,1,174.93,227.26Zm3.45-1.36a2.2,2.2,0,0,0,.85-.91,2.58,2.58,0,0,0,.25-1.32,2.91,2.91,0,0,0-.39-1.32,2.51,2.51,0,0,0-1-.91,2.68,2.68,0,0,0-1.29-.32,2.51,2.51,0,0,0-1.26.32,2.2,2.2,0,0,0-.85.91,2.6,2.6,0,0,0-.25,1.32,2.65,2.65,0,0,0,.39,1.32,2.56,2.56,0,0,0,.94.91,2.64,2.64,0,0,0,1.3.32A2.41,2.41,0,0,0,178.38,225.9Z" style="fill:#407BFF"></path><path d="M194.33,219.68l-2.19,8h-2l-2-5.4-1.53,5.4h-2l-3-8h1.92l2.09,5.61,1.59-5.61h1.71l2.12,5.65,1.56-5.65Z" style="fill:#407BFF"></path><path d="M112.79,330.73a10,10,0,0,0,3.5.64h46.5L209.3,131.28,207.06,88.5a10.42,10.42,0,0,0-10.27-9.76h-19.2l.25,4.84a4.18,4.18,0,0,1-4.24,4.48h-4.4Z" style="fill:#fff;opacity:0.2"></path><polygon points="174.7 331.37 211.49 173.09 210.24 149.12 167.87 331.37 174.7 331.37" style="fill:#fff;opacity:0.2"></polygon></g><g id="Table"><path d="M399.77,408.46l-31.33-7.65V275.3h-8.31V400.81l-31.34,7.65a1.8,1.8,0,0,0,.77,3.52l34.72-6.59L399,412a1.8,1.8,0,0,0,.76-3.52Z" style="fill:#263238"></path><g style="opacity:0.2"><path d="M399.77,408.46l-31.33-7.65V275.3h-8.31V400.81l-31.34,7.65a1.8,1.8,0,0,0,.77,3.52l34.72-6.59L399,412a1.8,1.8,0,0,0,.76-3.52Z" style="fill:#fff"></path></g><path d="M380.42,281.49s-12.08,1.71-16.14,1.71-16.13-1.71-16.13-1.71a3.11,3.11,0,0,1-2.78-3.08h37.82A3.11,3.11,0,0,1,380.42,281.49Z" style="fill:#263238"></path><path d="M380.42,281.49s-12.08,1.71-16.14,1.71-16.13-1.71-16.13-1.71a3.11,3.11,0,0,1-2.78-3.08h37.82A3.11,3.11,0,0,1,380.42,281.49Z" style="fill:#fff;opacity:0.30000000000000004"></path><path d="M405.73,278.6h-82.9a3.3,3.3,0,0,1-3.3-3.3h0a3.3,3.3,0,0,1,3.3-3.3h82.9a3.3,3.3,0,0,1,3.3,3.3h0A3.3,3.3,0,0,1,405.73,278.6Z" style="fill:#407BFF"></path><path d="M405.73,278.6h-82.9a3.3,3.3,0,0,1-3.3-3.3h0a3.3,3.3,0,0,1,3.3-3.3h82.9a3.3,3.3,0,0,1,3.3,3.3h0A3.3,3.3,0,0,1,405.73,278.6Z" style="fill:#fff;opacity:0.4"></path><polygon points="370.69 271.63 358.35 271.63 357.35 240.95 371.69 240.95 370.69 271.63" style="fill:#407BFF"></polygon><polygon points="370.69 271.63 358.35 271.63 357.35 240.95 371.69 240.95 370.69 271.63" style="fill:#fff;opacity:0.7000000000000001"></polygon><polygon points="373.02 242.04 356.02 242.04 357.02 239.13 372.02 239.13 373.02 242.04" style="fill:#407BFF"></polygon><polygon points="371.1 260.92 371.36 252.16 357.68 252.16 357.94 260.92 371.1 260.92" style="fill:#407BFF"></polygon><path d="M367.35,256.54a2.83,2.83,0,1,1-2.83-2.83A2.83,2.83,0,0,1,367.35,256.54Z" style="fill:#fff;opacity:0.8"></path></g><g id="Character"><path d="M304.17,233.24l1.49,4.43c.21.62-.94,5.1-.5,6.18l2.67,5.6a2.85,2.85,0,0,0,1.64,1.31h0a5.23,5.23,0,0,0,3.23-.58l1.43-.75a2,2,0,0,0,1.1-1.94c-.13-1.94,0-5.63-.44-7a2,2,0,0,0-.55-.91l-2.1-2a2.83,2.83,0,0,1-.63-1.17l-1.34-5a2.86,2.86,0,0,0-4-1.83l-.52.26A2.85,2.85,0,0,0,304.17,233.24Z" style="fill:#ff8b7b"></path><path d="M215.55,215.34l-7,1.44a.92.92,0,0,1-.84.19l-9-2.51a.89.89,0,0,0-.6,0l-7.5,3.23a.89.89,0,0,0-.49,1.11v0a.9.9,0,0,0,1.09.57l3.79-1.07a.89.89,0,0,1,1,.35l3.34,4.83a.92.92,0,0,0,.64.38l3.81.41a.73.73,0,0,0,.36,0l6.9-2.19a.92.92,0,0,0,.28-.14l6.58-.76a.9.9,0,0,0,.13-1.29l-1.23-4.51A.89.89,0,0,0,215.55,215.34Z" style="fill:#ff8b7b"></path><path d="M245.22,214.47c-.53,6.09-32.92,8.64-32.92,8.64l-1.51-7.86,24.09-7.32c-5.33-33.72,6.43-35.11,6.43-35.11S246.94,194.4,245.22,214.47Z" style="fill:#407BFF"></path><g style="opacity:0.6000000000000001"><path d="M245.22,214.47c-.53,6.09-32.92,8.64-32.92,8.64l-1.51-7.86,24.09-7.32c-5.33-33.72,6.43-35.11,6.43-35.11S246.94,194.4,245.22,214.47Z" style="fill:#fff"></path></g><polygon points="251 387.8 251.77 406.27 259.4 405.95 260.45 387.4 251 387.8" style="fill:#ff8b7b"></polygon><polygon points="251.39 397.25 259.92 396.89 260.45 387.4 250.99 387.8 251.39 397.25" style="fill:#263238;opacity:0.2"></polygon><path d="M243.24,235.74,250,395.6l11-.47s5.88-36.13,4.56-60.49c-.14-2.52-1-8.84-.81-11a64.22,64.22,0,0,1,1.8-9.42c2.67-11.21,5.16-30.59,3.65-45.11,0,0,14.37-15.36,10.54-35Z" style="fill:#407BFF"></path><path d="M271.43,267.64l-3.65-8L265,260.93s-.3,12.29,4.55,35.42a131.55,131.55,0,0,0,.62-27.22S270.66,268.61,271.43,267.64Z" style="opacity:0.2"></path><path d="M247.27,403.52c-1.14,0-2.34-.16-2.73-.64a.83.83,0,0,1,0-.95,1.11,1.11,0,0,1,.67-.53c1.53-.46,4.8,1.3,4.94,1.38a.2.2,0,0,1,.11.22.22.22,0,0,1-.17.19A16.7,16.7,0,0,1,247.27,403.52Zm-1.51-1.76a1.4,1.4,0,0,0-.41.06.59.59,0,0,0-.43.32c-.15.27-.09.4,0,.47.44.59,2.77.55,4.48.3A10,10,0,0,0,245.76,401.76Z" style="fill:#407BFF"></path><path d="M250.05,403.18H250c-1.11-.47-3.38-2.41-3.2-3.46,0-.25.19-.56.79-.63a1.65,1.65,0,0,1,1.23.34c1.2.94,1.5,3.43,1.52,3.54a.2.2,0,0,1-.1.2A.19.19,0,0,1,250.05,403.18Zm-2.34-3.68h-.13c-.39.05-.41.2-.43.26,0,.63,1.45,2.16,2.61,2.81a5.07,5.07,0,0,0-1.29-2.8,1.1,1.1,0,0,0-.76-.26Z" style="fill:#407BFF"></path><path d="M251,401.87l10.07-.24a.82.82,0,0,1,.81.62l2,8.15a1.36,1.36,0,0,1-1,1.64l-.28,0c-3.63,0-6.87-.1-11.39,0-5.33.13-4,.74-10.23,1-3.78.14-4.57-4.14-3-4.39,7.31-1.1,8-3.33,10.79-6A3.24,3.24,0,0,1,251,401.87Z" style="fill:#263238"></path><polygon points="306.28 386.93 311.6 404.64 318.92 402.44 315.35 384.2 306.28 386.93" style="fill:#ff8b7b"></polygon><polygon points="308.53 394.4 316.99 392.61 315.35 384.2 306.28 386.93 308.53 394.4" style="fill:#263238;opacity:0.2"></polygon><path d="M258.29,242.36c9.89,37.37,48.64,150.84,48.64,150.84l10.66-2.45S312.2,351.31,304.46,329c-1.24-3.55-3-6.46-3.87-9.12-1.07-3.38-.66-5.92-1.76-14-1.27-9.32-3.13-21.54-5.27-31.11-.57-2.57-.95-4.77-1.22-6.91-.32-2.51-.41-4.37-.64-10.2-.33-8-3.39-18.94-6.59-25.91l-28.72,1.21S257.67,240,258.29,242.36Z" style="fill:#407BFF"></path><path d="M305.71,401.49a4,4,0,0,1-2.8,0,.82.82,0,0,1-.22-.93,1.14,1.14,0,0,1,.54-.66c1.39-.79,5,.2,5.12.25a.21.21,0,0,1,.16.19.25.25,0,0,1-.13.22A16.61,16.61,0,0,1,305.71,401.49Zm-1.86-1.39a2,2,0,0,0-.4.16.62.62,0,0,0-.34.4c-.09.3,0,.42.08.47.56.48,2.82-.07,4.43-.7A10,10,0,0,0,303.85,400.1Z" style="fill:#407BFF"></path><path d="M308.35,400.55a.14.14,0,0,1-.09,0c-1.19-.2-3.83-1.6-3.9-2.66,0-.25.07-.59.64-.79a1.64,1.64,0,0,1,1.27.06c1.38.65,2.23,3,2.27,3.11a.22.22,0,0,1-.05.22A.24.24,0,0,1,308.35,400.55Zm-3.1-3.08-.13,0c-.37.13-.36.29-.36.35.1.62,1.89,1.78,3.17,2.16a5.17,5.17,0,0,0-1.88-2.44,1.12,1.12,0,0,0-.8-.09Z" style="fill:#407BFF"></path><path d="M309,399.06l9.77-2.47a.81.81,0,0,1,.92.42l3.77,7.5a1.35,1.35,0,0,1-.58,1.82,1.48,1.48,0,0,1-.27.1c-3.54.83-6.72,1.43-11.1,2.54-5.17,1.31-3.7,1.59-9.76,3.22-3.66,1-5.38-3-3.88-3.62,6.89-2.69,7.09-5,9.19-8.27A3.2,3.2,0,0,1,309,399.06Z" style="fill:#263238"></path><g style="opacity:0.2"><path d="M276.15,242.9l-.91-3.7c-3.51.71-6.78,1.23-9.77,1.59l.4,3.8C269,244.21,272.45,243.66,276.15,242.9Z"></path><path d="M252.26,241.49a63.51,63.51,0,0,1-8-.62l.34,3.91a69.13,69.13,0,0,0,8,.55Z"></path><path d="M284.82,236.9q-3.78,1-7.25,1.8l1.09,3.66c2.29-.52,4.67-1.11,7.15-1.8Z"></path><path d="M262.5,241.1c-3.06.28-5.81.4-8.24.41l.41,3.83c1,0,2,0,3-.07,1.64-.07,3.39-.19,5.25-.37Z"></path></g><path d="M287.86,170.8l-14.77.62c-3.26,3.6-17.62,3.43-16.95.72l-14.91.63a3.33,3.33,0,0,0-3.11,2.27c-4.6,15.64,4.52,58.26,4.52,58.26-5.46,8.37,13.22,6.41,33,3.83s10.61-8.21,10.61-8.21c-1.29-20.31,2.45-47.75,3.52-56A1.85,1.85,0,0,0,287.86,170.8Z" style="fill:#407BFF"></path><g style="opacity:0.7000000000000001"><path d="M287.86,170.8l-14.77.62c-3.26,3.6-17.62,3.43-16.95.72l-14.91.63a3.33,3.33,0,0,0-3.11,2.27c-4.6,15.64,4.52,58.26,4.52,58.26-5.46,8.37,13.22,6.41,33,3.83s10.61-8.21,10.61-8.21c-1.29-20.31,2.45-47.75,3.52-56A1.85,1.85,0,0,0,287.86,170.8Z" style="fill:#fff"></path></g><path d="M259.06,134.11s-8.91.77-8.16,4.85,8.22.39,8.22.39Z" style="fill:#263238"></path><path d="M271.29,154.43c-1.51,5-2.89,13-.82,17.92.5,1.18-.41,3.31-1.45,4.06-3.64,2.86-7.85,5.52-12.48,5.22-5.94-.39-6.39-4.84-5-7.2.38-.63,1.36-2,2.08-2.19,5.77-1.23,6.29-5.13,5.66-9.51Z" style="fill:#ff8b7b"></path><path d="M266.41,157.84l-7.11,4.87a19.52,19.52,0,0,1,.13,3.24c2.5-.1,5.89-1.85,7.13-4.46C267.35,159.9,267,158.1,266.41,157.84Z" style="opacity:0.2;isolation:isolate"></path><path d="M274.32,146.3c-1.81,7.69-2.49,12.27-7.09,15.58-6.93,5-15.9-.25-16.41-8.29-.46-7.3,2.58-18.6,10.71-20.38a10.76,10.76,0,0,1,12.85,8.14A10.89,10.89,0,0,1,274.32,146.3Z" style="fill:#ff8b7b"></path><path d="M262.47,145.7c-.32.59-.9.92-1.29.7s-.45-.87-.12-1.47.9-.92,1.29-.7S262.8,145.11,262.47,145.7Z" style="fill:#263238"></path><path d="M255.29,143.62c-.33.6-.91.92-1.3.71s-.45-.88-.12-1.48.9-.92,1.29-.7S255.61,143,255.29,143.62Z" style="fill:#263238"></path><path d="M265.94,144.49a.4.4,0,0,1-.27-.32,3.16,3.16,0,0,0-1.62-2.39.4.4,0,0,1-.21-.53h0a.39.39,0,0,1,.52-.2h0a4,4,0,0,1,2.08,3,.4.4,0,0,1-.33.46Z" style="fill:#263238"></path><path d="M253.78,139.56a.4.4,0,0,1-.25-.51.43.43,0,0,1,.15-.2,4,4,0,0,1,3.59-.66.4.4,0,0,1,.24.51h0a.42.42,0,0,1-.52.23h0a3.18,3.18,0,0,0-2.84.52A.42.42,0,0,1,253.78,139.56Z" style="fill:#263238"></path><path d="M256.63,144.91a21,21,0,0,1-4.63,3.37,3.39,3.39,0,0,0,2.32,1.64Z" style="fill:#de5753"></path><path d="M254.3,152.36s2.86-.39,10.71.14c-1.12,2.07-3,3.68-7,3.39S254.3,152.36,254.3,152.36Z" style="fill:#263238"></path><path d="M260,154.34a8.07,8.07,0,0,0-4.49.73,4.59,4.59,0,0,0,2.45.81,8,8,0,0,0,4.48-.74A4.47,4.47,0,0,0,260,154.34Z" style="fill:#de5753"></path><path d="M254.67,152.33a1.5,1.5,0,0,0,1.12,1.14,46.74,46.74,0,0,0,7-.07,2.29,2.29,0,0,0,1.87-.93A72.4,72.4,0,0,0,254.67,152.33Z" style="fill:#fff"></path><path d="M272,151.58a17.7,17.7,0,0,1-1.18-8.58s-2.94-3.63-2.58-6.74c0,0-15.73,1-15.85-5.92s9.69-.07,9.69-.07.07-9.68,7-1.46c0,0,8.26,1.26,9.46,8.13,0,0,3.41-.51,2.75,5.58a31.45,31.45,0,0,1-6.27,10Z" style="fill:#263238"></path><path d="M276.86,154.2a7.56,7.56,0,0,1-5.16,2.47c-2.63.11-3.36-2.38-2.13-4.55,1.1-2,3.79-4.37,6.19-3.46S278.48,152.37,276.86,154.2Z" style="fill:#ff8b7b"></path><path d="M279.92,143.79s2.66-4.17,3.63-2.76S279.92,143.79,279.92,143.79Z" style="fill:#263238"></path><path d="M254.76,172.18c-.48,2-1.18,6.62,1.7,9.08,0,0,10.23-5.36,13.84-10.24a1.15,1.15,0,0,1,1.63-.26l.88.68s.8,5.14-6.6,13.72a.67.67,0,0,1-1.16-.22c-.57-1.8-2.47-4.66-8.66-2.43,0,0-4.18-1.38-6.28.93a.67.67,0,0,1-1.17-.48,20.89,20.89,0,0,1,3.51-10.8l1.6-.6A.53.53,0,0,1,254.76,172.18Z" style="fill:#407BFF"></path><path d="M246.06,233.37s14.76,1.9,26.61-1.69Z" style="opacity:0.1"></path><path d="M284,183.54s-1.37,8,2.59,19.31c.41-5.87.95-11.49,1.49-16.37Z" style="opacity:0.1"></path><path d="M289.57,171.58s-9.5,6.4-5.09,17.85S304.31,236,304.31,236l7.84-2-9.52-31.93-13.06-30.54" style="fill:#407BFF"></path><path d="M289.57,171.58s-9.5,6.4-5.09,17.85S304.31,236,304.31,236l7.84-2-9.52-31.93-13.06-30.54" style="fill:#fff;opacity:0.7000000000000001"></path></g></svg>