<svg xmlns="http://www.w3.org/2000/svg" xmlns:xlink="http://www.w3.org/1999/xlink" viewBox="0 0 500 500"><defs><clippath id="clip-path"><path d="M171.05,232.34l-14.76,5.33L153,229.06l28.36-8.75s-1.69,2.82-6.25,9.72C172.19,234.42,171.05,232.34,171.05,232.34Z" style="fill:#92E3A9;stroke:#263238;stroke-linecap:round;stroke-linejoin:round"></path></clippath><clippath id="clip-path-2"><path d="M164.33,259.24a156.56,156.56,0,0,0-11.77,15.24c-4.85,3.25-11.57,6-20.83,7.41L131,282h0c-4.84.64-7.72-20.25-9.07-33.49-.61-6.1-.9-10.57-.9-10.57s-13.9-19.58-15.5-38.05a35.56,35.56,0,0,1-.13-4.83c.29-7.29,2.12-12.31,4.29-15.72a16.46,16.46,0,0,1,8-6.86,1.5,1.5,0,0,0-.55,1.58,2.73,2.73,0,0,0,.62,1.1l.21.22c.16.17.34.33.51.48l3.57,3.25,5.35,4.86a7.22,7.22,0,0,0,3.82,2.23c1.5.16,3.65-2.13,3.31-3.59l-.24.88a6.08,6.08,0,0,1-1.79-4.82,4.93,4.93,0,0,1,.3-1.38,20.65,20.65,0,0,1,3.48,4.31c4.47,7.29,12.57,17.33,17.51,23.24a13.54,13.54,0,0,1,2,14.33l-.06.13c-1.79,3.75-.37,8.1-.06,8.95l.06.15,2.8,8.49v0L163,250.69l.83,2.52A12.5,12.5,0,0,1,164.33,259.24Z" style="fill:#92E3A9;stroke:#263238;stroke-linecap:round;stroke-linejoin:round"></path></clippath><clippath id="clip-path-3"><path d="M171.05,232.1s-22.12,9.3-31.66,9.73c0,0-5.94-16.45-9.46-45.76-1.67-13.88-15.15-9.87-15.15-9.87-.24.14-13.5,5.88-8.12,24.32s21.58,51.36,21.58,51.36A97.37,97.37,0,0,0,162.53,251l12.56-6.76S173,237,171.05,232.1Z" style="fill:#92E3A9;stroke:#263238;stroke-linecap:round;stroke-linejoin:round"></path></clippath></defs><g id="background-simple"><path d="M393.75,104.54C382,68.2,327.88,12.6,247.62,19.42c-41.22,3.5-80.85,43.09-104.57,78-32.12,47.22-55.28,102.27-64,159.06-4.39,28.56-5.6,58.39,3.32,85.84s27.3,50.55,48.16,70c36.4,33.92,81.62,58.22,130,67.93S470,472.82,411.39,310.5C387.43,244.2,415.26,170.76,393.75,104.54Z" style="fill:#92E3A9"></path><path d="M393.75,104.54C382,68.2,327.88,12.6,247.62,19.42c-41.22,3.5-80.85,43.09-104.57,78-32.12,47.22-55.28,102.27-64,159.06-4.39,28.56-5.6,58.39,3.32,85.84s27.3,50.55,48.16,70c36.4,33.92,81.62,58.22,130,67.93S470,472.82,411.39,310.5C387.43,244.2,415.26,170.76,393.75,104.54Z" style="fill:#fff;opacity:0.7000000000000001"></path></g><g id="Window"><polygon points="392.01 73.77 392.01 254.07 391.25 254.07 391.25 73.78 391.29 73.77 392.01 73.77" style="fill:#fff;stroke:#263238;stroke-linecap:round;stroke-linejoin:round"></polygon><polygon points="391.29 73.77 391.25 73.78 391.25 254.07 109.61 254.07 109.61 73.77 391.29 73.77" style="fill:#fff;stroke:#263238;stroke-linecap:round;stroke-linejoin:round"></polygon><rect x="391.25" y="73.78" width="0.76" height="180.29" style="fill:#fff;stroke:#263238;stroke-linecap:round;stroke-linejoin:round"></rect><polygon points="474.82 53.66 474.82 274.19 467.08 272.33 391.25 254.07 391.25 73.78 391.29 73.77 467.08 55.52 474.82 53.66" style="fill:#fff;stroke:#263238;stroke-linecap:round;stroke-linejoin:round"></polygon><rect x="467.08" y="53.66" width="7.74" height="220.52" style="fill:#fff;stroke:#263238;stroke-linecap:round;stroke-linejoin:round"></rect><polygon points="25.78 274.18 109.35 254.07 109.35 73.78 25.78 53.66 25.78 274.18" style="fill:#fff;stroke:#263238;stroke-linecap:round;stroke-linejoin:round"></polygon><rect x="25.78" y="53.66" width="7.74" height="220.52" transform="translate(59.3 327.84) rotate(180)" style="fill:#fff;stroke:#263238;stroke-linecap:round;stroke-linejoin:round"></rect><polygon points="383.45 244.03 118.78 243.05 118.78 82.46 383.45 83.43 383.45 244.03" style="fill:#5c5c5c;stroke:#263238;stroke-linecap:round;stroke-linejoin:round"></polygon><path d="M306.69,242.89h76.84a91.08,91.08,0,0,0-173.83-6.12,18.75,18.75,0,0,0-1.06,6.12h98.05Z" style="fill:#92E3A9;stroke:#263238;stroke-linecap:round;stroke-linejoin:round"></path><path d="M283.48,182.36,272,189.24v11s8.71-1.18,11.49-5.94c0,0-2.38-1,4.35-5S293,180.35,283.48,182.36Z" style="fill:#fff"></path><path d="M265.26,182.36h1.59l-11.28,6.76-1.79,1.93-11.08,6.38-2.18,2.77-1.78,6.14-5.94,4.75,2.77,2L229.24,221h-2.18l-.79-3.17,4.75-9.9-6.58,3.69S238.54,189.65,265.26,182.36Z" style="fill:#fff"></path><path d="M209.41,242.14h16l.57-7.25s-1-1.39-.84-2,2-10.29,2-10.29l-3.06-8.31-2.85,3.75h-1.73A86.1,86.1,0,0,0,209.41,242.14Z" style="fill:#fff"></path><polygon points="263.29 191.05 265.26 191.05 265.26 193.47 263.29 194.66 261.5 194.66 261.5 192.85 263.29 191.05" style="fill:#fff"></polygon><polygon points="251.21 195.85 248.24 199.01 247.45 201.67 244.48 204.56 243.29 202.78 241.12 204.56 241.12 202.58 242.7 200.2 251.21 195.85" style="fill:#fff"></polygon><path d="M306.83,242.56h13.54c3.63,0,25.69-.19,25.69-.19,1.89-6.75,2.79-14.7.56-21.38-2.89-8.69-8.27-16.71-10-22h0l-.06-.17c-.05-.16-.09-.3-.12-.44a3.2,3.2,0,0,1,2.44-3.74c1.38-.39,4,1.19,4,1.19h5.05l-5.25-3-2.17-2.3-1.39-1.23L334,187.14l.2-1.58a28.56,28.56,0,0,0-9.7-3.67l3.76,2.87h-4l-.79,4.48h-7.92s2-.52-2.77-3.14-20.19-3.74-20.19-3.74l4.75,6.88L287,195.06l1.19,4.35,7.08-2v-2.37l4.4-2.67.4,4.65,1.57,2,2-1.58,5.58,5.55-9.93,9.67-1.59-12.44-14.26,3.16L272,216.83s13.85,5.15,19,8.32,4.31,9.93,4.31,9.93l8.36,4.71-1.47,2.77Z" style="fill:#fff"></path><polygon points="41.56 255.44 102.82 245.79 102.15 78.4 40.8 66.08 41.56 255.44" style="fill:#fff;stroke:#263238;stroke-linecap:round;stroke-linejoin:round"></polygon><line x1="66.88" y1="85.66" x2="80.76" y2="122.96" style="fill:#fff;stroke:#263238;stroke-linecap:round;stroke-linejoin:round"></line><line x1="64.7" y1="79.79" x2="66.14" y2="83.67" style="fill:#fff;stroke:#263238;stroke-linecap:round;stroke-linejoin:round"></line><line x1="61.39" y1="70.9" x2="64.05" y2="78.04" style="fill:#fff;stroke:#263238;stroke-linecap:round;stroke-linejoin:round"></line><line x1="60.5" y1="91.55" x2="78.66" y2="140.9" style="fill:#fff;stroke:#263238;stroke-linecap:round;stroke-linejoin:round"></line><line x1="53.89" y1="73.61" x2="59.57" y2="89.04" style="fill:#fff;stroke:#263238;stroke-linecap:round;stroke-linejoin:round"></line><line x1="66.83" y1="188.23" x2="80.9" y2="227.88" style="fill:#fff;stroke:#263238;stroke-linecap:round;stroke-linejoin:round"></line><polygon points="458.5 255.44 397.24 245.79 397.92 78.4 459.26 66.08 458.5 255.44" style="fill:#fff;stroke:#263238;stroke-linecap:round;stroke-linejoin:round"></polygon><line x1="432.83" y1="88.45" x2="446.71" y2="125.74" style="fill:#fff;stroke:#263238;stroke-linecap:round;stroke-linejoin:round"></line><line x1="430.64" y1="82.57" x2="432.09" y2="86.46" style="fill:#fff;stroke:#263238;stroke-linecap:round;stroke-linejoin:round"></line><line x1="426.44" y1="94.34" x2="444.61" y2="143.69" style="fill:#fff;stroke:#263238;stroke-linecap:round;stroke-linejoin:round"></line><line x1="419.84" y1="76.4" x2="425.52" y2="91.82" style="fill:#fff;stroke:#263238;stroke-linecap:round;stroke-linejoin:round"></line><line x1="432.77" y1="191.02" x2="446.84" y2="230.66" style="fill:#fff;stroke:#263238;stroke-linecap:round;stroke-linejoin:round"></line></g><g id="Floor"><line x1="454.77" y1="447.88" x2="474.39" y2="447.88" style="fill:none;stroke:#263238;stroke-linecap:round;stroke-linejoin:round"></line><line x1="438.5" y1="447.88" x2="446.61" y2="447.88" style="fill:none;stroke:#263238;stroke-linecap:round;stroke-linejoin:round"></line><line x1="25.34" y1="447.88" x2="430.64" y2="447.88" style="fill:none;stroke:#263238;stroke-linecap:round;stroke-linejoin:round"></line></g><g id="Shelf"><path d="M394.33,314.74V435a12.81,12.81,0,0,1-12.81,12.81H355a19.67,19.67,0,0,0,17.05-19.49V321.6A19.69,19.69,0,0,0,354.5,302l0-.11h27A12.82,12.82,0,0,1,394.33,314.74Z" style="fill:#263238;stroke:#263238;stroke-linecap:round;stroke-linejoin:round"></path><path d="M354.5,302a20.94,20.94,0,0,0-2.1-.11H66.32A19.67,19.67,0,0,0,46.65,321.6V428.33A19.67,19.67,0,0,0,66.32,448H352.4a18.9,18.9,0,0,0,2.62-.18,19.67,19.67,0,0,0,17.05-19.49V321.6A19.69,19.69,0,0,0,354.5,302ZM153.74,317.6H346A14.41,14.41,0,0,1,360.45,332v40.09H153.74ZM128.61,433.77H89.28l-.51-.17c-4.63-1.67-8-7.25-8-13.88V332.18c0-8,4.92-14.41,11-14.41h36.89ZM346,434l-192.29-.36V379.47H360.45v40.07A14.41,14.41,0,0,1,346,434Z" style="fill:#fff;stroke:#263238;stroke-linecap:round;stroke-linejoin:round"></path><line x1="225.36" y1="440.37" x2="185.17" y2="440.37" style="fill:none;stroke:#263238;stroke-linecap:round;stroke-linejoin:round"></line><line x1="241.63" y1="440.37" x2="233.52" y2="440.37" style="fill:none;stroke:#263238;stroke-linecap:round;stroke-linejoin:round"></line><path d="M80.73,332.18v87.54c0,6.63,3.41,12.21,8,13.88H70.59A12.38,12.38,0,0,1,58.2,421.22V330A12.39,12.39,0,0,1,70.59,317.6H106.4a12.6,12.6,0,0,1,2,.17H91.72C85.65,317.77,80.73,324.22,80.73,332.18Z" style="fill:#263238;stroke:#263238;stroke-linecap:round;stroke-linejoin:round"></path><rect x="135.43" y="317.6" width="18.31" height="116" style="fill:#263238;stroke:#263238;stroke-linecap:round;stroke-linejoin:round"></rect><polygon points="135.15 372.18 360.45 372.09 360.45 379.47 135.15 379.47 135.15 372.18" style="fill:#fff;stroke:#263238;stroke-linecap:round;stroke-linejoin:round"></polygon><rect x="128.61" y="317.6" width="6.82" height="116" style="fill:#fff;stroke:#263238;stroke-linecap:round;stroke-linejoin:round"></rect><rect x="219.87" y="327.87" width="12.24" height="44.31" style="fill:none;stroke:#263238;stroke-linecap:round;stroke-linejoin:round"></rect><rect x="209.21" y="327.87" width="10.66" height="44.31" style="fill:none;stroke:#263238;stroke-linecap:round;stroke-linejoin:round"></rect><polygon points="250.35 327.87 261.49 327.87 272.4 327.87 272.4 321.04 241.15 321.04 241.15 372.18 244.33 372.18 244.33 327.87 250.35 327.87" style="fill:none;stroke:#263238;stroke-linecap:round;stroke-linejoin:round"></polygon><polygon points="241.15 321.04 241.14 321.04 232.11 321.04 232.11 327.87 232.11 372.18 241.14 372.18 241.15 372.18 241.15 321.04" style="fill:none;stroke:#263238;stroke-linecap:round;stroke-linejoin:round"></polygon><polygon points="271.93 335.37 276.71 335.37 276.71 327.87 272.4 327.87 261.49 327.87 250.35 327.87 250.35 372.18 261.49 372.18 263.07 372.18 263.07 335.37 271.93 335.37" style="fill:none;stroke:#263238;stroke-linecap:round;stroke-linejoin:round"></polygon><rect x="244.33" y="327.87" width="6.02" height="44.31" style="fill:none;stroke:#263238;stroke-linecap:round;stroke-linejoin:round"></rect><polygon points="282.1 335.37 276.71 335.37 271.93 335.37 271.93 372.18 272.4 372.18 276.71 372.18 282.1 372.18 282.1 335.37" style="fill:none;stroke:#263238;stroke-linecap:round;stroke-linejoin:round"></polygon><rect x="263.07" y="335.37" width="8.85" height="36.81" style="fill:none;stroke:#263238;stroke-linecap:round;stroke-linejoin:round"></rect><polygon points="289.61 372.18 292.24 372.18 292.24 335.37 297.24 335.37 297.24 372.18 297.25 372.18 297.25 335.37 306.5 335.37 315.57 335.37 315.57 329.69 289.61 329.69 289.61 372.18" style="fill:none;stroke:#263238;stroke-linecap:round;stroke-linejoin:round"></polygon><polygon points="289.59 372.18 289.61 372.18 289.61 329.69 289.59 329.69 282.1 329.69 282.1 335.37 282.1 372.18 289.59 372.18" style="fill:none;stroke:#263238;stroke-linecap:round;stroke-linejoin:round"></polygon><polygon points="297.25 335.37 297.25 372.18 306.5 372.18 315.57 372.18 322.48 372.18 322.48 335.37 315.57 335.37 306.5 335.37 297.25 335.37" style="fill:none;stroke:#263238;stroke-linecap:round;stroke-linejoin:round"></polygon><rect x="292.24" y="335.37" width="5" height="36.81" style="fill:none;stroke:#263238;stroke-linecap:round;stroke-linejoin:round"></rect><rect x="163.76" y="389.3" width="2.89" height="44.31" style="fill:none;stroke:#263238;stroke-linecap:round;stroke-linejoin:round"></rect><rect x="153.1" y="389.3" width="10.66" height="44.31" style="fill:none;stroke:#263238;stroke-linecap:round;stroke-linejoin:round"></rect><polygon points="194.24 389.3 197.92 389.3 197.92 382.47 185.04 382.47 185.04 433.61 188.22 433.61 188.22 389.3 194.24 389.3" style="fill:none;stroke:#263238;stroke-linecap:round;stroke-linejoin:round"></polygon><polygon points="176.01 382.47 166.66 382.47 166.66 389.3 166.66 433.61 176.01 433.61 176.01 382.47" style="fill:none;stroke:#263238;stroke-linecap:round;stroke-linejoin:round"></polygon><rect x="176.01" y="382.47" width="9.04" height="51.14" style="fill:none;stroke:#263238;stroke-linecap:round;stroke-linejoin:round"></rect><rect x="287.38" y="389.3" width="12.24" height="44.31" style="fill:none;stroke:#263238;stroke-linecap:round;stroke-linejoin:round"></rect><rect x="276.72" y="389.3" width="10.66" height="44.31" style="fill:none;stroke:#263238;stroke-linecap:round;stroke-linejoin:round"></rect><polygon points="308.66 382.47 308.66 433.61 329 433.61 339.91 433.61 339.91 382.47 308.66 382.47" style="fill:none;stroke:#263238;stroke-linecap:round;stroke-linejoin:round"></polygon><polygon points="308.66 382.47 308.65 382.47 299.62 382.47 299.62 389.3 299.62 433.61 308.65 433.61 308.66 433.61 308.66 382.47" style="fill:none;stroke:#263238;stroke-linecap:round;stroke-linejoin:round"></polygon><polygon points="206.97 396.8 215.82 396.8 220.6 396.8 220.6 389.3 205.38 389.3 197.92 389.3 194.24 389.3 194.24 433.61 197.44 433.61 197.44 396.8 206.97 396.8" style="fill:none;stroke:#263238;stroke-linecap:round;stroke-linejoin:round"></polygon><rect x="188.22" y="389.3" width="6.02" height="44.31" style="fill:none;stroke:#263238;stroke-linecap:round;stroke-linejoin:round"></rect><polygon points="220.6 396.8 215.82 396.8 215.82 433.61 220.6 433.61 225.99 433.61 225.99 396.8 220.6 396.8" style="fill:none;stroke:#263238;stroke-linecap:round;stroke-linejoin:round"></polygon><polygon points="197.44 396.8 197.44 433.61 197.92 433.61 205.38 433.61 206.97 433.61 206.97 396.8 197.44 396.8" style="fill:none;stroke:#263238;stroke-linecap:round;stroke-linejoin:round"></polygon><rect x="206.97" y="396.8" width="8.85" height="36.81" style="fill:none;stroke:#263238;stroke-linecap:round;stroke-linejoin:round"></rect><polygon points="259.46 396.8 259.46 391.12 233.5 391.12 233.5 433.61 236.13 433.61 236.13 396.8 241.13 396.8 241.13 433.61 241.14 433.61 241.14 396.8 259.46 396.8" style="fill:none;stroke:#263238;stroke-linecap:round;stroke-linejoin:round"></polygon><polygon points="233.49 391.12 225.99 391.12 225.99 396.8 225.99 433.61 232.02 433.61 233.49 433.61 233.5 433.61 233.5 391.12 233.49 391.12" style="fill:none;stroke:#263238;stroke-linecap:round;stroke-linejoin:round"></polygon><polygon points="241.14 396.8 241.14 433.61 259.46 433.61 266.37 433.61 266.37 396.8 259.46 396.8 241.14 396.8" style="fill:none;stroke:#263238;stroke-linecap:round;stroke-linejoin:round"></polygon><rect x="236.13" y="396.8" width="5" height="36.81" style="fill:none;stroke:#263238;stroke-linecap:round;stroke-linejoin:round"></rect><path d="M66,400.47l-.94.93a33.73,33.73,0,0,0,30.39,9.12,1.5,1.5,0,0,1-.39-1c0-.08,0-.16,0-.25" style="fill:none;stroke:#263238;stroke-linecap:round;stroke-linejoin:round"></path><rect x="92.67" y="408.25" width="6.39" height="18.47" transform="matrix(1, 0, 0, 1, -1.16, 0.27)" style="fill:#fff;stroke:#263238;stroke-linecap:round;stroke-linejoin:round"></rect><g style="opacity:0.2"><rect x="92.67" y="408.25" width="6.39" height="18.47" transform="matrix(1, 0, 0, 1, -1.16, 0.27)" style="fill:#fff;stroke:#263238;stroke-linecap:round;stroke-linejoin:round"></rect></g><path d="M115.23,433.6H76.52c.71-4,7.47-7.27,16.18-7.94,1-.07,2.07-.12,3.14-.12s2.19,0,3.24.11C107.83,426.29,114.6,429.57,115.23,433.6Z" style="fill:#fff;stroke:#263238;stroke-linecap:round;stroke-linejoin:round"></path><polygon points="68.91 403.71 67.31 402.12 113.52 355.33 115.12 356.92 68.91 403.71" style="fill:#fff;stroke:#263238;stroke-linecap:round;stroke-linejoin:round"></polygon><path d="M95.13,409.24c0,.09,0,.17,0,.25a1.5,1.5,0,0,0,.39,1,33.62,33.62,0,0,0,17-56.8l-.93.94" style="fill:none;stroke:#263238;stroke-linecap:round;stroke-linejoin:round"></path><path d="M108.35,395.82a23.94,23.94,0,1,1-.59-33.85A23.93,23.93,0,0,1,108.35,395.82Z" style="fill:#92E3A9;stroke:#263238;stroke-linecap:round;stroke-linejoin:round"></path><path d="M75.78,396.67c9.2,1.84,19.2-2.53,25.44-9l-.74.76c5.67-5.87,10.27-16.6,8.1-25.75" style="fill:none;stroke:#263238;stroke-linecap:round;stroke-linejoin:round"></path><polyline points="86.05 355.8 93.63 363.12 94.48 363.94 100.02 369.3 100.81 370.05 106.36 375.4 107.2 376.22 114.68 383.45" style="fill:none;stroke:#263238;stroke-linecap:round;stroke-linejoin:round"></polyline><line x1="74.07" y1="362.52" x2="108.49" y2="395.76" style="fill:none;stroke:#263238;stroke-linecap:round;stroke-linejoin:round"></line><polyline points="67.96 374.89 75.51 382.19 76.37 383.01 81.76 388.22 82.53 388.97 87.91 394.18 87.93 394.18 88.78 395 96.34 402.3 96.03 402.62" style="fill:none;stroke:#263238;stroke-linecap:round;stroke-linejoin:round"></polyline><g style="opacity:0.2"><polyline points="86.05 355.8 93.63 363.12 94.48 363.94 100.02 369.3 100.81 370.05 106.36 375.4 107.2 376.22 114.68 383.45" style="fill:none;stroke:#263238;stroke-linecap:round;stroke-linejoin:round"></polyline><line x1="74.07" y1="362.52" x2="108.49" y2="395.76" style="fill:none;stroke:#263238;stroke-linecap:round;stroke-linejoin:round"></line></g><path d="M107.92,361.49c-9.34-1.87-20,3.14-25.73,9.06l.51-.53c-5.72,5.92-10.35,16.76-8.16,26" style="fill:none;stroke:#263238;stroke-linecap:round;stroke-linejoin:round"></path><line x1="74.74" y1="396.55" x2="108.11" y2="361.98" style="fill:none;stroke:#263238;stroke-linecap:round;stroke-linejoin:round"></line></g><g id="Plant"><path d="M438.75,272.86s-16.17,18.95-20.28,62.9-8.83,76-8.83,76" style="fill:none;stroke:#263238;stroke-linecap:round;stroke-linejoin:round;stroke-width:2px"></path><path d="M464.37,238.18a2.43,2.43,0,0,1,2.68,1.93c2.4,12.2,12.77,70.85-11.54,63.11-20.17-6.42-18.85-21.17-16.85-28.3a1.83,1.83,0,0,0-2.47-2.19c-7.87,3.25-25,8.37-26.88-7.7C407.13,246.52,453.55,239.55,464.37,238.18Z" style="fill:#92E3A9"></path><path d="M455.51,248.85a100.63,100.63,0,0,0-12.63,18" style="fill:none;stroke:#263238;stroke-linecap:round;stroke-linejoin:round"></path><path d="M462.91,241.62a46.19,46.19,0,0,0-4.27,3.89" style="fill:none;stroke:#263238;stroke-linecap:round;stroke-linejoin:round"></path><path d="M444.73,270.92s6.78-7.12,23.41-4" style="fill:none;stroke:#263238;stroke-linecap:round;stroke-linejoin:round"></path><path d="M437.34,246.85s-3.08,8.63,0,20" style="fill:none;stroke:#263238;stroke-linecap:round;stroke-linejoin:round"></path><path d="M465.28,285a18.31,18.31,0,0,1,2.86,3.1" style="fill:none;stroke:#263238;stroke-linecap:round;stroke-linejoin:round"></path><path d="M442.88,277s11.18.58,19.51,5.85" style="fill:none;stroke:#263238;stroke-linecap:round;stroke-linejoin:round"></path><path d="M433.64,270.92s-12.63-3.74-15.71-14.06" style="fill:none;stroke:#263238;stroke-linecap:round;stroke-linejoin:round"></path><path d="M393.23,336.49s9.25,10.84,11.6,36,5.05,43.45,5.05,43.45" style="fill:none;stroke:#263238;stroke-linecap:round;stroke-linejoin:round;stroke-width:2px"></path><path d="M379.45,317.77a1.38,1.38,0,0,0-1.53,1.1c-1.38,7-7.31,40.52,6.59,36.1,11.54-3.67,10.79-12.12,9.64-16.19a1.06,1.06,0,0,1,1.42-1.26c4.5,1.87,14.29,4.79,15.37-4.4C412.19,322.53,385.64,318.55,379.45,317.77Z" style="fill:#92E3A9"></path><path d="M384.52,323.87a58.33,58.33,0,0,1,7.22,10.31" style="fill:none;stroke:#263238;stroke-linecap:round;stroke-linejoin:round"></path><path d="M380.29,319.73a27.53,27.53,0,0,1,2.44,2.23" style="fill:none;stroke:#263238;stroke-linecap:round;stroke-linejoin:round"></path><path d="M390.68,336.49s-3.88-4.07-13.39-2.31" style="fill:none;stroke:#263238;stroke-linecap:round;stroke-linejoin:round"></path><path d="M394.91,322.73a20.78,20.78,0,0,1,0,11.45" style="fill:none;stroke:#263238;stroke-linecap:round;stroke-linejoin:round"></path><path d="M378.93,344.56a11,11,0,0,0-1.64,1.77" style="fill:none;stroke:#263238;stroke-linecap:round;stroke-linejoin:round"></path><path d="M391.74,340s-6.4.33-11.16,3.35" style="fill:none;stroke:#263238;stroke-linecap:round;stroke-linejoin:round"></path><path d="M397,336.49s7.23-2.14,9-8" style="fill:none;stroke:#263238;stroke-linecap:round;stroke-linejoin:round"></path><path d="M436.88,326.39S422,343.88,418.17,384.44c-1.2,12.83-2.46,24.56-3.61,34.6" style="fill:none;stroke:#263238;stroke-linecap:round;stroke-linejoin:round;stroke-width:2px"></path><path d="M465.26,313.62a1.87,1.87,0,0,1,1.21,2.26c-2.48,9.33-15.24,53.75-29.56,40.07-11.88-11.35-5.92-21.19-2.1-25.48a1.43,1.43,0,0,0-1-2.37c-6.6-.41-20.28-2.68-16.12-14.53C422.51,299.92,457.25,310.89,465.26,313.62Z" style="fill:#92E3A9"></path><path d="M465.26,313.62a1.87,1.87,0,0,1,1.21,2.26c-2.48,9.33-15.24,53.75-29.56,40.07-11.88-11.35-5.92-21.19-2.1-25.48a1.43,1.43,0,0,0-1-2.37c-6.6-.41-20.28-2.68-16.12-14.53C422.51,299.92,457.25,310.89,465.26,313.62Z" style="opacity:0.2"></path><path d="M455.45,318a78.24,78.24,0,0,0-14.95,8.27" style="fill:none;stroke:#263238;stroke-linecap:round;stroke-linejoin:round"></path><path d="M463.07,315.52a36.85,36.85,0,0,0-4.3,1.26" style="fill:none;stroke:#263238;stroke-linecap:round;stroke-linejoin:round"></path><path d="M440.41,329.76s7.15-2.66,17.7,5.16" style="fill:none;stroke:#263238;stroke-linecap:round;stroke-linejoin:round"></path><path d="M443.46,310.45a28.23,28.23,0,0,0-6.83,14" style="fill:none;stroke:#263238;stroke-linecap:round;stroke-linejoin:round"></path><path d="M449.93,346.6a14.77,14.77,0,0,1,.94,3.14" style="fill:none;stroke:#263238;stroke-linecap:round;stroke-linejoin:round"></path><path d="M437,333.39s7.6,4.22,11.61,10.73" style="fill:none;stroke:#263238;stroke-linecap:round;stroke-linejoin:round"></path><path d="M432.68,326s-7.54-6.91-6.17-15.16" style="fill:none;stroke:#263238;stroke-linecap:round;stroke-linejoin:round"></path><path d="M405.3,447.84h15a11,11,0,0,0,11-10.43l.84-16.28a12.71,12.71,0,0,0-12.7-13.37h-13.3a12.71,12.71,0,0,0-12.69,13.37l.84,16.28A11,11,0,0,0,405.3,447.84Z" style="fill:#fff;stroke:#263238;stroke-linecap:round;stroke-linejoin:round"></path><line x1="416.95" y1="436.99" x2="394.3" y2="436.99" style="fill:#fff;stroke:#263238;stroke-linecap:round;stroke-linejoin:round"></line><line x1="431.35" y1="436.99" x2="423.84" y2="436.99" style="fill:#fff;stroke:#263238;stroke-linecap:round;stroke-linejoin:round"></line></g><g id="Books"><path d="M136.71,246.62l-.07,13.12c1.39,0,1.38,2.52,0,2.51-4.29,0-8.58,0-12.87,0l.09-18.22,12.87.06C138.1,244.11,138.09,246.62,136.71,246.62Z" style="fill:#fff;stroke:#263238;stroke-linecap:round;stroke-linejoin:round"></path><rect x="125.12" y="248.17" width="13.11" height="9.99" transform="translate(-122.11 383.63) rotate(-89.73)" style="fill:#fff;stroke:#263238;stroke-linecap:round;stroke-linejoin:round"></rect><path d="M128.81,245.32l-55.17-.26c-2.38,0-4.33,3.48-4.35,7.8s1.89,7.83,4.28,7.84l55.17.26Z" style="fill:#fff;stroke:#263238;stroke-linecap:round;stroke-linejoin:round"></path><path d="M128.81,245.32l-55.17-.26c-2.38,0-4.33,3.48-4.35,7.8s1.89,7.83,4.28,7.84l55.17.26Z" style="fill:#fff;stroke:#263238;stroke-linecap:round;stroke-linejoin:round"></path><path d="M128.73,262.22c-11.34-.06-43.23,0-54.57-.26-7.77-.2-8.1-17.58-.48-18.16,5.32-.4,10.78.06,16.1.08l39,.19c1.39,0,1.38,2.52,0,2.51L76,246.33c-2.49,0-4.27,0-5.25,3.43-.84,3-.61,9,2.79,9.68a7.62,7.62,0,0,0,1.17,0l17.59.08,36.42.17c1.38,0,1.37,2.52,0,2.52Z" style="fill:#92E3A9;stroke:#263238;stroke-linecap:round;stroke-linejoin:round"></path><path d="M136.68,233.36l0,8.34c1.38,0,1.38,1.61,0,1.6q-6.44,0-12.87,0l.06-11.58,12.87.06C138.07,231.77,138.07,233.37,136.68,233.36Z" style="fill:#fff;stroke:#263238;stroke-linecap:round;stroke-linejoin:round"></path><rect x="127.5" y="232.52" width="8.33" height="9.99" transform="translate(-106.48 368.04) rotate(-89.73)" style="fill:#fff;stroke:#263238;stroke-linecap:round;stroke-linejoin:round"></rect><path d="M128.78,232.52l-55.17-.26c-2.38,0-4.32,2.2-4.34,5s1.91,5,4.29,5l55.18.26Z" style="fill:#fff;stroke:#263238;stroke-linecap:round;stroke-linejoin:round"></path><path d="M128.78,232.52l-55.17-.26c-2.38,0-4.32,2.2-4.34,5s1.91,5,4.29,5l55.18.26Z" style="fill:#bfbfbf;stroke:#263238;stroke-linecap:round;stroke-linejoin:round"></path><path d="M128.73,243.26c-11.34,0-43.23,0-54.57-.26-7.77-.14-8.13-11.19-.51-11.54,5.31-.24,10.78,0,16.1.08l39,.18c1.38,0,1.38,1.61,0,1.6L76,233.07c-2.49,0-4.27,0-5.24,2.17-.84,1.88-.6,5.73,2.81,6.16a9.12,9.12,0,0,0,1.17,0l17.58.08,36.42.17c1.39,0,1.38,1.61,0,1.6Z" style="fill:#263238;stroke:#263238;stroke-linecap:round;stroke-linejoin:round"></path><path d="M134.7,265.79l-.06,12.15c1.28,0,1.27,2.33,0,2.33-4,0-7.95,0-11.92,0l.08-16.87,11.92.06C136,263.47,136,265.79,134.7,265.79Z" style="fill:#5c5c5c;stroke:#263238;stroke-linecap:round;stroke-linejoin:round"></path><rect x="123.97" y="267.22" width="12.14" height="9.26" transform="translate(-142.43 400.59) rotate(-89.73)" style="fill:#bfbfbf;stroke:#263238;stroke-linecap:round;stroke-linejoin:round"></rect><path d="M127.39,264.59l-51.1-.24c-2.21,0-4,3.22-4,7.22s1.76,7.25,4,7.26l51.1.24Z" style="fill:#fff;stroke:#263238;stroke-linecap:round;stroke-linejoin:round"></path><path d="M127.39,264.59l-51.1-.24c-2.21,0-4,3.22-4,7.22s1.76,7.25,4,7.26l51.1.24Z" style="fill:#bfbfbf;stroke:#263238;stroke-linecap:round;stroke-linejoin:round"></path><path d="M127.31,280.23c-10.5-.05-40,0-50.54-.24-7.19-.18-7.5-16.28-.44-16.81,4.92-.37,10,.05,14.91.07l36.15.18c1.29,0,1.28,2.33,0,2.32l-48.88-.23c-2.3,0-4,0-4.86,3.18-.78,2.74-.56,8.34,2.59,9a5.57,5.57,0,0,0,1.08,0l16.29.08,33.72.16c1.29,0,1.28,2.33,0,2.32Z" style="fill:#5c5c5c;stroke:#263238;stroke-linecap:round;stroke-linejoin:round"></path><path d="M140.55,284.32l-.07,14.46c1.52,0,1.51,2.78,0,2.77-4.72,0-9.45,0-14.18,0l.1-20.08,14.18.07C142.09,281.56,142.08,284.33,140.55,284.32Z" style="fill:#bfbfbf;stroke:#263238;stroke-linecap:round;stroke-linejoin:round"></path><rect x="127.78" y="286.03" width="14.44" height="11.02" transform="translate(-157.17 425.15) rotate(-89.73)" style="fill:#fff;stroke:#263238;stroke-linecap:round;stroke-linejoin:round"></rect><path d="M131.85,282.89,71,282.6c-2.62,0-4.77,3.84-4.79,8.6s2.08,8.63,4.71,8.64l60.81.29Z" style="fill:#fff;stroke:#263238;stroke-linecap:round;stroke-linejoin:round"></path><path d="M131.85,282.89,71,282.6c-2.62,0-4.77,3.84-4.79,8.6s2.08,8.63,4.71,8.64l60.81.29Z" style="fill:#fff;stroke:#263238;stroke-linecap:round;stroke-linejoin:round"></path><path d="M131.76,301.51c-12.5-.06-47.65,0-60.14-.28-8.57-.23-8.94-19.38-.53-20,5.85-.44,11.87.06,17.74.08l43,.21c1.52,0,1.51,2.78,0,2.77L73.67,284c-2.74,0-4.7,0-5.78,3.78-.93,3.27-.67,9.93,3.08,10.67a6.84,6.84,0,0,0,1.28,0l19.39.09,40.13.19c1.53,0,1.52,2.78,0,2.77Z" style="fill:#bfbfbf;stroke:#263238;stroke-linecap:round;stroke-linejoin:round"></path><path d="M130.59,228.16c-4.12,3.19-9.27,3.27-13.9,2.25a12.86,12.86,0,0,0,4.73-2.31h0l-.23-.52c6.15.38,8.12-2.27,8.12-2.27l.44,1Z" style="fill:#fff;stroke:#263238;stroke-linecap:round;stroke-linejoin:round"></path><path d="M121.41,228.09h0a12.86,12.86,0,0,1-4.73,2.31,39.45,39.45,0,0,1-9.93-3.8l-.21-.12c-1.32-.72-2.1-1.24-2.1-1.24-.15.18-.3.34-.45.5h0a16.25,16.25,0,0,1-2.85,2.49c-4.65,3.14-10,3.05-14.18,2.14a30.61,30.61,0,0,1-7.24-2.58,18.19,18.19,0,0,0,5.58-.52,18.3,18.3,0,0,0,7.3.44,19.48,19.48,0,0,0,4.72-1.33,21,21,0,0,0,3.44-1.84h0a19.58,19.58,0,0,0,3.32-2.7h0a53.77,53.77,0,0,0,13,5.11l.08,0a27,27,0,0,0,4,.59h0Z" style="fill:#fff;stroke:#263238;stroke-linecap:round;stroke-linejoin:round"></path><path d="M121.41,228.09h0a12.86,12.86,0,0,1-4.73,2.31c-5.32,1.41-11.28-.31-15.55-2.16-1.52-.65-2.83-1.31-3.82-1.85-1.29-.72-2-1.21-2-1.21a17.12,17.12,0,0,1-2.68,2.54A15.44,15.44,0,0,1,87,230.39c-8.31,2-16.81-2.87-16.81-2.87l.84-2.38a20.8,20.8,0,0,0,8.73,2.67,18.19,18.19,0,0,0,5.58-.52,21.22,21.22,0,0,0,9.64-5.5c2.11,1.11,4.06,2,5.85,2.76.81.34,1.58.64,2.32.91l.11,0,.77.26c1,.33,1.91.62,2.77.85,5,1.33,8.37,1,10.42.37l.39-.14.12,0a5.52,5.52,0,0,0,2.44-1.57l.27.61.77,1.73Z" style="fill:#fff;stroke:#263238;stroke-linecap:round;stroke-linejoin:round"></path><path d="M129.3,225.3s-2,2.65-8.12,2.27l-.77-1.73h0c-.12,0-1.29.51-2.52.9l-.19.06-.12,0-.47.12c-1.57.39-5,.92-10.55-.47-.81-.19-1.66-.44-2.55-.74l-.78-.25-.11,0c-.75-.27-1.54-.56-2.35-.9a57.29,57.29,0,0,1-5.82-2.77l9.17.06h0a158.28,158.28,0,0,0,16,3.2C123.77,225.54,127.18,225.74,129.3,225.3Z" style="fill:#263238;stroke:#263238;stroke-linecap:round;stroke-linejoin:round"></path><path d="M121.42,228.1a15.21,15.21,0,0,0,9.17.06l-1.29-2.86s-1.66,1.93-8.9.54Z" style="fill:#fff;stroke:#263238;stroke-linecap:round;stroke-linejoin:round"></path><path d="M375.88,298.22c-5,3.85-11.16,3.95-16.74,2.71a15.43,15.43,0,0,0,5.69-2.77v0l-.29-.63c7.42.46,9.79-2.73,9.79-2.73l.52,1.17Z" style="fill:#fff;stroke:#263238;stroke-linecap:round;stroke-linejoin:round"></path><path d="M364.83,298.14h0a15.46,15.46,0,0,1-5.69,2.78,47.6,47.6,0,0,1-12-4.58c-.09,0-.17-.1-.25-.14-1.59-.87-2.53-1.49-2.53-1.49-.19.22-.37.41-.55.6h0a18.79,18.79,0,0,1-3.43,3c-5.59,3.79-12,3.68-17.08,2.59a36.24,36.24,0,0,1-8.73-3.12,21.73,21.73,0,0,0,6.73-.62,21.93,21.93,0,0,0,8.78.53,24,24,0,0,0,5.71-1.6,26.65,26.65,0,0,0,4.13-2.21l0,0a24.09,24.09,0,0,0,4-3.25h0a65.2,65.2,0,0,0,15.65,6.16.14.14,0,0,1,.09,0,31.48,31.48,0,0,0,4.8.72h0Z" style="fill:#fff;stroke:#263238;stroke-linecap:round;stroke-linejoin:round"></path><path d="M335.81,296.1a24,24,0,0,1-5.71,1.6,19.26,19.26,0,0,0,3.24-3.06S334.25,295.24,335.81,296.1Z" style="fill:#263238;stroke:#263238;stroke-linecap:round;stroke-linejoin:round"></path><path d="M364.83,298.14h0a15.46,15.46,0,0,1-5.69,2.78c-6.41,1.7-13.59-.38-18.74-2.61-1.82-.77-3.4-1.57-4.59-2.22-1.56-.86-2.47-1.46-2.47-1.46a19.26,19.26,0,0,1-3.24,3.06,18.45,18.45,0,0,1-6.78,3.21c-10,2.43-20.25-3.46-20.25-3.46l1-2.87a24.7,24.7,0,0,0,10.51,3.21,21.73,21.73,0,0,0,6.73-.62,25.58,25.58,0,0,0,11.61-6.63c2.55,1.34,4.89,2.43,7.05,3.33,1,.41,1.9.77,2.79,1.09l.14.06.92.31c1.18.4,2.3.74,3.34,1,6.09,1.6,10.08,1.24,12.56.44a4.09,4.09,0,0,0,.46-.16l.15-.05a6.64,6.64,0,0,0,2.93-1.89l.33.74.93,2.08Z" style="fill:#fff;stroke:#263238;stroke-linecap:round;stroke-linejoin:round"></path><path d="M375.89,298.22a18.38,18.38,0,0,1-11.06-.07l-1.23-2.72c-.13.06-1.54.6-3,1.08l-.23.07-.15.05-.55.15c-1.9.47-6.09,1.1-12.72-.57-1-.24-2-.53-3.08-.89l-.93-.3-.14-.06c-.91-.32-1.85-.67-2.83-1.07a71.06,71.06,0,0,1-7-3.35l11.05.08h0a194.8,194.8,0,0,0,19.31,3.86c4.37.58,8.47.83,11,.29Z" style="fill:#fff;stroke:#263238;stroke-linecap:round;stroke-linejoin:round"></path><path d="M364.8,293h0a15.54,15.54,0,0,1-5.69,2.78c-6.41,1.7-13.59-.38-18.74-2.61-1.82-.78-3.4-1.57-4.59-2.22-1.55-.87-2.46-1.46-2.46-1.46a20.06,20.06,0,0,1-3.24,3.06,18.49,18.49,0,0,1-6.79,3.21c-10,2.43-20.25-3.46-20.25-3.46l1-2.87a25,25,0,0,0,10.51,3.21,21.64,21.64,0,0,0,6.72-.62,25.57,25.57,0,0,0,11.62-6.63c2.54,1.34,4.88,2.43,7,3.33,1,.4,1.9.77,2.8,1.09l.13.05.93.32c1.18.4,2.29.74,3.34,1,6.09,1.6,10.08,1.24,12.55.44l.47-.16.15-.05a6.73,6.73,0,0,0,2.93-1.89l.33.74.93,2.07Z" style="fill:#fff;stroke:#263238;stroke-linecap:round;stroke-linejoin:round"></path><path d="M374.3,289.59s-2.37,3.19-9.78,2.73l-.93-2.08h0c-.14.06-1.55.6-3,1.08a.79.79,0,0,0-.22.07l-.15.05-.56.14c-1.9.47-6.09,1.1-12.72-.56-1-.24-2-.54-3.07-.89l-.94-.31-.13-.05c-.91-.32-1.85-.67-2.83-1.07a70,70,0,0,1-7-3.35l11,.08h0a194.8,194.8,0,0,0,19.31,3.86C367.64,289.88,371.75,290.13,374.3,289.59Z" style="fill:#263238;stroke:#263238;stroke-linecap:round;stroke-linejoin:round"></path><path d="M364.8,293a18.37,18.37,0,0,0,11.05.07l-1.55-3.45s-2,2.33-10.72.66Z" style="fill:#fff;stroke:#263238;stroke-linecap:round;stroke-linejoin:round"></path></g><g id="Graphics"><polygon points="155.69 115.25 151.15 117.6 149.04 116.6 156.1 112.95 155.69 115.25" style="fill:#fff;stroke:#263238;stroke-linecap:round;stroke-linejoin:round"></polygon><path d="M153.14,93.33a10.4,10.4,0,0,1,.45,8.49,6.84,6.84,0,0,0,.24,5.62l.36.7-8.08,4.18-.36-.7a6.83,6.83,0,0,0-4.44-3.44,10.42,10.42,0,0,1-1.73-19.59A10.5,10.5,0,0,1,153.14,93.33Z" style="fill:#fff;stroke:#263238;stroke-linecap:round;stroke-linejoin:round"></path><path d="M153.14,93.33a10.4,10.4,0,0,1,.45,8.49,6.84,6.84,0,0,0,.24,5.62l.36.7-8.08,4.18-.36-.7a6.83,6.83,0,0,0-4.44-3.44,10.42,10.42,0,0,1-1.73-19.59A10.5,10.5,0,0,1,153.14,93.33Z" style="fill:#fff;stroke:#263238;stroke-linecap:round;stroke-linejoin:round;opacity:0.9"></path><polygon points="151.91 109.08 151.31 109.25 149.04 101.23 148.36 104.02 146.19 102.58 146.12 105.19 143.45 104.12 148.68 110.61 148.19 111 141.33 102.49 141.81 102.09 143 103.27 145.52 104.27 145.6 101.43 147.97 103 148.6 100.37 148.33 98.73 148.94 98.55 151.91 109.08" style="fill:#92E3A9"></polygon><polygon points="154.06 107.89 156.64 112.88 148.58 117.09 146 112.1 154.06 107.89" style="fill:#92E3A9;stroke:#263238;stroke-linecap:round;stroke-linejoin:round"></polygon><path d="M326.86,91.58h.91a1.87,1.87,0,0,1,1.87,1.87V108.4a0,0,0,0,1,0,0H325a0,0,0,0,1,0,0V93.45A1.87,1.87,0,0,1,326.86,91.58Z" transform="translate(206.37 -220.17) rotate(52.32)" style="fill:#fff;stroke:#263238;stroke-linecap:round;stroke-linejoin:round"></path><path d="M326.86,91.58h.91a1.87,1.87,0,0,1,1.87,1.87V108.4a0,0,0,0,1,0,0H325a0,0,0,0,1,0,0V93.45A1.87,1.87,0,0,1,326.86,91.58Z" transform="translate(206.37 -220.17) rotate(52.32)" style="fill:#263238;stroke:#263238;stroke-linecap:round;stroke-linejoin:round"></path><rect x="311.75" y="107.03" width="4.32" height="42.08" transform="translate(85.73 -122.68) rotate(25.5)" style="fill:#263238;stroke:#263238;stroke-linecap:round;stroke-linejoin:round"></rect><rect x="309.32" y="103.86" width="4.32" height="4.75" transform="translate(76.08 -123.76) rotate(25.5)" style="fill:#92E3A9;stroke:#263238;stroke-linecap:round;stroke-linejoin:round"></rect><rect x="314.03" y="98.31" width="3.45" height="6.95" transform="translate(74.59 -126.03) rotate(25.5)" style="fill:#fff;stroke:#263238;stroke-linecap:round;stroke-linejoin:round"></rect><rect x="314.03" y="98.31" width="3.45" height="6.95" transform="translate(74.59 -126.03) rotate(25.5)" style="fill:#fff;stroke:#263238;stroke-linecap:round;stroke-linejoin:round"></rect><path d="M329.79,112.33l-14-6.66,3-6.27L329.94,108a2.21,2.21,0,0,1,.64,2.7Z" style="fill:#fff;stroke:#263238;stroke-linecap:round;stroke-linejoin:round"></path><path d="M311.84,112.1l-3.44-4.21a.23.23,0,0,1,.28-.36l10.19,4.85a.24.24,0,0,1-.1.46l-5.44,0A2,2,0,0,1,311.84,112.1Z" style="fill:#fff;stroke:#263238;stroke-linecap:round;stroke-linejoin:round"></path><rect x="308.3" y="112.39" width="6.53" height="4.41" rx="2.14" transform="translate(74 346.47) rotate(-64.5)" style="fill:#fff;stroke:#263238;stroke-linecap:round;stroke-linejoin:round"></rect><rect x="308.3" y="112.39" width="6.53" height="4.41" rx="2.14" transform="translate(74 346.47) rotate(-64.5)" style="fill:#263238;stroke:#263238;stroke-linecap:round;stroke-linejoin:round"></rect><rect x="304.52" y="109.54" width="6.53" height="4.41" rx="2.14" transform="translate(4.28 234.65) rotate(-42)" style="fill:#fff;stroke:#263238;stroke-linecap:round;stroke-linejoin:round"></rect><rect x="312.89" y="113.54" width="6.53" height="4.41" rx="2.14" transform="translate(184 425.39) rotate(-87)" style="fill:#fff;stroke:#263238;stroke-linecap:round;stroke-linejoin:round"></rect><path d="M306.8,148,320,154.29a2,2,0,0,0,2.8-1.36l8.72-38a2.07,2.07,0,0,0-1.12-2.33L314.45,105l-2,4.28,10.47,5Z" style="fill:#92E3A9;stroke:#263238;stroke-linecap:round;stroke-linejoin:round"></path><rect x="291.19" y="122.34" width="17.52" height="3.41" transform="translate(82.63 -117.06) rotate(25.5)" style="fill:#fff;stroke:#263238;stroke-linecap:round;stroke-linejoin:round"></rect><rect x="307" y="129.88" width="17.52" height="3.41" transform="translate(87.42 -123.13) rotate(25.5)" style="fill:#fff;stroke:#263238;stroke-linecap:round;stroke-linejoin:round"></rect><rect x="291.19" y="122.34" width="17.52" height="3.41" transform="translate(82.63 -117.06) rotate(25.5)" style="fill:#fff;stroke:#263238;stroke-linecap:round;stroke-linejoin:round"></rect><path d="M246.16,160.42a6.83,6.83,0,0,0,1.41-1.11c3.59-3.76,2.12-11-3.28-16.16a16.65,16.65,0,0,0-9.39-4.69,24.76,24.76,0,0,0-2.7-3.06c-7.55-7.22-18.17-8.35-23.74-2.54-3.79,4-4.24,10.15-1.75,16-3.89,4.92-1.94,13.62,4.64,19.9,4.76,4.56,10.69,6.63,15.4,5.86.15.16.3.33.46.48,6.85,6.55,16.11,8,20.68,3.21C251.87,174.11,251,166.61,246.16,160.42Z" style="fill:none;stroke:#fff;stroke-linecap:round;stroke-linejoin:round"></path><g style="opacity:0.9"><path d="M222,136.31c1.48-1.21,1.75-.95.61.58a2.47,2.47,0,0,0,1.17,4c1.78.67,1.69,1-.2.81a2.47,2.47,0,0,0-2.88,3c.31,1.88,0,2-.8.23a2.47,2.47,0,0,0-4.05-1c-1.48,1.22-1.75,1-.6-.57a2.47,2.47,0,0,0-1.17-4c-1.79-.67-1.7-1,.19-.81a2.48,2.48,0,0,0,2.89-3c-.32-1.89,0-2,.8-.24A2.46,2.46,0,0,0,222,136.31Z" style="fill:#fff"></path><polygon points="241.77 152.25 235.41 160.75 245.34 164.49 234.8 163.23 236.53 173.71 232.35 163.94 224.14 170.68 230.51 162.18 220.57 158.44 231.11 159.7 229.38 149.23 233.56 158.99 241.77 152.25" style="fill:#fff"></polygon><path d="M249.57,120.51a5.3,5.3,0,0,0,1-.79c3.26-3.41,1.34-10.55-4.3-15.94s-12.53-6.91-15.89-3.8c-4.88-3-10.27-3.28-13.15-.26-3.56,3.72-2,11,3.55,16.29a18.66,18.66,0,0,0,6.83,4.24,18.5,18.5,0,0,0,4.51,6.61c5.47,5.23,12.78,6.48,16.32,2.78C250.51,127.45,250.8,124,249.57,120.51Z" style="fill:none;stroke:#fff;stroke-linecap:round;stroke-linejoin:round"></path><polygon points="244.86 108.07 240.63 113.72 247.24 116.2 240.23 115.36 241.38 122.33 238.61 115.84 233.15 120.32 237.38 114.67 230.78 112.18 237.78 113.02 236.63 106.06 239.41 112.55 244.86 108.07" style="fill:#fff"></polygon><path d="M250.55,119.72a4.61,4.61,0,0,1-1,.78c1.24,3.52.94,7-1.16,9.13-3.53,3.7-10.84,2.46-16.31-2.78a18.34,18.34,0,0,1-4.5-6.61,18.61,18.61,0,0,1-6.84-4.23c-5.53-5.28-7.11-12.57-3.56-16.3,2.9-3,8.28-2.75,13.15.27,3.37-3.12,10.38-1.48,15.89,3.8S253.82,116.31,250.55,119.72Z" style="fill:none;stroke:#fff;stroke-linecap:round;stroke-linejoin:round"></path><polygon points="244.86 108.07 240.63 113.72 247.24 116.2 240.23 115.36 241.38 122.33 238.61 115.84 233.15 120.32 237.38 114.67 230.78 112.18 237.78 113.02 236.63 106.06 239.41 112.55 244.86 108.07" style="fill:#fff"></polygon><path d="M266.32,95.77c1.45-1.19,1.72-.93.59.56a2.43,2.43,0,0,0,1.15,3.93c1.75.65,1.66,1-.19.79a2.43,2.43,0,0,0-2.83,3c.31,1.85-.05,2-.78.23a2.42,2.42,0,0,0-4-1c-1.45,1.19-1.71.94-.59-.56a2.42,2.42,0,0,0-1.15-3.92c-1.75-.66-1.66-1,.2-.8a2.42,2.42,0,0,0,2.82-3c-.31-1.85.05-2,.78-.23A2.42,2.42,0,0,0,266.32,95.77Z" style="fill:#fff"></path><path d="M198.74,108.47c.9-.55,0-2.9-1-4.85,1.81-1.26,3.69-2.93,3.15-3.83s-2.9,0-4.85,1c-1.26-1.8-2.93-3.69-3.83-3.14s0,2.89,1,4.84c-1.81,1.26-3.7,2.93-3.15,3.83s2.9,0,4.85-1C196.17,107.13,197.84,109,198.74,108.47Zm1.54-8.33c.1.28-.85,1.46-2.89,2.89-.16-.3-.33-.58-.48-.84l-.52-.82C198.6,100.23,200.08,99.92,200.28,100.14ZM196,104c-.3.18-.59.35-.87.5q-.27-.39-.54-.84c-.18-.3-.35-.59-.5-.87.27-.18.55-.36.85-.54s.58-.35.87-.51l.54.85c.18.3.34.59.5.87C196.57,103.59,196.29,103.77,196,104Zm-3.47-5.7c.28-.1,1.46.85,2.9,2.89-.3.16-.58.33-.84.49s-.53.33-.82.52C192.61,99.94,192.31,98.45,192.52,98.25ZM190.63,106c-.09-.28.86-1.46,2.89-2.9l.49.84c.16.26.33.54.52.82C192.32,105.92,190.83,106.22,190.63,106Zm4.87-1,.84-.49.82-.52c1.14,2.21,1.45,3.7,1.24,3.9S196.93,107,195.5,105Z" style="fill:#fff"></path><path d="M198.74,108.47c.9-.55,0-2.9-1-4.85,1.81-1.26,3.69-2.93,3.15-3.83s-2.9,0-4.85,1c-1.26-1.8-2.93-3.69-3.83-3.14s0,2.89,1,4.84c-1.81,1.26-3.7,2.93-3.15,3.83s2.9,0,4.85-1C196.17,107.13,197.84,109,198.74,108.47Zm1.54-8.33c.1.28-.85,1.46-2.89,2.89-.16-.3-.33-.58-.48-.84l-.52-.82C198.6,100.23,200.08,99.92,200.28,100.14ZM196,104c-.3.18-.59.35-.87.5q-.27-.39-.54-.84c-.18-.3-.35-.59-.5-.87.27-.18.55-.36.85-.54s.58-.35.87-.51l.54.85c.18.3.34.59.5.87C196.57,103.59,196.29,103.77,196,104Zm-3.47-5.7c.28-.1,1.46.85,2.9,2.89-.3.16-.58.33-.84.49s-.53.33-.82.52C192.61,99.94,192.31,98.45,192.52,98.25ZM190.63,106c-.09-.28.86-1.46,2.89-2.9l.49.84c.16.26.33.54.52.82C192.32,105.92,190.83,106.22,190.63,106Zm4.87-1,.84-.49.82-.52c1.14,2.21,1.45,3.7,1.24,3.9S196.93,107,195.5,105Z" style="fill:#fff;opacity:0.5"></path><path d="M196.2,104.28a10.93,10.93,0,0,0,1.74.2c.86,0,1.32-.14,1.4-.46.15-.63-1.36-1.28-2.67-1.68.24-1.35.36-3-.27-3.14-.32-.08-.66.25-1.05,1a10.93,10.93,0,0,0-.63,1.63c-1.34-.24-3-.36-3.14.27a.41.41,0,0,0,.07.33,5.44,5.44,0,0,0,2.6,1.35,5.48,5.48,0,0,0,0,2.93.41.41,0,0,0,.26.21C195.14,107.1,195.79,105.59,196.2,104.28Zm2.79-.43a.1.1,0,0,1,0,.09c0,.06-.24.22-1.07.2a9.72,9.72,0,0,1-1.65-.18c.07-.23.13-.45.18-.64s.09-.42.14-.65A5.35,5.35,0,0,1,199,103.85Zm-3,.05-.67-.14-.66-.18c0-.22.09-.44.15-.67s.11-.45.17-.67l.68.15.66.18c0,.21-.09.43-.15.67S196,103.69,196,103.9Zm-.31-3.53c.37-.74.62-.86.68-.85l.07.06a5.46,5.46,0,0,1-.05,2.66c-.23-.07-.45-.13-.65-.17l-.65-.15A12,12,0,0,1,195.65,100.37Zm-3.74,1.84c0-.2,1-.33,2.72,0-.07.21-.12.43-.18.65s-.09.42-.14.65C192.68,103,191.86,102.4,191.91,102.21Zm2.68,4.42c-.19,0-.32-1,0-2.73l.64.18.66.14C195.36,105.86,194.79,106.67,194.59,106.63Z" style="fill:#fff"></path><path d="M275.13,120.34a11.58,11.58,0,0,0,1.27-1.21c.57-.65.75-1.1.55-1.37-.38-.52-1.85.22-3,1-.87-1-2.05-2.21-2.57-1.82-.27.19-.24.67.11,1.46a10.51,10.51,0,0,0,.84,1.54c-1.05.87-2.2,2-1.82,2.57a.42.42,0,0,0,.3.17,5.53,5.53,0,0,0,2.7-1.12c.72.86,1.64,1.8,2.24,1.89a.41.41,0,0,0,.33-.07C276.61,123,275.87,121.49,275.13,120.34Zm1.47-2.42s.07,0,.08,0,0,.33-.53,1a11.22,11.22,0,0,1-1.2,1.15l-.38-.55-.41-.53A5.5,5.5,0,0,1,276.6,117.92Zm-1.91,2.35-.55.42-.56.39c-.14-.17-.27-.35-.42-.55l-.39-.56c.17-.14.35-.27.55-.42l.56-.39q.21.25.42.54Zm-2.9-2c-.33-.76-.27-1-.22-1.06a.15.15,0,0,1,.1,0,5.56,5.56,0,0,1,2,1.75l-.55.38-.53.41A10.93,10.93,0,0,1,271.79,118.23Zm-1,4c-.12-.17.42-1,1.73-2.1l.38.55.41.53C271.86,122.18,270.9,122.44,270.78,122.28Zm5.11.79c-.16.12-1-.42-2.1-1.73l.55-.38.53-.41C275.79,122,276.05,123,275.89,123.07Z" style="fill:#fff"></path><path d="M280,121.09c.16-1-2.22-1.86-4.37-2.34.2-2.19.15-4.71-.9-4.87s-1.86,2.22-2.34,4.37c-2.19-.2-4.71-.15-4.87.9s2.22,1.86,4.37,2.34c-.2,2.19-.15,4.71.9,4.87s1.86-2.22,2.34-4.37C277.29,122.19,279.81,122.13,280,121.09Zm-5.37-6.55c.27.1.56,1.59.35,4.07-.34-.06-.66-.12-1-.16l-1-.13C273.58,115.89,274.31,114.55,274.6,114.54Zm.15,5.74q-.09.51-.18,1c-.32,0-.65-.08-1-.14l-1-.17c0-.32.08-.65.14-1s.11-.67.17-1l1,.13,1,.18C274.84,119.6,274.8,119.93,274.75,120.28Zm-6.6-1c.1-.27,1.59-.56,4.08-.35-.07.34-.13.66-.17,1s-.09.62-.13,1C269.5,120.27,268.17,119.54,268.15,119.25Zm4.71,6.45c-.27-.1-.56-1.59-.35-4.08.34.07.66.13,1,.17l1,.13C273.88,124.35,273.16,125.68,272.86,125.7Zm2.38-4.36c.06-.34.12-.66.16-1s.09-.62.13-1c2.43.55,3.77,1.27,3.78,1.57S277.72,121.55,275.24,121.34Z" style="fill:#fff"></path><path d="M280,121.09c.16-1-2.22-1.86-4.37-2.34.2-2.19.15-4.71-.9-4.87s-1.86,2.22-2.34,4.37c-2.19-.2-4.71-.15-4.87.9s2.22,1.86,4.37,2.34c-.2,2.19-.15,4.71.9,4.87s1.86-2.22,2.34-4.37C277.29,122.19,279.81,122.13,280,121.09Zm-5.37-6.55c.27.1.56,1.59.35,4.07-.34-.06-.66-.12-1-.16l-1-.13C273.58,115.89,274.31,114.55,274.6,114.54Zm.15,5.74q-.09.51-.18,1c-.32,0-.65-.08-1-.14l-1-.17c0-.32.08-.65.14-1s.11-.67.17-1l1,.13,1,.18C274.84,119.6,274.8,119.93,274.75,120.28Zm-6.6-1c.1-.27,1.59-.56,4.08-.35-.07.34-.13.66-.17,1s-.09.62-.13,1C269.5,120.27,268.17,119.54,268.15,119.25Zm4.71,6.45c-.27-.1-.56-1.59-.35-4.08.34.07.66.13,1,.17l1,.13C273.88,124.35,273.16,125.68,272.86,125.7Zm2.38-4.36c.06-.34.12-.66.16-1s.09-.62.13-1c2.43.55,3.77,1.27,3.78,1.57S277.72,121.55,275.24,121.34Z" style="fill:#fff;opacity:0.5"></path></g><path d="M197.58,191.13l1.86-15.87,10.89-11.38a2.75,2.75,0,0,0,3.37-.47l0,0a2.76,2.76,0,0,0-.09-3.9L210,156a2.76,2.76,0,0,0-3.9.09l0,0a2.78,2.78,0,0,0-.32,3.4l-10.88,11.38-15.77,2.57a3.72,3.72,0,0,0-2,6.35l14.21,13.58A3.71,3.71,0,0,0,197.58,191.13Z" style="fill:#fff;stroke:#263238;stroke-linecap:round;stroke-linejoin:round"></path><path d="M197.58,191.13l1.86-15.87,10.89-11.38a2.75,2.75,0,0,0,3.37-.47l0,0a2.76,2.76,0,0,0-.09-3.9L210,156a2.76,2.76,0,0,0-3.9.09l0,0a2.78,2.78,0,0,0-.32,3.4l-10.88,11.38-15.77,2.57a3.72,3.72,0,0,0-2,6.35l14.21,13.58A3.71,3.71,0,0,0,197.58,191.13Z" style="fill:#fff;stroke:#263238;stroke-linecap:round;stroke-linejoin:round;opacity:0.6000000000000001"></path><path d="M195.91,189.68l.77-6.57c-.29.29-2.59-1.45-5.15-3.9s-4.39-4.66-4.12-5l-6.53,1.07a2.05,2.05,0,0,0-1.09,3.51l12.66,12.1a2.05,2.05,0,0,0,3.46-1.24Z" style="fill:#92E3A9;stroke:#263238;stroke-linecap:round;stroke-linejoin:round"></path><path d="M196.68,183.11c-.28.3-2.59-1.45-5.15-3.9s-4.41-4.68-4.12-5,2.59,1.45,5.15,3.9S197,182.81,196.68,183.11Z" style="fill:#fff;stroke:#263238;stroke-linecap:round;stroke-linejoin:round"></path><path d="M196.68,183.11c-.28.3-2.59-1.45-5.15-3.9s-4.41-4.68-4.12-5,2.59,1.45,5.15,3.9S197,182.81,196.68,183.11Z" style="fill:#263238;stroke:#263238;stroke-linecap:round;stroke-linejoin:round"></path><path d="M346.52,169.86a3.48,3.48,0,0,1-3.5,3.67,2.3,2.3,0,0,1-2.34-1.35l-.71,3.57h-.83l1.68-8.45h.8l-.2,1a3.09,3.09,0,0,1,2.4-1A2.49,2.49,0,0,1,346.52,169.86Zm-.84,0a1.81,1.81,0,0,0-2-1.93,2.7,2.7,0,0,0-2.67,2.9,1.8,1.8,0,0,0,2,1.91A2.69,2.69,0,0,0,345.68,169.91Z" style="fill:#fff"></path><path d="M347.83,167.67h5.1v.69h-5.1Zm0,2.71h5.1v.69h-5.1Z" style="fill:#fff"></path><path d="M364.67,179.26h-4.59l-1.42,2.2h-.94l5.4-8.22H364l2.11,8.22h-.87Zm-.17-.7-1.11-4.44-2.86,4.44Z" style="fill:#fff"></path><path d="M361.38,157.3l-.64,3.23H365l-.16.75h-4.26l-.69,3.48H359l1.64-8.21h5.63l-.15.75Z" style="fill:#fff"></path><path d="M357.7,169.32h5.86l-.11.57h-5.87Z" style="fill:#fff"></path><path d="M349.46,128.59a6.14,6.14,0,0,1-2.86-3.77,11.68,11.68,0,0,1-.19-4.82,11.13,11.13,0,0,1,1.51-4.58,5.65,5.65,0,0,1,3.89-2.65,5.86,5.86,0,0,1,4.36,1.43,8.24,8.24,0,0,1-.7,13.28C353.64,128.69,351.61,129.74,349.46,128.59Z" style="fill:#92E3A9;stroke:#263238;stroke-linecap:round;stroke-linejoin:round"></path><path d="M367.53,111.74a12.76,12.76,0,0,1,2,17.08c-1.33,1.72-3.16,3.15-3.86,5.21-.45,1.31-.44,2.87-1.39,3.88-1.25,1.34-3.41,1-5.19.57a14,14,0,0,1-4.81-1.83,4.74,4.74,0,0,1-2.18-4.4c.14-.85.94-4.3.24-4.8s-4.05-.65-3.92-2.53c.07-1.15,2-2.06,3.13-2-2.59-.5-4.92,1.88-4.92,1.88-1.77-4.21.58-9.75,1.55-11.5,1.7-3,5.28-4.65,8.75-4.72A17.74,17.74,0,0,1,367.53,111.74Z" style="fill:#fff;stroke:#263238;stroke-linecap:round;stroke-linejoin:round"></path><path d="M361.9,119.9a4.52,4.52,0,0,1-2.57,2.64,3.8,3.8,0,0,1-3.62-.12,3.13,3.13,0,0,1-1.16-3.27,4.07,4.07,0,0,1,2.38-2.66,5.05,5.05,0,0,1,3.89-.14A3.23,3.23,0,0,1,361.9,119.9Z" style="fill:#263238;stroke:#263238;stroke-linecap:round;stroke-linejoin:round"></path><path d="M365.11,119.87a4.06,4.06,0,0,0-.27,3.31,3.42,3.42,0,0,0,2.22,2.4,2.83,2.83,0,0,0,2.92-1.16,3.7,3.7,0,0,0,.4-3.19,4.61,4.61,0,0,0-2.22-2.74A2.91,2.91,0,0,0,365.11,119.87Z" style="fill:#263238;stroke:#263238;stroke-linecap:round;stroke-linejoin:round"></path><path d="M363.2,127.28a.87.87,0,0,1-1.18.5c-.44-.21-.24-.61-.23-1.1-.16.5-.43.93-1.12.8a1.07,1.07,0,0,1-.89-.88.78.78,0,0,1,.24-.71c.19-.18,2-1.15,2.29-1A5.38,5.38,0,0,1,363.2,127.28Z" style="fill:#263238;stroke:#263238;stroke-linecap:round;stroke-linejoin:round"></path><path d="M355.44,131.79a1.22,1.22,0,0,0-.3,1.42,1.18,1.18,0,0,0,1.32.6,1.16,1.16,0,0,0,.81-1.2,2.11,2.11,0,0,0-.11,1.48,1.75,1.75,0,0,0,2.54.76,3.75,3.75,0,0,0,1-1.38,1.46,1.46,0,0,0,.14,1.68c.48.39.92.57,1.43.22a1.27,1.27,0,0,0,.62-1.45" style="fill:#fff;stroke:#263238;stroke-linecap:round;stroke-linejoin:round"></path><path d="M363.85,134.11s-2.2-.35-2.73-.49a45,45,0,0,1-7-2.19,3.7,3.7,0,0,0-.29-2.67,2,2,0,0,1,.75,2.37,31.75,31.75,0,0,0,9.25,2.61c.27-.56.59-1.44,1.33-1.17C365.16,132.57,364.46,132.7,363.85,134.11Z" style="fill:#fff;stroke:#263238;stroke-linecap:round;stroke-linejoin:round"></path><path d="M354.91,131.21a1,1,0,0,1,.83-1.23,1.38,1.38,0,0,1,1.39.73,2.07,2.07,0,0,1,.09,1.62,2.64,2.64,0,0,1,1-1.33,1.68,1.68,0,0,1,1.95.25,1.72,1.72,0,0,1,.31,1.95,2,2,0,0,1,1-1.51,1.47,1.47,0,0,1,1.72.27,1.17,1.17,0,0,1-.12,1.67" style="fill:#fff;stroke:#263238;stroke-linecap:round;stroke-linejoin:round"></path><path d="M288.49,156c0,.2,0,.4,0,.59a.13.13,0,0,1,0,.06,9.9,9.9,0,0,1-4.36,7.59,9.47,9.47,0,0,1-1.24.71h0a10,10,0,0,1-8.68,0,9.65,9.65,0,0,1-1.17-.68h0a9.93,9.93,0,0,1-2.6-2.57,10.26,10.26,0,0,1-.82-1.4,10,10,0,0,1-.94-3.59c0-.22,0-.45,0-.68s0-.44,0-.65h0a10.16,10.16,0,0,1,1-3.66,10.32,10.32,0,0,1,.83-1.4,10,10,0,0,1,2.58-2.53,9.19,9.19,0,0,1,1.19-.68,9.71,9.71,0,0,1,3.69-1l.67,0H279a9.85,9.85,0,0,1,3.94,1,8.78,8.78,0,0,1,1.19.69h0a9.92,9.92,0,0,1,4.34,7.54Q288.49,155.64,288.49,156Z" style="fill:#fff;stroke:#263238;stroke-linecap:round;stroke-linejoin:round"></path><path d="M276.67,171.65a2.67,2.67,0,0,0,.42-1.13.34.34,0,0,1,0-.1c.07-.52.66-3.95.71-4.5q.4,0,.84,0l.76,0c.06.54.76,4,.83,4.49a1.1,1.1,0,0,1,0,.18,2.4,2.4,0,0,0,.36,1,1.14,1.14,0,0,1,.17.71,1.09,1.09,0,0,1-2.12.21h0a1.09,1.09,0,0,1-1.11.76,1.1,1.1,0,0,1-1-1A1.12,1.12,0,0,1,276.67,171.65Z" style="fill:#92E3A9;stroke:#263238;stroke-linecap:round;stroke-linejoin:round"></path><path d="M280.62,140.35a2.91,2.91,0,0,0-.41,1.13s0,.07,0,.1c-.07.52-.67,3.95-.71,4.5q-.42,0-.84,0l-.77,0c-.05-.54-.76-4-.82-4.49l0-.18a2.4,2.4,0,0,0-.36-1,1,1,0,0,1-.16-.7,1.09,1.09,0,0,1,2.12-.22h0a1.08,1.08,0,0,1,1.1-.76,1.09,1.09,0,0,1,1,1A1,1,0,0,1,280.62,140.35Z" style="fill:#92E3A9;stroke:#263238;stroke-linecap:round;stroke-linejoin:round"></path><path d="M291.21,165.54a2.76,2.76,0,0,0-.77-.93l-.08-.06c-.42-.32-3.09-2.55-3.54-2.86.15-.23.3-.47.44-.72s.25-.44.37-.67c.49.23,3.82,1.33,4.3,1.53l.17.07a2.37,2.37,0,0,0,1.08.21,1.1,1.1,0,0,1,.69.21,1.09,1.09,0,0,1-.88,1.94v0a1.09,1.09,0,0,1-1.27,1.72A1.16,1.16,0,0,1,291.21,165.54Z" style="fill:#92E3A9;stroke:#263238;stroke-linecap:round;stroke-linejoin:round"></path><path d="M266.08,146.47a2.85,2.85,0,0,0,.77.92l.08.06c.42.32,3.09,2.55,3.54,2.86-.15.23-.3.47-.44.72s-.25.44-.36.67c-.5-.23-3.83-1.33-4.31-1.53l-.17-.07a2.37,2.37,0,0,0-1.08-.21,1.06,1.06,0,0,1-.69-.21,1.09,1.09,0,0,1,.88-1.94l0,0a1.09,1.09,0,0,1,1.26-1.73A1,1,0,0,1,266.08,146.47Z" style="fill:#92E3A9;stroke:#263238;stroke-linecap:round;stroke-linejoin:round"></path><path d="M293.19,149.89a2.69,2.69,0,0,0-1.19.2l-.09,0c-.49.21-3.75,1.4-4.25,1.64-.12-.25-.26-.5-.4-.74s-.26-.44-.4-.65c.45-.32,3.07-2.65,3.48-3l.15-.11a2.5,2.5,0,0,0,.72-.83,1.09,1.09,0,1,1,1.77,1.24v0a1.09,1.09,0,0,1,.87,1.95A1.05,1.05,0,0,1,293.19,149.89Z" style="fill:#92E3A9;stroke:#263238;stroke-linecap:round;stroke-linejoin:round"></path><path d="M264.11,162.11a2.65,2.65,0,0,0,1.18-.2l.1,0c.48-.2,3.75-1.4,4.24-1.64.13.25.26.5.4.74s.26.44.4.66c-.44.32-3.06,2.65-3.47,3l-.15.11a2.4,2.4,0,0,0-.72.83,1.12,1.12,0,0,1-.53.5,1.1,1.1,0,0,1-1.31-.34,1.09,1.09,0,0,1,.07-1.39l0,0a1.08,1.08,0,0,1-1.21-.57,1.09,1.09,0,0,1,.35-1.38A1,1,0,0,1,264.11,162.11Z" style="fill:#92E3A9;stroke:#263238;stroke-linecap:round;stroke-linejoin:round"></path><path d="M277.13,150.42a1.61,1.61,0,1,1-1.6-1.62A1.61,1.61,0,0,1,277.13,150.42Z" style="fill:#92E3A9;stroke:#263238;stroke-linecap:round;stroke-linejoin:round"></path><path d="M280.25,156.05a1.61,1.61,0,1,1-3.22,0,1.61,1.61,0,0,1,3.22,0Z" style="fill:#92E3A9;stroke:#263238;stroke-linecap:round;stroke-linejoin:round"></path><path d="M283.39,161.6a1.61,1.61,0,1,1-1.6-1.62A1.62,1.62,0,0,1,283.39,161.6Z" style="fill:#92E3A9;stroke:#263238;stroke-linecap:round;stroke-linejoin:round"></path><path d="M274.48,160a1.61,1.61,0,1,1-.65,2.18A1.61,1.61,0,0,1,274.48,160Z" style="fill:#92E3A9;stroke:#263238;stroke-linecap:round;stroke-linejoin:round"></path><path d="M281.28,149.16a1.61,1.61,0,1,1-.65,2.18A1.6,1.6,0,0,1,281.28,149.16Z" style="fill:#92E3A9;stroke:#263238;stroke-linecap:round;stroke-linejoin:round"></path><path d="M273,154.6a1.61,1.61,0,1,1-2.19.64A1.61,1.61,0,0,1,273,154.6Z" style="fill:#92E3A9;stroke:#263238;stroke-linecap:round;stroke-linejoin:round"></path><path d="M285.83,154.58a1.62,1.62,0,0,1,.63,2.19,1.61,1.61,0,0,1-2.82-1.55A1.61,1.61,0,0,1,285.83,154.58Z" style="fill:#92E3A9;stroke:#263238;stroke-linecap:round;stroke-linejoin:round"></path><polyline points="270.19 145.12 271.85 144.16 273.51 143.2" style="fill:none;stroke:#fff;stroke-linecap:round;stroke-linejoin:round"></polyline><line x1="273.68" y1="147.4" x2="271.85" y2="144.16" style="fill:none;stroke:#fff;stroke-linecap:round;stroke-linejoin:round"></line><polyline points="286.99 145.12 285.33 144.16 283.67 143.2" style="fill:none;stroke:#fff;stroke-linecap:round;stroke-linejoin:round"></polyline><line x1="283.5" y1="147.4" x2="285.33" y2="144.16" style="fill:none;stroke:#fff;stroke-linecap:round;stroke-linejoin:round"></line><polyline points="292.15 157.96 292.15 156.04 292.15 154.13" style="fill:none;stroke:#fff;stroke-linecap:round;stroke-linejoin:round"></polyline><line x1="288.43" y1="156.09" x2="292.15" y2="156.05" style="fill:none;stroke:#fff;stroke-linecap:round;stroke-linejoin:round"></line><polyline points="264.85 157.96 264.85 156.04 264.85 154.13" style="fill:none;stroke:#fff;stroke-linecap:round;stroke-linejoin:round"></polyline><line x1="268.57" y1="156.09" x2="264.85" y2="156.05" style="fill:none;stroke:#fff;stroke-linecap:round;stroke-linejoin:round"></line><polyline points="270.19 167.03 271.85 167.99 273.51 168.95" style="fill:none;stroke:#fff;stroke-linecap:round;stroke-linejoin:round"></polyline><line x1="273.68" y1="164.74" x2="271.85" y2="167.99" style="fill:none;stroke:#fff;stroke-linecap:round;stroke-linejoin:round"></line><polyline points="286.99 167.03 285.33 167.99 283.67 168.95" style="fill:none;stroke:#fff;stroke-linecap:round;stroke-linejoin:round"></polyline><line x1="283.5" y1="164.74" x2="285.33" y2="167.99" style="fill:none;stroke:#fff;stroke-linecap:round;stroke-linejoin:round"></line><path d="M331.94,216.84c.86-1.41,1.41-3.28.52-4.67s-3-1.67-4.82-1.69c1.4-2.44.11-5.86-2.38-7.17a7.4,7.4,0,0,0-7.88,1.1,11.62,11.62,0,0,0-3.81,7.31c-.42,2.73.15,4.75,2.46,6.29,1.66,1.11,2.43,2.63,3.92,3.8C323.61,224.7,330,220,331.94,216.84Z" style="fill:#92E3A9;stroke:#263238;stroke-linecap:round;stroke-linejoin:round"></path><path d="M327.15,210.94c.33-.37,4-3.94,4.22-3.68a1.75,1.75,0,0,0,1,.49" style="fill:#fff;stroke:#263238;stroke-linecap:round;stroke-linejoin:round"></path><path d="M332.39,208.57a12.82,12.82,0,0,1,2.74.56,6.61,6.61,0,0,1-2.56,1.53,3.36,3.36,0,0,1-2.8-.56C328.31,209,331.74,208.53,332.39,208.57Z" style="fill:#263238;stroke:#263238;stroke-linecap:round;stroke-linejoin:round"></path><path d="M324.81,205.47a.85.85,0,0,0-1.3-.47.82.82,0,1,0,1.34.56Z" style="fill:#fff;stroke:#263238;stroke-linecap:round;stroke-linejoin:round"></path><path d="M320.67,205.22c-2.58-.23-4.89,4.21-5.17,6.05" style="fill:none;stroke:#263238;stroke-linecap:round;stroke-linejoin:round"></path><path d="M190.64,132.44h0l-.49-.61a16.45,16.45,0,0,0-5.46-4.3,15.84,15.84,0,0,0-7-1.6,16.3,16.3,0,0,0-15.42,11.33,16.93,16.93,0,0,0-.65,2.66c0,.29,0,.57,0,.86a9.26,9.26,0,0,0,3.75,7.49l.57-.4a10.06,10.06,0,0,1,6.16-2.12l6.29.53a1.79,1.79,0,0,1,1,0,4.05,4.05,0,0,0,.5.12l.73.06a4.27,4.27,0,0,0,4.17-3.59,5,5,0,0,0,.55,0,6.53,6.53,0,0,0,6.47-6.62A6.7,6.7,0,0,0,190.64,132.44Z" style="fill:#fff;stroke:#263238;stroke-linecap:round;stroke-linejoin:round"></path><path d="M178.4,146.27a1.9,1.9,0,0,0-.93.61,8.93,8.93,0,0,1-6.79,3.14,8.79,8.79,0,0,1-5.3-1.76l.57-.4a10.06,10.06,0,0,1,6.16-2.12Z" style="fill:#92E3A9;stroke:#263238;stroke-linecap:round;stroke-linejoin:round"></path><path d="M177.76,146.6,174,153.4a.86.86,0,0,1-.75.44.88.88,0,0,1-.86-1l.37-3.05h0l.13,0,.08,0,.14,0,.58-.19.19-.07c.26-.11.52-.22.77-.35l.2-.11.42-.24.2-.12.2-.14.19-.13.16-.12.22-.17.18-.15a9.63,9.63,0,0,0,1-1" style="fill:#263238;stroke:#263238;stroke-linecap:round;stroke-linejoin:round"></path><path d="M172.47,138c.48,0,10.47-1.12,12.3,4.86" style="fill:#fff;stroke:#263238;stroke-linecap:round;stroke-linejoin:round"></path><path d="M175.76,126.17c4,.87,2.56,6.73,2.6,6.78" style="fill:#fff;stroke:#263238;stroke-linecap:round;stroke-linejoin:round"></path><path d="M180.5,126.09a2.65,2.65,0,0,0-2.18,2.2" style="fill:#fff;stroke:#263238;stroke-linecap:round;stroke-linejoin:round"></path><path d="M169.92,133.23a4.61,4.61,0,0,0-3.08,3.74,4.71,4.71,0,0,0,2,4.44" style="fill:#fff;stroke:#263238;stroke-linecap:round;stroke-linejoin:round"></path><path d="M167.49,140.23a2.89,2.89,0,0,0-1,3.63" style="fill:#fff;stroke:#263238;stroke-linecap:round;stroke-linejoin:round"></path><path d="M191.72,137.56a2.28,2.28,0,0,0-.93-1.82,2.16,2.16,0,0,0-2-.3,4.13,4.13,0,0,0-1.63-3.17,3.93,3.93,0,0,0-3.45-.55" style="fill:#fff;stroke:#263238;stroke-linecap:round;stroke-linejoin:round"></path><path d="M186.7,138.34a5.2,5.2,0,0,0-3.08,2.48" style="fill:#fff;stroke:#263238;stroke-linecap:round;stroke-linejoin:round"></path><path d="M175.93,135.75a4,4,0,0,0,.39,2.13" style="fill:#fff;stroke:#263238;stroke-linecap:round;stroke-linejoin:round"></path><path d="M170.74,136.12s1.73,1.77,1.7,1.76L171,139" style="fill:#fff;stroke:#263238;stroke-linecap:round;stroke-linejoin:round"></path><path d="M166,142.25a2.3,2.3,0,0,0-1.77-.43,2.37,2.37,0,0,0-1.53,1" style="fill:#fff;stroke:#263238;stroke-linecap:round;stroke-linejoin:round"></path><path d="M180.67,136a4,4,0,0,0-.92,2.42" style="fill:#fff;stroke:#263238;stroke-linecap:round;stroke-linejoin:round"></path></g><g id="character"><path d="M249.43,403.1c-3.87-2.44-11.62-10.87-13-13.84s-2.83-3.19-5.67-4.75c-8-4.38-12.23-6.81-8.91-12.11a10.79,10.79,0,0,1,2.35-2.58,11.67,11.67,0,0,0,4.27-8.1,53.8,53.8,0,0,0,.11-8.7c2.54,2,5.62,4.11,13.23,4.51l-1.06,10.94c-.74,9.3,6.61,19.91,8.9,26.87.29.87.43,2.06,1,2.54a8,8,0,0,1,2,2.15A2.31,2.31,0,0,1,249.43,403.1Z" style="fill:#fff;stroke:#263238;stroke-linecap:round;stroke-linejoin:round"></path><path d="M232.83,366.77a8.27,8.27,0,0,0-1.63,2.41,2.54,2.54,0,0,0,.32,2.63" style="fill:none;stroke:#263238;stroke-linecap:round;stroke-linejoin:round"></path><path d="M234.46,384.5c.17,3,4.63,8.65,6.68,10.87" style="fill:none;stroke:#263238;stroke-linecap:round;stroke-linejoin:round"></path><path d="M247.91,395.47a10.56,10.56,0,0,0,2.5,2.31" style="fill:none;stroke:#263238;stroke-linecap:round;stroke-linejoin:round"></path><path d="M230.16,382.25a11.13,11.13,0,0,1-6.47-2.4" style="fill:none;stroke:#263238;stroke-linecap:round;stroke-linejoin:round"></path><path d="M245.82,397.92a8.25,8.25,0,0,0,3.93,5.16" style="fill:#fff;stroke:#263238;stroke-linecap:round;stroke-linejoin:round"></path><path d="M253.63,300l-10.4,57.6c-.48,0-.93-.05-1.39-.09-6.78-.58-10.86-2.65-13.23-4.52-1.15-12.86-.63-29-.7-33-.22-14.21,5-21.16,5-21.16s-22.21,2.44-45,2.94c-6.61.14-13.28.12-19.47-.16,4.22-1.68,12.06-10.66,14.2-13.17-17.71,15.1-32.75,11.05-35.85,9.89l.43.22.72.35a24,24,0,0,1-5.21-2.05c-15.9-9-14.31-25.15-13-33.38.14-.92.28-1.74.39-2.43,0,0,10.53.62,25.37,1.92,5.19.46,10.9,1,16.87,1.61,8.15.86,16.78,1.86,25.24,3.05,2.16.28,4.3.61,6.42.92,1.81.27,3.61.56,5.37.85,1.38.22,2.72.45,4.06.68l3.09.56c.33.07.67.13,1,.18,0,0,0,0,0,0,16.32,3.07,29.4,6.91,32.87,11.56C256.25,290.31,253.63,300,253.63,300Z" style="fill:#bfbfbf;stroke:#263238;stroke-linecap:round;stroke-linejoin:round"></path><path d="M216.43,286.64q3.23-2,6.27-4.31" style="fill:none;stroke:#263238;stroke-linecap:round;stroke-linejoin:round"></path><path d="M166.7,300.8a92.87,92.87,0,0,0,43.13-10.38" style="fill:none;stroke:#263238;stroke-linecap:round;stroke-linejoin:round"></path><path d="M254.15,293.12a28.57,28.57,0,0,1-8.45,18.46" style="fill:none;stroke:#263238;stroke-linecap:round;stroke-linejoin:round"></path><path d="M236.5,295.3l-4.67,5.94" style="fill:none;stroke:#263238;stroke-linecap:round;stroke-linejoin:round"></path><path d="M182.56,288.45c-2.14,2.51-10,11.49-14.2,13.17-8-.38-15.21-1.2-20.5-2.71l-.72-.35-.43-.22C149.81,299.5,164.85,303.55,182.56,288.45Z" style="fill:#263238;stroke:#263238;stroke-linecap:round;stroke-linejoin:round"></path><path d="M146,298.06a3.48,3.48,0,0,1,.63.26A4.53,4.53,0,0,1,146,298.06Z" style="fill:#263238;stroke:#263238;stroke-linecap:round;stroke-linejoin:round"></path><path d="M185,286.25c-.82.78-1.64,1.51-2.45,2.2l.54-.65Z" style="fill:#263238;stroke:#263238;stroke-linecap:round;stroke-linejoin:round"></path><path d="M317,303.08c-4.54.89-16.08.05-19.12-1.21s-4.29-.39-7.46.42c-8.89,2.29-13.72,3.46-14.95-2.74a10.91,10.91,0,0,1,0-3.52,11.82,11.82,0,0,0-2.46-8.92,55.33,55.33,0,0,0-5.94-6.48c3.25-.28,7-.86,12.86-5.83l6.77,8.78c5.9,7.36,18.65,10.08,25.15,13.62.81.44,1.74,1.22,2.52,1.15a8.06,8.06,0,0,1,2.95.21A2.34,2.34,0,0,1,317,303.08Z" style="fill:#fff;stroke:#263238;stroke-linecap:round;stroke-linejoin:round"></path><path d="M279.61,287.83a8.77,8.77,0,0,0,.47,2.9,2.53,2.53,0,0,0,2.06,1.71" style="fill:none;stroke:#263238;stroke-linecap:round;stroke-linejoin:round"></path><path d="M293.07,299.75c2.21,2.1,9.4,3.16,12.44,3.38" style="fill:none;stroke:#263238;stroke-linecap:round;stroke-linejoin:round"></path><path d="M288.36,301.07a11.32,11.32,0,0,1-6.42,2.71" style="fill:none;stroke:#263238;stroke-linecap:round;stroke-linejoin:round"></path><path d="M311.44,301.89a6.62,6.62,0,0,0,5.74.95" style="fill:#fff;stroke:#263238;stroke-linecap:round;stroke-linejoin:round"></path><path d="M281,273.91a29.63,29.63,0,0,1-15.58,6.91c-9.75-8.67-19.43-20.32-22.38-23.1-6.65-6.26-10.35-19.9-10.35-19.9S218,255,201.54,271.14c-13.29,13.05-27.76,25.45-36.65,27.63-17.92,4.39-28-5.35-32.77-12.29-.53-.77-2.51-6.65-2.91-7.24A141.92,141.92,0,0,0,150.81,265c4.13-3.25,8.7-6.81,13.52-10.48,6.59-5,13.64-10.24,20.68-15.22,2-.43,4.39-1,6.1-1.44a3.76,3.76,0,0,0,1.91-1.34l.31.11,6.47-6.9a4.85,4.85,0,0,0,1.47-1.17l.64-.72h0c14.14-9,26.41-15.25,32.19-14.23,9.84,1.73,14.63,10.69,14.63,10.69Z" style="fill:#bfbfbf;stroke:#263238;stroke-linecap:round;stroke-linejoin:round"></path><path d="M201.91,227.87l-.64.72a4.85,4.85,0,0,1-1.47,1.17l-6.47,6.9-.31-.11a3.76,3.76,0,0,1-1.91,1.34c-1.71.46-4.15,1-6.1,1.44,1.79-1.28,3.59-2.53,5.37-3.76q2.28-1.59,4.54-3.1l3.45-2.3,2.66-1.73C201.32,228.26,201.62,228.07,201.91,227.87Z" style="fill:#fff;stroke:#263238;stroke-linecap:round;stroke-linejoin:round"></path><path d="M308,298c2,.56,2.91,1.39,4.89,2,.55.15,2.16,0,2.64.34a2,2,0,0,1,1,1.33,1.23,1.23,0,0,1-.75,1.36" style="fill:none;stroke:#263238;stroke-linecap:round;stroke-linejoin:round"></path><path d="M310.82,297.72a8.8,8.8,0,0,0,5.16,1.39,2,2,0,0,1,2,1.41,1.74,1.74,0,0,1-.54,2.11" style="fill:none;stroke:#263238;stroke-linecap:round;stroke-linejoin:round"></path><path d="M171.05,232.34l-14.76,5.33L153,229.06l28.36-8.75s-1.69,2.82-6.25,9.72C172.19,234.42,171.05,232.34,171.05,232.34Z" style="fill:#92E3A9"></path><g style="clip-path:url(#clip-path)"><path d="M171.05,232.34l-14.76,5.33L153,229.06l28.36-8.75s-1.69,2.82-6.25,9.72C172.19,234.42,171.05,232.34,171.05,232.34Z" style="fill:#92E3A9;stroke:#263238;stroke-linecap:round;stroke-linejoin:round"></path><path d="M157.07,235a2.8,2.8,0,0,0,2.36,1.14,8.44,8.44,0,0,0,2.65-.57l8.32-2.74a11.61,11.61,0,0,0,3.36-1.52c2.26-1.67,9.16-6.28,4.08-5.44C173.35,226.58,156.38,233.9,157.07,235Z" style="fill:#263238;opacity:0.2"></path></g><path d="M171.05,232.34l-14.76,5.33L153,229.06l28.36-8.75s-1.69,2.82-6.25,9.72C172.19,234.42,171.05,232.34,171.05,232.34Z" style="fill:none;stroke:#263238;stroke-linecap:round;stroke-linejoin:round"></path><path d="M134.47,182.61c.34,1.46-1.81,3.74-3.31,3.59a7.22,7.22,0,0,1-3.82-2.23l-8.92-8.11a3.83,3.83,0,0,1-1.34-1.8,1.5,1.5,0,0,1,.55-1.58s0,0,0,0a3.13,3.13,0,0,1,.4-.12h0l.22,0a13,13,0,0,0,3.78-9.76c3-.52,6.05,1.07,8.09,3.34s5.86,2,7,4.85c-1.07.73-4,5.32-4.45,6.56a4.94,4.94,0,0,0-.3,1.37,6.09,6.09,0,0,0,1.79,4.83Z" style="fill:#fff;stroke:#263238;stroke-linecap:round;stroke-linejoin:round"></path><path d="M164.33,259.24a156.56,156.56,0,0,0-11.77,15.24c-4.85,3.25-11.57,6-20.83,7.41L131,282h0c-4.84.64-7.72-20.25-9.07-33.49-.61-6.1-.9-10.57-.9-10.57s-13.9-19.58-15.5-38.05a35.56,35.56,0,0,1-.13-4.83c.29-7.29,2.12-12.31,4.29-15.72a16.46,16.46,0,0,1,8-6.86,1.5,1.5,0,0,0-.55,1.58,2.73,2.73,0,0,0,.62,1.1l.21.22c.16.17.34.33.51.48l3.57,3.25,5.35,4.86a7.22,7.22,0,0,0,3.82,2.23c1.5.16,3.65-2.13,3.31-3.59l-.24.88a6.08,6.08,0,0,1-1.79-4.82,4.93,4.93,0,0,1,.3-1.38,20.65,20.65,0,0,1,3.48,4.31c4.47,7.29,12.57,17.33,17.51,23.24a13.54,13.54,0,0,1,2,14.33l-.06.13c-1.79,3.75-.37,8.1-.06,8.95l.06.15,2.8,8.49v0L163,250.69l.83,2.52A12.5,12.5,0,0,1,164.33,259.24Z" style="fill:#92E3A9"></path><g style="clip-path:url(#clip-path-2)"><path d="M140.91,210.88a30.58,30.58,0,0,1,4.65,7.82c1,2.87,1.06,6.23-.57,8.8a70.84,70.84,0,0,0,10.22-5.94,25.78,25.78,0,0,1-6.68,11.09c-2.3,2.25-5.85,4.11-8.62,2.46-2.36-1.42-3.63-3.91-4.28-6.6-3.77-15.42-3.77-18.8-5.3-31.81C134.2,201,137.44,206.2,140.91,210.88Z" style="fill:#263238;opacity:0.2"></path><path d="M121.79,250.39a35.78,35.78,0,0,0,.88,9.81,12.09,12.09,0,0,0,5.73,7.7c3.39,1.72,7.5,1.12,11.13,0s7.17-2.79,11-3.07a25.64,25.64,0,0,1-19.39,8.57,9.53,9.53,0,0,0,8.49,1.87A22.69,22.69,0,0,1,128,279.82c2.09,2.57,6.06,2.37,9.25,1.51A39.62,39.62,0,0,0,164.22,256c.48-1.45.62-3.52-.81-4.07a3.16,3.16,0,0,0-2.15.2l-26.75,9.08c-1.93.65-4.23,1.25-5.86,0a6.23,6.23,0,0,1-1.67-2.36q-2.39-4.77-4.76-9.56l-.55,1.26c-.09-1.18-.19-2.37-.29-3.56" style="fill:#263238;opacity:0.2"></path></g><path d="M164.33,259.24a156.56,156.56,0,0,0-11.77,15.24c-4.85,3.25-11.57,6-20.83,7.41L131,282h0c-4.84.64-7.72-20.25-9.07-33.49-.61-6.1-.9-10.57-.9-10.57s-13.9-19.58-15.5-38.05a35.56,35.56,0,0,1-.13-4.83c.29-7.29,2.12-12.31,4.29-15.72a16.46,16.46,0,0,1,8-6.86,1.5,1.5,0,0,0-.55,1.58,2.73,2.73,0,0,0,.62,1.1l.21.22c.16.17.34.33.51.48l3.57,3.25,5.35,4.86a7.22,7.22,0,0,0,3.82,2.23c1.5.16,3.65-2.13,3.31-3.59l-.24.88a6.08,6.08,0,0,1-1.79-4.82,4.93,4.93,0,0,1,.3-1.38,20.65,20.65,0,0,1,3.48,4.31c4.47,7.29,12.57,17.33,17.51,23.24a13.54,13.54,0,0,1,2,14.33l-.06.13c-1.79,3.75-.37,8.1-.06,8.95l.06.15,2.8,8.49v0L163,250.69l.83,2.52A12.5,12.5,0,0,1,164.33,259.24Z" style="fill:none;stroke:#263238;stroke-linecap:round;stroke-linejoin:round"></path><path d="M118,172.34a.93.93,0,0,0-.4.12" style="fill:none;stroke:#263238;stroke-linecap:round;stroke-linejoin:round"></path><path d="M122,162.56l.1-.16v.14Z" style="fill:none;stroke:#263238;stroke-linecap:round;stroke-linejoin:round"></path><path d="M118.29,172.3a5.64,5.64,0,0,1-.56.53" style="fill:none;stroke:#263238;stroke-linecap:round;stroke-linejoin:round"></path><path d="M225.22,200.8l-2.66,2.84-.68.73-.75.8-.4.42c-5.58,6-14.92,16-19.27,20.93h0l-.64.72a4.85,4.85,0,0,1-1.47,1.17,3.44,3.44,0,0,1-1.43.41,4.57,4.57,0,0,1-1.94-.27,9.41,9.41,0,0,1-2.41-1.35,22,22,0,0,1-3.33-3.23c-.4-.46-.78-.94-1.14-1.4-.62-.81-1.18-1.6-1.66-2.3-1-1.47-1.59-2.53-1.59-2.53l1.43-1.5h0l.19-.19,7.44-7.78,0,0,25.27-26.4C223.15,179.86,225.22,200.8,225.22,200.8Z" style="fill:#fff;stroke:#263238;stroke-linecap:round;stroke-linejoin:round"></path><path d="M219.63,184.82h0l-28.25,29.7s-1.47,2,0,3,25.38-26.19,25.38-26.19,4.47,1.66,5.83,4-3.43-5.23-3-10.45" style="fill:#bfbfbf;stroke:#263238;stroke-linecap:round;stroke-linejoin:round"></path><path d="M224.61,198.86s-3.72-6.2-4.47-9.17a14.82,14.82,0,0,1-.51-4.87l2.58.35a51.42,51.42,0,0,1,2.4,13.69" style="fill:#bfbfbf;stroke:#263238;stroke-linecap:round;stroke-linejoin:round"></path><path d="M225.07,200.19l-9.21-4.74L193.35,219l-2-2.51,23.84-25.63a12.56,12.56,0,0,1,6.17,3.45A12.83,12.83,0,0,1,225.07,200.19Z" style="fill:#bfbfbf;stroke:#263238;stroke-linecap:round;stroke-linejoin:round"></path><polygon points="225.22 200.8 222.56 203.64 221.88 204.37 221.13 205.17 220.73 205.59 200.56 227.1 199.33 228.42 192.86 235.32 192.55 235.21 189.91 234.23 181.34 231.05 189.08 222.58 192.16 219.21 192.2 219.17 192.85 218.46 194.12 217.07 214.49 194.78 225.22 200.8" style="fill:#fff;stroke:#263238;stroke-linecap:round;stroke-linejoin:round"></polygon><path d="M171.05,232.1s-22.12,9.3-31.66,9.73c0,0-5.94-16.45-9.46-45.76-1.67-13.88-15.15-9.87-15.15-9.87-.24.14-13.5,5.88-8.12,24.32s21.58,51.36,21.58,51.36A97.37,97.37,0,0,0,162.53,251l12.56-6.76S173,237,171.05,232.1Z" style="fill:#92E3A9"></path><g style="clip-path:url(#clip-path-3)"><path d="M111,210.68c3.33,4.45,7.6,8.1,11.45,12.11a5.84,5.84,0,0,1,1.92,3.22c.13,1.26-.53,2.45-.85,3.68-1,3.62,1.1,7.32,3.39,10.28s5,5.89,5.63,9.57c.23,1.3.21,2.71.92,3.82,1.35,2.09,4.41,2,6.83,1.4,11.67-2.71,22.14-10,34.07-11.17a163.87,163.87,0,0,1-40.64,17.9c-2,.58-4.3,1.09-6.11,0-1.51-.87-2.27-2.59-2.94-4.19L111.21,225a99.68,99.68,0,0,1-5.09-14.3c-.85-3.4-2.89-11.47-.54-14.39.93,1.84.68,5,1.47,7.23A28,28,0,0,0,111,210.68Z" style="fill:#263238;opacity:0.2"></path></g><path d="M171.05,232.1s-22.12,9.3-31.66,9.73c0,0-5.94-16.45-9.46-45.76-1.67-13.88-15.15-9.87-15.15-9.87-.24.14-13.5,5.88-8.12,24.32s21.58,51.36,21.58,51.36A97.37,97.37,0,0,0,162.53,251l12.56-6.76S173,237,171.05,232.1Z" style="fill:none;stroke:#263238;stroke-linecap:round;stroke-linejoin:round"></path><path d="M199.18,222.2l-2.12.83s.58,3.93-.37,4.66c-.24.3-.48.59-.73.87a13,13,0,0,1-1.16,1.19c-.08.36-.19.84-.35,1.38a11.75,11.75,0,0,1-1.9,4.08,3.76,3.76,0,0,1-1.91,1.34c-1.71.46-4.15,1-6.1,1.44l-3.21.68-6.64,3.75-1.1-3-2.53-7v0l.08,0A17.77,17.77,0,0,0,174,231a6.85,6.85,0,0,0,1.07-1,55.74,55.74,0,0,0,5.24-8.08l.21-.39.66-1.21c.33-.59.56-1,.67-1.19,1.74-.92,3.65-2,5.39-2.91h0c1.72-.89,2.69,0,5.88-.54.9,0,1.12.64,1,1.37,0,0,0,0,0,0a2.72,2.72,0,0,1-1.26,1.35,13.21,13.21,0,0,1-3.14,1.14l2.45-.39,1.26-.2.18,0,1.7-.27h.06l1.58-.25.12,0h.1l3.06.21h.09l1.56.11a1.17,1.17,0,0,1,0,.11C202.11,219.46,202.83,222.06,199.18,222.2Z" style="fill:#fff;stroke:#263238;stroke-linecap:round;stroke-linejoin:round"></path><path d="M188.31,224.66c4.8-1.84,8.1-2,10.87-2.46a2.39,2.39,0,0,0,2.45-.77,2.56,2.56,0,0,0,.24-2.65c-2,0-4.05-.61-6-.18-3.15.7-5.69.42-9.46,2.09" style="fill:none;stroke:#263238;stroke-linecap:round;stroke-linejoin:round"></path><path d="M190.64,232.34a14.79,14.79,0,0,0,4.17-2.59" style="fill:none;stroke:#263238;stroke-linecap:round;stroke-linejoin:round"></path><path d="M189.69,228.33a40,40,0,0,0,7.33-2.5" style="fill:none;stroke:#263238;stroke-linecap:round;stroke-linejoin:round"></path><path d="M183,218.29c.51,0,4.41-8.54,4.41-8.54s5.94.15,7.52-1.5c0,0,1.51,3-1.57,3.93s-6.1,4.07-6.1,4.07Z" style="fill:#fff;stroke:#263238;stroke-linecap:round;stroke-linejoin:round"></path><path d="M130,169.49a8.27,8.27,0,0,0,3.74,3.16c1.58.49,3.68-.37,3.85-2,.14-1.43-1.12-2.57-2.26-3.44-1.39-1.07-8.49-7.75-9.95-6.87C123.45,161.48,129.17,168.36,130,169.49Z" style="fill:#263238;stroke:#263238;stroke-linecap:round;stroke-linejoin:round"></path><path d="M150.55,136.22a56.48,56.48,0,0,1,1.78,6.91c.4,2.75-.59,7.53-.45,8.37s3.18,6.16,3,7.1-4,2.17-4,2.17-2,6.26-3.2,8.85-1.29,4.14-4.84,3.46-8.15-3-13.64-7.13-10.66-7.07-10.74-13.49,19.7-18.14,22.36-19.34S150.55,136.22,150.55,136.22Z" style="fill:#fff;stroke:#263238;stroke-linecap:round;stroke-linejoin:round"></path><path d="M149.52,151.23c-.27,1.22-.89,2.11-1.36,2s-.69-1.2-.42-2.41.91-2.12,1.37-2S149.8,150,149.52,151.23Z" style="fill:#263238"></path><path d="M145.8,147.5s2.55-4.21,5-2.17" style="fill:none;stroke:#263238;stroke-linecap:round;stroke-linejoin:round"></path><path d="M149.57,162.92s-3.57.79-4.86-2.26" style="fill:none;stroke:#263238;stroke-linecap:round;stroke-linejoin:round"></path><path d="M132.35,121.07c-8.28.55-15.88,1.55-21.8,7-11,10.18-5.49,23.2-3.76,27.13,1.27,2.9,3.57,5.36,4.51,8.37s-.3,7-3.56,7.56a3.89,3.89,0,0,0,5.4.37,16.26,16.26,0,0,1-4.85,8,13.54,13.54,0,0,0,9.84-4.81L115.91,182c4-1.71,8.13-3.52,10.91-6.71s3.74-8.2,1-11.44c-1.55-1.82-3.93-2.76-6-4.08s-3.91-3.43-3.48-5.71a4,4,0,0,1,7.77.15,44.32,44.32,0,0,1,13.27-12.47A27.33,27.33,0,0,1,135.14,153c.39-.59,5.56-1.64,6.51-2.1a25.82,25.82,0,0,0,6-4.06,23.5,23.5,0,0,0,7.11-11.57C157,126.25,140.08,120.56,132.35,121.07Z" style="fill:#263238;stroke:#263238;stroke-linecap:round;stroke-linejoin:round"></path><path d="M142.47,154.65h.17" style="fill:none;stroke:#263238;stroke-linecap:round;stroke-linejoin:round"></path><path d="M144.07,156.43v-.18" style="fill:none;stroke:#263238;stroke-linecap:round;stroke-linejoin:round"></path><path d="M145.21,154.83v-.18" style="fill:none;stroke:#263238;stroke-linecap:round;stroke-linejoin:round"></path><path d="M231.43,230.64a32.5,32.5,0,0,0,3.44,11.67" style="fill:none;stroke:#263238;stroke-linecap:round;stroke-linejoin:round"></path><path d="M180.83,242.31c-6,6-11.66,11.82-16.5,16.94l.27-.92a5.31,5.31,0,0,0-.27-3.78h0Z" style="fill:#263238;stroke:#263238;stroke-linecap:round;stroke-linejoin:round"></path><path d="M242.91,218.44a25.76,25.76,0,0,1,8.26,15.47" style="fill:none;stroke:#263238;stroke-linecap:round;stroke-linejoin:round"></path><path d="M132.65,249.2a20.1,20.1,0,0,1,7.87-7.81" style="fill:none;stroke:#263238;stroke-linecap:round;stroke-linejoin:round"></path><path d="M142.28,228.51a27.53,27.53,0,0,0,12.5-7.8" style="fill:none;stroke:#263238;stroke-linecap:round;stroke-linejoin:round"></path><path d="M135.55,201c0,1.09,0,2.19-.06,3.28" style="fill:none;stroke:#263238;stroke-linecap:round;stroke-linejoin:round"></path><path d="M132.65,212.86c1.46-4.61.9-11.11.95-15.42a1.17,1.17,0,0,1,.21-.8.78.78,0,0,1,1.12.14,2.15,2.15,0,0,1,.4,1.19,4.78,4.78,0,0,1,.07.65" style="fill:none;stroke:#263238;stroke-linecap:round;stroke-linejoin:round"></path><path d="M144.59,266.88a32.34,32.34,0,0,0,13.21-11,22,22,0,0,1-25.53,18.48" style="fill:none;stroke:#263238;stroke-linecap:round;stroke-linejoin:round"></path><path d="M137.39,269.24c1.07-.23,2.12-.5,3.16-.82" style="fill:none;stroke:#263238;stroke-linecap:round;stroke-linejoin:round"></path><path d="M112.74,220.71A29,29,0,0,0,115.5,224" style="fill:none;stroke:#263238;stroke-linecap:round;stroke-linejoin:round"></path><path d="M105.43,202.63a37.35,37.35,0,0,0,5.69,15.82" style="fill:none;stroke:#263238;stroke-linecap:round;stroke-linejoin:round"></path><path d="M167.59,255.63c-1.11,1.18-2.19,2.39-3.26,3.61a156.56,156.56,0,0,0-11.77,15.24q-2.76,4-5.24,8.26" style="fill:none;stroke:#263238;stroke-linecap:round;stroke-linejoin:round"></path><path d="M128,159.05c-.33,2.57.79,7.22,8.19,11.43" style="fill:none;stroke:#263238;stroke-linecap:round;stroke-linejoin:round"></path></g></svg>