<svg xmlns="http://www.w3.org/2000/svg" viewBox="0 0 750 500"><g id="background-complete"><path d="M641.54,347c6-3.08,13-3.48,19.58-2.38,3.55.58,7.26,1.65,9.67,4.31s2.88,7.37.1,9.66c-1.65,1.36-3.95,1.57-6.1,1.55-5.17-.06-10.91-1-15,2.14-2.36,1.77-3.93,4.73-6.75,5.6s-5.87-.77-7.33-3.26a11.38,11.38,0,0,1-.83-8.41A12.84,12.84,0,0,1,641.54,347Z" style="fill:#ebebeb"></path><path d="M627.9,320.68c3.64,5.2,10.72,3.48,14,.3s4.67-7.77,5.93-12.16c2.89-10,5.79-20.54,3.65-30.75a17.07,17.07,0,0,0-3.93-8.36c-2.14-2.26-5.44-3.61-8.45-2.81-3.57.94-5.79,4.44-7.39,7.76a73.38,73.38,0,0,0-7.25,31.46c0,5.06.58,10.38,3.44,14.56" style="fill:#ebebeb"></path><path d="M617.9,328.14c4-4.69,4.71-11.53,3-17.41s-5.74-10.88-10.32-15a55.5,55.5,0,0,0-18.47-10.9,19.62,19.62,0,0,0-8.3-1.41,8.71,8.71,0,0,0-7,4.22c-1.95,3.7-.08,8.2,1.93,11.87A140.94,140.94,0,0,0,590.85,318c3.64,4.69,7.8,9.31,13.35,11.43s11.29,1.87,14.23-2" style="fill:#ebebeb"></path><path d="M627.66,399.13a12.75,12.75,0,0,0,.32-2.37q.25-2.58.63-6.44a93.56,93.56,0,0,1,1.45-9.46,73.07,73.07,0,0,1,3.44-11.17,41.43,41.43,0,0,1,5.7-10.1,21.35,21.35,0,0,1,7.21-6,20,20,0,0,1,6.07-1.89,12.42,12.42,0,0,0,2.35-.34,10.75,10.75,0,0,0-2.39,0,18.22,18.22,0,0,0-6.33,1.65,21.16,21.16,0,0,0-7.6,6,40.31,40.31,0,0,0-5.91,10.31,68.12,68.12,0,0,0-3.42,11.34,80.31,80.31,0,0,0-1.25,9.58c-.21,2.74-.29,5-.32,6.49A10.43,10.43,0,0,0,627.66,399.13Z" style="fill:#e0e0e0"></path><path d="M628.1,394.17a5.31,5.31,0,0,0,.06-1.1c0-.82,0-1.86,0-3.14,0-2.72,0-6.66.14-11.52.25-9.72,1.08-20.19,2.7-35,1.53-13.87,3.59-30,5.76-40.52.46-2.39.93-4.54,1.37-6.42s.78-3.51,1.13-4.83.54-2.24.73-3a4.58,4.58,0,0,0,.19-1.09,5.43,5.43,0,0,0-.38,1l-.91,3c-.4,1.3-.82,2.92-1.29,4.79s-1,4-1.52,6.41A356.74,356.74,0,0,0,630,340.4c-1.62,14.78-2.35,28.25-2.41,38-.06,4.87,0,8.82.17,11.54.07,1.28.14,2.31.19,3.14A4.81,4.81,0,0,0,628.1,394.17Z" style="fill:#e0e0e0"></path><path d="M628.16,368.2a20.15,20.15,0,0,0,0-3.28c-.12-2.1-.41-5.15-1-8.87a117.42,117.42,0,0,0-2.89-12.93,105.09,105.09,0,0,0-5.4-15.3c-4.49-10.64-10.58-19.34-15.88-24.72a39.65,39.65,0,0,0-3.74-3.48c-.57-.48-1.08-1-1.59-1.35l-1.45-1a20.36,20.36,0,0,0-2.76-1.76c-.16.21,3.91,2.6,9,8.06A86,86,0,0,1,618,328.21a121.56,121.56,0,0,1,5.44,15.15,131.28,131.28,0,0,1,3.07,12.81c.68,3.68,1.07,6.7,1.3,8.78A23.7,23.7,0,0,0,628.16,368.2Z" style="fill:#e0e0e0"></path><polygon points="603.07 414.01 605.67 449.65 651.47 449.65 654.07 414.01 603.07 414.01" style="fill:#e0e0e0"></polygon><rect x="598.64" y="399.95" width="60.89" height="14.05" style="fill:#e0e0e0"></rect><polygon points="598.64 448.29 598.64 452.19 601.5 452.19 658.52 452.19 658.52 448.29 598.64 448.29" style="fill:#ebebeb"></polygon><polygon points="604.31 459.04 601.5 452.19 656.34 452.19 653.07 459.04 604.31 459.04" style="fill:#e0e0e0"></polygon><path d="M653.22,425.66a1.61,1.61,0,0,1-.22.32l-.68.91-2.67,3.42-.12.15-.11-.16-6.56-9.07h.38l-6.45,9.14-.21.29-.22-.27-7.66-9.11h.45c-.14.16-.28.35-.43.53l-6.84,8.58-.23.28-.21-.3L615,421.24l.37,0-8,9.06-.14.16-.11-.18-2.49-4.19L604,425a1.77,1.77,0,0,1-.19-.4,1.67,1.67,0,0,1,.26.35l.71,1.08,2.62,4.1-.25,0,7.82-9.17.2-.23.18.25,6.51,9.09h-.44l6.83-8.59.42-.53.22-.27.22.27,7.63,9.12-.42,0c2.35-3.29,4.54-6.35,6.51-9.09l.19-.27.19.27,6.42,9.16h-.24l2.78-3.33.74-.86C653.11,425.74,653.21,425.65,653.22,425.66Z" style="fill:#f5f5f5"></path><path d="M654.7,413.77c0,.16-11.47.29-25.62.29s-25.63-.13-25.63-.29,11.47-.28,25.63-.28S654.7,413.61,654.7,413.77Z" style="fill:#f5f5f5"></path><path d="M657,452.57c0,.16-12.47.29-27.85.29s-27.86-.13-27.86-.29,12.47-.28,27.86-.28S657,452.41,657,452.57Z" style="fill:#f5f5f5"></path><rect x="154.6" y="126.01" width="100.99" height="80.74" transform="translate(-35.3 57.03) rotate(-14.59)" style="fill:#fafafa"></rect><path d="M243.8,114.59l-.47.14-1.37.37-5.3,1.41-20,5.28-70.54,18.49.19-.32,20.36,78.13h0l-.35-.2,97.75-25.4-.18.3-14.62-56.7c-1.75-6.83-3.13-12.19-4.07-15.86-.46-1.82-.81-3.22-1.06-4.18s-.35-1.46-.35-1.46.14.46.39,1.39.62,2.33,1.1,4.13c1,3.65,2.38,9,4.17,15.77l14.91,56.79.07.23-.24.07-97.72,25.48-.29.08-.07-.29h0c-7.34-28.21-14.27-54.87-20.31-78.13l-.07-.26.26-.06,70.77-18.29,20-5.12L242,115l1.34-.34Z" style="fill:#e0e0e0"></path><rect x="158.09" y="131.11" width="93.9" height="70.58" transform="translate(-35.3 57.01) rotate(-14.59)" style="fill:#ebebeb"></rect><polygon points="168.49 212.37 189.18 161.66 215.75 183.1 225.39 165.43 259.36 188.72 168.49 212.37" style="fill:#e0e0e0"></polygon><path d="M215.83,149.17a7.39,7.39,0,1,1-9-5.3A7.38,7.38,0,0,1,215.83,149.17Z" style="fill:#e0e0e0"></path><rect x="198.76" y="52.23" width="152.61" height="122" transform="translate(-7.28 19.62) rotate(-4.03)" style="fill:#fafafa"></rect><path d="M346.89,47s-.26,0-.74.08l-2.13.17-8.27.63-31.16,2.3-109.9,8,.37-.42c2.56,36.22,5.5,77.74,8.62,121.68h0l-.47-.41,152.23-10.65-.34.39c-2.5-36.65-4.58-67-6-88.28-.71-10.63-1.26-19-1.65-24.67-.18-2.84-.32-5-.41-6.52s-.12-2.26-.12-2.26.08.73.19,2.18.28,3.63.5,6.44c.42,5.68,1,14,1.83,24.58,1.54,21.29,3.76,51.74,6.42,88.48l0,.37-.37,0L203.27,179.89l-.44,0,0-.44v0c-3.08-43.94-6-85.46-8.53-121.69l0-.39.39,0,110.19-7.57,31.08-2.09,8.2-.53,2.09-.12Z" style="fill:#e0e0e0"></path><rect x="204.02" y="59.92" width="141.88" height="106.64" transform="translate(-7.28 19.61) rotate(-4.03)" style="fill:#ebebeb"></rect><polygon points="207.95 171.41 252.72 101.81 286.26 141.02 305.47 117.44 349.48 161.44 207.95 171.41" style="fill:#e0e0e0"></polygon><path d="M295.77,90.63a11.17,11.17,0,1,1-11.93-10.36A11.17,11.17,0,0,1,295.77,90.63Z" style="fill:#e0e0e0"></path><path d="M233,279.39l-4,.64L218.5,269.4l-1.28-7.89s-6.17.62-3.78,10.83,1.19,7.71,1.19,7.71-13,2.15-13.86,3.45c-.65.95,1.08,13.89,2.07,20.9a7.67,7.67,0,0,0,6.6,6.76,6.11,6.11,0,0,0,1.42,0c3.24-.52,19.34-5.83,19.34-5.83l6.83-1.1Z" style="fill:#ebebeb"></path><polygon points="243.99 275.39 245.93 302.82 239.16 303.92 234.87 277.43 243.99 275.39" style="fill:#ebebeb"></polygon><path d="M479.11,91.26a13.39,13.39,0,0,0,9.86-11C490.18,73,485.62,66.18,478.79,65s-13.37,3.84-14.58,11.13a13.36,13.36,0,0,0,5.89,13.62c-19.53-.22-22,20.64-22,20.64L493.12,118S497.55,97.18,479.11,91.26Z" style="fill:#ebebeb"></path><path d="M578.06,203.92a7.21,7.21,0,1,1-7.21-7.2A7.19,7.19,0,0,1,578.06,203.92Z" style="fill:#ebebeb"></path><circle cx="591.02" cy="189.49" r="7.2" transform="translate(163.46 639.38) rotate(-64.23)" style="fill:#ebebeb"></circle><ellipse cx="591.06" cy="220.03" rx="7.2" ry="7.84" transform="matrix(1, 0, 0, 1, -0.29, 0.79)" style="fill:#ebebeb"></ellipse><path d="M588.94,219.1c-.31.46-5.1-2.26-10.7-6.07s-9.9-7.27-9.59-7.72,5.1,2.27,10.7,6.08S589.25,218.65,588.94,219.1Z" style="fill:#ebebeb"></path><path d="M589.51,189c.34.43-3.36,3.86-8.26,7.65s-9.14,6.52-9.48,6.09,3.37-3.86,8.27-7.66S589.18,188.55,589.51,189Z" style="fill:#ebebeb"></path><path d="M617.18,98.28a18.62,18.62,0,0,0-7.37-8.34,17.8,17.8,0,0,0-10.5-2.9,14.61,14.61,0,0,0-10.17,5.25,14.45,14.45,0,0,0-3,6.26,14.36,14.36,0,0,0-16.8-2.25,17.86,17.86,0,0,0-7.32,8.07,18.52,18.52,0,0,0-1.76,11,22.56,22.56,0,0,0,6.55,12.54c3.66,3.39,8.61,5.54,13.42,6.83,8.1,2.15,18.69,4.72,18.69,4.72s6-8,11.7-14.12c3.39-3.66,6.41-8.13,7.69-13A22.55,22.55,0,0,0,617.18,98.28Z" style="fill:#ebebeb"></path><circle cx="113.59" cy="253.75" r="30.56" style="fill:#ebebeb"></circle><path d="M141.77,248.53c.52,0,1.09.77,1.52,2.35a18.43,18.43,0,0,1,.24,6.83,27.09,27.09,0,0,1-3.3,9.73,28.66,28.66,0,0,1-20.39,14.37,27.27,27.27,0,0,1-10.28-.17,18.38,18.38,0,0,1-6.35-2.53c-1.34-.94-1.9-1.74-1.7-2.22.44-1.06,3.7-.47,8.55-.72a32.9,32.9,0,0,0,17.15-5.56,32.77,32.77,0,0,0,11-14.27C140.09,251.86,140.63,248.59,141.77,248.53Z" style="fill:#e0e0e0"></path><path d="M115,261.16a13.1,13.1,0,0,0,8.42-3.77,7.61,7.61,0,0,0,2.21-5.16,4.05,4.05,0,0,0-3.31-3.76,5.74,5.74,0,0,0-3.59,1.17,11.38,11.38,0,0,1-3.4,1.77c-1.79.4-3.63-.31-5.32-1s-3.51-1.47-5.32-1.14a3.48,3.48,0,0,0-2.91,2s-.91,2,.92,4.65A13.64,13.64,0,0,0,115,261.16Z" style="fill:#fff"></path><path d="M101.1,243.78a2.75,2.75,0,0,0-2.78-1.46,1.74,1.74,0,0,0-.94.32h0a3,3,0,0,0-1.12,2.87,2.69,2.69,0,0,0,3.41,1.93A2.76,2.76,0,0,0,101.1,243.78Z" style="fill:#fff"></path><path d="M130.18,243.87a2.77,2.77,0,0,0-2.78-1.46,1.86,1.86,0,0,0-1,.32l0,0h0a3,3,0,0,0-1.12,2.87,2.67,2.67,0,0,0,3.4,1.93A2.77,2.77,0,0,0,130.18,243.87Z" style="fill:#fff"></path></g><g id="background-simple"><path d="M548.25,90.06,546,86.42c-18.62-30.68-52.29-49.18-87.78-46.94a93.11,93.11,0,0,0-13.59,1.87c-32.27,6.91-60.35,31.31-72,62.57-6.84,18.38-8.76,39.54-21.75,54.13-16.9,19-45.6,19.59-70.84,18.8s-53.95-.12-70.78,19c-10.53,11.94-13.88,28.91-13,44.9,2.25,42.33,31.74,80.18,69.26,99s81.68,20.49,122.73,12.22c57.51-11.6,112.21-43.43,145.08-92.61S574.55,143.14,548.25,90.06Z" style="fill:#ebebeb"></path><circle cx="268.99" cy="100.46" r="28.11" transform="translate(7.75 219.63) rotate(-45)" style="fill:#ebebeb"></circle></g><g id="Plants"><path d="M127,370.64c-.09.11-.84-.34-1.68-1s-1.44-1.3-1.35-1.41.84.34,1.68,1S127.06,370.53,127,370.64Z" style="fill:#263238"></path><path d="M149.77,336.56c.14-3.18.23-6.45-.78-9.47s-3.34-5.81-6.46-6.45c-3.56-.74-7.21,1.51-9.2,4.55s-2.69,6.73-3.28,10.32a364.29,364.29,0,0,0-4.46,74.93l14.57,2C146.56,386.33,148.61,363.46,149.77,336.56Z" style="fill:#455a64"></path><path d="M140.51,320.52s0,.09-.07.24-.14.39-.24.66c-.23.61-.56,1.45-1,2.52-.2.54-.47,1.14-.69,1.82s-.45,1.42-.71,2.2-.52,1.64-.81,2.54-.49,1.88-.75,2.89a126,126,0,0,0-2.82,14.42c-.79,5.48-1.31,11.56-1.71,17.93-.75,12.77-.86,24.37-1.19,32.75-.16,4.19-.3,7.58-.46,9.92-.08,1.14-.14,2-.19,2.7,0,.28,0,.51-.06.7a1.45,1.45,0,0,1,0,.23.64.64,0,0,1,0-.24c0-.19,0-.42,0-.7,0-.66,0-1.56.08-2.7.1-2.34.19-5.73.3-9.92.23-8.38.29-20,1-32.77.4-6.39.94-12.47,1.75-18a121.78,121.78,0,0,1,2.94-14.45l.79-2.89c.3-.9.59-1.74.86-2.54s.52-1.52.75-2.2.52-1.26.73-1.81l1.07-2.48.29-.64A.7.7,0,0,1,140.51,320.52Z" style="fill:#263238"></path><path d="M141.86,320.53a10.56,10.56,0,0,1,1.78,3A22.32,22.32,0,0,1,145,333c-.39,8-1.11,19.15-2.07,31.4s-2,23.33-2.89,31.34c-.43,4-.8,7.24-1.08,9.48-.13,1.08-.24,1.94-.33,2.57l-.09.67a.66.66,0,0,1-.06.22.68.68,0,0,1,0-.23c0-.18,0-.4.05-.67.06-.64.13-1.5.23-2.58.22-2.29.53-5.52.91-9.5.77-8,1.78-19.09,2.74-31.34S144.12,341,144.6,333a22.71,22.71,0,0,0-1.15-9.34A18.91,18.91,0,0,0,141.86,320.53Z" style="fill:#263238"></path><path d="M152,358.25a7.81,7.81,0,0,1-2.77-.71,8.16,8.16,0,0,1-2.58-1.2,7.79,7.79,0,0,1,2.76.71A8.28,8.28,0,0,1,152,358.25Z" style="fill:#263238"></path><path d="M153.72,343.4a17.57,17.57,0,0,1-5.47,2.45,17.57,17.57,0,0,1,5.47-2.45Z" style="fill:#263238"></path><path d="M152.81,331.28a4.79,4.79,0,0,1-2.17.11,4.73,4.73,0,0,1-2.14-.41,4.79,4.79,0,0,1,2.17-.11A4.58,4.58,0,0,1,152.81,331.28Z" style="fill:#263238"></path><path d="M137.77,323.51c-.12.08-.76-.72-1.42-1.78a5.08,5.08,0,0,1-1-2.05c.12-.08.76.72,1.43,1.78A5.14,5.14,0,0,1,137.77,323.51Z" style="fill:#263238"></path><path d="M132.8,330.84a4.4,4.4,0,0,1-2.07.22c-1.14,0-2.06-.16-2.06-.31a8.49,8.49,0,0,1,4.13.09Z" style="fill:#263238"></path><path d="M129.23,345.51a5.22,5.22,0,0,1-2.18-.6c-1.15-.46-2-1-2-1.08a5,5,0,0,1,2.18.6C128.4,344.89,129.29,345.37,129.23,345.51Z" style="fill:#263238"></path><path d="M128.85,357.84c0,.14-.8.44-1.85.66s-1.94.28-2,.14.8-.43,1.85-.65S128.82,357.7,128.85,357.84Z" style="fill:#263238"></path><path d="M127.17,378c0,.14-.85.42-2,.62a4.23,4.23,0,0,1-2.06.1c0-.14.86-.41,2-.61A4.3,4.3,0,0,1,127.17,378Z" style="fill:#263238"></path><path d="M126.06,389.16c.06.13-.67.65-1.64,1.16s-1.82.83-1.89.7.67-.64,1.64-1.16S126,389,126.06,389.16Z" style="fill:#263238"></path><path d="M135.15,401.8c-.12.07-.76-.81-1.43-2a6.16,6.16,0,0,1-1-2.24c.13-.07.77.82,1.43,2A5.7,5.7,0,0,1,135.15,401.8Z" style="fill:#263238"></path><path d="M137.78,380.79c.1.11-.62,1-1.6,1.93s-1.85,1.66-2,1.55.62-1,1.6-1.92S137.68,380.69,137.78,380.79Z" style="fill:#263238"></path><path d="M137.2,369.77c-.11.1-.77-.45-1.48-1.21s-1.2-1.47-1.1-1.57.77.45,1.48,1.21S137.3,369.67,137.2,369.77Z" style="fill:#263238"></path><path d="M139,355.68c.11.1-.49.94-1.33,1.88s-1.61,1.62-1.71,1.52.48-.93,1.32-1.87S138.89,355.59,139,355.68Z" style="fill:#263238"></path><path d="M140,345.46c-.11.11-.94-.55-1.86-1.45s-1.59-1.73-1.49-1.83.93.55,1.86,1.46S140.12,345.36,140,345.46Z" style="fill:#263238"></path><path d="M142,331.65a5.07,5.07,0,0,1-.93,2.06c-.64,1.07-1.25,1.88-1.38,1.81a5.25,5.25,0,0,1,.93-2.07C141.27,332.38,141.89,331.57,142,331.65Z" style="fill:#263238"></path><path d="M145.76,318.84c.13.07-.24,1-.82,2.07s-1.15,1.89-1.28,1.82.24-1,.82-2.07S145.64,318.77,145.76,318.84Z" style="fill:#263238"></path><path d="M150,324.66c.07.13-.52.53-1.3.91s-1.46.57-1.53.44.53-.54,1.31-.91S150,324.53,150,324.66Z" style="fill:#263238"></path><path d="M150.13,370.64a5.75,5.75,0,0,1-2.85-.69,5.94,5.94,0,0,1-2.48-1.58,15.53,15.53,0,0,1,2.68,1.1A15.73,15.73,0,0,1,150.13,370.64Z" style="fill:#263238"></path><path d="M148.39,380.38a4.42,4.42,0,0,1-2,.65,4.27,4.27,0,0,1-2,.13c0-.14.85-.43,2-.64A4.25,4.25,0,0,1,148.39,380.38Z" style="fill:#263238"></path><path d="M146.25,397.08a5.55,5.55,0,0,1-2.22-1.94,5.73,5.73,0,0,1-1.4-2.61,16.36,16.36,0,0,1,1.8,2.28A18.28,18.28,0,0,1,146.25,397.08Z" style="fill:#263238"></path><path d="M122.82,404.72c-.1-.11.5-.77,1.32-1.47s1.57-1.19,1.66-1.08-.5.77-1.32,1.47S122.91,404.83,122.82,404.72Z" style="fill:#263238"></path><path d="M116.08,368.27c-1-3-2.73-6.41-5.84-6.46a5.17,5.17,0,0,0-4.37,2.93,10.82,10.82,0,0,0-1.18,5.36,140.06,140.06,0,0,0,6.68,38.82h11.38A135,135,0,0,0,116.08,368.27Z" style="fill:#455a64"></path><path d="M95.5,349.62c-1.59-6.36-6.33-9.79-11.84-10.11-5,.88-7,5.83-7.58,10.9s1,10.12,2.53,15q7.49,23.42,15,46.85l14.16-1.55C103.27,389.78,100.69,370.38,95.5,349.62Z" style="fill:#455a64"></path><path d="M110.24,361.81a12.86,12.86,0,0,0-1,1.61,10.64,10.64,0,0,0-.53,5c.22,2.17.47,4.77.83,7.62s.88,6,1.52,9.26c1.29,6.54,2.74,12.41,3.66,16.68.47,2.14.82,3.88,1,5.08.09.55.17,1,.24,1.39a2.26,2.26,0,0,1,0,.49,1.9,1.9,0,0,1-.16-.47c-.09-.37-.2-.82-.33-1.37-.3-1.27-.71-3-1.2-5-1-4.25-2.52-10.11-3.81-16.67-.64-3.27-1.14-6.42-1.49-9.3-.18-1.43-.3-2.8-.42-4.09s-.24-2.46-.3-3.56a10.35,10.35,0,0,1,.72-5.14A4.57,4.57,0,0,1,110.24,361.81Z" style="fill:#263238"></path><path d="M83.86,339.1a20.65,20.65,0,0,0-1.71,2.3A16.15,16.15,0,0,0,80,348.81a34.3,34.3,0,0,0,1.76,11.4c1.24,4.21,2.6,8.83,4,13.69L93,398.81l2.14,7.56c.23.86.42,1.54.56,2.06a5.78,5.78,0,0,1,.16.73,3.1,3.1,0,0,1-.26-.7c-.17-.51-.38-1.19-.65-2l-2.3-7.52c-1.91-6.41-4.51-15.18-7.39-24.86-1.42-4.86-2.77-9.49-4-13.71a33.9,33.9,0,0,1-1.65-11.55A15.67,15.67,0,0,1,82,341.3,8.6,8.6,0,0,1,83.86,339.1Z" style="fill:#263238"></path><path d="M104.66,409.19a3.43,3.43,0,0,1-.32-.68c-.19-.45-.49-1.11-.81-2-.67-1.74-1.54-4.3-2.43-7.52s-1.79-7.09-2.64-11.42-1.72-9.09-2.67-14.08-2.08-9.7-3.35-13.91a76.81,76.81,0,0,0-4.13-10.9,57.41,57.41,0,0,0-3.81-6.88c-.49-.8-.93-1.37-1.2-1.78a3.6,3.6,0,0,1-.39-.64,4.54,4.54,0,0,1,.48.58c.29.39.76.95,1.27,1.73a50.11,50.11,0,0,1,4,6.83,73.16,73.16,0,0,1,4.26,10.92,139.92,139.92,0,0,1,3.4,13.95c.94,5,1.82,9.76,2.63,14.09s1.67,8.2,2.52,11.42,1.66,5.78,2.27,7.54c.29.89.56,1.56.72,2A3.81,3.81,0,0,1,104.66,409.19Z" style="fill:#263238"></path><path d="M78.86,363.06c0,.14-.73.45-1.72.68s-1.81.32-1.84.18.74-.44,1.72-.68S78.83,362.92,78.86,363.06Z" style="fill:#263238"></path><path d="M77.36,353.4a7.19,7.19,0,0,1-2.39.25,6.85,6.85,0,0,1-2.4-.07,5,5,0,0,1,2.38-.45A4.91,4.91,0,0,1,77.36,353.4Z" style="fill:#263238"></path><path d="M79,344.57c-.1.11-.86-.39-1.72-1.11s-1.47-1.41-1.38-1.52.86.39,1.72,1.12S79.05,344.46,79,344.57Z" style="fill:#263238"></path><path d="M83.28,336.4c.14,0,.1.72.08,1.56s0,1.52-.17,1.54-.38-.67-.35-1.56S83.14,336.37,83.28,336.4Z" style="fill:#263238"></path><path d="M92.1,340.25c.12.08-.23.78-.77,1.56s-1.08,1.34-1.2,1.26.23-.78.77-1.56S92,340.17,92.1,340.25Z" style="fill:#263238"></path><path d="M97.83,350.2c0,.13-.68.56-1.64.95s-1.78.6-1.83.47.68-.56,1.63-.95S97.77,350.07,97.83,350.2Z" style="fill:#263238"></path><path d="M101.3,360.44a6.49,6.49,0,0,1-4.69,1.06,9.13,9.13,0,0,1,2.33-.59A8.89,8.89,0,0,1,101.3,360.44Z" style="fill:#263238"></path><path d="M85.35,357.53c-.14,0,0-.75.22-1.58s.58-1.47.72-1.42,0,.75-.22,1.58S85.49,357.57,85.35,357.53Z" style="fill:#263238"></path><path d="M87.58,370.38c-.14-.06.15-1,.64-2.13s1-2,1.11-1.92-.15,1-.64,2.13S87.71,370.44,87.58,370.38Z" style="fill:#263238"></path><path d="M82.08,373.9c-.06.14-1-.11-2-.45s-2-.65-1.93-.79a3.83,3.83,0,0,1,2.09.3C81.31,373.3,82.13,373.77,82.08,373.9Z" style="fill:#263238"></path><path d="M85.25,384.38c.08.12-.52.69-1.36,1.29s-1.57,1-1.65.86.52-.7,1.35-1.29S85.16,384.26,85.25,384.38Z" style="fill:#263238"></path><path d="M87.79,394.83c0,.14-.72.44-1.68.67s-1.76.31-1.79.17S85,395.23,86,395,87.76,394.69,87.79,394.83Z" style="fill:#263238"></path><path d="M101.58,369.17c.08.12-.57.63-1.5,1s-1.75.39-1.78.25.71-.4,1.6-.74S101.51,369,101.58,369.17Z" style="fill:#263238"></path><path d="M103.55,385.42c-.06.13-.82-.1-1.7-.52s-1.55-.85-1.49-1,.83.1,1.71.51S103.61,385.29,103.55,385.42Z" style="fill:#263238"></path><path d="M107,397.05a10.44,10.44,0,0,1-4.32-1.69,5.18,5.18,0,0,1,2.26.6C106.16,396.43,107.09,396.92,107,397.05Z" style="fill:#263238"></path><path d="M88.35,406.16c-.07-.13.85-.75,1.93-1.6s1.9-1.6,2-1.5-.57,1-1.69,1.91A4.67,4.67,0,0,1,88.35,406.16Z" style="fill:#263238"></path><path d="M97.54,400.25c-.14,0-.34-.77-.7-1.68s-.72-1.62-.6-1.71.71.54,1.09,1.53S97.68,400.24,97.54,400.25Z" style="fill:#263238"></path><path d="M95.11,386.26c-.09.12-.68-.17-1.33-.63s-1.11-.94-1-1.06.67.17,1.32.63S95.19,386.14,95.11,386.26Z" style="fill:#263238"></path><path d="M116.54,364.34c.09.11-.49.69-1.29,1.27s-1.52,1-1.6.86.49-.68,1.29-1.27S116.46,364.22,116.54,364.34Z" style="fill:#263238"></path><path d="M119.77,373.17c0,.14-.89.33-2,.21s-2-.5-1.92-.63.91,0,2,.11S119.76,373,119.77,373.17Z" style="fill:#263238"></path><path d="M105.89,375.15c0,.14-.81.44-1.9.51s-1.95-.11-1.94-.25.87-.2,1.91-.27S105.86,375,105.89,375.15Z" style="fill:#263238"></path><path d="M107.08,366.8c0,.14-.86.16-1.79-.27s-1.46-1.08-1.36-1.18.73.33,1.58.71S107.1,366.65,107.08,366.8Z" style="fill:#263238"></path><path d="M121,382.65c-.08.12-1-.28-1.94-.91s-1.74-1.23-1.66-1.35.94.28,1.93.91S121,382.53,121,382.65Z" style="fill:#263238"></path><rect x="80.76" y="407.44" width="74.09" height="13.13" style="fill:#FF725E"></rect><polygon points="86.29 417.96 95.3 457.21 139.46 457.21 149.32 417.96 86.29 417.96" style="fill:#FF725E"></polygon><path d="M154.81,420.59c0,.14-16.71.26-37.32.26s-37.33-.12-37.33-.26,16.71-.26,37.33-.26S154.81,420.44,154.81,420.59Z" style="fill:#263238"></path><path d="M113.61,375.44c-.13.07-.63-.52-1.14-1.32s-.81-1.52-.68-1.59.62.51,1.13,1.31S113.73,375.36,113.61,375.44Z" style="fill:#263238"></path><path d="M113.63,386a4.24,4.24,0,0,1,.39-2c.35-1.06.75-1.88.88-1.83s0,.94-.39,2S113.77,386.05,113.63,386Z" style="fill:#263238"></path><path d="M117.25,397.09c-.13.07-.68-.82-1.24-2a5.35,5.35,0,0,1-.76-2.2c.13-.06.68.82,1.23,2A5.32,5.32,0,0,1,117.25,397.09Z" style="fill:#263238"></path><path d="M109.42,406c-.1-.1.34-.78,1-1.54s1.27-1.28,1.38-1.19-.33.78-1,1.54S109.53,406.11,109.42,406Z" style="fill:#263238"></path><path d="M107.78,389.82c0,.14-.74.13-1.59,0s-1.53-.39-1.5-.53.73-.13,1.59,0S107.81,389.67,107.78,389.82Z" style="fill:#263238"></path><path d="M659.37,355.38a9.26,9.26,0,0,1-4.82-4.8c-.38-.88-.39-2.25.55-2.45.58-.12,1.11.33,1.53.74l4.2,4.17a8.8,8.8,0,0,1,.29-6.83c.36-.76,1.1-1.56,1.89-1.27.62.22.82,1,.93,1.64l1,6a14.54,14.54,0,0,1,3.3-6.31c.58-.65,1.52-1.29,2.26-.82s.62,1.36.48,2.11a29.27,29.27,0,0,1-1.58,5.52,10.46,10.46,0,0,1,6.54-2.59,2.28,2.28,0,0,1,1.93.63c.65.82.08,2-.61,2.82-2.06,2.33-6.89,2.93-10,2.73" style="fill:#FF725E"></path><path d="M678,360.34c-7.52-5.92-20.75-6.76-29.46-2.77-9.84,4.5-16.28,15-17.24,25-.91,9.54,3.68,19.21,7.59,27.95l38,.18c4.56-7.53,9.31-16,9.62-24.77S684.88,365.79,678,360.34Z" style="fill:#455a64"></path><path d="M660.91,355.11s0,0-.17.05l-.49.12-.81.17a9,9,0,0,0-1.09.29,21.48,21.48,0,0,0-6.44,3.09,28.8,28.8,0,0,0-7.33,7.61,44.66,44.66,0,0,0-3.08,5.48,48.12,48.12,0,0,0-2.36,6.31,29.05,29.05,0,0,0-.64,12.89,55.05,55.05,0,0,0,2.87,10.25c1,2.85,2,5.13,2.61,6.71.3.77.54,1.38.71,1.83.07.19.13.35.18.47s0,.17,0,.17l-.08-.15c-.05-.13-.12-.28-.21-.47-.18-.44-.44-1-.77-1.8-.66-1.57-1.63-3.83-2.72-6.67a54.5,54.5,0,0,1-3-10.29,29,29,0,0,1,.63-13,47.5,47.5,0,0,1,2.39-6.36,43.2,43.2,0,0,1,3.11-5.51,28.83,28.83,0,0,1,7.47-7.64,20.76,20.76,0,0,1,6.54-3,6.23,6.23,0,0,1,1.11-.26l.81-.14.51-.08Z" style="fill:#263238"></path><path d="M672,410.4a2.89,2.89,0,0,1,.17-.57l.57-1.6c.5-1.4,1.23-3.41,2.08-5.91s1.81-5.49,2.64-8.88a58.67,58.67,0,0,0,1.69-11.19A38.7,38.7,0,0,0,678,371a30.65,30.65,0,0,0-3.57-8.48,24.82,24.82,0,0,0-3.89-4.86c-.5-.53-1-.87-1.25-1.14a3.43,3.43,0,0,1-.43-.41,5.51,5.51,0,0,1,.47.36,15.65,15.65,0,0,1,1.31,1.09,23.61,23.61,0,0,1,4,4.82A30.22,30.22,0,0,1,678.3,371a38.6,38.6,0,0,1,1.2,11.32,57.56,57.56,0,0,1-1.73,11.25c-.85,3.4-1.84,6.39-2.72,8.89s-1.65,4.49-2.19,5.86c-.26.67-.48,1.19-.63,1.59A4.85,4.85,0,0,1,672,410.4Z" style="fill:#263238"></path><path d="M664.64,355.33a3.42,3.42,0,0,1-.15.56c-.12.39-.28.92-.49,1.57s-.49,1.52-.77,2.5-.64,2.08-1,3.31c-.72,2.46-1.46,5.42-2.22,8.72s-1.43,6.95-2,10.81-.93,7.57-1.17,10.95c-.08,1.69-.19,3.29-.21,4.79,0,.76,0,1.48,0,2.18s0,1.37,0,2c0,1.28,0,2.44.08,3.45s.07,1.89.13,2.61.07,1.23.1,1.64,0,.58,0,.58a3,3,0,0,1-.09-.57c0-.41-.09-1-.16-1.64s-.15-1.59-.19-2.61-.13-2.17-.14-3.46q0-1,0-2c0-.7,0-1.43,0-2.18,0-1.51.11-3.12.18-4.81.22-3.39.58-7.1,1.15-11s1.3-7.53,2-10.84,1.55-6.25,2.29-8.71c.35-1.23.72-2.33,1-3.3s.58-1.8.83-2.48.42-1.17.55-1.55A5.57,5.57,0,0,1,664.64,355.33Z" style="fill:#263238"></path><path d="M632.47,385.61a12.28,12.28,0,0,1-2.6,1.37,11.87,11.87,0,0,1-2.74,1.06,24.1,24.1,0,0,1,5.34-2.43Z" style="fill:#263238"></path><path d="M633.68,374.68a14.19,14.19,0,0,1-2.86-1.44,14.78,14.78,0,0,1-2.67-1.75,14,14,0,0,1,2.85,1.44A14.66,14.66,0,0,1,633.68,374.68Z" style="fill:#263238"></path><path d="M640.61,365.66a9.33,9.33,0,0,1-1.25-2.23,9.15,9.15,0,0,1-.94-2.39,9.49,9.49,0,0,1,1.26,2.24A9.34,9.34,0,0,1,640.61,365.66Z" style="fill:#263238"></path><path d="M650.14,357.14a11.71,11.71,0,0,1-2.47-3.33,6.31,6.31,0,0,1,1.38,1.56A6.17,6.17,0,0,1,650.14,357.14Z" style="fill:#263238"></path><path d="M636.78,398.94a13.14,13.14,0,0,1-2.66,1.65,14.66,14.66,0,0,1-2.83,1.33,13.14,13.14,0,0,1,2.66-1.65A14.36,14.36,0,0,1,636.78,398.94Z" style="fill:#263238"></path><path d="M648.13,392.3a9.82,9.82,0,0,1-2.43-1.16,10.39,10.39,0,0,1-2.25-1.46,10.38,10.38,0,0,1,2.43,1.15A10.64,10.64,0,0,1,648.13,392.3Z" style="fill:#263238"></path><path d="M651.29,377.12a7,7,0,0,1-2.34,1.25,7.29,7.29,0,0,1-2.56.67,15.53,15.53,0,0,1,2.43-1A16.87,16.87,0,0,1,651.29,377.12Z" style="fill:#263238"></path><path d="M654.9,365.68a6.9,6.9,0,0,1-1.36-3.92,10.11,10.11,0,0,1,.71,1.95A10.29,10.29,0,0,1,654.9,365.68Z" style="fill:#263238"></path><path d="M646.84,407.2a10.83,10.83,0,0,1,1-2.56,10.63,10.63,0,0,1,1.35-2.39,20.87,20.87,0,0,1-2.37,4.95Z" style="fill:#263238"></path><path d="M666,403.12a8,8,0,0,1-2.22-2,8.09,8.09,0,0,1-1.62-2.49,27.62,27.62,0,0,1,1.9,2.26C665.11,402.14,666.07,403,666,403.12Z" style="fill:#263238"></path><path d="M672.64,386.41a13.56,13.56,0,0,1-2.65,1.73,14,14,0,0,1-2.83,1.41,14.22,14.22,0,0,1,2.65-1.72A14.66,14.66,0,0,1,672.64,386.41Z" style="fill:#263238"></path><path d="M668.18,376.13a25.42,25.42,0,0,1,4.35-4.11,12.2,12.2,0,0,1-2.06,2.19A13.25,13.25,0,0,1,668.18,376.13Z" style="fill:#263238"></path><path d="M668.38,365.23a9.64,9.64,0,0,1-2.1-1.48,9.43,9.43,0,0,1-1.87-1.75,9.91,9.91,0,0,1,2.1,1.48A9.43,9.43,0,0,1,668.38,365.23Z" style="fill:#263238"></path><path d="M681.05,358a9.67,9.67,0,0,1-2.09,1.57,10,10,0,0,1-2.27,1.27,9.15,9.15,0,0,1,2.08-1.57A9.69,9.69,0,0,1,681.05,358Z" style="fill:#263238"></path><path d="M685.92,368a6.62,6.62,0,0,1-2.17.33,6.77,6.77,0,0,1-2.2,0,7,7,0,0,1,2.18-.34A6.82,6.82,0,0,1,685.92,368Z" style="fill:#263238"></path><path d="M689.11,379.83a11.82,11.82,0,0,1-2.77-.09,10.68,10.68,0,0,1-2.73-.45,11.82,11.82,0,0,1,2.77.09A10.79,10.79,0,0,1,689.11,379.83Z" style="fill:#263238"></path><path d="M687.53,395.07a32.9,32.9,0,0,1-4.84-4.89,32.9,32.9,0,0,1,4.84,4.89Z" style="fill:#263238"></path><path d="M683.37,406.81a11.87,11.87,0,0,1-2.57-2.49,11.7,11.7,0,0,1-2-3c.08-.06,1,1.24,2.26,2.74S683.45,406.73,683.37,406.81Z" style="fill:#263238"></path><g style="opacity:0.30000000000000004"><path d="M668.84,356.14c.06-.09.81.27,2.07,1.12a21.87,21.87,0,0,1,4.58,4.5,25.51,25.51,0,0,1,4.2,8.59,40.49,40.49,0,0,1,1.41,11.56,48.75,48.75,0,0,1-1.55,11.52,61.57,61.57,0,0,1-3,8.95c-2.12,4.94-3.91,7.74-4.1,7.64s1.13-3.12,2.92-8.1a61.91,61.91,0,0,0,4-20,42.73,42.73,0,0,0-1.21-11.11,26.75,26.75,0,0,0-3.64-8.29,28.09,28.09,0,0,0-4-4.69C669.38,356.81,668.76,356.25,668.84,356.14Z"></path></g><g style="opacity:0.30000000000000004"><path d="M664.37,354.77c.24.06-.25,3.19-1.19,8.22s-2.3,11.95-3.49,19.63c-.57,3.84-1,7.51-1.37,10.86-.14,1.67-.31,3.26-.39,4.75s-.19,2.89-.24,4.16c-.23,5.08-.18,8.25-.46,8.26s-.71-3.13-.81-8.28c0-1.29,0-2.7,0-4.21s.14-3.12.24-4.82c.25-3.4.66-7.11,1.25-11,1.19-7.75,2.77-14.67,4-19.63S664.13,354.72,664.37,354.77Z"></path></g><g style="opacity:0.30000000000000004"><path d="M659.91,354.37c0,.13-.84.47-2.37,1.17a35.91,35.91,0,0,0-6.12,3.51,31.19,31.19,0,0,0-13.13,25.32,40.2,40.2,0,0,0,.46,6.12,63.58,63.58,0,0,0,2.5,10.19c.93,2.87,1.79,5.16,2.35,6.76a8,8,0,0,1,.73,2.55c-.11.05-.6-.76-1.37-2.28s-1.8-3.75-2.9-6.6a55.51,55.51,0,0,1-2.94-10.36,40.44,40.44,0,0,1-.59-6.39,33.62,33.62,0,0,1,.72-6.89,31.57,31.57,0,0,1,5.52-12.09,30.29,30.29,0,0,1,7.94-7.38,27.58,27.58,0,0,1,6.58-3.11A6.53,6.53,0,0,1,659.91,354.37Z"></path></g><rect x="621.08" y="410.27" width="70.34" height="12.47" style="fill:#FF725E"></rect><polygon points="626.33 420.26 634.89 457.52 676.81 457.52 686.17 420.26 626.33 420.26" style="fill:#FF725E"></polygon><path d="M691.38,422.75c0,.14-15.87.25-35.43.25s-35.44-.11-35.44-.25,15.86-.25,35.44-.25S691.38,422.61,691.38,422.75Z" style="fill:#263238"></path></g><g id="Floor"><path d="M701,456.8c0,.14-146,.26-326,.26s-326-.12-326-.26,146-.26,326-.26S701,456.65,701,456.8Z" style="fill:#263238"></path></g><g id="Character"><path d="M481.43,205.09h0a3,3,0,0,1,3.39.32L523,236.28,517.14,263,479,231.58a4.49,4.49,0,0,1-1.6-4l2.41-20.17A3.06,3.06,0,0,1,481.43,205.09Z" style="fill:#263238"></path><path d="M472.73,294.92l42.61-35.73,14.45,5.91s-47.27,74.43-52,77.35-19-2.26-19-2.26Z" style="fill:#ffbe9d"></path><path d="M497.37,237.28c-4.12-.3-3.1-5.91-3.1-5.91l12.88-1.44-9.88-1.77a3.72,3.72,0,0,1-1.76-5.15l14.83,1.76s9.19,3.31,12.14,4.42,2.62,6.24,2.62,6.24c2.29.67,3.09,3.93,2.8,4.69S530.83,260,530.83,260l-1,5.07-14.18-4.88c-.61-1.45-.1-4.36-.1-4.36l-4.51-.53s-8-.17-8.21-2.34a2.92,2.92,0,0,1,2.45-3.31,19.47,19.47,0,0,1-7.62.49c-4.49-.54-3.51-3.78-3.51-3.78l11.44-3s6.4-.63,8.72-.15A2.21,2.21,0,0,0,517,241.6l-6.87-3.79S501.49,237.57,497.37,237.28Z" style="fill:#ffbe9d"></path><path d="M518.62,249.14a6.28,6.28,0,0,1-2,.28c-1.22.09-2.9.11-4.75.09-3.7-.07-6.66.31-6.68.17a6.55,6.55,0,0,1,1.93-.43,34.83,34.83,0,0,1,4.75-.26l4.74.06A8.09,8.09,0,0,1,518.62,249.14Z" style="fill:#eb996e"></path><path d="M522.57,254.84a9.15,9.15,0,0,1-3.5.77,20.32,20.32,0,0,1-3.56.25,9,9,0,0,1,3.51-.77A19.16,19.16,0,0,1,522.57,254.84Z" style="fill:#eb996e"></path><path d="M525.23,253c-.13-.07.15-.82-.08-1.73s-.8-1.46-.71-1.58.25,0,.52.25a2.51,2.51,0,0,1,.63,2.6C525.46,252.86,525.29,253,525.23,253Z" style="fill:#eb996e"></path><path d="M522.66,235c-.08.15-3.3-1.65-7.59-3a55.32,55.32,0,0,0-5.57-1.49,13.64,13.64,0,0,1-2.35-.54,9.64,9.64,0,0,1,2.41.18,33.63,33.63,0,0,1,5.68,1.36,35.35,35.35,0,0,1,5.37,2.27A9.66,9.66,0,0,1,522.66,235Z" style="fill:#eb996e"></path><path d="M488.51,219.51a1.55,1.55,0,1,1-1.19-1.89A1.58,1.58,0,0,1,488.51,219.51Z" style="fill:#ebebeb"></path><path d="M518,186.74c.1.11-4.48,4.3-10.22,9.36s-10.47,9.08-10.56,9,4.48-4.29,10.22-9.36S517.94,186.64,518,186.74Z" style="fill:#263238"></path><path d="M496.7,183.12a43.61,43.61,0,0,1-2,6.36,44.73,44.73,0,0,1-2.5,6.19,41.4,41.4,0,0,1,2-6.36A42,42,0,0,1,496.7,183.12Z" style="fill:#263238"></path><path d="M482,196a21.44,21.44,0,0,1-.73-3.32c-.43-2.2-.95-5-1.54-8s-1.15-5.84-1.58-8a23.83,23.83,0,0,1-.56-3.35,19.72,19.72,0,0,1,.92,3.27c.5,2,1.12,4.87,1.73,8s1.09,6,1.39,8.08A21.18,21.18,0,0,1,482,196Z" style="fill:#263238"></path><path d="M474.67,199.92a43.78,43.78,0,0,1-7.68-5.58,21.51,21.51,0,0,1,4,2.58A22,22,0,0,1,474.67,199.92Z" style="fill:#263238"></path><path d="M385,243.41l-9.2,69.37-35-61.77.65,54.92,13.08,48.14,46.1-27.23-7.42-66.07S387.18,242.72,385,243.41Z" style="fill:#fff"></path><path d="M473.54,291.56c-4.68-1.45-12.5,3.05-13.51,4.19s-38-39.39-44-46a7.47,7.47,0,0,0-.82-.9c-4.39-4-24.92-12.68-24.92-12.68L381.84,229s1.65,10.57,2.64,17.31c0,0,6.58,8.94,8.56,14.48s2.78,39.42,2.78,39.42,7.72,40.41,6.93,40.63l12.44-3.16v5.1l33.65,21.66s25.53-2.32,31.15-6.21S473.54,291.56,473.54,291.56Z" style="fill:#FF725E"></path><path d="M400.05,329.92a1,1,0,0,1,0-.23c.05-.18.11-.39.18-.66.17-.61.4-1.46.71-2.53.64-2.24,1.57-5.42,2.71-9.37,2.37-8,5.65-19.08,9.37-31.66l0,.24c-1.76-2.21-3.61-4.51-5.49-6.86-1.37-1.71-2.72-3.39-4-5l-.17-.21.21-.16,8.47-6.13-.08.3a87.29,87.29,0,0,0-7.51-13.31c-2.58-3.82-5-7.08-7.12-9.75-4.19-5.32-6.91-8.25-6.91-8.25a3.76,3.76,0,0,1,.56.48c.34.34.83.86,1.45,1.54,1.24,1.37,3,3.4,5.14,6s4.61,5.88,7.23,9.71a85.37,85.37,0,0,1,7.61,13.34l.08.18-.16.12-8.45,6.15.05-.37,4,5,5.49,6.87.09.1,0,.13c-3.79,12.56-7.13,23.63-9.53,31.6-1.21,3.94-2.18,7.11-2.87,9.33-.34,1.06-.6,1.9-.79,2.51l-.22.64A.73.73,0,0,1,400.05,329.92Z" style="fill:#263238"></path><path d="M459.21,321.85a4.76,4.76,0,0,1-.25-1c-.12-.66-.28-1.61-.43-2.79a62.55,62.55,0,0,1-.5-9.3,54.14,54.14,0,0,1,1-9.27c.24-1.16.46-2.1.65-2.74a4.21,4.21,0,0,1,.33-1c.08,0-.24,1.46-.62,3.8a69.48,69.48,0,0,0-.86,9.21,81.54,81.54,0,0,0,.35,9.25C459.11,320.37,459.29,321.83,459.21,321.85Z" style="fill:#263238"></path><path d="M454.51,318.89a3,3,0,0,1-.12-.94c-.05-.61-.07-1.5-.05-2.59a39.6,39.6,0,0,1,1.15-8.46,45,45,0,0,1,2.86-8c.46-1,.86-1.78,1.17-2.31a3.73,3.73,0,0,1,.51-.8c.07,0-.51,1.26-1.34,3.26a55.94,55.94,0,0,0-2.69,8,46.89,46.89,0,0,0-1.29,8.35C454.57,317.54,454.6,318.89,454.51,318.89Z" style="fill:#263238"></path><g style="opacity:0.30000000000000004"><path d="M460.39,295.66a24.35,24.35,0,0,0-7.29,23.4c.38,1.54,1.27,3.34,2.86,3.38a2.75,2.75,0,0,0,2.45-2.07,8.68,8.68,0,0,0,.1-3.41,67.26,67.26,0,0,1,1.27-20.89"></path></g><g style="opacity:0.30000000000000004"><path d="M395.82,300.19c6.07-26.82,3.42-46.85-13.47-68.26l2.13,14.36s8.25,12.92,8.88,15.2C394.87,266.87,395.82,300.19,395.82,300.19Z"></path></g><path d="M518.24,390.16l-24.82,29.7c.24-.25,48.77,34.64,48.77,34.64,11.22-3.61,19.94-9.77,24.6-20.08Z" style="fill:#ffbe9d"></path><path d="M566.09,431.89h0s37-11.82,41.46-6.78l-55.41,43.4-11.43-14.43,2.4-1.13A52.26,52.26,0,0,0,566.09,431.89Z" style="fill:#FF725E"></path><g style="opacity:0.6000000000000001"><path d="M549.25,451.78a2.86,2.86,0,0,0,.45,3.8,2.76,2.76,0,0,0,3.78-.42,3,3,0,0,0-.5-4c-1.19-.76-3.32-.42-3.89.88" style="fill:#fff"></path></g><g style="opacity:0.6000000000000001"><path d="M552.14,468.51l-3.37-4.61L603.16,424s3.31-.86,4.39,1.1Z" style="fill:#fff"></path></g><path d="M566.77,430.91c.2.28-1.06,1.46-1.71,3.37s-.47,3.61-.8,3.7-1.15-1.79-.33-4.1S566.63,430.61,566.77,430.91Z" style="fill:#263238"></path><path d="M574.46,428.76c.27.21-.54,1.59-.57,3.46s.66,3.28.39,3.48-1.65-1.2-1.58-3.52S574.25,428.51,574.46,428.76Z" style="fill:#263238"></path><path d="M583.21,433.13c-.2.25-1.64-.81-2.1-2.83s.34-3.61.63-3.47.13,1.54.53,3.2S583.46,432.89,583.21,433.13Z" style="fill:#263238"></path><path d="M566,431.22c.09.11-.85,1.12-2.78,2.16a16,16,0,0,1-3.61,1.39,18.42,18.42,0,0,1-2.25.4,4.34,4.34,0,0,1-1.35,0,1.48,1.48,0,0,1-1.25-1.34,1.88,1.88,0,0,1,.7-1.55,4.66,4.66,0,0,1,1.15-.67,13.27,13.27,0,0,1,2.19-.76,12.26,12.26,0,0,1,3.87-.32c2.22.18,3.45.85,3.4,1s-1.34-.17-3.42-.13a14.33,14.33,0,0,0-3.57.55,13.66,13.66,0,0,0-2,.75c-.71.31-1.21.7-1.16,1.08,0,.14,0,.18.3.26a3.3,3.3,0,0,0,1,0,17.6,17.6,0,0,0,2.13-.31,19.47,19.47,0,0,0,3.48-1.07C564.83,431.82,565.93,431.07,566,431.22Z" style="fill:#263238"></path><path d="M566,431.89c-.06.12-1.36-.43-2.83-2.11a11.43,11.43,0,0,1-2-3.33,11,11,0,0,1-.61-2.24,2.91,2.91,0,0,1,.67-2.79,1.64,1.64,0,0,1,1.77-.13,5,5,0,0,1,1.08.79,7.71,7.71,0,0,1,1.46,1.87,8,8,0,0,1,1.06,3.79c0,2.29-.83,3.5-.92,3.42s.33-1.32.08-3.35a8.05,8.05,0,0,0-1.16-3.3,7.39,7.39,0,0,0-1.31-1.56c-.55-.52-1.14-.83-1.32-.59a2,2,0,0,0-.25,1.67,10.86,10.86,0,0,0,.49,2,12.34,12.34,0,0,0,1.63,3.19C565,431,566.11,431.73,566,431.89Z" style="fill:#263238"></path><path d="M505.18,404.1l-24.82,29.71c.24-.25,48.77,34.64,48.77,34.64,11.22-3.61,19.94-9.77,24.6-20.08Z" style="fill:#ffbe9d"></path><path d="M553,445.84h0s37-11.82,41.46-6.78l-55.41,43.4L527.66,468l2.4-1.13A52.29,52.29,0,0,0,553,445.84Z" style="fill:#FF725E"></path><g style="opacity:0.6000000000000001"><path d="M536.19,465.72a2.88,2.88,0,0,0,.46,3.81,2.75,2.75,0,0,0,3.77-.42,3,3,0,0,0-.5-4c-1.19-.76-3.31-.42-3.88.87" style="fill:#fff"></path></g><g style="opacity:0.6000000000000001"><path d="M539.08,482.46l-3.36-4.61L590.1,438s3.31-.86,4.39,1.1Z" style="fill:#fff"></path></g><path d="M553.71,444.86c.2.28-1.06,1.46-1.71,3.37s-.46,3.61-.8,3.69-1.15-1.79-.32-4.09S553.57,444.56,553.71,444.86Z" style="fill:#263238"></path><path d="M561.4,442.71c.27.21-.54,1.59-.56,3.46s.66,3.28.38,3.48-1.65-1.2-1.58-3.52S561.2,442.46,561.4,442.71Z" style="fill:#263238"></path><path d="M570.15,447.08c-.2.25-1.63-.81-2.1-2.83s.34-3.61.63-3.47.13,1.54.54,3.19S570.4,446.84,570.15,447.08Z" style="fill:#263238"></path><path d="M553,445.17c.09.11-.84,1.12-2.78,2.16a15.57,15.57,0,0,1-3.61,1.38,16.67,16.67,0,0,1-2.25.41,4.34,4.34,0,0,1-1.35,0,1.5,1.5,0,0,1-1.25-1.34,1.89,1.89,0,0,1,.7-1.55,4.66,4.66,0,0,1,1.15-.67,13.6,13.6,0,0,1,2.19-.76,12.32,12.32,0,0,1,3.88-.32c2.21.18,3.45.85,3.39,1s-1.34-.17-3.42-.13a13.75,13.75,0,0,0-3.56.55,12.68,12.68,0,0,0-2,.75c-.71.31-1.21.7-1.16,1.07,0,.15.05.19.31.27a3.3,3.3,0,0,0,1,0,17.15,17.15,0,0,0,2.12-.31,19.86,19.86,0,0,0,3.49-1.07C551.77,445.77,552.87,445,553,445.17Z" style="fill:#263238"></path><path d="M552.94,445.84c-.07.11-1.36-.44-2.84-2.11a11.66,11.66,0,0,1-2-3.33,11.87,11.87,0,0,1-.61-2.24,2.91,2.91,0,0,1,.67-2.79,1.67,1.67,0,0,1,1.77-.14,5.31,5.31,0,0,1,1.08.8,8,8,0,0,1,1.47,1.87,8.24,8.24,0,0,1,1.06,3.79c0,2.29-.84,3.49-.93,3.42s.33-1.33.08-3.36a8,8,0,0,0-1.16-3.29,7.1,7.1,0,0,0-1.31-1.56c-.55-.53-1.14-.83-1.31-.59a2,2,0,0,0-.26,1.66,11,11,0,0,0,.49,2,12.34,12.34,0,0,0,1.63,3.19C552,444.89,553.05,445.68,552.94,445.84Z" style="fill:#263238"></path><path d="M549.27,444.25a9.28,9.28,0,0,1-1.25-1l-3.3-3c-2.79-2.5-6.6-6-10.94-9.68s-8.06-7.31-10.78-9.88c-1.35-1.29-2.44-2.34-3.18-3.08a12.21,12.21,0,0,1-1.12-1.18,8.9,8.9,0,0,1,1.26,1l3.29,3c2.78,2.5,6.59,6,10.88,9.75s8.12,7.24,10.84,9.8c1.36,1.29,2.44,2.34,3.19,3.08A9,9,0,0,1,549.27,444.25Z" style="fill:#eb996e"></path><path d="M445.2,393.42a122.27,122.27,0,0,0-19.34-22.22l-105.34,83c11.34,3.39,35.21,3.84,46.25-.4S393,440,402.85,433.4l41.56-27.61a9.51,9.51,0,0,0,2.66-2.3C449.15,400.5,447.24,396.43,445.2,393.42Z" style="fill:#263238"></path><path d="M431.45,326.26s21.57-4,32.72,1.37,71.45,68.42,71.45,68.42L507.26,419l-92.07-64.69Z" style="fill:#263238"></path><path d="M297.93,454s18.1,5.48,35.75,2.19,81.75-61.64,81.75-61.64h4.75s-.73,6.22,2.56,9.51,63.35,42.28,63.35,42.28l36.21-33.45S439.82,329.79,430,327.13s-20.11-5.23-30,1.36S297.93,388,297.93,388Z" style="fill:#263238"></path><path d="M502.85,461.19a18.47,18.47,0,0,1-2.33-2.29c-1.39-1.48-3.24-3.57-5.19-6s-3.63-4.62-4.8-6.27a18.55,18.55,0,0,1-1.79-2.75,22.84,22.84,0,0,1,2.08,2.53c1.25,1.59,3,3.78,4.91,6.16s3.75,4.51,5.06,6A23.86,23.86,0,0,1,502.85,461.19Z" style="fill:#263238"></path><path d="M503.29,456.18a93.7,93.7,0,0,1-6-7.84,97.58,97.58,0,0,1-5.62-8.15,91.25,91.25,0,0,1,6,7.84A94.73,94.73,0,0,1,503.29,456.18Z" style="fill:#263238"></path><path d="M507.22,455.93c-.13.08-2.77-4.31-5.9-9.8s-5.57-10-5.45-10.06,2.77,4.32,5.9,9.8S507.34,455.86,507.22,455.93Z" style="fill:#263238"></path><path d="M511.23,450.17a103.49,103.49,0,0,1-6.15-8.47c-3.27-4.76-5.83-8.68-5.72-8.76s2.87,3.71,6.15,8.47S511.35,450.09,511.23,450.17Z" style="fill:#263238"></path><path d="M513.64,444.5a15.47,15.47,0,0,1-1.58-2.22c-.93-1.4-2.22-3.33-3.68-5.43s-2.81-4-3.8-5.35a15.45,15.45,0,0,1-1.52-2.26,13.44,13.44,0,0,1,1.81,2c1.07,1.31,2.48,3.17,3.94,5.28s2.71,4.08,3.56,5.54A12.82,12.82,0,0,1,513.64,444.5Z" style="fill:#263238"></path><path d="M516.46,439.53a11.81,11.81,0,0,1-1.39-2l-3.13-5-3.17-5a13,13,0,0,1-1.23-2.12,10.86,10.86,0,0,1,1.54,1.92c.89,1.23,2.07,3,3.3,4.93s2.29,3.77,3,5.11A11,11,0,0,1,516.46,439.53Z" style="fill:#263238"></path><path d="M521.26,436.77a13.5,13.5,0,0,1-1.49-2.12c-.87-1.33-2.08-3.17-3.48-5.16s-2.7-3.76-3.65-5a13.33,13.33,0,0,1-1.49-2.12,12.11,12.11,0,0,1,1.77,1.89c1,1.23,2.4,3,3.8,5s2.57,3.88,3.37,5.27A12.26,12.26,0,0,1,521.26,436.77Z" style="fill:#263238"></path><path d="M526.51,432.7a16.16,16.16,0,0,1-1.83-2.15c-1.09-1.36-2.61-3.22-4.34-5.24s-3.34-3.8-4.51-5.09a15.93,15.93,0,0,1-1.85-2.14,13.26,13.26,0,0,1,2.11,1.89c1.25,1.22,2.91,3,4.65,5s3.21,3.94,4.23,5.36A13.65,13.65,0,0,1,526.51,432.7Z" style="fill:#263238"></path><path d="M430,327.13a3.85,3.85,0,0,1,1.22.39,22.79,22.79,0,0,1,3.14,1.93c2.62,1.84,6.22,4.75,10.54,8.49,8.64,7.48,20.17,18.26,32.71,30.36s23.73,23.24,31.79,31.33l9.5,9.63,2.56,2.64.66.7a2.58,2.58,0,0,1,.21.25l-.25-.22q-.27-.24-.69-.66l-2.63-2.57-9.62-9.51c-8.12-8-19.35-19.11-31.89-31.21s-24-22.92-32.59-30.46c-4.29-3.77-7.84-6.72-10.42-8.61a24.75,24.75,0,0,0-3.07-2A7.88,7.88,0,0,0,430,327.13Z" style="fill:#455a64"></path><path d="M426.16,362.86a6.35,6.35,0,0,1-.26,1.24c-.23.89-.53,2-.88,3.35-.73,2.83-1.73,6.74-2.62,11.1s-1.45,8.36-1.74,11.26c-.15,1.45-.26,2.63-.32,3.44a5.77,5.77,0,0,1-.16,1.26,5.47,5.47,0,0,1,0-1.27c0-.82.05-2,.15-3.46a90.38,90.38,0,0,1,1.6-11.34c.89-4.38,1.95-8.28,2.78-11.09.42-1.4.77-2.53,1-3.31A6,6,0,0,1,426.16,362.86Z" style="fill:#455a64"></path><path d="M406.31,363.89a5.43,5.43,0,0,1,.44,1.17c.27.87.62,2,1,3.25L411.12,379c1.27,4.14,2.41,7.88,3.29,10.74l.95,3.27a6.19,6.19,0,0,1,.29,1.22,5,5,0,0,1-.48-1.16c-.27-.75-.65-1.85-1.11-3.22-.92-2.73-2.14-6.51-3.44-10.7s-2.43-8-3.19-10.78c-.39-1.38-.69-2.51-.88-3.29A5.92,5.92,0,0,1,406.31,363.89Z" style="fill:#455a64"></path><path d="M436.78,413.87a2,2,0,0,1-.42-.25l-1.2-.78-4.54-3.07c-1.95-1.35-4.34-3-7-5a14.14,14.14,0,0,1-2-1.71,6.67,6.67,0,0,1-1.08-2.59,27.84,27.84,0,0,1-.58-6l.21.21h-4.75l.14-.05c-7.91,7.25-17.48,15.85-28,24.79-14.63,12.4-28.4,23.06-39.13,29.65a67.44,67.44,0,0,1-13.31,6.66c-.84.26-1.59.48-2.25.63s-1.23.24-1.7.28l-1.05.05h-.36l.36-.05,1-.1c.46-.06,1-.2,1.67-.33s1.4-.4,2.23-.67a70.32,70.32,0,0,0,13.18-6.78c10.65-6.65,24.36-17.35,39-29.74,10.52-8.93,20.1-17.5,28-24.72l.06-.06h.09l4.75,0h.21v.21a27.49,27.49,0,0,0,.52,5.86,6.25,6.25,0,0,0,1,2.45,13.69,13.69,0,0,0,1.91,1.67c2.64,2,5,3.7,6.93,5.08l4.48,3.16,1.16.83A2.79,2.79,0,0,1,436.78,413.87Z" style="fill:#455a64"></path><path d="M438.15,393.6c4.63-3.55,15.13-12.63,19-17a61.76,61.76,0,0,0,10.56-17C458.3,365.57,443,383.58,438.15,393.6Z" style="fill:#ffbe9d"></path><path d="M334.29,226.12l-8,6.72s-18.16,7.29-28.35,15.73c-9,7.47-21,61.35-21,61.35V404.1s-19.77,35.78-20.38,40a95.61,95.61,0,0,0-.27,12.6l59.3.3c-2.74-5.59-10.17-7.64-10.17-7.64,1.67-26.71,2.51-47.27,9.61-59.38s45.06-30,45.06-30V323.26Z" style="fill:#FF725E"></path><path d="M360.08,328.49a3.11,3.11,0,0,1-.32-.45l-.88-1.36-3.29-5.18L344,303l-.06-.08,0-.1c1.2-3.92,2.51-8.24,3.9-12.78l.24.32H336.25l-.06-.07a8.89,8.89,0,0,1-1.47-3.07,98.42,98.42,0,0,1-2.64-11.52c-.69-3.76-1.28-7.39-1.8-10.85-1-6.93-1.87-13.19-2.53-18.44s-1.14-9.52-1.46-12.46c-.14-1.45-.26-2.59-.34-3.4l-.08-.88a1.27,1.27,0,0,1,0-.31,1.21,1.21,0,0,1,.06.3c0,.23.07.52.12.88.11.81.26,1.94.44,3.38.39,3,.94,7.22,1.62,12.44s1.57,11.5,2.64,18.42c.54,3.45,1.13,7.08,1.83,10.82a103,103,0,0,0,2.63,11.46,8.66,8.66,0,0,0,1.34,2.85l-.18-.07h12.09l-.1.32c-1.4,4.54-2.73,8.86-3.94,12.77l0-.19c4.7,7.67,8.64,14.07,11.42,18.6,1.35,2.24,2.42,4,3.18,5.25l.82,1.39A3.46,3.46,0,0,1,360.08,328.49Z" style="fill:#263238"></path><path d="M284.74,392.79c.12.1-1.88,2.6-4,5.93a46.55,46.55,0,0,1-4.09,5.91,8.86,8.86,0,0,1,1-1.86c.66-1.12,1.58-2.66,2.66-4.33a44.75,44.75,0,0,1,3-4.12A7.68,7.68,0,0,1,284.74,392.79Z" style="fill:#263238"></path><path d="M270.62,441.4a7.77,7.77,0,0,1,1.37.09c.89.09,2.16.26,3.73.48,3.14.46,7.46,1.23,12.17,2.32s8.93,2.32,11.95,3.29c1.51.49,2.72.91,3.56,1.22a7.07,7.07,0,0,1,1.27.52,6.07,6.07,0,0,1-1.34-.33l-3.6-1.05c-3-.89-7.25-2-12-3.14s-9-1.91-12.11-2.46l-3.69-.65A6.15,6.15,0,0,1,270.62,441.4Z" style="fill:#263238"></path><g style="opacity:0.30000000000000004"><path d="M313.61,391.84c-1.05-2.18-5.28-4.18-7.23-5.61-14.17-10.39-24.66-25.86-27.61-43,.79,14.47,4.38,28.62,8,42.66.9,3.51,1.83,7.11,4,10s5.81,5,9.34,4.2c.38,3.23,1.51,7.25,4.73,7.66a5,5,0,0,0,4.44-2.25c1-1.41,1.81-6.14,2.27-7.82A45.42,45.42,0,0,1,313.61,391.84Z"></path></g><g style="opacity:0.30000000000000004"><path d="M336.56,290.08l6.62,2.25c-1.83,3.38-3.71,7.25-2.54,10.91a15.8,15.8,0,0,0,3.58,5.57c3.79,4.16,12,15.78,15.86,19.68L344.2,302.88l3.92-12.77Z"></path></g><path d="M416.78,288.94l.17-4.81h3.69v-5.2a79.67,79.67,0,0,1,29.51,2.85V285H453v5.28l-2.35.75-4.86,33.53H420l-1.34-34.7Z" style="fill:#e0e0e0"></path><path d="M449.75,282.23a4.88,4.88,0,0,1-1.11.47,12.17,12.17,0,0,1-1.33.44c-.53.15-1.13.35-1.81.48a31.46,31.46,0,0,1-4.81.71,36.53,36.53,0,0,1-5.95-.14,35.43,35.43,0,0,1-5.83-1.22,30.66,30.66,0,0,1-4.52-1.78c-.64-.28-1.17-.61-1.65-.87s-.89-.52-1.21-.73a5.17,5.17,0,0,1-1-.71c.05-.09,1.48.85,4,2a36.16,36.16,0,0,0,4.51,1.65,34.89,34.89,0,0,0,11.62,1.34,37.19,37.19,0,0,0,4.76-.59C448.11,282.73,449.72,282.14,449.75,282.23Z" style="fill:#263238"></path><path d="M450.43,285a5.38,5.38,0,0,1-1.05.62,27.69,27.69,0,0,1-3.06,1.29,30.31,30.31,0,0,1-21.52-.53,25.22,25.22,0,0,1-3-1.44,4.6,4.6,0,0,1-1-.67c0-.08,1.54.8,4.15,1.77a32.3,32.3,0,0,0,21.26.52C448.85,285.76,450.39,285,450.43,285Z" style="fill:#263238"></path><path d="M451,290.88a3.2,3.2,0,0,1-1.13.82,16.46,16.46,0,0,1-3.6,1.27,30.22,30.22,0,0,1-5.59.86,54.4,54.4,0,0,1-6.92-.14A46.13,46.13,0,0,1,421.55,291c-1.51-.55-2.7-1.06-3.52-1.43a7.22,7.22,0,0,1-1.25-.63,6.79,6.79,0,0,1,1.33.44c.83.31,2.05.77,3.56,1.27a50.78,50.78,0,0,0,12.17,2.52,59.88,59.88,0,0,0,6.85.18,32.26,32.26,0,0,0,5.53-.74,18.73,18.73,0,0,0,3.6-1.1C450.63,291.16,451,290.84,451,290.88Z" style="fill:#263238"></path><path d="M420.65,283.09a5,5,0,0,0,3.54,1.66c0-.12.09-2,.09-2a3.63,3.63,0,0,0-1.14-.93,8.59,8.59,0,0,1-2.57-1.94" style="fill:#455a64"></path><path d="M343.65,343l52.68-29,17.1-12.89,15-5.81h19.44s1.58,4.69-1.17,5.34c-3.39.81-13.52,1.79-13.52,1.79l-9.2,3.6s26.93-2.11,27.4-1.4-.67,4.19-3.48,5.36-18.77,4-18.77,4a13.31,13.31,0,0,0,8.43,1.83c4.69-.66,11.95-3.94,12.89-2.07s-2.11,5.9-2.11,5.9a5.93,5.93,0,0,1-1.88,5.35c-2.57,2.57-6.79,4-10.77,4.69s-15.7,1.4-16.63,1.4-14.52,2.34-14.52,2.34l-69.75,47.47Z" style="fill:#ffbe9d"></path><path d="M448.88,319.43a3.89,3.89,0,0,1-.86.48c-.57.28-1.41.65-2.47,1a41.45,41.45,0,0,1-17.42,2.55c-1.13-.09-2-.19-2.66-.3a3.32,3.32,0,0,1-1-.22c0-.08,1.4.08,3.64.15a49.28,49.28,0,0,0,8.75-.49,50,50,0,0,0,8.52-2C447.56,319.9,448.84,319.35,448.88,319.43Z" style="fill:#eb996e"></path><path d="M276.93,309.92c0,25,2.18,48.45,13.59,68.76,2.33,4.15,5.55,8.37,10.2,9.34h4.69l2.37,2.53s18.05,8.13,21.36,6.33,10.7-38.19,10.7-38.19l4.66-19.6-10.21,1.73s-2.39-25.59-5.45-43.17c-1.42-8.21-2.11-16.64-5.16-24.4s-8.37-15-15.9-18.55" style="fill:#FF725E"></path><path d="M307.78,254.7s.56.24,1.6.79a27.24,27.24,0,0,1,4.23,2.94,37.43,37.43,0,0,1,10.65,15.95,72.22,72.22,0,0,1,3.2,13.28l1.19,7.61c.42,2.61.91,5.32,1.33,8.13,1.73,11.2,3.21,23.79,4.55,37.39l-.29-.22,10.22-1.73.38-.06-.09.37-4.05,17.06c-.74,2.92-1.28,5.91-2,8.92s-1.33,6-2.05,9.08c-.93,4-1.91,7.91-3,11.76-.54,1.93-1.1,3.84-1.73,5.71-.33.94-.65,1.87-1,2.78-.19.46-.41.91-.64,1.35a5,5,0,0,1-.41.65l-.23.31-.34.28a5.09,5.09,0,0,1-3,.22,24.86,24.86,0,0,1-2.85-.6c-1.86-.49-3.67-1.09-5.45-1.73-3.56-1.28-7-2.69-10.32-4.17l0,0,0,0-2.38-2.53.18.07h-4.74a13.53,13.53,0,0,1-7.55-5.22,31.12,31.12,0,0,1-2.5-3.73c-.73-1.29-1.38-2.59-2.06-3.86a92.48,92.48,0,0,1-6-15.27A122.91,122.91,0,0,1,279.26,346c-.72-4.45-1.22-8.58-1.54-12.32-.66-7.5-.76-13.46-.81-17.53,0-2,0-3.6,0-4.66,0-.51,0-.91,0-1.2a3.15,3.15,0,0,1,0-.4s0,.14,0,.4,0,.69,0,1.2c0,1.06,0,2.63.09,4.66.1,4.07.24,10,.95,17.5.34,3.74.86,7.85,1.6,12.29a122.12,122.12,0,0,0,3.31,14.1,92.68,92.68,0,0,0,6,15.18c.68,1.26,1.33,2.56,2.05,3.83a30.6,30.6,0,0,0,2.47,3.67,13.07,13.07,0,0,0,7.29,5h4.74l.07.07,2.38,2.53-.07-.06c3.31,1.47,6.74,2.88,10.28,4.15,1.77.63,3.57,1.22,5.41,1.71a26.78,26.78,0,0,0,2.8.59,4.76,4.76,0,0,0,2.67-.16l.23-.18.2-.27a6.83,6.83,0,0,0,.37-.6,14,14,0,0,0,.61-1.3c.39-.89.71-1.81,1-2.74.63-1.86,1.19-3.76,1.72-5.69,1.07-3.84,2-7.76,3-11.74.72-3,1.4-6.07,2.06-9.07s1.22-6,1.95-8.92c1.4-5.85,2.76-11.56,4.07-17.07l.28.31-10.21,1.72-.26,0,0-.26c-1.32-13.59-2.78-26.19-4.47-37.38-2-11.13-2.73-21.19-5.6-29a37.53,37.53,0,0,0-10.47-15.94,28.47,28.47,0,0,0-4.16-3c-.51-.3-.91-.49-1.17-.64Z" style="fill:#263238"></path><path d="M305.41,388a2.11,2.11,0,0,1,0-.6c0-.39.08-1,.16-1.7.15-1.47.42-3.6.84-6.22s1-5.73,1.84-9.14a48.78,48.78,0,0,1,3.85-10.77,26.16,26.16,0,0,1,3.48-4.82,45.07,45.07,0,0,1,3.91-3.91,71.65,71.65,0,0,1,7.39-5.69c2.2-1.48,4.05-2.57,5.35-3.3.64-.36,1.15-.63,1.5-.81a2.42,2.42,0,0,1,.55-.24,4.67,4.67,0,0,1-.5.34l-1.45.89c-1.26.78-3.08,1.91-5.24,3.43a75.92,75.92,0,0,0-7.28,5.74,47.25,47.25,0,0,0-3.85,3.89,26.54,26.54,0,0,0-3.41,4.73,49.61,49.61,0,0,0-3.83,10.64c-.87,3.38-1.48,6.48-2,9.08s-.78,4.72-1,6.19c-.1.69-.19,1.24-.25,1.69A3.2,3.2,0,0,1,305.41,388Z" style="fill:#263238"></path><path d="M334.29,340.82a3.39,3.39,0,0,1-.5.17l-1.45.38c-.64.16-1.41.36-2.3.63s-1.9.52-3,.89c-2.23.67-4.84,1.6-7.69,2.75a88.94,88.94,0,0,0-9,4.32,74,74,0,0,0-8.34,5.49c-1.18,1-2.35,1.87-3.34,2.82l-1.45,1.33-1.27,1.31c-.83.82-1.5,1.64-2.1,2.34l-.84,1-.65.87-.91,1.19a2.25,2.25,0,0,1-.35.39s.07-.16.26-.45l.84-1.25c.19-.28.39-.58.62-.9l.81-1c.58-.72,1.23-1.56,2-2.4l1.25-1.34,1.45-1.37c1-1,2.15-1.87,3.33-2.87a69.39,69.39,0,0,1,8.39-5.57,80.88,80.88,0,0,1,9.09-4.31c2.87-1.13,5.51-2,7.76-2.67,1.12-.34,2.15-.59,3.05-.82s1.68-.41,2.32-.53l1.47-.3A1.75,1.75,0,0,1,334.29,340.82Z" style="fill:#263238"></path><path d="M288.88,298.15a1.5,1.5,0,0,1,.48.18l1.34.62c1.17.54,2.83,1.36,4.87,2.42,4.08,2.09,9.64,5.16,15.6,8.85s11.17,7.31,14.87,10c1.85,1.36,3.32,2.48,4.33,3.28l1.15.93a2.37,2.37,0,0,1,.38.35,1.72,1.72,0,0,1-.45-.27l-1.2-.84-4.43-3.15c-3.74-2.64-9-6.2-14.92-9.89s-11.47-6.79-15.5-9l-4.79-2.56-1.3-.71A2,2,0,0,1,288.88,298.15Z" style="fill:#263238"></path><g style="opacity:0.30000000000000004"><path d="M301.5,344.22a10.14,10.14,0,0,0-4.52,4.26c-.87,1.91-.47,4.54,1.35,5.59s4.19.42,6-.63a151.89,151.89,0,0,1,15-8.05c4.57-2,9.62-3.21,15-4.57h0C323.21,339.54,311.24,338.79,301.5,344.22Z"></path></g><path d="M357,113.5c-12-.16-24.13,4.66-32.15,13.56s-11.57,21.89-8.38,33.45l73.33-34.11C380.67,118.58,369,113.66,357,113.5Z" style="fill:#FF725E"></path><path d="M349.14,121.28s-67,15-51.4,66.44c12.75,42,100.47,32.13,116.58,5.85,0,0,19.45-25.77,6.55-49.88S375.76,114.61,349.14,121.28Z" style="fill:#FF725E"></path><g style="opacity:0.30000000000000004"><path d="M383.78,136c-18.14-4.28-37.91.87-52.7,12.2S311,183.89,306.71,202c0,0,11.71,14.27,46.15,14.88,42.94.75,57.9-16.53,64.57-28.21a65.23,65.23,0,0,0,5.26-11.79C418,158.88,401.92,140.3,383.78,136Z"></path></g><path d="M380.24,119.21a5,5,0,0,1-.81,0l-2.32-.13-1.68-.11c-.61,0-1.28,0-2,0-1.43,0-3.06-.09-4.86,0l-2.83.1c-1,0-2,.17-3.05.25-2.12.14-4.35.49-6.71.82a105.12,105.12,0,0,0-15,3.67,101,101,0,0,0-14.21,6.11c-2.07,1.18-4.07,2.24-5.83,3.43-.88.58-1.76,1.1-2.56,1.67l-2.29,1.66c-1.49,1-2.71,2.1-3.83,3-.55.46-1.08.87-1.54,1.27l-1.24,1.13-1.72,1.56a3.93,3.93,0,0,1-.63.51,6.41,6.41,0,0,1,.55-.59l1.66-1.63,1.21-1.17c.46-.41,1-.83,1.52-1.3,1.11-.92,2.32-2,3.8-3.07l2.28-1.69c.8-.58,1.68-1.11,2.56-1.7,1.75-1.21,3.75-2.3,5.83-3.49a97.31,97.31,0,0,1,14.27-6.18,99.73,99.73,0,0,1,15.12-3.65c2.37-.32,4.62-.66,6.74-.78,1.06-.07,2.08-.19,3.07-.22l2.84-.07c1.81-.09,3.44,0,4.88.06.71,0,1.38,0,2,.07l1.67.15,2.32.23A4.47,4.47,0,0,1,380.24,119.21Z"></path><path d="M413.3,232.9c-1.55-3.86.4-11,.6-15.16a154.22,154.22,0,0,0-4.28-44.33c-2-8.21-4.78-16.39-9.74-23.23s-14.78-13.91-23.18-14.87l-5.88,77.36c-.27,5.51-.22,11.17,1.64,16.37l9.38-.06,8.43,7.23s20.53,8.72,24.92,12.68a10.29,10.29,0,0,1,1.44,1.74A50.59,50.59,0,0,0,413.3,232.9Z" style="fill:#263238"></path><path d="M328.08,161.44h0a15.17,15.17,0,0,1,10.86-16.31l26.81-7.77c12.16-2.46,26.6,8.6,28.54,20.85,2.16,13.62,4.25,30.33,3.6,40.7-1.33,20.86-16.83,25-16.83,25l4.36,28.52-10.23,65.15-36.05-63.66Z" style="fill:#ffbe9d"></path><path d="M389.8,173.76a2.66,2.66,0,0,1-2.29,2.9,2.54,2.54,0,0,1-2.94-2.12,2.64,2.64,0,0,1,2.29-2.9A2.53,2.53,0,0,1,389.8,173.76Z" style="fill:#263238"></path><path d="M390.77,167.35c-.29.38-2.43-.91-5.26-.64s-4.78,1.89-5.12,1.58c-.17-.14.1-.8.95-1.54a7.27,7.27,0,0,1,4.06-1.68,7,7,0,0,1,4.23.93C390.56,166.59,390.92,167.19,390.77,167.35Z" style="fill:#263238"></path><path d="M364,176.3a2.65,2.65,0,0,1-2.29,2.9,2.54,2.54,0,0,1-2.95-2.12,2.65,2.65,0,0,1,2.29-2.9A2.53,2.53,0,0,1,364,176.3Z" style="fill:#263238"></path><path d="M362.94,170.51c-.29.38-2.43-.91-5.26-.64s-4.78,1.89-5.12,1.58c-.17-.14.1-.8.95-1.54a7.27,7.27,0,0,1,4.06-1.68,7,7,0,0,1,4.23.93C362.73,169.75,363.09,170.35,362.94,170.51Z" style="fill:#263238"></path><path d="M375.22,190.58c0-.16,1.71-.63,4.53-1.27.72-.14,1.39-.35,1.46-.86a3.62,3.62,0,0,0-.68-2.1L377.87,181c-3.72-7.57-6.48-13.82-6.18-14s3.57,5.87,7.29,13.44q1.33,2.81,2.57,5.35a4.22,4.22,0,0,1,.64,2.81,1.8,1.8,0,0,1-1.09,1.17,4.89,4.89,0,0,1-1.21.29C377,190.55,375.25,190.74,375.22,190.58Z" style="fill:#263238"></path><path d="M381.05,223.93a54.66,54.66,0,0,1-28.92-4.72s8.62,13.66,29.71,9.77Z" style="fill:#eb996e"></path><path d="M374.67,197.52a5.14,5.14,0,0,0-4.76-1.46,4.69,4.69,0,0,0-3.06,2,3,3,0,0,0,.09,3.4,3.44,3.44,0,0,0,3.81.59,10.7,10.7,0,0,0,3.42-2.5,3.23,3.23,0,0,0,.73-.92,1,1,0,0,0-.1-1" style="fill:#eb996e"></path><path d="M367.06,193.33c.46-.08.75,3,3.6,4.94s6.08,1.29,6.15,1.72c.06.18-.68.66-2.06.83a7.65,7.65,0,0,1-5.12-1.26,6.69,6.69,0,0,1-2.81-4.16C366.58,194.12,366.85,193.33,367.06,193.33Z" style="fill:#263238"></path><path d="M362.82,162.44c-.2.8-3.07.7-6.36,1.42s-5.89,1.87-6.4,1.22c-.23-.31.17-1.08,1.19-1.93a11.39,11.39,0,0,1,9.72-2C362.24,161.52,362.91,162.07,362.82,162.44Z" style="fill:#263238"></path><path d="M389.77,157.64c-.44.69-2.46.2-4.81.39s-4.3.84-4.82.21c-.23-.3,0-1,.83-1.67a7,7,0,0,1,7.76-.49C389.62,156.66,390,157.3,389.77,157.64Z" style="fill:#263238"></path><path d="M401.77,159.34c-4.6-7.47-9.36-15.11-16.3-20.47s-16.65-8.06-24.64-4.46l-.45,1.16c2.42,3.81,4.89,7.68,8.35,10.56s8.16,4.66,12.54,3.56l-2.65-3.86A65.16,65.16,0,0,0,401.77,159.34Z" style="fill:#263238"></path><path d="M306.81,242.45a162.71,162.71,0,0,1,19.45-9.61l8-6.72,7.33,27.63a9.08,9.08,0,0,0,4.63-2.74c2.05-2.51,1.83-6.11,1.52-9.33a731.54,731.54,0,0,1-3-92l-21.39,11.07c-3.5,13.27-1.26,23.38-2.24,37.07C320.17,210.91,309.72,225.08,306.81,242.45Z" style="fill:#263238"></path><path d="M363.88,134.74c-.66,11.83-7.32,23-15,32S331.58,182.91,322.1,190c-2.12-10.24-1.88-21.13,1.85-30.91s11.14-18.33,20.8-22.35a33.94,33.94,0,0,1,19.13-2" style="fill:#263238"></path><path d="M358.69,265.14c-2.05-8.21-5.34-16.23-5.54-24.68s2.68-16.62,2.56-25c-.11-7.29-2.46-14.33-4.82-21.22s-4.76-13.92-5-21.2,2.12-15,7.77-19.61l-25.3,13c-5.08,21.45-1.39,44.51-8.27,65.46-1.87,5.67-4.53,11.42-3.78,17.35,1,7.78,9.74,13.11,10,21,.1,3.36.51,10.88,2.38,13.69,1.24,1.88,5.49.62,7.62,1.36,8.37,2.9,11.64,4,20.48,4.46C361.4,282.61,360.75,273.34,358.69,265.14Z" style="fill:#263238"></path><path d="M301.17,247.24a2.74,2.74,0,0,1-.12-.26l-.32-.76c-.14-.34-.25-.78-.41-1.29a16.25,16.25,0,0,1-.31-1.82,21.43,21.43,0,0,1,2.35-11.38,47.94,47.94,0,0,1,4.17-6.94c1.64-2.4,3.49-4.89,5.17-7.67a28.84,28.84,0,0,0,3.79-9.37,49.77,49.77,0,0,0,.75-10.88c-.05-3.76-.27-7.45-.09-11a64.22,64.22,0,0,1,1.25-10.2,65.28,65.28,0,0,1,5.77-16.36,61.94,61.94,0,0,1,6.27-9.87c.83-1.1,1.55-1.91,2-2.45.22-.26.4-.46.55-.62s.19-.21.2-.2l-.16.23-.51.65c-.46.57-1.14,1.39-1.95,2.51a65.84,65.84,0,0,0-11.73,26.21,64.43,64.43,0,0,0-1.21,10.12c-.17,3.53,0,7.21.1,11a49.8,49.8,0,0,1-.77,11,29.25,29.25,0,0,1-3.88,9.51c-1.7,2.8-3.57,5.29-5.23,7.66a50.24,50.24,0,0,0-4.19,6.86,21.7,21.7,0,0,0-2.48,11.2A17.18,17.18,0,0,0,301.17,247.24Z" style="fill:#263238"></path><path d="M414.09,242.19a21.77,21.77,0,0,0,3-2.18,18.35,18.35,0,0,0,5.08-8.66c1.24-4.13,1.09-9.4-.33-14.91a88,88,0,0,0-2.71-8.54l-3.28-9.06c-4.47-12.42-8.52-23.66-11.46-31.84-1.43-4.05-2.6-7.34-3.42-9.67l-.9-2.64c-.09-.27-.17-.5-.23-.69s-.06-.23-.06-.24a.88.88,0,0,1,.11.23c.08.18.17.4.27.67.25.63.58,1.5,1,2.6l3.57,9.61c3,8.17,7.08,19.39,11.61,31.79,1.12,3.11,2.22,6.14,3.27,9.07a86,86,0,0,1,2.69,8.59c1.42,5.56,1.54,11,.23,15.14a18.19,18.19,0,0,1-5.31,8.7,14.21,14.21,0,0,1-2.29,1.61l-.65.32C414.17,242.17,414.09,242.2,414.09,242.19Z" style="fill:#263238"></path></g><g id="Device"><path d="M338.78,453.13c-15.17,0-41.49,0-41.49,0L287,376.92a5.28,5.28,0,0,0-5.23-4.56H177.4a5.28,5.28,0,0,0-5.21,6.15l12.22,72.8a6.57,6.57,0,0,0,6.48,5.49H353.31S352.2,453.1,338.78,453.13Z" style="fill:#e0e0e0"></path><path d="M338.78,453.13h1c.65,0,1.61,0,2.9.07a34.34,34.34,0,0,1,4.8.57,17.08,17.08,0,0,1,3,.85,8.33,8.33,0,0,1,1.58.79,3.44,3.44,0,0,1,1.34,1.36l.05.11h-.14L264,457l-67.7,0h-4.6a10,10,0,0,1-2.36-.18,6.79,6.79,0,0,1-5-4.76c-.37-1.58-.55-3.1-.84-4.67q-1.56-9.35-3.18-18.95-3.23-19.22-6.6-39.33-.67-4-1.35-8l-.34-2a7.2,7.2,0,0,1-.13-2.08,5.45,5.45,0,0,1,1.95-3.64,5.6,5.6,0,0,1,3.89-1.3h42.92l57.21,0h3.33a5.82,5.82,0,0,1,3.28.75,5.53,5.53,0,0,1,2.25,2.49,6.1,6.1,0,0,1,.45,1.62l.21,1.59q.87,6.39,1.69,12.49c1.1,8.14,2.15,15.91,3.14,23.26,2,14.7,3.73,27.74,5.22,38.78l-.15-.12,30.61.07,8.09,0,2.08,0,.71,0s-.24,0-.7,0l-2.09,0-8.09,0-30.61.07h-.12l0-.13c-1.51-11-3.3-24.07-5.31-38.77-1-7.35-2.07-15.12-3.18-23.25q-.82-6.11-1.7-12.49a11.55,11.55,0,0,0-.64-3.09,5.05,5.05,0,0,0-2.06-2.28,5.45,5.45,0,0,0-3.06-.69h-3.33l-57.21,0H177.74a5.07,5.07,0,0,0-3.56,1.17,4.94,4.94,0,0,0-1.76,3.3,6.11,6.11,0,0,0,.13,1.94l.33,2q.68,4,1.35,8c2.25,13.39,4.45,26.53,6.6,39.34q1.6,9.6,3.17,18.95c.28,1.54.48,3.14.82,4.61a6.27,6.27,0,0,0,4.67,4.41,9.29,9.29,0,0,0,2.25.17h4.6l67.7,0,89.27.12-.08.11a3.34,3.34,0,0,0-1.26-1.27,8.72,8.72,0,0,0-1.55-.79,17.93,17.93,0,0,0-3-.86,36.58,36.58,0,0,0-4.79-.61c-1.28-.09-2.25-.11-2.89-.12Z" style="fill:#263238"></path><path d="M240.88,411.33a6.21,6.21,0,1,1-6.21-6.21A6.2,6.2,0,0,1,240.88,411.33Z" style="fill:#fff"></path><path d="M297.79,456.8a6.68,6.68,0,0,1-.6-2.52,6.28,6.28,0,0,1-.09-2.59,13,13,0,0,1,.69,5.11Z" style="fill:#263238"></path></g></svg>