<svg xmlns="http://www.w3.org/2000/svg" viewBox="0 0 500 500"><g id="background-complete"><rect y="382.4" width="500" height="0.25" style="fill:#ebebeb"></rect><rect x="416.78" y="398.49" width="33.12" height="0.25" style="fill:#ebebeb"></rect><rect x="322.53" y="401.21" width="8.69" height="0.25" style="fill:#ebebeb"></rect><rect x="396.59" y="389.21" width="19.19" height="0.25" style="fill:#ebebeb"></rect><rect x="52.46" y="390.89" width="43.19" height="0.25" style="fill:#ebebeb"></rect><rect x="104.56" y="390.89" width="6.33" height="0.25" style="fill:#ebebeb"></rect><rect x="131.47" y="395.11" width="93.68" height="0.25" style="fill:#ebebeb"></rect><path d="M237,337.8H43.91a5.71,5.71,0,0,1-5.7-5.71V60.66A5.71,5.71,0,0,1,43.91,55H237a5.71,5.71,0,0,1,5.71,5.71V332.09A5.71,5.71,0,0,1,237,337.8ZM43.91,55.2a5.46,5.46,0,0,0-5.45,5.46V332.09a5.46,5.46,0,0,0,5.45,5.46H237a5.47,5.47,0,0,0,5.46-5.46V60.66A5.47,5.47,0,0,0,237,55.2Z" style="fill:#ebebeb"></path><path d="M453.31,337.8H260.21a5.72,5.72,0,0,1-5.71-5.71V60.66A5.72,5.72,0,0,1,260.21,55h193.1A5.71,5.71,0,0,1,459,60.66V332.09A5.71,5.71,0,0,1,453.31,337.8ZM260.21,55.2a5.47,5.47,0,0,0-5.46,5.46V332.09a5.47,5.47,0,0,0,5.46,5.46h193.1a5.47,5.47,0,0,0,5.46-5.46V60.66a5.47,5.47,0,0,0-5.46-5.46Z" style="fill:#ebebeb"></path><path d="M322,281.57H442.14a8.24,8.24,0,0,1-7.88,8.23c-12.91.59-32.77,2.63-39.07,9.77-11.74,13.32-10.6,60.1,3.46,70.93,4.41,3.4,17.27,10.14,17.27,10.14H348.23s12-6.88,16.18-10.14c14-10.92,14.39-57.67,2.6-70.93-6.05-6.8-24.67-9-37.16-9.69A8.31,8.31,0,0,1,322,281.57Z" style="fill:#f5f5f5"></path><path d="M427.26,290.24c-12.2,1-26.83,3.39-32.07,9.33a23.72,23.72,0,0,0-4,6.88H371a24.12,24.12,0,0,0-4-6.88c-5.26-5.91-20-8.34-32-9.33Z" style="fill:#e6e6e6"></path><polygon points="373.18 281.63 374.81 262.96 351.13 262.96 349.5 281.63 373.18 281.63" style="fill:#ebebeb"></polygon><polygon points="373.18 281.63 374.81 262.96 376.09 262.96 374.45 281.63 373.18 281.63" style="fill:#e0e0e0"></polygon><polygon points="370.93 279.73 372.23 264.86 353.38 264.86 352.08 279.73 370.93 279.73" style="fill:#f0f0f0"></polygon><polygon points="369.49 278.5 370.57 266.08 354.82 266.08 353.74 278.5 369.49 278.5" style="fill:#fafafa"></polygon><polygon points="380.86 281.57 404.65 281.57 402.01 251.4 378.22 251.4 380.86 281.57" style="fill:#e6e6e6"></polygon><polygon points="380.86 281.57 379.73 281.57 377.08 251.4 378.22 251.4 380.86 281.57" style="fill:#e0e0e0"></polygon><polygon points="383.02 278.5 401.96 278.5 399.85 254.48 380.92 254.48 383.02 278.5" style="fill:#f0f0f0"></polygon><polygon points="384.4 276.52 400.22 276.52 398.47 256.46 382.65 256.46 384.4 276.52" style="fill:#fafafa"></polygon><path d="M392.39,265.48h0a2.74,2.74,0,0,1-3.89,0h0a2.76,2.76,0,0,1,0-3.89h0a2.76,2.76,0,0,1,3.89,0h0A2.74,2.74,0,0,1,392.39,265.48Z" style="fill:#ebebeb"></path><path d="M391.23,268.85h0a2,2,0,0,1,2.85,0h0a2,2,0,0,1-1.43,3.44h0A2,2,0,0,1,391.23,268.85Z" style="fill:#f0f0f0"></path><path d="M189.61,374.47h23.17l-12.18-99.2a8.86,8.86,0,0,0-8.54-7.61H91l14.82,106.81Z" style="fill:#f5f5f5"></path><path d="M116.12,374.47H93l-12.18-99.2a6.59,6.59,0,0,1,6.67-7.61h8a8.85,8.85,0,0,1,8.54,7.61Z" style="fill:#f0f0f0"></path><path d="M124.66,374.36l-4.2-48a4.58,4.58,0,0,0-4-4.14l-1.72-.22a6.12,6.12,0,0,1-5.34-5.55l-.76-8.75a6.13,6.13,0,0,1,6.11-6.67H76.05a6.15,6.15,0,0,0-6.12,6.67l.77,8.75A6.12,6.12,0,0,0,76,322l1.73.22a4.58,4.58,0,0,1,4,4.14l4.2,48a6.77,6.77,0,0,0,6.74,6.18h38.73A6.78,6.78,0,0,1,124.66,374.36Z" style="fill:#e6e6e6"></path><path d="M231.22,314.36A14.59,14.59,0,0,1,245.76,301H212a14.59,14.59,0,0,0-14.53,13.32l-3.33,38h33.71Z" style="fill:#e6e6e6"></path><path d="M260.73,301h-15a14.59,14.59,0,0,0-14.54,13.32l-3.33,38H147.6l-3.32-38A14.59,14.59,0,0,0,129.74,301h-15a6.13,6.13,0,0,0-6.11,6.67l.76,8.75a6.12,6.12,0,0,0,5.34,5.55l1.72.22a4.58,4.58,0,0,1,4,4.14l4.2,48a6.78,6.78,0,0,0,6.75,6.18H244.09a6.78,6.78,0,0,0,6.75-6.18l4.2-48a4.57,4.57,0,0,1,4-4.14l1.73-.22a6.14,6.14,0,0,0,5.34-5.55l.76-8.75A6.13,6.13,0,0,0,260.73,301Z" style="fill:#f0f0f0"></path><polygon points="85.62 107.31 122.41 85.9 150.76 85.9 188.16 106.29 188.16 245.01 85.62 245.01 85.62 107.31" style="fill:#e0e0e0"></polygon><path d="M189.22,245H85.62V107.3l1-1A72.9,72.9,0,0,1,137.42,85.9h0a72.86,72.86,0,0,1,50.74,20.39l1.06,1Zm-96.73-6.87h89.86V110.25a66.48,66.48,0,0,0-89.86,0Z" style="fill:#fafafa"></path><polygon points="134.84 238.97 140 238.97 140 192.93 183.65 192.93 183.65 187.78 140 187.78 140 140.69 183.65 140.69 183.65 135.53 140 135.53 140 91.88 134.84 91.88 134.84 135.53 91.19 135.53 91.19 140.69 134.84 140.69 134.84 187.78 91.19 187.78 91.19 192.93 134.84 192.93 134.84 238.97" style="fill:#f0f0f0"></polygon><path d="M192.65,248.45H82.18V105.9l1-1a76.77,76.77,0,0,1,108.46,0l1,1ZM89.06,241.58h96.72V108.77a69.89,69.89,0,0,0-96.72,0Z" style="fill:#f0f0f0"></path><path d="M396.41,130.44s1.17-7.73-4.47-12.68-5.14-7.9-3.53-8.29,3.1,4.57,5.58,5.94c0,0,.08-7.06-2.44-9.66s-3.84-9.3-1.44-9.42,2.64,4,3.13,6.88,3.17,7,3.17,7,.52-6.31,2.14-8.91-2.7-8.55-1-11.15,4.64,2.35,4.39,7.93-4,11.52-3.09,17.34c0,0,1.64-4.09,3.11-4.46s3-3.08,3.95-4.08,2.23,2.47,0,5.69-7.93,11.83-7.06,18.8Z" style="fill:#e6e6e6"></path><path d="M393,126.92l-1.85,11.58a5.9,5.9,0,0,0,5.82,6.82h2a5.89,5.89,0,0,0,5.81-6.82L403,126.92Z" style="fill:#e6e6e6"></path><rect x="290.51" y="141.05" width="130.44" height="6.7" style="fill:#e0e0e0"></rect><rect x="296.51" y="116.34" width="5.75" height="24.7" style="fill:#ebebeb"></rect><rect x="324.3" y="116.34" width="5.75" height="24.7" style="fill:#ebebeb"></rect><rect x="357.99" y="116.03" width="5.75" height="24.7" transform="translate(-16.56 63.15) rotate(-9.78)" style="fill:#ebebeb"></rect><rect x="303.64" y="119.6" width="5.75" height="21.45" style="fill:#ebebeb"></rect><rect x="316.84" y="119.6" width="5.75" height="21.45" style="fill:#ebebeb"></rect><rect x="350.18" y="119.6" width="5.75" height="21.45" style="fill:#ebebeb"></rect><rect x="334.24" y="119.23" width="5.75" height="21.45" transform="translate(-20.16 76.21) rotate(-12.53)" style="fill:#ebebeb"></rect><rect x="311.48" y="115.12" width="2.87" height="25.93" style="fill:#ebebeb"></rect><rect x="345.66" y="115.12" width="2.87" height="25.93" style="fill:#ebebeb"></rect><rect x="290.51" y="191.08" width="130.44" height="6.7" transform="translate(711.46 388.86) rotate(180)" style="fill:#e0e0e0"></rect><rect x="409.2" y="166.37" width="5.75" height="24.7" transform="translate(824.14 357.45) rotate(180)" style="fill:#ebebeb"></rect><rect x="381.41" y="166.37" width="5.75" height="24.7" transform="translate(768.57 357.45) rotate(180)" style="fill:#ebebeb"></rect><rect x="347.73" y="166.06" width="5.75" height="24.7" transform="translate(665.81 413.79) rotate(-170.22)" style="fill:#ebebeb"></rect><rect x="402.08" y="169.63" width="5.75" height="21.45" transform="translate(809.9 360.71) rotate(180)" style="fill:#ebebeb"></rect><rect x="388.87" y="169.63" width="5.75" height="21.45" transform="translate(783.49 360.71) rotate(180)" style="fill:#ebebeb"></rect><rect x="355.53" y="169.63" width="5.75" height="21.45" transform="translate(716.81 360.71) rotate(180)" style="fill:#ebebeb"></rect><rect x="371.47" y="169.26" width="5.75" height="21.45" transform="translate(700.74 436.88) rotate(-167.47)" style="fill:#ebebeb"></rect><rect x="397.11" y="165.15" width="2.87" height="25.93" transform="translate(797.09 356.22) rotate(180)" style="fill:#ebebeb"></rect><rect x="362.93" y="165.15" width="2.87" height="25.93" transform="translate(728.73 356.22) rotate(180)" style="fill:#ebebeb"></rect><rect x="303.03" y="171.52" width="28" height="19.33" transform="translate(634.05 362.38) rotate(180)" style="fill:#ebebeb"></rect></g><g id="background-simple"><path d="M113.39,91.6c25.34-12.9,52.19.72,73.43,15.37,19,13.11,37.13,28.83,59.31,36.43,29,9.94,56.32-.4,84.19-8.35,21.59-6.15,47.07-10.49,67.79.77,38.05,20.69,40.66,70.33,32.68,108-22,103.89-153.15,139.34-244.14,111.58a166.58,166.58,0,0,1-41.78-19.25c-39.54-25.51-68.16-68.47-77.14-114.59C59.32,178.35,75.31,111,113.39,91.6Z" style="fill:#407BFF"></path><path d="M113.39,91.6c25.34-12.9,52.19.72,73.43,15.37,19,13.11,37.13,28.83,59.31,36.43,29,9.94,56.32-.4,84.19-8.35,21.59-6.15,47.07-10.49,67.79.77,38.05,20.69,40.66,70.33,32.68,108-22,103.89-153.15,139.34-244.14,111.58a166.58,166.58,0,0,1-41.78-19.25c-39.54-25.51-68.16-68.47-77.14-114.59C59.32,178.35,75.31,111,113.39,91.6Z" style="fill:#fff;opacity:0.9"></path></g><g id="Shadow"><ellipse id="path" cx="250" cy="416.24" rx="193.89" ry="11.32" style="fill:#f5f5f5"></ellipse></g><g id="Device"><rect x="214.92" y="105.08" width="173.6" height="312.25" rx="10.4" style="fill:#407BFF"></rect><rect x="214.92" y="105.08" width="173.6" height="312.25" rx="10.4" style="fill:#fff;opacity:0.4"></rect><path d="M382.67,115.54V406.31a4.25,4.25,0,0,1-4.32,4.25H224.64a3.81,3.81,0,0,1-3.86-3.9V115.19a3.43,3.43,0,0,1,3.31-3.56h38.42a2.7,2.7,0,0,1,2.48,1.73l1.59,3.91a2.68,2.68,0,0,0,2.47,1.71h65.43A2.66,2.66,0,0,0,337,117.3l1.6-3.94a2.69,2.69,0,0,1,2.47-1.73H378.9A3.88,3.88,0,0,1,382.67,115.54Z" style="fill:#263238"></path><rect x="220.78" y="129.79" width="161.89" height="261.5" style="fill:#fff;opacity:0.30000000000000004;isolation:isolate"></rect><rect x="238.62" y="120.68" width="2" height="2.67" transform="translate(479.25 244.02) rotate(180)" style="fill:#fff;opacity:0.6000000000000001;isolation:isolate"></rect><rect x="235.36" y="119.79" width="2" height="3.55" transform="translate(472.73 243.13) rotate(180)" style="fill:#fff;opacity:0.6000000000000001;isolation:isolate"></rect><rect x="232.11" y="118.9" width="2" height="4.44" transform="translate(466.21 242.24) rotate(180)" style="fill:#fff;opacity:0.6000000000000001;isolation:isolate"></rect><rect x="228.85" y="118.01" width="2" height="5.33" transform="translate(459.69 241.35) rotate(180)" style="fill:#fff;opacity:0.6000000000000001;isolation:isolate"></rect><rect x="363.16" y="119.71" width="1.19" height="2.67" style="fill:#fff;opacity:0.6000000000000001;isolation:isolate"></rect><rect x="365.16" y="118.73" width="9.44" height="4.61" transform="translate(739.77 242.08) rotate(180)" style="fill:#fff;opacity:0.6000000000000001;isolation:isolate"></rect><rect x="224.78" y="134.92" width="153.9" height="26.37" style="fill:#407BFF;isolation:isolate"></rect><circle cx="370.06" cy="143.6" r="1.18" style="fill:#fff"></circle><circle cx="370.06" cy="148.1" r="1.18" style="fill:#fff"></circle><circle cx="370.06" cy="152.6" r="1.18" style="fill:#fff"></circle><circle cx="353.1" cy="146.63" r="3.81" style="fill:none;stroke:#fff;stroke-linecap:round;stroke-linejoin:round"></circle><line x1="355.79" y1="149.32" x2="359.85" y2="153.39" style="fill:none;stroke:#fff;stroke-linecap:round;stroke-linejoin:round"></line><rect x="333.54" y="142.35" width="8.08" height="11.5" style="fill:none;stroke:#fff;stroke-linecap:round;stroke-linejoin:round"></rect><line x1="344.63" y1="142.72" x2="339.14" y2="147.95" style="fill:none;stroke:#fff;stroke-linecap:round;stroke-linejoin:round"></line><rect x="233.54" y="142.35" width="15.22" height="11.5" style="fill:none;stroke:#fff;stroke-linecap:round;stroke-linejoin:round"></rect><polyline points="233.54 142.35 241.15 148.1 248.76 142.35" style="fill:none;stroke:#fff;stroke-linecap:round;stroke-linejoin:round"></polyline><rect x="224.78" y="163.55" width="153.9" height="224.04" style="fill:#fff;opacity:0.6000000000000001;isolation:isolate"></rect><line x1="228.85" y1="194.06" x2="374.6" y2="194.06" style="fill:none;stroke:#263238;stroke-linecap:round;stroke-linejoin:round"></line><path d="M250.17,179.5a8.91,8.91,0,1,1-8.91-8.91A8.9,8.9,0,0,1,250.17,179.5Z" style="opacity:0.30000000000000004;isolation:isolate"></path><path d="M243,181.73h0a3.34,3.34,0,1,0-3.39,0h0a4.8,4.8,0,0,0-3.1,4.49,4.39,4.39,0,0,0,.07.82,8.92,8.92,0,0,0,9.47,0,4.39,4.39,0,0,0,.07-.82A4.79,4.79,0,0,0,243,181.73Z" style="fill:#fff"></path><path d="M283.84,177.55H258.25a1.18,1.18,0,0,1-1.18-1.19h0a1.18,1.18,0,0,1,1.18-1.18h25.59a1.18,1.18,0,0,1,1.18,1.18h0A1.18,1.18,0,0,1,283.84,177.55Z" style="opacity:0.30000000000000004;isolation:isolate"></path><path d="M313.84,182.69H258.25a1.19,1.19,0,0,1-1.18-1.19h0a1.18,1.18,0,0,1,1.18-1.19h55.59A1.18,1.18,0,0,1,315,181.5h0A1.19,1.19,0,0,1,313.84,182.69Z" style="opacity:0.30000000000000004;isolation:isolate"></path><line x1="228.85" y1="223.27" x2="374.6" y2="223.27" style="fill:none;stroke:#263238;stroke-linecap:round;stroke-linejoin:round"></line><path d="M250.17,208.71a8.91,8.91,0,1,1-8.91-8.91A8.9,8.9,0,0,1,250.17,208.71Z" style="opacity:0.30000000000000004;isolation:isolate"></path><path d="M243,210.94h0a3.34,3.34,0,1,0-3.39,0h0a4.8,4.8,0,0,0-3.1,4.49,4.39,4.39,0,0,0,.07.82,8.92,8.92,0,0,0,9.47,0,4.39,4.39,0,0,0,.07-.82A4.79,4.79,0,0,0,243,210.94Z" style="fill:#fff"></path><path d="M283.84,206.75H258.25a1.18,1.18,0,0,1-1.18-1.18h0a1.18,1.18,0,0,1,1.18-1.19h25.59a1.18,1.18,0,0,1,1.18,1.19h0A1.18,1.18,0,0,1,283.84,206.75Z" style="opacity:0.30000000000000004;isolation:isolate"></path><path d="M313.84,211.89H258.25a1.18,1.18,0,0,1-1.18-1.19h0a1.18,1.18,0,0,1,1.18-1.18h55.59A1.18,1.18,0,0,1,315,210.7h0A1.18,1.18,0,0,1,313.84,211.89Z" style="opacity:0.30000000000000004;isolation:isolate"></path><line x1="228.85" y1="252.47" x2="374.6" y2="252.47" style="fill:none;stroke:#263238;stroke-linecap:round;stroke-linejoin:round"></line><path d="M250.17,237.91a8.91,8.91,0,1,1-8.91-8.91A8.9,8.9,0,0,1,250.17,237.91Z" style="opacity:0.30000000000000004;isolation:isolate"></path><path d="M243,240.14h0a3.34,3.34,0,1,0-3.39,0h0a4.8,4.8,0,0,0-3.1,4.49,4.39,4.39,0,0,0,.07.82,8.92,8.92,0,0,0,9.47,0,4.39,4.39,0,0,0,.07-.82A4.79,4.79,0,0,0,243,240.14Z" style="fill:#fff"></path><path d="M283.84,236H258.25a1.18,1.18,0,0,1-1.18-1.19h0a1.19,1.19,0,0,1,1.18-1.19h25.59a1.19,1.19,0,0,1,1.18,1.19h0A1.18,1.18,0,0,1,283.84,236Z" style="opacity:0.30000000000000004;isolation:isolate"></path><path d="M313.84,241.09H258.25a1.18,1.18,0,0,1-1.18-1.18h0a1.18,1.18,0,0,1,1.18-1.19h55.59a1.18,1.18,0,0,1,1.18,1.19h0A1.18,1.18,0,0,1,313.84,241.09Z" style="opacity:0.30000000000000004;isolation:isolate"></path><line x1="228.85" y1="281.67" x2="374.6" y2="281.67" style="fill:none;stroke:#263238;stroke-linecap:round;stroke-linejoin:round"></line><path d="M250.17,267.12a8.91,8.91,0,1,1-8.91-8.91A8.9,8.9,0,0,1,250.17,267.12Z" style="opacity:0.30000000000000004;isolation:isolate"></path><path d="M243,269.35h0a3.34,3.34,0,1,0-3.39,0h0a4.8,4.8,0,0,0-3.1,4.49,4.39,4.39,0,0,0,.07.82,8.92,8.92,0,0,0,9.47,0,4.39,4.39,0,0,0,.07-.82A4.79,4.79,0,0,0,243,269.35Z" style="fill:#fff"></path><path d="M283.84,265.16H258.25a1.18,1.18,0,0,1-1.18-1.19h0a1.18,1.18,0,0,1,1.18-1.18h25.59A1.18,1.18,0,0,1,285,264h0A1.18,1.18,0,0,1,283.84,265.16Z" style="opacity:0.30000000000000004;isolation:isolate"></path><path d="M313.84,270.3H258.25a1.18,1.18,0,0,1-1.18-1.19h0a1.19,1.19,0,0,1,1.18-1.19h55.59a1.19,1.19,0,0,1,1.18,1.19h0A1.18,1.18,0,0,1,313.84,270.3Z" style="opacity:0.30000000000000004;isolation:isolate"></path><line x1="228.85" y1="310.88" x2="374.6" y2="310.88" style="fill:none;stroke:#263238;stroke-linecap:round;stroke-linejoin:round"></line><path d="M250.17,296.32a8.91,8.91,0,1,1-8.91-8.91A8.9,8.9,0,0,1,250.17,296.32Z" style="opacity:0.30000000000000004;isolation:isolate"></path><path d="M243,298.55h0a3.34,3.34,0,1,0-3.39,0h0a4.8,4.8,0,0,0-3.1,4.49,4.39,4.39,0,0,0,.07.82,8.92,8.92,0,0,0,9.47,0,4.39,4.39,0,0,0,.07-.82A4.79,4.79,0,0,0,243,298.55Z" style="fill:#fff"></path><path d="M283.84,294.37H258.25a1.19,1.19,0,0,1-1.18-1.19h0a1.18,1.18,0,0,1,1.18-1.19h25.59a1.18,1.18,0,0,1,1.18,1.19h0A1.19,1.19,0,0,1,283.84,294.37Z" style="opacity:0.30000000000000004;isolation:isolate"></path><path d="M313.84,299.5H258.25a1.18,1.18,0,0,1-1.18-1.18h0a1.18,1.18,0,0,1,1.18-1.19h55.59a1.18,1.18,0,0,1,1.18,1.19h0A1.18,1.18,0,0,1,313.84,299.5Z" style="opacity:0.30000000000000004;isolation:isolate"></path><line x1="228.85" y1="340.08" x2="374.6" y2="340.08" style="fill:none;stroke:#263238;stroke-linecap:round;stroke-linejoin:round"></line><path d="M250.17,325.52a8.91,8.91,0,1,1-8.91-8.91A8.9,8.9,0,0,1,250.17,325.52Z" style="opacity:0.30000000000000004;isolation:isolate"></path><path d="M243,327.75h0a3.34,3.34,0,1,0-3.39,0h0a4.8,4.8,0,0,0-3.1,4.49,4.39,4.39,0,0,0,.07.82,8.92,8.92,0,0,0,9.47,0,4.39,4.39,0,0,0,.07-.82A4.79,4.79,0,0,0,243,327.75Z" style="fill:#fff"></path><path d="M283.84,323.57H258.25a1.18,1.18,0,0,1-1.18-1.19h0a1.18,1.18,0,0,1,1.18-1.18h25.59a1.18,1.18,0,0,1,1.18,1.18h0A1.18,1.18,0,0,1,283.84,323.57Z" style="opacity:0.30000000000000004;isolation:isolate"></path><path d="M313.84,328.71H258.25a1.19,1.19,0,0,1-1.18-1.19h0a1.18,1.18,0,0,1,1.18-1.19h55.59a1.18,1.18,0,0,1,1.18,1.19h0A1.19,1.19,0,0,1,313.84,328.71Z" style="opacity:0.30000000000000004;isolation:isolate"></path><line x1="228.85" y1="369.29" x2="374.6" y2="369.29" style="fill:none;stroke:#263238;stroke-linecap:round;stroke-linejoin:round"></line><path d="M250.17,354.73a8.91,8.91,0,1,1-8.91-8.91A8.9,8.9,0,0,1,250.17,354.73Z" style="opacity:0.30000000000000004;isolation:isolate"></path><path d="M243,357h0a3.34,3.34,0,1,0-3.39,0h0a4.8,4.8,0,0,0-3.1,4.49,4.39,4.39,0,0,0,.07.82,8.92,8.92,0,0,0,9.47,0,4.39,4.39,0,0,0,.07-.82A4.79,4.79,0,0,0,243,357Z" style="fill:#fff"></path><path d="M283.84,352.77H258.25a1.18,1.18,0,0,1-1.18-1.18h0a1.18,1.18,0,0,1,1.18-1.19h25.59a1.18,1.18,0,0,1,1.18,1.19h0A1.18,1.18,0,0,1,283.84,352.77Z" style="opacity:0.30000000000000004;isolation:isolate"></path><path d="M313.84,357.91H258.25a1.18,1.18,0,0,1-1.18-1.19h0a1.18,1.18,0,0,1,1.18-1.18h55.59a1.18,1.18,0,0,1,1.18,1.18h0A1.18,1.18,0,0,1,313.84,357.91Z" style="opacity:0.30000000000000004;isolation:isolate"></path><circle cx="361.26" cy="180.14" r="4.6" style="fill:#407BFF"></circle><path d="M362,178.16v4.46h-1V179h-.9v-.82Z" style="fill:#fff"></path><circle cx="361.26" cy="208.7" r="4.6" style="fill:#407BFF"></circle><path d="M363.4,210.25h-.73v.93h-1v-.93h-2.4v-.7l2.1-2.83h1.09l-1.95,2.68h1.19v-.83h1v.83h.73Z" style="fill:#fff"></path><circle cx="361.26" cy="237.27" r="4.6" style="fill:#407BFF"></circle><path d="M363,238.9v.85h-3.37v-.67l1.72-1.63c.39-.38.46-.61.46-.82s-.24-.56-.71-.56a1.11,1.11,0,0,0-.93.45l-.75-.49a2.09,2.09,0,0,1,1.77-.83c1,0,1.66.51,1.66,1.32a1.78,1.78,0,0,1-.74,1.41l-1,1Z" style="fill:#fff"></path><circle cx="361.26" cy="265.83" r="4.6" style="fill:#407BFF"></circle><path d="M362,263.84v4.47h-1v-3.64h-.89v-.83Z" style="fill:#fff"></path><circle cx="361.26" cy="294.39" r="4.6" style="fill:#407BFF"></circle><path d="M362,292.41v4.46h-1v-3.64h-.89v-.82Z" style="fill:#fff"></path><circle cx="248.76" cy="151.42" r="4.6" style="fill:#fff"></circle><path d="M250.54,151.58a2.17,2.17,0,0,1-2.28,2.4,2.34,2.34,0,0,1-1.23-.31l.38-.76a1.41,1.41,0,0,0,.83.23,1.19,1.19,0,0,0,1.26-1.3,1.52,1.52,0,0,1-1.11.4,1.42,1.42,0,0,1-1.54-1.39,1.54,1.54,0,0,1,1.69-1.49C249.78,149.36,250.54,150.13,250.54,151.58Zm-1.15-.78c0-.39-.29-.67-.78-.67a.67.67,0,1,0,0,1.34A.7.7,0,0,0,249.39,150.8Z" style="fill:#263238"></path><rect x="298.52" y="396.54" width="6.42" height="6.42" rx="1.94" style="fill:none;stroke:#fff;stroke-miterlimit:10"></rect><path d="M301.7,112a2.22,2.22,0,1,1-2.22-2.22A2.22,2.22,0,0,1,301.7,112Z" style="opacity:0.6000000000000001;isolation:isolate"></path><path d="M306.2,112a1.43,1.43,0,1,1-1.43-1.42A1.42,1.42,0,0,1,306.2,112Z" style="opacity:0.6000000000000001;isolation:isolate"></path><path d="M376,111.63,220.78,266.87V115.19a3.43,3.43,0,0,1,3.3-3.56h38.43a2.7,2.7,0,0,1,2.48,1.73l1.59,3.91a2.68,2.68,0,0,0,2.47,1.71h65.43A2.66,2.66,0,0,0,337,117.3l1.6-3.94a2.69,2.69,0,0,1,2.47-1.73Z" style="fill:#fff;opacity:0.2"></path><polygon points="382.67 124.64 382.67 146.23 220.78 308.12 220.78 286.52 382.67 124.64" style="fill:#fff;opacity:0.2"></polygon></g><g id="Character"><polygon points="100.21 417.33 101.84 417.33 112.38 323.25 108.89 323.76 100.21 417.33" style="fill:#263238"></polygon><polygon points="159.77 323.76 156.28 323.25 166.81 417.33 168.45 417.33 159.77 323.76" style="fill:#263238"></polygon><g style="opacity:0.1"><polygon points="107.69 336.75 100.21 417.33 101.84 417.33 110.87 336.75 107.69 336.75" style="fill:#fff"></polygon><polygon points="157.79 336.75 166.81 417.33 168.45 417.33 160.97 336.75 157.79 336.75" style="fill:#fff"></polygon></g><path d="M168.45,417.33l-18.71-55.44,10-38.13-3.49-.51-8.17,33.8-11.41-33.8-2.37.35-2.38-.35-11.4,33.8-8.17-33.8-3.49.51,10,38.13-18.71,55.44h1.63l18.27-50.88,13.38,50.88h1.68l13.37-50.88,18.27,50.88Zm-34.12-3.28-12.6-52.11,12.6-35.07,12.59,35.07Z" style="fill:#263238"></path><path d="M109.77,314.53h49.12a3.66,3.66,0,0,1,3.66,3.66v6.62a0,0,0,0,1,0,0H106.11a0,0,0,0,1,0,0v-6.62A3.66,3.66,0,0,1,109.77,314.53Z" style="fill:#263238"></path><path d="M105.34,320.86h58a1.06,1.06,0,0,1,1.06,1.06v3.69a1.05,1.05,0,0,1-1.05,1.05h-58a1.05,1.05,0,0,1-1.05-1.05v-3.69A1.06,1.06,0,0,1,105.34,320.86Z" style="fill:#263238"></path><path d="M105.34,320.86h58a1.06,1.06,0,0,1,1.06,1.06v3.69a1.05,1.05,0,0,1-1.05,1.05h-58a1.05,1.05,0,0,1-1.05-1.05v-3.69A1.06,1.06,0,0,1,105.34,320.86Z" style="fill:#fff;opacity:0.5"></path><path d="M158.09,330.16l-3.5.07-6.48,26.82-9-26.65H135.6l11.32,31.53-12.59,52.11-12.6-52.11,11.33-31.53-3.51,0-9,26.67L114,330c-1.23-.06-2.41-.13-3.53-.21l8.45,32.14-18.71,55.44h1.63l18.27-50.88,13.38,50.88h1.68l13.37-50.88,18.27,50.88h1.64l-18.71-55.44Z" style="fill:#fff;opacity:0.30000000000000004"></path><path d="M210.69,184.41c-1-.49-9.12,2.29-10.23,3.06s-1.35,3.33-1.35,3.33l-8.72,10.41c-8.88,11.67-37.94,13.63-37.94,13.63l1,9.46s31.19-4.61,39.71-17.19l9.51-13.31c.77.07,8.18-1.53,9.52-2.57S211.74,184.89,210.69,184.41Z" style="fill:#eec1bb"></path><path d="M124,227.21s-7.61,20.26-13.34,23.13c-7.66,3.83-21-16.66-21-16.66l3.92-2.23s10.92,11.51,14.06,10.19,6.89-16.23,6.89-16.23Z" style="fill:#eec1bb"></path><path d="M114.79,222.67s8.57,2.32,10.21,9.64l-6.24,9.89L108.39,239S112.31,223.6,114.79,222.67Z" style="fill:#263238"></path><path d="M156.85,212.51c3-.84,9.49-.71,9.49-.22s-2.92,11.64-2.92,11.64l-8.31,5.94Z" style="fill:#263238"></path><path d="M115.84,194.79s-1.47,13.83,3.65,17.23,30.33-.58,33.19-6.15-7.9-20.67-7.9-20.67Z" style="fill:#263238"></path><polygon points="223.22 376.65 216.65 378.24 213.32 369.16 210.3 360.9 217.79 357.71 220.67 367.73 223.22 376.65" style="fill:#eec1bb"></polygon><polygon points="220.67 367.73 213.32 369.16 210.3 360.9 217.79 357.71 220.67 367.73" style="opacity:0.2;isolation:isolate"></polygon><path d="M220,362.94l-9.12,3.39s-24.33-60.83-29.33-61-55.91,23.19-68.67,10.21,5.69-44.24,5.69-44.24,30.69-4.38,33,2.55a48.61,48.61,0,0,1,1.3,6.22c.35,2.12.59,3.9.59,3.9h0c.95-.24,31.76-8.19,43.9,0C209.72,292.27,220,362.94,220,362.94Z" style="fill:#407BFF"></path><polygon points="167.55 402.6 161 400.93 162.26 391.52 163.43 382.9 171.53 383.63 169.43 393.68 167.55 402.6" style="fill:#eec1bb"></polygon><polygon points="169.38 393.88 162.21 391.7 163.41 382.99 171.52 383.68 169.38 393.88" style="opacity:0.2;isolation:isolate"></polygon><polygon points="207.12 362.95 220.4 358.44 220.97 363.88 210.9 367.44 207.12 362.95" style="fill:#263238"></polygon><path d="M134.93,318.62s2.08.05,34.27-1.45c0,0-4.82,40.24-7.44,70.37l9.63,1.64s23-64.51,22.75-74.76-12-13.25-12-13.25S159.2,314.42,134.93,318.62Z" style="fill:#407BFF"></path><path d="M134.93,318.62s2.08.05,34.27-1.45c0,0-4.82,40.24-7.44,70.37l9.63,1.64s23-64.51,22.75-74.76-12-13.25-12-13.25S159.2,314.42,134.93,318.62Z" style="opacity:0.2;isolation:isolate"></path><polygon points="160.35 384.62 173.58 386.13 171.03 391.31 160.32 389.94 160.35 384.62" style="fill:#263238"></polygon><path d="M153.47,283.93l-17.95,3.74s9.92-5.48,17.36-7.64C153.23,282.15,153.47,283.93,153.47,283.93Z" style="opacity:0.2;isolation:isolate"></path><polygon points="119.32 266.49 118.58 271.26 151.58 273.81 152.45 268.16 119.32 266.49"></polygon><rect x="128.51" y="266.07" width="1.64" height="8.35" transform="translate(28.31 -11.81) rotate(5.87)" style="fill:#407BFF"></rect><rect x="137.32" y="267.92" width="7.24" height="5.49" transform="translate(17.65 -8.48) rotate(3.68)" style="fill:#fff"></rect><rect x="148.78" y="266.96" width="1.64" height="8.35" transform="translate(28.53 -13.89) rotate(5.87)" style="fill:#407BFF"></rect><path d="M234.11,389.43a8.94,8.94,0,0,0-3.17-.81h0s-3.8-2.23-7.56-10.92l-4.24,0a3.48,3.48,0,0,0-3.25,2.33,1.87,1.87,0,0,0-.12.58,22.39,22.39,0,0,0,.33,3.05,84.35,84.35,0,0,0,2.47,10l.72-.18L218,387.1c-.43-2.14,1.83-.07,2.87,2.09s2.65,4.35,7.33,3.28C233.62,391.19,235.82,390.41,234.11,389.43Z" style="fill:#407BFF"></path><path d="M222.61,375.43s5.28,11.06,8.33,13.19c0,0-4.08,2.43-8.33-3-5.49-7-6.84-5.05-6.84-5.05a19.75,19.75,0,0,1,.66-3.57C217.26,374.76,222.61,375.43,222.61,375.43Z" style="fill:#eec1bb"></path><path d="M175.89,415.78a9.25,9.25,0,0,0-2.89-1.54h0s-3.16-3.07-4.76-12.4l-4.1-1a3.51,3.51,0,0,0-3.72,1.5,2,2,0,0,0-.25.54,23.88,23.88,0,0,0-.41,3,84.76,84.76,0,0,0,0,10.26h.74l.23-6.44c.09-2.19,1.79.36,2.29,2.71s1.55,4.84,6.34,4.91C175,417.38,177.32,417.14,175.89,415.78Z" style="fill:#407BFF"></path><path d="M168,399.45s2.51,12,5,14.79c0,0-4.54,1.4-7.39-4.87-3.67-8.1-5.44-6.52-5.44-6.52a19.12,19.12,0,0,1,1.49-3.31C163,397.54,168,399.45,168,399.45Z" style="fill:#eec1bb"></path><path d="M145.61,188.94s-1.86-21.94-20.2-14c-23,10-4.72,36.74,6.53,31.25S145.61,188.94,145.61,188.94Z" style="fill:#263238"></path><path d="M118.86,224.9c1.31,7.33,2.72,21.25.37,41.9l33.35,1.86s6.06-39.38,4.27-56.15a21.71,21.71,0,0,0-3.77.67,221.7,221.7,0,0,1-29.22,5A5.7,5.7,0,0,0,118.86,224.9Z" style="fill:#263238"></path><path d="M143,217a7.15,7.15,0,0,0-1-.4c-.78-.58-1.76-2-1.82-5.56a29,29,0,0,1,.26-4.17l-9.93-1.54s3.57,6.54.91,11.56c-1,.45-1.6,1.1-1.38,1.88,1,3.47,11.58,7.38,11.58,7.38S149.06,220.09,143,217Z" style="fill:#eec1bb"></path><path d="M140.42,206.87a29,29,0,0,0-.26,4.17c-6.67.2-9.67-5.71-9.67-5.71Z" style="opacity:0.2;isolation:isolate"></path><path d="M147.16,205.23a4.25,4.25,0,0,1-2.35-.72,4.17,4.17,0,0,1-1.79-2.7,4.24,4.24,0,0,1,1.73-4.3.38.38,0,0,1,.52.1.37.37,0,0,1-.09.52,3.48,3.48,0,1,0,1.32-.56.37.37,0,0,1-.44-.29.38.38,0,0,1,.29-.45,4.24,4.24,0,0,1,1.64,8.32A4.67,4.67,0,0,1,147.16,205.23Z" style="fill:#407BFF"></path><g style="opacity:0.5"><path d="M147.16,205.23a4.25,4.25,0,0,1-2.35-.72,4.17,4.17,0,0,1-1.79-2.7,4.24,4.24,0,0,1,1.73-4.3.38.38,0,0,1,.52.1.37.37,0,0,1-.09.52,3.48,3.48,0,1,0,1.32-.56.37.37,0,0,1-.44-.29.38.38,0,0,1,.29-.45,4.24,4.24,0,0,1,1.64,8.32A4.67,4.67,0,0,1,147.16,205.23Z" style="fill:#fff"></path></g><path d="M132.16,179.83c8.33-1.84,12,2,14.5,10.46,3.13,10.55,2.44,18.69-8.47,18.71C123.37,209,118.34,182.89,132.16,179.83Z" style="fill:#eec1bb"></path><path d="M141.18,191a17.72,17.72,0,0,0,3.18,2.91,2.34,2.34,0,0,1-2,1.43Z" style="fill:#d4827d"></path><path d="M135.93,191.46c.17.68-.06,1.33-.52,1.44s-.95-.35-1.12-1,.06-1.32.52-1.44S135.76,190.78,135.93,191.46Z" style="fill:#263238"></path><path d="M134.63,190.51l1.33-.94S135.53,191,134.63,190.51Z" style="fill:#263238"></path><path d="M144.35,189.24c.17.68-.06,1.32-.52,1.44s-1-.35-1.12-1,.07-1.33.52-1.44S144.19,188.56,144.35,189.24Z" style="fill:#263238"></path><path d="M143.05,188.29l1.33-.94S144,188.77,143.05,188.29Z" style="fill:#263238"></path><path d="M134.58,185.74a4.42,4.42,0,0,0-3.33,2" style="fill:none;stroke:#263238;stroke-linecap:round;stroke-linejoin:round;stroke-width:0.7246800000000001px"></path><path d="M140.55,184.05A4,4,0,0,1,144,184" style="fill:none;stroke:#263238;stroke-linecap:round;stroke-linejoin:round;stroke-width:0.7246800000000001px"></path><path d="M126.17,195.87s2.38-7.7.62-12.85c0,0,15-10.39,19.52,6.17,0,0-1.67-15.22-16.06-12.38s-9.68,23.75-.91,28.35C129.34,205.16,124.71,200.68,126.17,195.87Z" style="fill:#263238"></path><path d="M127.92,197.33a3.74,3.74,0,0,0-4.67-2.47c-2.51.85-2.57,6.42,4.12,6.27C128.34,201.11,128.66,200.1,127.92,197.33Z" style="fill:#eec1bb"></path><path d="M143.87,198.52a20.75,20.75,0,0,0-.43,3.1l-.55,0c-2.49.21-3.71-.52-4.31-1.38a3.17,3.17,0,0,1-.52-1.43,3,3,0,0,1,0-.87,11.84,11.84,0,0,0,5,.59C143.54,198.56,143.87,198.52,143.87,198.52Z" style="fill:#263238"></path><path d="M143,198.58l-.15.91c-2.34.19-4,0-4.81-.63a3,3,0,0,1,0-.87A11.84,11.84,0,0,0,143,198.58Z" style="fill:#fff"></path><path d="M142.89,201.67c-2.49.21-3.71-.52-4.31-1.38a8.07,8.07,0,0,1,2.8.31A3,3,0,0,1,142.89,201.67Z" style="fill:#de5753"></path><path d="M132.13,180.5s-.32,14.43-9,16.16.8-18.55.8-18.55,12.9-8.42,21.5-2.48.86,13.56.86,13.56S144.5,178.47,132.13,180.5Z" style="fill:#263238"></path><path d="M131.83,179.54s3.09,9.13-3,13.92" style="fill:none;stroke:#263238;stroke-linecap:round;stroke-linejoin:round;stroke-width:0.5px"></path><path d="M126.22,208.56a4.25,4.25,0,0,1-4.15-3.41,4.25,4.25,0,0,1,1.74-4.3.38.38,0,0,1,.43.62,3.48,3.48,0,1,0,1.31-.56.38.38,0,1,1-.14-.74,4.24,4.24,0,1,1,1.64,8.31A4,4,0,0,1,126.22,208.56Z" style="fill:#407BFF"></path><g style="opacity:0.5"><path d="M126.22,208.56a4.25,4.25,0,0,1-4.15-3.41,4.25,4.25,0,0,1,1.74-4.3.38.38,0,0,1,.43.62,3.48,3.48,0,1,0,1.31-.56.38.38,0,1,1-.14-.74,4.24,4.24,0,1,1,1.64,8.31A4,4,0,0,1,126.22,208.56Z" style="fill:#fff"></path></g><path d="M138.63,215.49c2.9-.49,8.85-2.11,11.75,0s.11,9.63-10,11.87-26.08-4.09-26.08-4.09a12.48,12.48,0,0,1,6.73-4.87C125.46,217.21,133.67,216.35,138.63,215.49Z" style="fill:#eec1bb"></path><path d="M144.41,238.1a.28.28,0,0,1-.17-.07c-.64-.57-15.74-14-15.73-19.71a2.23,2.23,0,0,1,.74-1.76.24.24,0,0,1,.35,0,.25.25,0,0,1,0,.35,1.73,1.73,0,0,0-.57,1.38c0,5.08,13.32,17.31,15.31,19.12.91-1.95,5.72-12.85,3.2-18.9a6.16,6.16,0,0,0-3.88-3.58.26.26,0,0,1-.16-.32.25.25,0,0,1,.32-.16,6.64,6.64,0,0,1,4.18,3.87c2.85,6.83-3.09,19.09-3.35,19.61a.23.23,0,0,1-.17.13Z" style="fill:#407BFF"></path><g style="opacity:0.5"><path d="M144.41,238.1a.28.28,0,0,1-.17-.07c-.64-.57-15.74-14-15.73-19.71a2.23,2.23,0,0,1,.74-1.76.24.24,0,0,1,.35,0,.25.25,0,0,1,0,.35,1.73,1.73,0,0,0-.57,1.38c0,5.08,13.32,17.31,15.31,19.12.91-1.95,5.72-12.85,3.2-18.9a6.16,6.16,0,0,0-3.88-3.58.26.26,0,0,1-.16-.32.25.25,0,0,1,.32-.16,6.64,6.64,0,0,1,4.18,3.87c2.85,6.83-3.09,19.09-3.35,19.61a.23.23,0,0,1-.17.13Z" style="fill:#fff"></path></g><polygon points="143.34 237.3 145.15 237.11 145.96 242.15 145.15 244.06 143.74 242.99 143.34 237.3" style="fill:#407BFF"></polygon><path d="M93.5,232.66s-3,2.48-5.54,1.22-6.34-6.07-6-7.36,3.46-5.33,4.15-5,6.11,6.69,7.38,7.72S93.5,232.66,93.5,232.66Z" style="fill:#eec1bb"></path><path d="M94.26,230.83l-.13,0-5.9-1.51A1.85,1.85,0,0,1,87,228.24l-5.67-13.06,0-.08a.48.48,0,0,1,.53-.58l5.49.73a1.84,1.84,0,0,1,1.47,1.11l5.92,13.8A.48.48,0,0,1,94.26,230.83Z" style="fill:#263238"></path><path d="M94.26,230.83l-.13,0-5.9-1.51A1.85,1.85,0,0,1,87,228.24l-5.67-13.06,0-.08h.07l5.49.72a1.87,1.87,0,0,1,1.47,1.12l5.92,13.8A.32.32,0,0,1,94.26,230.83Z" style="fill:#fff;opacity:0.2"></path></g></svg>