<svg xmlns="http://www.w3.org/2000/svg" viewBox="0 0 500 500"><g id="Floor"><path d="M411.77,255c-89.93-51.92-235.26-51.92-324.6,0s-88.87,136.1,1,188S323.49,495,412.83,443,501.7,306.94,411.77,255Z" style="fill:#f5f5f5"></path></g><g id="Shadows"><path d="M100.59,412.32l104-60a10.41,10.41,0,0,1,10.41,0l10.33,6a3.46,3.46,0,0,1,0,6l-104,60.11a10.4,10.4,0,0,1-10.47,0l-10.31-6.05A3.46,3.46,0,0,1,100.59,412.32Z" style="fill:#e0e0e0"></path><path d="M405.06,412.32l-104-60a10.39,10.39,0,0,0-10.4,0l-10.33,6a3.46,3.46,0,0,0,0,6l104,60.11a10.4,10.4,0,0,0,10.47,0l10.31-6.05A3.47,3.47,0,0,0,405.06,412.32Z" style="fill:#e0e0e0"></path><path d="M436.46,351.07c-7.86-4.53-20.57-4.53-28.38,0s-7.76,11.9.1,16.44,20.56,4.54,28.37,0S444.32,355.61,436.46,351.07Z" style="fill:#e0e0e0"></path><path d="M93.17,344.27c-8.14-4.7-21.28-4.7-29.36,0s-8,12.31.09,17,21.28,4.69,29.36,0S101.3,349,93.17,344.27Z" style="fill:#e0e0e0"></path></g><g id="Plants"><path d="M441.35,325l-19,.56-19-.56c-.82,12.85,1.69,26,5.14,32.35h0a8.66,8.66,0,0,0,3.77,3.83c5.61,3.24,14.69,3.24,20.26,0a8.42,8.42,0,0,0,3.77-3.93C439.68,350.78,442.16,337.75,441.35,325Z" style="fill:#fff"></path><path d="M435.73,317.17c7.46,4.3,7.5,11.28.09,15.59s-19.46,4.3-26.92,0-7.49-11.29-.08-15.59S428.27,312.86,435.73,317.17Z" style="fill:#ebebeb"></path><path d="M432.78,318.88c5.82,3.36,5.85,8.8.07,12.16s-15.18,3.36-21,0-5.85-8.8-.07-12.16S427,315.52,432.78,318.88Z" style="fill:#e0e0e0"></path><g style="opacity:0.15"><path d="M432.78,318.88c5.82,3.36,5.85,8.8.07,12.16s-15.18,3.36-21,0-5.85-8.8-.07-12.16S427,315.52,432.78,318.88Z"></path></g><path d="M453.61,243.75c-42.89,14-43.28,42.73-33.61,63.17,2.44,4.13,9.82,6.35,16.24-19.06L425,289.31l13.12-6.66,3.41-10.19-10.94.81,13.89-5.84A205.69,205.69,0,0,1,453.61,243.75Z" style="fill:#BA68C8"></path><path d="M453.61,243.75c-42.89,14-43.28,42.73-33.61,63.17,2.44,4.13,9.82,6.35,16.24-19.06L425,289.31l13.12-6.66,3.41-10.19-10.94.81,13.89-5.84A205.69,205.69,0,0,1,453.61,243.75Z" style="opacity:0.2"></path><path d="M453.61,243.75c-42.89,14-43.28,42.73-33.61,63.17,2.44,4.13,9.82,6.35,16.24-19.06L425,289.31l13.12-6.66,3.41-10.19-10.94.81,13.89-5.84A205.69,205.69,0,0,1,453.61,243.75Z" style="fill:#fff;opacity:0.2"></path><path d="M441.48,250.92c-22.62,17.17-24.66,36.85-18.27,57.4C421,290.23,418.5,271.93,441.48,250.92Z" style="fill:#fff"></path><path d="M381,272.9c42.27,6,47.4,32.6,41.79,53.24-1.58,4.26-8.09,7.55-18.29-15.05l10.73-.52-13.33-4L397,297.62l10.33-1.06-13.91-3.13A194.4,194.4,0,0,0,381,272.9Z" style="fill:#BA68C8"></path><path d="M381,272.9c42.27,6,47.4,32.6,41.79,53.24-1.58,4.26-8.09,7.55-18.29-15.05l10.73-.52-13.33-4L397,297.62l10.33-1.06-13.91-3.13A194.4,194.4,0,0,0,381,272.9Z" style="fill:#fff;opacity:0.2"></path><path d="M381,272.9c42.27,6,47.4,32.6,41.79,53.24-1.58,4.26-8.09,7.55-18.29-15.05l10.73-.52-13.33-4L397,297.62l10.33-1.06-13.91-3.13A194.4,194.4,0,0,0,381,272.9Z" style="opacity:0.1"></path><path d="M393.46,277.56C417.37,289.79,422.54,307.78,420,328,419.1,310.75,418.34,293.31,393.46,277.56Z" style="fill:#fff"></path><path d="M466,282.88c-38.77.64-46.37,24.09-43.63,43.32.95,4,6.45,7.71,18.17-11.52L430.91,313l12.46-2.13,5.39-7.5-9.19-2.11L452.46,300A176.6,176.6,0,0,1,466,282.88Z" style="fill:#BA68C8"></path><path d="M454.2,285.69c-22.92,8.35-29.6,24-29.57,42.47C427.37,312.74,430,297.1,454.2,285.69Z" style="fill:#fff"></path><path d="M466,282.88c-38.77.64-46.37,24.09-43.63,43.32.95,4,6.45,7.71,18.17-11.52L430.91,313l12.46-2.13,5.39-7.5-9.19-2.11L452.46,300A176.6,176.6,0,0,1,466,282.88Z" style="fill:#fff;opacity:0.2"></path><path d="M98.23,317.25l-19.69.57-19.7-.57c-.85,13.3,1.75,26.85,5.33,33.47h0a9,9,0,0,0,3.9,4c5.81,3.35,15.2,3.35,21,0A8.72,8.72,0,0,0,93,350.62C96.51,344,99.07,330.48,98.23,317.25Z" style="fill:#fff"></path><path d="M92.42,309.18c7.71,4.45,7.75,11.68.09,16.13s-20.14,4.46-27.86,0-7.75-11.67-.09-16.13S84.7,304.73,92.42,309.18Z" style="fill:#ebebeb"></path><path d="M89.36,311c6,3.48,6.06,9.11.08,12.59s-15.71,3.48-21.73,0-6.06-9.11-.07-12.59S83.34,307.48,89.36,311Z" style="fill:#e0e0e0"></path><g style="opacity:0.15"><path d="M89.36,311c6,3.48,6.06,9.11.08,12.59s-15.71,3.48-21.73,0-6.06-9.11-.07-12.59S83.34,307.48,89.36,311Z"></path></g><path d="M68.49,276.94c-3.2-4-6.92-7.55-9.86-11.73-2-2.85-3.68-6.34-2.84-9.73a8.73,8.73,0,0,1,6.9-6.07,13.23,13.23,0,0,1,9.25,2.07,28.57,28.57,0,0,1,7,6.66,69.46,69.46,0,0,1,14.63,49.62c-.2,2-.53,4.14-1.82,5.71a5.75,5.75,0,0,1-5.89,1.8c-5.37-1.6-4.65-8.84-5.53-13.11a59.92,59.92,0,0,0-6.16-16.73A58.71,58.71,0,0,0,68.49,276.94Z" style="fill:#BA68C8"></path><path d="M68.49,276.94c-3.2-4-6.92-7.55-9.86-11.73-2-2.85-3.68-6.34-2.84-9.73a8.73,8.73,0,0,1,6.9-6.07,13.23,13.23,0,0,1,9.25,2.07,28.57,28.57,0,0,1,7,6.66,69.46,69.46,0,0,1,14.63,49.62c-.2,2-.53,4.14-1.82,5.71a5.75,5.75,0,0,1-5.89,1.8c-5.37-1.6-4.65-8.84-5.53-13.11a59.92,59.92,0,0,0-6.16-16.73A58.71,58.71,0,0,0,68.49,276.94Z" style="fill:#fff;opacity:0.2"></path><path d="M86.19,309.87a.49.49,0,0,1-.38-.44c-.37-8.62-3.17-38-23.43-54.69a.46.46,0,0,1-.06-.66A.47.47,0,0,1,63,254c20.56,16.93,23.39,46.66,23.77,55.37a.47.47,0,0,1-.45.49Z" style="fill:#f0f0f0"></path><path d="M89.15,310.8c-.61,3.38-3.51,7.56-6.57,9.12a18.58,18.58,0,0,1-10,1.67,43.57,43.57,0,0,1-10.1-2.4c-1.63-.55-3.43-1.29-3.61-3.3a3.6,3.6,0,0,1,1.15-2.83,11.53,11.53,0,0,1,1-.9,1,1,0,0,0-.55-1.87,23.11,23.11,0,0,1-2.88-.35,12.68,12.68,0,0,1-6-2.74,10.07,10.07,0,0,1-2.79-4.13c-.49-1.36-.63-3.06.4-4.07a4.54,4.54,0,0,1,2.24-1c.72-.15,1.44-.29,2.16-.4a1,1,0,0,0,.23-1.84l-3.06-1.27a5.69,5.69,0,0,1-2.32-1.44c-.93-1.13-.87-2.77-.58-4.21.37-1.91,1-3.76,1.48-5.65a12.09,12.09,0,0,0,.2-5.79,48.82,48.82,0,0,1,17.12,1.15,12.32,12.32,0,0,1,4.67,2c1.9,1.53,2.4,3.81,2.19,6.29a.45.45,0,0,0,.84.24l2-3.6a2.3,2.3,0,0,1,3-1,14,14,0,0,1,4.47,3.51,7.71,7.71,0,0,1,1.91,5.71,50.71,50.71,0,0,1-1.42,8.39.77.77,0,0,0,1.21.82l.09-.07a2.68,2.68,0,0,1,1.84-.53c1.73.21,2.17,2,2.29,3.45A29.07,29.07,0,0,1,89.15,310.8Z" style="fill:#BA68C8"></path><path d="M89.15,310.8c-.61,3.38-3.51,7.56-6.57,9.12a18.58,18.58,0,0,1-10,1.67,43.57,43.57,0,0,1-10.1-2.4c-1.63-.55-3.43-1.29-3.61-3.3a3.6,3.6,0,0,1,1.15-2.83,11.53,11.53,0,0,1,1-.9,1,1,0,0,0-.55-1.87,23.11,23.11,0,0,1-2.88-.35,12.68,12.68,0,0,1-6-2.74,10.07,10.07,0,0,1-2.79-4.13c-.49-1.36-.63-3.06.4-4.07a4.54,4.54,0,0,1,2.24-1c.72-.15,1.44-.29,2.16-.4a1,1,0,0,0,.23-1.84l-3.06-1.27a5.69,5.69,0,0,1-2.32-1.44c-.93-1.13-.87-2.77-.58-4.21.37-1.91,1-3.76,1.48-5.65a12.09,12.09,0,0,0,.2-5.79,48.82,48.82,0,0,1,17.12,1.15,12.32,12.32,0,0,1,4.67,2c1.9,1.53,2.4,3.81,2.19,6.29a.45.45,0,0,0,.84.24l2-3.6a2.3,2.3,0,0,1,3-1,14,14,0,0,1,4.47,3.51,7.71,7.71,0,0,1,1.91,5.71,50.71,50.71,0,0,1-1.42,8.39.77.77,0,0,0,1.21.82l.09-.07a2.68,2.68,0,0,1,1.84-.53c1.73.21,2.17,2,2.29,3.45A29.07,29.07,0,0,1,89.15,310.8Z" style="opacity:0.2"></path><path d="M89.15,310.8c-.61,3.38-3.51,7.56-6.57,9.12a18.58,18.58,0,0,1-10,1.67,43.57,43.57,0,0,1-10.1-2.4c-1.63-.55-3.43-1.29-3.61-3.3a3.6,3.6,0,0,1,1.15-2.83,11.53,11.53,0,0,1,1-.9,1,1,0,0,0-.55-1.87,23.11,23.11,0,0,1-2.88-.35,12.68,12.68,0,0,1-6-2.74,10.07,10.07,0,0,1-2.79-4.13c-.49-1.36-.63-3.06.4-4.07a4.54,4.54,0,0,1,2.24-1c.72-.15,1.44-.29,2.16-.4a1,1,0,0,0,.23-1.84l-3.06-1.27a5.69,5.69,0,0,1-2.32-1.44c-.93-1.13-.87-2.77-.58-4.21.37-1.91,1-3.76,1.48-5.65a12.09,12.09,0,0,0,.2-5.79,48.82,48.82,0,0,1,17.12,1.15,12.32,12.32,0,0,1,4.67,2c1.9,1.53,2.4,3.81,2.19,6.29a.45.45,0,0,0,.84.24l2-3.6a2.3,2.3,0,0,1,3-1,14,14,0,0,1,4.47,3.51,7.71,7.71,0,0,1,1.91,5.71,50.71,50.71,0,0,1-1.42,8.39.77.77,0,0,0,1.21.82l.09-.07a2.68,2.68,0,0,1,1.84-.53c1.73.21,2.17,2,2.29,3.45A29.07,29.07,0,0,1,89.15,310.8Z" style="fill:#fff;opacity:0.2"></path><path d="M80.08,319.45a69.88,69.88,0,0,0-4.61-13.34.43.43,0,0,0-.16-.35c-.1-.23-.21-.46-.32-.7a43.05,43.05,0,0,1,4.56-15.27.47.47,0,0,0-.17-.64.46.46,0,0,0-.64.17,43.67,43.67,0,0,0-4.5,14.2c-3.89-7.82-10.11-17-19.71-23.63a.47.47,0,0,0-.65.11.48.48,0,0,0,.12.66c9.89,6.88,16.14,16.43,19.94,24.36a28.71,28.71,0,0,0-16.32-2.21.47.47,0,0,0-.37.55.48.48,0,0,0,.37.37h.18c.09,0,9-1.64,16.79,2.69a69,69,0,0,1,4.57,13.21.47.47,0,0,0,.37.37h.18A.47.47,0,0,0,80.08,319.45Z" style="fill:#f0f0f0"></path></g><g id="speech-bubble-2"><path d="M387.91,62.89A7.76,7.76,0,0,0,385,60L345.42,37.25c-3.47-2-11.68.71-11.68,6.28v35.9a7.74,7.74,0,0,0,3.9,6.72l30.56,17.46h0l-5.28-3,2.53,7.19a.43.43,0,0,0,.53.26v0c.45-.23,2.44-1.3,3.57-2l0,0,.08,0v0s.08,0,.1-.09l.62-1,6.89,3.93a7.63,7.63,0,0,0,11.67-6.28V66.68A7.71,7.71,0,0,0,387.91,62.89Z" style="fill:#BA68C8"></path><path d="M369.73,105.85s-.06.06-.1.09v0l-.08,0,0,0c-1.13.75-3.12,1.82-3.57,2v0a.41.41,0,0,0,.25-.18l2.45-4-.48-.28h0l2.15,1.23Z" style="fill:#fff;opacity:0.2"></path><path d="M380.22,67.26a7.76,7.76,0,0,0-2.07-2.59h0a8.64,8.64,0,0,0-.94-.64L337.6,41.3a2.57,2.57,0,0,0-3.86,2.23c0-5.57,8.21-8.27,11.68-6.28L385,60a7.76,7.76,0,0,1,2.88,2.92Z" style="fill:#fff;opacity:0.4"></path><path d="M381.09,106.54V70.73a7,7,0,0,0-.06-.92,8.09,8.09,0,0,0-.81-2.55l7.69-4.37a7.71,7.71,0,0,1,1,3.79v35.81a7.63,7.63,0,0,1-11.67,6.28A2.57,2.57,0,0,0,381.09,106.54Z" style="fill:#fff;opacity:0.2"></path><path d="M350.47,61.07c-1.58-.91-3.16-1.13-4.36-.44-2.43,1.37-2.44,5.86,0,10l1.4,2.44,8.69,15,8.76-5,1.41-.82c2.42-1.37,2.43-5.85,0-10A12.48,12.48,0,0,0,362,67.74c-1.58-.91-3.16-1.13-4.36-.45l-1.42.8-1.4-2.43A12.66,12.66,0,0,0,350.47,61.07Z" style="fill:#fff"></path></g><g id="speech-bubble-1"><path d="M112.09,62.89A7.76,7.76,0,0,1,115,60l39.61-22.72c3.47-2,11.68.71,11.68,6.28v35.9a7.74,7.74,0,0,1-3.9,6.72L131.8,103.61h0l5.28-3-2.53,7.19a.43.43,0,0,1-.53.26v0c-.45-.23-2.44-1.3-3.57-2l0,0-.08,0v0s-.08,0-.1-.09l-.62-1-6.89,3.93a7.63,7.63,0,0,1-11.67-6.28V66.68A7.71,7.71,0,0,1,112.09,62.89Z" style="fill:#BA68C8"></path><path d="M130.27,105.85s.06.06.1.09v0l.08,0,0,0c1.13.75,3.12,1.82,3.57,2v0a.41.41,0,0,1-.25-.18l-2.45-4,.48-.28h0l-2.15,1.23Z" style="fill:#fff;opacity:0.2"></path><path d="M119.78,67.26a7.76,7.76,0,0,1,2.07-2.59h0a8.64,8.64,0,0,1,.94-.64L162.4,41.3a2.57,2.57,0,0,1,3.86,2.23c0-5.57-8.21-8.27-11.68-6.28L115,60a7.76,7.76,0,0,0-2.88,2.92Z" style="fill:#fff;opacity:0.4"></path><path d="M118.91,106.54V70.73a7,7,0,0,1,.06-.92,8.09,8.09,0,0,1,.81-2.55l-7.69-4.37a7.71,7.71,0,0,0-1,3.79v35.81a7.63,7.63,0,0,0,11.67,6.28A2.57,2.57,0,0,1,118.91,106.54Z" style="fill:#fff;opacity:0.2"></path><path d="M149.53,61.07c1.58-.91,3.16-1.13,4.36-.44,2.43,1.37,2.44,5.86,0,10l-1.4,2.44-8.69,15-8.76-5-1.41-.82c-2.42-1.37-2.43-5.85,0-10A12.48,12.48,0,0,1,138,67.74c1.58-.91,3.16-1.13,4.36-.45l1.42.8,1.4-2.43A12.66,12.66,0,0,1,149.53,61.07Z" style="fill:#fff"></path></g><g id="character-2"><path d="M286.31,97.43h0c.76-2.66,6.17-7.72,11.55-7.62a4.78,4.78,0,0,1,1.51.3l104.47,59.44a10.09,10.09,0,0,1,5.05,8.68v226c0,5.76-6.64,11.25-12.87,8.61,0,0,0,0,0,0a3.33,3.33,0,0,1-.4-.16L291.09,333.09a10,10,0,0,1-5-8.68V98.52A2.41,2.41,0,0,1,286.31,97.43Z" style="fill:#BA68C8"></path><path d="M394.31,182.11a5,5,0,0,0-2.53-4.34l-97-55.19a2.5,2.5,0,0,0-3.74,2.17V307a5,5,0,0,0,2.53,4.35l97,55.28a2.51,2.51,0,0,0,3.74-2.18Z" style="fill:#BA68C8"></path><path d="M394.31,182.11a5,5,0,0,0-2.53-4.34l-97-55.19a2.5,2.5,0,0,0-3.74,2.17V307a5,5,0,0,0,2.53,4.35l97,55.28a2.51,2.51,0,0,0,3.74-2.18Z" style="fill:#455a64"></path><path d="M408.88,158.22v226c0,5.76-6.64,11.25-12.87,8.61,0,0,0,0,0,0a2.49,2.49,0,0,0,3.33-2.34v-226a10,10,0,0,0-1.68-5.52l10.23-5.11A10.07,10.07,0,0,1,408.88,158.22Z" style="opacity:0.30000000000000004"></path><path d="M297.85,89.8a4.78,4.78,0,0,1,1.51.3l104.47,59.44a10,10,0,0,1,4,4.3L397.62,159a10,10,0,0,0-3.37-3.17L289.78,96.34a2.5,2.5,0,0,0-3.47,1.09h0C287.06,94.76,292.47,89.7,297.85,89.8Z" style="fill:#fff;opacity:0.1"></path><path d="M329.8,133.66c-.74-.42-1.34-.09-1.35.75a3,3,0,0,0,1.34,2.31l20.5,11.84c.73.42,1.32.06,1.33-.78a2.91,2.91,0,0,0-1.32-2.28Z" style="fill:#263238"></path><path d="M355.56,148.54c-.73-.43-1.33-.09-1.33.75a3,3,0,0,0,1.32,2.31.83.83,0,0,0,1.35-.77A2.94,2.94,0,0,0,355.56,148.54Z" style="fill:#263238"></path><path d="M342.44,131.94c-1.47-.85-2.65-.17-2.65,1.51a5.86,5.86,0,0,0,2.63,4.61c1.47.84,2.68.15,2.69-1.53A5.87,5.87,0,0,0,342.44,131.94Z" style="fill:#263238"></path><path d="M342.43,344.69c-3-1.73-5.39-.35-5.4,3.08a11.91,11.91,0,0,0,5.37,9.37c3,1.73,5.46.32,5.47-3.12A11.91,11.91,0,0,0,342.43,344.69Z" style="fill:#263238"></path><path d="M363,318.49c10.27,16.06,6.76,36.21,6.76,36.21l-71.22-40.62Z" style="fill:#37474f"></path><polygon points="313.42 240.71 300.19 239.11 284.77 263.45 305.99 266.16 313.42 240.71" style="fill:#ffa8a7"></polygon><polygon points="313.42 240.71 300.19 239.11 284.77 263.45 305.99 266.16 313.42 240.71" style="opacity:0.2"></polygon><path d="M363,318.49c-2.08-4.64-6.54-11.5-8.43-18.24l-53.68.38q-1.38,6.78-2.36,13.45l.07.08,23.81,13.57C338.79,329.77,356.16,322.27,363,318.49Z" style="fill:#ffa8a7"></path><path d="M330.42,318.4c4.67.28,9.53-2.55,11.07-7a57.22,57.22,0,0,0,15.14-5.5,41.89,41.89,0,0,1-2.11-5.67l-53.68.38c-.23,1.15-.43,2.29-.65,3.44a35.38,35.38,0,0,0,18.44,6.84A15.48,15.48,0,0,0,330.42,318.4Z" style="opacity:0.2"></path><path d="M303.89,223.58a11.47,11.47,0,0,1,.48-4.36c.38-1.24,4.48-8.3,4.06-8.81a18.4,18.4,0,0,1-.3-23.23,6.22,6.22,0,0,1,2.09-11.78c2.27-.21,4.43.84,6.6,1.5a32.45,32.45,0,0,0,11.5.94c3.85-.23,7.7-.74,11.57-.7a23.27,23.27,0,0,1,11.18,2.54,12.69,12.69,0,0,1,6.62,9c5.79-.64,12,4.55,12.6,10.35.57,5.62-3.16,10.9-3.11,16.55,0,3.83,1.79,7.45,4,10.54s5,5.81,7.34,8.81a45.94,45.94,0,0,1,9.71,29.17c-.14,5.88-1.53,11.95-5.21,16.55-7.22,9-24.66,10-35.21,8.73a56.8,56.8,0,0,1-29.42-12.75c-5.75-4.82-10.8-11.69-10-19.15.39-3.5,2-6.72,3.26-10s2-7.06.61-10.3-4.88-5.49-6.82-8.6A11,11,0,0,1,303.89,223.58Z" style="fill:#263238"></path><path d="M316.64,253.16c1.5,1.46,3.7,1.89,5.77,2.06a33.18,33.18,0,0,0,27.43-10.88l-5.81-1,1.56-18.83-21,6.17-.9,10.88-5.21-.43a14.87,14.87,0,0,0-2.86,4.21C314.53,247.91,314.64,251.21,316.64,253.16Z" style="fill:#ffa8a7"></path><path d="M344.12,225c-3.93,7.18-11,13-20.16,13.34l.63-7.61Z" style="opacity:0.2"></path><path d="M343.17,209.72a18.65,18.65,0,0,0-.62,4.75,5.61,5.61,0,0,0,1.32,3.31A3.53,3.53,0,0,0,347,219a6.24,6.24,0,0,1,12.31-1.95,7.84,7.84,0,0,1-1.84,6.36,14.73,14.73,0,0,1-5.55,3.9,5.29,5.29,0,0,1-6.07-3c-6.68,7.16-17.7,12-27.51,10.39a14.08,14.08,0,0,1-7.29-3.27c-3.5-3.2-3.42-7.58-3.53-11.93A61.23,61.23,0,0,1,309,203.1c1.83-7.41,5.78-14.51,12-18.91C323.06,200.8,337.54,208,343.17,209.72Z" style="fill:#ffa8a7"></path><polygon points="322.75 206.16 315.3 213.94 321.41 216.62 322.75 206.16" style="fill:#f28f8f"></polygon><path d="M326.84,221.16l-5.4,1.23a3.25,3.25,0,0,0,3.44,1.9C326.2,224,326.91,222.5,326.84,221.16Z" style="fill:#f28f8f"></path><path d="M326.84,221.16l-5.4,1.23a3.25,3.25,0,0,0,3.44,1.9C326.2,224,326.91,222.5,326.84,221.16Z" style="opacity:0.30000000000000004"></path><path d="M323.16,224.06a3,3,0,0,0,1.72.23,2.64,2.64,0,0,0,1.89-2.25,3.08,3.08,0,0,0-2.07.22A3.12,3.12,0,0,0,323.16,224.06Z" style="fill:#f28f8f"></path><path d="M331.92,208.67a1.89,1.89,0,1,1-1.63-2.11A1.87,1.87,0,0,1,331.92,208.67Z" style="fill:#263238"></path><path d="M316.31,206.05a1.89,1.89,0,1,1-1.63-2.11A1.87,1.87,0,0,1,316.31,206.05Z" style="fill:#263238"></path><path d="M315.44,198.37l-4.51,2.34a2.7,2.7,0,0,1,1.19-2.83A3.17,3.17,0,0,1,315.44,198.37Z" style="fill:#263238"></path><path d="M331.48,200.2q1.88,1.71,3.77,3.4a2.68,2.68,0,0,0-.43-3A3.19,3.19,0,0,0,331.48,200.2Z" style="fill:#263238"></path><path d="M357,303.84c-2.78-6.74,1.19-15.81,7.2-24.7,1.83-2.7,2.5-14.13,2.75-22.53a10.69,10.69,0,0,0-8.9-10.87l-8.22-1.4a33.18,33.18,0,0,1-27.43,10.88c-3.08-.25-6.42-1.08-7.34-5a7.14,7.14,0,0,1,0-3.25,13.06,13.06,0,0,1,3.4-5.88l-5.06-.42c-6.52,4.9-19.82,25.81-21.51,37.51-.85,5.87,3.47,9.15,6.46,11.24a67.87,67.87,0,0,1-.1,10.26c4.39,3,9.62,4.67,14.85,5.79C330.11,309.14,340.62,309.59,357,303.84Z" style="fill:#BA68C8"></path><path d="M357,303.84c-2.78-6.74,1.19-15.81,7.2-24.7,1.83-2.7,2.5-14.13,2.75-22.53a10.69,10.69,0,0,0-8.9-10.87l-8.22-1.4a33.18,33.18,0,0,1-27.43,10.88c-3.08-.25-6.42-1.08-7.34-5a7.14,7.14,0,0,1,0-3.25,13.06,13.06,0,0,1,3.4-5.88l-5.06-.42c-6.52,4.9-19.82,25.81-21.51,37.51-.85,5.87,3.47,9.15,6.46,11.24a67.87,67.87,0,0,1-.1,10.26c4.39,3,9.62,4.67,14.85,5.79C330.11,309.14,340.62,309.59,357,303.84Z" style="opacity:0.2"></path><path d="M294.93,234.33,273.69,276a9.54,9.54,0,0,0,5,13.19h0a9.53,9.53,0,0,0,12.62-6l13.88-44.74Z" style="fill:#ffa8a7"></path><path d="M293.3,238.85c-5.37-6.23-7.16-13.17-6.78-21.28a2.87,2.87,0,0,1,.84-1.89,10.65,10.65,0,0,1,3-2.14,2.83,2.83,0,0,1,4,1.83,48.58,48.58,0,0,0,2.2,6.56,29.73,29.73,0,0,1-.33-8.27,1.91,1.91,0,0,1,2.06-1.74h0a1.87,1.87,0,0,1,1.71,2A23.76,23.76,0,0,0,302.51,226c-.17-2.12,0-3.74,0-5.63a1.69,1.69,0,0,1,1.89-1.66h0a1.69,1.69,0,0,1,1.47,1.36c.42,2.29.7,4.59,1.17,6.87.66,3.15,1.29,6.51.1,9.5a8.33,8.33,0,0,1-5.07,4.78C299.83,242,294.87,240.67,293.3,238.85Z" style="fill:#ffa8a7"></path><path d="M302.51,226a7.39,7.39,0,0,0-1,10.9,7,7,0,0,1-3.59-3.45,5.78,5.78,0,0,1,.07-5A5.26,5.26,0,0,1,302.51,226Z" style="opacity:0.2"></path><path d="M339,282.43A21.91,21.91,0,0,1,312.07,288a16.27,16.27,0,0,0,14.66,5.42C332.07,292.49,337,287.48,339,282.43Z" style="opacity:0.2"></path><path d="M358.06,245.74c-4.94,6.08-14.53,21.32-21.25,32.27l-.94-23.13A21.2,21.2,0,0,0,350.46,242c1.12-3,1.53-6.35-.19-9.16a5.89,5.89,0,0,0-3-2.5c-3.11-1.09-5.57.92-7.18,3.19a57.65,57.65,0,0,1-3.43,5.11c-2.08,2.36-5.05,3.68-7.67,5.43s-5,4.17-5,7.31l-4.57,48.8A11.43,11.43,0,0,0,326,311.59h0a11.43,11.43,0,0,0,13.65-3.2c7-8.64,18.67-23.32,24.17-31.48C372,264.85,376.71,248.53,358.06,245.74Z" style="fill:#ffa8a7"></path><path d="M336.81,278l-11.28,18.26c.71-18.39,11.2-20.13,11.2-20.13Z" style="opacity:0.2"></path><path d="M326.39,249.22c1.61-2,4.39-2.51,6.77-3.49a15.67,15.67,0,0,0,7.7-7c.75-1.42,1.29-2.94,2-4.36a7.93,7.93,0,0,1,3.2-3.48,4.61,4.61,0,0,1,1.51-.44,3.17,3.17,0,0,0-.38-.17c-3.11-1.09-5.57.92-7.18,3.19a57.65,57.65,0,0,1-3.43,5.11c-2.08,2.36-5.05,3.68-7.67,5.43s-5,4.17-5,7.31l-1.13,12.11a89.62,89.62,0,0,0,1.83-8.88C324.94,252.7,325.21,250.71,326.39,249.22Z" style="fill:#fff;opacity:0.2"></path></g><g id="character-1"><path d="M121,410.86h0l-.09,0Z" style="fill:#e6e6e6"></path><path d="M213.69,97.43h0c-.76-2.66-6.17-7.72-11.55-7.62a4.78,4.78,0,0,0-1.51.3L96.17,149.54a10.09,10.09,0,0,0-5,8.68v226c0,5.76,6.64,11.25,12.87,8.61,0,0,0,0,0,0a3.33,3.33,0,0,0,.4-.16l104.48-59.54a10,10,0,0,0,5.05-8.68V98.52A2.41,2.41,0,0,0,213.69,97.43Z" style="fill:#455a64"></path><path d="M105.69,182.11a5,5,0,0,1,2.53-4.34l97-55.19a2.5,2.5,0,0,1,3.74,2.17V307a5,5,0,0,1-2.53,4.35l-97,55.28a2.51,2.51,0,0,1-3.74-2.18Z" style="fill:#BA68C8"></path><path d="M105.69,182.11a5,5,0,0,1,2.53-4.34l97-55.19a2.5,2.5,0,0,1,3.74,2.17V307a5,5,0,0,1-2.53,4.35l-97,55.28a2.51,2.51,0,0,1-3.74-2.18Z" style="opacity:0.2"></path><path d="M91.12,158.22v226c0,5.76,6.64,11.25,12.87,8.61,0,0,0,0,0,0a2.49,2.49,0,0,1-3.33-2.34v-226a10,10,0,0,1,1.68-5.52l-10.23-5.11A10.07,10.07,0,0,0,91.12,158.22Z" style="opacity:0.30000000000000004"></path><path d="M202.15,89.8a4.78,4.78,0,0,0-1.51.3L96.17,149.54a10,10,0,0,0-4,4.3L102.38,159a10,10,0,0,1,3.37-3.17L210.22,96.34a2.5,2.5,0,0,1,3.47,1.09h0C212.94,94.76,207.53,89.7,202.15,89.8Z" style="fill:#fff;opacity:0.1"></path><path d="M170.2,133.66c.74-.42,1.34-.09,1.35.75a3,3,0,0,1-1.34,2.31l-20.5,11.84c-.73.42-1.32.06-1.33-.78a2.91,2.91,0,0,1,1.32-2.28Z" style="fill:#263238"></path><path d="M144.44,148.54c.73-.43,1.33-.09,1.33.75a3,3,0,0,1-1.32,2.31.83.83,0,0,1-1.35-.77A2.94,2.94,0,0,1,144.44,148.54Z" style="fill:#263238"></path><path d="M157.56,131.94c1.47-.85,2.65-.17,2.65,1.51a5.86,5.86,0,0,1-2.63,4.61c-1.47.84-2.68.15-2.69-1.53A5.87,5.87,0,0,1,157.56,131.94Z" style="fill:#263238"></path><path d="M157.57,344.69c3-1.73,5.39-.35,5.4,3.08a11.91,11.91,0,0,1-5.37,9.37c-3,1.73-5.46.32-5.47-3.12A11.91,11.91,0,0,1,157.57,344.69Z" style="fill:#263238"></path><path d="M191,314.84l-64,.84s-1.28,15.36-2.07,42.08l66.46-37.87C191.17,316.71,191,314.84,191,314.84Z" style="fill:#BA68C8"></path><path d="M191,314.84l-64,.84s-1.28,15.36-2.07,42.08l66.46-37.87C191.17,316.71,191,314.84,191,314.84Z" style="opacity:0.5"></path><path d="M266.76,228.19l-27.11,42.47a11.63,11.63,0,0,1-17.11,2.78l-12-9.73L222,246.29l7.33,6.56,20.29-21.75c2-2.11,3.58-4.1,4.25-6.91Z" style="fill:#875554"></path><path d="M186.82,219c10-.57,12.56,4.64,18.86,10.5s18.13,17.27,18.13,17.27a23.67,23.67,0,0,1-13.14,18.56l-21.93-16.18Z" style="fill:#455a64"></path><path d="M229.29,252.85c-2.12,5.16-.42,12-.42,12a15.53,15.53,0,0,1-1.78-14Z" style="fill:#753f3f"></path><path d="M198.41,243.28a26.82,26.82,0,0,0-11.13-17.11l1.46,23,10,7.39C198.8,252.11,199.16,247.65,198.41,243.28Z" style="opacity:0.2"></path><path d="M197.83,187.41a17.71,17.71,0,0,0,3.58-20.34,12.9,12.9,0,0,0,3.69-10,12.66,12.66,0,0,0-5.45-9.09c.55,2.52-1.27,5.7-3.56,6.9a13.33,13.33,0,0,1-7.56,1c-4.08-.41-8-1.55-12.07-2.25s-8.28-.93-12.14.43-7.27,4.6-7.84,8.66c-3.65-1.1-8.45,1.88-10.07,5.33s-1.24,7.53-.1,11.17,3,7,4.36,10.56,2.21,7.49,1.23,11.18a40,40,0,0,0-1.32,4.51,4.21,4.21,0,0,0,1.54,4.18c.25-1,.7-2,.95-3a9.89,9.89,0,0,0,.83,2.24,3.1,3.1,0,0,0,1.69,1.54,1.9,1.9,0,0,0,2.1-.62,9.07,9.07,0,0,0,5.16,6.38,9.42,9.42,0,0,0,8.34-.43,12.16,12.16,0,0,0,4.79-5.59,31,31,0,0,0,2.07-7.17A105.16,105.16,0,0,0,197.83,187.41Z" style="fill:#263238"></path><path d="M125.36,319.5s37.13,13.58,67.28-3.35c0,0-1.83-21.61-2.38-34.2s3.8-36.91,4.46-43.43-.22-17.8-7.9-19.51c-14.25-3-41,0-41,0l-16,17.67C123.07,271.2,124.22,307.45,125.36,319.5Z" style="fill:#455a64"></path><path d="M179.49,208.59l-.79,8.83a3.37,3.37,0,0,0,.5,2,5,5,0,0,1-.78,5.77,6.65,6.65,0,0,1-3.95,1.34,19.09,19.09,0,0,1-14.6-5.63,4.16,4.16,0,0,1-1.15-3l.58-22.41Z" style="fill:#875554"></path><path d="M161.08,196.58l18.41,12-.7,7.83c-4.28-1-8.59-2.23-12-5A16.4,16.4,0,0,1,161.08,196.58Z" style="fill:#753f3f"></path><path d="M199.56,172.59a78.81,78.81,0,0,1-2,30.65,24.13,24.13,0,0,1-2.43,6.29,10.16,10.16,0,0,1-5,4.41c-2.6,1-5.48.51-8.22,0-5-.88-10.13-1.81-14.47-4.43s-7.78-7.38-7.36-12.44a8.72,8.72,0,0,1-8.31.46,8.83,8.83,0,0,1-4.55-7c-.19-2.83,1.45-6,4.23-6.55a6.09,6.09,0,0,1,4.84,1.42,18.16,18.16,0,0,1,3.37,3.93,5.91,5.91,0,0,0,1.68,1.8,2,2,0,0,0,2.32,0,3,3,0,0,0,.66-2.52l-.29-6.42a2.55,2.55,0,0,1,1.42-2.38,6.29,6.29,0,0,0,2.87-3.31,12.91,12.91,0,0,0,.82-3.86,1.57,1.57,0,0,1,2.16-1.34C180,174.72,190.69,174.88,199.56,172.59Z" style="fill:#875554"></path><polygon points="185.46 188.15 191.23 197.85 184.35 199.15 185.46 188.15" style="fill:#753f3f"></polygon><path d="M177.72,202.49,183,205a3.41,3.41,0,0,1-4,1.13C177.7,205.58,177.34,203.85,177.72,202.49Z" style="fill:#f28f8f"></path><path d="M177.72,202.49,183,205a3.41,3.41,0,0,1-4,1.13C177.7,205.58,177.34,203.85,177.72,202.49Z" style="fill:#753f3f"></path><path d="M180.8,206.33a3.14,3.14,0,0,1-1.81-.17,2.78,2.78,0,0,1-1.4-2.75,3.15,3.15,0,0,1,3.21,2.92Z" style="fill:#f28f8f"></path><path d="M175.5,188.53a2,2,0,1,0,2.16-1.76A2,2,0,0,0,175.5,188.53Z" style="fill:#263238"></path><path d="M192.06,189.56a2,2,0,1,0,2.16-1.77A2,2,0,0,0,192.06,189.56Z" style="fill:#263238"></path><path d="M194.76,181.93l4.05,3.45a2.8,2.8,0,0,0-.54-3.17A3.35,3.35,0,0,0,194.76,181.93Z" style="fill:#263238"></path><path d="M178,180l-4.66,2.57a2.8,2.8,0,0,1,1.16-3A3.34,3.34,0,0,1,178,180Z" style="fill:#263238"></path><path d="M271.42,210.31l-2.67-8.11.17-4.06c-3,1.19-4.87,3.08-7.65,7.61s2.4,6,2.4,6c3,5.65,1.34,12.85-1.41,15.47l4.5,1c3.51-1.46,4.1-3.51,5.56-5.71a43.23,43.23,0,0,0,3.56-6.37Z" style="fill:#753f3f"></path><path d="M263.67,211.71q1.17-3.53,2.08-7.1a3,3,0,0,0,0-2.29c-.54-1-2-1.41-3.2-1.71l-5.13,9.6a25.38,25.38,0,0,0-3.57,15.08l8.43,1.89C265,224.56,266.67,217.36,263.67,211.71Z" style="fill:#875554"></path><path d="M274.24,240.51l-1.48-5.77.54-.28-.66-.19-1.29-5,.69-1-.91.21-2.91-11.36c-1.09-4.23-2.21-8.6-2.89-13-.26-1.75-.46-3.52-.61-5.29l.34-.27-.36,0c-.13-1.63-.22-3.26-.28-4.9l.44-.27-.45-.09c-.1-3-.12-5.95-.13-8.88h-1.16c0,2,0,4,.05,6l-.68.06.7.56c0,1.59.08,3.18.17,4.77l-.43.11.45.25c.15,2.73.39,5.45.8,8.15.68,4.45,1.82,8.85,2.91,13.1l3.6,14-.4.2.49.15,1.4,5.45-.78.68,1,0,2,7.66A10.87,10.87,0,0,0,274.24,240.51Z" style="fill:#455a64"></path><path d="M265,185.25a15.61,15.61,0,0,0-14.46,1.16c2.44,1.2,4.74,2.68,7.45,2.68A9.34,9.34,0,0,0,265,185.25Z" style="fill:#455a64"></path><path d="M262.22,185.55a19.59,19.59,0,0,1,14.36-.69,12.05,12.05,0,0,1-7,3.64C267,188.88,263.68,187.79,262.22,185.55Z" style="fill:#455a64"></path><path d="M264.32,168.35c-.19-1.2-1.26-2-2.24-2.75a5.13,5.13,0,0,1-2.33-2.88,9.42,9.42,0,0,0-2.92,7.28,4,4,0,0,0,4.06,1.53C262.46,171.24,264.56,169.92,264.32,168.35Z" style="fill:#BA68C8"></path><path d="M264.32,168.35c-.19-1.2-1.26-2-2.24-2.75a5.13,5.13,0,0,1-2.33-2.88,9.42,9.42,0,0,0-2.92,7.28,4,4,0,0,0,4.06,1.53C262.46,171.24,264.56,169.92,264.32,168.35Z" style="opacity:0.30000000000000004"></path><path d="M269.43,168a30.86,30.86,0,0,1-.42-6.58,19.52,19.52,0,0,0-8.82,11.24c1.07.65,2.14,1.2,3.21,1.85C265.3,172.32,267.53,170.28,269.43,168Z" style="fill:#BA68C8"></path><path d="M269.43,168a30.86,30.86,0,0,1-.42-6.58,19.52,19.52,0,0,0-8.82,11.24c1.07.65,2.14,1.2,3.21,1.85C265.3,172.32,267.53,170.28,269.43,168Z" style="opacity:0.2"></path><path d="M255.47,176.52c.17,2.08-.11,4.27.79,6.16a6.42,6.42,0,0,0,3,2.9,10.25,10.25,0,0,0,4.12.94,6.13,6.13,0,0,0,4.79-1.49,4.82,4.82,0,0,0,1.17-3.2,9.28,9.28,0,0,0-.72-3.39,17.52,17.52,0,0,0-6.62-8.22,17.26,17.26,0,0,0-7.08-2.71c-1-.14-1.82.1-1.94,1.21s.82,2.21,1.28,3.22A13.53,13.53,0,0,1,255.47,176.52Z" style="fill:#BA68C8"></path><path d="M255.47,176.52c.17,2.08-.11,4.27.79,6.16a6.42,6.42,0,0,0,3,2.9,10.25,10.25,0,0,0,4.12.94,6.13,6.13,0,0,0,4.79-1.49,4.82,4.82,0,0,0,1.17-3.2,9.28,9.28,0,0,0-.72-3.39,17.52,17.52,0,0,0-6.62-8.22,17.26,17.26,0,0,0-7.08-2.71c-1-.14-1.82.1-1.94,1.21s.82,2.21,1.28,3.22A13.53,13.53,0,0,1,255.47,176.52Z" style="opacity:0.1"></path><path d="M272.64,164.7c.45-.14,1-.23,1.31.15s-2.48,3.89-1.35,6.92a16.18,16.18,0,0,1,1,5.47,8.42,8.42,0,0,1-3.33,6.73,5.86,5.86,0,0,1-3.28,1.27,5.73,5.73,0,0,1-4.94-3.05A10.59,10.59,0,0,1,261,177a6.65,6.65,0,0,1,1.11-3.7,18.82,18.82,0,0,1,6-6.45A17.76,17.76,0,0,1,272.64,164.7Z" style="fill:#BA68C8"></path><path d="M272.64,164.7c.45-.14,1-.23,1.31.15s-2.48,3.89-1.35,6.92a16.18,16.18,0,0,1,1,5.47,8.42,8.42,0,0,1-3.33,6.73,5.86,5.86,0,0,1-3.28,1.27,5.73,5.73,0,0,1-4.94-3.05A10.59,10.59,0,0,1,261,177a6.65,6.65,0,0,1,1.11-3.7,18.82,18.82,0,0,1,6-6.45A17.76,17.76,0,0,1,272.64,164.7Z" style="opacity:0.05"></path><path d="M263.37,186.52c2.21-.8,5.87-10.55,12.51-11.24a20,20,0,0,1-1.55,6.33,9,9,0,0,1-4.42,4.37A10,10,0,0,1,263.37,186.52Z" style="fill:#BA68C8"></path><path d="M263.37,186.52c-9.61,1.22-9.53-8.78-11.54-10.67A20.83,20.83,0,0,1,263.37,186.52Z" style="fill:#BA68C8"></path><path d="M270.77,217.36a7.45,7.45,0,0,0-1.11,1.5,2,2,0,0,0-.12,1.72,1.82,1.82,0,0,0,1.62,1,3.1,3.1,0,0,0,2-1.08,24.54,24.54,0,0,0,3.25-3.46,2.46,2.46,0,0,0,.59-1.43c0-1.32-1.85-1.87-3.19-1.39a3.11,3.11,0,0,0-1.23,1.06Z" style="fill:#875554"></path><path d="M268.37,212.81a8.49,8.49,0,0,0-1.39,1.87,2.5,2.5,0,0,0-.14,2.13,2.25,2.25,0,0,0,2,1.25,4,4,0,0,0,2.55-1.34,31,31,0,0,0,4-4.32,3.11,3.11,0,0,0,.74-1.77c0-1.64-2.31-2.33-4-1.74a3.92,3.92,0,0,0-1.54,1.33Z" style="fill:#875554"></path><path d="M267.84,207.57a8.91,8.91,0,0,0-1.42,1.92,2.55,2.55,0,0,0-.15,2.2,2.3,2.3,0,0,0,2.07,1.28,4,4,0,0,0,2.62-1.38,31.54,31.54,0,0,0,4.16-4.44,3.18,3.18,0,0,0,.76-1.83c0-1.69-2.38-2.39-4.1-1.79a4.22,4.22,0,0,0-1.58,1.37Z" style="fill:#875554"></path><path d="M265.88,202.5a8.3,8.3,0,0,0-1,2,2.54,2.54,0,0,0,.26,2.13,2.41,2.41,0,0,0,2.23,1,3.59,3.59,0,0,0,2.26-1.64,28.49,28.49,0,0,0,3.18-4.77,2.93,2.93,0,0,0,.38-1.85c-.35-1.61-2.72-2-4.26-1.22a3.59,3.59,0,0,0-1.26,1.51C267.07,200.6,266.48,201.55,265.88,202.5Z" style="fill:#875554"></path><path d="M192.58,315.42l-18.85-27.24-27.11-43.59-12.49-12.7-4.33,4.79c-.69,3.54-1.3,7.1-1.83,10.64l1.95,1.22c2.91,22.54,19.37,59.67,19.37,59.67,8,6.09,18.38,10.91,27,14.27a64,64,0,0,0,16.34-6.33S192.62,315.88,192.58,315.42Z" style="opacity:0.2"></path><path d="M163.72,265.34l10,22.84,31.88,26.24a8.78,8.78,0,0,0,5.91,2,28.69,28.69,0,0,1,7.08.41c1.82.41,3.59,1,5.4,1.43a16.51,16.51,0,0,0,3.89.48,1.57,1.57,0,0,1,1.51,2.2,3.58,3.58,0,0,1-.79,1,6.32,6.32,0,0,1-3.37,1.32,15.41,15.41,0,0,1-5.78-.3c1.67,2.18,4.52,3.56,7.13,4.43s5.34,1.37,7.93,2.28a5.06,5.06,0,0,1,2.55,1.63,2,2,0,0,1-.32,2.72c-1.12.68-2.63-.33-3.85.15a5,5,0,0,1,0,2.12,3,3,0,0,1-1.3,1.73,2.1,2.1,0,0,1-2.1.07,7.68,7.68,0,0,1-4.91,3.32,14.89,14.89,0,0,1-6-.08c-8.26-1.52-13.49-8.72-20-14.07-.93-.76-26-14.57-37.33-20.79a19.3,19.3,0,0,1-8.13-8.66L140.91,272Z" style="fill:#875554"></path><path d="M145.78,219c10.72,12.68,14.74,34.44,20.28,48.45C159.87,279.18,142.61,278,142.61,278,126.81,245.15,120.13,220.34,145.78,219Z" style="fill:#455a64"></path></g></svg>