<svg xmlns="http://www.w3.org/2000/svg" xmlns:xlink="http://www.w3.org/1999/xlink" viewBox="0 0 500 500"><defs><clippath id="clip-path"><path d="M93.38,244.81l4.49,36.44c0,5.84,10.9,10.58,24.35,10.58s24.35-4.74,24.35-10.58l4.49-36.44Z" style="fill:#fff;stroke:#263238;stroke-linecap:round;stroke-linejoin:round"></path></clippath></defs><g id="background-simple"><path d="M399.94,329.83s54.54-63.22,40.53-144.07S354.2,62.58,305.73,67.37,209,119.67,161.64,125.54,42.89,173.2,57.32,252.71,115.6,340,186.58,342.92,358,382.25,399.94,329.83Z" style="fill:#92E3A9"></path><path d="M399.94,329.83s54.54-63.22,40.53-144.07S354.2,62.58,305.73,67.37,209,119.67,161.64,125.54,42.89,173.2,57.32,252.71,115.6,340,186.58,342.92,358,382.25,399.94,329.83Z" style="fill:#fff;opacity:0.7000000000000001"></path></g><g id="Desk"><line x1="65" y1="259" x2="444" y2="259" style="fill:none;stroke:#263238;stroke-linecap:round;stroke-linejoin:round"></line></g><g id="Plant"><ellipse cx="112.18" cy="282.46" rx="32.2" ry="11.95" style="fill:#263238"></ellipse><path d="M93.38,244.81l4.49,36.44c0,5.84,10.9,10.58,24.35,10.58s24.35-4.74,24.35-10.58l4.49-36.44Z" style="fill:#fff"></path><g style="clip-path:url(#clip-path)"><path d="M118,244.81H93.38l4.49,36.44c0,5.84,10.9,10.58,24.35,10.58q1.31,0,2.58-.06C117.13,278.17,117,258.21,118,244.81Z" style="fill:#92E3A9"></path><path d="M118,244.81H93.38l4.49,36.44c0,5.84,10.9,10.58,24.35,10.58q1.31,0,2.58-.06C117.13,278.17,117,258.21,118,244.81Z" style="fill:#fff;opacity:0.4"></path></g><path d="M93.38,244.81l4.49,36.44c0,5.84,10.9,10.58,24.35,10.58s24.35-4.74,24.35-10.58l4.49-36.44Z" style="fill:none;stroke:#263238;stroke-linecap:round;stroke-linejoin:round"></path><ellipse cx="122.22" cy="244.81" rx="28.84" ry="12.53" style="fill:#fff;stroke:#263238;stroke-linecap:round;stroke-linejoin:round"></ellipse><ellipse cx="122.22" cy="244.48" rx="25.77" ry="10.9" style="fill:#263238;stroke:#263238;stroke-linecap:round;stroke-linejoin:round"></ellipse><path d="M124.18,245.61s-2.3-21.22-16.63-37.28-10.82-14.09-10.82-14.09" style="fill:none;stroke:#263238;stroke-linecap:round;stroke-linejoin:round"></path><path d="M150,182.52s-17.2,17.21-20.07,36.71-1,22.65-1,22.65" style="fill:none;stroke:#263238;stroke-linecap:round;stroke-linejoin:round"></path><path d="M127,244.44s-3.36-12-6.8-36.11-1.72-36.7-1.72-36.7" style="fill:none;stroke:#263238;stroke-linecap:round;stroke-linejoin:round"></path><path d="M98.22,200.8s-4.81,5.22-12.21-5-4.94-22.14-4.94-22.14,3.77,5.75,9.48,8.17S104.6,198,98.22,200.8Z" style="fill:#92E3A9"></path><path d="M118.44,177.36s-6.88,1.72-7.45-10.89,8-21.22,8-21.22,0,6.88,3.44,12S125.33,178.51,118.44,177.36Z" style="fill:#92E3A9"></path><path d="M146.83,188.89s-6.7-2.33-.27-13.19,18.34-13.36,18.34-13.36-3.77,5.76-3.72,12S152,193.62,146.83,188.89Z" style="fill:#92E3A9"></path><path d="M126.47,242.74s4.59-20.65,14.34-30.39a31.3,31.3,0,0,1,21.79-9.18s-11.47,4.59-14.91,13.76-9.2,29.25-9.2,29.25H109.85s-3.45-7.45-13.2-16.06-25.81-14.33-25.81-14.33,17.78-6.31,30.4-1.15,21.79,27,21.79,27Z" style="fill:#92E3A9"></path><path d="M130.89,242.69s-11.38-7.81-23.8-6.51-13.45,11.39-14,14.32a33.76,33.76,0,0,0-.51,5.21s16-4.88,25.86-6.51S132.44,252.13,130.89,242.69Z" style="fill:#92E3A9"></path><path d="M126.65,242.69s7.16-7.81,15-6.51,8.46,11.39,8.78,14.32a51.79,51.79,0,0,1,.33,5.21s-10.09-4.88-16.27-6.51S125.67,252.13,126.65,242.69Z" style="fill:#92E3A9"></path></g><g id="Device"><path d="M169.61,117.12H386.07a8.14,8.14,0,0,1,8.14,8.14V276.58a0,0,0,0,1,0,0H161.47a0,0,0,0,1,0,0V125.25A8.14,8.14,0,0,1,169.61,117.12Z" style="fill:#263238;stroke:#263238;stroke-linecap:round;stroke-linejoin:round"></path><polygon points="429.11 347.07 126.56 347.07 161.47 276.58 394.2 276.58 429.11 347.07" style="fill:#fff;stroke:#263238;stroke-linecap:round;stroke-linejoin:round"></polygon><rect x="175.57" y="129.74" width="204.54" height="134.21" style="fill:#92E3A9;stroke:#263238;stroke-linecap:round;stroke-linejoin:round"></rect><circle cx="211.96" cy="204.25" r="28.91" transform="translate(-82.35 209.7) rotate(-45)" style="fill:#263238"></circle><circle cx="278.77" cy="204.25" r="28.91" transform="translate(-62.78 256.94) rotate(-45)" style="fill:#263238"></circle><circle cx="345.58" cy="204.25" r="28.91" transform="translate(-37.34 83.76) rotate(-13.12)" style="fill:#263238"></circle><path d="M192.09,196.88s12.74-34.8,20.23-34.8S233,196.47,233,196.47l-2.23.2s-12.95-30.14-16.79-32-10.93,9.1-19.63,32.17Z" style="fill:#fff;stroke:#263238;stroke-linecap:round;stroke-linejoin:round"></path><path d="M193.38,194.85h38.29a4.32,4.32,0,0,1,4.32,4.32v20.54a3.46,3.46,0,0,1-3.46,3.46h-40a3.46,3.46,0,0,1-3.46-3.46V199.18A4.32,4.32,0,0,1,193.38,194.85Z" style="fill:#fff;stroke:#263238;stroke-linecap:round;stroke-linejoin:round"></path><line x1="189.46" y1="210.03" x2="231.94" y2="210.03" style="fill:#fff;stroke:#263238;stroke-linecap:round;stroke-linejoin:round"></line><path d="M233.77,195.86s-1,1.22-1,4.66-1.21,21.65-1,22.45,1.42.21,1.42.21" style="fill:#fff;stroke:#263238;stroke-linecap:round;stroke-linejoin:round"></path><rect x="209.08" y="205.98" width="3.24" height="7.28" style="fill:#fff;stroke:#263238;stroke-linecap:round;stroke-linejoin:round"></rect><path d="M253.47,187.34s13.51-1.18,29.37-1.18,23.31,1,23.5,2-2.15,13.71-2.15,14.88,0,17.63-.39,18.61-2.16,1.76-2.94,1.95-41.91.59-43.08.59a2.35,2.35,0,0,1-2.16-2.35c0-1.17.59-14.1-.39-18.8S253.47,187.34,253.47,187.34Z" style="fill:#fff;stroke:#263238;stroke-linecap:round;stroke-linejoin:round"></path><path d="M268,193.8s-.2-15.47,1.37-20.76a11,11,0,0,1,10.38-7.83A14.54,14.54,0,0,1,292.83,176c2,7.63.39,17.23.2,18.21s-2.35,3.72-2.75-1.57.4-17.62-1.17-21.15a9.33,9.33,0,0,0-10.18-5.09c-4.12,1-6.27,2.74-7.05,7.83s.78,16.85-.2,19.39S268.35,197.32,268,193.8Z" style="fill:#fff;stroke:#263238;stroke-linecap:round;stroke-linejoin:round"></path><path d="M257.19,187.53s-1,10.38-1,14.3-.2,6.46-.2,6.46" style="fill:#fff;stroke:#263238;stroke-linecap:round;stroke-linejoin:round"></path><path d="M303,187.73s.4,10.38.4,16.45" style="fill:none;stroke:#263238;stroke-linecap:round;stroke-linejoin:round"></path><path d="M353.5,185.74a1,1,0,0,1-1-.86c-1.93-12.07-4.35-25.38-5.59-29.7-1.83,4.08-5.85,17.07-9.18,28.88a1,1,0,0,1-2-.55c0-.08,2.14-7.61,4.46-15.12,4.83-15.66,5.74-16,6.46-16.23a1.19,1.19,0,0,1,1.08.16c.53.39,1.26.92,4.14,16.84,1.39,7.68,2.61,15.32,2.62,15.4a1,1,0,0,1-.85,1.17A.66.66,0,0,1,353.5,185.74Z" style="fill:#fff;stroke:#263238;stroke-linecap:round;stroke-linejoin:round"></path><path d="M321.05,182.38s19.91-1.22,26.77-.95,19.05,1,19,1.79-.29,26-1,31-4.28,11.28-7.38,12.43-13.52.73-18.86.51-10.15-.92-12.55-4.33-4.12-17.73-4.12-17.73Z" style="fill:#fff;stroke:#263238;stroke-linecap:round;stroke-linejoin:round"></path><path d="M336.87,187.86a2,2,0,1,0-2.12,1.95A2,2,0,0,0,336.87,187.86Z" style="fill:#fff;stroke:#263238;stroke-linecap:round;stroke-linejoin:round"></path><circle cx="353.89" cy="188.81" r="2.03" transform="translate(109.58 506.93) rotate(-80.56)" style="fill:#fff;stroke:#263238;stroke-linecap:round;stroke-linejoin:round"></circle><path d="M324.53,215.88s14.3-1.21,40.47.11" style="fill:#fff;stroke:#263238;stroke-linecap:round;stroke-linejoin:round"></path><rect x="178.74" y="133.7" width="197.51" height="16.06" style="fill:#263238"></rect><line x1="274.53" y1="142.85" x2="294.11" y2="142.85" style="fill:none;stroke:#fff;stroke-miterlimit:10;stroke-width:2px"></line><line x1="316.76" y1="142.85" x2="336.34" y2="142.85" style="fill:none;stroke:#fff;stroke-miterlimit:10;stroke-width:2px"></line><path d="M370.06,137.88a.4.4,0,0,0-.33-.17H359l-.41-1.24a.42.42,0,0,0-.4-.28h-2.72a.41.41,0,0,0-.41.41.41.41,0,0,0,.41.42h2.42l2.62,7.87a.42.42,0,0,0,.4.28h.15a1.48,1.48,0,0,0-.23.77,1.44,1.44,0,1,0,2.87,0,1.39,1.39,0,0,0-.23-.77h2a1.47,1.47,0,0,0-.22.77,1.44,1.44,0,1,0,2.87,0,1.48,1.48,0,0,0-.23-.77h.32a.42.42,0,0,0,.42-.42.41.41,0,0,0-.42-.41h-7l-.46-1.38h7.8a.41.41,0,0,0,.4-.3l1.19-4.42A.42.42,0,0,0,370.06,137.88Zm-7.8,8.67a.61.61,0,1,1,.6-.61A.61.61,0,0,1,362.26,146.55Zm4.41,0a.61.61,0,1,1,.6-.61A.6.6,0,0,1,366.67,146.55Zm1.11-4.42h-1.54v-3.58h1.54Zm-3.92-3.58h1.55v3.58h-1.55Zm-.83,3.58h-1.55v-3.58H363Zm-3.76-3.58h1.38v3.58h-.19Zm9.35,2.11v-2.11h.56Z" style="fill:#fff"></path><path d="M373.29,137.62a3.05,3.05,0,1,0-3.05,3A3.06,3.06,0,0,0,373.29,137.62Z" style="fill:#fff"></path><path d="M369,139.5a.37.37,0,0,1-.14-.23.62.62,0,0,1,.16-.56l1.4-1.37a.7.7,0,0,0,.28-.51.39.39,0,0,0-.16-.32.6.6,0,0,0-.38-.12H370l-.18,0-.14.06-.15.09-.13.07a.25.25,0,0,1-.17,0,.3.3,0,0,1-.17-.11.69.69,0,0,1-.1-.19.3.3,0,0,1,0-.21.34.34,0,0,1,.16-.18,2.23,2.23,0,0,1,1.24-.33,1.31,1.31,0,0,1,.92.35,1.06,1.06,0,0,1,.35.8,1.3,1.3,0,0,1-.16.62,1.94,1.94,0,0,1-.5.59l-1.07.85h1.4a.21.21,0,0,1,.19.11.49.49,0,0,1,.07.25.6.6,0,0,1-.07.27.23.23,0,0,1-.19.11h-2A.36.36,0,0,1,369,139.5Z" style="fill:#263238"></path><path d="M258.4,146.55H186.1a4.81,4.81,0,0,1-4.81-4.82h0a4.81,4.81,0,0,1,4.81-4.81h72.3a4.81,4.81,0,0,1,4.81,4.81h0A4.81,4.81,0,0,1,258.4,146.55Z" style="fill:#fff"></path><line x1="197.11" y1="242.16" x2="226.71" y2="242.16" style="fill:none;stroke:#263238;stroke-linecap:round;stroke-linejoin:round;stroke-width:2px"></line><line x1="197.11" y1="247.77" x2="226.71" y2="247.77" style="fill:none;stroke:#263238;stroke-linecap:round;stroke-linejoin:round;stroke-width:2px"></line><line x1="263.96" y1="242.16" x2="293.57" y2="242.16" style="fill:none;stroke:#263238;stroke-linecap:round;stroke-linejoin:round;stroke-width:2px"></line><line x1="263.96" y1="247.77" x2="293.57" y2="247.77" style="fill:none;stroke:#263238;stroke-linecap:round;stroke-linejoin:round;stroke-width:2px"></line><line x1="330.82" y1="242.16" x2="360.42" y2="242.16" style="fill:none;stroke:#263238;stroke-linecap:round;stroke-linejoin:round;stroke-width:2px"></line><line x1="330.82" y1="247.77" x2="360.42" y2="247.77" style="fill:none;stroke:#263238;stroke-linecap:round;stroke-linejoin:round;stroke-width:2px"></line><polygon points="268.13 298.9 268.53 290.31 256.24 290.31 255.42 298.9 268.13 298.9" style="fill:#263238;stroke:#fff;stroke-linecap:round;stroke-linejoin:round"></polygon><polygon points="293.55 298.9 293.13 290.31 280.83 290.31 280.84 298.9 293.55 298.9" style="fill:#263238;stroke:#fff;stroke-linecap:round;stroke-linejoin:round"></polygon><polygon points="359.74 308.08 372.88 308.08 369.8 298.9 357.09 298.9 359.74 308.08" style="fill:#263238;stroke:#fff;stroke-linecap:round;stroke-linejoin:round"></polygon><polygon points="255.42 298.9 256.24 290.31 243.94 290.31 242.72 298.9 255.42 298.9" style="fill:#263238;stroke:#fff;stroke-linecap:round;stroke-linejoin:round"></polygon><polygon points="230.01 298.9 231.64 290.31 219.35 290.31 217.3 298.9 230.01 298.9" style="fill:#263238;stroke:#fff;stroke-linecap:round;stroke-linejoin:round"></polygon><polygon points="344.38 298.9 342.32 290.31 330.02 290.31 331.67 298.9 344.38 298.9" style="fill:#263238;stroke:#fff;stroke-linecap:round;stroke-linejoin:round"></polygon><polygon points="357.09 298.9 354.61 290.31 342.32 290.31 344.38 298.9 357.09 298.9" style="fill:#263238;stroke:#fff;stroke-linecap:round;stroke-linejoin:round"></polygon><polygon points="217.3 298.9 219.35 290.31 207.05 290.31 204.59 298.9 217.3 298.9" style="fill:#263238;stroke:#fff;stroke-linecap:round;stroke-linejoin:round"></polygon><polygon points="306.26 298.9 305.43 290.31 293.13 290.31 293.55 298.9 306.26 298.9" style="fill:#263238;stroke:#fff;stroke-linecap:round;stroke-linejoin:round"></polygon><polygon points="369.8 298.9 366.91 290.31 354.61 290.31 357.09 298.9 369.8 298.9" style="fill:#263238;stroke:#fff;stroke-linecap:round;stroke-linejoin:round"></polygon><polygon points="331.67 298.9 330.02 290.31 317.72 290.31 318.96 298.9 331.67 298.9" style="fill:#263238;stroke:#fff;stroke-linecap:round;stroke-linejoin:round"></polygon><polygon points="318.96 298.9 317.72 290.31 305.43 290.31 306.26 298.9 318.96 298.9" style="fill:#263238;stroke:#fff;stroke-linecap:round;stroke-linejoin:round"></polygon><polygon points="280.84 298.9 280.83 290.31 268.53 290.31 268.13 298.9 280.84 298.9" style="fill:#263238;stroke:#fff;stroke-linecap:round;stroke-linejoin:round"></polygon><polygon points="191.88 298.9 179.17 298.9 175.66 308.08 188.81 308.08 191.88 298.9" style="fill:#263238;stroke:#fff;stroke-linecap:round;stroke-linejoin:round"></polygon><polygon points="194.75 290.31 182.46 290.31 179.17 298.9 191.88 298.9 194.75 290.31" style="fill:#263238;stroke:#fff;stroke-linecap:round;stroke-linejoin:round"></polygon><polygon points="204.59 298.9 207.05 290.31 194.75 290.31 191.88 298.9 204.59 298.9" style="fill:#263238;stroke:#fff;stroke-linecap:round;stroke-linejoin:round"></polygon><polygon points="171.9 317.92 167.86 328.5 181.99 328.5 185.52 317.92 171.9 317.92" style="fill:#263238;stroke:#fff;stroke-linecap:round;stroke-linejoin:round"></polygon><polygon points="188.81 308.08 175.66 308.08 171.9 317.92 185.52 317.92 188.81 308.08" style="fill:#263238;stroke:#fff;stroke-linecap:round;stroke-linejoin:round"></polygon><polygon points="185.52 317.92 181.99 328.5 196.12 328.5 199.14 317.92 185.52 317.92" style="fill:#263238;stroke:#fff;stroke-linecap:round;stroke-linejoin:round"></polygon><polygon points="242.72 298.9 243.94 290.31 231.64 290.31 230.01 298.9 242.72 298.9" style="fill:#263238;stroke:#fff;stroke-linecap:round;stroke-linejoin:round"></polygon><polygon points="241.4 308.08 242.72 298.9 230.01 298.9 228.26 308.08 241.4 308.08" style="fill:#263238;stroke:#fff;stroke-linecap:round;stroke-linejoin:round"></polygon><polygon points="228.26 308.08 230.01 298.9 217.3 298.9 215.11 308.08 228.26 308.08" style="fill:#263238;stroke:#fff;stroke-linecap:round;stroke-linejoin:round"></polygon><polygon points="254.55 308.08 255.42 298.9 242.72 298.9 241.4 308.08 254.55 308.08" style="fill:#263238;stroke:#fff;stroke-linecap:round;stroke-linejoin:round"></polygon><polygon points="204.59 298.9 191.88 298.9 188.81 308.08 201.96 308.08 204.59 298.9" style="fill:#263238;stroke:#fff;stroke-linecap:round;stroke-linejoin:round"></polygon><polygon points="362.57 317.92 376.19 317.92 372.88 308.08 359.74 308.08 362.57 317.92" style="fill:#263238;stroke:#fff;stroke-linecap:round;stroke-linejoin:round"></polygon><polygon points="215.11 308.08 217.3 298.9 204.59 298.9 201.96 308.08 215.11 308.08" style="fill:#263238;stroke:#fff;stroke-linecap:round;stroke-linejoin:round"></polygon><polygon points="188.81 308.08 185.52 317.92 199.14 317.92 201.96 308.08 188.81 308.08" style="fill:#263238;stroke:#fff;stroke-linecap:round;stroke-linejoin:round"></polygon><polygon points="333.44 308.08 331.67 298.9 318.96 298.9 320.29 308.08 333.44 308.08" style="fill:#263238;stroke:#fff;stroke-linecap:round;stroke-linejoin:round"></polygon><polygon points="320.29 308.08 318.96 298.9 306.26 298.9 307.14 308.08 320.29 308.08" style="fill:#263238;stroke:#fff;stroke-linecap:round;stroke-linejoin:round"></polygon><polygon points="359.74 308.08 357.09 298.9 344.38 298.9 346.59 308.08 359.74 308.08" style="fill:#263238;stroke:#fff;stroke-linecap:round;stroke-linejoin:round"></polygon><polygon points="280.85 308.08 280.84 298.9 268.13 298.9 267.7 308.08 280.85 308.08" style="fill:#263238;stroke:#fff;stroke-linecap:round;stroke-linejoin:round"></polygon><polygon points="307.14 308.08 306.26 298.9 293.55 298.9 294 308.08 307.14 308.08" style="fill:#263238;stroke:#fff;stroke-linecap:round;stroke-linejoin:round"></polygon><polygon points="294 308.08 293.55 298.9 280.84 298.9 280.85 308.08 294 308.08" style="fill:#263238;stroke:#fff;stroke-linecap:round;stroke-linejoin:round"></polygon><polygon points="267.7 308.08 268.13 298.9 255.42 298.9 254.55 308.08 267.7 308.08" style="fill:#263238;stroke:#fff;stroke-linecap:round;stroke-linejoin:round"></polygon><polygon points="307.14 308.08 308.1 317.92 321.71 317.92 320.29 308.08 307.14 308.08" style="fill:#263238;stroke:#fff;stroke-linecap:round;stroke-linejoin:round"></polygon><polygon points="320.29 308.08 321.71 317.92 335.33 317.92 333.44 308.08 320.29 308.08" style="fill:#263238;stroke:#fff;stroke-linecap:round;stroke-linejoin:round"></polygon><polygon points="201.96 308.08 199.14 317.92 212.76 317.92 215.11 308.08 201.96 308.08" style="fill:#263238;stroke:#fff;stroke-linecap:round;stroke-linejoin:round"></polygon><polygon points="333.44 308.08 335.33 317.92 348.95 317.92 346.59 308.08 333.44 308.08" style="fill:#263238;stroke:#fff;stroke-linecap:round;stroke-linejoin:round"></polygon><polygon points="280.85 308.08 280.86 317.92 294.48 317.92 294 308.08 280.85 308.08" style="fill:#263238;stroke:#fff;stroke-linecap:round;stroke-linejoin:round"></polygon><polygon points="346.59 308.08 348.95 317.92 362.57 317.92 359.74 308.08 346.59 308.08" style="fill:#263238;stroke:#fff;stroke-linecap:round;stroke-linejoin:round"></polygon><polygon points="294 308.08 294.48 317.92 308.1 317.92 307.14 308.08 294 308.08" style="fill:#263238;stroke:#fff;stroke-linecap:round;stroke-linejoin:round"></polygon><polygon points="228.26 308.08 226.38 317.92 240 317.92 241.4 308.08 228.26 308.08" style="fill:#263238;stroke:#fff;stroke-linecap:round;stroke-linejoin:round"></polygon><polygon points="215.11 308.08 212.76 317.92 226.38 317.92 228.26 308.08 215.11 308.08" style="fill:#263238;stroke:#fff;stroke-linecap:round;stroke-linejoin:round"></polygon><polygon points="267.7 308.08 267.24 317.92 280.86 317.92 280.85 308.08 267.7 308.08" style="fill:#263238;stroke:#fff;stroke-linecap:round;stroke-linejoin:round"></polygon><polygon points="254.55 308.08 253.62 317.92 267.24 317.92 267.7 308.08 254.55 308.08" style="fill:#263238;stroke:#fff;stroke-linecap:round;stroke-linejoin:round"></polygon><polygon points="241.4 308.08 240 317.92 253.62 317.92 254.55 308.08 241.4 308.08" style="fill:#263238;stroke:#fff;stroke-linecap:round;stroke-linejoin:round"></polygon><polygon points="346.59 308.08 344.38 298.9 331.67 298.9 333.44 308.08 346.59 308.08" style="fill:#263238;stroke:#fff;stroke-linecap:round;stroke-linejoin:round"></polygon><polygon points="194.75 290.31 197.69 281.51 185.81 281.51 182.46 290.31 194.75 290.31" style="fill:#263238;stroke:#fff;stroke-linecap:round;stroke-linejoin:round"></polygon><polygon points="182.46 290.31 171.1 290.31 167.44 298.9 179.17 298.9 182.46 290.31" style="fill:#263238;stroke:#fff;stroke-linecap:round;stroke-linejoin:round"></polygon><polygon points="185.81 281.51 174.85 281.51 171.1 290.31 182.46 290.31 185.81 281.51" style="fill:#263238;stroke:#fff;stroke-linecap:round;stroke-linejoin:round"></polygon><polygon points="179.17 298.9 167.44 298.9 163.53 308.08 175.66 308.08 179.17 298.9" style="fill:#263238;stroke:#fff;stroke-linecap:round;stroke-linejoin:round"></polygon><polygon points="175.66 308.08 163.53 308.08 159.33 317.92 171.9 317.92 175.66 308.08" style="fill:#263238;stroke:#fff;stroke-linecap:round;stroke-linejoin:round"></polygon><polygon points="171.9 317.92 159.33 317.92 154.82 328.5 167.86 328.5 171.9 317.92" style="fill:#263238;stroke:#fff;stroke-linecap:round;stroke-linejoin:round"></polygon><polygon points="382.5 298.9 386.03 308.08 397.66 308.08 393.75 298.9 382.5 298.9" style="fill:#263238;stroke:#fff;stroke-linecap:round;stroke-linejoin:round"></polygon><polygon points="389.81 317.92 401.86 317.92 397.66 308.08 386.03 308.08 389.81 317.92" style="fill:#263238;stroke:#fff;stroke-linecap:round;stroke-linejoin:round"></polygon><polygon points="393.87 328.5 406.37 328.5 401.86 317.92 389.81 317.92 393.87 328.5" style="fill:#263238;stroke:#fff;stroke-linecap:round;stroke-linejoin:round"></polygon><polygon points="293.13 290.31 292.7 281.51 280.82 281.51 280.83 290.31 293.13 290.31" style="fill:#263238;stroke:#fff;stroke-linecap:round;stroke-linejoin:round"></polygon><polygon points="382.5 298.9 393.75 298.9 390.09 290.31 379.21 290.31 382.5 298.9" style="fill:#263238;stroke:#fff;stroke-linecap:round;stroke-linejoin:round"></polygon><polygon points="376.19 317.92 389.81 317.92 386.03 308.08 372.88 308.08 376.19 317.92" style="fill:#263238;stroke:#fff;stroke-linecap:round;stroke-linejoin:round"></polygon><polygon points="207.05 290.31 209.57 281.51 197.69 281.51 194.75 290.31 207.05 290.31" style="fill:#263238;stroke:#fff;stroke-linecap:round;stroke-linejoin:round"></polygon><polygon points="366.91 290.31 369.8 298.9 382.5 298.9 379.21 290.31 366.91 290.31" style="fill:#263238;stroke:#fff;stroke-linecap:round;stroke-linejoin:round"></polygon><polygon points="390.09 290.31 386.34 281.51 375.83 281.51 379.21 290.31 390.09 290.31" style="fill:#263238;stroke:#fff;stroke-linecap:round;stroke-linejoin:round"></polygon><polygon points="379.21 290.31 375.83 281.51 363.96 281.51 366.91 290.31 379.21 290.31" style="fill:#263238;stroke:#fff;stroke-linecap:round;stroke-linejoin:round"></polygon><polygon points="335.33 317.92 337.37 328.5 351.49 328.5 348.95 317.92 335.33 317.92" style="fill:#263238;stroke:#fff;stroke-linecap:round;stroke-linejoin:round"></polygon><polygon points="379.74 328.5 393.87 328.5 389.81 317.92 376.19 317.92 379.74 328.5" style="fill:#263238;stroke:#fff;stroke-linecap:round;stroke-linejoin:round"></polygon><polygon points="366.91 290.31 363.96 281.51 352.08 281.51 354.61 290.31 366.91 290.31" style="fill:#263238;stroke:#fff;stroke-linecap:round;stroke-linejoin:round"></polygon><polygon points="362.57 317.92 365.62 328.5 379.74 328.5 376.19 317.92 362.57 317.92" style="fill:#263238;stroke:#fff;stroke-linecap:round;stroke-linejoin:round"></polygon><polygon points="348.95 317.92 351.49 328.5 365.62 328.5 362.57 317.92 348.95 317.92" style="fill:#263238;stroke:#fff;stroke-linecap:round;stroke-linejoin:round"></polygon><polygon points="372.88 308.08 386.03 308.08 382.5 298.9 369.8 298.9 372.88 308.08" style="fill:#263238;stroke:#fff;stroke-linecap:round;stroke-linejoin:round"></polygon><polygon points="256.24 290.31 257.07 281.51 245.19 281.51 243.94 290.31 256.24 290.31" style="fill:#263238;stroke:#fff;stroke-linecap:round;stroke-linejoin:round"></polygon><polygon points="354.61 290.31 352.08 281.51 340.2 281.51 342.32 290.31 354.61 290.31" style="fill:#263238;stroke:#fff;stroke-linecap:round;stroke-linejoin:round"></polygon><polygon points="243.94 290.31 245.19 281.51 233.32 281.51 231.64 290.31 243.94 290.31" style="fill:#263238;stroke:#fff;stroke-linecap:round;stroke-linejoin:round"></polygon><polygon points="280.83 290.31 280.82 281.51 268.95 281.51 268.53 290.31 280.83 290.31" style="fill:#263238;stroke:#fff;stroke-linecap:round;stroke-linejoin:round"></polygon><polygon points="231.64 290.31 233.32 281.51 221.44 281.51 219.35 290.31 231.64 290.31" style="fill:#263238;stroke:#fff;stroke-linecap:round;stroke-linejoin:round"></polygon><polygon points="219.35 290.31 221.44 281.51 209.57 281.51 207.05 290.31 219.35 290.31" style="fill:#263238;stroke:#fff;stroke-linecap:round;stroke-linejoin:round"></polygon><polygon points="268.53 290.31 268.95 281.51 257.07 281.51 256.24 290.31 268.53 290.31" style="fill:#263238;stroke:#fff;stroke-linecap:round;stroke-linejoin:round"></polygon><polygon points="342.32 290.31 340.2 281.51 328.33 281.51 330.02 290.31 342.32 290.31" style="fill:#263238;stroke:#fff;stroke-linecap:round;stroke-linejoin:round"></polygon><polygon points="330.02 290.31 328.33 281.51 316.45 281.51 317.72 290.31 330.02 290.31" style="fill:#263238;stroke:#fff;stroke-linecap:round;stroke-linejoin:round"></polygon><polygon points="305.43 290.31 304.57 281.51 292.7 281.51 293.13 290.31 305.43 290.31" style="fill:#263238;stroke:#fff;stroke-linecap:round;stroke-linejoin:round"></polygon><polygon points="335.33 317.92 321.71 317.92 308.1 317.92 294.48 317.92 280.86 317.92 267.24 317.92 253.62 317.92 240 317.92 226.38 317.92 212.76 317.92 199.14 317.92 196.12 328.5 210.24 328.5 224.37 328.5 238.49 328.5 252.62 328.5 266.74 328.5 280.87 328.5 294.99 328.5 309.12 328.5 323.24 328.5 337.37 328.5 335.33 317.92" style="fill:#263238;stroke:#fff;stroke-linecap:round;stroke-linejoin:round"></polygon><polygon points="317.72 290.31 316.45 281.51 304.57 281.51 305.43 290.31 317.72 290.31" style="fill:#263238;stroke:#fff;stroke-linecap:round;stroke-linejoin:round"></polygon><rect x="126.56" y="347.07" width="302.69" height="4.3" style="fill:#263238;stroke:#263238;stroke-linecap:round;stroke-linejoin:round"></rect></g><g id="credit-card"><path d="M327.73,422.85l-109.63.87c-2.34,0-4-1.38-3.71-3.11l7-41.1c.22-1.3,2-2.35,4-2.36l93.93-.43c2,0,3.77,1,4,2.31l8,40.69C331.63,421.42,330,422.84,327.73,422.85Z" style="fill:#92E3A9;stroke:#263238;stroke-linecap:round;stroke-linejoin:round"></path><line x1="275.75" y1="384.1" x2="310.14" y2="384.1" style="fill:none;stroke:#263238;stroke-linecap:round;stroke-linejoin:round"></line><line x1="258.01" y1="387.01" x2="310.14" y2="387.01" style="fill:none;stroke:#263238;stroke-linecap:round;stroke-linejoin:round"></line><path d="M256.59,412.13c-20.86,6.64-34.22,7.82-42,7.43l-.25,1.48c-.25,1.49,1.18,2.7,3.19,2.68l110.8-.87c2,0,3.35-1.23,3.06-2.71l-4.79-24.5C297.66,394.9,289.3,401.73,256.59,412.13Z" style="fill:#263238;stroke:#263238;stroke-linecap:round;stroke-linejoin:round"></path><path d="M238.67,394.57l-8.65.05c-.81,0-1.4-.44-1.32-1l.74-5.5c.08-.52.77-.95,1.55-.95l8.44-.05c.78,0,1.37.42,1.32.94l-.53,5.49C240.17,394.11,239.47,394.56,238.67,394.57Z" style="fill:#fff;stroke:#263238;stroke-linecap:round;stroke-linejoin:round"></path><path d="M235.72,392h-2.14c-.39,0-.68-.21-.65-.47l.17-1.36c0-.26.37-.47.75-.47H236c.39,0,.68.21.65.46l-.15,1.36C236.45,391.76,236.11,392,235.72,392Z" style="fill:#fff;stroke:#263238;stroke-linecap:round;stroke-linejoin:round"></path><path d="M229.46,388l3.32,0c.64,0,1.12.34,1.07.78l-.11.92" style="fill:none;stroke:#263238;stroke-linecap:round;stroke-linejoin:round"></path><path d="M240.77,388l-3.27,0c-.65,0-1.21.35-1.26.78l-.1.93" style="fill:none;stroke:#263238;stroke-linecap:round;stroke-linejoin:round"></path><path d="M228.67,393.84l3.38,0c.66,0,1.24-.37,1.29-.82l.11-.94" style="fill:none;stroke:#263238;stroke-linecap:round;stroke-linejoin:round"></path><path d="M240.2,393.77l-3.33,0c-.66,0-1.16-.35-1.11-.8l.11-.95" style="fill:none;stroke:#263238;stroke-linecap:round;stroke-linejoin:round"></path><line x1="229.07" y1="391.04" x2="232.99" y2="391.02" style="fill:none;stroke:#263238;stroke-linecap:round;stroke-linejoin:round"></line><line x1="236.44" y1="391" x2="240.35" y2="390.98" style="fill:none;stroke:#263238;stroke-linecap:round;stroke-linejoin:round"></line><path d="M227.77,406.16a1.48,1.48,0,0,1-.47-.26,1.2,1.2,0,0,1-.26-.4,1.64,1.64,0,0,1-.1-.49,2.58,2.58,0,0,1,0-.54,1.81,1.81,0,0,1,2-1.78c1.14,0,1.64.58,1.49,1.76a3,3,0,0,1-.11.54,1.92,1.92,0,0,1-.23.48,1.62,1.62,0,0,1-.37.41,1.76,1.76,0,0,1-.53.27,2.72,2.72,0,0,1-.72.1A2.31,2.31,0,0,1,227.77,406.16Zm1.09-.35a1.46,1.46,0,0,0,.28-.13,1.19,1.19,0,0,0,.2-.19,1.11,1.11,0,0,0,.16-.24,1.28,1.28,0,0,0,.1-.26c0-.1.05-.19.07-.27a1.93,1.93,0,0,0,0-.27c0-.1,0-.19,0-.27v-.27a1.93,1.93,0,0,0,0-.27,1,1,0,0,0-.09-.22.74.74,0,0,0-.16-.19.9.9,0,0,0-.24-.11.88.88,0,0,0-.33,0,1.29,1.29,0,0,0-.35,0,1.11,1.11,0,0,0-.27.12.89.89,0,0,0-.2.19.72.72,0,0,0-.15.22,1.69,1.69,0,0,0-.11.27,1.8,1.8,0,0,0-.07.27,2.33,2.33,0,0,0,0,.28l0,.26V405a1.93,1.93,0,0,0,0,.27,1.09,1.09,0,0,0,.09.23.58.58,0,0,0,.15.19.9.9,0,0,0,.24.12.94.94,0,0,0,.34,0A1.25,1.25,0,0,0,228.86,405.81Z" style="fill:#fff"></path><path d="M232.58,406.12a1.11,1.11,0,0,1-.47-.26,1,1,0,0,1-.27-.4,1.53,1.53,0,0,1-.11-.48,2.53,2.53,0,0,1,0-.54,1.78,1.78,0,0,1,1.93-1.78c1.15,0,1.65.57,1.52,1.76a3,3,0,0,1-.1.54,2.1,2.1,0,0,1-.23.48,2,2,0,0,1-.35.41,1.64,1.64,0,0,1-.53.26,2.36,2.36,0,0,1-.72.11A2,2,0,0,1,232.58,406.12Zm1.08-.35a1,1,0,0,0,.28-.12,1,1,0,0,0,.2-.2,1.14,1.14,0,0,0,.15-.23,1.57,1.57,0,0,0,.1-.26c0-.1.05-.19.07-.27l0-.27q0-.15,0-.27a2.72,2.72,0,0,0,0-.28,2,2,0,0,0,0-.26.72.72,0,0,0-.1-.22.58.58,0,0,0-.16-.19.9.9,0,0,0-.24-.11.88.88,0,0,0-.33,0,1.29,1.29,0,0,0-.35,0,.89.89,0,0,0-.26.12.76.76,0,0,0-.21.19,1.43,1.43,0,0,0-.15.22c0,.08-.07.17-.1.27s0,.19-.07.27,0,.18,0,.28a2.46,2.46,0,0,0,0,.26V405a1.93,1.93,0,0,0,0,.27.89.89,0,0,0,.1.23.7.7,0,0,0,.15.19.83.83,0,0,0,.25.12,1.18,1.18,0,0,0,.34,0A.93.93,0,0,0,233.66,405.77Z" style="fill:#fff"></path><path d="M237.38,406.09a1.18,1.18,0,0,1-.47-.26,1,1,0,0,1-.27-.4,1.31,1.31,0,0,1-.12-.48,2.48,2.48,0,0,1,0-.54,1.74,1.74,0,0,1,1.9-1.78c1.14,0,1.66.57,1.55,1.76a3,3,0,0,1-.1.54,2.5,2.5,0,0,1-.21.48,1.54,1.54,0,0,1-.36.4,1.59,1.59,0,0,1-.52.27,2.25,2.25,0,0,1-.71.11A2.11,2.11,0,0,1,237.38,406.09Zm1.08-.35a.85.85,0,0,0,.27-.12,1,1,0,0,0,.21-.2,1.09,1.09,0,0,0,.14-.23,2,2,0,0,0,.1-.26q0-.15.06-.27l0-.27c0-.1,0-.19,0-.27a2.72,2.72,0,0,0,0-.28,1.09,1.09,0,0,0-.05-.26.72.72,0,0,0-.1-.22.49.49,0,0,0-.16-.19.76.76,0,0,0-.24-.11,1.16,1.16,0,0,0-.34-.05,1.74,1.74,0,0,0-.34.05.89.89,0,0,0-.26.12.86.86,0,0,0-.2.18,1.5,1.5,0,0,0-.15.23,2,2,0,0,0-.1.26,1.57,1.57,0,0,0-.06.28,2.09,2.09,0,0,0,0,.28c0,.09,0,.18,0,.26a2.62,2.62,0,0,0,0,.27,1.93,1.93,0,0,0,0,.27,1.46,1.46,0,0,0,.1.23.69.69,0,0,0,.16.18.84.84,0,0,0,.25.13,1.18,1.18,0,0,0,.34,0A1.21,1.21,0,0,0,238.46,405.74Z" style="fill:#fff"></path><path d="M242.18,406.06a1.18,1.18,0,0,1-.47-.26,1.15,1.15,0,0,1-.28-.4,1.72,1.72,0,0,1-.13-.48,4.86,4.86,0,0,1,0-.54,1.72,1.72,0,0,1,1.88-1.78c1.14,0,1.67.57,1.57,1.76a2.17,2.17,0,0,1-.09.53,1.87,1.87,0,0,1-.2.49,1.51,1.51,0,0,1-.35.4,1.7,1.7,0,0,1-.52.27,2.58,2.58,0,0,1-.71.11A2.11,2.11,0,0,1,242.18,406.06Zm1.08-.35a.84.84,0,0,0,.27-.13.89.89,0,0,0,.2-.19c.05-.08.1-.15.14-.23l.09-.26q0-.15.06-.27l0-.27c0-.1,0-.19,0-.28a2.62,2.62,0,0,0,0-.27,2,2,0,0,0-.06-.26.62.62,0,0,0-.1-.22.6.6,0,0,0-.16-.19.64.64,0,0,0-.25-.11,1.14,1.14,0,0,0-.33,0,1.29,1.29,0,0,0-.35,0,.89.89,0,0,0-.26.12,1.12,1.12,0,0,0-.2.18c-.05.08-.1.15-.14.23l-.09.26a1.57,1.57,0,0,0-.06.28q0,.12,0,.27c0,.1,0,.19,0,.27a2.62,2.62,0,0,0,0,.27,1.5,1.5,0,0,0,.05.26.94.94,0,0,0,.1.23.63.63,0,0,0,.17.19.67.67,0,0,0,.24.12.93.93,0,0,0,.34.05A1.29,1.29,0,0,0,243.26,405.71Z" style="fill:#fff"></path><path d="M252.4,406a1.22,1.22,0,0,1-.48-.26,1.18,1.18,0,0,1-.29-.4,1.58,1.58,0,0,1-.15-.48,2.39,2.39,0,0,1,0-.54,1.65,1.65,0,0,1,1.81-1.78c1.14,0,1.68.58,1.63,1.76a3.06,3.06,0,0,1-.07.54,1.92,1.92,0,0,1-.19.48,1.44,1.44,0,0,1-.33.4,1.76,1.76,0,0,1-.51.27,2.25,2.25,0,0,1-.71.11A2.11,2.11,0,0,1,252.4,406Zm1.06-.35a1,1,0,0,0,.27-.12,1.21,1.21,0,0,0,.19-.2,1,1,0,0,0,.13-.23,1.58,1.58,0,0,0,.09-.26c0-.1,0-.19,0-.27a2.13,2.13,0,0,0,0-.27,2.62,2.62,0,0,0,0-.27,2.45,2.45,0,0,0,0-.27c0-.1,0-.19-.06-.26a1.63,1.63,0,0,0-.11-.23.77.77,0,0,0-.18-.18.73.73,0,0,0-.25-.12,1.11,1.11,0,0,0-.33,0,1.16,1.16,0,0,0-.34.05,1.27,1.27,0,0,0-.26.11.85.85,0,0,0-.19.19.76.76,0,0,0-.13.23,1.31,1.31,0,0,0-.09.26c0,.1,0,.19-.05.27a2.46,2.46,0,0,0,0,.28,2.35,2.35,0,0,0,0,.26,2.45,2.45,0,0,0,0,.27,1.07,1.07,0,0,0,.06.27,1,1,0,0,0,.11.23.77.77,0,0,0,.17.19.73.73,0,0,0,.25.12,1.18,1.18,0,0,0,.34,0A1.21,1.21,0,0,0,253.46,405.64Z" style="fill:#fff"></path><path d="M257.19,406a1.34,1.34,0,0,1-.49-.26,1.18,1.18,0,0,1-.29-.4,1.34,1.34,0,0,1-.15-.48,2.31,2.31,0,0,1,0-.54A1.62,1.62,0,0,1,258,402.5c1.14,0,1.69.58,1.65,1.76a2.13,2.13,0,0,1-.24,1,1.44,1.44,0,0,1-.33.4,1.58,1.58,0,0,1-.5.27,2.58,2.58,0,0,1-.71.11A2.15,2.15,0,0,1,257.19,406Zm1.06-.35a.71.71,0,0,0,.26-.13.69.69,0,0,0,.19-.19,1,1,0,0,0,.13-.23,2,2,0,0,0,.08-.26c0-.1,0-.19,0-.27s0-.17,0-.27V404a2.48,2.48,0,0,0,0-.27,1.43,1.43,0,0,0-.06-.26,1,1,0,0,0-.12-.23.73.73,0,0,0-.17-.18.83.83,0,0,0-.25-.12,1.18,1.18,0,0,0-.34,0,1.22,1.22,0,0,0-.34,0,1.17,1.17,0,0,0-.25.12.69.69,0,0,0-.19.19.85.85,0,0,0-.13.22,1.73,1.73,0,0,0-.08.27c0,.1,0,.19-.05.27s0,.18,0,.28v.26a1.24,1.24,0,0,0,0,.27,1.07,1.07,0,0,0,.06.27.76.76,0,0,0,.11.22.79.79,0,0,0,.17.19.83.83,0,0,0,.25.12.93.93,0,0,0,.34.05A1.23,1.23,0,0,0,258.25,405.61Z" style="fill:#fff"></path><path d="M262,405.93a1.42,1.42,0,0,1-.49-.26,1.08,1.08,0,0,1-.3-.4,1.81,1.81,0,0,1-.16-.48,3,3,0,0,1,0-.54,1.6,1.6,0,0,1,1.76-1.78c1.14,0,1.7.58,1.68,1.76a3.1,3.1,0,0,1-.05.54,1.57,1.57,0,0,1-.18.48,1.26,1.26,0,0,1-.32.4,1.39,1.39,0,0,1-.5.27,2.15,2.15,0,0,1-.7.1A2.48,2.48,0,0,1,262,405.93Zm1-.35a.9.9,0,0,0,.26-.13.85.85,0,0,0,.19-.19,1.27,1.27,0,0,0,.12-.23,2,2,0,0,0,.08-.26c0-.1,0-.19,0-.27s0-.17,0-.27a2.26,2.26,0,0,0,0-.27,1.41,1.41,0,0,0,0-.28,2,2,0,0,0-.06-.26,1.19,1.19,0,0,0-.12-.22.77.77,0,0,0-.18-.18.83.83,0,0,0-.25-.12,1.18,1.18,0,0,0-.34,0,1.22,1.22,0,0,0-.34,0,.83.83,0,0,0-.25.12.85.85,0,0,0-.19.19,1.19,1.19,0,0,0-.12.22,1.73,1.73,0,0,0-.08.27c0,.09,0,.19,0,.27a2.44,2.44,0,0,0,0,.28,1.13,1.13,0,0,0,0,.26,1.39,1.39,0,0,0,0,.27.91.91,0,0,0,.06.26,1,1,0,0,0,.12.23.67.67,0,0,0,.43.31,1.16,1.16,0,0,0,.34.05A1.21,1.21,0,0,0,263,405.58Z" style="fill:#fff"></path><path d="M266.76,405.9a1.51,1.51,0,0,1-.49-.26,1.23,1.23,0,0,1-.31-.4,1.81,1.81,0,0,1-.16-.48,3.1,3.1,0,0,1-.05-.54,1.57,1.57,0,0,1,1.73-1.78c1.14,0,1.71.58,1.71,1.76a2.22,2.22,0,0,1-.05.53,1.76,1.76,0,0,1-.16.49,1.38,1.38,0,0,1-.32.4,1.42,1.42,0,0,1-.49.27,2.52,2.52,0,0,1-.7.1A2.55,2.55,0,0,1,266.76,405.9Zm1.05-.35a1.26,1.26,0,0,0,.26-.13.66.66,0,0,0,.18-.19,1.27,1.27,0,0,0,.12-.23,1.07,1.07,0,0,0,.07-.27c0-.09,0-.18,0-.26s0-.17,0-.27,0-.19,0-.27,0-.18,0-.28a2,2,0,0,0-.07-.26,1.19,1.19,0,0,0-.12-.22.77.77,0,0,0-.18-.18.83.83,0,0,0-.25-.12,1.22,1.22,0,0,0-.34,0,1.18,1.18,0,0,0-.34,0,.83.83,0,0,0-.25.12.66.66,0,0,0-.18.19.85.85,0,0,0-.13.22c0,.08-.05.17-.07.27a2.51,2.51,0,0,0,0,.27c0,.08,0,.18,0,.27s0,.19,0,.27,0,.17,0,.27a1.63,1.63,0,0,0,.07.26,1,1,0,0,0,.12.23.66.66,0,0,0,.18.19.79.79,0,0,0,.26.12,1.16,1.16,0,0,0,.34.05A1.21,1.21,0,0,0,267.81,405.55Z" style="fill:#fff"></path><path d="M277,405.83a1.36,1.36,0,0,1-.51-.26,1.41,1.41,0,0,1-.32-.4,2,2,0,0,1-.18-.48,2.23,2.23,0,0,1-.06-.54c0-1.18.53-1.77,1.67-1.77a1.58,1.58,0,0,1,1.76,1.75,2.38,2.38,0,0,1,0,.54,1.48,1.48,0,0,1-.15.48,1.08,1.08,0,0,1-.3.4,1.37,1.37,0,0,1-.48.27,2.63,2.63,0,0,1-1.4,0Zm1-.35a.82.82,0,0,0,.43-.32,1,1,0,0,0,.11-.23,1,1,0,0,0,.06-.26c0-.1,0-.19,0-.27v-.26c0-.1,0-.2,0-.28s0-.17,0-.27-.05-.18-.08-.26l-.13-.23a1.07,1.07,0,0,0-.19-.18.83.83,0,0,0-.25-.12,1.86,1.86,0,0,0-.34,0,1.16,1.16,0,0,0-.34.05.83.83,0,0,0-.25.12,1,1,0,0,0-.17.18,1.27,1.27,0,0,0-.12.23c0,.07,0,.16-.06.26a1.39,1.39,0,0,0,0,.27v.28a2.11,2.11,0,0,0,0,.26,1.26,1.26,0,0,0,0,.27,1.76,1.76,0,0,0,.07.27,2.53,2.53,0,0,0,.13.22.69.69,0,0,0,.19.19.79.79,0,0,0,.26.12.9.9,0,0,0,.34,0A1.21,1.21,0,0,0,278,405.48Z" style="fill:#fff"></path><path d="M281.72,405.8a1.52,1.52,0,0,1-.51-.26,1.26,1.26,0,0,1-.32-.4,1.92,1.92,0,0,1-.19-.48,2.83,2.83,0,0,1-.07-.54c-.05-1.18.5-1.77,1.64-1.77a1.61,1.61,0,0,1,1.79,1.75,3.17,3.17,0,0,1,0,.54,1.74,1.74,0,0,1-.14.48,1.35,1.35,0,0,1-.3.4,1.37,1.37,0,0,1-.48.27,2.11,2.11,0,0,1-.7.1A2.53,2.53,0,0,1,281.72,405.8Zm1-.35a.84.84,0,0,0,.25-.13.79.79,0,0,0,.17-.19,1.2,1.2,0,0,0,.11-.23,1.1,1.1,0,0,0,.06-.26c0-.1,0-.19,0-.27v-.27q0-.15,0-.27a1.28,1.28,0,0,0-.05-.27,1.24,1.24,0,0,0-.21-.49.81.81,0,0,0-.19-.18.89.89,0,0,0-.26-.12,1.67,1.67,0,0,0-.34,0,1.14,1.14,0,0,0-.33,0,.83.83,0,0,0-.25.12,1,1,0,0,0-.17.18.8.8,0,0,0-.11.23.91.91,0,0,0-.06.26c0,.1,0,.19,0,.27a1.31,1.31,0,0,0,0,.28,2.11,2.11,0,0,0,0,.26c0,.08,0,.17,0,.27a1.34,1.34,0,0,0,.08.26,1.09,1.09,0,0,0,.14.23.66.66,0,0,0,.18.19.89.89,0,0,0,.26.12,1.29,1.29,0,0,0,.35.05A1.21,1.21,0,0,0,282.75,405.45Z" style="fill:#fff"></path><path d="M286.49,405.77a1.52,1.52,0,0,1-.51-.26,1.44,1.44,0,0,1-.33-.4,2,2,0,0,1-.2-.48,2.92,2.92,0,0,1-.08-.54c-.06-1.18.48-1.77,1.61-1.77a1.63,1.63,0,0,1,1.82,1.75,3.07,3.07,0,0,1,0,.53,1.69,1.69,0,0,1-.13.49,1.47,1.47,0,0,1-.29.4,1.37,1.37,0,0,1-.48.27,2.39,2.39,0,0,1-.69.1A2.55,2.55,0,0,1,286.49,405.77Zm1-.35a1.17,1.17,0,0,0,.25-.13.63.63,0,0,0,.17-.19,1.2,1.2,0,0,0,.11-.23,2,2,0,0,0,0-.26c0-.1,0-.19,0-.27a2.62,2.62,0,0,0,0-.27l0-.27a2.56,2.56,0,0,0-.05-.27.88.88,0,0,0-.09-.26,1.34,1.34,0,0,0-.13-.23,1.07,1.07,0,0,0-.19-.18,1,1,0,0,0-.26-.12,1.86,1.86,0,0,0-.34,0,1.16,1.16,0,0,0-.34.05.77.77,0,0,0-.24.12.73.73,0,0,0-.17.18,1,1,0,0,0-.11.23,1.5,1.5,0,0,0,0,.26,1.32,1.32,0,0,0,0,.27v.28l0,.26a1.57,1.57,0,0,0,.05.27,1.34,1.34,0,0,0,.08.26,1.09,1.09,0,0,0,.14.23.69.69,0,0,0,.19.19.89.89,0,0,0,.26.12,1.21,1.21,0,0,0,.34.05A1.16,1.16,0,0,0,287.51,405.42Z" style="fill:#fff"></path><path d="M291.26,405.73a1.52,1.52,0,0,1-.51-.25,1.45,1.45,0,0,1-.34-.4,2,2,0,0,1-.21-.48,3.05,3.05,0,0,1-.08-.54c-.09-1.18.44-1.77,1.58-1.77a1.66,1.66,0,0,1,1.84,1.75,2.34,2.34,0,0,1,0,.53,1.69,1.69,0,0,1-.13.49,1.26,1.26,0,0,1-.28.4,1.18,1.18,0,0,1-.47.26,2.08,2.08,0,0,1-.69.11A2.21,2.21,0,0,1,291.26,405.73Zm1-.34a1.17,1.17,0,0,0,.25-.13.77.77,0,0,0,.17-.19,1.46,1.46,0,0,0,.1-.23,1.86,1.86,0,0,0,0-.27,2.35,2.35,0,0,0,0-.26,2.62,2.62,0,0,0,0-.27l0-.27a1.31,1.31,0,0,0-.06-.27.88.88,0,0,0-.09-.26,1,1,0,0,0-.14-.23.81.81,0,0,0-.19-.18.89.89,0,0,0-.26-.12,1.22,1.22,0,0,0-.34,0,1.16,1.16,0,0,0-.34.05.9.9,0,0,0-.24.12.89.89,0,0,0-.27.41,1.5,1.5,0,0,0-.05.26c0,.1,0,.19,0,.27s0,.18,0,.28a2.11,2.11,0,0,0,0,.26c0,.08,0,.17.06.27a1,1,0,0,0,.09.26,1,1,0,0,0,.14.23.69.69,0,0,0,.19.19.89.89,0,0,0,.26.12,1,1,0,0,0,.35,0A1.15,1.15,0,0,0,292.27,405.39Z" style="fill:#fff"></path><path d="M301.41,405.67a1.75,1.75,0,0,1-.53-.26,1.71,1.71,0,0,1-.35-.4,1.74,1.74,0,0,1-.22-.48,2.73,2.73,0,0,1-.1-.54c-.12-1.17.38-1.76,1.52-1.77a1.73,1.73,0,0,1,1.9,1.75,2.46,2.46,0,0,1,0,.54,1.67,1.67,0,0,1-.11.48,1.11,1.11,0,0,1-.26.4,1.32,1.32,0,0,1-.47.27,2.29,2.29,0,0,1-.69.1A2.53,2.53,0,0,1,301.41,405.67Zm1-.35a.92.92,0,0,0,.24-.13.6.6,0,0,0,.16-.19,1.09,1.09,0,0,0,.09-.23,1.72,1.72,0,0,0,.05-.26v-.27a2.46,2.46,0,0,0,0-.26c0-.1,0-.19,0-.28s0-.17-.07-.27a1.57,1.57,0,0,0-.1-.26,1.35,1.35,0,0,0-.14-.22.84.84,0,0,0-.2-.18,1.11,1.11,0,0,0-.27-.12,1.22,1.22,0,0,0-.34,0,1.15,1.15,0,0,0-.33,0,.67.67,0,0,0-.24.12.77.77,0,0,0-.16.19.88.88,0,0,0-.1.22,1.78,1.78,0,0,0,0,.26,2.42,2.42,0,0,0,0,.27c0,.09,0,.18,0,.28l0,.26a2.68,2.68,0,0,0,.07.27,1.31,1.31,0,0,0,.09.26,1.14,1.14,0,0,0,.15.23.72.72,0,0,0,.2.19.85.85,0,0,0,.27.12,1.21,1.21,0,0,0,.34.05A1.16,1.16,0,0,0,302.41,405.32Z" style="fill:#fff"></path><path d="M306.16,405.64a1.94,1.94,0,0,1-.52-.26,1.54,1.54,0,0,1-.36-.4,2.1,2.1,0,0,1-.23-.48,2.71,2.71,0,0,1-.11-.54c-.14-1.17.36-1.76,1.49-1.77a1.76,1.76,0,0,1,1.93,1.75,3.33,3.33,0,0,1,0,.54,1.65,1.65,0,0,1-.1.48,1.2,1.2,0,0,1-.26.4,1.13,1.13,0,0,1-.46.26,2,2,0,0,1-.69.11A2.6,2.6,0,0,1,306.16,405.64Zm1-.35a.89.89,0,0,0,.24-.13.77.77,0,0,0,.16-.19,1,1,0,0,0,.12-.49,1.22,1.22,0,0,0,0-.27,2.46,2.46,0,0,0,0-.26,2.33,2.33,0,0,0-.05-.28,1.08,1.08,0,0,0-.07-.27,1.57,1.57,0,0,0-.1-.26,1.07,1.07,0,0,0-.15-.22.89.89,0,0,0-.2-.19,1.69,1.69,0,0,0-.27-.11,1.22,1.22,0,0,0-.34,0,1.15,1.15,0,0,0-.33,0,.9.9,0,0,0-.24.12.65.65,0,0,0-.15.18.77.77,0,0,0-.1.23,1.86,1.86,0,0,0,0,.26,2.62,2.62,0,0,0,0,.27l0,.28a2,2,0,0,0,0,.26,1.54,1.54,0,0,0,.07.27,1.28,1.28,0,0,0,.1.26,1.14,1.14,0,0,0,.15.23.72.72,0,0,0,.2.19.85.85,0,0,0,.27.12,1.21,1.21,0,0,0,.34,0A1.63,1.63,0,0,0,307.16,405.29Z" style="fill:#fff"></path><path d="M310.92,405.6a1.54,1.54,0,0,1-.53-.26A1.72,1.72,0,0,1,310,405a2.1,2.1,0,0,1-.23-.48,3.61,3.61,0,0,1-.12-.54c-.16-1.17.33-1.76,1.46-1.77a1.8,1.8,0,0,1,2,1.75,5.13,5.13,0,0,1,0,.53,1.64,1.64,0,0,1-.1.49,1.18,1.18,0,0,1-.25.4,1.07,1.07,0,0,1-.46.26,2,2,0,0,1-.68.11A2.26,2.26,0,0,1,310.92,405.6Zm1-.35a.9.9,0,0,0,.24-.12.7.7,0,0,0,.15-.19,1,1,0,0,0,.12-.49v-.27l0-.26c0-.1,0-.2-.05-.28a2,2,0,0,0-.08-.27,1.57,1.57,0,0,0-.1-.26,1.12,1.12,0,0,0-.16-.22.89.89,0,0,0-.2-.19,1.69,1.69,0,0,0-.27-.11,1.22,1.22,0,0,0-.34,0,1.06,1.06,0,0,0-.33,0,.77.77,0,0,0-.24.12.65.65,0,0,0-.15.18,1.09,1.09,0,0,0-.09.23,1,1,0,0,0,0,.26,1.22,1.22,0,0,0,0,.27,1.41,1.41,0,0,0,0,.28c0,.09,0,.18,0,.26s0,.17.07.27a1.27,1.27,0,0,0,.11.26,1.14,1.14,0,0,0,.15.23.76.76,0,0,0,.21.19.85.85,0,0,0,.27.12.94.94,0,0,0,.34,0A.9.9,0,0,0,311.91,405.25Z" style="fill:#fff"></path><path d="M315.67,405.57a1.54,1.54,0,0,1-.53-.26,1.38,1.38,0,0,1-.37-.39,2.21,2.21,0,0,1-.25-.48,3.92,3.92,0,0,1-.12-.54c-.18-1.17.3-1.76,1.43-1.77a1.82,1.82,0,0,1,2,1.75,3.4,3.4,0,0,1,0,.53,1.37,1.37,0,0,1-.09.49,1,1,0,0,1-.25.4,1.07,1.07,0,0,1-.45.26,2.35,2.35,0,0,1-1.39,0Zm1-.35a.67.67,0,0,0,.24-.12.7.7,0,0,0,.15-.19.79.79,0,0,0,.08-.23,1.12,1.12,0,0,0,0-.27,2.17,2.17,0,0,0,0-.26,1.39,1.39,0,0,0,0-.27c0-.1,0-.19-.05-.27s-.05-.17-.08-.27a1.56,1.56,0,0,0-.11-.26,1.12,1.12,0,0,0-.16-.22.76.76,0,0,0-.21-.19,1.16,1.16,0,0,0-.27-.11,1.22,1.22,0,0,0-.34,0,1.15,1.15,0,0,0-.33,0,.71.71,0,0,0-.23.12.65.65,0,0,0-.15.18,1.09,1.09,0,0,0-.09.23c0,.08,0,.16,0,.26a2.26,2.26,0,0,0,0,.27l0,.28c0,.09,0,.18,0,.26s.05.17.08.27a1.56,1.56,0,0,0,.11.26,1.5,1.5,0,0,0,.15.23,1.2,1.2,0,0,0,.21.19,1.11,1.11,0,0,0,.27.12,1.34,1.34,0,0,0,.35,0A.82.82,0,0,0,316.65,405.22Z" style="fill:#fff"></path><path d="M312.24,414.29c.32,2.33-2,4.26-5.21,4.28s-6-1.87-6.23-4.19,2.11-4.15,5.23-4.17S311.92,412,312.24,414.29Z" style="fill:#fff;stroke:#263238;stroke-linecap:round;stroke-linejoin:round"></path><path d="M320,414.24c.38,2.32-1.9,4.25-5.1,4.27s-6-1.86-6.33-4.19,2-4.14,5.12-4.16S319.63,412,320,414.24Z" style="fill:#fff;stroke:#263238;stroke-linecap:round;stroke-linejoin:round"></path></g><g id="Hands"><path d="M153.29,453.07s22.36-46.88,25.8-55.91S230.7,365.33,233.28,361s6-17.63,8.61-23.22.43-7.75,2.15-12.48,4.73-10.32.43-10.32-9.89,4.73-12.05,12.47-10.75,14.2-10.75,14.2l.43-5.16c.43-5.17,5.59-21.08,7.74-24.52s15.06-17.2,16.78-17.63,5.59,3.44,9.46,3.44,4.73-3,2.58-4.73-3.87-7.32-9-10.76-10.75,0-10.75,0a68.25,68.25,0,0,0-4.73-6.88c-2.16-2.58-6.46-6.88-12.05-8.17a11.2,11.2,0,0,0-9.46,2.15,48.47,48.47,0,0,0-6-.86c-4.3-.43-7.31,2.15-11.61,9s-11.19,20.22-11.19,20.22,1.72-12.48,1.72-17.64.43-10.75-1.72-12.9-4.3.43-5.16,8.17-10.75,34.84-12,42.15-15.05,47.74-22.37,58.07-46.88,55.48-46.88,55.48M215.22,300.82s6-17.21,7.74-17.21,8.17,4.73,8.17,4.73Z" style="fill:#fff;stroke:#263238;stroke-linecap:round;stroke-linejoin:round"></path><path d="M163.16,336.22s7.33-22.93,8.55-28.83c.87-4.16,3.95.69,3.95.69s6-4.29,6-.69a10.89,10.89,0,0,0,2.25,6.31s-1.35-6.31,5-8.11,9,.9,7.66,8.11.9,4.5,2.25,2.7-.45-6.31,7.66-9.46,12.62,0,11.26,6.76-3.6,12.61-3.6,22.52,1.8,18.92,3.6,18.92,11.72-10.36,13.52-3.6-1.8,6.76-11.26,14.86-34.24,14.87-38.29,23-6.76,13.06-9.46,13.51-7.21-15.76-20.28-14-26.58,14.87-23.42,9.46,14.86-14,21.62-29.28S163.16,336.22,163.16,336.22Z" style="fill:#92E3A9"></path><path d="M163.16,336.22s7.33-22.93,8.55-28.83c.87-4.16,3.95.69,3.95.69s6-4.29,6-.69a10.89,10.89,0,0,0,2.25,6.31s-1.35-6.31,5-8.11,9,.9,7.66,8.11.9,4.5,2.25,2.7-.45-6.31,7.66-9.46,12.62,0,11.26,6.76-3.6,12.61-3.6,22.52,1.8,18.92,3.6,18.92,11.72-10.36,13.52-3.6-1.8,6.76-11.26,14.86-34.24,14.87-38.29,23-6.76,13.06-9.46,13.51-7.21-15.76-20.28-14-26.58,14.87-23.42,9.46,14.86-14,21.62-29.28S163.16,336.22,163.16,336.22Z" style="fill:#fff;opacity:0.4"></path><path d="M212.64,269.42s-12,20.65-14.62,24.95-4.73,8.17-7.75,9.89-5.16,5.59-4.3,6.88" style="fill:#fff;stroke:#263238;stroke-linecap:round;stroke-linejoin:round"></path><path d="M183.82,297.81a23.72,23.72,0,0,1-5.16,6.45c-3.44,3-7.31,5.59-8.17,9a16.9,16.9,0,0,1-3,6" style="fill:#fff;stroke:#263238;stroke-linecap:round;stroke-linejoin:round"></path><path d="M215.22,300.82s-8.6,5.59-10.75,7.31-3,5.59-3,5.59" style="fill:#fff;stroke:#263238;stroke-linecap:round;stroke-linejoin:round"></path><line x1="238.88" y1="282.32" x2="231.13" y2="288.34" style="fill:#fff;stroke:#263238;stroke-linecap:round;stroke-linejoin:round"></line><path d="M448.06,426.11s-39.14-38.27-42.15-46-2.15-9.46-4.73-15S390.86,350,390.43,343.11s-3.87-23.23-3.87-28.82-1.29-13.76-3-15.05-11.19-3.45-11.19-3.45-5.16-16.34-9-17.2S351.72,282,351.72,282s-1.72-3-3.87-7.74-6-4.73-10.75-3-14.2,5.59-14.2,5.59-10.75-8.17-14.19-3-7.74,14.62-8.6,18.06,5.09,3.32,6.38,2.46,6.13-4.42,6.13-4.42,9.42,7.12,11.14,11,5.16,21.93,5.59,25.37-1.29,14.19-1.29,14.19-8.17-14.62-12-18.92-9.46-6.88-13.76-6.88-7.31,4.73-3.87,6.88,7.31,4.73,8.17,7.74,9.46,18.5,10.32,24.09,6.88,16.77,12.47,20.21,26.24,7.74,30.11,11.62,31.4,58.49,31.4,58.49M330.64,285h6.89l7.31,14.2Z" style="fill:#fff;stroke:#263238;stroke-linecap:round;stroke-linejoin:round"></path><path d="M385.25,320.45s-5-14-10.81-11.26-6.76,4.06-6.76,4.06-3.16-5-8.56-3.16-7.21-1.8-7.21-1.8-7.21-4.5-11.71-.9-.9,13.51.9,21.62-2.25,23.88-3.15,25.23-13.07-4.05-14.42.9,4.05,15.77,14.87,19.37,18.92,5.41,23,9.46,14.42,33.34,23.43,35.59,18.92-10.81,28.38-9.91,21.62,7.66,16.67,1.8-25.68-27-27-34.68-6.31-13.07-8.56-16.67S388,334.87,386.6,329A43.5,43.5,0,0,1,385.25,320.45Z" style="fill:#92E3A9"></path><path d="M385.25,320.45s-5-14-10.81-11.26-6.76,4.06-6.76,4.06-3.16-5-8.56-3.16-7.21-1.8-7.21-1.8-7.21-4.5-11.71-.9-.9,13.51.9,21.62-2.25,23.88-3.15,25.23-13.07-4.05-14.42.9,4.05,15.77,14.87,19.37,18.92,5.41,23,9.46,14.42,33.34,23.43,35.59,18.92-10.81,28.38-9.91,21.62,7.66,16.67,1.8-25.68-27-27-34.68-6.31-13.07-8.56-16.67S388,334.87,386.6,329A43.5,43.5,0,0,1,385.25,320.45Z" style="fill:#fff;opacity:0.4"></path><path d="M351.72,282l6,11.18s2.45,5.87,4.93,8.34,4.64,4.33,5.57,7.43,1.23,4.64,1.23,4.64" style="fill:#fff;stroke:#263238;stroke-linecap:round;stroke-linejoin:round"></path><line x1="372.36" y1="295.79" x2="378.39" y2="308.27" style="fill:#fff;stroke:#263238;stroke-linecap:round;stroke-linejoin:round"></line><line x1="322.9" y1="276.87" x2="330.64" y2="285.04" style="fill:#fff;stroke:#263238;stroke-linecap:round;stroke-linejoin:round"></line><path d="M380,311.14a56.61,56.61,0,0,0,.93,7.74" style="fill:#fff;stroke:#263238;stroke-linecap:round;stroke-linejoin:round"></path><path d="M349.06,304s3.71,2.78,4.33,6.49" style="fill:#fff;stroke:#263238;stroke-linecap:round;stroke-linejoin:round"></path><path d="M312.62,290s-3.4-1.36-3.4-4.08" style="fill:#fff;stroke:#263238;stroke-linecap:round;stroke-linejoin:round"></path><path d="M337.53,285s-2.46-1.89-2.46-4.27" style="fill:#fff;stroke:#263238;stroke-linecap:round;stroke-linejoin:round"></path></g></svg>