<svg xmlns="http://www.w3.org/2000/svg" xmlns:xlink="http://www.w3.org/1999/xlink" viewBox="0 0 500 500"><defs><clippath id="clip-path"><path d="M214.85,337.9c-.42,4.48-.87,9.15-1.22,12.29-.88,7.88-7.45,49.71-6.79,52.78s4.16,5,7,3.06,3.94-2.84,4.38-5.47a36.36,36.36,0,0,0,.58-7c0-2.33,10.2-37.43,15.68-56.47C225.52,340.7,218.49,339.25,214.85,337.9Z" style="fill:#fff;stroke:#263238;stroke-linecap:round;stroke-linejoin:round"></path></clippath><clippath id="clip-path-2"><path d="M221.63,376.57c0,34.64-26.2,51.68-58.5,51.68s-58.5-17-58.5-51.68,26.19-56.66,58.5-56.66S221.63,341.93,221.63,376.57Z" style="fill:#92E3A9;stroke:#263238;stroke-linecap:round;stroke-linejoin:round"></path></clippath><clippath id="clip-path-3"><path d="M230.52,305.25c-3.35-1.7-8.62-1.22-13.61-.61-9,1.09-21.46.22-21.46.22s.66-21.9.66-23,24.31-17.74,24.31-17.74,16,42.93,19.71,44.68,8.76,3.5,7-9.2-9.42-32.85-12.49-41.17-13.57-15.33-18.83-22.78-5.69-9.42-5-12.26,6.79-7,6.79-7L206,206.74s-2,6.14-7.44,7.89-9.2-6.79-10.29-13.8,12.7-39.42,12.7-39.42L255,156.59s-1.31,3.07.44,5.48,4.82,7.66,5.47,8.32,1.32,1.53,2.19,1.09-2-6.35-2-6.35,9.2,8.76,10.73,9.86,4.82,3.06,4.82,2.19-4.16-4.6-5.91-7-8.32-12.26-10.51-15.77-7.45-3.94-9-3.94-53.88-3.94-55-2.85S177.28,181.56,174.65,191s-5.26,17.52-5.48,26.93-7,22.78-8.1,32.85-10.07,22.56-14,28.69-11,10.29-13.57,23.22.87,22.55,7.66,26.71,37.45,4.6,45.77,4.38c6-.15,26.56-4.05,38.39-10.53" style="fill:#fff;stroke:#263238;stroke-linecap:round;stroke-linejoin:round"></path></clippath><clippath id="clip-path-4"><path d="M239,300.48s-17.95,2.62-25.62,2.4-12.92-.87-12.92-.87a29,29,0,0,0-1.31-7.23c-1.1-2.85-3.51-7.66-4-10.07s-2.41-.22-2.41,2.19-.43,12.92-.43,12.92-5.26-5.7-5.92-7.45-2.19.22-.65,2.85,3.28,7.88,4.81,10.29,6.14,3.07,8.11,3.73,23.43,4.81,31.31,5.69,18.62-.22,19.28-1.75-2.41-12.27-2.41-12.27" style="fill:#fff;stroke:#263238;stroke-linecap:round;stroke-linejoin:round"></path></clippath></defs><g id="background-simple"><path d="M97.12,346.39s41.19,52.16,111.58,54.28S342,358.92,394,324.71s69-91.41,43.05-138.59-73-31-129.5-64.22S241,71.31,175.46,74.29,55.71,147.26,58.1,225.68,97.12,346.39,97.12,346.39Z" style="fill:#92E3A9"></path><path d="M97.12,346.39s41.19,52.16,111.58,54.28S342,358.92,394,324.71s69-91.41,43.05-138.59-73-31-129.5-64.22S241,71.31,175.46,74.29,55.71,147.26,58.1,225.68,97.12,346.39,97.12,346.39Z" style="fill:#fff;opacity:0.7000000000000001"></path></g><g id="Window"><path d="M211.16,95.44H81.79A1.66,1.66,0,0,0,80,96.94V288a1.66,1.66,0,0,0,1.79,1.5H211.16A1.66,1.66,0,0,0,213,288V96.94A1.66,1.66,0,0,0,211.16,95.44ZM106.92,286.51H83.57V252h23.35Zm0-37.53H83.57V202.65h23.35Zm0-49.33H83.57V148.36h23.35Zm0-54.29H83.57V98.44h23.35Zm3.57-46.92h25.7v46.92h-25.7Zm0,49.92h25.7v51.29h-25.7Zm0,54.29h25.7V249h-25.7Zm0,49.33h25.7v34.53h-25.7Zm69.79,34.53H156.76V252h23.52Zm0-37.53H156.76V202.65h23.52Zm0-49.33H156.76V148.36h23.52Zm0-54.29H156.76V98.44h23.52Zm29.09,141.15H183.86V252h25.51Zm0-37.53H183.86V202.65h25.51Zm0-49.33H183.86V148.36h25.51Zm0-54.29H183.86V98.44h25.51Zm-63-49.66V289" style="fill:none;stroke:#263238;stroke-miterlimit:10"></path></g><g id="Plants"><path d="M392.48,264.44a6.85,6.85,0,0,0-3.57-4,10.87,10.87,0,0,0-5.88-.21c-3.56.62-6.67,2-10,3.24,0,0,1.44-.53,7.36,2.36a15.88,15.88,0,0,0,7.16,1.82C389.51,267.59,392.57,267,392.48,264.44Z" style="fill:#92E3A9"></path><path d="M392.8,255.75a6.88,6.88,0,0,0-2.25-4.88A11,11,0,0,0,385,249c-3.59-.44-7,0-10.56.2,0,0,1.53-.09,6.36,4.38a16,16,0,0,0,6.33,3.82C389,257.91,392.14,258.25,392.8,255.75Z" style="fill:#92E3A9"></path><path d="M398.92,267.24a6.87,6.87,0,0,1-2.43-4.8,11,11,0,0,1,2-5.54c1.89-3.08,4.36-5.45,6.73-8.14,0,0-1,1.14-.53,7.7a16,16,0,0,1-.94,7.34C402.94,265.64,401.28,268.28,398.92,267.24Z" style="fill:#92E3A9"></path><path d="M407.47,272a6.83,6.83,0,0,1,1.67-5.11,11,11,0,0,1,5.31-2.54c3.52-.84,6.93-.78,10.51-1,0,0-1.53.08-5.81,5.08A16,16,0,0,1,413.3,273C411.45,273.7,408.4,274.4,407.47,272Z" style="fill:#92E3A9"></path><path d="M406.91,261a6.87,6.87,0,0,1-4.55-2.87,11,11,0,0,1-1.15-5.77c0-3.62.93-6.91,1.58-10.44,0,0-.29,1.5,3.51,6.88a16,16,0,0,1,3,6.78C409.54,257.59,409.47,260.71,406.91,261Z" style="fill:#92E3A9"></path><path d="M415.73,255.52a6.9,6.9,0,0,0,5,1.85,11.06,11.06,0,0,0,5.28-2.61c2.84-2.23,4.9-5,7.3-7.63,0,0-1,1.16-7.59,1.43a16,16,0,0,0-7.18,1.79C416.85,251.34,414.42,253.3,415.73,255.52Z" style="fill:#92E3A9"></path><path d="M413.18,253.37a6.87,6.87,0,0,0,5.09-1.72,11.06,11.06,0,0,0,2.48-5.34c.81-3.52.71-6.94.9-10.52,0,0-.07,1.53-5,5.87a16,16,0,0,0-4.47,5.89C411.43,249.41,410.76,252.46,413.18,253.37Z" style="fill:#92E3A9"></path><polyline points="402.18 283.35 396.87 270.26 390.73 255.14" style="fill:none;stroke:#263238;stroke-linecap:round;stroke-linejoin:round"></polyline><polyline points="403.41 281.1 408.72 262.9 414.45 251.66" style="fill:none;stroke:#263238;stroke-linecap:round;stroke-linejoin:round"></polyline><line x1="405.45" y1="273.95" x2="410.77" y2="270.88" style="fill:none;stroke:#263238;stroke-linecap:round;stroke-linejoin:round"></line><line x1="408.72" y1="262.91" x2="406.07" y2="256.98" style="fill:none;stroke:#263238;stroke-linecap:round;stroke-linejoin:round"></line><line x1="412.05" y1="257.01" x2="418.54" y2="254.11" style="fill:none;stroke:#263238;stroke-linecap:round;stroke-linejoin:round"></line><line x1="397.89" y1="272.72" x2="400.14" y2="263.72" style="fill:none;stroke:#263238;stroke-linecap:round;stroke-linejoin:round"></line><line x1="394.91" y1="265.88" x2="389.71" y2="263.11" style="fill:none;stroke:#263238;stroke-linecap:round;stroke-linejoin:round"></line><polygon points="407.49 289.89 397.9 289.89 395.84 279.06 409.54 279.06 407.49 289.89" style="fill:#263238;stroke:#263238;stroke-linecap:round;stroke-linejoin:round"></polygon></g><g id="Device"><rect x="302.67" y="250.71" width="59.38" height="37.07" style="fill:#263238;stroke:#263238;stroke-linecap:round;stroke-linejoin:round"></rect><rect x="301.15" y="250.71" width="59.38" height="37.07" style="fill:#fff;stroke:#263238;stroke-linecap:round;stroke-linejoin:round"></rect><rect x="303.91" y="253.36" width="53.85" height="32.7" style="fill:#fff;stroke:#263238;stroke-linecap:round;stroke-linejoin:round"></rect><line x1="309.38" y1="271.37" x2="309.38" y2="253.45" style="fill:none;stroke:#263238;stroke-miterlimit:10;stroke-width:0.5px"></line><line x1="319.42" y1="271.37" x2="319.42" y2="253.45" style="fill:none;stroke:#263238;stroke-miterlimit:10;stroke-width:0.5px"></line><line x1="329.47" y1="271.37" x2="329.47" y2="253.45" style="fill:none;stroke:#263238;stroke-miterlimit:10;stroke-width:0.5px"></line><line x1="339.52" y1="271.37" x2="339.52" y2="253.45" style="fill:none;stroke:#263238;stroke-miterlimit:10;stroke-width:0.5px"></line><line x1="349.56" y1="271.37" x2="349.56" y2="253.45" style="fill:none;stroke:#263238;stroke-miterlimit:10;stroke-width:0.5px"></line><line x1="303.95" y1="262" x2="357.58" y2="262" style="fill:none;stroke:#263238;stroke-miterlimit:10;stroke-width:0.5px"></line><line x1="303.45" y1="271.19" x2="357.69" y2="271.19" style="fill:none;stroke:#263238;stroke-miterlimit:10;stroke-width:0.5px"></line><ellipse cx="329.63" cy="277.88" rx="4.9" ry="4.48" style="fill:#92E3A9;stroke:#263238;stroke-miterlimit:10;stroke-width:0.5px"></ellipse><path d="M327.36,272.72a3.45,3.45,0,0,0-2.51,0c-1.44.5-2.11,2.88-2.08,3.28s1.24,5.62,1.24,5.62-1.37.87-1.44,1.14,2.11-.4,2.31-.7.17-6.16.17-6.16a7.76,7.76,0,0,0,2.31-.07,7.52,7.52,0,0,0,1.07-.6l2.17.07a15,15,0,0,0,1.65.93,4.94,4.94,0,0,0,1.07.27l.3,4.25c0,.57.27,2,.27,2a17.22,17.22,0,0,0,1.84.37c.33,0-1.24-1.17-1.24-1.17s1.07-5.69,1-6.4a2,2,0,0,0-.7-1.5,4.38,4.38,0,0,0-2-.77H332a4.64,4.64,0,0,1-2.41.06,7.21,7.21,0,0,0-1.61-.6Z" style="fill:#fff;stroke:#263238;stroke-miterlimit:10;stroke-width:0.5px"></path><path d="M334.79,274a4.38,4.38,0,0,0-2-.77H332a4.64,4.64,0,0,1-2.41.06,7.21,7.21,0,0,0-1.61-.6h-.6a3.45,3.45,0,0,0-2.51,0c-1.44.5-2.11,2.88-2.08,3.28,0,.08.06.34.14.7h2.14v-.8a7.76,7.76,0,0,0,2.31-.07,7.52,7.52,0,0,0,1.07-.6l2.17.07a15,15,0,0,0,1.65.93,4.94,4.94,0,0,0,1.07.27v.2h2.06a7.34,7.34,0,0,0,.1-1.14A2,2,0,0,0,334.79,274Z" style="fill:#263238;stroke:#263238;stroke-miterlimit:10;stroke-width:0.5px"></path><path d="M324.88,282a.68.68,0,0,0,.05-.25l-.32.08-.6-.27s-1.37.87-1.44,1.14S324.68,282.33,324.88,282Z" style="fill:#fff;stroke:#263238;stroke-miterlimit:10;stroke-width:0.5px"></path><path d="M334.49,281.93l-.3.23-.41-.12.11.69a17.22,17.22,0,0,0,1.84.37C336.06,283.1,334.49,281.93,334.49,281.93Z" style="fill:#fff;stroke:#263238;stroke-miterlimit:10;stroke-width:0.5px"></path><path d="M331.81,264.82l-.4-.7s-.2-.8-.3-1.11-.2-.53-.2-.53l1.67-3.28,4.49.5a4,4,0,0,0,.46.57,3.22,3.22,0,0,0,.87.37c.1,0-.33-.5-.33-.5a5.13,5.13,0,0,0,.74.36c.1,0,.23.34.33.34s-.13-.67-.27-.87A10,10,0,0,0,337,258.9c-.37-.17-4.72-1.74-5-1.54s-2.08,4.25-2.55,5.19a8.54,8.54,0,0,0-.77,2.84c0,.47-.5,3.65-.5,4.12s-.1,1.6-.1,1.6l-.7,1.61a8.13,8.13,0,0,0,2.34,1.11,6.69,6.69,0,0,0,2.55-.57l-.27-1.48,2.31-3.14s2,2.24,2.31,2.24.53,0,.4-.77a13.59,13.59,0,0,0-1.84-3.11,8.79,8.79,0,0,0-1.91-1l-1.34-.83Z" style="fill:#fff;stroke:#263238;stroke-miterlimit:10;stroke-width:0.5px"></path><path d="M333.31,266l-.06,0-1.34-.83-.1-.34-.36-.63c-.56.42-1.9,1.42-2.88,2.07-.14,1.12-.41,2.91-.41,3.25s-.1,1.6-.1,1.6l-.7,1.61a8.13,8.13,0,0,0,2.34,1.11,6.69,6.69,0,0,0,2.55-.57l-.27-1.48,1.85-2.51A8.88,8.88,0,0,1,333.31,266Z" style="fill:#92E3A9;stroke:#263238;stroke-miterlimit:10;stroke-width:0.5px"></path><path d="M332,264a2.59,2.59,0,0,1-.52.95,1,1,0,0,0,.1,1.48c.54.3,1-.21,1.21-.44a14.3,14.3,0,0,0,.77-1.47l-1.34-.81Z" style="fill:#fff;stroke:#263238;stroke-miterlimit:10;stroke-width:0.5px"></path><path d="M332.71,261.44s.14-.5-.33-.1-.36.78-.17.88S332.71,261.44,332.71,261.44Z" style="fill:#fff;stroke:#263238;stroke-miterlimit:10;stroke-width:0.5px"></path><path d="M335.29,263s.41-.31.22.27-.59.64-.75.49S335.29,263,335.29,263Z" style="fill:#fff;stroke:#263238;stroke-miterlimit:10;stroke-width:0.5px"></path><path d="M333.32,260.5s-.73,1.05-1.11,1.72A1.93,1.93,0,0,0,332,264a1.44,1.44,0,0,0,1.17.85c.67.13,1.3-.54,1.39-.63s1.05-1.53,1.3-2a1.65,1.65,0,0,0-.41-1.69A1.38,1.38,0,0,0,333.32,260.5Z" style="fill:#fff;stroke:#263238;stroke-miterlimit:10;stroke-width:0.5px"></path><path d="M335.41,260.53a1.38,1.38,0,0,0-2.09,0s-.32.47-.65,1l0,.09.23.14a3.63,3.63,0,0,0,.7-.87c.17-.37.37-.74.74-.4s.13.83.7,1,1.07.23.74.53-.4.3-.5.61a2.63,2.63,0,0,1-.47.7l.27.16c.3-.44.63-1,.76-1.19A1.65,1.65,0,0,0,335.41,260.53Z" style="fill:#263238;stroke:#263238;stroke-miterlimit:10;stroke-width:0.5px"></path><path d="M336.16,270.24l-2,2.85a4.12,4.12,0,0,0-1.28-.13c-.3.1-.66.23-.53.3a14.28,14.28,0,0,0,1.64.53,2,2,0,0,0,.5-.13s2.68-2.41,2.88-2.78-.9-1.74-.9-1.74" style="fill:#fff;stroke:#263238;stroke-miterlimit:10;stroke-width:0.5px"></path><rect x="274.35" y="287.79" width="88.17" height="2.93" style="fill:#fff;stroke:#263238;stroke-linecap:round;stroke-linejoin:round"></rect><rect x="330.97" y="287.79" width="31.55" height="2.93" style="fill:#263238;stroke:#263238;stroke-linecap:round;stroke-linejoin:round"></rect><path d="M331.49,252.05a.66.66,0,1,1-.65-.66A.65.65,0,0,1,331.49,252.05Z" style="fill:#263238"></path></g><g id="Pictures"><rect x="264.59" y="119.71" width="55.78" height="74.62" style="fill:none;stroke:#263238;stroke-miterlimit:10"></rect><rect x="274.73" y="133.27" width="35.5" height="47.48" style="fill:none;stroke:#263238;stroke-miterlimit:10"></rect><rect x="358.04" y="168.05" width="45.64" height="61.05" style="fill:none;stroke:#263238;stroke-miterlimit:10"></rect><rect x="366.34" y="179.15" width="29.04" height="38.85" style="fill:none;stroke:#263238;stroke-miterlimit:10"></rect></g><g id="Furniture"><polygon points="423.38 291.87 451.7 398.06 423.04 398.06 423.38 291.87" style="fill:#92E3A9"></polygon><polygon points="423.38 291.87 451.7 398.06 423.04 398.06 423.38 291.87" style="fill:#fff;opacity:0.5"></polygon><rect x="175.71" y="290.58" width="247.33" height="107.42" style="fill:#263238;stroke:#263238;stroke-linecap:round;stroke-linejoin:round"></rect><rect x="149.96" y="290.58" width="247.33" height="107.42" style="fill:#fff;stroke:#263238;stroke-linecap:round;stroke-linejoin:round"></rect><rect x="155.29" y="294.58" width="236.67" height="99.42" style="fill:#bfbfbf;stroke:#263238;stroke-linecap:round;stroke-linejoin:round"></rect><rect x="329.13" y="294.58" width="5.33" height="48" style="fill:#fff;stroke:#263238;stroke-linecap:round;stroke-linejoin:round"></rect><rect x="271.63" y="294.58" width="5.33" height="48" style="fill:#fff;stroke:#263238;stroke-linecap:round;stroke-linejoin:round"></rect><rect x="276.72" y="294.58" width="25.45" height="48" style="fill:#263238;stroke:#263238;stroke-linecap:round;stroke-linejoin:round"></rect><rect x="247.14" y="345.72" width="25.45" height="48" style="fill:#263238;stroke:#263238;stroke-linecap:round;stroke-linejoin:round"></rect><rect x="155.31" y="345.72" width="25.45" height="48" style="fill:#263238;stroke:#263238;stroke-linecap:round;stroke-linejoin:round"></rect><rect x="316.71" y="345.72" width="25.45" height="48" style="fill:#263238;stroke:#263238;stroke-linecap:round;stroke-linejoin:round"></rect><rect x="213.7" y="294.58" width="25.45" height="48" style="fill:#263238;stroke:#263238;stroke-linecap:round;stroke-linejoin:round"></rect><rect x="155.31" y="294.58" width="25.45" height="48" style="fill:#263238;stroke:#263238;stroke-linecap:round;stroke-linejoin:round"></rect><rect x="334.4" y="294.58" width="25.45" height="48" style="fill:#263238;stroke:#263238;stroke-linecap:round;stroke-linejoin:round"></rect><rect x="208.13" y="294.58" width="5.33" height="48" style="fill:#fff;stroke:#263238;stroke-linecap:round;stroke-linejoin:round"></rect><rect x="241.63" y="345.91" width="5.33" height="48" style="fill:#fff;stroke:#263238;stroke-linecap:round;stroke-linejoin:round"></rect><rect x="311.38" y="345.91" width="5.33" height="48" style="fill:#fff;stroke:#263238;stroke-linecap:round;stroke-linejoin:round"></rect><rect x="155.39" y="341.82" width="236.57" height="4.13" style="fill:#fff;stroke:#263238;stroke-linecap:round;stroke-linejoin:round"></rect><circle cx="373.28" cy="375.81" r="2.32" style="fill:#263238;stroke:#263238;stroke-linecap:round;stroke-linejoin:round"></circle><path d="M386.44,394a10.76,10.76,0,0,0,1.39-5.26,11.79,11.79,0,0,0-5.26-9.56H364a11.77,11.77,0,0,0-5.27,9.56,10.87,10.87,0,0,0,1.39,5.26Z" style="fill:#fff;stroke:#263238;stroke-miterlimit:10"></path><rect x="361.76" y="376.52" width="23.04" height="2.5" rx="0.86" style="fill:#263238;stroke:#263238;stroke-linecap:round;stroke-linejoin:round"></rect><path d="M346.12,378.5a2,2,0,1,0-2,2A2,2,0,0,0,346.12,378.5Z" style="fill:#263238;stroke:#263238;stroke-linecap:round;stroke-linejoin:round"></path><path d="M355.36,394a9.15,9.15,0,0,0,1.19-4.49,10,10,0,0,0-4.49-8.14H336.23a10,10,0,0,0-4.49,8.14,9.15,9.15,0,0,0,1.19,4.49Z" style="fill:#fff;stroke:#263238;stroke-miterlimit:10"></path><rect x="334.33" y="379.11" width="19.63" height="2.13" rx="0.86" style="fill:#263238;stroke:#263238;stroke-linecap:round;stroke-linejoin:round"></rect><path d="M378.62,329.53l1.43.71a11.36,11.36,0,0,1,1.43.9s.89,1.25,1.78,1.25,1.25-.54,1.25-1.43-1.43-3-1.6-3.57-.9-3.93-1.61-4.29a14.3,14.3,0,0,0-2.5-.71v-2.5a10,10,0,0,0-9.11,4.46,15.25,15.25,0,0,0-2.68,10.9c.18,1.6,1.25,6.07,1.25,6.07H382s.36-1.79-1.43-5.36S378.62,332.92,378.62,329.53Z" style="fill:#fff;stroke:#263238;stroke-linecap:round;stroke-linejoin:round"></path><path d="M378.8,322.39a11.88,11.88,0,0,0-9.83,12" style="fill:none;stroke:#263238;stroke-linecap:round;stroke-linejoin:round"></path><path d="M290.42,356.43h-2.85l-1.08,7.6-2.3,2.44a10.71,10.71,0,0,0-2.72,9.43l3.5,17.77h7.22l4.34-17.08a10.75,10.75,0,0,0-2.2-9.56l-2.52-3Z" style="fill:#fff;stroke:#263238;stroke-linecap:round;stroke-linejoin:round"></path></g><g id="Character"><line x1="439.95" y1="398.49" x2="61.68" y2="398.49" style="fill:none;stroke:#263238;stroke-miterlimit:10"></line><line x1="459.4" y1="398.49" x2="450.01" y2="398.49" style="fill:none;stroke:#263238;stroke-miterlimit:10"></line><ellipse cx="188.26" cy="418.76" rx="69.71" ry="13.31" style="fill:#92E3A9"></ellipse><ellipse cx="188.26" cy="418.76" rx="69.71" ry="13.31" style="fill:#fff;opacity:0.5"></ellipse><path d="M137,297s-10.95.66-13.58,9.64c-1.52,5.2-.7,11.34-.14,16.63.63,6,1,13.65,3.45,19.26,1.24,2.86,4.44,5.26,7.15,3,3.38-2.81,4.15-9.57,4.87-13.5C142.67,310.55,144.21,295,137,297Z" style="fill:#fff;stroke:#263238;stroke-linecap:round;stroke-linejoin:round"></path><path d="M137,297s-10.95.66-13.58,9.64c-1.52,5.2-.7,11.34-.14,16.63,0,.56.11,1.15.17,1.74a44.69,44.69,0,0,0,16.35,1.12C142.88,307.77,143.52,295.19,137,297Z" style="fill:#263238;stroke:#263238;stroke-linecap:round;stroke-linejoin:round"></path><path d="M217,395.92a29.46,29.46,0,0,0,7.61,5.58c5,2.64,9.06,2.56,9.2,5.54s-2.8,5.61-9.61,6.57-6.9,3-12.59,3.1-9.54-2.46-8.45-6.7,3.37-13.84,3.37-13.84S213.53,405,217,395.92Z" style="fill:#fff;stroke:#263238;stroke-linecap:round;stroke-linejoin:round"></path><path d="M216,324.78s-1.53,17.52-2.41,25.41-7.45,49.71-6.79,52.78,4.16,5,7,3.06,3.94-2.84,4.38-5.47-.66-4.82-.66-7.67,17.08-53.65,19.49-65.7.88-18.61-1.75-21-9.64-3.5-13.58-2" style="fill:#263238;stroke:#263238;stroke-linecap:round;stroke-linejoin:round"></path><path d="M214.85,337.9c-.42,4.48-.87,9.15-1.22,12.29-.88,7.88-7.45,49.71-6.79,52.78s4.16,5,7,3.06,3.94-2.84,4.38-5.47a36.36,36.36,0,0,0,.58-7c0-2.33,10.2-37.43,15.68-56.47C225.52,340.7,218.49,339.25,214.85,337.9Z" style="fill:#fff"></path><g style="clip-path:url(#clip-path)"><path d="M214.85,337.9c-.42,4.48-.87,9.15-1.22,12.29-.88,7.88-7.45,49.71-6.79,52.78s4.16,5,7,3.06,3.94-2.84,4.38-5.47a36.36,36.36,0,0,0,.58-7c0-2.33,10.2-37.43,15.68-56.47C225.52,340.7,218.49,339.25,214.85,337.9Z" style="opacity:0.18"></path></g><path d="M214.85,337.9c-.42,4.48-.87,9.15-1.22,12.29-.88,7.88-7.45,49.71-6.79,52.78s4.16,5,7,3.06,3.94-2.84,4.38-5.47a36.36,36.36,0,0,0,.58-7c0-2.33,10.2-37.43,15.68-56.47C225.52,340.7,218.49,339.25,214.85,337.9Z" style="fill:none;stroke:#263238;stroke-linecap:round;stroke-linejoin:round"></path><path d="M221.63,376.57c0,34.64-26.2,51.68-58.5,51.68s-58.5-17-58.5-51.68,26.19-56.66,58.5-56.66S221.63,341.93,221.63,376.57Z" style="fill:#92E3A9"></path><g style="clip-path:url(#clip-path-2)"><path d="M163.13,319.91c-15.39,0-29.37,5-39.82,14,4.34,5.16,13.19,11.77,31.2,16.19,33.43,8.2,51.4,19.15,54.25,42.89,2.47,20.56-20.15,32-51.23,35.11,1.84.11,3.71.18,5.6.18,32.3,0,58.5-17,58.5-51.68S195.43,319.91,163.13,319.91Z" style="opacity:0.18"></path></g><path d="M221.63,376.57c0,34.64-26.2,51.68-58.5,51.68s-58.5-17-58.5-51.68,26.19-56.66,58.5-56.66S221.63,341.93,221.63,376.57Z" style="fill:none;stroke:#263238;stroke-linecap:round;stroke-linejoin:round"></path><path d="M230.52,305.25c-3.35-1.7-8.62-1.22-13.61-.61-9,1.09-21.46.22-21.46.22s.66-21.9.66-23,24.31-17.74,24.31-17.74,16,42.93,19.71,44.68,8.76,3.5,7-9.2-9.42-32.85-12.49-41.17-13.57-15.33-18.83-22.78-5.69-9.42-5-12.26,6.79-7,6.79-7L206,206.74s-2,6.14-7.44,7.89-9.2-6.79-10.29-13.8,12.7-39.42,12.7-39.42L255,156.59s-1.31,3.07.44,5.48,4.82,7.66,5.47,8.32,1.32,1.53,2.19,1.09-2-6.35-2-6.35,9.2,8.76,10.73,9.86,4.82,3.06,4.82,2.19-4.16-4.6-5.91-7-8.32-12.26-10.51-15.77-7.45-3.94-9-3.94-53.88-3.94-55-2.85S177.28,181.56,174.65,191s-5.26,17.52-5.48,26.93-7,22.78-8.1,32.85-10.07,22.56-14,28.69-11,10.29-13.57,23.22.87,22.55,7.66,26.71,37.45,4.6,45.77,4.38c6-.15,26.56-4.05,38.39-10.53" style="fill:#fff"></path><g style="clip-path:url(#clip-path-3)"><g style="opacity:0.18"><path d="M270.79,170.17c-1.75-2.41-8.32-12.26-10.51-15.77a7.31,7.31,0,0,0-3-2.61c0,.63-.82,1.28-4.11,1.28-6.37,0-54.93,2.94-54.93,2.94S181,197.21,182,203.1s4.41,13.24,8.34,13.24a9.89,9.89,0,0,0,4.78-2c-3.61-1.74-6-8.11-6.9-13.56-1.1-7,12.7-39.42,12.7-39.42L255,156.59s-1.31,3.07.44,5.48,4.82,7.66,5.47,8.32,1.32,1.53,2.19,1.09-2-6.35-2-6.35,9.2,8.76,10.73,9.86,4.82,3.06,4.82,2.19S272.54,172.58,270.79,170.17Z"></path><path d="M234.65,258.43c-3.06-8.32-13.57-15.33-18.83-22.78s-5.69-9.42-5-12.26,6.79-7,6.79-7l-3.78-3.14c-4.13,4-8.24,8.27-8.73,10.46-1,4.41,2.45,10.79,7.85,17.65s11.77,12.76,16.18,19.62c3.22,5,11.92,33,16.78,48.52,1.38-1,2.11-3.8,1.27-9.89C245.38,286.9,237.72,266.75,234.65,258.43Z"></path><path d="M212.42,262.44c-3.44,2-20.6,17.66-22.57,21.58s5.6,20.84,5.6,20.84.66-21.9.66-23,24.31-17.74,24.31-17.74S215.85,260.48,212.42,262.44Z"></path></g></g><path d="M230.52,305.25c-3.35-1.7-8.62-1.22-13.61-.61-9,1.09-21.46.22-21.46.22s.66-21.9.66-23,24.31-17.74,24.31-17.74,16,42.93,19.71,44.68,8.76,3.5,7-9.2-9.42-32.85-12.49-41.17-13.57-15.33-18.83-22.78-5.69-9.42-5-12.26,6.79-7,6.79-7L206,206.74s-2,6.14-7.44,7.89-9.2-6.79-10.29-13.8,12.7-39.42,12.7-39.42L255,156.59s-1.31,3.07.44,5.48,4.82,7.66,5.47,8.32,1.32,1.53,2.19,1.09-2-6.35-2-6.35,9.2,8.76,10.73,9.86,4.82,3.06,4.82,2.19-4.16-4.6-5.91-7-8.32-12.26-10.51-15.77-7.45-3.94-9-3.94-53.88-3.94-55-2.85S177.28,181.56,174.65,191s-5.26,17.52-5.48,26.93-7,22.78-8.1,32.85-10.07,22.56-14,28.69-11,10.29-13.57,23.22.87,22.55,7.66,26.71,37.45,4.6,45.77,4.38c6-.15,26.56-4.05,38.39-10.53" style="fill:none;stroke:#263238;stroke-linecap:round;stroke-linejoin:round"></path><path d="M186.91,333.76c6-.15,26.56-4.05,38.39-10.53l5.22-18c-3.35-1.7-8.62-1.22-13.61-.61-9,1.09-21.46.22-21.46.22s.38-12.71.57-19.25l-37.64-25.56c-3.26,7.58-8.54,15.07-11.33,19.4-3.94,6.13-11,10.29-13.57,23.22s.87,22.55,7.66,26.71S178.59,334,186.91,333.76Z" style="fill:#263238;stroke:#263238;stroke-linecap:round;stroke-linejoin:round"></path><path d="M195.45,304.86s.66-21.9.66-23c0-.36,2.58-2.36,6-4.9-2.58-5.62-5.65-14.86-2.55-22.47,3.77-9.26,13.17-15.43,17.08-17.67q-.45-.58-.87-1.17c-.69-1-1.29-1.85-1.82-2.65-6.59,1.65-21.32,4.53-21.83-2.6-.39-5.38,1.69-11.56,3.49-15.79a7.25,7.25,0,0,1-3.28-2.65c-6.66,11-20.3,19.52-27.34,23.39-1.73,5.36-3.46,10.74-4,15.41-1.1,10.08-10.07,22.56-14,28.69-3.27,5.09-8.64,8.84-11.88,17.34,8.24,11.27,17.15,13.79,36.41,14.2,12,.25,20.55-3.16,25.55-6Z" style="fill:gray;stroke:#263238;stroke-linecap:round;stroke-linejoin:round"></path><path d="M187,260a28,28,0,0,0,1.47,9.39" style="fill:none;stroke:#263238;stroke-linecap:round;stroke-linejoin:round"></path><path d="M187.55,252.41s-.16.85-.31,2.25" style="fill:none;stroke:#263238;stroke-linecap:round;stroke-linejoin:round"></path><path d="M216.7,184.62s1.09-6.13-4.6-2.62-3.73,9.85-2.41,10.29S216.7,184.62,216.7,184.62Z" style="fill:#fff;stroke:#263238;stroke-linecap:round;stroke-linejoin:round"></path><path d="M230.1,175.28a22.1,22.1,0,0,0-11.21,5.63c-3.83,3.52-9.44,9.58-12,16.85-4.16,11.61-1.75,19.5,5.48,20.59s18.61-5,26.28-15.11,6.57-20.37,1.09-25.84C237.18,174.89,233.43,174.72,230.1,175.28Z" style="fill:#263238;stroke:#263238;stroke-linecap:round;stroke-linejoin:round"></path><path d="M232.24,184.19s-2.84-2.19-3.94.87.66,6.35-1.75,15.33-4.6,13.8,0,23.87,13.14,9.2,16.64,13.36,0,11.83-3.94,11.83a6.91,6.91,0,0,1-5.69-2.63s3.72,8.76,11.82,9.2,20.15-3.07,21.47-20.81-5.48-23.43-16.65-30.44S232.24,184.19,232.24,184.19Z" style="fill:#263238;stroke:#263238;stroke-linecap:round;stroke-linejoin:round"></path><path d="M228.25,191.13s-2.68,9.39,8.5,19.68,29.52,10.73,29.08,29.52" style="fill:none;stroke:#5e5e5e;stroke-linecap:round;stroke-linejoin:round"></path><path d="M229.15,200.52s-1,19.67,9.84,25.5c12.52,6.71,21.47,16.55,13,25" style="fill:none;stroke:#5e5e5e;stroke-linecap:round;stroke-linejoin:round"></path><path d="M239,300.48s-17.95,2.62-25.62,2.4-12.92-.87-12.92-.87a29,29,0,0,0-1.31-7.23c-1.1-2.85-3.51-7.66-4-10.07s-2.41-.22-2.41,2.19-.43,12.92-.43,12.92-5.26-5.7-5.92-7.45-2.19.22-.65,2.85,3.28,7.88,4.81,10.29,6.14,3.07,8.11,3.73,23.43,4.81,31.31,5.69,18.62-.22,19.28-1.75-2.41-12.27-2.41-12.27" style="fill:#fff"></path><g style="clip-path:url(#clip-path-4)"><path d="M242.85,300.69c.06,1.41,0,5.57-2,6.39-2.45,1-27,2.94-36.29,2.94a3.08,3.08,0,0,0-1.39.22c7.19,1.49,20.91,4,26.87,4.69,7.89.88,18.62-.22,19.28-1.75s-2.41-12.27-2.41-12.27Z" style="opacity:0.18"></path><path d="M194.76,300.21c5.39,0,5.73,1.8,5.73,1.8a29,29,0,0,0-1.31-7.23c-1.1-2.85-3.51-7.66-4-10.07s-2.41-.22-2.41,2.19-.43,12.92-.43,12.92-5.26-5.7-5.92-7.45c-.46-1.24-1.36-.61-1.3.8C189.05,297.52,190,300.21,194.76,300.21Z" style="opacity:0.18"></path></g><path d="M239,300.48s-17.95,2.62-25.62,2.4-12.92-.87-12.92-.87a29,29,0,0,0-1.31-7.23c-1.1-2.85-3.51-7.66-4-10.07s-2.41-.22-2.41,2.19-.43,12.92-.43,12.92-5.26-5.7-5.92-7.45-2.19.22-.65,2.85,3.28,7.88,4.81,10.29,6.14,3.07,8.11,3.73,23.43,4.81,31.31,5.69,18.62-.22,19.28-1.75-2.41-12.27-2.41-12.27" style="fill:none;stroke:#263238;stroke-linecap:round;stroke-linejoin:round"></path></g></svg>