<svg xmlns="http://www.w3.org/2000/svg" viewBox="0 0 750 500"><g id="background-simple"><path d="M704,274S690,125,577,67,405,27,333,60s-99.07,92.52-161,121S20,229,16,297,36,411,70,429s67,18,67,18H659S724,414,704,274Z" style="fill:#92E3A9"></path><path d="M704,274S690,125,577,67,405,27,333,60s-99.07,92.52-161,121S20,229,16,297,36,411,70,429s67,18,67,18H659S724,414,704,274Z" style="fill:#fff;opacity:0.7000000000000001"></path></g><g id="Graphics"><g style="opacity:0.30000000000000004"><path d="M152,42s.47-.2,1.39-.56" style="fill:none;stroke:#000;stroke-linecap:round;stroke-linejoin:round"></path><path d="M158.06,39.73C174.75,34,224.14,20.25,284,34c81.92,18.82,215.2,169.64,330,133,73.44-23.44,65.58-125.7-15-132.58-94.37-8.06-123.83,38.3-130.38,51.91" style="fill:none;stroke:#000;stroke-linecap:round;stroke-linejoin:round;stroke-dasharray:2.9888100624084473,4.981339931488037"></path><path d="M467.54,88.6c-.38.9-.54,1.4-.54,1.4" style="fill:none;stroke:#000;stroke-linecap:round;stroke-linejoin:round"></path></g><g style="opacity:0.30000000000000004"><polygon points="465.22 416.3 468.29 422.52 475.16 423.52 470.19 428.36 471.36 435.2 465.22 431.98 459.07 435.2 460.25 428.36 455.28 423.52 462.15 422.52 465.22 416.3" style="fill:none;stroke:#000;stroke-linecap:round;stroke-linejoin:round"></polygon><polygon points="494.61 416.3 497.68 422.52 504.55 423.52 499.58 428.36 500.75 435.2 494.61 431.98 488.47 435.2 489.64 428.36 484.67 423.52 491.54 422.52 494.61 416.3" style="fill:none;stroke:#000;stroke-linecap:round;stroke-linejoin:round"></polygon><polygon points="524 416.3 527.07 422.52 533.94 423.52 528.97 428.36 530.14 435.2 524 431.98 517.86 435.2 519.03 428.36 514.06 423.52 520.93 422.52 524 416.3" style="fill:none;stroke:#000;stroke-linecap:round;stroke-linejoin:round"></polygon><polygon points="553.39 416.3 556.46 422.52 563.33 423.52 558.36 428.36 559.53 435.2 553.39 431.98 547.25 435.2 548.42 428.36 543.45 423.52 550.32 422.52 553.39 416.3" style="fill:none;stroke:#000;stroke-linecap:round;stroke-linejoin:round"></polygon><polygon points="582.78 416.3 585.85 422.52 592.72 423.52 587.75 428.36 588.92 435.2 582.78 431.98 576.64 435.2 577.81 428.36 572.84 423.52 579.71 422.52 582.78 416.3" style="fill:none;stroke:#000;stroke-linecap:round;stroke-linejoin:round"></polygon></g><g style="opacity:0.30000000000000004"><rect x="636.08" y="28.49" width="68.36" height="51.67" style="fill:none;stroke:#000;stroke-linecap:round;stroke-linejoin:round"></rect><rect x="636.08" y="28.49" width="68.36" height="8.07" style="fill:none;stroke:#000;stroke-linecap:round;stroke-linejoin:round"></rect><path d="M662.05,50a6.46,6.46,0,1,0-6.46,6.46A6.46,6.46,0,0,0,662.05,50Z" style="fill:none;stroke:#000;stroke-linecap:round;stroke-linejoin:round"></path><path d="M654,60.25h3.23a8.34,8.34,0,0,1,8.34,8.34v6.19a0,0,0,0,1,0,0H645.63a0,0,0,0,1,0,0V68.59A8.34,8.34,0,0,1,654,60.25Z" style="fill:none;stroke:#000;stroke-linecap:round;stroke-linejoin:round"></path><line x1="675.37" y1="47.87" x2="700.13" y2="47.87" style="fill:none;stroke:#000;stroke-linecap:round;stroke-linejoin:round"></line><line x1="675.37" y1="54.86" x2="700.13" y2="54.86" style="fill:none;stroke:#000;stroke-linecap:round;stroke-linejoin:round"></line><line x1="675.37" y1="61.86" x2="700.13" y2="61.86" style="fill:none;stroke:#000;stroke-linecap:round;stroke-linejoin:round"></line><line x1="675.37" y1="68.86" x2="700.13" y2="68.86" style="fill:none;stroke:#000;stroke-linecap:round;stroke-linejoin:round"></line></g><g style="opacity:0.30000000000000004"><polygon points="56 372 19 372 19 321 50.27 321 56 328.76 56 372" style="fill:none;stroke:#000;stroke-linecap:round;stroke-linejoin:round"></polygon><polyline points="50.27 321 50.27 328.76 56 328.76" style="fill:none;stroke:#000;stroke-linecap:round;stroke-linejoin:round"></polyline><line x1="27.78" y1="335.13" x2="47.72" y2="335.13" style="fill:none;stroke:#000;stroke-linecap:round;stroke-linejoin:round"></line><line x1="27.78" y1="342.76" x2="47.72" y2="342.76" style="fill:none;stroke:#000;stroke-linecap:round;stroke-linejoin:round"></line><line x1="27.78" y1="350.4" x2="47.72" y2="350.4" style="fill:none;stroke:#000;stroke-linecap:round;stroke-linejoin:round"></line><line x1="27.78" y1="358.04" x2="47.72" y2="358.04" style="fill:none;stroke:#000;stroke-linecap:round;stroke-linejoin:round"></line></g><g style="opacity:0.30000000000000004"><rect x="65.83" y="40.34" width="80.84" height="48.66" transform="translate(-17.71 54.44) rotate(-26.61)" style="fill:#fff;stroke:#000;stroke-linecap:round;stroke-linejoin:round"></rect><polyline points="59.21 61.02 109.46 71.08 131.49 24.81" style="fill:none;stroke:#000;stroke-linecap:round;stroke-linejoin:round"></polyline><line x1="81.01" y1="104.53" x2="95.43" y2="68.56" style="fill:none;stroke:#000;stroke-linecap:round;stroke-linejoin:round"></line><line x1="153.28" y1="68.32" x2="116.88" y2="56.82" style="fill:none;stroke:#000;stroke-linecap:round;stroke-linejoin:round"></line></g></g><g id="Floor"><line x1="615" y1="447" x2="705" y2="447" style="fill:none;stroke:#263238;stroke-linecap:round;stroke-linejoin:round"></line><line x1="169" y1="447" x2="604" y2="447" style="fill:none;stroke:#263238;stroke-linecap:round;stroke-linejoin:round"></line><line x1="32" y1="447" x2="160" y2="447" style="fill:none;stroke:#263238;stroke-linecap:round;stroke-linejoin:round"></line><ellipse cx="371" cy="463" rx="332" ry="7" style="fill:#ccc"></ellipse></g><g id="Plant"><path d="M605.31,320.24s26.36,20.93,39,42.74,12.22,36.59,12.22,36.59S619.3,373,610.87,355A64.43,64.43,0,0,1,605.31,320.24Z" style="fill:#92E3A9"></path><path d="M716.7,291.06s5.77,37.58-8.06,60.72S656.75,399,656.75,399s-5.47-16.89,14.48-42.55S716.7,291.06,716.7,291.06Z" style="fill:#92E3A9"></path><path d="M654.75,357.31s.37-28.92,18.32-58.72,39.46-60,44.51-72.84a199,199,0,0,0,8.13-27.26s7.47,24.78-6.51,57.75S654.75,357.31,654.75,357.31Z" style="fill:#92E3A9"></path><path d="M656.11,345.43s-21.19-26.95-35.83-57.77S608,224.84,608,224.84s27.48,35.62,36.22,63.44S656.11,345.43,656.11,345.43Z" style="fill:#92E3A9"></path><path d="M660.31,284.5s5-44.28,16.92-68.85,36.37-62.54,36.37-62.54,3,42.51-16.21,76.43S660.31,284.5,660.31,284.5Z" style="fill:#92E3A9"></path><path d="M661.29,259.07s-24.84-37-31.62-63.46S617,124.39,617,124.39s29.78,30.48,37.06,68.77S661.29,259.07,661.29,259.07Z" style="fill:#92E3A9"></path><path d="M649,99.38s23.32,17.2,19.63,53.31S661.38,201,661.38,201C665,176.26,649,99.38,649,99.38Z" style="fill:#92E3A9"></path><path d="M657.18,411.05S655,405.34,655,361.78s5.71-60.69,5.71-103.53,2.86-82.83,2.86-82.83" style="fill:none;stroke:#263238;stroke-miterlimit:10;stroke-width:0.75px"></path><path d="M660.45,280.28s15.52-33.44,22.09-46c6.09-11.62,13.14-30.46,13.14-30.46" style="fill:none;stroke:#263238;stroke-miterlimit:10;stroke-width:0.75px"></path><path d="M690,294c-9.55,17.66-31.32,57.76-35.25,63.33" style="fill:none;stroke:#263238;stroke-miterlimit:10;stroke-width:0.75px"></path><path d="M694.49,285.65l-2.71,5" style="fill:none;stroke:#263238;stroke-miterlimit:10;stroke-width:0.75px"></path><line x1="632.16" y1="285.38" x2="627.01" y2="273.11" style="fill:none;stroke:#263238;stroke-miterlimit:10;stroke-width:0.75px"></line><line x1="655.07" y1="339.99" x2="634.44" y2="290.83" style="fill:none;stroke:#263238;stroke-miterlimit:10;stroke-width:0.75px"></line><path d="M638.78,377.27c-4.43-5.51-9.09-11.65-13-17.57" style="fill:none;stroke:#263238;stroke-miterlimit:10;stroke-width:0.75px"></path><path d="M680.72,367.67c-10.34,12.46-25.65,28.46-25.65,28.46s-5.38-5.75-12.11-13.78" style="fill:none;stroke:#263238;stroke-miterlimit:10;stroke-width:0.75px"></path><path d="M688.51,357.31a63.37,63.37,0,0,1-3.83,5.42" style="fill:none;stroke:#263238;stroke-miterlimit:10;stroke-width:0.75px"></path><line x1="646.62" y1="206.06" x2="643.13" y2="194.29" style="fill:none;stroke:#263238;stroke-miterlimit:10;stroke-width:0.75px"></line><line x1="660.45" y1="252.81" x2="648.46" y2="212.31" style="fill:none;stroke:#263238;stroke-miterlimit:10;stroke-width:0.75px"></line><polygon points="626.47 390.22 688.79 390.22 688.79 412.48 682.91 412.48 675.32 461.45 639.93 461.45 632.35 412.48 626.47 412.48 626.47 390.22" style="fill:#263238"></polygon></g><g id="Device"><path d="M353.83,394.09s10.8,46.44,6.1,54.07c-6.15,10-71.61,16-71.61,16H432.67s18.09-5.07,12.65-19.62c-4.21-11.25-24.4-50.45-24.4-50.45Z" style="fill:#fff;stroke:#263238;stroke-linecap:round;stroke-linejoin:round"></path><path d="M350.67,394.09s11.52,46.83,6.1,54.07-68.45,12.78-68.45,12.78h145s12.2-4.93,8.81-16.4-24.4-50.45-24.4-50.45Z" style="fill:#fff;stroke:#263238;stroke-linecap:round;stroke-linejoin:round"></path><path d="M417.76,394.09H350.67s6.82,27.75,7.49,43.83h81.48C433.05,422.46,417.76,394.09,417.76,394.09Z" style="fill:#263238;stroke:#263238;stroke-linecap:round;stroke-linejoin:round"></path><rect x="288.32" y="461.18" width="144.35" height="2.98" style="fill:#fff;stroke:#263238;stroke-linecap:round;stroke-linejoin:round"></rect><rect x="171.35" y="72" width="435.55" height="326.67" rx="8.48" style="fill:#fff;stroke:#263238;stroke-linecap:round;stroke-linejoin:round"></rect><rect x="161.09" y="72" width="435.55" height="326.67" rx="8.48" style="fill:#263238;stroke:#263238;stroke-linecap:round;stroke-linejoin:round"></rect><path d="M161.09,347.89H596.64a0,0,0,0,1,0,0v42.29a8.48,8.48,0,0,1-8.48,8.48H169.57a8.48,8.48,0,0,1-8.48-8.48V347.89a0,0,0,0,1,0,0Z" style="fill:#fff;stroke:#263238;stroke-linecap:round;stroke-linejoin:round"></path><path d="M386.9,373.28a8,8,0,1,0-8,8A8,8,0,0,0,386.9,373.28Z" style="fill:#263238;stroke:#263238;stroke-linecap:round;stroke-linejoin:round"></path><rect x="182.99" y="92.32" width="391.74" height="230.79" style="fill:#949494;stroke:#263238;stroke-linejoin:round"></rect><rect x="323.25" y="92.32" width="206.72" height="230.79" style="fill:#ededed;stroke:#263238;stroke-miterlimit:10"></rect><circle cx="419.39" cy="212.39" r="5.51" style="fill:#fff;stroke:#263238;stroke-linecap:round;stroke-linejoin:round"></circle><circle cx="442.81" cy="212.39" r="5.51" style="fill:#fff;stroke:#263238;stroke-linecap:round;stroke-linejoin:round"></circle><circle cx="466.23" cy="212.39" r="5.51" style="fill:#fff;stroke:#263238;stroke-linecap:round;stroke-linejoin:round"></circle><circle cx="489.65" cy="212.39" r="5.51" style="fill:#fff;stroke:#263238;stroke-linecap:round;stroke-linejoin:round"></circle><rect x="225.98" y="92.32" width="126.04" height="230.79" style="fill:#fff;stroke:#263238;stroke-linecap:round;stroke-linejoin:round"></rect><rect x="225.98" y="92.32" width="303.98" height="81.57" style="fill:#92E3A9;stroke:#263238;stroke-linecap:round;stroke-linejoin:round"></rect><rect x="225.98" y="92.32" width="126.02" height="81.57" style="fill:#263238;stroke:#263238;stroke-linecap:round;stroke-linejoin:round"></rect><rect x="564" y="92.32" width="10.73" height="230.79" style="fill:#d4d4d4;stroke:#263238;stroke-linejoin:round"></rect><rect x="564" y="180" width="10.73" height="60" style="fill:#949494;stroke:#263238;stroke-linejoin:round"></rect><rect x="182.99" y="92.32" width="391.74" height="18.66" style="fill:#d4d4d4;stroke:#263238;stroke-linejoin:round"></rect><rect x="213.04" y="97.15" width="178.91" height="10.16" style="fill:#fff;stroke:#263238;stroke-linecap:round;stroke-linejoin:round"></rect><circle cx="284.34" cy="159.58" r="35.13" transform="translate(-29.56 247.8) rotate(-45)" style="fill:#fff;stroke:#263238;stroke-linecap:round;stroke-linejoin:round"></circle><path d="M284.34,194.71a35.09,35.09,0,0,0,30-16.83l-20.43-5.73-18.47.27-17.07,10.76A35,35,0,0,0,284.34,194.71Z" style="fill:#fff;stroke:#263238;stroke-linecap:round;stroke-linejoin:round"></path><path d="M285.2,194.68a35.46,35.46,0,0,0,3.59-.26l-.53-2.18,3.48-7-4.29-6.7-7,7.23,5.09,6.16Z" style="fill:#263238;stroke:#263238;stroke-linecap:round;stroke-linejoin:round"></path><path d="M279.67,194.4l-4.94-21.55-16.39,10.33A35,35,0,0,0,279.67,194.4Z" style="fill:#92E3A9;stroke:#263238;stroke-linecap:round;stroke-linejoin:round"></path><path d="M314.31,177.88l-14.75-4.13-4,19.12A35.18,35.18,0,0,0,314.31,177.88Z" style="fill:#92E3A9;stroke:#263238;stroke-linecap:round;stroke-linejoin:round"></path><polygon points="286.46 183.59 278.17 189.83 271.53 173.61 275.26 167.83 295.56 166.8 300.36 173.27 296.41 188.01 286.46 183.59" style="fill:#fff;stroke:#263238;stroke-linecap:round;stroke-linejoin:round"></polygon><polygon points="276.95 161.6 278.82 171.9 286.46 183.59 293.48 169.81 293.03 161.11 276.95 161.6" style="fill:#fff;stroke:#263238;stroke-linecap:round;stroke-linejoin:round"></polygon><path d="M293.18,164l-.12-2.3-2.13-.49-14,.42,1.87,10.3,1.09,1.67C285.8,171.15,290.72,166.55,293.18,164Z" style="fill:#263238;stroke:#263238;stroke-linecap:round;stroke-linejoin:round"></path><path d="M270.48,149.55s-2.81-3-3.18-.8.78,6,2.54,7.35,3.34-.89,3.34-.89Z" style="fill:#fff;stroke:#263238;stroke-linecap:round;stroke-linejoin:round"></path><path d="M297.08,148.2s2.49-3.26,3.08-1.12-.18,6-1.79,7.57-3.41-.55-3.41-.55Z" style="fill:#fff;stroke:#263238;stroke-linecap:round;stroke-linejoin:round"></path><path d="M271.6,152.64,268.9,147a26.51,26.51,0,0,1-4.38-10.16c-1.28-6.21.87-11.39,3.68-13a7.76,7.76,0,0,1,5.26-1s.54-3.65,9.32-6.75,18.47,2.44,18.32,4.38-2.51,2.78-2.51,2.78,6.89,2.55,4.4,5.81a15.7,15.7,0,0,1-5.8,4.64,47.35,47.35,0,0,1,1.22,5c.35,2.16-1.59,11.43-1.59,11.43l-4.77-13-14.93.76s-.88,6.32-2.46,8.57a11.87,11.87,0,0,0-1.64,5.64S272.42,154.52,271.6,152.64Z" style="fill:#696969;stroke:#263238;stroke-linejoin:round"></path><path d="M274.26,129.08a89.85,89.85,0,0,1-.85,11.64,8.68,8.68,0,0,1-3.11,5.46s1.9,8.84,4.31,13.54,7.44,8.56,12.48,8.06,9.1-6.26,9.58-11.11-1.89-22.83-1.89-22.83S279,136.57,274.26,129.08Z" style="fill:#fff;stroke:#263238;stroke-linecap:round;stroke-linejoin:round"></path><path d="M281.3,156.92s2.72,2.34,8.82.26" style="fill:none;stroke:#263238;stroke-linecap:round;stroke-linejoin:round"></path><path d="M275.39,143.2s.31-2.7,4.77-2.93" style="fill:none;stroke:#263238;stroke-linecap:round;stroke-linejoin:round"></path><path d="M287.3,139.68a5.09,5.09,0,0,1,5.89,1.49" style="fill:none;stroke:#263238;stroke-linecap:round;stroke-linejoin:round"></path><path d="M285.73,144s.72,5.33.75,6,2.28.78,1.68,2.16S285.61,155,284,154" style="fill:none;stroke:#263238;stroke-linecap:round;stroke-linejoin:round"></path><path d="M291.63,145.73c.05,1-.4,1.81-1,1.84s-1.16-.74-1.21-1.72.41-1.82,1-1.85S291.58,144.75,291.63,145.73Z" style="fill:#263238"></path><path d="M280.06,146.78c.05,1-.41,1.81-1,1.84s-1.16-.74-1.21-1.73.41-1.81,1-1.84S280,145.79,280.06,146.78Z" style="fill:#263238"></path><line x1="363" y1="132.51" x2="476.25" y2="132.51" style="fill:none;stroke:#263238;stroke-linecap:round;stroke-linejoin:round"></line><line x1="363" y1="143.18" x2="440.49" y2="143.18" style="fill:none;stroke:#263238;stroke-linecap:round;stroke-linejoin:round"></line><line x1="363" y1="160.51" x2="516.99" y2="160.51" style="fill:none;stroke:#263238;stroke-linecap:round;stroke-linejoin:round"></line><path d="M238.47,209.21c1.31,0,1.88.78,1.88,2v1c0,1.33-.62,2-2,2h-.82v3.31h-.94v-8.4Zm-.08,4.25c.7,0,1-.33,1-1.13v-1.12c0-.76-.28-1.15-1-1.15h-.9v3.4Z" style="fill:#263238"></path><path d="M244.07,212.93v.84h-2v3h2.52v.85h-3.46v-8.4h3.46v.85H242v2.87Z" style="fill:#263238"></path><path d="M247.27,209.21c1.32,0,1.87.67,1.87,1.92v.68c0,.93-.32,1.5-1,1.73.77.23,1.06.85,1.06,1.75v1.31a2.2,2.2,0,0,0,.16,1h-.94a2.17,2.17,0,0,1-.16-1v-1.32c0-1-.44-1.25-1.22-1.25h-.66v3.59h-.94v-8.4Zm-.24,4c.75,0,1.19-.24,1.19-1.15v-.81c0-.75-.27-1.15-1-1.15h-.91v3.11Z" style="fill:#263238"></path><path d="M253.76,211.23v.22h-.88v-.27c0-.76-.29-1.2-1-1.2s-1,.44-1,1.19c0,1.88,2.82,2.06,2.82,4.42,0,1.27-.62,2.1-1.9,2.1s-1.88-.83-1.88-2.1v-.48h.87v.53c0,.76.32,1.2,1,1.2s1-.44,1-1.2c0-1.87-2.81-2-2.81-4.41,0-1.3.6-2.1,1.86-2.1S253.76,210,253.76,211.23Z" style="fill:#263238"></path><path d="M254.52,211.24c0-1.29.64-2.11,1.92-2.11s1.93.82,1.93,2.11v4.34c0,1.27-.63,2.11-1.93,2.11s-1.92-.84-1.92-2.11Zm.93,4.39c0,.77.32,1.21,1,1.21s1-.44,1-1.21v-4.44c0-.75-.32-1.21-1-1.21s-1,.46-1,1.21Z" style="fill:#263238"></path><path d="M260.09,217.61h-.84v-8.4h1.19l1.94,6.07v-6.07h.83v8.4h-1l-2.15-6.79Z" style="fill:#263238"></path><path d="M265.12,215.92l-.33,1.69h-.86l1.61-8.4h1.35l1.61,8.4h-.94l-.32-1.69Zm.12-.81h1.87l-.95-4.84Z" style="fill:#263238"></path><path d="M272.93,209.21c1.32,0,1.88.78,1.88,2v1c0,1.33-.62,2-1.95,2H272v3.31h-.94v-8.4Zm-.07,4.25c.69,0,1-.33,1-1.13v-1.12c0-.76-.28-1.15-1-1.15H272v3.4Z" style="fill:#263238"></path><path d="M277.42,209.21c1.32,0,1.87.67,1.87,1.92v.68a1.57,1.57,0,0,1-1.05,1.73c.77.23,1.06.85,1.06,1.75v1.31a2.07,2.07,0,0,0,.17,1h-1a2.17,2.17,0,0,1-.16-1v-1.32c0-1-.44-1.25-1.22-1.25h-.66v3.59h-.93v-8.4Zm-.24,4c.74,0,1.18-.24,1.18-1.15v-.81c0-.75-.27-1.15-1-1.15h-.91v3.11Z" style="fill:#263238"></path><path d="M280.2,211.24c0-1.29.64-2.11,1.92-2.11s1.93.82,1.93,2.11v4.34c0,1.27-.63,2.11-1.93,2.11s-1.92-.84-1.92-2.11Zm.93,4.39c0,.77.32,1.21,1,1.21s1-.44,1-1.21v-4.44c0-.75-.32-1.21-1-1.21s-1,.46-1,1.21Z" style="fill:#263238"></path><path d="M287.81,213.12V214h-1.93v3.64h-.94v-8.4h3.34v.85h-2.4v3.06Z" style="fill:#263238"></path><path d="M290,209.21v8.4H289v-8.4Z" style="fill:#263238"></path><path d="M290.92,217.61v-8.4h.93v7.55h2.4v.85Z" style="fill:#263238"></path><path d="M298,212.93v.84H295.9v3h2.52v.85H295v-8.4h3.46v.85H295.9v2.87Z" style="fill:#263238"></path><path d="M364.6,211.23v.22h-.89v-.27c0-.76-.28-1.2-1-1.2s-1,.44-1,1.19c0,1.88,2.82,2.06,2.82,4.42,0,1.27-.61,2.1-1.89,2.1s-1.88-.83-1.88-2.1v-.48h.87v.53c0,.76.31,1.2,1,1.2s1-.44,1-1.2c0-1.87-2.81-2-2.81-4.41,0-1.3.6-2.1,1.86-2.1S364.6,210,364.6,211.23Z" style="fill:#263238"></path><path d="M366.86,214l-.49.83v2.82h-.94v-8.4h.94v4.06l2.23-4.06h.94L367.42,213l2.2,4.57h-1Z" style="fill:#263238"></path><path d="M371.28,209.21v8.4h-.94v-8.4Z" style="fill:#263238"></path><path d="M372.24,217.61v-8.4h.93v7.55h2.4v.85Z" style="fill:#263238"></path><path d="M376.28,217.61v-8.4h.93v7.55h2.4v.85Z" style="fill:#263238"></path><path d="M384,211.23v.22h-.89v-.27c0-.76-.29-1.2-1-1.2s-1,.44-1,1.19c0,1.88,2.82,2.06,2.82,4.42,0,1.27-.61,2.1-1.9,2.1s-1.88-.83-1.88-2.1v-.48h.88v.53c0,.76.31,1.2,1,1.2s1-.44,1-1.2c0-1.87-2.8-2-2.8-4.41,0-1.3.6-2.1,1.86-2.1S384,210,384,211.23Z" style="fill:#263238"></path><path d="M240.34,273v.75h-.89v-.8c0-.76-.3-1.21-1-1.21s-1,.45-1,1.21v4.44c0,.75.31,1.21,1,1.21s1-.46,1-1.21v-1.09h.89v1c0,1.27-.6,2.11-1.9,2.11s-1.88-.84-1.88-2.11V273c0-1.27.6-2.11,1.88-2.11S240.34,271.72,240.34,273Z" style="fill:#263238"></path><path d="M241.12,273c0-1.29.63-2.11,1.92-2.11S245,271.7,245,273v4.34a1.85,1.85,0,0,1-1.93,2.11c-1.29,0-1.92-.84-1.92-2.11Zm.92,4.39c0,.76.33,1.21,1,1.21s1-.45,1-1.21v-4.44c0-.76-.31-1.21-1-1.21s-1,.45-1,1.21Z" style="fill:#263238"></path><path d="M246.69,279.36h-.84V271H247L249,277V271h.83v8.4h-1l-2.14-6.79Z" style="fill:#263238"></path><path d="M252,279.36v-7.55h-1.55V271h4v.85H252.9v7.55Z" style="fill:#263238"></path><path d="M255.58,277.67l-.33,1.69h-.86L256,271h1.35l1.61,8.4H258l-.32-1.69Zm.12-.81h1.87l-.95-4.84Z" style="fill:#263238"></path><path d="M263.39,273v.75h-.89v-.8c0-.76-.3-1.21-1-1.21s-1,.45-1,1.21v4.44c0,.75.32,1.21,1,1.21s1-.46,1-1.21v-1.09h.89v1c0,1.27-.6,2.11-1.9,2.11s-1.88-.84-1.88-2.11V273c0-1.27.6-2.11,1.88-2.11S263.39,271.72,263.39,273Z" style="fill:#263238"></path><path d="M265.45,279.36v-7.55h-1.54V271h4v.85h-1.54v7.55Z" style="fill:#263238"></path><path d="M363.2,279.36h-1.29l-1.15-8.4h.92l1,7.15.93-7.14h.93l.92,7.15.95-7.16h.81l-1.13,8.4h-1.24l-.8-5.7Z" style="fill:#263238"></path><path d="M367.89,273c0-1.29.64-2.11,1.92-2.11s1.93.82,1.93,2.11v4.34c0,1.27-.63,2.11-1.93,2.11s-1.92-.84-1.92-2.11Zm.93,4.39c0,.76.32,1.21,1,1.21s1-.45,1-1.21v-4.44c0-.76-.32-1.21-1-1.21s-1,.45-1,1.21Z" style="fill:#263238"></path><path d="M374.5,271c1.32,0,1.87.67,1.87,1.92v.68c0,.93-.32,1.5-1,1.73.77.23,1.06.85,1.06,1.75v1.31a2.2,2.2,0,0,0,.16,1h-.94a2.17,2.17,0,0,1-.16-1V277c0-.95-.44-1.25-1.22-1.25h-.66v3.59h-.94V271Zm-.24,4c.75,0,1.19-.24,1.19-1.15V273c0-.75-.28-1.15-1-1.15h-.91v3.11Z" style="fill:#263238"></path><path d="M378.79,275.71l-.5.83v2.82h-.93V271h.93V275l2.24-4.06h.94l-2.12,3.83,2.19,4.57h-1Z" style="fill:#263238"></path><path d="M387.11,274.68v.84h-2.05v3h2.52v.85h-3.45V271h3.45v.85h-2.52v2.87Z" style="fill:#263238"></path><path d="M390.53,275.73l-1.4,3.63h-.89l1.69-4.33L388.35,271h1l1.3,3.36,1.31-3.36h.87L391.23,275l1.68,4.33h-1Z" style="fill:#263238"></path><path d="M395.5,271c1.32,0,1.89.78,1.89,2.05v1c0,1.33-.63,2-2,2h-.83v3.31h-.93V271Zm-.07,4.25c.7,0,1-.33,1-1.13V273c0-.76-.27-1.15-1-1.15h-.9v3.4Z" style="fill:#263238"></path><path d="M401.11,274.68v.84h-2.06v3h2.52v.85h-3.45V271h3.45v.85h-2.52v2.87Z" style="fill:#263238"></path><path d="M404.31,271c1.32,0,1.87.67,1.87,1.92v.68c0,.93-.32,1.5-1,1.73.77.23,1.05.85,1.05,1.75v1.31a2.07,2.07,0,0,0,.17,1h-.95a2.35,2.35,0,0,1-.15-1V277c0-.95-.45-1.25-1.23-1.25h-.66v3.59h-.93V271Zm-.24,4c.74,0,1.19-.24,1.19-1.15V273c0-.75-.28-1.15-1-1.15h-.92v3.11Z" style="fill:#263238"></path><path d="M408.1,271v8.4h-.93V271Z" style="fill:#263238"></path><path d="M412.05,274.68v.84H410v3h2.52v.85h-3.46V271h3.46v.85H410v2.87Z" style="fill:#263238"></path><path d="M414.21,279.36h-.84V271h1.19L416.5,277V271h.83v8.4h-1l-2.15-6.79Z" style="fill:#263238"></path><path d="M422,273v.75h-.89v-.8c0-.76-.3-1.21-1-1.21s-1,.45-1,1.21v4.44c0,.75.31,1.21,1,1.21s1-.46,1-1.21v-1.09H422v1c0,1.27-.6,2.11-1.9,2.11s-1.88-.84-1.88-2.11V273c0-1.27.6-2.11,1.88-2.11S422,271.72,422,273Z" style="fill:#263238"></path><path d="M425.84,274.68v.84h-2v3h2.51v.85h-3.45V271h3.45v.85h-2.51v2.87Z" style="fill:#263238"></path><line x1="361.73" y1="230.1" x2="509.52" y2="230.1" style="fill:none;stroke:#263238;stroke-linecap:round;stroke-linejoin:round"></line><line x1="361.73" y1="241.89" x2="509.52" y2="241.89" style="fill:none;stroke:#263238;stroke-linecap:round;stroke-linejoin:round"></line><line x1="361.73" y1="253.69" x2="509.52" y2="253.69" style="fill:none;stroke:#263238;stroke-linecap:round;stroke-linejoin:round"></line><line x1="235.46" y1="230.1" x2="338.84" y2="230.1" style="fill:none;stroke:#263238;stroke-linecap:round;stroke-linejoin:round"></line><line x1="235.46" y1="241.89" x2="338.84" y2="241.89" style="fill:none;stroke:#263238;stroke-linecap:round;stroke-linejoin:round"></line><line x1="235.46" y1="253.69" x2="338.84" y2="253.69" style="fill:none;stroke:#263238;stroke-linecap:round;stroke-linejoin:round"></line><line x1="361.73" y1="288.38" x2="509.52" y2="288.38" style="fill:none;stroke:#263238;stroke-linecap:round;stroke-linejoin:round"></line><line x1="361.73" y1="300.17" x2="509.52" y2="300.17" style="fill:none;stroke:#263238;stroke-linecap:round;stroke-linejoin:round"></line><line x1="361.73" y1="311.97" x2="509.52" y2="311.97" style="fill:none;stroke:#263238;stroke-linecap:round;stroke-linejoin:round"></line><line x1="235.46" y1="288.38" x2="338.84" y2="288.38" style="fill:none;stroke:#263238;stroke-linecap:round;stroke-linejoin:round"></line><line x1="235.46" y1="300.17" x2="338.84" y2="300.17" style="fill:none;stroke:#263238;stroke-linecap:round;stroke-linejoin:round"></line><line x1="235.46" y1="311.97" x2="338.84" y2="311.97" style="fill:none;stroke:#263238;stroke-linecap:round;stroke-linejoin:round"></line></g><g id="Character"><path d="M81,283,62.61,447.76s-13.5,11.75-12.32,16.49,16.78-2.77,18.93-6.73,3.23-10.26,3.23-10.26l38.79-123.87,29.82,132.89s12.75,10.41,19.78,10.05,4.54-3.12.52-8.2-13.09-8-13.09-8L143.8,278.87Z" style="fill:#263238;stroke:#263238;stroke-linecap:round;stroke-linejoin:round"></path><polygon points="143.14 284.41 80.64 284.73 80.83 279.11 142.71 275.97 143.14 284.41" style="fill:#696969;stroke:#263238;stroke-linejoin:round"></polygon><rect x="108.39" y="278.94" width="10.13" height="5.31" style="fill:#fff;stroke:#263238;stroke-linecap:round;stroke-linejoin:round"></rect><polygon points="108.62 194.75 85.35 201.57 88.24 279.32 142.81 277.96 135.91 197.59 108.62 194.75" style="fill:#fff;stroke:#263238;stroke-linecap:round;stroke-linejoin:round"></polygon><polygon points="98.44 195.62 95.31 328.31 67.48 320.3 78.71 272.05 69.83 201.3 98.44 195.62" style="fill:#92E3A9;stroke:#263238;stroke-linecap:round;stroke-linejoin:round"></polygon><polyline points="78.77 284.84 93.62 287.17 93.03 289.5 78.48 286.59" style="fill:#92E3A9;stroke:#263238;stroke-linecap:round;stroke-linejoin:round"></polyline><polygon points="98.44 195.62 86.75 197.94 96.66 271.29 98.44 195.62" style="fill:#92E3A9;stroke:#263238;stroke-linecap:round;stroke-linejoin:round"></polygon><polygon points="104.37 210.47 108.98 218 105.29 270.35 114.05 280.71 118.58 268.26 111.57 218.1 115.9 210.83 109.61 202.69 104.37 210.47" style="fill:#263238;stroke:#263238;stroke-linecap:round;stroke-linejoin:round"></polygon><polygon points="122 194.42 138.56 326.12 160.26 319.78 149.38 268.46 151.04 197.18 122 194.42" style="fill:#92E3A9;stroke:#263238;stroke-linecap:round;stroke-linejoin:round"></polygon><polyline points="150.98 284.55 137.29 287.75 137 289.79 151.27 286.3" style="fill:#92E3A9;stroke:#263238;stroke-linecap:round;stroke-linejoin:round"></polyline><polygon points="130.69 263.5 131.47 271.15 131.46 195.32 122 194.42 130.69 263.5" style="fill:#92E3A9;stroke:#263238;stroke-linecap:round;stroke-linejoin:round"></polygon><polygon points="110.07 209.48 101.36 216.03 94.38 199 98.31 192.92 119.63 191.84 124.68 198.63 120.53 214.12 110.07 209.48" style="fill:#fff;stroke:#263238;stroke-linecap:round;stroke-linejoin:round"></polygon><polygon points="100.09 186.37 102.05 197.2 110.07 209.48 117.44 195.01 116.98 185.87 100.09 186.37" style="fill:#fff;stroke:#263238;stroke-linecap:round;stroke-linejoin:round"></polygon><path d="M117.16,189.4l-.07-1.48-7.77-1.83-9.23.28,2,10.83,2.09,3.2a6.87,6.87,0,0,0,.76-.32C109.83,197.61,115,191.9,117.16,189.4Z" style="fill:#263238;stroke:#263238;stroke-linecap:round;stroke-linejoin:round"></path><polygon points="69.83 201.3 30.31 249.13 56.56 280.23 67.14 273.35 54.16 246.86 73.54 232.84 69.83 201.3" style="fill:#92E3A9;stroke:#263238;stroke-linecap:round;stroke-linejoin:round"></polygon><line x1="54.17" y1="246.86" x2="43.92" y2="241.49" style="fill:none;stroke:#263238;stroke-linecap:round;stroke-linejoin:round"></line><polygon points="67.14 273.35 68.73 276.79 59.82 281.82 58.62 279.07 67.14 273.35" style="fill:#fff;stroke:#263238;stroke-linecap:round;stroke-linejoin:round"></polygon><path d="M68.73,276.79l9.06,11.88-3,3.67-2.17-.94-4.39,3.74s-3.22-.89-3.62-1.93-4.77-3.63-4.86-5.39,0-6,0-6Z" style="fill:#fff;stroke:#263238;stroke-linecap:round;stroke-linejoin:round"></path><path d="M173.05,206.51s1-2.71.34-4.38-2.08-7.48-1.8-9.39,3.17-4.71,3.43-7.19-.05-4.74.07-6.08,1.77-2.36,3.18-.73,2.26,3.3,1.59,5-.65,5.92-.65,5.92,2.24,3.11,3.49,5.13,1.13,7.34.29,9.47a13,13,0,0,1-3.21,4.14l.14,3.68Z" style="fill:#fff;stroke:#263238;stroke-linecap:round;stroke-linejoin:round"></path><path d="M177.16,186.77s-1,2.89.75,3.56,8.81,1.64,8.89-.64.2-3.42-.93-3.37-6.45,0-6.45,0S177,186.21,177.16,186.77Z" style="fill:#fff;stroke:#263238;stroke-linecap:round;stroke-linejoin:round"></path><path d="M178,201s-.71,2.16.55,2.66,6.34,1.23,6.39-.47.15-2.54-.67-2.5-4.65,0-4.65,0S177.81,200.54,178,201Z" style="fill:#fff;stroke:#263238;stroke-linecap:round;stroke-linejoin:round"></path><path d="M177,196.39s-.82,2.49.63,3.07,7.35,1.43,7.41-.53.17-3-.78-2.91-5.38-.05-5.38-.05S176.84,195.91,177,196.39Z" style="fill:#fff;stroke:#263238;stroke-linecap:round;stroke-linejoin:round"></path><path d="M176.48,191.92s-1,2.9.75,3.57,8.81,1.64,8.88-.64.21-3.43-.93-3.37-6.45,0-6.45,0S176.26,191.36,176.48,191.92Z" style="fill:#fff;stroke:#263238;stroke-linecap:round;stroke-linejoin:round"></path><polygon points="172.25 209.4 173.35 204.98 180.98 209.52 179.7 214.33 172.25 209.4" style="fill:#fff;stroke:#263238;stroke-linecap:round;stroke-linejoin:round"></polygon><path d="M151,197.18l14.62,31.09,7.18-20,7,6.69-7.2,37.11A6,6,0,0,1,162,254.4L150.3,238.1Z" style="fill:#92E3A9;stroke:#263238;stroke-linecap:round;stroke-linejoin:round"></path><line x1="165.66" y1="228.27" x2="161.56" y2="237.93" style="fill:none;stroke:#263238;stroke-linecap:round;stroke-linejoin:round"></line><polygon points="150.62 224.25 157.74 247.51 150.3 238.1 150.62 224.25" style="fill:#263238;stroke:#263238;stroke-linecap:round;stroke-linejoin:round"></polygon><path d="M93.28,173.72s-3-3.15-3.34-.84.83,6.29,2.67,7.72,3.51-.94,3.51-.94Z" style="fill:#fff;stroke:#263238;stroke-linecap:round;stroke-linejoin:round"></path><path d="M121.23,172.3s2.61-3.43,3.24-1.18-.19,6.35-1.88,8-3.58-.58-3.58-.58Z" style="fill:#fff;stroke:#263238;stroke-linecap:round;stroke-linejoin:round"></path><path d="M94.46,177l-2.84-6A27.86,27.86,0,0,1,87,160.34c-1.35-6.52.91-12,3.87-13.64a8.17,8.17,0,0,1,5.53-1s.56-3.83,9.78-7.09,19.41,2.57,19.26,4.6-2.64,2.93-2.64,2.93,7.24,2.67,4.62,6.1a16.65,16.65,0,0,1-6.09,4.88,49.6,49.6,0,0,1,1.28,5.26c.37,2.26-1.67,12-1.67,12l-5-13.69-15.69.79s-.93,6.65-2.58,9A12.36,12.36,0,0,0,96,176.37S95.32,178.94,94.46,177Z" style="fill:#696969;stroke:#263238;stroke-linejoin:round"></path><path d="M97.26,152.21a94.37,94.37,0,0,1-.9,12.22,9.18,9.18,0,0,1-3.26,5.75s2,9.28,4.53,14.22,7.81,9,13.11,8.47,9.56-6.57,10.06-11.67-2-24-2-24S102.22,160.08,97.26,152.21Z" style="fill:#fff;stroke:#263238;stroke-linecap:round;stroke-linejoin:round"></path><path d="M104.65,181.46s2.87,2.46,9.27.28" style="fill:none;stroke:#263238;stroke-linecap:round;stroke-linejoin:round"></path><path d="M98.65,171.27s3-1.8,5.63-.29" style="fill:none;stroke:#263238;stroke-linecap:round;stroke-linejoin:round"></path><path d="M98.44,167s.33-2.84,5-3.07" style="fill:none;stroke:#263238;stroke-linecap:round;stroke-linejoin:round"></path><path d="M111,163.35a5.36,5.36,0,0,1,6.2,1.57" style="fill:none;stroke:#263238;stroke-linecap:round;stroke-linejoin:round"></path><path d="M109.3,167.9s.76,5.61.79,6.31,2.4.82,1.77,2.27-2.68,3-4.38,1.86" style="fill:none;stroke:#263238;stroke-linecap:round;stroke-linejoin:round"></path><path d="M115.51,169.7c0,1-.43,1.91-1.08,1.94s-1.21-.78-1.27-1.82.43-1.9,1.08-1.93S115.46,168.67,115.51,169.7Z" style="fill:#263238"></path></g></svg>