<svg xmlns="http://www.w3.org/2000/svg" viewBox="0 0 750 500"><g id="background-complete"><path d="M91,109.73s16.85,30.08,20.73,28.58c5-1.93,13-34.58,13-34.58S94,109.3,91,109.73Z" style="fill:#f5f5f5"></path><path d="M128.08,103.14s19.48,28.45,23.21,26.61c4.8-2.37,9.87-35.61,9.87-35.61S131.06,102.44,128.08,103.14Z" style="fill:#ebebeb"></path><path d="M164.33,93.08s21.95,26.59,25.5,24.42c4.57-2.8,6.63-36.35,6.63-36.35S167.23,92.11,164.33,93.08Z" style="fill:#f5f5f5"></path><path d="M198,80.69s23.48,25.26,26.89,22.89c4.4-3.06,4.49-36.68,4.49-36.68S200.8,79.56,198,80.69Z" style="fill:#ebebeb"></path><path d="M231,65.36s26,22.7,29.11,20c4.06-3.5.67-36.94.67-36.94S233.74,63.94,231,65.36Z" style="fill:#f5f5f5"></path><path d="M262.49,47.25S290.1,67.92,293,65c3.78-3.79-2.12-36.89-2.12-36.89S265.08,45.63,262.49,47.25Z" style="fill:#ebebeb"></path><path d="M53.91,113.14s14.44,31.31,18.42,30.12c5.14-1.54,15.7-33.45,15.7-33.45S57,113,53.91,113.14Z" style="fill:#ebebeb"></path><path d="M317.81,7.26l-.65.58L315.23,9.5l-3.16,2.7-2,1.72-2.34,1.9-5.52,4.46-6.68,5.14c-1.19.94-2.47,1.85-3.77,2.81l-4,2.94c-.7.51-1.39,1-2.12,1.53l-2.2,1.53-4.59,3.18a437.39,437.39,0,0,1-46,27.29c-9,4.56-18.54,9.1-28.62,13.42s-20.7,8.35-31.71,12.1l-8.23,2.72L156,95.43,154,96l-2,.57-4.05,1.12-4,1.12-4,1c-2.67.65-5.29,1.37-7.92,2l-7.8,1.76c-2.57.58-5.14,1.05-7.67,1.57l-3.77.75-3.75.65c-9.91,1.84-19.42,3-28.31,4.07-8.92.89-17.24,1.57-24.86,1.87l-5.57.23c-1.81.09-3.58.07-5.29.11-3.44,0-6.67.13-9.7.05s-5.84-.06-8.43-.15l-7.09-.29c-1.06-.06-2.07-.08-3-.15l-2.64-.18L10,111.8l-2.55-.2-.86-.07.87,0,2.54.16,4.14.26,2.64.17c1,.07,2,.08,3,.13l7.08.27c2.59.08,5.41.07,8.43.11s6.26,0,9.69-.07c1.72,0,3.48,0,5.29-.12l5.57-.25c7.61-.31,15.93-1,24.83-1.91s18.4-2.25,28.3-4.09l3.74-.66,3.77-.75c2.53-.52,5.09-1,7.66-1.57l7.8-1.76c2.62-.59,5.24-1.31,7.9-2l4-1,4-1.12,4-1.12,2-.57,2-.61,8.18-2.49,8.22-2.72c11-3.75,21.59-7.82,31.69-12.08S223.65,69,232.64,64.42a443.51,443.51,0,0,0,46-27.22L283.25,34l2.21-1.52L287.58,31l4-2.93c1.31-.95,2.59-1.86,3.78-2.79l6.7-5.12,5.53-4.44L310,13.83l2-1.71,3.17-2.67,2-1.64Z" style="fill:#455a64"></path><path d="M38,113.56c-1,0-1.87,0-2.78,0l-3.1,0c-1.87,0-3.65,0-5.34-.11L18.6,113c-.66,0-1.3-.05-1.91-.1l-9.33-.68-.88-.07.09-1.32.89,0,9.33.6,1.87.08,8.21.31c1.64,0,3.38.06,5.21.08l3.2,0c2.35.06,4.82,0,7.43,0l2.24,0,1.85,0c1.12,0,2.26,0,3.42-.08l5.57-.25c6.89-.28,14.77-.89,24.8-1.9,8.36-1,18.15-2.22,28.24-4.09l7.5-1.41c.89-.19,1.79-.36,2.69-.54,1.64-.33,3.3-.66,5-1l7.79-1.76c1.69-.38,3.37-.81,5.07-1.24l2.82-.71,8-2.12,8.08-2.31L163.92,92l8.21-2.71c10.53-3.59,21.18-7.65,31.64-12.06,9.33-4,18.94-8.5,28.57-13.37a447.94,447.94,0,0,0,46-27.17l10.11-7.08,3.37-2.44c1.11-.81,2.2-1.59,3.22-2.39l6.71-5.12,9.88-8,5.13-4.32.69-.56.86,1-.67.59-9.46,8-5.51,4.47L295.92,26c-1,.81-2.13,1.61-3.26,2.43l-5.3,3.86c-.45.34-.91.67-1.39,1L279.18,38a445,445,0,0,1-46.09,27.34c-9.66,4.9-19.3,9.42-28.67,13.44-10.49,4.43-21.18,8.51-31.75,12.11l-8.24,2.73-20.34,5.92-4,1-2.84.72c-1.71.43-3.4.86-5.09,1.24l-7.8,1.76c-1.68.37-3.36.7-5,1l-2.66.53-7.54,1.41c-10.17,1.89-20,3.09-28.36,4.08-10.05,1-18,1.6-24.9,1.87l-5.58.23c-1.18.06-2.34.07-3.49.08l-1.81,0-2.2,0C41.14,113.54,39.56,113.56,38,113.56Z" style="fill:#e0e0e0"></path><path d="M80.56,305.32v28.09a6.35,6.35,0,0,0,6.35,6.35H202.33l16.59,15.73V305.32a6.35,6.35,0,0,0-6.35-6.35H86.91A6.35,6.35,0,0,0,80.56,305.32Z" style="fill:#e0e0e0"></path><path d="M162.54,386.6h77a6.18,6.18,0,0,1,6.18,6.18v54.48l-13-12.34H162.54a6.18,6.18,0,0,1-6.18-6.18v-36A6.18,6.18,0,0,1,162.54,386.6Z" style="fill:#f5f5f5"></path><path d="M416.83,67.24h-77a6.18,6.18,0,0,0-6.17,6.18V127.9l13-12.34h70.13a6.18,6.18,0,0,0,6.18-6.18v-36A6.18,6.18,0,0,0,416.83,67.24Z" style="fill:#f5f5f5"></path><circle cx="589.54" cy="342.09" r="4.33" style="fill:#ebebeb"></circle><path d="M578.51,332.26a4.19,4.19,0,0,1,2-.06,9.8,9.8,0,0,1,7.66,5.81,4.28,4.28,0,0,1,.49,2c-.09,0-.3-.73-.88-1.81a10.9,10.9,0,0,0-3-3.62,11,11,0,0,0-4.3-2A18.81,18.81,0,0,1,578.51,332.26Z" style="fill:#e0e0e0"></path><path d="M587.51,340c.08-.15.55-.1,1-.37s.69-.67.86-.65.14.17.07.43a1.39,1.39,0,0,1-.64.75,1.36,1.36,0,0,1-1,.12C587.59,340.18,587.48,340.05,587.51,340Z" style="fill:#e0e0e0"></path><path d="M592.57,343.94c-.16-.05.57-1.51,0-3.19a6.9,6.9,0,0,0-2-2.51c0-.07.44,0,1,.33a3.9,3.9,0,0,1,1.59,4.49C592.92,343.68,592.64,344,592.57,343.94Z" style="fill:#fff"></path><path d="M627.39,340.65a6.1,6.1,0,1,1-6.1-6.1A6.1,6.1,0,0,1,627.39,340.65Z" style="fill:#ebebeb"></path><path d="M636.83,326.8c0,.1-1.09.07-2.8.42a14.88,14.88,0,0,0-10.41,7.91c-.79,1.55-1.06,2.61-1.16,2.59a7.1,7.1,0,0,1,.78-2.77,13.9,13.9,0,0,1,4.31-5.46A14.05,14.05,0,0,1,634,326.8,7,7,0,0,1,636.83,326.8Z" style="fill:#e0e0e0"></path><path d="M624.15,337.67c0,.07-.13.23-.47.32a2,2,0,0,1-2.19-1.19c-.11-.33-.06-.55,0-.56s.42.64,1.16,1S624.08,337.52,624.15,337.67Z" style="fill:#e0e0e0"></path><path d="M617,343.26c-.06,0-.43-.4-.71-1.26a5.62,5.62,0,0,1,.08-3.48,5.56,5.56,0,0,1,2.14-2.76c.75-.5,1.31-.6,1.33-.53s-.44.32-1.08.87a6.39,6.39,0,0,0-1.83,2.62,6.28,6.28,0,0,0-.22,3.18A8.39,8.39,0,0,1,617,343.26Z" style="fill:#fff"></path><path d="M577,346.1h58.13a0,0,0,0,1,0,0v54.4a0,0,0,0,1,0,0H574a0,0,0,0,1,0,0V349.1A3,3,0,0,1,577,346.1Z" style="fill:#ebebeb"></path><path d="M635.38,345.88a8.15,8.15,0,0,0-3.47-.56c-18.27-.22-36.06.84-54.27.76a5.9,5.9,0,0,0-5.35,3.41,16,16,0,0,0-1.06,2.9,8.55,8.55,0,0,0,.84,6.74,5.21,5.21,0,0,0,6.07,2.17c2.1-.88,3.59-3.46,5.85-3.23,3,.31,3.71,5.05,6.64,5.56,2.52.44,4.36-2.59,5.23-4.75a6.78,6.78,0,0,1,1.81-2.71c3.84-3.3,6.4,2.19,9.71,1.46,2.25-.5,3-3.42,4.83-4.74s4.25-.77,6,.48a15.8,15.8,0,0,1,4,5,10.75,10.75,0,0,0,2.84,3.49,3.66,3.66,0,0,0,4.23.14,4.71,4.71,0,0,0,1.32-3.73,9.92,9.92,0,0,1,.44-4c.57-1.25,2.19-2.14,3.33-1.39a6.16,6.16,0,0,0,0,3.19,2.12,2.12,0,0,0,2.53,1.44c1.07-.42,1.31-1.8,1.39-2.95C638.47,351.27,638.28,347.28,635.38,345.88Z" style="fill:#e0e0e0"></path><path d="M605.08,312.79a4.28,4.28,0,0,1-2.38-6.64c.88-1.21,2.39-2,2.87-3.38a11.85,11.85,0,0,0,.3-2.23,2.06,2.06,0,0,1,1.21-1.77,1.71,1.71,0,0,1,1.74.64,4.37,4.37,0,0,1,.78,1.79,12.7,12.7,0,0,1,0,7,6.42,6.42,0,0,1-4.54,4.62" style="fill:#ebebeb"></path><rect x="602.84" y="314.62" width="4.35" height="31.07" style="fill:#ebebeb"></rect><path d="M607.14,317.29a15.55,15.55,0,0,1-2,1.76,14.85,14.85,0,0,1-2.19,1.57,14.47,14.47,0,0,1,2-1.76A15.1,15.1,0,0,1,607.14,317.29Z" style="fill:#e0e0e0"></path><path d="M607.14,322.77a16,16,0,0,1-2,1.75,14.85,14.85,0,0,1-2.19,1.57,15.27,15.27,0,0,1,2-1.76A14.54,14.54,0,0,1,607.14,322.77Z" style="fill:#e0e0e0"></path><path d="M607.14,328.24a15.55,15.55,0,0,1-2,1.76,14.85,14.85,0,0,1-2.19,1.57,14.47,14.47,0,0,1,2-1.76A15.1,15.1,0,0,1,607.14,328.24Z" style="fill:#e0e0e0"></path><path d="M607.14,333.72a16,16,0,0,1-2,1.75,14.85,14.85,0,0,1-2.19,1.57,15.27,15.27,0,0,1,2-1.76A14.54,14.54,0,0,1,607.14,333.72Z" style="fill:#e0e0e0"></path><path d="M607.14,339.19a15.55,15.55,0,0,1-2,1.76,14.85,14.85,0,0,1-2.19,1.57,15.27,15.27,0,0,1,2-1.76A15.1,15.1,0,0,1,607.14,339.19Z" style="fill:#e0e0e0"></path><path d="M605.09,309.68a27.9,27.9,0,0,1,0,5.17,27.9,27.9,0,0,1,0-5.17Z" style="fill:#e0e0e0"></path><rect x="531" y="400.49" width="145.36" height="64.17" style="fill:#ebebeb"></rect><polygon points="513.92 464.67 528.37 476.5 680.75 476.5 695.09 464.67 513.92 464.67" style="fill:#f5f5f5"></polygon><path d="M674.77,432c-31.72-1.24-63.5-2.49-95.17-.37-14.41,1-29,2.61-43.18-.16a11.83,11.83,0,0,0-4.94-.32,4.29,4.29,0,0,0-1.59.74,1.79,1.79,0,0,0,.69,3.18c24.49,5,49.66-1.59,74.74-.46,8.41.38,16.8,1.6,25.22,1.25,5.76-.25,11.48-1.23,17.24-1.56,9-.51,18,.58,27-.29.72-.07,1.66-.41,1.58-1.13S675.43,432,674.77,432Z" style="fill:#f5f5f5"></path><path d="M676.81,399.69l-15.69.05a10.3,10.3,0,0,0,1.1-5.67,18.4,18.4,0,0,0-4.33-9.84,4.9,4.9,0,0,0-2.57-1.81,2.09,2.09,0,0,0-2.51,1.39c-.2,1.06.72,2,.93,3.07.31,1.51-.85,2.95-2.15,3.78s-2.81,1.34-3.94,2.4a5.58,5.58,0,0,0-.87,6.73l-7.19,0a10.08,10.08,0,0,0,1.16-5.74,18.4,18.4,0,0,0-4.33-9.84,4.9,4.9,0,0,0-2.57-1.81,2.09,2.09,0,0,0-2.51,1.39c-.2,1.06.71,2,.93,3.07.31,1.51-.85,2.95-2.15,3.78s-2.81,1.34-3.94,2.4a5.58,5.58,0,0,0-.82,6.8l-7.3,0a9.86,9.86,0,0,0,1.22-5.81,18.4,18.4,0,0,0-4.33-9.84,4.9,4.9,0,0,0-2.57-1.81,2.09,2.09,0,0,0-2.51,1.39c-.2,1.06.71,2,.93,3.07.31,1.51-.85,2.95-2.15,3.78s-2.81,1.34-3.94,2.4a5.57,5.57,0,0,0-.77,6.87l-7.41,0a9.79,9.79,0,0,0,1.28-5.89,18.4,18.4,0,0,0-4.33-9.84,4.9,4.9,0,0,0-2.57-1.81,2.09,2.09,0,0,0-2.51,1.39c-.2,1.06.71,2,.93,3.07.31,1.51-.85,2.95-2.15,3.78s-2.81,1.34-3.94,2.4a5.55,5.55,0,0,0-.71,6.94L575,400c1.1-1.37,1.52-4.32,1.33-6a18.4,18.4,0,0,0-4.33-9.84,4.94,4.94,0,0,0-2.57-1.81,2.09,2.09,0,0,0-2.51,1.39c-.2,1.06.71,2,.93,3.07.31,1.51-.85,2.95-2.15,3.78s-2.81,1.34-3.94,2.4a5.55,5.55,0,0,0-.66,7l-7.63,0c1.14-1.34,1.59-4.36,1.39-6a18.4,18.4,0,0,0-4.33-9.84,4.94,4.94,0,0,0-2.57-1.81,2.09,2.09,0,0,0-2.51,1.39c-.2,1.06.71,2,.93,3.07.31,1.51-.85,2.95-2.15,3.78s-2.81,1.34-3.94,2.4a5.54,5.54,0,0,0-.6,7.09l-8.7,0c2,6,6,11.84,11.72,14.42a23.34,23.34,0,0,0,18.42.17c5-2.11,9.9-6.07,15.12-4.68,2.78.74,4.92,2.88,7.21,4.62s5.25,3.19,8,2.24c4.23-1.47,5.5-7.85,9.91-8.61,4.58-.79,8.47,5.3,12.93,4,3.18-.91,4.48-5.12,7.63-6.11s6.22,1.58,9.42,1.32c2.61-.22,4.82-2.28,7.44-2.41s5.1,1.87,6.69,4.09,2.72,4.77,4.64,6.71,5,3.1,7.39,1.74,2.83-4.15,3.6-6.6,2.5-5.19,5.06-5c2.73.18,4.54,3.63,7.26,3.44,1.77-.12,3.08-1.84,3.34-3.59S677.34,401.37,676.81,399.69Z" style="fill:#e0e0e0"></path><path d="M551.43,451.42A8.59,8.59,0,0,1,553,448.7c1-1.4,2-2.46,2.1-2.36a8.83,8.83,0,0,1-1.61,2.72C552.5,450.46,551.57,451.52,551.43,451.42Z" style="fill:#e0e0e0"></path><path d="M571.76,450.42c-.11.13-.81-.3-1.55-.95s-1.27-1.29-1.16-1.41.8.3,1.55.95S571.87,450.3,571.76,450.42Z" style="fill:#e0e0e0"></path><path d="M564.65,455.16c.11.13-.19.54-.66.91s-.93.57-1,.44.19-.53.66-.91S564.55,455,564.65,455.16Z" style="fill:#e0e0e0"></path><path d="M591,446.37c-.14.09-.7-.52-1.26-1.36s-.91-1.6-.77-1.69.71.52,1.27,1.36S591.18,446.27,591,446.37Z" style="fill:#e0e0e0"></path><path d="M592,456.84c.13.1-.27.76-1.12,1.09s-1.6.11-1.57,0,.65-.24,1.35-.52S591.92,456.73,592,456.84Z" style="fill:#e0e0e0"></path><path d="M611,448.06c-.1.12-.81-.35-1.22-1.28s-.29-1.78-.13-1.77.31.72.68,1.52S611.12,447.93,611,448.06Z" style="fill:#e0e0e0"></path><path d="M613.73,455.23c0,.16-.53.45-1.28.64s-1.38.22-1.43.06.53-.45,1.28-.64S613.68,455.07,613.73,455.23Z" style="fill:#e0e0e0"></path><path d="M628.93,447.72c-.15.07-.65-.62-1.11-1.56s-.73-1.75-.58-1.82.65.62,1.12,1.55S629.08,447.64,628.93,447.72Z" style="fill:#e0e0e0"></path><path d="M636,457.19c-.11-.13.3-.65.65-1.36s.53-1.36.7-1.35.26.78-.16,1.62S636.13,457.32,636,457.19Z" style="fill:#e0e0e0"></path><path d="M644.13,446c-.12.12-.75-.57-.62-1.62s.91-1.57,1-1.43-.31.69-.4,1.5S644.27,446,644.13,446Z" style="fill:#e0e0e0"></path><path d="M659.13,454.13c-.17,0-.45-.7-.64-1.63s-.21-1.72,0-1.75.44.69.63,1.63S659.29,454.1,659.13,454.13Z" style="fill:#e0e0e0"></path><path d="M666.44,452.43c-.14-.1.06-.63.43-1.18s.79-.94.93-.85,0,.62-.43,1.18S666.58,452.52,666.44,452.43Z" style="fill:#ebebeb"></path><path d="M667.39,424c-.14-.09,0-.54.26-1s.64-.77.78-.68,0,.53-.27,1S667.53,424.05,667.39,424Z" style="fill:#e0e0e0"></path><path d="M637.39,425.73c-.15.07-.65-.62-1.11-1.56s-.73-1.75-.58-1.83.65.63,1.11,1.56S637.54,425.65,637.39,425.73Z" style="fill:#e0e0e0"></path><g style="opacity:0.30000000000000004"><path d="M641.11,417.27c-.17,0-.3-.08-.3-.17s.13-.17.3-.17.3.08.3.17S641.28,417.27,641.11,417.27Z"></path></g><path d="M615.12,424.76c-.13-.1.36-.95,1.1-1.89s1.45-1.62,1.58-1.51-.36.94-1.11,1.88S615.25,424.86,615.12,424.76Z" style="fill:#e0e0e0"></path><path d="M603.22,421.33c-.16-.06-.05-.71.23-1.46s.63-1.3.78-1.25.06.71-.22,1.46S603.38,421.39,603.22,421.33Z" style="fill:#e0e0e0"></path><path d="M594.09,425.05c-.08-.15.32-.49.88-.78s1.07-.38,1.15-.23-.32.49-.89.77S594.16,425.2,594.09,425.05Z" style="fill:#e0e0e0"></path><path d="M573.41,423.39c-.15.08-.49-.23-.77-.69s-.4-.92-.26-1,.49.22.77.69S573.55,423.3,573.41,423.39Z" style="fill:#e0e0e0"></path><path d="M573.14,420.33c-.15-.08-.12-.44.07-.81s.46-.62.6-.54.12.43-.07.81S573.29,420.4,573.14,420.33Z" style="fill:#e0e0e0"></path><path d="M559.24,430.46c-.15.08-.72-.77-1.28-1.89s-.9-2.09-.75-2.17.72.78,1.28,1.9S559.39,430.39,559.24,430.46Z" style="fill:#e0e0e0"></path><path d="M543.68,425.39c-.17,0-.3-.45-.3-1s.13-1,.3-1,.3.45.3,1S543.84,425.39,543.68,425.39Z" style="fill:#e0e0e0"></path><path d="M533.87,424c-.17,0-.23-.58-.13-1.23s.3-1.17.46-1.14.23.57.13,1.22S534,424.06,533.87,424Z" style="fill:#e0e0e0"></path><path d="M572.43,427.76c.06.16-.58.51-1.42.79s-1.57.38-1.62.22.59-.51,1.43-.79S572.38,427.6,572.43,427.76Z" style="fill:#e0e0e0"></path><path d="M557.23,367.59a4.26,4.26,0,0,1-2.37-6.64c.87-1.2,2.38-2,2.87-3.37a13.87,13.87,0,0,0,.3-2.24,2.06,2.06,0,0,1,1.2-1.76,1.72,1.72,0,0,1,1.75.63,4.47,4.47,0,0,1,.78,1.8,12.8,12.8,0,0,1,0,7c-.74,2.23-2.24,4.13-4.55,4.61" style="fill:#ebebeb"></path><rect x="555" y="369.43" width="4.35" height="31.07" style="fill:#ebebeb"></rect><path d="M559.3,372.1a15.68,15.68,0,0,1-2,1.75,15.1,15.1,0,0,1-2.18,1.57,15.27,15.27,0,0,1,2-1.76A14.54,14.54,0,0,1,559.3,372.1Z" style="fill:#e0e0e0"></path><path d="M559.3,377.57a15.27,15.27,0,0,1-2,1.76,15.1,15.1,0,0,1-2.18,1.57,15.27,15.27,0,0,1,2-1.76A15.1,15.1,0,0,1,559.3,377.57Z" style="fill:#e0e0e0"></path><path d="M559.3,383.05a14.83,14.83,0,0,1-2,1.75,14.21,14.21,0,0,1-2.18,1.57,15.27,15.27,0,0,1,2-1.76A14.54,14.54,0,0,1,559.3,383.05Z" style="fill:#e0e0e0"></path><path d="M559.3,388.52a15.27,15.27,0,0,1-2,1.76,15.1,15.1,0,0,1-2.18,1.57,15.27,15.27,0,0,1,2-1.76A15.1,15.1,0,0,1,559.3,388.52Z" style="fill:#e0e0e0"></path><path d="M559.3,394a14.83,14.83,0,0,1-2,1.75,14.21,14.21,0,0,1-2.18,1.57,14.83,14.83,0,0,1,2-1.75A14.21,14.21,0,0,1,559.3,394Z" style="fill:#e0e0e0"></path><path d="M557.25,364.49a27.79,27.79,0,0,1,0,5.16,27.8,27.8,0,0,1,0-5.16Z" style="fill:#e0e0e0"></path><path d="M665.45,367a4.26,4.26,0,0,1-2.37-6.64c.87-1.2,2.38-2,2.86-3.37a11.84,11.84,0,0,0,.3-2.24,2.07,2.07,0,0,1,1.21-1.76,1.72,1.72,0,0,1,1.75.63,4.46,4.46,0,0,1,.77,1.8,12.61,12.61,0,0,1,0,7,6.37,6.37,0,0,1-4.54,4.61" style="fill:#ebebeb"></path><rect x="663.21" y="368.87" width="4.35" height="31.07" style="fill:#ebebeb"></rect><path d="M667.51,371.54a14.35,14.35,0,0,1-2,1.75,15.1,15.1,0,0,1-2.18,1.57,15.55,15.55,0,0,1,2-1.76A15.14,15.14,0,0,1,667.51,371.54Z" style="fill:#e0e0e0"></path><path d="M667.51,377a14.77,14.77,0,0,1-2,1.76,15.1,15.1,0,0,1-2.18,1.57,15.55,15.55,0,0,1,2-1.76A15.76,15.76,0,0,1,667.51,377Z" style="fill:#e0e0e0"></path><path d="M667.51,382.49a30.74,30.74,0,0,1-4.21,3.32,15.09,15.09,0,0,1,2-1.75A14.79,14.79,0,0,1,667.51,382.49Z" style="fill:#e0e0e0"></path><path d="M667.51,388a14.77,14.77,0,0,1-2,1.76,15.1,15.1,0,0,1-2.18,1.57,15.55,15.55,0,0,1,2-1.76A15.76,15.76,0,0,1,667.51,388Z" style="fill:#e0e0e0"></path><path d="M667.51,393.44a30.74,30.74,0,0,1-4.21,3.32,15.09,15.09,0,0,1,2-1.75A15.76,15.76,0,0,1,667.51,393.44Z" style="fill:#e0e0e0"></path><path d="M665.46,363.93a27.79,27.79,0,0,1,0,5.16,27.8,27.8,0,0,1,0-5.16Z" style="fill:#e0e0e0"></path><path d="M99.18,430c4.65-4,8.26-9.43,9-15.5a20.42,20.42,0,0,0-7.81-17.92c-9.74-7.06-19.1-5.63-27.34,1.76-7.73,6.94-12.45,17.21-11.5,27.55.53,5.74,3.1,11.95,8.47,14.05,4.18,1.63,8.88.35,13.09-1.21C88.88,436.6,94.53,434,99.18,430Z" style="fill:#ebebeb"></path><path d="M66.12,437.08a12.16,12.16,0,0,0-3.54,1.3c-.35.21-.72.5-.74.9a.92.92,0,0,0,.85.87,2.79,2.79,0,0,0,1.29-.24,10.09,10.09,0,0,0,.89,2,1.13,1.13,0,0,0,.72.65.79.79,0,0,0,.69-.31c.17-.21.88-.51,1-.76.36-1.09,0-2.18.05-3.32" style="fill:#ebebeb"></path><path d="M64.23,439.52c-.14-.07.1-.76.77-1.33s1.39-.71,1.44-.56-.48.49-1.06,1S64.37,439.6,64.23,439.52Z" style="fill:#e0e0e0"></path><path d="M65.63,439.55c-.16,0-.2-.56.08-1.13s.71-.87.83-.77-.08.53-.31,1S65.79,439.58,65.63,439.55Z" style="fill:#e0e0e0"></path><path d="M718.53,281.73c-1.44-7-5-13.69-10.72-17.9s-15.38-5.48-22.62-2.07c-12.64,5.95-16.44,16.28-13.52,28.81,2.73,11.77,10.54,22.33,21.61,27.15,6.14,2.67,13.91,3.54,19.05-.75,4-3.34,5.33-8.86,6.11-14C719.5,295.92,720,288.7,718.53,281.73Z" style="fill:#ebebeb"></path><path d="M707.24,319.37a14.21,14.21,0,0,0-.66,4.35,1.48,1.48,0,0,0,.51,1.25,1.08,1.08,0,0,0,1.35-.37,3.24,3.24,0,0,0,.48-1.46,12.87,12.87,0,0,0,2.55.23,1.35,1.35,0,0,0,1.07-.37.89.89,0,0,0,.07-.88c-.11-.29,0-1.18-.23-1.4-.91-1-2.24-1.18-3.35-1.91" style="fill:#ebebeb"></path><path d="M708.66,322.67a2.46,2.46,0,0,1-.78-1.56,2.41,2.41,0,0,1,.1-1.75,11.84,11.84,0,0,1,.28,1.67A11.36,11.36,0,0,1,708.66,322.67Z" style="fill:#e0e0e0"></path><path d="M709.48,321.26c-.06.08-.58-.21-1-.79s-.53-1.16-.44-1.2.37.44.76,1S709.55,321.17,709.48,321.26Z" style="fill:#e0e0e0"></path><path d="M133.7,35.62a1.37,1.37,0,0,1,.16.21l.44.65a9.68,9.68,0,0,1,1.13,2.8,11.77,11.77,0,0,1,0,4.77,14.55,14.55,0,0,1-2.64,5.73,13.84,13.84,0,0,1-2.63,2.61,12.73,12.73,0,0,1-1.65,1.09,13.15,13.15,0,0,1-1.88.81,16.81,16.81,0,0,1-8.76.53A23.43,23.43,0,0,1,108.92,51,21.09,21.09,0,0,1,105,47.61a11.74,11.74,0,0,1-2.58-4.68,6.08,6.08,0,0,1-.09-2.75,4.8,4.8,0,0,1,1.3-2.4,5.9,5.9,0,0,1,4.94-1.52,7.61,7.61,0,0,1,4.4,2.42,11.83,11.83,0,0,1,2.47,4.12,14.23,14.23,0,0,1,.23,8.76,13.26,13.26,0,0,1-4.1,6.44,12.68,12.68,0,0,1-2.81,1.84,13.54,13.54,0,0,1-2.81,1,13.88,13.88,0,0,1-4.76.38,13.38,13.38,0,0,1-3-.62l-.73-.29a1,1,0,0,1-.24-.12,16.19,16.19,0,0,0,3.94.83,14.13,14.13,0,0,0,4.67-.46,13.05,13.05,0,0,0,2.73-1.05,12.43,12.43,0,0,0,2.72-1.82,13,13,0,0,0,3.93-6.28A13.87,13.87,0,0,0,115,43,11.24,11.24,0,0,0,112.62,39a7.06,7.06,0,0,0-4.1-2.26A5.36,5.36,0,0,0,104,38.14a4.76,4.76,0,0,0-1.07,4.66,11.22,11.22,0,0,0,2.46,4.47,21,21,0,0,0,3.81,3.31,23.21,23.21,0,0,0,8.72,3.77,16.36,16.36,0,0,0,8.53-.47,14.08,14.08,0,0,0,1.83-.76,14.47,14.47,0,0,0,4.18-3.56A14.48,14.48,0,0,0,135.12,44a12,12,0,0,0,.12-4.66A12.64,12.64,0,0,0,133.7,35.62Z" style="fill:#ebebeb"></path><path d="M721.46,165a1.34,1.34,0,0,1-.18.33l-.58.94a13.78,13.78,0,0,1-2.94,3.08,16.62,16.62,0,0,1-6.16,2.71,20.46,20.46,0,0,1-8.91-.07,20.07,20.07,0,0,1-7.24-3.37,19.55,19.55,0,0,1-2.13-2,23.73,23.73,0,0,1-5.75-11,33.28,33.28,0,0,1-.24-13.69,30.3,30.3,0,0,1,2.1-7,16.62,16.62,0,0,1,4.53-6,8.56,8.56,0,0,1,3.49-1.7,6.79,6.79,0,0,1,3.84.28,8.3,8.3,0,0,1,4.81,5.49,10.75,10.75,0,0,1-.57,7,16.58,16.58,0,0,1-3.87,5.57A20.09,20.09,0,0,1,690.53,151a18.71,18.71,0,0,1-10.66-1.55,17.43,17.43,0,0,1-4-2.55,18.58,18.58,0,0,1-3-3,19.76,19.76,0,0,1-3.25-5.9,18.5,18.5,0,0,1-.9-4.16c0-.45,0-.81,0-1.11a1.33,1.33,0,0,1,0-.37,22.89,22.89,0,0,0,1.21,5.54,19.88,19.88,0,0,0,3.3,5.74,18.73,18.73,0,0,0,2.92,2.92,17.65,17.65,0,0,0,3.93,2.44,18.38,18.38,0,0,0,10.35,1.42,19.57,19.57,0,0,0,10.75-5.25,16,16,0,0,0,3.69-5.35,10,10,0,0,0,.53-6.58,7.61,7.61,0,0,0-4.38-5,6.74,6.74,0,0,0-6.61,1.32,15.91,15.91,0,0,0-4.33,5.76,30.14,30.14,0,0,0-2.05,6.81,32.64,32.64,0,0,0,.19,13.41,23.18,23.18,0,0,0,5.54,10.7,19.24,19.24,0,0,0,2,1.91,20.75,20.75,0,0,0,2.27,1.46,19.59,19.59,0,0,0,13.43,2,16.72,16.72,0,0,0,6.08-2.54A17.73,17.73,0,0,0,721.46,165Z" style="fill:#ebebeb"></path><path d="M306.9,147.14a.79.79,0,0,1,.27,0l.78.07a9.65,9.65,0,0,1,2.88.89,11.71,11.71,0,0,1,3.67,3,14.66,14.66,0,0,1,2.78,5.68,15.18,15.18,0,0,1,.36,3.68,15,15,0,0,1-.21,2,14.15,14.15,0,0,1-.56,2,16.89,16.89,0,0,1-5.13,7.12,23.55,23.55,0,0,1-8.62,4.49,21.35,21.35,0,0,1-5.09.88,11.63,11.63,0,0,1-5.26-1,6,6,0,0,1-2.18-1.67,4.81,4.81,0,0,1-1-2.52,5.89,5.89,0,0,1,2-4.79,7.6,7.6,0,0,1,4.65-1.87,11.82,11.82,0,0,1,4.76.69,14.23,14.23,0,0,1,6.92,5.36,13.38,13.38,0,0,1,2.4,7.25,12.9,12.9,0,0,1-.36,3.35,13.09,13.09,0,0,1-1,2.83,13.89,13.89,0,0,1-2.71,3.92,13.2,13.2,0,0,1-2.35,1.89l-.69.38-.24.11a16.13,16.13,0,0,0,3.13-2.52,14.18,14.18,0,0,0,2.6-3.91,13.53,13.53,0,0,0,.92-2.78,12.72,12.72,0,0,0,.31-3.26,13.08,13.08,0,0,0-2.38-7,13.92,13.92,0,0,0-6.73-5.16,11.28,11.28,0,0,0-4.56-.64,7,7,0,0,0-4.34,1.75,5.37,5.37,0,0,0-1.79,4.36A4.73,4.73,0,0,0,293,175.5a11.25,11.25,0,0,0,5,.93,21.12,21.12,0,0,0,5-.86,23,23,0,0,0,8.45-4.37,16.4,16.4,0,0,0,5-6.9,13.26,13.26,0,0,0,.56-1.9,12.41,12.41,0,0,0,.21-1.9,14,14,0,0,0-.31-3.59,14.48,14.48,0,0,0-2.64-5.58,12,12,0,0,0-3.54-3A12.21,12.21,0,0,0,306.9,147.14Z" style="fill:#ebebeb"></path><circle cx="53.91" cy="321.95" r="5.43" style="fill:#ebebeb"></circle><path d="M82.27,400a2.72,2.72,0,1,1-2.72-2.72A2.71,2.71,0,0,1,82.27,400Z" style="fill:#ebebeb"></path><path d="M462.93,43.54a2.72,2.72,0,1,1-2.72-2.71A2.72,2.72,0,0,1,462.93,43.54Z" style="fill:#ebebeb"></path></g><g id="background-simple"><path d="M559.18,103.36l-2.71-4.47c-22.89-37.72-64.28-60.46-107.91-57.7a113.6,113.6,0,0,0-16.71,2.29C392.18,52,357.66,82,343.35,120.4,334.94,143,332.58,169,316.62,187c-20.79,23.34-56.07,24.07-87.09,23.1s-66.33-.14-87,23.3c-13,14.67-17.07,35.55-16,55.2,2.77,52,39,98.57,85.14,121.7s100.42,25.2,150.89,15c70.7-14.26,137.94-53.4,178.35-113.85S591.52,168.61,559.18,103.36Z" style="fill:#ebebeb"></path><circle cx="249.71" cy="130.71" r="45.41" style="fill:#ebebeb"></circle></g><g id="Balloons"><path d="M296,84.8c1.79-8.55,1.59-17.87-2.64-25.52C287.05,47.92,272.24,42.6,259.71,46S237.48,60.6,234.3,73.19s-3.6,32.8,15,42.39c9.62,4.82,21.82,2.78,30.47-3.64S293.78,95.34,296,84.8Z" style="fill:#FF725E"></path><path d="M257.56,123.11,255.7,114l-6.64.39a14.07,14.07,0,0,0-6.25,3.89,3.05,3.05,0,0,0-1.06,2.75,2.32,2.32,0,0,0,2.87,1.25,6.67,6.67,0,0,0,2.78-2,7.26,7.26,0,0,0-.72,3.28,2.49,2.49,0,0,0,2,2.34,2.45,2.45,0,0,0,2.11-1.2,7.13,7.13,0,0,0,.86-2.39,7.66,7.66,0,0,0,1.86,3.84c1.06,1,3,1.12,3.81-.07A3.83,3.83,0,0,0,257.56,123.11Z" style="fill:#FF725E"></path><path d="M262,143.74a2.15,2.15,0,0,1-.49.37,9.77,9.77,0,0,1-1.58.8,10.84,10.84,0,0,1-6.42.5,11,11,0,0,1-7.35-5.93,8.26,8.26,0,0,1-.7-5.66,4.91,4.91,0,0,1,4.64-3.73,3.52,3.52,0,0,1,3.24,4.62,3.37,3.37,0,0,1-2.37,1.86,4.16,4.16,0,0,1-2.85-.4,6.9,6.9,0,0,1-3.25-4,9.64,9.64,0,0,1-.34-4.5,14.1,14.1,0,0,1,2.58-5.92,16.7,16.7,0,0,1,1.08-1.39c.26-.3.41-.46.42-.44a2.26,2.26,0,0,1-.34.5c-.23.33-.58.81-1,1.44a14.75,14.75,0,0,0-2.38,5.87,9.49,9.49,0,0,0,.39,4.3,6.43,6.43,0,0,0,3.06,3.71,3.72,3.72,0,0,0,2.52.35,2.89,2.89,0,0,0,2-1.58c.73-1.66-.84-3.91-2.78-3.9a4.42,4.42,0,0,0-4.14,3.35,7.78,7.78,0,0,0,.65,5.32,10.66,10.66,0,0,0,7,5.78,11,11,0,0,0,6.27-.34A18.18,18.18,0,0,0,262,143.74Z" style="fill:#263238"></path><path d="M238.44,82.17a12.08,12.08,0,0,1,.12-1.72,17.36,17.36,0,0,1,.29-2c.16-.77.29-1.66.58-2.61l.41-1.5c.15-.52.37-1,.56-1.59.36-1.11.89-2.24,1.42-3.44a42.31,42.31,0,0,1,4.51-7.23,41.51,41.51,0,0,1,6-6.07,35.69,35.69,0,0,1,3-2.2c.49-.31.95-.64,1.42-.91l1.36-.75A23.6,23.6,0,0,1,260.5,51a15.44,15.44,0,0,1,1.87-.75,10.3,10.3,0,0,1,1.64-.51,12.19,12.19,0,0,1-1.56.7,17.42,17.42,0,0,0-1.83.82c-.69.36-1.51.71-2.34,1.23l-1.33.78c-.46.27-.91.6-1.39.92-1,.62-1.93,1.41-2.95,2.21a43.74,43.74,0,0,0-5.87,6,43,43,0,0,0-4.48,7.12c-.54,1.18-1.09,2.29-1.46,3.38-.2.54-.42,1-.57,1.56s-.31,1-.45,1.48c-.31.93-.46,1.81-.64,2.57a19.4,19.4,0,0,0-.38,2A10.17,10.17,0,0,1,238.44,82.17Z" style="fill:#fff"></path><path d="M194.48,381c-3.74-6.36-9.16-12.07-16.14-14.43C168,363,155.68,368.1,149.8,377.36s-5.6,21.72-.43,31.4,16.38,22.52,33.46,17.92c8.76-2.45,15.21-10.66,17-19.58S199.09,388.8,194.48,381Z" style="fill:#FF725E"></path><path d="M192.25,426.72l-6.35-4.65-3.92,4a11.77,11.77,0,0,0-1.7,6,2.57,2.57,0,0,0,.9,2.31,1.94,1.94,0,0,0,2.5-.85,5.59,5.59,0,0,0,.59-2.84,6.22,6.22,0,0,0,1.41,2.46,2.12,2.12,0,0,0,2.62.3,2.09,2.09,0,0,0,.63-1.95,6,6,0,0,0-.82-2,6.48,6.48,0,0,0,3.34,1.34c1.22,0,2.51-1,2.34-2.21A3.25,3.25,0,0,0,192.25,426.72Z" style="fill:#FF725E"></path><path d="M206.73,437.08a1.69,1.69,0,0,1-.09.52,7.46,7.46,0,0,1-.52,1.39,9.11,9.11,0,0,1-3.72,4,9.31,9.31,0,0,1-8,.48,7,7,0,0,1-3.68-3.15,4.2,4.2,0,0,1,.79-5,3,3,0,0,1,4.71,1.07,2.91,2.91,0,0,1-.42,2.54,3.58,3.58,0,0,1-2,1.38,5.84,5.84,0,0,1-4.34-.66,8.24,8.24,0,0,1-2.77-2.62,12.09,12.09,0,0,1-1.75-5.18,14.44,14.44,0,0,1-.1-1.48,1.61,1.61,0,0,1,0-.52s.08.71.28,2a12.49,12.49,0,0,0,1.85,5,8,8,0,0,0,2.68,2.46,5.44,5.44,0,0,0,4,.57,3.06,3.06,0,0,0,1.74-1.2,2.39,2.39,0,0,0,.36-2.1,2.52,2.52,0,0,0-3.89-.83,3.69,3.69,0,0,0-.67,4.39,6.58,6.58,0,0,0,3.4,2.94,9,9,0,0,0,7.63-.36,9.31,9.31,0,0,0,3.72-3.75C206.54,437.77,206.68,437.07,206.73,437.08Z" style="fill:#263238"></path><path d="M157.05,412a7.7,7.7,0,0,1-.91-1.13,12.54,12.54,0,0,1-1-1.41c-.34-.57-.77-1.2-1.13-2a25.39,25.39,0,0,1-1.16-2.49c-.4-.9-.71-1.9-1.06-3a32.53,32.53,0,0,1-1-14.28c.2-1.09.36-2.13.63-3.08a25.64,25.64,0,0,1,.8-2.62,21.05,21.05,0,0,1,.84-2.09,12.91,12.91,0,0,1,.75-1.53,7.13,7.13,0,0,1,.75-1.24c.1,0-1,1.84-2,5a26,26,0,0,0-.73,2.61c-.25.94-.4,2-.58,3a34,34,0,0,0,1,14.08c.33,1,.62,2,1,2.93s.73,1.73,1.09,2.48C155.85,410.32,157.15,411.94,157.05,412Z" style="fill:#fff"></path><path d="M694.71,379.54c2-6.22,2.49-13.17-.1-19.16-3.86-8.91-14.49-13.94-24.05-12.3S653,357.29,649.7,366.43s-5.07,24.12,8.1,32.6c6.8,4.29,16,3.65,22.91-.49S692.31,387.22,694.71,379.54Z" style="fill:#FF725E"></path><path d="M663.36,405.23l-.72-6.93-5-.19a10.56,10.56,0,0,0-4.94,2.44,2.27,2.27,0,0,0-1,2,1.72,1.72,0,0,0,2,1.14,5,5,0,0,0,2.22-1.3,5.36,5.36,0,0,0-.78,2.39,1.86,1.86,0,0,0,1.35,1.89,1.84,1.84,0,0,0,1.66-.74,5.63,5.63,0,0,0,.82-1.71,5.63,5.63,0,0,0,1.1,3,2,2,0,0,0,2.83.23A2.91,2.91,0,0,0,663.36,405.23Z" style="fill:#FF725E"></path><path d="M665.15,420.89a1.62,1.62,0,0,1-.39.25,7.36,7.36,0,0,1-1.22.49,8.06,8.06,0,0,1-9.91-5,6.21,6.21,0,0,1-.11-4.3,3.72,3.72,0,0,1,3.79-2.48,2.7,2.7,0,0,1,2.12,3.77,2.63,2.63,0,0,1-1.95,1.24,3.26,3.26,0,0,1-2.13-.52,5.24,5.24,0,0,1-2.15-3.25,7.39,7.39,0,0,1,.08-3.39,10.54,10.54,0,0,1,2.38-4.22,12.92,12.92,0,0,1,.91-.95,2.12,2.12,0,0,1,.36-.29s-.41.48-1.12,1.37a11,11,0,0,0-2.17,4.18,7,7,0,0,0,0,3.2,4.8,4.8,0,0,0,2,2.95,2.68,2.68,0,0,0,1.81.42,2.08,2.08,0,0,0,1.56-1,2.2,2.2,0,0,0-1.74-3,3.25,3.25,0,0,0-3.25,2.15,5.79,5.79,0,0,0,.09,4,7.93,7.93,0,0,0,4.74,4.78,8.27,8.27,0,0,0,4.66.23C664.58,421.16,665.13,420.84,665.15,420.89Z" style="fill:#263238"></path><path d="M652.12,373.4a7.13,7.13,0,0,1,.19-1.27,12.1,12.1,0,0,1,.35-1.47,19.46,19.46,0,0,1,.61-1.9,22.11,22.11,0,0,1,.94-2.24c.35-.8.83-1.6,1.31-2.46A31.36,31.36,0,0,1,659.4,359a30.36,30.36,0,0,1,4.9-4.08,27.07,27.07,0,0,1,2.4-1.41,19.28,19.28,0,0,1,2.2-1,17.85,17.85,0,0,1,1.88-.69,11.11,11.11,0,0,1,1.45-.41,6.22,6.22,0,0,1,1.26-.24c0,.11-1.77.49-4.44,1.68a20.3,20.3,0,0,0-2.14,1.07c-.77.39-1.53.91-2.34,1.42a29.9,29.9,0,0,0-8.64,9c-.49.84-1,1.62-1.33,2.4a22.18,22.18,0,0,0-1,2.18C652.54,371.61,652.23,373.42,652.12,373.4Z" style="fill:#fff"></path></g><g id="Character"><path d="M474.09,332.51c0,1,6.16,28.24,6.16,28.24S493.09,352,498,347.91,526.47,322,526.47,322l14.12,13.07s-56.23,70.12-65,69.61-15.41-6.17-16.95-10.79-10-36.2-10-36.2l7.47-21.57Z" style="fill:#aa7d6d"></path><path d="M480.79,360.81a14.9,14.9,0,0,0-2.91.76,12.11,12.11,0,0,0-5.33,4.72,26.63,26.63,0,0,0-2.77,6.74,21.73,21.73,0,0,1-.89,2.92,14.53,14.53,0,0,1,.54-3,23,23,0,0,1,2.68-6.92,11.58,11.58,0,0,1,5.64-4.79,7.11,7.11,0,0,1,2.22-.47A2.09,2.09,0,0,1,480.79,360.81Z" style="fill:#7a524b"></path><path d="M522.71,325.44s12.92-14.46,18.12-14,12.7,1.54,14.78,1.19a55.75,55.75,0,0,1,7.91,0s13.53-7.33,16-6.76c0,0,2.32-.12,3.12,1.2,0,0,5.14-3.26,8.85-1.23L578,317l4.11-.52s12.12-6.4,16-2L589,319.43s7.6-.12,8.75,3l-17,2.74s-32.35,2.7-34.07,3.45-8.55,9.6-8.55,9.6Z" style="fill:#aa7d6d"></path><path d="M582.85,307.1s-.26.31-.81.79-1.35,1.16-2.38,1.95a78.57,78.57,0,0,1-8.43,5.69c-1.63.94-3.18,1.82-4.69,2.52a6.31,6.31,0,0,1-4.4.59l.24-.13A3.86,3.86,0,0,1,560,321a3.41,3.41,0,0,1-.93.17c-.22,0-.33,0-.33,0a8.83,8.83,0,0,0,1.18-.33A3.71,3.71,0,0,0,562,318.4l0-.18.19,0a6,6,0,0,0,4.09-.66c1.45-.7,3-1.59,4.63-2.53,3.41-2,6.36-4,8.47-5.53l2.47-1.82A5.07,5.07,0,0,1,582.85,307.1Z" style="fill:#7a524b"></path><path d="M578,317.28a6.08,6.08,0,0,1-1.8,1.41,15.76,15.76,0,0,1-5.15,2c-1.07.22-2.1.25-3,.41a8.12,8.12,0,0,0-2.25.81,4,4,0,0,1-2.2.63,17.89,17.89,0,0,0,2-1,7.54,7.54,0,0,1,2.33-.95c.93-.19,2-.24,3-.45A23.7,23.7,0,0,0,578,317.28Z" style="fill:#7a524b"></path><path d="M589.65,318.46a7,7,0,0,1-1.83,1.41,21.21,21.21,0,0,1-10.61,3.21,7.37,7.37,0,0,1-2.3-.16,38.81,38.81,0,0,0,7.67-1.23A39.25,39.25,0,0,0,589.65,318.46Z" style="fill:#7a524b"></path><path d="M324.74,410c-17.82,20.49-30.93,42.5-35.66,68.07l168.07-.74L433.78,415S341.18,391.14,324.74,410Z" style="fill:#263238"></path><path d="M337.21,185.41l93.51-4c.43,29.06-.9,54.06,10.18,78.28,2.82,6.15,6.4,12,8.55,18.4s2.74,13.76-.42,19.75l-19.24-4.39c-.06-2-.12-3.93-.17-5.9a8.66,8.66,0,0,1-4.85,6.05c-3.12,1.49-6.72,1.47-10.17,1.36a289.76,289.76,0,0,1-59.35-8.07c-2.59-.63-14.59,1.09-14.59,1.09C332.12,258.48,332.19,215.67,337.21,185.41Z" style="fill:#263238"></path><path d="M219.8,326s12.72,18.64,17,23.55,24.13,30.8,33.59,41.24,18.37,20.51,24.54,18c5.27-2.19,19-10.68,19.1-18.16s0-16.24,0-16.24l-27.19-20.51.21,10.47s-6.19-3.42-9.18-6.41-41.07-40.65-41.07-40.65L226,321.71Z" style="fill:#aa7d6d"></path><path d="M180.38,303s.72-1.3,4.77-.73,11.11,4.77,12.7,4.77,19.35.58,22.81,1.44,8.85,1.39,12,4.71l5.15,4.56-17.19,9.44a7.11,7.11,0,0,0-5.48-2.83c-3.89-.29-21.79-1.15-21.79-1.15l-13.86-3.18-17.62-8.52A4.43,4.43,0,0,1,167,309c3.61.87,10.39,3.33,10.39,3.33l5.92,1.8-15.59-7.43a7.61,7.61,0,0,1,7.94-1.88c4.91,1.59,13.28,5.34,13.28,5.34l1.16-.43Z" style="fill:#aa7d6d"></path><path d="M199.87,313.29a14.2,14.2,0,0,1-9.86-3.63c.09-.13,2,1.28,4.76,2.28S199.88,313.13,199.87,313.29Z" style="fill:#7a524b"></path><path d="M196.6,317.76a7.15,7.15,0,0,1-2.3.17,20.11,20.11,0,0,1-5.5-.91,20.66,20.66,0,0,1-5.05-2.35,7.38,7.38,0,0,1-1.8-1.44,37.1,37.1,0,0,0,7,3.3A36.8,36.8,0,0,0,196.6,317.76Z" style="fill:#7a524b"></path><path d="M165.7,313.41a3.47,3.47,0,0,0-1.93,3.26,102.46,102.46,0,0,0,18,4.14" style="fill:#7a524b"></path><path d="M297.91,387.91c-.1,0,.11-1.56-.05-4a27,27,0,0,0-.65-4.32,29.29,29.29,0,0,0-1.73-5,29.83,29.83,0,0,0-2.7-4.6,27.16,27.16,0,0,0-2.86-3.3c-1.78-1.74-3.09-2.59-3-2.68a4.45,4.45,0,0,1,.94.56,9.29,9.29,0,0,1,1,.75,15.94,15.94,0,0,1,1.3,1.1,23.53,23.53,0,0,1,3,3.28,28.13,28.13,0,0,1,2.79,4.67,27.61,27.61,0,0,1,1.73,5.15,25.08,25.08,0,0,1,.55,4.41c0,.63,0,1.2,0,1.7a8.73,8.73,0,0,1-.11,1.28A4.32,4.32,0,0,1,297.91,387.91Z" style="fill:#7a524b"></path><path d="M335.44,255.07c-2.66,0-16,5.33-22.51,10.66s-32.29,72.28-37,73.76c0,0,6.52,3.55,5.93,5.92s-3,5.24-3.31,6.63c0,0,14,5.24,18.16,10.57,2.12,2.72,2.84,8.32,4.8,10.73a12.84,12.84,0,0,0,13.68,4.15h0Z" style="fill:#455a64"></path><path d="M315.89,290.37s-1.78,25.72-1.78,33.42v71.38s-1.48,15.11,10.37,14.81,39.69-1.77,47.69-1.77,55.39,5.63,61.61,6.81c0,0,14.22-5.92,14.81-14.51s-3.85-66.95-3.85-66.95l-6.22-76.42-103.08-2.07Z" style="fill:#455a64"></path><path d="M438.52,257.14s13.28-3,21.35,13.05c7.12,14.18,24,64.86,24,64.86s-14.63,8.29-15.34,8.52c0,0,3.08,10.93,2.85,11.68-.55,1.76-15.29,12.66-24.49,9.16L438.52,352Z" style="fill:#455a64"></path><path d="M471.42,355.25a3,3,0,0,1-.23-.69c-.15-.51-.33-1.18-.57-2-.47-1.76-1.13-4.31-1.89-7.47-1.53-6.33-3.47-15.1-5.42-24.84s-3.55-18.58-4.61-25c-.54-3.21-.94-5.81-1.2-7.61-.12-.86-.21-1.55-.29-2.08a3.25,3.25,0,0,1-.06-.72,3.94,3.94,0,0,1,.17.71c.09.52.22,1.2.38,2.06.33,1.85.79,4.42,1.36,7.58,1.15,6.4,2.81,15.23,4.76,25s3.83,18.51,5.27,24.85l1.73,7.51c.19.85.35,1.52.47,2A5.46,5.46,0,0,1,471.42,355.25Z" style="fill:#263238"></path><path d="M302.88,294.85a3.61,3.61,0,0,1-.1.58c-.09.44-.22,1-.37,1.67-.36,1.44-1,3.51-1.79,6-1.65,5-4.33,11.86-7.52,19.29s-6.33,14-8.7,18.78c-1.19,2.37-2.2,4.26-2.92,5.56-.35.59-.64,1.08-.86,1.47a3.64,3.64,0,0,1-.33.49,2,2,0,0,1,.24-.54l.77-1.52c.66-1.32,1.62-3.24,2.77-5.62,2.29-4.77,5.36-11.41,8.55-18.83s5.91-14.21,7.66-19.2c.88-2.49,1.52-4.53,1.94-5.95l.46-1.64A2.09,2.09,0,0,1,302.88,294.85Z" style="fill:#263238"></path><path d="M335.9,409.81s-.13-.08-.35-.26-.53-.46-.9-.85a23.55,23.55,0,0,1-2.85-3.56,33.88,33.88,0,0,1-5-14.12,68.57,68.57,0,0,1,0-15c.17-1.91.35-3.45.49-4.52a10.25,10.25,0,0,1,.26-1.64,9.89,9.89,0,0,1-.06,1.66c-.08,1.16-.19,2.69-.33,4.53a76.92,76.92,0,0,0,.18,14.91,35.23,35.23,0,0,0,4.75,14,27.49,27.49,0,0,0,2.69,3.62A15.19,15.19,0,0,1,335.9,409.81Z" style="fill:#263238"></path><path d="M342.28,408.94a3.88,3.88,0,0,1-1.65-.86,8.85,8.85,0,0,1-2.74-3.59,8.76,8.76,0,0,1-.63-4.47,3.87,3.87,0,0,1,.55-1.79c.08,0-.12.71-.18,1.82a9.82,9.82,0,0,0,.74,4.24,9.94,9.94,0,0,0,2.49,3.5C341.7,408.53,342.33,408.86,342.28,408.94Z" style="fill:#263238"></path><path d="M311,318.21a4.62,4.62,0,0,1,.15.8c.08.58.19,1.35.32,2.32.28,2,.63,4.92,1,8.53.77,7.21,1.59,17.2,2,28.26s.32,21.09.08,28.34c-.11,3.62-.25,6.55-.38,8.58-.06,1-.11,1.75-.15,2.33a4.38,4.38,0,0,1-.09.81,4,4,0,0,1,0-.82c0-.58,0-1.36.06-2.33.07-2,.14-5,.21-8.58.15-7.25.17-17.26-.23-28.31s-1.17-21-1.84-28.25c-.34-3.61-.63-6.52-.85-8.54-.09-1-.17-1.74-.23-2.32A5,5,0,0,1,311,318.21Z" style="fill:#263238"></path><path d="M444.53,292.44c.14,0,.78,18.46,1.43,41.23s1.07,41.25.92,41.25-.79-18.45-1.44-41.23S444.38,292.45,444.53,292.44Z" style="fill:#263238"></path><g style="opacity:0.30000000000000004"><path d="M282.1,345.34,296,315.16C288.78,323.57,284.15,334.42,282.1,345.34Z"></path></g><g style="opacity:0.30000000000000004"><path d="M314.74,376.94c-2.77-11.27-5.55-22.82-4.3-34.35.56-5.16,1.93-10.31,1.36-15.47,0,0,1.31,15,1.95,21.59S314.74,376.94,314.74,376.94Z"></path></g><g style="opacity:0.30000000000000004"><path d="M326.87,376.47c-.75,5.7-1.7,11.67-.76,17.34a23.33,23.33,0,0,0,8.41,14.6C326.65,399.32,325.84,387.59,326.87,376.47Z"></path></g><g style="opacity:0.30000000000000004"><path d="M444.76,300.74l2.05,62.59C450.93,342.92,450.85,320.66,444.76,300.74Z"></path></g><g style="opacity:0.30000000000000004"><path d="M460.21,302l8.36,41.62C467.87,330.49,465.6,313.9,460.21,302Z"></path></g><g style="opacity:0.30000000000000004"><path d="M321.07,296,311,290.68c26.78,36,53.19,68.46,81.43,103.31,3.79,4.68,7.66,9.39,12.46,13s13.9,6.16,19.91,5.85C394.65,371.2,356.2,333.56,321.07,296Z"></path></g><path d="M303.59,282.39l136.6,147.07c10.87-8.43,14.08-15.13,12-26.7L333.51,255.07S307.82,257.77,303.59,282.39Z" style="fill:#FF725E"></path><path d="M357.72,306.59l-9.44,5.35L347,310.46l4-2.28L347.4,304l-4,2.28-1.29-1.5,9.44-5.35,1.29,1.5L349,303.14l3.6,4.16,3.87-2.19Z" style="fill:#fff"></path><path d="M362.42,315.88,355.23,320l-1.18-1.37.74-.42a3.87,3.87,0,0,1-2.44-1.38,3.39,3.39,0,0,1,.36-5,4.52,4.52,0,0,1,6.58.36,3.06,3.06,0,0,1,.83,2.94l1.06-.62Zm-4.4.35a1.91,1.91,0,0,0,.14-3,2.82,2.82,0,0,0-4.13-.13,1.92,1.92,0,0,0-.14,3A2.82,2.82,0,0,0,358,316.23Z" style="fill:#fff"></path><path d="M366.57,326a4.54,4.54,0,0,1-6.58-.33,3,3,0,0,1-.83-3l-3.68,2.09-1.24-1.44,9.81-5.57,1.18,1.37-.75.43a3.87,3.87,0,0,1,2.44,1.38A3.39,3.39,0,0,1,366.57,326Zm-1.32-1.39a1.92,1.92,0,0,0,.14-2.95,2.82,2.82,0,0,0-4.13-.13,1.92,1.92,0,0,0-.14,3A2.82,2.82,0,0,0,365.25,324.58Z" style="fill:#fff"></path><path d="M373.39,333.85a4.54,4.54,0,0,1-6.58-.33,3,3,0,0,1-.83-3l-3.68,2.09-1.24-1.44,9.81-5.57,1.18,1.37-.75.43a3.89,3.89,0,0,1,2.44,1.39A3.38,3.38,0,0,1,373.39,333.85Zm-1.32-1.39a1.91,1.91,0,0,0,.13-2.95,2.81,2.81,0,0,0-4.12-.13,1.92,1.92,0,0,0-.14,3A2.81,2.81,0,0,0,372.07,332.46Z" style="fill:#fff"></path><path d="M382.52,339.11l-10.34,1.55c-2.08.31-3.08,0-4-1.06a3.32,3.32,0,0,1-.85-2.07l1.66-.2a1.92,1.92,0,0,0,.49,1.35c.42.49.93.62,1.88.49l.47-.07,4.86-6.74,1.24,1.44-3.65,5,7-1.09Z" style="fill:#fff"></path><path d="M388.05,352.8c-1.7,1.48-3.79.73-5.61-1.37l-3.49-4,9.44-5.35,3.21,3.72c1.44,1.66,1.64,3.16.46,4.18a2.88,2.88,0,0,1-3.32.36A2.14,2.14,0,0,1,388.05,352.8Zm-1.29-1.49c.71-.62.51-1.36-.29-2.28l-2.13-2.47-2.72,1.54,2.08,2.42C384.78,351.76,385.86,352.09,386.76,351.31Zm1.54-7-2.61,1.47,1.84,2.13c1,1.11,2,1.45,2.93.68.61-.52.45-1.27-.32-2.15Z" style="fill:#fff"></path><path d="M393.59,351.91l1.24,1.44-7.19,4.09L386.4,356Zm2-1.39a1.22,1.22,0,0,1,1.77.18,1,1,0,0,1,0,1.53,1.21,1.21,0,0,1-1.8-.15A1.09,1.09,0,0,1,395.56,350.52Z" style="fill:#fff"></path><path d="M399.62,358.74l-1.59.92a2.47,2.47,0,0,0-.28-.38,2.65,2.65,0,0,0-3.69-.53l-3.55,2-1.24-1.44,7.19-4.09,1.18,1.37-.93.52A3.84,3.84,0,0,1,399.62,358.74Z" style="fill:#fff"></path><path d="M397.4,364.56c-.1.07-.21.14-.29.21a.83.83,0,0,0-.06,1.32,2,2,0,0,0,.94.59l-.84,1.17a3.77,3.77,0,0,1-1.65-1.16,2.11,2.11,0,0,1,.12-3.18,3.29,3.29,0,0,1,.53-.38l3.4-1.91-.87-1,1.35-.77.87,1,1.64-.94,1.24,1.44-1.65.93,1.43,1.65-1.35.77-1.43-1.66Z" style="fill:#fff"></path><path d="M407.82,372.42a5.48,5.48,0,0,1-.79.55l-4,2.27-1.25-1.44,3.95-2.25a3,3,0,0,0,.51-.36,1.38,1.38,0,0,0,.05-2.19,2.56,2.56,0,0,0-3.51-.49l-3.74,2.12-1.24-1.44,10-5.68,1.24,1.44-3.52,2a4,4,0,0,1,2.43,1.43C409.12,369.73,409.17,371.25,407.82,372.42Z" style="fill:#fff"></path><path d="M419.85,377.44l-10,5.68-1.18-1.37.74-.42A4,4,0,0,1,407,380a3.39,3.39,0,0,1,.36-5,4.51,4.51,0,0,1,6.57.35,3.07,3.07,0,0,1,.86,2.91l3.84-2.18Zm-7.2,1.94a1.92,1.92,0,0,0,.13-3,2.8,2.8,0,0,0-4.11-.11,1.91,1.91,0,0,0-.14,2.95A2.81,2.81,0,0,0,412.65,379.38Z" style="fill:#fff"></path><path d="M423.87,386.92,416.68,391l-1.18-1.37.74-.42a3.87,3.87,0,0,1-2.44-1.38,3.4,3.4,0,0,1,.36-5,4.52,4.52,0,0,1,6.58.36,3,3,0,0,1,.83,2.94l1.06-.62Zm-4.4.35a1.91,1.91,0,0,0,.14-2.95,2.82,2.82,0,0,0-4.13-.13,1.91,1.91,0,0,0-.13,2.95A2.81,2.81,0,0,0,419.47,387.27Z" style="fill:#fff"></path><path d="M430.48,394.56l-10.33,1.55c-2.08.31-3.09,0-4-1.06a3.21,3.21,0,0,1-.85-2.07l1.66-.2a2,2,0,0,0,.48,1.35c.42.49.94.62,1.89.48l.46-.06,4.87-6.74,1.24,1.44-3.66,5,7-1.1Z" style="fill:#fff"></path><path d="M406.91,356.68s-.08,0-.22-.07l-.63-.25-2.4-1c-1-.45-2.3-1-3.75-1.71s-3.12-1.46-4.91-2.4-3.78-1.93-5.86-3.09-4.29-2.42-6.6-3.77c-4.58-2.77-9.53-6-14.56-9.56s-9.61-7.3-13.69-10.77c-2-1.77-4-3.43-5.67-5.07s-3.35-3.15-4.79-4.57-2.72-2.74-3.84-3.9-2.06-2.17-2.81-3l-1.74-1.94L335,305a1,1,0,0,1-.14-.19,1,1,0,0,1,.18.16l.48.47,1.81,1.88c.77.82,1.73,1.82,2.87,3s2.41,2.46,3.88,3.84,3.05,2.93,4.83,4.52,3.67,3.26,5.69,5c4.09,3.44,8.69,7.1,13.69,10.71s9.94,6.8,14.5,9.58c2.3,1.36,4.47,2.67,6.56,3.8s4,2.21,5.82,3.14,3.43,1.74,4.87,2.46,2.68,1.32,3.71,1.79l2.35,1.12.61.3Z" style="fill:#263238"></path><g style="opacity:0.30000000000000004"><path d="M374.28,329.89c-10.6-5.32-22-9.32-31.37-16.6,16.14,15.81,38.44,30.78,56.89,40.25C395.32,342.56,384.88,335.21,374.28,329.89Z"></path></g><path d="M328.89,282.34a3.35,3.35,0,0,1-.83-.5c-.51-.34-1.23-.87-2.1-1.54a70.84,70.84,0,0,1-6.48-5.68,72.48,72.48,0,0,1-5.76-6.41c-.68-.87-1.21-1.58-1.56-2.09a4.36,4.36,0,0,1-.51-.82A29.47,29.47,0,0,1,314,268c1.43,1.67,3.46,3.92,5.84,6.28s4.66,4.35,6.34,5.76A30.89,30.89,0,0,1,328.89,282.34Z" style="fill:#263238"></path><path d="M330.85,276.61a14.21,14.21,0,0,1-2.83-1.06,60,60,0,0,1-12.49-7.44,13.41,13.41,0,0,1-2.27-2,22.86,22.86,0,0,1,2.49,1.69c1.52,1.06,3.64,2.49,6.07,3.94s4.7,2.63,6.36,3.46A22.41,22.41,0,0,1,330.85,276.61Z" style="fill:#263238"></path><path d="M426,403.41a4.94,4.94,0,0,1,1,.51c.66.36,1.6.9,2.75,1.6,2.3,1.39,5.4,3.43,8.68,5.89s6.11,4.87,8.09,6.69c1,.9,1.77,1.65,2.3,2.19a4.77,4.77,0,0,1,.78.86,5.12,5.12,0,0,1-.92-.71l-2.41-2.07c-2-1.74-4.89-4.09-8.15-6.54s-6.33-4.53-8.57-6l-2.65-1.73A4.78,4.78,0,0,1,426,403.41Z" style="fill:#263238"></path><path d="M350.2,102.79l.64,54.71,45.67-18.08L355,100.69A2.83,2.83,0,0,0,350.2,102.79Z" style="fill:#FF725E"></path><path d="M368.56,113.52a4.75,4.75,0,0,1-.56,1c-.38.62-.95,1.5-1.68,2.57-1.46,2.15-3.54,5.07-6,8.2s-4.75,5.88-6.47,7.83c-.86,1-1.57,1.74-2.07,2.27a5,5,0,0,1-.82.78,5.68,5.68,0,0,1,.67-.91l1.94-2.38c1.65-2,3.91-4.78,6.34-7.9s4.54-6,6.08-8.1l1.82-2.47A4.77,4.77,0,0,1,368.56,113.52Z" style="fill:#fff"></path><path d="M363.31,108.54c.12.08-2.6,4.31-6.08,9.45s-6.39,9.24-6.51,9.16,2.6-4.31,6.08-9.45S363.19,108.46,363.31,108.54Z" style="fill:#fff"></path><path d="M359,104.69a8.61,8.61,0,0,1-1.06,1.87c-.72,1.11-1.75,2.62-3,4.25s-2.34,3-3.19,4.06a8.49,8.49,0,0,1-1.48,1.57,71.73,71.73,0,0,1,4.25-5.94A71.1,71.1,0,0,1,359,104.69Z" style="fill:#fff"></path><path d="M374.63,118.64a7.26,7.26,0,0,1-.76,1.21c-.51.76-1.29,1.83-2.27,3.15-2,2.63-4.77,6.18-8.06,9.95s-6.45,7-8.8,9.31c-1.17,1.15-2.14,2.06-2.82,2.67a6.68,6.68,0,0,1-1.1.91,8,8,0,0,1,1-1.06l2.7-2.78c2.28-2.35,5.38-5.64,8.67-9.39s6.13-7.27,8.16-9.84l2.4-3A8.09,8.09,0,0,1,374.63,118.64Z" style="fill:#fff"></path><path d="M352.34,154.83a10,10,0,0,1,1.22-1.09l3.39-2.87a103.15,103.15,0,0,0,10.54-10.16c3.81-4.27,7-8.37,9.4-11.26,1.19-1.46,2.18-2.62,2.86-3.41a9.9,9.9,0,0,1,1.12-1.2,8.62,8.62,0,0,1-1,1.32l-2.73,3.52c-2.32,2.95-5.47,7.09-9.3,11.38a88.47,88.47,0,0,1-10.69,10.09c-1.46,1.19-2.67,2.11-3.51,2.75A9.13,9.13,0,0,1,352.34,154.83Z" style="fill:#fff"></path><path d="M371.7,149.81c-.05-.05.89-1.08,2.37-2.78s3.48-4.09,5.64-6.77,4.12-5.11,5.58-6.84c.73-.86,1.33-1.55,1.75-2a3.91,3.91,0,0,1,.71-.69,29.17,29.17,0,0,1-2.17,2.95c-1.39,1.78-3.3,4.25-5.46,6.93s-4.22,5-5.78,6.68c-.78.82-1.42,1.48-1.88,1.91S371.73,149.84,371.7,149.81Z" style="fill:#fff"></path><path d="M338.52,179.79c3.4-14.44,6.88-29.47,18.85-38.24,10.66-7.82,22.58-9.71,35.76-8.72,6.49.48,13.74,3.72,19.29,7.11,7.62,4.64,10.62,13.66,14.1,21.88,7,16.46,5.31,38.39,0,44.33l-68.94,33.59c-11.79-6.63-19.72-9.81-22.47-23.06C333.27,207.66,336.41,188.76,338.52,179.79Z" style="fill:#263238"></path><path d="M358.4,155l43.06-11.19c13.81-1.56,23.11,15.39,24.08,29.25,1.07,15.39,1.78,34.24,0,45.74-3.51,23.14-21.21,26.2-21.21,26.2s-.05.34-.13,7.21l.12,15.46c-5.69,18.75-24.68,16.49-48.42,6.75l-4.75-111.12A8.14,8.14,0,0,1,358.4,155Z" style="fill:#aa7d6d"></path><path d="M420.37,191.18a3,3,0,0,1-2.84,3,2.82,2.82,0,0,1-3.07-2.65,3,3,0,0,1,2.83-3A2.84,2.84,0,0,1,420.37,191.18Z" style="fill:#263238"></path><path d="M421.51,185.26c-.36.39-2.62-1.26-5.81-1.23s-5.51,1.64-5.86,1.25c-.17-.17.2-.87,1.21-1.62a8.23,8.23,0,0,1,4.69-1.48,7.83,7.83,0,0,1,4.63,1.46C421.36,184.39,421.69,185.08,421.51,185.26Z" style="fill:#263238"></path><path d="M390.45,190.53a3,3,0,0,1-2.83,3,2.84,2.84,0,0,1-3.08-2.65,3,3,0,0,1,2.84-3A2.83,2.83,0,0,1,390.45,190.53Z" style="fill:#263238"></path><path d="M390.38,184.61c-.37.39-2.63-1.25-5.82-1.22s-5.51,1.64-5.86,1.25c-.17-.17.19-.87,1.21-1.62a8.08,8.08,0,0,1,4.69-1.48,7.83,7.83,0,0,1,4.63,1.46C390.21,183.74,390.55,184.44,390.38,184.61Z" style="fill:#263238"></path><path d="M401.9,207.25c0-.18,2-.54,5.18-1,.81-.09,1.58-.26,1.71-.81a4.05,4.05,0,0,0-.56-2.41q-1.16-3-2.45-6.19c-3.4-8.8-5.87-16.05-5.52-16.18s3.41,6.89,6.81,15.7c.82,2.17,1.61,4.24,2.35,6.22a4.69,4.69,0,0,1,.45,3.2,2.07,2.07,0,0,1-1.33,1.2,5.81,5.81,0,0,1-1.39.2C403.92,207.4,401.92,207.43,401.9,207.25Z" style="fill:#263238"></path><path d="M404.36,245a58.73,58.73,0,0,1-31-8s7.76,16.12,30.88,13.8Z" style="fill:#7a524b"></path><path d="M391.29,213.3a4.28,4.28,0,0,1,3.52-2,5.52,5.52,0,0,1,5.05,2.46,3.42,3.42,0,0,1,.25,2.48c-.19.42,0,.22-.37.51a9.83,9.83,0,0,1-3.93,2.48,4.17,4.17,0,0,1-4.4-1.59A4.23,4.23,0,0,1,391.29,213.3Z" style="fill:#7a524b"></path><path d="M392,209.64c.52,0,.57,3.43,3.56,5.85s6.67,2,6.71,2.47c0,.22-.82.69-2.37.75a8.63,8.63,0,0,1-5.6-1.87,7.48,7.48,0,0,1-2.76-4.91C391.35,210.49,391.72,209.62,392,209.64Z" style="fill:#263238"></path><path d="M391.75,174.57c-.25.89-3.46.69-7.16,1.38s-6.66,1.9-7.21,1.16c-.25-.36.23-1.21,1.39-2.13a12.71,12.71,0,0,1,11-1.92C391.13,173.52,391.86,174.16,391.75,174.57Z" style="fill:#263238"></path><path d="M421.53,178.26c-.74.6-3-.57-5.93-1.12s-5.45-.48-5.88-1.33c-.19-.4.33-1.05,1.52-1.53a9.58,9.58,0,0,1,9.52,2C421.66,177.16,421.86,178,421.53,178.26Z" style="fill:#263238"></path><path d="M401.91,141.12a51.35,51.35,0,0,1-4.51,27.42A19,19,0,0,1,393,175a8.42,8.42,0,0,1-7.27,2.1,31.21,31.21,0,0,0,6.86-17.74c-2.94,6.48-5.95,13.08-10.76,18.33s-11.79,9-18.85,8.17l.61-4.74c-1.13,3.38-2.92,6.69-5.87,8.68s-7.23,2.29-9.92,0c2.71-11.5-4-24.25.73-35.07,3.29-7.49,11.28-11.8,19.15-14.05a65.21,65.21,0,0,1,34.1-.41" style="fill:#263238"></path><path d="M400.94,141.28c0,.17.06.34.1.5l-.08,0C401,141.64,401,141.46,400.94,141.28Z" style="fill:#263238"></path><path d="M401,141.78l1.41-.54c4.42-2.13,7.35-4.6,14,1.58a41.74,41.74,0,0,1,8.93,13.33c2,4.49,4.12,9.37,4.74,14.23a61.58,61.58,0,0,1,0,17.73c-3.85-2.7-5.73-7.4-6.86-12s-1.74-9.34-3.91-13.5c.55,3.88,1.11,7.86.38,11.71a4.86,4.86,0,0,1-1.35,2.86,2,2,0,0,1-2.87-.07,25.25,25.25,0,0,0,.35-13.9A71.07,71.07,0,0,0,411,150.06a68.92,68.92,0,0,1-1.53,23.47,6,6,0,0,1-1.41,3c-1.22,1.17-3.14,1.15-4.8.85s-3.39-.8-5-.35A66.48,66.48,0,0,0,401,141.78Z" style="fill:#263238"></path><path d="M376.65,272.37c-4-6-8.66-12.08-9.2-19.26C367,247,369.63,241,369.12,235c-.54-6.43-4.51-12.06-6-18.34-3.65-15.24,7.65-31.44,2.91-46.37l-20.11,2.14-10.46,79.05A95,95,0,0,0,348.12,300l1.82-1.75q-2.12-5.45-3.7-11.08A47.89,47.89,0,0,0,362,302.9c6.58-2.93,13.47-5.47,20-10.35C384.14,285.66,380.61,278.38,376.65,272.37Z" style="fill:#263238"></path></g><g id="Desk"><path d="M691.18,476.77c0,.15-139.33.26-311.17.26s-311.19-.11-311.19-.26,139.3-.26,311.19-.26S691.18,476.63,691.18,476.77Z" style="fill:#263238"></path></g><g id="wish-3"><path d="M627.9,193.81H502.29a10.08,10.08,0,0,0-10.08,10.08V292.8l21.23-20.14H627.9A10.08,10.08,0,0,0,638,262.57V203.89A10.08,10.08,0,0,0,627.9,193.81Z" style="fill:#f5f5f5"></path><path d="M627.9,193.81s.35,0,1,0a10.61,10.61,0,0,1,2.94.73,10.41,10.41,0,0,1,3.94,3,10.22,10.22,0,0,1,2.26,6.29c0,10.19,0,25,.08,43.33q0,6.9,0,14.45a12,12,0,0,1-.41,3.83A10.27,10.27,0,0,1,629,272.8c-1.4.12-2.75,0-4.14.06H612.12l-18,0-80.73,0,.18-.07L493.75,291.7,492.39,293l-.44.42v-.61c0-31.86.05-62.2.07-89.77a10.31,10.31,0,0,1,10.49-9.45h4.94l19,0,34.07,0,49.32.08,13.4,0,3.48,0,1.19,0-1.19,0-3.48,0-13.4,0-49.32.08-34.07,0H502.51a9.84,9.84,0,0,0-10,9c0,27.56,0,57.88,0,89.73l-.44-.19,1.36-1.29,19.87-18.85.08-.07h.1l80.73,0h30.71c1.38,0,2.78.05,4.09-.06a9.89,9.89,0,0,0,6.69-3.7,10,10,0,0,0,1.73-3.37,11.65,11.65,0,0,0,.4-3.72q0-7.55,0-14.45c0-18.37.05-33.14.07-43.33a10.07,10.07,0,0,0-2.19-6.2,10.26,10.26,0,0,0-3.85-3A10.91,10.91,0,0,0,627.9,193.81Z" style="fill:#263238"></path><path d="M559.05,241.48a7.28,7.28,0,0,0-2.43-4.37,5.87,5.87,0,0,0-7,.2,7.34,7.34,0,0,0-2.48,6.82c.4,2.5,1.87,6.15,5.95,6.44a5.83,5.83,0,0,0,5.18-3A8.79,8.79,0,0,0,559.05,241.48Z" style="fill:#FF725E"></path><path d="M555.09,251.3l-1-1.5-1.16.58a2.66,2.66,0,0,0-.83,1.18.58.58,0,0,0,0,.57.45.45,0,0,0,.61,0,1.25,1.25,0,0,0,.35-.57,1.26,1.26,0,0,0,.12.64.48.48,0,0,0,.55.27.51.51,0,0,0,.28-.38,1.41,1.41,0,0,0,0-.5,1.5,1.5,0,0,0,.63.55.52.52,0,0,0,.68-.3A.73.73,0,0,0,555.09,251.3Z" style="fill:#FF725E"></path><path d="M548.52,245.42a2.4,2.4,0,0,1-.45-1.19,7,7,0,0,1,1.56-5.79c.53-.59,1-.85,1-.8a13.05,13.05,0,0,0-1.92,3.65A12.88,12.88,0,0,0,548.52,245.42Z" style="fill:#fff"></path><path d="M574.74,241.48a7.18,7.18,0,0,0-2.43-4.37,5.87,5.87,0,0,0-7,.2,7.34,7.34,0,0,0-2.47,6.82c.39,2.5,1.86,6.15,5.94,6.44a5.84,5.84,0,0,0,5.19-3A8.79,8.79,0,0,0,574.74,241.48Z" style="fill:#FF725E"></path><path d="M570.78,251.3l-1-1.5-1.16.58a2.72,2.72,0,0,0-.82,1.18.58.58,0,0,0,0,.57.45.45,0,0,0,.61,0,1.32,1.32,0,0,0,.34-.57,1.52,1.52,0,0,0,.12.64.49.49,0,0,0,.55.27.5.5,0,0,0,.29-.38,1.41,1.41,0,0,0,0-.5,1.39,1.39,0,0,0,.63.55.53.53,0,0,0,.68-.3A.74.74,0,0,0,570.78,251.3Z" style="fill:#FF725E"></path><path d="M564.22,245.42c-.06,0-.3-.41-.46-1.19a7,7,0,0,1,.13-3.07,6.85,6.85,0,0,1,1.44-2.72c.52-.59.95-.85,1-.8a12.92,12.92,0,0,0-1.93,3.65A12.7,12.7,0,0,0,564.22,245.42Z" style="fill:#fff"></path><path d="M515.13,221.93c0-.14,10-.26,22.36-.26s22.35.12,22.35.26-10,.27-22.35.27S515.13,222.08,515.13,221.93Z" style="fill:#263238"></path><path d="M518.91,232.47c0-.14,12.87-.26,28.74-.26s28.74.12,28.74.26-12.87.26-28.74.26S518.91,232.61,518.91,232.47Z" style="fill:#263238"></path><path d="M518.91,242.66c0-.14,4.85-.26,10.83-.26s10.83.12,10.83.26-4.84.26-10.83.26S518.91,242.81,518.91,242.66Z" style="fill:#263238"></path><path d="M676.56,211.36c-1.38-1.13-3.4-.4-5.18-.36-2.9.07-5.54-1.89-7.07-4.35a23.9,23.9,0,0,1-2.72-8.2,28.48,28.48,0,0,0-2.51-8.28,15.36,15.36,0,0,0-11.57-7.47A20.09,20.09,0,0,0,634,186.32l-3.34,1.93c3,4.8,4,10.57,4.33,16.2s.21,11.33,1.2,16.89a20.34,20.34,0,0,0,3.2,8.39,10.12,10.12,0,0,0,7.55,4.42c3,.11,6.15-1.84,6.87-4.77a17.83,17.83,0,0,0,7,2.47,7.84,7.84,0,0,0,6.76-2.55c1.57-2,1.61-5.16-.29-6.8A11,11,0,0,0,677,216C677.68,214.47,677.86,212.42,676.56,211.36Z" style="fill:#263238"></path><path d="M609.14,170.21c6.39-.66,11.79,2.14,16.89,6a31.75,31.75,0,0,1,10.69,15.68,31.38,31.38,0,0,1-.15,19.95,25.09,25.09,0,0,1-13.34,14.54c-8.5,3.64-18.92,1.5-25.91-4.55s-10.6-15.51-10.35-24.75a30.6,30.6,0,0,1,6-17.8,23.27,23.27,0,0,1,16.16-9.12" style="fill:#263238"></path><path d="M625.71,192.88c-.76-2.48-.23-5.15-.43-7.74-.43-5.7-4.68-10.52-9.8-13.06-4.76-2.37-10.76-2.32-16.78-.8a22.51,22.51,0,0,0-11,6.18,17.77,17.77,0,0,0-4.3,15.71l29.15-2.32c2.56,2.41,5.18,4.87,8.38,6.33a6,6,0,0,0,3,.68,2.7,2.7,0,0,0,2.37-1.71C626.62,195.08,626.05,194,625.71,192.88Z" style="fill:#263238"></path><path d="M622.42,186.21l-24.86-7c-8-1.07-13.59,8.66-14.31,16.69-.8,8.93-1.42,19.85-.54,26.55,1.77,13.46,12,15.44,12,15.44s0,3.36,0,7.52a15.18,15.18,0,0,0,15.17,15.21h0A15.17,15.17,0,0,0,625,245.88l1.49-54.78A4.71,4.71,0,0,0,622.42,186.21Z" style="fill:#aa7d6d"></path><path d="M586.19,205.43a1.71,1.71,0,0,0,1.61,1.78,1.64,1.64,0,0,0,1.81-1.5,1.71,1.71,0,0,0-1.61-1.78A1.63,1.63,0,0,0,586.19,205.43Z" style="fill:#263238"></path><path d="M585.47,200.71c.21.23,1.54-.7,3.39-.64s3.18,1,3.39.79-.11-.51-.69-1a4.63,4.63,0,0,0-2.7-.91,4.47,4.47,0,0,0-2.7.79C585.58,200.21,585.37,200.61,585.47,200.71Z" style="fill:#263238"></path><path d="M603.73,206a1.71,1.71,0,0,0,1.61,1.78,1.63,1.63,0,0,0,1.81-1.5,1.71,1.71,0,0,0-1.61-1.78A1.64,1.64,0,0,0,603.73,206Z" style="fill:#263238"></path><path d="M603.65,200.88c.21.23,1.54-.7,3.39-.64s3.18,1,3.39.79-.1-.51-.69-.95a4.7,4.7,0,0,0-2.7-.92,4.56,4.56,0,0,0-2.7.8C603.76,200.38,603.55,200.78,603.65,200.88Z" style="fill:#263238"></path><path d="M596.57,216a11.44,11.44,0,0,0-3-.62c-.47-.06-.91-.17-1-.49a2.32,2.32,0,0,1,.35-1.4l1.49-3.56c2.08-5.07,3.6-9.25,3.39-9.33s-2.05,4-4.13,9l-1.44,3.58a2.77,2.77,0,0,0-.29,1.85,1.18,1.18,0,0,0,.76.71,3.16,3.16,0,0,0,.8.13A12.53,12.53,0,0,0,596.57,216Z" style="fill:#263238"></path><path d="M594.71,237.9a34.17,34.17,0,0,0,18.09-4.31s-4.76,9.16-18.15,7.55Z" style="fill:#7a524b"></path><path d="M597.24,220.52a3.36,3.36,0,0,1,3-1.16,3.07,3.07,0,0,1,2.07,1.18,1.93,1.93,0,0,1,.09,2.21,2.23,2.23,0,0,1-2.44.55,6.91,6.91,0,0,1-2.33-1.47,2.25,2.25,0,0,1-.51-.56.62.62,0,0,1,0-.69" style="fill:#7a524b"></path><path d="M602,217.46c-.3,0-.36,2-2.12,3.37s-3.89,1.1-3.91,1.38c0,.12.47.4,1.37.45a5,5,0,0,0,3.26-1,4.38,4.38,0,0,0,1.65-2.82C602.33,218,602.12,217.46,602,217.46Z" style="fill:#263238"></path><path d="M602.83,194.49c.17.51,2,.32,4.19.64s3.91,1,4.21.52c.13-.22-.16-.7-.86-1.2a7.33,7.33,0,0,0-6.39-.88C603.17,193.87,602.76,194.25,602.83,194.49Z" style="fill:#263238"></path><path d="M586.23,193.59c.31.43,1.6,0,3.13,0s2.82.36,3.13-.07c.14-.21,0-.64-.61-1.05a4.53,4.53,0,0,0-5,0C586.28,193,586.09,193.38,586.23,193.59Z" style="fill:#263238"></path><path d="M630.59,189.29c-2.11-7.85-12.84-19-21-18.86l-13.29,7.17a12.5,12.5,0,0,0,8,9.94c2.26.8,5,1.11,6.27,3.14s.36,5,1.55,7.09c1.67,2.95,6.57,3,7.77,6.2.53,1.39.14,3,.69,4.37.74,1.83,5.17,4.31,7.08,3.8s2-3.71,2.74-5.36a8.8,8.8,0,0,0,.54-5.93C630.37,197,631.6,193,630.59,189.29Z" style="fill:#263238"></path><path d="M622.12,213.47c0-1,1.24-3.32,2.23-3.45,2.65-.34,7.39,0,7.25,6.68-.18,9.15-9.32,7.08-9.33,6.82S622,216.92,622.12,213.47Z" style="fill:#aa7d6d"></path><path d="M625.13,220.11s.16.11.42.24a1.56,1.56,0,0,0,1.19.05c1-.34,1.82-1.85,1.9-3.5a5.29,5.29,0,0,0-.4-2.29,1.85,1.85,0,0,0-1.18-1.25.8.8,0,0,0-.94.42c-.13.25-.08.44-.13.45s-.19-.15-.11-.53a1.06,1.06,0,0,1,.37-.57,1.21,1.21,0,0,1,.89-.21,2.21,2.21,0,0,1,1.63,1.45,5.44,5.44,0,0,1,.51,2.56c-.1,1.84-1.08,3.55-2.41,3.9a1.69,1.69,0,0,1-1.45-.27C625.14,220.33,625.1,220.12,625.13,220.11Z" style="fill:#7a524b"></path><path d="M638.08,202a8.52,8.52,0,0,0,.52-2.71,20.31,20.31,0,0,0-.62-6.65,19.89,19.89,0,0,0-2.77-6.08,7.91,7.91,0,0,0-1.79-2.1c-.18.11,2.68,3.33,4,8.33S637.87,202,638.08,202Z" style="fill:#FF725E"></path></g><g id="wish-2"><path d="M673,91.48v42.76a9.67,9.67,0,0,1-9.66,9.67H487.65l-25.25,24V91.48a9.66,9.66,0,0,1,9.66-9.66H663.35A9.67,9.67,0,0,1,673,91.48Z" style="fill:#f5f5f5"></path><path d="M673,91.48s0-.5-.15-1.45a9.58,9.58,0,0,0-7.12-7.82,16.81,16.81,0,0,0-4.4-.3h-5.08l-60.7.08-90,.06H472.83a9.78,9.78,0,0,0-6.23,1.75,9.37,9.37,0,0,0-3.66,5.37,12.42,12.42,0,0,0-.29,3.35V96c0,18.44,0,37.52,0,57.07v14.8l-.44-.18,25.25-24,.07-.07h.11l166.65.09h7.64a14.78,14.78,0,0,0,3.61-.26,9.5,9.5,0,0,0,7-6.79,11.1,11.1,0,0,0,.33-3.19c0-1.06,0-2.11,0-3.14,0-8.24,0-15.31,0-21.07s0-10.21,0-13.23q0-2.25,0-3.42c0-.77,0-1.17,0-1.17s0,.4,0,1.17,0,1.92,0,3.42c0,3,0,7.48,0,13.23s0,12.83,0,21.07c0,1,0,2.08,0,3.14a11.35,11.35,0,0,1-.34,3.26,9.78,9.78,0,0,1-7.18,7,15.2,15.2,0,0,1-3.69.28H654.3l-166.65.09.17-.08-25.24,24-.44.42V92.54a13.16,13.16,0,0,1,.31-3.47,9.87,9.87,0,0,1,3.86-5.66,10.26,10.26,0,0,1,6.52-1.84h32.71l90,.06,60.7.08h5.08a16.77,16.77,0,0,1,4.44.33,9.77,9.77,0,0,1,5.61,4,9.87,9.87,0,0,1,1.53,4,9.69,9.69,0,0,1,.09,1.09Z" style="fill:#263238"></path><path d="M491.43,98.48c0-.14,10.71-.26,23.91-.26s23.91.12,23.91.26-10.71.26-23.91.26S491.43,98.63,491.43,98.48Z" style="fill:#263238"></path><path d="M491.36,108.5c0-.14,23.35-.26,52.15-.26s52.16.12,52.16.26-23.35.26-52.16.26S491.36,108.65,491.36,108.5Z" style="fill:#263238"></path><path d="M533.82,121.49a3.5,3.5,0,0,1,.93-1.88,3.35,3.35,0,0,1,1.78-1,2.78,2.78,0,0,1,2.11.46,2.59,2.59,0,0,1,.84,1,2.69,2.69,0,0,1,.83-.85,2.76,2.76,0,0,1,2.13-.38,3.41,3.41,0,0,1,1.73,1.12,3.52,3.52,0,0,1,.86,1.91,4.24,4.24,0,0,1-.59,2.61,5.94,5.94,0,0,1-2.11,1.9c-1.37.79-3.18,1.78-3.18,1.78s-1.48-1.16-2.82-2a6.07,6.07,0,0,1-2-2A4.26,4.26,0,0,1,533.82,121.49Z" style="fill:#FF725E"></path><path d="M519,121.49a3.51,3.51,0,0,1,.94-1.88,3.32,3.32,0,0,1,1.77-1,2.77,2.77,0,0,1,2.11.46,2.71,2.71,0,0,1,.85,1,2.72,2.72,0,0,1,3-1.23,3.33,3.33,0,0,1,1.73,1.12,3.52,3.52,0,0,1,.86,1.91,4.31,4.31,0,0,1-.58,2.61,6,6,0,0,1-2.11,1.9c-1.38.79-3.18,1.78-3.18,1.78s-1.49-1.16-2.83-2a6.13,6.13,0,0,1-2-2A4.2,4.2,0,0,1,519,121.49Z" style="fill:#FF725E"></path><path d="M504.11,121.49a3.51,3.51,0,0,1,.94-1.88,3.32,3.32,0,0,1,1.77-1,2.77,2.77,0,0,1,2.11.46,2.71,2.71,0,0,1,.85,1,2.72,2.72,0,0,1,3-1.23,3.33,3.33,0,0,1,1.73,1.12,3.52,3.52,0,0,1,.86,1.91,4.31,4.31,0,0,1-.58,2.61,6,6,0,0,1-2.12,1.9c-1.37.79-3.17,1.78-3.17,1.78s-1.49-1.16-2.83-2a6.13,6.13,0,0,1-2-2A4.2,4.2,0,0,1,504.11,121.49Z" style="fill:#FF725E"></path><path d="M489.24,121.49a3.58,3.58,0,0,1,.94-1.88,3.36,3.36,0,0,1,1.77-1,2.71,2.71,0,0,1,3,1.45,2.69,2.69,0,0,1,.83-.85,2.74,2.74,0,0,1,2.12-.38,3.33,3.33,0,0,1,1.73,1.12,3.38,3.38,0,0,1,.86,1.91,4.17,4.17,0,0,1-.58,2.61,6,6,0,0,1-2.11,1.9c-1.37.79-3.18,1.78-3.18,1.78s-1.48-1.16-2.82-2a6.07,6.07,0,0,1-2-2A4.34,4.34,0,0,1,489.24,121.49Z" style="fill:#FF725E"></path><path d="M644.27,70.52c.12-13.19-7.46-24.24-20.64-24l-1.22.09a23.56,23.56,0,0,0-21.75,23.43c0,11.43.07,24,.61,30.13,1.14,12.6,13.9,13.59,13.9,13.59l.07,4.06a15.63,15.63,0,0,0,17.35,15.3h0a15.63,15.63,0,0,0,13.9-16.29Z" style="fill:#ffbe9d"></path><path d="M615.16,113.76a29.45,29.45,0,0,0,16.08-5.94s-3.18,9.37-15.86,9.21Z" style="fill:#eb996e"></path><path d="M605.35,79.17a1.82,1.82,0,0,0,1.88,1.68A1.73,1.73,0,0,0,609,79.08a1.8,1.8,0,0,0-1.87-1.68A1.73,1.73,0,0,0,605.35,79.17Z" style="fill:#263238"></path><path d="M603.61,75.36c.24.22,1.52-.9,3.46-1s3.44.71,3.63.46-.17-.52-.82-.92A4.91,4.91,0,0,0,607,73.2a4.73,4.73,0,0,0-2.73,1.12C603.66,74.82,603.49,75.26,603.61,75.36Z" style="fill:#263238"></path><path d="M623.55,78.19a1.81,1.81,0,0,0,1.88,1.68,1.73,1.73,0,0,0,1.73-1.77,1.81,1.81,0,0,0-1.88-1.68A1.73,1.73,0,0,0,623.55,78.19Z" style="fill:#263238"></path><path d="M622.88,73.32c.21.24,1.62-.73,3.56-.66s3.33,1.08,3.55.85-.1-.53-.71-1a5,5,0,0,0-2.84-1,4.75,4.75,0,0,0-2.84.82C623,72.79,622.77,73.21,622.88,73.32Z" style="fill:#263238"></path><path d="M617,89.81a13.06,13.06,0,0,0-3.19-.32c-.5,0-1-.07-1.08-.41a2.51,2.51,0,0,1,.21-1.49c.38-1.23.77-2.53,1.18-3.88,1.61-5.52,2.74-10,2.52-10.11s-1.71,4.36-3.33,9.88q-.59,2-1.11,3.9a2.89,2.89,0,0,0-.11,2A1.31,1.31,0,0,0,613,90a3.73,3.73,0,0,0,.85,0A12,12,0,0,0,617,89.81Z" style="fill:#263238"></path><path d="M622.81,90.71c-.31,0-.15,2.11-1.84,3.75S617,96,617,96.33c0,.13.54.37,1.48.32a5.26,5.26,0,0,0,3.3-1.44,4.59,4.59,0,0,0,1.41-3.13C623.23,91.19,623,90.69,622.81,90.71Z" style="fill:#263238"></path><path d="M622.62,66.92c.19.53,2.13.29,4.41.58s4.12.93,4.43.45c.13-.22-.19-.72-.93-1.24a7.74,7.74,0,0,0-6.73-.79C623,66.26,622.54,66.67,622.62,66.92Z" style="fill:#e0e0e0"></path><path d="M604.12,70.34c.38.42,1.68-.14,3.28-.29s3,.07,3.27-.42c.12-.23-.13-.66-.76-1a4.77,4.77,0,0,0-5.27.58C604.11,69.67,604,70.14,604.12,70.34Z" style="fill:#e0e0e0"></path><path d="M636.79,75c.15.06-.47,1.38-2,2s-2.94.22-2.87.07a20.63,20.63,0,0,0,2.63-.63C635.88,75.93,636.64,74.92,636.79,75Z" style="fill:#eb996e"></path><path d="M637.13,79.29c-.06.17-1-.06-2.2-.25s-2.16-.27-2.17-.45,1-.36,2.27-.15S637.2,79.14,637.13,79.29Z" style="fill:#eb996e"></path><path d="M603.37,80.23c0,.17-.42.25-.89.18s-.82-.27-.8-.43.43-.25.89-.18S603.4,80.06,603.37,80.23Z" style="fill:#eb996e"></path><path d="M603.44,81.5c0,.16-.14.35-.42.43s-.54,0-.58-.16.14-.36.42-.43S603.4,81.33,603.44,81.5Z" style="fill:#eb996e"></path><path d="M625.92,91.75c-.07.06-.3-.11-.63-.39a5.81,5.81,0,0,0-1.3-.93,2.18,2.18,0,0,0-1.46-.13c-.37.1-.57.28-.64.22s0-.36.47-.62a2.11,2.11,0,0,1,1.88,0,3.39,3.39,0,0,1,1.37,1.2C625.87,91.44,626,91.7,625.92,91.75Z" style="fill:#eb996e"></path><path d="M639,108.34s.11-.13.21-.34a1.25,1.25,0,0,0,0-1c-.12-.41-.48-.82-.75-1.46a1.86,1.86,0,0,1-.11-1.14,4.64,4.64,0,0,1,.53-1,.49.49,0,0,0,0-.63,7.2,7.2,0,0,0-.72-.58,1.51,1.51,0,0,1-.55-.88,2,2,0,0,1,0-.88,2.8,2.8,0,0,1,.61-1c.18-.2.3-.29.34-.27s-.32.56-.53,1.39a1.15,1.15,0,0,0,.43,1.21,4.64,4.64,0,0,1,.82.62,1.1,1.1,0,0,1,.12,1.32,5.15,5.15,0,0,0-.49.85,1.32,1.32,0,0,0,.06.78,13.38,13.38,0,0,1,.64,1.55,1.38,1.38,0,0,1-.25,1.2C639.18,108.36,639,108.37,639,108.34Z" style="fill:#eb996e"></path><path d="M642.08,106.9s.13-.05.15-.21-.14-.25-.36-.72a2.25,2.25,0,0,1,.22-1.45,1,1,0,0,0-.31-1.19,5.93,5.93,0,0,1-1.18-1.26,1.42,1.42,0,0,1,.12-1.54,1.33,1.33,0,0,1,.86-.54c.24,0,.36,0,.36.07s-.52.11-.85.71a1,1,0,0,0,0,1,7.2,7.2,0,0,0,1.11,1.11,1.83,1.83,0,0,1,.52.86,1.56,1.56,0,0,1-.1.95c-.21.5-.42.86-.35,1.13a3.72,3.72,0,0,0,.19.45.52.52,0,0,1,0,.5C642.28,107.06,642,106.94,642.08,106.9Z" style="fill:#eb996e"></path><path d="M644,79.94c.21-.11,8.47-3.24,8.86,5.41s-8.36,7.25-8.39,7S644,79.94,644,79.94Z" style="fill:#ffbe9d"></path><path d="M646.92,89s.16.1.42.2a1.5,1.5,0,0,0,1.12,0c.9-.37,1.61-1.86,1.58-3.42a5.14,5.14,0,0,0-.52-2.13,1.74,1.74,0,0,0-1.19-1.11.79.79,0,0,0-.87.45c-.1.25,0,.42-.08.44s-.2-.14-.14-.5a.92.92,0,0,1,.31-.55,1.13,1.13,0,0,1,.82-.26A2.11,2.11,0,0,1,650,83.32a5.07,5.07,0,0,1,.63,2.38c0,1.75-.79,3.42-2,3.83a1.59,1.59,0,0,1-1.38-.16C647,89.17,646.89,89,646.92,89Z" style="fill:#eb996e"></path><path d="M598.12,55.44a4.38,4.38,0,0,1,3-3.77,3.94,3.94,0,0,1,5.79-5.05,4,4,0,0,1,5.21-4,3.41,3.41,0,0,1,6.22-2.35,5.89,5.89,0,0,1,9.08-1.45,7.51,7.51,0,0,1,9.4,3.31,7.13,7.13,0,0,1,6.64,4.41A5.21,5.21,0,0,1,648,54.35a3.86,3.86,0,0,1,1.26,6,3.79,3.79,0,0,1,.43,6.85c1.29.06,1.92,1.69,1.64,3s-1.12,2.3-1.54,3.52c-.33,1-.37,2.08-.65,3.1a6.88,6.88,0,0,1-3.75,4.38l.25.24c.31,1.08-1.17,2-2.24,1.61a5.66,5.66,0,0,1-2.43-2.3,12.33,12.33,0,0,1-2.07-3.26A3,3,0,0,1,639.8,74a4.51,4.51,0,0,1-3-3.34,13.19,13.19,0,0,1-.09-4.69l.69-6.93a8.66,8.66,0,0,1-7.82-4.31,5,5,0,0,1-7.3-1.2,6.45,6.45,0,0,1-7.51,4.58c.48,1.76-2.59,3.67-4.31,4.27s-4-.46-4-.46-2.87,2-4.58,1.49-4-2.43-3.09-4.22A8.07,8.07,0,0,1,598.12,55.44Z" style="fill:#e0e0e0"></path><path d="M649.68,60.31c-.09,0-.09.6-.77,1.18a1.66,1.66,0,0,1-1.39.36,1.72,1.72,0,0,1-1.3-1.18l-.14-.51-.38.39a2.35,2.35,0,0,1-2.34.56,2.31,2.31,0,0,1-1.51-2.19l0-.51-.46.23a2.27,2.27,0,0,1-1.74.12,2.31,2.31,0,0,1-1.14-.84,5.92,5.92,0,0,1-.53-1.23s-.22.56.23,1.42a2.47,2.47,0,0,0,1.26,1.12,2.74,2.74,0,0,0,2.19,0l-.43-.28a2.86,2.86,0,0,0,1.91,2.82,2.91,2.91,0,0,0,3-.75l-.52-.13a2.24,2.24,0,0,0,1.8,1.52,2.05,2.05,0,0,0,1.74-.59C649.89,61,649.72,60.28,649.68,60.31Z" style="fill:#fafafa"></path><path d="M651.62,68.47a4.38,4.38,0,0,1-.89.43,2.07,2.07,0,0,1-2.24-.75l-.19-.28-.22.27a2.3,2.3,0,0,1-2.15.78A2.24,2.24,0,0,1,644.16,67l-.07-.57-.46.35a1.25,1.25,0,0,1-.38.21,1.58,1.58,0,0,1-1.78-.44,1.66,1.66,0,0,1-.21-1.71l.28-.56-.6.14a2.7,2.7,0,0,1-3.1-1.57,6.26,6.26,0,0,1-.32-1.49,2,2,0,0,0,0,1.61,2.94,2.94,0,0,0,1.14,1.52,3.17,3.17,0,0,0,2.41.5l-.32-.42A2.24,2.24,0,0,0,641,67a2.21,2.21,0,0,0,2.52.66,1.86,1.86,0,0,0,.55-.31l-.53-.21a2.78,2.78,0,0,0,5,1.33l-.41,0a2.22,2.22,0,0,0,1.48.89,2.4,2.4,0,0,0,1.27-.15C651.49,68.89,651.66,68.48,651.62,68.47Z" style="fill:#fafafa"></path><path d="M613.26,42.26a3.12,3.12,0,0,1,.93-.64,1.85,1.85,0,0,1,2.41,1.14l.15.48.23-.46a3.18,3.18,0,0,1,2.54-1.7,3.06,3.06,0,0,1,3,2l.21.55.33-.5a3.81,3.81,0,0,1,2.87-1.66,3.66,3.66,0,0,1,3.19,1.47,3.75,3.75,0,0,1,.65,1.35l.09.35.33-.11a3.69,3.69,0,0,1,4.26,1.6,3.78,3.78,0,0,1-.29,4.08l-.3.38.48,0A4.07,4.07,0,0,1,637.06,52a4,4,0,0,1,.9,2.23,6,6,0,0,1-.29,2.13s.15-.15.3-.51a4,4,0,0,0,.29-1.63,4.18,4.18,0,0,0-.87-2.48,4.48,4.48,0,0,0-3-1.71l.18.43A4.19,4.19,0,0,0,630,43.86l.42.23a4.37,4.37,0,0,0-4.53-3.31,4.42,4.42,0,0,0-3.32,2l.54.05a3.62,3.62,0,0,0-3.63-2.25,3.57,3.57,0,0,0-2.86,2l.38,0a2.23,2.23,0,0,0-1.44-1.34,2,2,0,0,0-1.45.13,1.86,1.86,0,0,0-.7.56C613.28,42.15,613.25,42.25,613.26,42.26Z" style="fill:#fafafa"></path></g><g id="wish-1"><path d="M72.51,194.44v60.77a9,9,0,0,0,9,9h164.3l23.61,22.4V194.44a9,9,0,0,0-9-9H81.54A9,9,0,0,0,72.51,194.44Z" style="fill:#f5f5f5"></path><path d="M72.51,194.44a3.39,3.39,0,0,1,0-.37,6.74,6.74,0,0,1,.1-1.1,8.78,8.78,0,0,1,1.66-4,9,9,0,0,1,5.92-3.56,40.68,40.68,0,0,1,4.5-.13H89.8l61.22-.08,90.79-.06h13c2.19,0,4.36-.06,6.62.05a9.31,9.31,0,0,1,8.3,9.41c0,2.26,0,4.53,0,6.81v85.83l-.44-.42-23.6-22.4.17.07-94.7,0-40.7,0-18.33,0H83.49a16.79,16.79,0,0,1-4.18-.29,9.19,9.19,0,0,1-7-8.84v-7.42q0-7.22,0-13.56l0-21.6c0-5.9,0-10.47,0-13.57l0-3.52c0-.79,0-1.19,0-1.19s0,.4,0,1.19l0,3.52c0,3.1,0,7.67,0,13.57s0,13.16,0,21.6q0,6.35,0,13.56c0,2.4,0,4.87,0,7.41a8.91,8.91,0,0,0,3.2,6.73,8.8,8.8,0,0,0,3.53,1.78,15.8,15.8,0,0,0,4.09.27h27l40.7,0,94.7,0H246l.07.07,23.61,22.4-.44.19V272.81c0-19.72,0-39,0-57.56V194.62a8.81,8.81,0,0,0-7.85-8.92c-2.16-.1-4.4,0-6.57,0h-13l-90.79,0-61.22-.08-5.11,0a43.06,43.06,0,0,0-4.48.1A9,9,0,0,0,72.66,193,13.18,13.18,0,0,0,72.51,194.44Z" style="fill:#263238"></path><path d="M190.17,207.59c0,.14-10,.26-22.36.26s-22.36-.12-22.36-.26,10-.26,22.36-.26S190.17,207.44,190.17,207.59Z" style="fill:#263238"></path><path d="M242.87,218.33c0,.15-21.83.26-48.77.26s-48.77-.11-48.77-.26,21.83-.26,48.77-.26S242.87,218.19,242.87,218.33Z" style="fill:#263238"></path><path d="M242.37,226.32c0,.14-21.83.26-48.77.26s-48.77-.12-48.77-.26,21.83-.26,48.77-.26S242.37,226.18,242.37,226.32Z" style="fill:#263238"></path><path d="M156.54,237.06a3.25,3.25,0,0,0-.88-1.76,3.11,3.11,0,0,0-1.65-1,2.55,2.55,0,0,0-2,.43,2.64,2.64,0,0,0-.79.93,2.45,2.45,0,0,0-.77-.8,2.59,2.59,0,0,0-2-.35,3.14,3.14,0,0,0-1.62,1,3.25,3.25,0,0,0-.8,1.79,4,4,0,0,0,.54,2.44,5.66,5.66,0,0,0,2,1.78c1.28.74,3,1.66,3,1.66s1.39-1.08,2.64-1.87a5.55,5.55,0,0,0,1.9-1.86A4,4,0,0,0,156.54,237.06Z" style="fill:#FF725E"></path><path d="M170.44,237.06a3.3,3.3,0,0,0-.87-1.76,3.17,3.17,0,0,0-1.66-1,2.55,2.55,0,0,0-2,.43,2.64,2.64,0,0,0-.79.93,2.45,2.45,0,0,0-.77-.8,2.59,2.59,0,0,0-2-.35,3.14,3.14,0,0,0-1.62,1,3.25,3.25,0,0,0-.8,1.79,4,4,0,0,0,.54,2.44,5.74,5.74,0,0,0,2,1.78c1.28.74,3,1.66,3,1.66s1.39-1.08,2.64-1.87a5.67,5.67,0,0,0,1.91-1.86A4,4,0,0,0,170.44,237.06Z" style="fill:#FF725E"></path><path d="M184.32,237.06a3.25,3.25,0,0,0-.88-1.76,3.14,3.14,0,0,0-1.65-1,2.54,2.54,0,0,0-2.77,1.36,2.56,2.56,0,0,0-.77-.8,2.59,2.59,0,0,0-2-.35,3.07,3.07,0,0,0-1.62,1,3.25,3.25,0,0,0-.8,1.79,4,4,0,0,0,.54,2.44,5.66,5.66,0,0,0,2,1.78c1.28.74,3,1.66,3,1.66s1.39-1.08,2.64-1.87a5.73,5.73,0,0,0,1.9-1.86A4,4,0,0,0,184.32,237.06Z" style="fill:#FF725E"></path><path d="M198.22,237.06a3.25,3.25,0,0,0-.88-1.76,3.11,3.11,0,0,0-1.65-1,2.54,2.54,0,0,0-2,.43,2.64,2.64,0,0,0-.79.93,2.45,2.45,0,0,0-.77-.8,2.59,2.59,0,0,0-2-.35,3.1,3.1,0,0,0-1.62,1,3.25,3.25,0,0,0-.8,1.79,4,4,0,0,0,.54,2.44,5.66,5.66,0,0,0,2,1.78c1.28.74,3,1.66,3,1.66s1.39-1.08,2.64-1.87a5.64,5.64,0,0,0,1.9-1.86A4,4,0,0,0,198.22,237.06Z" style="fill:#FF725E"></path><path d="M88.51,193.7a46.86,46.86,0,0,1-6.18-8.47,15.73,15.73,0,0,1-1.86-10.13c.39-2,1.3-3.91,1.5-5.95.27-2.8-.83-5.78.25-8.38,1.68-4.07,7.24-4.54,10.68-7.29,2.68-2.14,4.06-5.7,7-7.47,2.57-1.56,5.8-1.43,8.75-.92s5.91,1.34,8.89,1a58.08,58.08,0,0,0,6.23-1.47c2.09-.45,4.41-.52,6.22.61s2.78,3.77,1.51,5.5c3.49-1.49,7.78,1.32,8.61,5s-1.16,7.6-4.15,9.94-6.79,3.35-10.53,3.94c-10.6,1.67-22,.22-30.91-5.75" style="fill:#FF725E"></path><path d="M87.64,180.14l5.23,53.21A15.9,15.9,0,0,0,111,247.52h0a15.9,15.9,0,0,0,13.49-17.31c-.4-4-.72-7.34-.74-7.75,0,0,13.42-2.61,13.08-16.11-.16-6.52-1.59-19.93-3-32a25.16,25.16,0,0,0-25.92-22.17l-1.3.05C92.6,153.53,85.91,166.18,87.64,180.14Z" style="fill:#ffbe9d"></path><path d="M123.8,222.26A31.44,31.44,0,0,1,106,217.92s4.52,9.55,17.94,7.84Z" style="fill:#eb996e"></path><path d="M130.84,185.27a1.93,1.93,0,0,1-1.79,2,1.83,1.83,0,0,1-2.05-1.66,1.93,1.93,0,0,1,1.78-2A1.86,1.86,0,0,1,130.84,185.27Z" style="fill:#263238"></path><path d="M131.18,181c-.23.26-1.73-.77-3.8-.68s-3.55,1.17-3.79.93.11-.57.76-1.08a5.37,5.37,0,0,1,3-1.06,5.11,5.11,0,0,1,3,.86C131.06,180.47,131.3,180.91,131.18,181Z" style="fill:#263238"></path><path d="M110.91,186.31a1.93,1.93,0,0,1-1.79,2,1.84,1.84,0,0,1-2.05-1.66,1.93,1.93,0,0,1,1.79-2A1.84,1.84,0,0,1,110.91,186.31Z" style="fill:#263238"></path><path d="M110.81,182.18c-.23.26-1.73-.77-3.8-.68s-3.56,1.17-3.79.93.11-.57.76-1.08a5.37,5.37,0,0,1,3-1.06,5.14,5.14,0,0,1,3,.86C110.69,181.62,110.93,182.06,110.81,182.18Z" style="fill:#263238"></path><path d="M118.92,197.28a13.45,13.45,0,0,1,3.34-.74c.53-.07,1-.19,1.1-.56a2.71,2.71,0,0,0-.41-1.56l-1.72-4c-2.39-5.66-4.14-10.32-3.91-10.42s2.35,4.42,4.74,10.08l1.65,4a3,3,0,0,1,.36,2.07,1.36,1.36,0,0,1-.85.81,4.1,4.1,0,0,1-.89.16A13.94,13.94,0,0,1,118.92,197.28Z" style="fill:#263238"></path><path d="M112.87,198.94c.33,0,.42,2.22,2.41,3.74s4.37,1.19,4.4,1.51c0,.14-.52.45-1.53.52a5.59,5.59,0,0,1-3.67-1.13,4.87,4.87,0,0,1-1.88-3.14C112.48,199.5,112.71,198.93,112.87,198.94Z" style="fill:#263238"></path><path d="M111.05,174c-.19.57-2.27.38-4.69.77s-4.37,1.12-4.71.63c-.15-.24.17-.78.94-1.36a8,8,0,0,1,3.46-1.36,7.91,7.91,0,0,1,3.7.3C110.66,173.34,111.12,173.76,111.05,174Z" style="fill:#FF725E"></path><path d="M130.2,175.06c-.35.48-1.8.05-3.52.09s-3.16.43-3.51-.05c-.16-.23.06-.71.67-1.18a5.1,5.1,0,0,1,5.67,0C130.13,174.34,130.35,174.82,130.2,175.06Z" style="fill:#FF725E"></path><path d="M89.12,190.1c-.23-.1-9.37-2.4-8.73,6.81s9.75,6.68,9.75,6.41S89.12,190.1,89.12,190.1Z" style="fill:#ffbe9d"></path><path d="M87.09,200s-.16.12-.42.26a1.6,1.6,0,0,1-1.2.11c-1-.29-1.92-1.78-2.08-3.44a5.1,5.1,0,0,1,.29-2.33,1.83,1.83,0,0,1,1.12-1.31.82.82,0,0,1,1,.37c.14.25.09.44.14.45s.19-.17.09-.54a1,1,0,0,0-.41-.55,1.18,1.18,0,0,0-.9-.18,2.27,2.27,0,0,0-1.58,1.55,5.43,5.43,0,0,0-.37,2.61c.18,1.85,1.25,3.52,2.61,3.81a1.72,1.72,0,0,0,1.45-.34C87.08,200.25,87.12,200,87.09,200Z" style="fill:#eb996e"></path><path d="M133.53,161.73c-.74,3.63-8.26,6.77-14.4,6.41-5.67-.33-8.39-3.23-12.45-5.35-2.57-1.34-2.57-1.34-6.12-.87-2.88.38-4.46,3.71-6.14,6.08,2.87,6.76,1.4,14.48-.11,21.66a3.7,3.7,0,0,1-1,2.17c-1.06.88-2.72.29-3.71-.67a11.45,11.45,0,0,1-2.73-5.92,38,38,0,0,1-.47-15A25.91,25.91,0,0,1,93,157,24.5,24.5,0,0,1,110,149.83a30.1,30.1,0,0,1,17.67,5.58,17.62,17.62,0,0,1,5.91,6.32" style="fill:#FF725E"></path><path d="M120.62,187.46c.08,0-.13-.78-.09-2.16a8.78,8.78,0,0,1,2-5.3,8.56,8.56,0,0,1,7.57-3,8.37,8.37,0,0,1,4.5,2,8.47,8.47,0,0,1,2.76,4.48,8.56,8.56,0,0,1-.43,5.24,8.41,8.41,0,0,1-3.13,3.8,8.57,8.57,0,0,1-8.11.74,8.77,8.77,0,0,1-4.23-3.8c-.66-1.21-.82-2-.89-2s0,.19.09.56a6.58,6.58,0,0,0,.55,1.53,8.76,8.76,0,0,0,4.27,4.15A9.05,9.05,0,0,0,137.64,189a9.08,9.08,0,0,0-2.52-10.55,9.09,9.09,0,0,0-13,1.26,8.81,8.81,0,0,0-1.93,5.63,7.11,7.11,0,0,0,.2,1.62Q120.58,187.46,120.62,187.46Z" style="fill:#263238"></path><path d="M98.72,188.81c.08,0-.13-.78-.09-2.16a8.85,8.85,0,0,1,2.05-5.3,8.57,8.57,0,0,1,7.57-3,8.36,8.36,0,0,1,4.51,2,8.45,8.45,0,0,1,2.32,9.72,8.37,8.37,0,0,1-3.12,3.79,8.62,8.62,0,0,1-8.12.75,8.8,8.8,0,0,1-4.22-3.81c-.67-1.21-.82-2-.9-2a1.93,1.93,0,0,0,.09.56,6.42,6.42,0,0,0,.55,1.53,8.8,8.8,0,0,0,4.27,4.15,9.08,9.08,0,0,0,12.12-4.73,9.09,9.09,0,0,0-2.53-10.55A9.06,9.06,0,0,0,100.28,181a8.75,8.75,0,0,0-1.93,5.63,6.58,6.58,0,0,0,.2,1.62A1.83,1.83,0,0,0,98.72,188.81Z" style="fill:#263238"></path><path d="M116.11,185c.13.16,1.13-.64,2.54-.55s2.31,1,2.46.84,0-.39-.45-.77a3.27,3.27,0,0,0-2-.81,3.22,3.22,0,0,0-2,.58C116.2,184.59,116,184.9,116.11,185Z" style="fill:#263238"></path><path d="M86.27,189.39c0,.19,2.91-.36,6.38-1.24s6.24-1.76,6.19-2-2.9.36-6.37,1.24S86.22,189.19,86.27,189.39Z" style="fill:#263238"></path><path d="M135.64,152.28a2.68,2.68,0,0,1,.07.88,4.38,4.38,0,0,1-.87,2.22,6.1,6.1,0,0,1-2.88,2.07,16.6,16.6,0,0,1-4.28.79,75.33,75.33,0,0,1-7.88.28c-1,0-1.83-.06-2.39-.1l-.65,0-.22,0h.87l2.39,0c2,0,4.8-.07,7.86-.34a16.85,16.85,0,0,0,4.23-.76,6,6,0,0,0,2.82-2,4.27,4.27,0,0,0,.91-2.14A7.14,7.14,0,0,0,135.64,152.28Z" style="fill:#fff"></path><path d="M138.09,153.82a8.62,8.62,0,0,1-.18,2.61,10.68,10.68,0,0,1-8.57,8.36,8.33,8.33,0,0,1-2.61.12,5.28,5.28,0,0,1,.7,0,10.8,10.8,0,0,0,1.88-.23,10.82,10.82,0,0,0,8.45-8.25,11.77,11.77,0,0,0,.28-1.87A5.72,5.72,0,0,1,138.09,153.82Z" style="fill:#fff"></path></g></svg>