<svg xmlns="http://www.w3.org/2000/svg" viewBox="0 0 750 500"><g id="background-simple"><path d="M87.59,437.13l.86.3H696.64c4.25-3.14,6.92-8.29,9.1-13.24,26.92-61.38,25.82-143,.42-211.11-11.27-30.18-27.31-57.69-47.8-79.57-36-38.39-86.85-59.3-137.81-72.26-56.93-14.48-118.18-20.2-173.72-1.08s-99.46,60.45-152.22,85.21c-24.44,11.47-50.56,15.6-74,30.13a180.73,180.73,0,0,0-57.35,56.63q-2.61,4.13-5,8.39C33.29,285.74,29.28,342.07,47.67,390.37,55.2,410.13,67.75,429.81,87.59,437.13Z" style="fill:#92E3A9"></path><path d="M87.59,437.13l.86.3H696.64c4.25-3.14,6.92-8.29,9.1-13.24,26.92-61.38,25.82-143,.42-211.11-11.27-30.18-27.31-57.69-47.8-79.57-36-38.39-86.85-59.3-137.81-72.26-56.93-14.48-118.18-20.2-173.72-1.08s-99.46,60.45-152.22,85.21c-24.44,11.47-50.56,15.6-74,30.13a180.73,180.73,0,0,0-57.35,56.63q-2.61,4.13-5,8.39C33.29,285.74,29.28,342.07,47.67,390.37,55.2,410.13,67.75,429.81,87.59,437.13Z" style="fill:#fff;opacity:0.7000000000000001"></path></g><g id="Window"><g style="opacity:0.30000000000000004"><path d="M586.75,58.33h0a79.56,79.56,0,0,1,79.56,79.56V424.06a0,0,0,0,1,0,0H507.18a0,0,0,0,1,0,0V137.89a79.56,79.56,0,0,1,79.56-79.56Z" style="fill:none;stroke:#000;stroke-linecap:round;stroke-linejoin:round"></path><path d="M525.15,423.2V140.46a61.6,61.6,0,0,1,61.6-61.6h0a61.6,61.6,0,0,1,61.59,61.6V423.2" style="fill:none;stroke:#000;stroke-linecap:round;stroke-linejoin:round"></path><line x1="586.75" y1="58.33" x2="586.75" y2="423.63" style="fill:none;stroke:#000;stroke-linecap:round;stroke-linejoin:round"></line><line x1="508.04" y1="128.7" x2="665.24" y2="128.7" style="fill:none;stroke:#000;stroke-linecap:round;stroke-linejoin:round"></line><line x1="508.04" y1="178.32" x2="665.24" y2="178.32" style="fill:none;stroke:#000;stroke-linecap:round;stroke-linejoin:round"></line><line x1="508.04" y1="227.94" x2="665.24" y2="227.94" style="fill:none;stroke:#000;stroke-linecap:round;stroke-linejoin:round"></line><line x1="508.04" y1="277.55" x2="665.24" y2="277.55" style="fill:none;stroke:#000;stroke-linecap:round;stroke-linejoin:round"></line><line x1="508.04" y1="327.17" x2="665.24" y2="327.17" style="fill:none;stroke:#000;stroke-linecap:round;stroke-linejoin:round"></line><line x1="508.04" y1="376.79" x2="665.24" y2="376.79" style="fill:none;stroke:#000;stroke-linecap:round;stroke-linejoin:round"></line><line x1="529.06" y1="83.16" x2="543.31" y2="96.14" style="fill:none;stroke:#000;stroke-linecap:round;stroke-linejoin:round"></line><line x1="643.84" y1="83.16" x2="629.58" y2="96.14" style="fill:none;stroke:#000;stroke-linecap:round;stroke-linejoin:round"></line></g></g><g id="plant-5"><path d="M483.17,220.82c15.08-6.5,29.13-17,29.13-17s-10.68,2.41-23.64,5.9c17.15-10.54,32.62-26.58,32.62-26.58s-12.93,5.26-28.13,12.24a207.64,207.64,0,0,0,21.05-23.71S495.83,182.17,477.91,194c12.77-15.07,22.41-35,22.41-35s-16.48,13.86-31.91,28.73c10.4-17.6,16.49-40.95,16.49-40.95S472.69,162,461,178.65c6.2-18.62,7.79-40.32,7.79-40.32s-8.36,15.53-16.52,32.95c2.39-18.54.56-38,.56-38s-5.39,15.88-10.43,33.85A199.71,199.71,0,0,0,436.92,131s-4.06,24-6.11,46.62c-3-21.12-15.39-45.7-15.39-45.7s.76,16.19,2.57,34.39a201.41,201.41,0,0,0-17.74-30.87s3.32,16.21,8,34.13a201,201,0,0,0-22.69-28.19s8.46,22.49,18,42.94c-13.22-16.63-36-31.44-36-31.44s10,15.44,21.56,31.34C373.83,172.72,355,164.55,355,164.55S368.1,178.89,382.71,193c-17.41-9.08-38.62-14.09-38.62-14.09s15.62,12,32.61,23.34c-18.83-5.95-40.87-7.14-40.87-7.14s13.57,7,29.61,14.24a202.94,202.94,0,0,0-34.11-.22s21.13,7.25,42.23,12.85a168.86,168.86,0,0,0-27.79,4.25s7.1,1.23,16.8,2.6a172.87,172.87,0,0,0-16.92,4.68s21.17,1.83,40.44,1.93c2.07,0,4.22,0,6.4-.08-12.41,3.37-25.19,10.92-25.19,10.92s16.13-1.84,30.59-4.68c12.43-2.45,27.93-7.48,32-8.84v.16l.09-.19.16,0c0,.2,0,.31,0,.31s0-.12.11-.35l.14,0c.05.16.08.28.1.35l1.12,204.59,3.41-.11-1.11-204.09c7.93,4,23.61,11.64,36.4,15.71,17.92,5.69,43.6,4.15,43.6,4.15s-17.68-6.63-35.51-12c17.75.54,38.19-4.85,38.19-4.85s-20.45-3.32-39.81-5c18.15-2.64,39-13.18,39-13.18S500,219,483.17,220.82Z" style="fill:#b2b2b2"></path><path d="M433.1,304.81c2.46-16.24,1-33.69,1-33.69s-3.6,10.34-7.5,23.19c.13-20.14-5.3-41.74-5.3-41.74s-2.37,13.75-4.49,30.35a207.52,207.52,0,0,0-9-30.41s-.83,21.12-.31,42.56c-6-18.81-17.82-37.5-17.82-37.5s3.05,21.31,7.52,42.27c-9.44-18.13-26-35.65-26-35.65s6.48,18.42,14.41,37.18c-12.53-15.1-30.11-27.93-30.11-27.93s8.76,15.31,19.24,31.44c-14.48-11.83-32-20.58-32-20.58s10.62,13,23.2,26.76a200,200,0,0,0-33.55-14.5s18.23,16.15,36.33,29.83c-19.5-8.63-46.92-11.1-46.92-11.1s14.15,7.92,30.55,16A201.48,201.48,0,0,0,316.76,330s15.51,5.76,33.19,11.26A200.81,200.81,0,0,0,314,345.66s23.56,4.7,46,7.43c-21.1,2.42-45.7,13.88-45.7,13.88s18.37-.28,38-1.73c-17.82,6.95-34.72,18.63-34.72,18.63s19.11-3.56,38.81-8.5C339.47,385.35,324,400.7,324,400.7s18.41-6.94,37.06-15.33c-15,12.83-27.67,30.92-27.67,30.92s13.1-7.84,27.74-17.61a203.45,203.45,0,0,0-18.22,28.83s17.33-14.1,33.23-29a168.76,168.76,0,0,0-11.08,25.82s4.79-5.37,11.09-12.88a170.41,170.41,0,0,0-5,16.84s12.74-17,23-33.3c1.11-1.76,2.22-3.6,3.32-5.48-3.7,12.31-4.05,27.15-4.05,27.15s7-14.66,12.2-28.43c4.5-11.85,8.42-27.67,9.43-31.86l.13.1-.11-.18,0-.16.27.15-.24-.28,0-.15.34.1L434,365.12l-.82-5.48-15.5-6.43c7.61-4.6,22.36-13.88,32.57-22.59,14.31-12.2,26.58-34.81,26.58-34.81s-15,11.5-28.93,23.82c9.84-14.78,16.08-35,16.08-35s-13.64,15.6-25.29,31.15c7.36-16.8,9.42-40,9.42-40S440.46,289.57,433.1,304.81Z" style="fill:#b2b2b2"></path><path d="M478.93,341.48a108.71,108.71,0,0,0,18.91,11.14s-4.77-5.29-10.88-11.54c11.45,6.38,25.48,10.05,25.48,10.05s-7.11-5.66-15.91-12.07a135.52,135.52,0,0,0,20.17,4.4s-11.79-7.1-24.19-13.52c12.62,2.45,27,1.58,27,1.58s-13.12-4.94-26.48-9c13.3.3,28.5-3.69,28.5-3.69s-12.54-2.07-25.73-3.43C508.34,313,521.17,307,521.17,307s-11.48.2-24,1.12A129.41,129.41,0,0,0,519,296.35s-10.73,2-22.54,4.85a129.7,129.7,0,0,0,18.79-14.6S500.28,291.94,486.8,298c11-8.42,21-23.29,21-23.29s-8.95,5.59-18.7,12.41A131.69,131.69,0,0,0,501,267.2s-8.15,7.05-16.83,15.41A131.2,131.2,0,0,0,493,260.74s-10.07,12-18.65,23.9c5.23-12.81,6.4-30.43,6.4-30.43s-5.59,10.57-10.92,22.22a127.42,127.42,0,0,0,.25-25.64s-4,12-7.31,24.8c-.39-12.78-4.3-26.42-4.3-26.42s-1.81,12.68-2.87,26c-2.62-12.58-9-25.48-9-25.48s.37,9.93,1.35,21.35a131.24,131.24,0,0,0-10.74-19.43s2.62,14.31,6.16,28.06a110,110,0,0,0-11.26-14.41s1.56,4.41,3.87,10.36a111.15,111.15,0,0,0-8-8.11s5.71,12.6,11.79,23.57c.65,1.18,1.36,2.39,2.08,3.61a78.1,78.1,0,0,0-14.22-10.82s6.18,8.57,12.4,15.87a198.55,198.55,0,0,0,15.22,15.37l-.09,0h.13l.08.08-.17.1.24,0,.07.07-.16.17-18.77,11.37,1.15,1.9,18.48-11.2c.24,5.78.92,17.1,2.68,25.66,2.48,12,11.54,26.08,11.54,26.08s-1.87-12.15-4.53-24c5.35,10.25,14.92,20.13,14.92,20.13s-4.63-12.66-9.84-24.18c7.28,9.46,19.89,17.92,19.89,17.92S485.32,350.46,478.93,341.48Z" style="fill:#b2b2b2"></path><path d="M433.1,395.27a109.06,109.06,0,0,0-5.65,21.2s3.82-6,8.2-13.58c-3.07,12.74-2.83,27.24-2.83,27.24s3.54-8.36,7.35-18.57a134.65,134.65,0,0,0,1.18,20.61s3.67-13.26,6.52-26.93c1,12.82,5.73,26.42,5.73,26.42s1.23-14,1.51-27.91c3.29,12.89,11.22,26.46,11.22,26.46s-1.37-12.64-3.61-25.7c5.69,11.43,14.93,22.17,14.93,22.17s-3.28-11-7.52-22.78a129.44,129.44,0,0,0,17.21,17.79s-4.81-9.8-10.74-20.41a130.12,130.12,0,0,0,19.12,14.17s-9.16-12.94-18.61-24.3c11.08,8.37,28.1,14,28.1,14s-7.79-7.12-17-14.68a131,131,0,0,0,22.37,6.09s-9-5.95-19.37-12.07a130.92,130.92,0,0,0,23.42,2.57s-14.24-6.48-28-11.53c13.74,1.59,31-2,31-2S506,371,493.3,369a127.91,127.91,0,0,0,24.77-6.65s-12.64-.58-25.86-.38c12.2-3.81,24.29-11.24,24.29-11.24s-12.7,1.66-25.77,4.22c11.42-5.91,22.13-15.49,22.13-15.49s-9.46,3-20.2,7a132.1,132.1,0,0,0,15.83-15.57s-13.07,6.36-25.37,13.47A110.13,110.13,0,0,0,494,329.64s-3.84,2.69-9,6.52a110.16,110.16,0,0,0,5.65-9.94s-10.6,8.88-19.53,17.69c-1,.95-1.94,1.95-2.92,3a77.83,77.83,0,0,0,6.6-16.61s-6.59,8.26-11.95,16.21a197.55,197.55,0,0,0-10.71,18.8l-.07-.09,0,.13,0,.1-.15-.13.11.21-.05.09-.2-.12-16,15-1.52,1.61,15.76-15.21c-5.51,1.79-16.23,5.48-24,9.49-10.89,5.6-22,18.11-22,18.11s11.2-5.06,21.87-10.8c-8.43,7.91-15.38,19.79-15.38,19.79s11-7.87,20.65-16c-7.15,9.56-11.91,24-11.91,24S426.17,403.84,433.1,395.27Z" style="fill:#b2b2b2"></path></g><g id="plants-4"><path d="M109.64,123v16h-5V121.44a7.52,7.52,0,0,0-7.52-7.52h0a7.51,7.51,0,0,0-7.51,7.52v21.78H85V131.65a5.4,5.4,0,0,0-5.4-5.4h0a5.39,5.39,0,0,0-5.39,5.4v17.73h0a3.47,3.47,0,0,0,3.47,3.47H89.6V166h15V149H115a4.24,4.24,0,0,0,4.24-4.24h0V123a4.82,4.82,0,0,0-4.82-4.82h0A4.82,4.82,0,0,0,109.64,123Z" style="fill:#92E3A9"></path><rect x="84.06" y="164.91" width="26.42" height="24.49" style="fill:#b2b2b2"></rect><rect x="82.48" y="159.1" width="29.56" height="7.88" style="fill:#b2b2b2"></rect><polygon points="102.19 255.9 92.55 240.49 98.98 241.13 98.33 232.13 105.4 241.13 106.04 213.5 111.18 231.49 117.61 208.36 119.53 235.34 132.38 221.85 123.39 243.05 132.38 239.84 115.04 259.12 102.19 255.9" style="fill:#92E3A9"></polygon><rect x="97.27" y="258" width="26.42" height="24.49" style="fill:#b2b2b2"></rect><rect x="95.69" y="252.19" width="29.56" height="7.88" style="fill:#b2b2b2"></rect><polygon points="239.03 255.9 229.4 240.49 235.82 241.13 235.18 232.13 242.25 241.13 242.89 213.5 248.03 231.49 254.45 208.36 256.38 235.34 269.23 221.85 260.24 243.05 269.23 239.84 251.88 259.12 239.03 255.9" style="fill:#92E3A9"></polygon><rect x="234.11" y="258" width="26.42" height="24.49" style="fill:#b2b2b2"></rect><rect x="232.54" y="252.19" width="29.56" height="7.88" style="fill:#b2b2b2"></rect><path d="M172.22,252.69a85.15,85.15,0,0,1-13.49-1.28c-7.07-1.29-8.36-5.79-5.14-7.07s14.13.64,14.13.64-14.13,0-16.06-8.35,5.14-7.71,7.07-5.78,7.06,5.78,7.06,5.78-10.92-10.92-10.92-17.35,7.07-5.78,9-1.92,6.43,15.41,6.43,15.41-7.07-20.55,1.93-17.34,7.06,12.85,7.06,14.77v8.36s9-17.35,12.21-13.49S187,236,187,236s4.5-16.71,15.42-16.06.65,8.35-1.28,11.56-10.28,10.28-10.28,10.28,18.63-8.35,27.62-8.35.65,10.28-4.49,10.92-14.78,1.93-14.78,1.93,12.85,5.78,7.71,7.06-18-1.28-18-1.28Z" style="fill:#92E3A9"></path><rect x="166.65" y="258" width="26.42" height="24.49" style="fill:#b2b2b2"></rect><rect x="165.08" y="252.19" width="29.56" height="7.88" style="fill:#b2b2b2"></rect><path d="M212,134.12V146h3.71V133a5.57,5.57,0,0,1,5.57-5.57h0a5.57,5.57,0,0,1,5.57,5.57v16.13h3.42v-8.56a4,4,0,0,1,4-4h0a4,4,0,0,1,4,4v13.13h0a2.57,2.57,0,0,1-2.57,2.57h-8.85V166H215.69V153.39H208a3.14,3.14,0,0,1-3.14-3.14h0V134.12a3.57,3.57,0,0,1,3.57-3.57h0A3.57,3.57,0,0,1,212,134.12Z" style="fill:#92E3A9"></path><rect x="206.83" y="164.91" width="26.42" height="24.49" style="fill:#b2b2b2"></rect><rect x="205.25" y="159.1" width="29.56" height="7.88" style="fill:#b2b2b2"></rect><path d="M110,320.57v11.85h3.71v-13a5.57,5.57,0,0,1,5.57-5.57h0a5.56,5.56,0,0,1,5.56,5.57v16.13h3.43V327a4,4,0,0,1,4-4h0a4,4,0,0,1,4,4v13.14h0a2.57,2.57,0,0,1-2.57,2.57h-8.86v9.71H113.69V339.84H106a3.13,3.13,0,0,1-3.14-3.14h0V320.57a3.57,3.57,0,0,1,3.57-3.57h0A3.57,3.57,0,0,1,110,320.57Z" style="fill:#92E3A9"></path><rect x="104.82" y="351.35" width="26.42" height="24.49" style="fill:#b2b2b2"></rect><rect x="103.25" y="345.55" width="29.56" height="7.88" style="fill:#b2b2b2"></rect><path d="M241,320.57v11.85h3.71v-13a5.57,5.57,0,0,1,5.57-5.57h0a5.57,5.57,0,0,1,5.57,5.57v16.13h3.42V327a4,4,0,0,1,4-4h0a4,4,0,0,1,4,4v13.14h0a2.57,2.57,0,0,1-2.57,2.57h-8.85v9.71H244.71V339.84H237a3.14,3.14,0,0,1-3.14-3.14h0V320.57a3.57,3.57,0,0,1,3.57-3.57h0A3.57,3.57,0,0,1,241,320.57Z" style="fill:#92E3A9"></path><rect x="235.85" y="351.35" width="26.42" height="24.49" style="fill:#b2b2b2"></rect><rect x="234.27" y="345.55" width="29.56" height="7.88" style="fill:#b2b2b2"></rect><path d="M173.81,350.84a46.51,46.51,0,0,0-9.2-10.87c-5.85-5-7.53-16.73-7.53-16.73s2.51-.83,7.53,4.18A51.46,51.46,0,0,1,173,339.13s-3.34-14.21-3.34-19.23S178,302.34,178,302.34s2.5,9.2,2.5,13.38V335s5-10,11.71-15.89,16.72-8.36,16.72-8.36.84,10-2.51,13.38-17.56,15.05-17.56,15.05l19.24-3.34-19.24,11.7s-3.58,4.69-6.68,3.35S173.81,350.84,173.81,350.84Z" style="fill:#92E3A9"></path><rect x="165.86" y="351.35" width="26.42" height="24.49" style="fill:#b2b2b2"></rect><rect x="164.28" y="345.55" width="29.56" height="7.88" style="fill:#b2b2b2"></rect><path d="M256.38,159.53s-8.35-7.06-10.92-9.63-9-9.64-3.86-7.07a79.21,79.21,0,0,1,10.92,7.07S248,136.4,248,132.55s6.42-1.28,9.63,5.14,5.14,10.92,5.14,10.92-5.78-25.7-.64-27,6.43,16.7,6.43,16.7,4.49-31.48,10.92-24.41-4.5,25.7-4.5,25.7,12.85-9,10.28-1.93-9.64,9.64-9.64,9.64,18.64-4.5,13.5,2.57-21.85,12.85-21.85,12.85Z" style="fill:#92E3A9"></path><rect x="252.38" y="164.91" width="26.42" height="24.49" style="fill:#b2b2b2"></rect><rect x="250.81" y="159.1" width="29.56" height="7.88" style="fill:#b2b2b2"></rect><path d="M153.59,159.53s-8.36-7.06-10.93-9.63-9-9.64-3.85-7.07a79.21,79.21,0,0,1,10.92,7.07s-4.5-13.5-4.5-17.35,6.43-1.28,9.64,5.14S160,148.61,160,148.61s-5.78-25.7-.64-27,6.42,16.7,6.42,16.7,4.5-31.48,10.92-24.41-4.49,25.7-4.49,25.7,12.85-9,10.28-1.93-9.64,9.64-9.64,9.64,18.63-4.5,13.49,2.57-21.84,12.85-21.84,12.85Z" style="fill:#92E3A9"></path><rect x="149.59" y="164.91" width="26.42" height="24.49" style="fill:#b2b2b2"></rect><rect x="148.02" y="159.1" width="29.56" height="7.88" style="fill:#b2b2b2"></rect><path d="M79,437.43V387.08h218.4v50.35h8.3V188.08h-235V437.43ZM79,200h218.4v81.7H79Zm0,93.57h218.4v81.69H79Z" style="fill:#b2b2b2"></path></g><g id="plant-3"><path d="M581.39,297.55s-.79-6.47,2.1-18.12a136.65,136.65,0,0,1,6-19,174.23,174.23,0,0,1,6.58,22.87,110.28,110.28,0,0,1,2.1,19s-3.42,12.51-6.57,16.82-5.53,2.16-7.63-3S581.39,297.55,581.39,297.55Z" style="fill:#92E3A9;stroke:#263238;stroke-linecap:round;stroke-linejoin:round"></path><path d="M572.19,310.92s-.79-4.31-.79-14.23S574,271.23,574,271.23a89.23,89.23,0,0,1,7.36,17.26c2.63,9.06,7.36,26.75,7.36,26.75a128.11,128.11,0,0,1,5-18.12c3.42-9.5,11.84-22,11.84-22v19A82.31,82.31,0,0,1,603,314.81s-.79,4.31-10.79,7.76S574,322.14,572.19,310.92Z" style="fill:#92E3A9;stroke:#263238;stroke-linecap:round;stroke-linejoin:round"></path><path d="M564.82,326.89s-3.68-4.75-3.68-15.1a136.67,136.67,0,0,1,1.58-19.85s1.31.86,5,6,11.83,18.55,11.83,19.42.79-3.89,3.94-9.5,12.63-19,12.63-19,1.31,12.08,1.31,17.26.53,12.51.53,12.51,3.94-9.92,8.15-16a91.22,91.22,0,0,1,9.47-11.22s.79,3,.52,11.65-3.94,24.59-5,27.18-4.74,7.77-11.84,10.36S580.08,345,573.76,342,564.82,326.89,564.82,326.89Z" style="fill:#92E3A9;stroke:#263238;stroke-linecap:round;stroke-linejoin:round"></path><path d="M561.14,343.29s-2.1-2.59-7.89-13.81S544.84,304,544.84,304s3.15.43,8.41,5.61,21,25.46,21,25.46a39.73,39.73,0,0,1-1-18.12c1.84-9.5,4.21-13.38,4.21-13.38s5.52,8.2,7.36,14.67,3.94,16,3.94,16,2.63-11.65,7.1-19.84a64.17,64.17,0,0,1,10.26-13.81s2.37,9.49.79,17.69-3.16,14.67-3.16,14.67,5.79-16.4,10.52-20.28,15-7.33,15-7.33-4.2,15.53-7.62,22.43-8.42,14.67-8.42,14.67S586.91,351.05,561.14,343.29Z" style="fill:#92E3A9;stroke:#263238;stroke-linecap:round;stroke-linejoin:round"></path><polygon points="610.52 437.5 565.01 437.5 558.18 344.24 617.35 344.24 610.52 437.5" style="fill:#263238;stroke:#263238;stroke-linecap:round;stroke-linejoin:round"></polygon><rect x="555.51" y="341.75" width="64.24" height="7.08" rx="2.87" style="fill:#a1a1a1;stroke:#263238;stroke-linecap:round;stroke-linejoin:round"></rect></g><g id="plant-2"><line x1="493.23" y1="383.93" x2="493.23" y2="283.65" style="fill:none;stroke:#263238;stroke-linecap:round;stroke-linejoin:round"></line><polygon points="515.28 437.43 471.61 437.43 462.25 380.12 524.64 380.12 515.28 437.43" style="fill:#263238;stroke:#263238;stroke-linecap:round;stroke-linejoin:round"></polygon><path d="M499.34,354.27s-.22-12.22,14-18.78,26.26,4.3,30.33,12.22a128.4,128.4,0,0,1,6.79,16.07S536.24,352,523.34,352A134.9,134.9,0,0,0,499.34,354.27Z" style="fill:#92E3A9;stroke:#263238;stroke-linecap:round;stroke-linejoin:round"></path><line x1="509.98" y1="352.46" x2="516.1" y2="343.86" style="fill:none;stroke:#263238;stroke-linecap:round;stroke-linejoin:round"></line><line x1="523.34" y1="352.01" x2="530.81" y2="345.9" style="fill:none;stroke:#263238;stroke-linecap:round;stroke-linejoin:round"></line><path d="M492.16,346.25s-3.49-11.71-19.07-13.64-23.72,12.06-25.2,20.84a129.79,129.79,0,0,0-1.6,17.37s10-15.54,22.32-19.45A134.79,134.79,0,0,1,492.16,346.25Z" style="fill:#92E3A9;stroke:#263238;stroke-linecap:round;stroke-linejoin:round"></path><line x1="481.47" y1="347.75" x2="473.04" y2="341.41" style="fill:none;stroke:#263238;stroke-linecap:round;stroke-linejoin:round"></line><line x1="468.61" y1="351.37" x2="459.64" y2="347.81" style="fill:none;stroke:#263238;stroke-linecap:round;stroke-linejoin:round"></line><path d="M479.61,315.77s-2.71-9.09-14.79-10.59-18.4,9.36-19.55,16.17A100.36,100.36,0,0,0,444,334.83s7.77-12.05,17.31-15.09A104.92,104.92,0,0,1,479.61,315.77Z" style="fill:#92E3A9;stroke:#263238;stroke-linecap:round;stroke-linejoin:round"></path><line x1="471.32" y1="316.93" x2="464.78" y2="312.01" style="fill:none;stroke:#263238;stroke-linecap:round;stroke-linejoin:round"></line><line x1="461.34" y1="319.74" x2="454.38" y2="316.98" style="fill:none;stroke:#263238;stroke-linecap:round;stroke-linejoin:round"></line><path d="M503.51,310.1s2.71-9.09,14.8-10.59,18.4,9.36,19.55,16.18a100.23,100.23,0,0,1,1.24,13.48s-7.77-12.06-17.31-15.1A104.93,104.93,0,0,0,503.51,310.1Z" style="fill:#92E3A9;stroke:#263238;stroke-linecap:round;stroke-linejoin:round"></path><line x1="511.81" y1="311.27" x2="518.35" y2="306.35" style="fill:none;stroke:#263238;stroke-linecap:round;stroke-linejoin:round"></line><line x1="521.79" y1="314.07" x2="528.75" y2="311.31" style="fill:none;stroke:#263238;stroke-linecap:round;stroke-linejoin:round"></line><path d="M497.08,353.14A15.67,15.67,0,0,0,479.2,357c-8.15,8.6-1.36,22,4.3,29a149,149,0,0,0,11.32,12.44s13.58-8.6,18.33-18.33,7-17.2.91-23.77S497.08,353.14,497.08,353.14Z" style="fill:#92E3A9;stroke:#263238;stroke-linecap:round;stroke-linejoin:round"></path><path d="M497.08,353.14s-4.75,26-3.39,42.11" style="fill:none;stroke:#263238;stroke-linecap:round;stroke-linejoin:round"></path><line x1="495.72" y1="365.14" x2="500.48" y2="372.84" style="fill:none;stroke:#263238;stroke-linecap:round;stroke-linejoin:round"></line><line x1="494.59" y1="373.97" x2="488.48" y2="383.48" style="fill:none;stroke:#263238;stroke-linecap:round;stroke-linejoin:round"></line><line x1="496.4" y1="358.58" x2="488.48" y2="360.39" style="fill:none;stroke:#263238;stroke-linecap:round;stroke-linejoin:round"></line><path d="M503.51,310.1s-7.56,1.85-9.82,7.28" style="fill:none;stroke:#263238;stroke-linecap:round;stroke-linejoin:round"></path><path d="M479.61,315.77s12.26,2.51,13.62,9.53" style="fill:none;stroke:#263238;stroke-linecap:round;stroke-linejoin:round"></path><path d="M493.46,332.09s5.66-10.64,13.58-11.77S524,326,524,326s-16.07,9.51-21.73,9.51A12.64,12.64,0,0,1,493.46,332.09Z" style="fill:#92E3A9;stroke:#263238;stroke-linecap:round;stroke-linejoin:round"></path><path d="M493.46,332.09s-5-7.69-13.81-8.6S461.32,335,461.32,335s3.39,2.27,12.45,1.82S493.46,332.09,493.46,332.09Z" style="fill:#92E3A9;stroke:#263238;stroke-linecap:round;stroke-linejoin:round"></path><path d="M493,313.76s-10.19-10-10.64-19.92S494.14,268,494.14,268s7.47,19.47,7.92,27.62S493,313.76,493,313.76Z" style="fill:#92E3A9;stroke:#263238;stroke-linecap:round;stroke-linejoin:round"></path><line x1="493.23" y1="304.7" x2="489.61" y2="299.5" style="fill:none;stroke:#263238;stroke-linecap:round;stroke-linejoin:round"></line><line x1="493.69" y1="292.71" x2="496.18" y2="288.4" style="fill:none;stroke:#263238;stroke-linecap:round;stroke-linejoin:round"></line></g><g id="plant-1"><path d="M121.77,367.66s-.69-3.43,1.83-9.61A55.48,55.48,0,0,1,128.87,348a68,68,0,0,1,5.72,12.14,36.56,36.56,0,0,1,1.83,10.07s-3,6.64-5.72,8.93-4.81,1.15-6.64-1.6S121.77,367.66,121.77,367.66Z" style="fill:#92E3A9;stroke:#263238;stroke-linecap:round;stroke-linejoin:round"></path><path d="M113.76,374.76a29.43,29.43,0,0,1-.69-7.55c0-5.27,2.29-13.51,2.29-13.51a41.6,41.6,0,0,1,6.41,9.16c2.29,4.8,6.41,14.19,6.41,14.19a48.89,48.89,0,0,1,4.35-9.61c3-5,10.31-11.68,10.31-11.68v10.07a28.14,28.14,0,0,1-2.29,11s-.69,2.29-9.39,4.13S115.36,380.72,113.76,374.76Z" style="fill:#92E3A9;stroke:#263238;stroke-linecap:round;stroke-linejoin:round"></path><path d="M107.34,383.24s-3.2-2.52-3.2-8a45.4,45.4,0,0,1,1.37-10.53s1.15.46,4.35,3.2,10.31,9.85,10.31,10.31.68-2.06,3.43-5,11-10.07,11-10.07a79,79,0,0,1,1.15,9.15c0,2.75.46,6.64.46,6.64a48.87,48.87,0,0,1,7.09-8.47,67.16,67.16,0,0,1,8.25-6s.68,1.6.45,6.18-3.43,13.05-4.35,14.43-4.12,4.12-10.3,5.49-16.72,2.29-22.21.69S107.34,383.24,107.34,383.24Z" style="fill:#92E3A9;stroke:#263238;stroke-linecap:round;stroke-linejoin:round"></path><path d="M104.14,391.94s-1.83-1.38-6.87-7.33a43,43,0,0,1-7.33-13.51s2.75.23,7.33,3,18.32,13.51,18.32,13.51a13.39,13.39,0,0,1-.92-9.62c1.6-5,3.67-7.1,3.67-7.1s4.8,4.35,6.41,7.79,3.43,8.47,3.43,8.47a38.18,38.18,0,0,1,6.18-10.54,43,43,0,0,1,8.93-7.32s2.06,5,.69,9.39-2.75,7.78-2.75,7.78,5-8.7,9.16-10.76,13.05-3.89,13.05-3.89-3.66,8.24-6.64,11.9a97.38,97.38,0,0,1-7.32,7.79S126.58,396.06,104.14,391.94Z" style="fill:#92E3A9;stroke:#263238;stroke-linecap:round;stroke-linejoin:round"></path><path d="M136.77,437.43H118.05a15.52,15.52,0,0,1-15.35-13.25l-4.87-32.81H157l-4.86,32.81A15.53,15.53,0,0,1,136.77,437.43Z" style="fill:#263238;stroke:#263238;stroke-linecap:round;stroke-linejoin:round"></path><rect x="95.16" y="388.88" width="64.24" height="7.08" rx="2.87" style="fill:#a1a1a1;stroke:#263238;stroke-linecap:round;stroke-linejoin:round"></rect></g><g id="Character"><path d="M314.88,150.86s5.79,34.2,12.68,48.55,8.28,18.48,8.28,18.48A269.56,269.56,0,0,1,302.19,224c-17.65,1.93-23.45-1.1-23.45-1.1L281,214s13.52,4.69,18.48-1.38,10.2-28.13,11-33.37-1.65-27.85-1.65-27.85Z" style="fill:#263238;stroke:#263238;stroke-miterlimit:10"></path><path d="M283.71,211.27s-3,13.23-3,17.37.49,5.11,2.75,6.62c5,3.31,15.72,9.1,25.38,10.48s16.83,3.85,18.75,7.17c11.13,19.3,18.21,86.61,18.21,86.61s3.58,2.75,14.89,4.68,14.89,2.21,14.89,2.21l2.76,17.38s-10.2,1.38-27.58,3-28.68,0-28.68,0l14.06,44.41c3.59,11.3,5.79,26.2,5.79,26.2H197.11s16.27-73.64,18.2-82.47,2.21-40,2.21-40l-41.38,1.65s7.45-44.68,14.62-62.05,10.48-14.34,21-16,27.58-5.24,34.48-9.93,9.38-29.79,9.38-29.79Z" style="fill:#92E3A9;stroke:#263238;stroke-linecap:round;stroke-linejoin:round"></path><path d="M318.39,358.33c-2,8.25,1.21,13.79,6.52,17.53l-2.86-9s11.3,1.66,28.68,0,27.58-3,27.58-3l-2.76-17.38s-3.58-.27-14.89-2.21-14.89-4.68-14.89-4.68S324.54,332.5,318.39,358.33Z" style="fill:#fff;stroke:#263238;stroke-linecap:round;stroke-linejoin:round"></path><path d="M336.11,411.23l-14.06-44.41s-2.21-16-1.93-18.75,8.27-17.93,8.27-28.69-9.65-43-10.48-45.23c-.76-2-14.19-26.35-16.27-30.11-.94-.3-1.88-.63-2.8-1l12.45,33.57-65.92-1.38L235,233.4c-1.59.49-3.26,1-4.95,1.4,1.39,5.38,11,43.35,9.77,48.73-1.38,5.79-22.34,31.44-22.34,31.44s-.28,31.17-2.21,40-18.2,82.47-18.2,82.47H341.9S339.7,422.53,336.11,411.23Z" style="fill:#263238;stroke:#263238;stroke-linecap:round;stroke-linejoin:round"></path><path d="M281,225.52c.75-5.5,2.76-14.25,2.76-14.25l-28.13-12.42a118.7,118.7,0,0,1-3.78,19.64Z" style="fill:#fff;stroke:#263238;stroke-linecap:round;stroke-linejoin:round"></path><path d="M312.94,152s.83,13.51.83,21.79,1.38,16.27-2.48,27S301.91,219,298.6,220.37s-12.13,0-16.55-1.66S254.75,203,254.75,203s6.34-39.44,7.17-42.2a22.68,22.68,0,0,1,2.76-5.51Z" style="fill:#fff;stroke:#263238;stroke-linecap:round;stroke-linejoin:round"></path><path d="M304.67,166s-2.21,4.14-1.93,7.73,7.17,11.3,7.17,12.68-3.86,3.86-8.55,3.86" style="fill:none;stroke:#263238;stroke-linecap:round;stroke-linejoin:round"></path><path d="M298.33,199.41s-11.59-.28-16.83-7.45" style="fill:none;stroke:#263238;stroke-linecap:round;stroke-linejoin:round"></path><path d="M277.92,167.41s6.62-4.13,12.41-3" style="fill:none;stroke:#263238;stroke-linecap:round;stroke-linejoin:round"></path><path d="M306.05,164.1a6,6,0,0,1,7.17.55" style="fill:none;stroke:#263238;stroke-linecap:round;stroke-linejoin:round"></path><path d="M290.6,176c0,2.13-1.05,3.86-2.34,3.86s-2.34-1.73-2.34-3.86,1.05-3.86,2.34-3.86S290.6,173.83,290.6,176Z" style="fill:#263238"></path><path d="M310.32,175.35c0,2.17-.86,3.92-1.94,3.92s-1.94-1.75-1.94-3.92.87-3.93,1.94-3.93S310.32,173.18,310.32,175.35Z" style="fill:#263238"></path><path d="M269.64,155.83s-7.17,43.58-8.27,56a106.93,106.93,0,0,0,.27,22.06S252.82,229.19,236,224s-29.78-14.06-29.78-17.37,24-49.65,24-49.65Z" style="fill:#263238;stroke:#263238;stroke-miterlimit:10"></path><path d="M244,293.46s-22.34,7.72-31.44,10.2-31.72,5-36.41,13-5,16-4.68,22.9,6.34,9.92,11.3,9.1,23.45-3.31,40.27-15.17,32-25.1,32-25.1Z" style="fill:#fff;stroke:#263238;stroke-linecap:round;stroke-linejoin:round"></path><rect x="304.39" y="251.53" width="6.07" height="9.93" style="fill:#fff;stroke:#263238;stroke-linecap:round;stroke-linejoin:round"></rect><rect x="310.19" y="254.02" width="7.17" height="4.96" style="fill:#fff;stroke:#263238;stroke-linecap:round;stroke-linejoin:round"></rect><rect x="293.91" y="251.53" width="10.48" height="18.48" style="fill:#fff;stroke:#263238;stroke-linecap:round;stroke-linejoin:round"></rect><ellipse cx="298.88" cy="312.9" rx="19" ry="24.41" style="fill:none;stroke:#263238;stroke-linecap:round;stroke-linejoin:round"></ellipse><path d="M239,291.8a37.83,37.83,0,0,0,2.76,12.69c2.75,6.89,11,12.13,11,12.13l10.76-6.06,14.06-4.14s7.72-2.76,8.55-3,20.41,1.1,24.55.55,8-5,6.89-7.45-6.34-3.59-6.34-3.59-.83-9.65-1.1-10.75,6.06-.83,6.34-6.35-2.48-7.44-2.48-7.44-.28-6.9-4.14-8.55-8.83-3-19.31-1.11-20.41,5-27.85,13.52S251.44,286,251.44,286Z" style="fill:#fff;stroke:#263238;stroke-linecap:round;stroke-linejoin:round"></path><path d="M311.29,292.9s-9.65-1.65-15.17-.27" style="fill:none;stroke:#263238;stroke-linecap:round;stroke-linejoin:round"></path><path d="M310.19,282.15s-10.48-4.41-16.28-3" style="fill:none;stroke:#263238;stroke-linecap:round;stroke-linejoin:round"></path><path d="M314.05,268.36s-11-5.24-21.24-1.66" style="fill:none;stroke:#263238;stroke-linecap:round;stroke-linejoin:round"></path><path d="M384.49,275.23s15.94,4.06,23.91,28.26" style="fill:none;stroke:#263238;stroke-linecap:round;stroke-linejoin:round"></path><path d="M406.14,256.13s5,31.27,3.76,48.41" style="fill:none;stroke:#263238;stroke-linecap:round;stroke-linejoin:round"></path><path d="M431.85,264s-15.79,14.58-18.79,39.69" style="fill:none;stroke:#263238;stroke-linecap:round;stroke-linejoin:round"></path><path d="M401.39,247.4s-3.14-4.72-6-3.67-4.72,5.51-3.14,7.61,5.24-.79,5,.52-5.25,3.67-3.41,6.56,5.51,3.67,6.56,1.57,1.83-4.72,2.36-3.15-1.58,4.72,1,5.51,7.61.79,7.61-1.84-2.1-2.88-.53-3.67,3.41,2.89,5.25.79,3.15-8.39.52-9.18-2.62,1.31-4.45-.26,2.62-4.72-2.36-6.55S399.3,241.37,401.39,247.4Z" style="fill:#fff;stroke:#263238;stroke-linecap:round;stroke-linejoin:round"></path><path d="M427.84,261.41s-5.57-1.1-6.86,1.69.58,7.23,3.18,7.59,3.14-4.28,3.88-3.17-1.09,6.31,2.25,7,6.49-1.32,5.74-3.54-2.06-4.63-.57-3.89,2.24,4.44,4.65,3.13,5.91-4.84,4.05-6.69-3.52-.54-3-2.21,4.45-.39,4.25-3.17-3.74-8.14-6.14-6.84-.92,2.79-3.33,3-1.5-5.19-6.31-2.94S422.08,258.64,427.84,261.41Z" style="fill:#fff;stroke:#263238;stroke-linecap:round;stroke-linejoin:round"></path><path d="M374.87,272.42s-5.57-1.09-6.86,1.69.59,7.23,3.18,7.59,3.14-4.27,3.89-3.16-1.09,6.3,2.25,7,6.48-1.32,5.73-3.54-2.05-4.63-.57-3.89,2.24,4.44,4.65,3.14,5.91-4.85,4.05-6.69-3.52-.55-3-2.22,4.45-.38,4.25-3.17-3.73-8.14-6.14-6.83-.92,2.78-3.33,3-1.5-5.18-6.31-2.94S369.11,269.66,374.87,272.42Z" style="fill:#fff;stroke:#263238;stroke-linecap:round;stroke-linejoin:round"></path><path d="M402.71,303.78s-.53-1.57-4.46-2.36a20.69,20.69,0,0,0-6-.52s-2.1-1.31,1.31-3.67l3.41-2.36a8.59,8.59,0,0,0-5-1.32,33,33,0,0,0-5.24,1.05,8.8,8.8,0,0,1,4.7-7.5c4.72-2.36,7.36-.63,7.36-.63L393,281.23a6.22,6.22,0,0,1,5.51-1.57,19.14,19.14,0,0,1,7.08,2.88s-7.87-7.87-8.39-8.91,4.72.26,8.65,2.88a16.84,16.84,0,0,1,5.51,5.77s.52-4.46,2.1-7.08a28.49,28.49,0,0,1,4.45-5.25s-.52,7.35-.52,9.44,1.68-1.61,6-2.81a18.67,18.67,0,0,1,8.91.19s-6,2.62-7.35,4.46-3.14,5-3.14,5-.26-1.57,4.46-.78,10.22,5.76,10.22,5.76-7.34-.26-10,1.05a15.65,15.65,0,0,0-4.72,4.2,6.5,6.5,0,0,1,5-.79,26.91,26.91,0,0,1,5.51,2.62s-7.08,1.05-10.49,2.63-4.46,3.41-4.46,3.41Z" style="fill:#92E3A9;stroke:#263238;stroke-linecap:round;stroke-linejoin:round"></path><path d="M419.25,347.79H400.53a15.53,15.53,0,0,1-15.36-13.25l-4.86-32.81h59.16l-4.86,32.81A15.53,15.53,0,0,1,419.25,347.79Z" style="fill:#263238;stroke:#263238;stroke-linecap:round;stroke-linejoin:round"></path><rect x="377.64" y="299.24" width="64.24" height="7.08" rx="2.87" style="fill:#a1a1a1;stroke:#263238;stroke-linecap:round;stroke-linejoin:round"></rect><path d="M365.9,343.65S362,345.86,362,355s10.48,13.24,12.41,13.79,22.06-2.48,38.06-5.79,21.79-11.58,22.34-16.55-2.48-8.27-4.69-5.79-2.2,3.58-7.17,6.62-5.79,3.31-12.69,3-22.06-6.89-23.16-10.75-3-9.11-8.28-4.42a57,57,0,0,0-8.55,9.66Z" style="fill:#fff;stroke:#263238;stroke-linecap:round;stroke-linejoin:round"></path><path d="M379.41,327.1s-5.51,17.93-3.86,19.31,4.42,3.31,7.17,3.59,4.14-6.9,5.52-12.69,3.86-11,1.1-14.62S380.24,321.31,379.41,327.1Z" style="fill:#fff;stroke:#263238;stroke-linecap:round;stroke-linejoin:round"></path><path d="M391,330.69s-5.24,20.69-4.14,24,6.62,6.34,9.38,5,3-7.17,4.69-17.1S403.41,331.24,399,329,392.65,328.48,391,330.69Z" style="fill:#fff;stroke:#263238;stroke-linecap:round;stroke-linejoin:round"></path><path d="M413.08,338.39c-3.55-3.75-9.92-1.65-10.89,3.42-1.23,6.43-3.13,17.3-2.37,19.22,1.11,2.76,12.14,5.24,12.69,1.93s2.21-16.55,2.21-21A5.39,5.39,0,0,0,413.08,338.39Z" style="fill:#fff;stroke:#263238;stroke-linecap:round;stroke-linejoin:round"></path><path d="M232.13,157.48s-5.51-27.3-3.86-31.16,19.86-13.24,44.41-15.17,33.65,1.65,34.75,6.62,7.45,33.09,7.45,33.09l-29.52,5.52-26.75,2.48-27.86,1.38Z" style="fill:#fff;stroke:#263238;stroke-linecap:round;stroke-linejoin:round"></path><path d="M258.61,158.86l26.75-2.48,29.52-5.52s-2.49-11-4.62-20.48c-29.61,7.59-64.5,10.62-80.88,11.69,1.21,7.77,2.75,15.41,2.75,15.41l-1.38,2.76Z" style="fill:#92E3A9;stroke:#263238;stroke-linecap:round;stroke-linejoin:round"></path><path d="M203.73,157.21s-.56,3.31,1.65,3.31,17.93,3.31,56.54.27,56.26-6.89,67.57-10.2,14.9-5.24,14.34-7.72,2.76-1.66-.55-2.49-6.62,1.11-9.37,1.93a48.4,48.4,0,0,0-4.69,1.66l-.83-3.86h-3.31v5.79l-4.14,1.65.55-3.58-3.31-1.1L316.53,147l-.83,1.93-13.51,2.76v-5l-4.14-.28-.83,5.79-6.34,1.11-6.07-3L282.33,152l3.59,1.93-10.76,1.38-5.52.55-3.58-6.35-3.59.28,2.21,5.52-6.62,1.1,1.65-3.86-5.24-.83-3.31,4.41-15.44,1.38,4.69-3.86-1.11-2.76L230.48,155l-1.1-6.62h-5l.83,5L217,148.93l-3.31,2.76,4.14,5.79Z" style="fill:#fff;stroke:#263238;stroke-linecap:round;stroke-linejoin:round"></path></g><g id="Table"><line x1="62.94" y1="437.43" x2="30.53" y2="437.43" style="fill:none;stroke:#263238;stroke-linecap:round;stroke-linejoin:round"></line><line x1="703.21" y1="437.43" x2="70.66" y2="437.43" style="fill:none;stroke:#263238;stroke-linecap:round;stroke-linejoin:round"></line><line x1="726.5" y1="437.43" x2="710.91" y2="437.43" style="fill:none;stroke:#263238;stroke-linecap:round;stroke-linejoin:round"></line></g></svg>