<svg xmlns="http://www.w3.org/2000/svg" viewBox="0 0 750 500"><g id="background-complete"><path d="M724.51,125.43a13.22,13.22,0,0,1-.33-3,26.42,26.42,0,0,0-.4-3.56,35.08,35.08,0,0,0-.94-4.78,44.66,44.66,0,0,0-5-12.3,46.19,46.19,0,0,0-11.44-13.18,45.6,45.6,0,0,0-43-7.39,42.72,42.72,0,0,0-11.62,5.93,54,54,0,0,0-5.25,4.26A52.37,52.37,0,0,0,642,96.6a45.2,45.2,0,0,0-1.3,53.61,52.25,52.25,0,0,0,4.3,5.38,54.72,54.72,0,0,0,5,4.51,42.66,42.66,0,0,0,11.32,6.48,45.94,45.94,0,0,0,55.35-17.9,44.86,44.86,0,0,0,5.56-12,34.77,34.77,0,0,0,1.16-4.74,23.32,23.32,0,0,0,.57-3.53,13,13,0,0,1,.48-2.94,12.77,12.77,0,0,1,0,3,21,21,0,0,1-.34,3.62,31.14,31.14,0,0,1-1,4.87A44,44,0,0,1,718,149.45a47.2,47.2,0,0,1-32.39,21.88,47.57,47.57,0,0,1-25-2.55,44.81,44.81,0,0,1-12-6.75,53.73,53.73,0,0,1-5.32-4.73,53.2,53.2,0,0,1-4.57-5.65A47.52,47.52,0,0,1,640,95.06a55.67,55.67,0,0,1,4.84-5.42,53.12,53.12,0,0,1,5.55-4.46A44.82,44.82,0,0,1,662.71,79a47.78,47.78,0,0,1,25.13-1.33,47.27,47.27,0,0,1,31.29,23.43,44.26,44.26,0,0,1,4.69,12.79,32.73,32.73,0,0,1,.72,4.91,21.71,21.71,0,0,1,.15,3.63A12.78,12.78,0,0,1,724.51,125.43Z" style="fill:#ebebeb"></path><path d="M715.19,96.3c.1.14-.74.87-2.37,2.08-.89.64-1.88,1.36-3,2.15-.59.41-1.21.87-1.91,1.31l-2.29,1.2a52.7,52.7,0,0,1-27.41,6.9l-4.15-.19-4-.62c-.65-.11-1.3-.2-1.93-.32l-1.86-.5c-1.23-.34-2.44-.63-3.59-1A61.1,61.1,0,0,1,651.07,102c-6.24-3.78-9.28-7.22-9.05-7.44s3.65,2.59,9.94,5.86a70.33,70.33,0,0,0,11.45,4.68c1.11.33,2.28.57,3.46.87l1.78.45,1.86.28,3.8.56,4,.16a56.81,56.81,0,0,0,26.54-6l2.32-1c.71-.37,1.35-.77,2-1.11l3.18-1.75C714.05,96.61,715.08,96.16,715.19,96.3Z" style="fill:#ebebeb"></path><path d="M640.6,153c-.1-.14.74-.87,2.36-2.08l3-2.15c.6-.41,1.22-.87,1.91-1.31l2.3-1.2a52.7,52.7,0,0,1,27.41-6.9l4.15.19,4,.62c.65.11,1.3.2,1.93.32l1.86.5c1.22.34,2.43.63,3.58,1a60,60,0,0,1,11.63,5.35c6.25,3.78,9.29,7.22,9.06,7.44s-3.65-2.59-9.95-5.86a69.83,69.83,0,0,0-11.44-4.68c-1.12-.32-2.28-.57-3.46-.87l-1.79-.45-1.85-.28-3.81-.55-4-.16a56.69,56.69,0,0,0-26.54,6l-2.32,1c-.71.37-1.35.77-2,1.11l-3.18,1.75C641.74,152.67,640.7,153.13,640.6,153Z" style="fill:#ebebeb"></path><path d="M724.49,126.51c0,.71-20.91.77-46.64.15s-46.6-1.71-46.58-2.42,20.89-.77,46.64-.14S724.5,125.8,724.49,126.51Z" style="fill:#ebebeb"></path><path d="M675.73,170.86c-.71,0-.78-20.89-.15-46.62s1.7-46.58,2.41-46.57.77,20.89.15,46.63S676.43,170.88,675.73,170.86Z" style="fill:#ebebeb"></path><path d="M675.73,170.79c-.18.27-5.31-3.21-11.24-11.1a62.42,62.42,0,0,1-8.33-15.12,56.08,56.08,0,0,1-3.61-20.89A53.38,53.38,0,0,1,657.26,103a64.88,64.88,0,0,1,9.1-14.66c6.28-7.59,11.46-11,11.63-10.68s-4.44,4.11-10.2,11.8a69.74,69.74,0,0,0-8.37,14.48,53.72,53.72,0,0,0-4.31,19.79,56.63,56.63,0,0,0,3.27,20A67.21,67.21,0,0,0,666,158.65C671.36,166.59,676,170.51,675.73,170.79Z" style="fill:#ebebeb"></path><path d="M679,77.68c.18-.27,5.32,3.22,11.24,11.1a62.85,62.85,0,0,1,8.34,15.13,56.24,56.24,0,0,1,3.6,20.89,53.33,53.33,0,0,1-4.7,20.67,64.62,64.62,0,0,1-9.11,14.67c-6.28,7.58-11.45,11-11.63,10.68s4.44-4.11,10.2-11.8a69.74,69.74,0,0,0,8.37-14.48,53.81,53.81,0,0,0,4.31-19.79,56.85,56.85,0,0,0-3.26-20,67.42,67.42,0,0,0-7.6-14.89C683.4,81.88,678.77,78,679,77.68Z" style="fill:#ebebeb"></path><path d="M32.13,230s-10.29,1.92-3.44,24.34S41,288.24,41,288.24s1,5.11-3.14,5.14S25.13,290.43,22.47,295c-2.75,4.77.1,10.24,6.86,15.79s21.14,18.25,22.44,19.4,2.31,3.61-.51,4.09-23.1-1-23.21,8.69,21.28,22,23.59,23.42,2.72,2.55,2.28,3.88-7.21.19-13,0-12.51.64-12.11,6.22,12,19.19,44.27,28.23L88.32,408,99,396.5c21.27-25.95,22.91-43.73,20-48.53s-8.85-1.6-13.49,1.86S96,358.1,94.85,357.27s-1.46-2-.36-4.48,11.5-24.87,5.86-32.72-21.4,5-24,6.21-3.15-1.39-2.76-3,4.88-20.34,7.23-28.77,1.55-14.54-3.45-16.86c-4.82-2.24-10.15,5.13-13.57,7.49s-5.51-2.4-5.51-2.4-2.11-12.53-9.37-34.82-17-17.8-17-17.8" style="fill:#ebebeb"></path><path d="M88.48,411.72C83.21,395.33,74.33,366,66.59,340.93s-14.79-47.82-20-64.24c-2.6-8.19-4.7-14.83-6.16-19.44L38.79,252l-.42-1.37a4.77,4.77,0,0,1-.13-.48s.06.15.17.46.27.78.47,1.36l1.76,5.26c1.52,4.57,3.67,11.2,6.31,19.39,5.26,16.4,12.35,39.1,20.1,64.2S83.62,395.2,88.8,411.62" style="fill:#e0e0e0"></path><path d="M34.34,299.68a5.55,5.55,0,0,1,1,.49c.64.34,1.56.85,2.68,1.5,2.23,1.3,5.28,3.18,8.6,5.31l8.49,5.48,2.58,1.65a5,5,0,0,1,.92.64,4.9,4.9,0,0,1-1-.48c-.64-.34-1.55-.85-2.66-1.51-2.23-1.33-5.25-3.24-8.57-5.37L37.85,302l-2.59-1.63A4.7,4.7,0,0,1,34.34,299.68Z" style="fill:#e0e0e0"></path><path d="M59.84,314c-.11-.07,3.48-6.52,8-14.4s8.33-14.23,8.44-14.16-3.47,6.51-8,14.4S60,314,59.84,314Z" style="fill:#e0e0e0"></path><path d="M70,353.05a5.29,5.29,0,0,1,.79-.84l2.26-2.16c1.9-1.83,4.52-4.37,7.3-7.28s5.23-5.61,7-7.59l2.07-2.34a5.18,5.18,0,0,1,.81-.82,5.94,5.94,0,0,1-.66.94c-.45.59-1.11,1.43-2,2.45-1.68,2-4.08,4.79-6.88,7.7s-5.45,5.42-7.42,7.19c-1,.88-1.79,1.58-2.36,2.05A5.52,5.52,0,0,1,70,353.05Z" style="fill:#e0e0e0"></path><path d="M44.09,345.21a4.31,4.31,0,0,1,1,.21l2.8.72c2.36.64,5.6,1.54,9.18,2.58s6.81,2,9.14,2.71l2.76.87a3.93,3.93,0,0,1,1,.39,5.05,5.05,0,0,1-1-.21l-2.8-.72c-2.36-.64-5.6-1.55-9.18-2.58s-6.81-2-9.14-2.71l-2.76-.87A4.47,4.47,0,0,1,44.09,345.21Z" style="fill:#e0e0e0"></path><path d="M48.67,380.86a8.1,8.1,0,0,1,1.34.27l3.59.92c3,.8,7.19,1.93,11.79,3.21s8.75,2.46,11.75,3.34l3.55,1.07a7.68,7.68,0,0,1,1.28.45,7,7,0,0,1-1.33-.27l-3.59-.92c-3-.8-7.19-1.93-11.79-3.21s-8.75-2.46-11.76-3.34L50,381.32A8.63,8.63,0,0,1,48.67,380.86Z" style="fill:#e0e0e0"></path><path d="M81.24,389.68a8,8,0,0,1,1-1.09c.72-.73,1.64-1.69,2.76-2.85,2.33-2.4,5.54-5.74,9-9.52s6.46-7.28,8.63-9.83l2.57-3a8.69,8.69,0,0,1,1-1.07,7.27,7.27,0,0,1-.84,1.19c-.57.75-1.4,1.82-2.46,3.12-2.1,2.61-5.09,6.15-8.53,9.94s-6.69,7.09-9.08,9.44c-1.2,1.17-2.18,2.1-2.88,2.74A10,10,0,0,1,81.24,389.68Z" style="fill:#e0e0e0"></path><path d="M631.37,445.41c-24.32-14.3-31.88-43.8-33.07-70.74-.2-4.5-1.06-9.19.77-13.3s6.59-7.18,10.76-5.6c3.45,1.31,5.21,5.07,7.32,8.13a26.32,26.32,0,0,0,11.31,9.23c3,1.26,6.57,1.89,9.27.11,3.71-2.44,3.75-7.82,3.37-12.28L639,336c-.38-4.46-.75-9,.31-13.35s3.81-8.52,8-10,9.6.52,10.84,4.81c.51,1.79.29,3.71.56,5.55s1.29,3.82,3.09,4.2,3.51-1,4.74-2.43c4.25-4.86,6.92-10.91,9.39-16.91s4.85-12.13,8.64-17.37,9.27-9.59,15.64-10.45,13.47,2.55,15.58,8.7-1.06,12.83-4.66,18.24a100,100,0,0,1-19.19,21.39c-1.33,1.1-2.77,2.3-3.18,4-.74,3.05,2.31,5.78,5.33,6.53,3.41.85,7,.22,10.5.36s7.4,1.38,9,4.56c2.19,4.42-1.25,9.5-4.76,12.92a85.65,85.65,0,0,1-24.11,16.55c-3.19,1.46-6.57,2.78-9,5.3s-3.75,6.64-1.91,9.66,6,3.71,9.42,2.8,6.32-3,9.5-4.5c6-2.8,13.9-3,18.24,2,2.86,3.28,3.46,8.12,2.48,12.37s-3.35,8-5.9,11.56c-8.93,12.29-20.79,22.56-34.63,28.6s-26.91,8.41-41.45,4.34" style="fill:#f5f5f5"></path><path d="M637,428a401,401,0,0,1,12.51-44.28l3.87-11.44c1.28-3.75,2.55-7.48,4-11a200.63,200.63,0,0,1,9.6-20c3.36-6.21,6.78-12,10-17.35s6.37-10.31,9.41-14.7a158.41,158.41,0,0,1,15.85-19.61c2-2.16,3.69-3.79,4.82-4.87l1.29-1.23a3.94,3.94,0,0,1,.45-.4s-.12.17-.4.46l-1.23,1.29c-1.09,1.12-2.69,2.78-4.7,5a167.21,167.21,0,0,0-15.6,19.73c-3,4.39-6.09,9.35-9.3,14.72s-6.6,11.16-9.93,17.36a200.32,200.32,0,0,0-9.52,19.93c-1.46,3.55-2.71,7.24-4,11L650.28,384a411.28,411.28,0,0,0-12.55,44.19" style="fill:#e0e0e0"></path><path d="M657.62,361.21a9.26,9.26,0,0,1-.58-1.87c-.33-1.21-.75-3-1.24-5.18-1-4.4-2.12-10.51-3.36-17.26s-2.46-12.82-3.5-17.19c-.51-2.18-1-3.95-1.26-5.16a9.81,9.81,0,0,1-.41-1.92,8,8,0,0,1,.71,1.82c.41,1.19.94,2.94,1.52,5.12,1.19,4.34,2.52,10.43,3.75,17.18L656.37,354c.39,2.08.72,3.83,1,5.23A8.38,8.38,0,0,1,657.62,361.21Z" style="fill:#e0e0e0"></path><path d="M714.16,346a11.84,11.84,0,0,1-2.27.45c-1.46.25-3.58.59-6.18,1.1-5.21,1-12.36,2.58-20.17,4.7s-14.8,4.35-19.8,6.1c-2.51.87-4.53,1.62-5.92,2.13a12.69,12.69,0,0,1-2.2.72,13.15,13.15,0,0,1,2.08-1c1.36-.61,3.35-1.44,5.84-2.38,5-1.9,12-4.23,19.78-6.36A202.23,202.23,0,0,1,705.61,347c2.62-.43,4.76-.69,6.24-.84A11.77,11.77,0,0,1,714.16,346Z" style="fill:#e0e0e0"></path><path d="M637.61,426.91a2.73,2.73,0,0,1-.45-.67c-.3-.54-.68-1.2-1.14-2-1-1.74-2.34-4.3-4-7.48-3.28-6.36-7.54-15.28-12.1-25.19s-8.74-18.86-11.88-25.27l-3.74-7.59c-.41-.83-.74-1.51-1-2.07a2.88,2.88,0,0,1-.3-.75,3.76,3.76,0,0,1,.44.67l1.15,2c1,1.74,2.34,4.29,4,7.47,3.28,6.36,7.54,15.28,12.1,25.19s8.73,18.86,11.88,25.28c1.54,3.11,2.8,5.68,3.74,7.58.41.83.74,1.51,1,2.07A2.88,2.88,0,0,1,637.61,426.91Z" style="fill:#e0e0e0"></path><path d="M711.93,396.39a3.32,3.32,0,0,1-.73.37l-2.16.92-8,3.28c-6.72,2.77-16,6.71-26.15,11.07s-19.48,8.23-26.26,10.86c-3.39,1.32-6.14,2.36-8.06,3l-2.21.77a2.63,2.63,0,0,1-.79.21,4,4,0,0,1,.73-.37l2.16-.91,8-3.29c6.71-2.77,15.95-6.71,26.15-11.07s19.48-8.22,26.26-10.86c3.39-1.32,6.14-2.36,8-3l2.22-.77A3.09,3.09,0,0,1,711.93,396.39Z" style="fill:#e0e0e0"></path><path d="M679.54,220.39A15.19,15.19,0,0,1,682,232a26.72,26.72,0,0,1-5,11c-4.6,6.37-12.33,11.06-19.56,14.16-2.91-8.23.68-17.7,2.8-22.38,3.36-7.41,13.93-18.77,19.28-14.37" style="fill:#f5f5f5"></path><path d="M657.8,272.12a12.92,12.92,0,0,1,9.66-8.65,17.16,17.16,0,0,1,13,2.76c1.74,1.17,3.41,2.81,3.61,4.9a5.53,5.53,0,0,1-2.67,4.92,11.23,11.23,0,0,1-5.61,1.52c-6.72.32-13.28-.6-18-5.45" style="fill:#f5f5f5"></path><path d="M642.16,284.05a24.89,24.89,0,0,1,3.28-4,24.49,24.49,0,0,1,4.34-3.67,53.53,53.53,0,0,1,5.92-3.6,25.91,25.91,0,0,1,12.22-2.91,18.28,18.28,0,0,1,3.79.54,4,4,0,0,1,1.32.49c0,.15-2-.43-5.12-.4a27.69,27.69,0,0,0-11.82,3.07,62.15,62.15,0,0,0-5.86,3.49,26.17,26.17,0,0,0-4.34,3.43A39,39,0,0,1,642.16,284.05Z" style="fill:#e0e0e0"></path><path d="M672.26,229.75a16.18,16.18,0,0,1-1.06,2.41c-.73,1.52-1.82,3.71-3.18,6.41-2.74,5.39-6.6,12.79-11.06,20.86s-8.71,15.27-11.89,20.41c-1.59,2.57-2.91,4.63-3.84,6A13.75,13.75,0,0,1,639.7,288a15.42,15.42,0,0,1,1.24-2.32l3.59-6.18c3.05-5.22,7.2-12.45,11.66-20.51l11.28-20.73L670.9,232A13.59,13.59,0,0,1,672.26,229.75Z" style="fill:#e0e0e0"></path><path d="M647.68,269.87a30.2,30.2,0,0,0-7.25-26.63c-1.66-1.78-4.08-3.47-6.36-2.61s-3,3.74-3,6.18a25.83,25.83,0,0,0,16.22,23.6" style="fill:#f5f5f5"></path><path d="M639.33,250.29s.37.34.91,1,1.28,1.76,2.14,3.09a34.08,34.08,0,0,1,4.83,11.45,21.52,21.52,0,0,1,.18,6.9,20.7,20.7,0,0,1-1.6,5.4,21,21,0,0,1-1.85,3.29c-.51.73-.81,1.11-.86,1.08s1-1.72,2.14-4.61a21,21,0,0,0,1.12-11.9,38.33,38.33,0,0,0-4.49-11.29A41.75,41.75,0,0,1,639.33,250.29Z" style="fill:#e0e0e0"></path></g><g id="background-simple"><path d="M391.73,61.59l3.9-3.22c32.9-27.11,77.89-34.66,116.81-18.25a109.43,109.43,0,0,1,14.5,7.42c33.48,20.38,55.41,58.74,56.22,98.34.47,23.29-5.67,47.77,3.18,69.22,11.52,27.91,43.47,39.82,72.07,48.82s60.55,21,71.94,49c7.14,17.51-.63,48.27-7.85,65.87-19.1,46.58-62.11,67.06-111.54,73.46s-99.61-9-142.4-34.36c-59.95-35.52-108.81-92.64-126.41-160.65S341.45,110.8,391.73,61.59Z" style="fill:#f5f5f5"></path><circle cx="122.96" cy="307.78" r="104.79" style="fill:#f5f5f5"></circle></g><g id="Page"><rect x="72.4" y="65.2" width="586.81" height="382.53" style="fill:#fff"></rect><rect x="116.24" y="65.25" width="257.06" height="382.47" style="fill:#e0e0e0"></rect><path d="M233.54,65.25s.08.28.22.84l.26,1.06c.1.42.15.91.24,1.47a12.91,12.91,0,0,1,.18,1.89,15.88,15.88,0,0,1,0,2.29,8.16,8.16,0,0,1-.1,1.28c-.06.44-.11.9-.18,1.37a26.63,26.63,0,0,1-.75,3,28.72,28.72,0,0,1-8.85,12.72c-.57.5-1.16,1-1.8,1.48s-1.26,1-1.94,1.43c-1.36.91-2.82,1.75-4.32,2.6-3,1.7-6.28,3.39-9,6.06A22.63,22.63,0,0,0,201.74,113a51,51,0,0,0-1.57,12.86c-.09,4.5.07,9.17-.4,14a37.21,37.21,0,0,1-1.36,7.21,26.34,26.34,0,0,1-1.32,3.52,22.58,22.58,0,0,1-2,3.27,20.22,20.22,0,0,1-5.59,5.35,16.1,16.1,0,0,1-3.57,1.72,14,14,0,0,1-4,.69,12.75,12.75,0,0,1-7.65-2.53,17.62,17.62,0,0,1-5.08-6.48,31.6,31.6,0,0,1-2.53-8,61.32,61.32,0,0,1-.8-8.47c-.14-2.84-.26-5.71-.62-8.56a30.6,30.6,0,0,0-2.12-8.35,18.89,18.89,0,0,0-5.34-7.06,46.87,46.87,0,0,0-7.49-4.75,60.26,60.26,0,0,1-7.56-4.57,27.5,27.5,0,0,1-6.06-6.22,35.52,35.52,0,0,1-6.22-15.54,36.44,36.44,0,0,1-.24-8.14,31.85,31.85,0,0,1,1.8-7.74l.06-.15h.16l73,.11,20.79.06,5.5,0,1.41,0h.47a4.68,4.68,0,0,1-.49,0l-1.44,0-5.54,0-20.83.06-72.91.11.22-.15A31.33,31.33,0,0,0,130.8,73a35.47,35.47,0,0,0,.24,8,35.11,35.11,0,0,0,6.14,15.31,27,27,0,0,0,6,6.11,60.27,60.27,0,0,0,7.49,4.52,47.69,47.69,0,0,1,7.58,4.81A19.46,19.46,0,0,1,163.7,119a31,31,0,0,1,2.15,8.5c.37,2.88.49,5.75.63,8.6a59.74,59.74,0,0,0,.79,8.4,30.26,30.26,0,0,0,2.48,7.86,17,17,0,0,0,4.92,6.3,12.17,12.17,0,0,0,7.34,2.44,13.65,13.65,0,0,0,3.81-.65,16,16,0,0,0,3.46-1.67,19.73,19.73,0,0,0,5.47-5.22,20.34,20.34,0,0,0,1.91-3.2,25.17,25.17,0,0,0,1.3-3.45,36.66,36.66,0,0,0,1.36-7.12c.47-4.76.32-9.43.42-13.94a51.07,51.07,0,0,1,1.62-13,22.75,22.75,0,0,1,5.88-10.44c2.79-2.71,6.11-4.4,9.1-6.09,1.5-.84,3-1.67,4.3-2.57.68-.45,1.32-.92,1.94-1.41s1.22-1,1.79-1.46a28.55,28.55,0,0,0,8.84-12.56,24.9,24.9,0,0,0,.77-2.92c.08-.47.13-.92.19-1.36a8.12,8.12,0,0,0,.12-1.27,15.9,15.9,0,0,0,0-2.28,14.46,14.46,0,0,0-.15-1.87,21.67,21.67,0,0,0-.44-2.52C233.6,65.56,233.54,65.25,233.54,65.25Z" style="fill:#f5f5f5"></path><path d="M320.16,65.2s0,1.09-.19,3.14a46,46,0,0,1-1.67,8.87A37.17,37.17,0,0,1,312,90,27.74,27.74,0,0,1,305.41,96a29.24,29.24,0,0,1-9.2,3.93c-6.89,1.64-14.72,1.18-22.86,0-4.09-.56-8.29-1.3-12.65-1.74-2.18-.23-4.39-.37-6.64-.44a55.83,55.83,0,0,0-6.82.25,39.89,39.89,0,0,0-6.85,1.35,29,29,0,0,0-6.47,2.94,27.66,27.66,0,0,0-9.76,10.78,55.24,55.24,0,0,0-5,14.4c-1.09,5.08-1.78,10.32-2.75,15.59A64.79,64.79,0,0,1,212,158.36a44,44,0,0,1-34.58,25.23,36,36,0,0,1-13.5-1.16,26.57,26.57,0,0,1-11.09-6.29,31.75,31.75,0,0,1-6.66-9.9c-1.61-3.49-2.81-7-4.09-10.22a139.35,139.35,0,0,0-7.87-17.16,77,77,0,0,0-8-11.77,61.61,61.61,0,0,0-6.29-6.45l-1.81-1.49-.61-.52.64.48c.42.33,1,.8,1.84,1.45a58,58,0,0,1,6.38,6.39,76.1,76.1,0,0,1,8.09,11.77,136.2,136.2,0,0,1,8,17.17c1.3,3.26,2.51,6.72,4.12,10.18a31.17,31.17,0,0,0,6.59,9.76A26.25,26.25,0,0,0,164,182a35.62,35.62,0,0,0,13.32,1.12,43.52,43.52,0,0,0,34.15-25A63.77,63.77,0,0,0,215.87,143c1-5.24,1.66-10.49,2.76-15.6a55.42,55.42,0,0,1,5.08-14.53,28.33,28.33,0,0,1,9.94-11,29.81,29.81,0,0,1,6.6-3,41.12,41.12,0,0,1,6.94-1.36c9.32-.93,18.1.84,26.22,2s15.89,1.63,22.71,0a28.84,28.84,0,0,0,9.11-3.85,27.57,27.57,0,0,0,6.5-6,37.47,37.47,0,0,0,6.38-12.62,48.05,48.05,0,0,0,1.76-8.83c.13-1,.16-1.81.21-2.33S320.16,65.2,320.16,65.2Z" style="fill:#f5f5f5"></path><path d="M373.3,236s0,.33,0,1a12.82,12.82,0,0,1-.58,2.74,12,12,0,0,1-2.15,4,8.07,8.07,0,0,1-2.19,1.92,5.55,5.55,0,0,1-3.21.79c-4.7-.7-9.78-4.11-13.85-9.35a50.32,50.32,0,0,1-5.51-9.09,86.38,86.38,0,0,1-4.22-11.14c-1.23-4-2.32-8.23-3.49-12.63a138.67,138.67,0,0,0-4.16-13.54A60.29,60.29,0,0,0,327,177.17a34.07,34.07,0,0,0-11.79-10.6,40.59,40.59,0,0,0-16.18-4.2,87,87,0,0,0-17.56.95c-5.94.8-12,1.89-18.15,2.43s-12.6.57-18.81-1.12a28.1,28.1,0,0,1-8.68-3.94,22.65,22.65,0,0,1-3.59-3.1,25.07,25.07,0,0,1-2.84-3.76,31,31,0,0,1-4-17.75,33.37,33.37,0,0,1,5.46-16.72,26.1,26.1,0,0,1,5.91-6.26,29.71,29.71,0,0,1,7.41-4,47.78,47.78,0,0,1,15.9-2.67,140.76,140.76,0,0,1,15.2.84,136.25,136.25,0,0,0,14.14.77,46.8,46.8,0,0,0,12.87-1.8,40.7,40.7,0,0,0,10.66-5.06,43.76,43.76,0,0,0,16.62-21.38,42.87,42.87,0,0,0,2.23-10.45c.07-1.23.06-2.16.09-2.79s0-.95,0-.95,0,.32,0,.95,0,1.56,0,2.79a42.1,42.1,0,0,1-2.15,10.52,44,44,0,0,1-16.62,21.58,40.92,40.92,0,0,1-10.74,5.14,46.87,46.87,0,0,1-13,1.85,136.52,136.52,0,0,1-14.19-.74,143.08,143.08,0,0,0-15.15-.82,47.46,47.46,0,0,0-15.74,2.67,28.87,28.87,0,0,0-7.28,3.93,25.88,25.88,0,0,0-5.8,6.14,33,33,0,0,0-5.36,16.48,30.42,30.42,0,0,0,3.94,17.45,24.25,24.25,0,0,0,2.78,3.67,22.61,22.61,0,0,0,3.51,3,27.41,27.41,0,0,0,8.52,3.86c6.11,1.67,12.48,1.64,18.62,1.11s12.18-1.61,18.13-2.42a87.84,87.84,0,0,1,17.66-.94,41,41,0,0,1,16.37,4.28,34.36,34.36,0,0,1,11.94,10.76,59.92,59.92,0,0,1,6.95,13.54A137.5,137.5,0,0,1,338.47,204c1.16,4.4,2.24,8.63,3.45,12.62a85.36,85.36,0,0,0,4.17,11.11,50.7,50.7,0,0,0,5.44,9c4,5.22,9.05,8.61,13.63,9.33a5.39,5.39,0,0,0,3.11-.75,7.87,7.87,0,0,0,2.16-1.85,12.24,12.24,0,0,0,2.17-3.94,13,13,0,0,0,.62-2.71C373.27,236.28,373.3,236,373.3,236Z" style="fill:#f5f5f5"></path><path d="M373.3,228.82l-.89.15-1.11.15-1.55.07c-.58,0-1.24,0-2-.07-.36,0-.73-.11-1.12-.16a8,8,0,0,1-1.22-.24,16.46,16.46,0,0,1-5.41-2.33,22.13,22.13,0,0,1-5.37-5.08,34.64,34.64,0,0,1-4.32-7.67,50,50,0,0,1-2.81-9.71c-.69-3.52-1.14-7.28-1.64-11.22a99.4,99.4,0,0,0-2.09-12.25,39.62,39.62,0,0,0-5.17-12.32,24,24,0,0,0-10.87-9c-4.55-1.95-9.64-2.79-14.84-3.37a295.7,295.7,0,0,0-32.84-1.69c-5.7,0-11.51.23-17.39.6-2.94.19-5.89.43-8.87.69a38.27,38.27,0,0,1-9.07-.15A11.95,11.95,0,0,1,234,142.53a20.58,20.58,0,0,1,2.13-8.57,29.47,29.47,0,0,1,5.11-7,38.65,38.65,0,0,1,14.24-8.89,58.51,58.51,0,0,1,15.79-3.32c10.51-.8,20.49.19,29.81.19a73.86,73.86,0,0,0,13.41-1,34.37,34.37,0,0,0,11.62-4.1,28.19,28.19,0,0,0,8.21-7.59,37.73,37.73,0,0,0,4.74-8.84,45,45,0,0,0,1.4-4.32c.19-.7.41-1.4.61-2.08s.47-1.32.74-1.94c1.06-2.5,2.26-4.66,3.31-6.61s2-3.7,2.62-5.28a24.35,24.35,0,0,0,1.37-4.08,14.81,14.81,0,0,0,.41-2.61c.05-.6.09-.9.09-.9s0,.3,0,.9a14.33,14.33,0,0,1-.37,2.64,23,23,0,0,1-1.32,4.11c-.65,1.59-1.55,3.35-2.59,5.31s-2.23,4.13-3.26,6.62-1.53,5.4-2.71,8.35a37.65,37.65,0,0,1-4.74,8.92,28.36,28.36,0,0,1-8.29,7.71,34.59,34.59,0,0,1-11.73,4.19,74.91,74.91,0,0,1-13.49,1c-9.34,0-19.32-.95-29.77-.14a58.56,58.56,0,0,0-15.66,3.3,38.25,38.25,0,0,0-14.05,8.79,29,29,0,0,0-5,6.89,20.06,20.06,0,0,0-2.07,8.35,11.4,11.4,0,0,0,10.3,12.15,37.14,37.14,0,0,0,8.94.15c3-.25,5.94-.5,8.88-.69,5.89-.36,11.71-.56,17.42-.59a296.62,296.62,0,0,1,32.9,1.72c5.21.59,10.34,1.44,15,3.43A24.47,24.47,0,0,1,339,167.9a40.06,40.06,0,0,1,5.2,12.47,98.43,98.43,0,0,1,2.07,12.3c.48,3.94.93,7.69,1.6,11.19a49.86,49.86,0,0,0,2.75,9.67,35.23,35.23,0,0,0,4.24,7.63,22.15,22.15,0,0,0,5.29,5.06,16.36,16.36,0,0,0,5.34,2.35,9.17,9.17,0,0,0,1.2.25c.39.06.76.13,1.11.17.72,0,1.37.11,1.95.1l1.54-.05,1.11-.13C373,228.84,373.3,228.82,373.3,228.82Z" style="fill:#f5f5f5"></path><path d="M285,128.94l.41-.1,1.21-.27c1.08-.21,2.66-.58,4.73-1,4.15-.78,10.26-1.77,18-2.53a246.25,246.25,0,0,1,64,2.31l.2,0v.2c0,19.73,0,42,0,65.58v9l-.17.06a11.66,11.66,0,0,1-3.83.6,13,13,0,0,1-3.77-.74,16.58,16.58,0,0,1-3.38-1.73,18.74,18.74,0,0,1-2.86-2.46,17.91,17.91,0,0,1-3.87-6.3,30.84,30.84,0,0,1-1.65-7.08c-.57-4.77-.36-9.47-.5-14s-.63-9.06-2.27-13.07A19.5,19.5,0,0,0,348,152a20.9,20.9,0,0,0-4.74-4,36.81,36.81,0,0,0-11.08-4.3c-3.76-.87-7.46-1.36-11-1.82s-7-.81-10.24-1.09c-6.54-.56-12.46-.82-17.66-.9a62,62,0,0,1-7.25-.26,7.8,7.8,0,0,1-5.32-2.77,5.14,5.14,0,0,1-1-4.64,4.37,4.37,0,0,1,2.49-2.47,11.65,11.65,0,0,1,2.08-.65c.48-.11.73-.14.73-.14l-.71.19a12.54,12.54,0,0,0-2.06.69,4.26,4.26,0,0,0-2.38,2.43,4.93,4.93,0,0,0,1,4.47,7.63,7.63,0,0,0,5.21,2.65,63.8,63.8,0,0,0,7.22.22c5.2,0,11.13.28,17.68.82,3.27.27,6.7.61,10.26,1.06a111.05,111.05,0,0,1,11.07,1.8,37.12,37.12,0,0,1,11.22,4.33,21,21,0,0,1,4.85,4.07,19.9,19.9,0,0,1,3.38,5.56A38,38,0,0,1,354,170.47c.14,4.59-.06,9.27.51,14a30.09,30.09,0,0,0,1.63,7,17.37,17.37,0,0,0,3.76,6.13,18.1,18.1,0,0,0,2.78,2.38,16.48,16.48,0,0,0,3.26,1.68,13.12,13.12,0,0,0,3.61.7,11,11,0,0,0,3.64-.57L373,202V193.2c0-23.54,0-45.85,0-65.58l.2.23a249.49,249.49,0,0,0-63.89-2.49c-7.78.72-13.89,1.67-18,2.4-2.08.35-3.66.7-4.74.89l-1.22.22Z" style="fill:#f5f5f5"></path><path d="M359,92.45s.14,0,.4,0a4,4,0,0,1,1.14.11,7,7,0,0,1,3.61,2.1,7.36,7.36,0,0,1,2,5.82,5.8,5.8,0,0,1-1.65,3.34,7.5,7.5,0,0,1-3.49,1.95,7.33,7.33,0,0,1-4-.12,5.54,5.54,0,0,1-3-2.25,6.29,6.29,0,0,1-1-3.23,7.52,7.52,0,0,1,.51-2.89A6.26,6.26,0,0,1,356.23,94l.6-.29a3.23,3.23,0,0,1,.46-.14c.25-.07.39-.1.39-.08a1.19,1.19,0,0,1-.36.18c-.11.05-.27.1-.43.18l-.56.32a6.39,6.39,0,0,0-2.42,3.17,6.56,6.56,0,0,0,.51,5.73,5.13,5.13,0,0,0,2.74,2,7,7,0,0,0,3.71.09,7.19,7.19,0,0,0,3.26-1.79,5.39,5.39,0,0,0,1.53-3.06,7,7,0,0,0-1.8-5.5,7.23,7.23,0,0,0-3.39-2.16,5.77,5.77,0,0,0-1.1-.2A1.2,1.2,0,0,1,359,92.45Z" style="fill:#f5f5f5"></path><path d="M309.78,443.77s.05-.45.17-1.31a11.87,11.87,0,0,1,.29-1.61,18.87,18.87,0,0,1,.58-2.17c1-3.28,3.3-7.83,7.29-12.94s9.52-10.84,14.35-18.67a78.36,78.36,0,0,0,11-28.94,65.22,65.22,0,0,0,.37-18c-.16-1.57-.47-3.13-.75-4.71-.16-.79-.36-1.57-.54-2.36s-.38-1.58-.62-2.36a60.12,60.12,0,0,0-3.5-9.34,55.46,55.46,0,0,0-5.21-8.92,51.27,51.27,0,0,0-7-8,52.66,52.66,0,0,0-8.73-6.63c-3.16-1.94-6.52-3.67-9.9-5.47a85.23,85.23,0,0,1-10-6,31.79,31.79,0,0,1-8.35-8.48A28.76,28.76,0,0,1,285,286.44a42,42,0,0,1,.09-12.41,58.3,58.3,0,0,1,3.33-12.17A94.31,94.31,0,0,1,294,250.31c4.16-7.53,9-14.83,12.71-22.82s6-16.6,5.38-25.16a36.91,36.91,0,0,0-1-6.29,29.74,29.74,0,0,0-2.23-5.9,25.69,25.69,0,0,0-3.47-5.19c-.74-.72-1.42-1.52-2.21-2.18a24.72,24.72,0,0,0-2.46-1.89,33.63,33.63,0,0,0-11.28-4.68,66,66,0,0,0-12-1.53,124,124,0,0,0-81,25c-5,3.8-9.69,7.69-14.26,11.24a125.49,125.49,0,0,1-13.55,9.46,64.73,64.73,0,0,1-13.39,6.11,43.61,43.61,0,0,1-12.63,2.1A35.78,35.78,0,0,1,132,227a28.77,28.77,0,0,1-12.62-7.68l-.82-.88-.65-.83-.55-.7-.4-.62-.71-1.11s.27.36.75,1.08l.42.61.56.69.65.82.82.87a28.93,28.93,0,0,0,12.61,7.55,35.74,35.74,0,0,0,10.59,1.52,43.49,43.49,0,0,0,12.54-2.14A64,64,0,0,0,168.54,220,125.85,125.85,0,0,0,182,210.57c4.56-3.56,9.2-7.46,14.25-11.27a122.68,122.68,0,0,1,16.59-10.63,124.6,124.6,0,0,1,64.66-14.5,66.59,66.59,0,0,1,12.07,1.54A34,34,0,0,1,301,180.46a24.39,24.39,0,0,1,2.5,1.92c.81.68,1.5,1.49,2.26,2.23a26.18,26.18,0,0,1,3.55,5.29,30.22,30.22,0,0,1,2.27,6,37,37,0,0,1,1,6.39c.64,8.66-1.6,17.46-5.43,25.41s-8.58,15.34-12.72,22.85A93.92,93.92,0,0,0,288.9,262a57.34,57.34,0,0,0-3.3,12.07,41.25,41.25,0,0,0-.1,12.25,28.25,28.25,0,0,0,4.2,11.17,31.59,31.59,0,0,0,8.22,8.36,85.09,85.09,0,0,0,9.92,5.95c3.37,1.8,6.73,3.53,9.92,5.49a53,53,0,0,1,8.79,6.7,52.23,52.23,0,0,1,7,8.12,56.11,56.11,0,0,1,5.23,9,60,60,0,0,1,3.51,9.42c.24.79.46,1.58.63,2.38s.37,1.58.53,2.37c.28,1.59.59,3.16.75,4.74a65.58,65.58,0,0,1-.41,18.15,78.37,78.37,0,0,1-11.12,29c-4.86,7.85-10.52,13.51-14.43,18.65s-6.36,9.59-7.35,12.84a18.67,18.67,0,0,0-.6,2.16,12.71,12.71,0,0,0-.32,1.59C309.87,443.33,309.78,443.77,309.78,443.77Z" style="fill:#f5f5f5"></path><path d="M116.28,373.86s0,.45,0,1.31,0,2.17,0,3.85c0,3.38,0,8.35,0,14.74,0,12.79,0,31.24.05,54l-.19-.2,68.62,0-.11,0a22.82,22.82,0,0,0,6.49-5.13,36.19,36.19,0,0,0,4.94-6.94,28,28,0,0,0,3-8.1c.54-2.84.48-6-1.11-8.47a19.06,19.06,0,0,0-6.19-6.35,90.86,90.86,0,0,0-8-4.56,42.45,42.45,0,0,1-7.83-5.14l-.89-.79-.8-.88a12.9,12.9,0,0,1-1.48-1.88,15.77,15.77,0,0,1-1.21-2.07,17.79,17.79,0,0,1-.85-2.24,23.19,23.19,0,0,1-.31-11,57.35,57.35,0,0,1,3.13-10.46c2.61-6.72,5.43-13.24,8.4-19.56s6.09-12.43,9.31-18.31a80.46,80.46,0,0,0,4.34-8.92,28.59,28.59,0,0,0,2.13-9.36,18.77,18.77,0,0,0-1.82-9.1,13,13,0,0,0-2.69-3.66,14.07,14.07,0,0,0-1.73-1.46c-.31-.22-.64-.39-1-.59a7.29,7.29,0,0,0-1-.54,17.1,17.1,0,0,0-4.22-1.38,22.35,22.35,0,0,0-4.39-.34,29.64,29.64,0,0,0-8.48,1.4,41.25,41.25,0,0,0-7.66,3.3,57.83,57.83,0,0,0-6.81,4.31,71.17,71.17,0,0,0-6,4.92c-1.84,1.74-3.6,3.49-5.19,5.31a89.54,89.54,0,0,0-8.32,11c-2.34,3.67-4.38,7.26-6.33,10.57-3.88,6.65-7,12.49-9.41,17.36s-4,8.74-5.06,11.4c-.53,1.32-.9,2.34-1.16,3s-.4,1-.4,1,.44-1.43,1.46-4.1,2.62-6.57,5-11.45,5.48-10.75,9.34-17.41c1.94-3.33,4-6.91,6.3-10.61a90,90,0,0,1,8.33-11.06c1.59-1.83,3.35-3.59,5.19-5.34a70.11,70.11,0,0,1,6-5,58.6,58.6,0,0,1,6.85-4.35,41.81,41.81,0,0,1,7.73-3.36,30.44,30.44,0,0,1,8.61-1.43,24.11,24.11,0,0,1,4.47.34,17.65,17.65,0,0,1,4.34,1.42,7.7,7.7,0,0,1,1,.55c.33.2.67.39,1,.61a15.13,15.13,0,0,1,1.79,1.5,13.58,13.58,0,0,1,2.79,3.79,19.29,19.29,0,0,1,1.88,9.32,29.05,29.05,0,0,1-2.15,9.53,80.65,80.65,0,0,1-4.36,9q-4.83,8.82-9.29,18.29c-3,6.31-5.77,12.82-8.38,19.53a57.77,57.77,0,0,0-3.1,10.36,22.76,22.76,0,0,0,.3,10.79,16.81,16.81,0,0,0,.82,2.18,14.38,14.38,0,0,0,1.18,2,11.47,11.47,0,0,0,1.43,1.82l.78.86.87.77a41.38,41.38,0,0,0,7.73,5.07,91.49,91.49,0,0,1,8,4.59,19.72,19.72,0,0,1,6.35,6.53,9.89,9.89,0,0,1,1.41,4.32,15.7,15.7,0,0,1-.25,4.49,28.45,28.45,0,0,1-3.08,8.25,36.79,36.79,0,0,1-5,7A23.33,23.33,0,0,1,185,448l-.05,0h0l-68.62-.05H116v-.19c0-22.74.09-41.2.12-54,0-6.38,0-11.35.06-14.73,0-1.68,0-3,0-3.83S116.28,373.86,116.28,373.86Z" style="fill:#f5f5f5"></path><path d="M228.34,444.63s.43-.17,1.28-.47l3.79-1.34c3.3-1.27,8.18-3.09,14.22-6a167,167,0,0,0,21.2-12.12c3.94-2.67,8.06-5.68,12.25-9.09s8.43-7.23,12.66-11.48c2.08-2.16,4.23-4.36,6.28-6.72s4.15-4.8,6.14-7.4a70.93,70.93,0,0,0,10.17-17.55A44.84,44.84,0,0,0,319,362.09a38.67,38.67,0,0,0-.18-11,32.67,32.67,0,0,0-3.65-10.69,27.1,27.1,0,0,0-7.69-8.63c-6.36-4.69-14.44-7-20.93-12.43a42.39,42.39,0,0,1-13.27-21.4,56.67,56.67,0,0,1-.7-26.21,99.85,99.85,0,0,1,9.08-25.53c2-4.12,4.31-8.07,6.37-12.08a55,55,0,0,0,4.91-12.45,27.17,27.17,0,0,0,0-13,17.1,17.1,0,0,0-7.22-10.28,16.69,16.69,0,0,0-5.85-2.38,23.74,23.74,0,0,0-6.29-.44,37.81,37.81,0,0,0-12.09,2.95,84.52,84.52,0,0,0-20.29,13.21,219.66,219.66,0,0,0-16.65,16.08c-5.2,5.43-10.15,10.8-15.22,15.72a139.61,139.61,0,0,1-15.55,13.26,81.16,81.16,0,0,1-16.39,9.3,54.39,54.39,0,0,1-16.62,4,34,34,0,0,1-15-2.44,44,44,0,0,1-11.35-6.86,64.11,64.11,0,0,1-7.84-8c-1.06-1.3-2-2.58-2.89-3.77s-1.64-2.37-2.34-3.46l-1.86-3.06-1.42-2.6c-.87-1.54-1.39-2.79-1.8-3.59s-.58-1.24-.58-1.24.22.41.63,1.21,1,2,1.84,3.57c.44.77.92,1.63,1.45,2.59l1.87,3c.71,1.09,1.51,2.22,2.35,3.44s1.85,2.46,2.91,3.75a62.54,62.54,0,0,0,7.84,7.91,43.74,43.74,0,0,0,11.3,6.78,33.75,33.75,0,0,0,14.87,2.38,54.07,54.07,0,0,0,16.5-4,81.48,81.48,0,0,0,16.3-9.28A140.92,140.92,0,0,0,209,243.2c5.05-4.91,10-10.29,15.18-15.72a220.88,220.88,0,0,1,16.68-16.14A85.17,85.17,0,0,1,261.27,198a38.36,38.36,0,0,1,12.25-3,24.76,24.76,0,0,1,6.42.45,17,17,0,0,1,6,2.45,17.64,17.64,0,0,1,7.45,10.58,27.58,27.58,0,0,1,0,13.27,55.68,55.68,0,0,1-4.94,12.57c-2.08,4-4.36,8-6.38,12.07a99.61,99.61,0,0,0-9,25.4,56,56,0,0,0,.69,26A41.75,41.75,0,0,0,286.86,319c6.38,5.31,14.44,7.67,20.89,12.42a27.59,27.59,0,0,1,7.82,8.79A33.25,33.25,0,0,1,319.26,351a38.86,38.86,0,0,1,.17,11.13,44.83,44.83,0,0,1-2.7,10.45,70.76,70.76,0,0,1-10.25,17.65c-2,2.6-4.05,5.08-6.17,7.4s-4.22,4.57-6.31,6.73c-4.24,4.25-8.53,8-12.71,11.48S273,422.26,269,424.92A165.06,165.06,0,0,1,247.72,437c-6.06,2.91-11,4.7-14.27,5.94l-3.81,1.29C228.78,444.5,228.34,444.63,228.34,444.63Z" style="fill:#f5f5f5"></path><path d="M115.66,307.14l.85.43c.55.29,1.37.73,2.48,1.24.55.27,1.17.55,1.87.83s1.47.58,2.31.87a26.83,26.83,0,0,0,6,1.35,23,23,0,0,0,7.63-.49,31.45,31.45,0,0,0,8.46-3.42c5.72-3.26,11.66-7.89,18.41-12.71a99.05,99.05,0,0,1,11-7A39.42,39.42,0,0,1,188,283.68a33.17,33.17,0,0,1,7.47-.28,26.65,26.65,0,0,1,7.56,1.55,21,21,0,0,1,6.87,4,17.73,17.73,0,0,1,4.52,6.8,20.88,20.88,0,0,1,1.11,8.29,40.14,40.14,0,0,1-1.47,8.44c-.75,2.78-1.71,5.53-2.65,8.31l-2.85,8.4c-1.9,5.66-3.92,11.41-5.81,17.25-.86,2.92-1.47,6.06-.64,9a10.75,10.75,0,0,0,5.95,6.66,16.7,16.7,0,0,0,9.07,1.45,30.29,30.29,0,0,0,8.79-2.7c5.57-2.56,10.7-6,16.53-7.69a20.77,20.77,0,0,1,8.88-.79,16,16,0,0,1,7.93,3.65,20.56,20.56,0,0,1,5.1,6.89,25.39,25.39,0,0,1,2.21,8.07,24.41,24.41,0,0,1-.52,8.15,34.27,34.27,0,0,1-2.77,7.45,54.78,54.78,0,0,1-8.88,12.26c-3.33,3.6-6.82,6.78-10.17,9.83s-6.68,5.86-9.88,8.51a278.6,278.6,0,0,1-32,22.76c-7.94,4.81-12.53,7.13-12.53,7.13s.27-.17.82-.48l2.41-1.37c2.12-1.22,5.24-3,9.19-5.46a286.71,286.71,0,0,0,31.93-22.86c3.18-2.66,6.49-5.48,9.84-8.53s6.82-6.24,10.12-9.82a54.24,54.24,0,0,0,8.79-12.18,27.32,27.32,0,0,0,3.22-15.34A22.54,22.54,0,0,0,259,356.43a15.39,15.39,0,0,0-7.68-3.53,20.33,20.33,0,0,0-8.67.78c-5.73,1.64-10.83,5.08-16.45,7.67a30.3,30.3,0,0,1-9,2.74,17.16,17.16,0,0,1-9.35-1.49,12.77,12.77,0,0,1-3.89-2.82,10.4,10.4,0,0,1-2.34-4.17c-.87-3.13-.23-6.37.64-9.31,1.9-5.89,3.92-11.61,5.83-17.27q1.44-4.25,2.86-8.41c.94-2.77,1.89-5.51,2.64-8.27a40.21,40.21,0,0,0,1.46-8.33,20.47,20.47,0,0,0-1.07-8.11,17.24,17.24,0,0,0-4.39-6.61,20.41,20.41,0,0,0-6.71-3.92,26.32,26.32,0,0,0-7.43-1.54,33.56,33.56,0,0,0-7.38.26,39,39,0,0,0-13.22,4.53,97.83,97.83,0,0,0-11,6.91c-6.76,4.8-12.72,9.41-18.49,12.66a32,32,0,0,1-8.54,3.42,23.47,23.47,0,0,1-7.72.44,27.31,27.31,0,0,1-6-1.4c-.85-.3-1.62-.59-2.31-.9s-1.32-.57-1.86-.85c-1.11-.53-1.92-1-2.47-1.29S115.66,307.14,115.66,307.14Z" style="fill:#f5f5f5"></path><path d="M198.31,446.72s.36-.18,1.07-.5l3.16-1.42c2.76-1.26,6.83-3.15,12-5.74a317.81,317.81,0,0,0,41.86-25.22c4.19-3,8.54-6.23,13-9.74a144.64,144.64,0,0,0,13.24-11.51,47.49,47.49,0,0,0,5.79-7.15,30.49,30.49,0,0,0,3.91-8.6,28.31,28.31,0,0,0,.76-9.69,37.17,37.17,0,0,0-2.36-9.73,65.72,65.72,0,0,0-10.83-17.77c-4.54-5.5-9.68-10.71-14.45-16.43s-9.21-12-11.7-19.38a49.45,49.45,0,0,1-1.59-23.19,95.52,95.52,0,0,1,6.68-22.38c1.47-3.55,3.1-7,4.74-10.41a37.66,37.66,0,0,0,3.66-10.51,15.22,15.22,0,0,0-2-10.45,10,10,0,0,0-3.93-3.47,11.91,11.91,0,0,0-5.11-1.17,16.15,16.15,0,0,0-5.17.8,22,22,0,0,0-4.69,2.25,60.64,60.64,0,0,0-8,6.46c-10.16,9.13-19.86,17.81-29.71,25S188.79,269.51,179,273a78,78,0,0,1-27.4,4.64A63.06,63.06,0,0,1,131,273.83a51.73,51.73,0,0,1-11.71-6.27c-2.4-1.88-3.6-2.93-3.6-2.93l.93.72c.62.47,1.51,1.22,2.73,2.13A53.49,53.49,0,0,0,131,273.64a63,63,0,0,0,20.58,3.69,78,78,0,0,0,27.28-4.7c9.71-3.48,19.66-9.08,29.44-16.25s19.49-15.82,29.64-25a60.9,60.9,0,0,1,8.1-6.51,22.36,22.36,0,0,1,4.8-2.31,16.78,16.78,0,0,1,5.33-.83,12.36,12.36,0,0,1,5.32,1.22,10.45,10.45,0,0,1,4.13,3.65,15.63,15.63,0,0,1,2,10.8A38.16,38.16,0,0,1,264,248.08c-1.64,3.41-3.27,6.85-4.74,10.39a96,96,0,0,0-6.64,22.26,49.2,49.2,0,0,0,1.57,22.95c2.46,7.26,6.87,13.54,11.6,19.21s9.88,10.91,14.45,16.44a66.51,66.51,0,0,1,10.89,17.92,37.14,37.14,0,0,1,2.37,9.86,28.66,28.66,0,0,1-.77,9.84,30.92,30.92,0,0,1-4,8.73,48.65,48.65,0,0,1-5.86,7.21,144.72,144.72,0,0,1-13.3,11.52c-4.43,3.51-8.79,6.72-13,9.73a312.49,312.49,0,0,1-42,25.1c-5.18,2.56-9.27,4.42-12,5.65l-3.18,1.37Z" style="fill:#f5f5f5"></path><path d="M116.28,336.73l.59-.42c.4-.29,1-.69,1.74-1.21,1.52-1.06,3.75-2.66,6.57-4.8s6.16-4.87,10-8.12,8.14-7,13.13-10.89a182.21,182.21,0,0,1,17-11.78,56.94,56.94,0,0,1,10.34-5.13,29.31,29.31,0,0,1,12.07-1.83,23.48,23.48,0,0,1,6.26,1.28,18.32,18.32,0,0,1,5.66,3.29,19.76,19.76,0,0,1,6.29,11.7,34.77,34.77,0,0,1-.54,13.87,70.21,70.21,0,0,1-4.85,13.46c-4.09,8.76-9.12,16.76-12.67,25.12a61.82,61.82,0,0,0-4,12.68,44,44,0,0,0-.76,6.4,33.55,33.55,0,0,0,.37,6.28,30.31,30.31,0,0,0,1.49,5.95,26.6,26.6,0,0,0,2.56,5.38,22.27,22.27,0,0,0,8,7.9c3.21,1.82,6.77,2.67,9.8,4.42a12.6,12.6,0,0,1,3.89,3.31,11.53,11.53,0,0,1,2.06,4.44,16.39,16.39,0,0,1-.58,9,17.38,17.38,0,0,1-4.23,6.84,51.93,51.93,0,0,1-5.26,4.62c-1.7,1.33-3.3,2.47-4.76,3.47a107,107,0,0,1-9.32,5.8s.2-.14.61-.39l1.8-1.1c1.58-1,3.9-2.46,6.79-4.48,1.45-1,3-2.16,4.73-3.49a52.08,52.08,0,0,0,5.2-4.64,16.91,16.91,0,0,0,4.13-6.73,16.24,16.24,0,0,0,.54-8.79,11.55,11.55,0,0,0-2-4.29,12.52,12.52,0,0,0-3.79-3.19c-3-1.7-6.52-2.55-9.81-4.39a22.91,22.91,0,0,1-8.22-8,27.52,27.52,0,0,1-2.61-5.47,31,31,0,0,1-1.53-6,34.52,34.52,0,0,1-.38-6.37,44.73,44.73,0,0,1,.76-6.47,62.25,62.25,0,0,1,4.06-12.79c3.56-8.41,8.6-16.42,12.67-25.14a69.68,69.68,0,0,0,4.82-13.36,34.48,34.48,0,0,0,.54-13.66,19.28,19.28,0,0,0-6.11-11.41,18,18,0,0,0-5.5-3.21,23.31,23.31,0,0,0-6.13-1.26,28.85,28.85,0,0,0-11.89,1.78,57.06,57.06,0,0,0-10.27,5.07,185.32,185.32,0,0,0-17,11.7c-5,3.86-9.31,7.61-13.17,10.83s-7.23,5.93-10,8.06C119.63,334.69,116.28,336.73,116.28,336.73Z" style="fill:#f5f5f5"></path><path d="M226.69,280.5a4.65,4.65,0,0,1-1.17-.85,6.85,6.85,0,0,1-2-3.63,6.41,6.41,0,0,1,.15-3,6.81,6.81,0,0,1,5.72-4.7,7.38,7.38,0,0,1,4.49,1.09,10.78,10.78,0,0,1,3.59,3.61,17.84,17.84,0,0,1,2,5.15c.44,1.86.7,3.8,1,5.79s.62,4.05,1,6.15c.65,4.2,1.33,8.62,2,13.19q.52,3.44,1.07,7c.34,2.36.81,4.75.93,7.23a12.52,12.52,0,0,1-1.46,7.17,8.34,8.34,0,0,1-2.47,2.68,6.12,6.12,0,0,1-3.42,1.12,8,8,0,0,1-6.1-3,13,13,0,0,1-2.54-6.08,43.13,43.13,0,0,1,.2-12.11c.49-3.75,1.05-7.23,1.23-10.44.42-6.4-1-11.62-2.86-14.66a16.59,16.59,0,0,0-3.59-4.21,1.73,1.73,0,0,1,.29.21c.19.16.49.36.84.68a14.92,14.92,0,0,1,2.64,3.21c1.94,3.06,3.43,8.32,3.05,14.79-.16,3.23-.7,6.73-1.17,10.48a43,43,0,0,0-.16,12,12.51,12.51,0,0,0,2.46,5.84,7.51,7.51,0,0,0,5.7,2.85,6.65,6.65,0,0,0,5.45-3.55,12.05,12.05,0,0,0,1.39-6.88c-.12-2.43-.58-4.82-.92-7.19s-.72-4.69-1.06-7c-.7-4.58-1.37-9-2-13.2q-.47-3.15-.92-6.15c-.31-2-.57-3.93-1-5.76a17,17,0,0,0-1.91-5,10.39,10.39,0,0,0-3.43-3.51,7.07,7.07,0,0,0-4.27-1.07,6.57,6.57,0,0,0-5.51,4.44,6.25,6.25,0,0,0-.19,2.91,7,7,0,0,0,1.83,3.6A10.79,10.79,0,0,0,226.69,280.5Z" style="fill:#f5f5f5"></path><path d="M339,249.56l.44.33,1.29,1c.56.45,1.27,1,2.05,1.7s1.72,1.47,2.69,2.44a79,79,0,0,1,14.23,18.18,81.88,81.88,0,0,1,6.58,14.56c.45,1.36.87,2.77,1.29,4.19s.79,2.9,1.06,4.41a50.5,50.5,0,0,1,1.3,9.37,21.69,21.69,0,0,1-1.77,9.77,13.8,13.8,0,0,1-7.25,7.28,15.57,15.57,0,0,1-10.66-.09,42.64,42.64,0,0,1-9.86-5A103.24,103.24,0,0,1,323.46,304a81.77,81.77,0,0,1-12.62-15.86,36.39,36.39,0,0,1-5.4-17.42,25.32,25.32,0,0,1,4.29-15.23,20.16,20.16,0,0,1,4.93-4.95,31.84,31.84,0,0,1,5.43-3.06,25.89,25.89,0,0,1,9.66-2.33,11.83,11.83,0,0,1,6.11,1.28,6.43,6.43,0,0,1,1.37.9c.29.23.43.36.43.36s-.17-.1-.47-.31a7,7,0,0,0-1.38-.86,12.06,12.06,0,0,0-6.06-1.17,25.7,25.7,0,0,0-9.54,2.4c-3.47,1.59-7.43,3.92-10.18,7.95a25,25,0,0,0-4.16,15,36.08,36.08,0,0,0,5.39,17.19,81.65,81.65,0,0,0,12.56,15.74,103.13,103.13,0,0,0,16.83,13.62,42.46,42.46,0,0,0,9.74,5,15.11,15.11,0,0,0,10.31.11,13.34,13.34,0,0,0,7-7,21.2,21.2,0,0,0,1.74-9.56,51.09,51.09,0,0,0-1.26-9.29c-.27-1.5-.71-2.94-1.05-4.38s-.83-2.82-1.27-4.18a82.27,82.27,0,0,0-6.49-14.51A84.68,84.68,0,0,0,352,262.52a86,86,0,0,0-6.68-7.33c-.95-1-1.89-1.75-2.66-2.47s-1.45-1.28-2-1.74l-1.25-1C339.11,249.69,339,249.56,339,249.56Z" style="fill:#f5f5f5"></path><path d="M319.52,447.4a1.64,1.64,0,0,1,0-.33c0-.22.06-.55.15-1a11.59,11.59,0,0,1,1.38-3.51c1.61-2.86,5.34-6.22,10.83-8.33,2.74-1.06,5.84-1.88,9.12-2.86a34.34,34.34,0,0,0,9.91-4.38,25.9,25.9,0,0,0,7.86-8.91,39.26,39.26,0,0,0,4.14-12.17,63.36,63.36,0,0,0,.65-12.9c-.17-4.19-.57-8.22-.94-12.06s-.68-7.5-.8-10.94a71.75,71.75,0,0,1,.28-9.56,40.82,40.82,0,0,1,3.5-13.35,24.61,24.61,0,0,1,2.58-4.37,2.45,2.45,0,0,1-.16.3l-.5.83a15.48,15.48,0,0,0-.78,1.39c-.31.54-.62,1.2-.95,1.94a41.28,41.28,0,0,0-3.32,13.3,73.18,73.18,0,0,0-.22,9.51c.14,3.42.47,7.07.85,10.91s.79,7.87,1,12.08a63.15,63.15,0,0,1-.65,13,39.61,39.61,0,0,1-4.2,12.33,26.38,26.38,0,0,1-8,9.06,34.52,34.52,0,0,1-10.06,4.39c-3.3,1-6.39,1.76-9.11,2.79-5.44,2-9.15,5.31-10.79,8.1A12.79,12.79,0,0,0,319.52,447.4Z" style="fill:#f5f5f5"></path><path d="M116.61,183.79s.08.15.22.45l.59,1.34a40.24,40.24,0,0,0,8.19,11.92,43.46,43.46,0,0,0,9.32,7.15,40.44,40.44,0,0,0,6.23,2.83c1.1.44,2.28.73,3.47,1.08.6.16,1.21.27,1.83.41a16.61,16.61,0,0,0,1.87.33,37,37,0,0,0,7.92.38,39.75,39.75,0,0,0,8.3-1.3,41.18,41.18,0,0,0,16-8.18c.62-.48,1.18-1,1.76-1.57s1.14-1.1,1.68-1.68a11.79,11.79,0,0,0,2.74-3.83,3.81,3.81,0,0,0,.17-2.26,3.32,3.32,0,0,0-1.3-1.83,5.67,5.67,0,0,0-4.55-.84,23.35,23.35,0,0,0-4.61,1.72,30.92,30.92,0,0,1-4.72,1.53,29.36,29.36,0,0,1-9.63.71A34.75,34.75,0,0,1,153,190.1a35.43,35.43,0,0,1-7.89-4.21,30.21,30.21,0,0,1-10.27-12.74c-2-4.81-2.83-9.59-3.77-13.86A54.78,54.78,0,0,0,127.65,148a26,26,0,0,0-4.85-7.4,16.81,16.81,0,0,0-4.47-3.37c-1.14-.59-1.8-.78-1.78-.82a4.49,4.49,0,0,1,.47.16,9.47,9.47,0,0,1,1.36.57,16.23,16.23,0,0,1,4.56,3.32,25.65,25.65,0,0,1,5,7.41,53.85,53.85,0,0,1,3.48,11.32c1,4.27,1.83,9,3.8,13.77a29.87,29.87,0,0,0,10.16,12.52,35.69,35.69,0,0,0,7.78,4.14,34.21,34.21,0,0,0,9,2,29.15,29.15,0,0,0,9.46-.7,30.9,30.9,0,0,0,4.63-1.51,24,24,0,0,1,4.72-1.75,6.18,6.18,0,0,1,5,.93,3.83,3.83,0,0,1,1.49,2.12,4.29,4.29,0,0,1-.19,2.56,12.05,12.05,0,0,1-2.85,4,22.86,22.86,0,0,1-1.7,1.71c-.59.54-1.16,1.1-1.79,1.58a41.44,41.44,0,0,1-16.16,8.25,39.27,39.27,0,0,1-8.4,1.3,37,37,0,0,1-8-.41,16.76,16.76,0,0,1-1.9-.35c-.62-.14-1.24-.26-1.84-.41-1.2-.36-2.39-.66-3.51-1.11a41.05,41.05,0,0,1-6.27-2.89,42.36,42.36,0,0,1-14.85-14.32,39.26,39.26,0,0,1-2.58-5l-.54-1.37C116.66,184,116.61,183.79,116.61,183.79Z" style="fill:#f5f5f5"></path><path d="M124.88,65.62s-.09.26-.29.75-.52,1.23-.88,2.2a31,31,0,0,0-1.82,8.89,22.7,22.7,0,0,0,.58,6.52,30.12,30.12,0,0,0,2.64,7.33A56.71,56.71,0,0,0,129.8,99a75.36,75.36,0,0,0,6.33,7.85c2.42,2.58,5.14,5.11,7.88,7.85a50.28,50.28,0,0,1,7.68,9.33,25.42,25.42,0,0,1,2.63,5.83,32.24,32.24,0,0,1,1.2,6.48c.43,4.44.24,9,.83,13.66a25.32,25.32,0,0,0,1.75,6.8,18.38,18.38,0,0,0,4,5.94,25,25,0,0,0,2.74,2.4A26.65,26.65,0,0,0,168,167a23.45,23.45,0,0,0,14.69,2.25,19.8,19.8,0,0,0,7.1-2.93,24.41,24.41,0,0,0,5.68-5.39,34.38,34.38,0,0,0,4-6.9,66.18,66.18,0,0,0,4.37-15.32c1-5.17,1.75-10.32,3.09-15.26a50.09,50.09,0,0,1,2.51-7.19,39.87,39.87,0,0,1,3.7-6.5,44.7,44.7,0,0,1,4.72-5.59,50.29,50.29,0,0,1,5.44-4.63,59.88,59.88,0,0,1,11.93-6.79,75.2,75.2,0,0,1,12.28-4.08,170,170,0,0,1,22.91-3.65c7.05-.74,13.45-1.31,19-2.13A35.08,35.08,0,0,0,297,81a17.34,17.34,0,0,0,5.54-3.42,12.94,12.94,0,0,0,4.15-7.87,10.47,10.47,0,0,0-.17-3.15s.07.26.18.79a8.78,8.78,0,0,1,.09,2.37,12.89,12.89,0,0,1-4.11,8,17.64,17.64,0,0,1-5.59,3.51,34.84,34.84,0,0,1-7.6,2c-5.58.86-12,1.45-19,2.22a170.36,170.36,0,0,0-22.85,3.7,74.38,74.38,0,0,0-12.2,4.08A58.83,58.83,0,0,0,223.59,100a47.58,47.58,0,0,0-5.38,4.6,43.68,43.68,0,0,0-4.66,5.53,39.93,39.93,0,0,0-3.65,6.41,48.66,48.66,0,0,0-2.47,7.12c-1.34,4.91-2.12,10-3.08,15.23a67,67,0,0,1-4.4,15.43,35.38,35.38,0,0,1-4.08,7,24.89,24.89,0,0,1-5.81,5.51,20.29,20.29,0,0,1-7.3,3,23.79,23.79,0,0,1-7.76.06,24.21,24.21,0,0,1-7.25-2.37,26.38,26.38,0,0,1-3.23-1.95,24.47,24.47,0,0,1-2.81-2.47,19.09,19.09,0,0,1-4.07-6.09,26.17,26.17,0,0,1-1.77-6.93c-.59-4.68-.39-9.27-.8-13.68a32.15,32.15,0,0,0-1.18-6.4,25.52,25.52,0,0,0-2.57-5.73,50,50,0,0,0-7.6-9.27c-2.72-2.74-5.44-5.28-7.86-7.88a74.56,74.56,0,0,1-6.33-7.91,57.1,57.1,0,0,1-4.68-7.73A30,30,0,0,1,122.23,84a23,23,0,0,1-.54-6.58,30.31,30.31,0,0,1,1.92-8.91C124.4,66.6,124.88,65.62,124.88,65.62Z" style="fill:#f5f5f5"></path><path d="M155.92,447.73s.21,0,.62,0l.75,0c.3,0,.65,0,1.05,0a18.43,18.43,0,0,0,6.62-2,30.33,30.33,0,0,0,8.68-6.65,23.53,23.53,0,0,0,3.88-5.61,19.5,19.5,0,0,0,1.78-7.4,19.87,19.87,0,0,0-6.49-15.7c-2.24-2.23-4.86-4.33-6.82-7.17a18.21,18.21,0,0,1-3-10,29.61,29.61,0,0,1,1.95-10.86A82.31,82.31,0,0,1,169.8,372a118.19,118.19,0,0,0,5.2-10.66,95.09,95.09,0,0,0,4-11.54,93.85,93.85,0,0,0,2.48-11.94,26.88,26.88,0,0,0,.32-5.92,11,11,0,0,0-1.69-5.44,6.92,6.92,0,0,0-4.65-2.82,11.87,11.87,0,0,0-5.47.66,24,24,0,0,0-4.94,2.41,46.87,46.87,0,0,0-4.47,3,70.67,70.67,0,0,0-13.82,14.74c-3.73,5.15-6.79,10.23-9.61,14.86s-5.37,8.81-7.8,12.37a99.1,99.1,0,0,1-6.66,8.82,66.23,66.23,0,0,1-4.81,5.06l-1.35,1.22c-.3.27-.47.4-.47.4s.14-.16.44-.44l1.31-1.25c1.12-1.14,2.79-2.79,4.72-5.12a101,101,0,0,0,6.58-8.85c2.4-3.57,4.94-7.75,7.73-12.4s5.84-9.74,9.57-14.93a70.93,70.93,0,0,1,13.88-14.86,46.55,46.55,0,0,1,4.51-3.09,24.7,24.7,0,0,1,5-2.46,12.25,12.25,0,0,1,5.71-.69,7.37,7.37,0,0,1,5,3,11.5,11.5,0,0,1,1.8,5.69,28.35,28.35,0,0,1-.32,6,96.35,96.35,0,0,1-2.49,12,97.87,97.87,0,0,1-4,11.6c-1.55,3.72-3.38,7.27-5.22,10.7a81.22,81.22,0,0,0-4.88,10.33,29.14,29.14,0,0,0-1.94,10.67,17.82,17.82,0,0,0,2.93,9.76c1.9,2.77,4.49,4.87,6.75,7.12a20.22,20.22,0,0,1,6.55,16,19.92,19.92,0,0,1-1.85,7.52,23.82,23.82,0,0,1-4,5.67,30.31,30.31,0,0,1-8.81,6.63,18.25,18.25,0,0,1-6.7,1.88c-.4,0-.75,0-1.06,0l-.76-.06Z" style="fill:#f5f5f5"></path><path d="M116,411.27a2.42,2.42,0,0,1,.16-.36l.53-1c.47-.9,1.18-2.23,2.15-3.92a136.15,136.15,0,0,1,9-13.73c1-1.39,2.15-2.83,3.35-4.3a40.05,40.05,0,0,1,3.95-4.42,15.44,15.44,0,0,1,5.37-3.42,7.08,7.08,0,0,1,3.37-.31,6.22,6.22,0,0,1,3.13,1.52,6.8,6.8,0,0,1,1.9,3,12,12,0,0,1,.52,3.58,22.59,22.59,0,0,1-1.37,7.26,30,30,0,0,0-1.63,7.35,9.59,9.59,0,0,0,.52,3.72,7.13,7.13,0,0,0,2.2,3.06c4,3.32,10,3,13.73,6.82a7,7,0,0,1,1.78,3.36,8.59,8.59,0,0,1-.06,3.71,11.71,11.71,0,0,1-3.69,6.05,28.32,28.32,0,0,1-5.55,3.82c-1.9,1-3.77,2-5.62,2.92a105.44,105.44,0,0,1-26.33,8.72c-1.91.36-3.4.59-4.41.72l-1.15.15-.4,0,.39-.09,1.14-.2c1-.16,2.49-.43,4.39-.82A111.6,111.6,0,0,0,139.17,440a108,108,0,0,0,10.41-4.44c1.84-.88,3.69-1.87,5.59-2.93a28.25,28.25,0,0,0,5.45-3.77,11.28,11.28,0,0,0,3.52-5.81,7.06,7.06,0,0,0-1.6-6.61,9.21,9.21,0,0,0-3-2.09A29.64,29.64,0,0,0,156,413c-2.42-.82-5-1.55-7.16-3.31a7.53,7.53,0,0,1-2.34-3.28,9.82,9.82,0,0,1-.55-3.93A30.05,30.05,0,0,1,147.6,395a22,22,0,0,0,1.36-7.11c0-2.33-.57-4.75-2.24-6.25a5.82,5.82,0,0,0-2.89-1.41,6.47,6.47,0,0,0-3.15.29,15,15,0,0,0-5.22,3.3,40.72,40.72,0,0,0-3.93,4.36c-1.2,1.45-2.32,2.88-3.37,4.26A145.6,145.6,0,0,0,119,406.06c-1,1.66-1.73,3-2.23,3.86l-.57,1A2.17,2.17,0,0,1,116,411.27Z" style="fill:#f5f5f5"></path><path d="M159,354.39s.13,0,.36.06a3.45,3.45,0,0,1,.92.47,4.87,4.87,0,0,1,1.84,3.26,7.66,7.66,0,0,1-1.67,5.29,11.27,11.27,0,0,1-2.29,2.41,5.15,5.15,0,0,1-3.42,1.13,3.49,3.49,0,0,1-3-1.94,5,5,0,0,1,0-3.37,10.47,10.47,0,0,1,2.91-4.75,13,13,0,0,1,3.15-2,5.86,5.86,0,0,1,1.26-.52,8.34,8.34,0,0,1-1.17.7,15.13,15.13,0,0,0-3,2.12,10.55,10.55,0,0,0-2.7,4.62,4.57,4.57,0,0,0,0,3,3,3,0,0,0,2.59,1.63,4.7,4.7,0,0,0,3.09-1,11,11,0,0,0,2.2-2.28,7.39,7.39,0,0,0,1.69-5,4.75,4.75,0,0,0-1.6-3.14A6.32,6.32,0,0,0,159,354.39Z" style="fill:#f5f5f5"></path><rect x="504.17" y="163.77" width="92.28" height="89.28" transform="translate(26.35 -59.43) rotate(6.33)" style="fill:#f5f5f5"></rect><polygon points="507.48 240.88 537.92 198.04 555.43 229.53 569.76 215.43 584.97 249.48 507.48 240.88" style="fill:#e0e0e0"></polygon><path d="M568.5,192.44a6.64,6.64,0,1,1-5.87-7.33A6.65,6.65,0,0,1,568.5,192.44Z" style="fill:#e0e0e0"></path><g style="opacity:0.30000000000000004"><path d="M585,249.73a2.6,2.6,0,0,1,0-.37c0-.26.06-.6.1-1,.09-1,.23-2.28.4-4,.37-3.52.9-8.61,1.57-15.08,1.4-13,3.38-31.43,5.76-53.6l.33.42-77.49-8.54c-.12.08.91-.73.47-.38v.14l0,.16,0,.32-.07.63-.14,1.26-.28,2.52c-.19,1.68-.38,3.35-.56,5q-.56,5-1.1,9.88c-.73,6.52-1.44,12.91-2.13,19.12-1.4,12.43-2.72,24.17-3.93,35l-.34-.42,56,6.41L579.29,249l4.19.51,1.09.15.38.06a1.85,1.85,0,0,1-.35,0l-1-.09-4.13-.41-15.73-1.65-56.29-6.05-.38,0,0-.38c1.19-10.81,2.48-22.56,3.84-35q1-9.33,2.11-19.12c.36-3.26.73-6.56,1.1-9.88.18-1.67.37-3.34.55-5l.28-2.52.14-1.27.07-.63,0-.32v-.28h0c-.43.34.59-.49.49-.41l77.48,8.67.38,0,0,.37c-2.55,22.25-4.68,40.78-6.17,53.8-.75,6.42-1.35,11.48-1.76,15-.2,1.69-.36,3-.48,3.92,0,.41-.09.74-.13,1S585,249.74,585,249.73Z" style="fill:#e0e0e0"></path></g><path d="M96.5,223.94A1.95,1.95,0,1,1,94.56,222,1.94,1.94,0,0,1,96.5,223.94Z" style="fill:#e0e0e0"></path><path d="M96.5,242.67a1.95,1.95,0,1,1-1.94-1.95A1.94,1.94,0,0,1,96.5,242.67Z" style="fill:#263238"></path><path d="M96.5,261.4a1.95,1.95,0,1,1-1.94-1.95A1.94,1.94,0,0,1,96.5,261.4Z" style="fill:#e0e0e0"></path><rect x="398.68" y="272.31" width="236.4" height="140.98" style="fill:#f5f5f5"></rect><path d="M459.7,297.3c0,.14-10.24.26-22.87.26S414,297.44,414,297.3s10.24-.26,22.87-.26S459.7,297.15,459.7,297.3Z" style="fill:#263238"></path><path d="M622.35,331.7c0,.15-46.61.26-104.1.26s-104.1-.11-104.1-.26,46.6-.26,104.1-.26S622.35,331.56,622.35,331.7Z" style="fill:#263238"></path><path d="M620.17,344.78c0,.15-45.76.26-102.19.26s-102.2-.11-102.2-.26,45.75-.26,102.2-.26S620.17,344.64,620.17,344.78Z" style="fill:#263238"></path><path d="M620.17,359.52c0,.15-45.76.26-102.19.26s-102.2-.11-102.2-.26,45.75-.26,102.2-.26S620.17,359.38,620.17,359.52Z" style="fill:#263238"></path><path d="M532.79,374.26l-.3,0-.89,0-3.41.05-12.54.09-41.36.07-41.37-.07-12.54-.09-3.41-.05-.88,0-.31,0,.31,0,.88,0,3.41,0,12.54-.08,41.37-.08,41.36.08,12.54.08,3.41,0,.89,0Z" style="fill:#263238"></path><circle cx="600.41" cy="387.87" r="13.73" transform="translate(84.28 882.38) rotate(-76.64)" style="fill:#e0e0e0"></circle><path d="M600.53,392a.47.47,0,0,1-.39-.18l-4.64-5.77a.5.5,0,0,1,.78-.63l4.25,5.28,4.24-5.28a.5.5,0,0,1,.78.63l-4.63,5.77A.5.5,0,0,1,600.53,392Z" style="fill:#263238"></path><path d="M659.28,447.8l-146.51.41L366,448.48l-146.92.09-146.93-.24h-.6v-.6l.3-191.27L71.59,65.2v-.55h.55l293.53-.43H660.2v1Zm-.14-.14L658.22,65.2l1,1H365.67L72.14,65.75l.55-.55-.24,191.26.29,191.27-.6-.6,146.61-.25,146.61.1,146.75.27Z" style="fill:#263238"></path><path d="M579,110.16a1.67,1.67,0,0,1,.34-.21l1-.55a25,25,0,0,1,4.22-1.58,35.76,35.76,0,0,1,16.46-.43,28.41,28.41,0,0,1,10.5,4.48,29.88,29.88,0,0,1,8.87,9.65,24.81,24.81,0,0,1,3.48,14,16.34,16.34,0,0,1-2.29,7.36,13.39,13.39,0,0,1-6,5.16,10.86,10.86,0,0,1-7.88.44c-2.55-.88-4.48-2.75-6.32-4.42s-3.72-3.33-6-4a17.66,17.66,0,0,0-6.93-.52c-2.29.16-4.53.48-6.75.43a16,16,0,0,1-3.25-.35,11.76,11.76,0,0,1-3-1.13,12.35,12.35,0,0,1-4.31-4.15,15.08,15.08,0,0,1-2-5.12,15.51,15.51,0,0,1,1.18-9.3,20.88,20.88,0,0,1,4-5.9,24,24,0,0,1,3.39-3c.42-.32.75-.52,1-.66a1.47,1.47,0,0,1,.35-.21,3.84,3.84,0,0,1-.32.25c-.21.16-.53.38-.93.7a26.48,26.48,0,0,0-3.31,3,21.33,21.33,0,0,0-3.88,5.87,15.21,15.21,0,0,0-1.09,9.11,14.81,14.81,0,0,0,2,5,11.93,11.93,0,0,0,4.18,4,10.74,10.74,0,0,0,2.87,1.07,15.61,15.61,0,0,0,3.16.33c2.17,0,4.4-.28,6.71-.45a18.2,18.2,0,0,1,7.12.52c2.4.74,4.34,2.46,6.19,4.14s3.73,3.47,6.14,4.3a10.35,10.35,0,0,0,7.51-.43,12.85,12.85,0,0,0,5.79-4.95,15.88,15.88,0,0,0,2.22-7.13A24.47,24.47,0,0,0,620,121.76a29.4,29.4,0,0,0-8.7-9.53A28.17,28.17,0,0,0,601,107.75a36,36,0,0,0-16.33.27,28.06,28.06,0,0,0-4.23,1.47l-1,.51A3.14,3.14,0,0,1,579,110.16Z" style="fill:#263238"></path><path d="M629.31,182.43a6.36,6.36,0,0,1,2.24-.32,9.54,9.54,0,0,1,5.76,2.06,9.71,9.71,0,0,1,2.77,3.28,8.3,8.3,0,0,1,.84,4.86,10,10,0,0,1-7.17,8.1,8.17,8.17,0,0,1-5.79-.65,9.93,9.93,0,0,1-4-3.7,8.73,8.73,0,0,1-.35-8.89,10.17,10.17,0,0,1,4.2-4.47,5.12,5.12,0,0,1,1.61-.51,2.1,2.1,0,0,1,.58,0,6.06,6.06,0,0,0-2.09.69,10.27,10.27,0,0,0-4,4.46,8.83,8.83,0,0,0-1,4,8.61,8.61,0,0,0,1.37,4.47,9.5,9.5,0,0,0,3.81,3.5,7.71,7.71,0,0,0,5.44.6,9.54,9.54,0,0,0,6.83-7.66,8,8,0,0,0-.75-4.59,9.48,9.48,0,0,0-2.61-3.19,9.66,9.66,0,0,0-5.55-2.15A19.4,19.4,0,0,0,629.31,182.43Z" style="fill:#263238"></path></g><g id="Texts"><path d="M361.42,130.91l-2.16,10.8h-.79l1-5.12h-7.22l-1,5.12h-.79l2.16-10.8h.79l-1,5h7.22l1-5Z" style="fill:#FF725E"></path><polygon points="359.67 142.21 357.86 142.21 358.88 137.09 352.68 137.09 351.66 142.21 349.85 142.21 352.21 130.41 354.02 130.41 353.03 135.36 359.23 135.36 360.22 130.41 362.03 130.41 359.67 142.21" style="fill:#FF725E"></polygon><path d="M365.83,131.62l-.85,4.26h5.74l-.14.69h-5.74L364,141h6.66l-.15.71H363l2.16-10.8h7.22l-.15.71Z" style="fill:#FF725E"></path><polygon points="370.86 142.21 362.42 142.21 364.77 130.41 373.02 130.41 372.65 132.12 366.24 132.12 365.59 135.38 371.33 135.38 370.99 137.07 365.25 137.07 364.56 140.5 371.24 140.5 370.86 142.21" style="fill:#FF725E"></polygon><path d="M375.51,130.91h.78l-2,10.09h6.22l-.15.71h-7Z" style="fill:#FF725E"></path><polygon points="380.74 142.21 372.74 142.21 375.1 130.41 376.9 130.41 374.88 140.5 381.11 140.5 380.74 142.21" style="fill:#FF725E"></polygon><path d="M384.53,130.91h.79l-2,10.09h6.22l-.16.71h-7Z" style="fill:#FF725E"></path><polygon points="389.77 142.21 381.76 142.21 384.12 130.41 385.93 130.41 383.91 140.5 390.14 140.5 389.77 142.21" style="fill:#FF725E"></polygon><path d="M391.14,137.34a6.29,6.29,0,0,1,6.46-6.51c3.18,0,5,1.79,5,4.45a6.31,6.31,0,0,1-6.48,6.51C392.9,141.79,391.14,140,391.14,137.34Zm10.61-2c0-2.24-1.43-3.75-4.21-3.75a5.53,5.53,0,0,0-5.61,5.75c0,2.24,1.45,3.75,4.22,3.75A5.52,5.52,0,0,0,401.75,135.31Z" style="fill:#FF725E"></path><path d="M396.08,142.29c-3.36,0-5.44-1.9-5.44-4.95a6.76,6.76,0,0,1,7-7c3.37,0,5.46,1.9,5.46,4.95A6.77,6.77,0,0,1,396.08,142.29Zm1.46-10.23a5,5,0,0,0-5.11,5.25c0,2.07,1.35,3.25,3.72,3.25a5,5,0,0,0,5.1-5.25C401.25,133.24,399.9,132.06,397.54,132.06Z" style="fill:#FF725E"></path><path d="M97.33,90.91a4.33,4.33,0,0,1-2.48.67c-2.47,0-3.92-1.27-3.92-3.77V83.5H89.31V81.15h1.62V78.6h3v2.55h2.61V83.5H94v4.27a1.22,1.22,0,0,0,1.3,1.39,2.07,2.07,0,0,0,1.23-.39Z" style="fill:#263238"></path><path d="M531.45,89.47h-2.86L528,90.86h-.38l2.26-4.93h.36l2.27,4.93h-.39Zm-.14-.3L530,86.33l-1.29,2.84Z"></path><path d="M537.37,89.55c0,.83-.61,1.31-1.82,1.31h-2.19V85.93h2c1.06,0,1.7.44,1.7,1.26a1.14,1.14,0,0,1-.82,1.13A1.18,1.18,0,0,1,537.37,89.55Zm-3.65-3.31v2h1.68c.85,0,1.34-.33,1.34-1s-.49-1-1.34-1ZM537,89.53c0-.71-.51-1-1.46-1h-1.83v2h1.83C536.5,90.55,537,90.24,537,89.53Z"></path><path d="M538.18,88.39a2.56,2.56,0,1,1,2.56,2.5A2.46,2.46,0,0,1,538.18,88.39Zm4.75,0a2.2,2.2,0,1,0-2.19,2.17A2.12,2.12,0,0,0,542.93,88.39Z"></path><path d="M544.5,88.77V85.93h.36v2.82c0,1.23.59,1.81,1.62,1.81s1.61-.58,1.61-1.81V85.93h.36v2.84a2,2,0,1,1-4,0Z"></path><path d="M551,86.26h-1.77v-.33h3.91v.33h-1.78v4.6H551Z"></path><path d="M570.92,85.93l-1.66,4.93h-.38l-1.53-4.42-1.53,4.42h-.38l-1.68-4.93h.38l1.5,4.43,1.54-4.43h.35l1.53,4.44,1.51-4.44Z"></path><path d="M571.44,88.39a2.56,2.56,0,1,1,2.56,2.5A2.46,2.46,0,0,1,571.44,88.39Zm4.76,0a2.2,2.2,0,1,0-2.2,2.17A2.13,2.13,0,0,0,576.2,88.39Z"></path><path d="M581.23,90.86l-1.18-1.65a3.64,3.64,0,0,1-.48,0h-1.4v1.62h-.36V85.93h1.76c1.24,0,2,.62,2,1.66a1.51,1.51,0,0,1-1.16,1.54l1.23,1.73Zm-1.66-1.93c1.06,0,1.62-.49,1.62-1.34s-.56-1.33-1.62-1.33h-1.4v2.67Z"></path><path d="M584.33,88.43l-1.1,1.13v1.3h-.36V85.93h.36V89.1l3.07-3.17h.44l-2.17,2.24,2.32,2.69h-.44Z"></path><path d="M599.81,88.39a2.46,2.46,0,0,1,2.55-2.49,2.33,2.33,0,0,1,1.75.68l-.22.23a2.1,2.1,0,0,0-1.52-.58,2.17,2.17,0,1,0,0,4.33,2.11,2.11,0,0,0,1.52-.59l.22.23a2.33,2.33,0,0,1-1.75.69A2.46,2.46,0,0,1,599.81,88.39Z"></path><path d="M604.74,88.39a2.56,2.56,0,1,1,2.56,2.5A2.46,2.46,0,0,1,604.74,88.39Zm4.75,0a2.2,2.2,0,1,0-2.19,2.17A2.12,2.12,0,0,0,609.49,88.39Z"></path><path d="M615.11,85.93v4.93h-.29l-3.36-4.28v4.28h-.36V85.93h.3l3.35,4.28V85.93Z"></path><path d="M617.77,86.26H616v-.33h3.9v.33h-1.77v4.6h-.36Z"></path><path d="M623.59,89.47h-2.86l-.63,1.39h-.38L622,85.93h.36l2.27,4.93h-.39Zm-.14-.3-1.29-2.84-1.29,2.84Z"></path><path d="M625,88.39a2.46,2.46,0,0,1,2.55-2.49,2.33,2.33,0,0,1,1.75.68l-.22.23a2.08,2.08,0,0,0-1.51-.58,2.17,2.17,0,1,0,0,4.33A2.09,2.09,0,0,0,629,90l.22.23a2.33,2.33,0,0,1-1.75.69A2.46,2.46,0,0,1,625,88.39Z"></path><path d="M631.34,86.26h-1.77v-.33h3.91v.33H631.7v4.6h-.36Z"></path><path d="M340.83,166.6h-5.26v-3.1H349.9v3.1h-5.26v13.34h-3.81Z" style="fill:#263238"></path><path d="M364.6,172.7v7.24h-3.66v-6.67c0-2.05-.94-3-2.56-3s-3,1.09-3,3.41v6.25h-3.66V162.51h3.66v6.11a5.51,5.51,0,0,1,4-1.5C362.35,167.12,364.6,168.85,364.6,172.7Z" style="fill:#263238"></path><path d="M367.11,173.62c0-3.8,2.94-6.5,7-6.5s6.92,2.7,6.92,6.5-2.91,6.5-6.92,6.5S367.11,177.42,367.11,173.62Zm10.17,0a3.24,3.24,0,1,0-3.21,3.5A3.19,3.19,0,0,0,377.28,173.62Z" style="fill:#263238"></path><path d="M404.78,172.7v7.24h-3.66v-6.67c0-2.05-.92-3-2.4-3-1.64,0-2.79,1.06-2.79,3.32v6.34h-3.66v-6.67c0-2.05-.87-3-2.4-3s-2.77,1.06-2.77,3.32v6.34h-3.66V167.3h3.5v1.46a5.08,5.08,0,0,1,4-1.64,4.72,4.72,0,0,1,4.16,2.06,5.68,5.68,0,0,1,4.56-2.06C402.62,167.12,404.78,168.85,404.78,172.7Z" style="fill:#263238"></path><path d="M419.25,172.73v7.21h-3.43v-1.58c-.68,1.15-2,1.76-3.85,1.76-3,0-4.72-1.64-4.72-3.82s1.57-3.78,5.42-3.78h2.92c0-1.58-.94-2.49-2.92-2.49A6.09,6.09,0,0,0,409,171.2l-1.31-2.56a9.75,9.75,0,0,1,5.45-1.52C417,167.12,419.25,168.9,419.25,172.73Zm-3.66,3.21v-1.29h-2.52c-1.71,0-2.25.64-2.25,1.48s.77,1.53,2.07,1.53A2.7,2.7,0,0,0,415.59,175.94Z" style="fill:#263238"></path><path d="M421.34,178.76l1.22-2.63a8.63,8.63,0,0,0,4.39,1.22c1.69,0,2.33-.44,2.33-1.15,0-2.06-7.63.05-7.63-5,0-2.39,2.16-4.08,5.84-4.08a10.29,10.29,0,0,1,4.86,1.1l-1.22,2.61a7.19,7.19,0,0,0-3.64-.94c-1.64,0-2.34.51-2.34,1.17,0,2.16,7.63.07,7.63,5.05,0,2.35-2.19,4-6,4A10.8,10.8,0,0,1,421.34,178.76Z" style="fill:#263238"></path><path d="M352.22,201.93c0,4-3,6.45-7.76,6.45h-3.59v4.92h-4.13V195.46h7.72C349.23,195.46,352.22,197.93,352.22,201.93Zm-4.19,0c0-2-1.27-3.11-3.79-3.11h-3.37V205h3.37C346.76,205,348,203.87,348,201.93Z" style="fill:#263238"></path><path d="M369.15,205.45v7.85h-4v-7.24c0-2.22-1-3.24-2.78-3.24s-3.29,1.18-3.29,3.7v6.78h-4V194.39h4V201a6,6,0,0,1,4.36-1.63C366.7,199.38,369.15,201.27,369.15,205.45Z" style="fill:#263238"></path><path d="M371.88,206.45c0-4.14,3.18-7.07,7.54-7.07s7.53,2.93,7.53,7.07-3.17,7.06-7.53,7.06S371.88,210.58,371.88,206.45Zm11,0a3.52,3.52,0,1,0-3.5,3.79A3.46,3.46,0,0,0,382.92,206.45Z" style="fill:#263238"></path><path d="M398.45,212.64a5.68,5.68,0,0,1-3.24.87c-3.24,0-5.13-1.66-5.13-4.92V203H388v-3.06h2.11v-3.34h4v3.34h3.42V203h-3.42v5.59a1.6,1.6,0,0,0,1.71,1.81,2.71,2.71,0,0,0,1.61-.51Z" style="fill:#263238"></path><path d="M399.24,206.45c0-4.14,3.18-7.07,7.54-7.07s7.53,2.93,7.53,7.07-3.16,7.06-7.53,7.06S399.24,210.58,399.24,206.45Zm11,0a3.52,3.52,0,1,0-3.5,3.79A3.46,3.46,0,0,0,410.28,206.45Z" style="fill:#263238"></path><path d="M431.11,199.59V211c0,5.1-2.75,7.44-7.7,7.44a11.3,11.3,0,0,1-6.73-1.88l1.58-2.86a8.16,8.16,0,0,0,4.84,1.56c2.81,0,4-1.28,4-3.75v-.59a5.63,5.63,0,0,1-4.33,1.71,6.63,6.63,0,1,1,0-13.26,5.51,5.51,0,0,1,4.54,2v-1.76ZM427.18,206a3.61,3.61,0,1,0-3.59,3.37A3.33,3.33,0,0,0,427.18,206Z" style="fill:#263238"></path><path d="M443.32,199.38v3.67c-.33,0-.58-.05-.89-.05-2.19,0-3.64,1.2-3.64,3.83v6.47h-4V199.59h3.8v1.81A5.52,5.52,0,0,1,443.32,199.38Z" style="fill:#263238"></path><path d="M457.76,205.48v7.82H454v-1.7c-.73,1.25-2.16,1.91-4.18,1.91-3.21,0-5.12-1.79-5.12-4.16s1.71-4.1,5.89-4.1h3.16c0-1.71-1-2.71-3.16-2.71a6.57,6.57,0,0,0-3.95,1.28L445.24,201a10.53,10.53,0,0,1,5.91-1.66C455.34,199.38,457.76,201.32,457.76,205.48Zm-4,3.49v-1.4h-2.73c-1.86,0-2.45.69-2.45,1.6s.84,1.66,2.25,1.66A2.93,2.93,0,0,0,453.78,209Z" style="fill:#263238"></path><path d="M476.3,206.45a6.67,6.67,0,0,1-6.84,7.06,5.33,5.33,0,0,1-4.13-1.66v6.4h-4V199.59h3.8v1.58a5.35,5.35,0,0,1,4.31-1.79A6.67,6.67,0,0,1,476.3,206.45Zm-4,0a3.51,3.51,0,1,0-3.5,3.79A3.46,3.46,0,0,0,472.27,206.45Z" style="fill:#263238"></path><path d="M493,205.45v7.85h-4v-7.24c0-2.22-1-3.24-2.78-3.24s-3.28,1.18-3.28,3.7v6.78h-4V194.39h4V201a6,6,0,0,1,4.36-1.63C490.52,199.38,493,201.27,493,205.45Z" style="fill:#263238"></path><path d="M510.08,207.57H499.7c.39,1.71,1.84,2.75,3.93,2.75a4.62,4.62,0,0,0,3.44-1.33l2.12,2.3a7.21,7.21,0,0,1-5.66,2.22c-4.74,0-7.83-3-7.83-7.06a7,7,0,0,1,7.32-7.07,6.8,6.8,0,0,1,7.14,7.12C510.16,206.8,510.11,207.24,510.08,207.57Zm-10.43-2.32h6.76a3.43,3.43,0,0,0-6.76,0Z" style="fill:#263238"></path><path d="M521.33,199.38v3.67c-.34,0-.59-.05-.9-.05-2.19,0-3.64,1.2-3.64,3.83v6.47h-4V199.59h3.8v1.81A5.53,5.53,0,0,1,521.33,199.38Z" style="fill:#263238"></path><path d="M545,213.61l-2.14-2a9.51,9.51,0,0,1-6,2c-3.93,0-6.81-2-6.81-4.9,0-2.24,1.2-3.79,3.93-5.32a5.31,5.31,0,0,1-1.84-3.78c0-2.6,2.19-4.38,5.56-4.38,3.08,0,5.12,1.58,5.12,4.1,0,1.84-1.07,3.19-3.49,4.51l3.26,3a11.49,11.49,0,0,0,.9-2.78l3.18,1a11.69,11.69,0,0,1-1.63,4.06l2.09,1.94Zm-4.48-4.16-4.31-4c-1.63.94-2.22,1.75-2.22,2.85,0,1.3,1.22,2.22,3.19,2.22A5.71,5.71,0,0,0,540.53,209.45Zm-4.72-9.89c0,.69.28,1.2,1.38,2.27,1.76-.94,2.32-1.61,2.32-2.42s-.61-1.48-1.76-1.48S535.81,198.62,535.81,199.56Z" style="fill:#263238"></path><path d="M336.74,226.06h4.13V243.9h-4.13Z" style="fill:#263238"></path><path d="M344.82,225h4V243.9h-4Z" style="fill:#263238"></path><path d="M352.5,225h4V243.9h-4Z" style="fill:#263238"></path><path d="M374,230.19V243.9h-3.77v-1.63a5.56,5.56,0,0,1-4.26,1.84c-3.44,0-5.86-1.94-5.86-6.17v-7.75h4v7.16c0,2.29,1,3.31,2.78,3.31S370,239.49,370,237v-6.78Z" style="fill:#263238"></path><path d="M376.36,242.63l1.33-2.86a9.4,9.4,0,0,0,4.77,1.33c1.83,0,2.52-.49,2.52-1.25,0-2.24-8.28.05-8.28-5.43,0-2.6,2.34-4.44,6.35-4.44a11.2,11.2,0,0,1,5.27,1.2L387,234a7.94,7.94,0,0,0-3.95-1c-1.79,0-2.55.56-2.55,1.28,0,2.34,8.28.07,8.28,5.48,0,2.55-2.37,4.36-6.47,4.36A11.84,11.84,0,0,1,376.36,242.63Z" style="fill:#263238"></path><path d="M400.08,243.24a5.68,5.68,0,0,1-3.24.87c-3.24,0-5.13-1.66-5.13-4.92v-5.64H389.6v-3.06h2.11v-3.34h4v3.34h3.42v3.06h-3.42v5.59A1.6,1.6,0,0,0,397.4,241a2.71,2.71,0,0,0,1.61-.51Z" style="fill:#263238"></path><path d="M410.84,230v3.67c-.33,0-.59-.05-.89-.05-2.2,0-3.65,1.2-3.65,3.83v6.47h-4V230.19h3.8V232A5.53,5.53,0,0,1,410.84,230Z" style="fill:#263238"></path><path d="M425.27,236.08v7.82h-3.72v-1.71c-.74,1.25-2.17,1.92-4.18,1.92-3.22,0-5.13-1.79-5.13-4.16s1.71-4.1,5.89-4.1h3.16c0-1.71-1-2.71-3.16-2.71a6.59,6.59,0,0,0-3.95,1.28l-1.43-2.78a10.56,10.56,0,0,1,5.92-1.66C422.85,230,425.27,231.92,425.27,236.08Zm-4,3.49v-1.4h-2.72c-1.87,0-2.45.68-2.45,1.6s.84,1.66,2.24,1.66A2.92,2.92,0,0,0,421.29,239.57Z" style="fill:#263238"></path><path d="M437.71,243.24a5.63,5.63,0,0,1-3.23.87c-3.24,0-5.13-1.66-5.13-4.92v-5.64h-2.12v-3.06h2.12v-3.34h4v3.34h3.42v3.06h-3.42v5.59A1.6,1.6,0,0,0,435,241a2.68,2.68,0,0,0,1.6-.51Z" style="fill:#263238"></path><path d="M438.51,237c0-4.13,3.18-7.06,7.54-7.06s7.52,2.93,7.52,7.06-3.16,7.07-7.52,7.07S438.51,241.18,438.51,237Zm11,0a3.52,3.52,0,1,0-3.5,3.8A3.46,3.46,0,0,0,449.55,237Z" style="fill:#263238"></path><path d="M464.74,230v3.67c-.33,0-.58-.05-.89-.05-2.19,0-3.64,1.2-3.64,3.83v6.47h-4V230.19H460V232A5.52,5.52,0,0,1,464.74,230Z" style="fill:#263238"></path></g><g id="Character"><path d="M360.63,447.83l-3.3-53.91-8.55-88.25L309.9,345.62s13,101.1,15.89,102.11Z" style="fill:#b78876"></path><polygon points="207.9 244.08 224.14 237.98 275.14 237.98 292.44 245.15 276.91 282.22 252.89 287.31 226.8 278.07 217.07 266.17 207.9 244.08" style="fill:#b78876"></polygon><path d="M214.32,136.52c1.87-7.56,4.1-15.14,8.15-21.8s10.12-12.36,17.6-14.53,16.24-1.71,23.58.58c6.05,1.9,10.2,5.16,14.44,8.85,6.89,6,10.45,15.34,13.37,24" style="fill:#FF725E"></path><path d="M214.81,136.64l-1-.24c1.81-7.37,4.06-15.14,8.2-21.94,4.55-7.48,10.91-12.72,17.89-14.75a42.91,42.91,0,0,1,23.86.59c6.26,2,10.49,5.34,14.63,8.94,7,6.06,10.5,15.28,13.51,24.2l-.94.32c-3-8.79-6.44-17.87-13.23-23.77-4.05-3.52-8.2-6.84-14.26-8.74a41.91,41.91,0,0,0-23.29-.58c-6.74,2-12.89,7-17.31,14.31C218.83,121.67,216.61,129.34,214.81,136.64Z" style="fill:#FF725E"></path><path d="M296.36,134.2a33.38,33.38,0,0,0-12.62-21.14c-6.64-5-15-7.26-23.32-7.9-13-1-28.12,2.54-37,12-8.6,9.16-14.07,22.36-13,33.92.49,5.2,5.54,19.28,9.53,22.67l74.27-1.92C298.69,164.71,297.7,142.51,296.36,134.2Z" style="fill:#FF725E"></path><path d="M219.79,174.27l-.15-.12c-4.22-3.58-9.22-18-9.7-23-1.08-11.22,4.07-24.69,13.09-34.3,9.7-10.34,25.7-13.07,37.43-12.17,9.59.73,17.53,3.42,23.59,8a33.87,33.87,0,0,1,12.81,21.46c1.25,7.8,2.45,30.55-2.2,38l-.14.22h-.27Zm36.43-68.76c-10.9,0-24.1,3.11-32.46,12-8.84,9.42-13.87,22.58-12.83,33.53.47,4.87,5.33,18.68,9.22,22.21l73.8-1.9c4-6.9,3.38-28,1.92-37.08a32.79,32.79,0,0,0-12.43-20.82c-5.9-4.46-13.66-7.08-23.05-7.8C259.05,105.56,257.65,105.51,256.22,105.51Z" style="fill:#FF725E"></path><path d="M295,149.77a41,41,0,0,0-40.84-37.83H252c-22.92,1.29-34.63,21.47-32.7,44.35L223.4,262h52.53l-.46-34.39s22-3.39,22.35-25.41C298,191.53,296.51,169.6,295,149.77Z" style="fill:#b78876"></path><path d="M275.65,227.54s-14.07.82-28.85-8.5c0,0,6.76,15.86,28.74,13.93Z" style="fill:#995037"></path><path d="M286.37,167.17a3.14,3.14,0,0,1-3,3.17,3,3,0,0,1-3.23-2.85,3.14,3.14,0,0,1,3-3.17A3,3,0,0,1,286.37,167.17Z" style="fill:#263238"></path><path d="M290.19,160.53c-.39.41-2.77-1.36-6.15-1.35s-5.87,1.69-6.24,1.27c-.18-.18.22-.92,1.3-1.71a8.7,8.7,0,0,1,5-1.53,8.3,8.3,0,0,1,4.9,1.6C290,159.61,290.39,160.35,290.19,160.53Z" style="fill:#263238"></path><path d="M253.82,168.68a3.14,3.14,0,0,1-3,3.17,3,3,0,0,1-3.23-2.85,3.14,3.14,0,0,1,3-3.17A3,3,0,0,1,253.82,168.68Z" style="fill:#263238"></path><path d="M256.88,162.22c-.39.41-2.78-1.35-6.16-1.35s-5.87,1.69-6.23,1.27c-.18-.18.21-.92,1.3-1.71a8.57,8.57,0,0,1,5-1.52,8.23,8.23,0,0,1,4.9,1.59C256.72,161.3,257.07,162,256.88,162.22Z" style="fill:#263238"></path><path d="M269.15,186.23c0-.2,2.09-.56,5.5-1,.87-.08,1.68-.25,1.83-.84a4.35,4.35,0,0,0-.57-2.57l-2.54-6.58c-3.53-9.38-6.09-17.09-5.71-17.23s3.55,7.35,7.08,16.73l2.44,6.62a5.08,5.08,0,0,1,.44,3.4,2.2,2.2,0,0,1-1.43,1.26,6,6,0,0,1-1.47.2C271.29,186.41,269.16,186.42,269.15,186.23Z" style="fill:#263238"></path><path d="M259.19,188.55c.55,0,.55,3.64,3.68,6.25s7.06,2.22,7.08,2.74c.05.23-.87.71-2.52.75a9.15,9.15,0,0,1-5.91-2.07,8,8,0,0,1-2.86-5.25C258.52,189.43,258.93,188.52,259.19,188.55Z" style="fill:#263238"></path><path d="M258.62,154.56c-.33.92-3.71.52-7.68,1s-7.16,1.64-7.7.82c-.24-.4.31-1.27,1.6-2.17a13.47,13.47,0,0,1,11.71-1.42C258,153.4,258.76,154.12,258.62,154.56Z" style="fill:#263238"></path><path d="M291,150.75c-.64.84-3.56.33-7,.64s-6.26,1.15-7,.42c-.34-.36,0-1.17,1.23-2a11.36,11.36,0,0,1,5.55-1.83,11,11,0,0,1,5.72,1C290.82,149.6,291.3,150.35,291,150.75Z" style="fill:#263238"></path><path d="M222.58,172.6c-.37-.16-15.12-4.5-14.67,10.56s15.47,11.5,15.49,11.06S222.58,172.6,222.58,172.6Z" style="fill:#b78876"></path><path d="M220,188.66c-.07,0-.25.19-.69.4a2.59,2.59,0,0,1-2,.1c-1.61-.53-3-3-3.18-5.73a8.73,8.73,0,0,1,.62-3.78,3,3,0,0,1,1.92-2.07,1.33,1.33,0,0,1,1.57.67c.21.42.12.72.2.74s.32-.26.18-.88a1.7,1.7,0,0,0-.62-.92,1.94,1.94,0,0,0-1.46-.34,3.66,3.66,0,0,0-2.67,2.41,8.82,8.82,0,0,0-.79,4.23c.19,3,1.83,5.82,4,6.39a2.83,2.83,0,0,0,2.39-.47C219.94,189,220,188.68,220,188.66Z" style="fill:#995037"></path><path d="M232.45,127.84l7.45-6.43L263.58,125l16.62-4.28,4.37,4.81c-1.87,2.5,2.11-8.23-1.68-11.1-8.16-6.19-15.06-6-25.3-6.15s-31.09,12.3-38.51,19.36c-5.93,5.65-5.9,10.54-5.9,10.54-.94,8.15,3.62,17.4,5.43,25.4.93,4.12,2.74,16.59,2.74,16.59h0c3.46,0,4.75-2.76,4.22-6.18l-.65-13.42s11.77-8.37,6.19-23.67C230.22,135.71,228.31,130.11,232.45,127.84Z" style="fill:#263238"></path><path d="M229.38,131.42c1.34-4.3,6-7,10.51-6.91s8.71,2.4,12,5.47a14.2,14.2,0,0,0,2.69,2.21,3.57,3.57,0,0,0,3.35.21c.31-.17.64-.42,1-.33a1.13,1.13,0,0,1,.56.5,9.25,9.25,0,0,0,3.48,3.3,3.85,3.85,0,0,0,4.47-.67,5.77,5.77,0,0,0,9.67-4.27c2,.67,4.1-.53,5.48-2.08a11.15,11.15,0,0,0-2.77-17.07,19.86,19.86,0,0,0-7.28-2.1,91.58,91.58,0,0,0-11.93-.9,14.66,14.66,0,0,0-5.2.62c-2.28.82-4.19,2.69-6.6,3a11.68,11.68,0,0,1-4.58-.73,18.13,18.13,0,0,0-6.63-1c-4.41.39-8.06,3.56-11,6.88-2.05,2.35-4,5-4.62,8s.3,6.62,2.95,8.26a3.88,3.88,0,0,0,3.5.47,2.32,2.32,0,0,0,1.25-3" style="fill:#263238"></path><path d="M219,165.88c-1.63-11.49.32-25.36,8.7-35.26s23.23-15.9,33-14c7.66,1.46,24.29,2,30.37,18.06l-.85-13.22s-7.41-15-29.23-14.55-31.37,3-41.93,15.87-7.43,23.8-6,29.35S219,165.88,219,165.88Z" style="fill:#FF725E"></path><path d="M219.86,168.53l-1.32-2.41c-.18-.34-4.56-8.37-6-13.91l-.1-.4c-1.48-5.81-4.25-16.63,6.23-29.39,10.77-13.12,20.44-15.61,42.3-16s29.62,14.68,29.69,14.83l.05.19,1.07,16.53-1.18-3.1c-5.27-13.87-18.85-16-27-17.24-1.12-.17-2.14-.33-3.05-.5-9.89-1.88-24.49,4.33-32.56,13.86-7.25,8.57-10.46,21.61-8.58,34.87Zm42.08-61.17H261c-21.51.43-31,2.87-41.55,15.69-10.15,12.36-7.47,22.86-6,28.51l.1.39a64.47,64.47,0,0,0,4.63,11.28c-1.14-12.59,2.19-24.75,9.13-32.94,8.27-9.78,23.31-16.15,33.51-14.21.89.17,1.91.33,3,.5,7.79,1.21,20.5,3.19,26.58,15.26l-.66-10.29C289.12,120.38,281.63,107.36,261.94,107.36Z" style="fill:#FF725E"></path><path d="M279.12,110.14a6.15,6.15,0,0,1-.8-.28c-.52-.18-1.26-.51-2.25-.84a53.9,53.9,0,0,0-8.54-2.2,59.63,59.63,0,0,0-13-.77,53,53,0,0,0-15.63,3.12,50.42,50.42,0,0,0-13.79,8,38.49,38.49,0,0,0-5,4.88c-.73.81-1.34,1.68-2,2.48s-1.14,1.63-1.62,2.43a46.53,46.53,0,0,0-3.87,7.92c-.39,1-.62,1.75-.82,2.26a3.79,3.79,0,0,1-.31.78,8.06,8.06,0,0,1,.21-.81c.17-.53.36-1.32.73-2.3a43.82,43.82,0,0,1,3.74-8c.48-.81,1-1.62,1.61-2.47s1.23-1.7,2-2.53a38.53,38.53,0,0,1,5-5,50.25,50.25,0,0,1,13.92-8.09,52.46,52.46,0,0,1,15.79-3.11,59.09,59.09,0,0,1,13.12.88,51.48,51.48,0,0,1,8.55,2.37c1,.37,1.71.73,2.22,1A4.73,4.73,0,0,1,279.12,110.14Z" style="fill:#263238"></path><path d="M220.43,146.55s-.26-.07-.67-.31a10.86,10.86,0,0,1-1.64-1.19,13.43,13.43,0,0,1-4.48-12.1,11,11,0,0,1,.47-2c.16-.46.28-.69.31-.68s-.25,1-.41,2.69a14.26,14.26,0,0,0,4.36,11.79C219.57,145.94,220.48,146.48,220.43,146.55Z" style="fill:#263238"></path><path d="M226.8,133.34a5.78,5.78,0,0,1-1.9-1.38,12,12,0,0,1-3-4.8,10.86,10.86,0,0,1-.44-5.65,6,6,0,0,1,.76-2.22c.09,0-.21.88-.4,2.28a11.91,11.91,0,0,0,.57,5.43,13.33,13.33,0,0,0,2.79,4.7C226.12,132.75,226.85,133.27,226.8,133.34Z" style="fill:#263238"></path><path d="M237.14,123.69a5.28,5.28,0,0,1-1.61-1.11,12.7,12.7,0,0,1-2.89-3.72,11.35,11.35,0,0,1-1.24-4.55,4.78,4.78,0,0,1,.16-1.94,17.35,17.35,0,0,0,1.54,6.26C234.74,121.84,237.27,123.55,237.14,123.69Z" style="fill:#263238"></path><path d="M247.1,106.64a5.15,5.15,0,0,1,1,1.45,19.57,19.57,0,0,1,1.5,3.9,18.41,18.41,0,0,1,.58,4.14,4.79,4.79,0,0,1-.12,1.72c-.17,0-.16-2.63-1-5.73S247,106.72,247.1,106.64Z" style="fill:#263238"></path><path d="M266.27,106.27a4.31,4.31,0,0,1,.76,1.55,11.2,11.2,0,0,1,.54,4.14,11,11,0,0,1-1,4.05,4.16,4.16,0,0,1-.93,1.46,19.31,19.31,0,0,0,1.42-5.54A19.26,19.26,0,0,0,266.27,106.27Z" style="fill:#263238"></path><path d="M278.58,109.74a4.5,4.5,0,0,1,1,1.58,11.43,11.43,0,0,1,.24,8.89,4.52,4.52,0,0,1-.94,1.63,17.07,17.07,0,0,0,1.2-6.09A17,17,0,0,0,278.58,109.74Z" style="fill:#263238"></path><path d="M290.41,120.11a3.09,3.09,0,0,1,.27,1.49,10,10,0,0,1-2.41,6.79c-.62.71-1.1,1-1.14,1a19.45,19.45,0,0,0,2.49-4.34A19,19,0,0,0,290.41,120.11Z" style="fill:#263238"></path><path d="M296.42,133a7.3,7.3,0,0,1-4,6,34.65,34.65,0,0,0,2.36-2.77C295.91,134.63,296.26,133,296.42,133Z" style="fill:#263238"></path><path d="M297.23,147.56c.13,0,0,.91-.79,1.61s-1.68.74-1.68.61.68-.4,1.33-1S297.08,147.52,297.23,147.56Z" style="fill:#263238"></path><path d="M218.87,159.55a11.12,11.12,0,0,1-8.23-5.63,32.34,32.34,0,0,0,3.75,3.36A31.59,31.59,0,0,0,218.87,159.55Z" style="fill:#263238"></path><path d="M220.08,166.85c.1.1-.74.86-2.08.93a2.5,2.5,0,0,1-2.18-.68c.07-.13,1,.25,2.15.16S220,166.72,220.08,166.85Z" style="fill:#263238"></path><g style="opacity:0.30000000000000004"><path d="M277.32,109.62a42.24,42.24,0,0,0-32.44-5.9c-11,2.55-21,10.4-26.7,20.15,0,0,13.62-17.23,33.12-17.83S277.32,109.62,277.32,109.62Z"></path></g><path d="M262.26,167.66a23.29,23.29,0,0,0-.45-2.71,11.21,11.21,0,0,0-4.09-6.06,11,11,0,0,0-10.42-1.54,11,11,0,0,0-5.08,3.83,10.94,10.94,0,0,0,0,13,10.47,10.47,0,0,0,2.32,2.33,10.24,10.24,0,0,0,2.77,1.5,11.09,11.09,0,0,0,14.51-7.6,23.29,23.29,0,0,0,.45-2.71,8.61,8.61,0,0,1-.25,2.76,11.16,11.16,0,0,1-4.07,6.3,11.33,11.33,0,0,1-10.8,1.7,11.42,11.42,0,0,1-5.34-4,11.42,11.42,0,0,1,0-13.56,11.42,11.42,0,0,1,5.34-4,11.33,11.33,0,0,1,10.8,1.7,11.16,11.16,0,0,1,4.07,6.3A8.61,8.61,0,0,1,262.26,167.66Z" style="fill:#455a64"></path><path d="M295.79,166.34a20.81,20.81,0,0,0-.45-2.71,11.15,11.15,0,0,0-4.09-6.06A11,11,0,0,0,280.84,156a10.29,10.29,0,0,0-2.78,1.5,10.43,10.43,0,0,0-2.31,2.33,10.92,10.92,0,0,0,0,13,11,11,0,0,0,5.09,3.83,11.09,11.09,0,0,0,14.5-7.59,20.77,20.77,0,0,0,.45-2.72,8.67,8.67,0,0,1-.25,2.77,11.3,11.3,0,0,1-8.85,8.46,11.4,11.4,0,0,1-6-.47,10.85,10.85,0,0,1-2.9-1.55,10.57,10.57,0,0,1-2.43-2.43,11.38,11.38,0,0,1,0-13.56,10.57,10.57,0,0,1,2.43-2.43,10.85,10.85,0,0,1,2.9-1.55,11.51,11.51,0,0,1,6-.47,11.26,11.26,0,0,1,4.78,2.17,11.11,11.11,0,0,1,4.07,6.3A8.61,8.61,0,0,1,295.79,166.34Z" style="fill:#455a64"></path><path d="M273.74,162.07c-.06.07-.65-.45-1.77-1a9.21,9.21,0,0,0-9.15.54c-1,.66-1.58,1.24-1.64,1.18a4.48,4.48,0,0,1,1.43-1.49,8.69,8.69,0,0,1,9.53-.55A4.32,4.32,0,0,1,273.74,162.07Z" style="fill:#455a64"></path><path d="M240.58,165.57A106.19,106.19,0,0,1,230.5,169a105.75,105.75,0,0,1-10.22,2.91c-.05-.14,4.46-1.66,10.07-3.41S240.53,165.44,240.58,165.57Z" style="fill:#455a64"></path><path d="M250.63,177a4.35,4.35,0,0,1-2-.26,10.55,10.55,0,0,1-6.81-6.35,4.45,4.45,0,0,1-.39-1.94c.09,0,.25.72.73,1.8a11.69,11.69,0,0,0,6.59,6.14C249.89,176.76,250.64,176.88,250.63,177Z" style="fill:#fff"></path><path d="M278.14,173.29c0,.06-.74-.14-1.51-1a8.13,8.13,0,0,1-1.84-4,10.86,10.86,0,0,1,.1-4.36,3.4,3.4,0,0,1,.72-1.65c.07,0-.2.66-.36,1.73a13.15,13.15,0,0,0,.05,4.19,9.25,9.25,0,0,0,1.61,3.81A12.68,12.68,0,0,0,278.14,173.29Z" style="fill:#fff"></path><path d="M261.89,189.32c-.1-.1.32-.69.95-1.32s1.22-1.05,1.32-.95-.32.7-1,1.32S262,189.42,261.89,189.32Z" style="fill:#263238"></path><path d="M263.51,190.32c-.11-.09.3-.81.93-1.61s1.22-1.37,1.33-1.28-.3.81-.92,1.6S263.62,190.41,263.51,190.32Z" style="fill:#263238"></path><path d="M265.15,191.55c-.12-.07.14-.81.6-1.67s.92-1.49,1.05-1.42-.14.81-.59,1.67S265.28,191.62,265.15,191.55Z" style="fill:#263238"></path><path d="M267.69,191.56c-.14,0-.22-.53-.17-1.16s.2-1.13.35-1.11.22.52.17,1.15S267.83,191.57,267.69,191.56Z" style="fill:#263238"></path><path d="M270.1,192c-.14,0-.26-.46-.26-1s.12-1,.26-1,.26.46.26,1S270.24,192,270.1,192Z" style="fill:#263238"></path><path d="M272.37,192.17c-.14,0-.39-.54-.56-1.28s-.2-1.37-.06-1.4.39.54.56,1.28S272.51,192.14,272.37,192.17Z" style="fill:#263238"></path><path d="M220.28,194.9a3.58,3.58,0,0,1-6.39,2.79,4.58,4.58,0,0,1-.79-3.52,4,4,0,0,1,1.69-2.42,3.12,3.12,0,0,1,2.57-.62,5.27,5.27,0,0,0-2.36.92,3.82,3.82,0,0,0-1.43,2.22,4.22,4.22,0,0,0,.74,3.11,3,3,0,0,0,2.81,1.27,3.22,3.22,0,0,0,2.18-1.39A7.07,7.07,0,0,0,220.28,194.9Z" style="fill:#263238"></path><path d="M213.62,241.72S176.16,257.18,171,259.51c-8,3.64-21,18.32-22.64,21s-4.31,16.71-4.31,16.71-6.47,9.16-6.47,10.78,38,35.58,38,35.58l4.6,62.7-7.64,41.43H325.79l-6-106.83,33.42-33.42-4.85-10.78h0a55.24,55.24,0,0,0-28.91-38.26l-32.54-16.72s-3.78,26.41-36.66,26.41S213.62,241.72,213.62,241.72Z" style="fill:#fafafa"></path><path d="M213.62,241.72s.1.57.38,1.66a32.85,32.85,0,0,0,5.87,11.73,30.74,30.74,0,0,0,8.33,7.4,37.14,37.14,0,0,0,13.15,4.77,51.73,51.73,0,0,0,8,.7,53.34,53.34,0,0,0,8.72-.55,41.09,41.09,0,0,0,9.05-2.39,36.79,36.79,0,0,0,4.44-2.13,33.06,33.06,0,0,0,4.17-2.89,31.82,31.82,0,0,0,11-18.33l.05-.23.21.1,19.32,9.91,10.33,5.3c1.76.89,3.53,1.81,5.29,2.81a57.53,57.53,0,0,1,5.12,3.34,55.21,55.21,0,0,1,21.09,31.85l.38,1.66.05.21.07.15.18.39.35.77c.46,1,.93,2.08,1.4,3.13.95,2.09,1.89,4.19,2.85,6.31l.06.14-.11.11L320,341.07l.07-.18c1.85,33,3.88,69.13,6,106.82l0,.28H172.28l.06-.3q3.94-21.37,7.65-41.42v.06q-2.43-33.45-4.57-62.71l.07.15q-13.42-12-25.34-23.05c-3.94-3.68-7.8-7.23-11.34-10.9a12.78,12.78,0,0,1-1.24-1.48.6.6,0,0,1-.12-.31l0-.26a2.72,2.72,0,0,1,.15-.48,8.76,8.76,0,0,1,.4-.88c.57-1.12,1.22-2.18,1.88-3.22,1.31-2.09,2.67-4.09,4-6l0,.07c.72-3.65,1.48-7.19,2.34-10.61a48.1,48.1,0,0,1,1.48-5,8.56,8.56,0,0,1,.55-1.19c.24-.36.48-.72.74-1.05.51-.67,1.05-1.32,1.59-1.95a110.88,110.88,0,0,1,13.24-13.23,36,36,0,0,1,7-4.72l7.18-3,12.52-5.2,23.07-9.54-23.07,9.73-12.45,5.23-7.15,3a35.94,35.94,0,0,0-6.92,4.69,112.72,112.72,0,0,0-13.18,13.22c-.53.64-1.07,1.28-1.57,1.95-.26.33-.49.68-.72,1a7.82,7.82,0,0,0-.52,1.14,46.14,46.14,0,0,0-1.47,5c-.85,3.41-1.6,6.95-2.32,10.59v0l0,0c-1.36,1.94-2.71,4-4,6-.64,1.05-1.3,2.1-1.86,3.21a8.75,8.75,0,0,0-.37.83,1.83,1.83,0,0,0-.13.42l0,.1V308h0s.07,0-.08,0h.09s0,0,0,0l.05.08a12.15,12.15,0,0,0,1.21,1.42c3.52,3.64,7.39,7.19,11.33,10.87q11.9,11,25.36,23l.06.06v.08q2.16,29.21,4.63,62.71v.06q-3.69,20-7.63,41.42l-.24-.29H325.79l-.25.27c-2.11-37.69-4.12-73.81-6-106.82v-.11l.08-.08,33.43-33.41-.05.25-2.84-6.31c-.46-1-.93-2.09-1.4-3.12l-.35-.78-.17-.39a1.23,1.23,0,0,1-.1-.24l-.05-.21-.38-1.65a54.78,54.78,0,0,0-20.9-31.62,60.69,60.69,0,0,0-5.08-3.33l-2.63-1.44-2.64-1.36-10.33-5.31-19.3-9.94.25-.13A32.15,32.15,0,0,1,276,260.26a32.7,32.7,0,0,1-4.22,2.91,35.91,35.91,0,0,1-4.48,2.14,41.25,41.25,0,0,1-9.12,2.39,52.72,52.72,0,0,1-8.76.53,52.1,52.1,0,0,1-8.08-.72,37.43,37.43,0,0,1-13.21-4.84,31.18,31.18,0,0,1-8.35-7.47,32.94,32.94,0,0,1-4.17-7,29.94,29.94,0,0,1-1.62-4.76A16.15,16.15,0,0,1,213.62,241.72Z" style="fill:#263238"></path><path d="M174.65,342.94a2.11,2.11,0,0,1-.2-.53l-.49-1.56c-.2-.68-.45-1.51-.79-2.45s-.67-2-1.14-3.22-.95-2.47-1.56-3.82-1.28-2.79-2-4.3A93.59,93.59,0,0,0,163,317.7a90.81,90.81,0,0,0-6.65-8.58c-1.13-1.24-2.18-2.43-3.24-3.46s-2-2-3-2.87-1.8-1.6-2.56-2.26-1.42-1.21-2-1.65l-1.26-1q-.44-.36-.42-.39a2.71,2.71,0,0,1,.48.31l1.33,1c.57.41,1.27.93,2,1.58s1.69,1.35,2.61,2.21,2,1.78,3,2.84,2.15,2.22,3.3,3.45a87.49,87.49,0,0,1,6.72,8.61,86.25,86.25,0,0,1,5.48,9.44c.72,1.52,1.42,2.95,2,4.34s1.08,2.67,1.51,3.87.77,2.29,1.08,3.25.54,1.79.71,2.48.28,1.17.39,1.59A2.34,2.34,0,0,1,174.65,342.94Z" style="fill:#263238"></path><path d="M153.87,275.24a3.7,3.7,0,0,1,.37.63l1,1.86,3.55,6.83c3,5.75,7.34,13.69,10.47,23.15a116,116,0,0,1,5.67,24.76c.35,3.24.46,5.88.48,7.7,0,.91,0,1.62,0,2.09a3.91,3.91,0,0,1,0,.74,3.71,3.71,0,0,1-.06-.73c0-.53-.05-1.23-.08-2.09-.08-1.82-.25-4.44-.64-7.66a123.71,123.71,0,0,0-5.8-24.64c-3.12-9.41-7.39-17.35-10.3-23.15-1.47-2.9-2.64-5.26-3.41-6.91-.39-.82-.68-1.47-.88-1.9A5.74,5.74,0,0,1,153.87,275.24Z" style="fill:#263238"></path><path d="M323,289.14a2.36,2.36,0,0,1,0,.56c-.06.42-.14.95-.23,1.59-.22,1.38-.51,3.38-.85,5.84-.68,4.94-1.46,11.79-1.93,19.38s-.5,14.48-.41,19.46c0,2.49.09,4.51.13,5.9l0,1.61a3.42,3.42,0,0,1,0,.56,2.08,2.08,0,0,1-.09-.55c0-.43-.07-1-.13-1.61-.11-1.39-.22-3.4-.3-5.9-.18-5-.19-11.89.27-19.51s1.3-14.46,2.08-19.39c.38-2.46.73-4.45,1-5.82l.32-1.58A2.09,2.09,0,0,1,323,289.14Z" style="fill:#263238"></path><path d="M342.48,280.68s-.06.16-.22.44l-.73,1.23c-.69,1.13-1.6,2.65-2.72,4.5-2.28,3.81-5.33,9.12-8.52,15.09s-6,11.44-8,15.39L319.86,322l-.69,1.25q-.24.43-.27.42a1.51,1.51,0,0,1,.18-.47l.59-1.29c.58-1.19,1.35-2.79,2.29-4.74,2-4,4.68-9.48,7.87-15.46s6.3-11.28,8.66-15c1.19-1.88,2.17-3.39,2.87-4.42l.81-1.17A1.88,1.88,0,0,1,342.48,280.68Z" style="fill:#263238"></path><path d="M349,297.53a10.53,10.53,0,0,1-1,1.34c-.67.84-1.67,2-2.92,3.49-2.5,2.92-6.08,6.84-10.23,11s-8.1,7.7-11,10.19c-1.46,1.24-2.66,2.23-3.51,2.9a9.72,9.72,0,0,1-1.34,1,11,11,0,0,1,1.21-1.15l3.4-3c2.85-2.56,6.75-6.15,10.89-10.28s7.76-8,10.33-10.85l3-3.38A10.43,10.43,0,0,1,349,297.53Z" style="fill:#263238"></path><path d="M335.42,307.12a25.86,25.86,0,0,1-2.32,2.66l-5.74,6.29-5.68,6.33a25.27,25.27,0,0,1-2.43,2.57,4.17,4.17,0,0,1,.54-.79c.37-.49.92-1.18,1.61-2,1.38-1.69,3.34-4,5.57-6.44s4.32-4.65,5.86-6.19c.77-.77,1.4-1.39,1.85-1.8S335.39,307.09,335.42,307.12Z" style="fill:#263238"></path><path d="M288.86,245a17.9,17.9,0,0,1-.52,4.12,26.2,26.2,0,0,1-4.87,10.18,30.72,30.72,0,0,1-5.51,5.56,33.88,33.88,0,0,1-7.8,4.49,47.24,47.24,0,0,1-20.22,3.19A51.59,51.59,0,0,1,230,267.66a38.45,38.45,0,0,1-13.19-10.29,32.81,32.81,0,0,1-5.58-9.82,22.55,22.55,0,0,1-1.07-4s0,.08.09.25.13.46.21.77.21.76.38,1.25.33,1.05.58,1.67a33.52,33.52,0,0,0,5.67,9.65,38.44,38.44,0,0,0,13.11,10.1A51.78,51.78,0,0,0,250,272a47.05,47.05,0,0,0,20-3.12,33.25,33.25,0,0,0,7.72-4.38,30.73,30.73,0,0,0,5.48-5.45,26.66,26.66,0,0,0,5-10,15,15,0,0,0,.37-1.72,12.9,12.9,0,0,0,.2-1.28l.1-.8A.84.84,0,0,1,288.86,245Z" style="fill:#263238"></path><path d="M313.57,321.71a176,176,0,0,1-4.43,45.42c-19.45,5.13-30,1.28-43.72-4.23-1.89-16,1.4-28.67,2.84-44.73,0,0,13.95,5.44,25.85,6.63S313.57,321.71,313.57,321.71Z" style="fill:#455a64"></path><g style="opacity:0.30000000000000004"><path d="M280.14,326a6.29,6.29,0,0,0-6.61,2.77c-.46.76-.75,1.62-1.24,2.36A17.23,17.23,0,0,0,271,333a1.81,1.81,0,0,0,.18,2.08c.91.86,2.42,0,3.64.22a10.27,10.27,0,0,1,1.92,1,4.25,4.25,0,0,0,4.45-1,12.3,12.3,0,0,0,2.61-4,31.56,31.56,0,0,1-3.19,1.72,1.68,1.68,0,0,1-1.49.13c-.45-.25-.41-1.13.1-1.14a3.24,3.24,0,0,1-2,.33c-.66-.18-1.17-1-.78-1.57s1-.46,1.48-.73c1.35-.72,2.56-3.78,2.19-4"></path><path d="M294.14,362.34a6.27,6.27,0,0,0,5.23,4.91c.88.11,1.78,0,2.66.18a16.85,16.85,0,0,0,2.19.41,1.83,1.83,0,0,0,1.83-1c.41-1.18-1-2.19-1.28-3.42a9.86,9.86,0,0,1,.12-2.16,4.24,4.24,0,0,0-2.71-3.66,12.56,12.56,0,0,0-4.73-.75,32.3,32.3,0,0,1,2.87,2.22,1.7,1.7,0,0,1,.73,1.3c-.05.51-.87.84-1.09.37a3.21,3.21,0,0,1,1.11,1.69c.11.67-.43,1.48-1.11,1.35s-.83-.71-1.27-1.06c-1.21-.93-4.5-.79-4.55-.37"></path><path d="M286.4,326.17a5.64,5.64,0,0,0-2.51-.25,3.26,3.26,0,0,0-2.14,1.25,2.33,2.33,0,0,0-.2,2.41c.34.59,1,1.12.86,1.79a4.17,4.17,0,0,1-.35.74.59.59,0,0,0,.14.73c.27.16.6-.07.83-.29l2.4-2.33a5.41,5.41,0,0,0,1.46-1.94,1.83,1.83,0,0,0-.61-2.17"></path><path d="M296.31,326.68c-.93-.41-.76-.71-1.63-1.23a3.12,3.12,0,0,0-2.89-.39c-1.05.53-1.39,1.84-1.62,3-.32,1.66-.65,3.32-1,5a5.45,5.45,0,0,0,0,3.15,3.52,3.52,0,0,0,3.39,1.89,7.67,7.67,0,0,0,3.8-1.45,4.88,4.88,0,0,0,2.2-2.45,2,2,0,0,0-1.38-2.61,3.72,3.72,0,0,0-2.15.81,1.9,1.9,0,0,1-2.18.08c-.64-.61-.24-1.76.47-2.3s1.62-.73,2.38-1.2,1.37-1.46.93-2.23"></path><path d="M274.36,341.91c-.55-.72-1.12-.76-2-1.28a3.08,3.08,0,0,0-2.89-.38c-1.05.53-1.39,1.84-1.62,3-.32,1.66-.65,3.32-1,5a5.37,5.37,0,0,0,0,3.15,3.52,3.52,0,0,0,3.39,1.89,7.61,7.61,0,0,0,3.81-1.45,4.89,4.89,0,0,0,2.2-2.45,2,2,0,0,0-1.39-2.6,3.8,3.8,0,0,0-2.15.8c-.67.38-1.61.62-2.17.09s-.25-1.77.46-2.31,1.63-.73,2.38-1.2,1.37-1.45.93-2.23"></path><path d="M305.63,338.22c-1,.22-1-.12-2.05,0a3.11,3.11,0,0,0-2.55,1.41c-.52,1.05,0,2.31.49,3.37.72,1.53,1.45,3,2.18,4.58a5.34,5.34,0,0,0,1.88,2.53,3.53,3.53,0,0,0,3.85-.5,7.65,7.65,0,0,0,2.2-3.43,4.86,4.86,0,0,0,.3-3.28,2,2,0,0,0-2.66-1.27,3.82,3.82,0,0,0-1.25,1.92c-.31.71-.92,1.46-1.69,1.37s-1.25-1.27-1-2.13.87-1.55,1.2-2.38A1.83,1.83,0,0,0,306,338"></path><path d="M308.7,327.83a7.84,7.84,0,0,1-2.31-.14,6.14,6.14,0,0,0-2.3-.05,2.25,2.25,0,0,0-1.71,1.41,6.69,6.69,0,0,0,.08,2.18c0,.55-.07,1.1-.09,1.65a2.32,2.32,0,0,0,.45,1.56,2.92,2.92,0,0,0,1.72.76,3.23,3.23,0,0,0,2.78-.29,3.15,3.15,0,0,0,.8-1.52q.78-2.5,1.55-5Z"></path><path d="M272.5,356.07a6.61,6.61,0,0,1-1.93-.12,5.17,5.17,0,0,0-1.92,0,1.89,1.89,0,0,0-1.42,1.18,5.47,5.47,0,0,0,.07,1.8c0,.46-.06.92-.07,1.38a1.92,1.92,0,0,0,.37,1.3,2.44,2.44,0,0,0,1.43.63,2.68,2.68,0,0,0,2.31-.24,2.61,2.61,0,0,0,.67-1.27l1.29-4.16Z"></path><path d="M282.88,353.49a5.12,5.12,0,0,0-5.86.17,4.68,4.68,0,0,0-1.16,5.45c.35.7.86,1.3,1.24,2,.75,1.37.95,3.07,2,4.19,1.49,1.55,4.14,1.35,5.92.14a13.5,13.5,0,0,0,3.89-5,4.22,4.22,0,0,0,.67-1.94,4.29,4.29,0,0,0-1.56-2.75,4,4,0,0,0-1.43-1.09,1.38,1.38,0,0,0-1.62.44c-.42.68.09,1.52.31,2.29a3,3,0,0,1-1.82,3.57,2.44,2.44,0,0,1-3.06-2.25c.09-2,2.73-3.24,2.44-5.17"></path><path d="M298.66,352.14a6.83,6.83,0,0,1-4.43.75c-.7-.12-1.51-.52-1.52-1.22s.53-1,1-1.39a3.83,3.83,0,0,0,1.28-2.8,2.63,2.63,0,0,0-1.72-2.43,2,2,0,0,0-2.49,1.34,4.93,4.93,0,0,0,.36,2.25,1.87,1.87,0,0,1-.49,2.1,1.46,1.46,0,0,1-1.68-.27,3.54,3.54,0,0,1-.88-1.57c-.72-2.17-.83-4.8.72-6.48,1.22-1.33,3.14-1.7,4.92-2a2.54,2.54,0,0,1,3.45,2c.54,1.35,1.07,2.87.5,4.19-.31.71-.92,1.33-.89,2.1.05,1.35,2,2.09,1.92,3.43"></path><path d="M278.34,344.1a3.84,3.84,0,0,1,1.45,1.77,10.73,10.73,0,0,1,.49,2,2.67,2.67,0,0,0,1.35,1.93,2.25,2.25,0,0,0,2.53-.92,6.46,6.46,0,0,0,.95-2.72,4.3,4.3,0,0,0-.2-3.11,3.28,3.28,0,0,0-2.45-1.25,6.72,6.72,0,0,0-3.71.68,1.57,1.57,0,0,0-.8.72.63.63,0,0,0,.39.87"></path><path d="M294.84,361a1.34,1.34,0,0,1,1-1.2,9,9,0,0,1,1.63-.3,1.77,1.77,0,0,0,1.34-.86,1.52,1.52,0,0,0-.55-1.74,4.31,4.31,0,0,0-1.82-.71,2.84,2.84,0,0,0-2.11.05,2.23,2.23,0,0,0-.91,1.62,4.58,4.58,0,0,0,.36,2.53,1,1,0,0,0,.47.56.42.42,0,0,0,.6-.24"></path></g><path d="M313.57,321.71a1.22,1.22,0,0,1-.17.13l-.56.33a17.23,17.23,0,0,1-2.31,1,38.22,38.22,0,0,1-9.32,1.83,37.26,37.26,0,0,1-6.79,0,70.23,70.23,0,0,1-7.89-1.27,147.14,147.14,0,0,1-18.35-5.37l.31-.19c-.75,6.46-1.58,13.47-2.18,20.91a186.83,186.83,0,0,0-.65,23.4l0,.39-.15-.22a85.88,85.88,0,0,0,11.36,4.16,66.59,66.59,0,0,0,11.35,2.34,44.51,44.51,0,0,0,20.81-2.24l-.13.16c1.26-6.74,2.34-12.94,3.19-18.45s1.53-10.35,1.38-14.32c.05-7.77.08-11.68.08-12.61a1.14,1.14,0,0,1,0,.19c0,.16,0,.36,0,.62,0,.57,0,1.38,0,2.43,0,2.17.07,5.33.12,9.33s-.48,8.89-1.27,14.41-1.87,11.73-3.12,18.48l0,.12-.1,0a44.72,44.72,0,0,1-21.06,2.33,68.25,68.25,0,0,1-11.43-2.34,86.2,86.2,0,0,1-11.44-4.19l-.15-.06v-.16l0-.39a186.06,186.06,0,0,1,.66-23.48c.63-7.45,1.47-14.46,2.24-20.91l0-.29.27.1a149.1,149.1,0,0,0,18.27,5.44,72,72,0,0,0,7.84,1.31,36.88,36.88,0,0,0,6.73,0,40,40,0,0,0,9.31-1.69,18.14,18.14,0,0,0,2.32-.92l.57-.29Z" style="fill:#263238"></path><path d="M293.79,359.4a6.11,6.11,0,0,1-.9-.89c-.56-.6-1.34-1.48-2.28-2.59-1.89-2.21-4.41-5.36-7-9s-4.74-7-6.22-9.52c-.74-1.25-1.32-2.28-1.71-3a4.89,4.89,0,0,1-.54-1.14,7.44,7.44,0,0,1,.72,1l1.84,2.91c1.56,2.45,3.76,5.8,6.33,9.41s5,6.77,6.85,9l2.15,2.68A5.42,5.42,0,0,1,293.79,359.4Z" style="fill:#263238"></path><path d="M310.53,327.66s-.12.11-.37.26a12.24,12.24,0,0,1-1.13.64,23.88,23.88,0,0,1-4.42,1.76,33.94,33.94,0,0,1-15.62.56,56.18,56.18,0,0,1-14.76-5.27c-1.79-.92-3.2-1.71-4.17-2.28-.49-.29-.85-.52-1.1-.68a1.93,1.93,0,0,1-.37-.26,10.1,10.1,0,0,1,1.57.76c1,.51,2.43,1.26,4.23,2.13a60.3,60.3,0,0,0,14.7,5.09,35.09,35.09,0,0,0,15.42-.4,28.42,28.42,0,0,0,4.44-1.59A14.45,14.45,0,0,1,310.53,327.66Z" style="fill:#263238"></path><path d="M296.69,404.45h-.32l-.95-.09c-.84-.11-2.08-.17-3.66-.44a83.67,83.67,0,0,1-13.16-3.08,101.74,101.74,0,0,1-18.41-8A133.42,133.42,0,0,1,239.91,379a201.26,201.26,0,0,1-17.86-16.87c-5.18-5.5-9.61-10.66-13.28-15s-6.56-8-8.56-10.46c-1-1.23-1.74-2.19-2.29-2.87l-.58-.76q-.19-.25-.18-.27a1.52,1.52,0,0,1,.22.23l.63.73,2.36,2.81c2,2.45,5,6,8.68,10.36s8.16,9.47,13.35,14.94a204.82,204.82,0,0,0,17.84,16.8,135.81,135.81,0,0,0,20.18,13.82,103.88,103.88,0,0,0,18.29,8,88.84,88.84,0,0,0,13.09,3.23c1.56.3,2.8.4,3.63.53l.94.14A1.3,1.3,0,0,1,296.69,404.45Z" style="fill:#263238"></path><path d="M137.71,259s8.66-1.77,12.33-6.68S167.82,215,167.82,215s-3.9-2.72-8.79,2.58c-3.62,3.93-9.92,13.55-9.92,13.55s2.53-20.44,3.39-27.45c.76-6.15,1.55-15.52-1.46-16.74s-4.72,10.65-6.44,15.49-4,11.78-4,11.78c0,.38,2.46-24.36,1.3-31.14-.84-4.95-6.91-3.09-7.08,2.66,0,0-2.32-5.8-5-1.63s-4.77,28.21-6.4,27.79-1.06-20.06-3.62-21.88c-1.45-1-3.39.81-3.77,5.79s-3,42.57-2.07,47.78,3,7.07,3,7.07Z" style="fill:#b78876"></path><path d="M95.71,329.38a841.31,841.31,0,0,1,23-87.66h28.79l-13.09,79.7,6.19-10.06,30,27.88s-22.28,29.79-33,35.27C103.36,392.06,90.38,355.83,95.71,329.38Z" style="fill:#b78876"></path><path d="M142.58,270.6a6.28,6.28,0,0,1-.12.89c-.11.62-.25,1.46-.43,2.53-.4,2.24-.95,5.39-1.64,9.28-1.34,7.84-3.28,18.66-4.83,30.69-.18,1.51-.35,3-.52,4.46s-.28,2.92-.33,4.34c0,.71-.06,1.42-.05,2.11s.05,1.37.16,2c.23,1.35.55,2.65.89,3.92.68,2.53,1.42,4.93,1.86,7.24a31.2,31.2,0,0,1-1,15.81c-.37,1.06-.69,1.86-.94,2.39a5.78,5.78,0,0,1-.39.8,4.84,4.84,0,0,1,.3-.84c.21-.54.5-1.35.84-2.41a32.91,32.91,0,0,0,1.41-9.24,30.92,30.92,0,0,0-.62-6.42c-.46-2.28-1.21-4.66-1.9-7.21-.35-1.27-.68-2.59-.92-4-.12-.69-.12-1.41-.18-2.12s0-1.42,0-2.14c0-1.44.22-2.89.33-4.37s.34-3,.51-4.47c1.56-12.06,3.56-22.87,5-30.7.73-3.91,1.35-7.07,1.8-9.25.22-1.06.4-1.89.53-2.51l.15-.65A1,1,0,0,1,142.58,270.6Z" style="fill:#995037"></path><path d="M138,242.68c-.09,0-.41-1-1.2-2.6a21.31,21.31,0,0,0-9.51-9.51c-1.57-.79-2.62-1.12-2.59-1.21a2.36,2.36,0,0,1,.76.15,14.1,14.1,0,0,1,2,.72,19.18,19.18,0,0,1,5.73,4,19,19,0,0,1,3.95,5.74,12.89,12.89,0,0,1,.72,2C138,242.4,138,242.67,138,242.68Z" style="fill:#995037"></path><path d="M146.57,234.65c.07.14-2.23,1.27-4.56,3.35s-3.74,4.21-3.87,4.12a12.79,12.79,0,0,1,3.53-4.51A12.59,12.59,0,0,1,146.57,234.65Z" style="fill:#995037"></path><path d="M135.35,183.68c.14,0-.28,6.67-.94,14.87s-1.31,14.84-1.45,14.83.27-6.67.93-14.87S135.2,183.67,135.35,183.68Z" style="fill:#995037"></path><path d="M106.53,305.79a12.13,12.13,0,0,0-.33,3,9.36,9.36,0,0,0,.85,3.47,8.61,8.61,0,0,0,3,3.57,9.15,9.15,0,0,0,5.41,1.5,8.87,8.87,0,0,0,3.08-.69,9,9,0,0,0,2.76-1.88,13.08,13.08,0,0,0,3.34-6.34,27.07,27.07,0,0,0,.4-7.83c-.07-1-.15-1.95-.23-2.9l.48.11-2.45,3.85c-.41.62-.8,1.25-1.2,1.86a8,8,0,0,1-.63.93,1.27,1.27,0,0,1-.53.39,1.06,1.06,0,0,1-.68,0,4.5,4.5,0,0,1-1-.55,7.67,7.67,0,0,0-2.78-1.09,7.91,7.91,0,0,0-3.76.22l-.25.08,0-.27a25.15,25.15,0,0,0-2.41-8l.33,0c-1.14,3.25-2.06,5.85-2.58,7.68-.26.91-.45,1.63-.58,2.11a3.43,3.43,0,0,1-.21.73,3.84,3.84,0,0,1,.11-.75c.1-.49.25-1.22.49-2.14.46-1.86,1.34-4.49,2.43-7.74l.14-.41.19.39a25.16,25.16,0,0,1,2.54,8.09l-.29-.19a8.27,8.27,0,0,1,4-.26,8.16,8.16,0,0,1,2,.63,8.54,8.54,0,0,1,.94.51,3.69,3.69,0,0,0,.86.49c.54.22.88-.51,1.28-1.12s.79-1.24,1.18-1.87l2.45-3.85.41-.64.07.76c.08,1,.17,1.93.23,2.92a27.51,27.51,0,0,1-.42,8,13.42,13.42,0,0,1-3.51,6.56,9,9,0,0,1-6.15,2.66,9.5,9.5,0,0,1-5.64-1.62,8.89,8.89,0,0,1-3-3.76,9.55,9.55,0,0,1-.78-3.58,8.46,8.46,0,0,1,.27-2.3c.06-.25.14-.44.18-.57S106.52,305.79,106.53,305.79Z" style="fill:#263238"></path><path d="M108.13,306.35a7.52,7.52,0,0,0,.56,2.18,4.33,4.33,0,0,0,4.33,2.41l-.24.25v0a4.67,4.67,0,0,0-2.58-4.32,8.32,8.32,0,0,0-2.17-.62,3.32,3.32,0,0,1,2.33.28,4.79,4.79,0,0,1,2,1.63,5.13,5.13,0,0,1,.93,3.05v.25l-.23,0a4.74,4.74,0,0,1-3.08-.78,4.47,4.47,0,0,1-1.64-2A3.26,3.26,0,0,1,108.13,306.35Z" style="fill:#263238"></path><path d="M110.44,309.35c-.15,0-.19-.53-.1-1.14s.27-1.09.42-1.07.18.53.09,1.14S110.58,309.37,110.44,309.35Z" style="fill:#263238"></path><path d="M117.51,311.16a8.83,8.83,0,0,0,2,.08,4.22,4.22,0,0,0,2.76-1.65,3,3,0,0,0,.31-.52c0-.18,0-.22-.1-.33a3.53,3.53,0,0,0-2.4-.28,3.59,3.59,0,0,0-1.78,1,7.1,7.1,0,0,0-1,1.65,2.62,2.62,0,0,1,.78-1.9,3.86,3.86,0,0,1,4.75-.89.84.84,0,0,1,.32.41.86.86,0,0,1,0,.51,2.87,2.87,0,0,1-.39.65,4.44,4.44,0,0,1-1,.95,4.18,4.18,0,0,1-2.14.77A2.8,2.8,0,0,1,117.51,311.16Z" style="fill:#263238"></path><path d="M114,303.07a11.72,11.72,0,0,1,.69,5l0,.75-.44-.6-.12-.16a7.43,7.43,0,0,1-1.36-3.49,3,3,0,0,1,.09-1.55,9.87,9.87,0,0,1,.27,1.49,8.43,8.43,0,0,0,1.43,3.24l.1.15-.46.15C114.3,305.28,113.88,303.09,114,303.07Z" style="fill:#263238"></path><path d="M116.92,303.41c.07,0,.11.47,0,1.21a8,8,0,0,1-.32,1.28c-.08.23-.18.48-.29.72l-.18.37a.75.75,0,0,1-.41.43.4.4,0,0,1-.49-.19.83.83,0,0,1-.07-.31v-.41q0-.4,0-.78a8.17,8.17,0,0,1,.2-1.29c.17-.73.38-1.14.44-1.12s0,.46-.08,1.18c0,.36-.07.79-.08,1.26,0,.24,0,.49,0,.74V307s0,0-.07,0,0,.08,0,0,.19-.34.28-.57.21-.46.3-.68a11.36,11.36,0,0,0,.41-1.19C116.75,303.85,116.84,303.41,116.92,303.41Z" style="fill:#263238"></path><path d="M115.21,312.43s.06-.12.24-.09a.43.43,0,0,1,.27.17.53.53,0,0,1,.07.45.85.85,0,0,1-.86.55,2.42,2.42,0,0,1-1.09-.26,2.5,2.5,0,0,1-.68-.5l-.2-.21.22-.16a1.93,1.93,0,0,1,1.4-.36c.35.05.52.18.51.23s-.85-.09-1.6.52l0-.37a2.93,2.93,0,0,0,.56.39c.58.28,1.26.34,1.37,0a.22.22,0,0,0-.06-.3C115.3,312.46,115.23,312.47,115.21,312.43Z" style="fill:#263238"></path><path d="M119.13,313.53s.05.19,0,.52a2.48,2.48,0,0,1-.86,1.17,2.43,2.43,0,0,1-2.14.4,2.71,2.71,0,0,1-1.83-1.92l0-.25.51-.08a1.71,1.71,0,0,1-1.61,2,2.45,2.45,0,0,1-1.93-.85,3.54,3.54,0,0,1-.69-1.19c-.1-.31-.12-.48-.09-.5a12.78,12.78,0,0,0,1,1.44,2.1,2.1,0,0,0,1.63.62,1.23,1.23,0,0,0,1.14-1.37l.52-.09,0,.19a2.25,2.25,0,0,0,1.47,1.58,2.12,2.12,0,0,0,1.78-.24A3.53,3.53,0,0,0,119.13,313.53Z" style="fill:#263238"></path><path d="M119.47,304.53c.06,0,.08.37-.1.91a4.26,4.26,0,0,1-1.2,1.83l-.06.05-.47.42,0-.63a8.39,8.39,0,0,1,.42-2.89,8.34,8.34,0,0,1,.1,2.92l-.43-.21,0-.05A10.43,10.43,0,0,0,119.47,304.53Z" style="fill:#263238"></path><path d="M124.08,302.61c.12.1-.1.53-.33,1.05s-.4,1-.55,1-.19-.56.08-1.17S124,302.52,124.08,302.61Z" style="fill:#263238"></path><path d="M109.62,300.44c.14,0,.32.52.27,1.19s-.29,1.18-.43,1.14-.13-.55-.09-1.18S109.48,300.46,109.62,300.44Z" style="fill:#263238"></path><path d="M106.92,312.8c-.14,0,0-1.12,1-2l.27-.21.16.47c-1,0-1.63.48-1.71.37s.52-.81,1.69-.88l.81-.06-.65.52-.23.19C107.41,311.94,107.06,312.84,106.92,312.8Z" style="fill:#263238"></path><path d="M121.92,314.26c-.11.08-.65-.51-1.25-1.34l.46-.22.07.29c.27,1.19,0,2.18-.09,2.15s-.17-.94-.42-2l-.06-.28-.33-1.38.79,1.17C121.66,313.48,122,314.19,121.92,314.26Z" style="fill:#263238"></path><path d="M108.49,286.14a3.31,3.31,0,0,1,.11.58c.07.43.15.95.24,1.59l.76,5.72-.29-.16,3.42-1.82.29-.15,0,.33c.32,2.39.67,5,1.05,7.85h-.51c.12-.78.24-1.6.37-2.44.48-3.11.94-6.08,1.36-8.76l.32.26-3.35,1.23-.29.1v-.3c0-2.23,0-4.18-.07-5.78l.22.13-2.67,1.21a10.4,10.4,0,0,1-1,.41,4.53,4.53,0,0,1,.88-.51l2.67-1.38.2-.1v.23c0,1.6.12,3.55.2,5.78l-.29-.2,3.33-1.27.38-.14-.06.4c-.4,2.69-.85,5.65-1.32,8.77-.12.84-.25,1.66-.37,2.44l-.28,1.82-.23-1.83c-.36-2.81-.7-5.47-1-7.86l.33.17-3.45,1.76-.26.14,0-.29c-.23-2.39-.43-4.36-.57-5.83,0-.63-.1-1.15-.13-1.57A2.07,2.07,0,0,1,108.49,286.14Z" style="fill:#263238"></path><path d="M119.22,289.64a12.57,12.57,0,0,1-.53,1.58c-.37,1-.89,2.37-1.55,4L117,295l2.92,0h.33l-.12.31c-.65,1.7-1.38,3.58-2.14,5.57l-.45-.25,1.13-1.47,4.08-5.3.15.39-2.66-.41-.3-.05.14-.27,2.07-3.83.13.22-2.19-.19a5.21,5.21,0,0,1-.83-.11,2.56,2.56,0,0,1,.77,0c.51,0,1.28,0,2.26,0h.23l-.1.21c-.55,1.09-1.21,2.4-1.95,3.89l-.16-.31,2.66.36.4.06-.24.32-4,5.32L117.91,301l-1.13,1.48.69-1.73,2.19-5.55.21.31-2.92-.09h-.29l.11-.26c.73-1.73,1.34-3.12,1.77-4.07A9.31,9.31,0,0,1,119.22,289.64Z" style="fill:#263238"></path><path d="M119.4,310.2c-.14,0-.2-.45-.13-.95s.25-.9.39-.88.2.44.13.95S119.54,310.22,119.4,310.2Z" style="fill:#263238"></path><path d="M116.6,320.92a5.39,5.39,0,0,0-1.29-.29,10.56,10.56,0,0,0-3.53.72,7,7,0,0,1-2.58.3,2.91,2.91,0,0,1-2.47-1.69,23,23,0,0,1-.82-3.14,8,8,0,0,0-1.83-2.77,4.69,4.69,0,0,1-.91-1.6,3.1,3.1,0,0,1,0-1.81,23.3,23.3,0,0,1,1.37-2.95,3.64,3.64,0,0,0,.19-2.68c-.24-.85-.64-1.61-.88-2.36a4.3,4.3,0,0,1-.25-2.14,2.49,2.49,0,0,1,.81-1.41c.74-.6,1.34-.38,1.3-.37a2,2,0,0,0-1.16.52,2.3,2.3,0,0,0-.66,1.31,4.17,4.17,0,0,0,.3,2c.26.72.67,1.47.95,2.37a4.34,4.34,0,0,1,.22,1.46,4.84,4.84,0,0,1-.38,1.53,24.16,24.16,0,0,0-1.31,2.89,2.58,2.58,0,0,0,0,1.53,4.44,4.44,0,0,0,.83,1.43,8.44,8.44,0,0,1,1.91,2.95,25.15,25.15,0,0,0,.77,3.08,2.48,2.48,0,0,0,2.08,1.47,6.89,6.89,0,0,0,2.43-.24,9.7,9.7,0,0,1,3.65-.56,3,3,0,0,1,1,.29C116.51,320.83,116.61,320.9,116.6,320.92Z" style="fill:#263238"></path><path d="M119.51,318.3c-.05,0,.28-.4.95-.25a1.36,1.36,0,0,1,.89.71,1.38,1.38,0,0,1-1.54,1.88,1.36,1.36,0,0,1-.87-.73c-.28-.62,0-1,0-1s0,.38.27.8a1.09,1.09,0,0,0,.65.44.94.94,0,0,0,1-1.22,1.05,1.05,0,0,0-.57-.55C119.88,318.2,119.55,318.37,119.51,318.3Z" style="fill:#263238"></path><path d="M125.34,291.67s.1,0,.29,0a2,2,0,0,1,.76.33,3.72,3.72,0,0,1,1.35,2.65c.16,1.27-.16,2.76.3,4.29a18.82,18.82,0,0,1,.65,2.52,7.31,7.31,0,0,1-.32,2.82,17.82,17.82,0,0,0-.4,5.23,13.73,13.73,0,0,1-.17,2.36,6.62,6.62,0,0,1-.66,2,4.48,4.48,0,0,1-2.08,2.13,2.86,2.86,0,0,1-.78.22c-.19,0-.29,0-.29,0s.39-.08,1-.4a4.52,4.52,0,0,0,1.84-2.11,8.82,8.82,0,0,0,.68-4.16,17.63,17.63,0,0,1,.38-5.37,7.19,7.19,0,0,0,.32-2.63,18.45,18.45,0,0,0-.62-2.46c-.45-1.67-.08-3.19-.2-4.38a3.59,3.59,0,0,0-1.11-2.52A3.17,3.17,0,0,0,125.34,291.67Z" style="fill:#263238"></path><path d="M123.2,286.39c0,.05-.16.3-.06.73a.86.86,0,0,0,.39.55.75.75,0,0,0,1-.79.87.87,0,0,0-.45-.51c-.39-.2-.68-.05-.72-.12s.25-.38.85-.22a1.14,1.14,0,0,1,.77.7,1.11,1.11,0,0,1-.41,1.24,1.12,1.12,0,0,1-1.3.11,1.14,1.14,0,0,1-.5-.92C122.76,286.54,123.18,286.32,123.2,286.39Z" style="fill:#263238"></path><path d="M125.11,262.13s-.29.64-.78,1.8a19.84,19.84,0,0,0-1.39,5.11,21,21,0,0,0,.52,7.8,27.63,27.63,0,0,0,4.05,8.7c2,2.81,4.09,5.39,5.31,8.18a31.41,31.41,0,0,1,2.25,7.66c.37,2.24.55,4.07.66,5.33l.1,1.45a1.64,1.64,0,0,1,0,.51,2.6,2.6,0,0,1-.1-.5l-.21-1.44c-.17-1.25-.4-3.07-.82-5.28a32.13,32.13,0,0,0-2.31-7.53c-1.22-2.71-3.33-5.24-5.31-8.09A27.16,27.16,0,0,1,123,277a20.68,20.68,0,0,1-.43-8,17.83,17.83,0,0,1,1.58-5.14,12.83,12.83,0,0,1,.68-1.3A2.33,2.33,0,0,1,125.11,262.13Z" style="fill:#263238"></path><path d="M132.65,293.4s0,.06.07.2l.14.25.1.17s0,.07,0,.11.07.09,0,.2l-.4.41.31-.52a22.36,22.36,0,0,0,2.67-6.72,29.86,29.86,0,0,0,.05-12.36l0-.23.43.14a12.86,12.86,0,0,0-3.66,6.83,21.44,21.44,0,0,0-.27,6.44c.18,1.84.45,3.32.63,4.34a9.62,9.62,0,0,1,.25,1.6,9.12,9.12,0,0,1-.45-1.55,37.66,37.66,0,0,1-.79-4.35,20.8,20.8,0,0,1,.16-6.58,13.23,13.23,0,0,1,3.77-7.12l.35-.31.09.45,0,.23a29,29,0,0,1-.16,12.56A19.4,19.4,0,0,1,133,294.3l-.08-.07C132.69,293.77,132.53,293.37,132.65,293.4Z" style="fill:#263238"></path><path d="M125,281s-.07.09-.24.21a2.94,2.94,0,0,1-.84.37,5.67,5.67,0,0,1-3.33-.29,21.14,21.14,0,0,1-8.84-6.4l-.29-.36L111,274l.72.16a36.55,36.55,0,0,1,10,3.79,5.84,5.84,0,0,1,2.33,2.24,3,3,0,0,1,.27.85c0,.2,0,.31,0,.31a6.35,6.35,0,0,0-.43-1.07,6,6,0,0,0-2.35-2,40.25,40.25,0,0,0-9.88-3.6l.26-.42.28.35a22.06,22.06,0,0,0,8.57,6.38,5.72,5.72,0,0,0,3.15.44A6.56,6.56,0,0,0,125,281Z" style="fill:#263238"></path><path d="M122.54,270.78a1.6,1.6,0,0,1-.13-.45,10.7,10.7,0,0,1-.18-1.34,22.23,22.23,0,0,1,.25-5,25.25,25.25,0,0,1,.74-3.35,13.89,13.89,0,0,1,1.6-3.63,15.55,15.55,0,0,1,6.74-5.94l.37-.17.26-.12.09.27a8.63,8.63,0,0,1,.19,4.66,14.14,14.14,0,0,1-1.6,4,38.41,38.41,0,0,1-4.42,5.72,36.22,36.22,0,0,0-3,3.8c-.62,1-.9,1.52-.94,1.5a1.76,1.76,0,0,1,.16-.43,11.5,11.5,0,0,1,.61-1.18,30.09,30.09,0,0,1,2.86-3.93,39.91,39.91,0,0,0,4.28-5.72,13.25,13.25,0,0,0,1.52-3.88,8.18,8.18,0,0,0-.18-4.38l.35.16-.36.16a15.39,15.39,0,0,0-6.56,5.72,13.92,13.92,0,0,0-1.58,3.5,27.67,27.67,0,0,0-1.21,8.18C122.46,270.14,122.59,270.77,122.54,270.78Z" style="fill:#263238"></path><path d="M118.5,356.58a2,2,0,0,1,.08-.54c.08-.41.19-.91.32-1.53a51.48,51.48,0,0,0,1-5.65,19.35,19.35,0,0,0-.77-8.34,12.11,12.11,0,0,0-2.48-4.23,21.68,21.68,0,0,0-4.16-3.34A45.62,45.62,0,0,1,108,329.8a25.78,25.78,0,0,1-3.53-3.66,26.16,26.16,0,0,1-4.16-7.49A23.82,23.82,0,0,1,99,313a14,14,0,0,1-.11-1.57,2,2,0,0,1,0-.54c.06,0,.09.75.3,2.08a26.46,26.46,0,0,0,1.45,5.53,26.18,26.18,0,0,0,4.19,7.31,24.84,24.84,0,0,0,3.48,3.57,46.71,46.71,0,0,0,4.39,3.1A22.06,22.06,0,0,1,117,336a12.31,12.31,0,0,1,2.55,4.42,19.23,19.23,0,0,1,.69,8.53,44.16,44.16,0,0,1-1.13,5.66l-.42,1.51A2.32,2.32,0,0,1,118.5,356.58Z" style="fill:#263238"></path><path d="M103.4,324.32a4.7,4.7,0,0,1,.46,1.09c.26.71.62,1.75,1,3.06a20,20,0,0,1,.74,4.75,11.71,11.71,0,0,1-1.25,5.77l-.21.4-.23-.38-.11-.17a13.93,13.93,0,0,1-1.85-10.47,12.4,12.4,0,0,1,1.1-3.09,4.52,4.52,0,0,1,.65-1,19.71,19.71,0,0,0-1.39,4.18,14.13,14.13,0,0,0,1.93,10.12l.1.16-.45,0a11.5,11.5,0,0,0,1.23-5.52,21.26,21.26,0,0,0-.61-4.66C103.84,326,103.32,324.35,103.4,324.32Z" style="fill:#263238"></path><path d="M112.23,332.45a4.45,4.45,0,0,1,1.22,0,18.6,18.6,0,0,1,3.27.58c1.36.34,2.94.87,4.72,1.34a14.6,14.6,0,0,0,5.88.52l-.19.38c-.1-.16-.19-.35-.3-.51a7.91,7.91,0,0,0-5-3.19,14.08,14.08,0,0,0-5,0c-2.85.48-4.58,1-4.61.93a6.47,6.47,0,0,1,1.19-.44,29.59,29.59,0,0,1,3.36-.85,13.62,13.62,0,0,1,5.17-.07,8.3,8.3,0,0,1,5.32,3.37c.12.19.22.38.32.56l.19.32-.38.06a14.68,14.68,0,0,1-6.08-.58c-1.8-.51-3.36-1.07-4.7-1.45A33.28,33.28,0,0,0,112.23,332.45Z" style="fill:#263238"></path><path d="M119.56,344.3a1.07,1.07,0,0,1,.5-.06,2.35,2.35,0,0,1,1.33.52,3.44,3.44,0,0,1,1.19,1.92,9.22,9.22,0,0,1,.07,3,50.57,50.57,0,0,1-1.1,7.62,17.48,17.48,0,0,1-4.41,8.32c-.19.19-.39.36-.57.53l-.28.26-.14-.37A22.5,22.5,0,0,1,114.8,357a22.9,22.9,0,0,1,1.61-7.28,21,21,0,0,1,2.39-4.41c.33-.49.65-.82.84-1.07a2.12,2.12,0,0,1,.32-.34,29,29,0,0,0-3.21,5.95,23.15,23.15,0,0,0-1.48,7.18,22.58,22.58,0,0,0,1.37,8.86l-.41-.11c.17-.16.37-.32.54-.5a17.16,17.16,0,0,0,4.31-8.07,54,54,0,0,0,1.2-7.54,9.29,9.29,0,0,0,0-2.88,3.18,3.18,0,0,0-1-1.83A2.52,2.52,0,0,0,119.56,344.3Z" style="fill:#263238"></path></g></svg>