<svg xmlns="http://www.w3.org/2000/svg" viewBox="0 0 750 500"><g id="background-complete"><rect x="52.45" y="52.71" width="104.5" height="70.43" transform="translate(-24.59 43.45) rotate(-21.04)" style="fill:#ebebeb"></rect><path d="M141.43,37a7.06,7.06,0,0,1-.57,1.23c-.46.86-1.05,2-1.8,3.42l-6.78,12.52c-5.85,10.61-13.86,25.14-22.74,41.23l-.18.34-.37-.12-.9-.28L62.64,80.77,48.9,76.27,45.18,75a7.8,7.8,0,0,1-1.28-.5,7.67,7.67,0,0,1,1.34.32L49,75.91l13.83,4.22L108.38,94.4l.89.28-.55.23c9-16,17.06-30.52,23-41.1,2.93-5.16,5.33-9.36,7-12.37.81-1.38,1.46-2.49,1.95-3.34A8.24,8.24,0,0,1,141.43,37Z" style="fill:#e0e0e0"></path><path d="M69.19,140.23c-.25-.09,3.62-11.92,8.64-26.43s9.28-26.2,9.53-26.11-3.62,11.91-8.64,26.42S69.44,140.31,69.19,140.23Z" style="fill:#e0e0e0"></path><path d="M119.46,74.39c.14-.22,10.83,5.93,23.87,13.75s23.52,14.35,23.39,14.57S155.9,96.78,142.85,89,119.33,74.62,119.46,74.39Z" style="fill:#e0e0e0"></path><rect x="581.65" y="119.25" width="129.21" height="76.83" rx="9.01" style="fill:#f5f5f5"></rect><path d="M699,150.09c0,.14-23.72.26-53,.26s-53-.12-53-.26,23.72-.26,53-.26S699,149.94,699,150.09Z" style="fill:#e0e0e0"></path><path d="M699,160.71c0,.15-23.72.26-53,.26s-53-.11-53-.26,23.72-.26,53-.26S699,160.57,699,160.71Z" style="fill:#e0e0e0"></path><path d="M699,171.34c0,.14-23.72.26-53,.26s-53-.12-53-.26,23.72-.26,53-.26S699,171.19,699,171.34Z" style="fill:#e0e0e0"></path><path d="M699,182c0,.15-23.72.26-53,.26s-53-.11-53-.26,23.72-.26,53-.26S699,181.82,699,182Z" style="fill:#e0e0e0"></path><path d="M81.48,260.32h0a30.57,30.57,0,0,1-30.57-30.57h0a30.57,30.57,0,0,1,30.57-30.57h0a30.57,30.57,0,0,1,30.57,30.57h0A30.57,30.57,0,0,1,81.48,260.32Z" style="fill:#ebebeb"></path><rect x="67.62" y="222.94" width="6.33" height="20.44" style="fill:#fff"></rect><path d="M70.76,220.26A3.77,3.77,0,1,0,67,216.49,3.76,3.76,0,0,0,70.76,220.26Z" style="fill:#fff"></path><path d="M84.06,232.65c0-2.88,1.32-4.59,3.86-4.59,2.32,0,3.44,1.64,3.44,4.59v10.73h6.3V230.43c0-5.47-3.1-8.12-7.44-8.12a7.14,7.14,0,0,0-6.16,3.38v-2.75H78v20.44h6.07Z" style="fill:#fff"></path><path d="M650.87,285.86h0a24.3,24.3,0,0,1-24.31-24.3h0a24.31,24.31,0,0,1,24.31-24.31h0a24.31,24.31,0,0,1,24.3,24.31h0A24.3,24.3,0,0,1,650.87,285.86Z" style="fill:#ebebeb"></path><path d="M656.34,260.92h-9.82v2.82h6.62c-.78,3.42-3.2,5.52-6.44,5.52A7.71,7.71,0,1,1,652,255.91l2.17-1.87a10.56,10.56,0,1,0-7.41,18.08c5.6,0,9.65-4.27,9.65-10.11Z" style="fill:#fff"></path><polygon points="670.45 261.04 666.4 261.04 666.4 256.99 663.81 256.99 663.81 261.04 659.76 261.04 659.76 263.63 663.81 263.63 663.81 267.68 666.4 267.68 666.4 263.63 670.45 263.63 670.45 261.04" style="fill:#fff"></polygon><rect x="502.13" y="41.24" width="65.5" height="62.62" rx="5.15" style="fill:#e0e0e0"></rect><path d="M502.13,98.47c-.07-2.46,0-3.8,0-6.59V46.13a4.9,4.9,0,0,1,4.9-4.89h48.63c3.88,0,10.69-1.53,11.89,4.2l.09,3.62c-1.85,5.07-8.12,7.78-13.41,8.85s-10.89,1.13-15.79,3.4a19,19,0,0,0-9.69,10.47c-1.81,4.85-1.56,10.29-3.38,15.14-3,8.1-14.73,13.11-23.24,11.55" style="fill:#ebebeb"></path><path d="M567.64,86.1a17.82,17.82,0,0,0-15.46,3.25,18,18,0,0,0-6.73,14.11v.29l14.67.1c8.67.22,7.79-.56,7.52-17.75Z" style="fill:#ebebeb"></path><circle cx="553.71" cy="72" r="5.2" style="fill:#ebebeb"></circle><path d="M533.42,63l-2.18-2.83a2.25,2.25,0,0,0-3.17-.41l-3,2.26a4.88,4.88,0,0,0-1.28,6.22l.39.7a64.81,64.81,0,0,0,11.57,15l.58.55a4.88,4.88,0,0,0,6.34.36l2.94-2.27a2.26,2.26,0,0,0,.41-3.18l-2.18-2.83a2.26,2.26,0,0,0-3.17-.41l-.58.45a2.48,2.48,0,0,1-3.31-.28l-.41-.43a38,38,0,0,1-4.26-5.53l-.31-.5a2.46,2.46,0,0,1,.58-3.27l.58-.45A2.26,2.26,0,0,0,533.42,63Z" style="fill:#fff"></path></g><g id="background-simple"><path d="M615.53,22l-1.88.82c-15.85,6.86-26.88,21.69-28.14,38.76a45.43,45.43,0,0,0,0,6.6,48.59,48.59,0,0,0,25.1,38.43c8.31,4.47,18.28,6.77,24.38,13.92,7.94,9.3,6.34,23,4.31,35s-3.6,25.72,4.39,35c5,5.81,12.87,8.52,20.55,9.16,20.33,1.71,40.31-9.87,51.74-26.52s15.13-37.59,13.88-57.71c-1.75-28.17-13.34-56.34-34.62-75.24S642.56,12.9,615.53,22Z" style="fill:#ebebeb"></path><path d="M37.31,127.12l.77,1.28a33.21,33.21,0,0,0,35.58,15.82,35.47,35.47,0,0,0,25.26-22c2.4-6.45,3.07-13.88,7.63-19,5.93-6.66,16-6.87,24.86-6.59s18.93,0,24.84-6.65c3.69-4.19,4.87-10.15,4.57-15.76-.79-14.86-11.14-28.14-24.3-34.74s-28.67-7.19-43.07-4.29C73.26,39.3,54.07,50.47,42.53,67.73S28.08,108.5,37.31,127.12Z" style="fill:#ebebeb"></path><circle cx="662.68" cy="253.06" r="22.7" style="fill:#ebebeb"></circle><circle cx="68.18" cy="196.36" r="29.56" transform="translate(-138.33 172.75) rotate(-64.33)" style="fill:#ebebeb"></circle><circle cx="529.19" cy="60.76" r="22.7" style="fill:#ebebeb"></circle></g><g id="Floor"><path d="M701.39,464.74c0,.15-146.14.26-326.37.26s-326.41-.11-326.41-.26,146.11-.26,326.41-.26S701.39,464.6,701.39,464.74Z" style="fill:#263238"></path></g><g id="Plants"><path d="M89.1,396.88c-.07.09-.66-.27-1.31-.79s-1.14-1-1.07-1.12.67.27,1.32.8S89.18,396.79,89.1,396.88Z" style="fill:#263238"></path><path d="M107,370.09a20.67,20.67,0,0,0-.61-7.45c-.79-2.38-2.62-4.57-5.08-5.08-2.8-.58-5.67,1.19-7.24,3.58s-2.11,5.3-2.57,8.12A286.86,286.86,0,0,0,88,428.17l11.46,1.6C104.51,409.21,106.12,391.24,107,370.09Z" style="fill:#455a64"></path><path d="M99.75,357.48s0,.06,0,.18l-.19.52c-.19.48-.44,1.14-.76,2-.16.43-.38.9-.55,1.43l-.55,1.74-.65,2c-.18.72-.38,1.47-.59,2.27a100.73,100.73,0,0,0-2.21,11.34c-.62,4.31-1,9.08-1.35,14.1-.58,10-.67,19.15-.93,25.74-.13,3.3-.24,6-.36,7.8-.06.9-.11,1.6-.15,2.12l0,.55c0,.13,0,.19,0,.19a1.31,1.31,0,0,1,0-.19c0-.15,0-.33,0-.55,0-.52,0-1.23.07-2.12.07-1.84.14-4.51.23-7.81.18-6.59.23-15.7.81-25.76.32-5,.74-9.8,1.39-14.12a94.26,94.26,0,0,1,2.3-11.36l.63-2.28c.23-.7.46-1.36.67-2s.41-1.19.59-1.73.41-1,.58-1.42l.83-2c.1-.21.17-.37.23-.51S99.74,357.47,99.75,357.48Z" style="fill:#263238"></path><path d="M100.81,357.48a8,8,0,0,1,1.4,2.37,17.56,17.56,0,0,1,1.05,7.42c-.31,6.33-.87,15.05-1.63,24.69S100,410.3,99.36,416.6c-.34,3.14-.63,5.69-.85,7.45-.11.85-.19,1.52-.26,2,0,.21,0,.38-.08.52s0,.18,0,.18v-.18c0-.14,0-.32,0-.53,0-.5.11-1.18.18-2,.18-1.8.42-4.34.72-7.46.6-6.3,1.4-15,2.15-24.65s1.37-18.35,1.75-24.66a17.9,17.9,0,0,0-.91-7.35A15.63,15.63,0,0,0,100.81,357.48Z" style="fill:#263238"></path><path d="M108.76,387.14a6.31,6.31,0,0,1-2.17-.56,6.18,6.18,0,0,1-2-.95,12.27,12.27,0,0,1,4.21,1.51Z" style="fill:#263238"></path><path d="M110.14,375.46a7.1,7.1,0,0,1-2.07,1.15,7.25,7.25,0,0,1-2.23.78,6.71,6.71,0,0,1,2.06-1.15A7.17,7.17,0,0,1,110.14,375.46Z" style="fill:#263238"></path><path d="M109.42,365.93a3.8,3.8,0,0,1-1.71.09,3.9,3.9,0,0,1-1.68-.32,3.52,3.52,0,0,1,1.71-.09A3.65,3.65,0,0,1,109.42,365.93Z" style="fill:#263238"></path><path d="M97.6,359.82c-.1.06-.6-.56-1.12-1.39a4.15,4.15,0,0,1-.78-1.62c.1-.06.6.57,1.12,1.4A4.08,4.08,0,0,1,97.6,359.82Z" style="fill:#263238"></path><path d="M93.69,365.59a3.58,3.58,0,0,1-1.63.17,3.49,3.49,0,0,1-1.62-.24c0-.12.73-.19,1.63-.17S93.69,365.47,93.69,365.59Z" style="fill:#263238"></path><path d="M90.88,377.12a4.13,4.13,0,0,1-1.71-.47,4.2,4.2,0,0,1-1.56-.85,3.79,3.79,0,0,1,1.71.47C90.23,376.63,90.93,377,90.88,377.12Z" style="fill:#263238"></path><path d="M90.58,386.82c0,.11-.63.34-1.45.51s-1.52.23-1.55.12.63-.35,1.46-.52S90.56,386.71,90.58,386.82Z" style="fill:#263238"></path><path d="M89.26,402.68c0,.11-.67.33-1.54.49a3.44,3.44,0,0,1-1.62.08c0-.11.67-.33,1.54-.49A3.44,3.44,0,0,1,89.26,402.68Z" style="fill:#263238"></path><path d="M88.39,411.44c0,.1-.53.51-1.29.91s-1.43.65-1.49.55.53-.51,1.3-.91S88.33,411.34,88.39,411.44Z" style="fill:#263238"></path><path d="M95.54,421.38c-.1.05-.6-.64-1.13-1.56a4.86,4.86,0,0,1-.77-1.75c.1-.06.61.64,1.13,1.55A4.6,4.6,0,0,1,95.54,421.38Z" style="fill:#263238"></path><path d="M97.6,404.86c.08.08-.48.76-1.25,1.51s-1.46,1.31-1.54,1.23.48-.76,1.25-1.52S97.52,404.78,97.6,404.86Z" style="fill:#263238"></path><path d="M97.14,396.19c-.08.08-.6-.35-1.16-.95s-.94-1.16-.86-1.23.6.35,1.16.95S97.23,396.12,97.14,396.19Z" style="fill:#263238"></path><path d="M98.56,385.12c.09.07-.38.73-1,1.47s-1.27,1.28-1.35,1.2.38-.73,1-1.47S98.48,385,98.56,385.12Z" style="fill:#263238"></path><path d="M99.36,377.08c-.08.08-.73-.43-1.46-1.14s-1.24-1.36-1.17-1.44.74.43,1.46,1.15S99.44,377,99.36,377.08Z" style="fill:#263238"></path><path d="M100.93,366.22c.1.06-.23.79-.73,1.63s-1,1.47-1.08,1.41.23-.78.73-1.62S100.83,366.16,100.93,366.22Z" style="fill:#263238"></path><path d="M103.88,356.15c.1.06-.19.78-.65,1.63s-.9,1.49-1,1.43a3.88,3.88,0,0,1,.64-1.62C103.33,356.74,103.78,356.1,103.88,356.15Z" style="fill:#263238"></path><path d="M107.23,360.72c0,.11-.41.43-1,.72s-1.16.45-1.2.35.41-.42,1-.72S107.18,360.62,107.23,360.72Z" style="fill:#263238"></path><path d="M107.31,396.88a4.65,4.65,0,0,1-2.24-.54,4.51,4.51,0,0,1-1.94-1.25,12.79,12.79,0,0,1,2.1.87A11.51,11.51,0,0,1,107.31,396.88Z" style="fill:#263238"></path><path d="M105.94,404.54c0,.11-.67.34-1.54.5a3.38,3.38,0,0,1-1.62.11c0-.11.67-.34,1.54-.51A3.3,3.3,0,0,1,105.94,404.54Z" style="fill:#263238"></path><path d="M104.26,417.67a6.54,6.54,0,0,1-2.84-3.58,12.7,12.7,0,0,1,1.42,1.79A13,13,0,0,1,104.26,417.67Z" style="fill:#263238"></path><path d="M85.84,423.67c-.07-.08.39-.6,1-1.16s1.23-.93,1.31-.84-.4.6-1,1.16S85.91,423.76,85.84,423.67Z" style="fill:#263238"></path><path d="M80.55,395c-.75-2.32-2.15-5-4.6-5.07a4.05,4.05,0,0,0-3.43,2.3,8.41,8.41,0,0,0-.93,4.21A110,110,0,0,0,76.84,427h9A106.27,106.27,0,0,0,80.55,395Z" style="fill:#455a64"></path><path d="M64.36,380.35a9.94,9.94,0,0,0-9.31-8c-3.95.69-5.49,4.59-6,8.57s.77,8,2,11.78Q57,411.17,62.86,429.59L74,428.38C70.47,411.92,68.45,396.68,64.36,380.35Z" style="fill:#455a64"></path><path d="M76,389.94a10.07,10.07,0,0,0-.75,1.26,8.28,8.28,0,0,0-.42,4c.17,1.7.37,3.75.65,6s.7,4.71,1.2,7.28c1,5.14,2.15,9.75,2.88,13.11.36,1.68.64,3,.81,4,.08.44.14.8.19,1.1a1.56,1.56,0,0,1,0,.38s-.06-.12-.12-.37-.16-.64-.26-1.07l-1-4c-.79-3.34-2-7.95-3-13.1-.51-2.58-.9-5.05-1.17-7.31-.15-1.13-.24-2.21-.33-3.22s-.19-1.94-.24-2.8a8.09,8.09,0,0,1,.56-4A3.46,3.46,0,0,1,76,389.94Z" style="fill:#263238"></path><path d="M55.21,372.08a16.52,16.52,0,0,0-1.34,1.81,12.73,12.73,0,0,0-1.7,5.82,27,27,0,0,0,1.38,9l3.18,10.76C58.94,407.07,61,414,62.42,419l1.68,6c.19.67.33,1.21.44,1.62a3.2,3.2,0,0,1,.13.58,2.57,2.57,0,0,1-.21-.55L64,425c-.44-1.43-1.05-3.44-1.81-5.91-1.49-5-3.54-11.93-5.81-19.55-1.11-3.82-2.18-7.45-3.14-10.77a26.55,26.55,0,0,1-1.31-9.08,12.55,12.55,0,0,1,1.85-5.89A7,7,0,0,1,55.21,372.08Z" style="fill:#263238"></path><path d="M71.56,427.19a3.73,3.73,0,0,1-.25-.54c-.14-.35-.38-.87-.63-1.56-.53-1.37-1.21-3.39-1.92-5.91s-1.4-5.58-2.07-9-1.35-7.15-2.1-11.07S63,391.5,62,388.19a60.41,60.41,0,0,0-3.25-8.57,44.45,44.45,0,0,0-3-5.41c-.38-.62-.73-1.07-.94-1.4a3.75,3.75,0,0,1-.31-.5,3.62,3.62,0,0,1,.38.45c.23.31.6.75,1,1.36A40,40,0,0,1,59,379.49a57.39,57.39,0,0,1,3.35,8.59,112.41,112.41,0,0,1,2.68,11c.73,3.93,1.42,7.67,2.06,11.08s1.31,6.44,2,9,1.3,4.55,1.79,5.93c.23.7.44,1.23.56,1.59A2.21,2.21,0,0,1,71.56,427.19Z" style="fill:#263238"></path><path d="M51.28,390.92c0,.11-.58.35-1.35.54s-1.42.25-1.45.14.58-.35,1.35-.54S51.26,390.81,51.28,390.92Z" style="fill:#263238"></path><path d="M50.1,383.32a5.55,5.55,0,0,1-1.87.2,5.66,5.66,0,0,1-1.89,0,3.79,3.79,0,0,1,1.87-.36A3.84,3.84,0,0,1,50.1,383.32Z" style="fill:#263238"></path><path d="M51.36,376.38c-.08.09-.68-.3-1.35-.88s-1.16-1.1-1.09-1.18.68.3,1.35.87S51.43,376.3,51.36,376.38Z" style="fill:#263238"></path><path d="M54.75,370c.11,0,.08.57.07,1.22s0,1.2-.14,1.22-.29-.53-.27-1.23S54.64,369.93,54.75,370Z" style="fill:#263238"></path><path d="M61.69,373c.09.06-.18.61-.61,1.22s-.85,1.05-.94,1,.18-.61.61-1.22S61.6,372.92,61.69,373Z" style="fill:#263238"></path><path d="M66.19,380.81c0,.1-.53.44-1.28.74s-1.4.48-1.45.37.54-.44,1.29-.75S66.15,380.7,66.19,380.81Z" style="fill:#263238"></path><path d="M68.93,388.86a3.45,3.45,0,0,1-1.77.77,3.3,3.3,0,0,1-1.92.06,7.7,7.7,0,0,1,1.83-.46A6.87,6.87,0,0,1,68.93,388.86Z" style="fill:#263238"></path><path d="M56.38,386.57c-.1,0,0-.59.18-1.24s.46-1.16.56-1.12,0,.59-.17,1.24S56.49,386.6,56.38,386.57Z" style="fill:#263238"></path><path d="M58.13,396.67a4,4,0,0,1,.51-1.67c.38-.88.77-1.55.88-1.51a4,4,0,0,1-.51,1.67C58.63,396,58.24,396.72,58.13,396.67Z" style="fill:#263238"></path><path d="M53.81,399.44c0,.11-.75-.09-1.6-.35s-1.54-.51-1.52-.63a3.09,3.09,0,0,1,1.64.24C53.2,399,53.85,399.34,53.81,399.44Z" style="fill:#263238"></path><path d="M56.3,407.68c.07.09-.41.54-1.06,1s-1.24.77-1.31.68.42-.55,1.07-1S56.24,407.59,56.3,407.68Z" style="fill:#263238"></path><path d="M58.3,415.89c0,.11-.56.35-1.32.53s-1.38.25-1.41.14.56-.35,1.32-.53S58.27,415.78,58.3,415.89Z" style="fill:#263238"></path><path d="M69.15,395.72c0,.09-.45.5-1.19.77s-1.37.31-1.39.2.55-.32,1.25-.58S69.09,395.62,69.15,395.72Z" style="fill:#263238"></path><path d="M70.69,408.5c0,.1-.64-.08-1.34-.41s-1.21-.67-1.16-.77.64.07,1.34.4S70.74,408.39,70.69,408.5Z" style="fill:#263238"></path><path d="M73.43,417.64a4.24,4.24,0,0,1-1.77-.47c-.94-.37-1.67-.75-1.62-.86a4.24,4.24,0,0,1,1.77.47A4.4,4.4,0,0,1,73.43,417.64Z" style="fill:#263238"></path><path d="M58.74,424.8c-.06-.1.67-.59,1.52-1.25s1.49-1.26,1.58-1.18-.45.81-1.33,1.5A3.61,3.61,0,0,1,58.74,424.8Z" style="fill:#263238"></path><path d="M66,420.15c-.12,0-.27-.6-.55-1.31s-.57-1.28-.48-1.34.56.42.86,1.19S66.08,420.15,66,420.15Z" style="fill:#263238"></path><path d="M64.05,409.16c-.06.09-.53-.13-1-.5s-.87-.74-.8-.83.53.13,1,.5S64.12,409.07,64.05,409.16Z" style="fill:#263238"></path><path d="M80.91,391.92c.06.09-.39.54-1,1s-1.19.76-1.26.67.39-.54,1-1S80.84,391.83,80.91,391.92Z" style="fill:#263238"></path><path d="M83.45,398.87c0,.11-.7.26-1.59.16s-1.54-.39-1.51-.5.72,0,1.56.09S83.44,398.75,83.45,398.87Z" style="fill:#263238"></path><path d="M72.53,400.42c0,.11-.64.35-1.49.4s-1.54-.08-1.53-.2.69-.15,1.5-.2S72.5,400.31,72.53,400.42Z" style="fill:#263238"></path><path d="M73.47,393.86c0,.11-.68.13-1.41-.21s-1.15-.85-1.07-.93.58.25,1.24.56S73.48,393.74,73.47,393.86Z" style="fill:#263238"></path><path d="M84.38,406.32c-.06.1-.74-.22-1.52-.72s-1.37-1-1.31-1.06.75.23,1.53.72S84.44,406.23,84.38,406.32Z" style="fill:#263238"></path><rect x="52.77" y="425.81" width="58.25" height="10.32" style="fill:#FF725E"></rect><polygon points="57.12 434.08 64.21 464.94 98.93 464.94 106.67 434.08 57.12 434.08" style="fill:#FF725E"></polygon><path d="M111,436.15c0,.11-13.14.2-29.34.2s-29.35-.09-29.35-.2,13.14-.21,29.35-.21S111,436,111,436.15Z" style="fill:#263238"></path><path d="M78.6,400.65c-.1.06-.5-.4-.89-1s-.64-1.19-.54-1.25.49.4.89,1S78.69,400.59,78.6,400.65Z" style="fill:#263238"></path><path d="M78.62,409c-.11,0,0-.74.3-1.57s.59-1.48.7-1.44a3.33,3.33,0,0,1-.31,1.57C79,408.35,78.73,409,78.62,409Z" style="fill:#263238"></path><path d="M81.46,417.68c-.1.05-.53-.65-1-1.56a4.38,4.38,0,0,1-.6-1.73c.1-.05.53.64,1,1.55A4.35,4.35,0,0,1,81.46,417.68Z" style="fill:#263238"></path><path d="M75.31,424.69c-.09-.07.26-.61.78-1.2s1-1,1.08-.94-.26.61-.77,1.2S75.4,424.77,75.31,424.69Z" style="fill:#263238"></path><path d="M74,412c0,.12-.58.11-1.25,0s-1.2-.3-1.18-.42.58-.1,1.25,0S74,411.84,74,412Z" style="fill:#263238"></path><path d="M678.71,440.12c-2.34-.11-3-3.43-2.16-5.61s2.6-4.11,2.63-6.46c0-2-1.28-3.89-1.4-5.92-.22-3.67,3.32-6.67,3.47-10.34.12-2.86-1.87-5.59-1.39-8.41.52-3,3.68-5,4.41-8,.77-3.18-1.44-6.55-.59-9.71s4.55-5.47,4-8.68a28.34,28.34,0,0,0-1.1-3c-.66-2.4.65-4.91,2.23-6.83s3.54-3.62,4.52-5.91c1.51-3.52.46-7.8,2.24-11.19,1.48-2.82,4.78-4.72,5.2-7.88,1.67,2.84,0,6.47.42,9.74.24,2.14,1.35,4.07,2,6.11A15.89,15.89,0,0,1,702,370.7c-1.43,2.52-3.64,4.9-3.53,7.8.14,3.51,3.65,6.05,4.27,9.51.88,4.95-4.38,9.39-3.65,14.36.18,1.29.77,2.49.88,3.78.38,4.4-4.61,7.5-5.37,11.85-.56,3.19,1.29,6.5.53,9.65-.59,2.43-2.69,4.61-2.17,7.06a17,17,0,0,0,1.34,3,5.64,5.64,0,0,1-.88,5.82,4.9,4.9,0,0,1-5.67,1.17" style="fill:#FF725E"></path><g style="opacity:0.5"><path d="M694.29,437.67a17,17,0,0,1-1.34-3c-.52-2.45,1.58-4.63,2.17-7.06.76-3.15-1.09-6.46-.53-9.65.76-4.35,5.75-7.45,5.37-11.85-.11-1.29-.7-2.49-.88-3.78-.73-5,4.53-9.41,3.65-14.36-.62-3.46-4.13-6-4.27-9.51-.11-2.9,2.1-5.28,3.53-7.8A15.89,15.89,0,0,0,703.24,358c-.68-2-1.79-4-2-6.11-.38-3.27,1.25-6.9-.42-9.74-.42,3.16-3.72,5.06-5.2,7.88-1.78,3.39-.73,7.67-2.24,11.19-1,2.29-2.93,4-4.52,5.91s-2.89,4.43-2.23,6.83a28.34,28.34,0,0,1,1.1,3c.53,3.21-3.18,5.53-4,8.68s1.36,6.53.59,9.71c-.73,3-3.89,5-4.41,8-.48,2.82,1.51,5.55,1.39,8.41-.15,3.67-3.69,6.67-3.47,10.34.12,2,1.42,3.88,1.4,5.92,0,2.35-1.76,4.28-2.63,6.46s-.18,5.5,2.16,5.61l9,4.54a4.9,4.9,0,0,0,5.67-1.17A5.64,5.64,0,0,0,694.29,437.67Z" style="fill:#fff"></path></g><path d="M691.23,435.52a6.38,6.38,0,0,1-.91-3.47c.24-1.35,2.51-2.53,3.08-4.8.73-3-.59-8.18,0-11.16.77-4,5-6.72,4.78-10.74,0-1.18.12-4.34,0-5.51-.44-4.53,3.54-7.57,3-12.07-.41-3.14-3.67-6.82-3.67-10,0-2.66,1.9-5,3.17-7.41a16.6,16.6,0,0,0,1.44-11.79c-.5-1.84-1.36-3.54-1.5-5.49-.21-3,1.26-6.44,0-8.95-.44,2.94-3.24,4.9-4.55,7.6-1.58,3.23-.85,7.11-2.21,10.45-.89,2.17-2.55,3.86-3.93,5.73s-2.54,4.27-2.06,6.43c.2.94.7,1.76.82,2.73.33,2.93-2.82,5.3-3.61,8.25s.92,5.93.18,8.91c-.7,2.79-3.44,6.6-4,9.42-.49,2.63,1.9,4.34,1.71,7-.24,3.39-3.64,7.49-3.57,10.86,0,1.86,1.6,2.46,1.52,4.34-.1,2.16-1.91,6.46-2.7,8.53a5.84,5.84,0,0,0,.56,5.8l10.08,5C693.29,443,693.1,438.6,691.23,435.52Z" style="fill:#FF725E"></path><path d="M698,359.41a.6.6,0,0,1,0,.23c0,.17,0,.38,0,.65,0,.58,0,1.43-.11,2.52a12.24,12.24,0,0,1-.91,3.89,19.9,19.9,0,0,1-3,4.33,8,8,0,0,0-1.44,2.63,8.81,8.81,0,0,0-.36,3.23c.1,2.27.81,4.64,1.14,7.23a11.09,11.09,0,0,1-.13,4,7.76,7.76,0,0,1-.79,1.94,18.38,18.38,0,0,0-1.06,1.77,6.51,6.51,0,0,0-.06,4.1c.14.7.3,1.43.39,2.17a9.09,9.09,0,0,1-.06,2.27,18.17,18.17,0,0,1-1.39,4.24,34.19,34.19,0,0,0-1.56,4,10.43,10.43,0,0,0-.35,4,17.87,17.87,0,0,1,.14,4,12.12,12.12,0,0,1-1.27,3.6,14.07,14.07,0,0,0-1.27,3.27c-.43,2.22.21,4.36.16,6.34a16.84,16.84,0,0,1-1.16,5.16,17.82,17.82,0,0,0-1,3.83,5.49,5.49,0,0,0,.25,2.45c.21.54.36.8.34.81a4.58,4.58,0,0,1-.41-.78,5.29,5.29,0,0,1-.34-2.49,17.53,17.53,0,0,1,.93-3.89,17,17,0,0,0,1.08-5.1,27.93,27.93,0,0,0-.24-3,11.17,11.17,0,0,1,0-3.36c.44-2.33,2.15-4.34,2.5-6.85a18,18,0,0,0-.15-3.92,10.59,10.59,0,0,1,.35-4.17c.77-2.74,2.45-5.24,2.93-8.15a8.24,8.24,0,0,0,0-2.16c-.08-.72-.23-1.43-.38-2.14a7,7,0,0,1,.09-4.34,18.45,18.45,0,0,1,1.09-1.81,7.06,7.06,0,0,0,.75-1.83,10.57,10.57,0,0,0,.14-3.88c-.32-2.54-1-4.93-1.11-7.26a9.24,9.24,0,0,1,.4-3.34,8.25,8.25,0,0,1,1.51-2.7,20.45,20.45,0,0,0,3.06-4.25,13,13,0,0,0,1-3.82c.12-1.08.14-1.93.17-2.5l0-.66C698,359.49,698,359.41,698,359.41Z" style="fill:#263238"></path><path d="M664.31,441.27c-3.28.48-5.14-3.92-4.53-7.17s2.48-6.42,1.87-9.68c-.53-2.83-2.83-5-3.56-7.82-1.32-5,2.78-10.14,2-15.27-.62-4-4.12-7.24-4.23-11.28-.11-4.34,3.72-8,3.91-12.3.2-4.62-3.78-8.68-3.48-13.3s4.82-8.81,3.2-13.13c-.53-1.42-1.67-2.54-2.36-3.9-1.58-3.14-.45-7,1.23-10.07s3.9-6,4.63-9.43c1.13-5.29-1.5-10.93,0-16.12,1.28-4.31,5.34-7.84,5-12.34,3.09,3.49,1.82,9,3.24,13.39.93,2.89,3,5.26,4.5,7.9a22.45,22.45,0,0,1,1.75,18c-1.29,3.88-3.71,7.78-2.76,11.77,1.15,4.82,6.71,7.39,8.52,12,2.58,6.6-3.5,14.21-1.13,20.9.62,1.72,1.76,3.23,2.27,5,1.72,6-4.34,11.65-4.2,17.88.1,4.58,3.57,8.65,3.38,13.23-.15,3.53-2.47,7.13-1.08,10.38.6,1.41,1.81,2.45,2.67,3.72a8,8,0,0,1,.37,8.32,6.93,6.93,0,0,1-7.53,3.16" style="fill:#FF725E"></path><g style="opacity:0.5"><path d="M685.22,433.6c-.86-1.27-2.07-2.31-2.67-3.72-1.39-3.25.93-6.85,1.08-10.38.19-4.58-3.28-8.65-3.38-13.23-.14-6.23,5.92-11.89,4.2-17.88-.51-1.76-1.65-3.27-2.27-5-2.37-6.69,3.71-14.3,1.13-20.9-1.81-4.62-7.37-7.19-8.52-12-.95-4,1.47-7.89,2.76-11.77a22.45,22.45,0,0,0-1.75-18c-1.51-2.64-3.57-5-4.5-7.9-1.42-4.44-.15-9.9-3.24-13.39.29,4.5-3.77,8-5,12.34-1.54,5.19,1.09,10.83,0,16.12-.73,3.44-3,6.34-4.63,9.43s-2.81,6.93-1.23,10.07c.69,1.36,1.83,2.48,2.36,3.9,1.62,4.32-2.89,8.54-3.2,13.13s3.68,8.68,3.48,13.3c-.19,4.33-4,8-3.91,12.3.11,4,3.61,7.28,4.23,11.28.8,5.13-3.3,10.24-2,15.27.73,2.78,3,5,3.56,7.82.61,3.26-1.26,6.42-1.87,9.68s1.25,7.65,4.53,7.17l13.75,3.81a6.93,6.93,0,0,0,7.53-3.16A8,8,0,0,0,685.22,433.6Z" style="fill:#fff"></path></g><path d="M680.39,431.47a9.11,9.11,0,0,1-2.21-4.57c0-1.92,2.79-4.18,3-7.49.2-4.29-3.06-11.17-3.09-15.45,0-5.82,5-10.66,3.68-16.19-.39-1.62-1-6-1.51-7.63-1.86-6.16,2.82-11.46.79-17.53-1.43-4.24-7-8.45-7.83-12.92-.74-3.68,1.27-7.44,2.36-11.13a23.46,23.46,0,0,0-1.24-16.74c-1.2-2.4-2.85-4.53-3.58-7.2-1.11-4.08,0-9.25-2.5-12.38.19,4.19-3.14,7.68-4.23,11.77-1.31,4.92.77,10.09-.2,15.09-.63,3.25-2.48,6-3.87,9s-2.35,6.6-1.1,9.47c.54,1.25,1.46,2.24,1.88,3.55,1.27,4-2.44,8.11-2.74,12.43s2.9,7.95,2.69,12.28c-.19,4.07-2.95,10.09-2.9,14.14,0,3.78,3.82,5.5,4.28,9.22.6,4.76-3,11.38-2,16,.57,2.58,2.89,3,3.29,5.6.47,3-.87,9.48-1.4,12.55a8.26,8.26,0,0,0,2.37,7.89l15.34,4.17C685.3,441.24,683.82,435.23,680.39,431.47Z" style="fill:#FF725E"></path><path d="M668.93,324.17a39.06,39.06,0,0,1,.79,4.73,17.73,17.73,0,0,1-.21,5.63,14.5,14.5,0,0,1-1.2,3.32c-.55,1.12-1.22,2.26-1.83,3.49a11.57,11.57,0,0,0-1.28,4.06,12.69,12.69,0,0,0,.38,4.59c.77,3.14,2.39,6.23,3.55,9.72a15.57,15.57,0,0,1,.92,5.56,10.79,10.79,0,0,1-.56,2.89,22.67,22.67,0,0,0-1,2.75c-.47,1.9.25,3.88,1,5.74.39.94.81,1.89,1.13,2.9a12.22,12.22,0,0,1,.54,3.13,25.61,25.61,0,0,1-.76,6.23,49.1,49.1,0,0,0-1.08,5.93,14.87,14.87,0,0,0,0,2.91,15.69,15.69,0,0,0,.6,2.8,25.81,25.81,0,0,1,1.29,5.48,17.1,17.1,0,0,1-.77,5.31,19.65,19.65,0,0,0-.86,4.9,15.92,15.92,0,0,0,.81,4.56,38.22,38.22,0,0,1,1.15,4.19,15.31,15.31,0,0,1,.2,4c-.09,1.24-.24,2.41-.37,3.5a25.65,25.65,0,0,0-.31,5.58,7.74,7.74,0,0,0,1.05,3.34c.43.68.72,1,.7,1a6.91,6.91,0,0,1-.77-1,7.51,7.51,0,0,1-1.13-3.36,24.84,24.84,0,0,1,.23-5.63c.13-1.09.27-2.25.34-3.49a15.24,15.24,0,0,0-.22-3.89,42.27,42.27,0,0,0-1.16-4.15,15.85,15.85,0,0,1-.86-4.65,20.79,20.79,0,0,1,.85-5,16.7,16.7,0,0,0,.75-5.2,26,26,0,0,0-1.29-5.4,16.8,16.8,0,0,1-.62-2.85,15.71,15.71,0,0,1,0-3,48.11,48.11,0,0,1,1.07-6,24.27,24.27,0,0,0,.75-6.13,11.45,11.45,0,0,0-.51-3c-.32-1-.73-1.92-1.12-2.87a16.71,16.71,0,0,1-1-2.91,6.78,6.78,0,0,1,0-3.07,25.65,25.65,0,0,1,1-2.8,10.15,10.15,0,0,0,.54-2.77,15.24,15.24,0,0,0-.88-5.43c-1.14-3.44-2.75-6.56-3.53-9.75a13.07,13.07,0,0,1-.36-4.71,11.71,11.71,0,0,1,1.34-4.15c.62-1.24,1.29-2.37,1.85-3.47a14.3,14.3,0,0,0,1.21-3.26,18.1,18.1,0,0,0,.27-5.56c-.13-1.54-.33-2.72-.45-3.52l-.14-.92A1.77,1.77,0,0,1,668.93,324.17Z" style="fill:#263238"></path><path d="M662.26,443.43c-1.87.92-3.84-1.35-4.1-3.42s.24-4.32-.76-6.15c-.86-1.59-2.66-2.47-3.64-4-1.75-2.76-.29-6.61-1.76-9.52-1.15-2.28-3.87-3.54-4.71-5.94-.91-2.57.69-5.48,0-8.12-.78-2.8-3.94-4.46-4.65-7.28s1.18-6.21-.62-8.48c-.6-.75-1.5-1.19-2.17-1.88-1.55-1.57-1.62-4.08-1.21-6.26s1.18-4.34.95-6.54c-.35-3.38-3-6.25-3.09-9.65-.07-2.83,1.67-5.73.63-8.36,2.53,1.48,2.82,5,4.53,7.38,1.12,1.55,2.81,2.57,4.22,3.86a14.14,14.14,0,0,1,4.52,10.42c0,2.57-.72,5.37.62,7.57,1.62,2.67,5.45,3.13,7.42,5.54,2.82,3.46.66,9.19,3.37,12.73.7.91,1.67,1.6,2.32,2.55,2.18,3.25-.34,7.81.94,11.51,1,2.73,3.81,4.49,4.58,7.27.59,2.14-.1,4.74,1.36,6.42a14.62,14.62,0,0,0,2.32,1.71,5,5,0,0,1,1.83,4.9,4.35,4.35,0,0,1-3.9,3.35" style="fill:#FF725E"></path><g style="opacity:0.5"><path d="M673.29,434.8a14.62,14.62,0,0,1-2.32-1.71c-1.46-1.68-.77-4.28-1.36-6.42-.77-2.78-3.63-4.54-4.58-7.27-1.28-3.7,1.24-8.26-.94-11.51-.65-.95-1.62-1.64-2.32-2.55-2.71-3.54-.55-9.27-3.37-12.73-2-2.41-5.8-2.87-7.42-5.54-1.34-2.2-.65-5-.62-7.57a14.14,14.14,0,0,0-4.52-10.42c-1.41-1.29-3.1-2.31-4.22-3.86-1.71-2.38-2-5.9-4.53-7.38,1,2.63-.7,5.53-.63,8.36.08,3.4,2.74,6.27,3.09,9.65.23,2.2-.55,4.37-.95,6.54s-.34,4.69,1.21,6.26c.67.69,1.57,1.13,2.17,1.88,1.8,2.27-.09,5.67.62,8.48s3.87,4.48,4.65,7.28c.73,2.64-.87,5.55,0,8.12.84,2.4,3.56,3.66,4.71,5.94,1.47,2.91,0,6.76,1.76,9.52,1,1.52,2.78,2.4,3.64,4,1,1.83.5,4.08.76,6.15s2.23,4.34,4.1,3.42l9-.38a4.35,4.35,0,0,0,3.9-3.35A5,5,0,0,0,673.29,434.8Z" style="fill:#fff"></path></g><path d="M670,434.46a5.75,5.75,0,0,1-2.2-2.31c-.39-1.14.86-3,.32-5-.71-2.61-4-6.1-4.84-8.65-1.16-3.48,1-7.35-.92-10.4-.55-.9-1.79-3.42-2.38-4.28-2.31-3.32-.53-7.4-2.92-10.64-1.67-2.27-5.79-3.72-7.18-6.22-1.16-2.06-.68-4.7-.74-7.12a14.79,14.79,0,0,0-4-9.78,25.11,25.11,0,0,1-3.53-3.61c-1.46-2.23-1.8-5.54-3.89-6.93.92,2.47-.4,5.2-.26,7.86.17,3.2,2.41,5.89,2.8,9.07.25,2.07-.31,4.1-.57,6.15s-.14,4.4,1.17,5.88c.56.64,1.3,1.06,1.81,1.76,1.53,2.13.1,5.33.76,8s3.27,4.2,4,6.83c.67,2.47.18,6.6,1,9,.76,2.26,3.35,2.56,4.35,4.69,1.28,2.74.41,7.39,1.92,10,.83,1.43,2.3,1.22,3.05,2.72.86,1.72,1.31,5.83,1.58,7.78a5.2,5.2,0,0,0,3,4.26l10-.47C674.81,439.36,672.77,436,670,434.46Z" style="fill:#FF725E"></path><path d="M642.39,372.45l.11.17.29.5c.24.45.61,1.11,1,2a11.06,11.06,0,0,1,1,3.42,17.6,17.6,0,0,1-.49,4.67,7.22,7.22,0,0,0,0,2.66,8.12,8.12,0,0,0,1.1,2.66c1.07,1.71,2.64,3.25,4,5.11a9.8,9.8,0,0,1,1.64,3.18,7.18,7.18,0,0,1,.23,1.86,12.53,12.53,0,0,0-.06,1.83A5.78,5.78,0,0,0,653,403.7a19,19,0,0,1,1.24,1.52,7.46,7.46,0,0,1,.94,1.79,15.28,15.28,0,0,1,.75,3.89,29.72,29.72,0,0,0,.51,3.75,9.12,9.12,0,0,0,1.46,3.27,16.94,16.94,0,0,1,1.84,3.05,10.75,10.75,0,0,1,.56,3.35,12.18,12.18,0,0,0,.43,3.08c.62,1.91,2,3.29,2.85,4.85a15,15,0,0,1,1.33,4.51,15.94,15.94,0,0,0,.89,3.4A4.92,4.92,0,0,0,667,442c.39.32.62.46.61.48A3.75,3.75,0,0,1,667,442a4.72,4.72,0,0,1-1.35-1.8,15.49,15.49,0,0,1-1-3.41,15.25,15.25,0,0,0-1.36-4.42c-.8-1.51-2.24-2.88-2.92-4.89s-.21-4.3-1-6.4a15.69,15.69,0,0,0-1.81-3,9.46,9.46,0,0,1-1.53-3.4c-.59-2.47-.37-5.13-1.25-7.59a7.25,7.25,0,0,0-.89-1.7,18.9,18.9,0,0,0-1.22-1.49,6.27,6.27,0,0,1-1.8-3.42,16.41,16.41,0,0,1,.06-1.88,6.33,6.33,0,0,0-.2-1.74,9.55,9.55,0,0,0-1.57-3.06c-1.34-1.83-2.91-3.39-4-5.16a8.07,8.07,0,0,1-1.13-2.77,7.32,7.32,0,0,1,0-2.76,17.73,17.73,0,0,0,.54-4.61,11.19,11.19,0,0,0-.89-3.37c-.38-.9-.72-1.57-.94-2l-.26-.52C642.41,372.52,642.38,372.46,642.39,372.45Z" style="fill:#263238"></path><polygon points="647.92 435.54 651.8 443.43 699.11 443.43 704.45 435.54 647.92 435.54" style="fill:#455a64"></polygon><polygon points="652.94 440.71 660.02 465.16 691.89 465.19 698.3 440.76 652.94 440.71" style="fill:#455a64"></polygon><path d="M698.9,443.38c0,.11-10.55.2-23.57.2s-23.58-.09-23.58-.2,10.56-.21,23.58-.21S698.9,443.26,698.9,443.38Z" style="fill:#263238"></path></g><g id="screen-1"><path d="M275.46,134.45H247.34a2.35,2.35,0,0,0-2.25,1.69L242,146.66a3,3,0,0,1-2.84,2.13H183.43a3,3,0,0,1-2.83-2.13l-3.06-10.52a2.35,2.35,0,0,0-2.25-1.69H147.18a15.83,15.83,0,0,0-15.83,15.83v299a15.82,15.82,0,0,0,15.83,15.82H275.46a15.82,15.82,0,0,0,15.82-15.82v-299A15.82,15.82,0,0,0,275.46,134.45Z" style="fill:#ebebeb"></path><path d="M275.46,134.45l.63,0a11.1,11.1,0,0,1,1.87.17,15.77,15.77,0,0,1,13.11,12.67,47.07,47.07,0,0,1,.3,7.64q0,4.1,0,8.72c0,24.63.05,60.26.09,104.29s0,96.46,0,154.67q0,10.92,0,22.1c0,1.87.05,3.71,0,5.62a16.35,16.35,0,0,1-1.37,5.52,16,16,0,0,1-8,8,16.22,16.22,0,0,1-5.61,1.42c-2,.11-3.84,0-5.77.05H150.12a29.73,29.73,0,0,1-6.3-.35,16.08,16.08,0,0,1-12.48-13,39,39,0,0,1-.25-6.28V414.75q0-24.54,0-48.32c0-31.69,0-62.25,0-91.36s0-56.77,0-82.66q0-19.42,0-37.46v-4.49a17,17,0,0,1,.59-4.44A15.28,15.28,0,0,1,133.5,142a15.11,15.11,0,0,1,2.77-3.39,16.11,16.11,0,0,1,7.57-4,20.79,20.79,0,0,1,4.22-.35h27.06a2.66,2.66,0,0,1,1,.14,2.52,2.52,0,0,1,1.46,1.35c.24.63.37,1.22.56,1.83.35,1.2.7,2.4,1,3.59l1,3.55c.4,1.15.48,2.46,1.39,3.2a2.66,2.66,0,0,0,1.53.67c.56,0,1.18,0,1.77,0H202l24.38,0h10.74c.85,0,1.72,0,2.52,0a2.84,2.84,0,0,0,1.94-1.24,3.46,3.46,0,0,0,.46-1.08l.33-1.15c.22-.76.44-1.51.66-2.24.43-1.48.84-2.92,1.25-4.31.2-.7.41-1.39.6-2.06a4.17,4.17,0,0,1,.37-1,2.48,2.48,0,0,1,.73-.78,2.44,2.44,0,0,1,1-.39,7.07,7.07,0,0,1,1,0h5.63l12,0,7.38,0,2.51,0-2.51,0-7.38,0-12,0H248a6.51,6.51,0,0,0-1,0,2.31,2.31,0,0,0-.89.37,2.2,2.2,0,0,0-.67.72,4,4,0,0,0-.35,1c-.2.68-.39,1.36-.6,2.06-.4,1.4-.81,2.83-1.24,4.31-.21.74-.43,1.49-.65,2.25l-.33,1.15a3.65,3.65,0,0,1-.48,1.14,3,3,0,0,1-2.09,1.34c-.86.07-1.69,0-2.55,0H226.37l-24.38,0H184.9c-.6,0-1.17,0-1.8,0a3.14,3.14,0,0,1-1.72-.74,3.27,3.27,0,0,1-1-1.6l-.51-1.76c-.34-1.17-.68-2.35-1-3.54s-.69-2.39-1-3.6c-.19-.59-.34-1.24-.55-1.79a2.21,2.21,0,0,0-1.26-1.16,7,7,0,0,0-1.85-.12h-26.1a19.79,19.79,0,0,0-4.14.34,15.82,15.82,0,0,0-7.39,3.87,14.88,14.88,0,0,0-2.7,3.31,15.23,15.23,0,0,0-1.71,4c-.83,2.8-.51,5.81-.57,8.82q0,18,0,37.46c0,25.89,0,53.55,0,82.66s0,59.67,0,91.36V445.7a39.72,39.72,0,0,0,.24,6.19,15.55,15.55,0,0,0,12.08,12.61,29,29,0,0,0,6.19.34H270.77c1.91,0,3.86,0,5.74-.05a15.74,15.74,0,0,0,5.43-1.37,15.56,15.56,0,0,0,7.72-7.76,16.12,16.12,0,0,0,1.33-5.36c.1-1.84,0-3.73.05-5.58v-22.1c0-58.21,0-110.64.06-154.67s.06-79.66.08-104.29q0-4.62,0-8.72a46.87,46.87,0,0,0-.27-7.62,15.54,15.54,0,0,0-2.48-6,15.18,15.18,0,0,0-3.76-3.85,15.58,15.58,0,0,0-6.73-2.81,12.67,12.67,0,0,0-1.86-.19Z" style="fill:#263238"></path><rect x="138.86" y="420.77" width="144.92" height="37.81" rx="5.71" style="fill:#fff"></rect><rect x="214" y="426.46" width="28.17" height="26.93" rx="5.15" style="fill:#FF725E"></rect><g style="opacity:0.30000000000000004"><path d="M215,451.16a4.35,4.35,0,0,1-1-2.92V431.61a5.14,5.14,0,0,1,5.15-5.15H237a5.14,5.14,0,0,1,4.09,2h0a2.61,2.61,0,0,1-.48,3.2,9,9,0,0,1-4.23,1.95c-2.28.46-4.68.48-6.79,1.46a8.21,8.21,0,0,0-4.17,4.5c-.78,2.09-.67,4.43-1.45,6.51a8.28,8.28,0,0,1-9,5.06"></path></g><g style="opacity:0.2"><path d="M242.21,445.76a7.63,7.63,0,0,0-9.59,7.46v.12h4.56a4.92,4.92,0,0,0,4.92-4.75Z"></path></g><g style="opacity:0.2"><path d="M238.41,439.69a2.24,2.24,0,1,1-2.23-2.24A2.23,2.23,0,0,1,238.41,439.69Z"></path></g><path d="M220.68,447.36l1.07-4a7.35,7.35,0,1,1,2.93,2.91Zm4.2-2.56.25.15a6,6,0,1,0-2-2l.15.25-.59,2.23Z" style="fill:#fff"></path><path d="M230.91,440.85a1.22,1.22,0,0,0-1-.23c-.28.11-.45.54-.63.75a.26.26,0,0,1-.34.08,4.84,4.84,0,0,1-2.38-2,.31.31,0,0,1,0-.4,1.55,1.55,0,0,0,.43-.7,1.52,1.52,0,0,0-.19-.83,1.89,1.89,0,0,0-.61-.92.87.87,0,0,0-.92.13,1.91,1.91,0,0,0-.64,1.47,1.76,1.76,0,0,0,.06.46,3.79,3.79,0,0,0,.45,1c.14.25.3.48.46.71a7,7,0,0,0,2,1.88,6.34,6.34,0,0,0,1.26.6,2.82,2.82,0,0,0,1.46.23,1.79,1.79,0,0,0,1.34-1,1,1,0,0,0,.06-.5C231.66,441.23,231.19,441,230.91,440.85Z" style="fill:#fff;fill-rule:evenodd"></path><rect x="247.98" y="426.71" width="28.17" height="26.93" rx="5.15" style="fill:#FF725E"></rect><g style="opacity:0.30000000000000004"><path d="M249,451.41a4.45,4.45,0,0,1-1-2.93V431.86a5.14,5.14,0,0,1,5.15-5.15H271a5.13,5.13,0,0,1,4.09,2h0a2.6,2.6,0,0,1-.48,3.2,9,9,0,0,1-4.23,1.95c-2.28.46-4.68.48-6.79,1.46a8.16,8.16,0,0,0-4.16,4.5c-.78,2.09-.68,4.43-1.46,6.51a8.28,8.28,0,0,1-9,5.06"></path></g><g style="opacity:0.2"><path d="M276.19,446a7.63,7.63,0,0,0-9.59,7.45c0,.05,0,.09,0,.13h4.55a4.94,4.94,0,0,0,4.93-4.75Z"></path></g><g style="opacity:0.2"><path d="M272.4,439.94a2.24,2.24,0,1,1-2.24-2.24A2.24,2.24,0,0,1,272.4,439.94Z"></path></g><path d="M266,435.46a.86.86,0,0,0,0,1.72.86.86,0,0,0,0-1.72Z" style="fill:#fff"></path><path d="M262.14,436.56a3.61,3.61,0,1,0,3.61,3.61A3.61,3.61,0,0,0,262.14,436.56Zm0,5.92a2.31,2.31,0,1,1,2.32-2.31A2.32,2.32,0,0,1,262.14,442.48Z" style="fill:#fff"></path><path d="M265,447.49h-5.85a4.41,4.41,0,0,1-4.4-4.4v-5.84a4.41,4.41,0,0,1,4.4-4.4H265a4.41,4.41,0,0,1,4.4,4.4v5.84A4.41,4.41,0,0,1,265,447.49Zm-5.85-13.27a3,3,0,0,0-3,3v5.84a3,3,0,0,0,3,3H265a3,3,0,0,0,3-3v-5.84a3,3,0,0,0-3-3Z" style="fill:#fff"></path><rect x="146.39" y="426.71" width="28.17" height="26.93" rx="5.15" style="fill:#FF725E"></rect><g style="opacity:0.30000000000000004"><path d="M147.43,451.41a4.45,4.45,0,0,1-1-2.93V431.86a5.15,5.15,0,0,1,5.15-5.15h17.87a5.13,5.13,0,0,1,4.09,2h0a2.6,2.6,0,0,1-.48,3.2,8.91,8.91,0,0,1-4.23,1.95c-2.27.46-4.68.48-6.79,1.46a8.16,8.16,0,0,0-4.16,4.5c-.78,2.09-.67,4.43-1.46,6.51a8.28,8.28,0,0,1-8.95,5.06"></path></g><g style="opacity:0.2"><path d="M174.6,446a7.62,7.62,0,0,0-9.58,7.45v.13h4.55a4.94,4.94,0,0,0,4.93-4.75Z"></path></g><g style="opacity:0.2"><path d="M170.81,439.94a2.24,2.24,0,1,1-2.24-2.24A2.23,2.23,0,0,1,170.81,439.94Z"></path></g><rect x="180.19" y="426.71" width="28.17" height="26.93" rx="5.15" style="fill:#FF725E"></rect><g style="opacity:0.30000000000000004"><path d="M181.24,451.41a4.4,4.4,0,0,1-1.05-2.93V431.86a5.15,5.15,0,0,1,5.15-5.15h17.87a5.15,5.15,0,0,1,4.1,2h0a2.62,2.62,0,0,1-.48,3.2,9,9,0,0,1-4.23,1.95c-2.28.46-4.69.48-6.79,1.46a8.14,8.14,0,0,0-4.17,4.5c-.78,2.09-.67,4.43-1.46,6.51a8.28,8.28,0,0,1-8.94,5.06"></path></g><g style="opacity:0.2"><path d="M208.41,446a7.62,7.62,0,0,0-9.59,7.45v.13h4.55a4.93,4.93,0,0,0,4.93-4.75Z"></path></g><g style="opacity:0.2"><path d="M204.61,439.94a2.24,2.24,0,1,1-2.24-2.24A2.23,2.23,0,0,1,204.61,439.94Z"></path></g><path d="M159.83,435.72l-.94-1.21a1,1,0,0,0-1.37-.18l-1.26,1a2.09,2.09,0,0,0-.55,2.68l.16.3a27.67,27.67,0,0,0,5,6.46l.25.24a2.08,2.08,0,0,0,2.72.15l1.27-1a1,1,0,0,0,.18-1.37l-.94-1.22a1,1,0,0,0-1.37-.18l-.25.2a1.06,1.06,0,0,1-1.42-.12l-.18-.19a16.82,16.82,0,0,1-1.83-2.37l-.13-.22a1.06,1.06,0,0,1,.25-1.41l.25-.19A1,1,0,0,0,159.83,435.72Z" style="fill:#fff"></path><rect x="211.11" y="255.49" width="28.17" height="26.93" rx="5.15" style="fill:#FF725E"></rect><g style="opacity:0.30000000000000004"><path d="M212.15,280.19a4.45,4.45,0,0,1-1-2.93V260.64a5.15,5.15,0,0,1,5.15-5.15h17.87a5.13,5.13,0,0,1,4.09,2h0a2.6,2.6,0,0,1-.48,3.2,8.91,8.91,0,0,1-4.23,2c-2.27.46-4.68.48-6.79,1.46a8.13,8.13,0,0,0-4.16,4.5c-.78,2.09-.67,4.43-1.46,6.51a8.28,8.28,0,0,1-8.95,5.06"></path></g><g style="opacity:0.2"><path d="M239.32,274.79a7.62,7.62,0,0,0-9.58,7.45v.13h4.55a4.94,4.94,0,0,0,4.93-4.75Z"></path></g><g style="opacity:0.2"><circle cx="233.29" cy="268.71" r="2.24"></circle></g><rect x="245.09" y="255.73" width="28.17" height="26.93" rx="5.15" style="fill:#FF725E"></rect><g style="opacity:0.30000000000000004"><path d="M246.14,280.44a4.4,4.4,0,0,1-1-2.93V260.88a5.16,5.16,0,0,1,5.15-5.15h17.87a5.17,5.17,0,0,1,4.1,2h0a2.61,2.61,0,0,1-.49,3.2,8.9,8.9,0,0,1-4.23,1.94c-2.27.46-4.68.49-6.78,1.47a8.11,8.11,0,0,0-4.17,4.5c-.78,2.09-.67,4.42-1.46,6.51a8.28,8.28,0,0,1-8.94,5.06"></path></g><g style="opacity:0.2"><path d="M273.31,275a7.62,7.62,0,0,0-9.59,7.45v.13h4.55a4.93,4.93,0,0,0,4.93-4.75Z"></path></g><g style="opacity:0.2"><path d="M269.51,269a2.24,2.24,0,1,1-2.24-2.23A2.24,2.24,0,0,1,269.51,269Z"></path></g><rect x="143.51" y="255.73" width="28.17" height="26.93" rx="5.15" style="fill:#FF725E"></rect><g style="opacity:0.30000000000000004"><path d="M144.55,280.44a4.4,4.4,0,0,1-1-2.93V260.88a5.15,5.15,0,0,1,5.14-5.15h17.87a5.16,5.16,0,0,1,4.1,2h0a2.61,2.61,0,0,1-.48,3.2,8.94,8.94,0,0,1-4.23,1.94c-2.28.46-4.69.49-6.79,1.47a8.15,8.15,0,0,0-4.17,4.5c-.78,2.09-.67,4.42-1.45,6.51a8.28,8.28,0,0,1-8.95,5.06"></path></g><g style="opacity:0.2"><path d="M171.72,275a7.62,7.62,0,0,0-9.59,7.45v.13h4.56a4.92,4.92,0,0,0,4.92-4.75Z"></path></g><g style="opacity:0.2"><path d="M167.92,269a2.24,2.24,0,1,1-2.23-2.23A2.23,2.23,0,0,1,167.92,269Z"></path></g><rect x="177.31" y="255.73" width="28.17" height="26.93" rx="5.15" style="fill:#FF725E"></rect><g style="opacity:0.30000000000000004"><path d="M178.35,280.44a4.4,4.4,0,0,1-1-2.93V260.88a5.15,5.15,0,0,1,5.15-5.15h17.87a5.14,5.14,0,0,1,4.09,2h0a2.6,2.6,0,0,1-.48,3.2,8.94,8.94,0,0,1-4.23,1.94c-2.28.46-4.68.49-6.79,1.47a8.13,8.13,0,0,0-4.16,4.5c-.78,2.09-.68,4.42-1.46,6.51a8.28,8.28,0,0,1-9,5.06"></path></g><g style="opacity:0.2"><path d="M205.52,275a7.63,7.63,0,0,0-9.59,7.45s0,.09,0,.13h4.55a4.94,4.94,0,0,0,4.93-4.75Z"></path></g><g style="opacity:0.2"><path d="M201.73,269a2.24,2.24,0,1,1-2.24-2.23A2.24,2.24,0,0,1,201.73,269Z"></path></g><rect x="211.32" y="182.44" width="27.83" height="26.6" rx="5.15" style="fill:#FF725E"></rect><g style="opacity:0.30000000000000004"><path d="M212.35,206.84a4.32,4.32,0,0,1-1-2.89V187.52a5.08,5.08,0,0,1,5.08-5.08h17.66a5.07,5.07,0,0,1,4,2h0a2.57,2.57,0,0,1-.48,3.16,8.8,8.8,0,0,1-4.17,1.92c-2.25.46-4.63.48-6.71,1.45a8.08,8.08,0,0,0-4.12,4.44c-.77,2.06-.66,4.38-1.43,6.44a8.18,8.18,0,0,1-8.84,5"></path></g><g style="opacity:0.2"><path d="M239.19,201.51a7.53,7.53,0,0,0-9.47,7.36V209h4.5a4.87,4.87,0,0,0,4.86-4.7Z"></path></g><g style="opacity:0.2"><path d="M235.44,195.51a2.21,2.21,0,1,1-2.21-2.21A2.21,2.21,0,0,1,235.44,195.51Z"></path></g><rect x="244.89" y="182.68" width="27.83" height="26.6" rx="5.15" style="fill:#FF725E"></rect><g style="opacity:0.30000000000000004"><path d="M245.92,207.09a4.35,4.35,0,0,1-1-2.89V187.77a5.08,5.08,0,0,1,5.08-5.09h17.66a5.1,5.1,0,0,1,4,2h0a2.57,2.57,0,0,1-.48,3.16,8.82,8.82,0,0,1-4.17,1.93c-2.25.45-4.63.47-6.71,1.44a8.1,8.1,0,0,0-4.12,4.45c-.77,2.06-.66,4.37-1.43,6.43a8.19,8.19,0,0,1-8.84,5"></path></g><g style="opacity:0.2"><path d="M272.76,201.75a7.52,7.52,0,0,0-9.47,7.37v.12h4.49a4.86,4.86,0,0,0,4.87-4.69Z"></path></g><g style="opacity:0.2"><path d="M269,195.75a2.21,2.21,0,1,1-2.21-2.21A2.21,2.21,0,0,1,269,195.75Z"></path></g><rect x="211.32" y="219.63" width="27.83" height="26.6" rx="5.15" style="fill:#FF725E"></rect><g style="opacity:0.30000000000000004"><path d="M212.35,244a4.35,4.35,0,0,1-1-2.89V224.72a5.08,5.08,0,0,1,5.08-5.09h17.66a5.1,5.1,0,0,1,4,2h0a2.57,2.57,0,0,1-.48,3.16,8.82,8.82,0,0,1-4.17,1.93c-2.25.45-4.63.47-6.71,1.44a8.1,8.1,0,0,0-4.12,4.45c-.77,2.06-.66,4.37-1.43,6.43a8.19,8.19,0,0,1-8.84,5"></path></g><g style="opacity:0.2"><path d="M239.19,238.7a7.53,7.53,0,0,0-9.47,7.36v.13h4.5a4.86,4.86,0,0,0,4.86-4.69Z"></path></g><g style="opacity:0.2"><circle cx="233.23" cy="232.7" r="2.21"></circle></g><rect x="244.89" y="219.88" width="27.83" height="26.6" rx="5.15" style="fill:#FF725E"></rect><g style="opacity:0.30000000000000004"><path d="M245.92,244.28a4.32,4.32,0,0,1-1-2.89V225a5.08,5.08,0,0,1,5.08-5.08h17.66a5.07,5.07,0,0,1,4,2h0a2.57,2.57,0,0,1-.48,3.16A8.8,8.8,0,0,1,267,227c-2.25.46-4.63.48-6.71,1.45a8.08,8.08,0,0,0-4.12,4.44c-.77,2.07-.66,4.38-1.43,6.44a8.18,8.18,0,0,1-8.84,5"></path></g><g style="opacity:0.2"><path d="M272.76,239a7.52,7.52,0,0,0-9.47,7.36v.13h4.49a4.87,4.87,0,0,0,4.87-4.7Z"></path></g><g style="opacity:0.2"><path d="M269,233a2.21,2.21,0,1,1-2.21-2.21A2.21,2.21,0,0,1,269,233Z"></path></g><rect x="143.51" y="182.68" width="59.98" height="62.2" rx="5.59" style="fill:#FF725E"></rect><path d="M206.75,407.09a2.1,2.1,0,1,1-2.09-2.09A2.09,2.09,0,0,1,206.75,407.09Z" style="fill:#fff"></path><path d="M213.41,407.14a2.1,2.1,0,1,1-2.09-2.09A2.1,2.1,0,0,1,213.41,407.14Z" style="fill:#f5f5f5"></path><path d="M220.07,407.14a2.1,2.1,0,1,1-2.09-2.09A2.1,2.1,0,0,1,220.07,407.14Z" style="fill:#f5f5f5"></path><rect x="143.51" y="297.49" width="129.21" height="76.83" rx="9.01" style="fill:#FF725E"></rect><path d="M157.91,310.91h-2.43v-.63h5.59v.63h-2.43v6.28h-.73Z" style="fill:#fff"></path><path d="M161,314.59a2.64,2.64,0,1,1,2.65,2.65A2.55,2.55,0,0,1,161,314.59Zm4.57,0a1.93,1.93,0,1,0-1.92,2A1.89,1.89,0,0,0,165.59,314.59Z" style="fill:#fff"></path><path d="M175.06,309.86v7.33h-.67v-1a2.26,2.26,0,0,1-2,1.08,2.64,2.64,0,0,1,0-5.28,2.26,2.26,0,0,1,2,1v-3.12Zm-.69,4.73a1.93,1.93,0,1,0-1.93,2A1.9,1.9,0,0,0,174.37,314.59Z" style="fill:#fff"></path><path d="M176.49,314.59a2.65,2.65,0,1,1,2.65,2.65A2.55,2.55,0,0,1,176.49,314.59Zm4.58,0a1.94,1.94,0,1,0-1.93,2A1.89,1.89,0,0,0,181.07,314.59Z" style="fill:#fff"></path><path d="M182.75,312.49a.52.52,0,0,1,.53-.53.53.53,0,0,1,.53.53.54.54,0,0,1-.53.54A.54.54,0,0,1,182.75,312.49Zm0,4.2a.53.53,0,0,1,.53-.53.53.53,0,0,1,.53.53.54.54,0,0,1-.53.55A.54.54,0,0,1,182.75,316.69Z" style="fill:#fff"></path><path d="M260.87,328.33c0,.15-23.72.26-53,.26s-53-.11-53-.26,23.71-.26,53-.26S260.87,328.19,260.87,328.33Z" style="fill:#fff"></path><path d="M260.87,339c0,.14-23.72.26-53,.26s-53-.12-53-.26,23.71-.26,53-.26S260.87,338.82,260.87,339Z" style="fill:#fff"></path><path d="M260.87,349.58c0,.15-23.72.26-53,.26s-53-.11-53-.26,23.71-.26,53-.26S260.87,349.44,260.87,349.58Z" style="fill:#fff"></path><path d="M260.87,360.21c0,.14-23.72.26-53,.26s-53-.12-53-.26,23.71-.26,53-.26S260.87,360.07,260.87,360.21Z" style="fill:#fff"></path><path d="M187.59,447.53a.71.71,0,0,1-.48-.19.68.68,0,0,1,0-.95l3.6-3.6a6.18,6.18,0,0,1,.44-8.18,6.14,6.14,0,1,1,4.35,10.49,6.05,6.05,0,0,1-3.85-1.36l-3.59,3.6A.67.67,0,0,1,187.59,447.53Zm7.91-13.38a4.81,4.81,0,1,0,3.39,1.41A4.78,4.78,0,0,0,195.5,434.15Z" style="fill:#fff"></path><path d="M197,267.17A5.61,5.61,0,1,0,186.55,270h0l0,0c.21.36.48.62.75,1l3.26,4.32a1,1,0,0,0,1.62,0l3.21-4.25a12.47,12.47,0,0,0,.81-1.08h0A5.6,5.6,0,0,0,197,267.17Zm-5.62,2.44a2.47,2.47,0,1,1,2.47-2.47A2.47,2.47,0,0,1,191.39,269.61Z" style="fill:#fff"></path><path d="M264.16,267.67a1.67,1.67,0,0,1-.32,0,3.58,3.58,0,0,1-3-1.61v5.49a4.06,4.06,0,1,1-4.06-4.06H257v2a1.9,1.9,0,0,0-.25,0,2.07,2.07,0,0,0,0,4.14,2.12,2.12,0,0,0,2.16-2l0-9.33h1.91a3.58,3.58,0,0,0,3.29,3.18v2.22" style="fill:#fff"></path><path d="M224.55,237s0-.09,0-.14a4,4,0,0,0,.32.38c1.45,1.48,4.61,1.32,6.56-1.1a8.94,8.94,0,0,0,1.65-6.28,6.52,6.52,0,0,0-6-5.38,8,8,0,0,0-7.68,3.39,5.94,5.94,0,0,0,0,6.63,3,3,0,0,0,1.25.94.37.37,0,0,0,.54-.24c.09-.34.17-.68.25-1s-.07-.36-.24-.57c-1.36-1.7-.68-5.42,2.32-6.81,2.62-1.21,6.75-.4,7,3.36.12,1.89-.48,4.56-2,5.67s-3.6,0-3.19-1.62c.5-2,1.16-3.36.91-4.39-.4-1.67-2.7-1.52-3.34.51a4.2,4.2,0,0,0,.13,2.82.38.38,0,0,1,0,.21c-1.41,5.93-1.54,6.31-1.58,7.41,0,.19,0,.38,0,.57a.61.61,0,0,0,.36.53h0l1.39-.49A17.61,17.61,0,0,0,224.55,237Z" style="fill:#fff"></path><path d="M232.45,192.48a1.21,1.21,0,0,0-1.21-1.21H220.89a1.21,1.21,0,0,0-1.21,1.21V199a1.22,1.22,0,0,0,1.21,1.21h10.35a1.21,1.21,0,0,0,1.21-1.21ZM228.24,196,225,197.58c-.13.07-.56,0-.56-.17v-3.26c0-.15.43-.24.56-.17l3.07,1.68C228.23,195.73,228.37,195.92,228.24,196Z" style="fill:#fff"></path><path d="M256.41,190.92a5,5,0,0,1,1.3-.56l.27-1.29,2.17,0,.31,1.28a5,5,0,0,1,1.32.52l1.1-.72,1.56,1.51-.68,1.12a5.36,5.36,0,0,1,.57,1.3l1.28.27,0,2.17-1.27.31a5.76,5.76,0,0,1-.52,1.32l.72,1.1-1.51,1.56-1.12-.68a5.53,5.53,0,0,1-1.3.57l-.27,1.28-2.18,0-.31-1.27a5.94,5.94,0,0,1-1.32-.52l-1.1.72-1.56-1.51.68-1.13A4.82,4.82,0,0,1,254,197l-1.29-.26,0-2.18,1.28-.31a5,5,0,0,1,.52-1.32l-.72-1.1,1.51-1.56,1.12.68Zm1.16,2.9a2.33,2.33,0,1,0,3.3-.06A2.32,2.32,0,0,0,257.57,193.82Z" style="fill:#fff"></path><path d="M257.85,233.69c.11,3.49,1.39,5.87,2.55,5.87s2.44-2.38,2.55-5.87Z" style="fill:#fff"></path><path d="M260.4,226.79c-1.16,0-2.44,2.39-2.55,5.88H263C262.84,229.18,261.56,226.79,260.4,226.79Z" style="fill:#fff"></path><path d="M264,232.67h3.29a6.89,6.89,0,0,0-5.31-6.21C263.11,227.56,263.89,229.85,264,232.67Z" style="fill:#fff"></path><path d="M264,233.69c-.09,2.82-.87,5.11-2,6.2a6.88,6.88,0,0,0,5.31-6.2Z" style="fill:#fff"></path><path d="M256.82,233.69h-3.29a6.88,6.88,0,0,0,5.31,6.2C257.69,238.8,256.91,236.51,256.82,233.69Z" style="fill:#fff"></path><path d="M256.82,232.67c.09-2.82.87-5.11,2-6.21a6.89,6.89,0,0,0-5.31,6.21Z" style="fill:#fff"></path><path d="M189.93,226.27a12.54,12.54,0,0,0,1.48-.07,7.65,7.65,0,0,0,3.78-1.65,7.49,7.49,0,0,0,1.9-2.25,7.15,7.15,0,0,0,.62-1.56,7,7,0,0,0,.21-1.79,8,8,0,0,0-.29-1.91,8.43,8.43,0,0,0-.8-1.87,7.31,7.31,0,0,0-3.19-2.92l-.08,0v-.07a5.27,5.27,0,0,0-9-3.93l-.17.18-.06-.25a10.17,10.17,0,0,0-6.24-7.14,9.39,9.39,0,0,0-2.53-.63,3.45,3.45,0,0,0-.64-.05c-.22,0-.43,0-.64,0a8.81,8.81,0,0,0-1.27.14,9.59,9.59,0,0,0-4.45,2.14,11,11,0,0,0-2.84,3.77,9.6,9.6,0,0,0-.83,4.36v.16l-.16,0a7.37,7.37,0,0,0-4.92.58,8.84,8.84,0,0,0-1.94,1.32,8.18,8.18,0,0,0-1.41,1.72,7.21,7.21,0,0,0-.77,1.93,6.37,6.37,0,0,0-.13,1.93,7.54,7.54,0,0,0,1,3.27,7.94,7.94,0,0,0,3.52,3.25,10.32,10.32,0,0,0,1.64.54l-.11,0-.33-.06a4.43,4.43,0,0,1-.53-.13,6.29,6.29,0,0,1-.7-.26,7.77,7.77,0,0,1-3.61-3.25,7.57,7.57,0,0,1-1.07-3.32,6.44,6.44,0,0,1,.13-2,7.47,7.47,0,0,1,.78-2,8.82,8.82,0,0,1,1.43-1.77,9.33,9.33,0,0,1,2-1.36,7.57,7.57,0,0,1,5.08-.62l-.16.13a9.81,9.81,0,0,1,.85-4.47,11,11,0,0,1,2.9-3.88,9.91,9.91,0,0,1,4.57-2.2,9.55,9.55,0,0,1,1.31-.15h.66a4.89,4.89,0,0,1,.66.05,10.22,10.22,0,0,1,2.6.65,10.48,10.48,0,0,1,6.41,7.35l-.23-.07a5.52,5.52,0,0,1,9.43,4.13l-.07-.12a7.5,7.5,0,0,1,3.28,3,9,9,0,0,1,.82,1.93,8.27,8.27,0,0,1,.28,1.95,7.36,7.36,0,0,1-.23,1.84,6.25,6.25,0,0,1-.65,1.59,7.43,7.43,0,0,1-2,2.29,7.63,7.63,0,0,1-3.85,1.61,5.46,5.46,0,0,1-1.11,0Z" style="fill:#fff"></path><path d="M176.11,221.27a55.66,55.66,0,0,1-4.11,6.84,31.26,31.26,0,0,1,1.94-3.49A30.82,30.82,0,0,1,176.11,221.27Z" style="fill:#fff"></path><path d="M182.55,221.27a55.66,55.66,0,0,1-4.11,6.84,59.19,59.19,0,0,1,4.11-6.84Z" style="fill:#fff"></path><path d="M189,221.27a59.19,59.19,0,0,1-4.11,6.84,59.19,59.19,0,0,1,4.11-6.84Z" style="fill:#fff"></path><path d="M168.66,230.86a59.19,59.19,0,0,1-4.11,6.84,59.19,59.19,0,0,1,4.11-6.84Z" style="fill:#fff"></path><path d="M175.1,230.86A59.19,59.19,0,0,1,171,237.7a59.19,59.19,0,0,1,4.11-6.84Z" style="fill:#fff"></path><path d="M181.54,230.86a59.19,59.19,0,0,1-4.11,6.84,55.66,55.66,0,0,1,4.11-6.84Z" style="fill:#fff"></path><path d="M188.26,231a58,58,0,0,1-4.11,6.83,58,58,0,0,1,4.11-6.83Z" style="fill:#fff"></path><path d="M151.23,189.86v6h-1.38V191h-1.21v-1.12Z" style="fill:#fff"></path><path d="M152.28,192.86c0-2,1.1-3.1,2.57-3.1s2.58,1.12,2.58,3.1-1.09,3.11-2.58,3.11S152.28,194.84,152.28,192.86Zm3.75,0c0-1.36-.48-1.93-1.18-1.93s-1.16.57-1.16,1.93.48,1.93,1.16,1.93S156,194.23,156,192.86Z" style="fill:#fff"></path><path d="M158,190.85a1.64,1.64,0,1,1,1.63,1.42A1.48,1.48,0,0,1,158,190.85Zm2.34,0a.72.72,0,0,0-1.43,0,.72.72,0,0,0,1.43,0Z" style="fill:#fff"></path><path d="M169.74,195l-.85-1.2h-1.21V195h-.56v-3.92h1.53c1,0,1.63.52,1.63,1.37a1.24,1.24,0,0,1-.86,1.23l.93,1.32Zm0-2.55c0-.56-.38-.88-1.09-.88h-.95v1.76h.95C169.34,193.32,169.72,193,169.72,192.44Z" style="fill:#fff"></path><path d="M173.43,193.2V195h-.51v-.39a1.1,1.1,0,0,1-1,.42c-.67,0-1.09-.36-1.09-.87s.31-.87,1.19-.87h.85v-.1c0-.46-.26-.72-.8-.72a1.43,1.43,0,0,0-.93.32l-.23-.4a2,2,0,0,1,1.23-.38C173,192,173.43,192.39,173.43,193.2Zm-.54.88v-.41h-.83c-.53,0-.68.21-.68.46s.25.48.65.48A.87.87,0,0,0,172.89,194.08Z" style="fill:#fff"></path><path d="M174.32,191.11a.35.35,0,0,1,.37-.35.35.35,0,1,1,0,.69A.35.35,0,0,1,174.32,191.11Zm.1.91H175v3h-.54Z" style="fill:#fff"></path><path d="M178.79,193.28V195h-.53v-1.65c0-.58-.3-.86-.8-.86a.88.88,0,0,0-.94,1V195H176v-3h.51v.45a1.28,1.28,0,0,1,1.07-.47A1.14,1.14,0,0,1,178.79,193.28Z" style="fill:#fff"></path><path d="M164.07,196.36a48,48,0,0,1,0-7.33,48,48,0,0,1,0,7.33Z" style="fill:#fff"></path></g><g id="screen-2"><path d="M588.46,133.25H565.14a5.09,5.09,0,0,0-4.88,3.67l-1.91,6.57a5.69,5.69,0,0,1-5.47,4.11H501.23a5.71,5.71,0,0,1-5.47-4.11l-1.91-6.57a5.09,5.09,0,0,0-4.88-3.67H465.66a18.57,18.57,0,0,0-18.57,18.57V445.34a18.57,18.57,0,0,0,18.57,18.57h122.8A18.57,18.57,0,0,0,607,445.34V151.82A18.57,18.57,0,0,0,588.46,133.25Z" style="fill:#ebebeb"></path><path d="M588.46,133.25l.62,0a14.07,14.07,0,0,1,1.86.14,17.47,17.47,0,0,1,6.9,2.35,17.72,17.72,0,0,1,4.22,3.36A18.39,18.39,0,0,1,607.11,152c0,2.71,0,5.6,0,8.65,0,24.45,0,59.83.09,103.53s0,95.76,0,153.56q0,10.83,0,21.93v5.57a21.22,21.22,0,0,1-.81,5.59,20.64,20.64,0,0,1-2.46,5.12,19.78,19.78,0,0,1-3.9,4.17,18,18,0,0,1-5,2.82,17.66,17.66,0,0,1-5.65,1.19c-3.84.1-7.66,0-11.53.05H469.68c-2.07,0-4.14.07-6.25-.15a18.06,18.06,0,0,1-6-1.78,19.35,19.35,0,0,1-5.12-3.67,19,19,0,0,1-3.6-5.15,18.64,18.64,0,0,1-1.72-6c-.18-2.1-.1-4.15-.12-6.21V368.68c0-31.45,0-61.79,0-90.69s0-56.37,0-82.07q0-19.28,0-37.19v-6.66c0-.74.06-1.48.11-2.21a18.8,18.8,0,0,1,16.88-16.7c1.39-.1,2.74-.1,4.09-.09h19.62c.64,0,1.25,0,1.91,0a5.49,5.49,0,0,1,1.85.55,5.3,5.3,0,0,1,2.52,2.78c.73,2.38,1.37,4.7,2,7a5.56,5.56,0,0,0,5,4l13.46,0,24.2,0H551.8a10.08,10.08,0,0,0,2.41-.16,5.64,5.64,0,0,0,3.57-2.73,10.33,10.33,0,0,0,.76-2.1l.61-2.11c.42-1.38.76-2.73,1.21-4a5.21,5.21,0,0,1,2.74-2.78,8.66,8.66,0,0,1,3.64-.41l11.9,0,7.32,0,2.5,0-2.5,0-7.32,0-11.9,0a8.62,8.62,0,0,0-3.58.41,5,5,0,0,0-2.63,2.7c-.44,1.26-.78,2.63-1.2,4q-.3,1-.6,2.1a10.45,10.45,0,0,1-.77,2.15,5.85,5.85,0,0,1-3.7,2.84,10.65,10.65,0,0,1-2.46.17H538.62l-24.2,0H501a5.86,5.86,0,0,1-5.34-4.21c-.68-2.29-1.34-4.64-2.05-7a4.93,4.93,0,0,0-4.1-3.11c-.59,0-1.24,0-1.87,0H465.94c-.68,0-1.35.06-2,.09a18.43,18.43,0,0,0-13.7,8.35,18.69,18.69,0,0,0-2.83,8c0,.72-.09,1.44-.1,2.17v6.66q0,17.9,0,37.19c0,25.7,0,53.17,0,82.07s0,59.24,0,90.69q0,23.58,0,48v24.54c0,2.05-.06,4.14.11,6.15a18.49,18.49,0,0,0,1.68,5.86,18.11,18.11,0,0,0,3.5,5,18.91,18.91,0,0,0,5,3.57,17.83,17.83,0,0,0,5.87,1.74c2,.2,4.12.12,6.19.14H577.93c3.85,0,7.72.05,11.51,0a17.41,17.41,0,0,0,5.49-1.15,17.68,17.68,0,0,0,4.86-2.75,19,19,0,0,0,3.8-4.06,19.43,19.43,0,0,0,2.39-5c1.12-3.54.72-7.31.8-11V417.72c0-57.8,0-109.84.06-153.56s.06-79.08.08-103.53c0-3,0-5.94,0-8.65a18.55,18.55,0,0,0-9.14-16.13,17.4,17.4,0,0,0-6.85-2.38,13.5,13.5,0,0,0-1.86-.17Z" style="fill:#263238"></path><path d="M591.77,309a6.11,6.11,0,0,1,2.5-.26L594,309h0v-.48l0-.47c0-.29,0-.56.05-.79,0-.45.12-.73.19-.73s.13.28.18.73c0,.23,0,.5.06.79v.95h0l-.26.26A6.31,6.31,0,0,1,591.77,309Z" style="fill:#263238"></path><path d="M581.44,309a12.93,12.93,0,0,1,5.16,0,12.93,12.93,0,0,1-5.16,0Z" style="fill:#263238"></path><path d="M571.11,309a12.93,12.93,0,0,1,5.16,0,12.93,12.93,0,0,1-5.16,0Z" style="fill:#263238"></path><path d="M560.78,309a12.93,12.93,0,0,1,5.16,0,12.93,12.93,0,0,1-5.16,0Z" style="fill:#263238"></path><path d="M550.45,309a12.93,12.93,0,0,1,5.16,0,12.93,12.93,0,0,1-5.16,0Z" style="fill:#263238"></path><path d="M540.11,309a13,13,0,0,1,5.17,0,13,13,0,0,1-5.17,0Z" style="fill:#263238"></path><path d="M529.78,309a13,13,0,0,1,5.17,0,13,13,0,0,1-5.17,0Z" style="fill:#263238"></path><path d="M519.45,309a13,13,0,0,1,5.17,0,13,13,0,0,1-5.17,0Z" style="fill:#263238"></path><path d="M509.12,309a13,13,0,0,1,5.17,0,13,13,0,0,1-5.17,0Z" style="fill:#263238"></path><path d="M498.79,309a13,13,0,0,1,5.17,0,13,13,0,0,1-5.17,0Z" style="fill:#263238"></path><path d="M488.46,309a13,13,0,0,1,5.17,0,13,13,0,0,1-5.17,0Z" style="fill:#263238"></path><path d="M478.13,309a13,13,0,0,1,5.17,0,13,13,0,0,1-5.17,0Z" style="fill:#263238"></path><path d="M467.8,309a13,13,0,0,1,5.17,0,13,13,0,0,1-5.17,0Z" style="fill:#263238"></path><path d="M460.14,306.45a6.31,6.31,0,0,1,.26,2.5l-.26-.26h.5l.47,0,.79.05c.46.05.74.12.74.19s-.28.13-.74.18c-.22,0-.49,0-.79.06h-1l-.27-.26A6,6,0,0,1,460.14,306.45Z" style="fill:#263238"></path><path d="M460.14,296.41a12.25,12.25,0,0,1,0,5,11.8,11.8,0,0,1,0-5Z" style="fill:#263238"></path><path d="M460.14,286.37a12.25,12.25,0,0,1,0,5,11.8,11.8,0,0,1,0-5Z" style="fill:#263238"></path><path d="M460.14,276.33a12.25,12.25,0,0,1,0,5,11.8,11.8,0,0,1,0-5Z" style="fill:#263238"></path><path d="M460.14,266.29a12.25,12.25,0,0,1,0,5,11.8,11.8,0,0,1,0-5Z" style="fill:#263238"></path><path d="M460.14,256.25a12.25,12.25,0,0,1,0,5,11.8,11.8,0,0,1,0-5Z" style="fill:#263238"></path><path d="M462.64,248.73a6.11,6.11,0,0,1-2.5.26c.52-.52.14-.14.26-.25h0v1c0,.3,0,.57-.06.79-.05.45-.11.73-.18.73s-.14-.28-.19-.73c0-.22,0-.49-.05-.79s0-.32,0-.47v-.49h0c.12-.12-.26.25.27-.27A6.31,6.31,0,0,1,462.64,248.73Z" style="fill:#263238"></path><path d="M473,248.73a13,13,0,0,1-5.17,0,13,13,0,0,1,5.17,0Z" style="fill:#263238"></path><path d="M483.3,248.73a13,13,0,0,1-5.17,0,13,13,0,0,1,5.17,0Z" style="fill:#263238"></path><path d="M493.63,248.73a13,13,0,0,1-5.17,0,13,13,0,0,1,5.17,0Z" style="fill:#263238"></path><path d="M504,248.73a13,13,0,0,1-5.17,0,13,13,0,0,1,5.17,0Z" style="fill:#263238"></path><path d="M514.29,248.73a13,13,0,0,1-5.17,0,13,13,0,0,1,5.17,0Z" style="fill:#263238"></path><path d="M524.62,248.73a13,13,0,0,1-5.17,0,13,13,0,0,1,5.17,0Z" style="fill:#263238"></path><path d="M535,248.73a13,13,0,0,1-5.17,0,13,13,0,0,1,5.17,0Z" style="fill:#263238"></path><path d="M545.28,248.73a13,13,0,0,1-5.17,0,13,13,0,0,1,5.17,0Z" style="fill:#263238"></path><path d="M555.61,248.73a12.93,12.93,0,0,1-5.16,0,12.93,12.93,0,0,1,5.16,0Z" style="fill:#263238"></path><path d="M565.94,248.73a12.93,12.93,0,0,1-5.16,0,12.93,12.93,0,0,1,5.16,0Z" style="fill:#263238"></path><path d="M576.27,248.73a12.93,12.93,0,0,1-5.16,0,12.93,12.93,0,0,1,5.16,0Z" style="fill:#263238"></path><path d="M586.6,248.73a12.93,12.93,0,0,1-5.16,0,12.93,12.93,0,0,1,5.16,0Z" style="fill:#263238"></path><path d="M594.27,251.23a6.11,6.11,0,0,1-.26-2.5l.26.26h-.51l-.47,0-.79-.05c-.45,0-.73-.11-.73-.19s.28-.13.73-.18l.79-.06h1l.26.26A6.31,6.31,0,0,1,594.27,251.23Z" style="fill:#263238"></path><path d="M594.27,261.27a12.25,12.25,0,0,1,0-5,12.25,12.25,0,0,1,0,5Z" style="fill:#263238"></path><path d="M594.27,271.31a12.25,12.25,0,0,1,0-5,12.25,12.25,0,0,1,0,5Z" style="fill:#263238"></path><path d="M594.27,281.35a12.25,12.25,0,0,1,0-5,12.25,12.25,0,0,1,0,5Z" style="fill:#263238"></path><path d="M594.27,291.39a12.25,12.25,0,0,1,0-5,12.25,12.25,0,0,1,0,5Z" style="fill:#263238"></path><path d="M594.27,301.43a12.25,12.25,0,0,1,0-5,12.25,12.25,0,0,1,0,5Z" style="fill:#263238"></path><rect x="456.73" y="418.52" width="144.92" height="37.81" rx="5.71" style="fill:#fff"></rect><rect x="464.27" y="321.13" width="28.17" height="26.93" rx="5.15" style="fill:#FF725E"></rect><g style="opacity:0.30000000000000004"><path d="M465.31,345.83a4.35,4.35,0,0,1-1-2.92V326.28a5.15,5.15,0,0,1,5.15-5.15h17.87a5.15,5.15,0,0,1,4.09,2h0a2.59,2.59,0,0,1-.48,3.19,9,9,0,0,1-4.23,1.95c-2.28.46-4.68.49-6.79,1.46a8.23,8.23,0,0,0-4.17,4.51c-.78,2.08-.67,4.42-1.45,6.51a8.26,8.26,0,0,1-8.95,5.05"></path></g><g style="opacity:0.2"><path d="M492.48,340.44a7.62,7.62,0,0,0-9.59,7.45V348h4.56a4.92,4.92,0,0,0,4.92-4.75Z"></path></g><g style="opacity:0.2"><path d="M488.68,334.36a2.24,2.24,0,1,1-2.23-2.24A2.23,2.23,0,0,1,488.68,334.36Z"></path></g><rect x="498.38" y="321.13" width="28.17" height="26.93" rx="5.15" style="fill:#FF725E"></rect><g style="opacity:0.30000000000000004"><path d="M499.42,345.83a4.35,4.35,0,0,1-1-2.92V326.28a5.15,5.15,0,0,1,5.15-5.15H521.4a5.15,5.15,0,0,1,4.09,2h0a2.59,2.59,0,0,1-.48,3.19,9,9,0,0,1-4.23,1.95c-2.28.46-4.68.49-6.79,1.46a8.23,8.23,0,0,0-4.17,4.51c-.78,2.08-.67,4.42-1.45,6.51a8.26,8.26,0,0,1-8.95,5.05"></path></g><g style="opacity:0.2"><path d="M526.59,340.44a7.62,7.62,0,0,0-9.59,7.45V348h4.56a4.92,4.92,0,0,0,4.92-4.75Z"></path></g><g style="opacity:0.2"><path d="M522.79,334.36a2.24,2.24,0,1,1-2.23-2.24A2.23,2.23,0,0,1,522.79,334.36Z"></path></g><rect x="532.49" y="321.13" width="28.17" height="26.93" rx="5.15" style="fill:#FF725E"></rect><g style="opacity:0.30000000000000004"><path d="M533.53,345.83a4.35,4.35,0,0,1-1-2.92V326.28a5.15,5.15,0,0,1,5.15-5.15h17.87a5.15,5.15,0,0,1,4.09,2h0a2.59,2.59,0,0,1-.48,3.19,9,9,0,0,1-4.23,1.95c-2.28.46-4.68.49-6.79,1.46a8.23,8.23,0,0,0-4.17,4.51c-.78,2.08-.67,4.42-1.45,6.51a8.26,8.26,0,0,1-9,5.05"></path></g><g style="opacity:0.2"><path d="M560.7,340.44a7.62,7.62,0,0,0-9.59,7.45V348h4.56a4.92,4.92,0,0,0,4.92-4.75Z"></path></g><g style="opacity:0.2"><path d="M556.9,334.36a2.24,2.24,0,1,1-2.23-2.24A2.23,2.23,0,0,1,556.9,334.36Z"></path></g><rect x="566.6" y="321.13" width="28.17" height="26.93" rx="5.15" style="fill:#FF725E"></rect><g style="opacity:0.30000000000000004"><path d="M567.64,345.83a4.35,4.35,0,0,1-1-2.92V326.28a5.15,5.15,0,0,1,5.15-5.15h17.87a5.15,5.15,0,0,1,4.09,2h0a2.58,2.58,0,0,1-.48,3.19A9,9,0,0,1,589,328.3c-2.28.46-4.68.49-6.79,1.46a8.23,8.23,0,0,0-4.17,4.51c-.78,2.08-.67,4.42-1.45,6.51a8.26,8.26,0,0,1-9,5.05"></path></g><g style="opacity:0.2"><path d="M594.81,340.44a7.62,7.62,0,0,0-9.59,7.45V348h4.56a4.92,4.92,0,0,0,4.92-4.75Z"></path></g><g style="opacity:0.2"><path d="M591,334.36a2.24,2.24,0,1,1-2.23-2.24A2.23,2.23,0,0,1,591,334.36Z"></path></g><path d="M513.87,335.8a3.93,3.93,0,0,0,2.34-3.63,3.69,3.69,0,1,0-7.36,0,3.93,3.93,0,0,0,2.34,3.67c-5.66.85-5.41,7-5.41,7l13.4.06S519.49,336.65,513.87,335.8Z" style="fill:#fff"></path><rect x="456.59" y="207.2" width="141.41" height="25.72" rx="10.85" style="fill:#fff"></rect><path d="M587.15,232.92l.81-.07a11.73,11.73,0,0,0,2.33-.45,11.24,11.24,0,0,0,3.4-1.79,10.67,10.67,0,0,0,3.23-4.09,10.36,10.36,0,0,0,.85-3,29.81,29.81,0,0,0,.1-3.46,24.12,24.12,0,0,0-.17-3.77,10.73,10.73,0,0,0-8.54-8.73,29.39,29.39,0,0,0-4.92-.18H579l-111.58.07a10.62,10.62,0,0,0-10.55,9.71c-.09,1.28,0,2.63,0,3.94a12.12,12.12,0,0,0,.4,3.82,10.65,10.65,0,0,0,4.38,6,10.47,10.47,0,0,0,3.42,1.46,16.45,16.45,0,0,0,3.72.28h22l50.17,0,33.82.09,9.19.05,2.39,0,.82,0-.82,0-2.39,0-9.19.05-33.82.09-50.17,0h-22a16.08,16.08,0,0,1-3.83-.29,10.77,10.77,0,0,1-3.59-1.53,11.22,11.22,0,0,1-4.6-6.29,12.65,12.65,0,0,1-.43-4c0-1.33,0-2.62.05-4a11.11,11.11,0,0,1,11.07-10.18L579,207h5.22a30.42,30.42,0,0,1,5,.21,11,11,0,0,1,8.75,9,24.81,24.81,0,0,1,.15,3.81,26.48,26.48,0,0,1-.13,3.49,10.48,10.48,0,0,1-.89,3.06,10.68,10.68,0,0,1-3.31,4.12,11.06,11.06,0,0,1-3.47,1.77,11.38,11.38,0,0,1-2.36.41C587.42,232.93,587.15,232.92,587.15,232.92Z" style="fill:#263238"></path><path d="M589.33,219.45c-.05,0-.05-.42-.25-1.12a4.59,4.59,0,0,0-1.71-2.44,4.43,4.43,0,1,0,0,7.11,4.62,4.62,0,0,0,1.7-2.44c.2-.7.2-1.12.25-1.11s0,.1,0,.3a3.44,3.44,0,0,1-.09.86,4.63,4.63,0,0,1-1.68,2.69,4.84,4.84,0,0,1-4.6.75,4.89,4.89,0,0,1,0-9.21,4.82,4.82,0,0,1,4.6.76,4.58,4.58,0,0,1,1.68,2.68,3.47,3.47,0,0,1,.09.87C589.36,219.34,589.35,219.45,589.33,219.45Z" style="fill:#263238"></path><path d="M591.89,227.48a9.4,9.4,0,0,1-2.28-2.08,9.14,9.14,0,0,1-1.89-2.44A9.25,9.25,0,0,1,590,225,9.14,9.14,0,0,1,591.89,227.48Z" style="fill:#263238"></path><path d="M475.68,217.49h-2.53v-.66H479v.66h-2.53V224h-.75Z" style="fill:#e0e0e0"></path><path d="M484.15,221.54h-4.52a2,2,0,0,0,2.13,1.87,2.13,2.13,0,0,0,1.65-.7l.41.47a2.85,2.85,0,0,1-4.91-1.87,2.63,2.63,0,1,1,5.25,0C484.16,221.37,484.15,221.46,484.15,221.54Zm-4.52-.55h3.83a1.92,1.92,0,0,0-3.83,0Z" style="fill:#e0e0e0"></path><path d="M488.92,224l-1.71-2.26L485.49,224h-.82l2.13-2.77-2-2.62h.82l1.62,2.11,1.62-2.11h.8l-2,2.62,2.15,2.77Z" style="fill:#e0e0e0"></path><path d="M493.8,223.68a1.68,1.68,0,0,1-1.13.38,1.43,1.43,0,0,1-1.58-1.57v-3.26h-1v-.61h1v-1.18h.73v1.18h1.64v.61h-1.64v3.22a.85.85,0,0,0,.93,1,1.23,1.23,0,0,0,.8-.27Z" style="fill:#e0e0e0"></path><path d="M521,406a2.1,2.1,0,1,1-2.09-2.09A2.09,2.09,0,0,1,521,406Z" style="fill:#f5f5f5"></path><path d="M527.62,406.05a2.1,2.1,0,1,1-2.09-2.09A2.1,2.1,0,0,1,527.62,406.05Z" style="fill:#f5f5f5"></path><path d="M534.28,406.05a2.1,2.1,0,1,1-2.09-2.09A2.1,2.1,0,0,1,534.28,406.05Z" style="fill:#fff"></path><path d="M471.83,341.05h12.33l-1.66-1.92v-4.59A4.5,4.5,0,0,0,478,330h0a4.51,4.51,0,0,0-4.5,4.5v4.37Z" style="fill:#fff"></path><path d="M476.27,340.44a1.93,1.93,0,0,0,1.17,1.68A1.9,1.9,0,0,0,480,339.8" style="fill:#fff"></path><rect x="477.47" y="328.18" width="1.21" height="2.57" style="fill:#fff"></rect><path d="M555.47,340.19a4.05,4.05,0,0,0-.8-4.3,4.5,4.5,0,0,0-4.41-1.43,4.93,4.93,0,0,0-9.78.64,3.68,3.68,0,0,0-2.82,5Z" style="fill:#fff"></path><path d="M582.1,341.29a1.46,1.46,0,1,1-1.45-1.46A1.45,1.45,0,0,1,582.1,341.29Z" style="fill:#fff"></path><path d="M577.73,339.42a4,4,0,0,1,5.85-.08.82.82,0,0,0,1.17-1.15,5.71,5.71,0,0,0-8.18.06c-.73.77.43,1.94,1.16,1.17Z" style="fill:#fff"></path><path d="M572.77,332.62a12,12,0,0,1,7.84-3.13,11.61,11.61,0,0,1,8,3.06c.77.72,1.94-.43,1.17-1.16a13.37,13.37,0,0,0-9.16-3.54,13.71,13.71,0,0,0-9,3.61c-.8.69.36,1.85,1.16,1.16Z" style="fill:#fff"></path><path d="M574.72,336.39a8,8,0,0,1,11.81-.17c.73.76,1.9-.4,1.16-1.15a9.66,9.66,0,0,0-14.12.15c-.72.78.44,1.95,1.15,1.17Z" style="fill:#fff"></path><rect x="531.9" y="423.84" width="28.17" height="26.93" rx="5.15" style="fill:#FF725E"></rect><g style="opacity:0.30000000000000004"><path d="M532.94,448.54a4.4,4.4,0,0,1-1-2.92V429a5.15,5.15,0,0,1,5.15-5.15h17.87a5.11,5.11,0,0,1,4.09,2h0a2.58,2.58,0,0,1-.48,3.19A8.91,8.91,0,0,1,554.3,431c-2.28.46-4.68.48-6.79,1.46a8.19,8.19,0,0,0-4.16,4.5c-.78,2.09-.68,4.43-1.46,6.52a8.26,8.26,0,0,1-8.95,5.05"></path></g><g style="opacity:0.2"><path d="M560.11,443.14a7.63,7.63,0,0,0-9.59,7.46s0,.08,0,.12h4.55A4.93,4.93,0,0,0,560,446Z"></path></g><g style="opacity:0.2"><circle cx="554.08" cy="437.07" r="2.24"></circle></g><path d="M538.58,444.74l1.07-4a7.35,7.35,0,1,1,2.93,2.91Zm4.2-2.56.26.15a6,6,0,1,0-2-2l.15.26-.59,2.22Z" style="fill:#fff"></path><path d="M548.81,438.24a1.19,1.19,0,0,0-1-.24c-.27.11-.45.54-.63.76a.26.26,0,0,1-.34.07,4.73,4.73,0,0,1-2.37-2,.3.3,0,0,1,0-.4,1.67,1.67,0,0,0,.44-.7,1.62,1.62,0,0,0-.2-.83,1.89,1.89,0,0,0-.61-.92.85.85,0,0,0-.91.13,1.89,1.89,0,0,0-.65,1.47,3.78,3.78,0,0,0,.06.47,4.08,4.08,0,0,0,.45,1,6.58,6.58,0,0,0,.47.7,7,7,0,0,0,2,1.88,5.83,5.83,0,0,0,1.26.6,2.65,2.65,0,0,0,1.47.23,1.75,1.75,0,0,0,1.33-1,.86.86,0,0,0,.06-.5C549.56,438.61,549.09,438.4,548.81,438.24Z" style="fill:#fff;fill-rule:evenodd"></path><rect x="565.88" y="424.09" width="28.17" height="26.93" rx="5.15" style="fill:#FF725E"></rect><g style="opacity:0.30000000000000004"><path d="M566.92,448.79a4.4,4.4,0,0,1-1-2.92V429.24a5.15,5.15,0,0,1,5.15-5.15H588.9a5.13,5.13,0,0,1,4.09,2h0a2.6,2.6,0,0,1-.48,3.2,8.91,8.91,0,0,1-4.23,1.95c-2.27.46-4.68.48-6.79,1.46a8.16,8.16,0,0,0-4.16,4.5c-.78,2.09-.67,4.43-1.46,6.51a8.28,8.28,0,0,1-9,5.06"></path></g><g style="opacity:0.2"><path d="M594.09,443.39a7.62,7.62,0,0,0-9.58,7.46V451h4.55a4.94,4.94,0,0,0,4.93-4.75Z"></path></g><g style="opacity:0.2"><circle cx="588.06" cy="437.32" r="2.24"></circle></g><path d="M583.86,432.84a.86.86,0,1,0,.86.86A.86.86,0,0,0,583.86,432.84Z" style="fill:#fff"></path><path d="M580.05,434a3.61,3.61,0,1,0,3.6,3.6A3.61,3.61,0,0,0,580.05,434Zm0,5.91a2.31,2.31,0,1,1,2.31-2.31A2.3,2.3,0,0,1,580.05,439.86Z" style="fill:#fff"></path><path d="M582.91,444.88h-5.85a4.41,4.41,0,0,1-4.4-4.4v-5.85a4.41,4.41,0,0,1,4.4-4.4h5.85a4.4,4.4,0,0,1,4.4,4.4v5.85A4.41,4.41,0,0,1,582.91,444.88Zm-5.85-13.27a3,3,0,0,0-3,3v5.85a3,3,0,0,0,3,3h5.85a3,3,0,0,0,3-3v-5.85a3,3,0,0,0-3-3Z" style="fill:#fff"></path><rect x="464.29" y="424.09" width="28.17" height="26.93" rx="5.15" style="fill:#FF725E"></rect><g style="opacity:0.30000000000000004"><path d="M465.34,448.79a4.36,4.36,0,0,1-1-2.92V429.24a5.15,5.15,0,0,1,5.15-5.15h17.87a5.16,5.16,0,0,1,4.1,2h0a2.61,2.61,0,0,1-.49,3.2,8.91,8.91,0,0,1-4.23,1.95c-2.27.46-4.68.48-6.78,1.46a8.14,8.14,0,0,0-4.17,4.5c-.78,2.09-.67,4.43-1.46,6.51a8.28,8.28,0,0,1-8.94,5.06"></path></g><g style="opacity:0.2"><path d="M492.5,443.39a7.62,7.62,0,0,0-9.58,7.46V451h4.55a4.93,4.93,0,0,0,4.93-4.75Z"></path></g><g style="opacity:0.2"><circle cx="486.47" cy="437.32" r="2.24"></circle></g><rect x="498.1" y="424.09" width="28.17" height="26.93" rx="5.15" style="fill:#FF725E"></rect><g style="opacity:0.30000000000000004"><path d="M499.14,448.79a4.35,4.35,0,0,1-1-2.92V429.24a5.14,5.14,0,0,1,5.15-5.15h17.86a5.15,5.15,0,0,1,4.1,2h0a2.61,2.61,0,0,1-.48,3.2,9,9,0,0,1-4.23,1.95c-2.28.46-4.68.48-6.79,1.46a8.21,8.21,0,0,0-4.17,4.5c-.78,2.09-.67,4.43-1.45,6.51a8.28,8.28,0,0,1-8.95,5.06"></path></g><g style="opacity:0.2"><path d="M526.31,443.39a7.63,7.63,0,0,0-9.59,7.46V451h4.56a4.92,4.92,0,0,0,4.92-4.75Z"></path></g><g style="opacity:0.2"><path d="M522.51,437.32a2.24,2.24,0,1,1-2.23-2.24A2.23,2.23,0,0,1,522.51,437.32Z"></path></g><path d="M477.73,433.11l-.94-1.22a1,1,0,0,0-1.37-.18l-1.26,1a2.09,2.09,0,0,0-.55,2.68l.17.3a27.62,27.62,0,0,0,5,6.46l.25.24a2.08,2.08,0,0,0,2.72.15l1.27-1a1,1,0,0,0,.18-1.37l-.94-1.22a1,1,0,0,0-1.37-.17l-.25.19a1.06,1.06,0,0,1-1.42-.12l-.17-.19a15,15,0,0,1-1.83-2.37l-.14-.22a1.07,1.07,0,0,1,.25-1.41l.25-.19A1,1,0,0,0,477.73,433.11Z" style="fill:#fff"></path><path d="M505.49,444.91a.67.67,0,0,1-.47-.19.66.66,0,0,1,0-1l3.59-3.59a6.19,6.19,0,0,1,.45-8.19,6.14,6.14,0,1,1,.5,9.14L506,444.72A.71.71,0,0,1,505.49,444.91Zm7.91-13.38a4.8,4.8,0,1,0,0,9.6,4.8,4.8,0,0,0,0-9.6Z" style="fill:#fff"></path></g><g id="Device"><rect x="268.97" y="72.47" width="197.94" height="391.97" rx="25.34" style="fill:#455a64"></rect><rect x="175.08" y="172.6" width="385.73" height="191.7" rx="22.23" transform="translate(636.39 -99.49) rotate(90)" style="fill:#263238"></rect><path d="M353.73,87.94a2.2,2.2,0,1,1,0-4.4H382a2.2,2.2,0,0,1,0,4.4Z" style="fill:#455a64"></path><path d="M338.55,87.94a2.2,2.2,0,1,1,2.2-2.2A2.2,2.2,0,0,1,338.55,87.94Z" style="fill:#455a64"></path><path d="M346.65,87.94a2.2,2.2,0,1,1,2.2-2.2A2.21,2.21,0,0,1,346.65,87.94Z" style="fill:#455a64"></path><path d="M397.34,87.94a2.2,2.2,0,1,1,2.2-2.2A2.2,2.2,0,0,1,397.34,87.94Z" style="fill:#455a64"></path><path d="M389.24,87.94a2.2,2.2,0,1,1,2.2-2.2A2.21,2.21,0,0,1,389.24,87.94Z" style="fill:#455a64"></path><path d="M438.11,78.23H411.47a5.81,5.81,0,0,0-5.58,4.19l-2.18,7.51a6.51,6.51,0,0,1-6.25,4.69h-59a6.49,6.49,0,0,1-6.24-4.69L330,82.42a5.82,5.82,0,0,0-5.58-4.19H297.77a21.22,21.22,0,0,0-21.22,21.22V434.9a21.22,21.22,0,0,0,21.22,21.22H438.11a21.22,21.22,0,0,0,21.22-21.22V99.45A21.22,21.22,0,0,0,438.11,78.23Z" style="fill:#e0e0e0"></path><path d="M453.21,84.55a21.13,21.13,0,0,0-15.1-6.32H411.47a5.81,5.81,0,0,0-5.58,4.19l-2.18,7.51a6.51,6.51,0,0,1-6.25,4.69h-59a6.49,6.49,0,0,1-6.24-4.69L330,82.42a5.82,5.82,0,0,0-5.58-4.19H297.77a21.22,21.22,0,0,0-21.22,21.22V340l.55.06c17.81,1.94,35.14-9.26,44.92-24.28s13.24-33.25,15-51.09,1.94-35.92,6.12-53.35a120.75,120.75,0,0,1,50.77-72c12.43-8.13,26.34-13.92,38.2-22.88C442.49,108.52,451.46,97.25,453.21,84.55Z" style="fill:#f5f5f5"></path><path d="M459.33,434.9V337.84a91.18,91.18,0,0,0-68.61,44.39c-12.76,22.1-15.28,49.75-7.14,73.89h54.53A21.22,21.22,0,0,0,459.33,434.9Z" style="fill:#ebebeb"></path><path d="M468,157.66h.23a0,0,0,0,1,0,0v45a0,0,0,0,1,0,0H468a1.07,1.07,0,0,1-1.07-1.07V158.73A1.07,1.07,0,0,1,468,157.66Z" transform="translate(935.11 360.37) rotate(180)" style="fill:#455a64"></path><path d="M268.69,185.42H269a0,0,0,0,1,0,0v28.52a0,0,0,0,1,0,0h-.28a1.07,1.07,0,0,1-1.07-1.07V186.49A1.07,1.07,0,0,1,268.69,185.42Z" style="fill:#455a64"></path><path d="M268.69,148.16H269a0,0,0,0,1,0,0v28.52a0,0,0,0,1,0,0h-.28a1.07,1.07,0,0,1-1.07-1.07V149.23A1.07,1.07,0,0,1,268.69,148.16Z" style="fill:#455a64"></path><path d="M268.76,120.19H269a0,0,0,0,1,0,0v13.26a0,0,0,0,1,0,0h-.21a.95.95,0,0,1-.95-.95V121.14a.95.95,0,0,1,.95-.95Z" style="fill:#455a64"></path><rect x="414.96" y="90.98" width="1.36" height="1.91" style="fill:#fff"></rect><rect x="417.17" y="90.13" width="1.36" height="2.76" style="fill:#fff"></rect><rect x="419.39" y="89.5" width="1.36" height="3.39" style="fill:#fff"></rect><rect x="421.6" y="88.27" width="1.36" height="4.62" style="fill:#fff"></rect><path d="M443,93h-6.82a.48.48,0,0,1-.49-.48V89.1a.48.48,0,0,1,.48-.49H443a.15.15,0,0,1,.09,0,.14.14,0,0,1,0,.09v1.12h.74A.12.12,0,0,1,444,90v1.64a.12.12,0,0,1-.12.12h-.74v1.12A.12.12,0,0,1,443,93Zm-.13-4.12h-6.7a.23.23,0,0,0-.23.24v3.4a.23.23,0,0,0,.24.23h6.69V91.62a.13.13,0,0,1,.13-.13h.73V90.11H443a.13.13,0,0,1-.13-.13Z" style="fill:#fff"></path><polygon points="436.52 92.18 436.52 89.42 442.35 89.42 442.35 90.66 442.35 90.94 442.35 92.18 436.52 92.18" style="fill:#fff"></polygon><path d="M429.47,92.72a.51.51,0,0,0-.5-.5.5.5,0,0,0-.5.5.5.5,0,0,0,.5.5A.5.5,0,0,0,429.47,92.72Z" style="fill:#fff"></path><path d="M427.27,91.52l.63.64a1.51,1.51,0,0,1,2.13,0l.64-.64a2.43,2.43,0,0,0-1.7-.7A2.39,2.39,0,0,0,427.27,91.52Z" style="fill:#fff"></path><path d="M429,89.4a3.84,3.84,0,0,0-2.71,1.12l.64.64a2.91,2.91,0,0,1,4.13,0l.64-.64A3.82,3.82,0,0,0,429,89.4Z" style="fill:#fff"></path><path d="M425.23,89.48l.63.64a4.38,4.38,0,0,1,6.21,0l.64-.64a5.29,5.29,0,0,0-7.48,0Z" style="fill:#fff"></path><path d="M296.61,403.57h24.92a5.15,5.15,0,0,1,5.15,5.15v23.44a5.15,5.15,0,0,1-5.15,5.15h-25a5.15,5.15,0,0,1-5.15-5.15V408.79A5.22,5.22,0,0,1,296.61,403.57Z" style="fill:#FF725E"></path><g style="opacity:0.30000000000000004"><path d="M292.7,434.52a5.5,5.5,0,0,1-1.3-3.66V408.79a5.22,5.22,0,0,1,5.21-5.22h23.62a6.46,6.46,0,0,1,5.13,2.54h0a3.25,3.25,0,0,1-.6,4,11.11,11.11,0,0,1-5.3,2.44c-2.85.58-5.87.61-8.51,1.84a10.16,10.16,0,0,0-5.21,5.64c-1,2.61-.84,5.54-1.83,8.15a10.36,10.36,0,0,1-11.21,6.34"></path></g><g style="opacity:0.2"><path d="M326.74,427.76a9.55,9.55,0,0,0-12,9.33v.16h7.33a4.49,4.49,0,0,0,4.49-4.33Z"></path></g><g style="opacity:0.2"><path d="M322,420.14a2.81,2.81,0,1,1-2.81-2.8A2.81,2.81,0,0,1,322,420.14Z"></path></g><path d="M308.23,414.87l-1.18-1.53a1.22,1.22,0,0,0-1.71-.22l-1.58,1.22a2.61,2.61,0,0,0-.69,3.35l.21.38a34.79,34.79,0,0,0,6.23,8.1l.31.29a2.61,2.61,0,0,0,3.41.19l1.59-1.22a1.22,1.22,0,0,0,.22-1.71l-1.17-1.52a1.22,1.22,0,0,0-1.71-.23l-.32.24a1.32,1.32,0,0,1-1.78-.14l-.21-.23a19.64,19.64,0,0,1-2.3-3l-.17-.27a1.33,1.33,0,0,1,.31-1.76l.31-.24A1.22,1.22,0,0,0,308.23,414.87Z" style="fill:#fff"></path><path d="M418.12,403.57H443a5.15,5.15,0,0,1,5.15,5.15v23.44a5.15,5.15,0,0,1-5.15,5.15h-25a5.15,5.15,0,0,1-5.15-5.15V408.79A5.22,5.22,0,0,1,418.12,403.57Z" style="fill:#FF725E"></path><g style="opacity:0.30000000000000004"><path d="M414.21,434.52a5.51,5.51,0,0,1-1.31-3.66V408.79a5.22,5.22,0,0,1,5.22-5.22h23.62a6.46,6.46,0,0,1,5.13,2.54h0a3.25,3.25,0,0,1-.6,4,11.15,11.15,0,0,1-5.3,2.44c-2.85.58-5.87.61-8.51,1.84a10.21,10.21,0,0,0-5.22,5.64c-1,2.61-.84,5.54-1.82,8.15a10.36,10.36,0,0,1-11.21,6.34"></path></g><g style="opacity:0.2"><path d="M448.25,427.76a9.54,9.54,0,0,0-12,9.33v.16h7.33a4.5,4.5,0,0,0,4.49-4.33Z"></path></g><g style="opacity:0.2"><path d="M443.49,420.14a2.8,2.8,0,1,1-2.8-2.8A2.8,2.8,0,0,1,443.49,420.14Z"></path></g><path d="M429.73,414.87l-1.17-1.53a1.22,1.22,0,0,0-1.71-.22l-1.59,1.22a2.62,2.62,0,0,0-.69,3.35l.21.38a34.83,34.83,0,0,0,6.24,8.1l.31.29a2.61,2.61,0,0,0,3.41.19l1.59-1.22a1.22,1.22,0,0,0,.22-1.71l-1.17-1.52a1.23,1.23,0,0,0-1.72-.23l-.31.24a1.32,1.32,0,0,1-1.78-.14l-.22-.23a20.24,20.24,0,0,1-2.29-3l-.17-.27a1.33,1.33,0,0,1,.31-1.76l.31-.24A1.21,1.21,0,0,0,429.73,414.87Z" style="fill:#fff"></path><circle cx="408.66" cy="256.5" r="24.14" transform="translate(-68.12 330.45) rotate(-40.93)" style="fill:#ebebeb"></circle><path d="M428.33,202.61a13.48,13.48,0,0,1,5.27,0,13.48,13.48,0,0,1-5.27,0Z" style="fill:#263238"></path><path d="M418.33,202.61a12.15,12.15,0,0,1,5,0,12.15,12.15,0,0,1-5,0Z" style="fill:#263238"></path><path d="M408.33,202.61a12.15,12.15,0,0,1,5,0,12.15,12.15,0,0,1-5,0Z" style="fill:#263238"></path><path d="M398.33,202.61a12.15,12.15,0,0,1,5,0,12.15,12.15,0,0,1-5,0Z" style="fill:#263238"></path><path d="M388.33,202.61a12.15,12.15,0,0,1,5,0,12.15,12.15,0,0,1-5,0Z" style="fill:#263238"></path><path d="M378.33,202.61a12.15,12.15,0,0,1,5,0,12.15,12.15,0,0,1-5,0Z" style="fill:#263238"></path><path d="M368.33,202.61a12.15,12.15,0,0,1,5,0,12.15,12.15,0,0,1-5,0Z" style="fill:#263238"></path><path d="M358.33,202.61a12.15,12.15,0,0,1,5,0,12.15,12.15,0,0,1-5,0Z" style="fill:#263238"></path><path d="M348.33,202.61a12.15,12.15,0,0,1,5,0,12.15,12.15,0,0,1-5,0Z" style="fill:#263238"></path><path d="M338.33,202.61a12.15,12.15,0,0,1,5,0,12.15,12.15,0,0,1-5,0Z" style="fill:#263238"></path><path d="M328.33,202.61a12.15,12.15,0,0,1,5,0,12.15,12.15,0,0,1-5,0Z" style="fill:#263238"></path><path d="M318.33,202.61a12.15,12.15,0,0,1,5,0,12.15,12.15,0,0,1-5,0Z" style="fill:#263238"></path><path d="M308.33,202.61a12.15,12.15,0,0,1,5,0,12.15,12.15,0,0,1-5,0Z" style="fill:#263238"></path><path d="M298.5,201.59a18.71,18.71,0,0,1,2.39.59,13.42,13.42,0,0,1,2.44.43,4.2,4.2,0,0,1-2.54.08A3.74,3.74,0,0,1,298.5,201.59Z" style="fill:#263238"></path><path d="M294,193.24a12.69,12.69,0,0,1,.41,2.45,21.44,21.44,0,0,1,.58,2.4,3.73,3.73,0,0,1-1.09-2.3A4.25,4.25,0,0,1,294,193.24Z" style="fill:#263238"></path><path d="M294,183.24a12.15,12.15,0,0,1,0,5,12.15,12.15,0,0,1,0-5Z" style="fill:#263238"></path><path d="M294,173.24a12.15,12.15,0,0,1,0,5,12.15,12.15,0,0,1,0-5Z" style="fill:#263238"></path><path d="M294,163.24a12.15,12.15,0,0,1,0,5,12.15,12.15,0,0,1,0-5Z" style="fill:#263238"></path><path d="M294,153.24a12.15,12.15,0,0,1,0,5,12.15,12.15,0,0,1,0-5Z" style="fill:#263238"></path><path d="M294,143.24a12.15,12.15,0,0,1,0,5,12.15,12.15,0,0,1,0-5Z" style="fill:#263238"></path><path d="M294,133.24a12.15,12.15,0,0,1,0,5,12.15,12.15,0,0,1,0-5Z" style="fill:#263238"></path><path d="M297.72,124.46c.09.13-.79.82-1.62,1.87s-1.32,2-1.46,2a3.76,3.76,0,0,1,1.05-2.32A3.85,3.85,0,0,1,297.72,124.46Z" style="fill:#263238"></path><path d="M307.42,123a12.15,12.15,0,0,1-5,0,12.15,12.15,0,0,1,5,0Z" style="fill:#263238"></path><path d="M317.42,123a12.15,12.15,0,0,1-5,0,12.15,12.15,0,0,1,5,0Z" style="fill:#263238"></path><path d="M327.42,123a12.15,12.15,0,0,1-5,0,12.15,12.15,0,0,1,5,0Z" style="fill:#263238"></path><path d="M337.42,123a12.15,12.15,0,0,1-5,0,12.15,12.15,0,0,1,5,0Z" style="fill:#263238"></path><path d="M347.42,123a12.15,12.15,0,0,1-5,0,12.15,12.15,0,0,1,5,0Z" style="fill:#263238"></path><path d="M357.42,123a12.15,12.15,0,0,1-5,0,12.15,12.15,0,0,1,5,0Z" style="fill:#263238"></path><path d="M367.42,123a12.15,12.15,0,0,1-5,0,12.15,12.15,0,0,1,5,0Z" style="fill:#263238"></path><path d="M377.42,123a12.15,12.15,0,0,1-5,0,12.15,12.15,0,0,1,5,0Z" style="fill:#263238"></path><path d="M387.42,123a12.15,12.15,0,0,1-5,0,12.15,12.15,0,0,1,5,0Z" style="fill:#263238"></path><path d="M397.42,123a12.15,12.15,0,0,1-5,0,12.15,12.15,0,0,1,5,0Z" style="fill:#263238"></path><path d="M407.42,123a12.15,12.15,0,0,1-5,0,12.15,12.15,0,0,1,5,0Z" style="fill:#263238"></path><path d="M417.42,123a12.15,12.15,0,0,1-5,0,12.15,12.15,0,0,1,5,0Z" style="fill:#263238"></path><path d="M427.42,123a12.15,12.15,0,0,1-5,0,12.15,12.15,0,0,1,5,0Z" style="fill:#263238"></path><path d="M437.27,123.92a19.77,19.77,0,0,1-2.41-.56c-1.3-.23-2.44-.22-2.44-.4s.28-.13.73-.18a6.39,6.39,0,0,1,1.81.07A3.77,3.77,0,0,1,437.27,123.92Z" style="fill:#263238"></path><path d="M441.85,132.2c-.18,0-.16-1.14-.44-2.44a22,22,0,0,1-.62-2.39,3.7,3.7,0,0,1,1.13,2.28A4.2,4.2,0,0,1,441.85,132.2Z" style="fill:#263238"></path><path d="M441.85,142.2a12.15,12.15,0,0,1,0-5,12.15,12.15,0,0,1,0,5Z" style="fill:#263238"></path><path d="M441.85,152.2a12.15,12.15,0,0,1,0-5,12.15,12.15,0,0,1,0,5Z" style="fill:#263238"></path><path d="M441.85,162.2a12.15,12.15,0,0,1,0-5,12.15,12.15,0,0,1,0,5Z" style="fill:#263238"></path><path d="M441.85,172.2a12.15,12.15,0,0,1,0-5,12.15,12.15,0,0,1,0,5Z" style="fill:#263238"></path><path d="M441.85,182.2a12.15,12.15,0,0,1,0-5,12.15,12.15,0,0,1,0,5Z" style="fill:#263238"></path><path d="M441.85,192.2a12.15,12.15,0,0,1,0-5,12.15,12.15,0,0,1,0,5Z" style="fill:#263238"></path><path d="M438.27,201c-.08-.12.78-.82,1.59-1.88s1.29-2.07,1.43-2a3.72,3.72,0,0,1-1,2.33C439.4,200.61,438.34,201.15,438.27,201Z" style="fill:#263238"></path><path d="M318.83,153.55c0-7.38,4.2-12,10.19-12s10.19,4.59,10.19,12-4.2,12-10.19,12S318.83,160.94,318.83,153.55Zm18.49,0c0-6.57-3.39-10.38-8.3-10.38s-8.29,3.81-8.29,10.38,3.38,10.39,8.29,10.39S337.32,160.13,337.32,153.55Z" style="fill:#FF725E"></path><path d="M343.3,153.55c0-7.38,4.21-12,10.2-12s10.19,4.59,10.19,12-4.21,12-10.19,12S343.3,160.94,343.3,153.55Zm18.49,0c0-6.57-3.38-10.38-8.29-10.38s-8.3,3.81-8.3,10.38,3.39,10.39,8.3,10.39S361.79,160.13,361.79,153.55Z" style="fill:#FF725E"></path><path d="M367.89,149a1.57,1.57,0,0,1,3.12,0,1.56,1.56,0,0,1-3.12,0Zm0,15a1.57,1.57,0,0,1,3.12,0,1.56,1.56,0,0,1-3.12,0Z" style="fill:#FF725E"></path><path d="M375.21,153.55c0-7.38,4.21-12,10.2-12s10.19,4.59,10.19,12-4.2,12-10.19,12S375.21,160.94,375.21,153.55Zm18.49,0c0-6.57-3.38-10.38-8.29-10.38s-8.3,3.81-8.3,10.38,3.39,10.39,8.3,10.39S393.7,160.13,393.7,153.55Z" style="fill:#FF725E"></path><path d="M399.69,153.55c0-7.38,4.2-12,10.19-12s10.2,4.59,10.2,12-4.21,12-10.2,12S399.69,160.94,399.69,153.55Zm18.49,0c0-6.57-3.39-10.38-8.3-10.38s-8.29,3.81-8.29,10.38,3.38,10.39,8.29,10.39S418.18,160.13,418.18,153.55Z" style="fill:#FF725E"></path><path d="M330.55,177.71v3.76h5.17V182h-5.17v3.88h-.71v-8.79h6.49v.58Z" style="fill:#FF725E"></path><path d="M341.65,179.32v.61h-.17a2.36,2.36,0,0,0-2.56,2.59v3.41h-.69v-6.55h.66v1.43A2.79,2.79,0,0,1,341.65,179.32Z" style="fill:#FF725E"></path><path d="M343.34,177.27a.57.57,0,1,1,.56.5A.53.53,0,0,1,343.34,177.27Zm.22,2.1h.69v6.55h-.69Z" style="fill:#FF725E"></path><path d="M353.6,176.61v9.31h-.68v-1.54a3.24,3.24,0,0,1-3,1.59,3.33,3.33,0,1,1,0-6.65,3.31,3.31,0,0,1,3,1.57v-4.28Zm-.69,6a2.91,2.91,0,1,0-2.91,2.76A2.74,2.74,0,0,0,352.91,182.65Z" style="fill:#FF725E"></path><path d="M361.75,181.77v4.15h-.67v-1.16a2.85,2.85,0,0,1-2.6,1.21c-1.62,0-2.61-.75-2.61-1.87s.7-1.83,2.7-1.83h2.48v-.53c0-1.22-.73-1.87-2.14-1.87a4,4,0,0,0-2.5.83l-.34-.45a4.67,4.67,0,0,1,2.89-.93C360.75,179.32,361.75,180.15,361.75,181.77Zm-.7,2.22v-1.23h-2.46c-1.5,0-2,.56-2,1.32s.73,1.38,2,1.38A2.49,2.49,0,0,0,361.05,184Z" style="fill:#FF725E"></path><path d="M370.27,179.37l-3.72,7.45a2.32,2.32,0,0,1-2.25,1.59,2.42,2.42,0,0,1-1.68-.59l.34-.48a1.89,1.89,0,0,0,1.35.52c.66,0,1.15-.28,1.59-1.17l.39-.79L363,179.37h.74l2.89,5.86,2.9-5.86Z" style="fill:#FF725E"></path><path d="M377.07,177.13v8.79h-.71v-8.21H374v-.58Z" style="fill:#FF725E"></path><path d="M382,177.13v8.79h-.71v-8.21h-2.37v-.58Z" style="fill:#FF725E"></path><path d="M398.07,185.92V178.4L394,184.76h-.35l-4.06-6.33v7.49h-.69v-8.79h.59l4.34,6.8,4.34-6.8h.58v8.79Z" style="fill:#FF725E"></path><path d="M407.14,181.77v4.15h-.66v-1.16a2.88,2.88,0,0,1-2.61,1.21c-1.62,0-2.6-.75-2.6-1.87s.69-1.83,2.7-1.83h2.48v-.53c0-1.22-.74-1.87-2.15-1.87a4,4,0,0,0-2.49.83l-.35-.45a4.68,4.68,0,0,1,2.9-.93C406.14,179.32,407.14,180.15,407.14,181.77Zm-.69,2.22v-1.23H404c-1.49,0-2,.56-2,1.32s.73,1.38,2,1.38A2.5,2.5,0,0,0,406.45,184Z" style="fill:#FF725E"></path><path d="M415.66,179.37,412,186.82a2.33,2.33,0,0,1-2.26,1.59,2.46,2.46,0,0,1-1.68-.59l.35-.48a1.85,1.85,0,0,0,1.34.52c.67,0,1.15-.28,1.6-1.17l.39-.79-3.26-6.53h.73l2.9,5.86,2.89-5.86Z" style="fill:#FF725E"></path></g><g id="Character"><path d="M428.64,163.53c-1-5.11-3.12-9.93-4.72-14.88-1.87-5.77-3.32-12.17-8-16.06-3.07-2.56-7.1-3.62-11-4.42-3.55-.72-7.24-1.29-10.79-.55-1.77.37-3.46,1.06-5.22,1.48-2,.5-4.2.65-6.11,1.53-3.94,1.81-6,6.32-6.55,10.62s-.1,8.7-.72,13a60.93,60.93,0,0,1-1.35,6.1c-1.82,3.93-3.81,7.86-3.53,12.06.21,3,1.61,5.87,2.28,8.84s.4,6.55-2,8.42a4.38,4.38,0,0,0,7.35-2.9,3.13,3.13,0,0,0,1.2,1,7.67,7.67,0,0,0,3.93.31c3.82-.37,7.79-.81,11.12-2.66l18.71-1.6c4.83,2,10.66-.76,13.43-5.16S429.64,168.64,428.64,163.53Z" style="fill:#263238"></path><path d="M390.68,131.61c-1.81.37-3.72.1-5.5.6a8.88,8.88,0,0,0-5.47,5.48,26.5,26.5,0,0,0-1.37,7.88c-.17,2.39-.34,4.79-.5,7.18a22.57,22.57,0,0,1-.64,4.57c-.47,1.65-1.76,6.06-1.84,8.21a23.15,23.15,0,0,0,5.34,16.22c1.66,1.86,9.34,1.91,11.79,2.41,1.08-.95,3.77-.94,4.85-1.88.18-.16-7.83-6.28-7.73-6.51a1.69,1.69,0,0,0-.11-1.16A57.23,57.23,0,0,1,391.92,132" style="fill:#263238"></path><path d="M391.22,192.33c-.14-9.34,0-12.84,0-12.79s-8-1.35-9.67-11.82c-.81-5.21-.53-13.75-.08-20.73.41-6.28,4.59-14,10.85-13.3l19.53,5a3.68,3.68,0,0,1,3.29,3.74h0l-2.2,49.74" style="fill:#ffcfb0"></path><path d="M383.9,154.81a1.34,1.34,0,0,0,1.29,1.36,1.28,1.28,0,0,0,1.38-1.21,1.34,1.34,0,0,0-1.29-1.36A1.28,1.28,0,0,0,383.9,154.81Z" style="fill:#263238"></path><path d="M383.92,151.74c.16.17,1.18-.58,2.63-.57s2.5.73,2.66.56-.1-.4-.56-.74a3.74,3.74,0,0,0-2.13-.66,3.5,3.5,0,0,0-2.09.67C384,151.34,383.83,151.66,383.92,151.74Z" style="fill:#263238"></path><path d="M397.17,155a1.33,1.33,0,0,0,1.29,1.35,1.28,1.28,0,0,0,1.39-1.2,1.35,1.35,0,0,0-1.29-1.36A1.28,1.28,0,0,0,397.17,155Z" style="fill:#263238"></path><path d="M398.12,151.74c.17.17,1.19-.58,2.63-.57s2.5.73,2.66.56-.09-.4-.55-.74a3.76,3.76,0,0,0-2.13-.66,3.54,3.54,0,0,0-2.1.67C398.19,151.34,398,151.66,398.12,151.74Z" style="fill:#263238"></path><path d="M392.85,162.44a9.61,9.61,0,0,0-2.34-.43c-.37,0-.72-.11-.78-.36a1.82,1.82,0,0,1,.24-1.09l1.1-2.81c1.53-4,2.63-7.29,2.47-7.35s-1.53,3.14-3.05,7.13c-.37,1-.72,1.93-1.05,2.83a2.07,2.07,0,0,0-.2,1.45,1,1,0,0,0,.61.54,2.45,2.45,0,0,0,.62.08A8.58,8.58,0,0,0,392.85,162.44Z" style="fill:#263238"></path><path d="M391.22,179.54a28.24,28.24,0,0,0,14.63-3.71s-4.2,7.45-14.68,6.45Z" style="fill:#eb996e"></path><path d="M397.72,165.5a2.69,2.69,0,0,0-1.89-1,3,3,0,0,0-2.7,1.12l-.07,0a.56.56,0,0,0,0,.62,1.86,1.86,0,0,0,.47.5,6.28,6.28,0,0,0,2.13,1.27,2,2,0,0,0,2.19-.54A1.74,1.74,0,0,0,397.72,165.5Z" style="fill:#eb996e"></path><path d="M397.1,163.45c-.23,0-.24,1.56-1.58,2.67s-3,.93-3,1.15.37.31,1.08.33a3.92,3.92,0,0,0,2.52-.88,3.38,3.38,0,0,0,1.23-2.23C397.38,163.83,397.21,163.44,397.1,163.45Z" style="fill:#263238"></path><path d="M397.24,146.57c.14.4,1.58.21,3.28.42s3.06.68,3.29.32c.1-.17-.14-.54-.69-.92a5.73,5.73,0,0,0-5-.56C397.49,146.08,397.18,146.39,397.24,146.57Z" style="fill:#263238"></path><path d="M383.89,147.14c.26.33,1.25,0,2.45,0s2.21.22,2.45-.12c.1-.17-.06-.5-.5-.81a3.44,3.44,0,0,0-2-.54,3.3,3.3,0,0,0-1.95.66C383.92,146.64,383.78,147,383.89,147.14Z" style="fill:#263238"></path><path d="M375.05,188.68a3.53,3.53,0,0,1-.21-.62c-.12-.41-.28-1-.44-1.81a32.79,32.79,0,0,1-.7-6.84,36.57,36.57,0,0,1,1.46-10.08c1-3.71,2.51-7.66,3.19-12s.47-8.57,1-12.4a19.22,19.22,0,0,1,3.56-9.51,11.21,11.21,0,0,1,5.63-3.87,6.24,6.24,0,0,1,2.51-.26,14.06,14.06,0,0,0-2.45.45,11.33,11.33,0,0,0-5.4,3.91,19,19,0,0,0-3.37,9.35c-.51,3.77-.32,8-1,12.41s-2.22,8.38-3.23,12.05a36.51,36.51,0,0,0-1.56,10,35.4,35.4,0,0,0,.53,6.79c.13.8.26,1.41.35,1.83A3.11,3.11,0,0,1,375.05,188.68Z" style="fill:#455a64"></path><path d="M406.77,448.55c.09.17,1-.11,2-.06s1.92.37,2,.21-.72-.83-2-.87S406.68,448.4,406.77,448.55Z" style="fill:#263238"></path><path d="M444.19,280.44a16.3,16.3,0,0,1-5.8.08,8.65,8.65,0,0,1,2.9-.3A8.45,8.45,0,0,1,444.19,280.44Z" style="fill:#455a64"></path><path d="M404.39,433.84c.16.11.77-.57,1.73-1.06s1.86-.63,1.86-.82-1-.36-2.16.23S404.24,433.76,404.39,433.84Z" style="fill:#263238"></path><path d="M406,433.28l1.14,20.05s-20,7.9-20.15,11.63l39-.82-.5-31.32Z" style="fill:#FF725E"></path><path d="M419.18,451.39a1.6,1.6,0,0,1,1.13,1.8,1.52,1.52,0,0,1-1.76,1.14,1.69,1.69,0,0,1-1.2-1.91,1.58,1.58,0,0,1,2-1" style="fill:#e0e0e0"></path><path d="M426,464.14,425.8,461l-37.29,2s-1.72.79-1.5,2Z" style="fill:#263238"></path><path d="M406.53,453.15c0,.19,1,.26,1.91.85s1.46,1.38,1.64,1.3-.14-1.17-1.3-1.87S406.48,453,406.53,453.15Z" style="fill:#263238"></path><path d="M402.48,454.93c0,.18.79.49,1.45,1.28s.87,1.64,1.06,1.62.29-1.09-.56-2.05S402.48,454.74,402.48,454.93Z" style="fill:#263238"></path><path d="M400.26,459.87c.17,0,.42-.92-.09-2s-1.41-1.42-1.49-1.26.49.7.89,1.56S400.07,459.85,400.26,459.87Z" style="fill:#263238"></path><path d="M432.74,255.76s12,22.14,12.66,30c1.07,12.39-9.26,25.58-9.26,25.58l-10.57,54.17,1,83.88L405,450.48l-12.48-99.86,3.78-92.95Z" style="fill:#263238"></path><path d="M442.86,299.46a6.5,6.5,0,0,1-1.05-.86c-.65-.58-1.58-1.44-2.71-2.5l-.05-.05V296c-.2-2.49-.43-5.78-.66-9.38-.25-3.94-.44-7.5-.56-10.1v-.15l.14,0,3.07-.79a5.78,5.78,0,0,1,1.14-.22,4.34,4.34,0,0,1-1.09.42l-3,.95.14-.19c.21,2.59.46,6.15.71,10.09.23,3.6.42,6.89.53,9.38l-.06-.13c1.1,1.1,2,2,2.59,2.62A5.74,5.74,0,0,1,442.86,299.46Z" style="fill:#455a64"></path><path d="M396.15,421l11,16.84s-13.44,16.79-11.72,20.1l33.41-20.07-16-26.93Z" style="fill:#FF725E"></path><path d="M416.57,430.15a1.58,1.58,0,0,1,1.88,1,1.54,1.54,0,0,1-1,1.87,1.69,1.69,0,0,1-2-1.06,1.59,1.59,0,0,1,1.22-1.84" style="fill:#e0e0e0"></path><path d="M428.8,437.83l-1.72-2.65L395.7,455.41s-1.1,1.54-.31,2.49Z" style="fill:#263238"></path><path d="M406.46,438c.11.16,1-.25,2.08-.21s2,.47,2.07.32-.69-.95-2.05-1S406.34,437.83,406.46,438Z" style="fill:#263238"></path><path d="M403.83,441.51c.06.18.93,0,1.9.39s1.57,1,1.72.88-.29-1.09-1.5-1.51S403.74,441.35,403.83,441.51Z" style="fill:#263238"></path><path d="M404.36,446.9c.17-.06-.09-1-1.05-1.65s-1.93-.54-1.92-.36.77.37,1.55.91S404.19,447,404.36,446.9Z" style="fill:#263238"></path><path d="M381.72,266s-29.14,88.91-23.49,99.52,41.51,71.32,41.51,71.32l24.39-13.43-27.87-65.11,21.19-46.61s10.15-8.84,14.07-21.21-2.85-32.78-2.85-32.78H386.3Z" style="fill:#263238"></path><path d="M432.74,277.34a6,6,0,0,1,.17.73c.09.49.23,1.21.35,2.16a52.36,52.36,0,0,1,.52,8.34,32.28,32.28,0,0,1-.66,5.95,18.48,18.48,0,0,1-1,3.28,22.68,22.68,0,0,1-1.71,3.26,27.2,27.2,0,0,1-12.92,10.8l.13-.11c-6,13.3-13.3,29.32-21.14,46.62v-.21l1.21,2.84,26.59,62.31.06.15-.14.08-17.89,9.76-4.88,2.63-1.27.67c-.29.15-.44.21-.44.21l.41-.26,1.25-.71,4.83-2.72,17.81-9.9-.08.23L397.23,361.2c-.41-1-.83-1.94-1.21-2.83l0-.11,0-.1c7.88-17.29,15.18-33.3,21.23-46.59l0-.08.09,0a27,27,0,0,0,12.76-10.59,21.52,21.52,0,0,0,1.7-3.2,18.44,18.44,0,0,0,1-3.21,33.61,33.61,0,0,0,.71-5.9,57.76,57.76,0,0,0-.4-8.31c-.11-.95-.22-1.68-.29-2.17S432.74,277.34,432.74,277.34Z" style="fill:#455a64"></path><path d="M396.26,278.91a2.78,2.78,0,0,1,.49-.06l1.48-.11,5.68-.38,20.27-1.25.24,0v.25c0,6,0,12.66,0,19.77v.12l-.09.08c-1,.83-2,1.71-3.05,2.61l-10.39,8.87-.13.11-.15-.07-13.5-6.75L397,302v-.13c-.25-6.93-.46-12.69-.6-16.76-.06-2-.11-3.52-.14-4.62,0-.5,0-.9,0-1.21a2.11,2.11,0,0,1,0-.39,3,3,0,0,1,0,.44c0,.31.05.72.08,1.24.06,1.12.14,2.69.25,4.67.2,4,.48,9.74.82,16.62l-.12-.19,13.54,6.69-.28,0L421,299.52l3-2.6-.09.19c0-7.11,0-13.81,0-19.77l.24.23-20.13,1-5.73.26-1.54.06Z" style="fill:#455a64"></path><path d="M424.11,281a4.24,4.24,0,0,1-1.08.23c-.7.11-1.72.25-3,.4-2.51.31-6,.65-9.85.89s-7.35.33-9.88.34c-1.27,0-2.29,0-3,0a4,4,0,0,1-1.1-.09,5.18,5.18,0,0,1,1.1-.11l3-.13c2.52-.1,6-.25,9.86-.49s7.33-.52,9.85-.73l3-.24A5.24,5.24,0,0,1,424.11,281Z" style="fill:#455a64"></path><path d="M360.78,203.92a19.91,19.91,0,0,0-1.93-8.56c-2.09-4.17-8.34-11.17-8.34-11.17s-8.64-6.69-9.53-6.25-1.19,1.49,0,2.53,5.81,6.4,5.81,6.4-1.94.75-1.94,2.09a3.52,3.52,0,0,0,.45,2s-1.79.87-2.23,1.91a5.38,5.38,0,0,0-.45,1.93,1.54,1.54,0,0,0-1.19,1.49,8,8,0,0,0,.15,2.53s3.27,3.73,4.61,4.17,3.13,1,3.13,1l1.17,1.56v4.29Z" style="fill:#ffcfb0"></path><path d="M349.87,210.26s-2.19,24.26-.82,28.76,3.58,10.73,7.51,12,0-.81,0-.81,15.27-13.33,15.44-13.14-9.08-34.25-9.08-34.25Z" style="fill:#455a64"></path><path d="M438.39,247.67s14.25-5,15.7-9.73c3-9.61-4-16.69-8.61-22.61-2.89-3.72-19.91-29.29-19.91-29.29l1.74,27.58Z" style="fill:#455a64"></path><path d="M401.85,260.56l32-2.79s8.94-1.89,7.48-10.1c-.68-3.82-10.33-44.25-14.26-58.47-1.36-4.91-2.5-5-5.89-6.19a32.76,32.76,0,0,0-7.74-1.11c-.31,0-2.36,1.34-5.46,2.79a25.65,25.65,0,0,1-14.42,2.17l-3.26-.45c-3.92-.37-8.52,0-13.11,5.92-3.76,4.89-18.29,30.53-18.29,30.53s-5,3.07-5.22,7.08-5,18.6,4.79,21.43l1,.27A16.42,16.42,0,0,0,377.05,244l1.6-2.63c-.11,2.69-.41,4.78-1.21,6a14.32,14.32,0,0,0,4.39,19s2-2.69,3.84-3.5C388.3,261.73,401.85,260.56,401.85,260.56Z" style="fill:#455a64"></path><path d="M393.33,219.42c.12.08-3.2,5.22-7.4,11.47s-7.72,11.25-7.84,11.17,3.2-5.21,7.4-11.46S393.21,219.34,393.33,219.42Z" style="fill:#263238"></path><path d="M397.7,213c-.09,0,.41-1.34.72-3.56a20,20,0,0,0-4.87-16.16c-1.49-1.68-2.63-2.51-2.57-2.58a3.05,3.05,0,0,1,.83.53,16.9,16.9,0,0,1,2,1.8,19,19,0,0,1,5,16.47,15.67,15.67,0,0,1-.68,2.6A3,3,0,0,1,397.7,213Z" style="fill:#263238"></path><path d="M367.82,207.35a8.44,8.44,0,0,1-.67,1.28c-.47.81-1.16,2-2,3.38-1.76,2.82-4.36,6.63-7,11a38.7,38.7,0,0,0-3.14,6.38,23.77,23.77,0,0,0-1.38,5.61,24.06,24.06,0,0,0,.12,5.34s-.06-.12-.12-.36a8,8,0,0,1-.23-1,15.85,15.85,0,0,1-.14-4,23.43,23.43,0,0,1,1.3-5.74,36.87,36.87,0,0,1,3.14-6.48c2.63-4.37,5.27-8.13,7.11-10.9.88-1.33,1.61-2.43,2.19-3.28A6.68,6.68,0,0,1,367.82,207.35Z" style="fill:#263238"></path><path d="M428.61,195.91a2.57,2.57,0,0,1,.23.64l.56,1.89c.47,1.64,1.11,4,1.82,7,1.47,5.93,3,14.22,5.07,23.3,1,4.52,2.08,8.85,3.24,12.68.63,1.92,1.22,3.75,1.62,5.52a18.62,18.62,0,0,1,.45,2.58,6.26,6.26,0,0,1-.16,2.45,6.79,6.79,0,0,1-2.4,3.38,12.24,12.24,0,0,1-2.74,1.52c-.79.33-1.41.55-1.83.71a3,3,0,0,1-.66.2,3.11,3.11,0,0,1,.62-.3l1.79-.79a12.81,12.81,0,0,0,2.64-1.57,6.57,6.57,0,0,0,2.23-3.26,6,6,0,0,0,.11-2.3,19.81,19.81,0,0,0-.47-2.52c-.41-1.74-1-3.55-1.65-5.47-1.21-3.87-2.26-8.18-3.3-12.72-2-9.09-3.55-17.38-4.92-23.32-.66-3-1.25-5.37-1.66-7l-.46-1.91A3.44,3.44,0,0,1,428.61,195.91Z" style="fill:#263238"></path><path d="M392.48,220.47c-.11,0-.31-1.67-1.27-4.2a18.27,18.27,0,0,0-.92-2c-.18-.35-.36-.72-.57-1.08l-.7-1.1a25.05,25.05,0,0,0-3.75-4.41,30.6,30.6,0,0,0-4.64-3.49,31,31,0,0,0-4.26-2.12c-2.51-1-4.17-1.34-4.15-1.44a4.79,4.79,0,0,1,1.17.18,10.54,10.54,0,0,1,1.36.35c.52.15,1.12.32,1.76.57a27.94,27.94,0,0,1,4.36,2,29.28,29.28,0,0,1,4.75,3.53,24,24,0,0,1,3.8,4.52l.69,1.14c.22.37.39.76.57,1.12a16.48,16.48,0,0,1,.87,2.07,16.11,16.11,0,0,1,.53,1.78,9.27,9.27,0,0,1,.28,1.37A5,5,0,0,1,392.48,220.47Z" style="fill:#fff"></path><path d="M382.8,234.35a4.8,4.8,0,0,1-1-.46c-.61-.31-1.47-.8-2.51-1.43-2.1-1.26-4.93-3.12-7.92-5.36a94.65,94.65,0,0,1-7.33-6.13c-.89-.84-1.6-1.53-2.07-2s-.73-.78-.7-.81a4.85,4.85,0,0,1,.84.66l2.18,1.89c1.84,1.6,4.43,3.75,7.4,6s5.75,4.13,7.79,5.46l2.42,1.58A3.6,3.6,0,0,1,382.8,234.35Z" style="fill:#fff"></path><path d="M367.68,251.7a4.05,4.05,0,0,1-.95-.33,7.35,7.35,0,0,1-1.07-.49,14.42,14.42,0,0,1-1.36-.77,20.48,20.48,0,0,1-3.21-2.49,22.86,22.86,0,0,1-3.18-3.83,23.13,23.13,0,0,1-2.21-4.47,19.79,19.79,0,0,1-1-3.95,13.65,13.65,0,0,1-.15-1.55,7.84,7.84,0,0,1,0-1.18,3.39,3.39,0,0,1,.09-1c.1,0,0,1.43.43,3.67a22.31,22.31,0,0,0,1.06,3.84,24,24,0,0,0,2.2,4.35,24.36,24.36,0,0,0,3.07,3.77,21.82,21.82,0,0,0,3.08,2.53C366.39,251.07,367.72,251.6,367.68,251.7Z" style="fill:#fff"></path><path d="M365,210.62a83.14,83.14,0,0,1-7.84,5.21A84,84,0,0,1,349,220.6a88.4,88.4,0,0,1,7.85-5.21A86,86,0,0,1,365,210.62Z" style="fill:#fff"></path><path d="M353.62,232.84a14.36,14.36,0,0,1-2.36,1.37,14,14,0,0,1-2.37,1.35,5.2,5.2,0,0,1,2.11-1.8A5,5,0,0,1,353.62,232.84Z" style="fill:#fff"></path><path d="M439.52,243.87a2.8,2.8,0,0,1-.65.09l-1.88.15c-1.63.12-4,.3-6.9.55-5.82.5-13.85,1.35-22.64,2.81s-16.66,3.29-22.31,4.79c-2.82.75-5.1,1.39-6.66,1.86l-1.81.51a2.78,2.78,0,0,1-.65.14,4.33,4.33,0,0,1,.61-.24l1.79-.61c1.55-.52,3.81-1.21,6.63-2a211.09,211.09,0,0,1,22.31-5c8.82-1.45,16.87-2.25,22.71-2.65,2.91-.21,5.28-.33,6.91-.39l1.89,0A4,4,0,0,1,439.52,243.87Z" style="fill:#fff"></path><path d="M434.24,224.47a2,2,0,0,1-.5.08l-1.42.15-5.25.51c-4.42.43-10.52,1.13-17.24,2.11s-12.77,2-17.14,2.82l-5.19.94-1.41.24a1.89,1.89,0,0,1-.5,0,2.26,2.26,0,0,1,.48-.15l1.39-.33c1.22-.28,3-.66,5.16-1.1,4.36-.88,10.41-2,17.14-3s12.84-1.62,17.28-2c2.22-.17,4-.29,5.26-.34l1.44-.05A1.52,1.52,0,0,1,434.24,224.47Z" style="fill:#fff"></path><path d="M430.89,206a6.5,6.5,0,0,1-1.25.13l-3.42.2c-2.88.15-6.86.37-11.25.68s-8.37.66-11.25.92l-3.4.29a5.49,5.49,0,0,1-1.26,0,6.23,6.23,0,0,1,1.23-.24c.8-.13,2-.29,3.4-.46,2.86-.35,6.84-.75,11.24-1.07s8.39-.47,11.28-.53c1.44,0,2.61,0,3.42,0A5.48,5.48,0,0,1,430.89,206Z" style="fill:#fff"></path><path d="M427.18,189.48a6.75,6.75,0,0,1-1.34.14l-3.66.21-12.08.66-12.07.79-3.65.24a7.69,7.69,0,0,1-1.35,0,5.9,5.9,0,0,1,1.33-.23c.86-.11,2.1-.25,3.64-.4,3.09-.31,7.35-.67,12.07-.95s9-.45,12.09-.51c1.55,0,2.8-.05,3.67,0A6,6,0,0,1,427.18,189.48Z" style="fill:#fff"></path><path d="M442.92,212.57a26,26,0,0,1-4.25,3.09,26.45,26.45,0,0,1-4.53,2.66,26,26,0,0,1,4.25-3.09A26.45,26.45,0,0,1,442.92,212.57Z" style="fill:#fff"></path><path d="M433.69,198.38c.09.12-.67.84-1.69,1.63s-1.93,1.32-2,1.2.67-.84,1.69-1.62A5.69,5.69,0,0,1,433.69,198.38Z" style="fill:#fff"></path><path d="M453.82,227.55a10.23,10.23,0,0,1-1.88,1.75,33,33,0,0,1-5.21,3.4A32.53,32.53,0,0,1,441,235a9.94,9.94,0,0,1-2.51.55,18.06,18.06,0,0,1,2.4-.9A43.64,43.64,0,0,0,451.71,229,17.78,17.78,0,0,1,453.82,227.55Z" style="fill:#fff"></path><g style="opacity:0.30000000000000004"><path d="M441.24,233.82a76.58,76.58,0,0,0-4.31-12.35q-2.39-5.78-4.78-11.55L437,232.76l4.23,14A25.71,25.71,0,0,0,441.24,233.82Z"></path></g><g style="opacity:0.30000000000000004"><path d="M378.65,241.4l-.14,2.07c6.74-2,11.72-8.39,15.12-14.54s4.27-10.33,4.79-17.33C391.41,222.75,385.66,230.25,378.65,241.4Z"></path></g><g style="opacity:0.2"><path d="M365.22,211.55h0c-4.44,4.06-8,8-10.53,13.13s-4,11-2.06,16.39a1.29,1.29,0,0,0,.6.81c.47.18,1-.28,1.08-.77a3.06,3.06,0,0,0-.26-1.48c-1.66-5,.1-10.45,2.77-14.94S362.76,216.16,365.22,211.55Z"></path></g><g style="opacity:0.30000000000000004"><path d="M419.27,181.3c-1.89-1.35-4.52-.85-6.67,0-3.35,1.37-5.15,1.66-7.52,4.41-1.24,1-1.49,4.76-.51,6a6.12,6.12,0,0,0,4.17,2,12.26,12.26,0,0,0,9.63-3.07,8.2,8.2,0,0,0,2.7-4.58A5,5,0,0,0,419.27,181.3Z"></path></g><path d="M389.38,133a2.46,2.46,0,0,1,1.07-1.47,14.94,14.94,0,0,1,11.37-2.6,26.62,26.62,0,0,1,10.91,4.74c2.86,2,5.56,4.4,7,7.56a25.23,25.23,0,0,1,1.7,7.15c.82,6,2.44,12.08,2.38,18.17,0,2.37.41,6.37,0,9.29-.43,3.13-3.46,6.94-6.54,7.63l-6.93.7s3.75-12.95,3.46-17.62c-.25-4.09-.21-8.57-.68-12.64a2.06,2.06,0,0,0-.24-.92,2.31,2.31,0,0,0-.95-.73L407.61,150a41.68,41.68,0,0,1-4.08-2.28,38.53,38.53,0,0,1-4.09-2.82c-1.87-1.6-3.59-2.88-5.46-4.48a21.8,21.8,0,0,1-3.41-4.07,5.56,5.56,0,0,1-.93-4.4" style="fill:#263238"></path><path d="M412.64,156.75a3.05,3.05,0,0,1,4.47-2.59c1.06.61,1.87,1.84,1.78,4.21-.26,6.3-6.54,4.74-6.55,4.56S412.51,159.36,412.64,156.75Z" style="fill:#ffcfb0"></path><path d="M414.37,160.62s.1.08.29.17a1.13,1.13,0,0,0,.82.06,2.76,2.76,0,0,0,1.36-2.39,3.55,3.55,0,0,0-.25-1.59,1.28,1.28,0,0,0-.79-.88.56.56,0,0,0-.66.28c-.09.17-.06.3-.09.31s-.13-.11-.07-.37a.71.71,0,0,1,.26-.39.86.86,0,0,1,.62-.13,1.57,1.57,0,0,1,1.11,1,3.8,3.8,0,0,1,.31,1.78,2.88,2.88,0,0,1-1.72,2.66,1.24,1.24,0,0,1-1-.21C414.37,160.77,414.35,160.63,414.37,160.62Z" style="fill:#eb996e"></path><path d="M420.42,138.67c2.41,7.8,6.35,14.93,8.77,20.56,1.12,2.61,2.73,5.68,3.25,8.47.57,3.07-.75,6.12-1.47,9.16s-.63,6.76,1.9,8.6A20.15,20.15,0,0,1,421,189.75a3.72,3.72,0,0,1-2.33-.5,1.47,1.47,0,0,1-.35-2.1,10.33,10.33,0,0,1-13.11,1.35c-.29-3.36-.51-7,1.35-9.84,1.51-2.3,4.25-3.76,5.25-6.33.59-1.53-.19-3.46.07-5.09s1.33-3.79,1.82-4h0a8,8,0,0,0,8.52-5.89l.13-.5Z" style="fill:#263238"></path><path d="M418.88,183.83a3.39,3.39,0,0,1,.33-.64l1-1.79a46,46,0,0,0,3.06-6.85,28.14,28.14,0,0,0,1.58-10.91,19.4,19.4,0,0,0-5.1-12.21c-3.34-3.49-7.59-5.53-11.38-7.28a83.64,83.64,0,0,1-10-5,23.72,23.72,0,0,1-5.79-4.84,14.33,14.33,0,0,1-1.21-1.66,5.37,5.37,0,0,1-.36-.62s.55.82,1.73,2.14a24.61,24.61,0,0,0,5.82,4.67,89.76,89.76,0,0,0,10,4.85c3.81,1.74,8.12,3.78,11.56,7.36a19.74,19.74,0,0,1,5.2,12.54,27.85,27.85,0,0,1-1.72,11.06,41.86,41.86,0,0,1-3.22,6.83c-.45.77-.82,1.35-1.08,1.75A4,4,0,0,1,418.88,183.83Z" style="fill:#455a64"></path><path d="M423.1,146.82a22.68,22.68,0,0,0-4.37-2.68,34,34,0,0,0-5.29-1.76c-2-.55-4.31-1-6.65-1.76a34.4,34.4,0,0,1-11.08-5.82,29.52,29.52,0,0,1-2.83-2.54,6.92,6.92,0,0,1-.92-1,7.71,7.71,0,0,1,1.06.9c.66.6,1.64,1.44,2.92,2.39a36.32,36.32,0,0,0,11,5.62c2.32.72,4.59,1.22,6.63,1.8a31.28,31.28,0,0,1,5.32,1.89,15,15,0,0,1,3.22,2,8.37,8.37,0,0,1,.76.71C423,146.72,423.12,146.81,423.1,146.82Z" style="fill:#455a64"></path></g></svg>