<svg xmlns="http://www.w3.org/2000/svg" viewBox="0 0 500 500"><g id="Floor"><path id="floor" d="M77.67,454.51c-95.18-54.95-95.18-144,0-199s249.49-55,344.66,0,95.18,144,0,199S172.84,509.46,77.67,454.51Z" style="fill:#f5f5f5"></path></g><g id="Shadows"><path id="Shadow" d="M127.34,450.49,118,445.1a.83.83,0,0,1,0-1.58l67.19-38.79a1.49,1.49,0,0,0,.5-2.11,16.39,16.39,0,0,1-2.4-11.1c.89-6.09,5.35-11.73,12.56-15.89,7.79-4.5,18.09-7,29-7s21.21,2.47,29,7c8.22,4.74,12.75,11.2,12.75,18.19s-4.52,13.45-12.75,18.2c-7.77,4.49-18.06,7-29,7a67.94,67.94,0,0,1-13.11-1.24,4.8,4.8,0,0,0-2.91.47l-10.47,6a4.72,4.72,0,0,1-2.91.44l-7.06-1.6a4.73,4.73,0,0,0-2.91.44l-2.13,1.23a3.24,3.24,0,0,0-1.44,2.37l-.23,5.21a3.21,3.21,0,0,1-1.44,2.37l-2.68,1.55a8.54,8.54,0,0,1-2.95.93l-6.24.55a8.71,8.71,0,0,0-2.95.9l-2.57,1.44a2.51,2.51,0,0,0-1.18,2.34l.16,1.24a2.55,2.55,0,0,1-1.17,2.35l-7.76,4.48a6.86,6.86,0,0,1-2.95.79H130.29A6.86,6.86,0,0,1,127.34,450.49Zm107.8-66.78a13.63,13.63,0,0,0-6.59,1.54c-1.24.72-2,1.59-2,2.34s.75,1.63,2,2.35a14.87,14.87,0,0,0,13.18,0c1.24-.72,2-1.6,2-2.35s-.75-1.62-2-2.34A13.6,13.6,0,0,0,235.14,383.71Z" style="fill:#e0e0e0"></path><ellipse id="shadow" cx="375.64" cy="365.18" rx="81.52" ry="47.06" style="fill:#e0e0e0"></ellipse></g><g id="Gears"><g id="gears"><g id="Gear"><path d="M382.35,139.34l-3.43-5.14a.84.84,0,0,0-.57-.28,9.92,9.92,0,0,1-2.32-.23.13.13,0,0,0-.11,0,.13.13,0,0,0-.05.09l-.45,4.5a.71.71,0,0,1-1.12.57l-4.63-2.67a1.63,1.63,0,0,1-.74-1.16l-.46-5.15a1.31,1.31,0,0,0-.36-.71,28.71,28.71,0,0,1-2.61-2.76.48.48,0,0,0-.49-.14l-3,1a1.1,1.1,0,0,1-1.29-.47l-3.4-5.9a1.1,1.1,0,0,1,.23-1.35l2.38-2a.54.54,0,0,0,.13-.5,27.33,27.33,0,0,1-1.09-3.64,1.38,1.38,0,0,0-.44-.67l-4.23-3a1.64,1.64,0,0,1-.63-1.22v-5.35a.74.74,0,0,1,.33-.65.73.73,0,0,1,.73,0l4.12,1.86s.07,0,.1,0,0,0,.07-.09a9.4,9.4,0,0,1,1-2.13.78.78,0,0,0,0-.63L357.31,96a1,1,0,0,1,.39-1.3l3-1.72a1,1,0,0,1,1.32.31l3.42,5.15a.85.85,0,0,0,.58.28,9.79,9.79,0,0,1,2.31.23.16.16,0,0,0,.12,0,.1.1,0,0,0,0-.09l.46-4.5a.71.71,0,0,1,1.12-.57l4.63,2.67a1.62,1.62,0,0,1,.74,1.15l.46,5.15a1.37,1.37,0,0,0,.36.72,28.71,28.71,0,0,1,2.61,2.76.52.52,0,0,0,.49.14l3-1a1.12,1.12,0,0,1,1.29.48l3.4,5.89a1.11,1.11,0,0,1-.23,1.36l-2.39,2a.51.51,0,0,0-.12.5,29.26,29.26,0,0,1,1.09,3.63,1.3,1.3,0,0,0,.44.67l4.22,3a1.63,1.63,0,0,1,.64,1.22v5.34a.77.77,0,0,1-.33.66.78.78,0,0,1-.73,0l-4.12-1.86a.12.12,0,0,0-.1,0,.15.15,0,0,0-.07.1,9.77,9.77,0,0,1-1,2.12.8.8,0,0,0,0,.64l2.74,5.53a1,1,0,0,1-.39,1.3l-3,1.72a1,1,0,0,1-.49.13A1,1,0,0,1,382.35,139.34Zm3.43-11.78,4.11,1.86v-5.34a.86.86,0,0,0-.31-.6l-4.23-3a2.06,2.06,0,0,1-.74-1.12,27.81,27.81,0,0,0-1.06-3.54,1.27,1.27,0,0,1,.34-1.33l2.39-2.06a.35.35,0,0,0,.06-.4l-3.4-5.89a.34.34,0,0,0-.38-.14l-3,1a1.26,1.26,0,0,1-1.33-.37,27,27,0,0,0-2.53-2.68,2.08,2.08,0,0,1-.6-1.21l-.47-5.15a.86.86,0,0,0-.36-.57l-4.62-2.67-.45,4.49a.87.87,0,0,1-.36.63.9.9,0,0,1-.72.14,8.87,8.87,0,0,0-2.13-.22,1.49,1.49,0,0,1-1.23-.61l-3.42-5.15a.24.24,0,0,0-.31-.07l-3,1.72a.24.24,0,0,0-.1.31l2.75,5.53a1.54,1.54,0,0,1-.08,1.37,8.77,8.77,0,0,0-.88,2,.91.91,0,0,1-.48.55.86.86,0,0,1-.72,0l-4.11-1.86v5.35a.88.88,0,0,0,.31.6l4.23,3a2.12,2.12,0,0,1,.74,1.13,27.73,27.73,0,0,0,1.05,3.54,1.24,1.24,0,0,1-.33,1.33l-2.39,2.05a.37.37,0,0,0-.07.41l3.41,5.89a.34.34,0,0,0,.38.14l3-1a1.27,1.27,0,0,1,1.32.38,28.28,28.28,0,0,0,2.54,2.68,2.15,2.15,0,0,1,.6,1.21l.46,5.14a.86.86,0,0,0,.37.57l4.62,2.68.45-4.5a.87.87,0,0,1,.35-.62.89.89,0,0,1,.73-.14,8.82,8.82,0,0,0,2.13.22,1.46,1.46,0,0,1,1.22.61l3.42,5.14a.25.25,0,0,0,.32.08l3-1.72a.24.24,0,0,0,.09-.31l-2.74-5.54a1.49,1.49,0,0,1,.08-1.36,9.2,9.2,0,0,0,.88-2,.9.9,0,0,1,.48-.56.84.84,0,0,1,.35-.07A1,1,0,0,1,385.78,127.56Zm-13.8-1.9h0c-4.41-2.55-8-8.77-8-13.87,0-2.55.88-4.47,2.48-5.39s3.69-.73,5.9.55c4.42,2.55,8,8.77,8,13.87,0,2.55-.88,4.46-2.48,5.38a4.33,4.33,0,0,1-2.22.58A7.58,7.58,0,0,1,372,125.66Zm-5.15-18.6c-1.35.78-2.1,2.46-2.1,4.73A16.9,16.9,0,0,0,372.36,125h0c2,1.14,3.8,1.33,5.15.55s2.1-2.46,2.1-4.73A16.89,16.89,0,0,0,372,107.6a6.78,6.78,0,0,0-3.3-1A3.65,3.65,0,0,0,366.83,107.06Z" style="fill:#ebebeb"></path></g><path id="gear" d="M345,132.78l2.11,2.72a2.26,2.26,0,0,1,.43,1.21,14.7,14.7,0,0,0,.07,1.6.58.58,0,0,1-.6.65H345.5a.48.48,0,0,0-.48.66l1.16,3.69a1.55,1.55,0,0,0,.91.88l1.75.54a1.91,1.91,0,0,1,1,.86c.32.63.67,1.25,1,1.85a1.83,1.83,0,0,1,.26,1.21l-.5,2.13A1.54,1.54,0,0,0,351,152l2.43,2.76c.27.31.63.34.79.06l.88-1.51c.16-.28.56-.28.9,0a11,11,0,0,0,1.07.71,2.41,2.41,0,0,1,.92,1l1.28,3.35a1.32,1.32,0,0,0,1,.76l1.86.29c.39.07.64-.18.55-.54l-.79-3.23a.77.77,0,0,1,.43-.87,3.65,3.65,0,0,0,.54-.32.77.77,0,0,1,1,.15l2.19,2.18c.3.3.64.3.75,0l.79-2.06a1.35,1.35,0,0,0-.24-1.15l-2.11-2.71a2.27,2.27,0,0,1-.44-1.22,12.39,12.39,0,0,0-.07-1.59.58.58,0,0,1,.61-.65l1.48,0a.48.48,0,0,0,.49-.66L366.14,143a1.5,1.5,0,0,0-.92-.87l-1.75-.54a2,2,0,0,1-1-.86c-.32-.63-.66-1.25-1-1.86a1.91,1.91,0,0,1-.26-1.2l.5-2.13a1.51,1.51,0,0,0-.36-1.16l-2.43-2.76c-.28-.32-.63-.34-.8-.06l-.87,1.5c-.16.28-.56.29-.91,0a10.75,10.75,0,0,0-1.06-.7,2.45,2.45,0,0,1-.93-1L353,128a1.37,1.37,0,0,0-1-.77l-1.86-.29c-.39-.06-.64.18-.55.54l.79,3.24a.81.81,0,0,1-.43.87,3,3,0,0,0-.54.32.79.79,0,0,1-1-.16l-2.19-2.18c-.3-.3-.64-.29-.76,0l-.79,2.07A1.34,1.34,0,0,0,345,132.78Zm6.41,4.95c.93-2.43,3.82-2,6.45,1s4,7.39,3.08,9.82-3.82,2-6.45-1S350.46,140.16,351.39,137.73Z" style="fill:#ebebeb"></path></g></g><g id="Plant"><g id="Plants"><path d="M231.8,308.71c-9,2.52-16.12,19.1-16.16,35.15a150.64,150.64,0,0,0,1.82,25l4.27,2.47,1.23.71,4.29,2.47,2.64,1.53a70.93,70.93,0,0,1,0-19.79h0a48,48,0,0,1,2.87-10.67c2.68-6.76,7-13.53,8.68-18.18C245.61,315.82,240.22,306.36,231.8,308.71Z" style="fill:#BA68C8"></path><g style="opacity:0.65"><path d="M231.8,308.71c-9,2.52-16.12,19.1-16.16,35.15a150.64,150.64,0,0,0,1.82,25l4.27,2.47,1.23.71,4.29,2.47,2.64,1.53a70.93,70.93,0,0,1,0-19.79h0a48,48,0,0,1,2.87-10.67c2.68-6.76,7-13.53,8.68-18.18C245.61,315.82,240.22,306.36,231.8,308.71Z" style="fill:#fff"></path></g><path d="M234.76,314.84c-9,10.13-15.71,33-11.8,57.22l-1.23-.71c-3.66-24.3,3.13-47.09,12.2-57.26a.56.56,0,0,1,.83.75Z" style="fill:#fff"></path><path d="M243,337.48c-2,1-6.73,5.23-8.25,7.93a62.84,62.84,0,0,0-4.94,10.85h0a50.57,50.57,0,0,0-2.6,18.26l2.64,1.53,1.23.71,1.12.64,4.39,2.53a51.86,51.86,0,0,1,4.3-11.8c5.16-10.21,14.67-17.72,15.39-23.43C257.18,337.84,252,332.84,243,337.48Z" style="fill:#BA68C8"></path><path d="M243,337.48c-2,1-6.73,5.23-8.25,7.93a62.84,62.84,0,0,0-4.94,10.85h0a50.57,50.57,0,0,0-2.6,18.26l2.64,1.53,1.23.71,1.12.64,4.39,2.53a51.86,51.86,0,0,1,4.3-11.8c5.16-10.21,14.67-17.72,15.39-23.43C257.18,337.84,252,332.84,243,337.48Z" style="fill:#fff;opacity:0.30000000000000004"></path><path d="M248.34,343.73c-5.75,3.83-15.4,15.32-16.1,33.68l-1.12-.64c.82-18.37,10.31-29.78,16.6-34a.56.56,0,1,1,.62.93Z" style="fill:#fff"></path></g></g><g id="Folders"><g id="Folder"><g id="folder"><path d="M51.45,385.57a1.53,1.53,0,0,1-.8-.22,1.56,1.56,0,0,1-.8-1.38V318.28a4.12,4.12,0,0,1,1.9-3.29L71.1,303.82a2,2,0,0,1,2.06-.06,2.11,2.11,0,0,1,1,1.27l1.56,5.21a.81.81,0,0,0,.45.54.76.76,0,0,0,.69-.09l41.92-24.19a1.77,1.77,0,0,1,1.62-.18l.21.11a1.78,1.78,0,0,1,.73,1.55v55.29a4.14,4.14,0,0,1-1.9,3.29L52.25,385.35A1.56,1.56,0,0,1,51.45,385.57ZM72.2,304.83a.85.85,0,0,0-.44.13L52.41,316.12a2.75,2.75,0,0,0-.87.94,2.52,2.52,0,0,0-.37,1.22V384a.27.27,0,0,0,.14.24.27.27,0,0,0,.28,0l67.18-38.8a2.84,2.84,0,0,0,1.24-2.15V288a.62.62,0,0,0-.11-.43l-.08-.05a.93.93,0,0,0-.4.14L77.51,311.83a2.13,2.13,0,0,1-1.83.18,2.08,2.08,0,0,1-1.22-1.39l-1.57-5.21a.83.83,0,0,0-.36-.5A.62.62,0,0,0,72.2,304.83Z" style="fill:#BA68C8"></path></g><g id="folder"><path d="M141.73,357.8l-.51-.29-.59-.34-.52-.3a3.82,3.82,0,0,1-1.65-2.47l-7-52.86a2.3,2.3,0,0,0-1-1.78l-.9-.52a2.22,2.22,0,0,0-2.25.15L91,320a3.31,3.31,0,0,1-2.74.26,3.51,3.51,0,0,1-.69-.83l-1.17-2a3.27,3.27,0,0,0-1.21-1.21l-.9-.52a3.32,3.32,0,0,0-3.31,0L64.3,325.34a5.37,5.37,0,0,0-2.43,5l8.41,63.11a4.58,4.58,0,0,0,2,3.07l1.62.94a2.15,2.15,0,0,0,1,.3,1.56,1.56,0,0,0,.82-.2l67-39.61A1,1,0,0,1,141.73,357.8Z" style="fill:#BA68C8"></path><path d="M141.73,357.8l-1.61-.93a3.8,3.8,0,0,1-1.66-2.47l-7-52.86a2.06,2.06,0,0,0-3.31-1.63l-36,20.76a3.32,3.32,0,0,1-4.53-1.21l-1.17-2a3.31,3.31,0,0,0-4.53-1.21l-16.72,9.65a5.36,5.36,0,0,0-2.43,4.94l8.33,62.49a3.82,3.82,0,0,0,1.65,2.48l1.62.93a1,1,0,0,0,1,.1l67.38-38.9A1,1,0,0,1,141.73,357.8Z" style="opacity:0.25"></path><path d="M72.74,395.77l1.62.93a1,1,0,0,0,1,.1l67.38-38.9a1,1,0,0,1-1-.1l-1.61-.93a3.55,3.55,0,0,1-1.07-1.05l-67.37,38.9A3.53,3.53,0,0,0,72.74,395.77Z" style="opacity:0.25"></path><path d="M73.13,335.74V390.6a.83.83,0,0,0,.38.65l.42.25a.83.83,0,0,0,.75,0l60.78-35.1a.83.83,0,0,0,.38-.65V300.89a.83.83,0,0,0-.38-.65L135,300a.83.83,0,0,0-.75,0L73.51,335.09A.83.83,0,0,0,73.13,335.74Z" style="fill:#fafafa"></path><path d="M135.83,300.79a.65.65,0,0,0,0-.13l0-.07a.62.62,0,0,0-.12-.19.52.52,0,0,0-.1-.11l-.08-.05L135,300a.83.83,0,0,0-.75,0L73.51,335.09a.71.71,0,0,0-.26.28l1.17.68a.78.78,0,0,1,.26-.28l60.78-35.09C135.64,300.57,135.79,300.63,135.83,300.79Z" style="fill:#e0e0e0"></path><path d="M74.58,391.54c-.16,0-.27-.06-.27-.26V336.42a.72.72,0,0,1,.11-.37l-1.17-.68a.66.66,0,0,0-.11.37V390.6a.79.79,0,0,0,.37.65l.42.25A.86.86,0,0,0,74.58,391.54Z" style="fill:#e0e0e0"></path><g style="opacity:0.1"><path d="M74.58,391.54c-.16,0-.27-.06-.27-.26V336.42a.72.72,0,0,1,.11-.37l-1.17-.68a.66.66,0,0,0-.11.37V390.6a.79.79,0,0,0,.37.65l.42.25A.86.86,0,0,0,74.58,391.54Z"></path></g><path d="M144,305.37a2,2,0,0,0-.84-1.85l-.83-.48a2,2,0,0,0-2,.2L78.67,338.82a6.35,6.35,0,0,0-2.87,5v52.07a1,1,0,0,1-.43.93l.41.71,67.79-39.13a1,1,0,0,0,.42-.93Z" style="fill:#BA68C8"></path><path d="M75.78,397.51a1.78,1.78,0,0,0,.83-1.64v-51.6a6.38,6.38,0,0,1,2.87-5l61.63-35.58c1.59-.91,2.88-.17,2.88,1.66v52.08a1,1,0,0,1-.42.93Z" style="fill:#fff;opacity:0.25"></path></g><path d="M124.4,349.56l-6.83-5.78c-.44-.37-1.17,0-1.62.91l-2.48,4.76c-.44.85-1.15,1.26-1.59.93L106.06,346c-.44-.34-1.16.08-1.6.92l-9.1,17.51v6l29-16.76Zm-3.47-9.78a6.23,6.23,0,0,0,2.61-5c0-1.92-1.16-2.81-2.61-2a6.24,6.24,0,0,0-2.6,5C118.33,339.73,119.49,340.61,120.93,339.78Zm6.78-17.93-35.65,20.6a3.93,3.93,0,0,0-1.64,3.13v32.17c0,1.2.74,1.76,1.64,1.24l35.65-20.61a3.92,3.92,0,0,0,1.63-3.13V323.08C129.34,321.88,128.61,321.32,127.71,321.85Zm-1.24,33.21L93.3,374.24V345.77l33.17-19.18Z" style="fill:#fff"></path></g><g id="folder"><g id="folder"><path d="M51.45,270.68a1.63,1.63,0,0,1-.8-.22,1.58,1.58,0,0,1-.8-1.38v-65.7a3.86,3.86,0,0,1,.55-1.87,3.9,3.9,0,0,1,1.35-1.41L71.1,188.93a2,2,0,0,1,2.06-.07,2.14,2.14,0,0,1,1,1.27l1.56,5.22a.81.81,0,0,0,.45.54.79.79,0,0,0,.69-.09l41.92-24.19a1.74,1.74,0,0,1,1.62-.18l.21.11a1.76,1.76,0,0,1,.73,1.54v55.29a4.11,4.11,0,0,1-1.9,3.29l-67.18,38.8A1.66,1.66,0,0,1,51.45,270.68ZM72.2,189.93a.87.87,0,0,0-.44.14L52.41,201.23a2.75,2.75,0,0,0-.87.94,2.48,2.48,0,0,0-.37,1.21v65.7a.28.28,0,0,0,.42.24l67.18-38.79a2.86,2.86,0,0,0,1.24-2.16V173.08a.64.64,0,0,0-.11-.43l-.08,0a.93.93,0,0,0-.4.14L77.51,196.94a2.13,2.13,0,0,1-1.83.18,2.11,2.11,0,0,1-1.22-1.39l-1.57-5.22a.81.81,0,0,0-.36-.49A.63.63,0,0,0,72.2,189.93Z" style="fill:#BA68C8"></path></g><g id="folder"><path d="M141.73,243.11l-.51-.3-.59-.34-.52-.3a3.8,3.8,0,0,1-1.65-2.47l-7-52.86a2.31,2.31,0,0,0-1-1.78l-.9-.52a2.2,2.2,0,0,0-2.25.16L91,205.34a3.31,3.31,0,0,1-2.74.26,3.56,3.56,0,0,1-.69-.84l-1.17-2a3.19,3.19,0,0,0-1.21-1.21l-.9-.52A3.32,3.32,0,0,0,81,201L64.3,210.65a5.36,5.36,0,0,0-2.43,4.94l8.41,63.12a4.6,4.6,0,0,0,2,3.07l1.62.93a2.15,2.15,0,0,0,1,.31,1.56,1.56,0,0,0,.82-.2l67-39.61A1,1,0,0,1,141.73,243.11Z" style="fill:#BA68C8"></path><path d="M141.73,243.11l-1.61-.94a3.75,3.75,0,0,1-1.66-2.47l-7-52.86a2.07,2.07,0,0,0-3.31-1.63L92.14,206a3.31,3.31,0,0,1-4.53-1.21l-1.17-2a3.32,3.32,0,0,0-4.53-1.22l-16.72,9.65a5.37,5.37,0,0,0-2.43,5l8.33,62.49a3.8,3.8,0,0,0,1.65,2.47l1.62.94a1,1,0,0,0,1,.1l67.38-38.9A1,1,0,0,1,141.73,243.11Z" style="opacity:0.25"></path><path d="M72.74,281.07l1.62.94a1,1,0,0,0,1,.1l67.38-38.9a1,1,0,0,1-1-.1l-1.61-.94a3.4,3.4,0,0,1-1.07-1L71.68,280A3.49,3.49,0,0,0,72.74,281.07Z" style="opacity:0.25"></path><path d="M73.13,221v54.87a.83.83,0,0,0,.38.65l.42.24a.83.83,0,0,0,.75,0l60.78-35.09a.83.83,0,0,0,.38-.65V186.2a.83.83,0,0,0-.38-.65l-.42-.25a.83.83,0,0,0-.75,0L73.51,220.39A.83.83,0,0,0,73.13,221Z" style="fill:#fafafa"></path><path d="M135.83,186.1a.74.74,0,0,0,0-.14l0-.07a1,1,0,0,0-.12-.19.47.47,0,0,0-.1-.1l-.08,0-.42-.25a.83.83,0,0,0-.75,0L73.51,220.39a.78.78,0,0,0-.26.28l1.17.68a.78.78,0,0,1,.26-.28L135.46,186C135.64,185.88,135.79,185.93,135.83,186.1Z" style="fill:#e0e0e0"></path><path d="M74.58,276.84c-.16,0-.27-.06-.27-.26V221.72a.75.75,0,0,1,.11-.37l-1.17-.68a.68.68,0,0,0-.11.37v54.87a.77.77,0,0,0,.37.64l.42.25A.82.82,0,0,0,74.58,276.84Z" style="fill:#e0e0e0"></path><g style="opacity:0.1"><path d="M74.58,276.84c-.16,0-.27-.06-.27-.26V221.72a.75.75,0,0,1,.11-.37l-1.17-.68a.68.68,0,0,0-.11.37v54.87a.77.77,0,0,0,.37.64l.42.25A.82.82,0,0,0,74.58,276.84Z"></path></g><path d="M144,190.68a2,2,0,0,0-.84-1.86l-.83-.48a2,2,0,0,0-2,.21L78.67,224.13a6.32,6.32,0,0,0-2.87,5v52.08a1,1,0,0,1-.43.93l.41.71,67.79-39.14a1,1,0,0,0,.42-.93Z" style="fill:#BA68C8"></path><path d="M75.78,282.82a1.78,1.78,0,0,0,.83-1.64v-51.6a6.37,6.37,0,0,1,2.87-5L141.11,189c1.59-.92,2.88-.18,2.88,1.66v52.07a1,1,0,0,1-.42.93Z" style="fill:#fff;opacity:0.25"></path></g><path d="M125.89,223.82l-16.64,9.61c-.84-4.73-4.32-6.64-8.48-4.24-4.8,2.77-8.68,10.19-8.68,16.58s3.88,9.33,8.68,6.56c4.19-2.42,7.7-8.42,8.5-14.16l9.49-5.48V237c0,1.31.8,1.92,1.79,1.35a4.28,4.28,0,0,0,1.78-3.41v-4.29l3.56-2.06a4.26,4.26,0,0,0,1.79-3.41C127.68,223.85,126.88,223.25,125.89,223.82Zm-25.12,24.53c-3.15,1.81-5.69-.11-5.69-4.3s2.54-9.06,5.69-10.88,5.69.11,5.69,4.3S103.91,246.53,100.77,248.35Z" style="fill:#fafafa"></path></g><g id="folder"><g id="folder"><path d="M51.45,155.78a1.62,1.62,0,0,1-.8-.21,1.59,1.59,0,0,1-.8-1.38V88.49a3.9,3.9,0,0,1,.55-1.88,4.07,4.07,0,0,1,1.35-1.41L71.1,74A2,2,0,0,1,73.16,74a2.11,2.11,0,0,1,1,1.27l1.56,5.21a.83.83,0,0,0,.45.55.79.79,0,0,0,.69-.09l41.92-24.19a1.78,1.78,0,0,1,1.62-.19l.21.11a1.78,1.78,0,0,1,.73,1.55v55.29a4.12,4.12,0,0,1-1.9,3.29l-67.18,38.8A1.65,1.65,0,0,1,51.45,155.78ZM72.2,75a1,1,0,0,0-.44.13L52.41,86.34a2.71,2.71,0,0,0-.87.93,2.52,2.52,0,0,0-.37,1.22v65.7a.28.28,0,0,0,.42.24l67.18-38.8a2.82,2.82,0,0,0,1.24-2.15V58.19a.64.64,0,0,0-.11-.43l-.08,0a.79.79,0,0,0-.4.14L77.51,82.05a2.09,2.09,0,0,1-1.83.17,2.06,2.06,0,0,1-1.22-1.39l-1.57-5.21a.81.81,0,0,0-.36-.49A.63.63,0,0,0,72.2,75Z" style="fill:#BA68C8"></path></g><g id="folder"><path d="M141.73,128.41l-.51-.29-.59-.34-.52-.3a3.82,3.82,0,0,1-1.65-2.47l-7-52.86a2.33,2.33,0,0,0-1-1.79l-.9-.51a2.2,2.2,0,0,0-2.25.15L91,90.64a3.31,3.31,0,0,1-2.74.26,3.37,3.37,0,0,1-.69-.84l-1.17-2a3.27,3.27,0,0,0-1.21-1.21l-.9-.52a3.32,3.32,0,0,0-3.31,0L64.3,96a5.37,5.37,0,0,0-2.43,5L70.28,164a4.58,4.58,0,0,0,2,3.07L74,168a2.15,2.15,0,0,0,1,.3,1.56,1.56,0,0,0,.82-.2l67-39.61A1,1,0,0,1,141.73,128.41Z" style="fill:#BA68C8"></path><path d="M141.73,128.41l-1.61-.93a3.8,3.8,0,0,1-1.66-2.47l-7-52.86a2.06,2.06,0,0,0-3.31-1.63l-36,20.76a3.31,3.31,0,0,1-4.53-1.22l-1.17-2a3.31,3.31,0,0,0-4.53-1.21L65.19,96.47a5.36,5.36,0,0,0-2.43,4.94l8.33,62.49a3.82,3.82,0,0,0,1.65,2.48l1.62.93a1,1,0,0,0,1,.1l67.38-38.9A1,1,0,0,1,141.73,128.41Z" style="opacity:0.25"></path><path d="M72.74,166.38l1.62.93a1,1,0,0,0,1,.1l67.38-38.9a1,1,0,0,1-1-.1l-1.61-.93a3.55,3.55,0,0,1-1.07-1l-67.37,38.9A3.53,3.53,0,0,0,72.74,166.38Z" style="opacity:0.25"></path><path d="M73.13,106.35v54.86a.83.83,0,0,0,.38.65l.42.24a.83.83,0,0,0,.75,0L135.46,127a.83.83,0,0,0,.38-.65V71.5a.83.83,0,0,0-.38-.65l-.42-.24a.83.83,0,0,0-.75,0L73.51,105.7A.83.83,0,0,0,73.13,106.35Z" style="fill:#fafafa"></path><path d="M135.83,71.4a1,1,0,0,0,0-.14l0-.06a.82.82,0,0,0-.12-.2.94.94,0,0,0-.1-.1l-.08-.05-.42-.24a.83.83,0,0,0-.75,0L73.51,105.7a.71.71,0,0,0-.26.28l1.17.68a.78.78,0,0,1,.26-.28l60.78-35.1C135.64,71.18,135.79,71.24,135.83,71.4Z" style="fill:#e0e0e0"></path><path d="M74.58,162.15c-.16,0-.27-.06-.27-.26V107a.72.72,0,0,1,.11-.37L73.25,106a.66.66,0,0,0-.11.37v54.86a.79.79,0,0,0,.37.65l.42.25A.86.86,0,0,0,74.58,162.15Z" style="fill:#e0e0e0"></path><g style="opacity:0.1"><path d="M74.58,162.15c-.16,0-.27-.06-.27-.26V107a.72.72,0,0,1,.11-.37L73.25,106a.66.66,0,0,0-.11.37v54.86a.79.79,0,0,0,.37.65l.42.25A.86.86,0,0,0,74.58,162.15Z"></path></g><path d="M144,76a2.06,2.06,0,0,0-.84-1.86l-.83-.47a2,2,0,0,0-2,.2L78.67,109.43a6.35,6.35,0,0,0-2.87,5v52.07a1,1,0,0,1-.43.93l.41.71L143.57,129a1,1,0,0,0,.42-.92Z" style="fill:#BA68C8"></path><path d="M75.78,168.12a1.78,1.78,0,0,0,.83-1.64v-51.6a6.38,6.38,0,0,1,2.87-5l61.63-35.58c1.59-.91,2.88-.17,2.88,1.66v52.08a1,1,0,0,1-.42.92Z" style="fill:#fff;opacity:0.25"></path></g><path id="Contact" d="M109.88,118.66c3.58-2.07,6.48-7.61,6.48-12.38s-2.9-7-6.48-4.9-6.48,7.61-6.48,12.38S106.3,120.73,109.88,118.66Zm10.9,2.87c-.43-3.18-2.66-4.4-5.27-2.89l-11.26,6.5c-2.6,1.5-4.83,5.29-5.27,9l-.78,6.56c-.07.61.26,1,.7.69l22-12.68a1.69,1.69,0,0,0,.7-1.5Z" style="fill:#fafafa"></path></g></g><g id="Lines"><g id="lines"><path d="M190.4,146.14a2.94,2.94,0,0,1-1.43-.38,2.83,2.83,0,0,1-1.42-2.48V79.74a2,2,0,0,0-2.94-1.69L156,94.59l-.45-.78,28.63-16.54a2.86,2.86,0,0,1,4.29,2.47v63.54a2,2,0,0,0,2.93,1.7l27.8-16.06.45.78-27.8,16.06A2.94,2.94,0,0,1,190.4,146.14Z" style="fill:#455a64"></path><path d="M155.75,92.08c1-.58,1.83-.11,1.83,1.06a4,4,0,0,1-1.83,3.17c-1,.59-1.83.11-1.83-1A4.07,4.07,0,0,1,155.75,92.08Z" style="fill:#455a64"></path><path d="M219.4,127.2c1-.59,1.83-.12,1.83,1a4,4,0,0,1-1.83,3.17c-1,.59-1.83.11-1.83-1A4,4,0,0,1,219.4,127.2Z" style="fill:#455a64"></path><path d="M155.75,206.24c1-.58,1.83-.11,1.83,1.06a4.07,4.07,0,0,1-1.83,3.17c-1,.58-1.83.11-1.83-1.06A4,4,0,0,1,155.75,206.24Z" style="fill:#455a64"></path><path d="M219.4,148.33c1-.58,1.83-.11,1.83,1.06a4,4,0,0,1-1.83,3.17c-1,.59-1.83.11-1.83-1.05A4.07,4.07,0,0,1,219.4,148.33Z" style="fill:#455a64"></path><path d="M156,208.74l-.45-.78,29.35-17a5.36,5.36,0,0,0,2.68-4.63V171.94a6.24,6.24,0,0,1,3.12-5.41l28.51-16.47.45.78-28.51,16.47a5.35,5.35,0,0,0-2.67,4.63v14.44a6.25,6.25,0,0,1-3.13,5.41Z" style="fill:#455a64"></path><path d="M155.75,324.62c1-.58,1.83-.11,1.83,1.06a4,4,0,0,1-1.83,3.17c-1,.58-1.83.11-1.83-1.06A4,4,0,0,1,155.75,324.62Z" style="fill:#455a64"></path><path d="M219.4,190.77c1-.59,1.83-.11,1.83,1A4.07,4.07,0,0,1,219.4,195c-1,.58-1.83.11-1.83-1.06A4,4,0,0,1,219.4,190.77Z" style="fill:#455a64"></path><path d="M156,327.13l-.45-.78,29.34-17a5.38,5.38,0,0,0,2.68-4.64V214.22a6.27,6.27,0,0,1,3.12-5.42l28.51-16.46.45.78-28.51,16.47a5.35,5.35,0,0,0-2.67,4.63v90.54a6.28,6.28,0,0,1-3.13,5.42Z" style="fill:#455a64"></path></g></g><g id="Shield"><g id="Title"><g id="Box"><polygon points="303.53 164.37 237.53 202.47 237.53 225.26 240.07 226.72 306.07 188.62 306.07 165.83 303.53 164.37" style="fill:#37474f"></polygon><polygon points="240.07 203.94 306.07 165.83 306.07 188.62 240.07 226.72 240.07 203.94" style="fill:#455a64"></polygon><polygon points="237.53 202.47 240.07 203.94 240.07 226.72 237.53 225.26 237.53 202.47" style="fill:#263238"></polygon></g><text transform="matrix(0.65, -0.37, 0, 1, 249.02, 215.37)" style="font-size:16.052047729492188px;fill:#fafafa;font-family:Rubik-Bold, Rubik;font-weight:700;letter-spacing:0.04996746581307115em">PRI<tspan x="29.79" y="0" style="letter-spacing:-0.001946784382327447em">V</tspan><tspan x="40.93" y="0" style="letter-spacing:-0.019954539918856335em">A</tspan><tspan x="52.14" y="0">TE</tspan></text></g><g id="shield"><g id="shield"><path d="M301.48,59.18c-10.65,9.57-19.85,9.07-25.61,4.64C270.13,74.89,260.93,86,250.28,88.75l-6.09,16.42s3.26,3.76,3.26,12.75a45,45,0,0,1-1.5,11.15c-1.11,4.43-2.54,9-2.54,16.68,0,5.19.68,10.24,3.31,14.84a18.42,18.42,0,0,0,6.66,6.67l-9.25-5.34a18.45,18.45,0,0,1-7-6.87c-2.62-4.6-3.31-9.65-3.31-14.84,0-7.66,1.43-12.25,2.54-16.69a44.41,44.41,0,0,0,1.51-11.14c0-9-3.26-12.75-3.26-12.75l6.08-16.42c10.65-2.74,19.85-13.86,25.6-24.93,5.75,4.43,15,4.93,25.6-4.63Z" style="fill:#BA68C8"></path><path d="M269.65,60.23l-3.37-1.95A14.82,14.82,0,0,0,269.65,60.23Z" style="fill:#fff;opacity:0.8"></path><path d="M291.88,53.65c-8.76,7.87-16.54,8.92-22.23,6.58l6.22,3.59c5.76,4.43,15,4.93,25.61-4.64Z" style="fill:#fff;opacity:0.85"></path><path d="M266.28,58.28c-5.75,11.07-14.95,22.19-25.6,24.93l9.6,5.54c10.65-2.74,19.85-13.86,25.59-24.93Z" style="fill:#fff;opacity:0.65"></path><polygon points="240.68 83.21 234.6 99.63 244.19 105.17 250.28 88.75 240.68 83.21" style="fill:#fff;opacity:0.55"></polygon><path d="M246.72,160.59c-2.63-4.6-3.31-9.65-3.31-14.84,0-7.66,1.43-12.25,2.54-16.68a45,45,0,0,0,1.5-11.15c0-9-3.26-12.75-3.26-12.75l-9.59-5.54s3.26,3.76,3.26,12.75a44.41,44.41,0,0,1-1.51,11.14c-1.11,4.44-2.54,9-2.54,16.69,0,5.19.69,10.24,3.31,14.84a18.45,18.45,0,0,0,7,6.87l9.25,5.34A18.42,18.42,0,0,1,246.72,160.59Z" style="fill:#fff;opacity:0.4"></path><path d="M275.88,171.84c-15.92.17-25-4-29.16-11.25-2.63-4.6-3.31-9.65-3.31-14.84,0-7.66,1.42-12.25,2.54-16.69a44.87,44.87,0,0,0,1.51-11.14c0-9-3.26-12.74-3.26-12.74l6.07-16.43c10.66-2.74,19.86-13.86,25.61-24.93,5.74,4.43,14.94,4.93,25.6-4.64l6.08,9.42a46.26,46.26,0,0,0-3.26,16.5,26.8,26.8,0,0,0,1.51,9.4,32.88,32.88,0,0,1,2.53,13.76A55,55,0,0,1,305,126.92C300.9,138.92,291.79,153.64,275.88,171.84Z" style="fill:#BA68C8"></path><path d="M275.88,171.84c-15.92.17-25-4-29.16-11.25-2.63-4.6-3.31-9.65-3.31-14.84,0-7.66,1.42-12.25,2.54-16.69a44.87,44.87,0,0,0,1.51-11.14c0-9-3.26-12.74-3.26-12.74l6.07-16.43c10.66-2.74,19.86-13.86,25.61-24.93,5.74,4.43,14.94,4.93,25.6-4.64l6.08,9.42a46.26,46.26,0,0,0-3.26,16.5,26.8,26.8,0,0,0,1.51,9.4,32.88,32.88,0,0,1,2.53,13.76A55,55,0,0,1,305,126.92C300.9,138.92,291.79,153.64,275.88,171.84Z" style="fill:#fff;opacity:0.75"></path><path d="M274,167.7c-12.32-.14-20.29-3.22-23.68-9.16-1.91-3.35-2.77-7.3-2.77-12.79a50.92,50.92,0,0,1,2-14.18l.39-1.5a48.37,48.37,0,0,0,1.63-12.15c0-6.55-1.57-10.84-2.81-13.21l4.66-12.61c11.4-4,19.64-15.22,24-22.6a18.87,18.87,0,0,0,7.44,1.5c5.15,0,10.39-1.92,15.61-5.71l2.45,3.8a50.76,50.76,0,0,0-2.79,16,31,31,0,0,0,1.75,10.78c.12.36.26.72.39,1.09a27.57,27.57,0,0,1,1.91,11.29,51.06,51.06,0,0,1-3.09,17.31C297.06,137.39,287.93,151.56,274,167.7Z" style="fill:#BA68C8;opacity:0.75"></path><path d="M274,167.7c-12.32-.14-20.29-3.22-23.68-9.16-1.91-3.35-2.77-7.3-2.77-12.79a50.92,50.92,0,0,1,2-14.18l.39-1.5a48.37,48.37,0,0,0,1.63-12.15c0-6.55-1.57-10.84-2.81-13.21l4.66-12.61c11.4-4,19.64-15.22,24-22.6a18.87,18.87,0,0,0,7.44,1.5c5.15,0,10.39-1.92,15.61-5.71l2.45,3.8a50.76,50.76,0,0,0-2.79,16,31,31,0,0,0,1.75,10.78c.12.36.26.72.39,1.09a27.57,27.57,0,0,1,1.91,11.29,51.06,51.06,0,0,1-3.09,17.31C297.06,137.39,287.93,151.56,274,167.7Z" style="fill:#fff;opacity:0.4"></path><path d="M274,167.7c-12.32-.14-20.29-3.22-23.68-9.16-1.91-3.35-2.77-7.3-2.77-12.79a50.92,50.92,0,0,1,2-14.18l.39-1.5a48.37,48.37,0,0,0,1.63-12.15c0-6.55-1.57-10.84-2.81-13.21l4.66-12.61c11.4-4,19.64-15.22,24-22.6a18.87,18.87,0,0,0,7.44,1.5c5.15,0,10.39-1.92,15.61-5.71l2.45,3.8a50.76,50.76,0,0,0-2.79,16,31,31,0,0,0,1.75,10.78c.12.36.26.72.39,1.09a27.57,27.57,0,0,1,1.91,11.29,51.06,51.06,0,0,1-3.09,17.31C297.06,137.39,287.93,151.56,274,167.7Z" style="fill:#BA68C8;opacity:0.15"></path><path d="M253.13,162c4.2,3.7,11.18,5.64,20.86,5.75l-6.18-3.52A45,45,0,0,1,253.13,162Z" style="fill:#fff;opacity:0.8"></path><polygon points="299.74 67.23 302.95 69.09 300.5 65.29 299.11 66.26 299.74 67.23" style="fill:#BA68C8;opacity:0.25"></polygon><path d="M298.69,94a31,31,0,0,1-1.75-10.77,50.84,50.84,0,0,1,2.79-16l-.62-1c-4.77,3.15-9.53,4.74-14.22,4.74a18.87,18.87,0,0,1-7.44-1.5c-4.37,7.38-12.61,18.64-24,22.6l-4.66,12.61c1.24,2.37,2.81,6.66,2.81,13.21A48.37,48.37,0,0,1,250,130.07l-.39,1.5a50.92,50.92,0,0,0-2,14.18c0,5.49.86,9.44,2.77,12.79a13.93,13.93,0,0,0,4,4.36q6.18,2.82,16.45,2.95c13.94-16.15,23.07-30.32,27.14-42.13A51.3,51.3,0,0,0,301,106.4a27.57,27.57,0,0,0-1.91-11.29Z" style="fill:#BA68C8"></path></g><path d="M281.6,134.13l-14.92,8.62,2.31-27c-1.79-1-2.92-3.27-2.92-6.61,0-5.94,3.61-12.85,8.07-15.42s8.08.15,8.08,6.1a20.25,20.25,0,0,1-2.93,10Z" style="fill:#BA68C8"></path><path d="M281.6,134.13l-14.92,8.62,2.31-27c-1.79-1-2.92-3.27-2.92-6.61,0-5.94,3.61-12.85,8.07-15.42s8.08.15,8.08,6.1a20.25,20.25,0,0,1-2.93,10Z" style="opacity:0.25"></path><polygon points="281.6 134.13 268.08 126.33 266.68 142.75 281.6 134.13" style="opacity:0.15"></polygon><path d="M274.14,93.72c-2.92,1.68-5.47,5.22-6.88,9.13l12,7h0a20.25,20.25,0,0,0,2.93-10C282.22,93.87,278.6,91.14,274.14,93.72Z" style="opacity:0.15"></path></g></g><g id="Key"><g id="key"><path d="M250.32,377.58c-14.94-8.62-39.14-8.62-54.08,0-6.25,3.61-10.17,6-11.18,10.74v4.88a15.4,15.4,0,0,0,4.64,10.53l-67,33.83v4.86l7.51,4.33h21l8.24-4.75v-4.6l6.57-3.67,9.13-.8,3.64-2.1.37-8.16,6.75-3.9,9.89,2.24,12.88-7.44c13.86,3.32,30.42,1.74,41.69-4.77,7.49-4.32,11.22-10,11.2-15.66v-4.82C260.84,383.25,257,381.46,250.32,377.58Zm-9.33,14a17,17,0,0,1-15.32,0c-4.23-2.45-4.23-6.41,0-8.85a17,17,0,0,1,15.32,0C245.22,385.13,245.22,389.09,241,391.54Z" style="fill:#BA68C8"></path><path d="M250.32,377.58c-14.94-8.62-39.14-8.62-54.08,0-6.25,3.61-10.17,6-11.18,10.74v4.88a15.4,15.4,0,0,0,4.64,10.53l-67,33.83v4.86l7.51,4.33h21l8.24-4.75v-4.6l6.57-3.67,9.13-.8,3.64-2.1.37-8.16,6.75-3.9,9.89,2.24,12.88-7.44c13.86,3.32,30.42,1.74,41.69-4.77,7.49-4.32,11.22-10,11.2-15.66v-4.82C260.84,383.25,257,381.46,250.32,377.58Zm-9.33,14a17,17,0,0,1-15.32,0c-4.23-2.45-4.23-6.41,0-8.85a17,17,0,0,1,15.32,0C245.22,385.13,245.22,389.09,241,391.54Z" style="opacity:0.2"></path><path d="M250.32,372.71c-14.94-8.62-39.14-8.62-54.08,0-12.27,7.09-14.43,17.78-6.54,26.15l-67,38.7,7.51,4.33h21l8.24-4.76-.56-4.29,7.13-4,9.13-.8,3.64-2.1.37-8.17,6.75-3.89,9.89,2.23,12.88-7.43c13.86,3.32,30.42,1.73,41.69-4.78C265.25,395.31,265.25,381.33,250.32,372.71Zm-9.33,14a17,17,0,0,1-15.32,0c-4.23-2.44-4.23-6.4,0-8.84a16.88,16.88,0,0,1,15.32,0C245.22,380.27,245.22,384.23,241,386.67Z" style="fill:#BA68C8"></path><path d="M250.32,372.71c-14.94-8.62-39.14-8.62-54.08,0-12.27,7.09-14.43,17.78-6.54,26.15l-67,38.7,7.51,4.33h21l8.24-4.76-.56-4.29,7.13-4,9.13-.8,3.64-2.1.37-8.17,6.75-3.89,9.89,2.23,12.88-7.43c13.86,3.32,30.42,1.73,41.69-4.78C265.25,395.31,265.25,381.33,250.32,372.71Zm-9.33,14a17,17,0,0,1-15.32,0c-4.23-2.44-4.23-6.4,0-8.84a16.88,16.88,0,0,1,15.32,0C245.22,380.27,245.22,384.23,241,386.67Z" style="fill:#fff;opacity:0.30000000000000004"></path><path d="M223.28,406c-9.45,0-18.27-2.09-24.84-5.87-5.72-3.31-9-7.61-9-11.81s3.28-8.5,9-11.8c6.57-3.79,15.39-5.88,24.84-5.88s18.27,2.09,24.84,5.88c5.72,3.3,9,7.61,9,11.8s-3.28,8.5-9,11.81C241.55,403.91,232.73,406,223.28,406Zm0-34c-9.21,0-17.79,2-24.15,5.69-5.28,3.05-8.31,6.92-8.31,10.61s3,7.56,8.31,10.62c6.36,3.67,14.93,5.69,24.15,5.69s17.79-2,24.15-5.69c5.28-3.06,8.31-6.92,8.31-10.62s-3-7.56-8.31-10.61C241.07,374,232.49,372,223.28,372Z" style="fill:#BA68C8"></path><path d="M237,408.91v4.87a64.89,64.89,0,0,1-28.42-.21v-4.86A64.74,64.74,0,0,0,237,408.91Z" style="opacity:0.1"></path><polygon points="195.74 416.14 195.74 421.01 185.85 418.77 185.85 413.91 195.74 416.14" style="opacity:0.1"></polygon><polygon points="179.1 417.81 179.1 422.67 178.73 430.83 178.73 425.97 179.1 417.81" style="opacity:0.1"></polygon><polygon points="175.09 428.07 175.09 432.93 165.96 433.74 165.96 428.87 175.09 428.07" style="opacity:0.1"></polygon><rect x="130.2" y="441.89" width="20.95" height="4.87" style="opacity:0.1"></rect><polygon points="122.69 437.56 122.69 442.42 130.2 446.75 130.2 441.89 126.91 439.99 126.91 442.09 125.09 441.04 125.09 438.92 122.69 437.56" style="opacity:0.15"></polygon><polygon points="125.09 438.92 126.91 439.99 126.91 442.09 125.09 441.04 125.09 438.92" style="fill:#BA68C8"></polygon><polygon points="125.09 438.92 126.91 439.99 126.91 442.09 125.09 441.04 125.09 438.92" style="fill:#fff;opacity:0.30000000000000004"></polygon><polygon points="125.09 438.92 125.09 441.04 193.81 401.36 192 400.29 125.09 438.92" style="fill:#BA68C8"></polygon><polygon points="192 400.29 192 402.41 193.81 401.36 192 400.29" style="opacity:0.15"></polygon></g></g><g id="Character"><g id="character"><g id="Bottom"><path d="M345.9,388.21l-9.43-18.58-19,11.11,23.4,27.62s11.59-1.07,13.46-7.12S349.09,390.22,345.9,388.21Z" style="fill:#c8856a"></path><path d="M359.27,395.51a9.73,9.73,0,0,1,2.63,2.87c.77,1.14.53,6.64,1.26,9.19s1.29,3.23,2.51,6.43c1.35,3.54,3.85,6.78,1,15.89s-7.35,13.46-11.17,15.68a10,10,0,0,1-4.6,1.12s-5-1.89-4.24-4.85S359.27,395.51,359.27,395.51Z" style="fill:#263238"></path><path d="M337.32,405.51c.14.94,1.45,2.38,2,3.15,1.8,2.57,2.62,6.06,3.24,9.1,2.95,14.42-2.78,21.75,5,27.16,2.25,1.42,6.92,1,14-8.06,3.63-4.64,5.69-14.19,4.28-18.51s-3.35-7.14-4.26-10.46-.43-9.53-2.27-12.38a13.32,13.32,0,0,0-4.5-3.87c-1.38-.84-4.39-1.94-5.79-2.74s-2.18-1.71-3.08-.69l1.62,2c2.53,3.51,1.82,4,1.76,5.88a29.62,29.62,0,0,0,.94,5.94c-1.8-2.27-2.53-4.25-4.5-3.9s-2.2.25-5,2.89S337.2,404.68,337.32,405.51Z" style="fill:#455a64"></path><path d="M361.52,436.86c3.63-4.64,5.69-14.19,4.28-18.51a40.67,40.67,0,0,0-1.66-4.19c.06.29.14.59.18.84.09.56.17,1.12.22,1.68a12.91,12.91,0,0,1-.72,6.55c-.81,1.79-2.7,6.3-5.12,6.4-1.38.06-2.54-1.29-3.07-2.82-.22-.65-.59-2.4-.59-2.4a21.15,21.15,0,0,0-6.3,2.58c-3.52,2.32-3.4,2.84-3.4,2.84a9.27,9.27,0,0,1,.12,3.09,7.63,7.63,0,0,1-1.31,3.07,4.59,4.59,0,0,1-.9.72c.15,3.33,1,5.94,4.27,8.21C349.77,446.34,354.44,446,361.52,436.86Z" style="fill:#37474f"></path><path d="M342.54,417.76a48.19,48.19,0,0,1,.9,11.53c1.33,3.69,2.49,3.58,2.65,1.67s-2.39-9.85-4.29-16.41C342.09,415.63,342.33,416.73,342.54,417.76Z" style="fill:#37474f"></path><path d="M351.32,394.65a8.07,8.07,0,0,0-1.41-5.28c-.35-.16-.67-.32-.93-.47-1.52-.86-2.18-1.71-3.08-.69l1.62,2c2.53,3.51,1.82,4,1.76,5.88a29.62,29.62,0,0,0,.94,5.94c1.47,6.26,2.81,8.35,3.51,14.27s-.49,9.88.34,10.22,2.52-.34,2.83-5.08-1.79-12.7-3.26-16.47S351,397.17,351.32,394.65Z" style="fill:#37474f"></path><path d="M355.46,424.82a.64.64,0,0,1-.3.17c-4.15.85-6.36,1.9-9.45,5.54a.6.6,0,0,1-.83.06.59.59,0,0,1-.07-.83c3.26-3.84,5.7-5,10.11-5.93a.6.6,0,0,1,.7.46A.59.59,0,0,1,355.46,424.82Z" style="fill:#ebebeb"></path><path d="M354.71,419.89a.61.61,0,0,1-.29.17c-4.3,1-6.68,2.21-10,6a.58.58,0,0,1-.85.07.61.61,0,0,1-.07-.86c3.46-4,6-5.38,10.61-6.43a.6.6,0,0,1,.56,1Z" style="fill:#ebebeb"></path><path d="M354.82,414.46a.67.67,0,0,1-.33.18c-4.73,1.1-7.51,2.57-11.13,6.8a.67.67,0,0,1-.94.07.67.67,0,0,1-.07-.94c3.81-4.44,6.82-6.06,11.84-7.23a.67.67,0,0,1,.8.5A.69.69,0,0,1,354.82,414.46Z" style="fill:#ebebeb"></path><path d="M354,409.82a.6.6,0,0,1-.32.18c-4.64,1.07-7.33,2.48-10.88,6.63a.66.66,0,1,1-1-.85c3.73-4.35,6.67-5.92,11.59-7a.64.64,0,0,1,.78.49A.65.65,0,0,1,354,409.82Z" style="fill:#ebebeb"></path><path d="M352.33,405.3a.64.64,0,0,1-.32.18c-4.64,1.08-7.33,2.49-10.88,6.64a.66.66,0,0,1-1-.85c3.74-4.36,6.66-5.92,11.58-7.06a.65.65,0,0,1,.62,1.09Z" style="fill:#ebebeb"></path><polygon points="340.78 389.7 328.49 399.75 321.54 404.11 329.47 419.11 351.83 408.41 340.78 389.7" style="fill:#c8856a"></polygon><path d="M365.82,322.61s-44.73-7.42-63.87-7.29c-19.53.12-21.34,14.78-16.45,23.76,9.36,17.2,41.89,53.67,41.89,53.67s10.93-5,14.29-14.46l-7.43-17,23.36,7.48,11.92-8,1-6.09Z" style="fill:#BA68C8"></path><path d="M365.82,322.61s-44.73-7.42-63.87-7.29c-19.53.12-21.34,14.78-16.45,23.76,9.36,17.2,41.89,53.67,41.89,53.67s10.93-5,14.29-14.46l-7.43-17,23.36,7.48,11.92-8,1-6.09Z" style="opacity:0.4"></path><path d="M365.82,322.61l77.42,12.89s.77,18.53-6.52,35.13a37.85,37.85,0,0,1-29,22.12,215,215,0,0,1-23.42,1.9,58.25,58.25,0,0,1-12.24,7.21C365.93,404.3,339,415.6,339,415.6s-7.58-6.41-6.83-19.77l25.47-27.08c5.76-7,7.78-9.3,11-10.88C363.68,348.37,365.27,333.07,365.82,322.61Z" style="fill:#BA68C8"></path><path d="M365.82,322.61l77.42,12.89s.77,18.53-6.52,35.13a37.85,37.85,0,0,1-29,22.12,215,215,0,0,1-23.42,1.9,58.25,58.25,0,0,1-12.24,7.21C365.93,404.3,339,415.6,339,415.6s-7.58-6.41-6.83-19.77l25.47-27.08c5.76-7,7.78-9.3,11-10.88C363.68,348.37,365.27,333.07,365.82,322.61Z" style="opacity:0.30000000000000004"></path><g style="opacity:0.30000000000000004"><path d="M330.36,346.78a168.45,168.45,0,0,1,9.86,16.39l-6-1.9c-6.72-16-8.1-20.69-18.85-28.19C315.4,333.08,323.11,336,330.36,346.78Z"></path><path d="M390,385.67s.09,3.93-5.71,9a58.25,58.25,0,0,1-12.24,7.21C365.93,404.3,339,415.6,339,415.6s-1.47-.68-3.57-4.64c7-1.65,29.94-10.64,37.36-13.78C386,391.58,390,385.67,390,385.67Z"></path><path d="M361.46,364.21c-2.61,3.06-3.85,4.54-3.85,4.54l-3.74-1.23s6.63-7.21,10.9-11a14,14,0,0,1,2.45-1.92c-2.16-5.67-2.08-15-2.08-15a29.86,29.86,0,0,0,5.65,13.59,24.72,24.72,0,0,1,10.75-.12c7.49,1.25,29.2,4.95,29.2,4.95s-20.81-1.88-31.64-2.3S364.07,361.15,361.46,364.21Z"></path></g><path d="M293.36,411.92c-5.26,2.08-8.5,4.16-10.93,7.34s-3.18,6.39-.87,10.24,6.55,8.36,11.59,8.07,8.14-1.55,12.81-4.08Z" style="fill:#263238"></path><path d="M335.4,416.37c.08,1.58-6.57,4.72-13.47,8-7.4,3.53-9.22,5.83-15.26,8.8-6.9,3.4-9.52,3.6-14.88,2.11s-12-9.16-7.36-16.21c3.75-5.74,8.61-7.32,16-9.26a139.18,139.18,0,0,0,17.25-5.58c5.33-2.07,9.72-5.78,10.82-4.49-.76.36-6.33,3.8-5.28,4.74.26.48,1.05.33,2.42-.24a2.36,2.36,0,0,1,1.91-.09,3.62,3.62,0,0,1,1.38,1.66,38.56,38.56,0,0,1,1.67,4.22c.41,1,.24.41.63,1.4s1.25,2.76,1.14,3.77c-.06.61-.51.8-1,1.1s-1.12.66-1.57,1c-.17.13-.49.59-.39.82s1.13.2,1.53,0,1.07-.33,1.56-.51S334.18,416.94,335.4,416.37Z" style="fill:#455a64"></path><path d="M309,432c-1,.5-7.26,3.41-9.22,1.67-2.13-1.89,2.89-4.91,2.89-4.91s.77-4.72-4.93-11.68c-1,.77-5.11.73-5.06-1.69s7-5.4,7.06-5.44c-7.06,1.89-11.71,3.51-15.35,9.09-4.6,7.05,2,14.72,7.36,16.21s8,1.29,14.88-2.11C307.36,432.85,308.43,432.4,309,432Z" style="fill:#37474f"></path><path d="M302,428.33c-2.61.87-.82,3.25,3,2.48,5.73-1.16,10.5-4.41,16.88-6.43,6.9-3.29,13.93-6.36,13.48-8.1-1.23.46-3.88,1.56-3.88,1.56-.51.22-1.85.72-1.85.72-5.23,2.26-11,5.89-16.68,7.43C308,427.34,304.65,427.46,302,428.33Z" style="fill:#37474f"></path><path d="M298.16,418c2.39-1.38,2.8-2.57,7.49-4.72s12.62-6.76,17.52-9.62a64,64,0,0,0,5.32-3.93c-.81-.93-3.8-.08-6.79,1.81s-4.81,3.08-7.77,4.63c-5.76,3.46-12.32,5.79-15.61,7.91S295.76,419.4,298.16,418Z" style="fill:#37474f"></path><path d="M297.8,417.38a.74.74,0,0,0,.14.22,20.83,20.83,0,0,1,4.47,11.57.7.7,0,0,0,.66.65.58.58,0,0,0,.53-.67c-.73-7.92-4.65-12.22-4.87-12.46a.56.56,0,0,0-.84,0A.67.67,0,0,0,297.8,417.38Z" style="fill:#f0f0f0"></path><path d="M302.44,414a.76.76,0,0,0,.12.19,28.56,28.56,0,0,1,5.54,13.67.69.69,0,0,0,.67.62.57.57,0,0,0,.51-.69,29.48,29.48,0,0,0-5.9-14.47.56.56,0,0,0-.84-.06A.68.68,0,0,0,302.44,414Z" style="fill:#f0f0f0"></path><path d="M312.66,427.37a.68.68,0,0,0,.55.42.58.58,0,0,0,.58-.63c-.28-8.38-5.68-16.24-5.93-16.51a.55.55,0,0,0-.84,0,.72.72,0,0,0,.05.93c.06.06,5.28,7.74,5.52,15.54A.89.89,0,0,0,312.66,427.37Z" style="fill:#f0f0f0"></path><path d="M317,424.63a.64.64,0,0,0,.54.41.56.56,0,0,0,.59-.6,24.71,24.71,0,0,0-6.25-15.68.56.56,0,0,0-.84,0,.72.72,0,0,0,.11.93,23.73,23.73,0,0,1,5.78,14.61A1,1,0,0,0,317,424.63Z" style="fill:#f0f0f0"></path><path d="M322.51,422.28a.66.66,0,0,0,.53.41.55.55,0,0,0,.59-.6c0-8.71-6.16-15.46-6.44-15.73a.55.55,0,0,0-.83,0,.71.71,0,0,0,.08.93c.06.06,6,6.59,6,14.68A.73.73,0,0,0,322.51,422.28Z" style="fill:#ebebeb"></path></g><g id="Top"><g id="Arm"><path d="M364.84,256.66c-3.69,5.52-17.74,24.71-17.74,24.71-4.11-4.75-9-10.6-13.11-15.67-5.44-6.65-7.6-8-10.49-18.4-.72-2.61-2.71-5.55-3.66-7.12a22.57,22.57,0,0,1-2.74-7.67c-.15-1.33-3.55-.95-4.18,3.34-.42,2.21.31,4.39.31,6.58,0,.67.37,2.08-.47,2-5.07-.73-8.8-6.49-14.86-10.57-2.19-1.46-7.79-3-9,.2-.1.77.45,1.3.66,2a.86.86,0,0,1,0,.28,4.38,4.38,0,0,1-.1,1c-.14.64-.41,1.24-.54,1.88a4.63,4.63,0,0,0,.34,2.89,11.67,11.67,0,0,1,1,2,7.33,7.33,0,0,0,.54,4,15.69,15.69,0,0,0,1.93,3.09,11,11,0,0,1,1,2.16,12.64,12.64,0,0,0,2.47,3.27,50.92,50.92,0,0,0,11,9.22c1.87,1.09,3.86,2,5.63,3.27a16.65,16.65,0,0,1,3.49,3.32,36.51,36.51,0,0,1,3.19,5.21l0,.1c8.12,14.09,8.84,19.29,17.39,30.45,7.22,8.93,12.25,5.14,23.15-5.36,13.4-12.91,20.57-20.34,20.57-20.34L384,239.59C376.08,242.24,368.54,251.14,364.84,256.66Z" style="fill:#c8856a"></path><path d="M313.38,248a14.49,14.49,0,0,0,3.75,12.45C312.5,259.21,310.63,253.24,313.38,248Z" style="fill:#af6152"></path><path d="M388.1,238.26c-7.44,1.26-13.23,4.2-22.59,16.58s-18.41,25.87-18.41,25.87l-7.53-8.24c2.39,1.38,2,11.93-1.87,16.71a16.26,16.26,0,0,1-9.5,5.55,104.37,104.37,0,0,0,7.31,12.07c3.83,5.25,6.28,6.59,9.56,6.59s6.88-1.89,15.44-10,22.15-21.12,22.15-21.12Z" style="fill:#BA68C8"></path><path d="M388.1,238.26c-7.44,1.26-13.23,4.2-22.59,16.58s-18.41,25.87-18.41,25.87l-7.53-8.24c2.39,1.38,2,11.93-1.87,16.71a16.26,16.26,0,0,1-9.5,5.55,104.37,104.37,0,0,0,7.31,12.07c3.83,5.25,6.28,6.59,9.56,6.59s6.88-1.89,15.44-10,22.15-21.12,22.15-21.12Z" style="fill:#fff;opacity:0.55"></path><path d="M347.1,280.71c4,4.4,6.79,12.07,6.51,16,1.67-4.63,0-12.51-5-18.2Z" style="fill:#BA68C8;opacity:0.35000000000000003"></path><path d="M331.47,300.37a16.11,16.11,0,0,0,2.74-.85,15.31,15.31,0,0,0,4.87-3.18,16.87,16.87,0,0,0,5-9.72c0-.19.23-.13.22,0a15.61,15.61,0,0,1-4.93,10.61,16.9,16.9,0,0,1-5.15,3.21,17.42,17.42,0,0,1-2.36.73l-.49-.82Z" style="fill:#BA68C8;opacity:0.35000000000000003"></path></g><g id="Chest"><path d="M375.51,265.28c1-20.79,5.74-26.53,16.29-27.7l17.4-1.83c5.17,1.06,22.94,6.72,28.92,8.8,3.86,1.33,5.52,9.52,6.34,22.34.68,10.41.78,19.14.43,33.53-.28,12.07-.58,25.81-4.26,42.58-14.41,5.46-56,.25-72.62-18.76,1.33-4.3,6.66-12.07,7.5-20.71C375,285.43,375.19,271.81,375.51,265.28Z" style="fill:#263238"></path><path d="M438.51,244.28l-13-4.58s-2.35,5.47-7.39,16-5.21,15.24-5.68,33.53-3.82,50.44-6,57.86c8.06,1.12,15,12.8,35.74,9.18,0,0,4.35-21.18,5-57.27C447.57,280.25,447.67,249.56,438.51,244.28Z" style="fill:#BA68C8"></path><path d="M438.51,244.28l-13-4.58s-2.35,5.47-7.39,16-5.21,15.24-5.68,33.53-3.82,50.44-6,57.86c8.06,1.12,15,12.8,35.74,9.18,0,0,4.35-21.18,5-57.27C447.57,280.25,447.67,249.56,438.51,244.28Z" style="fill:#fff;opacity:0.35000000000000003"></path><path d="M413.17,272.78c2-16.42,8.91-17.27,10.5-11.88,6-8.94,6.23-16.62,6.13-19.69-1.63-2.82-2.9-5.19-3.44-6.26-.72-1.4-1.54-1.11-1.54-1.11l-.05,4.17s-1,4.78-5.86,10.81C415.3,253.26,414,258.93,413.17,272.78Z" style="fill:#BA68C8"></path><path d="M413.17,272.78c2-16.42,8.91-17.27,10.5-11.88,6-8.94,6.23-16.62,6.13-19.69-1.63-2.82-2.9-5.19-3.44-6.26-.72-1.4-1.54-1.11-1.54-1.11l-.05,4.17s-1,4.78-5.86,10.81C415.3,253.26,414,258.93,413.17,272.78Z" style="fill:#fff;opacity:0.55"></path><path d="M401.33,238.16c-7.4,2.88-12.83,11.1-14.58,22.47s-3.17,40.39-4.4,49-6.71,23.54-6.71,23.54-9.09-3.74-11.6-10.87c4.18-5.45,8.06-13,8.78-20.18s.06-29.95,1.14-38.68,2-20.77,12.34-24.8c4.45-1.74,14.95-2.42,14.95-2.42Z" style="fill:#BA68C8"></path><path d="M401.33,238.16c-7.4,2.88-12.83,11.1-14.58,22.47s-3.17,40.39-4.4,49-6.71,23.54-6.71,23.54-9.09-3.74-11.6-10.87c4.18-5.45,8.06-13,8.78-20.18s.06-29.95,1.14-38.68,2-20.77,12.34-24.8c4.45-1.74,14.95-2.42,14.95-2.42Z" style="fill:#fff;opacity:0.35000000000000003"></path><path d="M386,267.19c1-8.36,5.77-23.33,14.83-26.38a7.19,7.19,0,0,0,.54-2.65l-.08-4.35a37,37,0,0,0-7.73,3.77c-3.91,2.53-10.66,10.61-12.4,17.12C385,251.37,386.6,256.79,386,267.19Z" style="fill:#BA68C8"></path><path d="M386,267.19c1-8.36,5.77-23.33,14.83-26.38a7.19,7.19,0,0,0,.54-2.65l-.08-4.35a37,37,0,0,0-7.73,3.77c-3.91,2.53-10.66,10.61-12.4,17.12C385,251.37,386.6,256.79,386,267.19Z" style="fill:#fff;opacity:0.55"></path><g id="Head"><path d="M424.76,227.31c1-5.85,6.87-11.93,9.52-17,2.55-4.91,4.08-8.72,3.82-13.35-.16-2.74-1.87-6.46-3.9-7.25,2.4-10.17-5.22-14.94-9.27-15.92a43.74,43.74,0,0,1-5.61-1.6c-2.2-.93-2.69-2.71-4.46-4.23-3.05-2.61-8.21-2.7-10.19,1.23-2-2.65-4.79-2.59-8-1.8a5.45,5.45,0,0,0-4.21,6.15c-4.26-2.41-8.2.58-8.6,3.09-.3,1.85.09,3.42-1.13,5.07-1.38,1.87-4,1.82-4.74.31-.45,2.63.57,4.64,3.42,4.51a6,6,0,0,0-.77,5,5.47,5.47,0,0,0,4.92,3.79c.29,1.45.35,2.77,1.25,4a9.49,9.49,0,0,0,3.34,3.05c4.31,2.08,9.09,2.77,13.74,3.76l5.52,1.17c.32.07,2,.18,2.18.46Z" style="fill:#263238"></path><path d="M431.88,219.77c-4.12,2.44-6.9-.23-6.9-.23l-.24,19.21c-3.25,8.24-16.27,12.36-23.51,12.12a23.67,23.67,0,0,1,.1-12.71l-.08-5.29a55.79,55.79,0,0,1-7-.34c-4.58-.65-8-4.39-9.3-9.37a51.5,51.5,0,0,1-.47-19.7,17,17,0,0,0,.27-4.82c-.42-4.27.36-6.75,1.48-10.33,5.07-4,16.76-5.37,27.62,1.3-1.29,6.48,1.2,11.63,5.91,14.12-.23,1.75-.47,6.17,2.4,6.1,2.08-.05,2.23-2.65,4.37-4.93s7.1-2.87,9,.52C438.24,210.15,436.41,217.1,431.88,219.77Z" style="fill:#c8856a"></path><path d="M401.25,232.87c7.28-.82,12.81-1.59,16.63-6.84a45.32,45.32,0,0,0,4.43-8.61s-.77,6.44-3.17,10.8c-1.85,3.36-6.44,6.14-17.86,7.07Z" style="fill:#af6152"></path><path d="M404.91,204.69a2.05,2.05,0,1,0,2-2.16A2.1,2.1,0,0,0,404.91,204.69Z" style="fill:#263238"></path><path d="M405.5,198l4.63,1.91a2.64,2.64,0,0,0-1.41-3.36A2.46,2.46,0,0,0,405.5,198Z" style="fill:#263238"></path><path d="M387.84,199.25l4.73-1.73a2.41,2.41,0,0,0-3.15-1.55A2.64,2.64,0,0,0,387.84,199.25Z" style="fill:#263238"></path><path d="M389,204.06a2,2,0,1,0,1.83-2.32A2.07,2.07,0,0,0,389,204.06Z" style="fill:#263238"></path><path d="M391.89,211.59l7.11,3.19,2.25-14C398.6,199.86,395.17,206.27,391.89,211.59Z" style="fill:#af6152"></path><path d="M405.68,217.71l-8.58,1.8a4.3,4.3,0,0,0,5.1,3.53A4.6,4.6,0,0,0,405.68,217.71Z" style="fill:#af6152"></path><path d="M404.64,219.1a4.69,4.69,0,0,1,1.06,0,4.55,4.55,0,0,1-3.5,3.92,4.41,4.41,0,0,1-1.4,0A4,4,0,0,1,404.64,219.1Z" style="fill:#ffa8a7"></path></g></g><g id="arm"><g id="Laptop"><path d="M316.88,359.91a13.43,13.43,0,0,1,2.09-2.45c8-7.4,23-17.19,35.8-25.33l58.09,33.55a.54.54,0,0,1,0,.93L370.67,391Z" style="opacity:0.15"></path><path d="M299.27,342.85v.94a3.87,3.87,0,0,0,1.93,3.35l67.54,39a3.92,3.92,0,0,0,1.93.51,3.87,3.87,0,0,0,1.94-.52l36.82-21.19a3.86,3.86,0,0,0,1.92-3.34v-1.3h0a.5.5,0,0,1-.25.43l-40.43,23.35Z" style="fill:#37474f"></path><path d="M370.67,384.08v2.57a3.92,3.92,0,0,1-1.93-.51l-67.54-39a3.87,3.87,0,0,1-1.94-3.35v-.94Z" style="fill:#263238"></path><path d="M299.26,342.85l40.05-23.12a2.32,2.32,0,0,1,2.31,0l69.48,40.12a.52.52,0,0,1,0,.89l-40.43,23.34Z" style="fill:#455a64"></path><polygon points="371.04 380.68 392.64 368.22 329.48 331.75 307.76 344.15 371.04 380.68" style="fill:#37474f"></polygon><polygon points="307.76 344.15 308.59 344.62 329.48 332.7 391.81 368.7 392.64 368.22 329.48 331.75 307.76 344.15" style="fill:#263238"></polygon><polygon points="381.66 346.02 381.26 346.25 370.67 352.36 351.84 341.49 351.45 341.27 362.44 334.93 381.66 346.02" style="fill:#263238"></polygon><polygon points="381.26 346.25 370.67 352.36 351.84 341.49 362.44 335.38 381.26 346.25" style="fill:#37474f"></polygon><g id="arm"><path d="M360.38,350.62c3.39-3.36,8.3-8,12.43-9.38a23,23,0,0,1,2.91-.91,34,34,0,0,1-4.25-.84,7.51,7.51,0,0,1-3.58-2.38c-.36-.46-.62-1.2-.16-1.57a1,1,0,0,1,.59-.22c3.09-.09,5.53-.57,8.34-.78a12,12,0,0,1,3.79.07c1.15.32,2.3.65,3.43,1,5.14,1.78,10,1.3,17.08-1.94s32.64-19,32.64-19l-5.42,30L408,352.51h0l-.21.08c-1.61.6-3.07,1.86-6.93,3.05-4.58,1.4-10.43-.26-14.41-.47S375.7,356.8,372,358.29s-8.11-4.18-10-3.5S357,354,360.38,350.62Z" style="fill:#c8856a"></path><path d="M377.43,338.14a13.88,13.88,0,0,1,5.63.92,30.27,30.27,0,0,0-7.34,1.27,34,34,0,0,1-4.25-.84,7.85,7.85,0,0,1-3.25-2C370.44,339,374.75,338.42,377.43,338.14Z" style="fill:#af6152"></path></g><path d="M369.58,384.65a4.59,4.59,0,0,1-3.94-.3l-67.25-38.83a4.57,4.57,0,0,1-2.22-3.2l-7.37-43.91a4.74,4.74,0,0,1-.06-.75,4.6,4.6,0,0,1,1.35-3.25L360,334.77a3.37,3.37,0,0,1,1.64,2.36Z" style="fill:#263238"></path><path d="M370.67,384.08l-.46.27a6.09,6.09,0,0,1-.63.3l-8-47.52a3.37,3.37,0,0,0-1.64-2.36l-69.89-40.36a4.83,4.83,0,0,1,.94-.71l70,40.43a3.4,3.4,0,0,1,1.64,2.37Z" style="fill:#455a64"></path><path d="M361,335.66l1.08-.62a3.32,3.32,0,0,1,.64,1.46l8,47.58-.46.27a6.09,6.09,0,0,1-.63.3l-8-47.52A3.41,3.41,0,0,0,361,335.66Z" style="fill:#37474f"></path><path d="M331.71,344.12c-.5-2.94-3.53-6.84-6.78-8.72s-5.49-1-5,1.92,3.53,6.85,6.78,8.72S332.2,347.06,331.71,344.12Z" style="fill:#BA68C8"></path></g><path d="M414,328.72c10.77-7.8,19.64-14,19.64-14l-3.08-33.1s-2.33-16.37,1.36-25.64c3.83-9.61,7.61-11,7.61-11a37.58,37.58,0,0,1,10.42,5.85c4.17,3.65,6.16,12.13,7.17,24.09.88,10.5,2.54,36.83,2.8,43,.34,7.8,0,14.06-8.28,17.83-8.71,4-34.82,12.9-34.82,12.9Z" style="fill:#c8856a"></path><path d="M438.51,244.28c8.47,2.71,12.79,4.27,16.37,14.19s3.45,28.14,4.54,42.74,1.9,24.13-.44,28.74c-1.28,2.53-3.62,4.85-12,8s-16.45,6-16.45,6-.8-12.9-10-21.58l12.64-7.69s-2.91-29.81-3.61-38S428,251.34,438.51,244.28Z" style="fill:#BA68C8"></path><path d="M438.51,244.28c8.47,2.71,12.79,4.27,16.37,14.19s3.45,28.14,4.54,42.74,1.9,24.13-.44,28.74c-1.28,2.53-3.62,4.85-12,8s-16.45,6-16.45,6-.8-12.9-10-21.58l12.64-7.69s-2.91-29.81-3.61-38S428,251.34,438.51,244.28Z" style="fill:#fff;opacity:0.55"></path><path d="M433.16,314.73c4.94-2.33,14.76-.23,16.86,1.54-2.5-4.32-9.18-5.87-17.19-4.87Z" style="fill:#BA68C8;opacity:0.35000000000000003"></path><path d="M430,323.72A11.87,11.87,0,0,1,433.6,328a21,21,0,0,1,2,5,26.82,26.82,0,0,1,.85,6.17,26.48,26.48,0,0,1,0,2.67l-.94.34a26,26,0,0,0-.73-8.86,23.17,23.17,0,0,0-2-4.95,47.26,47.26,0,0,0-3-4.45C429.81,323.87,429.83,323.63,430,323.72Z" style="fill:#BA68C8;opacity:0.35000000000000003"></path></g></g></g></g><g id="speech-bubble"><g id="speech-bubble"><g id="speech-bubble"><path d="M415.63,139.46l4.51-8.47-3.63-10.46v-6.4l11.09,6.4v6.41l-4.77,8.25a.69.69,0,0,1-.32.29h0Z" style="fill:#BA68C8"></path><path d="M415.63,139.46l4.51-8.47-3.63-10.46v-6.4l11.09,6.4v6.41l-4.77,8.25a.69.69,0,0,1-.32.29h0Z" style="opacity:0.30000000000000004"></path><path d="M395.73,67.09a7.35,7.35,0,0,1,3.32-5.75l2.71-1.57a7.35,7.35,0,0,1,6.65,0l33.73,19.44A7.35,7.35,0,0,1,445.46,85v45.68a7.36,7.36,0,0,1-3.32,5.76L439.43,138a7.35,7.35,0,0,1-6.65,0l-12.14-7-4.76,8.24a.71.71,0,0,1-1.29-.12l-5-14.52-10.52-6a7.36,7.36,0,0,1-3.32-5.76Z" style="fill:#BA68C8"></path><path d="M445.46,130.64a7.36,7.36,0,0,1-3.32,5.76L439.43,138a7.44,7.44,0,0,1-6.08.27c1.57.59,2.76-.29,2.76-2.19V90.37a6.83,6.83,0,0,0-1-3.28l9.36-5.4a6.78,6.78,0,0,1,1,3.27Z" style="opacity:0.30000000000000004"></path><path d="M395.84,66.15c.39-1.41,1.67-1.86,3.21-1l33.73,19.44a6.62,6.62,0,0,1,2.35,2.48l9.35-5.4a6.84,6.84,0,0,0-2.34-2.48L408.42,59.77a7.43,7.43,0,0,0-6.66,0l-2.71,1.57A7.35,7.35,0,0,0,395.84,66.15Z" style="fill:#fff;opacity:0.30000000000000004"></path></g><path id="shield" d="M403.72,83.76c.29,8.46,2.19,25.25,12.74,35.41,7.41-4,11-15.65,10.75-22.85a1.37,1.37,0,0,0-.38-.9,1.88,1.88,0,0,0-.64-.44c-3.22-1.3-8.18-6.76-10.6-12.23-.17-.39-.42-.51-.68-.38h0l0,0a1,1,0,0,0-.23.2h0l0,.05c-2.28,2.84-6.94,3-10.13.72-.24-.17-.44-.22-.57-.15h0C403.76,83.3,403.7,83.48,403.72,83.76Z" style="fill:#fafafa"></path></g></g></svg>