<svg xmlns="http://www.w3.org/2000/svg" viewBox="0 0 500 500"><g id="background-complete"><rect x="416.78" y="398.49" width="33.12" height="0.25" style="fill:#ebebeb"></rect><rect x="322.53" y="401.21" width="8.69" height="0.25" style="fill:#ebebeb"></rect><rect x="396.59" y="389.21" width="19.19" height="0.25" style="fill:#ebebeb"></rect><rect x="52.46" y="390.89" width="43.19" height="0.25" style="fill:#ebebeb"></rect><rect x="104.56" y="390.89" width="6.33" height="0.25" style="fill:#ebebeb"></rect><rect x="131.47" y="395.11" width="93.68" height="0.25" style="fill:#ebebeb"></rect><path d="M237,337.8H43.92a5.71,5.71,0,0,1-5.71-5.71V60.66A5.71,5.71,0,0,1,43.92,55H237a5.71,5.71,0,0,1,5.71,5.71V332.09A5.71,5.71,0,0,1,237,337.8ZM43.92,55.2a5.47,5.47,0,0,0-5.46,5.46V332.09a5.47,5.47,0,0,0,5.46,5.46H237a5.47,5.47,0,0,0,5.46-5.46V60.66A5.47,5.47,0,0,0,237,55.2Z" style="fill:#ebebeb"></path><path d="M453.31,337.8H260.21a5.72,5.72,0,0,1-5.71-5.71V60.66A5.72,5.72,0,0,1,260.21,55h193.1A5.71,5.71,0,0,1,459,60.66V332.09A5.71,5.71,0,0,1,453.31,337.8ZM260.21,55.2a5.47,5.47,0,0,0-5.46,5.46V332.09a5.47,5.47,0,0,0,5.46,5.46h193.1a5.47,5.47,0,0,0,5.46-5.46V60.66a5.47,5.47,0,0,0-5.46-5.46Z" style="fill:#ebebeb"></path><rect y="382.4" width="500" height="0.25" style="fill:#ebebeb"></rect><rect x="19.06" y="266.86" width="223.82" height="6.95" transform="translate(401.3 139.36) rotate(90)" style="fill:#f0f0f0"></rect><rect x="-55" y="266.86" width="223.82" height="6.95" transform="translate(327.24 213.42) rotate(90)" style="fill:#f5f5f5"></rect><rect x="287.23" y="266.86" width="223.82" height="6.95" transform="translate(669.47 -128.81) rotate(90)" style="fill:#e6e6e6"></rect><rect x="321.6" y="343.03" width="81.01" height="10.24" transform="translate(724.22 696.29) rotate(180)" style="fill:#e6e6e6"></rect><rect x="53.44" y="343.03" width="268.17" height="10.24" transform="translate(375.04 696.29) rotate(180)" style="fill:#f5f5f5"></rect><rect x="321.6" y="250.72" width="81.01" height="10.24" transform="translate(724.22 511.68) rotate(180)" style="fill:#e6e6e6"></rect><rect x="321.6" y="158.42" width="81.01" height="10.24" transform="translate(724.22 327.08) rotate(180)" style="fill:#e6e6e6"></rect><rect x="53.44" y="158.42" width="268.17" height="10.24" transform="translate(375.04 327.08) rotate(180)" style="fill:#f5f5f5"></rect><rect x="213.17" y="266.86" width="223.82" height="6.95" transform="translate(595.41 -54.75) rotate(90)" style="fill:#e6e6e6"></rect><polygon points="356.15 183.39 376.04 183.39 377.01 174 355.18 174 356.15 183.39" style="fill:#e6e6e6"></polygon><path d="M358.61,192.51h15A14.51,14.51,0,0,1,388.09,207v32A12.08,12.08,0,0,1,376,251.11H356.18A12.08,12.08,0,0,1,344.1,239V207A14.51,14.51,0,0,1,358.61,192.51Z" transform="translate(732.19 443.62) rotate(180)" style="fill:#f5f5f5"></path><rect x="354.45" y="184.03" width="23.29" height="17.2" transform="translate(732.19 385.27) rotate(180)" style="fill:#f5f5f5"></rect><path d="M350.57,184h31.05a1.94,1.94,0,0,0,1.94-1.94h0a1.94,1.94,0,0,0-1.94-1.94H350.57a1.94,1.94,0,0,0-1.94,1.94h0A1.94,1.94,0,0,0,350.57,184Z" style="fill:#f5f5f5"></path><polygon points="244.25 297.42 259.44 297.42 260.18 290.26 243.51 290.26 244.25 297.42" style="fill:#e6e6e6"></polygon><rect x="242.95" y="297.91" width="17.78" height="13.13" transform="translate(503.69 608.96) rotate(180)" style="fill:#f5f5f5"></rect><path d="M243.25,343.62a8.14,8.14,0,0,1-8.15-7.36c0-.4,0-.8,0-1.21V316.11a11.73,11.73,0,0,1,11.73-11.73h10.13a11.73,11.73,0,0,1,11.73,11.73v18.94a12.1,12.1,0,0,1-.06,1.21,8.14,8.14,0,0,1-8.15,7.36Z" style="fill:#f0f0f0"></path><path d="M240,297.91H263.7a1.48,1.48,0,0,0,1.48-1.48h0A1.48,1.48,0,0,0,263.7,295H240a1.48,1.48,0,0,0-1.48,1.48h0A1.48,1.48,0,0,0,240,297.91Z" style="fill:#f0f0f0"></path><path d="M220.55,342.76H208.06a4.44,4.44,0,0,1-2.71-.92,14.74,14.74,0,1,1,17.77.1A4.3,4.3,0,0,1,220.55,342.76Z" style="fill:#f0f0f0"></path><rect x="210.33" y="302.99" width="7.95" height="19.67" transform="translate(428.6 625.64) rotate(180)" style="fill:#f0f0f0"></rect><path d="M209.46,304.1h9.68a1.63,1.63,0,0,0,1.63-1.64h0a1.63,1.63,0,0,0-1.63-1.63h-9.68a1.63,1.63,0,0,0-1.63,1.63h0A1.63,1.63,0,0,0,209.46,304.1Z" style="fill:#f0f0f0"></path><path d="M197.15,334.14a5,5,0,0,0,6-1.49c2.25-2.71.75-5.28-.37-8a8.82,8.82,0,0,1-.31-7.16,39.87,39.87,0,0,0,1.73-3.9c.63-2.19.18-4.35-.24-6.52-.48-2.48-1.32-5.33-.37-7.8,1.41-3.65,8.46-6.11,11.33-2.86a6.13,6.13,0,0,1,1.23,4.47h-1.75c0-2.84-1.28-5-5.5-3.83-7.76,2.18-1.57,11.48-3.14,17-.74,2.61-2.64,4.66-2.26,7.52.44,3.34,3.1,5.71,2.34,9.3a6.82,6.82,0,0,1-9.5,4.75C195.39,335.08,196.21,333.68,197.15,334.14Z" style="fill:#e0e0e0"></path><path d="M205.35,308.6S206,318,210,313.85,205.35,308.6,205.35,308.6Z" style="fill:#e0e0e0"></path><path d="M202.91,320s-8.58,3.81-3.31,6.22S202.91,320,202.91,320Z" style="fill:#e0e0e0"></path><path d="M201.89,334.77s-8.57,3.8-3.31,6.22S201.89,334.77,201.89,334.77Z" style="fill:#e0e0e0"></path><path d="M198.25,335.18s-3.77-8.59-6.21-3.33S198.25,335.18,198.25,335.18Z" style="fill:#e0e0e0"></path><path d="M208.08,296s-6.18-7.06-6.93-1.31S208.08,296,208.08,296Z" style="fill:#e0e0e0"></path><path d="M204.33,304.1s-9.21,1.83-4.6,5.34S204.33,304.1,204.33,304.1Z" style="fill:#e0e0e0"></path><path d="M172.54,343.62h-9a3.2,3.2,0,0,1-1.95-.67,10.61,10.61,0,1,1,12.79.08A3.1,3.1,0,0,1,172.54,343.62Z" style="fill:#f0f0f0"></path><rect x="165.17" y="308.73" width="5.73" height="21.97" transform="translate(336.07 639.43) rotate(180)" style="fill:#f0f0f0"></rect><path d="M164.55,309.53h7a1.17,1.17,0,0,0,1.18-1.17h0a1.18,1.18,0,0,0-1.18-1.18h-7a1.18,1.18,0,0,0-1.18,1.18h0A1.17,1.17,0,0,0,164.55,309.53Z" style="fill:#f0f0f0"></path><rect x="348.52" y="130.45" width="5.34" height="13.21" transform="translate(702.38 274.1) rotate(180)" style="fill:#ebebeb"></rect><path d="M347.94,131.19h6.5a1.1,1.1,0,0,0,1.1-1.1h0a1.09,1.09,0,0,0-1.1-1.09h-6.5a1.09,1.09,0,0,0-1.1,1.09h0A1.1,1.1,0,0,0,347.94,131.19Z" style="fill:#ebebeb"></path><path d="M361.88,154.94l-10.69-15.89L340.5,154.94a2.23,2.23,0,0,0,1.85,3.48H360A2.23,2.23,0,0,0,361.88,154.94Z" style="fill:#ebebeb"></path><rect x="284.39" y="304.1" width="7.55" height="18.66" transform="translate(576.33 626.87) rotate(180)" style="fill:#ebebeb"></rect><path d="M283.57,305.16h9.19a1.56,1.56,0,0,0,1.55-1.55h0a1.55,1.55,0,0,0-1.55-1.55h-9.19a1.54,1.54,0,0,0-1.55,1.55h0A1.55,1.55,0,0,0,283.57,305.16Z" style="fill:#ebebeb"></path><path d="M303.27,338.7l-15.11-22.44-15.1,22.44a3.16,3.16,0,0,0,2.62,4.92h25A3.16,3.16,0,0,0,303.27,338.7Z" style="fill:#ebebeb"></path><rect x="382.75" y="292.84" width="6.73" height="32.18" transform="translate(772.24 617.86) rotate(180)" style="fill:#f5f5f5"></rect><path d="M382,293.78h8.2a1.38,1.38,0,0,0,1.38-1.38h0a1.38,1.38,0,0,0-1.38-1.39H382a1.38,1.38,0,0,0-1.38,1.39h0A1.38,1.38,0,0,0,382,293.78Z" style="fill:#f5f5f5"></path><path d="M399.59,339.23l-13.47-20-13.48,20a2.82,2.82,0,0,0,2.34,4.39h22.28A2.82,2.82,0,0,0,399.59,339.23Z" style="fill:#f5f5f5"></path><path d="M357.83,308.08a.53.53,0,0,1,.37.9L356,311.22v29.55a2.85,2.85,0,0,1-2.84,2.85H336.49a2.86,2.86,0,0,1-2.85-2.85V308.08Z" style="fill:#f0f0f0"></path><path d="M209.16,123.38a.53.53,0,0,1,.38.9l-2.24,2.24v29.55a2.86,2.86,0,0,1-2.85,2.85H187.82a2.85,2.85,0,0,1-2.84-2.85V123.38Z" style="fill:#f5f5f5"></path><path d="M393,118a.6.6,0,0,1,.43,1l-2.55,2.55v33.64a3.24,3.24,0,0,1-3.24,3.24H368.75a3.24,3.24,0,0,1-3.24-3.24V118Z" style="fill:#f5f5f5"></path><path d="M373.42,120.14h-4.49a.4.4,0,0,1,0-.79h4.49a.4.4,0,0,1,0,.79Z" style="fill:#e6e6e6"></path><path d="M371.69,122.51h-2.76a.39.39,0,0,1,0-.78h2.76a.39.39,0,0,1,0,.78Z" style="fill:#e6e6e6"></path><path d="M371.69,124.89h-2.76a.39.39,0,0,1,0-.78h2.76a.39.39,0,0,1,0,.78Z" style="fill:#e6e6e6"></path><path d="M371.69,127.26h-2.76a.39.39,0,0,1,0-.78h2.76a.39.39,0,0,1,0,.78Z" style="fill:#e6e6e6"></path><path d="M371.69,129.64h-2.76a.39.39,0,0,1,0-.78h2.76a.39.39,0,0,1,0,.78Z" style="fill:#e6e6e6"></path><path d="M373.42,132h-4.49a.39.39,0,0,1,0-.78h4.49a.39.39,0,0,1,0,.78Z" style="fill:#e6e6e6"></path><path d="M371.69,134.39h-2.76a.39.39,0,0,1,0-.78h2.76a.39.39,0,0,1,0,.78Z" style="fill:#e6e6e6"></path><path d="M371.69,136.76h-2.76a.39.39,0,0,1,0-.78h2.76a.39.39,0,0,1,0,.78Z" style="fill:#e6e6e6"></path><path d="M371.69,139.14h-2.76a.39.39,0,0,1,0-.78h2.76a.39.39,0,0,1,0,.78Z" style="fill:#e6e6e6"></path><path d="M371.69,141.51h-2.76a.39.39,0,0,1,0-.78h2.76a.39.39,0,0,1,0,.78Z" style="fill:#e6e6e6"></path><path d="M373.42,143.89h-4.49a.39.39,0,0,1,0-.78h4.49a.39.39,0,0,1,0,.78Z" style="fill:#e6e6e6"></path><path d="M371.69,146.26h-2.76a.39.39,0,0,1,0-.78h2.76a.39.39,0,0,1,0,.78Z" style="fill:#e6e6e6"></path><path d="M371.69,148.64h-2.76a.39.39,0,0,1,0-.78h2.76a.39.39,0,0,1,0,.78Z" style="fill:#e6e6e6"></path><path d="M371.69,151h-2.76a.39.39,0,0,1,0-.78h2.76a.39.39,0,0,1,0,.78Z" style="fill:#e6e6e6"></path><path d="M371.69,153.39h-2.76a.39.39,0,0,1,0-.78h2.76a.39.39,0,0,1,0,.78Z" style="fill:#e6e6e6"></path><path d="M373.42,155.77h-4.49a.4.4,0,0,1,0-.79h4.49a.4.4,0,0,1,0,.79Z" style="fill:#e6e6e6"></path><path d="M94.7,235.7H72.33a4.17,4.17,0,0,1-4.16-4.16V218h1.94v13.59a2.23,2.23,0,0,0,2.22,2.22H94.7Z" style="fill:#e0e0e0"></path><circle cx="94.7" cy="217.95" r="12.31" style="fill:#f0f0f0"></circle><path d="M105.31,247.25H98l-.89-19.39H92.28l-.89,19.39H84.1a3.55,3.55,0,0,0-3.55,3.55v.31h28.31v-.31A3.55,3.55,0,0,0,105.31,247.25Z" style="fill:#ebebeb"></path><path d="M73.19,218a4,4,0,1,1-4-4A4,4,0,0,1,73.19,218Z" style="fill:#f0f0f0"></path><path d="M106.52,149.58h0a2.77,2.77,0,0,0,2.77-2.77V124.34h-5.54v22.47A2.77,2.77,0,0,0,106.52,149.58Z" style="fill:#f5f5f5"></path><path d="M103.15,125.11h6.74A1.14,1.14,0,0,0,111,124h0a1.14,1.14,0,0,0-1.14-1.14h-6.74A1.14,1.14,0,0,0,102,124h0A1.14,1.14,0,0,0,103.15,125.11Z" style="fill:#f5f5f5"></path><path d="M94.5,149.58h0a2.77,2.77,0,0,0,2.77-2.77V124.34H91.72v22.47A2.78,2.78,0,0,0,94.5,149.58Z" style="fill:#f5f5f5"></path><path d="M91.12,125.11h6.75A1.14,1.14,0,0,0,99,124h0a1.14,1.14,0,0,0-1.14-1.14H91.12A1.13,1.13,0,0,0,90,124h0A1.13,1.13,0,0,0,91.12,125.11Z" style="fill:#f5f5f5"></path><path d="M82.47,149.58h0a2.77,2.77,0,0,0,2.77-2.77V124.34H79.7v22.47A2.77,2.77,0,0,0,82.47,149.58Z" style="fill:#f5f5f5"></path><path d="M79.1,125.11h6.74A1.14,1.14,0,0,0,87,124h0a1.14,1.14,0,0,0-1.14-1.14H79.1A1.14,1.14,0,0,0,78,124h0A1.14,1.14,0,0,0,79.1,125.11Z" style="fill:#f5f5f5"></path><path d="M70.44,149.58h0a2.77,2.77,0,0,0,2.77-2.77V124.34H67.67v22.47A2.77,2.77,0,0,0,70.44,149.58Z" style="fill:#f5f5f5"></path><path d="M67.07,125.11h6.75A1.14,1.14,0,0,0,75,124h0a1.14,1.14,0,0,0-1.13-1.14H67.07A1.14,1.14,0,0,0,65.93,124h0A1.14,1.14,0,0,0,67.07,125.11Z" style="fill:#f5f5f5"></path><path d="M61.47,126.76v31.66h2.58v-3.16h48.87v3.16h2.57V126.76Zm2.58,22.31V129.33h48.87v23.35H64.05Z" style="fill:#ebebeb"></path><polygon points="185.89 158.42 165.14 130.87 144.38 158.42 185.89 158.42" style="fill:#fafafa"></polygon><polygon points="144.38 158.42 165.14 130.87 165.14 158.42 144.38 158.42" style="fill:#ebebeb"></polygon><polygon points="116.38 343.62 90.7 309.53 65.02 343.62 116.38 343.62" style="fill:#f5f5f5"></polygon><polygon points="65.02 343.62 90.7 309.53 90.7 343.62 65.02 343.62" style="fill:#ebebeb"></polygon><rect x="298.44" y="103.33" width="125.08" height="276.59" style="fill:#e0e0e0"></rect><path d="M423.52,100.9V382.34h23V100.9Z" style="fill:#e6e6e6"></path><path d="M276.5,100.9V382.34h23V100.9Z" style="fill:#e6e6e6"></path><path d="M272.58,100.9V382.34h153.7V100.9Zm148.17,4.85v50.47H278.11V105.75ZM278.11,266.85V216.39H420.75v50.46Zm142.64,4.86v50.46H278.11V271.71ZM278.11,211.54V161.07H420.75v50.47Zm0,166V327H420.75v50.47Z" style="fill:#f5f5f5"></path><rect x="370.92" y="117.52" width="5.32" height="39.16" transform="translate(747.16 274.21) rotate(180)" style="fill:#e6e6e6"></rect><rect x="376.24" y="117.52" width="5.32" height="39.16" transform="translate(757.79 274.21) rotate(180)" style="fill:#e0e0e0"></rect><rect x="360.29" y="120.28" width="10.63" height="36.41" transform="translate(731.21 276.96) rotate(180)" style="fill:#e6e6e6"></rect><rect x="348.1" y="117.52" width="6.87" height="39.16" transform="translate(703.07 274.21) rotate(180)" style="fill:#f0f0f0"></rect><rect x="354.97" y="117.52" width="5.32" height="39.16" transform="translate(715.26 274.21) rotate(180)" style="fill:#ebebeb"></rect><rect x="307.78" y="117.52" width="6.87" height="39.16" transform="translate(622.42 274.21) rotate(180)" style="fill:#e6e6e6"></rect><rect x="314.65" y="117.52" width="5.32" height="39.16" transform="translate(634.61 274.21) rotate(180)" style="fill:#ebebeb"></rect><rect x="330.6" y="117.52" width="6.87" height="39.16" transform="translate(668.07 274.21) rotate(180)" style="fill:#e6e6e6"></rect><rect x="337.47" y="117.52" width="5.32" height="39.16" transform="translate(680.25 274.21) rotate(180)" style="fill:#e0e0e0"></rect><rect x="297.14" y="118.45" width="10.63" height="38.23" transform="translate(604.92 275.13) rotate(180)" style="fill:#ebebeb"></rect><rect x="291.83" y="118.45" width="5.32" height="38.23" transform="translate(588.97 275.13) rotate(180)" style="fill:#e0e0e0"></rect><rect x="323.51" y="118.45" width="7.09" height="38.23" transform="translate(654.11 275.13) rotate(180)" style="fill:#e0e0e0"></rect><rect x="319.96" y="118.45" width="3.54" height="38.23" transform="translate(643.47 275.13) rotate(180)" style="fill:#f0f0f0"></rect><rect x="337.47" y="120.28" width="10.63" height="36.41" transform="translate(685.57 276.96) rotate(180)" style="fill:#f5f5f5"></rect><rect x="397.5" y="117.52" width="6.87" height="39.16" transform="translate(801.88 274.21) rotate(180)" style="fill:#ebebeb"></rect><rect x="404.38" y="117.52" width="5.32" height="39.16" transform="translate(814.07 274.21) rotate(180)" style="fill:#e6e6e6"></rect><rect x="386.87" y="118.45" width="10.63" height="38.23" transform="translate(784.38 275.13) rotate(180)" style="fill:#e0e0e0"></rect><rect x="381.55" y="118.45" width="5.32" height="38.23" transform="translate(768.43 275.13) rotate(180)" style="fill:#ebebeb"></rect><rect x="413.24" y="118.45" width="7.09" height="38.23" transform="translate(833.56 275.13) rotate(180)" style="fill:#ebebeb"></rect><rect x="409.69" y="118.45" width="3.54" height="38.23" transform="translate(822.93 275.13) rotate(180)" style="fill:#fafafa"></rect><rect x="335.91" y="172.36" width="5.32" height="39.16" style="fill:#e6e6e6"></rect><rect x="330.6" y="172.36" width="5.32" height="39.16" style="fill:#e0e0e0"></rect><rect x="341.23" y="175.11" width="10.63" height="36.41" style="fill:#e6e6e6"></rect><rect x="357.18" y="172.36" width="6.87" height="39.16" style="fill:#f0f0f0"></rect><rect x="351.86" y="172.36" width="5.32" height="39.16" style="fill:#ebebeb"></rect><rect x="397.5" y="172.36" width="6.87" height="39.16" style="fill:#e6e6e6"></rect><rect x="392.19" y="172.36" width="5.32" height="39.16" style="fill:#ebebeb"></rect><rect x="374.68" y="172.36" width="6.87" height="39.16" style="fill:#e6e6e6"></rect><rect x="369.37" y="172.36" width="5.32" height="39.16" style="fill:#e0e0e0"></rect><rect x="404.38" y="173.28" width="10.63" height="38.23" style="fill:#ebebeb"></rect><rect x="415.01" y="173.28" width="5.32" height="38.23" style="fill:#e0e0e0"></rect><rect x="381.55" y="173.28" width="7.09" height="38.23" style="fill:#e0e0e0"></rect><rect x="388.64" y="173.28" width="3.54" height="38.23" style="fill:#f0f0f0"></rect><rect x="364.05" y="175.11" width="10.63" height="36.41" style="fill:#f5f5f5"></rect><rect x="307.78" y="172.36" width="6.87" height="39.16" style="fill:#ebebeb"></rect><rect x="302.46" y="172.36" width="5.32" height="39.16" style="fill:#e6e6e6"></rect><rect x="314.65" y="173.28" width="10.63" height="38.23" style="fill:#e0e0e0"></rect><rect x="325.28" y="173.28" width="5.32" height="38.23" style="fill:#ebebeb"></rect><rect x="291.83" y="173.28" width="7.09" height="38.23" style="fill:#ebebeb"></rect><rect x="298.92" y="173.28" width="3.54" height="38.23" style="fill:#fafafa"></rect><rect x="335.91" y="228.16" width="5.32" height="39.16" style="fill:#e6e6e6"></rect><rect x="330.6" y="228.16" width="5.32" height="39.16" style="fill:#e0e0e0"></rect><rect x="341.23" y="230.91" width="10.63" height="36.41" style="fill:#e6e6e6"></rect><rect x="357.18" y="228.16" width="6.87" height="39.16" style="fill:#f0f0f0"></rect><rect x="351.86" y="228.16" width="5.32" height="39.16" style="fill:#ebebeb"></rect><rect x="397.5" y="228.16" width="6.87" height="39.16" style="fill:#e6e6e6"></rect><rect x="392.19" y="228.16" width="5.32" height="39.16" style="fill:#ebebeb"></rect><rect x="374.68" y="228.16" width="6.87" height="39.16" style="fill:#e6e6e6"></rect><rect x="369.37" y="228.16" width="5.32" height="39.16" style="fill:#e0e0e0"></rect><rect x="404.38" y="229.09" width="10.63" height="38.23" style="fill:#ebebeb"></rect><rect x="415.01" y="229.09" width="5.32" height="38.23" style="fill:#e0e0e0"></rect><rect x="381.55" y="229.09" width="7.09" height="38.23" style="fill:#e0e0e0"></rect><rect x="388.64" y="229.09" width="3.54" height="38.23" style="fill:#f0f0f0"></rect><rect x="364.05" y="230.91" width="10.63" height="36.41" style="fill:#f5f5f5"></rect><rect x="307.78" y="228.16" width="6.87" height="39.16" style="fill:#ebebeb"></rect><rect x="302.46" y="228.16" width="5.32" height="39.16" style="fill:#e6e6e6"></rect><rect x="314.65" y="229.09" width="10.63" height="38.23" style="fill:#e0e0e0"></rect><rect x="325.28" y="229.09" width="5.32" height="38.23" style="fill:#ebebeb"></rect><rect x="291.83" y="229.09" width="7.09" height="38.23" style="fill:#ebebeb"></rect><rect x="298.92" y="229.09" width="3.54" height="38.23" style="fill:#fafafa"></rect><rect x="370.92" y="283.96" width="5.32" height="39.16" transform="translate(747.16 607.08) rotate(180)" style="fill:#e6e6e6"></rect><rect x="376.24" y="283.96" width="5.32" height="39.16" transform="translate(757.79 607.08) rotate(180)" style="fill:#e0e0e0"></rect><rect x="360.29" y="283.96" width="10.63" height="36.41" transform="translate(731.21 604.33) rotate(180)" style="fill:#e6e6e6"></rect><rect x="348.1" y="283.96" width="6.87" height="39.16" transform="translate(703.07 607.08) rotate(180)" style="fill:#f0f0f0"></rect><rect x="354.97" y="283.96" width="5.32" height="39.16" transform="translate(715.26 607.08) rotate(180)" style="fill:#ebebeb"></rect><rect x="307.78" y="283.96" width="6.87" height="39.16" transform="translate(622.42 607.08) rotate(180)" style="fill:#e6e6e6"></rect><rect x="314.65" y="283.96" width="5.32" height="39.16" transform="translate(634.61 607.08) rotate(180)" style="fill:#ebebeb"></rect><rect x="330.6" y="283.96" width="6.87" height="39.16" transform="translate(668.07 607.08) rotate(180)" style="fill:#e6e6e6"></rect><rect x="337.47" y="283.96" width="5.32" height="39.16" transform="translate(680.25 607.08) rotate(180)" style="fill:#e0e0e0"></rect><rect x="297.14" y="283.96" width="10.63" height="38.23" transform="translate(604.92 606.15) rotate(180)" style="fill:#ebebeb"></rect><rect x="291.83" y="283.96" width="5.32" height="38.23" transform="translate(588.97 606.15) rotate(180)" style="fill:#e0e0e0"></rect><rect x="323.51" y="283.96" width="7.09" height="38.23" transform="translate(654.11 606.15) rotate(180)" style="fill:#e0e0e0"></rect><rect x="319.96" y="283.96" width="3.54" height="38.23" transform="translate(643.47 606.15) rotate(180)" style="fill:#f0f0f0"></rect><rect x="337.47" y="283.96" width="10.63" height="36.41" transform="translate(685.57 604.33) rotate(180)" style="fill:#f5f5f5"></rect><rect x="397.5" y="283.96" width="6.87" height="39.16" transform="translate(801.88 607.08) rotate(180)" style="fill:#ebebeb"></rect><rect x="404.38" y="283.96" width="5.32" height="39.16" transform="translate(814.07 607.08) rotate(180)" style="fill:#e6e6e6"></rect><rect x="386.87" y="283.96" width="10.63" height="38.23" transform="translate(784.38 606.15) rotate(180)" style="fill:#e0e0e0"></rect><rect x="381.55" y="283.96" width="5.32" height="38.23" transform="translate(768.43 606.15) rotate(180)" style="fill:#ebebeb"></rect><rect x="413.24" y="283.96" width="7.09" height="38.23" transform="translate(833.56 606.15) rotate(180)" style="fill:#ebebeb"></rect><rect x="409.69" y="283.96" width="3.54" height="38.23" transform="translate(822.93 606.15) rotate(180)" style="fill:#fafafa"></rect><rect x="335.91" y="339.76" width="5.32" height="39.16" style="fill:#e6e6e6"></rect><rect x="330.6" y="339.76" width="5.32" height="39.16" style="fill:#e0e0e0"></rect><rect x="341.23" y="339.76" width="10.63" height="36.41" style="fill:#e6e6e6"></rect><rect x="357.18" y="339.76" width="6.87" height="39.16" style="fill:#f0f0f0"></rect><rect x="351.86" y="339.76" width="5.32" height="39.16" style="fill:#ebebeb"></rect><rect x="397.5" y="339.76" width="6.87" height="39.16" style="fill:#e6e6e6"></rect><rect x="392.19" y="339.76" width="5.32" height="39.16" style="fill:#ebebeb"></rect><rect x="374.68" y="339.76" width="6.87" height="39.16" style="fill:#e6e6e6"></rect><rect x="369.37" y="339.76" width="5.32" height="39.16" style="fill:#e0e0e0"></rect><rect x="404.38" y="339.76" width="10.63" height="38.23" style="fill:#ebebeb"></rect><rect x="415.01" y="339.76" width="5.32" height="38.23" style="fill:#e0e0e0"></rect><rect x="381.55" y="339.76" width="7.09" height="38.23" style="fill:#e0e0e0"></rect><rect x="388.64" y="339.76" width="3.54" height="38.23" style="fill:#f0f0f0"></rect><rect x="364.05" y="339.76" width="10.63" height="36.41" style="fill:#f5f5f5"></rect><rect x="307.78" y="339.76" width="6.87" height="39.16" style="fill:#ebebeb"></rect><rect x="302.46" y="339.76" width="5.32" height="39.16" style="fill:#e6e6e6"></rect><rect x="314.65" y="339.76" width="10.63" height="38.23" style="fill:#e0e0e0"></rect><rect x="325.28" y="339.76" width="5.32" height="38.23" style="fill:#ebebeb"></rect><rect x="291.83" y="339.76" width="7.09" height="38.23" style="fill:#ebebeb"></rect><rect x="298.92" y="339.76" width="3.54" height="38.23" style="fill:#fafafa"></rect></g><g id="background-simple"><path d="M180.6,374.52C122.71,400.45,63.92,366,52.73,264.4c-9.65-87.65,56.89-112.78,132.05-96.52C254.65,183,239.63,75.06,334.51,66.46,415.75,59.09,515.77,271,385,302c-54,12.79-59.95-8.76-105.79,7.85C218.59,331.85,233.54,350.8,180.6,374.52Z" style="fill:#407BFF"></path><path d="M180.6,374.52C122.71,400.45,63.92,366,52.73,264.4c-9.65-87.65,56.89-112.78,132.05-96.52C254.65,183,239.63,75.06,334.51,66.46,415.75,59.09,515.77,271,385,302c-54,12.79-59.95-8.76-105.79,7.85C218.59,331.85,233.54,350.8,180.6,374.52Z" style="fill:#fff;opacity:0.9"></path></g><g id="Shadow"><ellipse id="path" cx="245.18" cy="412.39" rx="193.89" ry="11.32" style="fill:#f5f5f5"></ellipse></g><g id="Blackboard"><rect x="73.99" y="70.77" width="249.12" height="170.85" rx="12.87" style="fill:#263238"></rect><path d="M310.24,246.12H86.86a17.39,17.39,0,0,1-17.37-17.37V83.64A17.39,17.39,0,0,1,86.86,66.27H310.24a17.4,17.4,0,0,1,17.37,17.37V228.75A17.39,17.39,0,0,1,310.24,246.12ZM86.86,75.27a8.39,8.39,0,0,0-8.37,8.37V228.75a8.38,8.38,0,0,0,8.37,8.37H310.24a8.38,8.38,0,0,0,8.37-8.37V83.64a8.39,8.39,0,0,0-8.37-8.37Z" style="fill:#407BFF"></path><g style="opacity:0.30000000000000004"><path d="M310.24,246.12H86.86a17.39,17.39,0,0,1-17.37-17.37V83.64A17.39,17.39,0,0,1,86.86,66.27H310.24a17.4,17.4,0,0,1,17.37,17.37V228.75A17.39,17.39,0,0,1,310.24,246.12ZM86.86,75.27a8.39,8.39,0,0,0-8.37,8.37V228.75a8.38,8.38,0,0,0,8.37,8.37H310.24a8.38,8.38,0,0,0,8.37-8.37V83.64a8.39,8.39,0,0,0-8.37-8.37Z" style="fill:#fff"></path></g><path d="M329.55,258.46H68.11a2.5,2.5,0,0,1,0-5H329.55a2.5,2.5,0,0,1,0,5Z" style="fill:#263238"></path><path d="M330.55,391.2H67.11a2.5,2.5,0,0,1-2.5-2.5V160.52a2.5,2.5,0,0,1,5,0V386.2H328.05v-226a2.5,2.5,0,0,1,5,0V388.7A2.5,2.5,0,0,1,330.55,391.2Z" style="fill:#263238"></path><path d="M330.55,157.7a2.5,2.5,0,0,0-2.5,2.5v93.26H69.61V160.52a2.5,2.5,0,0,0-5,0V388.7a2.5,2.5,0,0,0,2.5,2.5H330.55a2.5,2.5,0,0,0,2.5-2.5V160.2A2.5,2.5,0,0,0,330.55,157.7ZM69.61,386.2V258.46H328.05V386.2Z" style="fill:#fff;opacity:0.5"></path></g><g id="Graphics"><path d="M219.38,184c-3.79,0-7.5-2.31-11.14-5.94h11.14a.51.51,0,0,0,.5-.5.5.5,0,0,0-.5-.5H207.27l-.36-.39v-.91a.51.51,0,0,0-.5-.5.5.5,0,0,0-.47.33c-4.32-4.95-8.54-11.49-12.7-17.92-8.51-13.17-17.32-26.78-27-26.78h-.36V109.43l3.15,4.85a.48.48,0,0,0,.42.23.56.56,0,0,0,.27-.08.51.51,0,0,0,.14-.7l-4.06-6.26a.52.52,0,0,0-.84,0l-4.07,6.26a.5.5,0,1,0,.84.55l3.15-4.85V131c-9.13,1.2-17.51,14.15-25.62,26.69-4.58,7.09-9.25,14.31-14,19.39h-9v-1.3a.5.5,0,0,0-1,0v1.3h-3.88a.5.5,0,0,0-.5.5.5.5,0,0,0,.5.5h3.88v2.06a.5.5,0,0,0,1,0V178.1h8c-3.64,3.63-7.35,5.94-11.13,5.94a.5.5,0,0,0,0,1c4.33,0,8.48-2.74,12.52-6.94h1v2.06a.5.5,0,0,0,.5.5.51.51,0,0,0,.5-.5V178.1H138v2.06a.51.51,0,0,0,.5.5.5.5,0,0,0,.5-.5V178.1h10.33v2.06a.5.5,0,0,0,.5.5.51.51,0,0,0,.5-.5V178.1H160.6v2.06a.51.51,0,0,0,.5.5.5.5,0,0,0,.5-.5V178.1h3.3v12.1a.5.5,0,0,0,.5.5.5.5,0,0,0,.5-.5V178.1h6v2.06a.5.5,0,1,0,1,0V178.1h10.32v2.06a.51.51,0,0,0,.5.5.5.5,0,0,0,.5-.5V178.1h10.33v2.06a.5.5,0,0,0,1,0V178.1h10.33v2.06a.5.5,0,0,0,.5.5.51.51,0,0,0,.5-.5v-2c4,4.17,8.16,6.89,12.47,6.89a.5.5,0,0,0,0-1ZM126.6,177.1l0,0v0Zm35,0v-1.3a.5.5,0,0,0-.5-.5.51.51,0,0,0-.5.5v1.3H150.28v-1.3a.51.51,0,0,0-.5-.5.5.5,0,0,0-.5.5v1.3H139v-1.3a.5.5,0,0,0-.5-.5.51.51,0,0,0-.5.5v1.3H127.63v-1.16c4.27-5,8.42-11.38,12.49-17.69,7.95-12.29,16.16-25,24.78-26.22V177.1Zm34,0v-1.3a.5.5,0,0,0-1,0v1.3H184.25v-1.3a.48.48,0,0,0-.22-.4.53.53,0,0,0,.27-.13l9-9a.5.5,0,0,0,0-.7.5.5,0,0,0-.71,0l-9,9a.5.5,0,0,0,0,.71l.07,0a.5.5,0,0,0-.42.48v1.3H172.93v-1.3a.5.5,0,0,0-1,0v1.3h-6V131.94h.36c9.12,0,17.77,13.38,26.14,26.32,4.4,6.81,8.87,13.73,13.51,18.83v0Z" style="fill:#fff"></path><path d="M147.59,131.93h3.59a.5.5,0,0,0,.5-.5.5.5,0,0,0-.5-.5h-3.59a.5.5,0,0,0-.5.5A.5.5,0,0,0,147.59,131.93Z" style="fill:#fff"></path><path d="M155.31,131.93h3.6a.5.5,0,0,0,.5-.5.5.5,0,0,0-.5-.5h-3.6a.5.5,0,0,0-.5.5A.51.51,0,0,0,155.31,131.93Z" style="fill:#fff"></path><path d="M139.66,131.93h4a.5.5,0,0,0,.5-.5.5.5,0,0,0-.5-.5h-4a.5.5,0,0,0-.5.5A.5.5,0,0,0,139.66,131.93Z" style="fill:#fff"></path><path d="M130.54,131.93h4.75a.5.5,0,0,0,.5-.5.5.5,0,0,0-.5-.5h-4.75a.5.5,0,0,0-.5.5A.51.51,0,0,0,130.54,131.93Z" style="fill:#fff"></path><path d="M123.47,131.93h3a.5.5,0,0,0,.5-.5.5.5,0,0,0-.5-.5h-3a.5.5,0,0,0-.5.5A.51.51,0,0,0,123.47,131.93Z" style="fill:#fff"></path><path d="M123.47,139.4a.5.5,0,0,0,.5-.5v-4a.5.5,0,0,0-.5-.5.5.5,0,0,0-.5.5v4A.5.5,0,0,0,123.47,139.4Z" style="fill:#fff"></path><path d="M123.47,151.21a.5.5,0,0,0,.5-.5V144.6a.5.5,0,0,0-.5-.5.51.51,0,0,0-.5.5v6.11A.5.5,0,0,0,123.47,151.21Z" style="fill:#fff"></path><path d="M123.47,163.35a.5.5,0,0,0,.5-.5V157a.5.5,0,0,0-.5-.5.51.51,0,0,0-.5.5v5.82A.51.51,0,0,0,123.47,163.35Z" style="fill:#fff"></path><path d="M123.47,174.08a.5.5,0,0,0,.5-.5v-5.41a.5.5,0,0,0-.5-.5.5.5,0,0,0-.5.5v5.41A.5.5,0,0,0,123.47,174.08Z" style="fill:#fff"></path><path d="M187.4,154.23a.5.5,0,0,0-.71,0l-19,19a.5.5,0,0,0,.35.85.51.51,0,0,0,.36-.15l19-19A.51.51,0,0,0,187.4,154.23Z" style="fill:#fff"></path><path d="M183.44,150.43a.5.5,0,0,0,0-.71.51.51,0,0,0-.71,0l-15.86,15.87a.5.5,0,0,0,.35.85.51.51,0,0,0,.36-.15Z" style="fill:#fff"></path><path d="M167.69,157.39a.52.52,0,0,0,.71,0L181,144.74a.48.48,0,0,0,0-.7.5.5,0,0,0-.71,0l-12.64,12.64A.51.51,0,0,0,167.69,157.39Z" style="fill:#fff"></path><path d="M167.69,149.45a.5.5,0,0,0,.35.15.51.51,0,0,0,.36-.15l9-9a.5.5,0,0,0-.71-.71l-9,9A.5.5,0,0,0,167.69,149.45Z" style="fill:#fff"></path><path d="M167.22,142.34a.51.51,0,0,0,.36-.15l5.88-5.88a.5.5,0,0,0,0-.7.5.5,0,0,0-.71,0l-5.88,5.88a.5.5,0,0,0,.35.85Z" style="fill:#fff"></path><path d="M189.79,160.07l-15.48,15.49a.5.5,0,0,0,0,.7.51.51,0,0,0,.36.15.5.5,0,0,0,.35-.15l15.48-15.48a.5.5,0,0,0,0-.71A.51.51,0,0,0,189.79,160.07Z" style="fill:#fff"></path><path d="M197,170.11a.48.48,0,0,0-.7,0l-5.35,5.34a.51.51,0,0,0,0,.71.52.52,0,0,0,.71,0l5.34-5.35A.48.48,0,0,0,197,170.11Z" style="fill:#fff"></path><path d="M283.27,141.86H246.52V108.13a34.44,34.44,0,0,1,4.66.36h.07a.51.51,0,0,0,.5-.43.51.51,0,0,0-.42-.57,35,35,0,0,0-4.81-.37V94.86a.5.5,0,0,0-.5-.5.5.5,0,0,0-.5.5v47H208.77a.5.5,0,0,0-.5.5.51.51,0,0,0,.5.5h36.75v18a.51.51,0,0,0,.5.5.5.5,0,0,0,.5-.5v-18h36.75a.5.5,0,0,0,.5-.5A.5.5,0,0,0,283.27,141.86Z" style="fill:#fff"></path><path d="M284.1,104.68s0,0,0-.06a.43.43,0,0,0-.11-.21.55.55,0,0,0-.21-.12h-.07a.54.54,0,0,0-.18,0h0l-7.29,2.12a.5.5,0,1,0,.28,1l5.42-1.58L247.67,140a.5.5,0,0,0,0,.71.49.49,0,0,0,.35.15.51.51,0,0,0,.36-.15l34.21-34.21L281,111.91a.5.5,0,0,0,.34.62.36.36,0,0,0,.14,0,.49.49,0,0,0,.48-.36l2.12-7.29s0,0,0,0A.37.37,0,0,0,284.1,104.68Z" style="fill:#fff"></path><path d="M236.87,137.75a.5.5,0,0,0-.28,1l7.29,2.13.14,0a.58.58,0,0,0,.19,0,.62.62,0,0,0,.17-.11.53.53,0,0,0,.11-.21l0-.06a.55.55,0,0,0,0-.18s0,0,0,0l-2.12-7.29a.5.5,0,1,0-1,.28l1.58,5.41-34.22-34.21a.5.5,0,0,0-.7,0,.5.5,0,0,0,0,.71l34.21,34.21Z" style="fill:#fff"></path><path d="M280.75,141.73h0a.49.49,0,0,0,.48-.51,34.82,34.82,0,0,0-.46-4.68.49.49,0,0,0-.57-.41.49.49,0,0,0-.41.57,34.69,34.69,0,0,1,.44,4.55A.5.5,0,0,0,280.75,141.73Z" style="fill:#fff"></path><path d="M278.94,131.69a.45.45,0,0,0,.16,0,.5.5,0,0,0,.31-.63,35,35,0,0,0-1.35-3.38.5.5,0,0,0-.66-.25.49.49,0,0,0-.24.66,33.05,33.05,0,0,1,1.3,3.29A.51.51,0,0,0,278.94,131.69Z" style="fill:#fff"></path><path d="M275.29,124.12a.43.43,0,0,0,.27-.08.49.49,0,0,0,.15-.69,33.71,33.71,0,0,0-2.91-3.92.5.5,0,1,0-.76.65,33.86,33.86,0,0,1,2.83,3.81A.51.51,0,0,0,275.29,124.12Z" style="fill:#fff"></path><path d="M264.31,113.39a34.52,34.52,0,0,1,3.44,2.49.51.51,0,0,0,.31.11.5.5,0,0,0,.39-.18.52.52,0,0,0-.07-.71,35.79,35.79,0,0,0-3.54-2.56.51.51,0,0,0-.69.16A.49.49,0,0,0,264.31,113.39Z" style="fill:#fff"></path><path d="M255.68,109.49a34.53,34.53,0,0,1,4.52,1.68.54.54,0,0,0,.21,0,.5.5,0,0,0,.21-1,35.23,35.23,0,0,0-4.66-1.73.5.5,0,0,0-.62.34A.51.51,0,0,0,255.68,109.49Z" style="fill:#fff"></path><path d="M238.57,108.91h.11a33.94,33.94,0,0,1,3.61-.59.5.5,0,0,0,.44-.55.5.5,0,0,0-.55-.45,35.85,35.85,0,0,0-3.71.61.5.5,0,0,0,.1,1Z" style="fill:#fff"></path><path d="M230,112a.46.46,0,0,0,.23-.06,34.92,34.92,0,0,1,3.53-1.59.5.5,0,0,0,.29-.64.5.5,0,0,0-.65-.29,34.68,34.68,0,0,0-3.63,1.63.5.5,0,0,0,.23,1Z" style="fill:#fff"></path><path d="M223,116.87a.46.46,0,0,0,.33-.13,36.07,36.07,0,0,1,3.23-2.54.5.5,0,1,0-.57-.82,34.73,34.73,0,0,0-3.32,2.62.48.48,0,0,0,0,.7A.5.5,0,0,0,223,116.87Z" style="fill:#fff"></path><path d="M219,119.76a35.92,35.92,0,0,0-2.35,3.16.5.5,0,0,0,.14.69.57.57,0,0,0,.28.08.52.52,0,0,0,.42-.22,32.39,32.39,0,0,1,2.28-3.06.5.5,0,1,0-.77-.65Z" style="fill:#fff"></path><path d="M214.3,127a33.66,33.66,0,0,0-1.75,4.32.49.49,0,0,0,.31.63l.16,0a.5.5,0,0,0,.48-.34,33.24,33.24,0,0,1,1.7-4.2.5.5,0,0,0-.9-.44Z" style="fill:#fff"></path><path d="M211.22,136.7a36,36,0,0,0-.43,4.52.5.5,0,0,0,.48.51h0a.5.5,0,0,0,.5-.48,35.83,35.83,0,0,1,.42-4.39.5.5,0,0,0-1-.16Z" style="fill:#fff"></path><path d="M274.77,202.94a.48.48,0,0,0,.13-.48l-5.8-21.67v0a.48.48,0,0,0-.32-.32h0l-21.66-5.81a.54.54,0,0,0-.49.13l-15.86,15.87a.5.5,0,0,0-.13.48l5.81,21.67a.5.5,0,0,0,.13.22.45.45,0,0,0,.22.13l21.66,5.81h0a.59.59,0,0,0,.23,0h0l.05,0,.1,0,.05,0h0Zm-36.91,9.45,14.63-14.64.69,2.56a.48.48,0,0,0,.13.23.5.5,0,0,0,.84-.49l-.69-2.56,13.31,3.57,6.68,1.79-14.63,14.64-.75-2.78a.48.48,0,0,0-.61-.35.49.49,0,0,0-.35.61l.74,2.78-6.29-1.69Zm-5.09-17-1-3.66,1,.26a.53.53,0,0,0,.35.14h.19l8,2.15h-7.6a.51.51,0,0,0-.5.5.51.51,0,0,0,.15.36.5.5,0,0,0,.35.14h11.34l6.72,1.8-14.64,14.64Zm32.57-11.15a.51.51,0,0,0,.71,0l2.31-2.31,5.35,20-20-5.35,1.5-1.51a.5.5,0,0,0,0-.71.5.5,0,0,0-.7,0L253,195.82l-5.36-20,20,5.36-2.31,2.31A.5.5,0,0,0,265.34,184.2Zm-17-1.9,3.7,13.78-3.12-.84h1.16a.5.5,0,0,0,.5-.5.51.51,0,0,0-.5-.5H245.2l-8-2.15h12.3a.5.5,0,0,0,0-1h-16l-1.38-.37,14.64-14.64Z" style="fill:#fff"></path><path d="M259.47,190.07a.5.5,0,0,0-.71,0l-2.4,2.4a.5.5,0,0,0,0,.7.5.5,0,0,0,.71,0l2.4-2.4A.48.48,0,0,0,259.47,190.07Z" style="fill:#fff"></path><path d="M261.15,187.68a.5.5,0,0,0,0,.71.48.48,0,0,0,.7,0l2.18-2.17a.51.51,0,0,0,0-.71.5.5,0,0,0-.71,0Z" style="fill:#fff"></path><path d="M257.2,211.44l-.74-2.76a.5.5,0,1,0-1,.25l.74,2.77a.45.45,0,0,0,.13.22.49.49,0,0,0,.48.13A.5.5,0,0,0,257.2,211.44Z" style="fill:#fff"></path><path d="M255.68,205.79l-.78-2.91a.5.5,0,0,0-.61-.36.51.51,0,0,0-.35.62l.78,2.91a.48.48,0,0,0,.13.23.5.5,0,0,0,.83-.49Z" style="fill:#fff"></path><path d="M244,179.93a.49.49,0,0,0,.35.15h2.07a.5.5,0,0,0,0-1h-2.07a.5.5,0,0,0-.35.85Z" style="fill:#fff"></path><path d="M239.51,207.4h-1.42a.5.5,0,0,0-.5.5.49.49,0,0,0,.15.35.51.51,0,0,0,.35.15h1.42a.5.5,0,0,0,0-1Z" style="fill:#fff"></path><path d="M241.1,182.48a.48.48,0,0,0,.14.35.51.51,0,0,0,.36.15h4.72a.5.5,0,0,0,0-1H241.6A.5.5,0,0,0,241.1,182.48Z" style="fill:#fff"></path><path d="M242.51,205a.5.5,0,0,0-.5-.5h-4.72a.5.5,0,0,0-.5.5.48.48,0,0,0,.14.35.51.51,0,0,0,.36.15H242A.5.5,0,0,0,242.51,205Z" style="fill:#fff"></path><path d="M238.28,185.3a.48.48,0,0,0,.14.35.48.48,0,0,0,.36.15h8.8a.5.5,0,0,0,.5-.5.51.51,0,0,0-.5-.5h-8.8A.5.5,0,0,0,238.28,185.3Z" style="fill:#fff"></path><path d="M235.12,188.45a.51.51,0,0,0,.15.36.48.48,0,0,0,.35.14h13a.5.5,0,0,0,.5-.5.51.51,0,0,0-.5-.5h-13A.51.51,0,0,0,235.12,188.45Z" style="fill:#fff"></path><path d="M246,201.56a.5.5,0,0,0-.5-.5h-9.28a.51.51,0,0,0-.5.5.53.53,0,0,0,.15.36.48.48,0,0,0,.35.14h9.28A.5.5,0,0,0,246,201.56Z" style="fill:#fff"></path><path d="M249.33,198.2a.51.51,0,0,0-.5-.5H234.68a.5.5,0,0,0-.5.5.52.52,0,0,0,.14.36.51.51,0,0,0,.36.14h14.15A.5.5,0,0,0,249.33,198.2Z" style="fill:#fff"></path><path d="M222.3,174.24a.48.48,0,0,1-.23.31.9.9,0,0,1-.36.14.47.47,0,0,1-.31-.09,1.25,1.25,0,0,1-.23-.23,1.57,1.57,0,0,1-.2-.3,1.64,1.64,0,0,1-.14-.33q-.21-.51-.45-1c-.15-.34-.3-.68-.43-1a5.51,5.51,0,0,0-.59.78q-.26.41-.48.84a3.73,3.73,0,0,1-.2.4c-.07.13-.13.26-.19.4l-.09.15-.1.17-.12.14a.31.31,0,0,1-.15.08.56.56,0,0,1-.29-.1.8.8,0,0,1-.33-.49,1,1,0,0,1,0-.3,1.59,1.59,0,0,1,.06-.3,2.24,2.24,0,0,1,.13-.27l.16-.26.17-.26.44-.57.44-.58.3-.47c.09-.16.19-.32.28-.49l-.39-.81a8.75,8.75,0,0,1-.37-.83l-.16-.36c0-.12-.09-.24-.13-.36a2.34,2.34,0,0,1-.09-.38,1.59,1.59,0,0,1,0-.38.38.38,0,0,1,.06-.16.32.32,0,0,1,.12-.11l.15-.07a1.14,1.14,0,0,1,.47,0,.33.33,0,0,1,.23.17.85.85,0,0,1,.13.25c0,.09.07.19.1.27.11.29.21.57.3.85s.19.57.3.85a3.43,3.43,0,0,0,.51-.63c.15-.23.28-.46.42-.7a2.3,2.3,0,0,1,.15-.32c.06-.1.11-.21.16-.31a.83.83,0,0,0,.08-.12l.08-.14.1-.12a.36.36,0,0,1,.12-.08.58.58,0,0,1,.26.09.72.72,0,0,1,.22.17,1,1,0,0,1,.15.24.87.87,0,0,1,.05.28,2.85,2.85,0,0,1-.29.75,6.2,6.2,0,0,1-.44.69c-.17.22-.34.43-.53.64s-.35.43-.52.64a7.53,7.53,0,0,1,.41.73c.13.24.25.5.38.75s.22.47.33.69.22.45.34.67.12.27.17.4A1.27,1.27,0,0,1,222.3,174.24Z" style="fill:#fff"></path><path d="M173.51,100.92a1.22,1.22,0,0,1-.17.39c-.08.13-.16.25-.23.38s-.2.26-.3.39l-.28.41c-.24.34-.46.69-.68,1.05s-.41.72-.59,1.09-.33.75-.47,1.14a9.8,9.8,0,0,0-.32,1.18c0,.1,0,.2-.07.3a1,1,0,0,1-.1.29.63.63,0,0,1-.21.22.42.42,0,0,1-.29,0,.33.33,0,0,1-.2,0,.44.44,0,0,1-.13-.14.62.62,0,0,1-.07-.19.5.5,0,0,1,0-.21,5.22,5.22,0,0,1,.07-.57c0-.19.07-.38.11-.58s.09-.38.15-.57a4.33,4.33,0,0,1,.22-.56,1.83,1.83,0,0,1-.35-.44,3.06,3.06,0,0,1-.26-.51,5.22,5.22,0,0,1-.18-.56c-.05-.19-.1-.38-.14-.57a7.74,7.74,0,0,1-.17-1.09,4.22,4.22,0,0,1,0-1.12.83.83,0,0,1,0-.15.64.64,0,0,1,.08-.14.38.38,0,0,1,.1-.12.23.23,0,0,1,.14,0,.37.37,0,0,1,.23,0,.56.56,0,0,1,.19.09.43.43,0,0,1,.13.17.39.39,0,0,1,.06.2c0,.18,0,.34.06.51a4.38,4.38,0,0,1,0,.51c0,.19.06.37.1.55s.09.35.14.54a3.35,3.35,0,0,0,.16.54,4.9,4.9,0,0,0,.24.52c.2-.43.43-.84.66-1.24s.48-.8.74-1.21q.14-.25.3-.51c.11-.16.21-.33.32-.5a.35.35,0,0,1,.17-.17.52.52,0,0,1,.24,0,.64.64,0,0,1,.24.1.65.65,0,0,1,.15.18.85.85,0,0,1,.09.24A1.1,1.1,0,0,1,173.51,100.92Z" style="fill:#fff"></path><path d="M254.27,121.68c0,.19-.05.37-.08.56s-.09.37-.14.56-.12.37-.19.55l-.21.54c-.08.15-.15.31-.22.48s-.15.34-.24.5a2.69,2.69,0,0,1-.31.44,1.18,1.18,0,0,1-.42.31.24.24,0,0,1-.27-.29v-.12s0,0,0-.06a.13.13,0,0,1,0-.06c0-.13.08-.26.13-.38s.11-.25.17-.37.12-.24.18-.36l.18-.37c.09-.17.17-.35.25-.53a2.81,2.81,0,0,0,.18-.56,1.78,1.78,0,0,1-.32.35,2,2,0,0,1-.39.25,3.47,3.47,0,0,1-.45.17,1.19,1.19,0,0,1-.46.06,1.5,1.5,0,0,1-.55-.11,1,1,0,0,1-.42-.34,1.08,1.08,0,0,1-.21-.49,2,2,0,0,1,0-.54,2.77,2.77,0,0,1,.14-.62,3,3,0,0,1,.27-.57,2.8,2.8,0,0,1,.41-.5,2.14,2.14,0,0,1,.52-.37,1.44,1.44,0,0,1,.4-.18,1.67,1.67,0,0,1,.44-.06,1.5,1.5,0,0,1,.37.05,2.07,2.07,0,0,1,.34.15,2,2,0,0,1,.29.22,1.23,1.23,0,0,1,.22.29,1.65,1.65,0,0,1,.3.66A2.59,2.59,0,0,1,254.27,121.68Zm-1-.65a.3.3,0,0,0,0-.21.38.38,0,0,0-.14-.14l-.2-.07-.21,0a1.1,1.1,0,0,0-.51.08,1.37,1.37,0,0,0-.42.29,1.6,1.6,0,0,0-.3.42,1.52,1.52,0,0,0-.12.5.89.89,0,0,0,0,.23.54.54,0,0,0,.05.22.4.4,0,0,0,.13.16.3.3,0,0,0,.22.05.82.82,0,0,0,.4-.1,2.12,2.12,0,0,0,.36-.21,2.66,2.66,0,0,0,.31-.26,1.59,1.59,0,0,0,.25-.33,2.59,2.59,0,0,0,.14-.29A1.16,1.16,0,0,0,253.29,121Z" style="fill:#fff"></path><path d="M258.79,122.8a6,6,0,0,1-.19.94,4.26,4.26,0,0,1-.38.88q-.14.19-.3.39a2.91,2.91,0,0,1-.37.33,1.81,1.81,0,0,1-.44.22,1.25,1.25,0,0,1-.47.07,1,1,0,0,1-.46-.1,1.15,1.15,0,0,1-.37-.25,1.79,1.79,0,0,1-.3-.36,3.5,3.5,0,0,1-.47-1.28,4.21,4.21,0,0,1,0-.94,5.1,5.1,0,0,1,.53-1.89,3.94,3.94,0,0,1,.25-.43,2.44,2.44,0,0,1,.32-.4,1.88,1.88,0,0,1,.39-.29.94.94,0,0,1,.47-.12,1.58,1.58,0,0,1,.71.15,1.69,1.69,0,0,1,.52.39,2.24,2.24,0,0,1,.35.58,3.92,3.92,0,0,1,.2.69,4.39,4.39,0,0,1,.07.72A5.24,5.24,0,0,1,258.79,122.8Zm-.9-.13c0-.23,0-.45,0-.67a3,3,0,0,0-.07-.66,1.39,1.39,0,0,0-.1-.33,1.2,1.2,0,0,0-.16-.27.69.69,0,0,0-.23-.19.51.51,0,0,0-.3-.06.64.64,0,0,0-.31.11,1.2,1.2,0,0,0-.24.26,1.59,1.59,0,0,0-.16.32l-.13.31c-.08.24-.15.48-.21.71a5.68,5.68,0,0,0-.11.72c0,.1,0,.21,0,.33s0,.24,0,.36a2,2,0,0,0,.06.35,1.34,1.34,0,0,0,.12.3.67.67,0,0,0,.21.23.68.68,0,0,0,.33.11.65.65,0,0,0,.31,0,1,1,0,0,0,.26-.16.8.8,0,0,0,.22-.23,1.91,1.91,0,0,0,.16-.27,3.07,3.07,0,0,0,.22-.6A3.21,3.21,0,0,0,257.89,122.67Z" style="fill:#fff"></path><path d="M262.27,120.79a1,1,0,0,1-.15.47,1.46,1.46,0,0,1-.33.37,2,2,0,0,1-.44.27,1.19,1.19,0,0,1-.49.1.92.92,0,0,1-.43-.11,1.09,1.09,0,0,1-.33-.27,1,1,0,0,1-.22-.38,1.31,1.31,0,0,1-.07-.44,1.34,1.34,0,0,1,.15-.48,1.53,1.53,0,0,1,.31-.4,1.33,1.33,0,0,1,.43-.28,1.19,1.19,0,0,1,.49-.1,1.06,1.06,0,0,1,.44.11,1.07,1.07,0,0,1,.34.29,1.15,1.15,0,0,1,.24.39A.9.9,0,0,1,262.27,120.79Zm-.74,0a.3.3,0,0,0,0-.21.51.51,0,0,0-.13-.16.57.57,0,0,0-.18-.12.46.46,0,0,0-.21-.05.35.35,0,0,0-.17.06.53.53,0,0,0-.14.12.62.62,0,0,0-.1.16,1.54,1.54,0,0,0-.05.17.67.67,0,0,0,0,.2.62.62,0,0,0,.07.19.37.37,0,0,0,.13.12.27.27,0,0,0,.2,0,.55.55,0,0,0,.22,0,.53.53,0,0,0,.21-.11.39.39,0,0,0,.14-.17A.42.42,0,0,0,261.53,120.75Z" style="fill:#fff"></path></g><g id="Desk"><path d="M402.49,241.88a22.79,22.79,0,0,1-4.22.42A21.68,21.68,0,0,1,382.83,236l-.63.63a22.53,22.53,0,0,0,16.07,6.61,23.48,23.48,0,0,0,4.45-.45,1,1,0,0,1-.26-.69A.86.86,0,0,1,402.49,241.88Z" style="fill:#407BFF"></path><rect x="400.83" y="241.21" width="4.31" height="12.47" transform="translate(-0.69 1.13) rotate(-0.16)" style="fill:#407BFF"></rect><g style="opacity:0.2"><rect x="400.83" y="241.21" width="4.31" height="12.47" transform="translate(-0.69 1.13) rotate(-0.16)"></rect></g><path d="M389.88,258.81c0-3.25,5.85-5.91,13.09-5.93s13.12,2.6,13.13,5.86h0a49.16,49.16,0,0,1-25.9.16Z" style="fill:#407BFF"></path><rect x="377.42" y="221.14" width="44.4" height="0.89" transform="translate(-38.84 350.22) rotate(-45.36)" style="fill:#407BFF"></rect><path d="M420.91,220.42a22.51,22.51,0,0,0-6.69-16l-.63.63a21.82,21.82,0,0,1-11.1,36.86.86.86,0,0,0,0,.17,1,1,0,0,0,.26.69,22.71,22.71,0,0,0,18.19-22.32Z" style="fill:#407BFF"></path><circle cx="399.79" cy="221.59" r="16.16" transform="translate(14.49 467.5) rotate(-61.55)" style="fill:#407BFF"></circle><path d="M405.9,227.48l-.52-.5c3.72-3.86,6.74-10.9,5.32-16.91l.7-.16C412.89,216.17,409.76,223.49,405.9,227.48Z" style="fill:#407BFF"></path><path d="M388.87,233.25l.14-.72c6.05,1.21,13-2.05,16.71-5.91l.52.51C402.38,231.12,395.18,234.51,388.87,233.25Z" style="fill:#407BFF"></path><path d="M394.27,216.25l-.52-.5c3.86-4,11.07-7.38,17.37-6.12l-.14.71C404.93,209.13,398,212.4,394.27,216.25Z" style="fill:#407BFF"></path><path d="M388.59,233c-1.48-6.26,1.65-13.58,5.5-17.58l.53.51c-3.72,3.85-6.75,10.9-5.32,16.9Z" style="fill:#407BFF"></path><rect x="383.66" y="221.25" width="32.33" height="0.73" transform="translate(-37.33 355.3) rotate(-46)" style="fill:#407BFF"></rect><rect x="405.44" y="201.74" width="0.73" height="27.36" transform="translate(-31.04 357.72) rotate(-46)" style="fill:#407BFF"></rect><rect x="399.27" y="205.66" width="0.73" height="32.31" transform="translate(-37.53 355.23) rotate(-46)" style="fill:#407BFF"></rect><rect x="393.11" y="214.88" width="0.73" height="26.64" transform="translate(-44 352.74) rotate(-46)" style="fill:#407BFF"></rect><g style="opacity:0.2"><path d="M405.9,227.48l-.52-.5c3.72-3.86,6.74-10.9,5.32-16.91l.7-.16C412.89,216.17,409.76,223.49,405.9,227.48Z"></path><path d="M388.87,233.25l.14-.72c6.05,1.21,13-2.05,16.71-5.91l.52.51C402.38,231.12,395.18,234.51,388.87,233.25Z"></path><path d="M394.27,216.25l-.52-.5c3.86-4,11.07-7.38,17.37-6.12l-.14.71C404.93,209.13,398,212.4,394.27,216.25Z"></path><path d="M388.59,233c-1.48-6.26,1.65-13.58,5.5-17.58l.53.51c-3.72,3.85-6.75,10.9-5.32,16.9Z"></path><rect x="383.66" y="221.25" width="32.33" height="0.73" transform="translate(-37.33 355.3) rotate(-46)"></rect><rect x="405.44" y="201.74" width="0.73" height="27.36" transform="translate(-31.04 357.72) rotate(-46)"></rect><rect x="399.27" y="205.66" width="0.73" height="32.31" transform="translate(-37.53 355.23) rotate(-46)"></rect><rect x="393.11" y="214.88" width="0.73" height="26.64" transform="translate(-44 352.74) rotate(-46)"></rect></g><path d="M301.74,238.27v5.58a.53.53,0,0,0,0,1.06l6.37,0V237.2h-6.37A.54.54,0,0,0,301.74,238.27Z" style="fill:#407BFF"></path><path d="M301.74,238.27v5.58a.53.53,0,0,0,0,1.06l6.37,0V237.2h-6.37A.54.54,0,0,0,301.74,238.27Z" style="fill:#fff;opacity:0.30000000000000004"></path><rect x="301.74" y="238.28" width="4.96" height="5.57" style="fill:#407BFF"></rect><rect x="301.74" y="238.28" width="4.96" height="5.57" style="fill:#fff;opacity:0.6000000000000001"></rect><path d="M305.65,237.74H333c1.18,0,2.13,1.48,2.13,3.32s-.95,3.32-2.13,3.32H305.65Z" style="fill:#407BFF"></path><path d="M305.65,237.74H333c1.18,0,2.13,1.48,2.13,3.32s-.95,3.32-2.13,3.32H305.65Z" style="fill:#fff;opacity:0.9"></path><path d="M305.65,244.91c5.63,0,21.43.11,27.06,0,3.85-.06,4.06-7.45.28-7.71-2.64-.18-5.34,0-8,0H305.65a.54.54,0,0,0,0,1.07h26.17c1.23,0,2.11,0,2.59,1.47.41,1.26.28,3.83-1.4,4.11a3.74,3.74,0,0,1-.58,0H305.65a.53.53,0,0,0,0,1.06Z" style="fill:#407BFF"></path><g style="opacity:0.2"><path d="M305.65,244.91c5.63,0,21.43.11,27.06,0,3.85-.06,4.06-7.45.28-7.71-2.64-.18-5.34,0-8,0H305.65a.54.54,0,0,0,0,1.07h26.17c1.23,0,2.11,0,2.59,1.47.41,1.26.28,3.83-1.4,4.11a3.74,3.74,0,0,1-.58,0H305.65a.53.53,0,0,0,0,1.06Z" style="fill:#fff"></path></g><path d="M302.69,245.8V251a.5.5,0,0,0,0,1c2,0,3.93,0,5.9,0v-7.17h-5.9A.5.5,0,0,0,302.69,245.8Z" style="fill:#407BFF"></path><path d="M302.69,245.8V251a.5.5,0,0,0,0,1c2,0,3.93,0,5.9,0v-7.17h-5.9A.5.5,0,0,0,302.69,245.8Z" style="fill:#fff;opacity:0.30000000000000004"></path><rect x="302.69" y="245.8" width="4.59" height="5.16" style="fill:#407BFF"></rect><rect x="302.69" y="245.8" width="4.59" height="5.16" style="fill:#fff;opacity:0.6000000000000001"></rect><path d="M306.31,245.3h25.34c1.09,0,2,1.38,2,3.08s-.89,3.08-2,3.08H306.31Z" style="fill:#407BFF"></path><path d="M306.31,245.3h25.34c1.09,0,2,1.38,2,3.08s-.89,3.08-2,3.08H306.31Z" style="fill:#fff;opacity:0.9"></path><path d="M306.31,252c5.21,0,19.85.09,25.06,0,3.57-.06,3.76-6.9.26-7.14-2.44-.17-4.95,0-7.39,0H306.31a.5.5,0,0,0,0,1h24.24c1.14,0,2,0,2.4,1.36.38,1.16.26,3.54-1.3,3.8a3.25,3.25,0,0,1-.54,0h-24.8a.5.5,0,0,0,0,1Z" style="fill:#407BFF"></path><path d="M299.74,253v6.14a.59.59,0,0,0,0,1.18l7,0v-8.53h-7A.59.59,0,0,0,299.74,253Z" style="fill:#407BFF"></path><path d="M299.74,253v6.14a.59.59,0,0,0,0,1.18l7,0v-8.53h-7A.59.59,0,0,0,299.74,253Z" style="fill:#fff;opacity:0.30000000000000004"></path><rect x="299.74" y="253.05" width="5.46" height="6.14" style="fill:#407BFF"></rect><rect x="299.74" y="253.05" width="5.46" height="6.14" style="fill:#fff;opacity:0.6000000000000001"></rect><path d="M304.06,252.45H334.2c1.31,0,2.36,1.64,2.36,3.66s-1.05,3.66-2.36,3.66H304.06Z" style="fill:#407BFF"></path><path d="M304.06,252.45H334.2c1.31,0,2.36,1.64,2.36,3.66s-1.05,3.66-2.36,3.66H304.06Z" style="fill:#fff;opacity:0.9"></path><path d="M304.06,260.36c6.2,0,23.62.11,29.82,0,4.24-.08,4.47-8.21.31-8.5-2.91-.2-5.89,0-8.8,0H304.06a.59.59,0,0,0,0,1.18H332.9c1.36,0,2.33,0,2.85,1.62.46,1.38.32,4.22-1.55,4.52a3.31,3.31,0,0,1-.63,0H304.06a.59.59,0,0,0,0,1.18Z" style="fill:#407BFF"></path><g style="opacity:0.2"><path d="M304.06,260.36c6.2,0,23.62.11,29.82,0,4.24-.08,4.47-8.21.31-8.5-2.91-.2-5.89,0-8.8,0H304.06a.59.59,0,0,0,0,1.18H332.9c1.36,0,2.33,0,2.85,1.62.46,1.38.32,4.22-1.55,4.52a3.31,3.31,0,0,1-.63,0H304.06a.59.59,0,0,0,0,1.18Z"></path></g><path d="M313.11,237.56a6.65,6.65,0,0,1-5.09.08,12.62,12.62,0,0,1-4.3-2.9,12,12,0,0,1-3-4.22,6.09,6.09,0,0,1,.17-5.05,6.32,6.32,0,0,1,4-2.88,8.86,8.86,0,0,1,11.08,9C315.85,234,315.47,236.42,313.11,237.56Z" style="fill:#407BFF"></path><path d="M310,211.17A13.73,13.73,0,0,1,326,220.3c.65,2.25.73,4.75,2.07,6.67.86,1.22,2.21,2.2,2.49,3.67.36,1.93-1.3,3.6-2.8,4.86a14.81,14.81,0,0,1-4.65,3,5.06,5.06,0,0,1-5.2-.9c-.64-.66-3.13-3.54-4-3.25s-3.13,3.1-4.68,1.8c-.95-.8-1.52-.48-.73-1.43-1.46.6,1.2,3.31-.5,2.91-4.78-1.14-8.1-6.69-9-8.65-1.55-3.39-.68-7.53,1.45-10.59A19.15,19.15,0,0,1,310,211.17Z" style="fill:#407BFF"></path><g style="opacity:0.9"><path d="M310,211.17A13.73,13.73,0,0,1,326,220.3c.65,2.25.73,4.75,2.07,6.67.86,1.22,2.21,2.2,2.49,3.67.36,1.93-1.3,3.6-2.8,4.86a14.81,14.81,0,0,1-4.65,3,5.06,5.06,0,0,1-5.2-.9c-.64-.66-3.13-3.54-4-3.25s-3.13,3.1-4.68,1.8c-.95-.8-1.52-.48-.73-1.43-1.46.6,1.2,3.31-.5,2.91-4.78-1.14-8.1-6.69-9-8.65-1.55-3.39-.68-7.53,1.45-10.59A19.15,19.15,0,0,1,310,211.17Z" style="fill:#fff"></path></g><path d="M314,221.45a5.37,5.37,0,0,1,.73,4.32,4.55,4.55,0,0,1-2.65,3.39,3.72,3.72,0,0,1-3.95-1.2,4.85,4.85,0,0,1-.89-4.14c.3-1.29,1.3-3.26,2.6-3.83S313.12,220.3,314,221.45Z" style="fill:#407BFF"></path><path d="M315.9,219.52a4.79,4.79,0,0,0,3,2.55,4,4,0,0,0,3.82-.44,3.33,3.33,0,0,0,.93-3.57,4.31,4.31,0,0,0-2.75-2.6c-1.13-.38-3.1-.53-4.14.2A3.47,3.47,0,0,0,315.9,219.52Z" style="fill:#407BFF"></path><path d="M320.34,224a2.05,2.05,0,0,1,1.22.55,1.24,1.24,0,0,1-.43,1.77,1.83,1.83,0,0,1-1.95-.25,1.88,1.88,0,0,1-.12,1.34,1,1,0,0,1-1.16.5,1.08,1.08,0,0,1-.61-.88,3.17,3.17,0,0,1,.11-1.1c.11-.5.21-2.11.67-2.36S319.88,223.87,320.34,224Z" style="fill:#407BFF"></path><path d="M326.71,227c.05.37.61.74.65,1.1a7.19,7.19,0,0,1-1.05,1.32,41.88,41.88,0,0,1-7.45,5.41,4.07,4.07,0,0,0-2.5-1.44,2.18,2.18,0,0,1,2.53.85,32,32,0,0,0,8-6.13c-.31-.6-1-1.64,0-2.12C326.86,226,326.59,226.07,326.71,227Z" style="fill:#407BFF"></path><rect x="275.86" y="259.3" width="156.66" height="7.68" style="fill:#407BFF"></rect><rect x="275.86" y="259.3" width="156.66" height="7.68" style="fill:#fff;opacity:0.30000000000000004"></rect><polygon points="405.71 414.02 303.63 414.02 283.39 266.92 425.95 266.92 405.71 414.02" style="fill:#407BFF"></polygon><polygon points="405.71 414.02 303.63 414.02 283.39 266.92 425.95 266.92 405.71 414.02" style="fill:#fff;opacity:0.5"></polygon><polygon points="396.81 414.3 311.81 414.3 297.32 288.86 411.06 288.86 396.81 414.3" style="fill:#fff;opacity:0.1"></polygon></g><g id="Character"><polygon points="179.28 253.24 188.3 294.92 173.28 295.83 179.28 253.24" style="fill:#407BFF"></polygon><polygon points="179.28 253.24 188.3 294.92 173.28 295.83 179.28 253.24" style="fill:#fff;opacity:0.6000000000000001"></polygon><polygon points="202.68 382.29 202.32 400.14 194.14 400.14 193.07 381.46 202.68 382.29" style="fill:#ffb573"></polygon><polygon points="193.74 393.21 193.49 388.8 202.56 388.44 202.46 393.21 193.74 393.21" style="opacity:0.1"></polygon><path d="M203.87,399.76a.25.25,0,0,1-.18-.19.24.24,0,0,1,.1-.25c.13-.09,3.2-2.07,4.69-1.62a1.17,1.17,0,0,1,.68.54,1,1,0,0,1,0,1c-.36.53-1.5.76-2.6.76A14.68,14.68,0,0,1,203.87,399.76Zm.67-.32c1.67.22,3.91.19,4.31-.45.06-.08.11-.22,0-.51a.6.6,0,0,0-.42-.33,1.45,1.45,0,0,0-.41-.06A9.12,9.12,0,0,0,204.54,399.44Z" style="fill:#407BFF"></path><path d="M203.75,399.74a.22.22,0,0,1-.09-.21c0-.12.19-2.79,1.3-3.82a1.46,1.46,0,0,1,1.16-.41c.59.07.77.39.8.66.21,1.1-1.88,3.25-2.93,3.78a.1.1,0,0,1-.09,0A.16.16,0,0,1,203.75,399.74Zm2.24-4a1,1,0,0,0-.72.29,5.85,5.85,0,0,0-1.12,3c1.09-.73,2.46-2.41,2.39-3.07,0-.06,0-.23-.43-.27l-.12,0Z" style="fill:#407BFF"></path><path d="M202.93,398.38l-9.71,0a.81.81,0,0,0-.76.68l-1.65,8.83a1.49,1.49,0,0,0,1,1.75,1.26,1.26,0,0,0,.27,0c3.53-.09,6.66-.32,11-.33,5.18,0,3.88.67,10,.74,3.67,0,4.21-4.61,2.65-4.83-7.12-1-7.91-3.35-10.7-6.15A3,3,0,0,0,202.93,398.38Z" style="fill:#263238"></path><polygon points="160.23 379.63 155.69 396.77 147.78 394.66 151.13 376.38 160.23 379.63" style="fill:#ffb573"></polygon><polygon points="157.36 390.45 148.92 388.46 150.19 381.5 159.23 383.39 157.36 390.45" style="opacity:0.1"></polygon><path d="M157,397.54a.25.25,0,0,1-.13-.22.22.22,0,0,1,.14-.22c.14-.06,3.51-1.41,4.9-.68a1.2,1.2,0,0,1,.57.66,1,1,0,0,1-.15,1c-.45.45-1.61.45-2.7.24A14.69,14.69,0,0,1,157,397.54Zm.72-.18c1.59.54,3.8.95,4.31.39.08-.07.15-.19,0-.51a.63.63,0,0,0-.36-.4,1.28,1.28,0,0,0-.39-.13A8.85,8.85,0,0,0,157.68,397.36Z" style="fill:#407BFF"></path><path d="M156.85,397.5a.24.24,0,0,1,0-.22c0-.12.7-2.69,2-3.49a1.41,1.41,0,0,1,1.21-.17c.56.17.69.52.67.79,0,1.12-2.45,2.83-3.58,3.14a.08.08,0,0,1-.08,0A.17.17,0,0,1,156.85,397.5Zm2.93-3.48a1,1,0,0,0-.76.15,5.58,5.58,0,0,0-1.65,2.75c1.2-.5,2.85-1.88,2.9-2.55,0-.06,0-.23-.37-.34Z" style="fill:#407BFF"></path><path d="M156.3,396l-9.53-1.84a.78.78,0,0,0-.86.52L142.69,403a1.48,1.48,0,0,0,.66,1.9,1.14,1.14,0,0,0,.26.09c3.46.61,6.57,1,10.87,1.83,5.09,1,3.68,1.42,9.65,2.68,3.61.75,5-3.7,3.5-4.22-6.82-2.33-7.16-4.82-9.39-8.1A3,3,0,0,0,156.3,396Z" style="fill:#263238"></path><path d="M195.12,228.26s9.77,70.22,10.92,92.63c.89,17.53.33,65.24.33,65.24H191.71l-.35-6.13a736.4,736.4,0,0,0-16.63-119.16l-6.84-30.55Z" style="fill:#263238"></path><path d="M175.63,274.1l5.79-29,.94,3.71a143.05,143.05,0,0,1,3,54l-1,7.6C183.42,306.4,179.25,284.46,175.63,274.1Z" style="opacity:0.5"></path><path d="M185.42,228.58s-4.08,85.61-6.44,98.77c-2.77,15.48-18.35,56.34-18.35,56.34l-11.33-3s4.62-31.51,7.49-50.25c2.44-15.94,3.05-43.24,3.51-61.14,0,0-4.2-29.66-1.58-37.36Z" style="fill:#263238"></path><polygon points="165.13 381.28 162.09 387.94 146.05 383.22 146.77 377.34 165.13 381.28" style="fill:#407BFF"></polygon><polygon points="207.87 382.74 207.45 390 189.62 389.83 189.07 383.03 207.87 382.74" style="fill:#407BFF"></polygon><path d="M179.23,130s-.46-10-8.55-5.23Z" style="fill:#263238"></path><path d="M179.23,130s-.46-10-8.55-5.23Z" style="fill:#fff;opacity:0.7000000000000001"></path><path d="M225.94,141.09l2.41-5.29v-7.27a3.37,3.37,0,0,1,1.9-3l3.71-1.82a3.38,3.38,0,0,1,4.42,1.37l.73,1.29a3.37,3.37,0,0,1-.62,4.1h0a3.33,3.33,0,0,0-1,2l-.16,1.12a3.42,3.42,0,0,1-1.59,2.41l-1.81,1.1-2.77,6.32Z" style="fill:#ffb573"></path><polygon points="231.97 143.36 233.48 140.34 226.69 136.18 225.25 139.6 231.97 143.36" style="fill:#263238"></polygon><polygon points="231.97 143.36 233.48 140.34 226.69 136.18 225.25 139.6 231.97 143.36" style="fill:#fff;opacity:0.7000000000000001"></polygon><path d="M184.72,163.22l11,.09a37,37,0,0,0,25.51-18.71l3.94-7.22,8.35,5.62-8.39,16.25c-4,7.83-10.54,10.48-13.83,11.09L187.17,177Z" style="fill:#407BFF"></path><path d="M184.72,163.22l11,.09a37,37,0,0,0,25.51-18.71l3.94-7.22,8.35,5.62-8.39,16.25c-4,7.83-10.54,10.48-13.83,11.09L187.17,177Z" style="fill:#fff;opacity:0.8"></path><polygon points="212.67 169.8 188.28 176.84 188.01 174.44 192.25 173.43 212.67 169.8" style="opacity:0.2"></polygon><path d="M194,175.77l3,53.91h0a91,91,0,0,1-35.68,4l-4.1-.36-7.67-56.07a7.19,7.19,0,0,1,5.33-7.91l25.66-6.68,6.65.9C191.62,162.42,193.74,171.22,194,175.77Z" style="fill:#407BFF"></path><path d="M144.19,296.67,149,263.36a313.57,313.57,0,0,0,.55-86.11h0a7.19,7.19,0,0,1,5.33-7.91l8.17-2.13h0S165,211,165,225.6c0,2.44,0,5.52-.07,9,0,.7,0,1.42,0,2.15v0c-.1,5.55-.26,12-.44,18.54v.35c-.08,2.55-.15,5.12-.22,7.66v.05c-.09,3-.19,6-.28,8.91v.19c-.45,14.17-.86,25.66-.86,25.66Z" style="fill:#407BFF"></path><path d="M144.19,296.67,149,263.36a313.57,313.57,0,0,0,.55-86.11h0a7.19,7.19,0,0,1,5.33-7.91l8.17-2.13h0S165,211,165,225.6c0,2.44,0,5.52-.07,9,0,.7,0,1.42,0,2.15v0c-.1,5.55-.26,12-.44,18.54v.35c-.08,2.55-.15,5.12-.22,7.66v.05c-.09,3-.19,6-.28,8.91v.19c-.45,14.17-.86,25.66-.86,25.66Z" style="fill:#fff;opacity:0.8"></path><path d="M190.35,232.29l-1.14-8.66-8.64-61,6.65.9c4.4-1.14,6.52,7.66,6.77,12.21l.95,17.68A313.15,313.15,0,0,0,201.22,241l11.45,54.38L199,298.19l-8.66-65.9Z" style="fill:#407BFF"></path><path d="M190.35,232.29l-1.14-8.66-8.64-61,6.65.9c4.4-1.14,6.52,7.66,6.77,12.21l.95,17.68A313.15,313.15,0,0,0,201.22,241l11.45,54.38L199,298.19l-8.66-65.9Z" style="fill:#fff;opacity:0.8"></path><path d="M164.63,208.87l-5.51,1-3.38-30.47-4.5,10.36,4,30.33,9.66-1.24C164.83,215.89,164.74,212.48,164.63,208.87Z" style="opacity:0.2"></path><path d="M178.24,165.75l-2.62,3.34-4.45.71-7.2-2.18a2.14,2.14,0,0,1,.09-.34c1.9-5.09-.41-13.9-2.16-18.92l12.54,7.92C174.07,159.94,174.74,163.89,178.24,165.75Z" style="fill:#ffb573"></path><path d="M169.62,155s2.37.53,4.82,1.31a13.05,13.05,0,0,0,.39,5.15c-6,.69-9.31-3.06-10.86-5.7-.16-.77-.34-1.53-.53-2.28Z" style="opacity:0.1"></path><polygon points="178.97 168.44 174.77 175.24 167.69 170.91 169.26 168.44 176.89 167.23 178.97 168.44" style="fill:#263238"></polygon><polygon points="178.97 168.44 174.77 175.24 167.69 170.91 169.26 168.44 176.89 167.23 178.97 168.44" style="fill:#fff;opacity:0.5"></polygon><polygon points="182.01 162.36 177.77 161.75 172.59 167.21 162.48 164.87 160 167.9 169.66 173.83 172.97 168.74 178.36 171.85 182.01 162.36" style="fill:#263238"></polygon><polygon points="182.01 162.36 177.77 161.75 172.59 167.21 162.48 164.87 160 167.9 169.66 173.83 172.97 168.74 178.36 171.85 182.01 162.36" style="fill:#fff;opacity:0.7000000000000001"></polygon><path d="M157.87,139.24c2.27,8.14,3.2,13,8.28,16.33,7.63,5,17-1,17.18-9.6.16-7.83-3.6-19.78-12.38-21.32a11.51,11.51,0,0,0-13.08,14.59Z" style="fill:#ffb573"></path><path d="M180.7,130.52c-.08-.61-.65-1.89-2-1.11,0,0-1.53-1.31-2.34.31,0,0-1.73.29-1.48,1.41.34,1.46,1.42.06,3.24.16S180.85,131.57,180.7,130.52Z" style="fill:#263238"></path><path d="M180.7,130.52c-.08-.61-.65-1.89-2-1.11,0,0-1.53-1.31-2.34.31,0,0-1.73.29-1.48,1.41.34,1.46,1.42.06,3.24.16S180.85,131.57,180.7,130.52Z" style="fill:#fff;opacity:0.6000000000000001"></path><path d="M167.24,133.3c-.13-.6-.05-2,1.5-1.75,0,0,1-1.77,2.3-.53,0,0,1.73-.34,1.88.8.2,1.48-1.3.55-3,1.28S167.47,134.33,167.24,133.3Z" style="fill:#263238"></path><path d="M167.24,133.3c-.13-.6-.05-2,1.5-1.75,0,0,1-1.77,2.3-.53,0,0,1.73-.34,1.88.8.2,1.48-1.3.55-3,1.28S167.47,134.33,167.24,133.3Z" style="fill:#fff;opacity:0.6000000000000001"></path><path d="M163.35,142.94s.42-5.93-1.42-8.1,8.44-6.63,6.43-10.37-10.24-3.33-11,.85a6.21,6.21,0,0,0-2.15,9.1s-2.17,4.35,3.18,8.52l3.84,1.46Z" style="fill:#263238"></path><path d="M163.35,142.94s.42-5.93-1.42-8.1,8.44-6.63,6.43-10.37-10.24-3.33-11,.85a6.21,6.21,0,0,0-2.15,9.1s-2.17,4.35,3.18,8.52l3.84,1.46Z" style="fill:#fff;opacity:0.7000000000000001"></path><path d="M183.49,145.06s-6.16-1.37-14.26,1.89c0,0-2.66.66-4.62-2.51l-1.35-2.2-1.79,1-.34,7s2.64,6.69,4.73,6.69c0,0,2.8,3.09,6.45,1.67,0,0,2.36,2.34,6-1.59,0,0,2.22-.33,3.43-4.34C181.75,152.63,183.83,151.69,183.49,145.06Z" style="fill:#263238"></path><path d="M183.49,145.06s-6.16-1.37-14.26,1.89c0,0-2.66.66-4.62-2.51l-1.35-2.2-1.79,1-.34,7s2.64,6.69,4.73,6.69c0,0,2.8,3.09,6.45,1.67,0,0,2.36,2.34,6-1.59,0,0,2.22-.33,3.43-4.34C181.75,152.63,183.83,151.69,183.49,145.06Z" style="fill:#fff;opacity:0.7000000000000001"></path><path d="M176,147.8c.14.67.62,1.14,1.06,1s.67-.71.53-1.38-.62-1.14-1.06-1S175.81,147.16,176,147.8Z" style="fill:#263238"></path><path d="M176.1,138.07a24.22,24.22,0,0,0,4.45,5,4,4,0,0,1-3.08,1.3Z" style="fill:#ed893e"></path><path d="M176.07,136.05a3.53,3.53,0,1,0,3.53-3.52A3.53,3.53,0,0,0,176.07,136.05Z" style="fill:#407BFF"></path><path d="M167.2,138.21a3.53,3.53,0,1,0,3.52-3.52A3.52,3.52,0,0,0,167.2,138.21Z" style="fill:#407BFF"></path><path d="M176.07,136.05a3.53,3.53,0,1,0,3.53-3.52A3.53,3.53,0,0,0,176.07,136.05Z" style="fill:#fff;opacity:0.6000000000000001"></path><path d="M167.2,138.21a3.53,3.53,0,1,0,3.52-3.52A3.52,3.52,0,0,0,167.2,138.21Z" style="fill:#fff;opacity:0.6000000000000001"></path><path d="M181.86,138.73a3.49,3.49,0,0,1-2.26.85,3.51,3.51,0,0,1-2.68-5.8Z" style="fill:#fff;opacity:0.9"></path><path d="M173.18,140.73a3.52,3.52,0,0,1-5-5Z" style="fill:#fff;opacity:0.9"></path><path d="M175.77,136.05a3.83,3.83,0,1,1,3.83,3.83A3.84,3.84,0,0,1,175.77,136.05Zm.6,0a3.23,3.23,0,1,0,3.23-3.22A3.23,3.23,0,0,0,176.37,136.05Z" style="fill:#263238"></path><path d="M166.89,138.21a3.83,3.83,0,1,1,3.83,3.83A3.83,3.83,0,0,1,166.89,138.21Zm.61,0a3.22,3.22,0,1,0,3.22-3.22A3.23,3.23,0,0,0,167.5,138.21Z" style="fill:#263238"></path><path d="M174.49,137.35a1,1,0,0,1,1.47-.42l.34-.5a1.63,1.63,0,0,0-2.3.57Z" style="fill:#263238"></path><rect x="160.02" y="141.15" width="7.91" height="0.6" transform="translate(-47.38 94.27) rotate(-28.2)" style="fill:#263238"></rect><path d="M155.5,147.8a8.06,8.06,0,0,0,5.63,2.4c2.82,0,3.48-2.69,2.08-5-1.27-2-4.26-4.49-6.78-3.42S153.69,145.91,155.5,147.8Z" style="fill:#ffb573"></path><polygon points="251.83 125.92 233.24 127.38 233.26 124.46 252.92 123.01 251.83 125.92" style="fill:#407BFF"></polygon><polygon points="251.83 125.92 233.24 127.38 233.26 124.46 252.92 123.01 251.83 125.92" style="fill:#fff;opacity:0.7000000000000001"></polygon><path d="M187.78,190.43s-1.5-10,13.5-12.67v10.83l-13,7.67Z" style="fill:#263238"></path><path d="M187.78,190.43s-1.5-10,13.5-12.67v10.83l-13,7.67Z" style="fill:#fff;opacity:0.9"></path><path d="M170.28,185.93s1-4.67,5.34-4,12,6.66,12,6.66,14.83-12.56,17.66-3.36l-17,8.36Z" style="fill:#263238"></path><path d="M170.28,185.93s1-4.67,5.34-4,12,6.66,12,6.66,14.83-12.56,17.66-3.36l-17,8.36Z" style="fill:#fff;opacity:0.8"></path><rect x="185.9" y="190.43" width="4.8" height="26.25" style="fill:#263238"></rect><rect x="185.9" y="190.43" width="4.8" height="26.25" style="fill:#fff;opacity:0.30000000000000004"></rect><path d="M190.7,216.68a29.81,29.81,0,0,1,16.5-6.34V184.09a29.81,29.81,0,0,0-16.5,6.34Z" style="fill:#263238"></path><path d="M190.7,216.68a29.81,29.81,0,0,1,16.5-6.34V184.09a29.81,29.81,0,0,0-16.5,6.34Z" style="fill:#fff;opacity:0.5"></path><path d="M185.9,216.68a29.81,29.81,0,0,0-16.5-6.34V184.09a29.81,29.81,0,0,1,16.5,6.34Z" style="fill:#263238"></path><path d="M185.9,216.68a29.81,29.81,0,0,0-16.5-6.34V184.09a29.81,29.81,0,0,1,16.5,6.34Z" style="fill:#fff;opacity:0.5"></path><path d="M174,209.85l5.81-1.36a3.46,3.46,0,0,1,1.6,0l5.25,1.31a3.45,3.45,0,0,0,3.21-.87l2.72-2.66a3.42,3.42,0,0,0,0-4.92l-.85-.8a3.4,3.4,0,0,0-4.17-.41h0a3.42,3.42,0,0,1-2.18.51l-.32,0a3.41,3.41,0,0,0-3.45,2l-.35.76-8.19.82Z" style="fill:#ffb573"></path><polygon points="172.07 202.81 178.12 202.1 179.04 209.89 173.18 210.88 172.07 202.81" style="fill:#263238"></polygon><g style="opacity:0.7000000000000001"><polygon points="172.07 202.81 178.12 202.1 179.04 209.89 173.18 210.88 172.07 202.81" style="fill:#fff"></polygon></g><path d="M155.56,172.56a2.28,2.28,0,0,0-3.35-1.95,17.54,17.54,0,0,0-9.14,12.95c-1.42,7.9.28,19.86,1.61,27.12a6.49,6.49,0,0,0,7.49,5.21L174.92,212l-1-10.83-15,1.68a2.41,2.41,0,0,1-2.68-2.33Z" style="fill:#407BFF"></path><path d="M155.56,172.56a2.28,2.28,0,0,0-3.35-1.95,17.54,17.54,0,0,0-9.14,12.95c-1.42,7.9.28,19.86,1.61,27.12a6.49,6.49,0,0,0,7.49,5.21L174.92,212l-1-10.83-15,1.68a2.41,2.41,0,0,1-2.68-2.33Z" style="fill:#fff;opacity:0.8"></path></g></svg>