<svg xmlns="http://www.w3.org/2000/svg" xmlns:xlink="http://www.w3.org/1999/xlink" viewBox="0 0 500 500"><defs><clippath id="clip-path"><path d="M165.71,276.7a240.61,240.61,0,0,0-1.5,27.95c.2,13.79,1.58,30.4-6.13,39.31S136.15,350,136.15,350s-2-8.63,4.52-29.1,9.75-39.47,10.12-46.19S165.71,276.7,165.71,276.7Z" style="fill:#fff;stroke:#263238;stroke-linecap:round;stroke-linejoin:round"></path></clippath><clippath id="clip-path-2"><path d="M132.56,241.53s5.1-2.34,8.11-2.41c4.16-.09,10.88,2.37,14.44,6.73s14.24,22.15,13,29.67-2.45,8.65-2.45,8.65,1.25,4.22-6.84,4.84c-12.28.95-10.64-10.72-10.64-10.72s-2.61-6.73-5.78-10.29S130.64,247,132.56,241.53Z" style="fill:#92E3A9;stroke:#263238;stroke-linecap:round;stroke-linejoin:round"></path></clippath><clippath id="clip-path-3"><path d="M202.07,394.76H112.38c-14.63,0-30.85-4.12-32.83-10.45s7.12-37.38,22.15-60.43,28.09-48.08,26.51-53.76l16.22,4.61a220.87,220.87,0,0,0-10.29,38.77C130.58,334.86,127,350,127,350s17.85-13.25,38.82-15.58a58.52,58.52,0,0,1,36.23,7.93Z" style="fill:#fff;stroke:#263238;stroke-linecap:round;stroke-linejoin:round"></path></clippath><clippath id="clip-path-4"><path d="M126.29,279.19s.6-9.87-1.77-17.52-.79-18.72,2.5-22.15,11.21-4.51,12.27-2.92a10.82,10.82,0,0,1,1.38,3.71S144.82,244,144,249s-4.22,8.18,1.32,11.61,4.75,11.52-3.16,23.69a2.91,2.91,0,0,1-2.16,3.77C136.91,289.1,120.94,285.11,126.29,279.19Z" style="fill:#92E3A9;stroke:#263238;stroke-linecap:round;stroke-linejoin:round"></path></clippath><clippath id="clip-path-5"><path d="M181.43,390.11c1.84-1.6,12.27-4,12.27-4,14-26.56,52.14-27.42,68.09-23.2s69.76-27.41,122,7.39c0,0,10,2.75,14.24,4.8s-5.27,8.25-5.27,8.25S374.6,404,335.4,401.69s-64.53,4.18-95.38,4.08S205,408.37,190.19,403C186.52,401.71,177.79,393.27,181.43,390.11Z" style="fill:#92E3A9;stroke:#263238;stroke-linecap:round;stroke-linejoin:round"></path></clippath><clippath id="clip-path-6"><path d="M293.21,305.91c2.86-2,11.83-5.41,18.24,7.77s32.1,57.7,38.1,64.56,8.05,20.06,8.05,20.06-9.34,10.07-25.15-4.51c-4.27-3.93-29.91-48.17-34.13-48.34S293.21,305.91,293.21,305.91Z" style="fill:#fff;stroke:#263238;stroke-linecap:round;stroke-linejoin:round"></path></clippath><clippath id="clip-path-7"><path d="M266.14,301.25c18,1.43,30.56,2.81,30.56,2.81s14.84,75.76-6.81,85.26-82.65,8.44-99.88,3.16-21-33.82-8-45.66,25,0,28.62-12C218,310.46,229.84,298.39,266.14,301.25Z" style="fill:#757575;stroke:#263238;stroke-linecap:round;stroke-linejoin:round"></path></clippath><clippath id="clip-path-8"><path d="M335.4,401.69c-39.19-2.35-64.53,4.18-95.38,4.08S205,408.37,190.19,403c-3.67-1.32-12.4-9.76-8.76-12.92,1.84-1.6,12.27-4,12.27-4,14-26.56,52.14-27.42,68.09-23.2,0,0,10.63,2.71,26.88,2.71,13.55,0,36.74-4.61,41,24.52" style="fill:#92E3A9;stroke:#263238;stroke-linecap:round;stroke-linejoin:round"></path></clippath><clippath id="clip-path-9"><path d="M229,307.1c9.63-5.59,19,.8,19.51,13.82s-13.32,62.86-13.32,62.86l-18.81,16.47s-5.85-.65-8-7.77,7.32-36.37,10.28-60.66C219.89,321.75,221.57,311.38,229,307.1Z" style="fill:#fff;stroke:#263238;stroke-linecap:round;stroke-linejoin:round"></path></clippath></defs><g id="background-simple"><path d="M67.93,167.09s-27.88,72,11.3,144.5S199.11,422.39,263.7,455.14s131.66,16.8,163.53-36.84-11.84-91.93-11.9-168.42,11.45-96.74-30-161.36-143.06-78.93-219.9-31S67.93,167.09,67.93,167.09Z" style="fill:#fff;opacity:0.7000000000000001"></path><path d="M94.61,136.3c14.37-17.17,33.8-30.47,57-30.18,39.52.48,60.89,35.47,83.58,62.46,11.76,14,25.09,27.51,42.55,34.08,26.19,9.86,55.35,4.1,80.87-5,11.43-4.1,25-9.87,37.84-6.92,39.14,8.95,35.06,56.71,28.6,86.95-8.73,40.83-22.92,84.3-51.67,115.67-68.83,75.1-192.72,29.07-254.81-30.86-4.56-4.41-8.93-9-13-13.84A192.45,192.45,0,0,1,78.6,307.54c-20-41.61-22.78-92.2-5.42-135.2A136.79,136.79,0,0,1,94.61,136.3Z" style="fill:#92E3A9"></path><path d="M94.61,136.3c14.37-17.17,33.8-30.47,57-30.18,39.52.48,60.89,35.47,83.58,62.46,11.76,14,25.09,27.51,42.55,34.08,26.19,9.86,55.35,4.1,80.87-5,11.43-4.1,25-9.87,37.84-6.92,39.14,8.95,35.06,56.71,28.6,86.95-8.73,40.83-22.92,84.3-51.67,115.67-68.83,75.1-192.72,29.07-254.81-30.86-4.56-4.41-8.93-9-13-13.84A192.45,192.45,0,0,1,78.6,307.54c-20-41.61-22.78-92.2-5.42-135.2A136.79,136.79,0,0,1,94.61,136.3Z" style="fill:#fff;opacity:0.7000000000000001"></path></g><g id="Window"><polyline points="98.29 86.61 261.44 86.61 261.44 293.96 78.51 293.96 78.51 86.61 88.11 86.61" style="fill:none;stroke:#263238;stroke-linecap:round;stroke-linejoin:round"></polyline><polyline points="254.36 106.07 254.36 174.89 85.6 174.89 85.6 94.12 254.36 94.12 254.36 98.08" style="fill:none;stroke:#263238;stroke-linecap:round;stroke-linejoin:round"></polyline><line x1="78.51" y1="181.76" x2="261.44" y2="181.76" style="fill:none;stroke:#263238;stroke-linecap:round;stroke-linejoin:round"></line><polyline points="88.2 191.29 88.2 285.31 251.76 285.31 251.76 191.29 94.77 191.29" style="fill:none;stroke:#263238;stroke-linecap:round;stroke-linejoin:round"></polyline><polyline points="158.9 174.89 158.9 168.7 181.05 168.7 181.05 171.8 170.52 172.66 170.52 174.89" style="fill:none;stroke:#263238;stroke-linecap:round;stroke-linejoin:round"></polyline><polyline points="256.75 289.98 83.21 289.98 83.21 186.71 256.75 186.71 256.75 280.6" style="fill:none;stroke:#263238;stroke-linecap:round;stroke-linejoin:round"></polyline><polyline points="72.17 86.61 72.17 74.55 267.78 74.55 267.78 86.61" style="fill:none;stroke:#263238;stroke-linecap:round;stroke-linejoin:round"></polyline></g><g id="Lamp"><polyline points="382.62 380.75 382.62 180.15 394.19 180.15 394.19 380.75" style="fill:none;stroke:#263238;stroke-linecap:round;stroke-linejoin:round"></polyline><polyline points="430.01 378.05 396.87 180.15 394.19 180.15 391.68 180.15 385.14 180.15" style="fill:none;stroke:#263238;stroke-linecap:round;stroke-linejoin:round"></polyline><line x1="418.6" y1="379.96" x2="394.19" y2="234.19" style="fill:none;stroke:#263238;stroke-linecap:round;stroke-linejoin:round"></line><line x1="382.62" y1="234.25" x2="358.22" y2="379.96" style="fill:none;stroke:#263238;stroke-linecap:round;stroke-linejoin:round"></line><polyline points="391.68 180.15 385.14 180.15 382.62 180.15 379.95 180.15 346.81 378.05" style="fill:none;stroke:#263238;stroke-linecap:round;stroke-linejoin:round"></polyline><polygon points="431.91 180.15 346.61 180.15 356.61 94.84 421.91 94.84 431.91 180.15" style="fill:none;stroke:#263238;stroke-linecap:round;stroke-linejoin:round"></polygon><polyline points="394.19 380.75 394.19 234.19 394.19 180.15 391.68 180.15 385.14 180.15 382.62 180.15 382.62 234.25 382.62 380.75" style="fill:none;stroke:#263238;stroke-linecap:round;stroke-linejoin:round"></polyline><line x1="391.68" y1="180.15" x2="391.68" y2="302.71" style="fill:none;stroke:#263238;stroke-linecap:round;stroke-linejoin:round"></line><line x1="391.68" y1="308.05" x2="391.68" y2="320" style="fill:none;stroke:#263238;stroke-linecap:round;stroke-linejoin:round"></line><path d="M415.64,344.83a76.06,76.06,0,0,0,3,16.91" style="fill:none;stroke:#263238;stroke-linecap:round;stroke-linejoin:round"></path><path d="M414.11,336.56l.66,3.33" style="fill:none;stroke:#263238;stroke-linecap:round;stroke-linejoin:round"></path><path d="M394.19,222.33C401,259,407,295,413.21,331.88" style="fill:none;stroke:#263238;stroke-linecap:round;stroke-linejoin:round"></path><path d="M363.47,327.15q-.45,2.58-.88,5.18" style="fill:none;stroke:#263238;stroke-linecap:round;stroke-linejoin:round"></path><path d="M382.62,214.29C376,250,371,286,364.32,322.14" style="fill:none;stroke:#263238;stroke-linecap:round;stroke-linejoin:round"></path></g><g id="speech-bubble"><path d="M373.59,200.35c-24.27,0-43.94,18.55-43.94,41.43a40,40,0,0,0,11.9,28.33l-7.36,14.2,14.18-8.61a45.62,45.62,0,0,0,25.22,7.5c24.26,0,43.94-18.54,43.94-41.42S397.85,200.35,373.59,200.35Z" style="fill:#fff;stroke:#263238;stroke-linecap:round;stroke-linejoin:round"></path><path d="M364,236.42v4.2h-4.21v-4.2Zm0,15.12v4.21h-4.21v-4.21Z" style="fill:#263238"></path><path d="M367.13,232.17V228h4.21v3.77l-1.91,4.41h-1.78l1.15-4Z" style="fill:#263238"></path><path d="M382.26,228v3.57h-1.07c-1.39,0-2,.52-2,2.5v15.65c0,2,.64,2.5,2,2.5h1.07v3.57h-1.35c-4.37,0-6.12-1.63-6.12-6.07V234c0-4.44,1.75-6.07,6.12-6.07Z" style="fill:#263238"></path></g><g id="Character"><path d="M49.35,389.06s3.55-5.8,15-11.45,48.85-2.49,103.66-2.39,150.47.53,165.73,1.42,61.69-.71,75.66.47,17.81,11.95,17.81,11.95" style="fill:none;stroke:#263238;stroke-linecap:round;stroke-linejoin:round"></path><path d="M413.21,394.31s-8.2-5.67-30.95-4.52" style="fill:none;stroke:#263238;stroke-linecap:round;stroke-linejoin:round"></path><path d="M76.25,392.59s5.45-6.43,21.45-6.41" style="fill:none;stroke:#263238;stroke-linecap:round;stroke-linejoin:round"></path><path d="M146.59,403.41s24.11,5.06,62.61,3.65,161.72.37,173.42-3.65" style="fill:none;stroke:#263238;stroke-linecap:round;stroke-linejoin:round"></path><path d="M165.71,276.7a240.61,240.61,0,0,0-1.5,27.95c.2,13.79,1.58,30.4-6.13,39.31S136.15,350,136.15,350s-2-8.63,4.52-29.1,9.75-39.47,10.12-46.19S165.71,276.7,165.71,276.7Z" style="fill:#fff"></path><g style="clip-path:url(#clip-path)"><path d="M158.08,344c-7.72,8.9-21.93,6.06-21.93,6.06s-2-8.63,4.52-29.1a276,276,0,0,0,7.27-27.79c1.79,8,7.73,15.67,16.39,17.25C164.62,322.79,164.75,336.26,158.08,344Z" style="fill:#92E3A9;opacity:0.4"></path></g><path d="M165.71,276.7a240.61,240.61,0,0,0-1.5,27.95c.2,13.79,1.58,30.4-6.13,39.31S136.15,350,136.15,350s-2-8.63,4.52-29.1,9.75-39.47,10.12-46.19S165.71,276.7,165.71,276.7Z" style="fill:none;stroke:#263238;stroke-linecap:round;stroke-linejoin:round"></path><path d="M132.56,241.53s5.1-2.34,8.11-2.41c4.16-.09,10.88,2.37,14.44,6.73s14.24,22.15,13,29.67-2.45,8.65-2.45,8.65,1.25,4.22-6.84,4.84c-12.28.95-10.64-10.72-10.64-10.72s-2.61-6.73-5.78-10.29S130.64,247,132.56,241.53Z" style="fill:#92E3A9"></path><g style="clip-path:url(#clip-path-2)"><path d="M168.16,275.52c-1.18,7.51-2.45,8.65-2.45,8.65a2.72,2.72,0,0,1,0,1.08c-.21,1.3-1.43,3.35-6.87,3.76-6.45.5-9.06-2.48-10.08-5.42a12.65,12.65,0,0,1-.56-5.3s-2.61-6.73-5.78-10.29-11.81-21-9.89-26.47c0,0,5.1-2.34,8.11-2.41a17.08,17.08,0,0,1,5.42.93,19.86,19.86,0,0,1,9,5.8,68.91,68.91,0,0,1,5.2,7.9,88.63,88.63,0,0,1,5.7,11.51C167.6,269.24,168.56,273,168.16,275.52Z" style="fill:#fff;opacity:0.6000000000000001"></path><path d="M165.71,284.17a2.72,2.72,0,0,1,0,1.08c-2,1.79-4.91,2.72-8.85,1.53a53.35,53.35,0,0,1-8.1-3.19,12.65,12.65,0,0,1-.56-5.3s-2.61-6.73-5.78-10.29-11.81-21-9.89-26.47c0,0,5.1-2.34,8.11-2.41a17.08,17.08,0,0,1,5.42.93,17.53,17.53,0,0,1,4.7,10.95,27.81,27.81,0,0,1,9.52,2.75,88.63,88.63,0,0,1,5.7,11.51c-1,.24-2.64-.14-4.87-.46-5.24-.76-9.14-1.35-10.35,3.2s-3.2,9.07,4.12,11.95,9.89,1.5,13.25-4.43C167,283,165.71,284.17,165.71,284.17Z" style="fill-opacity:0.7000000000000001;opacity:0.2"></path></g><path d="M132.56,241.53s5.1-2.34,8.11-2.41c4.16-.09,10.88,2.37,14.44,6.73s14.24,22.15,13,29.67-2.45,8.65-2.45,8.65,1.25,4.22-6.84,4.84c-12.28.95-10.64-10.72-10.64-10.72s-2.61-6.73-5.78-10.29S130.64,247,132.56,241.53Z" style="fill:none;stroke:#263238;stroke-linecap:round;stroke-linejoin:round"></path><path d="M162,265c-4.35-1.13-8.06,1.15-10.68.84s-5.93-7.12-4.35-9.49" style="fill:none;stroke:#263238;stroke-linecap:round;stroke-linejoin:round"></path><path d="M154.31,281.84s10.49,5.35,13.66-5.14" style="fill:none;stroke:#263238;stroke-linecap:round;stroke-linejoin:round"></path><path d="M202.07,394.76H112.38c-14.63,0-30.85-4.12-32.83-10.45s7.12-37.38,22.15-60.43,28.09-48.08,26.51-53.76l16.22,4.61a220.87,220.87,0,0,0-10.29,38.77C130.58,334.86,127,350,127,350s17.85-13.25,38.82-15.58a58.52,58.52,0,0,1,36.23,7.93Z" style="fill:#fff"></path><g style="clip-path:url(#clip-path-3)"><path d="M130.85,331.77C128.67,343,127,350,127,350a85,85,0,0,0-21,8.09S109.43,341.54,130.85,331.77Z" style="fill:#92E3A9;opacity:0.4"></path><path d="M127,350s-18.14,4.2-22.94,9.86" style="fill:#fff;stroke:#263238;stroke-linecap:round;stroke-linejoin:round"></path></g><path d="M202.07,394.76H112.38c-14.63,0-30.85-4.12-32.83-10.45s7.12-37.38,22.15-60.43,28.09-48.08,26.51-53.76l16.22,4.61a220.87,220.87,0,0,0-10.29,38.77C130.58,334.86,127,350,127,350s17.85-13.25,38.82-15.58a58.52,58.52,0,0,1,36.23,7.93Z" style="fill:none;stroke:#263238;stroke-linecap:round;stroke-linejoin:round"></path><path d="M136.26,341.29s-14.78,16.8-9.24,25.16c0,0-4.35,6-3.56,11.16s6.35,18.86,6.35,18.86,70.4,6.23,74.35-1.71,3.9-55.67,3.9-55.67S168.45,319.23,136.26,341.29Z" style="fill:#92E3A9;stroke:#263238;stroke-linecap:round;stroke-linejoin:round"></path><path d="M126.29,279.19s.6-9.87-1.77-17.52-.79-18.72,2.5-22.15,11.21-4.51,12.27-2.92a10.82,10.82,0,0,1,1.38,3.71S144.82,244,144,249s-4.22,8.18,1.32,11.61,4.75,11.52-3.16,23.69a2.91,2.91,0,0,1-2.16,3.77C136.91,289.1,120.94,285.11,126.29,279.19Z" style="fill:#92E3A9"></path><g style="clip-path:url(#clip-path-4)"><path d="M148,272.8a49.55,49.55,0,0,1-5.81,11.51,2.91,2.91,0,0,1-2.16,3.77c-3.12,1-19.09-3-13.74-8.89,0,0,.6-9.87-1.77-17.52s-.79-18.72,2.5-22.15,11.21-4.51,12.27-2.92a10.82,10.82,0,0,1,1.38,3.71,11.44,11.44,0,0,1,3.36,6.2,7.76,7.76,0,0,1,0,2.5c-.79,5-4.19,8.15,1.24,11.56h0l.07.05C148.9,262.81,149.85,266.93,148,272.8Z" style="fill:#fff;opacity:0.6000000000000001"></path><path d="M148,272.8a49.55,49.55,0,0,1-5.81,11.51s-10-.09-11.34-5.89,1.15-5.93,3.07-6C138.24,272.36,140.75,275.83,148,272.8Z" style="fill-opacity:0.7000000000000001;opacity:0.2"></path><path d="M145.27,260.57a16.54,16.54,0,0,0-5.92-.74c-4.6.25-3.23,1.25-7.06-3.5s2.64-9.69,8.38-9.1a5.14,5.14,0,0,0,3.36-.72,7.76,7.76,0,0,1,0,2.5C143.24,254,139.84,257.16,145.27,260.57Z" style="fill-opacity:0.7000000000000001;opacity:0.2"></path></g><path d="M126.29,279.19s.6-9.87-1.77-17.52-.79-18.72,2.5-22.15,11.21-4.51,12.27-2.92a10.82,10.82,0,0,1,1.38,3.71S144.82,244,144,249s-4.22,8.18,1.32,11.61,4.75,11.52-3.16,23.69a2.91,2.91,0,0,1-2.16,3.77C136.91,289.1,120.94,285.11,126.29,279.19Z" style="fill:none;stroke:#263238;stroke-linecap:round;stroke-linejoin:round"></path><path d="M130.85,254.55s1.9,4.22,5.3,5,5.51-.53,9.2,1.06" style="fill:none;stroke:#263238;stroke-linecap:round;stroke-linejoin:round"></path><polygon points="142.12 345.87 140.67 354.11 148.06 347.63 142.12 345.87" style="fill:#fff"></polygon><polygon points="164.59 334.82 172.4 340.79 172.96 334.62 164.59 334.82" style="fill:#fff"></polygon><polygon points="148.74 373.01 149.06 366.83 140.71 367.36 148.74 373.01" style="fill:#fff"></polygon><polygon points="154.74 390.76 160.87 389.86 158.71 381.77 154.74 390.76" style="fill:#fff"></polygon><polygon points="162.65 372.19 168.78 371.65 166.62 366.83 162.65 372.19" style="fill:#fff"></polygon><polygon points="134.22 379.98 132.9 385.99 138.15 385.37 134.22 379.98" style="fill:#fff"></polygon><polygon points="178.63 395.65 173.82 391.82 172.06 396.8 178.63 395.65" style="fill:#fff"></polygon><polygon points="190.69 341.15 185.88 337.32 184.13 342.3 190.69 341.15" style="fill:#fff"></polygon><polygon points="164.15 351.33 159.34 347.5 157.58 352.48 164.15 351.33" style="fill:#fff"></polygon><polygon points="130.05 353.48 129 358.46 132.9 357.31 130.05 353.48" style="fill:#fff"></polygon><polygon points="158.84 338.77 158.13 334.01 150.79 335.51 158.84 338.77" style="fill:#fff"></polygon><path d="M176.51,346.72c5.45-5.6,13-9.15,20.84-6.91" style="fill:none;stroke:#263238;stroke-linecap:round;stroke-linejoin:round"></path><path d="M172.06,352.33a28.05,28.05,0,0,1,1.73-2.47" style="fill:none;stroke:#263238;stroke-linecap:round;stroke-linejoin:round"></path><path d="M156,363.5a32.48,32.48,0,0,1,6.7,1.34" style="fill:none;stroke:#263238;stroke-linecap:round;stroke-linejoin:round"></path><path d="M129.79,364.84a106.79,106.79,0,0,1,22-1.64" style="fill:none;stroke:#263238;stroke-linecap:round;stroke-linejoin:round"></path><path d="M178.16,388.47a19.55,19.55,0,0,0,3.8,3.35" style="fill:none;stroke:#263238;stroke-linecap:round;stroke-linejoin:round"></path><path d="M168.78,362c.61,7.87,2.63,16.22,6.79,23" style="fill:none;stroke:#263238;stroke-linecap:round;stroke-linejoin:round"></path><path d="M128.2,383.11c1.12,5,3.2,10.47,7.66,13.36" style="fill:none;stroke:#263238;stroke-linecap:round;stroke-linejoin:round"></path><path d="M127,373.63a46.74,46.74,0,0,0,.53,6" style="fill:none;stroke:#263238;stroke-linecap:round;stroke-linejoin:round"></path><path d="M132.44,352c1.05-5.92,5.09-10.74,9.79-14.25" style="fill:none;stroke:#263238;stroke-linecap:round;stroke-linejoin:round"></path><path d="M132.9,359.39a13.3,13.3,0,0,1-.68-3.65" style="fill:none;stroke:#263238;stroke-linecap:round;stroke-linejoin:round"></path><path d="M240.13,265c-3.45,19.84-11.63,37.14-27.07,44-18,8-24.73,27.42-14.71,36.48s113.1-26.09,113.1-26.09a220.49,220.49,0,0,1,0-42.35C313.77,255.67,240.13,265,240.13,265Z" style="fill:#263238"></path><path d="M181.43,390.11c1.84-1.6,12.27-4,12.27-4,14-26.56,52.14-27.42,68.09-23.2s69.76-27.41,122,7.39c0,0,10,2.75,14.24,4.8s-5.27,8.25-5.27,8.25S374.6,404,335.4,401.69s-64.53,4.18-95.38,4.08S205,408.37,190.19,403C186.52,401.71,177.79,393.27,181.43,390.11Z" style="fill:#92E3A9"></path><g style="clip-path:url(#clip-path-5)"><path d="M392.74,383.39S374.6,404,335.4,401.69s-64.53,4.18-95.38,4.08S205,408.37,190.19,403c-3.67-1.32-12.4-9.76-8.76-12.92,1.84-1.6,12.27-4,12.27-4,14-26.56,52.14-27.42,68.09-23.2,2.87.76,6.95.36,12-.61,21.32-4,60.11-18,99.49,1.89a100.18,100.18,0,0,1,10.46,6.11s10,2.75,14.24,4.8S392.74,383.39,392.74,383.39Z" style="fill:#fff;opacity:0.6000000000000001"></path><path d="M369.79,388.47c-9,12.07-21.36,15.88-34.39,7.82l-52.08-1.53s-9.94-17.31-9.5-32.42c21.32-4,60.11-18,99.49,1.89C375.46,372.26,374.89,381.61,369.79,388.47Z" style="fill-opacity:0.7000000000000001;opacity:0.2"></path><path d="M380.32,376.55a15.5,15.5,0,0,0,.55-3.1" style="fill:none;stroke:#263238;stroke-linecap:round;stroke-linejoin:round"></path><path d="M349.55,396.47c11-.23,23.05-5.56,28.81-15.36" style="fill:none;stroke:#263238;stroke-linecap:round;stroke-linejoin:round"></path></g><path d="M181.43,390.11c1.84-1.6,12.27-4,12.27-4,14-26.56,52.14-27.42,68.09-23.2s69.76-27.41,122,7.39c0,0,10,2.75,14.24,4.8s-5.27,8.25-5.27,8.25S374.6,404,335.4,401.69s-64.53,4.18-95.38,4.08S205,408.37,190.19,403C186.52,401.71,177.79,393.27,181.43,390.11Z" style="fill:none;stroke:#263238;stroke-linecap:round;stroke-linejoin:round"></path><path d="M293.21,305.91c2.86-2,11.83-5.41,18.24,7.77s32.1,57.7,38.1,64.56,8.05,20.06,8.05,20.06-9.34,10.07-25.15-4.51c-4.27-3.93-29.91-48.17-34.13-48.34S293.21,305.91,293.21,305.91Z" style="fill:#fff"></path><g style="clip-path:url(#clip-path-6)"><path d="M344.34,370.82c-9.44,2.57-14.8,9.53-17.65,15-9.1-13.84-25.11-40.21-28.37-40.34-4.22-.18-5.11-39.54-5.11-39.54,2.86-2,11.83-5.41,18.24,7.77C316.65,324.37,334.56,355.73,344.34,370.82Z" style="fill:#92E3A9;opacity:0.4"></path></g><path d="M293.21,305.91c2.86-2,11.83-5.41,18.24,7.77s32.1,57.7,38.1,64.56,8.05,20.06,8.05,20.06-9.34,10.07-25.15-4.51c-4.27-3.93-29.91-48.17-34.13-48.34S293.21,305.91,293.21,305.91Z" style="fill:none;stroke:#263238;stroke-linecap:round;stroke-linejoin:round"></path><path d="M338.69,384.25c1.58-6.62,4.6-13.92,4.91-19.84l13.63-11.07s7.55,30.59,6,36.65c-1.35,5.17-8.34,13.39-16.7,11.65" style="fill:#fff;stroke:#263238;stroke-linecap:round;stroke-linejoin:round"></path><path d="M266.14,301.25c18,1.43,30.56,2.81,30.56,2.81s14.84,75.76-6.81,85.26-82.65,8.44-99.88,3.16-21-33.82-8-45.66,25,0,28.62-12C218,310.46,229.84,298.39,266.14,301.25Z" style="fill:#757575"></path><g style="clip-path:url(#clip-path-7)"><path d="M289.89,389.32c-21.64,9.49-82.65,8.44-99.88,3.16a18.43,18.43,0,0,1-5.53-2.78h0c-3-4.9-7.6-13.54-6.31-19.23,1.87-8.31,11.57,9.5,13.54,11.47s-2.37-9.69.79-11.07,4.86,2.59,4.86,2.59,11-13.31,22.64-42.57l26.7,4.93s3.08,19.9,9.45,22.73,21.69-1,25.71-1.06c3.5-.06,11.93-20,18.86-24.27C302.73,355.66,302.53,383.78,289.89,389.32Z" style="fill-opacity:0.7000000000000001;opacity:0.2"></path><path d="M208.06,339.09s-11.2,5.58-10.71,14.72" style="fill:none;stroke:#263238;stroke-linecap:round;stroke-linejoin:round"></path><path d="M188.93,348.54s6.07-6.31,14.41-6.24" style="fill:none;stroke:#263238;stroke-linecap:round;stroke-linejoin:round"></path><path d="M216.23,332.44s-5.74,17.61,10.68,21.78,22.75-19.6,22.75-19.6" style="fill:none;stroke:#263238;stroke-linecap:round;stroke-linejoin:round"></path><path d="M256.14,332.44s7.06,21.57,25.71,21.78" style="fill:none;stroke:#263238;stroke-linecap:round;stroke-linejoin:round"></path></g><path d="M266.14,301.25c18,1.43,30.56,2.81,30.56,2.81s14.84,75.76-6.81,85.26-82.65,8.44-99.88,3.16-21-33.82-8-45.66,25,0,28.62-12C218,310.46,229.84,298.39,266.14,301.25Z" style="fill:none;stroke:#263238;stroke-linecap:round;stroke-linejoin:round"></path><path d="M287.27,322.71s2.51,29.51-13.08,27.28c-14.37-2.06-27.74-44.9-22.42-47.18s31.75-7.86,36.9-1.56S287.27,322.71,287.27,322.71Z" style="fill:#fff;stroke:#263238;stroke-linecap:round;stroke-linejoin:round"></path><path d="M255.74,326.85s7.78,13.87,16.08,16.06a2.75,2.75,0,0,1,1.95,1.75l.4,1.16" style="fill:#fff;stroke:#263238;stroke-linecap:round;stroke-linejoin:round"></path><path d="M287.27,328.8s-.71,10.36-8.06,13.52a3.77,3.77,0,0,0-1.93,1.8l-.85,1.7" style="fill:#fff;stroke:#263238;stroke-linecap:round;stroke-linejoin:round"></path><path d="M283.32,325.65s-7.55,1.52-8.61,5.23" style="fill:#fff;stroke:#263238;stroke-linecap:round;stroke-linejoin:round"></path><path d="M335.4,401.69c-39.19-2.35-64.53,4.18-95.38,4.08S205,408.37,190.19,403c-3.67-1.32-12.4-9.76-8.76-12.92,1.84-1.6,12.27-4,12.27-4,14-26.56,52.14-27.42,68.09-23.2,0,0,10.63,2.71,26.88,2.71,13.55,0,36.74-4.61,41,24.52" style="fill:#92E3A9"></path><g style="clip-path:url(#clip-path-8)"><path d="M335.4,401.69c-39.19-2.35-64.53,4.18-95.38,4.08S205,408.37,190.19,403c-3.67-1.32-12.4-9.76-8.76-12.92,1.84-1.6,12.27-4,12.27-4a39.81,39.81,0,0,1,7.32-9.83c17.11-16.87,47.09-17,60.77-13.37,0,0,10.63,2.71,26.88,2.71,12.91,0,34.56-4.18,40.25,20.59.28,1.24.53,2.55.73,3.93Z" style="fill:#fff;opacity:0.6000000000000001"></path><path d="M328.92,386.25c-3-1.18-7.72-3.64-15.73-6.6-17.57-6.51-58.92,14.15-72.1,19.43s-29.8,3.69-36.93-4.32c-3.65-4.1-3.83-11.85-3.14-18.44,17.11-16.87,47.09-17,60.77-13.37,0,0,10.63,2.71,26.88,2.71C301.58,365.66,323.23,361.48,328.92,386.25Z" style="fill-opacity:0.7000000000000001;opacity:0.2"></path><path d="M293,379.61a31,31,0,0,1,4.4-.58" style="fill:none;stroke:#263238;stroke-linecap:round;stroke-linejoin:round"></path><path d="M197.35,390.14c6,6.13,14.69,10.05,23.1,11.34,15.86,2.44,31.48-4.64,45.51-11.15,7.47-3.47,14.92-7.26,22.84-9.65" style="fill:none;stroke:#263238;stroke-linecap:round;stroke-linejoin:round"></path><path d="M322.67,377.59a21.9,21.9,0,0,1,6.25,8.66" style="fill:none;stroke:#263238;stroke-linecap:round;stroke-linejoin:round"></path><path d="M309.74,372.19a23.26,23.26,0,0,1,8.6,2.56" style="fill:none;stroke:#263238;stroke-linecap:round;stroke-linejoin:round"></path></g><path d="M335.4,401.69c-39.19-2.35-64.53,4.18-95.38,4.08S205,408.37,190.19,403c-3.67-1.32-12.4-9.76-8.76-12.92,1.84-1.6,12.27-4,12.27-4,14-26.56,52.14-27.42,68.09-23.2,0,0,10.63,2.71,26.88,2.71,13.55,0,36.74-4.61,41,24.52" style="fill:none;stroke:#263238;stroke-linecap:round;stroke-linejoin:round"></path><path d="M267.6,316.94s2.47,7.86,9.54,11.11a23.71,23.71,0,0,1,10.13-3.35C293.18,324.18,267.6,316.94,267.6,316.94Z" style="fill:#263238"></path><path d="M310.82,284.31s-2.72,6.3-1.08,21.6-1.73,34.68-11,30.43-10.56-13.85-10.56-13.85h2.09s6.07,9.16,9.25,8.39,4.95-8.23,4.95-8.23-4.14,14.18-13-.16,10.82-45.19,10.82-45.19Z" style="fill:#263238"></path><path d="M253.42,299.65c-12.29-18-11.7-32.65.15-48,14.76-19.11,53.19-9.61,57.57,15,1.89,10.56-5.63,18.37-3.66,30.25,2,12.24-8.16,29.87-14.71,29.87-16.42,0-26.44-9.86-28-13.78" style="fill:#fff;stroke:#263238;stroke-linecap:round;stroke-linejoin:round"></path><path d="M288.67,281.84s-6.59,6.07-14.5,4.75" style="fill:none;stroke:#263238;stroke-linecap:round;stroke-linejoin:round"></path><path d="M301.22,281.84s2.09,4.94,6.44,4.94" style="fill:none;stroke:#263238;stroke-linecap:round;stroke-linejoin:round"></path><path d="M282.08,292c-.11,1.58-.84,2.82-1.62,2.76s-1.33-1.38-1.22-3,.83-2.82,1.61-2.76S282.18,290.45,282.08,292Z" style="fill:#263238"></path><path d="M303.64,292c-.11,1.58-.83,2.82-1.61,2.76s-1.34-1.38-1.23-3,.83-2.82,1.62-2.76S303.75,290.45,303.64,292Z" style="fill:#263238"></path><path d="M295.47,288.08a11.66,11.66,0,0,0,.11,7.61c1.49,4.15,4.94,4.94,4.25,7s-3.73,3.2-3.73,3.2" style="fill:none;stroke:#263238;stroke-linecap:round;stroke-linejoin:round"></path><path d="M283.32,313.68s4.66-2.46,5.95-2.27a14.72,14.72,0,0,0,5.53,0c2.58-.48,3.17,2.28,3.17,2.28" style="fill:none;stroke:#263238;stroke-linecap:round;stroke-linejoin:round"></path><path d="M287.27,316.94a5.42,5.42,0,0,1,3.86-1.58c1.76,0,2.08.58,2.08.58" style="fill:none;stroke:#263238;stroke-linecap:round;stroke-linejoin:round"></path><path d="M299.92,262.53s3,12.66-3.86,20.31a32.09,32.09,0,0,0,1.35-17.14s0,13-6.77,17.14a19.24,19.24,0,0,1-15.13,2c5.15-4.75,5.91-9,5.91-9S278,284.31,263.76,289l-5.15,5-5.81,7.3s-10.81-1-12.66-29.4,17.8-28.33,17.8-28.33,7.77-6.55,28.16-2.32c28.64,5.95,32.26,30,24.81,48.55l-5.6-4.35S309.06,274.4,299.92,262.53Z" style="fill:#263238"></path><path d="M261.35,294.05s-.77-10.27-6.17-12.74c-3-1.36-6.4.26-6.33,8.08s1.05,9,4,11.87,3.38,7.41,8.18,5.21c1.58-.73.37-3.56.37-3.56" style="fill:#fff;stroke:#263238;stroke-linecap:round;stroke-linejoin:round"></path><path d="M338.62,361l-25.48,2c-1.83,0-3.53-2.73-3.39-3.62l7-47.25a2,2,0,0,1,1.87-1.62h27.49c.9,0,3.54,2.14,3.41,3l-9.06,45.84A2,2,0,0,1,338.62,361Z" style="fill:#757575;stroke:#263238;stroke-linecap:round;stroke-linejoin:round"></path><path d="M340.62,363H313.14a1.37,1.37,0,0,1-1.39-1.62l7-47.25a2,2,0,0,1,1.87-1.62h27.49a1.37,1.37,0,0,1,1.39,1.62l-7,47.25A2,2,0,0,1,340.62,363Z" style="fill:#bfbfbf;stroke:#263238;stroke-miterlimit:10"></path><path d="M323,329.39h-1.78a1,1,0,0,1-1.05-1.22l1.65-11.05a1.46,1.46,0,0,1,1.41-1.22h1.78a1,1,0,0,1,1.06,1.22l-1.65,11.05A1.47,1.47,0,0,1,323,329.39Z" style="fill:#999;stroke:#263238;stroke-linecap:round;stroke-linejoin:round"></path><path d="M325.05,318a1.42,1.42,0,0,1-1.37,1.17,1,1,0,0,1-1-1.17,1.42,1.42,0,0,1,1.36-1.17A1,1,0,0,1,325.05,318Z" style="fill:#263238"></path><path d="M324.6,320.92a1.4,1.4,0,0,1-1.36,1.17,1,1,0,0,1-1-1.17,1.43,1.43,0,0,1,1.36-1.18A1,1,0,0,1,324.6,320.92Z" style="fill:#263238"></path><path d="M324.16,323.88a1.41,1.41,0,0,1-1.36,1.18,1,1,0,0,1-1-1.18,1.41,1.41,0,0,1,1.36-1.17A1,1,0,0,1,324.16,323.88Z" style="fill:#263238"></path><path d="M323.72,326.85a1.42,1.42,0,0,1-1.36,1.17,1,1,0,0,1-1-1.17,1.4,1.4,0,0,1,1.36-1.17A1,1,0,0,1,323.72,326.85Z" style="fill:#263238"></path><path d="M348.82,367.69c-4,0-6.55-5.73-6.55-5.73l.64-3.42-.88-1.06s-3.1-1.37-3.1-3.5v-2.11s-3.67,1.39-3.52-.5,2.21-6.1,3-8.47,9-3.89,9-3.89l-.69-4.05s-10.91-5.09-6.16-5.57c0,0,9.49,1.38,10.81,2.43s1.58,7.92,1.58,7.92l2.24,2.24a59.8,59.8,0,0,0,1.56,8c.91,2.54,2.74,13,0,15.33" style="fill:#fff;stroke:#263238;stroke-linecap:round;stroke-linejoin:round"></path><path d="M338.93,351.87s2.71-5.74,3.3-5.84l6-1" style="fill:none;stroke:#263238;stroke-linecap:round;stroke-linejoin:round"></path><path d="M348.76,350s-4,1.09-4.55,1.28-2.29,5.5-2.18,6.21,3.56,4.48,4.35,4.48.57-2.28-.41-3.86l.91-1.58a8.73,8.73,0,0,0,3.46-.41" style="fill:#fff;stroke:#263238;stroke-linecap:round;stroke-linejoin:round"></path><path d="M229,307.1c9.63-5.59,19,.8,19.51,13.82s-13.32,62.86-13.32,62.86l-18.81,16.47s-5.85-.65-8-7.77,7.32-36.37,10.28-60.66C219.89,321.75,221.57,311.38,229,307.1Z" style="fill:#fff"></path><g style="clip-path:url(#clip-path-9)"><path d="M241.26,360.29c-1.89,7.71-3.73,14.67-4.88,19l-17.71,3.84S226,364.21,241.26,360.29Z" style="fill:#92E3A9;opacity:0.4"></path></g><path d="M229,307.1c9.63-5.59,19,.8,19.51,13.82s-13.32,62.86-13.32,62.86l-18.81,16.47s-5.85-.65-8-7.77,7.32-36.37,10.28-60.66C219.89,321.75,221.57,311.38,229,307.1Z" style="fill:none;stroke:#263238;stroke-linecap:round;stroke-linejoin:round"></path><path d="M210.76,397.23c1.58,2.64,16.61,7.91,30.33,1.85s60.43-30.48,60.43-30.48l-4.84-16.27S278,363,247.56,368.62c-18.77,3.51-29.15,9.89-29.15,9.89" style="fill:#fff;stroke:#263238;stroke-linecap:round;stroke-linejoin:round"></path><path d="M295.3,354.22a74.3,74.3,0,0,1,9.16-16.12s8.17-5.62,10.18-6.89,10.17-1.71,12.75-2.36-1.06,5.78-9.35,6.33l-4.76,3.33s5.48.62,7.24.93,5.76,4,6.61,5.26.92,2.61,2.32,5.89c.76,1.8-.74,1.84-3.86,0,0,0,.21,4.24-1.73,5.52,0,0,.35,3.52-1.3,4.4-2.2,1.18-5.42,2.94-5.42,2.94s-2.85-.82-.18-3.86l-6.47,1.84s-3.09,7.72-9,7.17a6.69,6.69,0,0,1-2.42-.7" style="fill:#fff;stroke:#263238;stroke-linecap:round;stroke-linejoin:round"></path><path d="M323.86,356.11s-1.49-4-3.34-3.77c-1.63.17-6.69,0-6.69,0" style="fill:none;stroke:#263238;stroke-linecap:round;stroke-linejoin:round"></path><path d="M325.59,350.59s-1.29-3.49-2.76-4.22-9.64-.92-9.64-.92" style="fill:none;stroke:#263238;stroke-linecap:round;stroke-linejoin:round"></path><path d="M317,359.59a4.78,4.78,0,0,0,2.43-2.11" style="fill:none;stroke:#263238;stroke-linecap:round;stroke-linejoin:round"></path><path d="M318.17,358.91s1,1,1.91,1" style="fill:none;stroke:#263238;stroke-linecap:round;stroke-linejoin:round"></path><g style="opacity:0.2"><path d="M287.27,247.29s15,15.67-2.34,34.55" style="fill:none;stroke:#fff;stroke-linecap:round;stroke-linejoin:round"></path><path d="M281.85,244.32S293.27,265.85,264.6,280" style="fill:none;stroke:#fff;stroke-linecap:round;stroke-linejoin:round"></path><path d="M277.14,242.33s3.52,12.22-9.54,21.76c-11.29,8.26-26.18,13.72-32.25,29.81" style="fill:none;stroke:#fff;stroke-linecap:round;stroke-linejoin:round"></path><path d="M265,243.48s3.63,14.1-20.94,21.07" style="fill:none;stroke:#fff;stroke-linecap:round;stroke-linejoin:round"></path><path d="M284.93,244.32s26.8,4.48,26.52,37.52" style="fill:none;stroke:#fff;stroke-linecap:round;stroke-linejoin:round"></path><path d="M220.05,311.31s-15.35,5.62-18,14.34A13.27,13.27,0,0,0,204,337.31" style="fill:none;stroke:#fff;stroke-linecap:round;stroke-linejoin:round"></path><path d="M307.66,312.46s1.71,19.44-7,20.75" style="fill:none;stroke:#fff;stroke-linecap:round;stroke-linejoin:round"></path></g></g></svg>