<svg xmlns="http://www.w3.org/2000/svg" viewBox="0 0 500 500"><g id="background-complete"><rect y="382.4" width="500" height="0.25" style="fill:#ebebeb"></rect><rect x="416.78" y="398.49" width="33.12" height="0.25" style="fill:#ebebeb"></rect><rect x="322.53" y="401.21" width="8.69" height="0.25" style="fill:#ebebeb"></rect><rect x="396.59" y="389.21" width="19.19" height="0.25" style="fill:#ebebeb"></rect><rect x="52.46" y="390.89" width="43.19" height="0.25" style="fill:#ebebeb"></rect><rect x="104.56" y="390.89" width="6.33" height="0.25" style="fill:#ebebeb"></rect><rect x="131.47" y="395.11" width="93.68" height="0.25" style="fill:#ebebeb"></rect><path d="M237,337.8H43.91a5.71,5.71,0,0,1-5.7-5.71V60.66A5.71,5.71,0,0,1,43.91,55H237a5.71,5.71,0,0,1,5.71,5.71V332.09A5.71,5.71,0,0,1,237,337.8ZM43.91,55.2a5.46,5.46,0,0,0-5.45,5.46V332.09a5.46,5.46,0,0,0,5.45,5.46H237a5.47,5.47,0,0,0,5.46-5.46V60.66A5.47,5.47,0,0,0,237,55.2Z" style="fill:#ebebeb"></path><path d="M453.31,337.8H260.21a5.72,5.72,0,0,1-5.71-5.71V60.66A5.72,5.72,0,0,1,260.21,55h193.1A5.71,5.71,0,0,1,459,60.66V332.09A5.71,5.71,0,0,1,453.31,337.8ZM260.21,55.2a5.47,5.47,0,0,0-5.46,5.46V332.09a5.47,5.47,0,0,0,5.46,5.46h193.1a5.47,5.47,0,0,0,5.46-5.46V60.66a5.47,5.47,0,0,0-5.46-5.46Z" style="fill:#ebebeb"></path><polygon points="108.25 154.19 64.68 154.19 64.68 213.56 84.15 213.56 84.15 382.52 88.78 382.52 88.78 213.56 108.25 213.56 108.25 154.19" style="fill:#e6e6e6"></polygon><path d="M150.11,215.51c3-5.78,5.86-11.78,5.24-13-1.28-2.57-2.56-3.81-9-4.56-4.18-.49-5-2.93-5-4.56a2.78,2.78,0,0,1,.92-2.14c5.86-5.34,6.19-17.58-3.73-19.16v-.17q-.49,0-1,0h-.31q-.47,0-1,0V172c-9.92,1.58-9.6,13.82-3.73,19.16a2.78,2.78,0,0,1,.92,2.14c-.06,1.63-.86,4.07-5,4.56-6.4.75-7.68,2-9,4.56-.63,1.27,2.2,7.27,5.24,13a26,26,0,0,1,.85,22.48,73.14,73.14,0,0,0-6.1,24.92,2.89,2.89,0,0,0,2.9,3H134.2V379.84h-7.52a2.68,2.68,0,0,0-2.68,2.68h26.85a2.68,2.68,0,0,0-2.68-2.68h-7.52V265.93h11.8a2.9,2.9,0,0,0,2.91-3A72.9,72.9,0,0,0,149.25,238,26.07,26.07,0,0,1,150.11,215.51Z" style="fill:#e6e6e6"></path><path d="M375.51,379.84a2.68,2.68,0,0,0-2.68,2.68h26.85a2.68,2.68,0,0,0-2.68-2.68h-7.52V334.06h5.8v-61.4h-5.8V254.24H213.4v18.42h-4v61.4h4v45.78h-7.53a2.68,2.68,0,0,0-2.67,2.68H230a2.67,2.67,0,0,0-2.67-2.68h-7.52V334.06H383v45.78ZM219.85,272.66V260.38H383v12.28Z" style="fill:#e6e6e6"></path><polygon points="436.25 154.19 392.68 154.19 392.68 213.56 412.15 213.56 412.15 382.52 416.78 382.52 416.78 213.56 436.25 213.56 436.25 154.19" style="fill:#e6e6e6"></polygon><polygon points="360.69 100.44 360.69 79.21 357 79.21 357 100.44 265.69 100.44 265.69 79.21 262 79.21 262 100.44 255.06 100.44 255.06 148.47 367.63 148.47 367.63 100.44 360.69 100.44" style="fill:#e6e6e6"></polygon></g><g id="background-simple"><path d="M78.56,101.63c27.91-59.45,127.05-51.07,165.31-9.26s50.7,68.6,85.21,53,78.52-11.44,81,38.17S372.21,291.78,308,309.13s-64.16,78.76-149.1,66.37c-46.31-6.76-47.36-56.86-40.82-98.3S46.18,170.57,78.56,101.63Z" style="fill:#407BFF"></path><path d="M78.56,101.63c27.91-59.45,127.05-51.07,165.31-9.26s50.7,68.6,85.21,53,78.52-11.44,81,38.17S372.21,291.78,308,309.13s-64.16,78.76-149.1,66.37c-46.31-6.76-47.36-56.86-40.82-98.3S46.18,170.57,78.56,101.63Z" style="fill:#fff;opacity:0.9"></path></g><g id="Shadow"><ellipse id="path" cx="250" cy="416.24" rx="193.89" ry="11.32" style="fill:#f5f5f5"></ellipse></g><g id="Divider"><path d="M125.28,308A164,164,0,0,1,99,305.85c-23.74-3.87-39.3-11.46-39.95-11.78l2.65-5.38c.61.3,61.67,29.66,123.78,0l2.59,5.41A144.86,144.86,0,0,1,125.28,308Z" style="fill:#407BFF"></path><path d="M252.25,308A163.77,163.77,0,0,1,226,305.85c-23.75-3.87-39.31-11.46-40-11.78l2.65-5.38c.61.3,61.67,29.66,123.79,0l2.58,5.41A144.83,144.83,0,0,1,252.25,308Z" style="fill:#407BFF"></path><path d="M377.66,308a163.87,163.87,0,0,1-26.25-2.13c-23.74-3.87-39.31-11.46-40-11.78l2.66-5.38c.61.3,61.67,29.66,123.78,0l2.59,5.41A144.9,144.9,0,0,1,377.66,308Z" style="fill:#407BFF"></path><g style="opacity:0.4"><path d="M125.28,308A164,164,0,0,1,99,305.85c-23.74-3.87-39.3-11.46-39.95-11.78l2.65-5.38c.61.3,61.67,29.66,123.78,0l2.59,5.41A144.86,144.86,0,0,1,125.28,308Z" style="fill:#fff"></path></g><g style="opacity:0.4"><path d="M252.25,308A163.77,163.77,0,0,1,226,305.85c-23.75-3.87-39.31-11.46-40-11.78l2.65-5.38c.61.3,61.67,29.66,123.79,0l2.58,5.41A144.83,144.83,0,0,1,252.25,308Z" style="fill:#fff"></path></g><g style="opacity:0.4"><path d="M377.66,308a163.87,163.87,0,0,1-26.25-2.13c-23.74-3.87-39.31-11.46-40-11.78l2.66-5.38c.61.3,61.67,29.66,123.78,0l2.59,5.41A144.9,144.9,0,0,1,377.66,308Z" style="fill:#fff"></path></g><rect x="55.97" y="283.38" width="8.85" height="114.14" style="fill:#407BFF"></rect><polygon points="74.15 396.33 64.82 393.33 55.97 393.33 46.64 396.33 46.64 397.52 74.15 397.52 74.15 396.33" style="fill:#407BFF"></polygon><rect x="182.37" y="283.38" width="8.85" height="114.14" style="fill:#407BFF"></rect><polygon points="200.56 396.33 191.22 393.33 182.38 393.33 173.04 396.33 173.04 397.52 200.56 397.52 200.56 396.33" style="fill:#407BFF"></polygon><rect x="308.78" y="283.38" width="8.85" height="114.14" style="fill:#407BFF"></rect><polygon points="326.96 396.33 317.63 393.33 308.78 393.33 299.44 396.33 299.44 397.52 326.96 397.52 326.96 396.33" style="fill:#407BFF"></polygon><rect x="435.18" y="283.38" width="8.85" height="114.14" style="fill:#407BFF"></rect><polygon points="453.36 396.33 444.03 393.33 435.18 393.33 425.85 396.33 425.85 397.52 453.36 397.52 453.36 396.33" style="fill:#407BFF"></polygon><g style="opacity:0.6000000000000001"><rect x="55.97" y="283.38" width="8.85" height="114.14" style="fill:#fff"></rect><polygon points="74.15 396.33 64.82 393.33 55.97 393.33 46.64 396.33 46.64 397.52 74.15 397.52 74.15 396.33" style="fill:#fff"></polygon></g><g style="opacity:0.6000000000000001"><rect x="182.37" y="283.38" width="8.85" height="114.14" style="fill:#fff"></rect><polygon points="200.56 396.33 191.22 393.33 182.38 393.33 173.04 396.33 173.04 397.52 200.56 397.52 200.56 396.33" style="fill:#fff"></polygon></g><g style="opacity:0.6000000000000001"><rect x="308.78" y="283.38" width="8.85" height="114.14" style="fill:#fff"></rect><polygon points="326.96 396.33 317.63 393.33 308.78 393.33 299.44 396.33 299.44 397.52 326.96 397.52 326.96 396.33" style="fill:#fff"></polygon></g><g style="opacity:0.6000000000000001"><rect x="435.18" y="283.38" width="8.85" height="114.14" style="fill:#fff"></rect><polygon points="453.36 396.33 444.03 393.33 435.18 393.33 425.85 396.33 425.85 397.52 453.36 397.52 453.36 396.33" style="fill:#fff"></polygon></g></g><g id="character-2"><g id="group"><path d="M433.93,171.84s9,21.46,9,27.38-6.52,31.3-6.52,31.3a7.09,7.09,0,0,1,.79,2.9c0,1.45-.09,8.05-.79,8.88-1.24,1.48-8.74,5.58-9.22,3.51s1.18-12.54,1.29-13.66c.08-.88,1.93-2.09,1.93-2.09s5.22-28.71,4.62-30.84-9.84-19.73-9.84-19.73Z" style="fill:#e4897b"></path><path d="M371.4,170.94s-9.2,14.31-11.6,16.91-23.74,13.42-23.74,13.42-3.43-2.39-9.44,4.16-3.73,8.94-3.73,8.94,8.51,1.09,9.27,1,5.95-7.46,6.22-9.36c0,0,22.71-8.23,25.79-10.13S379.94,178,379.94,178Z" style="fill:#e4897b"></path><path d="M381.57,155.25c-6.46,1.1-15.85,19.89-15.85,19.89l9.57,9.5,8.25-5.78Z" style="fill:#263238"></path><path d="M383.54,178.86l-1.43,1-6.82,4.77-3.11-3.09-6.46-6.41s9.39-18.79,15.85-19.89Z" style="fill:#fff;opacity:0.2;isolation:isolate"></path><polygon points="364.18 175.63 365.72 173.06 376.76 184.64 375.29 186.18 364.18 175.63" style="fill:#263238"></polygon><path d="M382.11,179.87l-6.82,4.77-3.11-3.09c1.44-7.65,8.2-11.92,8.2-11.92Z" style="opacity:0.2;isolation:isolate"></path><path d="M415.92,406.74h10.14a.74.74,0,0,1,.71.57l1.64,7.43a1.23,1.23,0,0,1-1,1.46,1.24,1.24,0,0,1-.27,0c-3.28-.05-5.66-.26-9.78-.26-2.54,0-10.19.27-13.69.27s-4-3.46-2.53-3.78c6.43-1.4,11.27-3.34,13.33-5.19A2,2,0,0,1,415.92,406.74Z" style="fill:#263238"></path><path d="M372.94,406.48h10.13a.74.74,0,0,1,.72.57l1.64,7.43a1.23,1.23,0,0,1-.95,1.46.82.82,0,0,1-.27,0c-3.28,0-5.67-.25-9.78-.25-2.54,0-10.19.26-13.7.26s-4-3.46-2.52-3.77c6.43-1.4,11.27-3.35,13.33-5.19A2,2,0,0,1,372.94,406.48Z" style="fill:#263238"></path><path d="M421.3,218.86H377c-4.22,23-17.39,116.35-7.94,188.85h15S382.68,297.61,395.92,262c1.52,19,17,145.6,17,145.6h15.26s-2.28-47.61-4.56-92.58C422.18,286.74,421.36,224.68,421.3,218.86Z" style="fill:#263238"></path><path d="M395.92,262A118,118,0,0,0,391,281.19c-1.24-16.94,3.71-34.91,3.71-34.91Z" style="opacity:0.2;isolation:isolate"></path><polygon points="376.64 219.4 421.22 219.4 421.22 224.7 376.07 224.15 376.64 219.4"></polygon><rect x="405.3" y="217.01" width="1.59" height="9.42" style="fill:#263238"></rect><rect x="382.75" y="217.01" width="1.59" height="9.42" style="fill:#263238"></rect><rect x="388.72" y="218.47" width="8.24" height="5.94" style="fill:#fff"></rect><path d="M421.35,220.25C422.53,194.89,430,159,430,159c-20.7-5-48.48-3.74-48.48-3.74-5.42,19.37-5.32,50.62-4.85,65Z" style="fill:#263238"></path><path d="M421.35,220.25c.38-8.18,1.42-17.45,2.64-26.26.7-5,1.46-9.89,2.19-14.32C428.17,167.75,430,159,430,159c-20.69-5-48.47-3.74-48.47-3.74-5.42,19.37-5.32,50.62-4.85,65Z" style="fill:#fff;opacity:0.2;isolation:isolate"></path><path d="M426.18,179.67c-.73,4.43-1.49,9.3-2.19,14.32a20.28,20.28,0,0,1-.86-17.19Z" style="opacity:0.2;isolation:isolate"></path><path d="M396.23,158.62l1.11,5.49s-6.39,26.67-7.77,40.5l2.33,2.33,3.67-2.33s.33-28.17,3.56-40l5.8-4.75-4.56-1.47Z" style="fill:#263238"></path><path d="M413.58,156.19c-3.83,3.48-13.21,2.2-13.21,2.2s-5.86-1.61-4.63-3.44c3.45-.57,5.12-2.18,5.81-4.24a10,10,0,0,0,.35-3.94,20.71,20.71,0,0,0-.29-2.2l11.6-8.59C411.69,141.65,409.83,152.08,413.58,156.19Z" style="fill:#e4897b"></path><path d="M410.53,141.44c-.46,7-6.18,8.88-9,9.27a10,10,0,0,0,.35-3.94Z" style="opacity:0.2;isolation:isolate"></path><path d="M411.87,151.78l-11.09,5-.65-4-4.07,1.43a3.36,3.36,0,0,0-2.23,3.51l.46,4.4,5.63-3.08,2.8,4L416,156.58Z" style="fill:#263238"></path><path d="M411.87,151.78l-11.09,5-.65-4-4.07,1.43a3.36,3.36,0,0,0-2.23,3.51l.46,4.4,5.63-3.08,2.8,4L416,156.58Z" style="fill:#fff;opacity:0.30000000000000004;isolation:isolate"></path><path d="M389.43,119.87s-1.73,11.17,4.18,15.49,6-16.49,6-16.49Z" style="fill:#263238"></path><path d="M410.8,144.29a10.11,10.11,0,0,1-11.65,3.89,11.23,11.23,0,0,1-6.43-5.27,11.89,11.89,0,0,1-.54-1.07c-2.89-6.84-3.79-18.78,3.45-23.24a11,11,0,0,1,16.76,8.33C413.26,134.92,414.14,139.58,410.8,144.29Z" style="fill:#e4897b"></path><path d="M400.74,131.17c.16.63-.14,1.22-.57,1.29s-.85-.4-1-1,.15-1.23.57-1.3S400.63,130.51,400.74,131.17Z" style="fill:#263238"></path><path d="M393.45,132.39c.15.63-.15,1.22-.57,1.29s-.85-.4-1-1,.15-1.23.57-1.29S393.35,131.78,393.45,132.39Z" style="fill:#263238"></path><path d="M395.82,132.32a23.45,23.45,0,0,1-2.15,6,3.79,3.79,0,0,0,3.19.06Z" style="fill:#de5753"></path><path d="M390.23,129.73a.4.4,0,0,0,.39-.08,3.09,3.09,0,0,1,2.66-.77.39.39,0,0,0,.48-.27.4.4,0,0,0-.27-.47h0a3.81,3.81,0,0,0-3.37.94.37.37,0,0,0-.05.53h0A.91.91,0,0,0,390.23,129.73Z" style="fill:#263238"></path><path d="M401.7,128a.45.45,0,0,0,.19-.11.38.38,0,0,0-.12-.53h0a3.82,3.82,0,0,0-3.49-.3.38.38,0,0,0-.18.51h0a.4.4,0,0,0,.52.18h0a3.07,3.07,0,0,1,2.76.28A.47.47,0,0,0,401.7,128Z" style="fill:#263238"></path><path d="M397.7,140.37a21.12,21.12,0,0,1,1.49,2.66l.51-.14c2.34-.69,3.2-1.78,3.44-2.78a3.21,3.21,0,0,0,0-1.49,3.08,3.08,0,0,0-.31-.79,11.44,11.44,0,0,1-4.31,2.29C398,140.29,397.7,140.37,397.7,140.37Z" style="fill:#263238"></path><path d="M398.49,140.12l.46.78c2.2-.65,3.66-1.41,4.16-2.28a3.08,3.08,0,0,0-.31-.79A11.44,11.44,0,0,1,398.49,140.12Z" style="fill:#fff"></path><path d="M399.7,142.89c2.34-.69,3.2-1.78,3.44-2.78a7.55,7.55,0,0,0-2.44,1.28A2.93,2.93,0,0,0,399.7,142.89Z" style="fill:#de5753"></path><path d="M404.91,121.59s-17.77,6.07-15.72-5.91c0,0,9.59-5.65,17.95-4.07s7.71,10.24,7.71,10.24Z" style="fill:#263238"></path><path d="M404.93,118l0,3.56a2.64,2.64,0,0,1,1.71,3.15c-.78,3.09,1.44,7.48,3.93,9,0,0-.08-1.28,1-1.11s1.61,6.88-.12,10.31c0,0,2.84-3.25,3.81-10.47.9-6.68.46-12.1-1.17-14.44Z" style="fill:#263238"></path><path d="M390.3,134.79s1.91,2.09,4.09,1,5.6-.07,7-.27c4.85-.68,9-9.11,11.36-5.1,0,0-.39-3.5-7.36,4.15,0,0,.42,6.86,3.88,7.63a20.45,20.45,0,0,0,3.88-10.87,18.3,18.3,0,0,1-3.88,12.21c-6.54,8.06-14.19,5.33-14.19,5.33S389.09,145.73,390.3,134.79Z" style="fill:#407BFF"></path><path d="M416.94,132.85a7.62,7.62,0,0,1-3.68,4.53c-2.36,1.27-4.12-.71-3.95-3.25.17-2.25,1.58-5.69,4.19-5.88S417.62,130.46,416.94,132.85Z" style="fill:#e4897b"></path><path d="M430,159c3.85,2,10.57,24,10.57,24L429.47,190l-7.22-9.66s.51-9.68,2.88-14.52A21.59,21.59,0,0,1,430,159Z" style="fill:#263238"></path><path d="M430,159c3.85,2,10.57,24,10.57,24L429.47,190l-7.22-9.66s.51-9.68,2.88-14.52A21.59,21.59,0,0,1,430,159Z" style="fill:#fff;opacity:0.2;isolation:isolate"></path><polygon points="428.18 189.44 441.15 181.04 441.68 183.7 429.47 191.43 428.18 189.44" style="fill:#263238"></polygon><rect x="380.58" y="171.34" width="8.64" height="10.66" rx="0.53" transform="translate(748.57 393.73) rotate(-173.82)" style="fill:#fff"></rect><rect x="383.1" y="173.03" width="3.88" height="4.76" transform="translate(748.97 391.23) rotate(-173.82)" style="fill:#407BFF;opacity:0.4"></rect><rect x="381.32" y="179.28" width="6.52" height="0.67" transform="translate(747.61 399.57) rotate(-173.82)" style="fill:#407BFF;opacity:0.4"></rect><rect x="382.23" y="180.41" width="4.46" height="0.67" transform="translate(747.25 401.8) rotate(-173.82)" style="fill:#407BFF;opacity:0.4"></rect><rect x="384.91" y="169.31" width="1.26" height="2.89" transform="translate(750.48 382) rotate(-173.82)" style="fill:#407BFF"></rect><rect x="384.91" y="169.31" width="1.26" height="2.89" transform="translate(750.48 382) rotate(-173.82)" style="opacity:0.30000000000000004;isolation:isolate"></rect></g></g><g id="dry-mat"><polygon points="322.4 411.95 321.96 411.95 321.96 365.57 319.39 365.57 319.39 411.95 318.95 411.95 313.95 414.42 327.4 414.42 322.4 411.95" style="fill:#263238"></polygon><polygon points="322.4 411.95 321.96 411.95 321.96 376.57 319.39 378.57 319.39 411.95 318.95 411.95 313.95 414.42 327.4 414.42 322.4 411.95" style="fill:#fff;opacity:0.2;isolation:isolate"></polygon><rect x="294.92" y="332.11" width="51.5" height="36.92" rx="1.42" style="fill:#407BFF"></rect><path d="M344.42,334.11V367h-47.5V334.11h47.5m.58-1H296.35a.42.42,0,0,0-.43.42v34.08a.42.42,0,0,0,.43.42H345a.42.42,0,0,0,.42-.42V333.53a.42.42,0,0,0-.42-.42Z" style="fill:#fff"></path><path d="M318.21,336.92l-1.91,5.75h-1.13l-1.43-4.26-1.44,4.26h-1.15l-1.9-5.75h1.11l1.43,4.37,1.48-4.37h1l1.46,4.4,1.47-4.4Z" style="fill:#fff"></path><path d="M319.08,336.92h1.07v5.75h-1.07Z" style="fill:#fff"></path><path d="M326.52,339c0,1.27-.94,2.05-2.45,2.05h-1.3v1.66H321.7v-5.75h2.37C325.58,336.92,326.52,337.69,326.52,339Zm-1.08,0c0-.72-.48-1.14-1.42-1.14h-1.25v2.29H324C325,340.11,325.44,339.69,325.44,339Z" style="fill:#fff"></path><path d="M331.9,341.78v.89h-4.31v-5.75h4.2v.89h-3.13v1.5h2.78v.88h-2.78v1.59Z" style="fill:#fff"></path><path d="M314.72,345.16v5.76h-1.07v-2.47h-3v2.47H309.6v-5.76h1.07v2.38h3v-2.38Z" style="fill:#fff"></path><path d="M320.58,350v.9h-4.32v-5.76h4.2v.9h-3.13v1.49h2.78v.88h-2.78V350Z" style="fill:#fff"></path><path d="M325.54,350.92l-1.18-1.69h-1.52v1.68h-1.07v-5.76h2.37c1.51,0,2.45.77,2.45,2a1.84,1.84,0,0,1-1.23,1.82l1.33,1.89Zm-1.45-4.85h-1.25v2.29h1.25c.94,0,1.42-.43,1.42-1.15S325,346.07,324.09,346.07Z" style="fill:#fff"></path><path d="M332.1,350v.9h-4.32v-5.76H332v.9h-3.13v1.49h2.78v.88h-2.78V350Z" style="fill:#fff"></path><polygon points="322.69 360.61 322.69 354.13 318.65 354.13 318.65 360.61 315.71 360.61 320.67 365.57 325.64 360.61 322.69 360.61" style="fill:#fff"></polygon><polygon points="348.89 416.24 198.37 416.24 208.37 411.97 338.89 411.97 348.89 416.24" style="fill:#263238"></polygon><polygon points="338.89 411.97 290.63 411.97 285.63 416.24 348.89 416.24 338.89 411.97" style="opacity:0.5;isolation:isolate"></polygon><g style="opacity:0.4"><polygon points="218.84 412.76 214.91 415.45 217.01 415.45 220.93 412.76 218.84 412.76" style="fill:#fff"></polygon><polygon points="223.95 412.76 220.02 415.45 222.12 415.45 226.04 412.76 223.95 412.76" style="fill:#fff"></polygon><polygon points="229.06 412.76 225.13 415.45 227.23 415.45 231.15 412.76 229.06 412.76" style="fill:#fff"></polygon><polygon points="234.17 412.76 230.24 415.45 232.34 415.45 236.26 412.76 234.17 412.76" style="fill:#fff"></polygon><polygon points="239.28 412.76 235.35 415.45 237.45 415.45 241.37 412.76 239.28 412.76" style="fill:#fff"></polygon><polygon points="244.39 412.76 240.46 415.45 242.56 415.45 246.48 412.76 244.39 412.76" style="fill:#fff"></polygon><polygon points="249.5 412.76 245.57 415.45 247.67 415.45 251.59 412.76 249.5 412.76" style="fill:#fff"></polygon><polygon points="254.61 412.76 250.68 415.45 252.78 415.45 256.7 412.76 254.61 412.76" style="fill:#fff"></polygon><polygon points="259.72 412.76 255.79 415.45 257.89 415.45 261.81 412.76 259.72 412.76" style="fill:#fff"></polygon><polygon points="264.83 412.76 260.9 415.45 263 415.45 266.92 412.76 264.83 412.76" style="fill:#fff"></polygon><polygon points="269.94 412.76 266.01 415.45 268.11 415.45 272.03 412.76 269.94 412.76" style="fill:#fff"></polygon><polygon points="275.05 412.76 271.12 415.45 273.21 415.45 277.14 412.76 275.05 412.76" style="fill:#fff"></polygon></g></g><g id="wet-mat"><polygon points="192.4 411.95 191.96 411.95 191.96 365.57 189.39 365.57 189.39 411.95 188.95 411.95 183.95 414.42 197.4 414.42 192.4 411.95" style="fill:#263238"></polygon><polygon points="192.4 411.95 191.96 411.95 191.96 376.57 189.39 378.57 189.39 411.95 188.95 411.95 183.95 414.42 197.4 414.42 192.4 411.95" style="fill:#fff;opacity:0.2;isolation:isolate"></polygon><rect x="164.92" y="332.11" width="51.5" height="36.92" rx="1.42" style="fill:#407BFF"></rect><path d="M214.42,334.11V367h-47.5V334.11h47.5m.58-1H166.35a.42.42,0,0,0-.43.42v34.08a.42.42,0,0,0,.43.42H215a.42.42,0,0,0,.42-.42V333.53a.42.42,0,0,0-.42-.42Z" style="fill:#fff"></path><path d="M171.39,342.06l.37-.83a3.19,3.19,0,0,0,1.9.64c.9,0,1.28-.32,1.28-.75,0-1.24-3.43-.43-3.43-2.57,0-.93.74-1.72,2.32-1.72a3.64,3.64,0,0,1,1.92.51l-.34.83a3.23,3.23,0,0,0-1.59-.45c-.88,0-1.25.35-1.25.78,0,1.23,3.42.43,3.42,2.54,0,.93-.75,1.71-2.33,1.71A3.65,3.65,0,0,1,171.39,342.06Z" style="fill:#fff"></path><path d="M180.78,341.34H177.9l-.57,1.33h-1.1l2.59-5.75h1.06l2.59,5.75h-1.11Zm-.35-.84L179.34,338l-1.08,2.51Z" style="fill:#fff"></path><path d="M188.32,336.92v5.75h-.88l-3.18-3.9v3.9H183.2v-5.75h.88l3.18,3.89v-3.89Z" style="fill:#fff"></path><path d="M189.86,336.92h1.07v5.75h-1.07Z" style="fill:#fff"></path><path d="M193.65,337.82h-1.91v-.9h4.89v.9h-1.91v4.85h-1.07Z" style="fill:#fff"></path><path d="M197.43,336.92h1.07v5.75h-1.07Z" style="fill:#fff"></path><path d="M204.53,341.77v.9h-4.91V342l3.39-4.14h-3.33v-.9h4.74v.71L201,341.77Z" style="fill:#fff"></path><path d="M209.82,341.78v.89h-4.31v-5.75h4.2v.89h-3.13v1.5h2.78v.88h-2.78v1.59Z" style="fill:#fff"></path><path d="M184.72,345.16v5.76h-1.07v-2.47h-3v2.47H179.6v-5.76h1.07v2.38h3v-2.38Z" style="fill:#fff"></path><path d="M190.58,350v.9h-4.32v-5.76h4.2v.9h-3.13v1.49h2.78v.88h-2.78V350Z" style="fill:#fff"></path><path d="M195.54,350.92l-1.18-1.69h-1.52v1.68h-1.07v-5.76h2.37c1.51,0,2.45.77,2.45,2a1.84,1.84,0,0,1-1.23,1.82l1.33,1.89Zm-1.45-4.85h-1.25v2.29h1.25c.94,0,1.42-.43,1.42-1.15S195,346.07,194.09,346.07Z" style="fill:#fff"></path><path d="M202.1,350v.9h-4.32v-5.76H202v.9h-3.13v1.49h2.78v.88h-2.78V350Z" style="fill:#fff"></path><polygon points="192.69 360.61 192.69 354.13 188.65 354.13 188.65 360.61 185.71 360.61 190.67 365.57 195.64 360.61 192.69 360.61" style="fill:#fff"></polygon><polygon points="207.9 406.74 170.15 406.74 114.7 406.74 76.95 406.74 61.85 416.24 107.15 416.24 177.7 416.24 223 416.24 207.9 406.74" style="fill:#407BFF"></polygon><polygon points="223 416.24 173.92 416.24 170.15 406.74 207.9 406.74 223 416.24" style="opacity:0.2"></polygon><g style="opacity:0.4"><polygon points="87.55 407.52 81.02 412 82.07 409.95 85.61 407.52 87.55 407.52" style="fill:#fff"></polygon><polygon points="92.3 407.52 80.65 415.5 79.21 415.5 79.49 414.96 90.36 407.52 92.3 407.52" style="fill:#fff"></polygon><polygon points="85.39 415.5 83.45 415.5 95.11 407.52 97.05 407.52 85.39 415.5" style="fill:#fff"></polygon><polygon points="90.14 415.5 88.2 415.5 99.85 407.52 101.8 407.52 90.14 415.5" style="fill:#fff"></polygon><polygon points="94.89 415.5 92.94 415.5 104.6 407.52 106.55 407.52 94.89 415.5" style="fill:#fff"></polygon><polygon points="99.64 415.5 97.69 415.5 109.35 407.52 111.29 407.52 99.64 415.5" style="fill:#fff"></polygon><polygon points="104.39 415.5 102.44 415.5 114.1 407.52 116.04 407.52 104.39 415.5" style="fill:#fff"></polygon><polygon points="109.13 415.5 107.19 415.5 118.84 407.52 120.79 407.52 109.13 415.5" style="fill:#fff"></polygon><polygon points="113.88 415.5 111.94 415.5 123.59 407.52 125.54 407.52 113.88 415.5" style="fill:#fff"></polygon><polygon points="118.63 415.5 116.68 415.5 128.34 407.52 130.28 407.52 118.63 415.5" style="fill:#fff"></polygon><polygon points="123.38 415.5 121.43 415.5 133.09 407.52 135.03 407.52 123.38 415.5" style="fill:#fff"></polygon><polygon points="128.12 415.5 126.18 415.5 137.83 407.52 139.78 407.52 128.12 415.5" style="fill:#fff"></polygon><polygon points="132.87 415.5 130.93 415.5 142.58 407.52 144.53 407.52 132.87 415.5" style="fill:#fff"></polygon><polygon points="137.62 415.5 135.67 415.5 147.33 407.52 149.27 407.52 137.62 415.5" style="fill:#fff"></polygon><polygon points="142.37 415.5 140.42 415.5 152.08 407.52 154.02 407.52 142.37 415.5" style="fill:#fff"></polygon><polygon points="158.25 407.52 157.98 408.06 147.12 415.5 145.17 415.5 156.82 407.52 158.25 407.52" style="fill:#fff"></polygon><polygon points="156.45 411.02 155.39 413.08 151.86 415.5 149.92 415.5 156.45 411.02" style="fill:#fff"></polygon></g></g><g id="character-1"><path d="M150.21,230.15a47.93,47.93,0,0,0,12.31,4.06c7.2,1.35,13.47-2.66,13.47-2.66l1.69-.22s4.91,23.1.79,25.88-26.2,2.89-29.77-.16S150.21,230.15,150.21,230.15Z" style="fill:#263238"></path><path d="M150.21,230.15a47.93,47.93,0,0,0,12.31,4.06c7.2,1.35,13.47-2.66,13.47-2.66l1.69-.22s4.91,23.1.79,25.88-26.2,2.89-29.77-.16S150.21,230.15,150.21,230.15Z" style="fill:#fff;opacity:0.2;isolation:isolate"></path><path d="M160.15,146s11-1.34,16.12,5,1.44,20.72,5,28.18.13,16.8-14,18.45-25.29-3.24-28.93-13.73,4.21-14.05,5.93-22.1S153.39,142.6,160.15,146Z" style="fill:#263238"></path><path d="M178.8,210.06a20.11,20.11,0,0,1-.94-6.28s3.26-3.27,4.14-2.58,1.71,6.08,1.88,7-.89,2.09-.89,2.09l1.74,10.39L180.58,222l-.47-10.82S179.5,212.43,178.8,210.06Z" style="fill:#eec1bb"></path><path d="M179.83,215.63a6.09,6.09,0,0,1-1.52,4.77c-1.46,2-3.11.51-5.07-11.5s-4.4-17.56-4.4-17.56l-4.93,24.88s4.87,15.17,15.85,12.65c6.87-1.57,6.22-9.47,4.77-15.18Z" style="fill:#407BFF"></path><path d="M179.83,215.63a6.09,6.09,0,0,1-1.52,4.77c-1.46,2-3.11.51-5.07-11.5s-4.4-17.56-4.4-17.56l-4.93,24.88s4.87,15.17,15.85,12.65c6.87-1.57,6.22-9.47,4.77-15.18Z" style="fill:#fff;opacity:0.6000000000000001;isolation:isolate"></path><path d="M167.75,239s-29.63,5-47-4.53L134.08,191l31.09,6.5Z" style="fill:#407BFF"></path><path d="M167.75,239s-29.63,5-47-4.53L134.08,191l31.09,6.5Z" style="fill:#fff;opacity:0.4;isolation:isolate"></path><path d="M126.37,228.87l30.79-1.37S157,211,168.84,191.34a104.24,104.24,0,0,0-11.6-4.8,121.42,121.42,0,0,0-13.19-3.83c-5.93-1.22-13-2-13-2S124.86,199,126.37,228.87Z" style="fill:#263238"></path><path d="M118.31,391.87l4.68,2.75a89.26,89.26,0,0,1,7.11-8.43h0c1.35-1.43,2.78-3,4.26-4.72,3-3.4,6.17-7.29,9.53-11.47l3-3.76c11.71-14.74,24.37-32.06,29.11-43.77,1.47-3.65,2.19-6.74,1.87-9-1-7-3.68-17.53-6.79-27.7-4.73-15.55-10-30.29-10-30.29L148,277.56s4,9.56,7.67,19.74c3.59,10,6.83,20.61,5.63,23.37-.11.27-.26.59-.42.93-2.17,4.5-8.18,14.68-15,25.93-.69,1.13-1.39,2.27-2.08,3.42-3.67,6-7.47,12.18-11,17.84-1.37,2.23-2.71,4.38-4,6.42C122.79,384.87,118.31,391.87,118.31,391.87Z" style="fill:#eec1bb"></path><path d="M147.17,366.23c-6.18,7.77-12.12,14.82-16.54,19.95-.63-3.15-1.26-6.89-1.77-11,5.11-8.2,11.36-18.31,17-27.68A108.41,108.41,0,0,0,147.17,366.23Z" style="opacity:0.2;isolation:isolate"></path><path d="M123.85,302.17c1.62,11,3.92,21,5.42,27,.91,3.57,1.52,5.69,1.52,5.69a298.49,298.49,0,0,0,2,33.94c.5,4.44,1,8.7,1.58,12.67,2,14.66,4.18,25.19,4.18,25.19l5.57-.72L143.89,370l-.11-19L143.62,325l-.06-4.51-.27-19.71-.39-29.06L123.52,263C120.92,274.07,121.89,288.88,123.85,302.17Z" style="fill:#eec1bb"></path><path d="M118.74,388.81c.57-.41,5.39,6.82,5.39,6.82s-1.07,7.53,1.1,12.39-2,4.44-5.56-.16L111,396.47C108.47,393.2,112.82,393.12,118.74,388.81Z" style="fill:#263238"></path><path d="M125.77,401.08c-1.1-.26-1.81-3.38-1.94-4a.14.14,0,0,1,0-.09h0a.14.14,0,0,1,0-.06h0s0-.05.05-.06h0l.08-.05c.1,0,2.14-.67,3.24,0a1.35,1.35,0,0,1,.66.91.81.81,0,0,1-.23.9c-.38.25-1.12,0-1.85-.29a3.59,3.59,0,0,1,1,1.67,1,1,0,0,1-.89,1.14Zm.1-.44s.18,0,.4-.24a.48.48,0,0,0,.09-.38c-.09-.71-1.17-1.76-1.93-2.4C124.77,399,125.36,400.51,125.87,400.64Zm-1.26-3.52c1.17.72,2.45,1.3,2.78,1.08.1-.07.07-.29,0-.42a.85.85,0,0,0-.44-.61,2,2,0,0,0-1-.22A6.43,6.43,0,0,0,124.61,397.12Z" style="fill:#407BFF"></path><path d="M136.56,403.1c0-.71,8.69-.15,8.69-.15s5.34,5.42,10.52,6.64,2.29,4.33-3.51,4.33H137.94C133.82,413.92,136.39,410.41,136.56,403.1Z" style="fill:#263238"></path><path d="M146.22,404.07a.2.2,0,0,1-.07-.06h0a.21.21,0,0,1,0-.06h0a.19.19,0,0,1,0-.07h0a.31.31,0,0,1,0-.1c0-.1.77-2.11,1.94-2.6a1.33,1.33,0,0,1,1.12,0c.4.18.59.43.57.72,0,.46-.64.92-1.35,1.29a3.53,3.53,0,0,1,2,.22.91.91,0,0,1,.46.58.84.84,0,0,1-.21.93,1.19,1.19,0,0,1-.77.21A11.07,11.07,0,0,1,146.22,404.07Zm.79-.15c1.28.54,2.87,1,3.28.68,0,0,.14-.11.06-.45a.54.54,0,0,0-.25-.31,2.26,2.26,0,0,0-1-.19A10.55,10.55,0,0,0,147,403.92Zm1.2-2.31a3.82,3.82,0,0,0-1.48,1.86c1.28-.49,2.52-1.16,2.54-1.55,0-.12-.19-.24-.31-.29a.83.83,0,0,0-.75,0Z" style="fill:#407BFF"></path><path d="M145,230.27a1.57,1.57,0,1,0,1.57-1.57A1.57,1.57,0,0,0,145,230.27Z" style="fill:#fff;opacity:0.6000000000000001;isolation:isolate"></path><path d="M173.56,274.66l-23.81,8.46-.79-2.18-1-2.69-.41,3.88-.31,3h-28.9s-.08-.83-.17-2.32a147.93,147.93,0,0,1,1.16-28.47,102.91,102.91,0,0,1,6.13-23.83c.24-.6.49-1.19.74-1.78l31-2.4.27,1.5,1.94,11.13,3.7,9.36,9.14,23.1Z" style="fill:#407BFF"></path><path d="M99.57,219.43l-10.43,5a31.18,31.18,0,0,1-2.85,4c-.68.53-9.11,1.7-9.78,1.64s1.36-6.4,2.62-7.28,8-1.67,8-1.67l11.24-6.73Z" style="fill:#eec1bb"></path><path d="M133,231.52s-3.51,19.41-13.67,22.79a102.91,102.91,0,0,1,6.13-23.83Z" style="opacity:0.2"></path><path d="M163.13,248.29c-8.13-4-8-19.59-8-19.59l2.35-.9,1.94,11.13Z" style="opacity:0.2"></path><path d="M147.57,282.13l-.31,3h-28.9s-.08-.83-.17-2.32Z" style="opacity:0.5;isolation:isolate"></path><polygon points="173.56 274.66 149.75 283.12 148.96 280.94 172.27 271.39 173.56 274.66" style="opacity:0.5;isolation:isolate"></polygon><path d="M148,278.26l.62-7.92,6.54-12.84s2.06,7.4-1.19,14S148,278.26,148,278.26Z" style="opacity:0.2"></path><polygon points="126.22 228.7 124.92 231.93 157.92 230.27 157.22 226.31 126.22 228.7" style="opacity:0.5;isolation:isolate"></polygon><path d="M143.65,227.5l.38,3.63a.73.73,0,0,0,.79.65l4.83-.38a.74.74,0,0,0,.68-.81L150,227a.75.75,0,0,0-.78-.67l-4.88.34A.72.72,0,0,0,143.65,227.5Z" style="fill:#fff"></path><polygon points="135.55 227.94 135.17 232.2 133.97 232.2 134.16 227.94 135.55 227.94" style="fill:#407BFF"></polygon><polygon points="152.94 226.64 153.42 231.1 154.52 231.1 154.14 226.45 152.94 226.64" style="fill:#407BFF"></polygon><path d="M170.65,152.42s.83,5-6.81,8.38" style="fill:none;stroke:#263238;stroke-linecap:round;stroke-linejoin:round;stroke-width:0.5px"></path><path d="M151.66,191.9c-6.39-4.72-6.82-8.81-6.82-8.81,6.67-1.69,7-10.85,7-10.85l7.42,6.17a28.36,28.36,0,0,0-2.27,3.3c-2.86,5-.62,6.31-.62,6.31C156.33,191.56,151.66,191.9,151.66,191.9Z" style="fill:#eec1bb"></path><path d="M159.28,178.41a28.36,28.36,0,0,0-2.27,3.3c-3.47-3.15-5.15-9.47-5.15-9.47Z" style="opacity:0.2;isolation:isolate"></path><path d="M170.53,154c7.05,4.29,7,9.45,3.1,17-4.89,9.47-10.83,14.69-18.47,7.38C144.8,168.5,158.82,146.87,170.53,154Z" style="fill:#eec1bb"></path><path d="M169.32,167.87a17.22,17.22,0,0,0,.27,4.18,2.28,2.28,0,0,1-2.35-.34Z" style="fill:#d4827d"></path><path d="M165.35,164.66c-.34.59-.93.89-1.32.66s-.44-.89-.1-1.47.94-.89,1.33-.66S165.69,164.08,165.35,164.66Z" style="fill:#263238"></path><path d="M165.08,163.13l1.57.23S165.39,164.07,165.08,163.13Z" style="fill:#263238"></path><path d="M172.73,168.76c-.34.59-.94.88-1.33.66s-.43-.89-.09-1.48.93-.88,1.32-.65S173.07,168.18,172.73,168.76Z" style="fill:#263238"></path><path d="M172.45,167.22l1.57.24S172.76,168.17,172.45,167.22Z" style="fill:#263238"></path><path d="M168.25,159.75a4.33,4.33,0,0,0-3.71-.8" style="fill:none;stroke:#263238;stroke-linecap:round;stroke-linejoin:round;stroke-width:0.7246800000000001px"></path><path d="M173.56,162.58a3.86,3.86,0,0,1,2.45,2.29" style="fill:none;stroke:#263238;stroke-linecap:round;stroke-linejoin:round;stroke-width:0.7246800000000001px"></path><path d="M155.58,161.19s6.83-3.78,9-8.56c0,0,17.46,2.81,9.5,17.42,0,0,9-11.77-2.91-19.44s-22.71,10.1-19.67,19.2C151.55,169.81,151.33,163.57,155.58,161.19Z" style="fill:#263238"></path><path d="M165.2,174.57s-3.22-1.28-2.67-4.56" style="fill:none;stroke:#263238;stroke-linecap:round;stroke-linejoin:round;stroke-width:0.707962px"></path><path d="M153.86,159.75a3.18,3.18,0,0,1,3.26,0c1.78,1,1.88,4,4.85,6.85s6.83,3,7.62,3.45,2.86,4.06,2.86,4.06-2.2,7.45-9.29,8.51c0,0-3.25-.4-7-5s-5.63-11-4.13-14a12.64,12.64,0,0,0,2.89,10.3s3.36-1.84,5.54-8C160.49,165.93,157.13,158.24,153.86,159.75Z" style="fill:#fff"></path><path d="M155.82,163.38a3.61,3.61,0,0,0-1.61-4.85c-2.33-1.1-6.1,2.76-1.32,7.15C153.57,166.31,154.48,165.81,155.82,163.38Z" style="fill:#eec1bb"></path><path d="M158.32,186s-1.66,41.17,8.48,60.47l5.39-3.74s-7.19-33.22-3.35-51.38Z" style="fill:#407BFF"></path><path d="M158.32,186s-1.66,41.17,8.48,60.47l5.39-3.74s-7.19-33.22-3.35-51.38Z" style="fill:#fff;opacity:0.6000000000000001;isolation:isolate"></path><path d="M141.38,180.74l2.69,6.4s-5.9,34.54-26,55.22l-8.09-4.48S122.54,224,124.08,208.8a112.56,112.56,0,0,1,7-28.12Z" style="fill:#407BFF"></path><path d="M141.38,180.74l2.69,6.4s-5.9,34.54-26,55.22l-8.09-4.48S122.54,224,124.08,208.8a112.56,112.56,0,0,1,7-28.12Z" style="fill:#fff;opacity:0.6000000000000001;isolation:isolate"></path><path d="M129.68,197.66a16.1,16.1,0,0,1-5.52,10.54A94.72,94.72,0,0,1,125.85,198Z" style="opacity:0.2"></path><path d="M131.09,180.68s-4.47-.78-16.74,15.64-25,22.69-25,22.69l2.81,4.71s17.38-7.92,23.25-14.56a65.68,65.68,0,0,1,14.31-11.5s2.82-5.39,3.2-10.23S131.09,180.68,131.09,180.68Z" style="fill:#407BFF"></path><path d="M131.09,180.68s-4.47-.78-16.74,15.64-25,22.69-25,22.69l2.81,4.71s17.38-7.92,23.25-14.56a65.68,65.68,0,0,1,14.31-11.5s2.82-5.39,3.2-10.23S131.09,180.68,131.09,180.68Z" style="fill:#fff;opacity:0.6000000000000001;isolation:isolate"></path><path d="M177.53,231.94s3.59-21.1,2.94-25.56-14.67-17.07-14.67-17.07l-2.05-.49s14.28,14.12,15.1,17.44S175,234.53,175,234.53Z" style="fill:#263238"></path><path d="M177.53,231.94s3.59-21.1,2.94-25.56-14.67-17.07-14.67-17.07l-2.05-.49s14.28,14.12,15.1,17.44S175,234.53,175,234.53Z" style="fill:#fff;opacity:0.2;isolation:isolate"></path><path d="M167.26,147.09s9.58.54,11.87,5.5-.42,16.45,1.42,20.86,6.89,17.19-2.24,22.87" style="fill:none;stroke:#263238;stroke-linecap:round;stroke-linejoin:round;stroke-width:0.5px"></path></g></svg>