<svg xmlns="http://www.w3.org/2000/svg" viewBox="0 0 700 500"><g id="background-simple"><path d="M610.31,190.09C591.24,127.75,542.19,77.83,484.15,51.52,428.78,26.42,358.78,14,306.31,52.65c-34.54,25.44-54.11,66.2-85.74,94.73-15.72,14.18-32.93,18.79-51.64,27.27-45.58,20.67-83.73,60.54-86.87,113.13-5.25,87.94,64.45,148.76,142.23,168.71,102.79,26.36,179.61,26.36,250.21-2.11,36.67-14.79,74-33.49,100.41-64.11,40-46.31,51-112.08,41.93-171.55A201.64,201.64,0,0,0,610.31,190.09Z" style="fill:#92E3A9"></path><path d="M610.31,190.09C591.24,127.75,542.19,77.83,484.15,51.52,428.78,26.42,358.78,14,306.31,52.65c-34.54,25.44-54.11,66.2-85.74,94.73-15.72,14.18-32.93,18.79-51.64,27.27-45.58,20.67-83.73,60.54-86.87,113.13-5.25,87.94,64.45,148.76,142.23,168.71,102.79,26.36,179.61,26.36,250.21-2.11,36.67-14.79,74-33.49,100.41-64.11,40-46.31,51-112.08,41.93-171.55A201.64,201.64,0,0,0,610.31,190.09Z" style="fill:#fff;opacity:0.8"></path></g><g id="Pictures"><rect x="181.09" y="40" width="91.72" height="114.29" style="fill:none;stroke:#a3a3a3;stroke-miterlimit:10"></rect><rect x="184.84" y="44.68" width="84.22" height="104.94" style="fill:none;stroke:#a3a3a3;stroke-miterlimit:10"></rect><rect x="210.94" y="77.19" width="32.03" height="39.91" style="fill:#d6d6d6"></rect><rect x="278.62" y="76.13" width="62.2" height="77.51" style="fill:none;stroke:#a3a3a3;stroke-miterlimit:10"></rect><rect x="281.08" y="79.2" width="57.27" height="71.36" style="fill:none;stroke:#a3a3a3;stroke-miterlimit:10"></rect><rect x="298.86" y="101.35" width="21.72" height="27.07" style="fill:#d6d6d6"></rect><rect x="160.38" y="162.83" width="62.2" height="77.51" transform="translate(393.07 10.1) rotate(90)" style="fill:none;stroke:#a3a3a3;stroke-miterlimit:10"></rect><rect x="163.31" y="166.48" width="56.35" height="70.22" transform="translate(393.07 10.1) rotate(90)" style="fill:none;stroke:#a3a3a3;stroke-miterlimit:10"></rect><rect x="180.62" y="188.05" width="21.72" height="27.07" transform="translate(393.07 10.1) rotate(90)" style="fill:#d6d6d6"></rect><rect x="237.46" y="170.02" width="79.4" height="98.93" style="fill:none;stroke:#a3a3a3;stroke-miterlimit:10"></rect><rect x="240.66" y="174.01" width="73" height="90.96" style="fill:none;stroke:#a3a3a3;stroke-miterlimit:10"></rect><rect x="263.3" y="202.21" width="27.73" height="34.55" style="fill:#d6d6d6"></rect></g><g id="Plants"><line x1="80.59" y1="254.67" x2="100.54" y2="445.91" style="fill:none;stroke:#263238;stroke-miterlimit:10;stroke-width:2px"></line><line x1="96.87" y1="408.55" x2="88.28" y2="399.76" style="fill:none;stroke:#263238;stroke-miterlimit:10;stroke-width:2px"></line><path d="M91,402.62a10.25,10.25,0,0,0-3.6-7.68c-2.32-2.07-14.55-7.21-15.71-2.91C70.46,396.71,83,405.91,91,402.62Z" style="fill:#92E3A9;stroke:#263238;stroke-miterlimit:10"></path><line x1="91.03" y1="402.62" x2="79.39" y2="395.37" style="fill:none;stroke:#263238;stroke-miterlimit:10;stroke-width:0.5px"></line><line x1="98.52" y1="430.2" x2="90.55" y2="421.5" style="fill:none;stroke:#263238;stroke-miterlimit:10;stroke-width:2px"></line><path d="M93.3,424.37a10.25,10.25,0,0,0-3.6-7.68c-2.32-2.07-14.55-7.21-15.71-2.91C72.73,418.46,85.24,427.66,93.3,424.37Z" style="fill:#92E3A9;stroke:#263238;stroke-miterlimit:10"></path><line x1="93.3" y1="424.37" x2="81.66" y2="417.12" style="fill:none;stroke:#263238;stroke-miterlimit:10;stroke-width:0.5px"></line><line x1="91.38" y1="355.42" x2="82.33" y2="345.86" style="fill:none;stroke:#263238;stroke-miterlimit:10;stroke-width:2px"></line><path d="M85.49,349.55a10.25,10.25,0,0,0-3.6-7.68c-2.32-2.07-14.55-7.21-15.71-2.91C64.92,343.64,77.43,352.84,85.49,349.55Z" style="fill:#92E3A9;stroke:#263238;stroke-miterlimit:10"></path><line x1="85.49" y1="349.55" x2="73.85" y2="342.3" style="fill:none;stroke:#263238;stroke-miterlimit:10;stroke-width:0.5px"></line><line x1="93.16" y1="377.22" x2="85.01" y2="368.43" style="fill:none;stroke:#263238;stroke-miterlimit:10;stroke-width:2px"></line><path d="M87.76,371.3a10.25,10.25,0,0,0-3.6-7.68c-2.32-2.07-14.55-7.21-15.71-2.91C67.19,365.39,79.7,374.59,87.76,371.3Z" style="fill:#92E3A9;stroke:#263238;stroke-miterlimit:10"></path><line x1="87.76" y1="371.3" x2="76.12" y2="364.05" style="fill:none;stroke:#263238;stroke-miterlimit:10;stroke-width:0.5px"></line><line x1="87.8" y1="320.11" x2="79.05" y2="311.35" style="fill:none;stroke:#263238;stroke-miterlimit:10;stroke-width:2px"></line><path d="M81.8,314.22a10.25,10.25,0,0,0-3.6-7.68c-2.32-2.07-14.54-7.21-15.7-2.91C61.24,308.31,73.75,317.51,81.8,314.22Z" style="fill:#92E3A9;stroke:#263238;stroke-miterlimit:10"></path><line x1="81.8" y1="314.22" x2="70.17" y2="306.97" style="fill:none;stroke:#263238;stroke-miterlimit:10;stroke-width:0.5px"></line><line x1="83.67" y1="284.65" x2="75.35" y2="275.87" style="fill:none;stroke:#263238;stroke-miterlimit:10;stroke-width:2px"></line><path d="M78.1,278.73a10.24,10.24,0,0,0-3.6-7.67C72.18,269,60,263.84,58.79,268.15,57.53,272.83,70,282,78.1,278.73Z" style="fill:#92E3A9;stroke:#263238;stroke-miterlimit:10"></path><line x1="78.1" y1="278.73" x2="66.46" y2="271.48" style="fill:none;stroke:#263238;stroke-miterlimit:10;stroke-width:0.5px"></line><line x1="95.81" y1="396.44" x2="102.69" y2="385.23" style="fill:none;stroke:#263238;stroke-miterlimit:10;stroke-width:2px"></line><path d="M100.59,388.59a10.22,10.22,0,0,1,1.94-8.25c1.84-2.51,12.74-10.06,14.76-6.09C119.49,378.57,109.15,390.15,100.59,388.59Z" style="fill:#92E3A9;stroke:#263238;stroke-miterlimit:10"></path><line x1="100.59" y1="388.59" x2="111.06" y2="378.58" style="fill:none;stroke:#263238;stroke-miterlimit:10;stroke-width:0.5px"></line><line x1="89.83" y1="339.21" x2="96.71" y2="327.99" style="fill:none;stroke:#263238;stroke-miterlimit:10;stroke-width:2px"></line><path d="M94.61,331.36a10.27,10.27,0,0,1,1.94-8.25c1.85-2.51,12.74-10.06,14.77-6.09C113.52,321.34,103.18,332.92,94.61,331.36Z" style="fill:#92E3A9;stroke:#263238;stroke-miterlimit:10"></path><line x1="94.61" y1="331.36" x2="105.09" y2="321.35" style="fill:none;stroke:#263238;stroke-miterlimit:10;stroke-width:0.5px"></line><line x1="87.21" y1="314.06" x2="94.09" y2="302.84" style="fill:none;stroke:#263238;stroke-miterlimit:10;stroke-width:2px"></line><path d="M92,306.21A10.22,10.22,0,0,1,93.93,298c1.84-2.51,12.74-10.07,14.76-6.09C110.89,296.19,100.55,307.77,92,306.21Z" style="fill:#92E3A9;stroke:#263238;stroke-miterlimit:10"></path><line x1="91.99" y1="306.21" x2="102.47" y2="296.2" style="fill:none;stroke:#263238;stroke-miterlimit:10;stroke-width:0.5px"></line><line x1="83.36" y1="277.19" x2="90.24" y2="265.97" style="fill:none;stroke:#263238;stroke-miterlimit:10;stroke-width:2px"></line><path d="M88.14,269.34a10.27,10.27,0,0,1,1.94-8.25c1.84-2.51,12.74-10.07,14.77-6.1C107.05,259.32,96.7,270.89,88.14,269.34Z" style="fill:#92E3A9;stroke:#263238;stroke-miterlimit:10"></path><line x1="88.14" y1="269.34" x2="98.62" y2="259.32" style="fill:none;stroke:#263238;stroke-miterlimit:10;stroke-width:0.5px"></line><path d="M80.42,253.61a10.22,10.22,0,0,1,1.94-8.25c1.84-2.51,12.74-10.06,14.76-6.09C99.32,243.59,89,255.17,80.42,253.61Z" style="fill:#92E3A9;stroke:#263238;stroke-miterlimit:10"></path><line x1="80.42" y1="253.61" x2="90.9" y2="243.6" style="fill:none;stroke:#263238;stroke-miterlimit:10;stroke-width:0.5px"></line><path d="M81,254a10.23,10.23,0,0,1-8-2.79c-2.3-2.1-8.67-13.73-4.51-15.32C73,234.19,83.47,245.69,81,254Z" style="fill:#92E3A9;stroke:#263238;stroke-miterlimit:10"></path><line x1="81.03" y1="254.04" x2="72.17" y2="242.58" style="fill:none;stroke:#263238;stroke-miterlimit:10;stroke-width:0.5px"></line><line x1="133.23" y1="281.41" x2="116.95" y2="445.91" style="fill:none;stroke:#263238;stroke-miterlimit:10;stroke-width:2px"></line><line x1="117.77" y1="436.18" x2="110.88" y2="424.96" style="fill:none;stroke:#263238;stroke-miterlimit:10;stroke-width:2px"></line><path d="M113,428.33a10.22,10.22,0,0,0-1.94-8.25C109.19,417.57,98.29,410,96.27,414,94.07,418.32,104.42,429.89,113,428.33Z" style="fill:#92E3A9;stroke:#263238;stroke-miterlimit:10"></path><line x1="112.98" y1="428.33" x2="103.09" y2="418.84" style="fill:none;stroke:#263238;stroke-miterlimit:10;stroke-width:0.5px"></line><line x1="123.28" y1="383.1" x2="116.39" y2="371.89" style="fill:none;stroke:#263238;stroke-miterlimit:10;stroke-width:2px"></line><path d="M118.49,375.26a10.29,10.29,0,0,0-1.94-8.26c-1.85-2.5-12.75-10.05-14.77-6.08C99.58,365.24,109.93,376.82,118.49,375.26Z" style="fill:#92E3A9;stroke:#263238;stroke-miterlimit:10"></path><line x1="118.49" y1="375.26" x2="108.6" y2="365.76" style="fill:none;stroke:#263238;stroke-miterlimit:10;stroke-width:0.5px"></line><line x1="121.02" y1="404.85" x2="114.13" y2="393.64" style="fill:none;stroke:#263238;stroke-miterlimit:10;stroke-width:2px"></line><path d="M116.23,397a10.24,10.24,0,0,0-1.94-8.26c-1.85-2.5-12.75-10.05-14.77-6.08C97.32,387,107.67,398.57,116.23,397Z" style="fill:#92E3A9;stroke:#263238;stroke-miterlimit:10"></path><line x1="116.23" y1="397.01" x2="106.34" y2="387.51" style="fill:none;stroke:#263238;stroke-miterlimit:10;stroke-width:0.5px"></line><line x1="126.94" y1="347.77" x2="120.06" y2="336.56" style="fill:none;stroke:#263238;stroke-miterlimit:10;stroke-width:2px"></line><path d="M122.16,339.92a10.25,10.25,0,0,0-2-8.25c-1.84-2.51-12.75-10.05-14.77-6.08C103.25,329.91,113.59,341.49,122.16,339.92Z" style="fill:#92E3A9;stroke:#263238;stroke-miterlimit:10"></path><line x1="122.16" y1="339.92" x2="112.26" y2="330.43" style="fill:none;stroke:#263238;stroke-miterlimit:10;stroke-width:0.5px"></line><line x1="130.62" y1="312.28" x2="123.74" y2="301.07" style="fill:none;stroke:#263238;stroke-miterlimit:10;stroke-width:2px"></line><path d="M125.84,304.44a10.25,10.25,0,0,0-2-8.25c-1.84-2.51-12.74-10.06-14.76-6.09C106.93,294.43,117.28,306,125.84,304.44Z" style="fill:#92E3A9;stroke:#263238;stroke-miterlimit:10"></path><line x1="125.84" y1="304.44" x2="115.94" y2="294.95" style="fill:none;stroke:#263238;stroke-miterlimit:10;stroke-width:0.5px"></line><line x1="118.93" y1="423.27" x2="127.97" y2="413.71" style="fill:none;stroke:#263238;stroke-miterlimit:10;stroke-width:2px"></line><path d="M125.22,416.57a10.24,10.24,0,0,1,3.6-7.67c2.32-2.08,14.54-7.23,15.7-2.92C145.79,410.66,133.28,419.86,125.22,416.57Z" style="fill:#92E3A9;stroke:#263238;stroke-miterlimit:10"></path><line x1="125.22" y1="416.57" x2="137.54" y2="408.93" style="fill:none;stroke:#263238;stroke-miterlimit:10;stroke-width:0.5px"></line><line x1="124.87" y1="366.03" x2="133.91" y2="356.47" style="fill:none;stroke:#263238;stroke-miterlimit:10;stroke-width:2px"></line><path d="M131.16,359.34a10.25,10.25,0,0,1,3.6-7.68c2.32-2.07,14.54-7.22,15.7-2.92C151.73,353.42,139.22,362.62,131.16,359.34Z" style="fill:#92E3A9;stroke:#263238;stroke-miterlimit:10"></path><line x1="131.16" y1="359.34" x2="143.48" y2="351.7" style="fill:none;stroke:#263238;stroke-miterlimit:10;stroke-width:0.5px"></line><line x1="127.48" y1="340.88" x2="136.52" y2="331.32" style="fill:none;stroke:#263238;stroke-miterlimit:10;stroke-width:2px"></line><path d="M133.77,334.18a10.24,10.24,0,0,1,3.6-7.67c2.32-2.08,14.54-7.23,15.7-2.92C154.34,328.27,141.83,337.47,133.77,334.18Z" style="fill:#92E3A9;stroke:#263238;stroke-miterlimit:10"></path><line x1="133.77" y1="334.18" x2="146.09" y2="326.54" style="fill:none;stroke:#263238;stroke-miterlimit:10;stroke-width:0.5px"></line><line x1="131.3" y1="304.01" x2="140.35" y2="294.45" style="fill:none;stroke:#263238;stroke-miterlimit:10;stroke-width:2px"></line><path d="M137.6,297.31a10.25,10.25,0,0,1,3.6-7.68c2.32-2.07,14.54-7.22,15.7-2.92C158.16,291.39,145.66,300.6,137.6,297.31Z" style="fill:#92E3A9;stroke:#263238;stroke-miterlimit:10"></path><line x1="137.6" y1="297.31" x2="149.91" y2="289.67" style="fill:none;stroke:#263238;stroke-miterlimit:10;stroke-width:0.5px"></line><path d="M133.28,280.33a10.23,10.23,0,0,1,3.6-7.67c2.32-2.08,14.54-7.23,15.7-2.93C153.84,274.42,141.34,283.62,133.28,280.33Z" style="fill:#92E3A9;stroke:#263238;stroke-miterlimit:10"></path><line x1="133.28" y1="280.33" x2="145.59" y2="272.69" style="fill:none;stroke:#263238;stroke-miterlimit:10;stroke-width:0.5px"></line><path d="M133.78,280.88a10.21,10.21,0,0,1-7.25-4.38c-1.82-2.53-5.66-15.22-1.26-15.92C130.06,259.81,137.9,273.21,133.78,280.88Z" style="fill:#92E3A9;stroke:#263238;stroke-miterlimit:10"></path><line x1="133.78" y1="280.88" x2="127.48" y2="267.83" style="fill:none;stroke:#263238;stroke-miterlimit:10;stroke-width:0.5px"></line><line x1="110.48" y1="204.07" x2="110.48" y2="445.91" style="fill:none;stroke:#263238;stroke-miterlimit:10;stroke-width:2px"></line><line x1="110.68" y1="409.55" x2="102.67" y2="399.1" style="fill:none;stroke:#263238;stroke-miterlimit:10;stroke-width:2px"></line><path d="M105.11,402.24a10.27,10.27,0,0,0-2.79-8c-2.09-2.31-13.72-8.69-15.32-4.53C85.26,394.23,96.75,404.67,105.11,402.24Z" style="fill:#92E3A9;stroke:#263238;stroke-miterlimit:10"></path><line x1="105.11" y1="402.24" x2="94.29" y2="393.82" style="fill:none;stroke:#263238;stroke-miterlimit:10;stroke-width:0.5px"></line><line x1="110.68" y1="364.1" x2="102.67" y2="353.65" style="fill:none;stroke:#263238;stroke-miterlimit:10;stroke-width:2px"></line><path d="M105.11,356.79a10.27,10.27,0,0,0-2.79-8c-2.09-2.3-13.72-8.69-15.32-4.53C85.26,348.78,96.75,359.22,105.11,356.79Z" style="fill:#92E3A9;stroke:#263238;stroke-miterlimit:10"></path><line x1="105.11" y1="356.79" x2="94.29" y2="348.37" style="fill:none;stroke:#263238;stroke-miterlimit:10;stroke-width:0.5px"></line><line x1="110.68" y1="310.74" x2="102.67" y2="300.29" style="fill:none;stroke:#263238;stroke-miterlimit:10;stroke-width:2px"></line><path d="M105.11,303.43a10.27,10.27,0,0,0-2.79-8c-2.09-2.3-13.72-8.69-15.32-4.52C85.26,295.42,96.75,305.86,105.11,303.43Z" style="fill:#92E3A9;stroke:#263238;stroke-miterlimit:10"></path><line x1="105.11" y1="303.43" x2="94.29" y2="295.01" style="fill:none;stroke:#263238;stroke-miterlimit:10;stroke-width:0.5px"></line><line x1="110.68" y1="275.22" x2="102.67" y2="264.77" style="fill:none;stroke:#263238;stroke-miterlimit:10;stroke-width:2px"></line><path d="M105.11,267.91a10.27,10.27,0,0,0-2.79-8c-2.09-2.3-13.72-8.69-15.32-4.53C85.26,259.9,96.75,270.34,105.11,267.91Z" style="fill:#92E3A9;stroke:#263238;stroke-miterlimit:10"></path><line x1="105.11" y1="267.91" x2="94.29" y2="259.49" style="fill:none;stroke:#263238;stroke-miterlimit:10;stroke-width:0.5px"></line><line x1="110.68" y1="239.54" x2="102.67" y2="229.1" style="fill:none;stroke:#263238;stroke-miterlimit:10;stroke-width:2px"></line><path d="M105.11,232.23a10.27,10.27,0,0,0-2.79-8c-2.09-2.3-13.72-8.68-15.32-4.52C85.26,224.22,96.75,234.67,105.11,232.23Z" style="fill:#92E3A9;stroke:#263238;stroke-miterlimit:10"></path><line x1="105.11" y1="232.23" x2="94.29" y2="223.81" style="fill:none;stroke:#263238;stroke-miterlimit:10;stroke-width:0.5px"></line><line x1="110.5" y1="423.42" x2="118.51" y2="412.98" style="fill:none;stroke:#263238;stroke-miterlimit:10;stroke-width:2px"></line><path d="M116.07,416.11a10.22,10.22,0,0,1,2.78-8c2.1-2.31,13.72-8.69,15.32-4.53C135.91,408.11,124.42,418.55,116.07,416.11Z" style="fill:#92E3A9;stroke:#263238;stroke-miterlimit:10"></path><line x1="116.07" y1="416.11" x2="127.53" y2="407.24" style="fill:none;stroke:#263238;stroke-miterlimit:10;stroke-width:0.5px"></line><line x1="110.5" y1="351.14" x2="118.51" y2="340.7" style="fill:none;stroke:#263238;stroke-miterlimit:10;stroke-width:2px"></line><path d="M116.07,343.83a10.24,10.24,0,0,1,2.78-8c2.1-2.3,13.72-8.68,15.32-4.52C135.91,335.82,124.42,346.27,116.07,343.83Z" style="fill:#92E3A9;stroke:#263238;stroke-miterlimit:10"></path><line x1="116.07" y1="343.83" x2="127.53" y2="334.96" style="fill:none;stroke:#263238;stroke-miterlimit:10;stroke-width:0.5px"></line><line x1="110.5" y1="315.46" x2="118.51" y2="305.02" style="fill:none;stroke:#263238;stroke-miterlimit:10;stroke-width:2px"></line><path d="M116.07,308.15a10.22,10.22,0,0,1,2.78-8c2.1-2.31,13.72-8.69,15.32-4.53C135.91,300.15,124.42,310.59,116.07,308.15Z" style="fill:#92E3A9;stroke:#263238;stroke-miterlimit:10"></path><line x1="116.07" y1="308.15" x2="127.53" y2="299.28" style="fill:none;stroke:#263238;stroke-miterlimit:10;stroke-width:0.5px"></line><line x1="110.5" y1="268.31" x2="118.51" y2="257.87" style="fill:none;stroke:#263238;stroke-miterlimit:10;stroke-width:2px"></line><path d="M116.07,261a10.24,10.24,0,0,1,2.78-8c2.1-2.3,13.72-8.68,15.32-4.52C135.91,253,124.42,263.44,116.07,261Z" style="fill:#92E3A9;stroke:#263238;stroke-miterlimit:10"></path><line x1="116.07" y1="261" x2="127.53" y2="252.13" style="fill:none;stroke:#263238;stroke-miterlimit:10;stroke-width:0.5px"></line><line x1="110.5" y1="231.24" x2="118.51" y2="220.79" style="fill:none;stroke:#263238;stroke-miterlimit:10;stroke-width:2px"></line><path d="M116.07,223.93a10.24,10.24,0,0,1,2.78-8c2.1-2.3,13.72-8.69,15.32-4.53C135.91,215.92,124.42,226.36,116.07,223.93Z" style="fill:#92E3A9;stroke:#263238;stroke-miterlimit:10"></path><line x1="116.07" y1="223.93" x2="127.53" y2="215.05" style="fill:none;stroke:#263238;stroke-miterlimit:10;stroke-width:0.5px"></line><path d="M110,207.48a10.22,10.22,0,0,1,2.78-8c2.1-2.31,13.72-8.69,15.32-4.53C129.86,199.48,118.37,209.92,110,207.48Z" style="fill:#92E3A9;stroke:#263238;stroke-miterlimit:10"></path><line x1="110.02" y1="207.48" x2="121.48" y2="198.61" style="fill:none;stroke:#263238;stroke-miterlimit:10;stroke-width:0.5px"></line><path d="M110.58,208a10.26,10.26,0,0,1-7.67-3.61c-2.07-2.33-7.2-14.55-2.9-15.71C104.7,187.4,113.88,199.92,110.58,208Z" style="fill:#92E3A9;stroke:#263238;stroke-miterlimit:10"></path><line x1="110.58" y1="207.98" x2="102.96" y2="195.65" style="fill:none;stroke:#263238;stroke-miterlimit:10;stroke-width:0.5px"></line></g><g id="Characters"><path d="M249.11,446.05c-3.55-10.9-12.23-37.83-11.53-38.87.86-1.3.86-8.24.86-8.24s-28.2,3.47-48.15-13.45-43.82-36.87-43.82-36.87S143,359,139.53,369.88c-2.93,9.17-8.66,60.53-10.36,76.17Z" style="fill:#263238;stroke:#263238;stroke-linecap:round;stroke-linejoin:round"></path><path d="M179.32,415.83c5.06,4.68,13.81,12.93,20.25,19.86" style="fill:none;stroke:#6e6e6e;stroke-linecap:round;stroke-linejoin:round"></path><path d="M175.26,412.11l1.57,1.43" style="fill:none;stroke:#6e6e6e;stroke-linecap:round;stroke-linejoin:round"></path><path d="M273.72,229s-29.66,12.44-43.21,21.6-41,35.88-49.06,46.5-27.83,33-32.95,39.17-8.42,9.89-7,20.14,10.25,26.73,19.77,35.15,28.55,18.94,53.09,17.94c14.27-.58,22.7-3.66,30.39-11.35s19.41-27.83,29.66-37.71,27.82-30,27.82-30,46.87,16.84,51.26,16.84,26.37-12.45,26.73-16.11-48.33-35.88-52.72-43.94S314,264.5,314,264.5,292,232.65,273.72,229Z" style="fill:#7d7d7d;stroke:#263238;stroke-linecap:round;stroke-linejoin:round"></path><path d="M327.54,287.2c-4.4-8.05-13.55-22.7-13.55-22.7a167,167,0,0,0-15.12-18.35,12.8,12.8,0,0,0-5.06,2c-11.36,8.37-6,29.29-4.79,46a70.91,70.91,0,0,0,9,29.28l-17.69,31.1c9.95-10.36,22-24.13,22-24.13s46.87,16.84,51.26,16.84,26.37-12.45,26.73-16.11S331.93,295.26,327.54,287.2Z" style="fill:#263238;stroke:#263238;stroke-linecap:round;stroke-linejoin:round"></path><path d="M260.14,237.55s-7.21-3.6-12.26,13.71,7.93,62.76,14.43,63.48,20.2-33.18,22.36-43.28S280.34,231.06,260.14,237.55Z" style="fill:#92E3A9;stroke:#263238;stroke-linecap:round;stroke-linejoin:round"></path><path d="M282.5,275.12s-3.74,3.18-9.15,7.32c-6.22,4.76-7.37,13.62-11.76,8.49s-10.94-41.07-6.91-48.4,19-17.21,20.13-17.94,11.35,12.82,12.09,22.7S282.5,275.12,282.5,275.12Z" style="fill:#fff;stroke:#263238;stroke-linecap:round;stroke-linejoin:round"></path><path d="M274.81,224.59c-1.09.73-16.11,10.62-20.13,17.94-1.59,2.88-1.53,10.2-.62,18.32q2.16,1.47,4.68,3.13c13.57,8.95,23.76,11.14,23.76,11.14l.75-39.13C280,229.48,275.52,224.12,274.81,224.59Z" style="fill:#263238;stroke:#263238;stroke-linecap:round;stroke-linejoin:round"></path><path d="M340,234.11l-15.38,26.36c-5.13,8.79-11,19-21.24,21.24s-20.13,3.66-25.63-5.13-11.35-20.5-7.69-36.61,9.89-20.87,17.58-26.73S303,203.72,311.79,207,340,234.11,340,234.11Z" style="fill:#fff;stroke:#263238;stroke-linecap:round;stroke-linejoin:round"></path><path d="M308.87,243.16c-.77,1.36-2.06,2.09-2.87,1.62s-.85-1.94-.08-3.3,2.06-2.08,2.88-1.62S309.65,241.8,308.87,243.16Z" style="fill:#263238;stroke:#263238;stroke-linecap:round;stroke-linejoin:round"></path><path d="M324.78,250.69c-.77,1.36-2.06,2.09-2.87,1.63s-.85-1.95-.08-3.31,2.06-2.08,2.88-1.62S325.56,249.34,324.78,250.69Z" style="fill:#263238;stroke:#263238;stroke-linecap:round;stroke-linejoin:round"></path><path d="M304.4,232.19A13.66,13.66,0,0,1,315,234.7" style="fill:none;stroke:#263238;stroke-linecap:round;stroke-linejoin:round;stroke-width:2px"></path><path d="M324.51,240.11s7.45.39,7.13,5.8" style="fill:none;stroke:#263238;stroke-linecap:round;stroke-linejoin:round;stroke-width:2px"></path><path d="M296.26,259.22s2,6.37,11.68,9.25" style="fill:none;stroke:#263238;stroke-linecap:round;stroke-linejoin:round"></path><path d="M322.14,245l-2.26,5.29s-5,12.51-5.89,14.18-7.71-1.72-9.59-4.74" style="fill:none;stroke:#263238;stroke-linecap:round;stroke-linejoin:round"></path><path d="M279.57,231.18s1.1,0,4-1.83,6.23,1.47,13.18-1.1-2.93-12.45,6.59-13.18,14.65,14.65,26.36,20.14,19.78,3.3,24.9-9.89-2.19-20.87-8.05-26.72,0-7-1.83-16.11-11-12.82-19.77-9.52-6.6,5.86-11.36,5.86-9.15-6.23-22.33-3.67-23.43,16.48-24.9,29.66,2.93,27.09,4.76,27.83S279.57,231.18,279.57,231.18Z" style="fill:#263238;stroke:#263238;stroke-linecap:round;stroke-linejoin:round"></path><path d="M279.59,236s3.62-11.24-.22-14.57-10.21-1.2-11.52,3.77-3.38,13.89-1.21,16.17,6.41,1.59,6.41,1.59" style="fill:#fff;stroke:#263238;stroke-linecap:round;stroke-linejoin:round"></path><path d="M401,446.05l-15.74-57.83a20.16,20.16,0,0,0-19.46-14.87H302.83a20.17,20.17,0,0,0-20.09,18.32l-5,54.38Z" style="fill:#263238;stroke:#263238;stroke-linecap:round;stroke-linejoin:round"></path><path d="M356.1,327.5s-47.24,21.24-49.43,23.43-15.75,95.12-15.75,95.12H453.86S428.59,348,425.3,345.81s-46.5-20.14-47.6-20.14S356.1,327.5,356.1,327.5Z" style="fill:#92E3A9;stroke:#263238;stroke-linecap:round;stroke-linejoin:round"></path><path d="M413,331.5s4.67.22,5.52,1.49,3,9.13,2.12,11-2.76.21-4-2.12-2.34-4.67-2.34-4.67l-2.34-1.7Z" style="fill:#fff;stroke:#263238;stroke-linecap:round;stroke-linejoin:round"></path><path d="M407,326.83s5.95.64,6.8,2.76.63,7.65-.22,10.83-2.33,5.31-3.61,4.25-3.82-12.32-3.82-13.59S406.36,326.83,407,326.83Z" style="fill:#fff;stroke:#263238;stroke-linecap:round;stroke-linejoin:round"></path><path d="M402.76,323.86s5.52,1.49,6.58,3,1.06,9.77,0,12.95-3.61,4-4.89,3.19-2.54-6.16-2.54-8.71S402.76,323.86,402.76,323.86Z" style="fill:#fff;stroke:#263238;stroke-linecap:round;stroke-linejoin:round"></path><path d="M395.74,322.94s5.61-2.16,7.33,0,.86,18.54-.43,20.27-5.18,0-5.18-2.16S396,333,396,333l-6.69-2.72S392.72,322.94,395.74,322.94Z" style="fill:#fff;stroke:#263238;stroke-linecap:round;stroke-linejoin:round"></path><line x1="395.96" y1="332.99" x2="395.33" y2="327.9" style="fill:#fff;stroke:#263238;stroke-linecap:round;stroke-linejoin:round"></line><path d="M353.47,329.12s-7.13,1.42-7.6,7.13.95,33.73,4.75,36.58S373,362.37,373,362.37,387.67,370,391,367.6s.47-27.08-6.65-36.58S353.47,329.12,353.47,329.12Z" style="fill:#fff;stroke:#263238;stroke-linecap:round;stroke-linejoin:round"></path><line x1="324.34" y1="415.41" x2="331.56" y2="377.18" style="fill:none;stroke:#263238;stroke-linecap:round;stroke-linejoin:round"></line><polyline points="413.07 369.96 421.73 401.3 415.96 444.99" style="fill:none;stroke:#263238;stroke-linecap:round;stroke-linejoin:round"></polyline><ellipse cx="332.7" cy="301.56" rx="22.52" ry="21.42" style="fill:#263238;stroke:#263238;stroke-linecap:round;stroke-linejoin:round"></ellipse><path d="M341.13,321a18.22,18.22,0,0,0,3.22-1.65" style="fill:none;stroke:#6e6e6e;stroke-linecap:round;stroke-linejoin:round"></path><path d="M313,291.75s-5.32,14.4,3.45,24.1c6.17,6.84,14.67,7.62,21.12,6.17" style="fill:none;stroke:#6e6e6e;stroke-linecap:round;stroke-linejoin:round"></path><path d="M351.7,315.42s-.36,14.28-.36,18.31,12.08,22,19.4,23.06,10.25-12.45,10.62-18.67,1.83-15,1.83-15S362,327.5,351.7,315.42Z" style="fill:#fff;stroke:#263238;stroke-linecap:round;stroke-linejoin:round"></path><path d="M378.43,329.17l-3.72-5.29c-7.08.06-17-1.33-23-8.46,0,0-.23,9.22-.33,14.93C368.38,333.94,378.43,329.17,378.43,329.17Z" style="fill:#263238;stroke:#263238;stroke-linecap:round;stroke-linejoin:round"></path><path d="M344.38,304.8s4.39,12.08,10.62,17.94,18.31,13.55,26.73,9.15,13.91-10.25,16.11-23.79,0-44.67,0-44.67-1.1-6.59-12.82-8.79-31.85,1.83-35.88,9.89S344,283.2,344,289.79,344.38,304.8,344.38,304.8Z" style="fill:#fff;stroke:#263238;stroke-linecap:round;stroke-linejoin:round"></path><ellipse cx="371.79" cy="292.41" rx="1.7" ry="2.83" style="fill:#263238;stroke:#263238;stroke-linecap:round;stroke-linejoin:round"></ellipse><path d="M391.05,291.08c0,1.57-.76,2.84-1.7,2.84s-1.7-1.27-1.7-2.84.76-2.83,1.7-2.83S391.05,289.52,391.05,291.08Z" style="fill:#263238;stroke:#263238;stroke-linecap:round;stroke-linejoin:round"></path><path d="M366.69,286.18s1.51-4.91,7.93-4.16" style="fill:none;stroke:#263238;stroke-linecap:round;stroke-linejoin:round"></path><path d="M385.57,282s3.78-5.28,9.06,1.51" style="fill:none;stroke:#263238;stroke-linecap:round;stroke-linejoin:round"></path><path d="M385.57,293s-1.51,4.15,0,6,2.27,5.67-.38,6.42a26,26,0,0,1-6,.76" style="fill:none;stroke:#263238;stroke-linecap:round;stroke-linejoin:round"></path><path d="M370.47,312.6s4.91,4.54,14.72,2.27" style="fill:none;stroke:#263238;stroke-linecap:round;stroke-linejoin:round"></path><path d="M391.61,262.77l7.55,17.74s8.69-6.79,7.18-18.12-7.93-12.08-7.93-12.08Z" style="fill:#263238;stroke:#263238;stroke-linecap:round;stroke-linejoin:round"></path><path d="M342.18,287.59s1.42,5,5.81,1.7,9.2-13.78,9.2-13.78-5.85,7.69-2.19,9.89,19-1.84,35.88-18.31,13.55-26,5.49-32.59-26.36,4-26.36,4-12.82-4-28.92,5.49-13.19,31.86-10.62,35.88S333.4,291.25,342.18,287.59Z" style="fill:#263238;stroke:#263238;stroke-linecap:round;stroke-linejoin:round"></path><path d="M346.17,291.59s-2.93-9.16-7.69-8.79-7.69,15-1.83,21.6,9.15,1.1,9.15,1.1" style="fill:#fff;stroke:#263238;stroke-linecap:round;stroke-linejoin:round"></path><path d="M343.58,304a2.36,2.36,0,1,1-2.36-2.35A2.36,2.36,0,0,1,343.58,304Z" style="fill:#92E3A9;stroke:#263238;stroke-linecap:round;stroke-linejoin:round"></path><path d="M391.25,360.82l11,23.8s41.74,24.53,44.3,25.63,9.52,7.69,10.62,16.47-4,13.92-10.25,13.92-12.08-1.47-16.84-5.49-36.62-43.57-36.62-43.57-6.95-4-8.78-5.5-3.67-5.49-3.67-5.49-3.66,1.83-6.22,1.47-6.59-8.79-6.59-8.79,4-13.18,5.13-15,11-2.2,11-2.2Z" style="fill:#fff;stroke:#263238;stroke-linecap:round;stroke-linejoin:round"></path><polyline points="376.23 376.93 380.26 375.46 380.99 377.3 380.99 380.59" style="fill:none;stroke:#263238;stroke-linecap:round;stroke-linejoin:round"></polyline><path d="M353.17,381l9.15-27.83s10.62-4,13.55-4.76,11.71,7,13.55,7.32,2.92,4.76,1.83,5.13-4.76-1.47-4.76-1.47l-11,1.84s-3.29,17.2-6.95,21.23a60.78,60.78,0,0,1-9.89,8.06S323.14,433,320.58,437s-15,11.35-23.8,6.22-4-17.57-1.46-22S353.17,381,353.17,381Z" style="fill:#fff;stroke:#263238;stroke-linecap:round;stroke-linejoin:round"></path><polyline points="389.42 355.69 380 353.65 373.32 355.14" style="fill:none;stroke:#263238;stroke-linecap:round;stroke-linejoin:round"></polyline><polyline points="369.34 352.56 379.26 350.69 382.23 351.06" style="fill:none;stroke:#263238;stroke-linecap:round;stroke-linejoin:round"></polyline><path d="M238.35,255.41s6.6,17.58,5.5,35.15,4.39,75.06,5.86,81.28S253,388.69,253,388.69s57.48,27.82,67.74,31.85a190.76,190.76,0,0,0,23.06,7s21.6-7.33,23.8-9.16,7.69.73,7.69.73,11.72,3.3,12.45,4.4.36,15.74.36,15.74,1.47,4,.37,4.4-13.18,3.29-17.21,2.19-14.64-5.86-14.64-5.86-8.06,2.93-12.09,2.2-9.15-1.83-9.15-1.83-68.1-11-86.41-15.38-29.65-6.95-31.48-13.54-20.51-87.51-21.24-91.9" style="fill:#7d7d7d;stroke:#263238;stroke-linecap:round;stroke-linejoin:round"></path><path d="M361.14,431.71H384a8.3,8.3,0,0,1,8.3,8.3v6a0,0,0,0,1,0,0H352.84a0,0,0,0,1,0,0v-6A8.3,8.3,0,0,1,361.14,431.71Z" style="fill:#263238;stroke:#263238;stroke-linecap:round;stroke-linejoin:round"></path><path d="M371.26,445.8c4,1.1,16.11-1.83,17.21-2.19s-.37-4.4-.37-4.4.37-14.64-.36-15.74-12.45-4.4-12.45-4.4-5.49-2.56-7.69-.73-23.8,9.16-23.8,9.16a190.76,190.76,0,0,1-23.06-7c-3.63-1.42-13.15-5.82-23.95-10.91-13.79,3.7-14.9,15.73-14.56,21.72,25,4.42,53.15,9,53.15,9s5.13,1.1,9.15,1.83,12.09-2.2,12.09-2.2S367.24,444.7,371.26,445.8Z" style="fill:#fff;stroke:#263238;stroke-linecap:round;stroke-linejoin:round"></path><path d="M374.92,422.74s6.23,7.32,8.42,10.25,4.76,6.22,4.76,6.22" style="fill:none;stroke:#263238;stroke-linecap:round;stroke-linejoin:round"></path><path d="M365.77,424.93s9.52,9.89,12.08,11.72,5.86,8.05,5.86,8.05" style="fill:none;stroke:#263238;stroke-linecap:round;stroke-linejoin:round"></path><path d="M358.08,431.16s12.08,8.78,13.55,9.88a57,57,0,0,1,4.76,4.76" style="fill:none;stroke:#263238;stroke-linecap:round;stroke-linejoin:round"></path><path d="M305.06,413.5c-2.61-1.21-5.39-2.51-8.27-3.87-13.79,3.7-14.9,15.73-14.56,21.72l9.92,1.74C293.37,422.17,300.71,416.15,305.06,413.5Z" style="fill:#92E3A9;stroke:#263238;stroke-linecap:round;stroke-linejoin:round"></path></g><g id="Device"><path d="M417.5,439.56H566.36a0,0,0,0,1,0,0V446a0,0,0,0,1,0,0H411.63a0,0,0,0,1,0,0v-.62A5.88,5.88,0,0,1,417.5,439.56Z" style="fill:#263238;stroke:#263238;stroke-linecap:round;stroke-linejoin:round"></path><rect x="472.22" y="439.56" width="94.14" height="6.49" style="fill:#fff;stroke:#263238;stroke-linecap:round;stroke-linejoin:round"></rect><polygon points="576.64 366.52 482.5 366.52 472.22 439.01 566.36 439.01 576.64 366.52" style="fill:#fff;stroke:#263238;stroke-linecap:round;stroke-linejoin:round"></polygon><path d="M566.36,439l9-63.65c-12.17,9.47-29.71,24.1-49.79,40.75C510.24,428.86,497.4,435.53,488,439Z" style="fill:#263238;stroke:#263238;stroke-linecap:round;stroke-linejoin:round"></path><ellipse cx="526.69" cy="407.09" rx="9.02" ry="7.57" style="fill:#fff;stroke:#263238;stroke-linecap:round;stroke-linejoin:round"></ellipse><line x1="604" y1="446.05" x2="612.85" y2="446.05" style="fill:none;stroke:#263238;stroke-linecap:round;stroke-linejoin:round"></line><line x1="68" y1="446.05" x2="597" y2="446.05" style="fill:none;stroke:#263238;stroke-linecap:round;stroke-linejoin:round"></line></g><g id="Window"><circle cx="494.88" cy="155.83" r="16.79" transform="translate(241.67 608.68) rotate(-78.27)" style="fill:#92E3A9;stroke:#263238;stroke-linecap:round;stroke-linejoin:round"></circle><line x1="494.35" y1="153.88" x2="494.35" y2="218.57" style="fill:none;stroke:#263238;stroke-linecap:round;stroke-linejoin:round"></line><line x1="494.35" y1="163.43" x2="503.9" y2="153.53" style="fill:none;stroke:#263238;stroke-linecap:round;stroke-linejoin:round"></line><line x1="493.64" y1="168.38" x2="488.16" y2="162.9" style="fill:none;stroke:#263238;stroke-linecap:round;stroke-linejoin:round"></line><circle cx="470.94" cy="176.81" r="11.21" transform="translate(-31.77 195.11) rotate(-22.66)" style="fill:#92E3A9;stroke:#263238;stroke-linecap:round;stroke-linejoin:round"></circle><line x1="470.58" y1="175.52" x2="470.58" y2="218.72" style="fill:none;stroke:#263238;stroke-linecap:round;stroke-linejoin:round"></line><line x1="470.58" y1="181.89" x2="476.96" y2="175.28" style="fill:none;stroke:#263238;stroke-linecap:round;stroke-linejoin:round"></line><line x1="470.11" y1="185.19" x2="466.45" y2="181.54" style="fill:none;stroke:#263238;stroke-linecap:round;stroke-linejoin:round"></line><circle cx="578.9" cy="167.67" r="11.21" style="fill:#92E3A9;stroke:#263238;stroke-linecap:round;stroke-linejoin:round"></circle><line x1="578.54" y1="166.37" x2="578.54" y2="209.58" style="fill:none;stroke:#263238;stroke-linecap:round;stroke-linejoin:round"></line><line x1="578.54" y1="172.75" x2="584.92" y2="166.14" style="fill:none;stroke:#263238;stroke-linecap:round;stroke-linejoin:round"></line><line x1="578.07" y1="176.05" x2="574.41" y2="172.39" style="fill:none;stroke:#263238;stroke-linecap:round;stroke-linejoin:round"></line><rect x="471.55" y="194.66" width="114.5" height="36.13" style="fill:#fff;stroke:#263238;stroke-linecap:round;stroke-linejoin:round"></rect><polygon points="528.95 161.69 471.86 194.66 586.05 194.66 528.95 161.69" style="fill:#92E3A9;stroke:#263238;stroke-linecap:round;stroke-linejoin:round"></polygon><rect x="523.67" y="191.72" width="28.33" height="39.07" style="fill:#fff;stroke:#263238;stroke-linecap:round;stroke-linejoin:round"></rect><rect x="523.67" y="191.72" width="28.33" height="1.66" style="fill:#263238;stroke:#263238;stroke-linecap:round;stroke-linejoin:round"></rect><path d="M544.91,230.79H530.76V206.37a7.07,7.07,0,0,1,7.07-7.07h0a7.07,7.07,0,0,1,7.08,7.07Z" style="fill:#263238;stroke:#263238;stroke-linecap:round;stroke-linejoin:round"></path><rect x="463.33" y="200.99" width="65.63" height="29.8" style="fill:#fff;stroke:#263238;stroke-linecap:round;stroke-linejoin:round"></rect><rect x="463.33" y="200.99" width="65.63" height="1.33" style="fill:#263238;stroke:#263238;stroke-linecap:round;stroke-linejoin:round"></rect><rect x="470.55" y="203.45" width="51.19" height="27.34" style="fill:#92E3A9;stroke:#263238;stroke-linecap:round;stroke-linejoin:round"></rect><polygon points="496.15 179.19 461.32 199.3 530.98 199.3 496.15 179.19" style="fill:#92E3A9;stroke:#263238;stroke-linecap:round;stroke-linejoin:round"></polygon><rect x="461.32" y="199.3" width="69.66" height="1.69" style="fill:#fff;stroke:#263238;stroke-linecap:round;stroke-linejoin:round"></rect><polygon points="537.83 180.38 519.79 190.8 555.87 190.8 537.83 180.38" style="fill:#92E3A9;stroke:#263238;stroke-linecap:round;stroke-linejoin:round"></polygon><rect x="519.8" y="190.8" width="36.08" height="1.67" style="fill:#fff;stroke:#263238;stroke-linecap:round;stroke-linejoin:round"></rect><rect x="472.42" y="205.64" width="4.15" height="4.15" style="fill:#fff;stroke:#263238;stroke-linecap:round;stroke-linejoin:round;stroke-width:0.5px"></rect><rect x="478.64" y="205.64" width="4.15" height="4.15" style="fill:#fff;stroke:#263238;stroke-linecap:round;stroke-linejoin:round;stroke-width:0.5px"></rect><rect x="484.85" y="205.64" width="4.15" height="4.15" style="fill:#fff;stroke:#263238;stroke-linecap:round;stroke-linejoin:round;stroke-width:0.5px"></rect><rect x="491.07" y="205.64" width="4.15" height="4.15" style="fill:#fff;stroke:#263238;stroke-linecap:round;stroke-linejoin:round;stroke-width:0.5px"></rect><rect x="497.29" y="205.64" width="4.15" height="4.15" style="fill:#fff;stroke:#263238;stroke-linecap:round;stroke-linejoin:round;stroke-width:0.5px"></rect><rect x="503.51" y="205.64" width="4.15" height="4.15" style="fill:#fff;stroke:#263238;stroke-linecap:round;stroke-linejoin:round;stroke-width:0.5px"></rect><rect x="509.72" y="205.64" width="4.15" height="4.15" style="fill:#fff;stroke:#263238;stroke-linecap:round;stroke-linejoin:round;stroke-width:0.5px"></rect><rect x="515.94" y="205.64" width="4.15" height="4.15" style="fill:#fff;stroke:#263238;stroke-linecap:round;stroke-linejoin:round;stroke-width:0.5px"></rect><rect x="472.42" y="211.74" width="4.15" height="4.15" style="fill:#fff;stroke:#263238;stroke-linecap:round;stroke-linejoin:round;stroke-width:0.5px"></rect><rect x="478.64" y="211.74" width="4.15" height="4.15" style="fill:#fff;stroke:#263238;stroke-linecap:round;stroke-linejoin:round;stroke-width:0.5px"></rect><rect x="484.85" y="211.74" width="4.15" height="4.15" style="fill:#fff;stroke:#263238;stroke-linecap:round;stroke-linejoin:round;stroke-width:0.5px"></rect><rect x="491.07" y="211.74" width="4.15" height="4.15" style="fill:#fff;stroke:#263238;stroke-linecap:round;stroke-linejoin:round;stroke-width:0.5px"></rect><rect x="497.29" y="211.74" width="4.15" height="4.15" style="fill:#fff;stroke:#263238;stroke-linecap:round;stroke-linejoin:round;stroke-width:0.5px"></rect><rect x="503.51" y="211.74" width="4.15" height="4.15" style="fill:#fff;stroke:#263238;stroke-linecap:round;stroke-linejoin:round;stroke-width:0.5px"></rect><rect x="509.72" y="211.74" width="4.15" height="4.15" style="fill:#fff;stroke:#263238;stroke-linecap:round;stroke-linejoin:round;stroke-width:0.5px"></rect><rect x="515.94" y="211.74" width="4.15" height="4.15" style="fill:#fff;stroke:#263238;stroke-linecap:round;stroke-linejoin:round;stroke-width:0.5px"></rect><rect x="472.42" y="217.84" width="4.15" height="4.15" style="fill:#fff;stroke:#263238;stroke-linecap:round;stroke-linejoin:round;stroke-width:0.5px"></rect><rect x="478.64" y="217.84" width="4.15" height="4.15" style="fill:#fff;stroke:#263238;stroke-linecap:round;stroke-linejoin:round;stroke-width:0.5px"></rect><rect x="484.85" y="217.84" width="4.15" height="4.15" style="fill:#fff;stroke:#263238;stroke-linecap:round;stroke-linejoin:round;stroke-width:0.5px"></rect><rect x="491.07" y="217.84" width="4.15" height="4.15" style="fill:#fff;stroke:#263238;stroke-linecap:round;stroke-linejoin:round;stroke-width:0.5px"></rect><rect x="497.29" y="217.84" width="4.15" height="4.15" style="fill:#fff;stroke:#263238;stroke-linecap:round;stroke-linejoin:round;stroke-width:0.5px"></rect><rect x="503.51" y="217.84" width="4.15" height="4.15" style="fill:#fff;stroke:#263238;stroke-linecap:round;stroke-linejoin:round;stroke-width:0.5px"></rect><rect x="509.72" y="217.84" width="4.15" height="4.15" style="fill:#fff;stroke:#263238;stroke-linecap:round;stroke-linejoin:round;stroke-width:0.5px"></rect><rect x="515.94" y="217.84" width="4.15" height="4.15" style="fill:#fff;stroke:#263238;stroke-linecap:round;stroke-linejoin:round;stroke-width:0.5px"></rect><rect x="472.42" y="223.94" width="4.15" height="4.15" style="fill:#fff;stroke:#263238;stroke-linecap:round;stroke-linejoin:round;stroke-width:0.5px"></rect><rect x="478.64" y="223.94" width="4.15" height="4.15" style="fill:#fff;stroke:#263238;stroke-linecap:round;stroke-linejoin:round;stroke-width:0.5px"></rect><rect x="484.85" y="223.94" width="4.15" height="4.15" style="fill:#fff;stroke:#263238;stroke-linecap:round;stroke-linejoin:round;stroke-width:0.5px"></rect><rect x="491.07" y="223.94" width="4.15" height="4.15" style="fill:#fff;stroke:#263238;stroke-linecap:round;stroke-linejoin:round;stroke-width:0.5px"></rect><rect x="497.29" y="223.94" width="4.15" height="4.15" style="fill:#fff;stroke:#263238;stroke-linecap:round;stroke-linejoin:round;stroke-width:0.5px"></rect><rect x="503.51" y="223.94" width="4.15" height="4.15" style="fill:#fff;stroke:#263238;stroke-linecap:round;stroke-linejoin:round;stroke-width:0.5px"></rect><rect x="509.72" y="223.94" width="4.15" height="4.15" style="fill:#fff;stroke:#263238;stroke-linecap:round;stroke-linejoin:round;stroke-width:0.5px"></rect><rect x="515.94" y="223.94" width="4.15" height="4.15" style="fill:#fff;stroke:#263238;stroke-linecap:round;stroke-linejoin:round;stroke-width:0.5px"></rect><polygon points="589.3 230.79 547.43 230.79 547.43 191.72 568.37 180.38 589.3 191.72 589.3 230.79" style="fill:#fff;stroke:#263238;stroke-linecap:round;stroke-linejoin:round"></polygon><polygon points="592.5 193.39 568.37 180.31 544.24 193.39 543.48 192 568.37 178.52 593.25 192 592.5 193.39" style="fill:#fff;stroke:#263238;stroke-linecap:round;stroke-linejoin:round"></polygon><polygon points="547.43 191.72 547.43 192.67 568.37 181.33 589.3 192.67 589.3 191.72 568.37 180.38 547.43 191.72" style="fill:#263238;stroke:#263238;stroke-linecap:round;stroke-linejoin:round"></polygon><rect x="569.04" y="205.11" width="7.02" height="4.88" style="fill:#263238;stroke:#263238;stroke-linecap:round;stroke-linejoin:round"></rect><rect x="569.04" y="211.6" width="7.02" height="4.88" style="fill:#263238;stroke:#263238;stroke-linecap:round;stroke-linejoin:round"></rect><rect x="569.04" y="198.3" width="7.02" height="5.21" style="fill:#263238;stroke:#263238;stroke-linecap:round;stroke-linejoin:round"></rect><rect x="560.41" y="198.3" width="7.02" height="5.21" style="fill:#263238;stroke:#263238;stroke-linecap:round;stroke-linejoin:round"></rect><rect x="560.41" y="211.6" width="7.02" height="4.88" style="fill:#263238;stroke:#263238;stroke-linecap:round;stroke-linejoin:round"></rect><rect x="560.41" y="205.11" width="7.02" height="4.88" style="fill:#263238;stroke:#263238;stroke-linecap:round;stroke-linejoin:round"></rect><rect x="569.04" y="218.09" width="7.02" height="4.49" style="fill:#263238;stroke:#263238;stroke-linecap:round;stroke-linejoin:round"></rect><rect x="560.41" y="218.09" width="7.02" height="4.49" style="fill:#263238;stroke:#263238;stroke-linecap:round;stroke-linejoin:round"></rect><rect x="483.35" y="245.86" width="86.56" height="33.18" rx="7" style="fill:#92E3A9;stroke:#263238;stroke-linecap:round;stroke-linejoin:round"></rect><path d="M509.21,255.8c2,0,3.08,1.22,3.08,3.36v.42h-2V259c0-.95-.38-1.31-1.05-1.31s-1,.36-1,1.31c0,2.75,4.09,3.26,4.09,7.07,0,2.14-1.06,3.36-3.12,3.36s-3.13-1.22-3.13-3.36v-.82h2v1c0,.95.42,1.29,1.09,1.29s1.09-.34,1.09-1.29c0-2.75-4.1-3.26-4.1-7.07C506.12,257,507.17,255.8,509.21,255.8Z" style="fill:#263238"></path><path d="M515.61,261.58h2.87v1.9h-2.87v3.91h3.62v1.9h-5.72V256h5.72v1.9h-3.62Z" style="fill:#263238"></path><path d="M520.52,256h2.09v11.43h3.45v1.9h-5.54Z" style="fill:#263238"></path><path d="M529.07,261.58H532v1.9h-2.88v3.91h3.62v1.9H527V256h5.72v1.9h-3.62Z" style="fill:#263238"></path><path d="M540.06,264.32v1.77c0,2.14-1.07,3.36-3.12,3.36s-3.13-1.22-3.13-3.36v-6.93c0-2.14,1.07-3.36,3.13-3.36s3.12,1.22,3.12,3.36v1.29h-2V259c0-.95-.42-1.31-1.09-1.31s-1.08.36-1.08,1.31v7.21c0,.95.42,1.29,1.08,1.29s1.09-.34,1.09-1.29v-1.91Z" style="fill:#263238"></path><path d="M540.73,256h6.47v1.9H545v11.43h-2.09V257.86h-2.19Z" style="fill:#263238"></path><path d="M555,294.28s-4.3-6.94-5.69-8-4.72-1-5.27,1.38.83,3.61,1.8,4.58a49.4,49.4,0,0,1,3.47,5c1.19,1.93,1.45,4.9,2.5,7,2.4,4.81,7.11,8.89,12.71,8.92,6.2,0,12.14-5.31,13-11.49.34-2.62.4-9.92.41-12.44a2.33,2.33,0,0,0-.55-1.54,3,3,0,0,0-3.84-.59l-.46.28-.49-.77a3.54,3.54,0,0,0-1.52-1.4,2.81,2.81,0,0,0-3.34.54l-.48.53-.56-.91c-1.22-1.47-3.86-1.61-5-.07v-11a3.27,3.27,0,0,0-6.54,0Z" style="fill:#fff;stroke:#263238;stroke-linecap:round;stroke-linejoin:round"></path><line x1="567.17" y1="286.24" x2="567.17" y2="292.62" style="fill:#fff;stroke:#263238;stroke-linecap:round;stroke-linejoin:round"></line><line x1="573" y1="287.34" x2="573" y2="293.03" style="fill:#fff;stroke:#263238;stroke-linecap:round;stroke-linejoin:round"></line><line x1="561.62" y1="285.26" x2="561.62" y2="291.78" style="fill:#fff;stroke:#263238;stroke-linecap:round;stroke-linejoin:round"></line><line x1="558.35" y1="262.12" x2="558.35" y2="268.6" style="fill:none;stroke:#263238;stroke-linecap:round;stroke-linejoin:round"></line><line x1="563.59" y1="272.59" x2="569.08" y2="272.59" style="fill:none;stroke:#263238;stroke-linecap:round;stroke-linejoin:round"></line><line x1="546.88" y1="272.59" x2="552.37" y2="272.59" style="fill:none;stroke:#263238;stroke-linecap:round;stroke-linejoin:round"></line><line x1="562.34" y1="268.6" x2="564.59" y2="265.86" style="fill:none;stroke:#263238;stroke-linecap:round;stroke-linejoin:round"></line><line x1="553.61" y1="268.6" x2="551.37" y2="265.86" style="fill:none;stroke:#263238;stroke-linecap:round;stroke-linejoin:round"></line><rect x="450.74" y="114.92" width="152.21" height="207.75" rx="7.67" style="fill:none;stroke:#263238;stroke-linecap:round;stroke-linejoin:round"></rect><path d="M594.66,114.92H459a8.3,8.3,0,0,0-8.3,8.3V125H603v-1.8A8.29,8.29,0,0,0,594.66,114.92Z" style="fill:#263238;stroke:#263238;stroke-linecap:round;stroke-linejoin:round"></path><circle cx="579.87" cy="119.77" r="2.34" style="fill:#fff;stroke:#263238;stroke-linecap:round;stroke-linejoin:round"></circle><circle cx="588.53" cy="119.77" r="2.34" style="fill:#fff;stroke:#263238;stroke-linecap:round;stroke-linejoin:round"></circle><line x1="530.94" y1="323.39" x2="530.94" y2="366.68" style="fill:none;stroke:#263238;stroke-linecap:round;stroke-linejoin:round"></line></g></svg>