<svg xmlns="http://www.w3.org/2000/svg" viewBox="0 0 500 500"><g id="Background"><path d="M79.9,156.68c-18.45,25.78-32.46,54.47-40.28,84.66C33.55,264.77,5.32,399.53,198,430.68,406.44,464.38,449.87,373.14,462.56,293,484.88,152.13,418.38,70.64,323.31,49.07,281,39.48,236,42.94,196.89,60.48,151.14,81,109.71,115.05,79.9,156.68Z" style="fill:#455a64"></path></g><g id="hand-2"><path d="M351.86,133.9a126.63,126.63,0,0,1,30.41,7.43c15.21,6,24.31,19.55,42.45,23.54,0,0,22.73,28,0,70.63l-31.78-4.85a37.06,37.06,0,0,0-14,.49c-6.26,1.46-17.54,2.92-33.23.37Z" style="fill:#ffa8a7"></path><polygon points="239.45 248.83 263.55 262.87 263.55 360 239.34 345.78 239.45 248.83" style="fill:#BA68C8"></polygon><polygon points="239.45 248.83 263.55 262.87 263.55 360 239.34 345.78 239.45 248.83" style="opacity:0.2"></polygon><path d="M245.26,264.56l9-30c6.5-9.13,10.73-20.36,10.73-30.3,0-16.37-11.49-23-25.66-14.82s-25.67,28.09-25.67,44.46c0,8.05,2.78,13.74,7.29,16.48h0l.41.24Z" style="fill:#BA68C8"></path><polygon points="239.45 92.5 263.55 106.54 263.55 203.68 239.34 189.45 239.45 92.5" style="fill:#BA68C8"></polygon><polygon points="239.45 92.5 263.55 106.54 263.55 203.68 239.34 189.45 239.45 92.5" style="opacity:0.2"></polygon><path d="M342.36,99.58l-.37-.22.36.22Z" style="fill:#ffa8a7"></path><path d="M340.56,98.53,318.51,85.69h0c-20-12.41-48-11.12-79.06,6.81a.41.41,0,0,0-.11.07l24.21,14C293.56,89.22,320.75,87.43,340.56,98.53Z" style="fill:#BA68C8"></path><path d="M340.56,98.53l1.43.83Z" style="fill:#ffa8a7"></path><path d="M342.35,99.58l-.36-.22-1.43-.83c-19.81-11.1-47-9.31-77,8v97.13c-14.16,8.18-25.64,28.06-25.64,44.4s11.48,23,25.64,14.8V360C324.16,325,373.3,239.9,373.3,169.91,373.3,135.62,361.5,111.33,342.35,99.58Z" style="fill:#BA68C8"></path><path d="M342.35,99.58l-.36-.22-1.43-.83c-19.81-11.1-47-9.31-77,8v97.13c-14.16,8.18-25.64,28.06-25.64,44.4s11.48,23,25.64,14.8V360C324.16,325,373.3,239.9,373.3,169.91,373.3,135.62,361.5,111.33,342.35,99.58Z" style="fill:#fff;opacity:0.30000000000000004"></path><path d="M348.56,142.52a50.94,50.94,0,0,0-20-21.81c-17.66-10.19-40.66-8.42-65,5v10.4c.74-.46,1.49-.9,2.25-1.34,13.28-7.67,26-11.54,37.35-11.54A41.22,41.22,0,0,1,324,128.51c14.45,8.34,22.77,25.75,23.65,49.28q.09,2.1.09,4.26c0,54.19-37.58,120.13-84.22,148.44v10.39l2.25-1.26c50.16-29,91-99.65,91-157.57C356.77,166.62,353.94,153.25,348.56,142.52Z" style="fill:#fff"></path><path d="M335.74,194.19c0-22.55-7.84-39.5-22.08-47.72-13.69-7.9-31.41-6.65-50.11,3.49v10.41c.74-.46,1.49-.93,2.25-1.36,10-5.76,19.49-8.67,28-8.67a30.41,30.41,0,0,1,15.4,3.92c11.34,6.55,17.58,20.73,17.58,39.93,0,40.8-28.15,90.37-63.19,112v10.41q1.11-.6,2.25-1.26C304.36,293.07,335.74,238.72,335.74,194.19Z" style="fill:#fff"></path><path d="M314.71,206.33c0-16.07-5.65-28.18-15.92-34.1-9.71-5.61-22.15-4.86-35.24,2v10.39c.74-.47,1.49-.93,2.25-1.36,6.65-3.84,13-5.79,18.57-5.79a19.59,19.59,0,0,1,9.92,2.52c7.36,4.25,11.42,13.6,11.42,26.31,0,27.41-18.72,60.67-42.16,75.56v10.38c.74-.39,1.49-.78,2.25-1.22C292.77,275.48,314.71,237.47,314.71,206.33Z" style="fill:#fff"></path><ellipse cx="263.55" cy="233.33" rx="36.3" ry="20.96" transform="translate(-70.29 344.9) rotate(-60)" style="fill:#fff"></ellipse><ellipse cx="263.55" cy="233.03" rx="18.37" ry="10.61" transform="translate(-70.03 344.75) rotate(-60)" style="fill:#BA68C8"></ellipse><ellipse cx="263.55" cy="233.03" rx="18.37" ry="10.61" transform="translate(-70.03 344.75) rotate(-60)" style="fill:#fff;opacity:0.30000000000000004"></ellipse><path d="M378.25,159l-11.85-3.28a21.6,21.6,0,0,0-8.69-.58c-8.35,1.16-26,3.6-30.14,4.1-5.4.66-8.11,7.79-4.36,13.66s12.53,13.75,39.55,11.79c0,0,13.27,34.48,46.31,15.41C418.83,194.49,412,170,378.25,159Z" style="fill:#ffa8a7"></path><path d="M386.13,163.53a1.49,1.49,0,0,1-.61-.13c-2.44-1.08-5-2.07-7.74-3l-6.67-1.85a1.5,1.5,0,1,1,.8-2.89l6.74,1.87a84.07,84.07,0,0,1,8.09,3.08,1.5,1.5,0,0,1-.61,2.87Z" style="fill:#f28f8f"></path><path d="M390.25,207.39c-10.62,0-18-6-22.76-11.88a1.51,1.51,0,0,1,.23-2.11,1.5,1.5,0,0,1,2.11.23c5.6,7,15.42,14.16,30.45,8.93a1.5,1.5,0,1,1,1,2.84A33.44,33.44,0,0,1,390.25,207.39Z" style="fill:#f28f8f"></path><path d="M425.84,168.42c2.93,10.13,9.59,39.86-5.28,62a7.61,7.61,0,0,1-7.49,3.27L408.5,233h0a4.4,4.4,0,0,0,3.46,4.29L459,247.6V159.28l-43,2.76,2.75,1.2a13.66,13.66,0,0,0,2.41.81h0A6.3,6.3,0,0,1,425.84,168.42Z" style="fill:#BA68C8"></path><path d="M443.81,166c3.9,11.82,10.49,40.81-4.94,71.28a7.79,7.79,0,0,1-8.62,4.06l-3.22-.7h0a4.76,4.76,0,0,0,4.25,5.25l52.31,5.42s7.46-11.78,7.46-50.07-10.8-45.47-10.8-45.47l-42.94,1.5a3.66,3.66,0,0,0-3.54,3.66h0l2.31-.15A7.61,7.61,0,0,1,443.81,166Z" style="fill:#263238"></path><path d="M463,236.64a6.26,6.26,0,1,1-6.26-6.25A6.26,6.26,0,0,1,463,236.64Z" style="fill:#fff"></path><path d="M381.56,160.63a1.61,1.61,0,0,1-.37,0,1.52,1.52,0,0,1-1.09-1.83,7.86,7.86,0,0,0-.74-5.68,1.5,1.5,0,0,1,2.62-1.46,10.87,10.87,0,0,1,1,7.88A1.49,1.49,0,0,1,381.56,160.63Z" style="fill:#f28f8f"></path><path d="M388.12,230.66a1.5,1.5,0,0,1-.7-2.82,14.14,14.14,0,0,0,7.22-10.7,1.5,1.5,0,1,1,3,.31,17,17,0,0,1-8.79,13A1.51,1.51,0,0,1,388.12,230.66Z" style="fill:#f28f8f"></path><path d="M335.38,169.21c-.36,0-.73,0-1.09,0-3.76-.27-7-2.16-8.46-4.93a1,1,0,0,1,1.77-.93c1.36,2.59,4.42,3.69,6.84,3.87,2.92.21,5.87-.6,8.72-1.38.85-.23,1.66-.52,1.89-1a2.32,2.32,0,0,0,0-1.25,12.75,12.75,0,0,0-1.43-3.72,1,1,0,1,1,1.73-1A14.36,14.36,0,0,1,347,163.1a4,4,0,0,1-.09,2.45c-.64,1.48-2.31,1.94-3.21,2.18A31.7,31.7,0,0,1,335.38,169.21Z" style="fill:#f28f8f"></path></g><g id="hand-1"><path d="M118.71,265.59S94.6,275.39,89.92,283s-11.1,34.19-14.22,52.5-15.36,32.94-15.36,32.94l18.9,18.32L124.4,297.3Z" style="fill:#ffa8a7"></path><path d="M139,304c0-70,49.14-155.1,109.75-190.09l-24.21-14C164,135,114.91,220,114.91,290c0,36.47,13.35,61.63,34.71,72.42h0L171,374.94h0C151.21,363.42,139,338.88,139,304Z" style="fill:#BA68C8"></path><path d="M139,304c0-70,49.14-155.1,109.75-190.09l-24.21-14C164,135,114.91,220,114.91,290c0,36.47,13.35,61.63,34.71,72.42h0L171,374.94h0C151.21,363.42,139,338.88,139,304Z" style="fill:#fff;opacity:0.30000000000000004"></path><path d="M139,304c0,34.87,12.2,59.41,31.94,70.93s47.4,10,77.81-7.56V270.24c-14.15,8.18-25.63,1.55-25.63-14.79s11.48-36.23,25.63-44.4V113.92C188.15,148.91,139,234,139,304Z" style="fill:#BA68C8"></path><path d="M248.76,143.43V133q-1.12.61-2.25,1.26c-50.16,29-91,99.65-91,157.57,0,29,10,50.82,28.24,61.34a50.06,50.06,0,0,0,25.35,6.54c1.05,0,2.11,0,3.18-.09,11.41-.61,23.75-4.42,36.45-11.41V337.86c-.74.46-1.49.9-2.25,1.34q-2.1,1.21-4.2,2.3c-20.64,10.78-39.7,12.19-54,3.91-15.31-8.84-23.74-27.85-23.74-53.54C164.54,237.68,202.12,171.74,248.76,143.43Z" style="fill:#fff"></path><path d="M246.51,314.91c-16.63,9.61-32,11.29-43.36,4.74s-17.58-20.72-17.58-39.92c0-40.8,28.15-90.37,63.19-112V157.33c-.75.41-1.5.82-2.25,1.26C208,180.85,176.57,235.2,176.57,279.73c0,22.55,7.84,39.5,22.08,47.72a39.24,39.24,0,0,0,19.87,5.14c9.4,0,19.66-2.89,30.24-8.63V313.55C248,314,247.27,314.48,246.51,314.91Z" style="fill:#fff"></path><path d="M246.51,290.63c-11,6.36-21.13,7.52-28.49,3.27s-11.42-13.6-11.42-26.31c0-27.41,18.71-60.67,42.16-75.56V181.64c-.75.39-1.49.79-2.25,1.23-27,15.57-48.91,53.57-48.91,84.72,0,16.06,5.65,28.18,15.92,34.1a28.34,28.34,0,0,0,14.39,3.74c6.51,0,13.58-2,20.85-5.78V289.27C248,289.74,247.27,290.19,246.51,290.63Z" style="fill:#fff"></path><path d="M139,304c0,34.87,12.2,59.41,31.94,70.93s47.4,10,77.81-7.56V270.24c-14.15,8.18-25.63,1.55-25.63-14.79s11.48-36.23,25.63-44.4V113.92C188.15,148.91,139,234,139,304Z" style="fill:#fff;opacity:0.5"></path><path d="M159.66,344.3c10.93-2.67,19.78-16.3,19.78-16.3s9.59-38.75,24.25-38.19a5.21,5.21,0,0,1,4.95,5.73c-.63,6.35-7.34,31.68-10.91,43.86-4.34,14.83-30.33,37.52-30.33,37.52S148.74,347,159.66,344.3Z" style="fill:#ffa8a7"></path><path d="M153.45,326.2c10.82-3.11,19.11-17.09,19.11-17.09s8-39.1,22.68-39.13a5.21,5.21,0,0,1,5.18,5.51c-.37,6.38-6,31.95-9.13,44.27-3.74,15-28.78,38.72-28.78,38.72S142.64,329.32,153.45,326.2Z" style="fill:#ffa8a7"></path><path d="M175.33,350.6a1.63,1.63,0,0,1-1.21-2.72c6.69-7.46,13.4-19.71,15.59-28.51,1.46-5.84,3.83-16,5.84-25.63a1.63,1.63,0,1,1,3.19.67c-1.75,8.35-4.11,18.7-5.86,25.75-2.35,9.4-9.22,22-16.34,29.9A1.6,1.6,0,0,1,175.33,350.6Z" style="fill:#f28f8f"></path><path d="M145.07,310.68c10.81-3.12,19.1-17.1,19.1-17.1s8-39.1,22.68-39.13A5.21,5.21,0,0,1,192,260c-.37,6.37-6.05,31.95-9.12,44.27-3.74,15-28.79,38.72-28.79,38.72S134.26,313.79,145.07,310.68Z" style="fill:#ffa8a7"></path><path d="M110.67,302.63s7.89,9.39,18.7,6.28,19.1-17.1,19.1-17.1,8-39.1,22.68-39.13a5.21,5.21,0,0,1,5.18,5.52c-.37,6.37-6.05,31.95-9.12,44.27-3.74,15-28.79,38.72-28.79,38.72l-34.66-20.93Z" style="fill:#ffa8a7"></path><path d="M167.4,376.92s-21.43,23.19-65,38.75l-23.15-29L103.76,317l39.35,5S179,341.2,167.4,376.92Z" style="fill:#ffa8a7"></path><path d="M149.25,331.55a1.61,1.61,0,0,1-1.09-.41,1.63,1.63,0,0,1-.13-2.3c9.92-11.12,16-20.37,17.6-26.77,3.38-13.57,8.73-38,9.08-44a1.63,1.63,0,0,1,3.25.19c-.39,6.69-6.18,32.57-9.17,44.57-2.18,8.73-11.17,20.12-18.33,28.15A1.62,1.62,0,0,1,149.25,331.55Z" style="fill:#f28f8f"></path><path d="M163,340a1.6,1.6,0,0,1-1.12-.45,1.62,1.62,0,0,1-.07-2.3c7.18-7.63,17-23.52,19.5-33.38,2.06-8.27,5.34-22.71,7.36-33.17a1.63,1.63,0,1,1,3.21.61c-2,10.52-5.34,25-7.41,33.35-2.65,10.63-12.82,26.89-20.29,34.82A1.63,1.63,0,0,1,163,340Z" style="fill:#f28f8f"></path><path d="M45.76,380.26l15.7-15s42.74,12.7,45,52.63L92.58,427.8Z" style="fill:#BA68C8"></path><path d="M45.76,380.26l15.7-15s42.74,12.7,45,52.63L92.58,427.8Z" style="fill:#fff;opacity:0.30000000000000004"></path><path d="M45.87,373.49c9.07,2.36,46.9,14.93,51.29,60.64a4.44,4.44,0,0,1-1.24,3.51l-29,30.14S.08,447.21,10.13,397.23l32.24-23.09A4.16,4.16,0,0,1,45.87,373.49Z" style="fill:#263238"></path><path d="M87.56,431.43a5.72,5.72,0,1,1-5.72-5.72A5.72,5.72,0,0,1,87.56,431.43Z" style="fill:#fff"></path><path d="M122,310.59a1.84,1.84,0,0,1-.47-.06,21.94,21.94,0,0,1-14.91-16.1,1.63,1.63,0,0,1,3.19-.7,18.85,18.85,0,0,0,12.66,13.67,1.63,1.63,0,0,1-.47,3.19Z" style="fill:#f28f8f"></path></g><g id="Sparkles"><circle cx="155.54" cy="110.87" r="6.1" style="fill:#fafafa"></circle><circle cx="335.74" cy="376.92" r="6.1" style="fill:#fafafa"></circle><path d="M80.48,246.39A4.36,4.36,0,1,1,76.13,242,4.36,4.36,0,0,1,80.48,246.39Z" style="fill:#fafafa"></path><circle cx="363.74" cy="87.2" r="4.35" style="fill:#fafafa"></circle><path d="M128.28,167.31a3,3,0,1,1-3-3.05A3.06,3.06,0,0,1,128.28,167.31Z" style="fill:#fafafa"></path><path d="M317.76,366.35a3,3,0,1,1-3.05-3.05A3,3,0,0,1,317.76,366.35Z" style="fill:#fafafa"></path><path d="M175.06,113.92a3.05,3.05,0,1,1-3.05-3A3,3,0,0,1,175.06,113.92Z" style="fill:#fafafa"></path><path d="M362.07,349a3.05,3.05,0,1,1-3.05-3.05A3.06,3.06,0,0,1,362.07,349Z" style="fill:#fafafa"></path><path d="M106.81,246.39a3.05,3.05,0,1,1-3-3A3,3,0,0,1,106.81,246.39Z" style="fill:#fafafa"></path><path d="M387.4,118a3,3,0,1,1-3-3.05A3.06,3.06,0,0,1,387.4,118Z" style="fill:#fafafa"></path><polygon points="93.22 207.73 100.73 211.84 93.22 215.94 89.11 223.46 85 215.94 77.49 211.84 85 207.73 89.11 200.22 93.22 207.73" style="fill:#BA68C8"></polygon><polygon points="294.06 389.87 301.57 393.98 294.06 398.09 289.95 405.6 285.84 398.09 278.33 393.98 285.84 389.87 289.95 382.36 294.06 389.87" style="fill:#BA68C8"></polygon><polygon points="318.82 44.36 326.33 48.47 318.82 52.58 314.71 60.09 310.6 52.58 303.09 48.47 310.6 44.36 314.71 36.85 318.82 44.36" style="fill:#BA68C8"></polygon><polygon points="338.48 63.84 342.23 65.89 338.48 67.95 336.42 71.7 334.37 67.95 330.61 65.89 334.37 63.84 336.42 60.09 338.48 63.84" style="fill:#BA68C8"></polygon><polygon points="240.69 61.09 245.76 63.86 240.69 66.63 237.91 71.7 235.14 66.63 230.07 63.86 235.14 61.09 237.91 56.01 240.69 61.09" style="fill:#BA68C8"></polygon><polygon points="239.97 391.93 243.72 393.98 239.97 396.04 237.91 399.79 235.86 396.04 232.1 393.98 235.86 391.93 237.91 388.17 239.97 391.93" style="fill:#BA68C8"></polygon><polygon points="398.18 253.86 401.94 255.91 398.18 257.96 396.13 261.72 394.07 257.96 390.32 255.91 394.07 253.86 396.13 250.1 398.18 253.86" style="fill:#BA68C8"></polygon></g><g id="Arrow"><polygon points="417.54 289.74 358.55 255.91 317.86 264.64 330.89 304.16 389.88 337.99 376.85 298.46 417.54 289.74" style="fill:#BA68C8"></polygon><polygon points="417.54 289.74 358.55 255.91 317.86 264.64 330.89 304.16 389.88 337.99 376.85 298.46 417.54 289.74" style="opacity:0.30000000000000004"></polygon><path d="M340.08,304.49a1,1,0,0,1-.95-.69l-10.34-31.35,13.69-2.94a1,1,0,0,1,1.19.77,1,1,0,0,1-.77,1.18l-11.51,2.47L341,303.18a1,1,0,0,1-.64,1.26A1.18,1.18,0,0,1,340.08,304.49Z" style="fill:#BA68C8"></path><path d="M350.83,269.74a1,1,0,0,1-.21-2L363.53,265A1,1,0,1,1,364,267L351,269.72Z" style="fill:#BA68C8"></path><path d="M341.49,277.56a1,1,0,0,1-.21-2l23.46-5a1,1,0,0,1,.42,1.95l-23.46,5A.76.76,0,0,1,341.49,277.56Z" style="fill:#BA68C8"></path><path d="M347.69,308.72a1,1,0,0,1-.95-.69l-3.83-11.64a1,1,0,0,1,.63-1.27,1,1,0,0,1,1.27.64l3.83,11.65a1,1,0,0,1-.63,1.26A1.19,1.19,0,0,1,347.69,308.72Z" style="fill:#BA68C8"></path><path d="M379.67,286.42a1,1,0,0,1-1-.79,1,1,0,0,1,.76-1.18l10.09-2.17a1,1,0,0,1,.42,2l-10.09,2.16A.75.75,0,0,1,379.67,286.42Z" style="fill:#BA68C8"></path><path d="M361.55,317.43a1,1,0,0,1-.95-.69l-8.52-25.87a1,1,0,0,1,.63-1.27,1,1,0,0,1,1.27.64l8.52,25.87a1,1,0,0,1-.64,1.27A1.12,1.12,0,0,1,361.55,317.43Z" style="fill:#BA68C8"></path><path d="M375.43,294.28a1,1,0,0,1-.21-2l25.38-5.44a1,1,0,1,1,.42,1.95l-25.38,5.44Z" style="fill:#BA68C8"></path><path d="M369.43,321.58a1,1,0,0,1-.95-.69L364.24,308a1,1,0,0,1,1.9-.62l4.24,12.86a1,1,0,0,1-.64,1.26A1.12,1.12,0,0,1,369.43,321.58Z" style="fill:#BA68C8"></path><path d="M342.69,283.48a3.46,3.46,0,0,1-1.75-.47l-79-45.59a3.5,3.5,0,0,1,3.5-6.06l79,45.59a3.5,3.5,0,0,1-1.75,6.53Z" style="fill:#263238"></path></g></svg>