<svg xmlns="http://www.w3.org/2000/svg" viewBox="0 0 750 500"><g id="background-complete"><path d="M484.64,73.69s-.55-.14-1.54-.34a12.28,12.28,0,0,0-4.23-.11,11.43,11.43,0,0,0-5.66,2.48,11.77,11.77,0,0,0-4,6.35l0,.07-.24.94-.36-.89a12.68,12.68,0,0,0-4.78-5.79,12.45,12.45,0,0,0-5.85-2,16.35,16.35,0,0,0-5.73.73,4.52,4.52,0,0,1,1.45-.63A12.21,12.21,0,0,1,458,74a12.49,12.49,0,0,1,6.14,2,13.07,13.07,0,0,1,5.06,6l-.61,0,0-.07a12.19,12.19,0,0,1,4.24-6.67,11.74,11.74,0,0,1,10.32-2.15A4.93,4.93,0,0,1,484.64,73.69Z" style="fill:#e0e0e0"></path><path d="M384.17,78.89a20.14,20.14,0,0,1-1.41,1.62,36.86,36.86,0,0,0-3.44,4.68,34.07,34.07,0,0,0-5.11,18.14v.23l-.63,0A30.51,30.51,0,0,0,365.22,87a42.53,42.53,0,0,0-6.1-4.95,2.28,2.28,0,0,1,.5.23c.31.18.8.41,1.37.79a27.09,27.09,0,0,1,4.55,3.62,30,30,0,0,1,8.66,16.87l-.63,0v-.23A33.41,33.41,0,0,1,378.94,85a29.91,29.91,0,0,1,3.64-4.6c.47-.51.89-.86,1.15-1.11A2.07,2.07,0,0,1,384.17,78.89Z" style="fill:#e0e0e0"></path><path d="M277.69,144.79c1.22-8.84-11.27-16.12-20.64-16.87-4.48-.36-9.12.32-13.36-1.16-9.18-3.2-12.85-15.06-21.81-18.84-6.7-2.82-14.41-.31-20.9,3s-12.91,7.38-20.16,7.85c-6.31.4-13.16-1.94-18.68,1.14-4.12,2.3-6.27,7-10.06,9.84s-8.55,3.31-13.15,3.56-9.37.3-13.56,2.22-7.66,6.35-6.79,10.87Z" style="fill:#f5f5f5"></path><path d="M707.5,249.89s-.2-.09-.58-.29l-1.68-.87-6.5-3.41-24.36-12.86L590,187.73h.23l-55.76,27.9-20.29,10.15-.1.05-.1,0-86.21-27.56h.16l-53.53,26.52-14.85,7.31L355.65,234c-.89.43-1.35.63-1.35.63l1.32-.69,3.87-2,14.79-7.42,53.45-26.68.07,0,.09,0,86.24,27.46-.19,0,20.29-10.15L590,187.29l.11-.06.11.06,84.3,44.9,24.29,13,6.47,3.48,1.66.91C707.31,249.77,707.5,249.89,707.5,249.89Z" style="fill:#e0e0e0"></path><polygon points="427.82 198.04 436.78 203.87 431.1 204.93 459.54 213.92 445.05 213.31 459.2 222.14 455.02 223.69 466.91 229.61 485.69 219.76 486.31 227.31 514.05 225.55 427.82 198.04" style="fill:#e0e0e0"></polygon><polygon points="590.11 187.51 591.8 200.21 604.27 200.73 600.41 203.6 618.7 210.08 613.2 221.98 707.5 249.89 590.11 187.51" style="fill:#e0e0e0"></polygon><path d="M318.51,71.32c.61-4.43-5.65-8.08-10.36-8.46-2.24-.18-4.57.16-6.69-.58-4.61-1.61-6.45-7.55-10.94-9.45-3.36-1.41-7.22-.15-10.48,1.49s-6.47,3.7-10.11,3.93c-3.17.2-6.6-1-9.37.57-2.06,1.16-3.14,3.53-5,4.93s-4.29,1.67-6.6,1.79-4.7.15-6.8,1.11-3.84,3.19-3.4,5.46Z" style="fill:#ebebeb"></path><path d="M112.61,231.19c.51-3.71-4.72-6.76-8.66-7.07-1.87-.16-3.82.13-5.59-.49-3.85-1.34-5.39-6.31-9.15-7.9-2.8-1.18-6-.13-8.76,1.24S75,220.07,72,220.26c-2.64.17-5.52-.81-7.83.48-1.73,1-2.63,2.95-4.22,4.13a10.05,10.05,0,0,1-5.51,1.49,15.47,15.47,0,0,0-5.68.93c-1.76.8-3.21,2.66-2.85,4.56Z" style="fill:#ebebeb"></path><path d="M107.77,89.62c.46-3.38-4.31-6.16-7.89-6.45-1.71-.14-3.48.12-5.1-.44-3.51-1.22-4.91-5.75-8.33-7.2-2.56-1.08-5.5-.12-8,1.13s-4.94,2.82-7.71,3c-2.41.15-5-.74-7.13.44-1.57.87-2.4,2.68-3.85,3.75a9,9,0,0,1-5,1.36,14.3,14.3,0,0,0-5.18.85c-1.6.73-2.92,2.43-2.59,4.16Z" style="fill:#f5f5f5"></path><path d="M684.79,86.55c.51-3.71-4.72-6.76-8.65-7.08-1.88-.15-3.83.14-5.6-.48-3.85-1.34-5.39-6.31-9.14-7.9-2.81-1.18-6-.13-8.76,1.24s-5.42,3.1-8.46,3.29c-2.64.17-5.51-.81-7.83.48-1.72,1-2.63,3-4.22,4.12a10.06,10.06,0,0,1-5.51,1.5,15.27,15.27,0,0,0-5.68.93c-1.76.8-3.21,2.66-2.85,4.56Z" style="fill:#ebebeb"></path><path d="M613.41,146.35c.71-5.14-6.54-9.36-12-9.8-2.59-.21-5.29.18-7.75-.67-5.33-1.86-7.46-8.75-12.66-10.94-3.89-1.64-8.37-.18-12.14,1.71s-7.5,4.29-11.71,4.56c-3.66.23-7.64-1.12-10.84.67-2.39,1.33-3.64,4.08-5.85,5.7s-5,1.93-7.63,2.08-5.44.17-7.87,1.28-4.45,3.69-3.94,6.32Z" style="fill:#f5f5f5"></path></g><g id="background-simple"><path d="M521.59,117l-1.92-3.17C503.45,87.11,474.11,71,443.19,73a80.27,80.27,0,0,0-11.84,1.63c-28.12,6-52.58,27.28-62.72,54.51-6,16-7.63,34.45-18.95,47.17C335,192.8,309.94,193.32,288,192.63s-47-.1-61.67,16.51c-9.18,10.4-12.1,25.2-11.36,39.13,2,36.88,27.66,69.86,60.35,86.25s71.16,17.86,106.93,10.65c50.11-10.1,97.76-37.84,126.41-80.69S544.51,163.26,521.59,117Z" style="fill:#f5f5f5"></path><circle cx="604.83" cy="201.48" r="47.32" style="fill:#f5f5f5"></circle><circle cx="267.11" cy="94.26" r="37.75" style="fill:#f5f5f5"></circle></g><g id="Floor"><path d="M706.54,463.86c0,.14-151,.26-337.23.26S32,464,32,463.86s151-.26,337.27-.26S706.54,463.71,706.54,463.86Z" style="fill:#263238"></path></g><g id="Buildings"><path d="M259,352c32.75-.82,92.35-58.75,125-55.3,23.72,2.52,40.51,30.63,64.17,33.78,15.62,2.07,31.7-7.27,46.82-2.33,18.2,5.94,27.86,30.21,45.76,37.25,16.54,6.5,34.92-3.62,52.11.12,26.37,5.73,41.39,41.44,67.71,47.48,9.85,2.25,20.13,0,30.06,1.72,20.2,3.57,36.48,25.82,35.92,49.08H269.63Z" style="fill:#455a64"></path><path d="M617.23,308.54c-.57.28-15.91,8.24-15.91,8.24l3.13,3.83,13.63-10.51Z" style="fill:#263238"></path><path d="M619.48,312.92c-.46.44-12.66,12.68-12.66,12.68l4.14,2.7,9.81-14.15Z" style="fill:#263238"></path><path d="M615.11,304.13c-.64.07-17.41.89-17.41.89l1.21,5.94,16.45-5.07Z" style="fill:#263238"></path><path d="M615.56,299.46c-.63-.11-16.95-4.06-16.95-4.06l-.52,6,17.21-.22Z" style="fill:#263238"></path><path d="M618.43,295.92c-.5-.39-13-11.57-13-11.57l-3.3,5.09,15.29,7.91Z" style="fill:#263238"></path><path d="M622,294.16c-.24-.59-5.58-16.51-5.58-16.51L611,280.42l9.34,14.46Z" style="fill:#263238"></path><path d="M627.21,293.65c.07-.63,2.69-17.22,2.69-17.22l-6.06,0,1.6,17.14Z" style="fill:#263238"></path><polygon points="627.75 303.78 674.28 294.24 675.12 315.59 627.89 307.58 627.75 303.78" style="fill:#263238"></polygon><path d="M632,304.7a4.64,4.64,0,1,1-4.64-4.64A4.64,4.64,0,0,1,632,304.7Z" style="fill:#263238"></path><path d="M610.26,464c-.25,0,2.85-33.24,6.91-74.18s7.56-74.12,7.81-74.1-2.85,33.24-6.91,74.19S610.51,464.06,610.26,464Z" style="fill:#263238"></path><path d="M646.9,463.64s-4.55-36.24-8.6-76.36-7.15-72.68-6.9-72.7,3.73,32.48,7.79,72.61S646.9,463.4,646.9,463.64Z" style="fill:#263238"></path><path d="M636.57,368.26c0,.25-3.58.45-8,.45s-8-.2-8-.45,3.59-.45,8-.45S636.57,368,636.57,368.26Z" style="fill:#263238"></path><path d="M640,404.67c0,.25-5.24.45-11.69.45s-11.69-.2-11.69-.45,5.23-.44,11.69-.44S640,404.43,640,404.67Z" style="fill:#263238"></path><path d="M644.26,441.79c0,.25-7.1.45-15.85.45s-15.86-.2-15.86-.45,7.1-.45,15.86-.45S644.26,441.55,644.26,441.79Z" style="fill:#263238"></path><path d="M627.82,307.55c.25,0,.75,34.35,1.11,76.72s.45,76.73.2,76.73-.74-34.34-1.1-76.73S627.58,307.55,627.82,307.55Z" style="fill:#263238"></path><path d="M648.69,305.48a2,2,0,0,1,0-.35c0-.26,0-.6-.08-1,0-.23,0-.48,0-.76s-.1-.58-.15-.91a14.19,14.19,0,0,0-.46-2.24,21,21,0,0,0-2.42-5.78,21.64,21.64,0,0,0-26-9.22,26,26,0,0,0-2.82,1.24,24.34,24.34,0,0,0-2.65,1.71,26.44,26.44,0,0,0-2.45,2.08,25.69,25.69,0,0,0-2.11,2.51,20.65,20.65,0,0,0-3.09,5.95,21.45,21.45,0,0,0,0,13.62,20.84,20.84,0,0,0,3.09,6,24.23,24.23,0,0,0,2.11,2.5,26.57,26.57,0,0,0,2.45,2.09,23.32,23.32,0,0,0,2.65,1.7,22.58,22.58,0,0,0,2.82,1.24,21.68,21.68,0,0,0,26-9.22,21.09,21.09,0,0,0,2.42-5.77,14.29,14.29,0,0,0,.46-2.25c0-.33.11-.63.15-.91s0-.53,0-.76l.08-1a2,2,0,0,1,0-.36,2,2,0,0,1,0,.36c0,.25,0,.6,0,1l0,.76c0,.28-.08.59-.12.92a17,17,0,0,1-.43,2.27,20.49,20.49,0,0,1-2.38,5.86,22,22,0,0,1-14.78,10.41,22.13,22.13,0,0,1-11.56-.93,23.51,23.51,0,0,1-2.88-1.26,22.84,22.84,0,0,1-2.7-1.73,23.76,23.76,0,0,1-2.5-2.12,24.13,24.13,0,0,1-2.17-2.55,21.36,21.36,0,0,1-3.15-6.07,21.82,21.82,0,0,1,0-13.92,21.17,21.17,0,0,1,3.15-6.06,24.43,24.43,0,0,1,2.17-2.56,25,25,0,0,1,2.5-2.12,24.19,24.19,0,0,1,2.7-1.73,23.43,23.43,0,0,1,2.88-1.25,21.89,21.89,0,0,1,20.8,3.21,21.58,21.58,0,0,1,5.54,6.27,20.44,20.44,0,0,1,2.38,5.85,17,17,0,0,1,.43,2.27c0,.34.09.64.12.92l0,.77c0,.44,0,.78,0,1A1.88,1.88,0,0,1,648.69,305.48Z" style="fill:#263238"></path><path d="M635.05,298.42c.7.09,16.38-4.59,16.38-4.59L647,286.14,634.54,297Z" style="fill:#263238"></path><path d="M631.4,294.74c.46-.44,13.51-12.22,13.51-12.22l-6.17-4.74-8.63,16.37Z" style="fill:#263238"></path><path d="M636.92,304.34c.63-.07,17.41-.89,17.41-.89l-1.21-5.94-16.45,5.07Z" style="fill:#263238"></path><path d="M636.14,310.29c.62.14,16.75,4.82,16.75,4.82l.8-6-17.21-.56Z" style="fill:#263238"></path><path d="M633.79,314.24c.49.39,13,11.57,13,11.57l3.31-5.09-15.29-7.91Z" style="fill:#263238"></path><path d="M630.11,315c.23.59,5.57,16.51,5.57,16.51l5.4-2.77-9.35-14.46Z" style="fill:#263238"></path><path d="M623.74,314.58c-.13.62-4.62,16.8-4.62,16.8l6,.72.34-17.21Z" style="fill:#263238"></path><polygon points="543.06 377.06 513.93 330.72 483.31 374.28 483.31 463.79 543.06 463.79 543.06 377.06" style="fill:#ebebeb"></polygon><polygon points="543.06 377.06 513.93 330.72 483.31 374.28 483.31 463.79 543.06 463.79 543.06 377.06" style="opacity:0.30000000000000004"></polygon><polygon points="513.93 330.72 608.46 330.72 638.05 378.56 610.27 378.56 591.12 346.65 571.22 377.06 543.06 377.06 513.93 330.72" style="fill:#FF725E"></polygon><rect x="521.97" y="392.88" width="5.22" height="13.84" style="fill:#263238"></rect><rect x="498.97" y="392.88" width="5.22" height="13.84" style="fill:#263238"></rect><rect x="521.97" y="427.07" width="5.22" height="13.84" style="fill:#263238"></rect><rect x="498.97" y="427.07" width="5.22" height="13.84" style="fill:#263238"></rect><path d="M610.82,334.7c0,.08-21.08.15-47.08.15s-47.08-.07-47.08-.15,21.07-.16,47.08-.16S610.82,334.61,610.82,334.7Z" style="fill:#263238"></path><path d="M613.51,339.07c0,.09-21.08.16-47.07.16s-47.09-.07-47.09-.16,21.08-.15,47.09-.15S613.51,339,613.51,339.07Z" style="fill:#263238"></path><path d="M616.4,343.74c0,.08-21.08.15-47.08.15s-47.08-.07-47.08-.15,21.08-.16,47.08-.16S616.4,343.65,616.4,343.74Z" style="fill:#263238"></path><path d="M619.29,348.4c0,.08-21.08.15-47.08.15s-47.08-.07-47.08-.15,21.07-.16,47.08-.16S619.29,348.31,619.29,348.4Z" style="fill:#263238"></path><path d="M622.18,353.06c0,.09-21.09.16-47.08.16s-47.09-.07-47.09-.16,21.08-.16,47.09-.16S622.18,353,622.18,353.06Z" style="fill:#263238"></path><path d="M625.06,357.72c0,.09-21.08.16-47.08.16s-47.08-.07-47.08-.16,21.08-.16,47.08-.16S625.06,357.63,625.06,357.72Z" style="fill:#263238"></path><path d="M628,362.38c0,.09-21.08.16-47.08.16s-47.08-.07-47.08-.16,21.07-.15,47.08-.15S628,362.3,628,362.38Z" style="fill:#263238"></path><path d="M630.84,367c0,.09-21.08.16-47.08.16s-47.09-.07-47.09-.16,21.08-.15,47.09-.15S630.84,367,630.84,367Z" style="fill:#263238"></path><path d="M633.72,371.71c0,.08-21.08.15-47.08.15s-47.08-.07-47.08-.15,21.08-.16,47.08-.16S633.72,371.62,633.72,371.71Z" style="fill:#263238"></path><path d="M636.61,376.37c0,.08-21.08.15-47.08.15s-47.08-.07-47.08-.15,21.07-.16,47.08-.16S636.61,376.28,636.61,376.37Z" style="fill:#263238"></path><path d="M638.05,463.79V378.56H610.27l-19.15-31.91-19.9,30.41H543.06v86.73Z" style="fill:#ebebeb"></path><polygon points="591.12 346.65 551.66 347.27 571.1 377.06 591.12 346.65" style="opacity:0.30000000000000004"></polygon><rect x="587.95" y="364.83" width="5.22" height="13.84" style="fill:#263238"></rect><rect x="509.62" y="360.73" width="5.22" height="13.84" style="fill:#263238"></rect><rect x="561.98" y="392.88" width="5.22" height="13.84" style="fill:#263238"></rect><rect x="587.73" y="392.88" width="5.22" height="13.84" style="fill:#263238"></rect><rect x="613.49" y="392.88" width="5.22" height="13.84" style="fill:#263238"></rect><rect x="561.97" y="428.34" width="5.22" height="13.84" style="fill:#263238"></rect><rect x="587.72" y="428.34" width="5.22" height="13.84" style="fill:#263238"></rect><rect x="613.48" y="428.34" width="5.22" height="13.84" style="fill:#263238"></rect><path d="M638.05,415.72c0,.15-34.64.26-77.37.26s-77.37-.11-77.37-.26,34.63-.26,77.37-.26S638.05,415.58,638.05,415.72Z" style="fill:#263238"></path><path d="M483.31,464a3.42,3.42,0,0,1,0-.43l0-1.26c0-1.14,0-2.79,0-4.93,0-4.32,0-10.6-.07-18.52,0-15.87-.06-38.3-.1-64.61v-.07l.05-.07,30.16-42.94.45-.63.22-.32.21.33c10.33,16.44,20.17,32.1,29.12,46.36l0,.05v.07c0,25.48-.07,47.16-.09,62.48,0,7.65-.05,13.7-.07,17.87,0,2.06,0,3.65,0,4.74,0,.53,0,.93,0,1.22a3.33,3.33,0,0,1,0,.42s0-.14,0-.42,0-.69,0-1.22c0-1.09,0-2.68,0-4.74,0-4.17,0-10.22-.07-17.87,0-15.32-.06-37-.1-62.48l0,.13-29.15-46.34.43,0-.44.63-30.2,42.92.05-.14c0,26.31-.07,48.74-.1,64.61,0,7.92-.05,14.2-.07,18.52,0,2.14,0,3.79,0,4.93,0,.54,0,1,0,1.26S483.31,464,483.31,464Z" style="fill:#263238"></path><path d="M638.05,464c-.14,0-.26-19.13-.26-42.73s.12-42.73.26-42.73.26,19.13.26,42.73S638.19,464,638.05,464Z" style="fill:#263238"></path><polygon points="270.39 285.84 241.25 239.49 210.63 283.06 210.63 372.56 270.39 372.56 270.39 285.84" style="fill:#ebebeb"></polygon><polygon points="270.39 285.84 241.25 239.49 210.63 283.06 210.63 372.56 270.39 372.56 270.39 285.84" style="opacity:0.30000000000000004"></polygon><polygon points="241.25 239.49 335.78 239.49 365.37 287.34 337.59 287.34 318.44 255.43 298.55 285.84 270.39 285.84 241.25 239.49" style="fill:#FF725E"></polygon><rect x="249.29" y="301.66" width="5.22" height="13.84" style="fill:#263238"></rect><rect x="226.3" y="301.66" width="5.22" height="13.84" style="fill:#263238"></rect><rect x="249.29" y="335.85" width="5.22" height="13.84" style="fill:#263238"></rect><rect x="226.3" y="335.85" width="5.22" height="13.84" style="fill:#263238"></rect><path d="M338.14,243.47c0,.08-21.08.15-47.08.15s-47.08-.07-47.08-.15,21.08-.16,47.08-.16S338.14,243.38,338.14,243.47Z" style="fill:#263238"></path><path d="M340.84,247.85c0,.08-21.08.15-47.08.15s-47.08-.07-47.08-.15,21.07-.16,47.08-.16S340.84,247.76,340.84,247.85Z" style="fill:#263238"></path><path d="M343.72,252.51c0,.09-21.08.16-47.07.16s-47.09-.07-47.09-.16,21.08-.16,47.09-.16S343.72,252.42,343.72,252.51Z" style="fill:#263238"></path><path d="M346.61,257.17c0,.09-21.08.16-47.08.16s-47.08-.07-47.08-.16,21.08-.15,47.08-.15S346.61,257.09,346.61,257.17Z" style="fill:#263238"></path><path d="M349.5,261.83c0,.09-21.08.16-47.08.16s-47.08-.07-47.08-.16,21.07-.15,47.08-.15S349.5,261.75,349.5,261.83Z" style="fill:#263238"></path><path d="M352.39,266.49c0,.09-21.08.16-47.08.16s-47.09-.07-47.09-.16,21.08-.15,47.09-.15S352.39,266.41,352.39,266.49Z" style="fill:#263238"></path><path d="M355.27,271.16c0,.08-21.08.15-47.08.15s-47.08-.07-47.08-.15,21.08-.16,47.08-.16S355.27,271.07,355.27,271.16Z" style="fill:#263238"></path><path d="M358.16,275.82c0,.08-21.08.15-47.08.15S264,275.9,264,275.82s21.07-.16,47.08-.16S358.16,275.73,358.16,275.82Z" style="fill:#263238"></path><path d="M361.05,280.48c0,.09-21.08.16-47.08.16s-47.09-.07-47.09-.16,21.08-.16,47.09-.16S361.05,280.39,361.05,280.48Z" style="fill:#263238"></path><path d="M363.93,285.14c0,.09-21.08.16-47.08.16s-47.08-.07-47.08-.16,21.08-.16,47.08-.16S363.93,285.05,363.93,285.14Z" style="fill:#263238"></path><path d="M363,372.56c0-1.5.23-85.12.23-85.12l-25.67-.1-19.15-31.91-19.89,30.41H270.39v86.72Z" style="fill:#ebebeb"></path><polygon points="318.44 255.43 278.99 256.04 298.43 285.84 318.44 255.43" style="opacity:0.30000000000000004"></polygon><rect x="315.27" y="273.6" width="5.22" height="13.84" style="fill:#263238"></rect><rect x="236.94" y="269.5" width="5.22" height="13.84" style="fill:#263238"></rect><rect x="289.3" y="301.66" width="5.22" height="13.84" style="fill:#263238"></rect><rect x="315.06" y="301.66" width="5.22" height="13.84" style="fill:#263238"></rect><rect x="340.81" y="301.66" width="5.22" height="13.84" style="fill:#263238"></rect><rect x="289.29" y="337.11" width="5.22" height="13.84" style="fill:#263238"></rect><rect x="315.05" y="337.11" width="5.22" height="13.84" style="fill:#263238"></rect><rect x="340.8" y="337.11" width="5.22" height="13.84" style="fill:#263238"></rect><path d="M364.26,324.5c0,.14-34.39.26-76.81.26s-76.82-.12-76.82-.26,34.39-.26,76.82-.26S364.26,324.35,364.26,324.5Z" style="fill:#263238"></path><path d="M270.35,372.53s0-.14,0-.41,0-.69,0-1.21c0-1.09,0-2.68,0-4.73,0-4.14,0-10.17-.07-17.78,0-15.25-.06-36.82-.1-62.19l0,.13L241,239.63h.44l-.38.53-30.26,43.42,0-.14c0,26.13-.07,48.4-.09,64.16,0,7.86-.06,14.09-.07,18.38,0,2.12,0,3.76,0,4.89,0,.54,0,1,0,1.26s0,.42,0,.42,0-.14,0-.42,0-.72,0-1.26c0-1.13,0-2.77,0-4.89,0-4.29,0-10.52-.07-18.38,0-15.76,0-38-.09-64.16v-.08l0-.06,30.24-43.43.37-.54.22-.32.21.33,29.09,46.73,0,.06v.07c0,25.37-.07,46.94-.09,62.19,0,7.61-.05,13.64-.07,17.78,0,2.05,0,3.64,0,4.73,0,.52,0,.92,0,1.21A3.24,3.24,0,0,1,270.35,372.53Z" style="fill:#263238"></path><path d="M363.26,287.44c.15,0,.26,18.89.26,42.17s-.11,42.18-.26,42.18-.26-18.88-.26-42.18S363.12,287.44,363.26,287.44Z" style="fill:#263238"></path><rect x="136.04" y="193.52" width="86.22" height="270.12" style="fill:#e0e0e0"></rect><polygon points="315.22 321.51 222.26 321.51 222.26 376.75 339.47 376.75 315.22 321.51" style="fill:#455a64"></polygon><rect x="222.26" y="376.75" width="107.78" height="86.9" style="fill:#e0e0e0"></rect><path d="M172.26,274.2h11.15V254a5.58,5.58,0,0,0-5.58-5.58h0a5.58,5.58,0,0,0-5.57,5.58Z" style="fill:#fff"></path><path d="M172.26,274.2a3.68,3.68,0,0,1,0-.66c0-.51,0-1.17,0-2,0-1.81-.05-4.32-.09-7.4,0-1.58,0-3.31,0-5.15,0-.93,0-1.89,0-2.87a26.84,26.84,0,0,1,.07-3.08,5.82,5.82,0,0,1,11.57,1.09v3.27c0,2.14,0,4.21,0,6.19,0,3.95,0,7.54-.05,10.6v.2h-.19l-8.21-.1-2.2-.05a3.6,3.6,0,0,1-.74,0l.81,0,2.24-.05,8.1-.1-.19.19c0-3.06,0-6.65-.05-10.6,0-2,0-4.05,0-6.19v-3.27a5.42,5.42,0,0,0-.85-3,5.32,5.32,0,0,0-9.73,2,29.26,29.26,0,0,0-.08,3c0,1,0,1.92,0,2.83,0,1.82,0,3.52,0,5.09,0,3.08-.07,5.6-.09,7.41,0,.85,0,1.52,0,2S172.27,274.19,172.26,274.2Z" style="fill:#263238"></path><polygon points="179.15 62.16 131.21 193.52 225.82 193.52 179.15 62.16" style="fill:#455a64"></polygon><path d="M218.58,173.13c0,.15-17.89.26-40,.26s-40-.11-40-.26,17.89-.26,40-.26S218.58,173,218.58,173.13Z" style="fill:#263238"></path><path d="M221.56,181.52c0,.15-19.09.26-42.63.26s-42.63-.11-42.63-.26,19.08-.26,42.63-.26S221.56,181.38,221.56,181.52Z" style="fill:#263238"></path><path d="M215.11,163.37c0,.15-16.35.26-36.51.26s-36.52-.11-36.52-.26,16.35-.26,36.52-.26S215.11,163.23,215.11,163.37Z" style="fill:#263238"></path><path d="M211.84,154.16a2.94,2.94,0,0,1-.67.06l-1.93,0-7.11.09-23.42.07-23.44-.07-7.1-.09-1.93,0a2.94,2.94,0,0,1-.67-.06,3.5,3.5,0,0,1,.67,0l1.93-.05,7.1-.08,23.44-.08,23.42.08,7.11.08,1.93.05A3.5,3.5,0,0,1,211.84,154.16Z" style="fill:#263238"></path><path d="M208.57,145c0,.15-13.35.26-29.82.26s-29.82-.11-29.82-.26,13.35-.26,29.82-.26S208.57,144.81,208.57,145Z" style="fill:#263238"></path><path d="M205.29,135.74c0,.15-11.86.26-26.49.26s-26.51-.11-26.51-.26,11.87-.26,26.51-.26S205.29,135.6,205.29,135.74Z" style="fill:#263238"></path><path d="M202,126.53c0,.14-10.33.26-23.07.26s-23.08-.12-23.08-.26,10.33-.26,23.08-.26S202,126.39,202,126.53Z" style="fill:#263238"></path><path d="M198.75,117.32a8.51,8.51,0,0,1-1.56.1l-4.26.08c-3.6,0-8.56.08-14.05.08s-10.45,0-14-.08l-4.26-.08a8.39,8.39,0,0,1-1.56-.1,8.39,8.39,0,0,1,1.56-.1l4.26-.08c3.59,0,8.56-.08,14-.08s10.45,0,14.05.08l4.26.08A8.51,8.51,0,0,1,198.75,117.32Z" style="fill:#263238"></path><path d="M195.48,108.11a6,6,0,0,1-1.3.1l-3.55.08c-3,0-7.13.08-11.7.08s-8.71,0-11.7-.08l-3.55-.08a5.87,5.87,0,0,1-1.3-.1,5.87,5.87,0,0,1,1.3-.1l3.55-.08c3-.05,7.13-.08,11.7-.08s8.7,0,11.7.08l3.55.08A6,6,0,0,1,195.48,108.11Z" style="fill:#263238"></path><path d="M192.2,98.9a3.81,3.81,0,0,1-1,.1c-.67,0-1.64.06-2.83.08-2.4,0-5.7.08-9.36.08s-7,0-9.35-.08c-1.2,0-2.17,0-2.84-.08a3.81,3.81,0,0,1-1-.1,3.81,3.81,0,0,1,1-.1c.67,0,1.64-.06,2.84-.08,2.39,0,5.7-.08,9.35-.08s7,0,9.36.08c1.19,0,2.16,0,2.83.08A3.81,3.81,0,0,1,192.2,98.9Z" style="fill:#263238"></path><path d="M188.93,89.69a18.19,18.19,0,0,1-3.12.18l-3.39.06H178.7v-.52h.63V90h-3.72l-3.39-.06a18.31,18.31,0,0,1-3.12-.18,18.84,18.84,0,0,1,3.12-.19l3.39,0,2,0h1.72V90h-.63v-.52h1.72l2,0,3.39,0A18.7,18.7,0,0,1,188.93,89.69Z" style="fill:#263238"></path><path d="M185.87,81.62a46.51,46.51,0,0,1-6.89.26,46.32,46.32,0,0,1-6.88-.26,46.32,46.32,0,0,1,6.88-.26A46.51,46.51,0,0,1,185.87,81.62Z" style="fill:#263238"></path><path d="M184,73.31a21.08,21.08,0,0,1-4.63.26,21.08,21.08,0,0,1-4.63-.26,21.08,21.08,0,0,1,4.63-.26A21.08,21.08,0,0,1,184,73.31Z" style="fill:#263238"></path><path d="M222.26,274.2c0,.15-19.13.26-42.72.26s-42.72-.11-42.72-.26,19.12-.26,42.72-.26S222.26,274.06,222.26,274.2Z" style="fill:#263238"></path><path d="M222.26,281c0,.15-19.13.26-42.72.26s-42.72-.11-42.72-.26,19.12-.26,42.72-.26S222.26,280.87,222.26,281Z" style="fill:#263238"></path><path d="M199.8,274.2a.8.8,0,0,1,0-.27c0-.2,0-.47,0-.81l0-3.15c0-2.77,0-6.78-.07-11.81,0-10.13-.06-24.41-.1-41.08l.07.18c-4.89-4.9-10.21-10.21-15.73-15.72l.18.08H172.14l.18-.08L156.05,217.8l.07-.17c0,16.51-.07,30.64-.1,40.68,0,5-.05,8.95-.07,11.7,0,1.34,0,2.38,0,3.12,0,.34,0,.6,0,.8a.8.8,0,0,1,0,.27,1.39,1.39,0,0,1,0-.27c0-.2,0-.46,0-.8,0-.74,0-1.78,0-3.12,0-2.75,0-6.71-.07-11.7,0-10-.05-24.17-.09-40.68v-.11l.07-.07L172,201.17l.07-.07h12.15l.08.07L200,216.91l.07.07v.1c0,16.67-.07,30.95-.09,41.08,0,5,0,9-.07,11.81l0,3.15c0,.34,0,.61,0,.81S199.8,274.2,199.8,274.2Z" style="fill:#263238"></path><path d="M337.57,437c-5.43-.2-11.21,1.33-16.09-1.06-5.6-2.75-8-9.73-13.3-13-5.69-3.47-13.18-1.74-19,1.54s-10.77,8-16.82,10.73c-8.5,3.9-18.27,3.69-27.29,6.16s-18,13.3-17.51,22.63l133.92-.32C361.31,451.14,350.14,437.46,337.57,437Z" style="fill:#455a64"></path><path d="M135.3,445.93c-.15,0-.26-56.13-.26-125.36s.11-125.38.26-125.38.26,56.12.26,125.38S135.44,445.93,135.3,445.93Z" style="fill:#263238"></path><path d="M222.81,335.46c-.15,0-.26-31.13-.26-69.51s.11-69.52.26-69.52.26,31.12.26,69.52S223,335.46,222.81,335.46Z" style="fill:#263238"></path><path d="M319.12,328.68c0,.14-21.6.26-48.25.26s-48.25-.12-48.25-.26,21.6-.26,48.25-.26S319.12,328.54,319.12,328.68Z" style="fill:#263238"></path><path d="M320.93,334.51c0,.14-22,.26-49.15.26s-49.16-.12-49.16-.26,22-.27,49.16-.27S320.93,334.36,320.93,334.51Z" style="fill:#263238"></path><path d="M323.86,340.52c0,.15-22.67.26-50.62.26s-50.62-.11-50.62-.26,22.66-.26,50.62-.26S323.86,340.38,323.86,340.52Z" style="fill:#263238"></path><path d="M326.38,346.93c0,.15-23.23.26-51.88.26s-51.88-.11-51.88-.26,23.22-.26,51.88-.26S326.38,346.79,326.38,346.93Z" style="fill:#263238"></path><path d="M329.2,353.34c0,.14-23.86.26-53.29.26s-53.29-.12-53.29-.26,23.85-.26,53.29-.26S329.2,353.2,329.2,353.34Z" style="fill:#263238"></path><path d="M331.75,359.75c0,.14-24.43.26-54.56.26s-54.57-.12-54.57-.26,24.43-.26,54.57-.26S331.75,359.6,331.75,359.75Z" style="fill:#263238"></path><path d="M334.58,366.15c0,.15-25.07.26-56,.26s-56-.11-56-.26,25.06-.26,56-.26S334.58,366,334.58,366.15Z" style="fill:#263238"></path><path d="M333,372.56c0,.15-24.71.26-55.18.26s-55.19-.11-55.19-.26,24.7-.26,55.19-.26S333,372.42,333,372.56Z" style="fill:#263238"></path><path d="M222.26,463.65c-.14,0-.38-19.25-.53-43s-.16-43,0-43,.39,19.24.54,43S222.4,463.65,222.26,463.65Z" style="fill:#263238"></path><polygon points="222.26 321.51 253.53 376.75 222.62 376.75 222.26 321.51" style="opacity:0.30000000000000004"></polygon><polygon points="136.04 193.52 222.26 201.36 222.26 193.52 136.04 193.52" style="opacity:0.30000000000000004"></polygon><polygon points="164.61 330.72 116.51 378.58 211.79 378.58 164.61 330.72" style="fill:#FF725E"></polygon><rect x="93.35" y="378.59" width="113.64" height="85" style="fill:#ebebeb"></rect><rect x="166.68" y="438.78" width="11.07" height="25.08" style="fill:#263238"></rect><rect x="93.35" y="378.59" width="38.58" height="85.29" style="opacity:0.30000000000000004"></rect><polygon points="164.61 330.72 134.24 330.72 86.08 378.58 122.69 378.58 164.61 330.72" style="fill:#FF725E"></polygon><rect x="151.21" y="416.98" width="4.73" height="14.2" style="fill:#263238"></rect><rect x="186.53" y="416.98" width="4.73" height="14.2" style="fill:#263238"></rect><rect x="151.21" y="388.39" width="4.73" height="14.2" style="fill:#263238"></rect><rect x="111.24" y="416.98" width="4.73" height="14.2" style="fill:#263238"></rect><rect x="111.24" y="388.39" width="4.73" height="14.2" style="fill:#263238"></rect><rect x="186.53" y="388.39" width="4.73" height="14.2" style="fill:#263238"></rect><path d="M207.18,373.91c0,.09-25.92.16-57.89.16S91.4,374,91.4,373.91s25.91-.15,57.89-.15S207.18,373.83,207.18,373.91Z" style="fill:#263238"></path><path d="M201.19,368.41c0,.09-23.57.16-52.64.16s-52.66-.07-52.66-.16,23.57-.15,52.66-.15S201.19,368.33,201.19,368.41Z" style="fill:#263238"></path><path d="M196.34,362.91c0,.09-21.09.16-47.09.16s-47.1-.07-47.1-.16,21.08-.15,47.1-.15S196.34,362.83,196.34,362.91Z" style="fill:#263238"></path><path d="M190.92,357.41c0,.09-18.7.16-41.77.16s-41.77-.07-41.77-.16,18.7-.15,41.77-.15S190.92,357.33,190.92,357.41Z" style="fill:#263238"></path><path d="M185.5,351.91l-.74,0-2.12,0-7.81,0-25.76.05L123.31,352l-7.8,0-2.13,0-.74,0,.74,0,2.13,0,7.8-.05,25.76,0,25.76,0,7.81.05,2.12,0Z" style="fill:#263238"></path><path d="M179.31,346.41c0,.09-13.63.16-30.43.16s-30.43-.07-30.43-.16,13.62-.15,30.43-.15S179.31,346.33,179.31,346.41Z" style="fill:#263238"></path><path d="M175.05,340.91a1.93,1.93,0,0,1-.52,0L173,341l-5.47,0-18,.05L131.46,341,126,341l-1.49,0a1.93,1.93,0,0,1-.52,0,3.52,3.52,0,0,1,.52,0l1.49,0,5.47-.05,18.06,0,18,0,5.47.05,1.49,0A3.52,3.52,0,0,1,175.05,340.91Z" style="fill:#263238"></path><path d="M170.14,335.41a1.2,1.2,0,0,1-.41,0l-1.19,0-4.35,0-14.36.05-14.37-.05-4.35,0-1.19,0a1.2,1.2,0,0,1-.41,0,2.18,2.18,0,0,1,.41,0l1.19,0,4.35-.05,14.37,0,14.36,0,4.35.05,1.19,0A2.18,2.18,0,0,1,170.14,335.41Z" style="fill:#263238"></path><polygon points="164.61 330.72 134.24 330.72 86.08 378.58 122.69 378.58 164.61 330.72" style="opacity:0.30000000000000004"></polygon><path d="M207,463.58a4.67,4.67,0,0,1-.06-.85c0-.61,0-1.43,0-2.47,0-2.14,0-5.23,0-9.06,0-7.64.13-18.21.32-29.87s.35-22.19.47-29.88c.06-3.79.1-6.87.13-9.06,0-1,0-1.85.06-2.46a4.46,4.46,0,0,1,.05-.86,4.46,4.46,0,0,1,0,.86c0,.61,0,1.43.05,2.46,0,2.14,0,5.23,0,9.06,0,7.65-.13,18.21-.32,29.88s-.35,22.19-.48,29.88c0,3.78-.1,6.86-.13,9.05,0,1,0,1.86,0,2.47A8,8,0,0,1,207,463.58Z" style="fill:#263238"></path><path d="M93.35,463.88c-.14,0-.32-19-.4-42.49s0-42.49.11-42.49.32,19,.41,42.49S93.5,463.88,93.35,463.88Z" style="fill:#263238"></path><path d="M131.79,464.18c-.14,0-.26-19.05-.26-42.55s.12-42.55.26-42.55.26,19.05.26,42.55S131.94,464.18,131.79,464.18Z" style="fill:#263238"></path><path d="M482.77,245.08a11.92,11.92,0,0,0-4.94-6.71,7.28,7.28,0,0,0-8,.22c-4,3.14-2.8,10.09-6.67,13.36-3.53,3-8.82,1.14-13.42,1.42a14.1,14.1,0,0,0-10.83,6.33c-2.13,3.3-2.9,7.55-5.88,10.1-6,5.18-16.6,0-22.77,5a11.36,11.36,0,0,0-3.75,7.81,33.84,33.84,0,0,0,.72,8.85l6.12-.05c-.39-3.61-.63-7.72,1.87-10.35s7-2.58,10.77-1.87a78.48,78.48,0,0,0,10.4,1.78c3.51.19,7.22-.46,10-2.64,3.47-2.74,5.09-7.6,9.06-9.55,3.47-1.72,7.6-.65,11.47-.82a17.52,17.52,0,0,0,15.88-22.91Z" style="fill:#e0e0e0"></path><polygon points="332.99 463.79 332.99 378.5 424.3 296.54 443.37 296.54 510.66 377.61 510.66 463.79 332.99 463.79" style="fill:#ebebeb"></polygon><polygon points="328.97 378.67 383.01 378.67 443.37 296.54 390.53 296.54 328.97 378.67" style="fill:#FF725E"></polygon><polygon points="426.3 307.48 426.3 285.94 399.98 285.94 399.98 322.9 414.99 322.9 426.3 307.48" style="fill:#FF725E"></polygon><polygon points="381.31 378.67 381.63 463.79 332.99 463.79 332.99 378.67 381.31 378.67" style="opacity:0.30000000000000004"></polygon><rect x="443.37" y="440.05" width="9.98" height="23.74" style="fill:#263238"></rect><rect x="404.22" y="412.49" width="4.99" height="14.58" style="fill:#263238"></rect><rect x="404.22" y="375.76" width="4.99" height="14.58" style="fill:#263238"></rect><rect x="445.01" y="412.49" width="4.99" height="14.58" style="fill:#263238"></rect><rect x="445.01" y="374.39" width="4.99" height="14.58" style="fill:#263238"></rect><rect x="445.01" y="334.71" width="4.99" height="14.58" style="fill:#263238"></rect><rect x="485.8" y="412.49" width="4.99" height="14.58" style="fill:#263238"></rect><rect x="485.8" y="374.39" width="4.99" height="14.58" style="fill:#263238"></rect><rect x="399.98" y="285.94" width="15.02" height="36.97" style="opacity:0.30000000000000004"></rect><path d="M333,463.71c-.15,0-.26-18.71-.26-41.77s.11-41.77.26-41.77.26,18.69.26,41.77S333.13,463.71,333,463.71Z" style="fill:#263238"></path><path d="M381.2,463.47c-.14,0-.26-19-.26-42.4s.12-42.4.26-42.4.26,19,.26,42.4S381.34,463.47,381.2,463.47Z" style="fill:#263238"></path><path d="M510.66,464c-.14,0-.15-19.23,0-43s.36-43,.5-43,.15,19.23,0,43S510.81,464,510.66,464Z" style="fill:#263238"></path><path d="M426.3,286.42a2.12,2.12,0,0,1,0,.4q0,.49,0,1.17c0,1.11,0,2.56.05,4.31,0,3.73,0,8.7,0,14.21v1l0,0-8.05,10.91-2.45,3.26-.68.87c-.15.2-.24.3-.25.29a1.53,1.53,0,0,1,.21-.32c.17-.26.38-.56.63-.91l2.36-3.32c2.09-2.86,4.87-6.69,8-11l0,.09v-1c0-5.51,0-10.48.05-14.21,0-1.75,0-3.2.05-4.31q0-.67,0-1.17A2.12,2.12,0,0,1,426.3,286.42Z" style="fill:#263238"></path><polygon points="443.37 296.54 510.66 377.61 513.93 376.37 446.87 296.54 443.37 296.54" style="fill:#FF725E"></polygon><path d="M443.37,296.54a1.57,1.57,0,0,1-.21.34c-.17.24-.4.56-.68,1l-2.65,3.69L430,315.06,397.4,359.53c-5,6.77-9.79,13.29-14.19,19.29l-.08.1H383l-38.81-.1L333,378.75l-3,0-.77,0-.26,0a.76.76,0,0,1,.26,0l.77,0,3,0,11.21-.08,38.81-.09-.2.1L397,359.22l32.72-44.38,10-13.42,2.73-3.63.72-.94Z" style="fill:#263238"></path></g><g id="Birds"><path d="M397.7,167.55c0,.06-1.09-.38-3.12-.83a25,25,0,0,0-8.73-.34,23.53,23.53,0,0,0-11.76,5.08,24.31,24.31,0,0,0-8.3,13.18l0,.14-.24.94-.36-.89a26.21,26.21,0,0,0-9.94-12,25.39,25.39,0,0,0-12.14-4.05,27.09,27.09,0,0,0-8.67.8c-2,.53-3.06,1-3.08.93a4.34,4.34,0,0,1,.75-.36,17.52,17.52,0,0,1,2.27-.81,26,26,0,0,1,21.19,3,26.58,26.58,0,0,1,10.21,12.25l-.61,0,0-.15A24.77,24.77,0,0,1,373.72,171a23.67,23.67,0,0,1,12.07-5.06,24.08,24.08,0,0,1,8.84.54,17.78,17.78,0,0,1,2.3.73A3.61,3.61,0,0,1,397.7,167.55Z" style="fill:#263238"></path><path d="M485,119.67s-.62-.17-1.74-.4a13.75,13.75,0,0,0-4.77-.14,12.94,12.94,0,0,0-6.4,2.79,13.35,13.35,0,0,0-4.51,7.18l0,.08-.24.94-.36-.89a14.29,14.29,0,0,0-5.41-6.54,13.92,13.92,0,0,0-6.61-2.24,15.16,15.16,0,0,0-4.75.39c-1.1.27-1.68.51-1.71.46a1.4,1.4,0,0,1,.41-.23,9.26,9.26,0,0,1,1.24-.47,13.78,13.78,0,0,1,4.84-.6,14.08,14.08,0,0,1,6.9,2.19,14.74,14.74,0,0,1,5.68,6.8l-.61,0,0-.08a13.74,13.74,0,0,1,4.76-7.49,13.2,13.2,0,0,1,11.6-2.44,8.08,8.08,0,0,1,1.26.43A1.61,1.61,0,0,1,485,119.67Z" style="fill:#263238"></path><path d="M427.91,100.07s-.6.69-1.68,1.91a40.82,40.82,0,0,0-4.09,5.53A40.19,40.19,0,0,0,416.06,129a2.62,2.62,0,0,0,0,.27l-.63.06a35.25,35.25,0,0,0-3.93-11.66,36.73,36.73,0,0,0-11.18-12.49c-1.33-.92-2.1-1.38-2.07-1.43a2.7,2.7,0,0,1,.59.28c.37.22.94.49,1.61.94a32.45,32.45,0,0,1,5.37,4.29,35.55,35.55,0,0,1,10.24,20l-.63.06V129a39.51,39.51,0,0,1,6.34-21.76,35.15,35.15,0,0,1,4.29-5.46c.55-.61,1-1,1.35-1.32A2.75,2.75,0,0,1,427.91,100.07Z" style="fill:#263238"></path></g><g id="Trees"><path d="M648.54,386.79c3.3-6.51,9.32-11.38,16-14.32s14-4.1,21.29-4.59a77.62,77.62,0,0,1,24.23,1.75,21.08,21.08,0,0,1,10.34,5.52c3.07,3.19,4.87,5.3,6.11,9.56,3.23,8.27,1.58,18-3.16,25.48s-12.26,13-20.43,16.45c-9,3.83-19,5.45-28.62,3.62s-18.61-7.32-23.85-15.55S644.14,395.5,648.54,386.79Z" style="fill:#263238"></path><polygon points="698.14 420.05 696.99 418.92 690.2 428.06 690.2 428.06 690.14 425.38 690.21 398.88 687.68 398.88 686.99 422.91 672 405.68 669.69 407.73 685.98 426.91 686.73 463.64 690.98 463.64 690.28 431.88 698.14 420.05" style="fill:#c78976"></polygon><path d="M214,402.34c2.62-5.18,7.4-9,12.71-11.38a50.18,50.18,0,0,1,16.92-3.65,61.59,61.59,0,0,1,19.25,1.39,16.65,16.65,0,0,1,8.22,4.39c2.45,2.53,3.88,4.21,4.86,7.59,2.57,6.58,1.26,14.29-2.51,20.25s-9.75,10.31-16.24,13.08a39.54,39.54,0,0,1-22.74,2.87c-7.62-1.46-14.79-5.82-18.95-12.36S210.47,409.26,214,402.34Z" style="fill:#455a64"></path><polygon points="253.38 428.77 252.47 427.87 247.07 435.13 247.07 435.14 247.03 433 247.08 411.95 245.08 411.95 244.52 431.04 232.61 417.35 230.78 418.98 243.72 434.22 244.31 463.41 247.69 463.41 247.14 438.17 253.38 428.77" style="fill:#c78976"></polygon><path d="M20.76,376.09c3.74-7.4,10.58-12.92,18.17-16.27s15.92-4.66,24.19-5.21c9.22-.61,18.58-.29,27.53,2,4.48,1.14,8.54,2.93,11.75,6.26,3.49,3.63,5.54,6,6.94,10.87,3.67,9.39,1.8,20.42-3.59,28.95s-13.93,14.73-23.21,18.69c-10.2,4.36-21.63,6.2-32.52,4.11s-21.14-8.32-27.09-17.67S15.75,386,20.76,376.09Z" style="fill:#263238"></path><polygon points="77.11 413.88 75.81 412.6 68.08 422.98 68.08 422.98 68.02 419.93 68.1 389.83 65.23 389.83 64.44 417.13 47.4 397.56 44.78 399.88 63.29 421.68 64.14 463.41 68.97 463.41 68.18 427.32 77.11 413.88" style="fill:#c78976"></polygon></g></svg>