<svg xmlns="http://www.w3.org/2000/svg" xmlns:xlink="http://www.w3.org/1999/xlink" viewBox="0 0 500 500"><defs><clippath id="clip-path"><path d="M408,196.18v110a4.7,4.7,0,0,1-4.82,4.82h-104a5,5,0,0,1-5.18-4.82V233.5l-29.36-15.17,29.36-.18v-22a5.31,5.31,0,0,1,5.18-5.18h104A5,5,0,0,1,408,196.18Z" style="fill:none"></path></clippath><clippath id="clip-path-2"><path d="M349,50.5v104c0,2.76-1.74,5.5-4.5,5.5H269.39l-22.76,30.29L246.47,160h-12a5.9,5.9,0,0,1-5.5-5.5V50.5c0-2.76,2.74-4.5,5.5-4.5h110A4.19,4.19,0,0,1,349,50.5Z" style="fill:none"></path></clippath></defs><g id="background-complete"><rect y="382" width="500" height="1" style="fill:#ebebeb"></rect><rect x="415.78" y="398.49" width="33.12" height="0.25" style="fill:#ebebeb"></rect><rect x="321.53" y="401.21" width="8.69" height="0.25" style="fill:#ebebeb"></rect><rect x="395.59" y="389.21" width="19.19" height="0.25" style="fill:#ebebeb"></rect><rect x="51.46" y="390.89" width="43.19" height="0.25" style="fill:#ebebeb"></rect><rect x="103.56" y="390.89" width="6.33" height="0.25" style="fill:#ebebeb"></rect><rect x="130.47" y="395.11" width="93.68" height="0.25" style="fill:#ebebeb"></rect><path d="M236,337.8H42.91a5.71,5.71,0,0,1-5.7-5.71V60.66A5.71,5.71,0,0,1,42.91,55H236a5.71,5.71,0,0,1,5.71,5.71V332.09A5.71,5.71,0,0,1,236,337.8ZM42.91,55.2a5.46,5.46,0,0,0-5.45,5.46V332.09a5.46,5.46,0,0,0,5.45,5.46H236a5.47,5.47,0,0,0,5.46-5.46V60.66A5.47,5.47,0,0,0,236,55.2Z" style="fill:#ebebeb"></path><path d="M452.31,337.8H259.21a5.72,5.72,0,0,1-5.71-5.71V60.66A5.72,5.72,0,0,1,259.21,55h193.1A5.71,5.71,0,0,1,458,60.66V332.09A5.71,5.71,0,0,1,452.31,337.8ZM259.21,55.2a5.47,5.47,0,0,0-5.46,5.46V332.09a5.47,5.47,0,0,0,5.46,5.46h193.1a5.47,5.47,0,0,0,5.46-5.46V60.66a5.47,5.47,0,0,0-5.46-5.46Z" style="fill:#ebebeb"></path><path d="M63.13,202.33s7.53,1.74,11,11.12,14.18,15.2,21.06,14.86c2.77-.13,5.36,1.17,8.42,2.94.85.48,1.72,1,2.65,1.54-.12-.93-.21-1.9-.26-2.89-.74-.57-1.47-1.18-2.18-1.84l-.49-.46c-8.29-8-8.53-16.35-18.2-23.89C75.32,196,63.13,202.33,63.13,202.33Z" style="fill:#f0f0f0"></path><path d="M143.55,194s-7.21,2.79-9.36,12.57-11.89,17.05-18.75,17.68c-2.76.26-5.14,1.92-7.93,4.1l-2.4,1.9c0-.94-.06-1.91-.15-2.9.65-.67,1.29-1.37,1.9-2.13l.42-.52c7.08-9.06,6.14-17.39,14.64-26.22C130.59,189.48,143.55,194,143.55,194Z" style="fill:#f0f0f0"></path><path d="M107.51,228.35a52.83,52.83,0,0,1-1.62,15.59c-4.65,18.09-2.58.25-2.58.25a45.77,45.77,0,0,0,1.8-13.94c0-.94-.06-1.91-.15-2.9a42.27,42.27,0,0,0-2.17-10.56c-4.91-14.22-14.73-18.61-18.61-33.86s9.56-26.11,9.56-26.11-1.8,9.57,7.25,18.36,10.33,24,6.45,31.79c-2.26,4.52-.82,10.19-.16,17.73C107.38,225.87,107.47,227.09,107.51,228.35Z" style="fill:#f0f0f0"></path><polygon points="131.35 242 130.27 250.46 129.87 253.53 129.48 256.62 127.43 272.64 87.29 272.48 85.24 256.6 84.43 250.46 83.33 242 131.35 242" style="fill:#e6e6e6"></polygon><polygon points="130.26 250 129.86 253 84.83 253 84.42 250 130.26 250" style="fill:#f0f0f0"></polygon><rect x="77.34" y="272" width="12" height="111" style="fill:#f0f0f0"></rect><rect x="125.34" y="272" width="12" height="111" style="fill:#f0f0f0"></rect><rect x="77.34" y="278" width="12" height="13" style="fill:#e6e6e6"></rect><rect x="125.34" y="278" width="12" height="13" style="fill:#e6e6e6"></rect><rect x="76.34" y="272" width="62" height="13" style="fill:#f0f0f0"></rect><rect x="325.69" y="245.4" width="124.62" height="137.28" style="fill:#f5f5f5"></rect><path d="M445,319v59H391V319h11.48s1.5,0,1.87,2,1.14,4,4.8,4h18.18c3.66,0,4.43-2.07,4.8-4s1.87-2,1.87-2Z" style="fill:#e0e0e0"></path><path d="M384,319v59H330V319h11.48s1.5,0,1.87,2,1.14,4,4.8,4h18.18c3.66,0,4.43-2.07,4.8-4s1.87-2,1.87-2Z" style="fill:#e0e0e0"></path><path d="M445,252v59H391V252h11.48s1.5,0,1.87,2,1.14,4,4.8,4h18.18c3.66,0,4.43-2.07,4.8-4s1.87-2,1.87-2Z" style="fill:#e0e0e0"></path><path d="M384,252v59H330V252h11.48s1.5,0,1.87,2,1.14,4,4.8,4h18.18c3.66,0,4.43-2.07,4.8-4s1.87-2,1.87-2Z" style="fill:#e0e0e0"></path><rect x="168" y="72" width="39" height="50" style="fill:#f5f5f5"></rect><rect x="197" y="113" width="10" height="3" style="fill:#fafafa"></rect><rect x="197" y="109" width="10" height="2" style="fill:#fafafa"></rect><rect x="197" y="77" width="10" height="4" style="fill:#fafafa"></rect><rect x="197" y="83" width="10" height="1" style="fill:#fafafa"></rect><rect x="160" y="72" width="39" height="50" style="fill:#e6e6e6"></rect><rect x="142" y="62" width="47" height="60" style="fill:#f0f0f0"></rect><rect x="176" y="111" width="13" height="4" style="fill:#fafafa"></rect><rect x="176" y="107" width="13" height="2" style="fill:#fafafa"></rect><rect x="176" y="71" width="13" height="4" style="fill:#fafafa"></rect><rect x="176" y="77" width="13" height="2" style="fill:#fafafa"></rect><rect x="132" y="62" width="47" height="60" style="fill:#e6e6e6"></rect><rect x="82" y="122" width="139" height="5" style="fill:#f0f0f0"></rect><polygon points="101.51 75 141.51 75 150.49 122 110.49 122 101.51 75" style="fill:#f5f5f5"></polygon><rect x="82" y="122" width="41" height="5" style="fill:#e0e0e0"></rect><polygon points="106.46 80 138.46 80 145.54 117 113.54 117 106.46 80" style="fill:#fafafa"></polygon><polygon points="104 88.04 104 122 110.49 122 104 88.04" style="fill:#e6e6e6"></polygon><path d="M382.92,67.87c-6.31-3.5-8.76,3.83-8.76,3.83s2-7.45-5.15-8.06-9,12.43,1.91,18.7C383.47,83.2,389.23,71.36,382.92,67.87Z" style="fill:#e6e6e6"></path><path d="M417,158H406a3,3,0,0,0-3,3v8a3,3,0,0,0,3,3h1.67l-.85,3.16,3-3.16H417a3,3,0,0,0,3-3v-8A3,3,0,0,0,417,158Z" style="fill:#e6e6e6"></path></g><g id="background-simple"><path d="M98.91,74c55-31.88,55.28,62.17,128.51,118.59S403.73,197,436.94,243.2s22.48,172.5-174.78,130.62S.5,131,98.91,74Z" style="fill:#407BFF"></path><path d="M98.91,74c55-31.88,55.28,62.17,128.51,118.59S403.73,197,436.94,243.2s22.48,172.5-174.78,130.62S.5,131,98.91,74Z" style="fill:#fff;opacity:0.9"></path></g><g id="Shadow"><ellipse id="path" cx="249.15" cy="414.85" rx="193.89" ry="11.32" style="fill:#f5f5f5"></ellipse></g><g id="Table"><rect x="262" y="372" width="50" height="6" style="fill:#407BFF"></rect><rect x="269" y="269" width="6" height="145" style="fill:#407BFF"></rect><rect x="300" y="269" width="6" height="145" style="fill:#407BFF"></rect><rect x="109" y="262" width="203" height="7" style="fill:#407BFF;isolation:isolate"></rect><rect x="109" y="262" width="203" height="7" style="fill:#407BFF"></rect><rect x="109" y="262" width="203" height="7" style="fill:#fff;opacity:0.6000000000000001"></rect><rect x="109" y="262" width="44" height="7" style="fill:#407BFF;opacity:0.6000000000000001"></rect><rect x="106" y="372" width="50" height="6" style="fill:#407BFF"></rect><rect x="113" y="269" width="6" height="145" style="fill:#407BFF"></rect><rect x="144" y="269" width="6" height="145" style="fill:#407BFF"></rect></g><g id="Chair"><rect x="218" y="336" width="5" height="78" style="fill:#2e353a"></rect><rect x="135" y="336" width="5" height="78" style="fill:#2e353a"></rect><rect x="167" y="336" width="5" height="78" style="fill:#2e353a"></rect><rect x="250" y="336" width="5" height="78" style="fill:#2e353a"></rect><rect x="129" y="336" width="135" height="10" style="fill:#407BFF"></rect><rect x="129" y="336" width="135" height="10" style="fill:#fff;opacity:0.30000000000000004"></rect><path d="M263.89,336H129.11A18,18,0,0,1,147,320h99A18,18,0,0,1,263.89,336Z" style="fill:#407BFF"></path><path d="M263.89,336H129.11A18,18,0,0,1,147,320h99A18,18,0,0,1,263.89,336Z" style="fill:#fff;opacity:0.6000000000000001"></path><path d="M180.89,336H129.11A18,18,0,0,1,147,320h16A18,18,0,0,1,180.89,336Z" style="fill:#fff;opacity:0.6000000000000001"></path></g><g id="character-3"><path d="M403.18,191a5,5,0,0,1,4.82,5.18v110a4.7,4.7,0,0,1-4.82,4.82h-104a5,5,0,0,1-5.18-4.82V233.5l-29.36-15.17,29.36-.18v-22a5.31,5.31,0,0,1,5.18-5.18H403m.18-2h-104a7.32,7.32,0,0,0-7.18,7.18v20l-27.29.16-5.66,0,4.43,3.52L292,234.47v71.71a7,7,0,0,0,7.18,6.82h104a6.7,6.7,0,0,0,6.82-6.82v-110a7,7,0,0,0-6.82-7.18Z" style="fill:#407BFF"></path><path d="M403.18,191a5,5,0,0,1,4.82,5.18v110a4.7,4.7,0,0,1-4.82,4.82h-104a5,5,0,0,1-5.18-4.82V233.5l-29.36-15.17,29.36-.18v-22a5.31,5.31,0,0,1,5.18-5.18H403m.18-2h-104a7.32,7.32,0,0,0-7.18,7.18v20l-27.29.16-5.66,0,4.43,3.52L292,234.47v71.71a7,7,0,0,0,7.18,6.82h104a6.7,6.7,0,0,0,6.82-6.82v-110a7,7,0,0,0-6.82-7.18Z" style="fill:#fff;opacity:0.6000000000000001"></path><path d="M408,196.18v110a4.7,4.7,0,0,1-4.82,4.82h-104a5,5,0,0,1-5.18-4.82V233.5l-29.36-15.17,29.36-.18v-22a5.31,5.31,0,0,1,5.18-5.18h104A5,5,0,0,1,408,196.18Z" style="fill:#fff"></path><g style="clip-path:url(#clip-path)"><g id="group"><path d="M322.17,253.7l-8.84,3.3c-.66-.5,3.62-35,3.62-35l-6.64-1.85s-8.73,36.72-5.64,43c4,8.16,21.66,0,21.66,0Z" style="fill:#b97964"></path><path d="M351.25,261a8,8,0,0,0-1.59,0,96.51,96.51,0,0,0-11.46,1.95c-8.58,1.81-18,4.24-18,4.24L316,255s27.67-16,32.16-14.69C348.16,240.31,355.67,261.67,351.25,261Z" style="fill:#407BFF"></path><path d="M414.75,273.46s7.42,8.54,6.58,19.54-28.77,28-28.77,28L389,315.5s22.25-18.75,22.75-22.5-4.62-12-4.62-12Z" style="fill:#b97964"></path><path d="M390,313.58s4.55,6.1,4.33,6.88-3.9,3.07-3.9,3.07.62,3.64.62,4.3c0,1.63-2.91,3.67-3.66,3.17-2.69-1.8-3.67-6.67-4.17-8.9S388.69,312.91,390,313.58Z" style="fill:#407BFF"></path><path d="M390,313.58s4.55,6.1,4.33,6.88-3.9,3.07-3.9,3.07.62,3.64.62,4.3c0,1.63-2.91,3.67-3.66,3.17-2.69-1.8-3.67-6.67-4.17-8.9S388.69,312.91,390,313.58Z" style="fill:#fff;opacity:0.7000000000000001;isolation:isolate"></path><polygon points="344 313 386 313 386 318 343.46 317.48 344 313" style="fill:#263238"></polygon><rect x="371" y="310.75" width="1.5" height="8.88" style="fill:#407BFF"></rect><rect x="349.75" y="310.75" width="1.5" height="8.88" style="fill:#407BFF"></rect><path d="M349.66,261a96.51,96.51,0,0,0-11.46,1.95c1.55-6.7,9.8-12.18,9.8-12.18Z" style="opacity:0.2;isolation:isolate"></path><rect x="355.37" y="312.13" width="7.77" height="5.6" style="fill:#fff"></rect><path d="M394.47,244.05s-1.27,6.38-2.82,15.65c-.7,4.19-1.45,9-2.18,14,0,0,0,0,0,.07-.89,6.21-1.73,12.82-2.36,19.25a189.07,189.07,0,0,0-1,20H344s-.61-10.45-.52-24.19c0-6.29.22-13.26.67-20.24.65-10.1,1.86-20.21,4-28.26C348.16,240.31,374.7,239.06,394.47,244.05Z" style="fill:#407BFF"></path><path d="M379.38,241.25c-3.83,3.48-13.21,2.19-13.21,2.19s-5.86-1.6-4.63-3.43c3.45-.57,5.12-2.18,5.81-4.24a10,10,0,0,0,.35-3.94,20.71,20.71,0,0,0-.29-2.2L379,221C377.49,226.71,375.63,237.14,379.38,241.25Z" style="fill:#b97964"></path><path d="M376.33,226.5c-.46,7-6.18,8.88-9,9.27a10,10,0,0,0,.35-3.94Z" style="opacity:0.2;isolation:isolate"></path><path d="M359.48,202.7s-3.31,10.45,1.72,15.46,8.17-14.91,8.17-14.91Z" style="fill:#263238"></path><path d="M377.88,227.34a11.64,11.64,0,0,1-1.52,1.92,9.83,9.83,0,0,1-11.75,2,11,11,0,0,1-5.38-6,10.23,10.23,0,0,1-.35-1.11,22.46,22.46,0,0,1-.53-2.8c-.91-6.93.61-16.16,7.26-19a10.64,10.64,0,0,1,14,5.58,10.51,10.51,0,0,1,.85,4.89C380.15,219.45,380.21,223.74,377.88,227.34Z" style="fill:#b97964"></path><path d="M368.66,215.2c0,.62-.32,1.15-.74,1.15s-.76-.51-.77-1.14.33-1.15.74-1.15S368.64,214.55,368.66,215.2Z" style="fill:#263238"></path><path d="M361.49,215.29c.05.63-.33,1.15-.74,1.15s-.75-.51-.77-1.14.33-1.15.74-1.15S361.48,214.69,361.49,215.29Z" style="fill:#263238"></path><path d="M363.77,215.57a22.55,22.55,0,0,1-3,5.46,3.65,3.65,0,0,0,3.06.53Z" style="fill:#a24e3f"></path><path d="M370.85,212.85a.4.4,0,0,1-.36-.14,3,3,0,0,0-2.4-1.22.36.36,0,0,1-.4-.34.37.37,0,0,1,.33-.4h0a3.69,3.69,0,0,1,3,1.5.37.37,0,0,1-.05.52h0A.48.48,0,0,1,370.85,212.85Z" style="fill:#263238"></path><path d="M358.38,212.86a.42.42,0,0,1-.22,0,.38.38,0,0,1-.19-.49h0a3.68,3.68,0,0,1,2.65-2.13.38.38,0,0,1,.42.32h0a.39.39,0,0,1-.32.42h0a3,3,0,0,0-2.07,1.71A.4.4,0,0,1,358.38,212.86Z" style="fill:#263238"></path><path d="M374.61,203.23l-.54,3.41a2.56,2.56,0,0,1,1.17,3.27c-1.21,2.84.28,7.38,2.43,9.24,0,0,.11-1.25,1.15-.92s.53,6.83-1.63,9.87c0,0,3.21-2.7,5.2-9.48,1.84-6.26,2.23-11.52,1-14Z" style="fill:#263238"></path><path d="M384.63,219.32a7.41,7.41,0,0,1-4.2,3.8c-2.45.86-3.84-1.3-3.3-3.71.49-2.13,2.35-5.21,4.89-5S385.64,217.13,384.63,219.32Z" style="fill:#b97964"></path><path d="M364,223.91a24.05,24.05,0,0,1,1.05,3.45l.64,0c2.87-.21,4.13-1.26,4.66-2.35a3.78,3.78,0,0,0,.33-1.73,3.33,3.33,0,0,0-.16-1c-1.45,1-4.11,1.42-5.54,1.58C364.39,223.9,364,223.91,364,223.91Z" style="fill:#263238"></path><path d="M364.53,224l.34,1c2.45-.12,4.81-.79,5.59-1.67a1.89,1.89,0,0,0-.27-1A13.85,13.85,0,0,1,364.53,224Z" style="fill:#fff"></path><path d="M365.7,227.32c2.87-.21,4.13-1.26,4.66-2.35a9.35,9.35,0,0,0-3.14.86A3.42,3.42,0,0,0,365.7,227.32Z" style="fill:#de5753"></path><path d="M385,205.86c1.64-6.12-5.25-10.69-12-11.69s-10.72,2-10.72,2-2.85-2.22-5.24-1.39c-2.71.94-4.23,8.23,3.93,11.5,6.12,2.45,13,.35,13,.35S383.71,210.76,385,205.86Z" style="fill:#263238"></path><path d="M391.65,259.7c-.7,4.21-1.46,9-2.19,14.09-3.3-6.07-.67-16.17-.67-16.17Z" style="opacity:0.2;isolation:isolate"></path><path d="M394.47,244.05s5.91,1.95,26.86,36.28l-12.08,7.42S394.13,267,390.16,266C390.16,266,385.19,248.88,394.47,244.05Z" style="fill:#407BFF"></path><path d="M315.91,222.52s3.42-1.49,4-3.06.94-11.6-.17-12.49-9.1-.27-10,1.68.1,10.69.53,11.5Z" style="fill:#b97964"></path><path d="M389.47,273.72s0,0,0,.07c-.89,6.21-1.73,12.82-2.36,19.25-5.16-2-17.92-5.34-43.62-4.23,0-6.29.22-13.26.67-20.24A95.47,95.47,0,0,1,389.47,273.72Z" style="fill:#407BFF"></path><path d="M389.47,273.72s0,0,0,.07c-.89,6.21-1.73,12.82-2.36,19.25-5.16-2-17.92-5.34-43.62-4.23,0-6.29.22-13.26.67-20.24A95.47,95.47,0,0,1,389.47,273.72Z" style="fill:#fff;opacity:0.4"></path></g></g></g><g id="character-2"><path d="M344.5,46a4.19,4.19,0,0,1,4.5,4.5v104c0,2.76-1.74,5.5-4.5,5.5H269.39l-22.76,30.29L246.47,160h-12a5.9,5.9,0,0,1-5.5-5.5V50.5c0-2.76,2.74-4.5,5.5-4.5H344m.5-2h-110c-3.86,0-7.5,2.64-7.5,6.5v104a7.89,7.89,0,0,0,7.5,7.5h10l.15,28.05,0,5.81,3.56-4.56L270.39,162H344.5c3.86,0,6.5-3.64,6.5-7.5V50.5a6.18,6.18,0,0,0-6.5-6.5Z" style="fill:#407BFF"></path><path d="M344.5,46a4.19,4.19,0,0,1,4.5,4.5v104c0,2.76-1.74,5.5-4.5,5.5H269.39l-22.76,30.29L246.47,160h-12a5.9,5.9,0,0,1-5.5-5.5V50.5c0-2.76,2.74-4.5,5.5-4.5H344m.5-2h-110c-3.86,0-7.5,2.64-7.5,6.5v104a7.89,7.89,0,0,0,7.5,7.5h10l.15,28.05,0,5.81,3.56-4.56L270.39,162H344.5c3.86,0,6.5-3.64,6.5-7.5V50.5a6.18,6.18,0,0,0-6.5-6.5Z" style="fill:#fff;opacity:0.6000000000000001"></path><path d="M349,50.5v104c0,2.76-1.74,5.5-4.5,5.5H269.39l-22.76,30.29L246.47,160h-12a5.9,5.9,0,0,1-5.5-5.5V50.5c0-2.76,2.74-4.5,5.5-4.5h110A4.19,4.19,0,0,1,349,50.5Z" style="fill:#fff"></path><g style="clip-path:url(#clip-path-2)"><polygon points="309.16 161.82 309.41 166.84 274.4 165.96 274.1 160.02 309.16 161.82" style="fill:#263238"></polygon><rect x="282.25" y="160.98" width="7.54" height="5.72" transform="translate(565.4 338.76) rotate(-177.76)" style="fill:#fff"></rect><rect x="297.23" y="160.3" width="1.71" height="8.69" transform="translate(595.92 329.73) rotate(-179.92)" style="fill:#263238"></rect><rect x="297.23" y="160.3" width="1.71" height="8.69" transform="translate(595.92 329.73) rotate(-179.92)" style="fill:#fff;opacity:0.1;isolation:isolate"></rect><rect x="276.15" y="159.05" width="1.71" height="8.69" transform="translate(553.91 326.96) rotate(-179.97)" style="fill:#263238"></rect><rect x="276.15" y="159.05" width="1.71" height="8.69" transform="translate(553.91 326.96) rotate(-179.97)" style="fill:#fff;opacity:0.1;isolation:isolate"></rect><path d="M273.37,109.35s-20.18-2-23.81-7.33,8.31-41.15,8.31-41.15l-5.23-2s-16.6,37-13.21,46.43,32.35,17.43,32.35,17.43Z" style="fill:#ebb376"></path><path d="M304.5,67.54s-4.66-7.63-16.35-4.1c-12.86,3.88-16.25,29.94-5.22,53.2s31.61,19,32.25,7.69-2.64-23.78-2.19-36.6S308.36,67.87,304.5,67.54Z" style="fill:#263238"></path><path d="M274.25,160.62l34.47,1.24a122.54,122.54,0,0,1,2.39-25.39c.65-3.33,1.5-7.05,2.61-11.36.59-2.3,1.25-4.77,2-7.44.55-2,1.15-4.16,1.82-6.43a101,101,0,0,0-14.42-2.72,109.78,109.78,0,0,0-15.49-.85c-6.67.28-14.31,1.42-14.31,1.42s-1.08.31-1.41,7.43C271.61,123.19,271.66,136.51,274.25,160.62Z" style="fill:#407BFF"></path><path d="M274.25,160.62l34.47,1.24a122.54,122.54,0,0,1,2.39-25.39c.65-3.33,1.5-7.05,2.61-11.36.59-2.3,1.25-4.77,2-7.44.55-2,1.15-4.16,1.82-6.43a101,101,0,0,0-14.42-2.72,109.78,109.78,0,0,0-15.49-.85c-6.67.28-14.31,1.42-14.31,1.42s-1.08.31-1.41,7.43C271.61,123.19,271.66,136.51,274.25,160.62Z" style="fill:#407BFF;opacity:0.2;isolation:isolate"></path><g style="opacity:0.30000000000000004"><path d="M317.53,111.24l-.56,1.93c-.36,1.23-.69,2.42-1,3.57-.08.31-.17.62-.25.93-.34,1.23-.66,2.42-1,3.56s-.64,2.41-.93,3.55l-.09.33c-.37,1.45-.72,2.84-1,4.16s-.57,2.41-.82,3.54-.53,2.49-.76,3.66c-.06.28-.27.55-.32.82a20.87,20.87,0,0,0-.79,3.54h0a32.08,32.08,0,0,1-.46,4.16c0,.1,0,.2,0,.3-.16,1.22-.21,2.39-.32,3.54,0,0,0,.11,0,.16-.12,1.46-.18,2.88-.26,4.31-.06,1.17-.08,2.34-.11,3.53-.05,1.62-.07,3.28-.09,5l-34.46-1.24c-.21-1.82-.38-3.58-.55-5.27-.12-1.24-.23-2.45-.34-3.63-.14-1.53-.27-3-.39-4.42-.05-.62-.1-1.28-.15-1.92s-.1-1.17-.14-1.74c-.11-1.55-.21-3-.3-4.45-.08-1.25-.15-2.45-.21-3.61q-.14-2.36-.21-4.44-.07-1.9-.12-3.6c0-1.61,0-3.08-.06-4.42s0-2.51,0-3.59.05-2.13.09-3c0-.49.05-1,.08-1.38a30.3,30.3,0,0,1,.4-3.53c.42-2.37.93-2.52.93-2.52s7.64-1.14,14.31-1.42a109.78,109.78,0,0,1,15.49.85A101,101,0,0,1,317.53,111.24Z"></path><path d="M317.53,111.24l-.56,1.93c-.36,1.23-.69,2.42-1,3.57-.08.31-.17.62-.25.93-.34,1.23-.66,2.42-1,3.56s-.64,2.41-.93,3.55l-.09.33c-.37,1.45-.72,2.84-1,4.16s-.57,2.41-.82,3.54-.53,2.49-.76,3.66c-.06.28-.27.55-.32.82a20.87,20.87,0,0,0-.79,3.54h0a32.08,32.08,0,0,1-.46,4.16c0,.1,0,.2,0,.3-.16,1.22-.21,2.39-.32,3.54,0,0,0,.11,0,.16-.12,1.46-.18,2.88-.26,4.31-.06,1.17-.08,2.34-.11,3.53-.05,1.62-.07,3.28-.09,5l-34.46-1.24c-.21-1.82-.38-3.58-.55-5.27-.12-1.24-.23-2.45-.34-3.63-.14-1.53-.27-3-.39-4.42-.05-.62-.1-1.28-.15-1.92s-.1-1.17-.14-1.74c-.11-1.55-.21-3-.3-4.45-.08-1.25-.15-2.45-.21-3.61q-.14-2.36-.21-4.44-.07-1.9-.12-3.6c0-1.61,0-3.08-.06-4.42s0-2.51,0-3.59.05-2.13.09-3c0-.49.05-1,.08-1.38a30.3,30.3,0,0,1,.4-3.53c.42-2.37.93-2.52.93-2.52s7.64-1.14,14.31-1.42a109.78,109.78,0,0,1,15.49.85A101,101,0,0,1,317.53,111.24Z" style="opacity:0.2;isolation:isolate"></path></g><path d="M257.32,62.48s2.27-1.95,2.33-3.28-2-9.08-3.06-9.5-7,1.94-7.2,3.63,2.59,8.14,3.1,8.65Z" style="fill:#ebb376"></path><g style="opacity:0.7000000000000001"><path d="M317,113.17c-.36,1.23-.69,2.42-1,3.57q-5.58.12-10.51.12A276.37,276.37,0,0,1,272,115.14a30.3,30.3,0,0,1,.4-3.53C280.89,112.64,295.34,113.71,317,113.17Z" style="fill:#fff"></path></g><g style="opacity:0.7000000000000001"><path d="M314.74,121.23c-.33,1.23-.64,2.41-.93,3.55-2.92.06-5.71.08-8.36.08a277.28,277.28,0,0,1-33.67-1.74c0-1.32,0-2.51,0-3.59C280,120.56,293.86,121.64,314.74,121.23Z" style="fill:#fff"></path></g><g style="opacity:0.7000000000000001"><path d="M312.69,129.27c-.3,1.23-.57,2.41-.82,3.54-2.22,0-4.36.05-6.42.05A278.75,278.75,0,0,1,272,131.14q-.07-1.9-.12-3.6C279.72,128.52,293,129.57,312.69,129.27Z" style="fill:#fff"></path></g><g style="opacity:0.7000000000000001"><path d="M310.79,137.29a20.87,20.87,0,0,0-.79,3.54h0l-4.55,0a279.48,279.48,0,0,1-33.07-1.67c-.08-1.25-.15-2.45-.21-3.61A293.81,293.81,0,0,0,310.79,137.29Z" style="fill:#fff"></path></g><g style="opacity:0.7000000000000001"><path d="M309.65,145c-.15,2-.28,3-.39,4h-.08c-1.27,0-2.52-.06-3.73-.06A281.62,281.62,0,0,1,273,147.3c-.1-1.25-.2-2.62-.29-3.79,7.51.9,19.52,1.49,36.82,1.49Z" style="fill:#fff"></path></g><g style="opacity:0.7000000000000001"><path d="M309,153c-.06,1-.1,3-.13,4h0c-1.14,0-2.26-.06-3.35-.06a288.14,288.14,0,0,1-31.75-1.55c-.12-1.24-.23-2.63-.34-3.8,7.45.87,19.07,1.41,35.55,1.41Z" style="fill:#fff"></path></g><path d="M317.53,111.24s14.56,23.59,18.2,39.43-40.8-1-40.8-1l1.41-5.87S319.68,150,322.42,148s-9.32-20.39-9.32-20.39Z" style="fill:#ebb376"></path><path d="M300.14,150.32s-2.56,1.54-3.84,1.18-8-4.76-8.05-5.9,4-6,5.71-5.7,6.9,5,7.23,5.68Z" style="fill:#ebb376"></path><path d="M294,139.9c-2,0-7.63,4.38-6.26,5.14s8.24,6.3,9.47,5.46a11,11,0,0,0,2.49-3.22Z" style="fill:#ebb376"></path><path d="M290.84,115.1c8.4-1.5,10.76-5.24,10.76-5.24-5.62-4.8-1.6-13.79-1.6-13.79l-10.09,2.41a31,31,0,0,1,.62,4.26c.38,6.18-2.41,6.38-2.41,6.38C286.5,112.56,290.84,115.1,290.84,115.1Z" style="fill:#ebb376"></path><path d="M289.91,98.48a31,31,0,0,1,.62,4.26c6.87-.34,9.47-6.67,9.47-6.67Z" style="opacity:0.2;isolation:isolate"></path><path d="M294.11,69.73c-8.88,0-11.75,4.69-12.44,13.84-.87,11.42,1.63,19.55,12.74,17.16C309.49,97.49,308.85,69.79,294.11,69.73Z" style="fill:#ebb376"></path><path d="M303.74,84.73s-4.11-7.31-3.46-12.94c0,0-17.55-7.26-18.5,10.58,0,0-1.65-15.85,13.61-16.14s15.09,22,7.18,28.65C302.57,94.88,306.29,89.3,303.74,84.73Z" style="fill:#263238"></path><path d="M300.63,99.76a.26.26,0,0,1-.15-.47,13,13,0,0,0,3.68-5.79c1.53-4.22-1.19-8.76-3.37-12.41a9.77,9.77,0,0,1-.74-9.43.27.27,0,0,1,.36-.09.25.25,0,0,1,.09.35,9.26,9.26,0,0,0,.74,8.91c2.24,3.74,5,8.39,3.41,12.85-1.55,4.29-3.77,6-3.86,6A.33.33,0,0,1,300.63,99.76Z" style="fill:#263238"></path><path d="M302.28,86.59a3.89,3.89,0,0,1,4.21-3.53c2.75.31,4,6-2.81,7.29C302.7,90.54,302.15,89.58,302.28,86.59Z" style="fill:#ebb376"></path><path d="M287.36,83.44a19.29,19.29,0,0,1-2.73,3.68A2.49,2.49,0,0,0,287,88.21Z" style="fill:#d58745"></path><path d="M297.18,78.45a.24.24,0,0,0,.11-.06.38.38,0,0,0,.07-.54,5.06,5.06,0,0,0-4.23-1.62.38.38,0,0,0-.34.42.39.39,0,0,0,.42.35,4.3,4.3,0,0,1,3.54,1.32A.38.38,0,0,0,297.18,78.45Z" style="fill:#263238"></path><path d="M286.73,76.41a.35.35,0,0,0,.24-.22.39.39,0,0,0-.21-.5,4.58,4.58,0,0,0-4,.68.38.38,0,1,0,.4.65,3.85,3.85,0,0,1,3.28-.61A.39.39,0,0,0,286.73,76.41Z" style="fill:#263238"></path><path d="M288,90.91a24.05,24.05,0,0,1,1.05,3.45l.64,0c2.87-.21,4.13-1.26,4.66-2.35a3.78,3.78,0,0,0,.33-1.73,3.33,3.33,0,0,0-.16-1c-1.45,1-4.11,1.42-5.54,1.58C288.39,90.9,288,90.91,288,90.91Z" style="fill:#263238"></path><path d="M288.53,91l.34,1c2.45-.12,4.81-.79,5.59-1.67a1.89,1.89,0,0,0-.27-1A13.85,13.85,0,0,1,288.53,91Z" style="fill:#fff"></path><path d="M289.7,94.32c2.87-.21,4.13-1.26,4.66-2.35a9.35,9.35,0,0,0-3.14.86A3.42,3.42,0,0,0,289.7,94.32Z" style="fill:#de5753"></path><path d="M295,83.55l.07,0a.27.27,0,0,0,.07-.37A2.4,2.4,0,0,0,293.42,82a2.8,2.8,0,0,0-2,.72.27.27,0,0,0,.36.39,2.26,2.26,0,0,1,1.56-.58,1.9,1.9,0,0,1,1.31.93A.26.26,0,0,0,295,83.55Z" style="fill:#263238"></path><path d="M286.33,83l.09-.06a.26.26,0,0,0,0-.37,2.79,2.79,0,0,0-1.83-.9,2,2,0,0,0-1.52.74.27.27,0,0,0,0,.38.27.27,0,0,0,.37,0,1.52,1.52,0,0,1,1.13-.57,2.26,2.26,0,0,1,1.43.72A.29.29,0,0,0,286.33,83Z" style="fill:#263238"></path><path d="M280,76.91c2.41-2.44,6.39-2.8,10-2.5a8.48,8.48,0,0,1,2.16-3.17A14.29,14.29,0,0,0,291,74.52a35.71,35.71,0,0,1,6.67,1.5c.54-2.22,3.71-5.33,3.71-5.33C282.68,63.09,280,76.91,280,76.91Z" style="fill:#263238"></path><path d="M309.49,110.4S300,119,290.71,119.29s-13-9.9-13-9.9S291.81,104.43,309.49,110.4Z" style="fill:#ebb376"></path></g></g><g id="character-1"><path d="M263.84,260.34c-6.6,2.14-31.62,2-41,1a22.81,22.81,0,0,1-20.23-14.7c-.39-.94-.75-1.88-1.09-2.83a85.27,85.27,0,0,1-3.92-16.77l10,2.78s1.83,6.43,3.69,11.57c.36,1,.72,1.91,1.07,2.74a12.54,12.54,0,0,0,4.34,6c2,1.42,5,2.32,9.48,2.82,9.05,1,18.59,2.74,25.44,3a49.92,49.92,0,0,0,11.12-.63S270.45,258.19,263.84,260.34Z" style="fill:#e4897b"></path><path d="M263.84,260.34c-6.6,2.14-31.62,2-41,1a22.81,22.81,0,0,1-20.23-14.7c-.39-.94-.75-1.88-1.09-2.83a85.27,85.27,0,0,1-3.92-16.77l10,2.78s1.83,6.43,3.69,11.57c.36,1,.72,1.91,1.07,2.74a12.54,12.54,0,0,0,4.34,6c2,1.42,5,2.32,9.48,2.82,9.05,1,18.59,2.74,25.44,3a49.92,49.92,0,0,0,11.12-.63S270.45,258.19,263.84,260.34Z" style="opacity:0.1;isolation:isolate"></path><path d="M176.7,165.62c17.11-1.7,20.86,8.09,21,12.77s-5.55,20.72-3.38,25.87,5.71,13.47-.7,21.58-26.79,11.73-35.29-1-.36-13.82,1.4-25.82S156.29,167.64,176.7,165.62Z" style="fill:#2e353a"></path><polygon points="245.51 404.39 238.78 403.71 238.61 394.23 238.48 385.53 246.6 385.04 246.03 395.28 245.51 404.39" style="fill:#e4897b"></polygon><path d="M237,403.67c-.08-.75,9.07-1.43,9.07-1.43s6.37,4.9,12,5.42,3,4.2-3,5l-15,2.09C235.69,415.39,237.87,411.35,237,403.67Z" style="fill:#2e353a"></path><path d="M250.66,403.93a13.58,13.58,0,0,1-3.43-.66.2.2,0,0,1-.09,0,.1.1,0,0,1,0-.05h0a.22.22,0,0,1,0-.18c0-.09.49-2.32,1.65-3a1.4,1.4,0,0,1,1.18-.13c.44.14.68.37.7.68,0,.48-.54,1-1.22,1.54a3.74,3.74,0,0,1,2.06-.06,1,1,0,0,1,.57.55.88.88,0,0,1-.08,1A1.74,1.74,0,0,1,250.66,403.93ZM248,403c1.41.38,3.15.65,3.52.24,0,0,.14-.14,0-.49a.54.54,0,0,0-.31-.28C250.55,402.19,249,402.64,248,403Zm1.4-2.73a.92.92,0,0,0-.48.14,4,4,0,0,0-1.29,2.17c1.27-.7,2.47-1.59,2.44-2,0-.13-.23-.22-.37-.26A1,1,0,0,0,249.44,400.27Z" style="fill:#407BFF"></path><polygon points="246 395.49 238.6 394.41 238.47 385.62 246.6 385.08 246 395.49" style="opacity:0.2;isolation:isolate"></polygon><path d="M258.58,313.22c-1.78-10.1-13.85-11.31-13.85-11.31l-.07,0A380,380,0,0,0,198,292.67l-27,28.71s30.29-1.71,63.29-1.71c0,0,1.28,40.51,3.2,70.69l9.76.18S260.36,323.31,258.58,313.22Z" style="fill:#2e353a"></path><path d="M258.58,313.22c-1.78-10.1-13.85-11.31-13.85-11.31l-.07,0A380,380,0,0,0,198,292.67l-27,28.71s30.29-1.71,63.29-1.71c0,0,1.28,40.51,3.2,70.69l9.76.18S260.36,323.31,258.58,313.22Z" style="opacity:0.30000000000000004;isolation:isolate"></path><polygon points="208.66 405.36 202.11 403.68 203.37 394.28 204.54 385.66 212.65 386.39 210.54 396.43 208.66 405.36" style="fill:#e4897b"></polygon><path d="M200.34,403.37c0-.75,9.18-.05,9.18-.05s5.57,5.8,11,7.15,2.36,4.6-3.76,4.53l-15.13-.18C197.31,414.76,200.07,411.09,200.34,403.37Z" style="fill:#2e353a"></path><path d="M214.35,405.72a11.36,11.36,0,0,1-3.82-1.21.24.24,0,0,1-.08-.06h0l0-.05a.25.25,0,0,1,0-.19c0-.09.83-2.22,2.08-2.72a1.42,1.42,0,0,1,1.19.05c.41.2.61.46.59.77,0,.49-.69,1-1.44,1.35a3.68,3.68,0,0,1,2,.25,1,1,0,0,1,.48.62.89.89,0,0,1-.23,1A1.24,1.24,0,0,1,214.35,405.72Zm-3-1.35c1.35.59,3,1.11,3.45.76,0,0,.16-.12.07-.48a.52.52,0,0,0-.26-.33C214,403.94,212.4,404.15,211.37,404.37Zm1.66-2.5a.92.92,0,0,0-.36.07,4,4,0,0,0-1.59,1.95c1.36-.5,2.68-1.2,2.71-1.61,0-.13-.2-.25-.33-.31A.94.94,0,0,0,213,401.87Z" style="fill:#407BFF"></path><polygon points="210.49 396.64 203.33 394.46 204.52 385.75 212.63 386.43 210.49 396.64" style="opacity:0.2;isolation:isolate"></polygon><path d="M198.06,294.29s-.75-10.39-1.1-12.51a48.81,48.81,0,0,0-1.29-6.22c-2.31-6.93-33-2.55-33-2.55s-18.44,31.27-5.68,44.24c2.83,2.88,8.37,4.17,14,4.13,0,0,7.08,0,39.27-1.46,0,0-4.81,40.25-7.44,70.38l9.63,1.64s22.88-64.52,22.63-74.77S235.13,302.56,198.06,294.29Z" style="fill:#2e353a"></path><polygon points="201.47 387.38 214.7 388.88 212.14 394.07 201.43 392.69 201.47 387.38" style="fill:#407BFF"></polygon><polygon points="235.69 387.69 249 387.19 247.25 392.7 236.46 392.95 235.69 387.69" style="fill:#407BFF"></polygon><polygon points="163.43 269.24 162.69 274.02 195.69 276.56 196.56 270.92 163.43 269.24" style="fill:#2e353a"></polygon><polygon points="163.43 269.24 162.69 274.02 195.69 276.56 196.56 270.92 163.43 269.24" style="opacity:0.2;isolation:isolate"></polygon><rect x="172.63" y="268.82" width="1.64" height="8.35" transform="translate(28.89 -16.34) rotate(5.88)" style="fill:#2e353a"></rect><rect x="181.43" y="270.68" width="7.24" height="5.49" transform="matrix(1, 0.06, -0.06, 1, 17.93, -11.31)" style="fill:#fff"></rect><rect x="192.89" y="269.72" width="1.64" height="8.35" transform="translate(29.1 -18.42) rotate(5.88)" style="fill:#2e353a"></rect><path d="M196.56,270.92l-33.13-1.68c-.56-8.77-1-16.63-3.67-27.1-.84-3.38-1.9-7.16-3.26-11.53-.73-2.33-1.53-4.83-2.43-7.53-.68-2-.88-4.18-1.68-6.47A97.28,97.28,0,0,1,166.53,213a112.38,112.38,0,0,1,15.86-1.67c6.87-.05,14.76.72,14.76.72s1.13.27,1.83,7.55C199.63,226.47,198,246,196.56,270.92Z" style="fill:#407BFF"></path><path d="M196.56,270.92l-33.13-1.68a174.67,174.67,0,0,0-1.74-17.8c-.47-2.91-1.09-6-1.93-9.3s-1.9-7.16-3.26-11.53c-.73-2.33-1.53-4.83-2.43-7.53l0-.13c-.65-2-.86-4.1-1.64-6.34A98.59,98.59,0,0,1,166.53,213a112.38,112.38,0,0,1,15.86-1.67c6.87-.05,14.76.72,14.76.72s1.13.27,1.83,7.55C199.63,226.47,198,246,196.56,270.92Z" style="fill:#fff;opacity:0.2;isolation:isolate"></path><path d="M241.55,212.08c-.19,5-.86,19.49-1.18,24.52s-2.12,4.83-7.63,4.83a6.34,6.34,0,0,1-1.81-.21c-3.28-.83-2-4.21-1.86-6.3,0,0,.76-11.19.94-18.33s-.37-8.07,4.47-8.07S241.73,207.09,241.55,212.08Z" style="fill:#407BFF"></path><path d="M241.55,212.08c-.19,5-.86,19.49-1.18,24.52s-2.12,4.83-7.63,4.83a6.34,6.34,0,0,1-1.81-.21,28.19,28.19,0,0,1,.4-4.06c.55-4.39,1.28-21.57,1.41-25.08s.07-3.5,1.74-3.56C239.31,208.52,241.73,207.09,241.55,212.08Z" style="opacity:0.4"></path><path d="M194.29,185.37S199.63,165,177.72,166s-17,35-3.41,32.93S194.29,185.37,194.29,185.37Z" style="fill:#2e353a"></path><path d="M181.08,216.87c-6.79.83-11.69-4.6-11.69-4.6,6.41-4.41,3.18-14.27,3.18-14.27l10.3,3.62a31.55,31.55,0,0,0-1.1,4.4c-1.08,6.43,1.82,6.94,1.82,6.94C184.92,216.74,182.79,216.66,181.08,216.87Z" style="fill:#e4897b"></path><path d="M182.87,201.62a31.55,31.55,0,0,0-1.1,4.4c-4.93-2-9.2-8-9.2-8Z" style="opacity:0.2;isolation:isolate"></path><path d="M182.55,170.94c9.31.8,11.88,6,11.74,15.69-.18,12.07-3.57,20.36-15,16.8C163.78,198.59,167.09,169.61,182.55,170.94Z" style="fill:#e4897b"></path><path d="M188.31,185.6a20.12,20.12,0,0,0,2.38,4.09,2.55,2.55,0,0,1-2.54.84Z" style="fill:#de5753"></path><path d="M182.68,184.35c-.05.76-.5,1.36-1,1.32s-.89-.67-.84-1.44.5-1.36,1-1.33S182.73,183.58,182.68,184.35Z" style="fill:#2e353a"></path><path d="M181.63,182.92l1.7-.55S182.42,183.72,181.63,182.92Z" style="fill:#2e353a"></path><path d="M192.22,184.78c-.05.77-.5,1.36-1,1.33s-.89-.68-.84-1.45.5-1.36,1-1.32S192.27,184,192.22,184.78Z" style="fill:#2e353a"></path><path d="M191.16,183.36l1.71-.55S192,184.16,191.16,183.36Z" style="fill:#2e353a"></path><path d="M179,179.36a.38.38,0,0,1-.28-.11.4.4,0,0,1,0-.56,5.22,5.22,0,0,1,4.53-1.17.4.4,0,0,1,.31.47.38.38,0,0,1-.47.3s-2.4-.49-3.79,1A.42.42,0,0,1,179,179.36Z" style="fill:#2e353a"></path><path d="M193.59,179.58a.38.38,0,0,1-.25-.09,4,4,0,0,0-3.29-1,.4.4,0,0,1-.21-.77,4.73,4.73,0,0,1,4,1.16.4.4,0,0,1,.07.56A.4.4,0,0,1,193.59,179.58Z" style="fill:#2e353a"></path><path d="M186.47,194.08a24.31,24.31,0,0,0-1.36,3.14,5.59,5.59,0,0,1-.59-.11c-2.69-.5-3.77-1.63-4.15-2.72a3.73,3.73,0,0,1,.13-2.58c1.26,1.12,3.73,1.78,5.06,2.08C186.12,194,186.47,194.08,186.47,194.08Z" style="fill:#2e353a"></path><path d="M185.56,193.89l-.43.92c-2.52-.48-4.24-1.16-4.89-2.08a3.43,3.43,0,0,1,.26-.92C181.76,192.93,184.23,193.59,185.56,193.89Z" style="fill:#fff"></path><path d="M184.52,197.11c-2.69-.5-3.77-1.63-4.15-2.72a8.72,8.72,0,0,1,2.87,1.16A3.34,3.34,0,0,1,184.52,197.11Z" style="fill:#de5753"></path><path d="M171,185.76s5-7.28,4.86-13.24c0,0,19.1-6,18.4,12.85,0,0,3.23-16.47-12.75-18.22s-17.92,21.68-10.25,29.37C171.29,196.52,167.92,190.31,171,185.76Z" style="fill:#2e353a"></path><path d="M172.38,187.85a4.11,4.11,0,0,0-4.08-4.11c-2.91.07-4.8,5.87,2.26,7.92C171.57,192,172.24,191,172.38,187.85Z" style="fill:#e4897b"></path><path d="M174.59,184.38a.28.28,0,0,1-.26-.18.29.29,0,0,1,.16-.36c7.68-2.91,7.54-13.2,7.53-13.31a.28.28,0,0,1,.27-.28h0a.27.27,0,0,1,.27.27c0,.11.15,10.79-7.88,13.84Z" style="fill:#2e353a"></path><path d="M192.87,170.53c-7.87-6.61-12.5-4.53-12.5-4.53l0,.11c-3.06-.91-8.13-1.1-13.24,4.42-8.13,8.77-1.28,15.15-1.28,15.15,10.75-3,15-9.78,16.58-14.06,2.67,4.41,7.69,9.54,14.08,11.71C196.56,183.33,200.75,177.13,192.87,170.53Z" style="fill:#2e353a"></path><path d="M171.76,209.93s-1.28,6.39,9.32,6.94c0,0-4.75,3.11-5.49,6.21,0,0-7.24-1.83-8.58-11C167,212.12,169.93,208.83,171.76,209.93Z" style="fill:#407BFF;isolation:isolate"></path><path d="M181.6,209.59s.59,6-.52,7.28a9.43,9.43,0,0,1,5.3,4.75s.63-5.66-1.74-10.14C184.64,211.48,183.34,209.22,181.6,209.59Z" style="fill:#407BFF"></path><path d="M171.76,209.93s-1.28,6.39,9.32,6.94c0,0-4.75,3.11-5.49,6.21,0,0-7.24-1.83-8.58-11C167,212.12,169.93,208.83,171.76,209.93Z" style="opacity:0.4;isolation:isolate"></path><path d="M181.6,209.59s.59,6-.52,7.28a9.43,9.43,0,0,1,5.3,4.75s.63-5.66-1.74-10.14C184.64,211.48,183.34,209.22,181.6,209.59Z" style="opacity:0.4"></path><path d="M216.48,241.93l8.07-3.43s1-3,2.27-3.71,9.91-2.14,10.78-1.31,1.07,7.61-.53,8.56-9.22,1.15-9.95.89L218.88,247Z" style="fill:#e4897b"></path><path d="M197.15,212.08s7.66.46,10.19,11c0,0,1.19,4.8,1.67,7.3,0,0-6.09-.79-10.36,2.85Z" style="fill:#407BFF"></path><path d="M209,230.38a16.17,16.17,0,0,0-5.6.45,11.85,11.85,0,0,0-4.76,2.4l-.86-12.09-.64-9.06s7.66.46,10.19,11C207.34,223.08,208.53,227.88,209,230.38Z" style="fill:#fff;opacity:0.2;isolation:isolate"></path><path d="M263,241H249a2,2,0,0,0-2,2v1.45l-.38,0a7.3,7.3,0,0,0-2.62.48,7.43,7.43,0,0,0,0,13.9,7.3,7.3,0,0,0,2.62.48l.38,0V260a2,2,0,0,0,2,2h14a2,2,0,0,0,2-2V243A2,2,0,0,0,263,241Zm-16,15.94c-.13,0-.25,0-.38,0a5,5,0,0,1-2.62-.73,5.12,5.12,0,0,1,2.62-9.52c.13,0,.25,0,.38,0Z" style="fill:#407BFF"></path><path d="M261.11,261.6s3.75.92,5.4.24,2.67-5.24,2.49-6.75-.75-3.05-4-3.23-4.33-.69-5.08,2.22S258.54,260.79,261.11,261.6Z" style="fill:#e4897b"></path><path d="M247,244.45v2.32c-.13,0-.25,0-.38,0a5.07,5.07,0,0,0-2.62.72v-2.54a7.3,7.3,0,0,1,2.62-.48Z" style="opacity:0.4"></path><path d="M247,256.94v2.33l-.38,0a7.3,7.3,0,0,1-2.62-.48v-2.56a5,5,0,0,0,2.62.73C246.75,257,246.87,257,247,256.94Z" style="opacity:0.4"></path><path d="M203.41,230.83a11.85,11.85,0,0,0-4.76,2.4l-.86-12.09A34,34,0,0,1,203.41,230.83Z" style="opacity:0.2;isolation:isolate"></path><path d="M171,238.25c.16,4.21-4.66,9.28-9.35,13.19-.47-2.91-1.09-6-1.93-9.3s-1.9-7.16-3.26-11.53c-.73-2.33-1.53-4.83-2.43-7.53l0-.13,5.67-.29S170.73,230.1,171,238.25Z" style="opacity:0.2;isolation:isolate"></path><path d="M224.55,238.5a49.64,49.64,0,0,1-10.35,4.14c-6.58,1.92-16.18,3.29-25.08,5.21s-12.2.27-15.9-4-9.05-12.06-9.05-12.06l-10.41.55a82.09,82.09,0,0,0,11,17c6.58,7.54,14.67,9.6,23.85,7.54s33-9.83,38.55-14S224.55,238.5,224.55,238.5Z" style="fill:#e4897b"></path><path d="M170.05,235.73c-6.29-1.56-13.65,1.55-15.72,2.52a44.21,44.21,0,0,1-3.59-7.66c-2.07-6.12-1.48-9.68-.46-11.68a5,5,0,0,1,2.07-2.28l0,0C157,216.08,163.84,227.1,170.05,235.73Z" style="fill:#407BFF;isolation:isolate"></path><path d="M170.05,235.73c-6.29-1.56-13.65,1.55-15.72,2.52a44.21,44.21,0,0,1-3.59-7.66c-2.07-6.12-1.48-9.68-.46-11.68a5,5,0,0,1,2.07-2.28l0,0C157,216.08,163.84,227.1,170.05,235.73Z" style="fill:#fff;opacity:0.2;isolation:isolate"></path></g></svg>