<svg xmlns="http://www.w3.org/2000/svg" viewBox="0 0 500 500"><g id="background-simple"><path d="M455.2,192.7a264.57,264.57,0,0,0-9.75-29.33C418.75,96.51,361.51,46.07,290.2,32,219.32,18.1,96.69,37.23,78.79,123.51c-3.71,17.86-.25,36.34-.34,54.58-.18,34.71-15,60.17-31.19,89.42-12.17,22-22.53,47.3-16.76,71.79,3.75,15.89,14,29.56,25.87,40.76,40.24,37.9,94.13,45.66,147,37,25-4.1,49.45-15.05,74.22-18.15,31.72-4,63.75,6.22,95.33-.7,30.32-6.64,56-28.72,70.94-55.91C468.75,297,468.33,241.48,455.2,192.7Z" style="fill:#92E3A9"></path><path d="M455.2,192.7a264.57,264.57,0,0,0-9.75-29.33C418.75,96.51,361.51,46.07,290.2,32,219.32,18.1,96.69,37.23,78.79,123.51c-3.71,17.86-.25,36.34-.34,54.58-.18,34.71-15,60.17-31.19,89.42-12.17,22-22.53,47.3-16.76,71.79,3.75,15.89,14,29.56,25.87,40.76,40.24,37.9,94.13,45.66,147,37,25-4.1,49.45-15.05,74.22-18.15,31.72-4,63.75,6.22,95.33-.7,30.32-6.64,56-28.72,70.94-55.91C468.75,297,468.33,241.48,455.2,192.7Z" style="fill:#fff;opacity:0.7000000000000001"></path></g><g id="Window"><g style="opacity:0.2"><rect x="196.25" y="42" width="129.98" height="365.72" style="fill:none;stroke:#263238;stroke-linecap:round;stroke-miterlimit:10"></rect><polyline points="196.94 53.12 325.97 53.12 322.94 43.06" style="fill:none;stroke:#263238;stroke-linecap:round;stroke-miterlimit:10"></polyline><polyline points="196.94 65.3 325.97 65.3 322.94 55.24" style="fill:none;stroke:#263238;stroke-linecap:round;stroke-miterlimit:10"></polyline><polyline points="196.94 77.47 325.97 77.47 322.94 67.42" style="fill:none;stroke:#263238;stroke-linecap:round;stroke-miterlimit:10"></polyline><polyline points="196.94 89.65 325.97 89.65 322.94 79.59" style="fill:none;stroke:#263238;stroke-linecap:round;stroke-miterlimit:10"></polyline><polyline points="196.94 101.82 325.97 101.82 322.94 91.77" style="fill:none;stroke:#263238;stroke-linecap:round;stroke-miterlimit:10"></polyline><polyline points="196.94 114 325.97 114 322.94 103.95" style="fill:none;stroke:#263238;stroke-linecap:round;stroke-miterlimit:10"></polyline><polyline points="196.94 126.18 325.97 126.18 322.94 116.12" style="fill:none;stroke:#263238;stroke-linecap:round;stroke-miterlimit:10"></polyline><polyline points="196.94 138.35 325.97 138.35 322.94 128.3" style="fill:none;stroke:#263238;stroke-linecap:round;stroke-miterlimit:10"></polyline><polyline points="196.94 150.53 325.97 150.53 322.94 140.47" style="fill:none;stroke:#263238;stroke-linecap:round;stroke-miterlimit:10"></polyline><polyline points="196.94 162.7 325.97 162.7 322.94 152.65" style="fill:none;stroke:#263238;stroke-linecap:round;stroke-miterlimit:10"></polyline><polyline points="196.94 174.88 325.97 174.88 322.94 164.83" style="fill:none;stroke:#263238;stroke-linecap:round;stroke-miterlimit:10"></polyline><polyline points="196.94 187.06 325.97 187.06 322.94 177" style="fill:none;stroke:#263238;stroke-linecap:round;stroke-miterlimit:10"></polyline><polyline points="196.94 199.23 325.97 199.23 322.94 189.18" style="fill:none;stroke:#263238;stroke-linecap:round;stroke-miterlimit:10"></polyline><polyline points="196.94 211.41 325.97 211.41 322.94 201.35" style="fill:none;stroke:#263238;stroke-linecap:round;stroke-miterlimit:10"></polyline><polyline points="196.94 223.58 325.97 223.58 322.94 213.53" style="fill:none;stroke:#263238;stroke-linecap:round;stroke-miterlimit:10"></polyline><polyline points="196.94 235.76 325.97 235.76 322.94 225.71" style="fill:none;stroke:#263238;stroke-linecap:round;stroke-miterlimit:10"></polyline><polyline points="196.94 247.94 325.97 247.94 322.94 237.88" style="fill:none;stroke:#263238;stroke-linecap:round;stroke-miterlimit:10"></polyline><polyline points="196.94 260.11 325.97 260.11 322.94 250.06" style="fill:none;stroke:#263238;stroke-linecap:round;stroke-miterlimit:10"></polyline><polyline points="196.94 272.29 325.97 272.29 322.94 262.24" style="fill:none;stroke:#263238;stroke-linecap:round;stroke-miterlimit:10"></polyline><polyline points="196.94 284.46 325.97 284.46 322.94 274.41" style="fill:none;stroke:#263238;stroke-linecap:round;stroke-miterlimit:10"></polyline><polyline points="196.94 296.64 325.97 296.64 322.94 286.59" style="fill:none;stroke:#263238;stroke-linecap:round;stroke-miterlimit:10"></polyline><polyline points="196.94 308.82 325.97 308.82 322.94 298.76" style="fill:none;stroke:#263238;stroke-linecap:round;stroke-miterlimit:10"></polyline><polyline points="196.94 320.99 325.97 320.99 322.94 310.94" style="fill:none;stroke:#263238;stroke-linecap:round;stroke-miterlimit:10"></polyline><polyline points="196.94 333.17 325.97 333.17 322.94 323.12" style="fill:none;stroke:#263238;stroke-linecap:round;stroke-miterlimit:10"></polyline><polyline points="196.94 345.35 325.97 345.35 322.94 335.29" style="fill:none;stroke:#263238;stroke-linecap:round;stroke-miterlimit:10"></polyline><polyline points="196.94 357.52 325.97 357.52 322.94 347.47" style="fill:none;stroke:#263238;stroke-linecap:round;stroke-miterlimit:10"></polyline><polyline points="196.94 369.7 325.97 369.7 322.94 359.64" style="fill:none;stroke:#263238;stroke-linecap:round;stroke-miterlimit:10"></polyline><polyline points="196.94 381.87 325.97 381.87 322.94 371.82" style="fill:none;stroke:#263238;stroke-linecap:round;stroke-miterlimit:10"></polyline><polyline points="196.94 394.05 325.97 394.05 322.94 384" style="fill:none;stroke:#263238;stroke-linecap:round;stroke-miterlimit:10"></polyline></g><g style="opacity:0.2"><rect x="336.02" y="42" width="129.98" height="365.72" style="fill:none;stroke:#263238;stroke-linecap:round;stroke-miterlimit:10"></rect><polyline points="336.72 53.12 465.74 53.12 462.71 43.06" style="fill:none;stroke:#263238;stroke-linecap:round;stroke-miterlimit:10"></polyline><polyline points="336.72 65.3 465.74 65.3 462.71 55.24" style="fill:none;stroke:#263238;stroke-linecap:round;stroke-miterlimit:10"></polyline><polyline points="336.72 77.47 465.74 77.47 462.71 67.42" style="fill:none;stroke:#263238;stroke-linecap:round;stroke-miterlimit:10"></polyline><polyline points="336.72 89.65 465.74 89.65 462.71 79.59" style="fill:none;stroke:#263238;stroke-linecap:round;stroke-miterlimit:10"></polyline><polyline points="336.72 101.82 465.74 101.82 462.71 91.77" style="fill:none;stroke:#263238;stroke-linecap:round;stroke-miterlimit:10"></polyline><polyline points="336.72 114 465.74 114 462.71 103.95" style="fill:none;stroke:#263238;stroke-linecap:round;stroke-miterlimit:10"></polyline><polyline points="336.72 126.18 465.74 126.18 462.71 116.12" style="fill:none;stroke:#263238;stroke-linecap:round;stroke-miterlimit:10"></polyline><polyline points="336.72 138.35 465.74 138.35 462.71 128.3" style="fill:none;stroke:#263238;stroke-linecap:round;stroke-miterlimit:10"></polyline><polyline points="336.72 150.53 465.74 150.53 462.71 140.47" style="fill:none;stroke:#263238;stroke-linecap:round;stroke-miterlimit:10"></polyline><polyline points="336.72 162.7 465.74 162.7 462.71 152.65" style="fill:none;stroke:#263238;stroke-linecap:round;stroke-miterlimit:10"></polyline><polyline points="336.72 174.88 465.74 174.88 462.71 164.83" style="fill:none;stroke:#263238;stroke-linecap:round;stroke-miterlimit:10"></polyline><polyline points="336.72 187.06 465.74 187.06 462.71 177" style="fill:none;stroke:#263238;stroke-linecap:round;stroke-miterlimit:10"></polyline><polyline points="336.72 199.23 465.74 199.23 462.71 189.18" style="fill:none;stroke:#263238;stroke-linecap:round;stroke-miterlimit:10"></polyline><polyline points="336.72 211.41 465.74 211.41 462.71 201.35" style="fill:none;stroke:#263238;stroke-linecap:round;stroke-miterlimit:10"></polyline><polyline points="336.72 223.58 465.74 223.58 462.71 213.53" style="fill:none;stroke:#263238;stroke-linecap:round;stroke-miterlimit:10"></polyline><polyline points="336.72 235.76 465.74 235.76 462.71 225.71" style="fill:none;stroke:#263238;stroke-linecap:round;stroke-miterlimit:10"></polyline><polyline points="336.72 247.94 465.74 247.94 462.71 237.88" style="fill:none;stroke:#263238;stroke-linecap:round;stroke-miterlimit:10"></polyline><polyline points="336.72 260.11 465.74 260.11 462.71 250.06" style="fill:none;stroke:#263238;stroke-linecap:round;stroke-miterlimit:10"></polyline><polyline points="336.72 272.29 465.74 272.29 462.71 262.24" style="fill:none;stroke:#263238;stroke-linecap:round;stroke-miterlimit:10"></polyline><polyline points="336.72 284.46 465.74 284.46 462.71 274.41" style="fill:none;stroke:#263238;stroke-linecap:round;stroke-miterlimit:10"></polyline><polyline points="336.72 296.64 465.74 296.64 462.71 286.59" style="fill:none;stroke:#263238;stroke-linecap:round;stroke-miterlimit:10"></polyline><polyline points="336.72 308.82 465.74 308.82 462.71 298.76" style="fill:none;stroke:#263238;stroke-linecap:round;stroke-miterlimit:10"></polyline><polyline points="336.72 320.99 465.74 320.99 462.71 310.94" style="fill:none;stroke:#263238;stroke-linecap:round;stroke-miterlimit:10"></polyline><polyline points="336.72 333.17 465.74 333.17 462.71 323.12" style="fill:none;stroke:#263238;stroke-linecap:round;stroke-miterlimit:10"></polyline><polyline points="336.72 345.35 465.74 345.35 462.71 335.29" style="fill:none;stroke:#263238;stroke-linecap:round;stroke-miterlimit:10"></polyline><polyline points="336.72 357.52 465.74 357.52 462.71 347.47" style="fill:none;stroke:#263238;stroke-linecap:round;stroke-miterlimit:10"></polyline><polyline points="336.72 369.7 465.74 369.7 462.71 359.64" style="fill:none;stroke:#263238;stroke-linecap:round;stroke-miterlimit:10"></polyline><polyline points="336.72 381.87 465.74 381.87 462.71 371.82" style="fill:none;stroke:#263238;stroke-linecap:round;stroke-miterlimit:10"></polyline><polyline points="336.72 394.05 465.74 394.05 462.71 384" style="fill:none;stroke:#263238;stroke-linecap:round;stroke-miterlimit:10"></polyline></g></g><g id="Plant"><path d="M102.88,264.22S88.16,256,87.07,274.57s-3.81,139-3.81,139" style="fill:none;stroke:#263238;stroke-linecap:round;stroke-miterlimit:10;stroke-width:2px"></path><path d="M79.43,276.21s12,26.71,6.55,135.73" style="fill:none;stroke:#263238;stroke-linecap:round;stroke-miterlimit:10;stroke-width:2px"></path><path d="M91.22,268s-5.63,3.6-8.83-.52,2.17-11.69-2.57-14.93-12.9,1.7-12.9,1.7,6.29,1.85,6.09,5.29-3.23,4.73-3.64,3.23-3.4-9.07-8.51-5.92a12.66,12.66,0,0,0-5.89,8s11.89-1.26,12.61,3.21-4.88-.78-9.78-1.07-9.39.43-9.07,3.4a38.66,38.66,0,0,1-.46,7.86s4.16-3.7,9.55-3.38,5.2,3.75.29,3.47S49,282.69,49,282.69s4.47,7.65,10.16,11.43,7.73,2.43,8.4-.48-.87-10.4,2.57-10.19-5.69,13-1.3,13.71,7.91-.52,9.06-3.41L79,290.87s-1.53-7.48-.87-10.4,1.48.09,2.26,3.58,1.26,11.9,2.76,11.49,6.3-6.52,7.42-8.92-6.32-9.72-6.23-11.2,5.83,1.33,6.73,2.86a39.49,39.49,0,0,1,1.76,3.55s3.58-2.25,3.49-9.15S91.22,268,91.22,268Z" style="fill:#92E3A9"></path><path d="M91.22,268s-5.63,3.6-8.83-.52,2.17-11.69-2.57-14.93-12.9,1.7-12.9,1.7,6.29,1.85,6.09,5.29-3.23,4.73-3.64,3.23-3.4-9.07-8.51-5.92a12.66,12.66,0,0,0-5.89,8s11.89-1.26,12.61,3.21-4.88-.78-9.78-1.07-9.39.43-9.07,3.4a38.66,38.66,0,0,1-.46,7.86s4.16-3.7,9.55-3.38,5.2,3.75.29,3.47S49,282.69,49,282.69s4.47,7.65,10.16,11.43,7.73,2.43,8.4-.48-.87-10.4,2.57-10.19-5.69,13-1.3,13.71,7.91-.52,9.06-3.41L79,290.87s-1.53-7.48-.87-10.4,1.48.09,2.26,3.58,1.26,11.9,2.76,11.49,6.3-6.52,7.42-8.92-6.32-9.72-6.23-11.2,5.83,1.33,6.73,2.86a39.49,39.49,0,0,1,1.76,3.55s3.58-2.25,3.49-9.15S91.22,268,91.22,268Z" style="fill:#263238;opacity:0.30000000000000004"></path><path d="M62.68,284.12c3.67-4.53,9.08-10.68,13.62-13.61" style="fill:none;stroke:#263238;stroke-linecap:round;stroke-miterlimit:10"></path><path d="M58.43,289.65s.94-1.31,2.47-3.27" style="fill:none;stroke:#263238;stroke-linecap:round;stroke-miterlimit:10"></path><path d="M78.7,271.64s5.45,7.71,6.46,15.65" style="fill:none;stroke:#263238;stroke-linecap:round;stroke-miterlimit:10"></path><path d="M72.52,276.2s1.53-.89,1,8.92" style="fill:none;stroke:#263238;stroke-linecap:round;stroke-miterlimit:10"></path><path d="M76.5,267.08s3.12-2.77,1.48-8.29" style="fill:none;stroke:#263238;stroke-linecap:round;stroke-miterlimit:10"></path><line x1="72.29" y1="271.75" x2="70.06" y2="267.68" style="fill:none;stroke:#263238;stroke-linecap:round;stroke-miterlimit:10"></line><path d="M67.61,275.91s-7.07-5.34-11.49-5.6" style="fill:none;stroke:#263238;stroke-linecap:round;stroke-miterlimit:10"></path><path d="M111.29,253.4s-.23,8.1-6.54,8.49-10.23-10.14-16.69-7.6S81,268.37,81,268.37s6.14-5,9.44-2.5,2.54,6.47.76,5.85-11.4-2.77-11.73,4.49a15.32,15.32,0,0,0,4,11.36s6.84-12.77,11.81-10.44-4.11,4.35-7.74,9.07-6,9.69-2.77,11.4a46.46,46.46,0,0,1,7.54,5.81s-.86-6.68,3.14-11.87,7.3-2.64,3.66,2.08-1.83,12.12-1.83,12.12,10.71.74,18.38-2.38,7.7-6.09,5.23-8.74-11-6.22-8.45-9.52,9.1,14.53,12.84,10.65,4.88-8.28,2.77-11.4l-2.1-3.12s-8.53-3.57-11-6.22,1.09-1.42,5.11.18,12.78,6.84,13.4,5.06-2.24-10.75-3.88-13.51-14-.3-15.46-1.39,5.31-4.93,7.45-4.79a46.68,46.68,0,0,1,4.75.66s.19-5.12-6.78-9.73S111.29,253.4,111.29,253.4Z" style="fill:#92E3A9"></path><path d="M111.29,253.4s-.23,8.1-6.54,8.49-10.23-10.14-16.69-7.6S81,268.37,81,268.37s6.14-5,9.44-2.5,2.54,6.47.76,5.85-11.4-2.77-11.73,4.49a15.32,15.32,0,0,0,4,11.36s6.84-12.77,11.81-10.44-4.11,4.35-7.74,9.07-6,9.69-2.77,11.4a46.46,46.46,0,0,1,7.54,5.81s-.86-6.68,3.14-11.87,7.3-2.64,3.66,2.08-1.83,12.12-1.83,12.12,10.71.74,18.38-2.38,7.7-6.09,5.23-8.74-11-6.22-8.45-9.52,9.1,14.53,12.84,10.65,4.88-8.28,2.77-11.4l-2.1-3.12s-8.53-3.57-11-6.22,1.09-1.42,5.11.18,12.78,6.84,13.4,5.06-2.24-10.75-3.88-13.51-14-.3-15.46-1.39,5.31-4.93,7.45-4.79a46.68,46.68,0,0,1,4.75.66s.19-5.12-6.78-9.73S111.29,253.4,111.29,253.4Z" style="fill:#263238;opacity:0.2"></path><path d="M108,293c-2-6.77-4.5-16.38-4.34-22.91" style="fill:none;stroke:#263238;stroke-linecap:round;stroke-miterlimit:10"></path><path d="M110.66,301s-.67-1.83-1.59-4.7" style="fill:none;stroke:#263238;stroke-linecap:round;stroke-miterlimit:10"></path><path d="M106.45,268.46s11.43-.2,20.07,4.2" style="fill:none;stroke:#263238;stroke-linecap:round;stroke-miterlimit:10"></path><path d="M106.8,277.76s.15-2.14,9.58,5.13" style="fill:none;stroke:#263238;stroke-linecap:round;stroke-miterlimit:10"></path><path d="M100.39,267.55s-.65-5-7.29-7.12" style="fill:none;stroke:#263238;stroke-linecap:round;stroke-miterlimit:10"></path><line x1="102.19" y1="274.96" x2="96.6" y2="274.41" style="fill:none;stroke:#263238;stroke-linecap:round;stroke-miterlimit:10"></line><path d="M103.17,282.47S93,285.91,89.73,290.16" style="fill:none;stroke:#263238;stroke-linecap:round;stroke-miterlimit:10"></path><path d="M43.47,307.28s32.16,21.26,31.61,103.57" style="fill:none;stroke:#263238;stroke-linecap:round;stroke-miterlimit:10;stroke-width:2px"></path><path d="M83.12,301.66s-1,9.32-8.35,9.18-10.85-12.66-18.55-10.35-9.51,15.58-9.51,15.58,7.56-5.24,11.13-2,2.32,7.7.32,6.82-12.89-4.27-14,4.07a17.75,17.75,0,0,0,3.57,13.5s9.09-14.1,14.61-10.94-5.15,4.64-9.79,9.73-7.79,10.62-4.27,12.89,8.16,7.43,8.16,7.43-.37-7.79,4.73-13.4,8.68-2.36,4,2.73S62,360.73,62,360.73s12.29,1.86,21.43-1,9.46-6.3,6.87-9.59-12.1-8.22-8.86-11.79,9.13,17.63,13.82,13.5,6.4-9.08,4.27-12.89l-2.13-3.8s-9.51-4.92-12.1-8.21,1.39-1.53,5.89.7,14.09,9.09,15,7.1-1.57-12.62-3.19-16-16.18-1.67-17.71-3.06,6.58-5.2,9-4.82a52.72,52.72,0,0,1,5.43,1.21s.69-5.89-6.91-11.88S83.12,301.66,83.12,301.66Z" style="fill:#92E3A9"></path><path d="M83.12,301.66s-1,9.32-8.35,9.18-10.85-12.66-18.55-10.35-9.51,15.58-9.51,15.58,7.56-5.24,11.13-2,2.32,7.7.32,6.82-12.89-4.27-14,4.07a17.75,17.75,0,0,0,3.57,13.5s9.09-14.1,14.61-10.94-5.15,4.64-9.79,9.73-7.79,10.62-4.27,12.89,8.16,7.43,8.16,7.43-.37-7.79,4.73-13.4,8.68-2.36,4,2.73S62,360.73,62,360.73s12.29,1.86,21.43-1,9.46-6.3,6.87-9.59-12.1-8.22-8.86-11.79,9.13,17.63,13.82,13.5,6.4-9.08,4.27-12.89l-2.13-3.8s-9.51-4.92-12.1-8.21,1.39-1.53,5.89.7,14.09,9.09,15,7.1-1.57-12.62-3.19-16-16.18-1.67-17.71-3.06,6.58-5.2,9-4.82a52.72,52.72,0,0,1,5.43,1.21s.69-5.89-6.91-11.88S83.12,301.66,83.12,301.66Z" style="fill:#263238;opacity:0.30000000000000004"></path><path d="M75.62,347.05c-1.71-8-3.65-19.31-2.85-26.84" style="fill:none;stroke:#263238;stroke-linecap:round;stroke-miterlimit:10"></path><path d="M77.9,356.57s-.6-2.19-1.39-5.58" style="fill:none;stroke:#263238;stroke-linecap:round;stroke-miterlimit:10"></path><path d="M76.11,318.59s13.22.84,22.77,6.73" style="fill:none;stroke:#263238;stroke-linecap:round;stroke-miterlimit:10"></path><path d="M75.64,329.34s.37-2.45,10.57,6.83" style="fill:none;stroke:#263238;stroke-linecap:round;stroke-miterlimit:10"></path><path d="M69.2,317s-.27-5.84-7.74-8.91" style="fill:none;stroke:#263238;stroke-linecap:round;stroke-miterlimit:10"></path><line x1="70.59" y1="325.68" x2="64.19" y2="324.52" style="fill:none;stroke:#263238;stroke-linecap:round;stroke-miterlimit:10"></line><path d="M71,334.44s-12.06,3-16.23,7.6" style="fill:none;stroke:#263238;stroke-linecap:round;stroke-miterlimit:10"></path><path d="M56,372.15S76.72,388,78.9,411.4l-4.36-78.5" style="fill:none;stroke:#263238;stroke-linecap:round;stroke-miterlimit:10;stroke-width:2px"></path><path d="M106.15,360.7C78.9,355.79,78.9,411.4,78.9,411.4" style="fill:none;stroke:#263238;stroke-linecap:round;stroke-miterlimit:10;stroke-width:2px"></path><path d="M82.17,410.85s-15.81-115,30-115" style="fill:none;stroke:#263238;stroke-linecap:round;stroke-miterlimit:10;stroke-width:2px"></path><path d="M95.77,357.39c-3.73-4.18-11.64-4.18-16.29,6.52s-.47,8.84-.47,8.84,8.85-2.79,14.43-4.65,13-6.52,13.5-3.73-3.73,5.59-8.85,6.52-18.61,4.65-17.21,7.45,4.65,11.16,4.65,11.16a118.12,118.12,0,0,1,12.56-9.3c6-3.73,9.78-2.33,6.52,1.86S92,390.9,93.91,396.49s13,12.56,13,12.56,1.39-11.63,4.65-15.36,3.26.47,2.33,7a76,76,0,0,0-.93,8.38l13,4.65s4.65-7,7-9.3l2.32-2.33s-10.23-8.84-10.7-14.43,7,0,9.31.93,6,7.45,6,7.45,2.32-10.7,2.79-14.43l.47-3.72s-9.78-3.72-13.5-3.72-5.59,2.79-5.59-.93,3.73-6.05,7.92-5.59a73.6,73.6,0,0,1,11.17,2.79s2.79-2.32,1.86-9.3-3.26-7-8.85-5.12-9.3,6.05-13.49,6.05-1.86-5.12.93-6.52,9.77-4.19,11.17-4.65-7.45-7-12.1-7.91-10.68,2.35-10.24,7C113.45,359.72,99.49,361.58,95.77,357.39Z" style="fill:#92E3A9"></path><path d="M125.72,405.31c.14,1.4.24,2.81.3,4.21" style="fill:none;stroke:#263238;stroke-linecap:round;stroke-miterlimit:10"></path><path d="M116.38,371.9a124.23,124.23,0,0,1,8.76,28.84" style="fill:none;stroke:#263238;stroke-linecap:round;stroke-miterlimit:10"></path><path d="M114.7,368.17c-2.31-5-4-8-4-8a13.74,13.74,0,0,0,6-5.59,15.49,15.49,0,0,1,4.65-5.58" style="fill:none;stroke:#263238;stroke-linecap:round;stroke-miterlimit:10"></path><path d="M94.37,376s16.75-7,16.75-5.59" style="fill:none;stroke:#263238;stroke-linecap:round;stroke-miterlimit:10"></path><path d="M120.43,367.17s7.45-3.73,14-3.73" style="fill:none;stroke:#263238;stroke-linecap:round;stroke-miterlimit:10"></path><path d="M117.64,378.34a63.77,63.77,0,0,0-8.84,8.84,39.93,39.93,0,0,0-6.52,10.7" style="fill:none;stroke:#263238;stroke-linecap:round;stroke-miterlimit:10"></path><path d="M122.76,380.2s9.77-2.79,14.89,1.86" style="fill:none;stroke:#263238;stroke-linecap:round;stroke-miterlimit:10"></path><path d="M140.46,317.32c-5.07-3-10.67-3.07-13.41-6.23s2.64-4.76,5.53-3.57,9.56,4.64,10.83,5.39.39-10.2-2-14.33-8.77-6.52-12-3.15c-6.77,7.11-17.33-2.21-16.61-7.77s-4.46-11.53-15.59-8-7,5.44-7,5.44,7.91,4.85,13,7.85,13.46,5.57,11.66,7.75-6.66.85-10.72-2.41-15.72-11-16.91-8.12S81.9,301,81.9,301a119.46,119.46,0,0,1,15.27,3.38c6.78,2.13,8.16,5.86,2.87,6.14s-14.92-3.69-17.91,1.38S81.18,330,81.18,330s9.7-6.58,14.65-6.56,1.78,2.77-3.75,6.34a74.22,74.22,0,0,0-6.93,4.78l5,12.9s8.33-1.07,11.61-.84l3.28.24s0-13.53,3.88-17.54,4.57,5.27,5.4,7.63-1.66,9.45-1.66,9.45,9.61-5.26,12.72-7.34l3.12-2.09s-3.59-9.82-6-12.64-5.76-2.38-3-4.82,7-1.16,9.4,2.31a73,73,0,0,1,5.21,10.27s3.59.58,8.25-4.7S145.53,320.31,140.46,317.32Zm-44,14.89c-3.72-1.86,5.12-5.58,5.12-5.58C104.8,326.16,100.14,334.07,96.42,332.21Zm6.27-17.37c-1.59-.8,3.17-2.38,3.17-2.38C112.74,313.78,104.28,315.63,102.69,314.84Z" style="fill:#92E3A9"></path><path d="M96.32,341.69c-1,1-2,2-3,3" style="fill:none;stroke:#263238;stroke-linecap:round;stroke-miterlimit:10"></path><path d="M115.42,312.73a123.52,123.52,0,0,1-16,25.52" style="fill:none;stroke:#263238;stroke-linecap:round;stroke-miterlimit:10"></path><path d="M117.14,309c2.23-5,3.38-8.29,3.38-8.29a13.7,13.7,0,0,0,8.18.91,15.62,15.62,0,0,1,7.27-.15" style="fill:none;stroke:#263238;stroke-linecap:round;stroke-miterlimit:10"></path><path d="M97.89,298.81s16.26,8.07,15.2,9" style="fill:none;stroke:#263238;stroke-linecap:round;stroke-miterlimit:10"></path><path d="M121.65,312.69s7.7,3.18,12,8.1" style="fill:none;stroke:#263238;stroke-linecap:round;stroke-miterlimit:10"></path><path d="M111.39,317.9A65.16,65.16,0,0,0,98.92,317a40.2,40.2,0,0,0-12.36,2.1" style="fill:none;stroke:#263238;stroke-linecap:round;stroke-miterlimit:10"></path><path d="M113.34,323s8.52,5.55,8.36,12.47" style="fill:none;stroke:#263238;stroke-linecap:round;stroke-miterlimit:10"></path><path d="M68.15,381.8c-4.08-2.41-8.59-2.46-10.8-5s2.13-3.83,4.45-2.87,7.7,3.73,8.72,4.33S70.84,370,69,366.72s-7.06-5.25-9.65-2.54c-5.45,5.73-13.94-1.78-13.36-6.25s-3.59-9.28-12.55-6.46-5.62,4.38-5.62,4.38,6.36,3.9,10.44,6.32,10.83,4.48,9.38,6.23-5.36.69-8.62-1.93-12.65-8.86-13.61-6.54S21,368.65,21,368.65a94.14,94.14,0,0,1,12.29,2.73c5.45,1.71,6.57,4.71,2.31,4.94s-12-3-14.42,1.1S20.44,392,20.44,392s7.81-5.29,11.79-5.27,1.43,2.22-3,5.09a61.88,61.88,0,0,0-5.58,3.86L27.68,406a75.91,75.91,0,0,1,9.34-.67l2.64.19s0-10.89,3.12-14.12,3.68,4.25,4.34,6.15-1.33,7.61-1.33,7.61,7.73-4.24,10.24-5.92l2.51-1.68s-2.9-7.9-4.86-10.16-4.64-1.93-2.38-3.89,5.64-.93,7.57,1.86a58.93,58.93,0,0,1,4.19,8.26s2.89.47,6.64-3.78S72.22,384.21,68.15,381.8Zm-35.45,12c-3-1.5,4.12-4.5,4.12-4.5C39.45,388.92,35.7,395.29,32.7,393.79Zm5-14c-1.28-.64,2.55-1.92,2.55-1.92C45.84,379,39,380.44,37.75,379.81Z" style="fill:#92E3A9"></path><path d="M32.63,401.42c-.78.82-1.58,1.62-2.41,2.39" style="fill:none;stroke:#263238;stroke-linecap:round;stroke-miterlimit:10"></path><path d="M48,378.11a99.75,99.75,0,0,1-12.91,20.54" style="fill:none;stroke:#263238;stroke-linecap:round;stroke-miterlimit:10"></path><path d="M49.38,375.12c1.8-4,2.72-6.66,2.72-6.66a11.09,11.09,0,0,0,6.58.73,12.38,12.38,0,0,1,5.85-.12" style="fill:none;stroke:#263238;stroke-linecap:round;stroke-miterlimit:10"></path><path d="M33.89,366.9s13.08,6.5,12.23,7.24" style="fill:none;stroke:#263238;stroke-linecap:round;stroke-miterlimit:10"></path><path d="M53,378.08s6.19,2.56,9.63,6.52" style="fill:none;stroke:#263238;stroke-linecap:round;stroke-miterlimit:10"></path><path d="M44.75,382.27a52.6,52.6,0,0,0-10-.71,32.34,32.34,0,0,0-9.94,1.69" style="fill:none;stroke:#263238;stroke-linecap:round;stroke-miterlimit:10"></path><path d="M46.32,386.37s6.85,4.46,6.73,10" style="fill:none;stroke:#263238;stroke-linecap:round;stroke-miterlimit:10"></path><path d="M51.52,305s-5.12,3.73-8.38,0,1.4-11.17-3.25-14-12.1,2.33-12.1,2.33,6.05,1.39,6.05,4.65-2.79,4.66-3.26,3.26-3.72-8.38-8.38-5.12A12,12,0,0,0,17.08,304s11.17-1.86,12.1,2.33-4.65-.47-9.3-.47-8.85.93-8.38,3.73a37,37,0,0,1,0,7.44,13.82,13.82,0,0,1,8.84-3.72c5.12,0,5.12,3.26.47,3.26s-8.38,4.65-8.38,4.65,4.65,7,10.24,10.24,7.44,1.86,7.91-.93-1.4-9.78,1.86-9.78-4.65,12.57-.46,13,7.44-.94,8.37-3.73l.93-2.79s-1.86-7-1.39-9.77,1.39,0,2.32,3.25,1.87,11.17,3.26,10.71S51.06,325,52,322.64s-6.52-8.85-6.52-10.24,5.59.93,6.52,2.33A35.6,35.6,0,0,1,53.85,318s3.26-2.32,2.79-8.84S51.52,305,51.52,305Z" style="fill:#92E3A9"></path><path d="M25.45,321.83c3.22-4.49,8-10.6,12.11-13.62" style="fill:none;stroke:#263238;stroke-linecap:round;stroke-miterlimit:10"></path><path d="M21.74,327.29s.82-1.29,2.15-3.23" style="fill:none;stroke:#263238;stroke-linecap:round;stroke-miterlimit:10"></path><path d="M39.89,309.14s5.58,7,7,14.43" style="fill:none;stroke:#263238;stroke-linecap:round;stroke-miterlimit:10"></path><path d="M34.3,313.79s1.4-.93,1.4,8.38" style="fill:none;stroke:#263238;stroke-linecap:round;stroke-miterlimit:10"></path><path d="M37.56,305s2.79-2.79.93-7.91" style="fill:none;stroke:#263238;stroke-linecap:round;stroke-miterlimit:10"></path><line x1="33.84" y1="309.61" x2="31.51" y2="305.88" style="fill:none;stroke:#263238;stroke-linecap:round;stroke-miterlimit:10"></line><path d="M29.65,313.79s-7-4.65-11.17-4.65" style="fill:none;stroke:#263238;stroke-linecap:round;stroke-miterlimit:10"></path><rect x="62.54" y="409.22" width="35.98" height="51.78" style="fill:#263238;stroke:#263238;stroke-linecap:round;stroke-miterlimit:10;stroke-width:2px"></rect></g><g id="Screen"><rect x="90.8" y="27.16" width="315.08" height="342.55" style="fill:#fff;stroke:#263238;stroke-miterlimit:10"></rect><rect x="90.8" y="122.49" width="315.08" height="79.36" style="fill:#fff;stroke:#263238;stroke-linecap:round;stroke-linejoin:round"></rect><rect x="90.8" y="27.16" width="315.08" height="126.02" style="fill:#92E3A9;stroke:#263238;stroke-linecap:round;stroke-linejoin:round"></rect><path d="M376.19,88.35A3.65,3.65,0,1,0,372.55,92,3.64,3.64,0,0,0,376.19,88.35Z" style="fill:#fff"></path><path d="M292.72,85.11a3.65,3.65,0,1,0-3.64,3.65A3.65,3.65,0,0,0,292.72,85.11Z" style="fill:#fff"></path><path d="M333.65,138.19a3.65,3.65,0,1,0-3.65,3.65A3.65,3.65,0,0,0,333.65,138.19Z" style="fill:#fff"></path><circle cx="338.51" cy="78.63" r="3.65" style="fill:#fff"></circle><path d="M229.92,129.28a3.65,3.65,0,1,0-3.65,3.64A3.64,3.64,0,0,0,229.92,129.28Z" style="fill:#fff"></path><path d="M200,147.76a3.65,3.65,0,1,0-3.65,3.65A3.66,3.66,0,0,0,200,147.76Z" style="fill:#fff"></path><path d="M212.9,73a3.65,3.65,0,1,0-3.64,3.64A3.64,3.64,0,0,0,212.9,73Z" style="fill:#fff"></path><circle cx="150.1" cy="68.9" r="3.65" style="fill:#fff"></circle><path d="M114,89.16a3.65,3.65,0,1,0-3.65,3.65A3.65,3.65,0,0,0,114,89.16Z" style="fill:#fff"></path><circle cx="200.75" cy="114.28" r="3.65" style="fill:#fff"></circle><path d="M392,127.66a3.65,3.65,0,1,0-3.64,3.64A3.64,3.64,0,0,0,392,127.66Z" style="fill:#fff"></path><circle cx="259.9" cy="77.82" r="3.65" style="fill:#fff"></circle><polyline points="338.92 80.25 330 138.19 372.55 88.35" style="fill:none;stroke:#fff;stroke-miterlimit:10"></polyline><polyline points="289.08 85.11 226.27 129.28 328.38 137.78" style="fill:none;stroke:#fff;stroke-miterlimit:10"></polyline><line x1="290.29" y1="85.11" x2="330" y2="138.19" style="fill:none;stroke:#fff;stroke-miterlimit:10"></line><line x1="150.1" y1="68.9" x2="200.75" y2="114.28" style="fill:none;stroke:#fff;stroke-miterlimit:10"></line><polyline points="224.55 129.04 196.18 150.11 114.44 115.09" style="fill:none;stroke:#fff;stroke-miterlimit:10"></polyline><polyline points="196.18 150.11 201.96 113.88 114.44 115.09 110.39 89.16 150.1 68.9 209.26 72.96 259.9 77.82 330 138.19 388.35 127.66 372.55 88.35 338.51 78.63 289.08 85.11 259.9 77.82 226.27 129.28 200.75 114.28 209.26 76.6" style="fill:none;stroke:#fff;stroke-miterlimit:10"></polyline><polyline points="289.08 85.11 298.92 55.97 351.36 54.25 338.51 78.63 390.05 54.68" style="fill:none;stroke:#fff;stroke-miterlimit:10"></polyline><polyline points="209.26 72.96 212.51 56.4 268.83 56.4 259.9 77.82" style="fill:none;stroke:#fff;stroke-miterlimit:10"></polyline><line x1="110.39" y1="89.16" x2="110.39" y2="58.55" style="fill:none;stroke:#fff;stroke-miterlimit:10"></line><line x1="151.47" y1="69.72" x2="128.26" y2="46.51" style="fill:none;stroke:#fff;stroke-miterlimit:10"></line><rect x="90.8" y="27.16" width="315.08" height="34.8" style="fill:#e8e8e8;stroke:#263238;stroke-linecap:round;stroke-linejoin:round"></rect><rect x="90.8" y="27.16" width="315.08" height="15.57" style="fill:#263238;stroke:#263238;stroke-linecap:round;stroke-linejoin:round"></rect><path d="M372.68,34a2.74,2.74,0,1,0-2.74,2.74A2.74,2.74,0,0,0,372.68,34Z" style="fill:#e8e8e8"></path><path d="M383.63,34a2.74,2.74,0,1,0-2.73,2.74A2.74,2.74,0,0,0,383.63,34Z" style="fill:#e8e8e8"></path><path d="M394.59,34a2.74,2.74,0,1,0-2.74,2.74A2.74,2.74,0,0,0,394.59,34Z" style="fill:#e8e8e8"></path><circle cx="145.93" cy="133.84" r="42.85" transform="translate(-26.89 37.18) rotate(-13.31)" style="fill:#fff"></circle><path d="M136.79,108.89s-1.46,0-1.6-1.85.93-2.19.93-2.19a3.07,3.07,0,0,1-.37-3.11c.82-1.57,3.6-1.12,3.6-1.12s-1.8-2.51,1.29-4.35,5.75.12,4.77.28-1.91-1.46-.08-2.61,5.89.08,5.68,1.75-1.33-2.37,2.15-1.55,4.74,4,3.58,4.46,1.48-2.8,3.33-.59,1.89,5.13,1.13,5.07.88-3.79,3.93-1.52,3,4.49,1.88,5.13,1-4.71,2.82-1.31-1.32,5.68-3.62,8.15-1.6,8.56-1.74,9-7.06,3.21-9.28,3.61-.75-2.41-1.52-5.83-3.33-5.56-2.39-8.19.84-4.36-2.15-5S136.79,108.89,136.79,108.89Z" style="fill:#263238"></path><path d="M145.93,176.69a42.72,42.72,0,0,0,31.53-13.85,61.74,61.74,0,0,0-6.89-7.3c-7.94-7.28-11.26-7.28-11.26-7.28h0c-4.76-2.95-13.09-3.65-14.85-3.85-2.06-.22-9.12-3.19-9.12-3.19s-10-6.38-13.67-6.61S113,137.8,113,144c0,2.77.15,10.25.31,17.62A42.74,42.74,0,0,0,145.93,176.69Z" style="fill:#92E3A9;stroke:#263238;stroke-linecap:round;stroke-linejoin:round"></path><line x1="131.37" y1="151.01" x2="135.88" y2="175.18" style="fill:#92E3A9;stroke:#263238;stroke-linecap:round;stroke-linejoin:round"></line><line x1="130" y1="143.61" x2="130.76" y2="147.7" style="fill:#92E3A9;stroke:#263238;stroke-linecap:round;stroke-linejoin:round"></line><path d="M154.16,134.41l-4.5,12.85a5.61,5.61,0,0,1-3.12,3.32A22.77,22.77,0,0,1,142,152c-3.31.6-6.78-5.42-7.53-6.78s1.66-7.53,1.66-7.53Z" style="fill:#c9c9c9;stroke:#263238;stroke-linecap:round;stroke-linejoin:round"></path><path d="M141.72,137.52h-4.21l-1.68.88c-.59,1.64-2,5.77-1.4,6.85.18.33.53.94,1,1.67l13.39-6Z" style="fill:#263238;stroke:#263238;stroke-miterlimit:10"></path><path d="M157.2,108.57c-.21-.67-2-4.07-7.72-5.52s-12.79,4.11-14.8,7.08-2,7.35-3.06,9-4.43,2.26-4.25,6.15,5.36,14.45,9.37,17.46,9.28.64,13.4-3.57a64.76,64.76,0,0,0,7.18-9s5.38.82,8-1,3-6.79,1-7.77-8.64,2.39-8.64,2.39l-1.44-.87,1.24-2.15s-4.67-5.14-4-6.67A52,52,0,0,1,157.2,108.57Z" style="fill:#c9c9c9;stroke:#263238;stroke-linecap:round;stroke-linejoin:round"></path><path d="M145.84,114.66s-.86-1.47,1-2.29,5.2,2.77,4.36,3.28S145.84,114.66,145.84,114.66Z" style="fill:#263238"></path><path d="M139.45,112.6s-.43-.83-2-.66-3.88,2.29-3.18,2.84,3.5-.33,4.75-.77S139.88,113.3,139.45,112.6Z" style="fill:#263238"></path><path d="M146.15,120.19a19.06,19.06,0,0,1,6.68.28" style="fill:none;stroke:#263238;stroke-linecap:round;stroke-linejoin:round"></path><path d="M148.29,118.14c0,.83-.44,1.51-1,1.51s-1-.68-1-1.51.44-1.51,1-1.51S148.29,117.31,148.29,118.14Z" style="fill:#263238"></path><path d="M139.63,117.84c0,.83-.44,1.51-1,1.51s-1-.68-1-1.51.44-1.51,1-1.51S139.63,117,139.63,117.84Z" style="fill:#263238"></path><path d="M142.26,116.79l-.9,3s-6.18,2.71-6.33,3.76,4.22,2.71,6.33,2.87a3.56,3.56,0,0,0,3.16-2" style="fill:#c9c9c9;stroke:#263238;stroke-linecap:round;stroke-linejoin:round"></path><line x1="133.25" y1="119.35" x2="138.65" y2="119.35" style="fill:none;stroke:#263238;stroke-linecap:round;stroke-linejoin:round"></line><path d="M155.24,142.45l5.68-10.72a2.23,2.23,0,0,0-1.14-3l-2.71-.8Z" style="fill:#c9c9c9;stroke:#263238;stroke-linecap:round;stroke-linejoin:round"></path><polyline points="154.22 133.25 157.18 131.88 156.49 130.06" style="fill:none;stroke:#263238;stroke-linecap:round;stroke-linejoin:round"></polyline><path d="M144.09,130.39s-5.74,1.76-9.05-1.33" style="fill:none;stroke:#263238;stroke-linecap:round;stroke-linejoin:round"></path><path d="M146.69,144.19c.69,2.27,3.88,6.38,3.88,6.38s8.53,12.41,15,21.36a43,43,0,0,0,11.91-9.1c-8-5.8-23.48-15.91-23.48-15.91l5-14.14a3.69,3.69,0,0,0-.85-3.81c-.73-.74-1.55-1.42-2.08-1.42-1.14,0-3.65,3.87-3.65,3.87l1.83,1.83S146,141.91,146.69,144.19Z" style="fill:#c9c9c9;stroke:#263238;stroke-linecap:round;stroke-linejoin:round"></path><path d="M154.22,133.25s3.35-.68,3-1.37-1-2.08-1.78-1.61" style="fill:#c9c9c9;stroke:#263238;stroke-linecap:round;stroke-linejoin:round"></path><circle cx="145.93" cy="133.84" r="42.85" transform="translate(-26.89 37.18) rotate(-13.31)" style="fill:none;stroke:#263238;stroke-miterlimit:10"></circle><line x1="99.94" y1="183.85" x2="188.6" y2="183.85" style="fill:none;stroke:#263238;stroke-miterlimit:10"></line><line x1="99.94" y1="190.51" x2="213.27" y2="190.51" style="fill:none;stroke:#263238;stroke-miterlimit:10"></line><line x1="351.06" y1="232.3" x2="388.2" y2="232.3" style="fill:none;stroke:#263238;stroke-miterlimit:10"></line><line x1="261.21" y1="232.3" x2="346.72" y2="232.3" style="fill:none;stroke:#263238;stroke-miterlimit:10"></line><line x1="194.07" y1="232.3" x2="255.53" y2="232.3" style="fill:none;stroke:#263238;stroke-miterlimit:10"></line><line x1="119.25" y1="232.3" x2="190.06" y2="232.3" style="fill:none;stroke:#263238;stroke-miterlimit:10"></line><line x1="99.94" y1="232.3" x2="116.24" y2="232.3" style="fill:none;stroke:#263238;stroke-miterlimit:10"></line><line x1="370.1" y1="239.65" x2="388.2" y2="239.65" style="fill:none;stroke:#263238;stroke-miterlimit:10"></line><line x1="346.39" y1="239.65" x2="365.76" y2="239.65" style="fill:none;stroke:#263238;stroke-miterlimit:10"></line><line x1="285.26" y1="239.65" x2="343.38" y2="239.65" style="fill:none;stroke:#263238;stroke-miterlimit:10"></line><line x1="236.49" y1="239.65" x2="280.25" y2="239.65" style="fill:none;stroke:#263238;stroke-miterlimit:10"></line><line x1="159.33" y1="239.65" x2="231.82" y2="239.65" style="fill:none;stroke:#263238;stroke-miterlimit:10"></line><line x1="99.94" y1="239.65" x2="154.32" y2="239.65" style="fill:none;stroke:#263238;stroke-miterlimit:10"></line><line x1="186.06" y1="247" x2="248.52" y2="247" style="fill:none;stroke:#263238;stroke-miterlimit:10"></line><line x1="108.9" y1="247" x2="182.05" y2="247" style="fill:none;stroke:#263238;stroke-miterlimit:10"></line><line x1="99.94" y1="247" x2="105.89" y2="247" style="fill:none;stroke:#263238;stroke-miterlimit:10"></line><line x1="351.06" y1="264.68" x2="388.2" y2="264.68" style="fill:none;stroke:#263238;stroke-miterlimit:10"></line><line x1="261.21" y1="264.68" x2="346.72" y2="264.68" style="fill:none;stroke:#263238;stroke-miterlimit:10"></line><line x1="194.07" y1="264.68" x2="255.53" y2="264.68" style="fill:none;stroke:#263238;stroke-miterlimit:10"></line><line x1="119.25" y1="264.68" x2="190.06" y2="264.68" style="fill:none;stroke:#263238;stroke-miterlimit:10"></line><line x1="99.94" y1="264.68" x2="116.24" y2="264.68" style="fill:none;stroke:#263238;stroke-miterlimit:10"></line><line x1="370.1" y1="272.03" x2="388.2" y2="272.03" style="fill:none;stroke:#263238;stroke-miterlimit:10"></line><line x1="346.39" y1="272.03" x2="365.76" y2="272.03" style="fill:none;stroke:#263238;stroke-miterlimit:10"></line><line x1="285.26" y1="272.03" x2="343.38" y2="272.03" style="fill:none;stroke:#263238;stroke-miterlimit:10"></line><line x1="236.49" y1="272.03" x2="280.25" y2="272.03" style="fill:none;stroke:#263238;stroke-miterlimit:10"></line><line x1="159.33" y1="272.03" x2="231.82" y2="272.03" style="fill:none;stroke:#263238;stroke-miterlimit:10"></line><line x1="99.94" y1="272.03" x2="154.32" y2="272.03" style="fill:none;stroke:#263238;stroke-miterlimit:10"></line><line x1="252.19" y1="279.38" x2="296.95" y2="279.38" style="fill:none;stroke:#263238;stroke-miterlimit:10"></line><line x1="186.06" y1="279.38" x2="248.52" y2="279.38" style="fill:none;stroke:#263238;stroke-miterlimit:10"></line><line x1="108.9" y1="279.38" x2="182.05" y2="279.38" style="fill:none;stroke:#263238;stroke-miterlimit:10"></line><line x1="99.94" y1="279.38" x2="105.89" y2="279.38" style="fill:none;stroke:#263238;stroke-miterlimit:10"></line><line x1="351.06" y1="297.06" x2="388.2" y2="297.06" style="fill:none;stroke:#263238;stroke-miterlimit:10"></line><line x1="261.21" y1="297.06" x2="346.72" y2="297.06" style="fill:none;stroke:#263238;stroke-miterlimit:10"></line><line x1="194.07" y1="297.06" x2="255.53" y2="297.06" style="fill:none;stroke:#263238;stroke-miterlimit:10"></line><line x1="119.25" y1="297.06" x2="190.06" y2="297.06" style="fill:none;stroke:#263238;stroke-miterlimit:10"></line><line x1="99.94" y1="297.06" x2="116.24" y2="297.06" style="fill:none;stroke:#263238;stroke-miterlimit:10"></line><line x1="370.1" y1="304.41" x2="388.2" y2="304.41" style="fill:none;stroke:#263238;stroke-miterlimit:10"></line><line x1="346.39" y1="304.41" x2="365.76" y2="304.41" style="fill:none;stroke:#263238;stroke-miterlimit:10"></line><line x1="285.26" y1="304.41" x2="343.38" y2="304.41" style="fill:none;stroke:#263238;stroke-miterlimit:10"></line><line x1="236.49" y1="304.41" x2="280.25" y2="304.41" style="fill:none;stroke:#263238;stroke-miterlimit:10"></line><line x1="159.33" y1="304.41" x2="231.82" y2="304.41" style="fill:none;stroke:#263238;stroke-miterlimit:10"></line><line x1="99.94" y1="304.41" x2="154.32" y2="304.41" style="fill:none;stroke:#263238;stroke-miterlimit:10"></line><line x1="374.78" y1="311.76" x2="388.2" y2="311.76" style="fill:none;stroke:#263238;stroke-miterlimit:10"></line><line x1="320.33" y1="311.76" x2="371.1" y2="311.76" style="fill:none;stroke:#263238;stroke-miterlimit:10"></line><line x1="300.63" y1="311.76" x2="316.99" y2="311.76" style="fill:none;stroke:#263238;stroke-miterlimit:10"></line><line x1="252.19" y1="311.76" x2="296.95" y2="311.76" style="fill:none;stroke:#263238;stroke-miterlimit:10"></line><line x1="186.06" y1="311.76" x2="248.52" y2="311.76" style="fill:none;stroke:#263238;stroke-miterlimit:10"></line><line x1="108.9" y1="311.76" x2="182.05" y2="311.76" style="fill:none;stroke:#263238;stroke-miterlimit:10"></line><line x1="99.94" y1="311.76" x2="105.89" y2="311.76" style="fill:none;stroke:#263238;stroke-miterlimit:10"></line><line x1="351.06" y1="319.44" x2="388.2" y2="319.44" style="fill:none;stroke:#263238;stroke-miterlimit:10"></line><line x1="261.21" y1="319.44" x2="346.72" y2="319.44" style="fill:none;stroke:#263238;stroke-miterlimit:10"></line><line x1="194.07" y1="319.44" x2="255.53" y2="319.44" style="fill:none;stroke:#263238;stroke-miterlimit:10"></line><line x1="119.25" y1="319.44" x2="190.06" y2="319.44" style="fill:none;stroke:#263238;stroke-miterlimit:10"></line><line x1="99.94" y1="319.44" x2="116.24" y2="319.44" style="fill:none;stroke:#263238;stroke-miterlimit:10"></line><line x1="370.1" y1="326.79" x2="388.2" y2="326.79" style="fill:none;stroke:#263238;stroke-miterlimit:10"></line><line x1="346.39" y1="326.79" x2="365.76" y2="326.79" style="fill:none;stroke:#263238;stroke-miterlimit:10"></line><line x1="285.26" y1="326.79" x2="343.38" y2="326.79" style="fill:none;stroke:#263238;stroke-miterlimit:10"></line><line x1="236.49" y1="326.79" x2="280.25" y2="326.79" style="fill:none;stroke:#263238;stroke-miterlimit:10"></line><line x1="159.33" y1="326.79" x2="231.82" y2="326.79" style="fill:none;stroke:#263238;stroke-miterlimit:10"></line><line x1="99.94" y1="326.79" x2="154.32" y2="326.79" style="fill:none;stroke:#263238;stroke-miterlimit:10"></line><line x1="108.9" y1="334.14" x2="182.05" y2="334.14" style="fill:none;stroke:#263238;stroke-miterlimit:10"></line><line x1="99.94" y1="334.14" x2="105.89" y2="334.14" style="fill:none;stroke:#263238;stroke-miterlimit:10"></line><rect x="294.6" y="157.85" width="39.33" height="12" style="fill:#fff;stroke:#263238;stroke-linecap:round;stroke-linejoin:round"></rect><rect x="341.94" y="157.85" width="39.33" height="12" style="fill:#fff;stroke:#263238;stroke-linecap:round;stroke-linejoin:round"></rect><path d="M105.81,220.8l-.43,2.22h-1.13l2.11-11h1.78l2.11,11H109l-.43-2.22Zm.16-1.06h2.45l-1.24-6.35Z" style="fill:#263238"></path><path d="M113.67,212c1.72,0,2.39.82,2.39,2.44V215c0,1.17-.33,1.89-1.29,2.19,1.07.3,1.48,1.15,1.48,2.36v.93a2.26,2.26,0,0,1-2.51,2.58H111.2V212Zm-.3,4.68c1,0,1.48-.32,1.48-1.47v-.64c0-1-.33-1.45-1.21-1.45h-1.21v3.56Zm.37,5.22c.89,0,1.3-.47,1.3-1.5v-1c0-1.23-.49-1.64-1.54-1.64h-1.07v4.11Z" style="fill:#263238"></path><path d="M117.27,214.66c0-1.68.84-2.77,2.52-2.77s2.53,1.09,2.53,2.77v5.7c0,1.66-.83,2.77-2.53,2.77s-2.52-1.11-2.52-2.77Zm1.22,5.76c0,1,.42,1.59,1.3,1.59s1.31-.58,1.31-1.59V214.6c0-1-.41-1.59-1.31-1.59s-1.3.6-1.3,1.59Z" style="fill:#263238"></path><path d="M124.65,220.42c0,1,.39,1.59,1.29,1.59s1.27-.6,1.27-1.59V212h1.15v8.36c0,1.66-.77,2.78-2.47,2.78s-2.45-1.12-2.45-2.78V212h1.21Z" style="fill:#263238"></path><path d="M131.16,223v-9.9h-2V212h5.27v1.12h-2V223Z" style="fill:#263238"></path><path d="M302.72,165.15c0,.51.2.81.65.81s.65-.3.65-.81v-4.27h.59v4.24c0,.85-.4,1.42-1.26,1.42s-1.25-.57-1.25-1.42v-4.24h.62Z" style="fill:#263238"></path><path d="M305.77,166.47h-.56v-5.59h.8l1.29,4v-4h.55v5.59h-.65L305.77,162Z" style="fill:#263238"></path><path d="M310.41,163.48v.57h-1.29v2.42h-.63v-5.59h2.23v.56h-1.6v2Z" style="fill:#263238"></path><path d="M311.17,162.23c0-.86.42-1.41,1.28-1.41s1.28.55,1.28,1.41v2.89c0,.85-.42,1.41-1.28,1.41s-1.28-.56-1.28-1.41Zm.61,2.92c0,.52.22.81.67.81s.66-.29.66-.81v-3c0-.5-.21-.8-.66-.8s-.67.3-.67.8Z" style="fill:#263238"></path><path d="M314.33,166.47v-5.59H315v5h1.6v.57Z" style="fill:#263238"></path><path d="M317,166.47v-5.59h.63v5h1.59v.57Z" style="fill:#263238"></path><path d="M319.67,162.23c0-.86.42-1.41,1.28-1.41s1.29.55,1.29,1.41v2.89a1.23,1.23,0,0,1-1.29,1.41c-.86,0-1.28-.56-1.28-1.41Zm.62,2.92c0,.52.21.81.66.81s.66-.29.66-.81v-3c0-.5-.2-.8-.66-.8s-.66.3-.66.8Z" style="fill:#263238"></path><path d="M324.32,166.47h-.86l-.77-5.59h.61l.66,4.76.62-4.76h.62l.61,4.77.63-4.77H327l-.76,5.59h-.82l-.54-3.79Z" style="fill:#263238"></path><path d="M357.39,166.47h-.6l-.93-4.46v4.46h-.54v-5.59h.87l.92,4.47.89-4.47h.87v5.59h-.59V162Z" style="fill:#263238"></path><path d="M359.47,162.23c0-.86.42-1.41,1.27-1.41s1.29.55,1.29,1.41v2.89c0,.85-.42,1.41-1.29,1.41s-1.27-.56-1.27-1.41Zm.61,2.92c0,.52.22.81.66.81s.67-.29.67-.81v-3c0-.5-.21-.8-.67-.8s-.66.3-.66.8Z" style="fill:#263238"></path><path d="M363.87,160.88c.88,0,1.25.44,1.25,1.28v.45c0,.62-.22,1-.7,1.15.52.15.71.57.71,1.17v.87a1.43,1.43,0,0,0,.11.67h-.63a1.46,1.46,0,0,1-.11-.68v-.88c0-.63-.29-.83-.81-.83h-.44v2.39h-.62v-5.59Zm-.16,2.63c.5,0,.79-.16.79-.76v-.54c0-.5-.18-.77-.64-.77h-.61v2.07Z" style="fill:#263238"></path><path d="M367.77,163.35v.56H366.4v2h1.68v.57h-2.3v-5.59h2.3v.56H366.4v1.91Z" style="fill:#263238"></path><path d="M369.26,165.7v.77h-.6v-.77Z" style="fill:#263238"></path><path d="M370.5,165.7v.77h-.6v-.77Z" style="fill:#263238"></path><path d="M371.74,165.7v.77h-.6v-.77Z" style="fill:#263238"></path><rect x="293.91" y="175.51" width="8" height="8" style="fill:none;stroke:#263238;stroke-miterlimit:10"></rect><line x1="305.91" y1="180.85" x2="344.58" y2="180.85" style="fill:none;stroke:#263238;stroke-miterlimit:10"></line><rect x="293.91" y="187.35" width="8" height="8" style="fill:none;stroke:#263238;stroke-miterlimit:10"></rect><line x1="305.91" y1="192.68" x2="344.58" y2="192.68" style="fill:none;stroke:#263238;stroke-miterlimit:10"></line><rect x="126.74" y="46.2" width="151.83" height="9.61" style="fill:#fff;stroke:#263238;stroke-linecap:round;stroke-linejoin:round"></rect></g><g id="Character"><path d="M371.85,392.55l10.45,68.59a1.84,1.84,0,0,1-1.69,2.09h0a1.83,1.83,0,0,1-1.9-1.38l-17.83-69.3Z" style="fill:#fff;stroke:#263238;stroke-linecap:round;stroke-linejoin:round"></path><path d="M376.68,396.28l-9.19,64.86a1.84,1.84,0,0,0,1.68,2.09h0a1.85,1.85,0,0,0,1.91-1.38l16.57-65.57Z" style="fill:#fff;stroke:#263238;stroke-linecap:round;stroke-linejoin:round"></path><path d="M332.56,396.28l-9.19,64.86a1.84,1.84,0,0,0,1.68,2.09h0a1.85,1.85,0,0,0,1.91-1.38l16.57-65.57Z" style="fill:#fff;stroke:#263238;stroke-linecap:round;stroke-linejoin:round"></path><path d="M419.31,392.55l10.45,68.59a1.84,1.84,0,0,1-1.69,2.09h0a1.83,1.83,0,0,1-1.9-1.38l-17.83-69.3Z" style="fill:#fff;stroke:#263238;stroke-linecap:round;stroke-linejoin:round"></path><path d="M344.28,398.28s57.58,2.74,70.29-1,12.71-8,16.45-15.95,20.44-68.55,22.44-82.26-16-11-20.69-10-11.72,2.24-17.45,1.74-11.22-4.23-19.69-4.23-11.47,11-15.21,25.17-12.46,30.41-17.7,33.9-42.62,4.74-48.35,11.22-3.49,16.45,2.74,25.92,12.71,14.46,17.7,15S344.28,398.28,344.28,398.28Z" style="fill:#fff;stroke:#263238;stroke-linecap:round;stroke-linejoin:round"></path><path d="M315.36,447.88s-8,5-12.71,8-8.23,3.74-8.23,5.48,2,2.49,4.49,2.74,25.68.25,30.16.25,5.49-1.49,6-3-.74-8.22-.74-8.22S319.6,450.87,315.36,447.88Z" style="fill:#fff;stroke:#263238;stroke-linecap:round;stroke-linejoin:round"></path><path d="M321.59,462.84c-11.25,1-22.65-.78-27.15-1.6a.36.36,0,0,0,0,.1c0,1.75,2,2.49,4.49,2.74s25.68.25,30.16.25,5.49-1.49,6-3a2.09,2.09,0,0,0,.09-.45A99.29,99.29,0,0,1,321.59,462.84Z" style="fill:#fff;stroke:#263238;stroke-linecap:round;stroke-linejoin:round"></path><path d="M355.42,349.3l-3.12-1.46-1.65,2s-10.09-16.68-18.16-21.27-18,.18-17.6,7.89,14.85,35.76,14.85,35.76-22.92,9.9-23.1,12.83,10.81,58.32,10.81,58.32-3.3-.73-3.3,1.1a52.55,52.55,0,0,1-.55,5.5,25.28,25.28,0,0,0,8.44,4.95c4.95,1.65,12.29.37,12.29.37s.18-2.75.18-4.22-1.65-5.5-1.65-5.5l-.18-53.18s57.76-3.85,64-9.17,8.8-23.47,8.8-23.47a46.89,46.89,0,0,1-27.33-2.39c-14.12-5.87-19.8-9.53-19.8-9.53Z" style="fill:#263238;stroke:#263238;stroke-linecap:round;stroke-linejoin:round"></path><path d="M394.66,291.17s-17.42,4.22-20.54,4.95-4.77,1.1-4.95,2.94-14.31,24.39-16.69,27.87-5.68,6.42-3.67,9,2.75,6.42,5.5,6.42,6.24-4.41,6.24-4.41-6.42,9-5.13,11.37,13.75,11.19,28.42,13.57,20.35-.55,21.82-1.46,11.74-27.69,14.49-38.88,8.25-22.92,6.42-24.94-12.29-5.5-15.22-6-4.77-.74-4.77-.74Z" style="fill:#92E3A9;stroke:#263238;stroke-linecap:round;stroke-linejoin:round"></path><path d="M358.73,339.68s2.85-6.41.24-10-7.36-2.84-10.91-.47-4.75,3.79-4.51,6.64,3.32,8.3,7.83,8.3S357.55,342.29,358.73,339.68Z" style="fill:#fff;stroke:#263238;stroke-linecap:round;stroke-linejoin:round"></path><path d="M360.55,337.93s6.6-16.5,9-21.08a39,39,0,0,0,3.3-9.72" style="fill:none;stroke:#263238;stroke-linecap:round;stroke-linejoin:round"></path><path d="M372.32,345.57c-2.75,2.12-7.25,5.32-6.45,7.4.91,2.39,2,4.59,2,4.59" style="fill:none;stroke:#263238;stroke-linecap:round;stroke-linejoin:round"></path><path d="M387.36,316.42c-1.84,4.63-3.87,9.81-4.07,10.69-.34,1.51-6.3,13.22-9.17,16.81" style="fill:none;stroke:#263238;stroke-linecap:round;stroke-linejoin:round"></path><path d="M390.44,308.78s-.82,2-1.9,4.7" style="fill:none;stroke:#263238;stroke-linecap:round;stroke-linejoin:round"></path><line x1="414.46" y1="324.55" x2="408.78" y2="310.79" style="fill:none;stroke:#263238;stroke-linecap:round;stroke-linejoin:round"></line><line x1="414.46" y1="326.93" x2="404.93" y2="317.58" style="fill:none;stroke:#263238;stroke-linecap:round;stroke-linejoin:round"></line><path d="M356,326.93s-12.66,6.6-13,10.09,1.65,6.05,5.68,7,6.23-2.57,7.89-5.14,4.76-7.52,4.76-7.52Z" style="fill:#fff;stroke:#263238;stroke-linecap:round;stroke-linejoin:round"></path><polygon points="390.44 294.29 382.56 306.39 388.24 303.09 390.99 306.76 393.01 291.9 390.44 294.29" style="fill:#fff;stroke:#263238;stroke-linecap:round;stroke-linejoin:round"></polygon><path d="M375.77,263.66s-.37,14.49,1.65,20.18c1.91,5.38,5.41,17.22,13,10.45l.55,12.47,4.22-6.42L406,290.07l-.74-10.45.19-11s.55-8.07-3.67-11.37-18.7.18-22.37,1.83S375.77,263.66,375.77,263.66Z" style="fill:#fff;stroke:#263238;stroke-linecap:round;stroke-linejoin:round"></path><polyline points="381.64 277.79 381.45 286.95 384.94 286.59" style="fill:none;stroke:#263238;stroke-linecap:round;stroke-linejoin:round"></polyline><path d="M382.92,288.42s3.12,3.12,7.34-2" style="fill:none;stroke:#263238;stroke-linecap:round;stroke-linejoin:round"></path><polygon points="390.44 294.29 395.21 289.7 390.99 302.54 390.44 294.29" style="fill:#263238;stroke:#263238;stroke-linecap:round;stroke-linejoin:round"></polygon><path d="M388.79,277.6s2.93,2.57,5.32-.18" style="fill:none;stroke:#263238;stroke-linecap:round;stroke-linejoin:round"></path><path d="M377.42,277.6a2.49,2.49,0,0,0,3.3.37" style="fill:none;stroke:#263238;stroke-linecap:round;stroke-linejoin:round"></path><path d="M395.58,275.58a20.83,20.83,0,0,0-6.79-.91c-3.48.18-3.48,3.48-2.75,4.95s2.93,2.75,6.23,2.38,3.67-4.22,3.67-4.22S396.49,276.13,395.58,275.58Z" style="fill:none;stroke:#263238;stroke-linecap:round;stroke-linejoin:round"></path><path d="M385.49,276.5s-2-1.47-3.85-.18" style="fill:none;stroke:#263238;stroke-linecap:round;stroke-linejoin:round"></path><path d="M381.64,275.4s-.55-1.1-4-.92-3.85,1.84-3.3,3.3,2,5.87,7,3.49" style="fill:none;stroke:#263238;stroke-linecap:round;stroke-linejoin:round"></path><path d="M387,273.93s1.83-1.1,5.86,0" style="fill:none;stroke:#263238;stroke-linecap:round;stroke-linejoin:round"></path><path d="M381.46,273.93a6.62,6.62,0,0,0-4.59-.55" style="fill:none;stroke:#263238;stroke-linecap:round;stroke-linejoin:round"></path><line x1="395.58" y1="275.58" x2="403.28" y2="271.73" style="fill:none;stroke:#263238;stroke-linecap:round;stroke-linejoin:round"></line><path d="M372.35,257.85c-1.13,2.64-.69,5.1,3.24,6.55,7,2.57,9.72-.19,15.22-1.84s8.62-.55,6.23,1.84-1.65,5,.55,5.32,0,6.23,1.84,5.5,3.48-3.12,5.31-2.75,2-.74,2-.74,5.69-10.27,4-16.32S398,245,389,247.16c-4.94,1.21-10.84,2.94-14.24,7A15.93,15.93,0,0,0,372.35,257.85Z" style="fill:#263238;stroke:#263238;stroke-linecap:round;stroke-linejoin:round"></path><path d="M402,275.58s-1.1-5.13,2.94-5.68,2.93,3.85,1.65,6.78a4.78,4.78,0,0,1-3.67,3.12" style="fill:#fff;stroke:#263238;stroke-linecap:round;stroke-linejoin:round"></path><polygon points="407.86 287.14 393.56 301.26 397.96 308.23 411.35 291.54 407.86 287.14" style="fill:#fff;stroke:#263238;stroke-linecap:round;stroke-linejoin:round"></polygon><path d="M415.75,311.89,411.81,345s-1.56,1.38,3.94,3.95,8.5,2.15,9.41.87,7.42-19.28,6.18-41c-.41-7.14.73-8.81-1.84-10.64s-8.8-2.38-8.8-2.38" style="fill:#92E3A9;stroke:#263238;stroke-linecap:round;stroke-linejoin:round"></path><path d="M412.26,342.15s2-2.57,2.94-2.57,5.5,2.76,7.7,3.67,2.75,6.05,2.75,8.8-3.48,7-5.87,7.34-11.18-3.67-11.55-4.4S412.26,342.15,412.26,342.15Z" style="fill:#fff;stroke:#263238;stroke-linecap:round;stroke-linejoin:round"></path><polygon points="373.57 335.37 363.3 317.03 352.48 315.19 363.3 334.08 373.57 335.37" style="fill:#263238;stroke:#263238;stroke-linecap:round;stroke-linejoin:round"></polygon><path d="M357.07,323.26s-3.49,1.65-3.12,2.2a2.21,2.21,0,0,1,.36,1.1s5.69,6.42,6.61,7.52,3.3.37,4.76.19,1.47-3.49.74-4.77-5.69-4.4-6.24-4.59,0,1.29,0-1.1S357.07,323.26,357.07,323.26Z" style="fill:#fff;stroke:#263238;stroke-linecap:round;stroke-linejoin:round"></path><path d="M420.06,346.3a4.68,4.68,0,0,0-3.3-3.84c-6.88-2-25-7.52-28.89-9.29a79.83,79.83,0,0,1-9-5s-3.12-4.95-3.67-5.13-4,.92-5.13.92a23,23,0,0,1-3.49-.55l2.94,3.3s-8.07-2.94-9.36-2.94-2,0-1.28,1.47,1.65,1.47,3.12,2a47.33,47.33,0,0,1,4.4,2.2s-5.5-.92-6.79-1.1-2.93-.55-2.93.18,2,2,2.93,2.39,4.22,2,4.22,2-4.58-1.28-4.58-.55,1.28,2.2,2.56,2.75a59.74,59.74,0,0,1,5.87,3.49c1.1.73,9.9.36,9.9.36s14.67,6.61,21.28,10.27,14.3,7.71,16.5,7.71,4.4-3.67,4.77-7A15.92,15.92,0,0,0,420.06,346.3Z" style="fill:#fff;stroke:#263238;stroke-linecap:round;stroke-linejoin:round"></path><line x1="361.83" y1="335.18" x2="368.07" y2="336.83" style="fill:none;stroke:#263238;stroke-linecap:round;stroke-linejoin:round"></line><line x1="369.54" y1="326.75" x2="373.75" y2="327.85" style="fill:none;stroke:#263238;stroke-linecap:round;stroke-linejoin:round"></line><path d="M331.94,335.92s8.62,30.44,11,36.67,3.11,11,4.21,11.56,1.65.36,1.65,2-1.1,3.67-1.1,4.22.92,4.22.92,4.22-5.5.55-13.57-2-10.45-3.3-10.82-4.77-2.2-2.56-.73-3.85-.92-3.11-1.84-6.6S313.6,354.07,312.5,346,312,330.78,316,327.3s8.62-2,10.63-1.47a24.92,24.92,0,0,1,5.14,2.57" style="fill:#263238;stroke:#263238;stroke-linecap:round;stroke-linejoin:round"></path><path d="M367.72,362.4c.92-.18,1.78-.33,2.55-.44" style="fill:none;stroke:#6b6b6b;stroke-linecap:round;stroke-linejoin:round"></path><path d="M341.84,369.48s13.65-4.34,23.28-6.52" style="fill:none;stroke:#6b6b6b;stroke-linecap:round;stroke-linejoin:round"></path><path d="M355.05,365.62s-3.3-9.16-3.85-12.47" style="fill:none;stroke:#6b6b6b;stroke-linecap:round;stroke-linejoin:round"></path><line x1="336.7" y1="342.64" x2="336.06" y2="339.19" style="fill:none;stroke:#6b6b6b;stroke-linecap:round;stroke-linejoin:round"></line><line x1="343.32" y1="378.17" x2="337.24" y2="345.53" style="fill:none;stroke:#6b6b6b;stroke-linecap:round;stroke-linejoin:round"></line><path d="M341.11,391.66l-4.4-4.4c-2.57-2.56-8.07-.36-9.35.92s.18,1.65-4.95,1.65-11,.18-11.56,2.2.92,4.59,4.95,7.34,13.21,5.5,18.53,5.5,14.67,0,15-4,.19-8.25-1.46-8.61A64.16,64.16,0,0,0,341.11,391.66Z" style="fill:#fff;stroke:#263238;stroke-linecap:round;stroke-linejoin:round"></path><path d="M349.36,400.83c0-.43.08-.87.1-1.31a48.27,48.27,0,0,1-9.82-2.35c-4.95-1.84-13.93-6.61-21.63-7a13.58,13.58,0,0,0-6.39.93,1.61,1.61,0,0,0-.77.9c-.55,2,.92,4.59,4.95,7.34s13.21,5.5,18.53,5.5S349,404.87,349.36,400.83Z" style="fill:#fff;stroke:#263238;stroke-linecap:round;stroke-linejoin:round"></path><path d="M310.83,393.66c.38,1.7,2,3.65,5,5.71,4,2.75,13.21,5.5,18.53,5.5,4.83,0,13,0,14.71-3a40.26,40.26,0,0,1-7.56-1.93c-5-1.84-14.12-7-23.66-7.34C313.57,392.42,311.65,393,310.83,393.66Z" style="fill:#fff;stroke:#263238;stroke-linecap:round;stroke-linejoin:round"></path><path d="M376.17,399.2c15.57.18,32.24-.11,38.4-1.92,12.71-3.74,12.71-8,16.45-15.95s20.44-68.55,22.44-82.26a11.11,11.11,0,0,0-.19-4.61c-.74,1-1.59,5.44-2.81,9.6-1.74,6-6.48,22.18-6.48,22.18s-7.47,24.43-17.45,31.16-25.92.5-31.65,3S376.18,399,376.18,399Z" style="fill:#fff;stroke:#263238;stroke-linecap:round;stroke-linejoin:round"></path><path d="M379.67,399s11.47-30.66,16.7-33.9,17.2,2.49,25.93-1.25,16.7-14.21,20.19-26.42" style="fill:none;stroke:#263238;stroke-linecap:round;stroke-linejoin:round"></path></g><g id="Floor"><line x1="456.84" y1="462.23" x2="479.49" y2="462.23" style="fill:none;stroke:#263238;stroke-miterlimit:10"></line><line x1="134.47" y1="462.23" x2="449.3" y2="462.23" style="fill:none;stroke:#263238;stroke-miterlimit:10"></line><line x1="32.05" y1="462.23" x2="128" y2="462.23" style="fill:none;stroke:#263238;stroke-miterlimit:10"></line></g></svg>