<svg xmlns="http://www.w3.org/2000/svg" xmlns:xlink="http://www.w3.org/1999/xlink" viewBox="0 0 500 500"><defs><clippath id="clip-path"><rect x="73.07" y="152.8" width="126.85" height="126.85" style="fill:#fff;stroke:#263238;stroke-linecap:round;stroke-linejoin:round"></rect></clippath><clippath id="clip-path-2"><path d="M199.92,203.11v-3.6a24.82,24.82,0,0,0-6.34-.18L192,202.8S198.41,200.84,199.92,203.11Z" style="fill:#fff;stroke:#263238;stroke-linecap:round;stroke-linejoin:round"></path></clippath><clippath id="clip-path-3"><path d="M199.92,205.85c-2.9,9.28-12.57,7.89-12.57,7.89v2.67a14.66,14.66,0,0,0,12.57-4.58Z" style="fill:#fff;stroke:#263238;stroke-linecap:round;stroke-linejoin:round"></path></clippath><clippath id="clip-path-4"><path d="M153.84,197s1.16,23.84,21,23.84,21-23.84,21-23.84Z" style="fill:#fff;stroke:#263238;stroke-linecap:round;stroke-linejoin:round"></path></clippath><clippath id="clip-path-5"><path d="M303.47,338.93a236.9,236.9,0,0,1-18.61,21.53c-12.65,12.91-29.14,26.14-40.73,22.28-21.36-7.12-19.78-22.55-19.78-41s5.8-22.14,5.8-22.14l.93-5.3c10.48-2.35,17.95,1.24,17.95,1.24l.64,5.12c4.75,1.73,7.52,18.3,7.52,18.3s2.52-4.77,6.36-11.26c7.83-13.25,21.13-33.72,29.59-35.68l7.46,33.89Z" style="fill:#92E3A9;stroke:#263238;stroke-linecap:round;stroke-linejoin:round"></path></clippath><clippath id="clip-path-6"><path d="M253.22,300.41l11.61,3.86c1.23.31,3.66-1.74,3.55-3l-3.45-40.59a3.87,3.87,0,0,0-2.89-3.42l-12.86-2.79c-1.23-.32-4.32,1.15-4.22,2.41L250.33,297A3.87,3.87,0,0,0,253.22,300.41Z" style="fill:#92E3A9;stroke:#263238;stroke-linecap:round;stroke-linejoin:round"></path></clippath><clippath id="clip-path-7"><path d="M289.5,298c.53-2.94,1.72-5,3.64-6,21.76-10.85,68.2-12.91,96.81-9.32,26.4,3.32,30.45,75.79,27.77,142.92H315.25s.64-58.48-12.29-81.52c-2.86-5.08-9.25-17.91-10-23.82" style="fill:#92E3A9"></path></clippath><clippath id="clip-path-8"><path d="M442.87,431.59V409.36a4.83,4.83,0,0,0-4.83-4.83H70.65a4.83,4.83,0,0,0-4.83,4.83v22.23" style="fill:#fff;stroke:#263238;stroke-linecap:round;stroke-linejoin:round"></path></clippath><clippath id="clip-path-9"><path d="M245.32,399.65h-45.5l.81-5.61a1.58,1.58,0,0,1,1.57-1.36H243a1.58,1.58,0,0,1,1.56,1.36Z" style="fill:#fff;stroke:#263238;stroke-linecap:round;stroke-linejoin:round"></path></clippath><clippath id="clip-path-10"><polygon points="242.99 404.53 202.47 404.53 192.47 400.77 252.99 400.77 242.99 404.53" style="fill:#fff;stroke:#263238;stroke-linecap:round;stroke-linejoin:round"></polygon></clippath><clippath id="clip-path-11"><path d="M138.82,382.57s-7.78-1.15-8.17,3.47,5.08,15.09,13,13.61V397s-7.69,1.45-9.75-8.42C132.71,383.1,140,386,140,386Z" style="fill:#fff;stroke:#263238;stroke-linecap:round;stroke-linejoin:round"></path></clippath><clippath id="clip-path-12"><path d="M162,399.65h0a14,14,0,0,1-9.2,3c-17.4,0-15.43-22.29-15.43-22.29h30.86S169.4,393.57,162,399.65Z" style="fill:#fff;stroke:#263238;stroke-linecap:round;stroke-linejoin:round"></path></clippath><clippath id="clip-path-13"><polygon points="165.74 404.53 138.13 404.53 131.32 401.97 172.56 401.97 165.74 404.53" style="fill:#fff;stroke:#263238;stroke-linecap:round;stroke-linejoin:round"></polygon></clippath></defs><g id="background-simple"><path d="M67.93,167.09s-27.88,72,11.3,144.5S199.11,422.39,263.7,455.14s131.66,16.8,163.53-36.84-11.84-91.93-11.9-168.42,11.45-96.74-30-161.36-143.06-78.93-219.9-31S67.93,167.09,67.93,167.09Z" style="fill:#fff;opacity:0.7000000000000001"></path><path d="M60.93,424.67H272.14c.86-1.36,1.72-2.72,2.6-4.05,22.72-34.59,59.09-59.24,98.83-70.81,17.8-5.18,37.08-8.27,51.38-20.06,14.72-12.13,21.48-31.49,24.4-50.34,3.55-22.83,1.63-48.41-13.86-65.54-18.19-20.12-48.67-22.37-72.37-35.56-40.79-22.69-56.61-74.39-93.71-102.71C246,57.72,214.31,50.79,186,54.71c-40.19,5.57-78,32.5-89.36,72a99.81,99.81,0,0,0-3.44,35.41c1.82,23.55,6.89,47.41,2.11,70.54-5.27,25.49-21.86,47-31.77,71.09-12.33,30-14,63.6-8.76,95.58A165,165,0,0,0,60.93,424.67Z" style="fill:#92E3A9"></path><path d="M60.93,424.67H272.14c.86-1.36,1.72-2.72,2.6-4.05,22.72-34.59,59.09-59.24,98.83-70.81,17.8-5.18,37.08-8.27,51.38-20.06,14.72-12.13,21.48-31.49,24.4-50.34,3.55-22.83,1.63-48.41-13.86-65.54-18.19-20.12-48.67-22.37-72.37-35.56-40.79-22.69-56.61-74.39-93.71-102.71C246,57.72,214.31,50.79,186,54.71c-40.19,5.57-78,32.5-89.36,72a99.81,99.81,0,0,0-3.44,35.41c1.82,23.55,6.89,47.41,2.11,70.54-5.27,25.49-21.86,47-31.77,71.09-12.33,30-14,63.6-8.76,95.58A165,165,0,0,0,60.93,424.67Z" style="fill:#fff;opacity:0.7000000000000001"></path></g><g id="Window"><polyline points="254.46 276.03 254.46 118.28 267.87 118.28" style="fill:none;stroke:#263238;stroke-linecap:round;stroke-linejoin:round"></polyline><line x1="254.46" y1="301.83" x2="254.46" y2="296.07" style="fill:none;stroke:#263238;stroke-linecap:round;stroke-linejoin:round"></line><polyline points="302.37 118.28 440.79 118.28 440.79 322.02 254.46 322.02" style="fill:none;stroke:#263238;stroke-linecap:round;stroke-linejoin:round"></polyline><line x1="285.4" y1="118.28" x2="297.56" y2="118.28" style="fill:none;stroke:#263238;stroke-linecap:round;stroke-linejoin:round"></line><rect x="261.46" y="125.27" width="172.32" height="189.76" style="fill:none;stroke:#263238;stroke-linecap:round;stroke-linejoin:round"></rect><polyline points="425.77 138.59 425.77 212.39 269.48 212.39 269.48 205.66" style="fill:none;stroke:#263238;stroke-linecap:round;stroke-linejoin:round"></polyline><polyline points="269.48 189.87 269.48 132.6 425.77 132.6" style="fill:none;stroke:#263238;stroke-linecap:round;stroke-linejoin:round"></polyline><line x1="269.48" y1="200.48" x2="269.48" y2="193.93" style="fill:none;stroke:#263238;stroke-linecap:round;stroke-linejoin:round"></line><line x1="399.38" y1="220.15" x2="433.78" y2="220.15" style="fill:none;stroke:#263238;stroke-linecap:round;stroke-linejoin:round"></line><line x1="387.14" y1="220.15" x2="392.01" y2="220.15" style="fill:none;stroke:#263238;stroke-linecap:round;stroke-linejoin:round"></line><line x1="261.46" y1="220.15" x2="381.33" y2="220.15" style="fill:none;stroke:#263238;stroke-linecap:round;stroke-linejoin:round"></line><polyline points="338.96 212.39 338.96 208.84 353.37 208.84 353.37 210.86 347.63 210.86 347.63 212.39" style="fill:none;stroke:#263238;stroke-linecap:round;stroke-linejoin:round"></polyline><path d="M261.76,283.74s2.39,1.81,4.07,12.76c0,0,2.89-17.48,6.4-17.75S275,290.12,275,290.12s.59-5.74,3.34-5.47,0,11.85,0,11.85,3.29-9,6.42-8.88S282.7,304,282.7,304s8-5.8,11.26-3-1.8,10-1.8,10,11.49-2.49,13.27,4.25" style="fill:none;stroke:#263238;stroke-linecap:round;stroke-linejoin:round"></path><path d="M305.43,308.74s5-3.28,8.95-1.75c0,0-2.51-3.81,0-6.15S320.1,307,320.1,307s.36-14.21,5.37-13.49,0,13.49,0,13.49,8.94-7.93,11.09-5.16-1.43,6.91-1.43,6.91,5.36-1.71,9.3,2.29c0,0,6-6.12,12.66-7,0,0-4.43-12.86-2.29-15.45s6.05,11.22,6.05,11.22,1.71-9,7.3-9.68c0,0-4.66-2.53-3.28-6.38s7.82.91,7.82.91-2.64-6.76,1.54-8.62,5.94,5.66,5.94,5.66,1.16-7.87,6.08-7.44,3.33,9.49,3.33,9.49,4.64-7.19,7.12-6.46c5,1.47,3.46,12.84,3.46,12.84s6.93-4.82,8.72-2.6c1.93,2.39-7.21,8.55-7.21,8.55s6.88.77,11.16,4.77" style="fill:none;stroke:#263238;stroke-linecap:round;stroke-linejoin:round"></path><path d="M433.78,286.34s-.79-7.22-8-7.59,2,15.82,2,15.82-6-4.92-8.1-3.41,6.11,9.87,6.11,9.87-4-3.66-8.13-2.52S420,311.26,420,311.26a29.78,29.78,0,0,0-18.35,2.14" style="fill:none;stroke:#263238;stroke-linecap:round;stroke-linejoin:round"></path></g><g id="Screen"><polygon points="238.57 255.41 207.3 231.37 207.3 117.64 65.68 117.64 65.68 320.56 207.3 320.56 207.3 242.75 238.57 255.41" style="fill:#fff;stroke:#263238;stroke-linecap:round;stroke-linejoin:round"></polygon><rect x="73.07" y="152.8" width="126.85" height="126.85" style="fill:#fff"></rect><g style="clip-path:url(#clip-path)"><path d="M199.92,207.93v71.72H73.07V207c14-1.19,33.94-2.71,54-2.83C170.75,203.92,190.24,206.89,199.92,207.93Z" style="fill:#92E3A9;opacity:0.4"></path><path d="M183.67,205.55c5.44.63,10.86,1.41,16.25,2.38" style="fill:none;stroke:#263238;stroke-linecap:round;stroke-linejoin:round"></path><path d="M137.91,203.47a379.13,379.13,0,0,1,41,1.58" style="fill:none;stroke:#263238;stroke-linecap:round;stroke-linejoin:round"></path><path d="M98.8,205c11.43-.67,22.88-1.23,34.33-1.45" style="fill:none;stroke:#263238;stroke-linecap:round;stroke-linejoin:round"></path><path d="M87.07,205.76q2.42-.18,4.83-.33" style="fill:none;stroke:#263238;stroke-linecap:round;stroke-linejoin:round"></path><path d="M73.07,207c3.34-.38,6.68-.67,10-1" style="fill:none;stroke:#263238;stroke-linecap:round;stroke-linejoin:round"></path><polygon points="88.11 158.3 88.11 185.12 139.37 185.12 139.37 155.3 136.44 155.3 136.44 181.98 114.34 181.98 114.34 155.3 111.47 155.3 111.47 181.98 90.72 181.98 90.72 158.82 88.11 158.3" style="fill:#92E3A9;opacity:0.4"></polygon></g><rect x="73.07" y="152.8" width="126.85" height="126.85" style="fill:none;stroke:#263238;stroke-linecap:round;stroke-linejoin:round"></rect><path d="M132.08,129.55H102.21a1.49,1.49,0,0,0,0,3h29.87a1.49,1.49,0,0,0,0-3Z" style="fill:#263238"></path><path d="M116.4,135.75H101.47a.74.74,0,1,0,0,1.48H116.4a.74.74,0,1,0,0-1.48Z" style="fill:#263238"></path><path d="M124.81,227.53c-22.37,0-41.81,5-51.74,12.29V262c9.93,7.32,29.37,12.29,51.74,12.29,32.46,0,58.77-10.47,58.77-23.39S157.27,227.53,124.81,227.53Z" style="fill:#fff;stroke:#263238;stroke-linecap:round;stroke-linejoin:round"></path><path d="M90.17,236c-7,3.94-12,3.22-8.73,4.14s-.93,5.73-4.19,8.2,2.56,5.73,9.31,5.73,11.2,1.66,10.16,4a5.36,5.36,0,0,0,2.83,7.38c3.52,1.39-2.06,3.77,1.78,4.44s1-3.28,5.7-4,4.88,2.09,6-1.74,12.48-4.77,14.38-2.91-4.07,4.65-1.43,5.12,5.88,1.94,5.89-.24-1.16-6.3,4.88-6.64,14.27,3.14,14.58,0,2.43-5.92,6.05-3.83,8.22,3.26,8.69,0a7.43,7.43,0,0,1,5.81-6.23c2.79-.52-2.38-1.59-4.33-6.17s3.17-5.09-5-7.39-15.09,1.84-22.9-.12S99.59,230.77,90.17,236Z" style="fill:#92E3A9;opacity:0.4"></path><ellipse cx="124.81" cy="248.38" rx="45.14" ry="15.85" style="fill:none;stroke:#263238;stroke-linecap:round;stroke-linejoin:round"></ellipse><path d="M84.42,256.14s1-11.11,2.35-14.42c1.56-3.95,9.25-13.43,9.25-13.43s31.32-3.31,58,0c0,0,7.44,8.86,9.07,12.53,1.35,3,3,13.3,3,13.3S128.52,262.88,84.42,256.14Z" style="fill:#fff;stroke:#263238;stroke-linecap:round;stroke-linejoin:round"></path><path d="M88.54,242.09c.81,2.39,13.26,3.52,22,3.8s16.28,1.84,23.14,1.28,6.29-1.42,13.26-1.42,14.31-2.4,15.24-3.66a97.86,97.86,0,0,1,2.21,10.31s-28.26,8.34-77.81,2.4c0,0,.7-6.5.93-9.05A7.77,7.77,0,0,1,88.54,242.09Z" style="fill:#92E3A9;opacity:0.4"></path><path d="M100.81,230.36a11.38,11.38,0,0,1,1.3-.43,1.9,1.9,0,0,0-1.35-.31h5.46a3.22,3.22,0,0,1,1.6.28,2,2,0,0,1,.21,2.72,2.11,2.11,0,0,1-1.73.37c-2.77-.22-5.54-.55-8.29-1-.2,0-.42-.09-.5-.27-.22-.49.5-1.36,1-1.45.69-.12,1.34.22,2,.17A1.52,1.52,0,0,0,100.81,230.36Z" style="fill:#92E3A9;opacity:0.4"></path><path d="M95.61,236.16a2.15,2.15,0,0,0-.59.61A12.81,12.81,0,0,0,93.14,240a.48.48,0,0,0,0,.35.51.51,0,0,0,.3.19,9.36,9.36,0,0,0,2.7.15,66.9,66.9,0,0,1,8.24.52,1.18,1.18,0,0,0,.87-.16c.31-.27.24-.76.21-1.17a3.39,3.39,0,0,1,.3-1.57,1.63,1.63,0,0,0,.27-.94c-.1-.58-.85-.74-1.44-.77l-5-.27C98.52,236.26,96.55,235.62,95.61,236.16Z" style="fill:#92E3A9;opacity:0.4"></path><path d="M112.66,230.89a5.19,5.19,0,0,1,2.69-1,22.26,22.26,0,0,1,7.28-.23c-.26,1.13.36,2.51-.41,3.37a2.55,2.55,0,0,1-1.76.63,28.62,28.62,0,0,1-6.34-.2c-.49-.07-1.65,0-2-.45S112.21,231.3,112.66,230.89Z" style="fill:#92E3A9;opacity:0.4"></path><path d="M110.2,239.1c.52-1,1.84-1.12,3-1.12,3.41,0,6.82.13,10.23.28a1,1,0,0,1,.8.29,1.11,1.11,0,0,1,.13.48c0,.52.06,1,0,1.56a1.78,1.78,0,0,1-.6,1.55,1.75,1.75,0,0,1-.63.18,28.72,28.72,0,0,1-8.52-.44c-1.23-.19-2.5-.27-3.71-.45C109.86,241.26,109.75,239.93,110.2,239.1Z" style="fill:#92E3A9;opacity:0.4"></path><path d="M126.76,231.37c.09-.71.27-1.54.92-1.82a2.2,2.2,0,0,1,.92-.1l6,.27a20.33,20.33,0,0,1,3,.3,2.87,2.87,0,0,1,1.35.58,3.35,3.35,0,0,1,.77,2.46c0,.4-7.8.42-8.53.39s-1.38-.14-2-.12c-.44,0-.82.21-1.23.25C126.68,233.7,126.65,232.3,126.76,231.37Z" style="fill:#92E3A9;opacity:0.4"></path><path d="M143.14,241.48c0-.36-.11-.72-.16-1.09a3.25,3.25,0,0,0-.69-1.85,3.13,3.13,0,0,0-2.07-.72,26.67,26.67,0,0,0-8.85.77,4,4,0,0,1-2.11.18,1.43,1.43,0,0,1-.63-.39v0c.1,1.28.19,2.56.28,3.84.75.09,1.51.12,2.26.14l6.18.22a17.42,17.42,0,0,0,1.77,0c.92-.05,1.84-.23,2.76-.21.49,0,1.14,0,1.27-.5A1.24,1.24,0,0,0,143.14,241.48Z" style="fill:#92E3A9;opacity:0.4"></path><path d="M149.67,230.62c.18,0,.42,0,.43-.22a.25.25,0,0,0,0-.17c-.29-.52-1-.6-1.59-.63l-1.4,0a17.87,17.87,0,0,1,3.57-.36.54.54,0,0,1,.35.08.6.6,0,0,1,.19.27l1.17,2.61a.43.43,0,0,1,0,.33c0,.13-.2.17-.33.2a33.65,33.65,0,0,1-6.95.42,2.36,2.36,0,0,1-2.11-.74,1.14,1.14,0,0,1,.29-1.71c.78-.36,2.21-.07,3.06-.06Z" style="fill:#92E3A9;opacity:0.4"></path><path d="M153,236.33l-4.56.73a.44.44,0,0,0,.22.53,1.23,1.23,0,0,0,.63.12l6.24.11a.62.62,0,0,1,.33.08.47.47,0,0,1,.15.24c.29.7.54,1.42.76,2.14a1.32,1.32,0,0,1,.08.65c-.12.5-.72.68-1.23.76a44.43,44.43,0,0,1-7.11.29,1.88,1.88,0,0,1-1.18-.29,1.69,1.69,0,0,1-.42-.67c-.39-.94-1.65-4-.21-4.37A28.83,28.83,0,0,1,153,236.33Z" style="fill:#92E3A9;opacity:0.4"></path><path d="M105.94,241.94c-4.5-.28-9-.62-13.49-1.09a19.93,19.93,0,0,1,3.21-6.28" style="fill:none;stroke:#263238;stroke-linecap:round;stroke-linejoin:round"></path><path d="M124.09,242.72c-4.77-.1-9.53-.31-14.29-.56l1-5.48" style="fill:none;stroke:#263238;stroke-linecap:round;stroke-linejoin:round"></path><path d="M142.38,242.43c-4.5.26-9,.36-13.51.35l-.52-5.61" style="fill:none;stroke:#263238;stroke-linecap:round;stroke-linejoin:round"></path><path d="M155.57,237.46l1.86,3.39q-5.13.79-10.29,1.24L145.33,236" style="fill:none;stroke:#263238;stroke-linecap:round;stroke-linejoin:round"></path><polyline points="122.77 231.42 122.77 233.59 111.84 233.59 112.22 230.76" style="fill:none;stroke:#263238;stroke-linecap:round;stroke-linejoin:round"></polyline><polyline points="108.73 230.76 108.19 233.03 97.26 232.18 98.5 230.2" style="fill:none;stroke:#263238;stroke-linecap:round;stroke-linejoin:round"></polyline><polyline points="96.72 236.04 105.94 236.68 105.4 239.06" style="fill:none;stroke:#263238;stroke-linecap:round;stroke-linejoin:round"></polyline><polyline points="112.46 238.25 124.09 238.25 124.48 240.47" style="fill:none;stroke:#263238;stroke-linecap:round;stroke-linejoin:round"></polyline><polyline points="130.45 238.25 141.92 237.55 143.16 239.98" style="fill:none;stroke:#263238;stroke-linecap:round;stroke-linejoin:round"></polyline><path d="M127,230.76v2.83l13.26-.56-.93-2.83s-3.49-1.23-10.54-.57" style="fill:none;stroke:#263238;stroke-linecap:round;stroke-linejoin:round"></path><polyline points="143.47 233.03 152.78 232.65 151.77 230.76" style="fill:none;stroke:#263238;stroke-linecap:round;stroke-linejoin:round"></polyline><line x1="143.47" y1="230.76" x2="149.32" y2="230.76" style="fill:none;stroke:#263238;stroke-linecap:round;stroke-linejoin:round"></line><path d="M114.63,230.2a51.84,51.84,0,0,1,8.14-.76" style="fill:none;stroke:#263238;stroke-linecap:round;stroke-linejoin:round"></path><path d="M128.63,238.38l-.28-1.24A1.08,1.08,0,0,0,128.63,238.38Z" style="fill:none;opacity:0.4"></path><path d="M124.09,220.14s1-5-.54-7c0,0-3,5-3.15,7,0,0-.87-4.65-3.46-5.46,0,0-1.54.62-1.42,1.82A27.48,27.48,0,0,1,117.3,221a5.66,5.66,0,0,0-4.22,1.63,4.21,4.21,0,0,0,3.37,1.74s-2.67,1.81-3.37,3.46c0,0,4.3,1.77,8-.26S124.09,220.14,124.09,220.14Z" style="fill:#263238"></path><path d="M121.76,220.07a6.27,6.27,0,0,1,3.93-3.31c5.35-1.47,7.81,3.57,8.86,7.92.84,3.5,1.81,8.1-.06,11.43-3.09,5.5-11.45,2.11-15.55-.18-2.69-1.5-4.67-3.62-4.15-7a5.11,5.11,0,0,1,2.64-3.81,13.54,13.54,0,0,0,2.46-1.16C121.08,223,121.12,221.36,121.76,220.07Z" style="fill:#92E3A9;stroke:#263238;stroke-linecap:round;stroke-linejoin:round"></path><path d="M125.46,219.68c2.19.15,3.28,2,4.52,5.89s2.72,5.1,2.72,7.55S132,236,132,236s2.79-.26,1.66-7.53-2.43-9.76-5-10.23a3.11,3.11,0,0,0-3.5,1.32" style="fill:#fff;opacity:0.6000000000000001"></path><path d="M117.46,230.06s1.51.55.5,1.1S117.46,230.06,117.46,230.06Z" style="fill:#263238"></path><path d="M121,226.54s1.32.76.93,1.25S121,226.54,121,226.54Z" style="fill:#263238"></path><path d="M124.48,223s1.9.16,1.43.78S124.48,223,124.48,223Z" style="fill:#263238"></path><path d="M127.46,219s1.25-.5,1.17.23S127.46,219,127.46,219Z" style="fill:#263238"></path><path d="M129.53,224.68s1.65.89.92,1.36S129.53,224.68,129.53,224.68Z" style="fill:#263238"></path><path d="M126.3,229.2s1.24.44.73,1S126.3,229.2,126.3,229.2Z" style="fill:#263238"></path><path d="M122.11,231.9s1.36.46,1,.92S122.11,231.9,122.11,231.9Z" style="fill:#263238"></path><path d="M124.81,235.54s1.48-.31,1.17.41S124.81,235.54,124.81,235.54Z" style="fill:#263238"></path><path d="M128.63,233.72s1.2.46.73.85S128.63,233.72,128.63,233.72Z" style="fill:#263238"></path><path d="M130.45,230.38s1.28.55.93.93S130.45,230.38,130.45,230.38Z" style="fill:#263238"></path><path d="M133.23,227.77s.82.53.43.74S133.23,227.77,133.23,227.77Z" style="fill:#263238"></path><path d="M131.92,234.64s1.09.44.81.83S131.92,234.64,131.92,234.64Z" style="fill:#263238"></path><path d="M133.77,232.18s.29.76.16.94S133.77,232.18,133.77,232.18Z" style="fill:#263238"></path><path d="M129.05,236.68s.89-.14.78.25S129.05,236.68,129.05,236.68Z" style="fill:#263238"></path><path d="M119.44,234.18s1.08.46.73.66S119.44,234.18,119.44,234.18Z" style="fill:#263238"></path><path d="M132.35,221.89s1,.61.66,1.12S132.35,221.89,132.35,221.89Z" style="fill:#263238"></path><path d="M199.92,224.89v-8.27c-5.34-2.12-14.6-3.52-25.1-3.52-16.52,0-29.91,3.46-29.91,7.74s13.39,7.73,29.91,7.73c10.52,0,19.77-1.41,25.1-3.53v-.15Z" style="fill:#fff;stroke:#263238;stroke-linecap:round;stroke-linejoin:round"></path><path d="M195,219.85c0,2.26-9.22,4.1-20.6,4.1s-20.6-1.84-20.6-4.1,9.23-4.09,20.6-4.09S195,217.59,195,219.85Z" style="fill:#92E3A9;opacity:0.4"></path><ellipse cx="174.82" cy="220" rx="22.98" ry="5.24" style="fill:none;stroke:#263238;stroke-linecap:round;stroke-linejoin:round"></ellipse><path d="M186.83,219.15c0,1.88-4.74,3.4-12,3.4s-12-1.52-12-3.4,4.75-3.39,12-3.39S186.83,217.28,186.83,219.15Z" style="fill:none;stroke:#263238;stroke-linecap:round;stroke-linejoin:round"></path><path d="M199.92,203.11v-3.6a24.82,24.82,0,0,0-6.34-.18L192,202.8S198.41,200.84,199.92,203.11Z" style="fill:#fff"></path><g style="clip-path:url(#clip-path-2)"><path d="M199.92,203.11v-3.6a24.82,24.82,0,0,0-6.34-.18L192,202.8S198.41,200.84,199.92,203.11Z" style="fill:#92E3A9;opacity:0.4"></path></g><path d="M199.92,203.11v-3.6a24.82,24.82,0,0,0-6.34-.18L192,202.8S198.41,200.84,199.92,203.11Z" style="fill:none;stroke:#263238;stroke-linecap:round;stroke-linejoin:round"></path><path d="M199.92,205.85c-2.9,9.28-12.57,7.89-12.57,7.89v2.67a14.66,14.66,0,0,0,12.57-4.58Z" style="fill:#fff"></path><g style="clip-path:url(#clip-path-3)"><path d="M199.92,205.85c-2.9,9.28-12.57,7.89-12.57,7.89v2.67a14.66,14.66,0,0,0,12.57-4.58Z" style="fill:#92E3A9;opacity:0.4"></path></g><path d="M199.92,205.85c-2.9,9.28-12.57,7.89-12.57,7.89v2.67a14.66,14.66,0,0,0,12.57-4.58Z" style="fill:none;stroke:#263238;stroke-linecap:round;stroke-linejoin:round"></path><path d="M153.84,197s1.16,23.84,21,23.84,21-23.84,21-23.84Z" style="fill:#fff"></path><g style="clip-path:url(#clip-path-4)"><path d="M195.8,197s-1.16,23.84-21,23.84a18.33,18.33,0,0,1-12.31-4.27l.29-.07a19.34,19.34,0,0,0,14.29,1.14c7-2.28,14.42-17.85,15.69-20.64Z" style="fill:#92E3A9;opacity:0.4"></path></g><path d="M153.84,197s1.16,23.84,21,23.84,21-23.84,21-23.84Z" style="fill:none;stroke:#263238;stroke-linecap:round;stroke-linejoin:round"></path><path d="M195.8,197c0,1-1,1.95-2.85,2.75-3.45,1.49-9.86,2.49-18.13,2.49s-14.68-1-18.13-2.49c-1.85-.8-2.85-1.75-2.85-2.75,0-2.9,8.29-5.24,21-5.24S195.8,194.1,195.8,197Z" style="fill:#fff;stroke:#263238;stroke-linecap:round;stroke-linejoin:round"></path><path d="M193,199.48a1.24,1.24,0,0,1,0,.27c-3.45,1.49-9.86,2.49-18.13,2.49s-14.68-1-18.13-2.49a1.24,1.24,0,0,1,0-.27c0-2.51,7.17-4.54,18.16-4.54S193,197,193,199.48Z" style="fill:#92E3A9;stroke:#263238;stroke-linecap:round;stroke-linejoin:round"></path><path d="M174.82,198.34s3.06-1.54,4.59,0-2.17,2.86-5.24,2.81-5.88-2-4.79-3.26S173.73,197.54,174.82,198.34Z" style="fill:#fff"></path><path d="M175.06,197s4.11-1.32,6.09.31-1.64,3.9-1.64,3.9,4.86-1.8,3-3.9S175.46,196.11,175.06,197Z" style="fill:#fff"></path><path d="M183,196.65s4.52,1.26,0,3.72c0,0,4.13-.8,3.59-2.53S183,196.65,183,196.65Z" style="fill:#fff"></path><path d="M169.52,200.37s-2.42-1-2.27-2.28,3.86-1.52,3.86-1.52-4.5-1.3-5.15,1.07S169.52,200.37,169.52,200.37Z" style="fill:#fff"></path><path d="M166.16,200.37s-3.15-.8-3.36-1.59,1.68-1.78,1.68-1.78-3.11.22-3.31,1.57S166.16,200.37,166.16,200.37Z" style="fill:#fff"></path><path d="M174.13,165.21c-7.18,6.06,5.19,15.82,0,19.91,0,0,5.08-2,1.92-8.7S174.13,165.21,174.13,165.21Z" style="fill:#92E3A9"></path><circle cx="82.21" cy="135.75" r="10.88" transform="translate(-74.67 159.75) rotate(-67.5)" style="fill:#92E3A9;stroke:#263238;stroke-linecap:round;stroke-linejoin:round"></circle><path d="M86.66,142.54c-.66,0-2.58-1.45-1.92-2.64s1.92-3.16,1.92-3.16a8.56,8.56,0,0,0,.92-3.56c.27-1.85-.79-5-5.37-5s-5.64,3.16-5.38,5a8.47,8.47,0,0,0,.93,3.56s1.26,2,1.92,3.16-1.27,2.64-1.92,2.64a17.46,17.46,0,0,0-3.13,1s4.38,3.08,7.58,3.08,7.57-3.08,7.57-3.08A17.31,17.31,0,0,0,86.66,142.54Z" style="fill:#263238"></path><path d="M82.3,286.45c-.9-1.51-2.67-1-3.6.19-.89-1.18-2.64-1.78-3.58-.29-1.59,2.5,1.58,4.88,3.08,5.81l.42.27.44-.26C80.58,291.28,83.81,289,82.3,286.45Z" style="fill:#92E3A9;stroke:#263238;stroke-linecap:round;stroke-linejoin:round"></path><polygon points="198.52 292.19 195.28 290.6 192.03 292.19 192.03 285.7 198.52 285.7 198.52 292.19" style="fill:#92E3A9;stroke:#263238;stroke-linecap:round;stroke-linejoin:round"></polygon><path d="M89.58,285.39h5a.89.89,0,0,1,.89.9v4.1a.89.89,0,0,1-.89.89h-1.9l-.58,1.22-.58-1.22h-1.9a.89.89,0,0,1-.89-.89v-4.1A.89.89,0,0,1,89.58,285.39Z" style="fill:#92E3A9;stroke:#263238;stroke-linecap:round;stroke-linejoin:round"></path><path d="M98.38,296.75H74.89a1.17,1.17,0,0,0,0,2.33H98.38a1.17,1.17,0,1,0,0-2.33Z" style="fill:#263238"></path><path d="M192.4,302.75H74.47a.74.74,0,1,0,0,1.48H192.4a.74.74,0,1,0,0-1.48Z" style="fill:#263238"></path><path d="M172.4,307.75H74.47a.74.74,0,1,0,0,1.48H172.4a.74.74,0,1,0,0-1.48Z" style="fill:#263238"></path></g><g id="Character"><path d="M303.47,338.93a236.9,236.9,0,0,1-18.61,21.53c-12.65,12.91-29.14,26.14-40.73,22.28-21.36-7.12-19.78-22.55-19.78-41s5.8-22.14,5.8-22.14l.93-5.3c10.48-2.35,17.95,1.24,17.95,1.24l.64,5.12c4.75,1.73,7.52,18.3,7.52,18.3s2.52-4.77,6.36-11.26c7.83-13.25,21.13-33.72,29.59-35.68l7.46,33.89Z" style="fill:#92E3A9"></path><g style="clip-path:url(#clip-path-5)"><path d="M303.47,338.93a236.9,236.9,0,0,1-18.61,21.53c-2-17.49,12.21-40.89,12.21-40.89l3.53,6.31Z" style="opacity:0.2"></path><path d="M262.75,351.62s-2.66-9.93-5.56-12.69c0,0,2.52-4.77,6.36-11.26C265.53,335.3,266.88,345.37,262.75,351.62Z" style="opacity:0.2"></path></g><path d="M303.47,338.93a236.9,236.9,0,0,1-18.61,21.53c-12.65,12.91-29.14,26.14-40.73,22.28-21.36-7.12-19.78-22.55-19.78-41s5.8-22.14,5.8-22.14l.93-5.3c10.48-2.35,17.95,1.24,17.95,1.24l.64,5.12c4.75,1.73,7.52,18.3,7.52,18.3s2.52-4.77,6.36-11.26c7.83-13.25,21.13-33.72,29.59-35.68l7.46,33.89Z" style="fill:none;stroke:#263238;stroke-linecap:round;stroke-linejoin:round"></path><path d="M245.89,277.35l-3.57,4.06c-12.63,14.34-8.47,26.16-8.47,26.16l-.66,7.78a19.75,19.75,0,0,0,14.14,1l.28-9.62S262.92,300.05,245.89,277.35Z" style="fill:#fff;stroke:#263238;stroke-linecap:round;stroke-linejoin:round"></path><path d="M253.22,300.41l11.61,3.86c1.23.31,3.66-1.74,3.55-3l-3.45-40.59a3.87,3.87,0,0,0-2.89-3.42l-12.86-2.79c-1.23-.32-4.32,1.15-4.22,2.41L250.33,297A3.87,3.87,0,0,0,253.22,300.41Z" style="fill:#92E3A9"></path><g style="clip-path:url(#clip-path-6)"><path d="M253.22,300.41l11.61,3.86c1.23.31,3.66-1.74,3.55-3l-3.45-40.59a3.87,3.87,0,0,0-2.89-3.42l-12.86-2.79c-1.23-.32-4.32,1.15-4.22,2.41L250.33,297A3.87,3.87,0,0,0,253.22,300.41Z" style="fill-opacity:0.7000000000000001;opacity:0.30000000000000004"></path></g><path d="M253.22,300.41l11.61,3.86c1.23.31,3.66-1.74,3.55-3l-3.45-40.59a3.87,3.87,0,0,0-2.89-3.42l-12.86-2.79c-1.23-.32-4.32,1.15-4.22,2.41L250.33,297A3.87,3.87,0,0,0,253.22,300.41Z" style="fill:none;stroke:#263238;stroke-linecap:round;stroke-linejoin:round"></path><path d="M251.31,301.41l12.86,2.8a1.85,1.85,0,0,0,2.3-1.94L263,261.68a3.87,3.87,0,0,0-2.89-3.42l-12.87-2.79A1.83,1.83,0,0,0,245,257.4L248.42,298A3.87,3.87,0,0,0,251.31,301.41Z" style="fill:#92E3A9;stroke:#263238;stroke-linecap:round;stroke-linejoin:round"></path><path d="M258.44,269.19l2.08.45a.3.3,0,0,0,.37-.31l-.56-6.55a.63.63,0,0,0-.47-.55l-2.07-.45a.3.3,0,0,0-.37.31l.56,6.55A.61.61,0,0,0,258.44,269.19Z" style="fill-opacity:0.7000000000000001;opacity:0.30000000000000004"></path><path d="M240.35,289.54c-.5-5.69,4.68-14.23,8.12-14.23s13.94,8.07,13.94,8.07c4.06,2.95,2,5.75,2,5.75,2.39,1.58,3,3.71,2,4.7s-4.57,0-4.57,0,3.48,2.55,2.62,3.8c-2,2.95-8.8-.95-8.8-.95s3.92,2.58,3.69,3.07c-1.47,3.23-7.86-.53-7.86-.53l-4.5,2.3a3.84,3.84,0,0,1-4.09,3.86" style="fill:#fff;stroke:#263238;stroke-linecap:round;stroke-linejoin:round"></path><path d="M264.46,289.13s-9.82-6.35-11.06-6.52-5.79-1.16-5.79-1.16" style="fill:#fff;stroke:#263238;stroke-linecap:round;stroke-linejoin:round"></path><path d="M261.84,293.83s-8-4.12-9.43-4.12a54.35,54.35,0,0,1-6.52-1.12" style="fill:#fff;stroke:#263238;stroke-linecap:round;stroke-linejoin:round"></path><path d="M255.66,296.68a20,20,0,0,0-2.95-1.74,41.5,41.5,0,0,0-5.72,0" style="fill:#fff;stroke:#263238;stroke-linecap:round;stroke-linejoin:round"></path><path d="M289.5,298c.53-2.94,1.72-5,3.64-6,21.76-10.85,68.2-12.91,96.81-9.32,26.4,3.32,30.45,75.79,27.77,142.92H315.25s.64-58.48-12.29-81.52c-2.86-5.08-9.25-17.91-10-23.82" style="fill:#92E3A9"></path><g style="clip-path:url(#clip-path-7)"><path d="M417.72,425.59H315.25s.14-12.39-1-28c0,0-2.84-11.13,6.87-16.95,8.79-5.27,30.94-7.87,36.58-12.63,6.49-5.48,8.17-20.31,18.28-45.28,6.2-15.31,35.31-10,35.31-10C418.46,340.68,419.37,384.15,417.72,425.59Z" style="opacity:0.2"></path></g><path d="M257.19,338.93s8.92,11.76,4.65,21.26" style="fill:none;stroke:#263238;stroke-linecap:round;stroke-linejoin:round"></path><path d="M289.16,326.16s3.38,9.95,11.22,13.09" style="fill:none;stroke:#263238;stroke-linecap:round;stroke-linejoin:round"></path><path d="M230.15,319.57s8.63,5.8,16.84,1.65" style="fill:none;stroke:#263238;stroke-linecap:round;stroke-linejoin:round"></path><path d="M260.09,343.76s5.86,2.32,7.34,7.86" style="fill:none;stroke:#263238;stroke-linecap:round;stroke-linejoin:round"></path><path d="M315.25,425.59s.64-58.48-12.29-81.52c-2.86-5.08-9.25-17.91-10-23.82" style="fill:none;stroke:#263238;stroke-miterlimit:10"></path><path d="M289.5,298c.53-2.94,1.72-5,3.64-6,21.76-10.85,68.2-12.91,96.81-9.32,26.4,3.32,30.45,75.79,27.77,142.92" style="fill:none;stroke:#263238;stroke-miterlimit:10"></path><path d="M360.3,283.15s-4.55,19.61-23.39,19.7c-13.66.07-12.6-13.72-12.6-13.72a5.58,5.58,0,0,0,1.05-6.1,5,5,0,0,0-.82-1.25,13.72,13.72,0,0,0-5.41-3.32,27.26,27.26,0,0,0-3.71-1.11s1.37-4,.63-4.75c-9.74-10.25,10.46-29.54,30.73-24.12C346.78,248.48,335.66,262.57,360.3,283.15Z" style="fill:#fff;stroke:#263238;stroke-linecap:round;stroke-linejoin:round"></path><path d="M324.54,281.78a13.72,13.72,0,0,0-5.41-3.32c4.56-3.25,9.58-6.32,9.58-6.32A12.13,12.13,0,0,1,324.54,281.78Z" style="fill:#263238"></path><path d="M350.7,237.83c2.26-30.17-13.78-40.59-23.59-43-15.72-3.82-33.42,8.78-35.27,25.63s2.66,19.92,3.48,26.57c.58,4.67-1.92,7.4,3,18.55,3.28,7.36,8.66,19.15,21.46,14.9a44.48,44.48,0,0,0,11-5.59" style="fill:#fff;stroke:#263238;stroke-linecap:round;stroke-linejoin:round"></path><path d="M310.89,234.34s5.15-2.88,9.06,3.07" style="fill:none;stroke:#263238;stroke-linecap:round;stroke-linejoin:round"></path><path d="M291.8,233.83s5.51-2.11,8.58,1.64" style="fill:none;stroke:#263238;stroke-linecap:round;stroke-linejoin:round"></path><path d="M303.12,243.5s1.28,5-.51,6.29-5.15-.31-3.6,3.61,6.24,3.44,6.24,3.44" style="fill:none;stroke:#263238;stroke-linecap:round;stroke-linejoin:round"></path><path d="M313.39,243.27c.21,1.36,1,2.36,1.74,2.24s1.18-1.3,1-2.66-1-2.35-1.73-2.24S313.18,241.92,313.39,243.27Z" style="fill:#263238;stroke:#263238;stroke-linecap:round;stroke-linejoin:round"></path><path d="M297.6,244.36c.21,1.35,1,2.36,1.73,2.24s1.19-1.31,1-2.66-1-2.36-1.73-2.24S297.39,243,297.6,244.36Z" style="fill:#263238;stroke:#263238;stroke-linecap:round;stroke-linejoin:round"></path><path d="M315.88,259.27s-5.43,4.23-11.23,3.65" style="fill:none;stroke:#263238;stroke-linecap:round;stroke-linejoin:round"></path><path d="M315,260.55S315,265,311,266s-4.81-2.95-4.81-2.95" style="fill:none;stroke:#263238;stroke-linecap:round;stroke-linejoin:round"></path><path d="M341.72,194.17s-6.19-8.46-25.84-4.22-26.53,8.47-29.71,14.55-8.47,25.55-3.44,29.85,8.67,3.06,8.67,3.06-7.34-.61-7.34-6.17c0,0,3.6,3.94,8.15,4.88A71.51,71.51,0,0,1,291.8,226c.2-7.28,5.67-11.2,10.13-9.4,0,0,3.12-4.07,5.6-1.16,3.36,3.94-2.48,23.74,11.47,22,0,0-8-1.94-4.25-15.57,0,0,1.13,14.83,11.66,15.57,3.78.27,5.06,4.81,5.42,7.33L335,243.5c.8-1.28,4.36-3.31,6-2.2,6.35,4.37,1.52,9.67,1,15.55l2.29,3.7c6.05-5.09,19.46-28.25,11.78-44.13a7.21,7.21,0,0,1,4.23,5S361.27,200.25,341.72,194.17Z" style="fill:#263238"></path><path d="M335,245.5s3.79-10.78,9.75-9.22,3.92,14.05-.32,18.68-7.77,1.21-7.77,1.21" style="fill:#fff;stroke:#263238;stroke-linecap:round;stroke-linejoin:round"></path><g style="opacity:0.2"><path d="M306.22,205.85c7.26-3.73,11.42,6.16,15.18,16.84s11.07,11.66,11.07,11.66" style="fill:none;stroke:#fff;stroke-linecap:round;stroke-linejoin:round"></path><path d="M301.93,209.44s-5.33-7.32-10.53-2.77-10.16,20.77-2.84,24.33" style="fill:none;stroke:#fff;stroke-linecap:round;stroke-linejoin:round"></path><path d="M312.69,200.48c8.11-2.91,14.44-3.72,19.19,10.13s8.7,21.56,17.6,23.74" style="fill:none;stroke:#fff;stroke-linecap:round;stroke-linejoin:round"></path><path d="M332.47,195.59C340,197.77,347,216.9,353.37,220" style="fill:none;stroke:#fff;stroke-linecap:round;stroke-linejoin:round"></path><path d="M308.14,199.21s-2.37-4.65-8.5-2.05" style="fill:none;stroke:#fff;stroke-linecap:round;stroke-linejoin:round"></path></g><path d="M390.24,287.53c-8.18,3.4-10.89,8.54-13.45,23.25-1.6,9.17-1,62-1,62s-46,4.77-54.64,7.84c-3.95,1.4-5.73,6-5.73,6l-5.15,1a25.88,25.88,0,0,0,2.8,23.07l6.23-.71c3.08,8.77,78.74,6.74,89.14-5.42,10.67-12.48,19.84-103-11.76-119.24" style="fill:#92E3A9;stroke:#263238;stroke-linecap:round;stroke-linejoin:round"></path><path d="M321.15,290.34S319.89,301.84,332,307s29.47-7.77,32-21.69" style="fill:none;stroke:#263238;stroke-linecap:round;stroke-linejoin:round"></path><path d="M362.62,323.2s-19.59,29.67-39.76,37" style="fill:none;stroke:#263238;stroke-linecap:round;stroke-linejoin:round"></path><path d="M375.79,372.79s6.61-.74,10,3.22" style="fill:none;stroke:#263238;stroke-linecap:round;stroke-linejoin:round"></path><path d="M380.77,321.22s9.74,30.07,21.8,35.8" style="fill:none;stroke:#263238;stroke-linecap:round;stroke-linejoin:round"></path><path d="M385.76,365.13s-6.6.79-10,5.74" style="fill:none;stroke:#263238;stroke-linecap:round;stroke-linejoin:round"></path><path d="M315.42,386.59a23.81,23.81,0,0,1,3.88,11.18" style="fill:none;stroke:#263238;stroke-linecap:round;stroke-linejoin:round"></path><path d="M310.7,390.13s-14,1-15.1,1-13.19-7.54-16.69-7.11c-3.86.47-13.05,12.84-13.52,14.19a3,3,0,0,0,1.75,3.82c-.17,3.21,4,4.47,4,4.47-.06,2.8,4.71,3.43,4.71,3.43,2.7,5.14,12-1.62,12-1.62a34.38,34.38,0,0,0,10.86-1.7l14.8.43C314,396.68,310.7,390.13,310.7,390.13Z" style="fill:#fff;stroke:#263238;stroke-linecap:round;stroke-linejoin:round"></path><path d="M279.91,385.71s-.76,2.37-.07,3.26,2.41.67,2.38,2.31-.2,2.63,2.34,3.81-.46,5,1.52,5.79" style="fill:none;stroke:#263238;stroke-linecap:round;stroke-linejoin:round"></path><path d="M276.76,396.16s-5.58,7.37-5.64,10.36" style="fill:none;stroke:#263238;stroke-linecap:round;stroke-linejoin:round"></path><path d="M280.45,400.77s-5,6.78-4.62,9.18" style="fill:none;stroke:#263238;stroke-linecap:round;stroke-linejoin:round"></path><path d="M267.14,402.05s3.46-6.82,8.33-10.12" style="fill:none;stroke:#263238;stroke-linecap:round;stroke-linejoin:round"></path><path d="M285.14,404.93a8.49,8.49,0,0,1-4.22,3.66" style="fill:none;stroke:#263238;stroke-linecap:round;stroke-linejoin:round"></path><path d="M283.7,406.77s6,.12,4.15,1.56" style="fill:none;stroke:#263238;stroke-linecap:round;stroke-linejoin:round"></path></g><g id="Table"><path d="M442.87,431.59V409.36a4.83,4.83,0,0,0-4.83-4.83H70.65a4.83,4.83,0,0,0-4.83,4.83v22.23" style="fill:#fff"></path><g style="clip-path:url(#clip-path-8)"><path d="M442.87,409.36v9.05a25.69,25.69,0,0,0-8.19-.35c-8.19,1.13-16.22,9.56-40.93,9.56s-35.82-8.31-57.89-8.31-24.61,9.1-33.7,9.1-17-3.74-33.5-3.74S241.63,430,209,430s-40.13-13.06-55.68-11.93-34.7,7.53-61.6,7.53a68.59,68.59,0,0,1-25.87-4.71V409.36a4.83,4.83,0,0,1,4.83-4.83H438A4.83,4.83,0,0,1,442.87,409.36Z" style="fill:#92E3A9;opacity:0.4"></path></g><path d="M442.87,431.59V409.36a4.83,4.83,0,0,0-4.83-4.83H70.65a4.83,4.83,0,0,0-4.83,4.83v22.23" style="fill:none;stroke:#263238;stroke-linecap:round;stroke-linejoin:round"></path><path d="M220.79,385.91s1.45-2.9,3.56-1.86,1.45,9.25-1.78,9.25-6.39-2.08-6.66-5.09S220.79,385.91,220.79,385.91Z" style="fill:#92E3A9;stroke:#263238;stroke-linecap:round;stroke-linejoin:round"></path><path d="M221.77,384.6l.6-2-2.24,2-2.37-2,.79,2-2.65,1.31S221.16,386.63,221.77,384.6Z" style="fill:#263238"></path><path d="M245.32,399.65h-45.5l.81-5.61a1.58,1.58,0,0,1,1.57-1.36H243a1.58,1.58,0,0,1,1.56,1.36Z" style="fill:#fff"></path><g style="clip-path:url(#clip-path-9)"><path d="M245.32,399.65h-45.5l.81-5.61a1.58,1.58,0,0,1,1.57-1.36H243a1.58,1.58,0,0,1,1.56,1.36Z" style="fill:#92E3A9;opacity:0.4"></path></g><path d="M245.32,399.65h-45.5l.81-5.61a1.58,1.58,0,0,1,1.57-1.36H243a1.58,1.58,0,0,1,1.56,1.36Z" style="fill:none;stroke:#263238;stroke-linecap:round;stroke-linejoin:round"></path><polygon points="242.99 404.53 202.47 404.53 192.47 400.77 252.99 400.77 242.99 404.53" style="fill:#fff"></polygon><g style="clip-path:url(#clip-path-10)"><polygon points="242.99 404.53 202.47 404.53 192.47 400.77 252.99 400.77 242.99 404.53" style="fill:#92E3A9;opacity:0.4"></polygon></g><polygon points="242.99 404.53 202.47 404.53 192.47 400.77 252.99 400.77 242.99 404.53" style="fill:none;stroke:#263238;stroke-linecap:round;stroke-linejoin:round"></polygon><path d="M255.11,401.46H190.36a1.52,1.52,0,0,1-1.52-1.51h0a1.52,1.52,0,0,1,1.52-1.52h64.75a1.52,1.52,0,0,1,1.51,1.52h0A1.52,1.52,0,0,1,255.11,401.46Z" style="fill:#fff;stroke:#263238;stroke-linecap:round;stroke-linejoin:round"></path><path d="M138.82,382.57s-7.78-1.15-8.17,3.47,5.08,15.09,13,13.61V397s-7.69,1.45-9.75-8.42C132.71,383.1,140,386,140,386Z" style="fill:#fff"></path><g style="clip-path:url(#clip-path-11)"><path d="M138.82,382.57s-7.78-1.15-8.17,3.47,5.08,15.09,13,13.61V397s-7.69,1.45-9.75-8.42C132.71,383.1,140,386,140,386Z" style="fill:#92E3A9;opacity:0.4"></path></g><path d="M138.82,382.57s-7.78-1.15-8.17,3.47,5.08,15.09,13,13.61V397s-7.69,1.45-9.75-8.42C132.71,383.1,140,386,140,386Z" style="fill:none;stroke:#263238;stroke-linecap:round;stroke-linejoin:round"></path><path d="M162,399.65h0a14,14,0,0,1-9.2,3c-17.4,0-15.43-22.29-15.43-22.29h30.86S169.4,393.57,162,399.65Z" style="fill:#fff"></path><g style="clip-path:url(#clip-path-12)"><path d="M162,399.65h0a14,14,0,0,1-9.2,3c-17.4,0-15.43-22.29-15.43-22.29H143s.66,9.8,4.22,14.55S161.91,399.65,162,399.65Z" style="fill:#92E3A9;opacity:0.4"></path></g><path d="M162,399.65h0a14,14,0,0,1-9.2,3c-17.4,0-15.43-22.29-15.43-22.29h30.86S169.4,393.57,162,399.65Z" style="fill:none;stroke:#263238;stroke-linecap:round;stroke-linejoin:round"></path><polygon points="165.74 404.53 138.13 404.53 131.32 401.97 172.56 401.97 165.74 404.53" style="fill:#fff"></polygon><g style="clip-path:url(#clip-path-13)"><polygon points="165.74 404.53 138.13 404.53 131.32 401.97 172.56 401.97 165.74 404.53" style="fill:#92E3A9;opacity:0.4"></polygon></g><polygon points="165.74 404.53 138.13 404.53 131.32 401.97 172.56 401.97 165.74 404.53" style="fill:none;stroke:#263238;stroke-linecap:round;stroke-linejoin:round"></polygon><path d="M174,402.44H129.88a1,1,0,0,1-1-1h0a1,1,0,0,1,1-1H174a1,1,0,0,1,1,1h0A1,1,0,0,1,174,402.44Z" style="fill:#fff;stroke:#263238;stroke-linecap:round;stroke-linejoin:round"></path><path d="M151.61,355.18c-7.18,6.06,5.2,15.82,0,19.91,0,0,5.09-2,1.92-8.71S151.61,355.18,151.61,355.18Z" style="fill:#fff"></path></g></svg>