<svg xmlns="http://www.w3.org/2000/svg" viewBox="0 0 500 500"><g id="background-complete"><rect x="416.78" y="398.49" width="33.12" height="0.25" style="fill:#ebebeb"></rect><rect x="322.53" y="401.21" width="8.69" height="0.25" style="fill:#ebebeb"></rect><rect x="396.59" y="389.21" width="19.19" height="0.25" style="fill:#ebebeb"></rect><rect x="52.46" y="390.89" width="43.19" height="0.25" style="fill:#ebebeb"></rect><rect x="104.56" y="390.89" width="6.33" height="0.25" style="fill:#ebebeb"></rect><rect x="131.47" y="395.11" width="93.68" height="0.25" style="fill:#ebebeb"></rect><path d="M237,337.8H43.91a5.71,5.71,0,0,1-5.7-5.71V60.66A5.71,5.71,0,0,1,43.91,55H237a5.71,5.71,0,0,1,5.71,5.71V332.09A5.71,5.71,0,0,1,237,337.8ZM43.91,55.2a5.46,5.46,0,0,0-5.45,5.46V332.09a5.46,5.46,0,0,0,5.45,5.46H237a5.47,5.47,0,0,0,5.46-5.46V60.66A5.47,5.47,0,0,0,237,55.2Z" style="fill:#ebebeb"></path><path d="M453.31,337.8H260.21a5.72,5.72,0,0,1-5.71-5.71V60.66A5.72,5.72,0,0,1,260.21,55h193.1A5.71,5.71,0,0,1,459,60.66V332.09A5.71,5.71,0,0,1,453.31,337.8ZM260.21,55.2a5.47,5.47,0,0,0-5.46,5.46V332.09a5.47,5.47,0,0,0,5.46,5.46h193.1a5.47,5.47,0,0,0,5.46-5.46V60.66a5.47,5.47,0,0,0-5.46-5.46Z" style="fill:#ebebeb"></path><rect y="382.4" width="500" height="0.25" style="fill:#ebebeb"></rect><path d="M52.18,269.6H70.75v-1.24c0-2.43-2.71-4.36-6-4.23l-7.27.3c-3,.12-5.35,2-5.35,4.22Z" style="fill:#f0f0f0"></path><path d="M89,270.23h24.58l3.91-34.31a2.41,2.41,0,0,0-2.41-2.3H98.58a2.41,2.41,0,0,0-2.41,2.3Z" style="fill:#e6e6e6"></path><path d="M51.45,183.16h6.13L64.48,248H58.35a2.11,2.11,0,0,1-2-1.85L49.8,185A1.63,1.63,0,0,1,51.45,183.16Z" style="fill:#e6e6e6"></path><path d="M60.94,248h91.95a1.63,1.63,0,0,0,1.65-1.85L148,185a2.09,2.09,0,0,0-2-1.84H54A1.62,1.62,0,0,0,52.4,185l6.5,61.12A2.11,2.11,0,0,0,60.94,248Z" style="fill:#ebebeb"></path><path d="M62.66,242h86.71a1.42,1.42,0,0,0,1.44-1.61L145.13,187a1.83,1.83,0,0,0-1.78-1.6H56.64a1.41,1.41,0,0,0-1.43,1.6l5.67,53.33A1.84,1.84,0,0,0,62.66,242Z" style="fill:#fafafa"></path><rect x="86.71" y="267.56" width="32.89" height="2.66" rx="0.96" transform="translate(206.31 537.79) rotate(180)" style="fill:#e6e6e6"></rect><rect x="38.87" y="269.6" width="61.43" height="9.27" transform="translate(139.18 548.46) rotate(180)" style="fill:#e6e6e6"></rect><path d="M210.05,383.1h1.54a.35.35,0,0,0,.35-.34l2.43-103.9h-7.09l2.42,103.9A.35.35,0,0,0,210.05,383.1Z" style="fill:#e6e6e6"></path><polygon points="254.73 383.1 258.27 383.1 258.27 278.86 251.19 278.86 254.73 383.1" style="fill:#f0f0f0"></polygon><polygon points="46.48 383.1 46.48 383.1 50.06 278.86 42.97 278.86 42.97 383.1 46.48 383.1" style="fill:#e6e6e6"></polygon><rect x="82.78" y="269.6" width="179.59" height="9.27" transform="translate(345.16 548.46) rotate(180)" style="fill:#f5f5f5"></rect><polygon points="88.39 383.1 92.46 383.1 92.46 383.1 93.97 278.86 86.88 278.86 88.39 383.1" style="fill:#f0f0f0"></polygon><path d="M143.84,267.43h2.29a.44.44,0,0,0,.44-.44v-2.42a.44.44,0,0,0-.44-.44h-1.65a.43.43,0,0,0-.42.32l-.65,2.43A.44.44,0,0,0,143.84,267.43Z" style="fill:#f5f5f5"></path><path d="M140.67,267.43H143a.44.44,0,0,0,.44-.44v-2.42a.44.44,0,0,0-.44-.44h-1.65a.43.43,0,0,0-.42.32l-.65,2.43A.44.44,0,0,0,140.67,267.43Z" style="fill:#f5f5f5"></path><path d="M137.5,267.43h2.29a.44.44,0,0,0,.44-.44v-2.42a.44.44,0,0,0-.44-.44h-1.65a.44.44,0,0,0-.42.32l-.65,2.43A.44.44,0,0,0,137.5,267.43Z" style="fill:#f5f5f5"></path><path d="M134.33,267.43h2.29a.44.44,0,0,0,.44-.44v-2.42a.44.44,0,0,0-.44-.44H135a.44.44,0,0,0-.42.32l-.64,2.43A.43.43,0,0,0,134.33,267.43Z" style="fill:#f5f5f5"></path><path d="M131.16,267.43h2.29a.44.44,0,0,0,.44-.44v-2.42a.44.44,0,0,0-.44-.44h-1.64a.44.44,0,0,0-.43.32l-.64,2.43A.43.43,0,0,0,131.16,267.43Z" style="fill:#f5f5f5"></path><path d="M128,267.43h2.29a.44.44,0,0,0,.44-.44v-2.42a.43.43,0,0,0-.44-.44h-1.64a.44.44,0,0,0-.43.32l-.64,2.43A.43.43,0,0,0,128,267.43Z" style="fill:#f5f5f5"></path><path d="M124.82,267.43h2.29a.44.44,0,0,0,.44-.44v-2.42a.43.43,0,0,0-.44-.44h-1.64a.45.45,0,0,0-.43.32l-.64,2.43A.43.43,0,0,0,124.82,267.43Z" style="fill:#f5f5f5"></path><path d="M121.65,267.43H124a.44.44,0,0,0,.43-.44v-2.42a.43.43,0,0,0-.43-.44H122.3a.43.43,0,0,0-.42.32l-.65,2.43A.43.43,0,0,0,121.65,267.43Z" style="fill:#f5f5f5"></path><path d="M118.48,267.43h2.3a.44.44,0,0,0,.43-.44v-2.42a.43.43,0,0,0-.43-.44h-1.65a.43.43,0,0,0-.42.32l-.65,2.43A.44.44,0,0,0,118.48,267.43Z" style="fill:#f5f5f5"></path><path d="M115.31,267.43h2.3a.44.44,0,0,0,.44-.44v-2.42a.44.44,0,0,0-.44-.44H116a.43.43,0,0,0-.42.32l-.65,2.43A.44.44,0,0,0,115.31,267.43Z" style="fill:#f5f5f5"></path><path d="M112.15,267.43h2.29a.44.44,0,0,0,.44-.44v-2.42a.44.44,0,0,0-.44-.44h-1.65a.43.43,0,0,0-.42.32l-.65,2.43A.44.44,0,0,0,112.15,267.43Z" style="fill:#f5f5f5"></path><path d="M109,267.43h2.29a.44.44,0,0,0,.44-.44v-2.42a.44.44,0,0,0-.44-.44h-1.65a.43.43,0,0,0-.42.32l-.65,2.43A.44.44,0,0,0,109,267.43Z" style="fill:#f5f5f5"></path><path d="M105.81,267.43h2.29a.44.44,0,0,0,.44-.44v-2.42a.44.44,0,0,0-.44-.44h-1.65a.44.44,0,0,0-.42.32l-.65,2.43A.44.44,0,0,0,105.81,267.43Z" style="fill:#f5f5f5"></path><path d="M102.64,267.43h2.29a.44.44,0,0,0,.44-.44v-2.42a.44.44,0,0,0-.44-.44h-1.65a.44.44,0,0,0-.42.32l-.65,2.43A.44.44,0,0,0,102.64,267.43Z" style="fill:#f5f5f5"></path><path d="M99.47,267.43h2.29a.44.44,0,0,0,.44-.44v-2.42a.44.44,0,0,0-.44-.44h-1.64a.44.44,0,0,0-.43.32l-.64,2.43A.43.43,0,0,0,99.47,267.43Z" style="fill:#f5f5f5"></path><rect x="97.16" y="265.78" width="51.27" height="3.82" transform="translate(245.6 535.37) rotate(180)" style="fill:#ebebeb"></rect><rect x="336.9" y="165.74" width="29.19" height="31.07" style="fill:#e6e6e6"></rect><rect x="366.09" y="165.74" width="7.48" height="31.07" style="fill:#f5f5f5"></rect><rect x="329.25" y="160.95" width="21.93" height="35.86" style="fill:#e6e6e6"></rect><rect x="351.17" y="160.95" width="6.34" height="35.86" style="fill:#f5f5f5"></rect><rect x="326.23" y="165.74" width="18.49" height="31.07" style="fill:#ebebeb"></rect><rect x="344.72" y="165.74" width="4.22" height="31.07" style="fill:#f5f5f5"></rect><rect x="305.34" y="171" width="24.25" height="25.81" style="fill:#e6e6e6"></rect><rect x="329.59" y="171" width="6.21" height="25.81" style="fill:#f5f5f5"></rect><rect x="298.98" y="167.02" width="18.22" height="29.8" style="fill:#e6e6e6"></rect><rect x="317.19" y="167.02" width="5.27" height="29.8" style="fill:#f5f5f5"></rect><rect x="294.13" y="171" width="17.69" height="25.81" style="fill:#e6e6e6"></rect><rect x="311.83" y="171" width="3.51" height="25.81" style="fill:#f0f0f0"></rect><rect x="286.06" y="196.8" width="166.24" height="7.86" transform="translate(738.35 401.47) rotate(180)" style="fill:#f5f5f5"></rect><polygon points="315.89 204.85 325.09 204.85 318.39 214.96 315.89 214.96 315.89 204.85" style="fill:#e6e6e6"></polygon><polygon points="419.14 204.85 428.34 204.85 421.64 214.96 419.14 214.96 419.14 204.85" style="fill:#e6e6e6"></polygon><path d="M414.36,181a11.57,11.57,0,0,0-.51-3.45l3-2.66-1.91-3.3-3.81,1.29a11.87,11.87,0,0,0-6-3.44l-.79-3.95h-3.81l-.79,3.95a11.91,11.91,0,0,0-6,3.44L390,171.57l-1.91,3.3,3,2.66a11.89,11.89,0,0,0,0,6.89l-3,2.66,1.91,3.3,3.81-1.29a12,12,0,0,0,6,3.45l.79,3.94h3.81l.79-3.94a12,12,0,0,0,6-3.45l3.81,1.29,1.91-3.3-3-2.66A11.5,11.5,0,0,0,414.36,181Zm-11.86,6.4a6.17,6.17,0,1,1,6.16-6.17A6.17,6.17,0,0,1,402.5,187.38Z" style="fill:#f0f0f0"></path><path d="M435,183a7.86,7.86,0,0,0-1.47-1.76l.78-2.53-2.2-1.2-1.7,2a7.7,7.7,0,0,0-4.53.11L424,177.69,421.89,179l.91,2.48a7.87,7.87,0,0,0-2.17,4l-2.58.59.06,2.5,2.61.46a7.94,7.94,0,0,0,.9,2.11,7.86,7.86,0,0,0,1.47,1.76l-.78,2.53,2.2,1.2,1.7-2a7.9,7.9,0,0,0,4.54-.11l1.8,1.94,2.14-1.31-.92-2.49a7.84,7.84,0,0,0,2.17-4l2.58-.59-.06-2.51-2.61-.45A7.81,7.81,0,0,0,435,183Zm-4.46,7.68a4.06,4.06,0,1,1,1.34-5.59A4.08,4.08,0,0,1,430.49,190.65Z" style="fill:#f0f0f0"></path><rect x="47.09" y="78.4" width="182.7" height="82.01" rx="19.67" transform="translate(276.88 238.8) rotate(180)" style="fill:#e6e6e6"></rect><rect x="56.72" y="79" width="182.7" height="82.01" rx="19.67" transform="translate(296.13 240.01) rotate(180)" style="fill:#f5f5f5"></rect><path d="M65.09,86.74H230a0,0,0,0,1,0,0v16.86a13.74,13.74,0,0,1-13.74,13.74H78.83a13.74,13.74,0,0,1-13.74-13.74V86.74A0,0,0,0,1,65.09,86.74Z" transform="translate(295.06 204.07) rotate(180)" style="fill:#e6e6e6"></path><path d="M78.83,121.47h137.4A13.74,13.74,0,0,1,230,135.21v16.86a0,0,0,0,1,0,0H65.09a0,0,0,0,1,0,0V135.21A13.74,13.74,0,0,1,78.83,121.47Z" transform="translate(295.06 273.54) rotate(180)" style="fill:#e6e6e6"></path><rect x="170.37" y="92.66" width="23.37" height="24.87" style="fill:#e6e6e6"></rect><rect x="193.73" y="92.66" width="5.99" height="24.87" style="fill:#f5f5f5"></rect><rect x="164.24" y="88.82" width="17.55" height="28.71" style="fill:#e6e6e6"></rect><rect x="181.78" y="88.82" width="5.08" height="28.71" style="fill:#f5f5f5"></rect><rect x="161.82" y="92.66" width="14.8" height="24.87" style="fill:#ebebeb"></rect><rect x="176.62" y="92.66" width="3.38" height="24.87" style="fill:#f5f5f5"></rect><rect x="145.1" y="96.87" width="19.41" height="20.67" style="fill:#e6e6e6"></rect><rect x="164.51" y="96.87" width="4.97" height="20.67" style="fill:#f5f5f5"></rect><rect x="140.01" y="93.68" width="14.58" height="23.85" style="fill:#e6e6e6"></rect><rect x="154.58" y="93.68" width="4.22" height="23.85" style="fill:#f5f5f5"></rect><rect x="136.13" y="96.87" width="14.17" height="20.67" style="fill:#e6e6e6"></rect><rect x="150.3" y="96.87" width="2.81" height="20.67" style="fill:#f0f0f0"></rect><rect x="120.74" y="126.25" width="23.37" height="24.87" style="fill:#e6e6e6"></rect><rect x="144.1" y="126.25" width="5.99" height="24.87" style="fill:#f5f5f5"></rect><rect x="114.61" y="122.41" width="17.55" height="28.71" style="fill:#e6e6e6"></rect><rect x="132.16" y="122.41" width="5.07" height="28.71" style="fill:#f5f5f5"></rect><rect x="112.19" y="126.25" width="14.8" height="24.87" style="fill:#ebebeb"></rect><rect x="126.99" y="126.25" width="3.38" height="24.87" style="fill:#f5f5f5"></rect><rect x="95.47" y="130.46" width="19.41" height="20.67" style="fill:#e6e6e6"></rect><rect x="114.88" y="130.46" width="4.97" height="20.67" style="fill:#f5f5f5"></rect><rect x="90.38" y="127.27" width="14.58" height="23.85" style="fill:#e6e6e6"></rect><rect x="104.95" y="127.27" width="4.22" height="23.85" style="fill:#f5f5f5"></rect><rect x="86.5" y="130.46" width="14.17" height="20.67" style="fill:#ebebeb"></rect><rect x="100.67" y="130.46" width="2.81" height="20.67" style="fill:#f5f5f5"></rect><path d="M106.08,93.42a2.5,2.5,0,0,1,2.66-1.33,2.63,2.63,0,0,1,2,2.3,2.23,2.23,0,0,1,2.53-.07,2.55,2.55,0,0,1,1,2.45,1.86,1.86,0,0,1,2.7.55,2.1,2.1,0,0,1-.82,2.78,1.36,1.36,0,0,1,1.17,1.37,1.34,1.34,0,0,1-1.24,1.3,1.45,1.45,0,0,1,1.33,1.27,1.49,1.49,0,0,1-1,1.57,1.22,1.22,0,0,1,.29,1.88A1.1,1.1,0,0,1,115,107a.36.36,0,0,1-.57.09.41.41,0,0,1,.11-.6.66.66,0,0,1-1.14-.29,1.65,1.65,0,0,1-2.23,1.75,1,1,0,0,1-.66,1.36,2.26,2.26,0,0,1-1.61-.31,3.72,3.72,0,0,0-1.58-.54,5.2,5.2,0,0,0-1.42.4,4.27,4.27,0,0,1-4.31-1.14,1.83,1.83,0,0,1-3.07-.47,1.37,1.37,0,0,1-1.2,1.09,1.35,1.35,0,0,1-1.32-.94c0,.26,0,.52,0,.79A1.63,1.63,0,0,1,94.27,106a1.67,1.67,0,0,1-1.59-1.45,1.74,1.74,0,0,1,1.19-1.83,3.23,3.23,0,0,1-.06-6.13,1.54,1.54,0,0,1,1.47.2.93.93,0,0,1,0,1.39,3,3,0,0,1,1.27-3.33,2.64,2.64,0,0,1,3.33.71,1.68,1.68,0,0,1,0-1.84,1.48,1.48,0,0,1,1.67-.56,1.67,1.67,0,0,1,1.8-1.37,1.74,1.74,0,0,1,1.35,1.86.85.85,0,0,1,1.53-.29C106.67,93.18,106.08,93.42,106.08,93.42Z" style="fill:#ebebeb"></path><path d="M105.78,101.4a1.51,1.51,0,0,1,1.14-.27,1.06,1.06,0,0,1,.84.77.83.83,0,0,1-.56.95c-.48.11-1-.28-1.44-.21a3.17,3.17,0,0,0-.5.15,2.48,2.48,0,0,1-2-.7,2.13,2.13,0,0,1-.55-.53.72.72,0,0,1,0-.72,1,1,0,0,1,1-.31,3.89,3.89,0,0,1,1.94.81l-.06-.33Z" style="fill:#fafafa"></path><path d="M95.65,100.8a1.74,1.74,0,0,1,.6-.32.65.65,0,0,1,.64.18.64.64,0,0,1-.18.84,2,2,0,0,1-.89.3c-.32,0-.73.06-.88-.23a.53.53,0,0,1,.15-.64,1.55,1.55,0,0,1,.63-.31Z" style="fill:#fafafa"></path><path d="M111.65,95.53a2.23,2.23,0,0,1,1.3,1.55c0,.21,0,.47-.14.58a.66.66,0,0,1-.44,0l-1.86-.44a2.6,2.6,0,0,1,.84.44.91.91,0,0,1,.32.85.87.87,0,0,1-.86.58,1.83,1.83,0,0,1-1-.41,1.29,1.29,0,0,1-.65-1c0-.4.5-.77.8-.51a6.91,6.91,0,0,1-2-.91,1.87,1.87,0,0,1-.58-.54.79.79,0,0,1-.06-.76c.64-1.15,1.44.54,1.83.69C109.88,96,110.71,95.14,111.65,95.53Z" style="fill:#fafafa"></path><path d="M114.54,100.45a.61.61,0,0,1-.17.64.39.39,0,0,1-.59-.12,2.12,2.12,0,0,1,1.12.63.73.73,0,0,1-.22,1.09,1,1,0,0,1-.77-.17,13.57,13.57,0,0,1-1.92-1.27c.19.43-.26.91-.72,1a2.24,2.24,0,0,1-1.29-.45c-.48-.29-1-.74-.91-1.3a1,1,0,0,1,1.2-.55,2.71,2.71,0,0,1,1.16.89c-.26-.38.11-.94.57-1a1.37,1.37,0,0,1,1.16.53c-.52-.28-.63-1,.06-1.11C113.67,99.16,114.43,100.07,114.54,100.45Z" style="fill:#fafafa"></path><path d="M100.38,98.79a.75.75,0,1,1,.37,1.44,1.1,1.1,0,0,1,.79.41.62.62,0,0,1,.17.46.57.57,0,0,1-.56.42,1.56,1.56,0,0,1-.72-.2,1.26,1.26,0,0,1,.71.21.46.46,0,0,1,.11.65.63.63,0,0,1-.6.07,3,3,0,0,1-1.21-.69,1.18,1.18,0,0,1-1,.43.69.69,0,0,1-.58-.83.74.74,0,0,1,.63-.46,1.85,1.85,0,0,1,.8.13,1.53,1.53,0,0,1-.65-.71c-.09-.32.12-.74.44-.71s.56.53.85.71C100.27,99.78,99.6,99.08,100.38,98.79Z" style="fill:#fafafa"></path><path d="M107,97.27a1.48,1.48,0,0,1,.53,1.34,1.54,1.54,0,0,1-.79,1.37,1.26,1.26,0,0,1-1.63-1,1.79,1.79,0,0,1,1-1.8A1,1,0,0,1,107,97.27Z" style="fill:#fafafa"></path><path d="M102.31,96.67l-.18.15A.84.84,0,1,1,103.36,98a.87.87,0,0,1-1.22-.09,1.26,1.26,0,0,1-1.46-.28,1,1,0,0,1,.2-1.39.78.78,0,0,1,1.12.67l.2-.23Z" style="fill:#fafafa"></path><path d="M97.14,97.5a2.73,2.73,0,0,1,.8,1.12.92.92,0,0,1-.53,1.14c-.45.11-.88-.26-1.13-.64A1.38,1.38,0,0,1,96,97.94c.13-.39.7-.63,1-.32Z" style="fill:#fafafa"></path><path d="M104.59,94.79a.75.75,0,0,1,1-.29.92.92,0,0,1,.33,1.09,1.18,1.18,0,0,1-1,.69c-.51.06-1.11-.35-1-.85a1.08,1.08,0,0,1-1,.36,2.4,2.4,0,0,1-1-.38c-.42-.24-.88-.62-.83-1.11a.87.87,0,0,1,.8-.73,1.52,1.52,0,0,1,1.07.4,8,8,0,0,0,.69.62.86.86,0,0,0,.87.13Z" style="fill:#fafafa"></path><polygon points="98.23 117.53 111.03 117.53 112.29 104.62 96.97 104.62 98.23 117.53" style="fill:#f0f0f0"></polygon><polygon points="95.98 105.29 113.41 105.29 113.72 103.57 95.67 103.57 95.98 105.29" style="fill:#fafafa"></polygon><polygon points="437.19 361.56 436.24 382.01 433.99 382.01 431.03 366.39 437.19 361.56" style="fill:#e6e6e6"></polygon><polygon points="375.04 361.36 375.98 381.82 379.2 381.82 382.17 366.19 375.04 361.36" style="fill:#ebebeb"></polygon><polygon points="383.85 366.19 364.52 366.19 356.68 278.31 378.9 278.31 383.85 366.19" style="fill:#e6e6e6"></polygon><polygon points="366.09 361.56 367.04 382.01 369.29 382.01 372.26 366.39 366.09 361.56" style="fill:#e6e6e6"></polygon><polygon points="453.56 361.56 452.62 382.01 449.4 382.01 446.43 366.39 453.56 361.56" style="fill:#ebebeb"></polygon><polygon points="375.07 366.19 370.43 278.71 382.53 278.71 458.18 278.71 453.6 366.19 383.85 366.19 380.52 366.19 375.07 366.19" style="fill:#f5f5f5"></polygon><polygon points="380.32 361.36 448.51 361.36 451.88 284.2 376.98 284.2 380.32 361.36" style="fill:#fafafa"></polygon><polygon points="380.05 306.47 448.11 306.47 448.87 287.92 379.3 287.92 380.05 306.47" style="fill:#ebebeb"></polygon><polygon points="382.44 359.06 446.15 359.06 448.19 308.77 380.41 308.77 382.44 359.06" style="fill:#ebebeb"></polygon><path d="M411.12,296.3a3.14,3.14,0,1,0,3.11-2.69A2.92,2.92,0,0,0,411.12,296.3Z" style="fill:#f5f5f5"></path><path d="M376.47,278h25.45a5.31,5.31,0,0,0,3-1.09H373.47A5.32,5.32,0,0,0,376.47,278Z" style="fill:#ebebeb"></path><path d="M378.2,262.39l.55,1a3.65,3.65,0,0,1,.47,1.79v5.62c0,3.44,3.76,6.24,8.38,6.24h1.22c3.37,0,6.25-1.49,7.58-3.62a2.7,2.7,0,0,0,1.06-.47l3.26-2.43a1.71,1.71,0,0,0,.76-1.36v-3c0-1.05-1.16-1.91-2.57-1.91h-1.72c-.09-.2.1-.52.35-.84l.07-.07a9.17,9.17,0,0,1,.89-.86l.06-.05s-.14-.71-1.86-.35c-.5.11-1,.23-1.4.35l-.19.05h0l-.13,0a7.09,7.09,0,0,0-4.46-.07,7.05,7.05,0,0,0-4.12,0l.33.11h-.64l.31-.11a7.19,7.19,0,0,0-4.33.11h-.59c-.43-.12-.92-.24-1.41-.35C378.35,261.68,378.2,262.39,378.2,262.39Zm18.9,9.68c0-.07.07-4.51.08-6.41,0-.45.51-.83,1.14-.83H399c.89,0,1.61.55,1.61,1.21v2.76c0,.92,0,.88-.91,1.53Z" style="fill:#ebebeb"></path><path d="M380.64,244.3c.42,2.19,2.17,3.85,3.94,5.21s3.7,2.63,4.8,4.56,1,4.79-.91,6a6.66,6.66,0,0,0,.63-11.29c-1.6-1.12-3.7-1.54-5-3a5.89,5.89,0,0,1-1.18-4.93,26.92,26.92,0,0,1,1.48-4.15C382,237.3,380.18,241.86,380.64,244.3Z" style="fill:#f5f5f5"></path><path d="M386.22,238.45a15.6,15.6,0,0,0,2.07-5.37c.23-1.91-2-5.1-2-5.1a8.09,8.09,0,0,1,1.88,11.92,15.27,15.27,0,0,1-3.39,3C384.41,241.37,385.49,239.82,386.22,238.45Z" style="fill:#f5f5f5"></path><path d="M438.94,278.68H412.23V263.35A13.35,13.35,0,0,1,425.58,250h0a13.36,13.36,0,0,1,13.36,13.35Z" style="fill:#e6e6e6"></path><path d="M444,278.68H417.32V263.35A13.35,13.35,0,0,1,430.67,250h0A13.36,13.36,0,0,1,444,263.35Z" style="fill:#f0f0f0"></path><circle cx="430.51" cy="264.06" r="11.27" style="fill:#fff"></circle><path d="M439.39,264.06a9,9,0,1,1-9-9A9,9,0,0,1,439.39,264.06Z" style="fill:#e6e6e6"></path><path d="M431.41,264.27a1,1,0,0,1-2,0,1,1,0,1,1,2,0Z" style="fill:#fafafa"></path><polygon points="430.32 264.63 426.19 260.73 426.59 260.31 430.34 263.83 437.06 257.9 437.44 258.34 430.32 264.63" style="fill:#fafafa"></polygon></g><g id="background-simple"><path d="M259.68,35.31c-36.12,12.54-61.88,50.18-60.5,88.38.48,13.22,3.86,26.5,1.5,39.51-2.8,15.44-13.37,28.41-25.33,38.56s-25.58,18.21-37.5,28.42c-22.46,19.25-38.47,46.75-40.9,76.23s9.82,60.49,33.67,78,59,19.32,83,2c26.67-19.3,34.95-55.68,58.11-79.08,19.41-19.61,47.35-28.23,68.92-45.44,28.19-22.48,43.4-58.57,45.86-94.53,2-29.61.86-85.32-42-117.74a94.27,94.27,0,0,0-38.08-17A89,89,0,0,0,259.68,35.31Z" style="fill:#407BFF"></path><path d="M259.68,35.31c-36.12,12.54-61.88,50.18-60.5,88.38.48,13.22,3.86,26.5,1.5,39.51-2.8,15.44-13.37,28.41-25.33,38.56s-25.58,18.21-37.5,28.42c-22.46,19.25-38.47,46.75-40.9,76.23s9.82,60.49,33.67,78,59,19.32,83,2c26.67-19.3,34.95-55.68,58.11-79.08,19.41-19.61,47.35-28.23,68.92-45.44,28.19-22.48,43.4-58.57,45.86-94.53,2-29.61.86-85.32-42-117.74a94.27,94.27,0,0,0-38.08-17A89,89,0,0,0,259.68,35.31Z" style="fill:#fff;opacity:0.9"></path></g><g id="Shadow"><ellipse id="path" cx="250" cy="415.69" rx="193.89" ry="11.32" style="fill:#f5f5f5"></ellipse></g><g id="speech-bubble"><path d="M289.81,292.71l3.2.78a49.63,49.63,0,0,1,10,3.23l.42.21c3.15,1.52,7.07,3.41,7.9,10,.11.83.57,1.73,1.54,1.77,29.25,1.41,52.31,17.65,51.41,36.21s-25.42,32.5-54.64,31.1-52.29-17.65-51.39-36.21c.57-11.85,11.07-22.47,27.41-27.72.46-.19,1.36-.43,2.49-.73,4.08-1.07,11.67-3.07,13.57-7,.94-1.95-.57-4.47-2.47-5.84a22.41,22.41,0,0,0-3.2-1.79,22.26,22.26,0,0,1-3.57-2Zm23.88,82.09c26.71,0,48.43-12.95,49.25-29.94.86-17.82-21.64-33.44-50.14-34.81a3.08,3.08,0,0,1-2.8-2.94c-.74-5.89-4.16-7.54-7.16-9l-.43-.21a31.84,31.84,0,0,0-4.44-1.72,16.91,16.91,0,0,1,2,1.22c2.39,1.73,4.15,4.87,2.89,7.5-2.18,4.51-10.15,6.62-14.43,7.75a22.41,22.41,0,0,0-2.38.69c-15.84,5.09-26,15.25-26.54,26.53-.86,17.83,21.63,33.45,50.13,34.83C311,374.77,312.37,374.8,313.69,374.8Z" style="fill:#407BFF"></path><path d="M292.63,326.9c0-4.21,2-7.92,7.22-7.92s7.25,3.2,7.25,7.92-2,8.33-7.25,8.33C294.46,335.23,292.63,331.72,292.63,326.9Zm11.89.27c0-4.48-.65-7.88-4.65-7.88s-4.67,3.62-4.67,7.88c0,4.43.65,7.75,4.67,7.75S304.52,331.26,304.52,327.17Z" style="fill:#263238"></path><path d="M309.09,324.59h-1.68v-.36h3.8v8.14c0,1.8.41,2.43,1.71,2.43,2.68,0,3.52-2.82,3.52-4.07v-6.14h-1.69v-.36h3.81V334.7h1.68v.37h-3.75v-2.58h-.05a3.88,3.88,0,0,1-3.88,2.74c-2.38,0-3.47-1-3.47-3.29Z" style="fill:#263238"></path><path d="M320,334.7h1.68V324.59H320v-.36h3.75v2.55h0c.43-1.25,1.4-2.72,3.11-2.72a2.15,2.15,0,0,1,2.28,2.19,1.73,1.73,0,0,1-1.71,1.91,1.65,1.65,0,0,1-.81-.15v-.19c.69.12.81-.75.81-1.42,0-1.21-.38-1.83-1.1-1.83a2.35,2.35,0,0,0-1.76,1.32,5.61,5.61,0,0,0-.82,2.67v6.14h1.93v.37H320Z" style="fill:#263238"></path><path d="M289.88,357.9H292V342.71h-3.35c-1.13,0-1.45.48-1.64,2.24l-.22,1.9h-.36s.15-2.17.15-3v-1.51H299.8v1.51c0,.82.1,3,.1,3h-.36l-.17-1.9c-.15-1.76-.51-2.24-1.64-2.24h-3.35V357.9h2.15v.36h-6.65Z" style="fill:#263238"></path><path d="M300.79,352.92c0,4.09,1,5.15,2.86,5.15a3.15,3.15,0,0,0,3.4-2.91h.38a3.19,3.19,0,0,1-2.26,3,4.71,4.71,0,0,1-1.73.29c-3,0-4.89-1.61-4.89-5.56s2-5.61,4.86-5.61c2.72,0,4.27,1.35,4.27,4.33v1h-6.89Zm4.79-.72v-1c0-2.26-.46-3.66-2.17-3.66s-2.52,1.59-2.6,4.63Z" style="fill:#263238"></path><path d="M315,356.46a3.69,3.69,0,0,1-3.37,2c-1.54,0-3.25-.7-3.25-2.7,0-2.6,3.3-3.44,6.21-3.44h.25v-2.53c0-1.42-.39-2.19-2-2.19s-2.26.56-2.26,1.83c0,.8.33,1.47,1.13,1.3v.19a3.19,3.19,0,0,1-.94.15,1.61,1.61,0,0,1-1.83-1.57c0-1.32,1.37-2.21,3.9-2.21,2.91,0,4.09,1.2,4.09,3.3v6.28c0,.7.15,1.09.65,1.09.82,0,1.14-.8,1.14-1.67h.36c0,1.45-.8,2.17-1.93,2.17a1.94,1.94,0,0,1-2.12-2Zm-.16-3.81h-.44a5,5,0,0,0-2.5.53,2.7,2.7,0,0,0-1.23,2.6c0,1.59.51,2.24,1.4,2.24a2.77,2.77,0,0,0,1.56-.55,2.56,2.56,0,0,0,1.21-1.74Z" style="fill:#263238"></path><path d="M318.44,357.9h1.68V347.79h-1.68v-.36h3.75V350h.05a3.89,3.89,0,0,1,3.88-2.7c2.16,0,3.25.84,3.42,2.7h0a3.9,3.9,0,0,1,3.88-2.7c2.38,0,3.47,1,3.47,3.3v7.34h1.68v.36h-5.32v-.36h1.52v-7.78c0-1.8-.41-2.43-1.71-2.43-2.6,0-3.47,2.7-3.52,4v6.21h1.52v.36H326v-.36h1.52v-7.78c0-1.8-.41-2.43-1.71-2.43-2.65,0-3.52,2.84-3.52,4.1v6.11h1.52v.36h-5.32Z" style="fill:#263238"></path></g><g id="character-5"><ellipse cx="317" cy="240.71" rx="47.66" ry="37.87" style="fill:#407BFF"></ellipse><path d="M364.66,240.71c0,15-11,28-26.9,34.1a56.16,56.16,0,0,1-10.26,2.85h0a58.46,58.46,0,0,1-7.82.86h0c-.88,0-1.76.06-2.65.06a57.93,57.93,0,0,1-20.53-3.68h0c-16-6.1-27.13-19.12-27.13-34.19,0-20.91,21.34-37.87,47.67-37.87S364.66,219.8,364.66,240.71Z" style="fill:#fff;opacity:0.2"></path><ellipse cx="317.57" cy="240.71" rx="40.86" ry="32.47" style="fill:#fff;opacity:0.9"></ellipse><path d="M301.12,270.44a44.23,44.23,0,0,1-5.71-2.46,39.47,39.47,0,0,1-7.89-5.27c-.08-.2-.15-.39-.22-.59-1.66-4.65-1-9.88.83-14.48.75-1.91,3.79-9.22,6.63-11.44a2.33,2.33,0,0,1,1.8-.6c1.08.2,1.72,1.13,2.09,2.42a13.91,13.91,0,0,1,.4,3.61,38.9,38.9,0,0,1-.75,7.06c-.95,4.79-2.24,10-.17,14.39.8,1.7,2.05,3.17,2.69,4.93A5.57,5.57,0,0,1,301.12,270.44Z" style="fill:#ffb573"></path><path d="M296.08,231.24A6.81,6.81,0,0,0,294,235.6c0,1.84,1.27,3.41,2.46,4.82s3,3.17,4.92,2.7,2.63-2.58,3.07-4.42a74.63,74.63,0,0,0,1.49-8.51C306.89,222.11,298.48,228.55,296.08,231.24Z" style="fill:#263238"></path><path d="M338.75,268.48a48.78,48.78,0,0,1-21.18,4.7,49.88,49.88,0,0,1-16.45-2.74,44.23,44.23,0,0,1-5.71-2.46c.19-14.07,1.37-22.22,2.65-27.64.2-.84.39-1.6.59-2.32.83-3.05,1.65-5.14,2.18-7.17a5.62,5.62,0,0,1,.19-.58,7,7,0,0,1,6.09-4.58c.57-.05,1.17-.08,1.8-.11.83,0,1.7-.05,2.59-.05h.93a125.67,125.67,0,0,1,13.41,1.41l1.07.17,1.2.2c1.41.26,2.79.56,4.07.86.08,0,1.8,0,1.87.06a5.9,5.9,0,0,1,4.21,4.71h0a6,6,0,0,1,.06,1.47,5.85,5.85,0,0,1-.2,1.08l.18,1.55.09.85.06.59v.06c.18,1.68.32,3.29.45,4.82l0,.35A122.09,122.09,0,0,1,338.75,268.48Z" style="fill:#407BFF"></path><path d="M338.75,268.48a48.78,48.78,0,0,1-21.18,4.7,49.88,49.88,0,0,1-16.45-2.74,44.23,44.23,0,0,1-5.71-2.46c.19-14.07,1.37-22.22,2.65-27.64.2-.84.39-1.6.59-2.32.83-3.05,1.65-5.14,2.18-7.17a5.62,5.62,0,0,1,.19-.58,7,7,0,0,1,6.09-4.58c.57-.05,1.17-.08,1.8-.11.83,0,1.7-.05,2.59-.05h.93a125.67,125.67,0,0,1,13.41,1.41l1.07.17,1.2.2c1.41.26,2.79.56,4.07.86.08,0,1.8,0,1.87.06a5.9,5.9,0,0,1,4.21,4.71h0a6,6,0,0,1,.06,1.47,5.85,5.85,0,0,1-.2,1.08l.18,1.55.09.85.06.59v.06c.18,1.68.32,3.29.45,4.82l0,.35A122.09,122.09,0,0,1,338.75,268.48Z" style="fill:#fff;opacity:0.5"></path><path d="M310.43,224.26a4.77,4.77,0,0,0-2,2.05,17.72,17.72,0,0,0-2.43,9.88,3.63,3.63,0,0,1,6.67-.73c.58,1.06.95,2.65,2.16,2.64a2.32,2.32,0,0,0,1.27-.56l8.69-6.25a10,10,0,0,0,2.82-2.66,3.33,3.33,0,0,0,0-3.67,4.34,4.34,0,0,0-1.53-.94,17.62,17.62,0,0,0-11.59-.84Z" style="fill:#263238"></path><path d="M325.22,215.64c1.1,9.07,1.73,12.62-1.71,13.58-2.87.79-5.47,2.34-8.34,3.15A4,4,0,0,1,310,229a3.18,3.18,0,0,1,.9-2.7c2.45-3.2,2.25-5.19,4.42-8.44l7.45-4.27C324.05,212.79,325.55,214,325.22,215.64Z" style="fill:#ffb573"></path><path d="M323.91,215.64c.33-1.66-1.17-2.85-2.43-2L314,217.89c.38,1.65-1,4.29-1.52,5.9,1.47.35,4.35-.58,5.82-.93a9.78,9.78,0,0,0,5-2.86A37.81,37.81,0,0,1,323.91,215.64Z" style="opacity:0.2;isolation:isolate"></path><path d="M331.63,208.4c-.27,1-.5,1.9-.73,2.75-1.23,4.56-2.26,7.52-5.79,9.62-6.32,3.75-14.43-.83-14.85-7.45-.38-5.93,2.44-15,9.83-16.12,6-.89,11,3,11.72,7.78A8,8,0,0,1,331.63,208.4Z" style="fill:#ffb573"></path><path d="M320.85,206.38c-.21.52-.67.83-1,.68s-.44-.68-.22-1.2.67-.82,1-.68S321.08,205.87,320.85,206.38Z" style="fill:#263238"></path><path d="M314.77,205.23c-.22.52-.67.82-1,.68s-.44-.68-.21-1.21.67-.82,1-.67S315,204.73,314.77,205.23Z" style="fill:#263238"></path><path d="M322.79,205.12a.34.34,0,0,1-.25-.24A2.59,2.59,0,0,0,321,203a.33.33,0,0,1-.21-.42h0a.34.34,0,0,1,.42-.21h0a3.32,3.32,0,0,1,1.95,2.31.35.35,0,0,1-.24.41Z" style="fill:#263238"></path><path d="M312.39,202a.32.32,0,0,1-.24-.4.27.27,0,0,1,.1-.17,3.3,3.3,0,0,1,2.91-.83.34.34,0,0,1,.24.41h0a.32.32,0,0,1-.4.23h0a2.65,2.65,0,0,0-2.3.65A.32.32,0,0,1,312.39,202Z" style="fill:#263238"></path><path d="M315.15,206.19a17.11,17.11,0,0,1-3.55,3.13,2.85,2.85,0,0,0,2,1.18Z" style="fill:#ff5652"></path><path d="M312.21,212.24a51.6,51.6,0,0,1,8.86.28c-1,1.69-2.55,3-5.88,2.69S312.21,212.24,312.21,212.24Z" style="fill:#263238"></path><path d="M316.9,214a6.69,6.69,0,0,0-3.72.54,3.67,3.67,0,0,0,2,.7,6.6,6.6,0,0,0,3.72-.53A3.76,3.76,0,0,0,316.9,214Z" style="fill:#ff5652"></path><path d="M312.51,212.22a1.26,1.26,0,0,0,.91,1,38.73,38.73,0,0,0,5.8,0,1.9,1.9,0,0,0,1.56-.74A60.11,60.11,0,0,0,312.51,212.22Z" style="fill:#fff"></path><path d="M333.1,196.34a5.63,5.63,0,0,0-4.07-4.57,3.73,3.73,0,0,0,1.07,3.68,17.34,17.34,0,0,0-4.23-3.83,1.78,1.78,0,0,0-1.46-.38,1.22,1.22,0,0,0-.59,1.54,2.88,2.88,0,0,0,1.2,1.34,6.08,6.08,0,0,0-6.77-2.87,1.7,1.7,0,0,0,1.39,2.39,6.05,6.05,0,0,0-2.45-.95,2.17,2.17,0,0,0-2.21,1.12c-.35.81.27,1.95,1.15,1.87a1.52,1.52,0,0,0-2.12,1,1.8,1.8,0,0,0,1.41,2,2.23,2.23,0,0,0,2.31-1.13,1.57,1.57,0,0,0-.83,2.13,1.79,1.79,0,0,0,2.22.77,2.07,2.07,0,0,0,1.18-2.1,1.38,1.38,0,1,0,2.57.29,5.16,5.16,0,0,0,3.13,4.68,3.07,3.07,0,0,0-.53-2.86,4,4,0,0,0,3.25,2.64v-1.65a4.09,4.09,0,0,0,3.6,3.65,2.28,2.28,0,0,0-.69-2.15,1.74,1.74,0,0,0,2.61,1,2.83,2.83,0,0,0,1-3,8.13,8.13,0,0,0-1.55-2.95,2.33,2.33,0,0,1,2.24,1.7,1.77,1.77,0,1,0-2.61-2.33,2.37,2.37,0,0,0-.93-2Z" style="fill:#263238"></path><path d="M331.63,208.4c-.27,1-.5,1.9-.73,2.75a3.87,3.87,0,0,0-3,2c.73-1.41.51-4.1.51-5.64,0-1.38-.82-2.75-.81-3.95,0-2.87,2.8-.62,4.21,1.4A8,8,0,0,1,331.63,208.4Z" style="opacity:0.2;isolation:isolate"></path><path d="M338.94,243.71a12.54,12.54,0,0,1-5.15,3c-6.9,2.31-23.4,6.55-29,1.92a3.2,3.2,0,0,1-1.3-1.9,1.17,1.17,0,0,1,0-.49c.28-1.11,1.7-1.37,2.84-1.45,4.86-.32,10.06-.61,15.15-1.35a51,51,0,0,0,14-3.82l-1.24.77a8.81,8.81,0,0,0,3.39-2.22l.45.15.19.07.21.1Z" style="opacity:0.2;isolation:isolate"></path><path d="M336.15,241.18l-.94.56-.89.5c-.58.32-1.16.61-1.74.89-1.17.57-2.34,1.1-3.54,1.6a53,53,0,0,1-7.4,2.45,43.66,43.66,0,0,1-7.87,1.29,34.67,34.67,0,0,1-8.27-.36l-.39-.07c-2.77-1.82-6.15-6.59-7.6-8.39s-2.73-3.41-4-5.13c-2.58-3.47-5.79-8.24-8-11.94-.8-1.31.37-1.74,1.67-2.53,1-.63,1.46-1.32,2.37-.52l.9.81c3.18,2.82,6.23,5.76,9.29,8.66l4.53,4.29c.76.71,1.5,1.39,2.25,2.05l1.1.93,1,.82L306.06,236a33.66,33.66,0,0,0,11.95-1.6,57,57,0,0,0,6-2.18c1-.41,2-.84,2.91-1.29l1.44-.71.68-.36.6-.32.3-.15a5.5,5.5,0,0,1,7.5,2.09c1.49,2.65,1.3,8.25-1.35,9.74h0Z" style="fill:#ffb573"></path><path d="M289.31,219.84,288.19,214,281,217.31s1.51,5.27,4.81,5.16Z" style="fill:#ffb573"></path><path d="M284.28,212.23l-2.15,1.68a3.12,3.12,0,0,0-1.09,3.4l.67,1.81,8.3-3.66-2.52-3.07A2.23,2.23,0,0,0,284.28,212.23Z" style="fill:#ffb573"></path><path d="M289.31,219.84S291,215,292,213.9c.65-.64-.18-1.06-.94-1.3a1.51,1.51,0,0,0-1.63.49c-1,1.26-2.81,3.75-1.93,4.65A16,16,0,0,1,289.31,219.84Z" style="fill:#ffb573"></path><path d="M321.69,243.84a5.44,5.44,0,0,0,1.47,2.19,5,5,0,0,0,3.93.53,16,16,0,0,0,8.36-3.85,9.82,9.82,0,0,0,3.18-8.39,7.15,7.15,0,0,0-6.18-6,12.31,12.31,0,0,0-5.46,1.38c-2.26,1-7.88,2.12-8.77,4.72S320.64,241.56,321.69,243.84Z" style="fill:#263238"></path><path d="M331.84,213.36a5.18,5.18,0,0,1-3.45,1.61c-1.65,0-1.81-1.66-.82-3.15.89-1.33,2.81-2.94,4.19-2.28S333,212.13,331.84,213.36Z" style="fill:#ffb573"></path><path d="M367,239.81a30.52,30.52,0,0,0-5.9-17.71l.81-.59A31.53,31.53,0,0,1,368,239.8Z" style="fill:#407BFF"></path><path d="M365.83,252.05l-.91-.42a23.56,23.56,0,0,0,2-6.57l1,.15A24.47,24.47,0,0,1,365.83,252.05Z" style="fill:#407BFF"></path></g><g id="character-4"><path d="M340,109.38c-.95,1.54-.62,3.75,0,6.36a41.77,41.77,0,0,1,1.56,9.34,22.87,22.87,0,0,1-.33,3.72c-.13.79-.29,1.56-.46,2.32-.89,4-2.08,7.51-.74,9.66a4.09,4.09,0,0,0,.78.89c-1.68,0-3.4-.09-5.15-.21V179H274.14V133.41a182.53,182.53,0,0,1-4.09-18.84c.42-2.1.53-3.89-.28-5.19a.67.67,0,0,0-.21-.2,11.33,11.33,0,0,1-1.12-.53c-1.86-1.47,0-5.34,0-5.34l.77-.21c1.45-.34,4.56-.9,6,.21a3.84,3.84,0,0,1,1.05,1.26c1.31-.2,2.87-.38,4.65-.54,3.71-.33,8.37-.59,13.61-.74l2-.05,3.31,0c.69,0,1.38,0,2.09,0l2.17,0h2.65c.86,0,1.71,0,2.55,0l1.73,0,1.29,0,1.65,0,1,0,.43,0h.33a1.76,1.76,0,0,1,.23,0l1.39,0,1.11,0c2.51.1,4.85.22,7,.37,3.29.22,6.08.49,8.18.81a3.84,3.84,0,0,1,1.05-1.26c1.86-1.47,6.73,0,6.73,0s1.86,3.87,0,5.34C340.89,109,340.19,109,340,109.38Z" style="fill:#407BFF"></path><path d="M340,109.38c-.95,1.54-.62,3.75,0,6.36a41.77,41.77,0,0,1,1.56,9.34,22.87,22.87,0,0,1-.33,3.72c-.13.79-.29,1.56-.46,2.32-.89,4-2.08,7.51-.74,9.66a4.09,4.09,0,0,0,.78.89c-1.68,0-3.4-.09-5.15-.21V179H274.14V133.41a182.53,182.53,0,0,1-4.09-18.84c.42-2.1.53-3.89-.28-5.19a.67.67,0,0,0-.21-.2,11.33,11.33,0,0,1-1.12-.53c-1.86-1.47,0-5.34,0-5.34l.77-.21c1.45-.34,4.56-.9,6,.21a3.84,3.84,0,0,1,1.05,1.26c1.31-.2,2.87-.38,4.65-.54,3.71-.33,8.37-.59,13.61-.74l2-.05,3.31,0c.69,0,1.38,0,2.09,0l2.17,0h2.65c.86,0,1.71,0,2.55,0l1.73,0,1.29,0,1.65,0,1,0,.43,0h.33a1.76,1.76,0,0,1,.23,0l1.39,0,1.11,0c2.51.1,4.85.22,7,.37,3.29.22,6.08.49,8.18.81a3.84,3.84,0,0,1,1.05-1.26c1.86-1.47,6.73,0,6.73,0s1.86,3.87,0,5.34C340.89,109,340.19,109,340,109.38Z" style="fill:#fff;opacity:0.2"></path><path d="M341.29,185.05s-4.87,1.48-6.73,0c-.47-.37-.5-1-1.05-1.25-5.1-2.22-16.4,1.42-28.65,1.42s-23.55-3.64-28.64-1.42c-.55.23-.58.88-1.05,1.25-1.86,1.48-6.73,0-6.73,0s-1.86-3.86,0-5.34c.4-.31,1.1-.35,1.33-.72,2-3.17-1.53-9.2-1.53-15.71s3.5-12.53,1.53-15.69c-.78-1.27-2.72-1.9-2.72-3.41s1.94-2.13,2.72-3.4c2-3.16-1.53-9.19-1.53-15.7,0-3.83,1.21-7.5,1.81-10.51a182.53,182.53,0,0,0,4.09,18.84V179h61.45v-37.5c1.75.12,3.47.2,5.15.21.87.76,1.94,1.4,1.94,2.51,0,1.51-1.94,2.14-2.72,3.41-2,3.16,1.53,9.19,1.53,15.69S338,175.82,340,179c.24.37.94.41,1.34.72C343.15,181.19,341.29,185.05,341.29,185.05Z" style="fill:#407BFF;opacity:0.9"></path><rect x="274.14" y="109.83" width="61.45" height="69.13" style="fill:#fff;opacity:0.9"></rect><rect x="346.33" y="177" width="1" height="5.99" style="fill:#407BFF"></rect><rect x="346.33" y="145.06" width="1" height="26.94" style="fill:#407BFF"></rect><path d="M322.21,101.7c-4.6-1.48-7.14.93-7.09,2.31s.33,3.72.33,3.72c1.63,1.06,5.18,3.66,6.86,4.24a7.17,7.17,0,0,0,4.72.15,3.68,3.68,0,0,0,2.52-2.94c.08-1.44-1.47-3.16-2.59-4C325.67,104.2,324.11,102.31,322.21,101.7Z" style="fill:#b25b52"></path><path d="M358.31,134.13a3.21,3.21,0,0,1-.13,1.15.2.2,0,0,1,0,.11,4.44,4.44,0,0,1-.91,1.66,10.34,10.34,0,0,1-3.58,2.48,24.73,24.73,0,0,1-8.43,2h-.1c-1.42.11-2.89.15-4.39.14-1.68,0-3.4-.09-5.15-.21-2.89-.2-5.83-.51-8.73-.83h-.09c-1.9-.2-3.77-.41-5.6-.59-1.61-.16-3.27-5.59-3.88-6.94a13.66,13.66,0,0,1-.59-1.47,4.66,4.66,0,0,1-.35-2.17c.13-.86.73-1.47,2-1.81a21,21,0,0,1,6.4-.15c2.71.23,6.68.54,10.82.87l2.48.19,3.09.25c3.52.29,6.79.56,9.13.78a17.72,17.72,0,0,1,4.6.85,6.21,6.21,0,0,1,2.66,1.82l.12.16a2.65,2.65,0,0,1,.37.65.66.66,0,0,1,.09.19.74.74,0,0,1,0,.14,1.8,1.8,0,0,1,.1.4.76.76,0,0,1,0,.21A.57.57,0,0,1,358.31,134.13Z" style="fill:#263238"></path><path d="M345.22,141.52h-.09c-1.42.11-2.89.15-4.39.14-1.68,0-3.4-.09-5.15-.21-2.89-.2-5.83-.51-8.73-.83h-.09c-.27-2.88-1.54-8.59-1.54-8.59C334.64,141.19,344.83,141.51,345.22,141.52Z" style="opacity:0.2;isolation:isolate"></path><path d="M339.51,126.65c-.63,1.11-1.3,3.7-.73,4.85,2.36,4.75,8.64,6.22,13.92,6.76.07-1.34-2.23-.58-3.1-1.59l-5.94-7C342.53,128.38,341.24,123.64,339.51,126.65Z" style="opacity:0.2;isolation:isolate"></path><path d="M325.25,114.28c.67,1.68,4.39,5.38,5.58,6.74,3.57,4.09,9.89,10.17,13.86,13.88a8.8,8.8,0,0,0,9.81,3.75c2.28-.7,4.41-3,3.68-5.24a6.15,6.15,0,0,0-1.8-2.41c-5.58-5.33-13.83-12.71-19.41-18-1.92-1.84-3.53-5.21-6.41-4.4C326.62,109.66,325.38,111.36,325.25,114.28Z" style="fill:#263238"></path><path d="M326.89,139.54l0,1.09c-.25,8.42-.56,18.8-.95,31.94-.05,1.59.4,4.44,0,6.39H288.43c-1.24-5.16-11.21-32.2-12.63-39.41-.05-.24-.09-.52-.13-.82v0c-.42-3.31-.15-9.73,3-11.65,2.69-1.61,5.94-1.92,9.22-1.85H288c2.33.05,4.69.29,6.85.38h.34c4.05.15,8.05-.11,12.09,0a44.36,44.36,0,0,1,4.84.43c.65.1,1.3.21,1.95.35a30.62,30.62,0,0,1,4.32,1.22,15.14,15.14,0,0,1,6.86,4.39C327,134.33,327,136.91,326.89,139.54Z" style="fill:#263238"></path><path d="M313.07,128.56a7.52,7.52,0,0,1,4.48,1.69c-4.35,7.29-10.47,12.25-10.74,12-7-2.34-15.43-6.51-20.07-12.35a8.75,8.75,0,0,1,2.89-1.76c-2.21-3-3.06-6.18-.94-9,1.41-1.86,4.09-2.57,6.54-2.43a33.55,33.55,0,0,1,7.1,1.64,47.83,47.83,0,0,0,18.6,1.41A16.3,16.3,0,0,0,313.07,128.56Z" style="fill:#407BFF"></path><path d="M313.07,128.56a7.52,7.52,0,0,1,4.48,1.69c-4.35,7.29-10.47,12.25-10.74,12-7-2.34-15.43-6.51-20.07-12.35a8.75,8.75,0,0,1,2.89-1.76c-2.21-3-3.06-6.18-.94-9,1.41-1.86,4.09-2.57,6.54-2.43a33.55,33.55,0,0,1,7.1,1.64,47.83,47.83,0,0,0,18.6,1.41A16.3,16.3,0,0,0,313.07,128.56Z" style="fill:#fff;opacity:0.5"></path><path d="M301.31,82.82l-.82.56c-3.7,2.62-9.68,7.37-18.83,17.86a2.68,2.68,0,0,0-.89,2.19c0,.19.07.39.1.6.25,1.55.48,3.44,1.06,5.8.26,1.07.6,2.25,1,3.52,2.95,8.54,4.36,11,5,11.86a1.4,1.4,0,0,0,.12.18.05.05,0,0,0,0,0,1.33,1.33,0,0,1,.18.31,1.73,1.73,0,0,1,.08.27,7.7,7.7,0,0,1-.63,3.13c-.15.41-.32.85-.51,1.3-2.42,5.81-7.9,14.44-9.33,13.63-.45-.25-1.26-2.32-2.19-5.34v0c-.48-1.55-1-3.36-1.52-5.3a182.53,182.53,0,0,1-4.09-18.84c-.16-1.16-.27-2.17-.31-3s-.11-1.62-.18-2.39a50.53,50.53,0,0,1-.35-6.08,13.32,13.32,0,0,1,2.34-7.35c4.65-6.93,12.2-10.78,19.15-15.29a8.4,8.4,0,0,1,4.78-1.78,3.12,3.12,0,0,1,.44,0C298.16,79.06,299.86,81,301.31,82.82Z" style="fill:#263238"></path><path d="M298.11,111.55l10.48,7.38c-1.75,3-2.89,6.28.22,8.45a3.86,3.86,0,0,1,.91,5.37l-.16.21c-1.4,1.7-4.61,6-4.61,6s-8.62-7.07-10.49-9.84c-.77-1.14.36-2.13.69-3.49C296.41,120.9,298,116,298.11,111.55Z" style="fill:#b25b52"></path><path d="M303.18,113.52l5.41,5.41a15.17,15.17,0,0,0-1.27,2.63c-2.69.42-6.3-2.47-6-4.68A9.64,9.64,0,0,1,303.18,113.52Z" style="opacity:0.2;isolation:isolate"></path><path d="M296.52,101.77c-.29,6.92-.79,10.93,2.32,14.78,4.69,5.78,13.5,3.42,15.83-3.28,2.1-6,2.2-16.3-4.25-19.66a9.51,9.51,0,0,0-13.9,8.16Z" style="fill:#b25b52"></path><path d="M294.64,96.78c-.48,2.83-.9,5.94.6,8.38.9,1.45,2.46,2.66,2.5,4.36,1.07-3.12,3.26-8.7,2.38-12C299.42,94.85,295.24,93.16,294.64,96.78Z" style="fill:#263238"></path><path d="M293.32,107.76a6.47,6.47,0,0,0,3.3,3.43c1.89.81,2.9-1.06,2.44-3.19-.43-1.91-1.91-4.68-3.85-4.52S292.51,105.82,293.32,107.76Z" style="fill:#b25b52"></path><path d="M305.36,104.42c-.09.55.19,1,.56,1.07s.71-.38.76-.95-.19-1-.56-1.07S305.42,103.87,305.36,104.42Z" style="fill:#263238"></path><path d="M313,105.07c-.05.56.2,1.05.57,1.07s.71-.38.76-.94-.19-1-.56-1.08S313,104.52,313,105.07Z" style="fill:#263238"></path><path d="M311.65,105.44a19.52,19.52,0,0,0,2.19,5,3.25,3.25,0,0,1-2.72.26Z" style="fill:#9d2724"></path><path d="M308.94,100.53a.22.22,0,0,1,.05.16.34.34,0,0,1-.3.35,3.34,3.34,0,0,1-2.81-1.14.32.32,0,0,1,.08-.45h0a.36.36,0,0,1,.47.08h0a2.62,2.62,0,0,0,2.23.88A.31.31,0,0,1,308.94,100.53Z" style="fill:#263238"></path><path d="M310,102.39a.45.45,0,0,1-.1-.14.33.33,0,0,1,.19-.42,3.36,3.36,0,0,1,3,.23.34.34,0,0,1,.08.46h0a.35.35,0,0,1-.47.08h0a2.68,2.68,0,0,0-2.39-.17A.33.33,0,0,1,310,102.39Z" style="fill:#263238"></path><rect x="296.25" y="102.55" width="6.97" height="0.75" transform="translate(-12.39 48.04) rotate(-8.98)" style="fill:#263238"></rect><path d="M310,103.74a.3.3,0,0,1-.1-.14.33.33,0,0,1,.19-.42,3.33,3.33,0,0,1,3,.24.33.33,0,0,1,.08.45h0a.34.34,0,0,1-.47.07h0a2.65,2.65,0,0,0-2.39-.16A.31.31,0,0,1,310,103.74Z" style="fill:#263238"></path><path d="M316.91,100.35a.36.36,0,0,1-.29-.11,2.57,2.57,0,0,0-2.18-.95.33.33,0,1,1-.08-.65,3.23,3.23,0,0,1,2.77,1.16.34.34,0,0,1-.08.46A.42.42,0,0,1,316.91,100.35Z" style="fill:#263238"></path><path d="M310.4,101.64c1,.3,1.3,7.83-3.81,7.37-4.29-.38-5.44-4.66-4.74-5.86C303.84,99.76,309.06,101.21,310.4,101.64Z" style="fill:#263238"></path><path d="M312.55,101.94c-.66.26-.61,8.23,3,8,3.08-.19,3.29-4.49,3-5.93C317.18,101,313.5,101.54,312.55,101.94Z" style="fill:#263238"></path><g style="opacity:0.2"><path d="M308.6,101.41l1.83,5.25a3.79,3.79,0,0,1-1.83,2l-2.52-7.26A21.19,21.19,0,0,1,308.6,101.41Z" style="fill:#fff"></path><path d="M305,101.53l2.6,7.41a4.31,4.31,0,0,1-.95,0c-.2,0-.41-.06-.61-.1l-2.45-7.06A9.47,9.47,0,0,1,305,101.53Z" style="fill:#fff"></path><path d="M316.88,102.32,318.5,107a4.64,4.64,0,0,1-.93,2l-2.45-7.08A9,9,0,0,1,316.88,102.32Z" style="fill:#fff"></path><path d="M317,109.46a2.49,2.49,0,0,1-.83.37l-2.8-8a6.15,6.15,0,0,1,1,0Z" style="fill:#fff"></path></g><path d="M310.81,113.32h0a6.18,6.18,0,0,1-5.25-2.23.21.21,0,0,1,.05-.3h0a.23.23,0,0,1,.31.06,5.84,5.84,0,0,0,4.87,2,.21.21,0,0,1,.22.21.2.2,0,0,1-.19.22Z" style="fill:#263238"></path><path d="M296.09,90.55a3.84,3.84,0,0,1,3.12-2.39,16.66,16.66,0,0,1,4.11.09,23.42,23.42,0,0,0,8.29-.84,19.06,19.06,0,0,1,3.39-.83,4.12,4.12,0,0,1,3.26,1c1.28,1.27,1.07,3.52,0,5a10.27,10.27,0,0,1-4.44,3c-3.72,1.57-8.12,2.83-12.12,1.56C299.28,96.3,295.21,93.53,296.09,90.55Z" style="fill:#263238"></path><path d="M315.76,74.54l-.26.34,3.44,2.5h0L317.62,79l-3.23-2.45-.26.34,3.22,2.45L316,81l-3-2.39-.26.33,3,2.4L314.42,83l-2.76-2.31-.28.33,2.78,2.32L312.83,85h0l-2.53-2.25L310,83l2.54,2.27-1.31,1.62-2.32-2.16-.29.31L311,87.26l-1.32,1.63-2.1-2.08-.3.3,2.14,2.11-.59.72-2.74-2.27a1.81,1.81,0,0,1-.29-2.48l8-10.72a1.81,1.81,0,0,1,2.49-.4l3.4,2.38-.48.6Z" style="fill:#407BFF"></path><path d="M305.54,75.75a21.22,21.22,0,0,1,5.56,1.88,7,7,0,0,1,2,1.17,2.41,2.41,0,0,1,.84,2.08,2.64,2.64,0,0,1-2.45,1.91,26.59,26.59,0,0,1-3.33-.15c-2.47,0-4.89,1.2-7.33.82-2-.31-5.88-3.33-4.73-5.79C297.07,75.64,303.64,75.48,305.54,75.75Z" style="fill:#b25b52"></path></g><g id="character-3"><rect x="115.06" y="248.47" width="123.21" height="126.35" style="fill:#407BFF"></rect><rect x="115.06" y="248.47" width="123.21" height="126.35" style="fill:#fff;opacity:0.2"></rect><rect x="122.43" y="257.14" width="108.06" height="109.01" style="fill:#fff;opacity:0.9"></rect><rect x="186.88" y="378.09" width="5.99" height="1" style="fill:#407BFF"></rect><rect x="154.94" y="378.09" width="26.94" height="1" style="fill:#407BFF"></rect><path d="M158.93,338.53a65.83,65.83,0,0,1-15.68-.06c11.71-20.14,19.91-43.73,16.54-62.07-.53-2.86-.29-4.69.42-5.77a34.7,34.7,0,0,1,9.68,2c.53.18,1.2.42,1.93.71l0,0a8.72,8.72,0,0,1,1.46,1.39C178.22,281.45,173.65,307.32,158.93,338.53Z" style="fill:#407BFF"></path><path d="M158.93,338.53a65.83,65.83,0,0,1-15.68-.06c11.71-20.14,19.91-43.73,16.54-62.07-.53-2.86-.29-4.69.42-5.77a34.7,34.7,0,0,1,9.68,2c.53.18,1.2.42,1.93.71l0,0a8.72,8.72,0,0,1,1.46,1.39C178.22,281.45,173.65,307.32,158.93,338.53Z" style="fill:#fff;opacity:0.5"></path><path d="M178.38,293c8.12.82,25,3,27.86,2.92a41.29,41.29,0,0,0,11-2.23c6.66-2,13.27-4.27,19.87-6.49a1.82,1.82,0,0,0,1-.61,1.8,1.8,0,0,0,0-1.49l-1.74-5.78a2,2,0,0,0-3.24-1.47c-8.71,2.88-17.54,6.06-26.72,6.15-6.48.07-20.24-4.7-26.45-6.43C161.44,272.45,174.38,292.63,178.38,293Z" style="fill:#263238"></path><path d="M234.56,279.79l1.95-2.71,7.08,4.34a27.71,27.71,0,0,1-4.65,3.18,3.29,3.29,0,0,1-3.52-.34l-.27-.2A3.11,3.11,0,0,1,234.56,279.79Z" style="fill:#ff8b7b"></path><polygon points="243.36 273.35 247.18 277.54 243.59 281.42 236.52 277.08 243.36 273.35" style="fill:#ff8b7b"></polygon><path d="M237.8,275.52l.86-1.78a.25.25,0,0,1,.43,0l.35.47a1.21,1.21,0,0,1,.19,1l-1,3.7-2.8-.8Z" style="fill:#ff8b7b"></path><path d="M175.92,304.1c-5.12,13.74-5.69,16.56-14.82,34-.92.14-1.86.25-2.8.35,14.72-31.21,19.29-57.08,14.37-63.8a8.72,8.72,0,0,0-1.46-1.39c3.22,1.29,7.78,3.56,8,6C180.35,289.74,177.23,300.6,175.92,304.1Z" style="fill:#263238"></path><path d="M126.63,341a3,3,0,0,0,.29,1.89,2.9,2.9,0,0,0,.73.71c5,3.85,9.47,11.44,17.84,14.27,32.86,11.07,33.26-16.6,33.26-16.6-13.63-3.79-18.68-5.63-18.68-5.63a46.67,46.67,0,0,1-14.23-4.81c-2.74-1.62-5.92-6.43-8.83-7.12C130.72,322.17,127,336.69,126.63,341Z" style="fill:#407BFF"></path><path d="M143.66,365.81l-.06.34H122.43V351c2.59-8.6,4.9-15.08,6.19-15.79,5.23-2.85,22.67,3.65,23,10.71C152,353.91,143.6,366.15,143.66,365.81Z" style="fill:#407BFF"></path><polygon points="244.8 419.25 251.22 415.65 239.91 396.46 235.86 404.47 244.8 419.25" style="fill:#ff8b7b"></polygon><path d="M249.18,412.13l-6.85,4.31a.64.64,0,0,0-.26.77l4.19,8.27c.23,1.53,6.65-3.29,9.76-5.25,3.63-2.29,4.36-2.45,8.62-5.14,2.58-1.62,1.65-4.68.42-4.23-5.58,2-8.17.74-14.07.8A3.32,3.32,0,0,0,249.18,412.13Z" style="fill:#263238"></path><polygon points="239.36 395.35 246.77 408.1 240.4 411.95 232.6 399.29 239.36 395.35" style="opacity:0.2;isolation:isolate"></polygon><path d="M252.14,412.09h0c1.13-.43,3.09-1.31,3.39-2.36a1,1,0,0,0-.17-.89.52.52,0,0,0-.5-.23c-1,.06-2.74,2.91-2.93,3.24a.18.18,0,0,0,.06.19A.17.17,0,0,0,252.14,412.09Zm2.74-3.16h0a.19.19,0,0,1,.19.1.61.61,0,0,1,.12.59c-.17.59-1.15,1.33-2.69,1.94.7-1.1,1.75-2.51,2.33-2.61Z" style="fill:#407BFF"></path><path d="M252.14,412.09a.15.15,0,0,0,.13,0c.54-.82,1.18-3.12.64-3.76a.64.64,0,0,0-.82-.07,1.27,1.27,0,0,0-.68.79c-.39,1.15.51,2.95.54,3a.19.19,0,0,0,.15.09Zm.27-3.65a.16.16,0,0,1,.21.05c.33.38,0,2.09-.5,3a4.15,4.15,0,0,1-.4-2.45.87.87,0,0,1,.49-.57Z" style="fill:#407BFF"></path><path d="M245,405.22a3,3,0,0,1-3,1.06c-1.36-.21-4.34,4.86-5.48,3.58-.73-.8-7.81-9.84-15.26-19.39a70.51,70.51,0,0,0-30.55-22.53h0l-.24-.08a69.85,69.85,0,0,0-16.62-4L150,361l-3.14-.37-2-.23c-3-5.12,13.39-25,20.22-23.19,7.88,2.11,17.1,4.7,25.67,7.16a70.58,70.58,0,0,1,42.6,34.3c5.64,10.44,11,20.43,11.61,22.19S246.17,403.46,245,405.22Z" style="fill:#407BFF"></path><polygon points="248.08 404.37 235.13 411.16 232.35 407.2 245.9 400.07 248.08 404.37" style="fill:#263238"></polygon><path d="M190.62,367.93l-.24-.08a69.85,69.85,0,0,0-16.62-4L150,361l-3.14-.37,3.57-6.64s12.52,3.25,20.66,5.6C178.91,361.89,190.08,367.65,190.62,367.93Z" style="opacity:0.2"></path><path d="M159.79,276.4c3.37,18.34-4.83,41.93-16.54,62.07-7.05-.91-13.8-3.18-19-7.42,19.25-29.22,14-53.54,18.25-58.24,4.64-5.07,11.72-2.46,17.73-2.18C159.5,271.71,159.26,273.54,159.79,276.4Z" style="fill:#263238"></path><path d="M139.79,292.19c.16,2.37.69,4.84,2.3,6.57s4.56,2.39,6.37.86,1.73-4.29,1.42-6.63a108.47,108.47,0,0,0-2.48-12.76,3.48,3.48,0,0,0-.71-1.6c-2.28-2.42-4.94-3.38-5.74-1.78C141,276.85,139.57,289,139.79,292.19Z" style="opacity:0.2;isolation:isolate"></path><path d="M151.29,309.54c5.46,9,26,17.32,33.83,24.38,3.31-1.26,8.56-7.68,3.25-11.1,0,0-14.1-8.65-23.86-15.62-1.2-.86-7.83-19.82-9.91-25-1.77-4.39-4-9.89-6.88-10.41C134.21,269.4,141.7,293.76,151.29,309.54Z" style="fill:#263238"></path><path d="M193.73,334.33l2.36,1.31,7-1.65-.32-1.39Z" style="fill:#ff8b7b"></path><path d="M186.79,330.55c.67.31,9.3,5.09,9.3,5.09l2.75-.65s-5-8.16-9.39-7.68S186.79,330.55,186.79,330.55Z" style="fill:#ff8b7b"></path><path d="M158.67,272.78a5.38,5.38,0,0,0,.71,2.71q2.58,5.67,5.18,11.33c1.76-.63,3.13-1.18,5.54-2a12.09,12.09,0,0,0,3.25,2.42c.75-1.72,3.75-2.29.15-11.24-.79-2-3.58-4.08-5.5-5C161.77,268,158.84,271.12,158.67,272.78Z" style="fill:#407BFF"></path><path d="M164.91,260.12c-.06,4.06-2.59,10.07-3,14.48-.3,3,8.36,10,8.36,10s5.18-2.45,2.61-6c-2.15-3-1.84-5.68-.39-8.66Z" style="fill:#ff8b7b"></path><path d="M168,264.16l4.47,5.8a15.74,15.74,0,0,0-1,2.56c-2-.73-4.35-3.59-4.11-5.78A7,7,0,0,1,168,264.16Z" style="opacity:0.2;isolation:isolate"></path><path d="M176.44,260c3.23-6.29,2.53-9.85,5.63-13.2,1.67-.74,4.59,2.33,2.65,7.56S176.44,260,176.44,260Z" style="fill:#263238"></path><path d="M182.81,264.19a15.55,15.55,0,0,1-.68,1.66c-2.95,6.21-11.65,7.5-15.55,1.4A10.21,10.21,0,0,1,165,263c-.37-2.78.23-5.9.88-10.22a9.12,9.12,0,0,1,14.2-6.32C185.38,250,184.93,258.49,182.81,264.19Z" style="fill:#ff8b7b"></path><path d="M165.58,258.23l3.95,2.34.5-6.38,3.23-1.85,1.46-4.23s-8.56-2.49-11.11-2.83c-.89-.12-1.54.63-2,1.65a8.38,8.38,0,0,0,1.39,8.71A18.57,18.57,0,0,0,165.58,258.23Z" style="fill:#263238"></path><path d="M177.39,265.3h0a4.91,4.91,0,0,1-3.56-2.8.17.17,0,0,1,.13-.2.19.19,0,0,1,.19.08,4.65,4.65,0,0,0,3.33,2.6.18.18,0,0,1,.13.21h0a.16.16,0,0,1-.2.11Z" style="fill:#263238"></path><path d="M168,260.05c0,1.89-1.31,3.27-2.89,2.72h0a3.48,3.48,0,0,1-.63-.33,6.32,6.32,0,0,1-2.68-4.06,2.85,2.85,0,0,1,3.22-3.55c2.08.37,3,3.13,3,5A.6.6,0,0,1,168,260.05Z" style="fill:#ff8b7b"></path><path d="M174.54,256.37a.85.85,0,0,0,.43,1.1c.35.07.72-.3.83-.83s-.08-1-.42-1.1S174.65,255.84,174.54,256.37Z" style="fill:#263238"></path><path d="M180.56,257.64c-.15.53.08,1,.43,1.1s.72-.3.83-.83-.07-1-.43-1.1S180.68,257.11,180.56,257.64Z" style="fill:#263238"></path><path d="M179.45,257.81a20.13,20.13,0,0,0,1.58,5.1c-1.12.67-2.68-.21-2.68-.21Z" style="fill:#ff5652"></path><path d="M173.94,254.34a.29.29,0,0,0,.33-.06,2.56,2.56,0,0,1,2.23-.62.32.32,0,1,0,.18-.61h0a3.18,3.18,0,0,0-2.82.75.32.32,0,0,0,0,.45A.27.27,0,0,0,173.94,254.34Z" style="fill:#263238"></path><path d="M184.44,256.43a.37.37,0,0,0,.18.05.33.33,0,0,0,.24-.39,3.17,3.17,0,0,0-1.91-2.25.32.32,0,1,0-.21.61h0a2.54,2.54,0,0,1,1.47,1.78A.35.35,0,0,0,184.44,256.43Z" style="fill:#263238"></path><path d="M182.81,264.19a15.73,15.73,0,0,1-.68,1.67c-2.95,6.21-11.65,7.49-15.55,1.39A10.16,10.16,0,0,1,165,263a1.22,1.22,0,0,1,.12-.19h0c1.58.55,2.85-.83,2.89-2.72a.6.6,0,0,0,0-.19c1.9-.71,5.85,1.14,7.37,1.81C177.8,262.74,180.26,264.21,182.81,264.19Z" style="opacity:0.2;isolation:isolate"></path><path d="M162.69,242.85a3,3,0,0,0,.14,3.53,6.69,6.69,0,0,0,3.15,2.06,19,19,0,0,0,9.5.92c1.9-.31,3.8-.9,5.71-.69s3.9,1.59,4,3.52a5.84,5.84,0,0,0-1-9.18c-2.84-1.74-6.51-.8-9.78-1.44a40.81,40.81,0,0,1-4.63-1.48,7.93,7.93,0,0,0-4.78-.3C163.41,240.29,162.69,242.85,162.69,242.85Z" style="fill:#263238"></path></g><g id="character-2"><path d="M125.26,188.4c.58,10.61,6.22,20.51,13.91,27.84s17.34,12.32,27.23,16.2l.22.09a29.46,29.46,0,0,0,22.89.09l.44-.18c9.89-3.88,19.53-8.87,27.23-16.2S230.51,199,231.09,188.4s-4.51-21.76-13.82-26.89c-6-3.32-13.28-3.94-20.09-2.93s-12.81,3.92-19,6.58c-6.19-2.66-12.34-5.59-19-6.58s-14-.39-20.09,2.93C129.77,166.64,124.67,177.79,125.26,188.4Z" style="fill:#407BFF"></path><path d="M125.26,188.4c.58,10.61,6.22,20.51,13.91,27.84s17.34,12.32,27.23,16.2l.22.09a29.46,29.46,0,0,0,22.89.09l.44-.18c9.89-3.88,19.53-8.87,27.23-16.2S230.51,199,231.09,188.4s-4.51-21.76-13.82-26.89c-6-3.32-13.28-3.94-20.09-2.93s-12.81,3.92-19,6.58c-6.19-2.66-12.34-5.59-19-6.58s-14-.39-20.09,2.93C129.77,166.64,124.67,177.79,125.26,188.4Z" style="fill:#fff;opacity:0.2"></path><path d="M220.65,190c-.47,8.52-5,16.47-11.17,22.35A61.87,61.87,0,0,1,191,224l-1,.43h0l-.89.38-1.49.59-.36.15a23.65,23.65,0,0,1-18.37-.08l-.11,0-.07,0-.87-.34h0c-1-.41-2-.83-3-1.27a61.4,61.4,0,0,1-17.94-11.39c-6.18-5.88-10.7-13.83-11.17-22.35s3.62-17.47,11.09-21.58c4.85-2.67,10.66-3.17,16.13-2.36s10.28,3.15,15.25,5.28c5-2.13,9.91-4.48,15.26-5.28s11.28-.31,16.13,2.36C217,172.53,221.12,181.48,220.65,190Z" style="fill:#fff;opacity:0.9"></path><path d="M205.26,217.76c-3.9-.35-6-10.06-6-10.06.56-9.3-2.21-19.37-4.31-21.09-3-2.49-5.85-4.85-6.85-1.71a29.81,29.81,0,0,0-.72,8.18c.1,8.12,1.78,18.26,2.64,22.94a7.16,7.16,0,0,0,2.47,4.24h0a7.23,7.23,0,0,0,8.87.3Z" style="fill:#407BFF"></path><path d="M196.14,221c5.09.1,6.85-1.11,9.12-3.22a29,29,0,0,0,5.28-7.63q1.61-3,3.23-6c1.1-2,2.24-4.23,2.07-6.54s-4.54-4.13-5.36-3.53c-4.76,3.54-9.48,11.52-13.09,14.33a15.81,15.81,0,0,1-2.84,1.35Z" style="fill:#407BFF"></path><path d="M211.55,195.44l-1.41-6.27,7.37,1.1s-.75,4.58-3,6.53Z" style="fill:#efb69a"></path><polygon points="212.91 181.96 217.72 185.12 217.51 190.23 210.14 189.13 212.91 181.96" style="fill:#efb69a"></polygon><path d="M195,202.16c-.22,5.25-2.65,12.58-3.87,21.52a.92.92,0,0,1-.08.27l-1,.43h0l-.89.38-20.33.62-.07,0-.87-.34h0c-1-.41-2-.83-3-1.27-.28-9.86-1.38-19.07-6.8-38.42a3.51,3.51,0,0,1,2.42-4.33,3.7,3.7,0,0,1,.74-.13c2.1-.12,4.75-.2,7.44-.09a91.53,91.53,0,0,1,12.69,1.16c3.58.64,7.5,1.63,9.78,2.24a3.51,3.51,0,0,1,2.53,2.84A61.64,61.64,0,0,1,195,202.16Z" style="fill:#263238"></path><circle cx="183.4" cy="196.47" r="0.99" style="fill:#fff;opacity:0.4"></circle><path d="M181.81,207.34a1,1,0,1,0,1-1A1,1,0,0,0,181.81,207.34Z" style="fill:#fff;opacity:0.4"></path><path d="M164.85,180.76l1,1.44c3.64,5.58,11.61,12.5,14.57,13a10.53,10.53,0,0,1,2.77-4.21,6.3,6.3,0,0,1,3.51,3.56,16.17,16.17,0,0,0,.87-11.7h0c-1.5-.34-3.09-.69-4.62-.95a91.51,91.51,0,0,0-12.69-1.15A43.69,43.69,0,0,0,164.85,180.76Z" style="fill:#407BFF"></path><path d="M197.38,159.21c-.41,2.92,0,8.22,3.9,14,5,7.45-6,12.18-13.31,11.65-6.5-.47-20.93-6.92-23.42-12.23s4.17-5.3,6.22-14.92,9.28-8.24,15.18-8.24C194,147.68,198.22,153.25,197.38,159.21Z" style="fill:#263238"></path><path d="M182.81,177.49c-1.73,2.33-3,5.1-.29,8.19a3.68,3.68,0,0,1,1,2.34c0,1.39-.78,2.74-5.31.07-6.56-3.86-6-8.23-6-8.23,3.45-1,5.51-8.29,6.31-12.43Z" style="fill:#efb69a"></path><path d="M178.86,173.65c-.51,1.76,1.36,4.58,2.78,5.69a12.83,12.83,0,0,1,1.16-1.86l-2.55-5.94A6.2,6.2,0,0,0,178.86,173.65Z" style="opacity:0.2;isolation:isolate"></path><path d="M177,156.61a9.2,9.2,0,0,1,12.6-3.28c6.19,3.58,5.72,13.62,3.45,19.42-2.49,6.45-10.9,7.27-15.26,1.41-2.93-3.91-2.56-6.75-2-13.49A9.1,9.1,0,0,1,177,156.61Z" style="fill:#efb69a"></path><path d="M192,165.56a.62.62,0,0,1,.29-.38.64.64,0,0,1,.49,0,.88.88,0,0,1,.56.84l.57,0a1.45,1.45,0,0,0-.93-1.33l-.2-.07a1.1,1.1,0,0,0-1.32.8Z" style="fill:#263238"></path><path d="M185.21,164.08c0,.55.2,1,.56,1.06s.69-.39.75-.93-.2-1-.55-1.06S185.29,163.56,185.21,164.08Z" style="fill:#263238"></path><path d="M185.79,163.22l1.35-.25S186.38,163.89,185.79,163.22Z" style="fill:#263238"></path><path d="M189.49,169.77a2.39,2.39,0,0,0,2-.1,14.66,14.66,0,0,1-1.45-3.74Z" style="fill:#ed893e"></path><path d="M184.33,169.54a.17.17,0,0,1,.08-.22.15.15,0,0,1,.21.08,4.32,4.32,0,0,0,3.28,2.17.17.17,0,0,1,.13.18h0a.16.16,0,0,1-.17.13,4.05,4.05,0,0,1-.77-.16A4.55,4.55,0,0,1,184.33,169.54Z" style="fill:#ea6b3f"></path><path d="M196.13,154.81c2.31,2.93-1.64,6.38-2.2,4.54-.91-3-3.49-3.72-3.47-6.24C190.49,149.17,193.83,151.89,196.13,154.81Z" style="fill:#263238"></path><path d="M185,160.54h0a.32.32,0,0,1,.07-.44,4.41,4.41,0,0,1,3.64-.44.33.33,0,0,1,.21.41.32.32,0,0,1-.41.2,3.75,3.75,0,0,0-3,.33.32.32,0,0,1-.37,0Z" style="fill:#263238"></path><path d="M194.9,162.64a2.51,2.51,0,0,0-2-1.16h0a.32.32,0,0,1-.33-.32.32.32,0,0,1,.31-.33,3.24,3.24,0,0,1,2.58,1.44h0a.32.32,0,0,1-.09.45.33.33,0,0,1-.32,0A.41.41,0,0,1,194.9,162.64Z" style="fill:#263238"></path><path d="M186.62,155.26a6.92,6.92,0,0,0-4.83,3.51,12.6,12.6,0,0,1-1.41,2.55c-.63.7-2.75,3.61-3.5,4.18s-.49-1.68-1.21-2.11a14.07,14.07,0,0,1-2.18-1.23,3.68,3.68,0,0,1-1.12-3.14,6.79,6.79,0,0,1,1.29-3.17,12.22,12.22,0,0,1,17.2-3c.85.61,2.32,2.28,0,3-.63.2-.66-.31-1.33-.47A6.78,6.78,0,0,0,186.62,155.26Z" style="fill:#263238"></path><path d="M171.15,162.34c2.24-2.18,5-2.18,7.52-2.18a9.27,9.27,0,0,0,3.48-.39c2.49-1.09,4-4.64,4.3-5.81a3,3,0,0,1,2.08-2,2.58,2.58,0,0,1,2.08.92,2.84,2.84,0,0,1-.14,2.77l.35.15a3.15,3.15,0,0,0,.1-3.13,3,3,0,0,0-2.42-1.09,3.3,3.3,0,0,0-2.42,2.26c-.26,1.07-1.75,4.52-4.08,5.54a9,9,0,0,1-3.33.36c-2.42,0-5.43,0-7.78,2.29Z" style="fill:#263238"></path><path d="M171.15,162.34c2.24-2.18,5-2.18,7.52-2.18a9.27,9.27,0,0,0,3.48-.39c2.49-1.09,4-4.64,4.3-5.81a3,3,0,0,1,2.08-2,2.58,2.58,0,0,1,2.08.92,2.84,2.84,0,0,1-.14,2.77l.35.15a3.15,3.15,0,0,0,.1-3.13,3,3,0,0,0-2.42-1.09,3.3,3.3,0,0,0-2.42,2.26c-.26,1.07-1.75,4.52-4.08,5.54a9,9,0,0,1-3.33.36c-2.42,0-5.43,0-7.78,2.29Z" style="fill:#fff;opacity:0.1"></path><path d="M173.07,164.89a2.23,2.23,0,0,1,2.49-1.91c1.67.26,2.43,2.51,2.44,4,0,1.63-1.22,2.83-2.69,1.92a5,5,0,0,1-2.17-3.09A2.34,2.34,0,0,1,173.07,164.89Z" style="fill:#efb69a"></path><path d="M190,224.38c-.8.34-1.58.66-2.38,1l-.36.15a23.65,23.65,0,0,1-18.37-.08l-.18-.07-.87-.34,9.52-.27.86,0,3.63-.11.88,0Z" style="fill:#407BFF"></path><path d="M176.05,188.89c-.36,4.65-4.66,22.23-14,22.72a5.94,5.94,0,0,1-4.06-1.44l0,0c-7.51-4.52-1.61-26.45-.1-27.73a5.15,5.15,0,0,1,8.31,2.48,18.91,18.91,0,0,0,.47-2.11c.39-2.38,1.68-7.9,4.06-8.3,1.44-.25,4.39-.38,5.25.8S176.64,181.2,176.05,188.89Z" style="fill:#407BFF"></path><g style="opacity:0.2;isolation:isolate"><path d="M175.56,163l0,.42.43,4v5.2l.71-3.09a7.27,7.27,0,0,0,.12-2.46l-.5-3.87Z"></path></g><path d="M170.89,175.44l-1.12-8.1,6.75-.06s-.56,6.09-2.25,8.16Z" style="fill:#efb69a"></path><polygon points="170.96 161.8 175.96 162.68 176.5 167.27 169.77 167.34 170.96 161.8" style="fill:#efb69a"></polygon><path d="M121.29,186.78a31.57,31.57,0,0,1,4.9-18.64l.84.54a30.56,30.56,0,0,0-4.74,18Z" style="fill:#407BFF"></path><path d="M130.4,164.46l-.71-.7a24.63,24.63,0,0,1,5.69-4.33l.48.88A23.61,23.61,0,0,0,130.4,164.46Z" style="fill:#407BFF"></path></g><g id="character-1"><path d="M129.62,65.63v76.92h95.69V65.63ZM175.2,96.9h.05a4.76,4.76,0,0,1,.67,1.11c.21.42.45.93.7,1.5.06.14.13.29.19.44s.14.3.2.45.14.31.2.47l.21.49a4.91,4.91,0,0,1-.28-.5L175.75,98Z" style="fill:#407BFF"></path><path d="M129.62,65.63v76.92h95.69V65.63ZM175.2,96.9h.05a4.76,4.76,0,0,1,.67,1.11c.21.42.45.93.7,1.5.06.14.13.29.19.44s.14.3.2.45.14.31.2.47l.21.49a4.91,4.91,0,0,1-.28-.5L175.75,98Z" style="fill:#fff;opacity:0.2"></path><path d="M136.45,71.92v64.67h82V71.92Z" style="fill:#fff;opacity:0.9"></path><path d="M192.72,97.15l-.51,6.68a53.94,53.94,0,0,0-4.35,3.35h0a3.19,3.19,0,0,0-.32.33l-.55,1.84-.17.53-.34,1.15s-1.64-.09-3.24-.2l-1.53-.1-.58,0h-.05l-.46,0h-.2l-.4,0h-.11l-.51-.05a18.65,18.65,0,0,1-2.18-.25,9.35,9.35,0,0,1-2.42-.57,2.49,2.49,0,0,1-.43-.29,2.35,2.35,0,0,1-.5-.58,9.49,9.49,0,0,1-.8-2.58c-.29-1.47-.42-2.92-.42-2.92l1.62-5.5a2.75,2.75,0,0,0,1.49.15s0-.33.17,0a2.83,2.83,0,0,0,1.35-.76,2.36,2.36,0,0,0,.49-.94h0a.83.83,0,0,1,0-.15c.08-.29.15-.62.21-1s.07-.43.1-.65l0-.26c0-.15,0-.32,0-.48,0-.32.05-.62.07-.89s0-.27,0-.39c0-.55,0-.92,0-.92l7.1-4.07h0l.19-.1.06,0s0,.13.07.36h0c0,.21.11.51.19.87,0,.16.07.33.11.51a2.68,2.68,0,0,0,.07.27l0,.15h0c.11.44.23.92.36,1.42h0a.11.11,0,0,0,0,0c.15.58.33,1.19.53,1.78h0c.56,1.73,1.27,3.34,2.07,3.94a2.41,2.41,0,0,0,1.43.39h.2A13,13,0,0,1,192.72,97.15Z" style="fill:#dd8c6a"></path><path d="M178.32,91.6a20.59,20.59,0,0,1-.56,4.7c6.33-.38,7.6-6.24,7.85-8.88Z" style="opacity:0.1"></path><path d="M187.46,77c.45,6.85.78,9.73-2.21,13.65-4.5,5.9-13,4.94-15.49-1.63-2.22-5.92-2.58-16.16,3.74-19.66a9.35,9.35,0,0,1,14,7.64Z" style="fill:#dd8c6a"></path><path d="M179,79.62a3.47,3.47,0,0,1,5,4A3.34,3.34,0,0,1,181.61,86a3.47,3.47,0,0,1-4-5A3,3,0,0,1,179,79.62Z" style="fill:#c13b37;opacity:0.2"></path><path d="M168.58,81.93a2.8,2.8,0,0,0-.41,0,29,29,0,0,0,1.4,6.7,3.43,3.43,0,0,0-1-6.73Z" style="fill:#c13b37;opacity:0.2"></path><path d="M177.72,80.16c0,.55-.2,1-.56,1.06s-.69-.38-.75-.93.2-1,.55-1.06S177.64,79.64,177.72,80.16Z" style="fill:#263238"></path><path d="M171.53,80.78c.05.56-.2,1-.56,1.06s-.69-.38-.75-.93.2-1,.56-1S171.47,80.24,171.53,80.78Z" style="fill:#263238"></path><path d="M170.94,79.87l-1.36-.25S170.36,80.59,170.94,79.87Z" style="fill:#263238"></path><path d="M172.57,81.59a14.82,14.82,0,0,1-1.51,3.74,2.41,2.41,0,0,0,2,.12Z" style="fill:#c13b37"></path><path d="M175.82,87.65a5.39,5.39,0,0,1-.8.16.16.16,0,0,1-.18-.13h0a.17.17,0,0,1,.15-.18,4.37,4.37,0,0,0,3.31-2.14.15.15,0,0,1,.21-.07.15.15,0,0,1,.08.21A4.52,4.52,0,0,1,175.82,87.65Z" style="fill:#263238"></path><path d="M178.23,77.09a.3.3,0,0,1-.38,0,3.85,3.85,0,0,0-3-.61.32.32,0,0,1-.39-.24.31.31,0,0,1,.24-.38h0a4.4,4.4,0,0,1,3.58.77.32.32,0,0,1,0,.45h0A.16.16,0,0,1,178.23,77.09Z" style="fill:#263238"></path><path d="M168.33,78.23a.33.33,0,0,1-.32-.08.33.33,0,0,1,0-.46,3.18,3.18,0,0,1,2.8-1,.3.3,0,0,1,.26.35v0a.32.32,0,0,1-.37.26h0a2.6,2.6,0,0,0-2.18.85A.27.27,0,0,1,168.33,78.23Z" style="fill:#263238"></path><path d="M177.14,79.3l-1.35-.25S176.55,80,177.14,79.3Z" style="fill:#263238"></path><path d="M173.06,73.48c2.87.38,10.39-4,11.48,2.11s3.09,9.41,1.6,14c-.72,2.21,3.67,8.69,5.77,1.2h0S197.75,95,198,87.37c0,0,10,.21,4.37-6.27,0,0,7-6.31-.34-9.56,0,0,5-9.29-5.81-10.24,0,0,0-10.1-8.43-6.94,0,0-6-9.1-9.44,1.08,0,0-6.78-4.42-6.67,3.87,0,0-6.37.32-3.35,7C168.3,66.29,159,71.61,173.06,73.48Z" style="fill:#263238"></path><path d="M189,82a4.9,4.9,0,0,1-2.12,3.09c-1.46.92-2.69-.26-2.71-1.91,0-1.48.75-3.74,2.41-4a2.21,2.21,0,0,1,2.5,1.88A2.13,2.13,0,0,1,189,82Z" style="fill:#dd8c6a"></path><path d="M187.14,82.34c.28.63.42,1.46-.09,1.91s-2,.85-2.26,1.42.11,1,.52,1.28a6.42,6.42,0,0,1,1.24.87c.32.38.32,1.11-.15,1.28-.32.11-.67-.08-1,0-.53.14-.58,1-.2,1.35a2.44,2.44,0,0,0,1.5.55,4.43,4.43,0,0,1-2.69-.5.88.88,0,0,1-.5-.52c-.09-.36.24-.71.6-.82a10.38,10.38,0,0,1,1.12-.14c.37-.07.76-.32.79-.69,0-.52-.56-.8-1-1-.67-.33-1.3-1.06-1-1.76.32-.86.83-1,1.71-1.33a1.39,1.39,0,0,0,.91-1.79c-.35-1.11-.56-1-1.1-2.8C186.47,79.59,186.81,81.59,187.14,82.34Z" style="fill:#263238"></path><path d="M163.42,83.42a1.09,1.09,0,0,0,.55.68,5.35,5.35,0,0,0,3.18.89,2.89,2.89,0,0,1-1.75-.83c-.42-.52-.76-.85-.11-1,.39-.07,1.29-.44,1.68-.54.59-.15.67-1,.32-1.52A6.85,6.85,0,0,0,165.9,80c-.46-.4-.81-1.1-.48-1.61s2.25-1,2.87-1.46.58-1.51.31-2.29c-.19-.54-.33-1.59-.65-2.39l0,0a.51.51,0,0,1,.6-.1,2.4,2.4,0,0,1,.53.37c.33.27,1.5,1,1.79.47a6.85,6.85,0,0,0-.62-.58A4.81,4.81,0,0,0,168,71a1.77,1.77,0,0,0-1,.38.38.38,0,0,0,0,.1c0,.19.09.37.12.52.35,1.4.57,1.5.83,2.68a1.67,1.67,0,0,1-1.28,2.06c-1.09.27-1.72.41-2.21,1.42-.39.82.3,1.76,1.07,2.23.54.32,1.23.73,1.13,1.35a1.09,1.09,0,0,1-1,.74c-.45,0-.91,0-1.36,0S163.34,83,163.42,83.42Z" style="fill:#263238"></path><path d="M141.83,105.87a17.53,17.53,0,0,1,.42-3.88c.63-4.2-.58-6.07-3.47-9.19-1.36,0-3.9,3.5-3.9,3.5A16.48,16.48,0,0,0,134.6,99c-.13,4.66,3.44,8.51,3.44,8.51,1.43,7,5.71,21,6.66,22.17,2.28,2.93,8.56,2.6,6.52-1.89S141.91,107.93,141.83,105.87Z" style="fill:#dd8c6a"></path><path d="M169.94,110.11a41.65,41.65,0,0,1-5.38,17.79c-1.51,2.66-3.45,5.26-6.23,6.53a9.7,9.7,0,0,1-10.13-.78c-3.34-2.17-5.09-4.16-7.44-10.1a32.3,32.3,0,0,1-1.74-5.31c0-2.55,1.44-3.13,3.12-3.66,1.31-.4,1.33-.74,2.7-.83,2.78-.2,4.55,2.1,5.94,4.76,3.3,6.28,6-2.31,6.72-4.82,1.62-5.43,4-12.07,9.65-15.22.84-.46.6-.19,1.53,0a3.27,3.27,0,0,1,1.95,2.17,11.61,11.61,0,0,1,.2,7.78Z" style="fill:#407BFF"></path><path d="M169.94,110.11a41.65,41.65,0,0,1-5.38,17.79c-1.51,2.66-3.45,5.26-6.23,6.53a9.7,9.7,0,0,1-10.13-.78c-3.34-2.17-5.09-4.16-7.44-10.1a32.3,32.3,0,0,1-1.74-5.31c0-2.55,1.44-3.13,3.12-3.66,1.31-.4,1.33-.74,2.7-.83,2.78-.2,4.55,2.1,5.94,4.76,3.3,6.28,6-2.31,6.72-4.82,1.62-5.43,4-12.07,9.65-15.22.84-.46.6-.19,1.53,0a3.27,3.27,0,0,1,1.95,2.17,11.61,11.61,0,0,1,.2,7.78Z" style="fill:#fff;opacity:0.4"></path><path d="M165.28,106.74l-1.67,6.45a23.46,23.46,0,0,0,.95,14.71h0s3.71-6,4-9.75S165.28,106.74,165.28,106.74Z" style="opacity:0.1"></path><path d="M204.1,100.64l-.67,11.4-4,13.91a21.19,21.19,0,0,0-.81,5.79,20.88,20.88,0,0,0,.57,4.85h-30c-.51-2.58-3.61-15-3.94-16.84a45.3,45.3,0,0,1,0-13,39.25,39.25,0,0,1,1.63-7.89h0l.09-.19.07-.12h0l.07-.06.78-.22c.61-.17,1.21-.32,2-.48l1.22-.23.28-.05c.69-.11,1.51-.25,2.53-.4l1.24-.19.55,1.13,1.39,2.82a4.91,4.91,0,0,0,.28.5c.44,1.05.9,2.18,1.32,3.23.11.29.23.57.33.85.29.73.55,1.39.76,1.95l.28.73c.06.16.12.3.16.42h0v0l0,.07c0,.09.06.16.08.21l.05.14.1-.11,0,0,0,0h0v0l.12-.15h0l1.92-2.23.51-.6,0-.06c.12-.14.25-.28.37-.43l2.16-2.5.76-.87,2-2.31.63-.71.35-.39,1.22-1.36c.34-.38.64-.7.88-1a34.66,34.66,0,0,1,10.92,2.68,3.23,3.23,0,0,1,.44.2,3.48,3.48,0,0,1,.43.22l0,0a1.51,1.51,0,0,1,.23.21.07.07,0,0,1,0,0h0a.26.26,0,0,1,.07.11l0,0h0v0l.09.15a1,1,0,0,1,.09.22,1,1,0,0,1,.06.23A1.53,1.53,0,0,1,204.1,100.64Z" style="fill:#407BFF"></path><g style="opacity:0.4"><path d="M204.1,100.64l-.67,11.4-.31,1.09L199.46,126a21.19,21.19,0,0,0-.81,5.79,19.77,19.77,0,0,0,.12,2.18c0,.15,0,.29,0,.44v0s0,0,0,.07a19.26,19.26,0,0,0,.39,2.12h-30c-.51-2.58-3.61-15-3.94-16.84a45.3,45.3,0,0,1,0-13,39.25,39.25,0,0,1,1.63-7.89h0l.09-.19.07-.12h0l.07-.06.78-.22c.61-.17,1.21-.32,2-.48l1.22-.23.28-.05c.69-.11,1.51-.25,2.53-.4l1.24-.19.55,1.13,1.39,2.82a4.91,4.91,0,0,0,.28.5c.44,1.05.9,2.18,1.32,3.23.11.29.23.57.33.85.29.73.55,1.39.76,1.95l.28.73c.06.16.12.3.16.42s0,0,0,0l0,.07c0,.09.06.16.08.21l.05.14.1-.11,0,0,0,0v0a1,1,0,0,0,.13-.15l1.92-2.23.51-.6,0-.06c.12-.14.25-.28.37-.43l2.16-2.5.76-.87,2-2.31.63-.71.35-.39,1.22-1.36c.34-.38.64-.7.88-1a34.66,34.66,0,0,1,10.92,2.68,3.23,3.23,0,0,1,.44.2,3.48,3.48,0,0,1,.43.22l0,0a1.51,1.51,0,0,1,.23.21.07.07,0,0,1,0,0h0a.26.26,0,0,1,.07.11l0,0h0v0l.09.15a1,1,0,0,1,.09.22,1,1,0,0,1,.06.23A1.53,1.53,0,0,1,204.1,100.64Z" style="fill:#fff"></path></g><g style="opacity:0.9"><path d="M180.39,108.83h-.07l-1.81-.63-5.45-1.91c-.61-.22-1.18-.43-1.69-.6l-2-.71c-.49-.19-2-5.41-2.28-6.46v0l-.05-.17,2.9-.57,1.22-.23.28-.05,3.7-.73.07.14.55,1.13,1.39,2.82a4.91,4.91,0,0,0,.28.5c.44,1.05.9,2.18,1.32,3.23.11.29.23.57.33.85.29.73.55,1.39.76,1.95l.28.73c.06.16.12.3.16.42s0,0,0,0l0,.07C180.34,108.71,180.37,108.78,180.39,108.83Z" style="fill:#fff"></path><path d="M203.72,99.58h0c-3.11,1.53-8.32,5.94-8.32,5.94l-14.76,3.25c1.06-1.25,7.24-8.46,10.14-11.63.34-.38.64-.7.88-1a34.66,34.66,0,0,1,10.92,2.68,3.23,3.23,0,0,1,.44.2,3.48,3.48,0,0,1,.43.22l0,0A1.37,1.37,0,0,1,203.72,99.58Z" style="fill:#fff"></path></g><path d="M203.12,113.13,199.46,126a21.19,21.19,0,0,0-.81,5.79,19.77,19.77,0,0,0,.12,2.18c-.16-.91-.68-2.1-.8-2.81a33.66,33.66,0,0,1-.46-3.88,35.8,35.8,0,0,1,.34-7.67c.32-2.13,1.85-12.09,5.18-11.23A17.49,17.49,0,0,1,203.12,113.13Z" style="opacity:0.1"></path><path d="M210,117.56c-1.27,6.76-.73,14.92-.87,19l-9.15,0c-.6-1.65-.41-36.56,2.55-36.68h0a2,2,0,0,1,.42,0,6.92,6.92,0,0,1,3.24,1.25,11.26,11.26,0,0,1,2.94,4.48A30.36,30.36,0,0,1,210,117.56Z" style="fill:#407BFF"></path><g style="opacity:0.4"><path d="M210,117.56c-1.27,6.76-.73,14.92-.87,19l-9.15,0c-.6-1.65-.41-36.56,2.55-36.68h0a2,2,0,0,1,.42,0,5.16,5.16,0,0,1,3.24,1.25,11.26,11.26,0,0,1,2.94,4.48A30.36,30.36,0,0,1,210,117.56Z" style="fill:#fff"></path></g><g style="opacity:0.9"><path d="M180.39,108.83h-.07l-1.81-.63-5.45-1.91c-.61-.22-1.18-.43-1.69-.6l-2-.71c-.49-.19-2-5.41-2.28-6.46v0l-.05-.17,2.9-.57,1.22-.23.28-.05,3.7-.73.07.14.55,1.13,1.39,2.82a4.91,4.91,0,0,0,.28.5c.44,1.05.9,2.18,1.32,3.23.11.29.23.57.33.85.29.73.55,1.39.76,1.95l.28.73c.06.16.12.3.16.42s0,0,0,0l0,.07C180.34,108.71,180.37,108.78,180.39,108.83Z" style="fill:#407BFF"></path><path d="M203.72,99.58h0c-3.11,1.53-8.32,5.94-8.32,5.94l-14.76,3.25c1.06-1.25,7.24-8.46,10.14-11.63.34-.38.64-.7.88-1a34.66,34.66,0,0,1,10.92,2.68,3.23,3.23,0,0,1,.44.2,3.48,3.48,0,0,1,.43.22l0,0A1.37,1.37,0,0,1,203.72,99.58Z" style="fill:#407BFF"></path></g><path d="M177.42,101.35l3,7.48.22,0,6.31-7.34S181.16,105,177.42,101.35Z" style="fill:#263238"></path><path d="M180.11,108.36l-.09,0-10-3.85a.23.23,0,0,1-.14-.15l-2.19-6a.25.25,0,0,1,.15-.32.24.24,0,0,1,.32.14l2.15,5.9,9.89,3.82a.24.24,0,0,1,.14.32A.25.25,0,0,1,180.11,108.36Z" style="fill:#263238"></path><path d="M181.26,108.06a.26.26,0,0,1-.25-.19.25.25,0,0,1,.19-.3l13.57-3.18a41.54,41.54,0,0,1,8.11-5.53.25.25,0,1,1,.22.44,40.29,40.29,0,0,0-8,5.51.24.24,0,0,1-.11.06l-13.64,3.19Z" style="fill:#263238"></path><path d="M188.08,111.36a2.91,2.91,0,0,0-1.1-2,3.63,3.63,0,0,0-2-.83,9.69,9.69,0,0,0-1.87.09,9.78,9.78,0,0,1-1.61.09l-.38,0h0l-.35-.06h0l-.46-.08h0l-.48-.09c-.44-.09-.89-.17-1.28-.23a4.91,4.91,0,0,0-.77-.08h-.13a3.87,3.87,0,0,0-3.25,1.33,2.78,2.78,0,0,0-.53,1.31c-.29,2,.62,2.72,1.19,3a2.18,2.18,0,0,0,2.08-.55,17.46,17.46,0,0,0,2.73-2.34s0,0,0,0l.17-.19a7,7,0,0,0,.61-.8,9,9,0,0,0,.45.88l.06.09h0a10.65,10.65,0,0,0,1.13,1.49c.89,1,2.18,2.23,3.45,2.23h.19C187.3,114.38,188.21,112.73,188.08,111.36Zm-11.27,1.41c-.67.49-1.19.65-1.6.48-.75-.3-1.06-1.16-.88-2.41a2.08,2.08,0,0,1,.46-1.09,3.69,3.69,0,0,1,2.94-1.12,13.49,13.49,0,0,1,2,.3l.81.15a.18.18,0,0,0-.05.07,8.2,8.2,0,0,1-1.06,1.42A16.56,16.56,0,0,1,176.81,112.77Zm9.05,1.24c-1.17.13-2.51-1.23-3.21-2a12.84,12.84,0,0,1-1-1.23,7.28,7.28,0,0,1-.8-1.55l0,0,.59.06a10.52,10.52,0,0,0,1.69-.09,9.64,9.64,0,0,1,1.77-.09,3.07,3.07,0,0,1,1.88.86,2.42,2.42,0,0,1,.78,1.51C187.69,112.52,187,113.91,185.86,114Z" style="fill:#263238"></path><path d="M178.22,120.07h0a.23.23,0,0,1-.22-.27,48.61,48.61,0,0,1,2.26-10.23.34.34,0,0,1,.37-.24.37.37,0,0,1,.34.31A75.54,75.54,0,0,0,183.1,119a.24.24,0,0,1-.17.3.25.25,0,0,1-.31-.17,78.83,78.83,0,0,1-2.08-8.88,49.25,49.25,0,0,0-2.07,9.59A.25.25,0,0,1,178.22,120.07Z" style="fill:#263238"></path><rect x="124.71" y="73.83" width="1" height="5.99" style="fill:#407BFF"></rect><rect x="124.71" y="84.82" width="1" height="26.94" style="fill:#407BFF"></rect></g></svg>