<svg xmlns="http://www.w3.org/2000/svg" viewBox="0 0 500 500"><g id="background-complete"><path d="M113.89,414.14c-.63-.08-.72-3.22-.54-8.14a109.2,109.2,0,0,0-.8-18.9,28,28,0,0,0-2.32-9.5,10.34,10.34,0,0,0-5.08-5.12c-4-1.85-6.8-.07-7.14-.62-.18-.21.22-1,1.61-1.82a8.88,8.88,0,0,1,6.56-.54,12.69,12.69,0,0,1,7.66,6.13,27.29,27.29,0,0,1,3.15,11,74.88,74.88,0,0,1,.53,10.89,55.53,55.53,0,0,1-1,8.86C115.49,411.28,114.48,414.21,113.89,414.14Z" style="fill:#e0e0e0"></path><polygon points="68.7 361.44 65.97 356.71 70.27 354.62 74.19 356.44 72.34 361.77 68.7 361.44" style="fill:#e0e0e0"></polygon><polygon points="32.06 477.77 47.59 421.96 34.7 383.45 18.11 368.25 101.02 368.25 96.22 420.2 115.23 477.77 32.06 477.77" style="fill:#ebebeb"></polygon><polygon points="36.39 368.78 69.79 361.19 101.02 368.25 36.39 368.78" style="fill:#ebebeb"></polygon><polygon points="47.59 421.96 96.22 420.2 96.78 414.14 45.72 414.14 47.59 421.96" style="fill:#e0e0e0"></polygon><path d="M101.45,368.25c0,.41-14.28.74-31.89.74s-31.89-.33-31.89-.74,14.28-.75,31.89-.75S101.45,367.84,101.45,368.25Z" style="fill:#e0e0e0"></path><path d="M54.59,477.29c-.41-.05.95-12.78,3-28.43s4.1-28.28,4.51-28.23-1,12.78-3,28.43S55,477.35,54.59,477.29Z" style="fill:#e0e0e0"></path><path d="M90.38,478.58c-.19.05-1.27-3.07-2.7-8.21s-3.18-12.29-4.75-20.28S80.3,434.8,79.69,429.5s-.79-8.59-.59-8.61.76,3.22,1.63,8.47,2.11,12.48,3.66,20.44,3.15,15.13,4.31,20.32S90.58,478.52,90.38,478.58Z" style="fill:#e0e0e0"></path><rect x="67.37" y="85.8" width="130.13" height="135.65" style="fill:#e0e0e0"></rect><rect x="58.56" y="85.8" width="130.13" height="135.65" style="fill:#ebebeb"></rect><rect x="76.05" y="104.04" width="95.14" height="99.18" style="fill:#fafafa"></rect><path d="M76.05,203.88a18.57,18.57,0,0,1-2.38,2.69c-1.52,1.6-3.66,3.76-6.06,6.12s-4.59,4.46-6.2,6A18.37,18.37,0,0,1,58.69,221a17.89,17.89,0,0,1,2.37-2.69c1.52-1.59,3.67-3.76,6.07-6.13s4.6-4.47,6.21-6A17.43,17.43,0,0,1,76.05,203.88Z" style="fill:#e0e0e0"></path><path d="M171.19,203.63a18.27,18.27,0,0,1,2.7,2.38c1.59,1.53,3.76,3.67,6.12,6.06s4.46,4.59,6,6.21a17.54,17.54,0,0,1,2.32,2.71,17.8,17.8,0,0,1-2.68-2.36c-1.6-1.53-3.77-3.68-6.13-6.08s-4.47-4.59-6-6.21A17.54,17.54,0,0,1,171.19,203.63Z" style="fill:#e0e0e0"></path><path d="M170.93,104.3a18.57,18.57,0,0,1,2.38-2.69c1.53-1.6,3.67-3.76,6.06-6.12s4.59-4.47,6.21-6a18.67,18.67,0,0,1,2.71-2.33,17.38,17.38,0,0,1-2.36,2.69c-1.53,1.59-3.67,3.76-6.08,6.13s-4.59,4.47-6.21,6A16.39,16.39,0,0,1,170.93,104.3Z" style="fill:#e0e0e0"></path><path d="M75.79,104.55a18.27,18.27,0,0,1-2.7-2.38c-1.59-1.53-3.75-3.67-6.11-6.06s-4.47-4.59-6-6.21a17.54,17.54,0,0,1-2.32-2.71,18.11,18.11,0,0,1,2.69,2.36c1.59,1.53,3.76,3.67,6.12,6.08s4.48,4.59,6,6.21A16.39,16.39,0,0,1,75.79,104.55Z" style="fill:#e0e0e0"></path><path d="M170.93,203.22s0-.17,0-.48,0-.79,0-1.38c0-1.24,0-3,0-5.35,0-4.69,0-11.52-.08-20.21,0-17.37-.09-42.12-.16-71.76l.31.31-94.87.05h0l.36-.36c0,36.4,0,70.46,0,99.18l-.31-.31,68.72.16,19.29.08,5.1,0,1.32,0,.45,0h-.42l-1.28,0-5,0-19.23.08-68.91.15h-.31v-.3c0-28.72,0-62.78,0-99.18v-.36h.37l94.87,0h.32V104c-.06,29.72-.12,54.55-.15,72,0,8.66-.07,15.46-.08,20.14,0,2.3,0,4.07,0,5.29,0,.58,0,1,0,1.34A3.82,3.82,0,0,1,170.93,203.22Z" style="fill:#e0e0e0"></path><path d="M101.16,145.47S99.12,170,125.72,170C125.72,156.92,114.91,146.58,101.16,145.47Z" style="fill:#ebebeb"></path><path d="M149.82,145.49s-24.55-2-24.55,24.56C138.37,170.05,148.71,159.23,149.82,145.49Z" style="fill:#ebebeb"></path><path d="M124.54,132.05s-20.06,18,1.1,38C135.48,159.6,134.64,143.25,124.54,132.05Z" style="fill:#e0e0e0"></path><rect x="290.88" y="53.45" width="164.66" height="272.56" style="fill:#e0e0e0"></rect><rect x="285.4" y="53.45" width="164.66" height="272.56" style="fill:#ebebeb"></rect><rect x="292.42" y="58.98" width="150.64" height="261.51" style="fill:#fafafa"></rect><rect x="321.09" y="92.96" width="92.63" height="193.54" style="fill:#ebebeb"></rect><path d="M321.09,218c-.21-18.08,16.05-35.73,34-38.25,8.54-1.2,17.61.49,25.58-2.78,14.24-5.84,18.77-24.76,33.1-30.37l.66,139.89H321.09Z" style="fill:#e0e0e0"></path></g><g id="background-simple"><g style="opacity:0.4"><path d="M415.75,139.17c-22.18-22.55-56.17-32.79-87.12-26.24s-57.88,29.65-69.05,59.25c-6.56,17.41-8.4,37.46-20.86,51.28-16.21,18-43.74,18.55-67.94,17.8s-51.76-.11-67.89,17.95c-10.11,11.3-13.32,27.38-12.5,42.53,2.15,40.09,30.44,75.94,66.42,93.76s78.35,19.41,117.73,11.57c55.16-11,107.62-41.13,139.15-87.71s39.52-110,14.29-160.3" style="fill:#fafafa"></path></g><path d="M418.16,67.4c-16.63-11.33-39.37-17.18-59.42-18.85S305,57.35,284.89,83.83c-26.6,35-31.16,67.71-61.3,99.68C193,215.92,140.24,210.67,100.15,230.1c-39.19,19-63.86,63.52-61,107s32.16,83.67,71.92,101.45,146.29,13.24,183.14-10h0c50.23-13,96.77-41.58,129-82.27s45.32-95.47,50.48-147.11C478.61,150,461,96.64,418.16,67.4Z" style="fill:#e0e0e0"></path><circle cx="144.08" cy="130.27" r="47.55" transform="translate(-15.28 241.32) rotate(-76.99)" style="fill:#e0e0e0"></circle></g><g id="Floor"><path d="M468,479.06c0,.14-97.59.26-217.95.26s-218-.12-218-.26,97.57-.26,218-.26S468,478.92,468,479.06Z" style="fill:#263238"></path></g><g id="Character"><path d="M181.55,162.73c3,5.42,1.74,12.27-.8,17.94s-6.23,10.84-8,16.79-1.14,13.28,3.75,17.12c1.77,1.4,4.13,2.43,4.81,4.57.52,1.63-.12,3.36-.27,5.06-.38,4.39,2.87,8.65,7.05,10.06s9,.27,12.53-2.33a22.86,22.86,0,0,0,7.55-10.66" style="fill:#263238"></path><path d="M312.63,199.25c1.58-4.74,10.32-.78,13.29-4.8a13,13,0,0,0,.65-14.11c-3.1-5.13-9.49-7.63-12.44-12.85-2.71-4.8-1.9-10.73-1.32-16.22s.62-11.68-3.14-15.73l-23.49,22S312.06,200.92,312.63,199.25Z" style="fill:#263238"></path><path d="M310,149.81c-4.49,3.94-5.51,10.77-3.95,16.53s5.25,10.69,9.05,15.3,7.84,9.14,10.3,14.58,3.13,12.08.12,17.24c-4.68,8-15.88,9.46-22.26,16.19a91.68,91.68,0,0,0-20.8-26.75" style="fill:#263238"></path><path d="M182,391s-6.57,44.48-13,53.92l33.34,12,16.39-33.51L205,363.54Z" style="fill:#FF725E"></path><path d="M202.27,428.22a4.41,4.41,0,0,1-1-.12c-.67-.1-1.63-.28-2.81-.52-2.35-.49-5.59-1.27-9.11-2.32s-6.66-2.17-8.9-3.05c-1.12-.44-2-.82-2.64-1.1a4,4,0,0,1-.93-.47,3.73,3.73,0,0,1,1,.29l2.68.93c2.27.79,5.42,1.85,8.93,2.9s6.72,1.88,9,2.46l2.76.69A3.52,3.52,0,0,1,202.27,428.22Z" style="fill:#fafafa"></path><path d="M198.73,406.15a12.24,12.24,0,0,1-2.81-.13,58.35,58.35,0,0,1-13.22-3,12.63,12.63,0,0,1-2.58-1.1,17.16,17.16,0,0,1,2.7.75c1.66.5,4,1.16,6.52,1.75s4.92,1,6.63,1.26A17.28,17.28,0,0,1,198.73,406.15Z" style="fill:#fafafa"></path><path d="M198.89,450.57a4.51,4.51,0,0,1-1.13-.21c-.73-.16-1.77-.43-3-.79-2.56-.71-6.06-1.83-9.85-3.27s-7.14-2.95-9.53-4.12c-1.19-.59-2.15-1.08-2.8-1.44a4.94,4.94,0,0,1-1-.6,5.16,5.16,0,0,1,1.07.42l2.87,1.28c2.42,1.09,5.78,2.53,9.56,4s7.24,2.6,9.77,3.41l3,.95A4.74,4.74,0,0,1,198.89,450.57Z" style="fill:#fafafa"></path><g style="opacity:0.30000000000000004"><path d="M179.84,404c3-1.22,6.37-2.5,9.33-3.72q2.18,24.24,4.37,48.47a10.21,10.21,0,0,0,.91,4,3.5,3.5,0,0,0,3.31,2c1.37-.17,2.34-1.38,3.12-2.52,5.13-7.57,8-16.54,9.11-25.61s.72-18.27-.28-27.36c-.73-6.57-1.75-13.16-4.06-19.36-.84-2.26-1.94-4.57-3.9-6-2.5-1.79-5.94-1.75-8.84-.73-5.61,2-7.48,7-9.3,12.68S179.84,404,179.84,404"></path></g><path d="M360,478.9,334.87,393l8.46-143.4c-17.27-9.41-37.77-16.86-67-18l-52.69,4L178,260.89l10.85,86.66,13.81,76.12-8.26,55.23Z" style="fill:#455a64"></path><path d="M243.41,456.87a5.47,5.47,0,0,1-1.29.06c-.83,0-2,0-3.52-.13A63.82,63.82,0,0,1,216.18,451c-1.34-.63-2.41-1.19-3.14-1.6a5.17,5.17,0,0,1-1.09-.69,6.42,6.42,0,0,1,1.19.51c.74.36,1.84.86,3.19,1.44a76.27,76.27,0,0,0,10.93,3.77,75.07,75.07,0,0,0,11.37,2c1.47.15,2.67.25,3.49.3A5.47,5.47,0,0,1,243.41,456.87Z" style="fill:#263238"></path><path d="M192.65,319.85,158,352.44l7.8-85.56L139,262.42l-3.49,8.75c-5.38,1.88-30,84.9-20.33,122.92,6.84,26.76,54,27.48,81.29-17.51Z" style="fill:#455a64"></path><path d="M331.58,329.22s45.41-5.47,45.51-9.84c.17-7.37-22.17-64.64-34.41-69.88S331.58,329.22,331.58,329.22Z" style="fill:#455a64"></path><path d="M178.7,260.49s-16.27,6.22-19,33.07-4.59,63.34-4.59,63.34l13.69,46.36,25.66-23.87Z" style="fill:#455a64"></path><path d="M164.5,276.16a5.32,5.32,0,0,1-1.14.19c-.75.09-1.83.17-3.16.2a50.59,50.59,0,0,1-10.42-.8,45.43,45.43,0,0,1-10-3,26,26,0,0,1-2.84-1.4,4.87,4.87,0,0,1-1-.62c0-.08,1.49.7,4,1.68a53.48,53.48,0,0,0,10,2.82,60.68,60.68,0,0,0,10.32.95C162.85,276.2,164.5,276.07,164.5,276.16Z" style="fill:#263238"></path><path d="M165.84,266.88a5.75,5.75,0,0,1-.05.62c-.06.44-.13,1-.23,1.8-.21,1.61-.52,3.93-.92,6.88v-.05c.54,2.64,1.19,5.82,1.79,9.48a103.29,103.29,0,0,1,1.39,12.33,94.4,94.4,0,0,1-.46,14.57c-.5,5.15-1.46,10.5-2.22,16a64.94,64.94,0,0,0-.65,12.43A39,39,0,0,0,167,352.26c1.22,3.49,2.3,7,2.23,10.33a24,24,0,0,1-.47,4.8,31.76,31.76,0,0,1-1.25,4.26,45.22,45.22,0,0,1-3.31,6.85c-1.13,1.93-2.2,3.53-3.09,4.83s-1.61,2.28-2.1,2.95l-.57.75a1.58,1.58,0,0,1-.21.25,1.93,1.93,0,0,1,.17-.28l.52-.78c.47-.69,1.16-1.69,2-3s1.91-2.93,3-4.87a45.12,45.12,0,0,0,3.21-6.83,31.46,31.46,0,0,0,1.2-4.21,24,24,0,0,0,.44-4.71c.05-3.3-1-6.69-2.25-10.18A38.78,38.78,0,0,1,164,341a63.52,63.52,0,0,1,.64-12.54c.76-5.56,1.72-10.89,2.23-16a95.11,95.11,0,0,0,.51-14.5,108.52,108.52,0,0,0-1.3-12.29c-.58-3.66-1.19-6.84-1.7-9.49v0c.45-2.94.8-5.25,1-6.86.13-.76.22-1.35.3-1.79A5.36,5.36,0,0,1,165.84,266.88Z" style="fill:#263238"></path><path d="M165.26,322.16a10.21,10.21,0,0,1,1.12,1.08c.35.35.77.8,1.22,1.35s1,1.15,1.5,1.89a29.18,29.18,0,0,1,1.65,2.43,32.67,32.67,0,0,1,1.67,2.92,40.1,40.1,0,0,1,4.32,14.72c.08,1.19.19,2.31.17,3.36s0,2-.08,2.93-.16,1.7-.25,2.41a14.78,14.78,0,0,1-.29,1.8,8,8,0,0,1-.37,1.51,10.09,10.09,0,0,1,.17-1.55c.07-.49.16-1.09.2-1.79s.17-1.51.17-2.4.07-1.85,0-2.9-.12-2.15-.22-3.32A42.23,42.23,0,0,0,172,332c-.55-1-1.05-2-1.62-2.91s-1.07-1.7-1.58-2.43-1-1.36-1.43-1.92-.81-1-1.14-1.41A7.74,7.74,0,0,1,165.26,322.16Z" style="fill:#263238"></path><path d="M184,293.05s0,.06.1.21.13.38.21.63c.18.57.48,1.39.77,2.47a72.9,72.9,0,0,1,1.92,9.32,118.36,118.36,0,0,1,1,14.06c.11,5.31,0,11.14-.11,17.26s-.23,11.95-.07,17.23a54.39,54.39,0,0,0,2,13.85,44.59,44.59,0,0,0,3.69,8.7c.52,1,1,1.71,1.29,2.23l.34.58.1.21s-.06-.05-.15-.18l-.37-.55c-.32-.5-.84-1.21-1.38-2.19a41.61,41.61,0,0,1-3.87-8.69,53.52,53.52,0,0,1-2.12-13.94c-.19-5.31,0-11.14,0-17.26s.24-11.95.15-17.24a124.19,124.19,0,0,0-.93-14,81.77,81.77,0,0,0-1.75-9.32c-.26-1.08-.52-1.91-.67-2.49-.06-.26-.12-.47-.17-.65S184,293.05,184,293.05Z" style="fill:#263238"></path><path d="M345.06,251.66a15.28,15.28,0,0,1-1.8.59,40.77,40.77,0,0,0-4.81,1.85,40.22,40.22,0,0,0-22.82,29.74,17.37,17.37,0,0,1-.35,1.87,1.94,1.94,0,0,1,0-.5c0-.32,0-.79.14-1.4a35.1,35.1,0,0,1,1-5.08,38.34,38.34,0,0,1,21.84-25,34.26,34.26,0,0,1,4.9-1.7c.59-.17,1.06-.25,1.37-.32A2.18,2.18,0,0,1,345.06,251.66Z" style="fill:#263238"></path><path d="M141.29,272.74a10.2,10.2,0,0,1,1.16-9.1,33.11,33.11,0,0,0-1.14,4.48A35.17,35.17,0,0,0,141.29,272.74Z" style="fill:#263238"></path><path d="M150.27,264.29a20.76,20.76,0,0,1-2.14,11c-.15-.06.72-2.42,1.31-5.43S150.11,264.29,150.27,264.29Z" style="fill:#263238"></path><path d="M157.35,265.78a9.41,9.41,0,0,1,0,5.49,9.29,9.29,0,0,1-2.67,4.79,24.85,24.85,0,0,0,2.17-4.92A25.88,25.88,0,0,0,157.35,265.78Z" style="fill:#263238"></path><path d="M162.3,266.54a9.47,9.47,0,0,1,.42,5.1,9.34,9.34,0,0,1-1.84,4.77,34.36,34.36,0,0,0,1.32-4.85A35.88,35.88,0,0,0,162.3,266.54Z" style="fill:#263238"></path><path d="M162.42,334.72a1.8,1.8,0,0,1-.25-.31c-.18-.24-.4-.54-.66-.91-.58-.8-1.43-2-2.55-3.39a79.08,79.08,0,0,0-10.14-10.68h.31c-2.69,2-5.58,4.35-8.53,6.85-3.36,2.86-6.46,5.68-9.21,8.32l-.19.18-.16-.2a87.63,87.63,0,0,1-7.8-11.36c-.84-1.46-1.46-2.64-1.87-3.46l-.45-.94c-.1-.22-.15-.33-.13-.34a1.74,1.74,0,0,1,.2.3l.52.91c.45.79,1.11,1.95,2,3.39a96.22,96.22,0,0,0,7.92,11.19l-.35,0c2.73-2.66,5.83-5.5,9.2-8.36,3-2.51,5.87-4.82,8.57-6.85l.16-.12.15.13a73.78,73.78,0,0,1,10.05,10.86c1.1,1.46,1.91,2.66,2.45,3.49.27.41.46.74.6,1A1.41,1.41,0,0,1,162.42,334.72Z" style="fill:#fafafa"></path><path d="M165.86,354.62a4.32,4.32,0,0,1-.52-.5l-1.45-1.47c-1.25-1.28-3.07-3.12-5.43-5.3-1.17-1.08-2.48-2.25-3.91-3.47L152.31,342a10.34,10.34,0,0,0-2.52-1.65,3.43,3.43,0,0,0-2.95.06,11.44,11.44,0,0,0-2.6,2l-5.2,4.88-7,6.56-.17.16-.17-.16A105.3,105.3,0,0,1,119.46,340c-1.35-1.85-2.37-3.38-3-4.43-.34-.53-.59-.95-.76-1.23a1.65,1.65,0,0,1-.23-.43,2.15,2.15,0,0,1,.3.39c.22.3.49.69.83,1.17.72,1,1.78,2.52,3.16,4.34A115.38,115.38,0,0,0,132,353.54h-.34l7-6.58,5.21-4.87a11.56,11.56,0,0,1,2.74-2.12,4,4,0,0,1,3.35-.06,11.16,11.16,0,0,1,2.63,1.75q1.15,1,2.22,1.89c1.43,1.24,2.72,2.43,3.89,3.54,2.32,2.21,4.11,4.09,5.32,5.42.61.66,1.07,1.18,1.37,1.54A3.91,3.91,0,0,1,165.86,354.62Z" style="fill:#fafafa"></path><path d="M173.17,335.79a28.77,28.77,0,0,1-4,3.78,28.21,28.21,0,0,1-4.38,3.39,30.22,30.22,0,0,1,4-3.78A30.17,30.17,0,0,1,173.17,335.79Z" style="fill:#fafafa"></path><path d="M187.59,314.72s-.24.26-.62.76a14.75,14.75,0,0,0-1.35,2.31,8.28,8.28,0,0,1-2.47,3.23,3.41,3.41,0,0,1-2.41.65,6.21,6.21,0,0,1-2.36-1.16c-2.9-1.92-5.5-3.69-7.38-5-.93-.65-1.68-1.18-2.2-1.56a3.75,3.75,0,0,1-.77-.64,3.57,3.57,0,0,1,.88.47c.55.33,1.34.81,2.3,1.43,1.92,1.22,4.56,2.94,7.46,4.87a5.73,5.73,0,0,0,2.15,1.08,2.85,2.85,0,0,0,2.06-.54,8.09,8.09,0,0,0,2.41-3,11.9,11.9,0,0,1,1.52-2.26A2.47,2.47,0,0,1,187.59,314.72Z" style="fill:#fafafa"></path><path d="M186.49,308.83a22.08,22.08,0,0,1-2.81-1.28c-1.71-.83-4.07-2-6.7-3.18s-5-2.27-6.78-3a20.11,20.11,0,0,1-2.8-1.31,17.56,17.56,0,0,1,2.93,1c1.79.68,4.22,1.68,6.87,2.9s5,2.41,6.65,3.33A14.94,14.94,0,0,1,186.49,308.83Z" style="fill:#fafafa"></path><path d="M250.22,343.48l-.24-.13-.67-.44-2.52-1.7-9.12-6.31.27,0L222,354a21.34,21.34,0,0,1-2.85,3,5.31,5.31,0,0,1-3.86,1.28,8.85,8.85,0,0,1-3.66-1.42c-1.08-.67-2.08-1.38-3.08-2L198,347.66l-7.1-4.84L189,341.48a7.54,7.54,0,0,1-.65-.5,4.32,4.32,0,0,1,.71.41l2,1.26,7.18,4.71,10.62,7c1,.66,2,1.37,3.07,2a8.53,8.53,0,0,0,3.45,1.33,4.81,4.81,0,0,0,3.5-1.18,20.49,20.49,0,0,0,2.77-2.94l16-19,.12-.15.15.11,9,6.45,2.46,1.79.64.49C250.16,343.41,250.23,343.47,250.22,343.48Z" style="fill:#fafafa"></path><path d="M250.43,320.46a4.14,4.14,0,0,1-.64-.37c-.41-.25-1-.63-1.81-1.1s-1.77-1-2.94-1.58a20,20,0,0,0-4.13-1.51,10.56,10.56,0,0,0-5.22,0A8.51,8.51,0,0,0,233,317a14,14,0,0,0-2.38,2c-2.94,3.17-6.11,6.78-9.47,10.5a23,23,0,0,1-2.67,2.64,6.68,6.68,0,0,1-6.88,1.27,29.43,29.43,0,0,1-3.12-1.27L198,327.45l-7.09-3.24L189,323.3a3.75,3.75,0,0,1-.66-.35,5.74,5.74,0,0,1,.7.26l2,.81,7.16,3.09,10.58,4.64a28.69,28.69,0,0,0,3.08,1.24,6.27,6.27,0,0,0,6.41-1.2,22.7,22.7,0,0,0,2.6-2.59c3.37-3.72,6.52-7.3,9.51-10.49a15.05,15.05,0,0,1,2.48-2.07,9.33,9.33,0,0,1,2.8-1.21,11,11,0,0,1,5.42.11,20.17,20.17,0,0,1,4.17,1.61,32.44,32.44,0,0,1,2.92,1.67c.77.49,1.36.9,1.76,1.18A3.77,3.77,0,0,1,250.43,320.46Z" style="fill:#fafafa"></path><path d="M323.85,322.5a9,9,0,0,1-.88,1.3c-.65.89-1.5,2.05-2.53,3.44-2.16,2.88-5.18,6.85-8.53,11.21l-4.74,6.13c-.75.94-1.4,1.85-2.13,2.66a4.27,4.27,0,0,1-2.63,1.49,5.59,5.59,0,0,1-2.46-.31,11.09,11.09,0,0,1-1.69-.76c-.45-.25-.78-.46-1-.6s-.33-.24-.32-.26.5.25,1.41.68a11.73,11.73,0,0,0,1.69.66,5.29,5.29,0,0,0,2.32.22,3.86,3.86,0,0,0,2.36-1.41c.68-.78,1.34-1.72,2.07-2.66l4.71-6.16c3.35-4.36,6.41-8.29,8.64-11.12l2.67-3.33A8.94,8.94,0,0,1,323.85,322.5Z" style="fill:#fafafa"></path><path d="M313.51,303.68a102.24,102.24,0,0,1-5.69,8.67,101.65,101.65,0,0,1-6.13,8.36c-.11-.08,2.43-4,5.7-8.66S313.39,303.6,313.51,303.68Z" style="fill:#fafafa"></path><path d="M274.88,214.32A29.2,29.2,0,0,0,309.71,183c-.79-8.43-4.09-12.64-2-20.85,1.41-5.64,3.57-10.17,4.72-15.87,1.72-8.5-2.88-20.79-8.2-27.64-3.42-4.39-6.9-8.86-11.46-12.06s-17.29-5.62-26.07-7.71" style="fill:#263238"></path><path d="M189.26,110c.92,6.34-2.89,12.33-6.79,17.41s-8.26,10.4-8.73,16.78c-.83,11.33,10.88,21,9.4,32.21-.79,6-5.32,11.15-5.77,17.22-.42,5.87,3.09,11.34,7.26,15.49s9.14,7.5,12.89,12c0,0,7.94,11.15,29.29,2.14" style="fill:#263238"></path><path d="M287.89,112.85c-.24-5.79-5.91-9.88-11.44-11.62s-11.56-2.11-16.59-5c-4.44-2.55-7.61-6.81-11.47-10.2A35.67,35.67,0,0,0,189.7,106.6c-1.49,8.38.61,18,7.49,23,8,5.81,19,3.61,28.55.95s20.29-5.38,28.75-.28c5.1,3.07,8.27,8.43,11.61,13.37s7.43,9.92,13.18,11.45,13.15-2.34,12.94-8.29" style="fill:#263238"></path><path d="M265.18,115.65a9.69,9.69,0,0,1,9.33,9.21h0l3.48,131c.85,15.44-21.08,25.7-37.62,26.49h0c-16.71.79-17.82-7.35-19.07-22-2.09-24.49-2.71-33.7-2.71-33.56s-21.32-2.05-27.57-29.25c-3.11-13.53-4-36-4.06-54.41-.1-16.56,9.45-37.56,26-36.94Z" style="fill:#ffbe9d"></path><path d="M194.57,161a3.55,3.55,0,0,0,3.65,3.33,3.38,3.38,0,0,0,3.42-3.43,3.54,3.54,0,0,0-3.64-3.33A3.39,3.39,0,0,0,194.57,161Z" style="fill:#263238"></path><path d="M192.5,152.69c.46.43,3-1.73,6.8-2s6.7,1.46,7.08,1c.19-.22-.31-1-1.58-1.82a9.65,9.65,0,0,0-5.72-1.34,9.27,9.27,0,0,0-5.37,2.15C192.6,151.64,192.27,152.5,192.5,152.69Z" style="fill:#263238"></path><path d="M231.19,160a3.53,3.53,0,0,0,3.64,3.32,3.38,3.38,0,0,0,3.42-3.43,3.54,3.54,0,0,0-3.64-3.33A3.39,3.39,0,0,0,231.19,160Z" style="fill:#263238"></path><path d="M230,152.62c.47.43,3-1.73,6.81-2s6.7,1.46,7.08,1c.19-.22-.31-1-1.59-1.82a9.67,9.67,0,0,0-5.71-1.34,9.27,9.27,0,0,0-5.37,2.15C230.09,151.57,229.75,152.43,230,152.62Z" style="fill:#263238"></path><path d="M218.13,181.71c0-.21-2.38-.46-6.24-.69-1,0-1.91-.16-2.11-.81a4.87,4.87,0,0,1,.45-2.92c.75-2.4,1.53-4.93,2.36-7.57,3.25-10.78,5.54-19.62,5.11-19.75s-3.43,8.51-6.69,19.29c-.78,2.66-1.53,5.19-2.24,7.61-.29,1.13-.83,2.42-.24,3.84a2.45,2.45,0,0,0,1.69,1.31,6.62,6.62,0,0,0,1.66.11C215.74,182.08,218.13,181.93,218.13,181.71Z" style="fill:#263238"></path><path d="M218.59,226.8a70,70,0,0,0,36.15-12.35s-8,19.55-35.69,18.86Z" style="fill:#eb996e"></path><path d="M220.36,190.75a6.86,6.86,0,0,1,6-3,6.21,6.21,0,0,1,4.47,2,4,4,0,0,1,.61,4.5c-.92,1.51-3,2-4.89,1.6a14.63,14.63,0,0,1-5-2.56,4.32,4.32,0,0,1-1.16-1,1.3,1.3,0,0,1-.09-1.42" style="fill:#eb996e"></path><path d="M227.49,142.86c.45,1,4.2.26,8.69.49s8.18,1.2,8.7.23c.24-.46-.46-1.38-2-2.28a15.08,15.08,0,0,0-13.25-.55C228.06,141.52,227.3,142.38,227.49,142.86Z" style="fill:#263238"></path><path d="M193.26,143.4c.73.81,3.28-.26,6.42-.52s5.85.18,6.4-.76c.24-.46-.24-1.29-1.46-2a9.35,9.35,0,0,0-10.33,1C193.24,142.08,192.94,143,193.26,143.4Z" style="fill:#263238"></path><path d="M290.79,204.75a24.48,24.48,0,0,1-31-24.95c.38-6.81,3.53-13.94.74-20.16-3.7-8.23-15.73-10-19.47-18.2-2.17-4.78-.94-10.63-3.35-15.28-2.26-4.38-7.2-6.64-11.94-8S216,116,211.92,113.28,205,105,207.21,100.6a261.76,261.76,0,0,1,61.11,10.34c4.61,1.36,9.46,3,12.4,6.84,3.11,4,3.36,9.49,3.48,14.57q.9,37.16,1.79,74.3" style="fill:#263238"></path><path d="M228.88,195.87c0-.15.35-.22.78-.43a3.21,3.21,0,0,0,1.35-1.35,2.82,2.82,0,0,0,0-2.57,5.1,5.1,0,0,0-2.43-2.45,6.55,6.55,0,0,0-6.42.3c-1.55.93-2.21,2-2.49,1.85-.13-.06-.13-.41.1-1a5.58,5.58,0,0,1,1.5-2.06,7.1,7.1,0,0,1,3.5-1.69,7.68,7.68,0,0,1,4.75.71,6.54,6.54,0,0,1,3.29,3.63,4.64,4.64,0,0,1,.21,2.26,3.79,3.79,0,0,1-.83,1.82,3.27,3.27,0,0,1-2.39,1.31C229.16,196.23,228.86,196,228.88,195.87Z" style="fill:#263238"></path><path d="M309.49,148.74a22.76,22.76,0,0,1-4.57.82,34.73,34.73,0,0,1-12.59-1.27,46.41,46.41,0,0,1-8.17-3.18,58,58,0,0,1-8.53-5.34c-5.72-4.23-11.23-9.79-16.84-15.7a76.52,76.52,0,0,0-8.58-8.2,24.17,24.17,0,0,0-9.8-4.74,46,46,0,0,0-9.94-.83c-3.14,0-6.07.1-8.75,0a28.28,28.28,0,0,1-12.29-2.91,16.51,16.51,0,0,1-2.85-2c-.26-.26-.48-.46-.65-.62a1.29,1.29,0,0,1-.2-.22,1,1,0,0,1,.24.18l.68.58a17.51,17.51,0,0,0,2.88,1.85,28.55,28.55,0,0,0,12.2,2.72c2.67.11,5.59,0,8.74,0a45.73,45.73,0,0,1,10,.79,24.65,24.65,0,0,1,10,4.81,77.58,77.58,0,0,1,8.64,8.24c5.61,5.91,11.09,11.45,16.74,15.67a58.37,58.37,0,0,0,8.44,5.34,46.8,46.8,0,0,0,8.08,3.22,35.69,35.69,0,0,0,12.47,1.42c.75,0,1.4-.12,2-.2s1.05-.15,1.44-.23l.88-.16A1.14,1.14,0,0,1,309.49,148.74Z" style="fill:#455a64"></path><path d="M310.12,129.51l-.27.1-.81.27a13.79,13.79,0,0,1-3.25.49,14.58,14.58,0,0,1-5.11-.9,37.42,37.42,0,0,1-6.17-3.06,46.34,46.34,0,0,1-6.79-4.83c-2.3-1.92-4.61-4.13-7.06-6.44a85,85,0,0,0-8-6.82,31.33,31.33,0,0,0-10-5.06,32.08,32.08,0,0,0-11.14-.94,76.74,76.74,0,0,0-10.37,1.62c-3.29.7-6.39,1.46-9.34,2a67.28,67.28,0,0,1-8.25,1.11,31.63,31.63,0,0,1-12-1.22,17.49,17.49,0,0,1-1.78-.66,11.15,11.15,0,0,1-1.26-.58l-.75-.4a1.16,1.16,0,0,1-.25-.15.83.83,0,0,1,.28.1l.77.35a12.1,12.1,0,0,0,1.27.54,16,16,0,0,0,1.78.6,32.2,32.2,0,0,0,11.87,1.06,71.17,71.17,0,0,0,8.2-1.17c2.93-.58,6-1.36,9.31-2.07a77.11,77.11,0,0,1,10.45-1.66,32.42,32.42,0,0,1,11.31,1A31.8,31.8,0,0,1,273,107.9a83.88,83.88,0,0,1,8,6.9c2.44,2.31,4.73,4.52,7,6.45a46.66,46.66,0,0,0,6.7,4.84,36.86,36.86,0,0,0,6.08,3.1,14.56,14.56,0,0,0,5,1A18.35,18.35,0,0,0,310.12,129.51Z" style="fill:#455a64"></path><path d="M205.27,106.9a21.27,21.27,0,0,0-2.5-.15,13.33,13.33,0,0,0-6.4,2.08,18.83,18.83,0,0,0-6.59,7.48,67.2,67.2,0,0,0-4.3,11.66c-.66,2.12-1.35,4.19-2.17,6.12a42.18,42.18,0,0,1-2.82,5.36c-2,3.26-3.76,6.28-4.26,9.13a9.52,9.52,0,0,0,2,8.73,3.84,3.84,0,0,1-.48-.45,6.61,6.61,0,0,1-1.07-1.54,10.72,10.72,0,0,1-.8-6.81c.47-2.94,2.23-6,4.21-9.31a42,42,0,0,0,2.76-5.31,63.54,63.54,0,0,0,2.14-6.07,65.23,65.23,0,0,1,4.38-11.73,19,19,0,0,1,6.81-7.58,13.1,13.1,0,0,1,6.59-2,9.75,9.75,0,0,1,1.87.18A2.81,2.81,0,0,1,205.27,106.9Z" style="fill:#455a64"></path><path d="M261.33,174.24a29.29,29.29,0,0,0-1.17,29.3c4.46,8.23,13.18,15.15,12.56,24.49-.2,3.12-1.49,6.07-1.88,9.17s.47,6.76,3.26,8.16c6.29-2.77,10.49-8.32,12.7-16.55,3.67-11.3-.22-25.47-4.51-36.56" style="fill:#263238"></path><path d="M309.36,224.47l.47-.07.56-.08.77-.22a7.37,7.37,0,0,0,3.86-3.38,11,11,0,0,0,1.11-8,14,14,0,0,0-2.36-4.57,23.82,23.82,0,0,0-4.12-4.09c-3.18-2.59-7.23-4.65-11-7.69a21.25,21.25,0,0,1-5.08-5.57,14.59,14.59,0,0,1-1.55-3.65,20.84,20.84,0,0,1-.59-4c-.13-2.74.11-5.53.15-8.36a29.06,29.06,0,0,0-.24-4.26,14.83,14.83,0,0,0-1.26-4.11,15,15,0,0,0-6.15-6.22,37.63,37.63,0,0,0-8.54-3.45c-3-.87-6-1.64-8.9-2.75a21.72,21.72,0,0,1-7.72-4.74,20.3,20.3,0,0,1-4.48-7.52c-1-2.68-1.69-5.39-2.54-8a26.21,26.21,0,0,0-3.32-7.11,15.78,15.78,0,0,0-5.51-4.83c-4.26-2.23-8.79-2.92-12.82-3.59-2-.33-4-.6-5.79-1a38.24,38.24,0,0,1-5.05-1.45,29,29,0,0,1-4.14-1.94,18.76,18.76,0,0,1-3.09-2.28,11.72,11.72,0,0,1-3.07-4.31,7.35,7.35,0,0,1-.44-1.31,4.5,4.5,0,0,1-.12-.45s.18.62.66,1.72a11.92,11.92,0,0,0,3.11,4.2,18,18,0,0,0,3.08,2.21,27.1,27.1,0,0,0,4.11,1.88,36.43,36.43,0,0,0,5,1.4c1.8.38,3.74.64,5.78,1,4,.65,8.6,1.31,13,3.57a16.4,16.4,0,0,1,5.68,4.94,27.12,27.12,0,0,1,3.4,7.23c.86,2.59,1.56,5.29,2.54,7.94a20.08,20.08,0,0,0,4.38,7.33,21.42,21.42,0,0,0,7.55,4.62c2.83,1.09,5.84,1.86,8.86,2.73a38.25,38.25,0,0,1,8.65,3.5,15.69,15.69,0,0,1,6.35,6.44,15.17,15.17,0,0,1,1.29,4.26,29,29,0,0,1,.25,4.35c-.05,2.85-.3,5.63-.17,8.33a20.46,20.46,0,0,0,.56,3.93,14.59,14.59,0,0,0,1.49,3.54,20.79,20.79,0,0,0,5,5.46c3.74,3,7.79,5.11,11,7.74A24.16,24.16,0,0,1,314,208a14.42,14.42,0,0,1,2.37,4.69,11.11,11.11,0,0,1-1.22,8.19,7.39,7.39,0,0,1-4,3.37l-.78.2-.58,0A3.32,3.32,0,0,1,309.36,224.47Z" style="fill:#455a64"></path><path d="M247.08,89.09s-.63-.39-1.77-1.09A27.49,27.49,0,0,0,232,84.09a26.62,26.62,0,0,0-10,1.63,26.22,26.22,0,0,0-8.57,5.44,27.21,27.21,0,0,0-5.12,6.56,26.79,26.79,0,0,0-2.22,5.18c-.39,1.28-.56,2-.6,2a1.65,1.65,0,0,1,.07-.53,14.08,14.08,0,0,1,.33-1.51,24.14,24.14,0,0,1,2.1-5.3,26.54,26.54,0,0,1,5.11-6.74A25.4,25.4,0,0,1,232,83.61a26.81,26.81,0,0,1,8.29,1.65,24.34,24.34,0,0,1,5.09,2.57,13.54,13.54,0,0,1,1.25.91A2.56,2.56,0,0,1,247.08,89.09Z" style="fill:#455a64"></path><path d="M206.68,222.06s-13.7,9.85-9.19,24.13c4.71,14.92,2,27.6,5.17,35.9C208.3,297,226,302.44,240.45,300.74s86.46-9.93,67.67-59.45L305.84,229a20.19,20.19,0,0,0-22.28-16.49l-.23,0-6.47.89c-1.55,42.81-52.15,48.86-58.27,13.37C214.78,226.53,210.77,224.64,206.68,222.06Z" style="fill:#FF725E"></path><path d="M247.32,294.79c6,15.8,7.19,42.54.89,58.21s-14.5,31-16.15,47.82a64.19,64.19,0,0,0,16.23,48.89c4.13,4.51,9.65,11.07,16.64,18.42,4.9,5.15,8.48,9.68,8.48,9.68,12.88,1.09,60.13.26,60.13.26-8.21-9.44-32.79-47.05-39-57.9s-10.35-23.26-9.54-35.74c1-15.46,9.29-29.37,14-44.11a99.61,99.61,0,0,0-2.19-66.7Z" style="fill:#FF725E"></path><g style="opacity:0.30000000000000004"><path d="M277,214.66s-.76,23.81-19.79,32.07c-31.66,13.74-38.65-19.36-38.65-19.36.07,7.85,4.49,15.34,10.86,19.94s14.48,6.43,22.31,5.94a54.15,54.15,0,0,0,22.32-6.92c3.63-2,6.2-5.1,8.6-8.47,2.83-4,6.12-10.7,4.93-15.44s-5.87-6.65-10.19-8.95"></path></g><path d="M285.65,217.51a1.31,1.31,0,0,1,.13.24l.34.72a15.57,15.57,0,0,1,.9,2.93,19.79,19.79,0,0,1-1.14,11.09,23.54,23.54,0,0,1-4,6.67,32.2,32.2,0,0,1-6.72,5.87,48,48,0,0,1-8.78,4.5,60.56,60.56,0,0,1-10.13,3.05c-7.1,1.47-14.26,1.31-20.26-.71a27.44,27.44,0,0,1-13.43-9.59A22.56,22.56,0,0,1,218.2,232a18,18,0,0,1-.15-3.05c0-.32,0-.59,0-.79a1.14,1.14,0,0,1,0-.27,1.39,1.39,0,0,1,0,.27c0,.21,0,.47,0,.79a19.71,19.71,0,0,0,.24,3,22.84,22.84,0,0,0,4.46,10.09,27.18,27.18,0,0,0,13.29,9.36c5.92,2,13,2.11,20,.66a60.81,60.81,0,0,0,10-3,48.84,48.84,0,0,0,8.69-4.43,31.39,31.39,0,0,0,6.66-5.75,23.3,23.3,0,0,0,4-6.53,20,20,0,0,0,1.28-10.92A23.15,23.15,0,0,0,285.65,217.51Z" style="fill:#263238"></path><path d="M286.8,256.38s-.05.08-.16.2l-.49.57c-.45.47-1.06,1.23-2,2.09A55.07,55.07,0,0,1,276,266,58.19,58.19,0,0,1,262,273a56.84,56.84,0,0,1-37.86-.13,58,58,0,0,1-14-7.1A55.08,55.08,0,0,1,202,259c-.9-.87-1.51-1.63-2-2.11l-.49-.57c-.11-.13-.16-.2-.15-.2s.07.05.19.17l.53.53c.47.45,1.1,1.19,2,2a58.31,58.31,0,0,0,8.2,6.62,62.42,62.42,0,0,0,6.26,3.7,63.71,63.71,0,0,0,7.69,3.26,57.1,57.1,0,0,0,37.55.13,63.9,63.9,0,0,0,7.7-3.2,60.9,60.9,0,0,0,6.29-3.66A58.29,58.29,0,0,0,284,259.1c.93-.84,1.57-1.57,2-2l.53-.53Z" style="fill:#263238"></path><path d="M288.89,258.48a3.86,3.86,0,0,1-.48.52l-1.47,1.43-1.06,1c-.4.37-.86.74-1.34,1.15-1,.81-2,1.78-3.32,2.71l-2,1.5c-.69.52-1.46,1-2.23,1.53-1.53,1.08-3.26,2.08-5.06,3.16a83,83,0,0,1-25.56,9.43c-2.08.35-4,.72-5.9.89-.93.1-1.83.24-2.69.29l-2.49.15c-1.59.13-3,.09-4.29.1-.63,0-1.22,0-1.76,0l-1.47-.08-2-.14a3,3,0,0,1-.71-.08,3.91,3.91,0,0,1,.71,0l2,0,1.48,0c.53,0,1.12,0,1.75,0,1.25,0,2.69,0,4.26-.17l2.48-.19c.86-.06,1.75-.21,2.67-.31,1.85-.19,3.81-.58,5.86-.94a85.58,85.58,0,0,0,25.42-9.38c1.8-1.06,3.53-2,5.06-3.1.77-.52,1.54-1,2.24-1.49l2-1.47c1.3-.91,2.37-1.86,3.36-2.64.48-.4.94-.76,1.35-1.11l1.1-1,1.52-1.36A3.6,3.6,0,0,1,288.89,258.48Z" style="fill:#263238"></path><g style="opacity:0.30000000000000004"><path d="M299.36,281c-15.85,9.28-32.56,14.5-50.45,18.65l.42,1.54,1.66,7.91,51.36-15.56A88.84,88.84,0,0,0,299.36,281Z"></path></g><path d="M306.16,273.4a2.52,2.52,0,0,1-.35.56c-.24.36-.62.87-1.12,1.52a30,30,0,0,1-4.92,4.9,41.63,41.63,0,0,1-8.9,5.21c-3.52,1.59-7.34,3.47-11.47,5.19a116.07,116.07,0,0,1-11.93,4.09c-3.71,1.11-7.08,2-9.92,2.74s-5.14,1.25-6.74,1.61l-1.85.39a3.71,3.71,0,0,1-.65.11,3.28,3.28,0,0,1,.63-.21l1.82-.49,6.7-1.77c2.82-.76,6.17-1.71,9.87-2.84a124.16,124.16,0,0,0,11.87-4.11c4.11-1.72,7.94-3.58,11.48-5.15a42.61,42.61,0,0,0,8.86-5.06,32.58,32.58,0,0,0,5-4.74c.53-.62.93-1.11,1.2-1.45A3.53,3.53,0,0,1,306.16,273.4Z" style="fill:#263238"></path><path d="M206.37,261.82c.11,0-.48,1.93-.86,5.08a37.8,37.8,0,0,0-.24,5.56,37.47,37.47,0,0,0,2.85,13.26,36.88,36.88,0,0,0,2.51,5c1.64,2.72,3,4.21,2.87,4.28a6.57,6.57,0,0,1-.95-1,12.76,12.76,0,0,1-1-1.28c-.37-.51-.82-1.09-1.23-1.78a34.21,34.21,0,0,1-2.63-5,35.6,35.6,0,0,1-2.89-13.44,33.64,33.64,0,0,1,.36-5.62c.08-.8.26-1.5.38-2.13a15.62,15.62,0,0,1,.4-1.58A7.48,7.48,0,0,1,206.37,261.82Z" style="fill:#fafafa"></path><path d="M210.81,225.27a20.1,20.1,0,0,0-3.72,4.77,20.94,20.94,0,0,0-2.08,6.21,29.51,29.51,0,0,0-.27,8c.62,5.71,2.21,10.73,3.07,14.41.46,1.84.79,3.34,1,4.38.1.52.16.93.2,1.21a1.12,1.12,0,0,1,0,.42,10.11,10.11,0,0,1-.43-1.59c-.24-1-.62-2.5-1.12-4.33-1-3.65-2.61-8.65-3.24-14.45a29.22,29.22,0,0,1,.31-8.17,20.71,20.71,0,0,1,2.24-6.3,15.2,15.2,0,0,1,2.75-3.57,9.79,9.79,0,0,1,.94-.79A1.55,1.55,0,0,1,210.81,225.27Z" style="fill:#fafafa"></path><path d="M225,272.24a5.4,5.4,0,0,1-.74-1.13,31.58,31.58,0,0,1-1.69-3.26,40.91,40.91,0,0,1-1.93-5.1,45.66,45.66,0,0,1-1.46-6.53,46.52,46.52,0,0,1-.44-6.67,43.23,43.23,0,0,1,.42-5.44,33.69,33.69,0,0,1,.7-3.61,7.65,7.65,0,0,1,.39-1.29,5.92,5.92,0,0,1-.19,1.34c-.17.84-.36,2.08-.53,3.61a46.44,46.44,0,0,0-.31,5.39,52.36,52.36,0,0,0,.47,6.6,51.68,51.68,0,0,0,1.41,6.46,46.32,46.32,0,0,0,1.81,5.09c.6,1.42,1.13,2.55,1.53,3.31A7,7,0,0,1,225,272.24Z" style="fill:#fafafa"></path><path d="M232.89,301.16a5.79,5.79,0,0,1-1-.74,12.92,12.92,0,0,1-1.16-1c-.43-.4-1-.83-1.45-1.38a30.8,30.8,0,0,1-3.3-4,35.66,35.66,0,0,1-3.08-5.61,35.13,35.13,0,0,1-1.9-6.11,30.53,30.53,0,0,1-.61-5.18c-.05-.74,0-1.41,0-2a14.32,14.32,0,0,1,.11-1.51,5.32,5.32,0,0,1,.2-1.27c.1,0-.12,1.83.06,4.76a32.77,32.77,0,0,0,.71,5.1,37.33,37.33,0,0,0,1.91,6,37.88,37.88,0,0,0,3,5.54,33.33,33.33,0,0,0,3.17,4.05C231.49,300,233,301.08,232.89,301.16Z" style="fill:#fafafa"></path><path d="M248.73,298.24a77.83,77.83,0,0,1-3.84-8.1,76.23,76.23,0,0,1-3.37-8.32,77.44,77.44,0,0,1,3.84,8.11A74.2,74.2,0,0,1,248.73,298.24Z" style="fill:#fafafa"></path><path d="M247.6,280.27a9.1,9.1,0,0,1-.91-2c-.47-1.12-1-2-.83-2.08s.82.69,1.31,1.88A3.56,3.56,0,0,1,247.6,280.27Z" style="fill:#fafafa"></path><path d="M234.42,252c.09,0-.4,1.35-.6,3.57a23.13,23.13,0,0,0,1,8.58,52.42,52.42,0,0,0,3.33,8.07,27.53,27.53,0,0,1,1.55,3.3,3.32,3.32,0,0,1-.55-.81c-.33-.54-.78-1.33-1.32-2.32a43,43,0,0,1-3.51-8.09,21.39,21.39,0,0,1-.85-8.77,14.43,14.43,0,0,1,.58-2.62A3.39,3.39,0,0,1,234.42,252Z" style="fill:#fafafa"></path><path d="M263.85,271.51a22.06,22.06,0,0,1-1-2.89c-.61-1.78-1.52-4.23-2.7-6.85s-2.44-4.9-3.38-6.54a25.27,25.27,0,0,1-1.5-2.67,15.19,15.19,0,0,1,1.81,2.48,52.43,52.43,0,0,1,3.54,6.52,51.56,51.56,0,0,1,2.58,6.95A14.49,14.49,0,0,1,263.85,271.51Z" style="fill:#fafafa"></path><path d="M270.22,273c-.14,0-.4-.67-.88-1.43s-1-1.33-.88-1.45.8.32,1.32,1.17S270.36,272.94,270.22,273Z" style="fill:#fafafa"></path><path d="M273.66,291.93a22.33,22.33,0,0,1-.79-2.58,41,41,0,0,0-2.31-6,41.69,41.69,0,0,0-3.26-5.57,22.43,22.43,0,0,1-1.52-2.22,10.12,10.12,0,0,1,1.82,2,31.23,31.23,0,0,1,5.63,11.72A10.25,10.25,0,0,1,273.66,291.93Z" style="fill:#fafafa"></path><path d="M285.21,259.42a13.25,13.25,0,0,1-1.19-2.19c-.7-1.36-1.68-3.23-2.86-5.25s-2.33-3.78-3.18-5.06a13.16,13.16,0,0,1-1.32-2.11,10.64,10.64,0,0,1,1.62,1.9,51.53,51.53,0,0,1,3.33,5,50.12,50.12,0,0,1,2.74,5.36A10.74,10.74,0,0,1,285.21,259.42Z" style="fill:#fafafa"></path><path d="M283.19,263.6c-.13.07-.5-.35-.84-1s-.52-1.14-.39-1.21.5.36.84.95S283.31,263.53,283.19,263.6Z" style="fill:#fafafa"></path><path d="M293.84,281.07c-.08,0-.24-1.19-.63-3.1a49,49,0,0,0-2.13-7.3,47.47,47.47,0,0,0-3.3-6.84c-1-1.69-1.67-2.69-1.6-2.74s.23.21.57.64a22.78,22.78,0,0,1,1.34,1.9,37.83,37.83,0,0,1,5.48,14.27c.15,1,.24,1.76.27,2.31A2.4,2.4,0,0,1,293.84,281.07Z" style="fill:#fafafa"></path><path d="M309.43,269.81a1.92,1.92,0,0,1-.24-.42c-.14-.29-.35-.71-.59-1.26-.5-1.1-1.19-2.7-2-4.7-1.64-4-3.64-9.6-6.26-15.62a71.65,71.65,0,0,0-8.24-14.59,47.14,47.14,0,0,0-3.26-3.9,16,16,0,0,1-1.25-1.39,2,2,0,0,1,.38.3c.23.22.6.52,1,1A40,40,0,0,1,292.4,233a66.41,66.41,0,0,1,8.42,14.6c2.63,6,4.58,11.68,6.12,15.69.76,2,1.38,3.56,1.84,4.76A12,12,0,0,1,309.43,269.81Z" style="fill:#fafafa"></path><path d="M298.19,217.25c0,.08-.69-.23-1.8-.49a10.76,10.76,0,0,0-4.38-.11,11,11,0,0,0-4.07,1.65c-.94.63-1.44,1.15-1.5,1.09a4.06,4.06,0,0,1,1.28-1.39,9.76,9.76,0,0,1,8.77-1.6A4.22,4.22,0,0,1,298.19,217.25Z" style="fill:#fafafa"></path><path d="M301.47,300s-.15.09-.46.21l-1.37.52c-1.19.44-2.92,1.05-5.07,1.78-4.29,1.48-10.24,3.44-16.85,5.5s-12.62,3.82-17,5c-2.19.61-4,1.09-5.19,1.41l-1.42.35a1.54,1.54,0,0,1-.5.09,2,2,0,0,1,.48-.19l1.39-.45,5.13-1.56,16.95-5.19,16.89-5.35,5.11-1.62,1.4-.42A2.2,2.2,0,0,1,301.47,300Z" style="fill:#fafafa"></path><path d="M302.24,317.55a1.65,1.65,0,0,1-.5.17l-1.45.39L295,319.49c-4.51,1.17-10.72,2.86-17.52,4.94s-12.89,4.15-17.28,5.7L254.94,332l-1.41.49a2,2,0,0,1-.51.13,2.41,2.41,0,0,1,.47-.23l1.38-.58c1.21-.5,3-1.19,5.15-2,4.37-1.64,10.45-3.76,17.26-5.85s13-3.72,17.58-4.8c2.27-.54,4.11-1,5.39-1.22l1.47-.29A2,2,0,0,1,302.24,317.55Z" style="fill:#fafafa"></path><path d="M298.44,337.71a2.24,2.24,0,0,1-.5.19l-1.47.42-5.42,1.5c-4.57,1.27-10.87,3.08-17.78,5.22s-13.12,4.24-17.61,5.78l-5.31,1.83-1.45.48a1.78,1.78,0,0,1-.52.14,1.89,1.89,0,0,1,.48-.23l1.42-.58c1.23-.49,3-1.17,5.26-2,4.46-1.63,10.66-3.77,17.58-5.93s13.24-3.89,17.84-5.07c2.3-.6,4.16-1.05,5.46-1.35l1.49-.33A2.58,2.58,0,0,1,298.44,337.71Z" style="fill:#fafafa"></path><path d="M289,361.69a2.19,2.19,0,0,1-.53.19l-1.56.44-5.74,1.61c-4.83,1.38-11.48,3.41-18.72,6S248.81,375,244.18,377l-5.48,2.35-1.49.63a2.07,2.07,0,0,1-.53.19,2.69,2.69,0,0,1,.49-.28l1.45-.72c1.26-.63,3.11-1.49,5.41-2.51,4.6-2.05,11-4.71,18.29-7.27s13.93-4.54,18.79-5.83c2.44-.64,4.42-1.13,5.79-1.44l1.58-.35A2,2,0,0,1,289,361.69Z" style="fill:#fafafa"></path><path d="M284.89,387.88a2.42,2.42,0,0,1-.53.26l-1.55.64-5.71,2.27-18.83,7.52c-7.35,3-14,5.72-18.73,7.79-2.37,1-4.3,1.88-5.62,2.48l-1.53.68a2,2,0,0,1-.55.2,2.63,2.63,0,0,1,.51-.3l1.49-.76c1.29-.66,3.2-1.55,5.55-2.64,4.73-2.15,11.33-5,18.68-7.94s14-5.55,18.9-7.37l5.77-2.12,1.58-.55A3.22,3.22,0,0,1,284.89,387.88Z" style="fill:#fafafa"></path><path d="M290.19,411.64a2.17,2.17,0,0,1-.52.25l-1.53.63-5.64,2.25c-4.76,1.91-11.29,4.64-18.41,7.87s-13.48,6.37-18,8.7l-5.41,2.76-1.47.74a2,2,0,0,1-.53.23,2.72,2.72,0,0,1,.48-.32l1.43-.83c1.24-.71,3.06-1.71,5.33-2.91,4.53-2.41,10.87-5.6,18-8.84s13.7-5.92,18.5-7.74c2.39-.92,4.34-1.63,5.7-2.1l1.56-.54A3.75,3.75,0,0,1,290.19,411.64Z" style="fill:#fafafa"></path><path d="M303,431.88c.06.13-10.38,5.52-23.33,12s-23.5,11.71-23.56,11.58,10.38-5.52,23.33-12S302.89,431.75,303,431.88Z" style="fill:#fafafa"></path><path d="M282.88,318.64a4.61,4.61,0,0,1-.11.7c-.11.5-.25,1.15-.42,2s-.42,1.91-.75,3.11-.65,2.58-1.13,4.08-1,3.15-1.57,4.88-1.3,3.59-2,5.53a131.45,131.45,0,0,1-5.69,12.23,134.12,134.12,0,0,1-7,11.54c-1.2,1.7-2.32,3.33-3.45,4.78s-2.19,2.81-3.19,4-1.94,2.27-2.76,3.21-1.55,1.72-2.17,2.35l-1.41,1.44a2.91,2.91,0,0,1-.51.48,3.34,3.34,0,0,1,.44-.55l1.33-1.51c.59-.65,1.31-1.44,2.1-2.4s1.74-2,2.69-3.25,2-2.56,3.13-4.05,2.22-3.09,3.4-4.79c2.3-3.43,4.68-7.31,6.94-11.51s4.13-8.35,5.71-12.17c.75-1.93,1.49-3.75,2.08-5.49s1.16-3.36,1.63-4.85.85-2.85,1.2-4.05.62-2.23.83-3.08l.51-1.95A3.9,3.9,0,0,1,282.88,318.64Z" style="fill:#263238"></path><path d="M315.38,452.78a2.07,2.07,0,0,1-.46.24l-1.36.6-5,2.17c-4.23,1.82-10,4.4-16.54,7.07a173.93,173.93,0,0,1-16.95,6.08c-2.21.65-4,1.12-5.28,1.4l-1.45.31a1.79,1.79,0,0,1-.51.08,1.63,1.63,0,0,1,.49-.18l1.42-.41c1.24-.33,3-.86,5.22-1.55,4.39-1.37,10.36-3.54,16.86-6.21l16.6-6.93c2.13-.87,3.86-1.57,5.07-2l1.39-.51A1.67,1.67,0,0,1,315.38,452.78Z" style="fill:#fafafa"></path><path d="M325.45,469.54a4.07,4.07,0,0,1-.91.53c-.6.32-1.48.75-2.58,1.27-2.2,1-5.28,2.36-8.74,3.68s-6.66,2.37-9,3.06c-1.16.35-2.11.61-2.76.77a4.31,4.31,0,0,1-1,.21,3.69,3.69,0,0,1,1-.4l2.71-.93c2.3-.78,5.46-1.88,8.91-3.2s6.55-2.59,8.78-3.53l2.65-1.11A3.57,3.57,0,0,1,325.45,469.54Z" style="fill:#fafafa"></path><g style="opacity:0.30000000000000004"><path d="M316.36,451.77c-6.55-9.4-17.57-15.23-28.94-16.61s-23,1.4-33.21,6.65c-2.77,1.43-6.65,4.34-6.33,7.45l8.18,9.18a101.91,101.91,0,0,0,53.7,5.6c3.59-.6,7.8-2,8.65-5.54C319,456.15,317.74,453.75,316.36,451.77Z"></path></g><path d="M250.65,422.2s-12-2.64-17.1-3.69c-1.67-.35-3.13-1.28-4.77-1.7-8-2.08-17.85-7.26-20.08-9.44-3.88-3.79-6.73,2.05-2.87,6.84s6.81,6.44,6.81,6.44l-16.39,4.29a3.46,3.46,0,0,0-2.05,1.5l-12.65,20a4,4,0,0,0,.47,5.27,2,2,0,0,0,2.68.2l-1.63,2.72c-2.69,4.49,3.9,8.9,6.86,4.58L190,459c0,3.43,1.8,5.15,5.92,4.69,0,0,1.46,6.37,6.31,3.68,4-2.22,14.75-14.74,14.75-14.74s38,.86,39.91-4.74Z" style="fill:#ffbe9d"></path><path d="M213.26,429.25a1.29,1.29,0,0,1-.34.19,7,7,0,0,1-1,.42,21.56,21.56,0,0,1-4,.88A27.74,27.74,0,0,0,202,432c-2.14.76-3.92,2.58-5.49,4.69-3.19,4.22-6.09,8-8.22,10.77l-2.53,3.23a8,8,0,0,1-1,1.14,8.79,8.79,0,0,1,.82-1.26l2.41-3.33c2-2.8,4.91-6.64,8.1-10.87a20.21,20.21,0,0,1,2.6-2.91,9.67,9.67,0,0,1,3.13-1.91,26.29,26.29,0,0,1,6-1.18,27.75,27.75,0,0,0,4-.71C212.75,429.42,213.24,429.2,213.26,429.25Z" style="fill:#eb996e"></path><path d="M216.71,436.88a17,17,0,0,0-5.18.7,18.8,18.8,0,0,0-5.06,2.53,32.84,32.84,0,0,0-5.19,4.65,102,102,0,0,0-8,9.91c-.95,1.33-1.69,2.43-2.2,3.18a8.06,8.06,0,0,1-.84,1.15,7.37,7.37,0,0,1,.66-1.25c.47-.8,1.16-1.92,2.07-3.29a84.67,84.67,0,0,1,7.92-10,30.77,30.77,0,0,1,5.3-4.69,17.94,17.94,0,0,1,5.22-2.49,13.35,13.35,0,0,1,3.87-.52,9.34,9.34,0,0,1,1.05.09C216.58,436.83,216.71,436.86,216.71,436.88Z" style="fill:#eb996e"></path><path d="M228.39,420.17a10.12,10.12,0,0,1-2.32.33c-1.44.12-3.44.24-5.64.28s-4.2,0-5.65,0a10,10,0,0,1-2.33-.22,10.15,10.15,0,0,1,2.34-.15l5.63-.1,5.63-.13A11.64,11.64,0,0,1,228.39,420.17Z" style="fill:#eb996e"></path><path d="M212.13,446.4c0,.08-1.19.62-2.95,1.81a31.6,31.6,0,0,0-6.13,5.57,74.09,74.09,0,0,0-5,6.67,24,24,0,0,1-2,2.82,3.2,3.2,0,0,1,.42-.84c.29-.52.73-1.27,1.3-2.18a54.49,54.49,0,0,1,4.91-6.81A27.69,27.69,0,0,1,209,447.9a17.19,17.19,0,0,1,2.26-1.19A2.89,2.89,0,0,1,212.13,446.4Z" style="fill:#eb996e"></path><path d="M316.05,293.55l28.86,91.37-78.76,24.6a21.24,21.24,0,0,0-4.81,2.17l-4.91,3L249.35,416l8.21,37.41,8.27-2.06c8.28,7.32,64.61-3.72,104.46-8.47,0,0,42.44-3.91,35.55-39.78-4.35-22.65-37.71-111.92-37.71-111.92Z" style="fill:#455a64"></path><path d="M266.47,450.45a7.82,7.82,0,0,1-.25-1.44c-.11-.94-.3-2.28-.54-3.94a125,125,0,0,0-6.53-25.34c-.59-1.57-1.08-2.84-1.42-3.71a8.18,8.18,0,0,1-.49-1.38,7.86,7.86,0,0,1,.67,1.3c.41.85.95,2.1,1.58,3.66A101.61,101.61,0,0,1,266,445c.2,1.67.33,3,.39,4A8.5,8.5,0,0,1,266.47,450.45Z" style="fill:#263238"></path><path d="M362.19,398.31a1.77,1.77,0,0,1-.05-.3l-.12-.88a12.45,12.45,0,0,0-1.09-3.19,15.88,15.88,0,0,0-3.2-4.26,16.55,16.55,0,0,0-5.92-3.75,13.88,13.88,0,0,0-8.4,0c-3,.8-6,2.24-9.3,3.42-6.67,2.17-14.07,4.26-21.84,6.45-15.55,4.36-29.64,8.26-39.65,11.67A90.59,90.59,0,0,0,261,412.07a18.19,18.19,0,0,0-2.87,1.78c-.61.49-.86.81-.89.79a5,5,0,0,1,.82-.87,16,16,0,0,1,2.85-1.88,84,84,0,0,1,11.59-4.8c10-3.5,24.08-7.46,39.63-11.82,7.76-2.19,15.18-4.27,21.82-6.4,3.28-1.16,6.31-2.59,9.35-3.39a14.22,14.22,0,0,1,8.63.1,16.74,16.74,0,0,1,6,3.9,15.76,15.76,0,0,1,3.17,4.37,12.21,12.21,0,0,1,1,3.27c0,.39.05.69.06.89A1.13,1.13,0,0,1,362.19,398.31Z" style="fill:#263238"></path><path d="M344.91,384.92a5.07,5.07,0,0,1-.33-.77c-.2-.56-.48-1.31-.83-2.25-.72-2-1.71-4.81-2.92-8.33-2.41-7.05-5.58-16.85-9-27.69s-6.53-20.65-8.85-27.72c-1.15-3.51-2.09-6.36-2.76-8.38l-.74-2.28a5.08,5.08,0,0,1-.22-.81,7.24,7.24,0,0,1,.32.77l.83,2.25c.72,2,1.72,4.8,2.92,8.33,2.41,7,5.58,16.84,9,27.69s6.53,20.64,8.85,27.72c1.16,3.5,2.09,6.35,2.76,8.38.31.95.56,1.71.74,2.28A5.38,5.38,0,0,1,344.91,384.92Z" style="fill:#263238"></path><path d="M264.93,440.08a27.74,27.74,0,0,1-4.54,2.64,25.86,25.86,0,0,1-4.78,2.17,27.74,27.74,0,0,1,4.54-2.64A25.86,25.86,0,0,1,264.93,440.08Z" style="fill:#263238"></path><path d="M263,432.13c0,.15-2.2.58-4.83,1.48s-4.66,1.92-4.73,1.78a14.05,14.05,0,0,1,4.56-2.27A13.88,13.88,0,0,1,263,432.13Z" style="fill:#263238"></path><path d="M261.23,425.31c0,.15-2.21.14-4.84.73s-4.63,1.52-4.7,1.37a14.47,14.47,0,0,1,9.54-2.1Z" style="fill:#263238"></path><path d="M257.92,420.26a32.34,32.34,0,0,0-4.06-.06,31.75,31.75,0,0,0-3.94,1,8.3,8.3,0,0,1,8-.91Z" style="fill:#263238"></path><path d="M380.76,324.57a1.76,1.76,0,0,1-.32-.13l-.89-.44-3.33-1.72L364.39,316l.32-.12-6,16.42c-1,2.68-2,5.29-2.88,7.75l-.08.21-.22-.05-19.32-4.35-5.64-1.32L329,334.2a1.9,1.9,0,0,1-.51-.16,2.68,2.68,0,0,1,.53.08l1.53.29,5.67,1.17,19.36,4.18-.29.16,2.87-7.76,6.11-16.4.09-.25.23.13,11.73,6.4,3.28,1.83.86.5C380.67,324.49,380.76,324.55,380.76,324.57Z" style="fill:#fafafa"></path><path d="M370.47,301.2a11,11,0,0,0-1.38-1.88,8.37,8.37,0,0,0-5.65-2.45,7.19,7.19,0,0,0-4.13,1,9.6,9.6,0,0,0-3.29,3.65,48.44,48.44,0,0,0-2.29,5.11,16.73,16.73,0,0,1-3.19,5.21,7.45,7.45,0,0,1-2.62,1.75,8.05,8.05,0,0,1-3,.53c-2,0-3.85-.29-5.64-.42l-9.49-.89-6.39-.64-1.74-.2a3.55,3.55,0,0,1-.6-.1,2.36,2.36,0,0,1,.61,0l1.74.1,6.41.48,9.5.77c1.79.12,3.68.38,5.59.39a8,8,0,0,0,2.83-.5,7.06,7.06,0,0,0,2.43-1.64,16.47,16.47,0,0,0,3.09-5,48.49,48.49,0,0,1,2.34-5.14,10.15,10.15,0,0,1,3.48-3.79,7.58,7.58,0,0,1,4.37-1,8.46,8.46,0,0,1,5.79,2.68,6.31,6.31,0,0,1,1,1.45A2.31,2.31,0,0,1,370.47,301.2Z" style="fill:#fafafa"></path><path d="M377.12,441.63l-.28.06-.84.14-3.23.49-11.89,1.76c-10,1.49-23.87,3.7-39.21,5.79-7.68,1-15,2.1-21.65,2.8a141.15,141.15,0,0,1-17.81.9,78.55,78.55,0,0,1-12-1.13c-1.4-.21-2.47-.49-3.2-.64l-.83-.19-.28-.08a1.06,1.06,0,0,1,.29,0l.84.14c.74.11,1.81.36,3.22.54a83.74,83.74,0,0,0,11.94,1,146.07,146.07,0,0,0,17.76-1c6.66-.73,13.95-1.82,21.63-2.84,15.33-2.09,29.18-4.25,39.23-5.65,5-.7,9.1-1.23,11.91-1.59l3.24-.39.85-.09A.91.91,0,0,1,377.12,441.63Z" style="fill:#263238"></path><path d="M162.87,227.22c3.58-4,1.3-8.75-7.83-6.14.71-.19,5.92-1.62,5.06-4.37-.91-3-6.49-3.72-6.49-3.72l-7.05-.38s-2.09-15.77-4.77-15.75-4.75,2.65-5.19,6.82l-2,.52a24.22,24.22,0,0,0-9.67,5l-1.21,1a3.29,3.29,0,0,0-1.08,3.5l3.51,11.74s-1.23,7.83-.18,9.92,1.31,2.75,1.31,2.75-.1,5.38,2.22,7.4a34.34,34.34,0,0,1,3.36,3.25s.15,3.77,2.13,6c2.18,2.44,6.43,8,6.43,8l21.88,3.56,2.45-18.54Z" style="fill:#ffbe9d"></path><path d="M135.9,203.75a5.24,5.24,0,0,1,1.19-.41,8.89,8.89,0,0,1,3.44-.37,4.8,4.8,0,0,1,2.25.93,3.37,3.37,0,0,1,1.37,2.46,4,4,0,0,1-1.21,2.86,13.62,13.62,0,0,1-2.62,1.95,44.11,44.11,0,0,1-10,5.16,18.14,18.14,0,0,1-3.35.76,5,5,0,0,1-1.26.06,38.1,38.1,0,0,0,4.49-1.17,49.42,49.42,0,0,0,9.89-5.25,13.46,13.46,0,0,0,2.53-1.86,3.56,3.56,0,0,0,1.11-2.49,3,3,0,0,0-1.17-2.14,4.36,4.36,0,0,0-2-.9,9.32,9.32,0,0,0-3.33.19A6.74,6.74,0,0,1,135.9,203.75Z" style="fill:#eb996e"></path><path d="M149,212.8a3.88,3.88,0,0,1-1.06.31c-.68.16-1.68.39-2.91.65l-4.34.89c-1.63.35-3.45.63-5.29,1.14a9.93,9.93,0,0,0-4.64,2.43,13.24,13.24,0,0,0-2.48,3.56c-1.08,2.26-1.58,3.75-1.67,3.72a4.35,4.35,0,0,1,.28-1.07,25.18,25.18,0,0,1,1.06-2.81,12.9,12.9,0,0,1,2.47-3.74,9,9,0,0,1,2.16-1.59,13.85,13.85,0,0,1,2.68-1c1.88-.51,3.69-.78,5.33-1.1l4.37-.78c1.24-.22,2.25-.39,3-.49A5.19,5.19,0,0,1,149,212.8Z" style="fill:#eb996e"></path><path d="M156.23,220.73a4.93,4.93,0,0,1-1.13.39c-.75.22-1.83.51-3.17.83l-4.71,1.12-2.77.69a25.36,25.36,0,0,1-3,.62,14,14,0,0,0-2.93.68,10.26,10.26,0,0,0-2.43,1.37,20.45,20.45,0,0,0-3.46,3.29,13.63,13.63,0,0,0-1.8,2.67c-.33.69-.43,1.11-.48,1.1s0-.11,0-.32a5.64,5.64,0,0,1,.26-.86,12.34,12.34,0,0,1,1.7-2.82,19.42,19.42,0,0,1,3.46-3.45,10.57,10.57,0,0,1,2.53-1.45,12.84,12.84,0,0,1,3-.72,24.93,24.93,0,0,0,3-.61q1.45-.36,2.79-.66l4.74-1,3.2-.66A5,5,0,0,1,156.23,220.73Z" style="fill:#eb996e"></path><path d="M162.87,227.22a6.13,6.13,0,0,1-1,.95,20.8,20.8,0,0,1-3.09,2.1,29.36,29.36,0,0,1-5.09,2.2,64.31,64.31,0,0,1-6.54,1.73c-1.16.26-2.35.47-3.4.72a6.38,6.38,0,0,0-2.68,1.57c-.75.7-1.44,1.41-2.07,2.07a13.16,13.16,0,0,0-1.62,1.95,19.94,19.94,0,0,0-1.92,3.14c-.37.79-.51,1.26-.55,1.25s0-.13,0-.35a8.36,8.36,0,0,1,.31-1,16.62,16.62,0,0,1,1.81-3.27,12.51,12.51,0,0,1,1.6-2c.62-.68,1.3-1.4,2.06-2.13a6.87,6.87,0,0,1,2.86-1.71c1.14-.28,2.26-.48,3.44-.74A45.84,45.84,0,0,0,158.62,230,37.8,37.8,0,0,0,162.87,227.22Z" style="fill:#eb996e"></path><path d="M134.93,244.9a3,3,0,0,1,.29-.49c.21-.32.53-.78,1-1.34a13,13,0,0,1,1.78-1.93,11.26,11.26,0,0,1,3-1.8c2.36-1,5.18-2.09,8.31-3.34l4.92-1.95a8.79,8.79,0,0,1,2.79-.69,3.68,3.68,0,0,1,2.82,1,2.55,2.55,0,0,1,.68,1.44,3,3,0,0,1-.23,1.53,5.42,5.42,0,0,1-1.9,2.19c-1.52,1.06-3,2-4.45,2.9-.71.46-1.39.91-2.08,1.33l-2,1.14c-1.31.72-2.53,1.39-3.61,2.06a31.53,31.53,0,0,0-4.76,3.65c-.52.48-.92.87-1.18,1.13a2.2,2.2,0,0,1-.43.39,2.9,2.9,0,0,1,.35-.46c.24-.28.61-.7,1.12-1.21a28.47,28.47,0,0,1,4.7-3.81c1.08-.7,2.3-1.39,3.6-2.13l2-1.16c.68-.42,1.36-.88,2.06-1.33,1.4-.94,2.91-1.87,4.39-2.91a4.91,4.91,0,0,0,1.73-2,2.17,2.17,0,0,0-.35-2.41,3.2,3.2,0,0,0-2.42-.89,8.54,8.54,0,0,0-2.62.65l-4.93,1.92-8.34,3.24a11.12,11.12,0,0,0-2.93,1.68,14.64,14.64,0,0,0-1.81,1.83c-.46.55-.79,1-1,1.28A3.17,3.17,0,0,1,134.93,244.9Z" style="fill:#eb996e"></path><path d="M162.72,246.2a33.86,33.86,0,0,0-4.12-2.52,33.15,33.15,0,0,0-4.62-1.41,10.67,10.67,0,0,1,8.74,3.93Z" style="fill:#eb996e"></path><path d="M144.37,206.83,209.84,196a.87.87,0,0,1,1,.71h0a.88.88,0,0,1-.61,1c-4.9,1.44-31.57,6.72-35.13,11.27-2,2.56-19.47,4.45-19.47,4.45L137.53,215l-2.33-.86S142.91,210.41,144.37,206.83Z" style="fill:#FF725E"></path><path d="M202.21,197.52l.69,1.65,7.11-1.5a.83.83,0,0,0,.54-1.14h0a.85.85,0,0,0-.92-.48Z" style="fill:#e0e0e0"></path><g style="opacity:0.4"><rect x="150.28" y="205.62" width="20.95" height="3.64" transform="translate(-31.93 29.26) rotate(-9.47)"></rect></g><path d="M166.15,206.9c.06.38-.17.78-.81.88a1.54,1.54,0,0,1-.89-.09l.13-.43a1.11,1.11,0,0,0,.68.09c.26,0,.4-.18.37-.36s-.17-.25-.47-.2l-.24,0,0-.35.37-.6-1,.16-.07-.42,1.57-.26.05.34-.41.66A.64.64,0,0,1,166.15,206.9Z" style="fill:#fff"></path><path d="M167.85,205l.06.34-.51,2-.57.1.5-2-.74.12.06.37-.46.08-.13-.79Z" style="fill:#fff"></path><path d="M168.17,205.35a.56.56,0,0,1,.52-.63.54.54,0,1,1,.18,1.06A.56.56,0,0,1,168.17,205.35Zm.88-.15a.26.26,0,0,0-.31-.22.27.27,0,1,0,.08.53A.27.27,0,0,0,169.05,205.2Z" style="fill:#fff"></path><path d="M153.94,208.57a.38.38,0,0,1-.31.44.38.38,0,1,1,.31-.44Z" style="fill:#fff"></path><path d="M155.54,208.31a.37.37,0,0,1-.74.12.37.37,0,1,1,.74-.12Z" style="fill:#fff"></path><path d="M157.14,208a.38.38,0,0,1-.31.43.36.36,0,0,1-.43-.31.37.37,0,0,1,.3-.43A.39.39,0,0,1,157.14,208Z" style="fill:#fff"></path><path d="M144.37,206.83a7.82,7.82,0,0,1-.34.72,8.83,8.83,0,0,1-1.47,1.8,31.19,31.19,0,0,1-7.3,4.92l0-.25,2.34.85h-.06l12.34-1.11c2.31-.23,4.77-.38,7.31-.7s5.18-.7,7.91-1.18a46,46,0,0,0,8.29-2.08,4,4,0,0,0,1.75-1.17,8.12,8.12,0,0,1,1.87-1.39,30.63,30.63,0,0,1,4.25-1.91A172.14,172.14,0,0,1,200,199.94l7.9-1.88,1.92-.49c.36-.09.55-.15.67-.37a.63.63,0,0,0,0-.66.64.64,0,0,0-.62-.25l-1,.16-1.92.32-14.69,2.4-24.89,4-16.82,2.69-4.59.71-1.2.17-.42.05a1.61,1.61,0,0,1,.39-.09l1.17-.22,4.54-.79,16.76-2.85,24.92-4.17,14.74-2.45,1.92-.31,1-.16a1.13,1.13,0,0,1,1.18,1.66,1.14,1.14,0,0,1-.46.44,3.1,3.1,0,0,1-.52.17c-.64.18-1.29.34-1.94.5l-7.9,1.89a176,176,0,0,0-18.72,5.34,29.86,29.86,0,0,0-4.18,1.88,7.4,7.4,0,0,0-1.76,1.29l-.4.42a4,4,0,0,1-.49.35,6.57,6.57,0,0,1-1,.51,45.38,45.38,0,0,1-8.4,2.08c-2.74.48-5.39.85-7.94,1.16s-5,.44-7.33.66l-12.35,1h-.06l-2.33-.88-.29-.11.28-.14a31.77,31.77,0,0,0,7.32-4.78,9.5,9.5,0,0,0,1.51-1.73l.29-.52C144.33,206.88,144.36,206.82,144.37,206.83Z" style="fill:#263238"></path></g><g id="Plant"><path d="M422.64,443.36a3,3,0,0,1,.24-.6l.8-1.7a42,42,0,0,0,2.34-6.81c1.55-6.05,2.09-15.3-.2-26.28A141.35,141.35,0,0,0,421,390.31c-2.07-6.27-4.46-12.92-6.42-20.1s-3.46-15-3.17-23.12,2.72-16.33,5.38-24.46,5.4-16.08,6.23-24.08a36.71,36.71,0,0,0-4.42-22.25c-3.52-6.49-8-12-11.27-17.79a62,62,0,0,1-6.78-17.11,63.77,63.77,0,0,1-.43-26.5,49.36,49.36,0,0,1,2.77-9.36,5.35,5.35,0,0,1-.17.62c-.14.44-.32,1-.56,1.8a70.08,70.08,0,0,0-1.72,7,64.55,64.55,0,0,0,.69,26.3,61.73,61.73,0,0,0,6.8,16.89c3.31,5.68,7.76,11.21,11.35,17.78a37.39,37.39,0,0,1,4.56,22.7c-.83,8.13-3.6,16.14-6.25,24.27s-5.05,16.19-5.35,24.23,1.19,15.74,3.09,22.87,4.29,13.81,6.33,20.09a139.06,139.06,0,0,1,4.8,17.76c2.23,11.07,1.59,20.41-.07,26.49a39,39,0,0,1-2.51,6.79L423,442.8A4.46,4.46,0,0,1,422.64,443.36Z" style="fill:#263238"></path><path d="M411.78,264.18s-6.73-21.54,5.35-34.15a.74.74,0,0,1,1.28.37C419.06,234,419.86,244.79,411.78,264.18Z" style="fill:#FF725E"></path><path d="M415.82,237.2a20.17,20.17,0,0,1-.46,4c-.44,2.73-1,5.95-1.53,9.5s-1.08,6.76-1.51,9.5a22.39,22.39,0,0,1-.71,3.93,16.47,16.47,0,0,1,.12-4c.22-2.46.65-5.85,1.26-9.57s1.26-7.06,1.79-9.47A17.37,17.37,0,0,1,415.82,237.2Z" style="fill:#263238"></path><path d="M419.7,315s4.12-22.19,20.69-27.68a.74.74,0,0,1,1,.92C440.26,291.67,435.91,301.62,419.7,315Z" style="fill:#FF725E"></path><path d="M435.88,293a20.27,20.27,0,0,1-2.26,3.3l-5.8,7.68c-2.16,2.87-4.12,5.47-5.78,7.69a20.4,20.4,0,0,1-2.47,3.14,17,17,0,0,1,2-3.48c1.35-2.07,3.32-4.86,5.59-7.86s4.42-5.66,6-7.54A17.21,17.21,0,0,1,435.88,293Z" style="fill:#263238"></path><path d="M415.22,370.65s-2.51-22.43,11.76-32.5a.75.75,0,0,1,1.19.61C428.12,342.37,426.85,353.16,415.22,370.65Z" style="fill:#FF725E"></path><path d="M424.32,344.94a19.56,19.56,0,0,1-1.2,3.82c-1,2.6-2.08,5.66-3.32,9s-2.35,6.44-3.29,9a22.49,22.49,0,0,1-1.45,3.72,15.89,15.89,0,0,1,.88-3.9c.69-2.38,1.76-5.62,3.07-9.15s2.58-6.69,3.55-9A18.89,18.89,0,0,1,424.32,344.94Z" style="fill:#263238"></path><path d="M427.7,426.65s-1.69-22.51,12.93-32.06a.74.74,0,0,1,1.16.65C441.61,398.85,440,409.58,427.7,426.65Z" style="fill:#FF725E"></path><path d="M437.73,401.28a21,21,0,0,1-1.34,3.77L432.75,414c-1.36,3.33-2.58,6.35-3.62,8.91a21.48,21.48,0,0,1-1.58,3.67,16.24,16.24,0,0,1,1-3.87c.77-2.35,2-5.55,3.39-9s2.82-6.6,3.88-8.83A17.71,17.71,0,0,1,437.73,401.28Z" style="fill:#263238"></path><path d="M402.1,245.25s-20-10.44-20.4-27.91a.75.75,0,0,1,1.17-.64C385.84,218.75,394.08,225.84,402.1,245.25Z" style="fill:#FF725E"></path><path d="M385.86,223.34a20.64,20.64,0,0,1,2.49,3.13l5.64,7.8,5.66,7.78a22.35,22.35,0,0,1,2.28,3.28,17,17,0,0,1-2.75-2.91c-1.59-1.9-3.68-4.6-5.88-7.66s-4.11-5.88-5.44-7.95A17.34,17.34,0,0,1,385.86,223.34Z" style="fill:#263238"></path><path d="M423.58,291.51s-20.6-9.21-22.05-26.62a.74.74,0,0,1,1.12-.71C405.75,266.05,414.4,272.62,423.58,291.51Z" style="fill:#FF725E"></path><path d="M406,270.63a20.39,20.39,0,0,1,2.68,3l6.1,7.44,6.12,7.42a22.61,22.61,0,0,1,2.48,3.14,16.57,16.57,0,0,1-2.92-2.74c-1.7-1.8-3.95-4.36-6.33-7.28S409.7,276,408.25,274A18.15,18.15,0,0,1,406,270.63Z" style="fill:#263238"></path><path d="M411.73,343.12s-14.15-17.59-7.51-33.75a.74.74,0,0,1,1.32-.12C407.45,312.32,412.16,322.11,411.73,343.12Z" style="fill:#FF725E"></path><path d="M405.62,316.53a19.3,19.3,0,0,1,1,3.87c.59,2.71,1.28,5.89,2.05,9.4s1.47,6.69,2.07,9.4a21.85,21.85,0,0,1,.77,3.92,17.3,17.3,0,0,1-1.35-3.77c-.69-2.38-1.53-5.69-2.32-9.37s-1.41-7-1.8-9.47A18,18,0,0,1,405.62,316.53Z" style="fill:#263238"></path><path d="M425.74,403.84s-20.44-9.56-21.6-27a.74.74,0,0,1,1.13-.7C408.33,378.08,416.88,384.8,425.74,403.84Z" style="fill:#FF725E"></path><path d="M408.55,382.67a20,20,0,0,1,2.63,3l6,7.54,6,7.53a20.78,20.78,0,0,1,2.42,3.18,17.12,17.12,0,0,1-2.87-2.79c-1.67-1.83-3.88-4.43-6.21-7.39s-4.36-5.69-5.79-7.71A18.78,18.78,0,0,1,408.55,382.67Z" style="fill:#263238"></path><path d="M466.47,315.1a2,2,0,0,1,0,.5c0,.4,0,.87,0,1.45-.06,1.35-.14,3.18-.25,5.47-.26,4.81-.63,11.52-1.07,19.54v.05c-1.46,8.16-5.62,17.22-11.21,26-4.1,6.47-8.39,12.36-12.1,17.83a127.16,127.16,0,0,0-9.07,15,63.4,63.4,0,0,0-4.24,11c-.36,1.35-.63,2.4-.79,3.12a5.53,5.53,0,0,1-.3,1.08,5.53,5.53,0,0,1,.14-1.12c.1-.73.32-1.79.63-3.16a58.87,58.87,0,0,1,4-11.19,121.29,121.29,0,0,1,9-15.17c3.68-5.51,7.95-11.4,12-17.84,5.56-8.75,9.69-17.66,11.21-25.7v0c.56-8,1-14.72,1.37-19.53.19-2.28.34-4.11.44-5.46l.15-1.43A1.71,1.71,0,0,1,466.47,315.1Z" style="fill:#263238"></path><path d="M454.29,366.44s8.66-20.85-2.23-34.5a.75.75,0,0,0-1.31.25C449.79,335.67,448,346.39,454.29,366.44Z" style="fill:#FF725E"></path><path d="M452.72,339.2a18.42,18.42,0,0,1,.68,3.95c.31,2.45.65,5.84.92,9.6s.4,7.16.4,9.64a16.49,16.49,0,0,1-.25,4,22.64,22.64,0,0,1-.35-4c-.19-2.76-.4-6-.64-9.6s-.48-6.83-.67-9.6A18.79,18.79,0,0,1,452.72,339.2Z" style="fill:#263238"></path><g style="opacity:0.30000000000000004"><path d="M454.29,366.44s8.66-20.85-2.23-34.5a.75.75,0,0,0-1.31.25C449.79,335.67,448,346.39,454.29,366.44Z"></path></g><path d="M427.47,416.66s6.94-21.47-5-34.2a.74.74,0,0,0-1.28.36C420.49,386.37,419.58,397.2,427.47,416.66Z" style="fill:#FF725E"></path><path d="M423.69,389.65a17.87,17.87,0,0,1,1,3.87c.5,2.42,1.12,5.77,1.69,9.49s1,7.12,1.18,9.58a16.9,16.9,0,0,1,.08,4,22.65,22.65,0,0,1-.68-3.94c-.41-2.74-.88-6-1.41-9.52s-1-6.77-1.45-9.51A20.74,20.74,0,0,1,423.69,389.65Z" style="fill:#263238"></path><g style="opacity:0.30000000000000004"><path d="M427.47,416.66s6.94-21.47-5-34.2a.74.74,0,0,0-1.28.36C420.49,386.37,419.58,397.2,427.47,416.66Z"></path></g><path d="M465.32,341s18.49-12.94,16.62-30.31a.75.75,0,0,0-1.24-.49C478,312.59,470.76,320.67,465.32,341Z" style="fill:#FF725E"></path><g style="opacity:0.30000000000000004"><path d="M465.32,341s18.49-12.94,16.62-30.31a.75.75,0,0,0-1.24-.49C478,312.59,470.76,320.67,465.32,341Z"></path></g><path d="M478.6,317.14a18.24,18.24,0,0,1-1.54,3.69c-1.05,2.23-2.58,5.28-4.37,8.59s-3.51,6.27-4.84,8.35A16.62,16.62,0,0,1,465.5,341a21.42,21.42,0,0,1,1.84-3.55c1.33-2.44,2.88-5.29,4.61-8.45l4.58-8.46A19.13,19.13,0,0,1,478.6,317.14Z" style="fill:#263238"></path><path d="M434.93,395.37s22.3-3.48,28.27-19.89a.74.74,0,0,0-.9-1C458.83,375.49,448.75,379.55,434.93,395.37Z" style="fill:#FF725E"></path><g style="opacity:0.30000000000000004"><path d="M434.93,395.37s22.3-3.48,28.27-19.89a.74.74,0,0,0-.9-1C458.83,375.49,448.75,379.55,434.93,395.37Z"></path></g><path d="M457.34,379.83a18.07,18.07,0,0,1-3,2.64c-1.93,1.54-4.65,3.6-7.71,5.79s-5.91,4.07-8,5.36a17,17,0,0,1-3.54,1.88,21,21,0,0,1,3.21-2.38l7.86-5.55L454,382A20.28,20.28,0,0,1,457.34,379.83Z" style="fill:#263238"></path><polygon points="408.54 436.41 414.94 478.37 440.48 478.32 449.09 436.41 408.54 436.41" style="fill:#455a64"></polygon><path d="M445.35,452.6a1,1,0,0,1-.22.15,6.82,6.82,0,0,1-.67.39,9.35,9.35,0,0,1-2.86.85,10.6,10.6,0,0,1-4.69-.44,9.82,9.82,0,0,1-5.05-3.67,7.11,7.11,0,0,1-1.19-3.51,3.85,3.85,0,0,1,1.74-3.61,4.14,4.14,0,0,1,4.28.36,6.21,6.21,0,0,1,2.44,3.85,16.29,16.29,0,0,1,.32,4.74,15.39,15.39,0,0,1-1,4.84,10.58,10.58,0,0,1-3,4.23,8.32,8.32,0,0,1-4.91,2.05,9.1,9.1,0,0,1-5.12-1.48,15.55,15.55,0,0,1-3.81-3.45,8.36,8.36,0,0,1-1.93-4.61,5.34,5.34,0,0,1,1.81-4.45,4.18,4.18,0,0,1,4.53-.27,4.84,4.84,0,0,1,2.61,3.42,6.57,6.57,0,0,1-3.23,6.64,9,9,0,0,1-6.17.89,13.9,13.9,0,0,1-4.39-1.72,21.87,21.87,0,0,1-2.46-1.66,4.43,4.43,0,0,1-.79-.68,7,7,0,0,1,.87.56c.56.37,1.39.93,2.51,1.54a14.29,14.29,0,0,0,4.33,1.58,8.7,8.7,0,0,0,5.85-.94,6.06,6.06,0,0,0,2.91-6.1,4.25,4.25,0,0,0-2.32-3,3.52,3.52,0,0,0-3.85.23,4.69,4.69,0,0,0-1.54,3.9,7.64,7.64,0,0,0,1.8,4.22,14.46,14.46,0,0,0,3.64,3.28,8.24,8.24,0,0,0,4.71,1.38,7.64,7.64,0,0,0,4.5-1.88,10,10,0,0,0,2.78-3.95,15,15,0,0,0,1-4.64,15.88,15.88,0,0,0-.27-4.54,5.65,5.65,0,0,0-2.17-3.49,3.55,3.55,0,0,0-3.65-.36,3.27,3.27,0,0,0-1.48,3.08,6.6,6.6,0,0,0,1.06,3.26,9.52,9.52,0,0,0,4.76,3.57,10.57,10.57,0,0,0,4.54.54A12,12,0,0,0,445.35,452.6Z" style="fill:#263238"></path></g><g id="Tea"><path d="M143.35,441.2c-3.69-3.12-8.72-3.52-11.83-3.41,0-2.28-.08-3.68-.08-3.68H66.94s-2,42.59,30.58,44.09c14.59.67,23-5.87,27.73-14.1a32.51,32.51,0,0,0,7.31.89c3.4,0,7.19-.65,10.16-2.87,2.22-1.65,4.85-4.89,4.85-10.91C147.57,445.88,145.27,442.83,143.35,441.2ZM138.93,457c-2.76,2.07-7.69,1.75-10.9,1.17a57.08,57.08,0,0,0,3.14-14c2.21-.13,5.92.05,8.08,1.87,1.32,1.12,2,2.81,2,5.16C141.22,454,140.47,455.87,138.93,457Z" style="fill:#263238"></path><path d="M81.32,463.64a11.86,11.86,0,0,1-1.73-2.34,39.65,39.65,0,0,1-5.35-12.94,11.56,11.56,0,0,1-.42-2.88,22.79,22.79,0,0,1,.77,2.79,56.45,56.45,0,0,0,2.23,6.6,54.25,54.25,0,0,0,3.08,6.24A22.53,22.53,0,0,1,81.32,463.64Z" style="fill:#fafafa"></path><path d="M86.45,464.32a83.79,83.79,0,0,1-2.26-9,82.07,82.07,0,0,1-1.75-9.11,83.79,83.79,0,0,1,2.26,9A85,85,0,0,1,86.45,464.32Z" style="fill:#fafafa"></path><path d="M94.19,463.6a11.56,11.56,0,0,1-.7-2.54c-.35-1.58-.76-3.79-1.08-6.25s-.5-4.71-.57-6.33a12.07,12.07,0,0,1,0-2.64,14.68,14.68,0,0,1,.35,2.61c.16,1.61.4,3.84.72,6.29s.67,4.66.92,6.26A14.91,14.91,0,0,1,94.19,463.6Z" style="fill:#fafafa"></path><path d="M100.55,446.75a9.9,9.9,0,0,1,.29,2.42,52,52,0,0,1,0,5.87,50.75,50.75,0,0,1-.68,5.83,9.59,9.59,0,0,1-.57,2.37,14,14,0,0,1,.21-2.42c.17-1.48.38-3.54.52-5.81s.16-4.34.16-5.83A14.21,14.21,0,0,1,100.55,446.75Z" style="fill:#fafafa"></path><path d="M110.6,444.22a11.06,11.06,0,0,1,.16,2.75,37.19,37.19,0,0,1-.72,6.63,36,36,0,0,1-1.92,6.39,10.32,10.32,0,0,1-1.22,2.48,22.8,22.8,0,0,1,.88-2.6,52.35,52.35,0,0,0,1.75-6.37,50.07,50.07,0,0,0,.86-6.54A20,20,0,0,1,110.6,444.22Z" style="fill:#fafafa"></path><path d="M121.18,448.19a8.11,8.11,0,0,1-.32,2.36,30.59,30.59,0,0,1-4.55,10.52,8.54,8.54,0,0,1-1.5,1.86c-.14-.1,2-3,3.79-7.11A80.07,80.07,0,0,0,121.18,448.19Z" style="fill:#fafafa"></path><path d="M89.61,366.57a11,11,0,0,0-1.73,1.93,10.87,10.87,0,0,0-1.63,6.73c.12,3,1.58,6.35,3.63,9.75s4.63,7.1,5.61,11.72a12.27,12.27,0,0,1-.39,6.76,20.89,20.89,0,0,1-3.18,5.46c-1.21,1.6-2.45,3-3.48,4.46A19,19,0,0,0,86,417.61a9.7,9.7,0,0,0-.27,6.88,8.78,8.78,0,0,0,1.31,2.22s-.18-.14-.48-.47a6.36,6.36,0,0,1-1-1.68,9.67,9.67,0,0,1,.11-7.09,18.94,18.94,0,0,1,2.42-4.34c1-1.46,2.26-2.91,3.45-4.5a20.76,20.76,0,0,0,3.08-5.34A11.86,11.86,0,0,0,95,396.8c-.94-4.48-3.53-8.14-5.52-11.58s-3.5-6.87-3.58-10a10.88,10.88,0,0,1,1.83-6.87A7.23,7.23,0,0,1,89.05,367,4,4,0,0,1,89.61,366.57Z" style="fill:#263238"></path><path d="M96.92,371.84a10.19,10.19,0,0,0-1,2.09,10.5,10.5,0,0,0,.12,6.21c.7,2.6,2.52,5.27,4.5,8.24a29.37,29.37,0,0,1,2.73,4.93,21.59,21.59,0,0,1,1.43,5.9,21.19,21.19,0,0,1-2.13,11.41c-.82,1.62-1.8,3-2.63,4.36a18.54,18.54,0,0,0-1.93,3.9,7.92,7.92,0,0,0,.35,6.1,6,6,0,0,0,1.52,1.73,1.93,1.93,0,0,1-.53-.31,5,5,0,0,1-1.16-1.32,8,8,0,0,1-.53-6.31,18.71,18.71,0,0,1,1.91-4c.82-1.37,1.79-2.76,2.57-4.35a20.88,20.88,0,0,0,2-11.14,21.5,21.5,0,0,0-1.38-5.75,29.41,29.41,0,0,0-2.66-4.87c-1.95-3-3.78-5.72-4.46-8.4a10.49,10.49,0,0,1,0-6.38,6.93,6.93,0,0,1,.8-1.55A2.51,2.51,0,0,1,96.92,371.84Z" style="fill:#263238"></path></g></svg>