<svg xmlns="http://www.w3.org/2000/svg" viewBox="0 0 500 500"><g id="background-complete"><rect x="387.51" y="75.1" width="80.65" height="116.9" style="fill:#e0e0e0"></rect><rect x="383.47" y="75.1" width="80.65" height="116.9" style="fill:#f5f5f5"></rect><rect x="393.49" y="87.77" width="60.61" height="91.58" style="fill:#fff"></rect><path d="M454.1,179.35s0-.16,0-.45v-1.3c0-1.15,0-2.83,0-5,0-4.39,0-10.79-.05-18.87,0-16.15-.06-39-.1-65.94l.2.2-60.61,0h0l.22-.22c0,34.54,0,66.4,0,91.58l-.17-.18,44.12.1,12.18,0,3.2,0,1.11,0-1.07,0-3.17,0-12.15,0-44.22.09h-.18v-.17c0-25.18,0-57,0-91.58v-.22h.22l60.61,0h.2v.2c0,27-.07,49.89-.1,66.08,0,8.06,0,14.44-.05,18.81,0,2.18,0,3.85,0,5,0,.55,0,1,0,1.27S454.1,179.35,454.1,179.35Z" style="fill:#e0e0e0"></path><path d="M464.35,75.1a14.11,14.11,0,0,1-1.44,2.09c-.94,1.26-2.27,3-3.79,4.8s-2.93,3.48-4,4.64a13.23,13.23,0,0,1-1.78,1.81,15.91,15.91,0,0,1,1.54-2l3.89-4.72L462.67,77A15.38,15.38,0,0,1,464.35,75.1Z" style="fill:#e0e0e0"></path><path d="M454.41,179.05A74.45,74.45,0,0,0,465,192.27" style="fill:#fff"></path><path d="M465,192.27a11.17,11.17,0,0,1-1.84-1.67,57.8,57.8,0,0,1-4-4.5,56.17,56.17,0,0,1-3.51-4.88,11.74,11.74,0,0,1-1.23-2.17,18,18,0,0,1,1.49,2c.88,1.24,2.13,2.95,3.59,4.78s2.85,3.41,3.87,4.56A17.46,17.46,0,0,1,465,192.27Z" style="fill:#e0e0e0"></path><path d="M383.45,191.92l10.57-13" style="fill:#fff"></path><path d="M394,178.88a82.16,82.16,0,0,1-5.11,6.66,80.07,80.07,0,0,1-5.46,6.38,81,81,0,0,1,5.12-6.66A78.87,78.87,0,0,1,394,178.88Z" style="fill:#e0e0e0"></path><path d="M383.47,75.1a74.55,74.55,0,0,1,5.12,6.13,74.51,74.51,0,0,1,4.79,6.41,73.39,73.39,0,0,1-5.13-6.13A69.06,69.06,0,0,1,383.47,75.1Z" style="fill:#e0e0e0"></path><rect x="414.92" y="106.36" width="20.3" height="57.63" style="fill:#e0e0e0"></rect><rect x="396.63" y="228" width="62.61" height="65.27" style="fill:#e0e0e0"></rect><rect x="392.39" y="228" width="62.61" height="65.27" style="fill:#fafafa"></rect><path d="M455,293.29H392.37V228H455Zm-62.61,0H455V228H392.41Z" style="fill:#e0e0e0"></path><rect x="400.81" y="236.78" width="45.78" height="47.72" style="fill:#fff"></rect><path d="M400.81,284.81a7.39,7.39,0,0,1-1.13,1.32c-.73.77-1.76,1.81-2.91,2.95s-2.21,2.14-3,2.86a7.29,7.29,0,0,1-1.33,1.1,7.33,7.33,0,0,1,1.13-1.31c.73-.77,1.76-1.81,2.91-3s2.22-2.15,3-2.87A7.07,7.07,0,0,1,400.81,284.81Z" style="fill:#e0e0e0"></path><path d="M446.59,284.7a7.45,7.45,0,0,1,1.31,1.13c.77.73,1.81,1.76,3,2.91s2.14,2.21,2.86,3a7.07,7.07,0,0,1,1.1,1.32,7.26,7.26,0,0,1-1.3-1.12c-.78-.73-1.82-1.76-3-2.92s-2.15-2.22-2.87-3A6.75,6.75,0,0,1,446.59,284.7Z" style="fill:#e0e0e0"></path><path d="M446.46,236.9a7.45,7.45,0,0,1,1.13-1.31c.73-.77,1.76-1.82,2.91-3s2.21-2.15,3-2.86a8.06,8.06,0,0,1,1.32-1.11,7.08,7.08,0,0,1-1.12,1.31c-.73.77-1.76,1.82-2.92,3s-2.21,2.15-3,2.87A6.72,6.72,0,0,1,446.46,236.9Z" style="fill:#e0e0e0"></path><path d="M400.68,237a7.45,7.45,0,0,1-1.31-1.13c-.77-.73-1.82-1.76-2.95-2.91s-2.15-2.21-2.87-3a7.62,7.62,0,0,1-1.1-1.32,7.08,7.08,0,0,1,1.31,1.12c.77.73,1.82,1.76,3,2.92s2.15,2.21,2.86,3A7.07,7.07,0,0,1,400.68,237Z" style="fill:#e0e0e0"></path><path d="M446.46,284.5s0-.08,0-.24,0-.38,0-.66c0-.6,0-1.46,0-2.58,0-2.26,0-5.55-.05-9.72,0-8.36-.05-20.27-.09-34.52l.18.17-45.65,0h0l.2-.2c0,17.51,0,33.9,0,47.72l-.17-.18,33.05.09,9.29,0,2.45,0h0l-2.42,0-9.25,0-33.16.09h-.18v-.17c0-13.82,0-30.21,0-47.72v-.21h.21l45.65,0h.18v.18c0,14.3-.07,26.24-.09,34.63,0,4.16,0,7.43-.05,9.69,0,1.1,0,1.95,0,2.54,0,.27,0,.49,0,.64A1.76,1.76,0,0,1,446.46,284.5Z" style="fill:#e0e0e0"></path><rect x="416.06" y="253" width="15.28" height="15.28" style="fill:#ebebeb"></rect><rect x="309.77" y="63.37" width="7.53" height="37.46" transform="translate(-0.44 1.68) rotate(-0.31)" style="fill:#e0e0e0"></rect><rect x="244.51" y="63.5" width="19.49" height="20.68" transform="translate(-0.39 1.36) rotate(-0.31)" style="fill:#ebebeb"></rect><rect x="263.91" y="63.4" width="19.49" height="20.68" transform="translate(-0.39 1.47) rotate(-0.31)" style="fill:#f5f5f5"></rect><path d="M244.49,69.26c12.95.11,25.94,0,38.89-.17a.21.21,0,0,0,0-.42q-19.44-.11-38.9.24a.18.18,0,0,0,0,.35Z" style="fill:#e0e0e0"></path><rect x="232.35" y="83.88" width="35.42" height="16.85" transform="translate(-0.49 1.34) rotate(-0.31)" style="fill:#ebebeb"></rect><rect x="267.6" y="83.69" width="35.42" height="16.85" transform="translate(-0.49 1.53) rotate(-0.31)" style="fill:#f5f5f5"></rect><path d="M232.33,88.66c23.52.27,47.14,0,70.66-.35a.21.21,0,0,0,0-.41c-23.53-.13-47.14-.11-70.67.4a.18.18,0,0,0,0,.36Z" style="fill:#e0e0e0"></path><rect x="219.08" y="100.82" width="137.22" height="6.04" style="fill:#e0e0e0"></rect><rect x="241.55" y="103.73" width="5.57" height="20.6" style="fill:#e0e0e0"></rect><rect x="324.7" y="103.73" width="5.57" height="20.6" style="fill:#e0e0e0"></rect><rect x="317.15" y="49.4" width="7.53" height="51.52" transform="translate(-0.4 1.72) rotate(-0.31)" style="fill:#ebebeb"></rect><rect x="324.72" y="59" width="11.7" height="41.75" transform="translate(-0.42 1.78) rotate(-0.31)" style="fill:#f5f5f5"></rect><path d="M336.23,67a85.66,85.66,0,0,1-11.7,0,81.59,81.59,0,0,1,11.7,0Z" style="fill:#e0e0e0"></path><path d="M336.23,65.26a81.59,81.59,0,0,1-11.7,0,85.66,85.66,0,0,1,11.7,0Z" style="fill:#e0e0e0"></path><path d="M336.23,94.44a85.66,85.66,0,0,1-11.7,0,85.66,85.66,0,0,1,11.7,0Z" style="fill:#e0e0e0"></path><path d="M336.23,92.69a85.66,85.66,0,0,1-11.7,0,81.59,81.59,0,0,1,11.7,0Z" style="fill:#e0e0e0"></path><path d="M330.57,88.86c-.12,0-.21-4.21-.21-9.41s.09-9.4.21-9.4.2,4.21.2,9.4S330.68,88.86,330.57,88.86Z" style="fill:#e0e0e0"></path><rect x="336.35" y="69.23" width="12.73" height="31.51" style="fill:#ebebeb"></rect><path d="M322.83,58.18A2.17,2.17,0,1,1,320.67,56,2.16,2.16,0,0,1,322.83,58.18Z" style="fill:#e0e0e0"></path><rect x="320" y="64.13" width="1.34" height="30.65" style="fill:#e0e0e0"></rect><rect x="49.29" y="35.83" width="136.53" height="245.26" style="fill:#ebebeb"></rect><rect x="54.74" y="42.94" width="124.21" height="230.84" style="fill:#fafafa"></rect><polygon points="191.59 283.3 185.81 281.09 185.81 31.67 191.59 31.67 191.59 283.3" style="fill:#e0e0e0"></polygon><path d="M85.19,192.05l32.26-30c4.09-3.8,9.43-7.9,14.69-6,2.53.9,4.43,3.06,6.91,4.09,4.95,2.06,10.61-.92,14.41-4.7s6.82-8.5,11.43-11.24,11.78-2.39,14.06,2.46v32.63l-46.88,20.08Z" style="fill:#f5f5f5"></path><path d="M54.74,173.29c11.89-4.84,23.75-.72,32.26,8.89,1.79,2,3.42,4.36,5.88,5.47,3.33,1.51,7.18.38,10.82,0A27.24,27.24,0,0,1,129.29,200L89.6,219.54l-34.86-.25Z" style="fill:#e0e0e0"></path><path d="M179,173.46c-7.83-3.78-14.72.79-21.94,5.63s-13.94,11-22.41,13c-5.66,1.31-11.73.58-17.2,2.53-11.15,4-17.59,18.13-29.41,18.81-6.42.36-12.17-3.52-17.9-6.44s-10.24-5.69-15.35-1.79v68.59H179Z" style="fill:#ebebeb"></path><rect x="54.74" y="109.35" width="126.91" height="2.46" style="fill:#e0e0e0"></rect><rect x="54.74" y="164.32" width="126.91" height="2.46" style="fill:#e0e0e0"></rect><rect x="54.74" y="219.29" width="126.91" height="2.46" style="fill:#e0e0e0"></rect><rect x="31.97" y="192.31" width="169.75" height="6.28" transform="translate(-78.6 312.3) rotate(-90)" style="fill:#e0e0e0"></rect><rect x="78.66" y="42.94" width="2.84" height="67.64" style="fill:#e0e0e0"></rect><rect x="103.18" y="42.94" width="2.84" height="67.64" style="fill:#e0e0e0"></rect><rect x="127.7" y="42.94" width="2.84" height="67.64" style="fill:#e0e0e0"></rect><rect x="152.22" y="42.94" width="2.84" height="67.64" style="fill:#e0e0e0"></rect><rect x="43.51" y="31.67" width="5.77" height="250.94" style="fill:#e0e0e0"></rect><rect x="43.51" y="29.14" width="148.07" height="6.69" style="fill:#e0e0e0"></rect><rect x="39.42" y="284.12" width="156.08" height="6.23" style="fill:#e0e0e0"></rect><polygon points="185.81 281.09 195.5 284.12 39.42 284.12 49.29 281.09 185.81 281.09" style="fill:#ebebeb"></polygon></g><g id="background-simple"><path d="M103,96.59l1.65-3.5c13.91-29.52,42.58-49.45,74.89-50.81a85,85,0,0,1,12.46.39c29.84,3.17,57.56,22.56,71.06,49.71,7.95,16,11.69,34.92,24.83,46.87C305,154.81,331,152.61,353.78,149.5s48.77-5.25,65.8,10.38c10.67,9.79,15.32,24.82,16.07,39.36,2,38.49-21.06,75.53-53.18,96.11s-71.9,26.33-109.81,22.76c-53.11-5-105.6-28.57-140-69.9S84.31,147.09,103,96.59Z" style="fill:#f5f5f5"></path></g><g id="Floor"><path d="M460.46,463.41c0,.14-92,.26-205.45.26s-205.47-.12-205.47-.26,92-.26,205.47-.26S460.46,463.27,460.46,463.41Z" style="fill:#263238"></path></g><g id="Plant"><path d="M162,292.26a2.81,2.81,0,0,1-.1.38l-.36,1.09c-.33,1-.8,2.38-1.44,4.19-1.28,3.62-3.18,8.84-5.72,15.23a348.8,348.8,0,0,1-23.29,48.32,107.23,107.23,0,0,0-6.66,13.72,61.71,61.71,0,0,0-3.56,13.7,97.64,97.64,0,0,0,0,24c.74,6.82,1.72,12.29,2.35,16.08.33,1.87.58,3.33.76,4.36l.19,1.13a2.89,2.89,0,0,1,0,.39,2.16,2.16,0,0,1-.1-.38c-.06-.28-.13-.65-.23-1.12-.2-1-.49-2.48-.85-4.34-.7-3.78-1.74-9.25-2.53-16.08a97,97,0,0,1-.06-24.11A62.31,62.31,0,0,1,123.91,375a106.26,106.26,0,0,1,6.69-13.78A364.53,364.53,0,0,0,154,313c2.58-6.36,4.54-11.56,5.87-15.16.65-1.78,1.17-3.18,1.53-4.15.17-.46.3-.81.41-1.08A2.11,2.11,0,0,1,162,292.26Z" style="fill:#263238"></path><path d="M152.25,352.62a2.62,2.62,0,0,1-.32.59c-.26.41-.6,1-1,1.62-.89,1.4-2.21,3.41-3.84,5.89-3.26,5-7.91,11.72-12.59,19.46-2.32,3.89-4.38,7.67-6.12,11.19s-3.11,6.76-4.21,9.51-1.9,5-2.41,6.6c-.25.74-.46,1.34-.62,1.8a3.11,3.11,0,0,1-.25.62,3.49,3.49,0,0,1,.15-.65c.14-.47.31-1.08.53-1.84.45-1.6,1.22-3.87,2.25-6.66s2.41-6.06,4.13-9.59,3.78-7.35,6.1-11.24c4.69-7.77,9.4-14.5,12.73-19.41l4-5.8,1.09-1.56A3.93,3.93,0,0,1,152.25,352.62Z" style="fill:#263238"></path><path d="M172.06,367.52c-3.63-7.8-13-12.89-21.54-12.19a6.59,6.59,0,0,1,3.56,4.75,39.26,39.26,0,0,1,.55,6.14c.78,9.85,7.11,18.25,13.2,26,4.28,5.46,8.58,11,13.69,15.65C180.91,393.9,180,379.06,172.06,367.52Z" style="fill:#455a64"></path><path d="M150.52,355.44c5.44-4.19,12.47-5.93,19.34-6s13.65,1.41,20.31,3.1c4,1,8.07,2.13,11.49,4.44s6.14,6,6.21,10.16c-5.65-6.21-14.75-7.41-22.81-9.75-5.46-1.58-10.73-3.85-16.3-5a28.83,28.83,0,0,0-18.24,3.06" style="fill:#455a64"></path><path d="M151.45,354.33c-2.39-2.5-1.07-8.36,1-11.13s5.38-4.31,8.64-5.47a60.45,60.45,0,0,1,13.28-3.09,13.58,13.58,0,0,1-4.2,7.38,40.64,40.64,0,0,1-7,5.05l-11.74,7.26" style="fill:#455a64"></path><path d="M129.06,351c-6.82,3-12.1,8.56-17.19,14a76.2,76.2,0,0,0,21.45-8.88c2.64-1.61,5.26-3.41,8.27-4.08s6.41.67,8.93,2.76C146.25,348.48,135.88,348,129.06,351Z" style="fill:#455a64"></path><path d="M35.8,348.13c-8.48,10.79-11.3,25.2-10.35,38.89a93.27,93.27,0,0,1,30.08-46.71c5.53-4.59,12.6-8.23,19.45-8.23C60.88,330.82,44.55,337,35.8,348.13Z" style="fill:#455a64"></path><path d="M55.48,326.46c-4.72.35-9,2.75-12.95,5.43-6,4.11-11.6,9.29-14.21,16.06a49.76,49.76,0,0,1,43.62-17.22C66.78,328.17,61.22,326,55.48,326.46Z" style="fill:#455a64"></path><path d="M68.73,310.26c-2.73,1.9-4.83,5-4.69,8.35a10.29,10.29,0,0,0,2.72,6.15,41.21,41.21,0,0,0,5.73,5.48c1.73-7.69,3.82-15.73,5.56-23.42A24.85,24.85,0,0,0,68.73,310.26Z" style="fill:#455a64"></path><path d="M84.75,309.52a22.93,22.93,0,0,0-8.8,9.57c-1.8,4-2.55,9.07-.28,12.83a327.13,327.13,0,0,1,21-28A68.54,68.54,0,0,0,84.75,309.52Z" style="fill:#455a64"></path><path d="M98.34,322.73a26.38,26.38,0,0,0-22.46,9.84,21.86,21.86,0,0,1,12.06-2.28,291.25,291.25,0,0,1,31,5.74A26.37,26.37,0,0,0,98.34,322.73Z" style="fill:#455a64"></path><path d="M161.86,292.26c.25-2.46-2.41-4.9-4.73-5.76a12.89,12.89,0,0,0-7.31-.05,37.4,37.4,0,0,0-28,29.28,178.35,178.35,0,0,1,19.9-8.41l-1.15.32a23.16,23.16,0,0,0,15.69-11.46,12.51,12.51,0,0,1,2.1-3.22,3.12,3.12,0,0,1,3.54-.7" style="fill:#455a64"></path><path d="M161.87,292.24a30.17,30.17,0,0,1,22-4.95,26.31,26.31,0,0,1,18.3,12.9,23.37,23.37,0,0,1,.12,22.19c-3.56-7.4-7.37-15.11-14-19.95-1.55-1.14-3.3-2.17-4.18-3.89-1-2-.6-4.44-1.46-6.49-1.07-2.53-4-3.27-6.76-3.41s-10.69,2.38-14,3.6" style="fill:#455a64"></path><path d="M161.7,292.12c6.59-2,14,1.26,18.52,6.2s6.76,11.55,7.53,18.17.15,13.32-.52,19.95a82.85,82.85,0,0,1-11.34-25.15c-1.06-4-1.83-8.21-3.74-11.93a14.75,14.75,0,0,0-10.45-7.24" style="fill:#455a64"></path><path d="M161.48,292.26c5.27-2.44,8.23-7.94,8.91-13.7A17.38,17.38,0,0,0,164,263.18a18.63,18.63,0,0,0-4.91,19.47c1.11,3.16,3.14,6.34,2.38,9.61" style="fill:#455a64"></path><path d="M119.41,399a4.39,4.39,0,0,1-.33-.79c-.21-.52-.47-1.31-.87-2.29-.77-2-2-4.83-3.6-8.27a213.34,213.34,0,0,0-14.86-25.74,208.13,208.13,0,0,0-18-23.63A57.89,57.89,0,0,0,75.24,332a20.17,20.17,0,0,0-2-1.39,5.42,5.42,0,0,1-.75-.41,4.4,4.4,0,0,1,.8.32,14.87,14.87,0,0,1,2.07,1.32A53.2,53.2,0,0,1,82,338.05a191.82,191.82,0,0,1,18.21,23.59,196.61,196.61,0,0,1,14.76,25.88c1.6,3.47,2.75,6.33,3.46,8.35.37,1,.6,1.79.78,2.33A4.6,4.6,0,0,1,119.41,399Z" style="fill:#263238"></path><polygon points="138.48 463.41 102.51 463.41 96.77 417.5 145.04 417.5 138.48 463.41" style="fill:#FF725E"></polygon><path d="M125.86,395.56c3.81-8.75,2.2-19.37,7-27.6,3.71-6.3,10.56-10,17.37-12.69,1.58,4.74.83,10-1.18,14.62s-5.18,8.54-8.53,12.25c-4.64,5.13-9.68,9.87-14.72,14.6" style="fill:#455a64"></path><rect x="93.47" y="417.5" width="53.8" height="9.37" style="fill:#FF725E"></rect><path d="M145.47,427.18c0,.14-11.64.26-26,.26s-26-.12-26-.26,11.64-.26,26-.26S145.47,427,145.47,427.18Z" style="fill:#263238"></path><path d="M164.34,292.63a59.64,59.64,0,0,0-6.26-9.41,19.92,19.92,0,0,0-9.19-6.33c-4.85-1.42-10-.29-14.9,1.15a117.43,117.43,0,0,0-16.53,6.3,32.72,32.72,0,0,0,22,.39c3.7-1.26,7.3-1.1,11.18-.66,4.73.54,10.65,4.92,13.72,8.56" style="fill:#455a64"></path><path d="M76.86,331.92c-8,.44-15,6.58-17.76,14.08s-1.83,16,1.18,23.41,8,13.87,13.17,19.93c2.63-9,5.26-18.08,6.41-27.4S80.14,340.72,76.86,331.92Z" style="fill:#455a64"></path></g><g id="Character"><path d="M263.41,426.48l1,31.2,7.89,24.45a3.2,3.2,0,0,1-2.27,4.09h0a3.16,3.16,0,0,1-2.85-.67c-5-4.3-23.34-20.23-23.29-22.51.07-2.65-3.22-32.85-3.22-32.85Z" style="fill:#455a64"></path><path d="M270,486.22l-26.25-25.29.07,1.32a4.78,4.78,0,0,0,1.31,3.06c2.11,2.22,8.06,8.21,21.92,20.25a3.19,3.19,0,0,0,2.95.66Z" style="fill:#e0e0e0"></path><path d="M249.62,450.53a1.94,1.94,0,0,1,.67,2.49,1.87,1.87,0,0,1-2.47.69,2,2,0,0,1-.69-2.65,1.92,1.92,0,0,1,2.64-.42" style="fill:#e0e0e0"></path><path d="M262.15,473c.18.08.8-1.6,2.6-2.57s3.53-.69,3.55-.89-.38-.3-1.12-.36a5.12,5.12,0,0,0-4.75,2.67C262.1,472.5,262.07,473,262.15,473Z" style="fill:#263238"></path><path d="M264.6,477c.15.13,1.1-.94,2.69-1.49s3-.36,3-.56-1.45-.74-3.25-.08S264.43,477,264.6,477Z" style="fill:#263238"></path><path d="M257.73,467.86c.15.14,1.6-1.51,4-2.58s4.57-1.12,4.57-1.33-2.3-.47-4.85.71S257.57,467.78,257.73,467.86Z" style="fill:#263238"></path><path d="M256.64,458.4c.09.19,1.77-.63,4-.83s4,.24,4.1,0-1.77-1-4.17-.72S256.53,458.26,256.64,458.4Z" style="fill:#263238"></path><path d="M256.12,449.25c.1.18,1.78-1,4.15-1s4.09,1,4.19.82-.31-.45-1.06-.82a6.71,6.71,0,0,0-3.14-.68,6.84,6.84,0,0,0-3.12.8C256.41,448.8,256.07,449.18,256.12,449.25Z" style="fill:#263238"></path><path d="M260.12,446.53a2.63,2.63,0,0,0,0-1.18,8.09,8.09,0,0,0-1.11-3,3.55,3.55,0,0,0-1.65-1.65,1.28,1.28,0,0,0-1.43.36,2.15,2.15,0,0,0-.42,1.43,4.54,4.54,0,0,0,4.19,4,5.25,5.25,0,0,0,5-3,1.83,1.83,0,0,0,0-1.52,1.27,1.27,0,0,0-1.36-.59,4.32,4.32,0,0,0-2,1.18,9,9,0,0,0-2,2.53,2.8,2.8,0,0,0-.42,1.11,14.45,14.45,0,0,1,2.73-3.28,4.18,4.18,0,0,1,1.77-1,.67.67,0,0,1,.74.32,1.29,1.29,0,0,1-.06,1,4.69,4.69,0,0,1-4.37,2.57,3.94,3.94,0,0,1-3.6-3.31,1.56,1.56,0,0,1,.25-1,.7.7,0,0,1,.79-.22,3.35,3.35,0,0,1,1.42,1.37A12.27,12.27,0,0,1,260.12,446.53Z" style="fill:#263238"></path><path d="M327,423.73l.37,24.74S352.68,456.4,353.2,461l-47.95,2.45-2.16-38.53Z" style="fill:#455a64"></path><path d="M312.48,447.15a2,2,0,0,0-1.24,2.3,1.88,1.88,0,0,0,2.27,1.25,2.07,2.07,0,0,0,1.3-2.45,2,2,0,0,0-2.51-1" style="fill:#e0e0e0"></path><path d="M305.25,463.41l-.06-3.89,46-.89s2.18.82,2,2.33Z" style="fill:#e0e0e0"></path><path d="M328.17,448.19c0,.23-1.16.4-2.27,1.21s-1.68,1.82-1.9,1.74.06-1.45,1.43-2.41S328.21,448,328.17,448.19Z" style="fill:#263238"></path><path d="M333.31,450c.06.22-.93.67-1.67,1.7s-.92,2.09-1.16,2.09-.45-1.31.5-2.57S333.29,449.79,333.31,450Z" style="fill:#263238"></path><path d="M336.47,455.88c-.21.06-.59-1.09-.06-2.4s1.61-1.88,1.72-1.69-.54.91-1,2S336.7,455.85,336.47,455.88Z" style="fill:#263238"></path><path d="M327.46,442.56c-.08.21-1.17-.05-2.49.1s-2.33.63-2.46.44.81-1.08,2.37-1.25S327.57,442.37,327.46,442.56Z" style="fill:#263238"></path><path d="M369.79,280l-11.16,8.46s2.61,6.9,6.9,10.15,8.2,16.66,8.2,16.66-2.08,4.43-.65,5.08,2.87-1,2.87-1,1.17,2.34,2.86,2.21,2.21-3.38,2.21-3.38,1.7,2.86,3.13,1.82,3-11.85,3-11.85l-3.26-10.49a4.41,4.41,0,0,0-1.37-2L373.43,288Z" style="fill:#ffbe9d"></path><path d="M381.74,319.26a2.13,2.13,0,0,1-.47-.68,6.23,6.23,0,0,1-.62-2.16,11.47,11.47,0,0,1,.19-3.33c.21-1.22.68-2.54.83-3.9a6.35,6.35,0,0,0-1.09-3.64c-.61-1.05-1.24-2-1.65-2.85a5.17,5.17,0,0,1-.59-2.17,1.79,1.79,0,0,1,.09-.82,7,7,0,0,0,.83,2.82c.43.82,1.08,1.71,1.74,2.78a6.51,6.51,0,0,1,1.18,3.92,12.56,12.56,0,0,1-.41,2.08c-.17.65-.33,1.28-.46,1.88a11.65,11.65,0,0,0-.29,3.19A9.57,9.57,0,0,0,381.74,319.26Z" style="fill:#eb996e"></path><path d="M376.82,316.36c.14.06,0,.72-.17,1.53s-.25,1.48-.39,1.48-.29-.71-.12-1.58S376.69,316.3,376.82,316.36Z" style="fill:#eb996e"></path><path d="M231.74,268.94c0,.87,1.09,70.15,1.36,75.46.15,3.2.31,26.57,1.44,43.94,1.56,24,6.12,62.43,6.12,62.43l23.8-1.68s4.27-98,4.14-83.89c0,1.83,8.1-76.71,8.1-76.71l-8.27-22.3Z" style="fill:#263238"></path><path d="M268.91,292.55l25.7,74.26,7.18,80.78,26.35-1.06s1.16-80.12-.58-88.27S310,266.16,310,266.16l-41.59-5.52Z" style="fill:#263238"></path><path d="M329.41,216.81c.3,1,12.59,35.65,12.59,35.65l19.77,43.42,10.31-7.39-10.65-39.3-7.11-35.89Z" style="fill:#ffbe9d"></path><path d="M244.37,270.86s17.06,11.26,30.57,11.64a44.58,44.58,0,0,0,35-15.65l1-1.45a2.94,2.94,0,0,0-.33-3.75l-.4-.4-1.52-18.13,1-5.11,16.38-25.13,7.53-10.52,6.52-26.56-28.19-21.65-15.34-3.82-21.32,17.58S250.5,199.1,246,215.11s-14.23,51.08-14.23,51.08Z" style="fill:#FF725E"></path><path d="M339.5,175.3a23.45,23.45,0,0,1,9.9,12.14c3.2,8.62,9,37.67,9,37.67l-30.85,2.41-5.65-17.05Z" style="fill:#FF725E"></path><path d="M228.78,247.75l1.08,11.5-1.57,12.07,1.17,10.91,7.63,6.57s6.33,4.93,5.51,1.06c0,0,1.64,1.05,2.11-.24s-2.23-5.75-2.23-5.75l-3.28-10.79,2-2.11s2.11,6.92,3.58,9.27a5.56,5.56,0,0,0,3.82,2.58l-.94-4.46-1.06-9.51L242.45,256l.61-7Z" style="fill:#ffbe9d"></path><path d="M374.34,306c-1.45,1.33-3.39,2-5.1,3s-3.33,2.58-3.32,4.55c0,1.08.48,2.21,0,3.18s-1.6,1.27-2.37,2a4.23,4.23,0,0,0-.76,4.63,7.41,7.41,0,0,0,1.08,1.87,3.44,3.44,0,0,0,3.87,1.11l.36-.1a3,3,0,0,1,2.48.36,14.27,14.27,0,0,1,1.42,1.58,3.24,3.24,0,0,0,5.4-3.12l4.3.47a2.19,2.19,0,0,0,1.69-.27,2,2,0,0,0,.5-1.71,13.84,13.84,0,0,0-.84-4.27,5.45,5.45,0,0,1-.53-2.25,9.1,9.1,0,0,1,.66-2,6,6,0,0,0-.44-4.36,18.16,18.16,0,0,0-2.53-3.69A4.87,4.87,0,0,0,378,305.1c-1.22-.36-2.49.29-3.6.92" style="fill:#e0e0e0"></path><path d="M359.94,288.49c.13.52.39,5.2,2.08,8.46s7.16,7.68,7.16,7.68,2.34,10.67,4.55,11.84,4.69-.26,4.17-3.51A96.47,96.47,0,0,0,375,302.68s.13-6.25.13-6.77S359.94,288.49,359.94,288.49Z" style="fill:#ffbe9d"></path><path d="M375.14,297.31a8.58,8.58,0,0,1,.06,1.41c0,1,0,2.32,0,4v-.06c.79,2.36,1.86,5.46,2.73,9.18a6.56,6.56,0,0,1,.18,3,2.86,2.86,0,0,1-2.27,2.26,3.17,3.17,0,0,1-1.72-.17,2.82,2.82,0,0,1-1.38-1.1,14.27,14.27,0,0,1-1.49-3.1,62.88,62.88,0,0,1-2.29-8l.08.14a43.69,43.69,0,0,1-5.56-5.44,12.28,12.28,0,0,1-1.82-2.8,15.61,15.61,0,0,1-.92-2.69,28.06,28.06,0,0,1-.68-4l-.09-1.06c0-.25,0-.37,0-.37s.21,2,1.08,5.32a16.46,16.46,0,0,0,1,2.62,12.35,12.35,0,0,0,1.81,2.67,44.52,44.52,0,0,0,5.55,5.33l.07.06,0,.08a67.51,67.51,0,0,0,2.3,7.95,14,14,0,0,0,1.42,3,2.55,2.55,0,0,0,2.59,1.07,2.38,2.38,0,0,0,1.89-1.88,6.34,6.34,0,0,0-.16-2.8c-.83-3.68-1.84-6.8-2.57-9.17v-.05c.06-1.65.12-3,.15-4A9.87,9.87,0,0,1,375.14,297.31Z" style="fill:#eb996e"></path><path d="M308.69,241.06a5.94,5.94,0,0,1-1.21.5c-.79.29-2,.66-3.39,1.08a72.59,72.59,0,0,1-11.53,2.27,74,74,0,0,1-11.74.4c-1.51-.08-2.72-.18-3.55-.29a6,6,0,0,1-1.3-.21,7,7,0,0,1,1.31,0c.84,0,2.05.09,3.55.12a90.56,90.56,0,0,0,11.67-.54A89.45,89.45,0,0,0,304,242.28c1.45-.36,2.62-.68,3.43-.91A7,7,0,0,1,308.69,241.06Z" style="fill:#263238"></path><path d="M339.42,195.45a5.57,5.57,0,0,1-.75,1c-.52.62-1.25,1.53-2.13,2.66-1.78,2.27-4.12,5.48-6.62,9.1s-4.73,6.91-6.41,9.26c-.84,1.17-1.53,2.11-2,2.75a5.5,5.5,0,0,1-.81,1,6.55,6.55,0,0,1,.65-1.08l1.89-2.84c1.6-2.4,3.78-5.73,6.28-9.35s4.9-6.81,6.76-9c.93-1.1,1.7-2,2.26-2.56A5,5,0,0,1,339.42,195.45Z" style="fill:#263238"></path><path d="M259.9,169.5c-1.11-.09-31.26,28.27-33.44,33.28s3.26,54,3.26,54l12.73-.8,4-46,27.85-24.07Z" style="fill:#ffbe9d"></path><path d="M299,170.62l-31.74,26.07-20.3-25.26s25.17-16.83,30.75-19.53c9.4-4.56,18.93-1.57,18.93-1.57Z" style="fill:#FF725E"></path><path d="M288.68,185.22a2.12,2.12,0,0,1-.34.32l-1,.87c-1,.77-2.32,1.83-4,3.12L269.89,200l-.2.15-.16-.2c-.85-1.06-1.75-2.18-2.67-3.31L254.46,181l-3.72-4.75-1-1.31c-.23-.3-.34-.47-.32-.48a2.57,2.57,0,0,1,.4.42l1.06,1.24,3.84,4.65,12.53,15.47,2.66,3.32-.35,0,13.55-10.3,4-3,1.11-.79A1.69,1.69,0,0,1,288.68,185.22Z" style="fill:#263238"></path><path d="M276,291a2.56,2.56,0,0,1,0,.61c-.05.46-.11,1-.18,1.74-.15,1.58-.37,3.75-.63,6.4-.51,5.41-1.11,12.89-1.79,21.15s-1.34,15.75-2,21.15c-.29,2.7-.57,4.88-.79,6.39-.11.7-.21,1.28-.28,1.73a2.47,2.47,0,0,1-.13.59,2.35,2.35,0,0,1,0-.61c0-.45.1-1,.18-1.74.15-1.58.37-3.75.63-6.4.5-5.41,1.1-12.89,1.79-21.15s1.34-15.74,1.94-21.14c.3-2.71.58-4.89.8-6.39l.27-1.73A3.66,3.66,0,0,1,276,291Z" style="fill:#455a64"></path><path d="M336,172.62a7.33,7.33,0,0,1-.68,1l-2,2.86h0a15.65,15.65,0,0,1-8.19,4,14.57,14.57,0,0,1-11.69-3.2,17.46,17.46,0,0,1-5.62-8.51,18.09,18.09,0,0,1-.41-8.33,18.77,18.77,0,0,1,1.79-5.34c.31-.6.57-1,.76-1.33s.3-.44.32-.43-.35.65-.9,1.84a20.7,20.7,0,0,0-1.61,5.32,18.23,18.23,0,0,0,.51,8.14,17.25,17.25,0,0,0,5.49,8.24,14.7,14.7,0,0,0,5.58,2.86,14.85,14.85,0,0,0,5.71.29,15.67,15.67,0,0,0,8.05-3.82l0,0c.88-1.14,1.6-2.07,2.13-2.77A6.79,6.79,0,0,1,336,172.62Z" style="fill:#263238"></path><g style="opacity:0.30000000000000004"><polygon points="248.8 207.91 264.51 199.24 269.76 202.68 285.08 188.04 269.67 199.87 264.93 193.97 248.8 207.91"></polygon></g><g style="opacity:0.30000000000000004"><path d="M323.85,216.75a14.14,14.14,0,0,0,7.84-6.83A52,52,0,0,0,336.27,199Z"></path></g><g style="opacity:0.30000000000000004"><path d="M267.66,235.72c1.66,2.95,4.66,4.6,7.88,5.66a41,41,0,0,0,10,1.55,52.45,52.45,0,0,0,8.77.14,17.68,17.68,0,0,0,8.26-2.72C290.81,239.87,278.87,239.36,267.66,235.72Z"></path></g><path d="M266.93,277a1.76,1.76,0,0,1,.48,0l1.35.12c.59.07,1.3.14,2.14.16s1.79.11,2.84.07,2.21,0,3.44-.14,2.55-.26,3.92-.44a49.37,49.37,0,0,0,17-5.94c1.19-.71,2.34-1.37,3.34-2.1s1.95-1.38,2.77-2,1.54-1.29,2.18-1.83,1.16-1,1.58-1.46l1-.94a1.79,1.79,0,0,1,.37-.3,2.13,2.13,0,0,1-.29.38l-.92,1c-.4.44-.9,1-1.52,1.53s-1.3,1.25-2.15,1.89a32.46,32.46,0,0,1-2.76,2.11c-1,.75-2.15,1.42-3.34,2.16a47.46,47.46,0,0,1-17.15,6c-1.4.17-2.72.36-4,.39a34.7,34.7,0,0,1-3.47.08c-1.06,0-2-.1-2.86-.15a19.25,19.25,0,0,1-2.14-.25l-1.35-.22A1.33,1.33,0,0,1,266.93,277Z" style="fill:#263238"></path><path d="M311.61,282.45a3.82,3.82,0,0,1-1.73-.21,10,10,0,0,1-3.72-2,10.14,10.14,0,0,1-2.56-3.35,3.81,3.81,0,0,1-.48-1.68,12.91,12.91,0,0,1,.81,1.51,11.44,11.44,0,0,0,6.06,5.15A10.91,10.91,0,0,1,311.61,282.45Z" style="fill:#455a64"></path><path d="M295.5,172.74c-.08,0,.25-1.36.67-3.54a26.14,26.14,0,0,0,.41-8.56,13.55,13.55,0,0,0-3.66-7.57,16.1,16.1,0,0,0-2.87-2.1,2.65,2.65,0,0,1,.92.33,8.65,8.65,0,0,1,2.2,1.5,13.25,13.25,0,0,1,3.93,7.76,24,24,0,0,1-.57,8.72c-.25,1.09-.5,2-.69,2.55A3.33,3.33,0,0,1,295.5,172.74Z" style="fill:#263238"></path><path d="M371.85,118.27c1.64-.72,2.06-3.06,1.21-4.65a7.11,7.11,0,0,0-4.29-3.07A48.78,48.78,0,0,1,363.6,109c-2.31-1-4.12-2.88-6.06-4.5s-4.25-3.07-6.78-3c-2.89.06-5.4,2.08-8.26,2.51-3.67.55-7.93-1.45-10.87.82-1.89,1.45-2.34,4.08-3.72,6-1,1.41-2.47,2.41-3.6,3.71a13.3,13.3,0,0,0-2.91,8.19,39.51,39.51,0,0,0,1,8.79l16.94-19.23c4,8.11,11.7,14,20.15,17.22a19,19,0,0,0,9.36,1.56c3.16-.45,6.27-2.46,7.22-5.51S375,118.66,371.85,118.27Z" style="fill:#263238"></path><path d="M354,109.34l-1-.51c-10.8-4.92-21,1.5-25.63,12.43l-15.49,32.89c-4.27,8.79-1.4,20.76,8,23.34h0c5.15,1.41,11.27-.44,13.78-5.14.8-1.5,2.2-4.85,2.26-4.94s10.9,3.75,16.34-6.26c2.63-4.83,7.23-15.22,11.28-24.67A21.22,21.22,0,0,0,354,109.34Z" style="fill:#ffbe9d"></path><path d="M336,167.41a27.49,27.49,0,0,1-11.07-10.81s-.85,9.55,9.68,14Z" style="fill:#eb996e"></path><path d="M356.13,144.79a1.63,1.63,0,0,1-2.15.72,1.55,1.55,0,0,1-.8-2.08,1.62,1.62,0,0,1,2.15-.72A1.55,1.55,0,0,1,356.13,144.79Z" style="fill:#263238"></path><path d="M358.86,140.26c-.28.09-.94-1.29-2.49-2.1s-3.09-.64-3.16-.92c0-.13.32-.37,1-.47a4.49,4.49,0,0,1,2.65.5,4.36,4.36,0,0,1,1.86,1.91C359,139.8,359,140.22,358.86,140.26Z" style="fill:#263238"></path><path d="M341.57,137.42a1.63,1.63,0,0,1-2.15.72,1.56,1.56,0,0,1-.8-2.08,1.61,1.61,0,0,1,2.15-.72A1.54,1.54,0,0,1,341.57,137.42Z" style="fill:#263238"></path><path d="M343.49,132.52c-.27.09-.94-1.29-2.49-2.11s-3.09-.63-3.16-.91c0-.13.32-.37,1-.47a4.48,4.48,0,0,1,2.65.5,4.25,4.25,0,0,1,1.86,1.91C343.64,132.05,343.63,132.48,343.49,132.52Z" style="fill:#263238"></path><path d="M343.05,147a11.7,11.7,0,0,1,2.75.87c.42.17.84.29,1.05.06a2.32,2.32,0,0,0,.35-1.32c.13-1.15.27-2.36.42-3.62.64-5.14,1.33-9.29,1.53-9.26s-.14,4.22-.78,9.36c-.17,1.26-.33,2.47-.48,3.62a2.63,2.63,0,0,1-.61,1.66,1.12,1.12,0,0,1-1,.23,2.86,2.86,0,0,1-.72-.26A11.42,11.42,0,0,1,343.05,147Z" style="fill:#263238"></path><path d="M337.93,145.62c.26.12-.62,1.8.18,3.76s2.7,2.71,2.59,3-.57.12-1.34-.26a4.77,4.77,0,0,1-2.21-2.37,4.11,4.11,0,0,1,0-3.09C337.41,145.87,337.82,145.55,337.93,145.62Z" style="fill:#263238"></path><path d="M347.1,126.66c-.38.34-1.82-.67-3.75-1.41s-3.66-1-3.7-1.53c0-.24.45-.5,1.26-.59a6.92,6.92,0,0,1,5.67,2.24C347.11,126,347.27,126.5,347.1,126.66Z" style="fill:#263238"></path><path d="M360.66,135.48c-.46.21-1.33-.72-2.61-1.41s-2.49-1-2.55-1.52c0-.23.35-.5,1-.58a4.3,4.3,0,0,1,4.15,2.36C360.91,134.93,360.87,135.37,360.66,135.48Z" style="fill:#263238"></path><path d="M324.31,129.16c-.13-.17-5.84-5.71-9.26,1.3s4.32,9,4.43,8.79S324.31,129.16,324.31,129.16Z" style="fill:#ffbe9d"></path><path d="M318.64,135.55s-.17,0-.42,0a1.35,1.35,0,0,1-.92-.42c-.61-.64-.66-2.11-.07-3.39a4.39,4.39,0,0,1,1.19-1.58,1.54,1.54,0,0,1,1.37-.49.68.68,0,0,1,.56.68c0,.25-.11.36-.08.39s.2,0,.29-.36a.85.85,0,0,0-.06-.57,1,1,0,0,0-.59-.51,1.92,1.92,0,0,0-1.8.47,4.64,4.64,0,0,0-1.38,1.74c-.64,1.44-.56,3.11.31,3.89a1.45,1.45,0,0,0,1.2.36C318.54,135.72,318.66,135.58,318.64,135.55Z" style="fill:#eb996e"></path><path d="M368.71,127.14c-2.07,2.35-8.89,1.47-13.22-1.38-4-2.63-4.77-5.89-6.84-9.15-1.31-2.07-1.31-2.07-4.11-3.22-2.26-.93-4.82.83-7,1.85-.76,6.15-5.08,11.17-9.22,15.79a3,3,0,0,1-1.64,1.16c-1.14.2-2.1-.93-2.42-2.05a8.67,8.67,0,0,1-.22-5.23,34.83,34.83,0,0,1,6.69-11.38,21.75,21.75,0,0,1,10.44-6.94,20.63,20.63,0,0,1,15.37,1.93A25.35,25.35,0,0,1,367.05,120a14.89,14.89,0,0,1,1.66,7.1" style="fill:#263238"></path><path d="M330.67,106s.4-.36,1.23-.54a5.1,5.1,0,0,1,5.55,2.67c.37.76.4,1.29.34,1.3s-.23-.46-.66-1.11a5.4,5.4,0,0,0-5.18-2.49A9,9,0,0,1,330.67,106Z" style="fill:#455a64"></path><path d="M321.66,127.38a9.72,9.72,0,0,0,2.74-2.63,23.89,23.89,0,0,0,3.27-8.62,10.61,10.61,0,0,1,1-2.55,10,10,0,0,1,5.26-4.19,4.39,4.39,0,0,1,2.87,0,2.45,2.45,0,0,1,.69.38q.22.15.21.18a.76.76,0,0,1-.26-.09,4,4,0,0,0-.7-.28,4.45,4.45,0,0,0-2.7.11,9.24,9.24,0,0,0-3.43,2.21,9,9,0,0,0-1.5,1.88,10.18,10.18,0,0,0-.91,2.43,22.14,22.14,0,0,1-3.49,8.7,7.92,7.92,0,0,1-2.07,2,4.47,4.47,0,0,1-.7.35C321.76,127.37,321.67,127.4,321.66,127.38Z" style="fill:#455a64"></path><path d="M372.05,117.81a1.57,1.57,0,0,1-.35.2,5.85,5.85,0,0,1-1.1.34,7.55,7.55,0,0,1-4.17-.46,14.28,14.28,0,0,1-5-3.66,58.58,58.58,0,0,0-5.25-5.39,11.7,11.7,0,0,0-6.81-2.61,15.48,15.48,0,0,0-6,.87,22.32,22.32,0,0,0-3.76,1.72,14.88,14.88,0,0,1-1.34.74,6,6,0,0,1,1.23-.92,20,20,0,0,1,3.75-1.89,15.33,15.33,0,0,1,6.14-1,12.07,12.07,0,0,1,7.12,2.68,54.27,54.27,0,0,1,5.27,5.47,14.39,14.39,0,0,0,4.83,3.65,7.83,7.83,0,0,0,4,.6C371.53,118,372,117.76,372.05,117.81Z" style="fill:#455a64"></path><path d="M296.47,200.41l-22.21,29.47A83.52,83.52,0,0,0,293.9,237l23.29-30.24Z" style="fill:#fff"></path><path d="M276.7,231.07l-1.53,4.65,20.56,3.74v-2.13S282,233.8,276.7,231.07Z" style="fill:#fff"></path><path d="M305.86,238.69a9.37,9.37,0,0,1-1.49,0c-1,0-2.35-.16-4.05-.38a76.79,76.79,0,0,1-25.54-7.94c-1.53-.8-2.74-1.48-3.55-2a8.61,8.61,0,0,1-1.25-.83,8,8,0,0,1,1.35.65c.84.46,2.08,1.09,3.61,1.84a87.29,87.29,0,0,0,25.43,7.91c1.69.26,3.07.44,4,.54A7.16,7.16,0,0,1,305.86,238.69Z" style="fill:#263238"></path></g><g id="trash-bin"><path d="M403.8,394.68a10.16,10.16,0,0,0-5.76-5.41c-2.54-.8-5.31-.2-8-.58-2.95-.42-5.63-2-8.58-2.42s-6.62,1.26-6.67,4.24A10,10,0,0,0,363.29,394l42.65,8.46A28.92,28.92,0,0,0,403.8,394.68Z" style="fill:#e0e0e0"></path><path d="M367.48,454s-15,6.78-15,6.78v3l15-3.21Z" style="fill:#263238"></path><polygon points="360.01 394.7 366.04 462.98 418.13 462.98 419.24 394.7 360.01 394.7" style="fill:#FF725E"></polygon><path d="M419.24,394.7h7.95s-1.3,47.82-8.81,52.56l-4.56-20.94Z" style="fill:#FF725E"></path><path d="M427.19,402s4.63-3.8,5-6.73-5-16.48-5-16.48-14.92-35.44-18.22-40.2A19.26,19.26,0,0,0,400.4,332l-2.19.73s11.32,24.5,17.54,38.5a188.5,188.5,0,0,0,9.83,19.7l-7.33,9.49Z" style="fill:#FF725E"></path><rect x="356.85" y="392.64" width="62.39" height="2.48" style="fill:#FF725E"></rect><path d="M418.5,395.42c0,.14-13.89.26-31,.26s-31-.12-31-.26,13.88-.26,31-.26S418.5,395.28,418.5,395.42Z" style="fill:#263238"></path><path d="M419,433c-.14,0-.26-9-.26-20s.12-20,.26-20,.26,9,.26,20S419.13,433,419,433Z" style="fill:#263238"></path><path d="M425.58,391a.9.9,0,0,0,.19-.6,9.54,9.54,0,0,0-.23-1.88,65.64,65.64,0,0,0-1.94-6.72c-1.88-5.61-4.82-13.24-8.48-21.5a161.23,161.23,0,0,0-10.57-20.53,30.35,30.35,0,0,0-4.27-5.51,7.89,7.89,0,0,0-2.07-1.46,2.37,2.37,0,0,1,.63.22,6.92,6.92,0,0,1,1.58,1.09,28.54,28.54,0,0,1,4.44,5.46,147.37,147.37,0,0,1,10.74,20.52,220.48,220.48,0,0,1,8.35,21.6,54.09,54.09,0,0,1,1.79,6.8,7.79,7.79,0,0,1,.13,1.91,1.13,1.13,0,0,1-.15.49C425.64,390.94,425.58,391,425.58,391Z" style="fill:#263238"></path><g style="opacity:0.30000000000000004"><path d="M425.58,391a188.5,188.5,0,0,1-9.83-19.7c-6.22-14-17.54-38.5-17.54-38.5s4.32,1.69,9.58,12,11.18,24.31,14.44,32.42C426.53,387.92,425.58,391,425.58,391Z"></path></g><path d="M406.17,421.77a7.4,7.4,0,0,1-1.11.76c-.74.47-1.81,1.11-3.16,1.87-2.68,1.54-6.46,3.54-10.75,5.52s-8.27,3.55-11.18,4.6c-1.46.53-2.64.93-3.47,1.18a7.69,7.69,0,0,1-1.3.36,6.27,6.27,0,0,1,1.23-.55l3.41-1.33c2.87-1.14,6.81-2.76,11.09-4.73s8.07-3.92,10.8-5.37l3.22-1.72A6.79,6.79,0,0,1,406.17,421.77Z" style="fill:#263238"></path><path d="M406.78,416.52s-.22.27-.66.67-1.12,1-2,1.63a49.75,49.75,0,0,1-14.86,7.87c-1,.34-1.86.58-2.45.71a2.8,2.8,0,0,1-.93.17c0-.08,1.25-.47,3.26-1.23a64,64,0,0,0,7.64-3.42,65.75,65.75,0,0,0,7.12-4.39C405.68,417.29,406.72,416.46,406.78,416.52Z" style="fill:#263238"></path><path d="M366.81,454.32a2.51,2.51,0,0,1-.09-.52c-.05-.4-.1-.89-.17-1.49-.13-1.37-.31-3.23-.53-5.48-.41-4.71-1-11.07-1.59-18.11s-1.14-13.41-1.54-18.11c-.19-2.26-.35-4.12-.46-5.49q-.07-.9-.12-1.5a1.72,1.72,0,0,1,0-.52,2.13,2.13,0,0,1,.11.51c.05.4.12.89.21,1.49.16,1.29.38,3.16.62,5.47.49,4.63,1.09,11,1.7,18.11s1.1,13.48,1.44,18.12c.15,2.26.27,4.12.36,5.49l.07,1.5A1.57,1.57,0,0,1,366.81,454.32Z" style="fill:#fff"></path><path d="M406.72,393.39c0,.15-8.82.27-19.7.27s-19.7-.12-19.7-.27,8.82-.26,19.7-.26S406.72,393.25,406.72,393.39Z" style="fill:#fff"></path><path d="M414.19,354.57c-.14.05-1.22-2.48-2.77-5.5s-2.95-5.4-2.82-5.48a34.5,34.5,0,0,1,5.59,11Z" style="fill:#fff"></path></g></svg>