<svg xmlns="http://www.w3.org/2000/svg" viewBox="0 0 750 500"><g id="background-simple"><path d="M696,146.06S659.37,67,533.37,33.8s-199.31,50.4-236,113.4S156.51,213.64,94.65,228.53s-77.89,165,8,208.48,167.24-2.29,244-2.29,209.62,50.4,304.69,6.87S757.88,244.57,696,146.06Z" style="fill:#92E3A9"></path><path d="M696,146.06S659.37,67,533.37,33.8s-199.31,50.4-236,113.4S156.51,213.64,94.65,228.53s-77.89,165,8,208.48,167.24-2.29,244-2.29,209.62,50.4,304.69,6.87S757.88,244.57,696,146.06Z" style="fill:#fff;opacity:0.7000000000000001"></path></g><g id="Clouds"><g style="opacity:0.30000000000000004"><path d="M614.4,143.78c-4.26-2.32-6.2-.38-7.75-2.32s4.26-7-7.37-12c0,0-.77-10.86-16.67-11.25s-11.63,10.86-15.9,13.57-5.42-1.55-9.69,1.17-2.33,8.14-5.82,8.91-8.14-3.48-12.4-.77-4.27,5-6.21,5-5.81-1.55-8.14,0-5,3.49-5,3.49h98.1S618.67,146.11,614.4,143.78Z" style="fill:none;stroke:#000;stroke-miterlimit:10"></path></g><g style="opacity:0.30000000000000004"><path d="M373.48,85.66c-1.94-1.06-2.82-.18-3.52-1.06s1.94-3.17-3.34-5.46c0,0-.36-4.92-7.57-5.1s-5.28,4.93-7.22,6.16-2.46-.7-4.4.53-1.05,3.69-2.64,4-3.69-1.59-5.63-.36-1.94,2.29-2.82,2.29-2.64-.7-3.69,0-2.29,1.59-2.29,1.59h44.53A2.28,2.28,0,0,0,373.48,85.66Z" style="fill:none;stroke:#000;stroke-miterlimit:10"></path></g><g style="opacity:0.30000000000000004"><path d="M146.92,101.84c-4-2.16-5.77-.36-7.21-2.16s4-6.49-6.84-11.17c0,0-.72-10.09-15.49-10.45S106.57,88.15,102.6,90.67s-5-1.44-9,1.08-2.16,7.57-5.41,8.29-7.56-3.24-11.52-.72S72.7,104,70.9,104s-5.4-1.44-7.56,0-4.69,3.24-4.69,3.24H149.8S150.88,104,146.92,101.84Z" style="fill:none;stroke:#000;stroke-miterlimit:10"></path></g><g style="opacity:0.30000000000000004"><path d="M366.54,65c-2.66-1.45-3.87-.24-4.84-1.45s2.66-4.36-4.6-7.5c0,0-.48-6.78-10.4-7s-7.26,6.78-9.93,8.47-3.38-1-6,.73-1.45,5.08-3.63,5.56-5.08-2.18-7.74-.48-2.66,3.14-3.87,3.14-3.63-1-5.09,0-3.14,2.18-3.14,2.18h61.23S369.2,66.49,366.54,65Z" style="fill:none;stroke:#000;stroke-miterlimit:10"></path></g></g><g id="Buildings"><g style="opacity:0.30000000000000004"><rect x="138.53" y="218.14" width="13.9" height="12.27" style="fill:none;stroke:#000;stroke-miterlimit:10"></rect><rect x="123.5" y="225.56" width="5.64" height="4.84" style="fill:none;stroke:#000;stroke-miterlimit:10"></rect><polyline points="694.65 295.61 641.95 295.61 641.95 198.25 645.47 198.25 645.47 188.17 522.01 188.17 522.01 198.25 526.29 198.25 526.29 343.05 493.9 343.05 493.9 32.4 382.86 32.4 382.86 267.32 342.26 267.32 342.26 241.32 352.89 241.32 352.89 230.32 264.11 230.32 264.11 72.72 269.85 72.72 269.85 64.47 162.08 64.47 162.08 72.72 169.81 72.72 169.81 230.59 84.64 230.59 84.64 343.5 39.91 343.5" style="fill:none;stroke:#000;stroke-miterlimit:10"></polyline><rect x="377.91" y="29" width="120.41" height="3.37" style="fill:none;stroke:#000;stroke-miterlimit:10"></rect><rect x="179.45" y="81.88" width="13.56" height="12.72" style="fill:none;stroke:#000;stroke-miterlimit:10"></rect><rect x="199.35" y="81.88" width="13.56" height="12.72" style="fill:none;stroke:#000;stroke-miterlimit:10"></rect><rect x="219.24" y="81.88" width="13.56" height="12.72" style="fill:none;stroke:#000;stroke-miterlimit:10"></rect><rect x="239.13" y="81.88" width="13.56" height="12.72" style="fill:none;stroke:#000;stroke-miterlimit:10"></rect><rect x="179.45" y="102.04" width="13.56" height="12.72" style="fill:none;stroke:#000;stroke-miterlimit:10"></rect><rect x="199.35" y="102.04" width="13.56" height="12.72" style="fill:none;stroke:#000;stroke-miterlimit:10"></rect><rect x="219.24" y="102.04" width="13.56" height="12.72" style="fill:none;stroke:#000;stroke-miterlimit:10"></rect><rect x="239.13" y="102.04" width="13.56" height="12.72" style="fill:none;stroke:#000;stroke-miterlimit:10"></rect><rect x="179.45" y="122.2" width="13.56" height="12.72" style="fill:none;stroke:#000;stroke-miterlimit:10"></rect><rect x="199.35" y="122.2" width="13.56" height="12.72" style="fill:none;stroke:#000;stroke-miterlimit:10"></rect><rect x="219.24" y="122.2" width="13.56" height="12.72" style="fill:none;stroke:#000;stroke-miterlimit:10"></rect><rect x="239.13" y="122.2" width="13.56" height="12.72" style="fill:none;stroke:#000;stroke-miterlimit:10"></rect><rect x="179.45" y="142.35" width="13.56" height="12.72" style="fill:none;stroke:#000;stroke-miterlimit:10"></rect><rect x="199.35" y="142.35" width="13.56" height="12.72" style="fill:none;stroke:#000;stroke-miterlimit:10"></rect><rect x="219.24" y="142.35" width="13.56" height="12.72" style="fill:none;stroke:#000;stroke-miterlimit:10"></rect><rect x="239.13" y="142.35" width="13.56" height="12.72" style="fill:none;stroke:#000;stroke-miterlimit:10"></rect><rect x="179.45" y="162.51" width="13.56" height="12.72" style="fill:none;stroke:#000;stroke-miterlimit:10"></rect><rect x="199.35" y="162.51" width="13.56" height="12.72" style="fill:none;stroke:#000;stroke-miterlimit:10"></rect><rect x="219.24" y="162.51" width="13.56" height="12.72" style="fill:none;stroke:#000;stroke-miterlimit:10"></rect><rect x="239.13" y="162.51" width="13.56" height="12.72" style="fill:none;stroke:#000;stroke-miterlimit:10"></rect><rect x="179.45" y="182.67" width="13.56" height="12.72" style="fill:none;stroke:#000;stroke-miterlimit:10"></rect><rect x="199.35" y="182.67" width="13.56" height="12.72" style="fill:none;stroke:#000;stroke-miterlimit:10"></rect><rect x="219.24" y="182.67" width="13.56" height="12.72" style="fill:none;stroke:#000;stroke-miterlimit:10"></rect><rect x="239.13" y="182.67" width="13.56" height="12.72" style="fill:none;stroke:#000;stroke-miterlimit:10"></rect><rect x="179.45" y="202.83" width="13.56" height="12.72" style="fill:none;stroke:#000;stroke-miterlimit:10"></rect><rect x="199.35" y="202.83" width="13.56" height="12.72" style="fill:none;stroke:#000;stroke-miterlimit:10"></rect><rect x="219.24" y="202.83" width="13.56" height="12.72" style="fill:none;stroke:#000;stroke-miterlimit:10"></rect><rect x="239.13" y="202.83" width="13.56" height="12.72" style="fill:none;stroke:#000;stroke-miterlimit:10"></rect><rect x="179.45" y="222.99" width="13.56" height="12.72" style="fill:none;stroke:#000;stroke-miterlimit:10"></rect><rect x="199.35" y="222.99" width="13.56" height="12.72" style="fill:none;stroke:#000;stroke-miterlimit:10"></rect><rect x="219.24" y="222.99" width="13.56" height="12.72" style="fill:none;stroke:#000;stroke-miterlimit:10"></rect><rect x="239.13" y="222.99" width="13.56" height="12.72" style="fill:none;stroke:#000;stroke-miterlimit:10"></rect><rect x="179.45" y="241.43" width="13.56" height="12.72" style="fill:none;stroke:#000;stroke-miterlimit:10"></rect><rect x="199.35" y="241.43" width="13.56" height="12.72" style="fill:none;stroke:#000;stroke-miterlimit:10"></rect><rect x="219.24" y="241.43" width="13.56" height="12.72" style="fill:none;stroke:#000;stroke-miterlimit:10"></rect><rect x="239.13" y="241.43" width="13.56" height="12.72" style="fill:none;stroke:#000;stroke-miterlimit:10"></rect><rect x="179.45" y="261.59" width="13.56" height="12.72" style="fill:none;stroke:#000;stroke-miterlimit:10"></rect><rect x="199.35" y="261.59" width="13.56" height="12.72" style="fill:none;stroke:#000;stroke-miterlimit:10"></rect><rect x="219.24" y="261.59" width="13.56" height="12.72" style="fill:none;stroke:#000;stroke-miterlimit:10"></rect><rect x="239.13" y="261.59" width="13.56" height="12.72" style="fill:none;stroke:#000;stroke-miterlimit:10"></rect><rect x="179.45" y="281.75" width="13.56" height="12.72" style="fill:none;stroke:#000;stroke-miterlimit:10"></rect><rect x="199.35" y="281.75" width="13.56" height="12.72" style="fill:none;stroke:#000;stroke-miterlimit:10"></rect><rect x="219.24" y="281.75" width="13.56" height="12.72" style="fill:none;stroke:#000;stroke-miterlimit:10"></rect><rect x="239.13" y="281.75" width="13.56" height="12.72" style="fill:none;stroke:#000;stroke-miterlimit:10"></rect><rect x="179.45" y="301.91" width="13.56" height="12.72" style="fill:none;stroke:#000;stroke-miterlimit:10"></rect><rect x="199.35" y="301.91" width="13.56" height="12.72" style="fill:none;stroke:#000;stroke-miterlimit:10"></rect><rect x="219.24" y="301.91" width="13.56" height="12.72" style="fill:none;stroke:#000;stroke-miterlimit:10"></rect><rect x="239.13" y="301.91" width="13.56" height="12.72" style="fill:none;stroke:#000;stroke-miterlimit:10"></rect><rect x="179.45" y="322.06" width="13.56" height="12.72" style="fill:none;stroke:#000;stroke-miterlimit:10"></rect><rect x="199.35" y="322.06" width="13.56" height="12.72" style="fill:none;stroke:#000;stroke-miterlimit:10"></rect><rect x="219.24" y="322.06" width="13.56" height="12.72" style="fill:none;stroke:#000;stroke-miterlimit:10"></rect><rect x="239.13" y="322.06" width="13.56" height="12.72" style="fill:none;stroke:#000;stroke-miterlimit:10"></rect><rect x="179.45" y="342.22" width="13.56" height="12.72" style="fill:none;stroke:#000;stroke-miterlimit:10"></rect><rect x="199.35" y="342.22" width="13.56" height="12.72" style="fill:none;stroke:#000;stroke-miterlimit:10"></rect><rect x="219.24" y="342.22" width="13.56" height="12.72" style="fill:none;stroke:#000;stroke-miterlimit:10"></rect><rect x="239.13" y="342.22" width="13.56" height="12.72" style="fill:none;stroke:#000;stroke-miterlimit:10"></rect><rect x="179.45" y="362.38" width="13.56" height="12.72" style="fill:none;stroke:#000;stroke-miterlimit:10"></rect><rect x="199.35" y="362.38" width="13.56" height="12.72" style="fill:none;stroke:#000;stroke-miterlimit:10"></rect><rect x="219.24" y="362.38" width="13.56" height="12.72" style="fill:none;stroke:#000;stroke-miterlimit:10"></rect><rect x="239.13" y="362.38" width="13.56" height="12.72" style="fill:none;stroke:#000;stroke-miterlimit:10"></rect><rect x="179.45" y="382.54" width="13.56" height="12.72" style="fill:none;stroke:#000;stroke-miterlimit:10"></rect><rect x="199.35" y="382.54" width="13.56" height="12.72" style="fill:none;stroke:#000;stroke-miterlimit:10"></rect><rect x="219.24" y="382.54" width="13.56" height="12.72" style="fill:none;stroke:#000;stroke-miterlimit:10"></rect><rect x="239.13" y="382.54" width="13.56" height="12.72" style="fill:none;stroke:#000;stroke-miterlimit:10"></rect><rect x="257.15" y="241.43" width="13.56" height="12.72" style="fill:none;stroke:#000;stroke-miterlimit:10"></rect><rect x="277.04" y="241.43" width="13.56" height="12.72" style="fill:none;stroke:#000;stroke-miterlimit:10"></rect><rect x="296.93" y="241.43" width="13.56" height="12.72" style="fill:none;stroke:#000;stroke-miterlimit:10"></rect><rect x="316.83" y="241.43" width="13.56" height="12.72" style="fill:none;stroke:#000;stroke-miterlimit:10"></rect><rect x="257.15" y="261.59" width="13.56" height="12.72" style="fill:none;stroke:#000;stroke-miterlimit:10"></rect><rect x="277.04" y="261.59" width="13.56" height="12.72" style="fill:none;stroke:#000;stroke-miterlimit:10"></rect><rect x="296.93" y="261.59" width="13.56" height="12.72" style="fill:none;stroke:#000;stroke-miterlimit:10"></rect><rect x="316.83" y="261.59" width="13.56" height="12.72" style="fill:none;stroke:#000;stroke-miterlimit:10"></rect><rect x="257.15" y="281.75" width="13.56" height="12.72" style="fill:none;stroke:#000;stroke-miterlimit:10"></rect><rect x="277.04" y="281.75" width="13.56" height="12.72" style="fill:none;stroke:#000;stroke-miterlimit:10"></rect><rect x="296.93" y="281.75" width="13.56" height="12.72" style="fill:none;stroke:#000;stroke-miterlimit:10"></rect><rect x="316.83" y="281.75" width="13.56" height="12.72" style="fill:none;stroke:#000;stroke-miterlimit:10"></rect><rect x="257.15" y="301.91" width="13.56" height="12.72" style="fill:none;stroke:#000;stroke-miterlimit:10"></rect><rect x="277.04" y="301.91" width="13.56" height="12.72" style="fill:none;stroke:#000;stroke-miterlimit:10"></rect><rect x="296.93" y="301.91" width="13.56" height="12.72" style="fill:none;stroke:#000;stroke-miterlimit:10"></rect><rect x="316.83" y="301.91" width="13.56" height="12.72" style="fill:none;stroke:#000;stroke-miterlimit:10"></rect><rect x="257.15" y="322.06" width="13.56" height="12.72" style="fill:none;stroke:#000;stroke-miterlimit:10"></rect><rect x="277.04" y="322.06" width="13.56" height="12.72" style="fill:none;stroke:#000;stroke-miterlimit:10"></rect><rect x="296.93" y="322.06" width="13.56" height="12.72" style="fill:none;stroke:#000;stroke-miterlimit:10"></rect><rect x="316.83" y="322.06" width="13.56" height="12.72" style="fill:none;stroke:#000;stroke-miterlimit:10"></rect><rect x="257.15" y="342.22" width="13.56" height="12.72" style="fill:none;stroke:#000;stroke-miterlimit:10"></rect><rect x="277.04" y="342.22" width="13.56" height="12.72" style="fill:none;stroke:#000;stroke-miterlimit:10"></rect><rect x="296.93" y="342.22" width="13.56" height="12.72" style="fill:none;stroke:#000;stroke-miterlimit:10"></rect><rect x="316.83" y="342.22" width="13.56" height="12.72" style="fill:none;stroke:#000;stroke-miterlimit:10"></rect><rect x="257.15" y="362.38" width="13.56" height="12.72" style="fill:none;stroke:#000;stroke-miterlimit:10"></rect><rect x="277.04" y="362.38" width="13.56" height="12.72" style="fill:none;stroke:#000;stroke-miterlimit:10"></rect><rect x="296.93" y="362.38" width="13.56" height="12.72" style="fill:none;stroke:#000;stroke-miterlimit:10"></rect><rect x="316.83" y="362.38" width="13.56" height="12.72" style="fill:none;stroke:#000;stroke-miterlimit:10"></rect><rect x="257.15" y="382.54" width="13.56" height="12.72" style="fill:none;stroke:#000;stroke-miterlimit:10"></rect><rect x="277.04" y="382.54" width="13.56" height="12.72" style="fill:none;stroke:#000;stroke-miterlimit:10"></rect><rect x="296.93" y="382.54" width="13.56" height="12.72" style="fill:none;stroke:#000;stroke-miterlimit:10"></rect><rect x="316.83" y="382.54" width="13.56" height="12.72" style="fill:none;stroke:#000;stroke-miterlimit:10"></rect><rect x="100.66" y="241.43" width="13.56" height="12.72" style="fill:none;stroke:#000;stroke-miterlimit:10"></rect><rect x="120.56" y="241.43" width="13.56" height="12.72" style="fill:none;stroke:#000;stroke-miterlimit:10"></rect><rect x="140.45" y="241.43" width="13.56" height="12.72" style="fill:none;stroke:#000;stroke-miterlimit:10"></rect><rect x="160.34" y="241.43" width="13.56" height="12.72" style="fill:none;stroke:#000;stroke-miterlimit:10"></rect><rect x="100.66" y="261.59" width="13.56" height="12.72" style="fill:none;stroke:#000;stroke-miterlimit:10"></rect><rect x="120.56" y="261.59" width="13.56" height="12.72" style="fill:none;stroke:#000;stroke-miterlimit:10"></rect><rect x="140.45" y="261.59" width="13.56" height="12.72" style="fill:none;stroke:#000;stroke-miterlimit:10"></rect><rect x="160.34" y="261.59" width="13.56" height="12.72" style="fill:none;stroke:#000;stroke-miterlimit:10"></rect><rect x="100.66" y="281.75" width="13.56" height="12.72" style="fill:none;stroke:#000;stroke-miterlimit:10"></rect><rect x="120.56" y="281.75" width="13.56" height="12.72" style="fill:none;stroke:#000;stroke-miterlimit:10"></rect><rect x="140.45" y="281.75" width="13.56" height="12.72" style="fill:none;stroke:#000;stroke-miterlimit:10"></rect><rect x="160.34" y="281.75" width="13.56" height="12.72" style="fill:none;stroke:#000;stroke-miterlimit:10"></rect><rect x="100.66" y="301.91" width="13.56" height="12.72" style="fill:none;stroke:#000;stroke-miterlimit:10"></rect><rect x="120.56" y="301.91" width="13.56" height="12.72" style="fill:none;stroke:#000;stroke-miterlimit:10"></rect><rect x="140.45" y="301.91" width="13.56" height="12.72" style="fill:none;stroke:#000;stroke-miterlimit:10"></rect><rect x="160.34" y="301.91" width="13.56" height="12.72" style="fill:none;stroke:#000;stroke-miterlimit:10"></rect><rect x="100.66" y="322.06" width="13.56" height="12.72" style="fill:none;stroke:#000;stroke-miterlimit:10"></rect><rect x="120.56" y="322.06" width="13.56" height="12.72" style="fill:none;stroke:#000;stroke-miterlimit:10"></rect><rect x="140.45" y="322.06" width="13.56" height="12.72" style="fill:none;stroke:#000;stroke-miterlimit:10"></rect><rect x="160.34" y="322.06" width="13.56" height="12.72" style="fill:none;stroke:#000;stroke-miterlimit:10"></rect><rect x="100.66" y="342.22" width="13.56" height="12.72" style="fill:none;stroke:#000;stroke-miterlimit:10"></rect><rect x="120.56" y="342.22" width="13.56" height="12.72" style="fill:none;stroke:#000;stroke-miterlimit:10"></rect><rect x="140.45" y="342.22" width="13.56" height="12.72" style="fill:none;stroke:#000;stroke-miterlimit:10"></rect><rect x="160.34" y="342.22" width="13.56" height="12.72" style="fill:none;stroke:#000;stroke-miterlimit:10"></rect><rect x="100.66" y="362.38" width="13.56" height="12.72" style="fill:none;stroke:#000;stroke-miterlimit:10"></rect><rect x="120.56" y="362.38" width="13.56" height="12.72" style="fill:none;stroke:#000;stroke-miterlimit:10"></rect><rect x="140.45" y="362.38" width="13.56" height="12.72" style="fill:none;stroke:#000;stroke-miterlimit:10"></rect><rect x="160.34" y="362.38" width="13.56" height="12.72" style="fill:none;stroke:#000;stroke-miterlimit:10"></rect><rect x="100.66" y="382.54" width="13.56" height="12.72" style="fill:none;stroke:#000;stroke-miterlimit:10"></rect><rect x="120.56" y="382.54" width="13.56" height="12.72" style="fill:none;stroke:#000;stroke-miterlimit:10"></rect><rect x="140.45" y="382.54" width="13.56" height="12.72" style="fill:none;stroke:#000;stroke-miterlimit:10"></rect><rect x="160.34" y="382.54" width="13.56" height="12.72" style="fill:none;stroke:#000;stroke-miterlimit:10"></rect><rect x="545.03" y="201.91" width="13.56" height="12.72" style="fill:none;stroke:#000;stroke-miterlimit:10"></rect><rect x="564.92" y="201.91" width="13.56" height="12.72" style="fill:none;stroke:#000;stroke-miterlimit:10"></rect><rect x="584.81" y="201.91" width="13.56" height="12.72" style="fill:none;stroke:#000;stroke-miterlimit:10"></rect><rect x="604.7" y="201.91" width="13.56" height="12.72" style="fill:none;stroke:#000;stroke-miterlimit:10"></rect><rect x="545.03" y="222.07" width="13.56" height="12.72" style="fill:none;stroke:#000;stroke-miterlimit:10"></rect><rect x="564.92" y="222.07" width="13.56" height="12.72" style="fill:none;stroke:#000;stroke-miterlimit:10"></rect><rect x="584.81" y="222.07" width="13.56" height="12.72" style="fill:none;stroke:#000;stroke-miterlimit:10"></rect><rect x="604.7" y="222.07" width="13.56" height="12.72" style="fill:none;stroke:#000;stroke-miterlimit:10"></rect><rect x="545.03" y="242.23" width="13.56" height="12.72" style="fill:none;stroke:#000;stroke-miterlimit:10"></rect><rect x="564.92" y="242.23" width="13.56" height="12.72" style="fill:none;stroke:#000;stroke-miterlimit:10"></rect><rect x="584.81" y="242.23" width="13.56" height="12.72" style="fill:none;stroke:#000;stroke-miterlimit:10"></rect><rect x="604.7" y="242.23" width="13.56" height="12.72" style="fill:none;stroke:#000;stroke-miterlimit:10"></rect><rect x="545.03" y="262.39" width="13.56" height="12.72" style="fill:none;stroke:#000;stroke-miterlimit:10"></rect><rect x="564.92" y="262.39" width="13.56" height="12.72" style="fill:none;stroke:#000;stroke-miterlimit:10"></rect><rect x="584.81" y="262.39" width="13.56" height="12.72" style="fill:none;stroke:#000;stroke-miterlimit:10"></rect><rect x="604.7" y="262.39" width="13.56" height="12.72" style="fill:none;stroke:#000;stroke-miterlimit:10"></rect><rect x="545.03" y="282.55" width="13.56" height="12.72" style="fill:none;stroke:#000;stroke-miterlimit:10"></rect><rect x="564.92" y="282.55" width="13.56" height="12.72" style="fill:none;stroke:#000;stroke-miterlimit:10"></rect><rect x="584.81" y="282.55" width="13.56" height="12.72" style="fill:none;stroke:#000;stroke-miterlimit:10"></rect><rect x="604.7" y="282.55" width="13.56" height="12.72" style="fill:none;stroke:#000;stroke-miterlimit:10"></rect><rect x="545.03" y="302.71" width="13.56" height="12.72" style="fill:none;stroke:#000;stroke-miterlimit:10"></rect><rect x="564.92" y="302.71" width="13.56" height="12.72" style="fill:none;stroke:#000;stroke-miterlimit:10"></rect><rect x="584.81" y="302.71" width="13.56" height="12.72" style="fill:none;stroke:#000;stroke-miterlimit:10"></rect><rect x="604.7" y="302.71" width="13.56" height="12.72" style="fill:none;stroke:#000;stroke-miterlimit:10"></rect><rect x="545.03" y="322.87" width="13.56" height="12.72" style="fill:none;stroke:#000;stroke-miterlimit:10"></rect><rect x="564.92" y="322.87" width="13.56" height="12.72" style="fill:none;stroke:#000;stroke-miterlimit:10"></rect><rect x="584.81" y="322.87" width="13.56" height="12.72" style="fill:none;stroke:#000;stroke-miterlimit:10"></rect><rect x="604.7" y="322.87" width="13.56" height="12.72" style="fill:none;stroke:#000;stroke-miterlimit:10"></rect><rect x="545.03" y="343.03" width="13.56" height="12.72" style="fill:none;stroke:#000;stroke-miterlimit:10"></rect><rect x="564.92" y="343.03" width="13.56" height="12.72" style="fill:none;stroke:#000;stroke-miterlimit:10"></rect><rect x="584.81" y="343.03" width="13.56" height="12.72" style="fill:none;stroke:#000;stroke-miterlimit:10"></rect><rect x="604.7" y="343.03" width="13.56" height="12.72" style="fill:none;stroke:#000;stroke-miterlimit:10"></rect><line x1="393.31" y1="39.73" x2="393.31" y2="408.08" style="fill:none;stroke:#000;stroke-miterlimit:10"></line><line x1="406.77" y1="39.73" x2="406.77" y2="408.08" style="fill:none;stroke:#000;stroke-miterlimit:10"></line><line x1="420.22" y1="39.73" x2="420.22" y2="408.08" style="fill:none;stroke:#000;stroke-miterlimit:10"></line><line x1="433.67" y1="39.73" x2="433.67" y2="408.08" style="fill:none;stroke:#000;stroke-miterlimit:10"></line><line x1="447.12" y1="39.73" x2="447.12" y2="408.08" style="fill:none;stroke:#000;stroke-miterlimit:10"></line><line x1="460.58" y1="39.73" x2="460.58" y2="408.08" style="fill:none;stroke:#000;stroke-miterlimit:10"></line><line x1="474.03" y1="39.73" x2="474.03" y2="408.08" style="fill:none;stroke:#000;stroke-miterlimit:10"></line><line x1="487.48" y1="39.73" x2="487.48" y2="408.08" style="fill:none;stroke:#000;stroke-miterlimit:10"></line><rect x="109.77" y="401.67" width="241.19" height="11.91" style="fill:none;stroke:#000;stroke-miterlimit:10"></rect><rect x="498.99" y="401.67" width="216.58" height="11.91" style="fill:none;stroke:#000;stroke-miterlimit:10"></rect></g></g><g id="Trees"><path d="M79,289.77s53,5.25,79.87,38.11c0,0,28.38-38.07,79.36-37.29A103,103,0,1,0,79,289.86Z" style="fill:#92E3A9"></path><path d="M79,289.77s53,5.25,79.87,38.11c0,0,28.38-38.07,79.36-37.29A103,103,0,1,0,79,289.86Z" style="fill:#fff;opacity:0.5"></path><polygon points="157.16 129.08 155.37 459.44 164.31 459.44 157.16 129.08" style="fill:#a3a3a3"></polygon><path d="M159.84,317.86s17.89-32.21,50.1-42.05c0,0-34,8.05-51,35.79Z" style="fill:#a3a3a3"></path><path d="M159.84,226.6s17.89-32.21,50.1-42c0,0-34,8.06-51,35.79Z" style="fill:#a3a3a3"></path><path d="M159.84,272.23s17.89-32.21,50.1-42.05c0,0-34,8-51,35.79Z" style="fill:#a3a3a3"></path><path d="M157.19,249.87s-17.27-32.21-48.35-42.05c0,0,32.81,8.05,49.21,35.78Z" style="fill:#a3a3a3"></path><path d="M157.19,294.6s-17.27-32.21-48.35-42.05c0,0,32.81,8.05,49.21,35.79Z" style="fill:#a3a3a3"></path><path d="M583,306.2s44.71,4.42,67.38,32.14c0,0,23.94-32.11,66.95-31.45A86.92,86.92,0,1,0,583,306.27Z" style="fill:#92E3A9"></path><path d="M583,306.2s44.71,4.42,67.38,32.14c0,0,23.94-32.11,66.95-31.45A86.92,86.92,0,1,0,583,306.27Z" style="fill:#fff;opacity:0.5"></path><polygon points="648.88 170.64 647.37 459.44 654.91 459.44 648.88 170.64" style="fill:#a3a3a3"></polygon><path d="M651.14,329.9s15.1-27.18,42.27-35.48c0,0-28.68,6.79-43,30.19Z" style="fill:#a3a3a3"></path><path d="M651.14,252.91s15.1-27.17,42.27-35.47c0,0-28.68,6.79-43,30.19Z" style="fill:#a3a3a3"></path><path d="M651.14,291.4s15.1-27.17,42.27-35.47c0,0-28.68,6.79-43,30.19Z" style="fill:#a3a3a3"></path><path d="M648.9,272.53s-14.56-27.17-40.78-35.47c0,0,27.67,6.79,41.51,30.19Z" style="fill:#a3a3a3"></path><path d="M648.9,310.27s-14.56-27.17-40.78-35.47c0,0,27.67,6.79,41.51,30.19Z" style="fill:#a3a3a3"></path></g><g id="Car"><path d="M167.77,285.14s-61.56,2.24-64.71,6.29S97.67,309,99,312.1s17.07,20.66,17.07,20.66H145.3L153,320a25.84,25.84,0,0,1,22.09-12.43h0A25.86,25.86,0,0,1,198,321.36l9.35,17.69H356.48l9.2-18.57a25,25,0,0,1,12.1-10.21l2.1-.81c6.3-2.44,15.12-1.93,21.28.85h0c5.39,2.42,9.76,7.84,12.35,13.15l5,10.2h14.82l8.09-27.86s0-6.29-1.8-9.88-20.22-4.49-20.22-4.49l-26.51-2.25-69.64-1.35-27-24.26s3.6-2.7,2.25-6.74-17.08-2.7-17.08-2.7-71.89.9-76.83,1.8S173.16,278.85,167.77,285.14Z" style="fill:#92E3A9;stroke:#263238;stroke-miterlimit:10"></path><path d="M327.72,322.82H219.24a3.72,3.72,0,0,1-3.44-2.32l-5.34-13.2a2.43,2.43,0,0,1,2.25-3.35h222" style="fill:none;stroke:#263238;stroke-miterlimit:10"></path><polygon points="316.04 290.08 292.07 269.93 299.55 290.08 316.04 290.08" style="fill:#263238;stroke:#263238;stroke-miterlimit:10"></polygon><path d="M229.81,290.08h66.6l-8.91-24-1.72-1.45a10.48,10.48,0,0,0-6.59-2.45l-41.87-.57s-6.9.08-11.37.5Z" style="fill:#263238;stroke:#263238;stroke-miterlimit:10"></path><path d="M223,262.53a4.38,4.38,0,0,0-.46.14l-18,24.71h11.68l4.5,2.7h6.05Z" style="fill:#263238;stroke:#263238;stroke-miterlimit:10"></path><polygon points="296.27 263.57 293.03 266.16 319.03 288.65 323.23 287.83 296.27 263.57" style="fill:#263238;stroke:#263238;stroke-miterlimit:10"></polygon><circle cx="175.2" cy="333.48" r="23.18" style="fill:#263238;stroke:#263238;stroke-miterlimit:10"></circle><circle cx="175.2" cy="333.48" r="17.3" transform="translate(-71.93 49.17) rotate(-13.28)" style="fill:#fff;stroke:#263238;stroke-miterlimit:10"></circle><circle cx="175.2" cy="333.48" r="8.1" style="fill:#fff;stroke:#263238;stroke-miterlimit:10"></circle><circle cx="388.65" cy="333.48" r="23.18" style="fill:#263238;stroke:#263238;stroke-miterlimit:10"></circle><circle cx="388.65" cy="333.48" r="17.3" transform="translate(-65.81 97.43) rotate(-13.18)" style="fill:#fff;stroke:#263238;stroke-miterlimit:10"></circle><circle cx="388.65" cy="333.48" r="8.1" style="fill:#fff;stroke:#263238;stroke-miterlimit:10"></circle><path d="M442,317.66H423.25s-2.95.37-1.11,1.84,10.31,14,13.25,14.35,12.51-11,12.51-13.25S442,317.66,442,317.66Z" style="fill:#fff;stroke:#263238;stroke-miterlimit:10"></path><path d="M102.34,307H96.08a28.13,28.13,0,0,0,.37,7.36c.73,3.68,4.41,6.62,5.89,6.25S102.34,307,102.34,307Z" style="fill:#fff;stroke:#263238;stroke-miterlimit:10"></path><polygon points="207.31 339.06 356.48 339.06 359.31 334.56 204.93 334.56 207.31 339.06" style="fill:#fff;stroke:#263238;stroke-miterlimit:10"></polygon><line x1="324.69" y1="296.96" x2="324.69" y2="330.36" style="fill:none;stroke:#263238;stroke-miterlimit:10"></line><line x1="229.57" y1="294.94" x2="236.65" y2="327.32" style="fill:none;stroke:#263238;stroke-miterlimit:10"></line></g><g id="Towing"><line x1="466.92" y1="310.16" x2="428.78" y2="361.01" style="fill:none;stroke:#263238;stroke-linecap:round;stroke-miterlimit:10;stroke-width:3px"></line><rect x="458.18" y="225.46" width="21.74" height="15.84" style="fill:#fff;stroke:#263238;stroke-miterlimit:10"></rect><rect x="462.15" y="242.09" width="11.92" height="116.8" style="fill:#263238;stroke:#263238;stroke-miterlimit:10"></rect><polygon points="187.24 362.07 186.48 367.37 166.05 367.37 166.05 391.73 113.08 380.08 113.08 366.31 84.48 366.31 83.42 369.49 83.42 383.26 71.76 383.26 71.76 398.09 99.31 398.09 99.31 392.79 187.24 410.8 187.24 384.32 204.19 384.32 204.19 401.27 279.41 401.27 279.41 417.16 300.6 417.16 306.95 403.39 347.21 403.39 491.29 403.39 491.29 362.07 187.24 362.07" style="fill:#263238;stroke:#263238;stroke-miterlimit:10"></polygon><polygon points="584.04 250.83 617.89 319.16 596.43 319.16 569.42 248.45 582.93 247.65 584.04 250.83" style="fill:#263238;stroke:#263238;stroke-miterlimit:10"></polygon><path d="M677.56,337l-73.18-24.14-27-62H584a2.91,2.91,0,0,0,2.47-4.45l-4.79-7.68a2.89,2.89,0,0,0-2.47-1.38H486V432h95.35l2.95-25.75A43,43,0,0,1,607.2,373h0a43,43,0,0,1,41.47,1l4.46,2.6a43.05,43.05,0,0,1,18.6,22l4.16,11.09H689.4V353.32a17.25,17.25,0,0,0-5-12.19h0A17.16,17.16,0,0,0,677.56,337Z" style="fill:#fff;stroke:#263238;stroke-miterlimit:10"></path><ellipse cx="538.78" cy="347.38" rx="33.73" ry="22.6" style="fill:#92E3A9"></ellipse><rect x="496.32" y="250.83" width="56.41" height="62.31" rx="3.5" style="fill:#263238;stroke:#263238;stroke-miterlimit:10"></rect><path d="M559.88,251.52V317.3a3.73,3.73,0,0,0,4,3.45h24c2.68,0,4.59-2.27,3.77-4.5l-23.8-64.73Z" style="fill:#263238;stroke:#263238;stroke-miterlimit:10"></path><polygon points="689.4 391.47 668.74 391.47 676.68 414.51 691.78 414.51 689.4 391.47" style="fill:#fff;stroke:#263238;stroke-miterlimit:10"></polygon><circle cx="627.6" cy="418.35" r="41.45" transform="translate(-80.44 158.4) rotate(-13.53)" style="fill:#263238;stroke:#263238;stroke-miterlimit:10"></circle><circle cx="627.6" cy="418.35" r="20.13" transform="translate(-79.87 156.83) rotate(-13.4)" style="fill:#fff;stroke:#263238;stroke-miterlimit:10"></circle><circle cx="245.15" cy="418.35" r="41.45" transform="translate(-93.25 71.08) rotate(-13.89)" style="fill:#263238;stroke:#263238;stroke-miterlimit:10"></circle><circle cx="245.15" cy="418.35" r="20.13" transform="translate(-90.28 68.2) rotate(-13.4)" style="fill:#fff;stroke:#263238;stroke-miterlimit:10"></circle><rect x="489.17" y="387.49" width="78.66" height="37.34" style="fill:#263238;stroke:#263238;stroke-miterlimit:10"></rect><line x1="512.38" y1="389.26" x2="512.38" y2="421.45" style="fill:none;stroke:#787878;stroke-miterlimit:10"></line><line x1="543.74" y1="389.26" x2="543.74" y2="421.45" style="fill:none;stroke:#787878;stroke-miterlimit:10"></line><rect x="563.06" y="273.08" width="17.48" height="53.23" rx="2" style="fill:#fff;stroke:#263238;stroke-miterlimit:10"></rect><polygon points="60.11 369.49 487.05 369.49 487.05 355.71 44.22 355.71 60.11 369.49" style="fill:#fff;stroke:#263238;stroke-miterlimit:10"></polygon><path d="M598.53,360a65.44,65.44,0,0,0-6.9,6" style="fill:none;stroke:#263238;stroke-miterlimit:10"></path><path d="M688.91,373.78a64.16,64.16,0,0,0-83.57-18.22" style="fill:none;stroke:#263238;stroke-miterlimit:10"></path><rect x="400.97" y="381.14" width="69.92" height="36.55" style="fill:#fff;stroke:#263238;stroke-miterlimit:10"></rect><path d="M484.39,226.2h0a4.5,4.5,0,0,0-7.79-.74l-.4.56a2.78,2.78,0,0,0-.5,1.6V350.69h8.93V227.34A2.81,2.81,0,0,0,484.39,226.2Z" style="fill:#fff;stroke:#263238;stroke-miterlimit:10"></path><rect x="473.81" y="248.71" width="12.71" height="139.84" style="fill:#fff;stroke:#263238;stroke-miterlimit:10"></rect><path d="M483.24,231.28c0,3.22-1.49,5.83-3.32,5.83s-3.32-2.61-3.32-5.83,1.48-5.82,3.32-5.82S483.24,228.07,483.24,231.28Z" style="fill:#263238;stroke:#263238;stroke-miterlimit:10"></path><line x1="603.58" y1="319.69" x2="603.58" y2="352.53" style="fill:none;stroke:#263238;stroke-miterlimit:10"></line><rect x="495.53" y="341.94" width="14.83" height="29.66" rx="4.67" style="fill:#263238;stroke:#263238;stroke-miterlimit:10"></rect></g><g id="Floor"><line x1="573.46" y1="459.54" x2="717" y2="459.54" style="fill:none;stroke:#263238;stroke-miterlimit:10"></line><line x1="35" y1="459.54" x2="564.3" y2="459.54" style="fill:none;stroke:#263238;stroke-miterlimit:10"></line></g><g id="Character"><path d="M87.7,321.94s4.39,2.78,5.46,4.65,11.34,25.89,11.74,28.16-2.8,6.54-6.14,6.54-7.07-5.07-7.07-5.07l-6.54-33.9S85.44,321.42,87.7,321.94Z" style="fill:#fff;stroke:#263238;stroke-miterlimit:10"></path><path d="M99.56,349.41a18.11,18.11,0,0,1,4.14,4.14" style="fill:#fff;stroke:#263238;stroke-miterlimit:10"></path><path d="M103,351.15s-1.87-1.34-2.8-1.07" style="fill:#fff;stroke:#263238;stroke-miterlimit:10"></path><path d="M84,454.12s2.22,2.39,3.76,4.1,5.13,3.42,6.5,4.11a2.1,2.1,0,0,1,.85,3.25c-.85,1-13.17.85-14.88.51s-8.72-.51-9.57-.86-1.37-2.56-1-3.76,2.22-7.35,2.22-7.35Z" style="fill:#fff;stroke:#263238;stroke-miterlimit:10"></path><path d="M80.21,466.09c-1.71-.34-8.72-.51-9.57-.86s-1.18-1.83-1.13-3c3.21.79,11,2.53,15.66,2.53,3.86,0,8-.3,10.38-.5a2,2,0,0,1-.46,1.36C94.24,466.6,81.92,466.43,80.21,466.09Z" style="fill:#fff;stroke:#263238;stroke-miterlimit:10"></path><path d="M89.28,384.35s1.19,25.31-.35,35.74-4.1,28-4.1,28a20.65,20.65,0,0,1,.51,4.79c-.17,1.71-.85,1.88-.85,1.88s-5.82,1.2-9.24,2.05-4.61,0-4.61-1.19,1.88-11.63,1.54-13.17-1.54-28.39-1.54-30.61-2.4-25.48-2.4-25.48Z" style="fill:#263238;stroke:#263238;stroke-miterlimit:10"></path><path d="M89.44,414.84c-.12,1.93-.28,3.68-.49,5.15a28,28,0,0,1-3.78.64,42.94,42.94,0,0,1-14.26-1.28c-.08-2-.15-3.7-.2-5C80.1,416.84,86.06,416,89.44,414.84Z" style="fill:#92E3A9;stroke:#263238;stroke-miterlimit:10"></path><path d="M70.28,407.12c9.5,2.7,16,1.29,19.42-.08,0,1.75-.07,3.47-.13,5.11a29.49,29.49,0,0,1-5.75,1.14,39.25,39.25,0,0,1-13.18-1.1v-.31C70.64,411.34,70.49,409.53,70.28,407.12Z" style="fill:#92E3A9;stroke:#263238;stroke-miterlimit:10"></path><path d="M65.68,455.49S70,459.76,71.32,461s5.3,3.08,4.62,5.13-2.4,1.88-3.42,2.05-7,.51-8.89,0-6.16-.68-7.36-1-2.56-1.71-2.39-2.73,1.37-7.87,1.37-7.87Z" style="fill:#fff;stroke:#263238;stroke-miterlimit:10"></path><path d="M76,465.58a1.79,1.79,0,0,1-.07.51c-.69,2.05-2.4,1.88-3.42,2.05s-7,.51-8.89,0-6.16-.68-7.36-1-2.56-1.71-2.39-2.73c0-.14.07-.4.12-.73a42.21,42.21,0,0,0,11.16,2.78A51.55,51.55,0,0,0,76,465.58Z" style="fill:#fff;stroke:#263238;stroke-miterlimit:10"></path><path d="M77.65,393.75l-3.76,5.31s-2.23,33.51-3.08,39.5-2.57,15.22-2.57,15.22.34,2.05.34,2.73a6.46,6.46,0,0,1-.17,1.37s-6.15.34-8.89.68a7.85,7.85,0,0,1-5-1.19s.17-5.82.17-6.33-.51-29.24-.51-34.37.34-17.61,0-19.33-1.54-11.45-1.54-11.45l25,1" style="fill:#263238;stroke:#263238;stroke-miterlimit:10"></path><path d="M64.31,318.17l19.49,3.76s3.94,26.51,5.65,36.26,1.71,27.53,1.71,27.53-1.71,2.39-10.78,3.76a86.07,86.07,0,0,1-23.08.17,20.3,20.3,0,0,1-5.64-1.71s.34-38.82.34-42.07,2.39-21.2,4.27-22.74a79.07,79.07,0,0,1,7.36-4.62Z" style="fill:#fff;stroke:#263238;stroke-miterlimit:10"></path><path d="M75.56,318.81S80,339,81.63,355.22s2,29,2,29,5.41-.29,8.17-1.76a35.84,35.84,0,0,0,4.54-3.2s-6.27-48.55-7-51.12-1.65-6.25-1.65-6.25A19.42,19.42,0,0,0,75.56,318.81Z" style="fill:#92E3A9;stroke:#263238;stroke-miterlimit:10"></path><path d="M91.17,340.19c.25,1.86.53,3.85.81,5.91-3,.83-6.73,1.75-11.14,2.55-.26-2-.55-3.94-.85-5.88C84.51,342,88.29,341,91.17,340.19Z" style="fill:#fff;stroke:#263238;stroke-miterlimit:10"></path><path d="M83.24,375.42c-.1-1.78-.23-3.78-.38-5.95a56.21,56.21,0,0,0,11.8-3.18c.29,2.21.56,4.26.79,6A63.33,63.33,0,0,1,83.24,375.42Z" style="fill:#fff;stroke:#263238;stroke-miterlimit:10"></path><path d="M85.86,310.35s-3.86,10.3-5.15,11.59-5.52-.19-5.52-.19-.73,11.22-2.39,9.57S65.26,319,65.26,319l-.18-2.57,1.47-3.86s-1.29-6.07-.73-7.36a6.88,6.88,0,0,1,2.57-2.39s11.22,1.66,13.79,1.47a24.46,24.46,0,0,0,3.31-.36Z" style="fill:#fff;stroke:#263238;stroke-miterlimit:10"></path><path d="M66.16,313.58l.39-1s-1.29-6.07-.73-7.36a4.59,4.59,0,0,1,1.39-1.6,36.26,36.26,0,0,1,4.12,1l.55,2.94s-.92,3.31-1.47,2,.37-2.58-.73-3.5-3.13-1.1-3.5,1.29,2.21,5.15,2.21,5.15A5.3,5.3,0,0,1,66.16,313.58Z" style="fill:#263238;stroke:#263238;stroke-miterlimit:10"></path><path d="M86.6,306.49l4.78,4.05a64.15,64.15,0,0,1-10.3.92c-5.33,0-9.2-3.31-10.48-4.42S83.1,308.33,86.6,306.49Z" style="fill:#fff;stroke:#263238;stroke-miterlimit:10"></path><path d="M86.6,306.49s1.1-6.07,1.1-7.17-3.13-6.07-10.85-6.07-10.11,4.05-10.11,4.05l-.92,7.9S69.13,307,70.6,307,82.18,307.78,86.6,306.49Z" style="fill:#fff;stroke:#263238;stroke-miterlimit:10"></path><polyline points="81.81 312.01 80.89 317.34 78.32 317.52" style="fill:#fff;stroke:#263238;stroke-miterlimit:10"></polyline><path d="M65.08,316.42s5.33,12.14,5.7,24.09,3.13,45.79,3.13,45.79a39.84,39.84,0,0,1-14.66,1.29c-7.53-.92-11.64-4.54-11.64-4.54S48.9,371,49.82,360,48,328.19,48.53,326.72,60.3,317.34,65.08,316.42Z" style="fill:#92E3A9;stroke:#263238;stroke-miterlimit:10"></path><path d="M72.67,370.45c.16,2.09.31,4.08.45,5.91-1.13,0-2.29.06-3.49.06a123.17,123.17,0,0,1-21.14-1.94c.17-1.8.37-3.79.56-5.87A114.2,114.2,0,0,0,72.67,370.45Z" style="fill:#fff;stroke:#263238;stroke-miterlimit:10"></path><path d="M70.93,344.08c.08,1.77.2,3.78.33,5.93a132.15,132.15,0,0,1-13.54.71q-3.78,0-7.79-.25c-.06-2-.17-3.94-.29-5.91A124.63,124.63,0,0,0,70.93,344.08Z" style="fill:#fff;stroke:#263238;stroke-miterlimit:10"></path><path d="M93.69,345s3.07-.14,3.34.66a4.23,4.23,0,0,0,1.47,1.61s1.2,1.6,1.06,2.13-3.07,3.34-4,3.47-6.27-2-6.41-2.8,1.2-3.6,1.6-4A13,13,0,0,1,93.69,345Z" style="fill:#fff;stroke:#263238;stroke-miterlimit:10"></path><path d="M94.15,342.38a.47.47,0,0,1,.33.72l-2.39,3.64h-.53l2.11-4.11a.46.46,0,0,1,.48-.25Z" style="fill:#fff;stroke:#263238;stroke-miterlimit:10"></path><polygon points="77.52 355.86 82.75 346.74 100.9 347.14 88.62 361.96 74.07 361.82 77.52 355.86" style="fill:#263238;stroke:#263238;stroke-miterlimit:10"></polygon><path d="M69.18,359.9a36.43,36.43,0,0,0,3.18-3.44c.86-1.2,4.64-2.75,4.82-3a8,8,0,0,1,2.06-.6l-1.72,3s1.81.86,2.67,1.2,4.29.69,5.15,1a1.25,1.25,0,0,1,.69,1.72c-.26.43-2.15.34-2.58.51s-1.72,1.46-2.75,2-2.58,1.8-4.13,1.72a48.31,48.31,0,0,0-5.33.34l-2.32.35Z" style="fill:#fff;stroke:#263238;stroke-miterlimit:10"></path><path d="M66.09,359.3l3.18-.26a5.42,5.42,0,0,1,.68,3.61,9.32,9.32,0,0,1-.86,2.5l-3,.25Z" style="fill:#fff;stroke:#263238;stroke-miterlimit:10"></path><path d="M50.37,326.17s7.54,2.39,8.83,7.35.36,13.61-.74,15.63-1.84,3.68-1.84,3.68l-.73,3.86s10.48,1.1,10.85,1.84,1.83,6.25-.74,7.54-18.39.55-21.51-.18-2.76-1.84-2.39-4.42,3.49-29.6,5-32.18A6.51,6.51,0,0,1,50.37,326.17Z" style="fill:#fff;stroke:#263238;stroke-miterlimit:10"></path><line x1="56.62" y1="352.83" x2="58.09" y2="339.77" style="fill:#fff;stroke:#263238;stroke-miterlimit:10"></line><line x1="55.89" y1="356.69" x2="48.9" y2="356.14" style="fill:#fff;stroke:#263238;stroke-miterlimit:10"></line><path d="M54.22,416.33c10.12,3.26,16,1.75,18.42.66-.13,1.74-.26,3.5-.39,5.23a24.33,24.33,0,0,1-6.8.9,40.22,40.22,0,0,1-11.19-1.75c0-2.12,0-3.79,0-4.7Z" style="fill:#92E3A9;stroke:#263238;stroke-miterlimit:10"></path><path d="M73.18,409.38c-.12,1.64-.24,3.4-.37,5.21a28.47,28.47,0,0,1-8,1.09,37.53,37.53,0,0,1-10.59-1.6c0-1.51,0-3.24.07-5C64.19,412.32,70.68,410.44,73.18,409.38Z" style="fill:#92E3A9;stroke:#263238;stroke-miterlimit:10"></path></g></svg>