<svg xmlns="http://www.w3.org/2000/svg" viewBox="0 0 750 500"><g id="background-complete"><path d="M688.54,290.91H562.71V135.2H688.54Zm-122.1-3.73H684.8V138.93H566.44Z" style="fill:#ebebeb"></path><rect x="623.76" y="139.91" width="3.73" height="149.13" style="fill:#ebebeb"></rect><rect x="559.33" y="142.75" width="132.6" height="5.2" style="fill:#ebebeb"></rect><rect x="559.33" y="148.6" width="132.6" height="5.2" style="fill:#ebebeb"></rect><rect x="559.33" y="154.45" width="132.6" height="5.2" style="fill:#ebebeb"></rect><rect x="559.33" y="160.29" width="132.6" height="5.2" style="fill:#ebebeb"></rect><rect x="559.33" y="166.14" width="132.6" height="5.2" style="fill:#ebebeb"></rect><rect x="559.33" y="171.99" width="132.6" height="5.2" style="fill:#ebebeb"></rect><rect x="559.33" y="177.84" width="132.6" height="5.2" style="fill:#ebebeb"></rect><rect x="559.33" y="183.69" width="132.6" height="5.2" style="fill:#ebebeb"></rect><rect x="559.33" y="189.54" width="132.6" height="5.2" style="fill:#ebebeb"></rect><rect x="679.9" y="141.69" width="0.93" height="81.16" style="fill:#263238"></rect><polygon points="682.02 227.2 678.71 227.2 679.54 222.44 681.2 222.44 682.02 227.2" style="fill:#263238"></polygon><rect x="683.26" y="141.69" width="0.93" height="106.69" style="fill:#263238"></rect><polygon points="685.39 251.88 682.07 251.88 682.9 247.12 684.56 247.12 685.39 251.88" style="fill:#263238"></polygon><rect x="553.53" y="134.47" width="144.18" height="10.88" style="fill:#dbdbdb"></rect><circle cx="100.16" cy="80.4" r="35.78" transform="translate(5.11 166.78) rotate(-81.02)" style="fill:#ebebeb"></circle><circle cx="101.79" cy="81.2" r="34.14" style="fill:#dbdbdb"></circle><circle cx="101.79" cy="81.2" r="31.99" style="fill:#fff"></circle><path d="M133.06,74.41c-14.57,8.83-38.51,23.3-51.89,31.24A32,32,0,0,1,72.43,93.9l44.25-41A32.05,32.05,0,0,1,133.06,74.41Z" style="fill:#ebebeb;opacity:0.5"></path><path d="M133.76,82.32a31.48,31.48,0,0,1-2.12,10.39L91.75,111.58a31.77,31.77,0,0,1-5-2.17C98.76,102.45,120.78,89.78,133.76,82.32Z" style="fill:#ebebeb;opacity:0.5"></path><rect x="101.48" y="51.53" width="0.62" height="4.85" style="fill:#c7c7c7"></rect><rect x="87.86" y="55.18" width="0.62" height="4.85" transform="translate(-16.99 51.8) rotate(-30)" style="fill:#c7c7c7"></rect><rect x="77.89" y="65.15" width="0.62" height="4.85" transform="matrix(0.5, -0.87, 0.87, 0.5, -19.43, 101.51)" style="fill:#c7c7c7"></rect><rect x="72.13" y="80.89" width="4.85" height="0.62" style="fill:#c7c7c7"></rect><rect x="75.78" y="94.51" width="4.85" height="0.62" transform="translate(-36.94 51.83) rotate(-30.01)" style="fill:#c7c7c7"></rect><rect x="85.75" y="104.48" width="4.85" height="0.62" transform="matrix(0.5, -0.87, 0.87, 0.5, -46.65, 128.82)" style="fill:#c7c7c7"></rect><rect x="101.48" y="106.02" width="0.62" height="4.85" style="fill:#c7c7c7"></rect><rect x="115.11" y="102.37" width="0.62" height="4.85" transform="translate(-36.93 71.75) rotate(-30)" style="fill:#c7c7c7"></rect><rect x="125.08" y="92.4" width="0.62" height="4.85" transform="translate(-19.43 155.99) rotate(-60)" style="fill:#c7c7c7"></rect><rect x="126.61" y="80.89" width="4.85" height="0.62" style="fill:#c7c7c7"></rect><rect x="122.96" y="67.27" width="4.85" height="0.62" transform="translate(-16.99 71.75) rotate(-30)" style="fill:#c7c7c7"></rect><rect x="112.99" y="57.3" width="4.85" height="0.62" transform="translate(7.85 128.8) rotate(-60.03)" style="fill:#c7c7c7"></rect><polygon points="102.26 53.73 103.31 83.36 100.28 83.32 101.44 53.72 102.26 53.73" style="fill:#c7c7c7"></polygon><polygon points="120.71 70.87 100.78 83.59 99.33 80.92 120.32 70.14 120.71 70.87" style="fill:#a6a6a6"></polygon><path d="M102.83,81.2a1,1,0,1,1-1-1A1,1,0,0,1,102.83,81.2Z" style="fill:#c7c7c7"></path><rect x="346.71" y="94.74" width="120.12" height="7.13" transform="translate(813.54 196.61) rotate(180)" style="fill:#ebebeb"></rect><rect x="450.58" y="101.87" width="7.14" height="23.59" style="fill:#ebebeb"></rect><rect x="450.58" y="101.87" width="7.14" height="7.29" style="fill:#dbdbdb"></rect><rect x="355.83" y="101.87" width="7.14" height="23.59" style="fill:#ebebeb"></rect><rect x="355.83" y="101.87" width="7.14" height="7.29" style="fill:#dbdbdb"></rect><rect x="408.02" y="66.29" width="45.46" height="11.45" transform="translate(502.76 -358.74) rotate(90)" style="fill:#c7c7c7"></rect><rect x="428.25" y="43.63" width="4.99" height="11.45" transform="translate(480.1 -381.4) rotate(90)" style="fill:#dbdbdb"></rect><rect x="429.82" y="53.45" width="1.85" height="11.45" transform="translate(489.92 -371.57) rotate(90)" style="fill:#dbdbdb"></rect><rect x="427.54" y="79.84" width="5" height="12.87" transform="translate(516.32 -343.75) rotate(90)" style="fill:#dbdbdb"></rect><rect x="394.51" y="64.23" width="53.03" height="8" transform="translate(489.25 -352.8) rotate(90)" style="fill:#dbdbdb"></rect><rect x="410.86" y="54.5" width="20.39" height="4.8" transform="translate(477.96 -364.16) rotate(90)" style="fill:#ebebeb"></rect><rect x="355.26" y="69.27" width="53.03" height="8" transform="translate(704.81 -143) rotate(135.33)" style="fill:#c7c7c7"></rect><rect x="368.81" y="73.57" width="20.39" height="4.8" transform="translate(701.96 -136.43) rotate(135.33)" style="fill:#dbdbdb"></rect><rect x="390.1" y="67.82" width="40.28" height="13.59" transform="translate(484.85 -335.63) rotate(90)" style="fill:#a6a6a6"></rect><rect x="408.36" y="81.81" width="3.75" height="13.59" transform="translate(498.84 -321.63) rotate(90)" style="fill:#c7c7c7"></rect><rect x="409.51" y="76.74" width="1.46" height="13.59" transform="translate(493.77 -326.7) rotate(90)" style="fill:#c7c7c7"></rect><rect x="422.24" y="71.13" width="37.85" height="9.38" transform="translate(516.99 -365.34) rotate(90)" style="fill:#a6a6a6"></rect><rect x="439.4" y="84.28" width="3.53" height="9.38" transform="translate(530.14 -352.19) rotate(90)" style="fill:#c7c7c7"></rect><rect x="439.4" y="61.77" width="3.53" height="9.38" transform="translate(507.63 -374.7) rotate(90)" style="fill:#c7c7c7"></rect><rect x="440.48" y="66.64" width="1.37" height="9.38" transform="translate(512.49 -369.84) rotate(90)" style="fill:#c7c7c7"></rect><path d="M692.37,323.22l-13.12.28-6.66.11c-2.23.05-4.47,0-6.7.06h-.44v-.45L665.39,312v-.5h.5l13.24.06c4.42,0,8.83.11,13.24.16h.28V312c0,1.9-.08,3.79-.13,5.66Zm0,0-.14-5.65c-.05-1.86-.11-3.7-.13-5.54l.27.28c-4.41.05-8.82.16-13.24.16l-13.24.06.5-.5,0,11.19-.45-.44c2.18,0,4.36,0,6.55.05L679,323Z" style="fill:#ebebeb"></path><path d="M677.6,337.33l-13.12.28-6.67.11c-2.22,0-4.46,0-6.69.06h-.44v-.45l0-11.19v-.5h.5l13.24.07c4.41,0,8.83.11,13.24.16h.28v.27c0,1.9-.08,3.79-.13,5.66Zm0,0-.14-5.65c-.05-1.86-.11-3.7-.13-5.54l.27.28c-4.41.05-8.83.16-13.24.16l-13.24.06.5-.5,0,11.19-.45-.44c2.18,0,4.36,0,6.55.05l6.57.12Z" style="fill:#ebebeb"></path><path d="M707.14,337.33l-13.12.28-6.66.11c-2.23,0-4.47,0-6.7.06h-.44v-.45l-.06-11.19v-.5h.5l13.24.07c4.42,0,8.83.11,13.24.16h.28v.27c0,1.9-.09,3.79-.13,5.66Zm0,0-.14-5.65c0-1.86-.11-3.7-.13-5.54l.27.28c-4.41.05-8.82.16-13.24.16l-13.24.06.5-.5,0,11.19-.45-.44c2.19,0,4.36,0,6.55.05l6.58.12Z" style="fill:#ebebeb"></path><path d="M314.79,180.07l-13.12.28-6.66.11c-2.23,0-4.47,0-6.7,0h-.44v-.45l-.06-11.19v-.5h.5l13.24.06c4.42,0,8.83.11,13.24.16h.28v.27c0,1.9-.09,3.78-.14,5.65Zm0,0-.14-5.66c0-1.86-.11-3.7-.13-5.53l.27.27c-4.41,0-8.82.16-13.24.16l-13.24.07.5-.5-.05,11.19-.45-.45c2.18,0,4.36,0,6.55.06l6.58.11Z" style="fill:#ebebeb"></path><path d="M300,194.18l-13.12.28-6.67.11c-2.22,0-4.46,0-6.69.05h-.44v-.45L273,183v-.5h.5l13.24.06c4.41,0,8.83.11,13.24.16h.28V183c0,1.9-.08,3.78-.13,5.65Zm0,0-.14-5.66c-.05-1.86-.11-3.7-.13-5.53l.27.27c-4.41.05-8.83.16-13.24.16l-13.24.07.5-.5L274,194.18l-.45-.45c2.18,0,4.36,0,6.55.06l6.57.11Z" style="fill:#ebebeb"></path><path d="M329.56,194.18l-13.12.28-6.66.11c-2.23,0-4.46,0-6.7.05h-.44v-.45L302.58,183v-.5h.5l13.24.06c4.42,0,8.83.11,13.24.16h.28V183c0,1.9-.09,3.78-.13,5.65Zm0,0-.14-5.66c0-1.86-.11-3.7-.13-5.53l.27.27c-4.41.05-8.82.16-13.24.16l-13.24.07.5-.5-.05,11.19-.45-.45c2.19,0,4.36,0,6.55.06l6.58.11Z" style="fill:#ebebeb"></path><path d="M98.88,228l-13.12.28-6.67.11c-2.22,0-4.46,0-6.69,0H72V228l0-11.19v-.5h.5l13.24.06c4.41,0,8.83.12,13.24.17h.28v.27c0,1.9-.08,3.79-.13,5.65Zm0,0-.14-5.65c0-1.87-.11-3.71-.13-5.54l.27.27c-4.41,0-8.83.16-13.24.17l-13.24.06.5-.5L72.85,228l-.45-.45c2.18,0,4.36,0,6.55.06l6.57.11Z" style="fill:#ebebeb"></path><path d="M537.86,180.06l-13.12.28-6.66.11c-2.23.05-4.47,0-6.7.05h-.44v-.45l-.06-11.19v-.5h.5l13.24.06c4.42,0,8.83.12,13.24.17h.28v.27c0,1.9-.08,3.79-.13,5.65Zm0,0-.14-5.65c-.05-1.87-.11-3.71-.13-5.54l.27.27c-4.41.05-8.82.16-13.24.17l-13.24.06.5-.5-.05,11.19-.45-.45c2.18,0,4.36,0,6.55.06l6.58.11Z" style="fill:#ebebeb"></path><path d="M690.84,71.38l-13.12.28-6.67.11c-2.22,0-4.46,0-6.69.06h-.44v-.45l0-11.19v-.5h.5l13.24.06c4.41,0,8.83.12,13.24.17h.28v.27c0,1.9-.08,3.79-.13,5.65Zm0,0-.14-5.65c-.05-1.87-.11-3.71-.13-5.54l.27.27c-4.41,0-8.83.16-13.24.17l-13.24.06.5-.5-.05,11.19-.45-.45c2.18,0,4.36,0,6.55.06l6.57.11Z" style="fill:#ebebeb"></path><path d="M705.61,85.49l-13.12.28-6.66.11c-2.23.05-4.47,0-6.7.06h-.44v-.45l-.06-11.19v-.5h.5l13.24.06c4.42,0,8.83.12,13.24.17h.28v.27c0,1.9-.09,3.79-.14,5.65Zm0,0-.14-5.65c0-1.87-.11-3.71-.13-5.54l.27.27c-4.41.05-8.82.16-13.24.17l-13.24.06.5-.5,0,11.19-.45-.45c2.18,0,4.36,0,6.55.06l6.58.11Z" style="fill:#ebebeb"></path><path d="M69.34,71.39l-13.13.28-6.66.11c-2.22,0-4.46,0-6.69.06h-.45v-.45l0-11.19v-.5h.51l13.24.07c4.41,0,8.82.11,13.24.16h.27v.27c0,1.9-.09,3.79-.13,5.66Zm0,0-.15-5.65c0-1.86-.11-3.71-.13-5.54l.28.27c-4.42.06-8.83.16-13.24.17l-13.24.06.5-.5L43.3,71.39,42.86,71c2.18,0,4.35,0,6.54,0l6.58.11Z" style="fill:#ebebeb"></path><rect x="195.77" y="44.62" width="99.69" height="111.22" style="fill:#dbdbdb"></rect><rect x="202.34" y="51.19" width="86.55" height="98.14" style="fill:#ebebeb"></rect><rect x="210.16" y="68.54" width="30.51" height="36.15" style="fill:#fff"></rect><path d="M226.52,71a1.1,1.1,0,1,1-2.2,0,1.1,1.1,0,0,1,2.2,0Z" style="fill:#455a64"></path><path d="M216,75.78c3.09-.24,6.17-.25,9.25-.29s6.17.05,9.26.29c-3.09.24-6.17.25-9.26.29S219.06,76,216,75.78Z" style="fill:#ebebeb"></path><path d="M216,78.64a43.77,43.77,0,0,1,10.06,0,45.32,45.32,0,0,1-10.06,0Z" style="fill:#ebebeb"></path><path d="M216,81.49c2.14-.22,4.29-.27,6.43-.28s4.28.06,6.43.28a71.43,71.43,0,0,1-12.86,0Z" style="fill:#ebebeb"></path><path d="M216,84.35c2.68-.22,5.36-.27,8-.29s5.37.07,8.05.29c-2.68.23-5.37.28-8.05.29S218.65,84.58,216,84.35Z" style="fill:#ebebeb"></path><path d="M216,87.21c2.33-.23,4.66-.28,7-.29s4.66.06,7,.29c-2.32.22-4.65.28-7,.29S218.3,87.43,216,87.21Z" style="fill:#ebebeb"></path><path d="M216,90.07c3-.24,6-.26,8.94-.29s6,0,9,.29c-3,.23-6,.25-9,.28S219,90.3,216,90.07Z" style="fill:#ebebeb"></path><path d="M216,92.92a59.69,59.69,0,0,1,11.55,0,57.65,57.65,0,0,1-11.55,0Z" style="fill:#ebebeb"></path><path d="M216,95.78c3.09-.24,6.17-.25,9.25-.29s6.17.05,9.26.29c-3.09.24-6.17.25-9.26.29S219.06,96,216,95.78Z" style="fill:#ebebeb"></path><path d="M216,98.64c3.09-.24,6.17-.26,9.25-.29s6.17.05,9.26.29c-3.09.24-6.17.25-9.26.28S219.06,98.87,216,98.64Z" style="fill:#ebebeb"></path><rect x="245.32" y="91.08" width="36.1" height="42.78" style="fill:#fff"></rect><path d="M264.46,96.85a1.1,1.1,0,1,1-1.09-1.1A1.09,1.09,0,0,1,264.46,96.85Z" style="fill:#455a64"></path><path d="M250.37,101.75a27.8,27.8,0,0,1,8,0,27.8,27.8,0,0,1-8,0Z" style="fill:#ebebeb"></path><path d="M250.37,105a46.5,46.5,0,0,1,10.37,0,48.15,48.15,0,0,1-10.37,0Z" style="fill:#ebebeb"></path><path d="M250.37,108.2a41.28,41.28,0,0,1,9.6,0,39.87,39.87,0,0,1-9.6,0Z" style="fill:#ebebeb"></path><path d="M250.37,111.43a39.87,39.87,0,0,1,9.6,0,41.28,41.28,0,0,1-9.6,0Z" style="fill:#ebebeb"></path><path d="M250.37,114.65a31.19,31.19,0,0,1,8.34,0,30.13,30.13,0,0,1-8.34,0Z" style="fill:#ebebeb"></path><path d="M250.37,117.88a49.31,49.31,0,0,1,10.68,0,45.5,45.5,0,0,1-5.34.29A47.77,47.77,0,0,1,250.37,117.88Z" style="fill:#ebebeb"></path><path d="M250.37,121.1a34.79,34.79,0,0,1,8.81,0,33.6,33.6,0,0,1-8.81,0Z" style="fill:#ebebeb"></path><path d="M250.37,124.33a48.61,48.61,0,0,1,5.52-.29,46.46,46.46,0,0,1,5.53.29,48.66,48.66,0,0,1-5.53.29A51,51,0,0,1,250.37,124.33Z" style="fill:#ebebeb"></path><path d="M250.37,127.55a54.65,54.65,0,0,1,11.05,0,52.78,52.78,0,0,1-11.05,0Z" style="fill:#ebebeb"></path><path d="M266.14,101.75a47.58,47.58,0,0,1,10.49,0,47.58,47.58,0,0,1-10.49,0Z" style="fill:#ebebeb"></path><path d="M266.14,105a20.67,20.67,0,0,1,6.9,0,21.39,21.39,0,0,1-6.9,0Z" style="fill:#ebebeb"></path><path d="M266.14,108.2a43.63,43.63,0,0,1,9.87,0,42.14,42.14,0,0,1-9.87,0Z" style="fill:#ebebeb"></path><path d="M266.14,111.43a40,40,0,0,1,9.61,0,41.37,41.37,0,0,1-9.61,0Z" style="fill:#ebebeb"></path><path d="M266.14,114.65a49.27,49.27,0,0,1,10.49,0,47.58,47.58,0,0,1-10.49,0Z" style="fill:#ebebeb"></path><path d="M266.14,117.88a30.2,30.2,0,0,1,8.35,0,27.84,27.84,0,0,1-4.17.29A29.37,29.37,0,0,1,266.14,117.88Z" style="fill:#ebebeb"></path><path d="M266.14,121.1a43.63,43.63,0,0,1,9.87,0,42.14,42.14,0,0,1-9.87,0Z" style="fill:#ebebeb"></path><path d="M266.14,124.33A23.49,23.49,0,0,1,270,124a22.34,22.34,0,0,1,3.82.29,23.4,23.4,0,0,1-3.82.29A24.66,24.66,0,0,1,266.14,124.33Z" style="fill:#ebebeb"></path><path d="M266.14,127.55a24.13,24.13,0,0,1,7.33,0,23.3,23.3,0,0,1-7.33,0Z" style="fill:#ebebeb"></path><rect x="237.87" y="58.6" width="18.36" height="18.36" style="fill:#FFC727"></rect><path d="M248.14,60.46a1.1,1.1,0,1,1-1.1-1.09A1.1,1.1,0,0,1,248.14,60.46Z" style="fill:#455a64"></path><rect x="286.34" y="51.19" width="2.48" height="98.25" style="fill:#c7c7c7"></rect></g><g id="Floor"><polygon points="184.94 386.45 248.26 386.2 311.59 386.12 438.25 385.95 564.9 386.11 628.23 386.2 691.56 386.45 628.23 386.69 564.9 386.78 438.25 386.94 311.59 386.78 248.26 386.69 184.94 386.45" style="fill:#263238"></polygon></g><g id="Desk"><polygon points="27.3 249.51 64.9 249.27 102.49 249.18 177.69 249.01 252.88 249.18 290.48 249.27 328.07 249.51 290.48 249.76 252.88 249.84 177.69 250.01 102.49 249.84 64.9 249.76 27.3 249.51" style="fill:#263238"></polygon></g><g id="Shadow"><ellipse cx="418.27" cy="425.23" rx="269.69" ry="29.77" style="fill:#ebebeb"></ellipse></g><g id="Lamp"><rect x="495.58" y="391.97" width="41.6" height="4.73" style="fill:#37474f"></rect><rect x="513.92" y="206.05" width="4.93" height="185.91" style="fill:#37474f"></rect><rect x="513.92" y="206.05" width="4.93" height="24.98" style="fill:#263238"></rect><polygon points="542.48 220.52 490.29 220.52 494.08 208.05 494.21 207.61 505.25 171.34 527.51 171.34 538.56 207.62 538.56 207.63 538.68 208.04 542.48 220.52" style="fill:#FFC727"></polygon><path d="M507.1,179.72a.35.35,0,0,1-.35.35.34.34,0,0,1-.35-.35.35.35,0,0,1,.35-.35A.35.35,0,0,1,507.1,179.72Zm6.07-.35a.35.35,0,0,0-.35.35.35.35,0,0,0,.35.35.34.34,0,0,0,.35-.35A.35.35,0,0,0,513.17,179.37Zm6.43,0a.35.35,0,0,0-.35.35.35.35,0,0,0,.7,0A.35.35,0,0,0,519.6,179.37Zm6.43,0a.35.35,0,0,0-.35.35.34.34,0,0,0,.35.35.35.35,0,0,0,.35-.35A.35.35,0,0,0,526,179.37ZM510,174.87a.35.35,0,0,0-.35.35.35.35,0,1,0,.7,0A.35.35,0,0,0,510,174.87Zm6.43,0a.35.35,0,0,0-.35.35.34.34,0,0,0,.35.35.35.35,0,0,0,.35-.35A.35.35,0,0,0,516.39,174.87Zm6.42,0a.35.35,0,0,0-.35.35.35.35,0,0,0,.35.35.34.34,0,0,0,.35-.35A.35.35,0,0,0,522.81,174.87Zm-22.49,13.85a.35.35,0,0,0-.35.35.35.35,0,1,0,.7,0A.35.35,0,0,0,500.32,188.72Zm6.43,0a.34.34,0,0,0-.35.35.35.35,0,0,0,.35.35.35.35,0,0,0,.35-.35A.35.35,0,0,0,506.75,188.72Zm6.42,0a.35.35,0,0,0-.35.35.35.35,0,0,0,.35.35.35.35,0,0,0,.35-.35A.34.34,0,0,0,513.17,188.72Zm6.43,0a.35.35,0,0,0-.35.35.35.35,0,0,0,.7,0A.35.35,0,0,0,519.6,188.72Zm6.43,0a.34.34,0,0,0-.35.35.35.35,0,0,0,.35.35.35.35,0,0,0,.35-.35A.35.35,0,0,0,526,188.72Zm6.42,0a.35.35,0,0,0-.35.35.35.35,0,0,0,.35.35.35.35,0,0,0,.35-.35A.34.34,0,0,0,532.45,188.72Zm-28.92-4.5a.35.35,0,0,0-.35.35.35.35,0,0,0,.35.35.35.35,0,0,0,.35-.35A.34.34,0,0,0,503.53,184.22Zm6.43,0a.35.35,0,0,0-.35.35.35.35,0,1,0,.7,0A.35.35,0,0,0,510,184.22Zm6.43,0a.34.34,0,0,0-.35.35.35.35,0,0,0,.35.35.35.35,0,0,0,.35-.35A.35.35,0,0,0,516.39,184.22Zm6.42,0a.35.35,0,0,0-.35.35.35.35,0,0,0,.35.35.35.35,0,0,0,.35-.35A.34.34,0,0,0,522.81,184.22Zm6.43,0a.35.35,0,0,0-.35.35.35.35,0,0,0,.7,0A.35.35,0,0,0,529.24,184.22Zm-28.92,13.84a.35.35,0,0,0-.35.35.35.35,0,1,0,.7,0A.35.35,0,0,0,500.32,198.06Zm6.43,0a.35.35,0,0,0-.35.35.34.34,0,0,0,.35.35.35.35,0,0,0,.35-.35A.35.35,0,0,0,506.75,198.06Zm6.42,0a.35.35,0,0,0-.35.35.35.35,0,0,0,.35.35.34.34,0,0,0,.35-.35A.35.35,0,0,0,513.17,198.06Zm6.43,0a.35.35,0,0,0-.35.35.35.35,0,0,0,.7,0A.35.35,0,0,0,519.6,198.06Zm6.43,0a.35.35,0,0,0-.35.35.34.34,0,0,0,.35.35.35.35,0,0,0,.35-.35A.35.35,0,0,0,526,198.06Zm6.42,0a.35.35,0,0,0-.35.35.35.35,0,0,0,.35.35.34.34,0,0,0,.35-.35A.35.35,0,0,0,532.45,198.06Zm-28.92-4.5a.35.35,0,0,0-.35.35.35.35,0,0,0,.35.35.34.34,0,0,0,.35-.35A.35.35,0,0,0,503.53,193.56Zm6.43,0a.35.35,0,0,0-.35.35.35.35,0,1,0,.7,0A.35.35,0,0,0,510,193.56Zm6.43,0a.35.35,0,0,0-.35.35.34.34,0,0,0,.35.35.35.35,0,0,0,.35-.35A.35.35,0,0,0,516.39,193.56Zm6.42,0a.35.35,0,0,0-.35.35.35.35,0,0,0,.35.35.34.34,0,0,0,.35-.35A.35.35,0,0,0,522.81,193.56Zm6.43,0a.35.35,0,0,0-.35.35.35.35,0,0,0,.7,0A.35.35,0,0,0,529.24,193.56Zm-35,14.05-.13.44a.34.34,0,0,0,.17-.3A.27.27,0,0,0,494.21,207.61Zm6.11-.2a.35.35,0,1,0,.35.35A.35.35,0,0,0,500.32,207.41Zm6.43,0a.35.35,0,0,0,0,.7.35.35,0,0,0,0-.7Zm6.42,0a.35.35,0,0,0,0,.7.35.35,0,0,0,0-.7Zm6.43,0a.35.35,0,1,0,.35.35A.35.35,0,0,0,519.6,207.41Zm6.43,0a.35.35,0,0,0,0,.7.35.35,0,0,0,0-.7Zm6.42,0a.35.35,0,0,0,0,.7.35.35,0,0,0,0-.7Zm6.11.22a.27.27,0,0,0,0,.12.34.34,0,0,0,.15.29Zm-41.45-4.72a.34.34,0,0,0-.35.35.35.35,0,0,0,.35.35.35.35,0,0,0,.35-.35A.35.35,0,0,0,497.11,202.91Zm6.42,0a.35.35,0,0,0-.35.35.35.35,0,0,0,.35.35.35.35,0,0,0,.35-.35A.34.34,0,0,0,503.53,202.91Zm6.43,0a.35.35,0,0,0-.35.35.35.35,0,0,0,.7,0A.35.35,0,0,0,510,202.91Zm6.43,0a.34.34,0,0,0-.35.35.35.35,0,0,0,.35.35.35.35,0,0,0,.35-.35A.35.35,0,0,0,516.39,202.91Zm6.42,0a.35.35,0,0,0-.35.35.35.35,0,0,0,.35.35.35.35,0,0,0,.35-.35A.34.34,0,0,0,522.81,202.91Zm6.43,0a.35.35,0,0,0-.35.35.35.35,0,1,0,.7,0A.35.35,0,0,0,529.24,202.91Zm6.43,0a.34.34,0,0,0-.35.35.35.35,0,0,0,.35.35.35.35,0,0,0,.35-.35A.35.35,0,0,0,535.67,202.91Zm-41.78,13.84a.35.35,0,0,0-.35.35.35.35,0,0,0,.35.35.34.34,0,0,0,.35-.35A.35.35,0,0,0,493.89,216.75Zm6.43,0a.35.35,0,0,0-.35.35.35.35,0,1,0,.7,0A.35.35,0,0,0,500.32,216.75Zm6.43,0a.35.35,0,0,0-.35.35.34.34,0,0,0,.35.35.35.35,0,0,0,.35-.35A.35.35,0,0,0,506.75,216.75Zm6.42,0a.35.35,0,0,0-.35.35.35.35,0,0,0,.35.35.34.34,0,0,0,.35-.35A.35.35,0,0,0,513.17,216.75Zm6.43,0a.35.35,0,0,0-.35.35.35.35,0,0,0,.7,0A.35.35,0,0,0,519.6,216.75Zm6.43,0a.35.35,0,0,0-.35.35.34.34,0,0,0,.35.35.35.35,0,0,0,.35-.35A.35.35,0,0,0,526,216.75Zm6.42,0a.35.35,0,0,0-.35.35.35.35,0,0,0,.35.35.34.34,0,0,0,.35-.35A.35.35,0,0,0,532.45,216.75Zm6.43,0a.35.35,0,0,0-.35.35.35.35,0,0,0,.7,0A.35.35,0,0,0,538.88,216.75Zm-41.77-4.5a.35.35,0,0,0-.35.35.34.34,0,0,0,.35.35.35.35,0,0,0,.35-.35A.35.35,0,0,0,497.11,212.25Zm6.42,0a.35.35,0,0,0-.35.35.35.35,0,0,0,.35.35.34.34,0,0,0,.35-.35A.35.35,0,0,0,503.53,212.25Zm6.43,0a.35.35,0,0,0-.35.35.35.35,0,1,0,.7,0A.35.35,0,0,0,510,212.25Zm6.43,0a.35.35,0,0,0-.35.35.34.34,0,0,0,.35.35.35.35,0,0,0,.35-.35A.35.35,0,0,0,516.39,212.25Zm6.42,0a.35.35,0,0,0-.35.35.35.35,0,0,0,.35.35.34.34,0,0,0,.35-.35A.35.35,0,0,0,522.81,212.25Zm6.43,0a.35.35,0,0,0-.35.35.35.35,0,0,0,.7,0A.35.35,0,0,0,529.24,212.25Zm6.43,0a.35.35,0,0,0-.35.35.34.34,0,0,0,.35.35.35.35,0,0,0,.35-.35A.35.35,0,0,0,535.67,212.25Z" style="fill:#fff"></path></g><g id="Plant"><path d="M402.62,320a68.93,68.93,0,0,1,1.59-11.17,24.78,24.78,0,0,1,4-9.42,12,12,0,0,1,7.82-4.87,10.94,10.94,0,0,1,8.23,2.92,39.86,39.86,0,0,1,7.05,8.62,106,106,0,0,1,6.09,10.67c.06.12-.12.22-.18.1a66.79,66.79,0,0,0-5.45-8.93,56.94,56.94,0,0,0-6.27-7.59c-2.11-2-4.78-4-7.82-4.07a9.64,9.64,0,0,0-7.66,3.94,23.49,23.49,0,0,0-3.85,9.05,67,67,0,0,0-1.57,10.63c-.6,7.36-.76,14.76-.93,22.13q-.14,6.27-.19,12.53c0,2.11,0,4.23-.05,6.34a40.27,40.27,0,0,1-.24,6.12c-.07.41-.75.37-.82,0a37.38,37.38,0,0,1-.28-5.8c0-2-.05-4-.07-6,0-3.9-.05-7.8,0-11.69C402,335.66,402.09,327.81,402.62,320Z" style="fill:#263238"></path><path d="M413.13,314.46a17,17,0,0,1,2.28-6.4c2.13-2.9,4.43-1.64,2.3,1.57a19.29,19.29,0,0,0-3,7.9s3.58,5.12,7.9,7.64a34,34,0,0,1-.35-7.91c.83-6.32,4.65-6,3.7-.94a43,43,0,0,0-.86,10.14,21.72,21.72,0,0,0,4.61,2.27c-.24-.74-.51-1.62-.8-2.68-1.53-5.66,2.25-7.43,2.37-4.24a44.77,44.77,0,0,0,1.46,8c2.08.7,3.79,1.17,4.85,1.54a17.66,17.66,0,0,1,7.08,4.84A22.22,22.22,0,0,0,449.5,330c-1.32-1.14-3.4-2.83-6.3-4.87-5.43-3.84-3.54-8.68.77-5.67,3.11,2.17,5.51,6.2,6.61,8.26A33.79,33.79,0,0,0,453,316.4c-4.27-4-14.81-9.58-11.63-9.58,2.86,0,9.26,4.19,11.61,5.81-.07-1.13-.19-2.23-.36-3.29-4-2.63-17.07-6.73-15-7.9,2.28-1.3,11.39,2.92,14.14,4.25a16.56,16.56,0,0,0-2.41-5c-5.55-7.43-15.56-10-19.93-8.58-3.09,1-2.18,8.85-2.85,8.58C414.21,295.7,408.57,299.23,413.13,314.46Zm30.43-.86c.88-1.06,4.95,2.07,3.77,3.78S442.42,315,443.56,313.6Zm-21.29-6.68c1.07.68-.51,4.64-2.16,3.44C418.7,309.34,421.19,306.23,422.27,306.92Z" style="fill:#FFC727"></path><path d="M423.9,308.13c.56-1.11,1.14-2.21,1.78-3.27a19.2,19.2,0,0,1,2.05-3c-.18-.22-.35-.44-.53-.65s.05-.21.13-.12.41.48.61.72a.18.18,0,0,1,.09.1c.76.92,1.48,1.86,2.17,2.83a34.62,34.62,0,0,1,3.61,1c1.22.41,2.42.83,3.61,1.33.12.06.06.26-.06.21-1.18-.52-2.37-1-3.58-1.44s-2.32-.68-3.48-1c.37.53.75,1.07,1.1,1.62a43.1,43.1,0,0,1,6.38,2.6c2.15,1,4.23,2.21,6.29,3.41.12.06,0,.24-.11.17a69.82,69.82,0,0,0-6.26-3.23c-2-.94-4.06-1.71-6.07-2.6,5.06,7.91,8.11,17,12.17,25.49.06.13-.13.23-.19.1-1.24-3-2.67-5.85-4-8.76-1.21-2.62-2.39-5.25-3.61-7.87-.35-.76-.72-1.53-1.09-2.29.22,4.22.13,8.52.82,12.7a.1.1,0,1,1-.2,0c-.3-4.52-1.09-9-1.06-13.5,0,0,0,0,0-.06-.86-1.72-1.77-3.43-2.76-5.08-1.68,3.95-3.45,8-4.23,12.21,0,.13-.24.07-.2-.06,1.14-4.26,2.2-8.52,4.25-12.45a48.18,48.18,0,0,0-3.57-5.15c-.56,1-1.29,2-1.93,3s-1.24,2-1.81,3a41.84,41.84,0,0,0-3.17,6.7c-.05.13-.26.06-.21-.06C421.81,312.58,422.79,310.32,423.9,308.13Z" style="fill:#263238"></path><path d="M383.94,317.75c3.25-3.27,7-7.55,12.06-7.54,4.85,0,8.42,3.92,10.48,8,2.14,4.21,2.91,9,3.52,13.63a164.52,164.52,0,0,1,1.28,16.75c.09,3.11.08,6.23,0,9.34a60.6,60.6,0,0,1-.71,9.42c-.09.5-.9.52-.93,0-.14-2.62,0-5.25,0-7.88s0-5.16-.12-7.74c-.2-5.22-.58-10.43-1.19-15.62-.53-4.53-1-9.19-2.32-13.57-1.22-4-3.51-8.46-7.51-10.2-5.47-2.36-10.8,2-14.38,5.61C384,318,383.85,317.84,383.94,317.75Z" style="fill:#263238"></path><path d="M367.35,325h0c0,.67.06,1.33.11,2a11.74,11.74,0,0,1,5.33-2.2c4.61-.5,4.32,3,1.23,3.16a17.51,17.51,0,0,0-6.33,1.27c.75,6.1,2.43,11,2.68,11.06a88,88,0,0,0,12.2-1.54c-1.15-2.44-3.76-5.69-2.43-6s2.79,2.63,3.53,5.74a59.35,59.35,0,0,0,8.87-2.44c-2-1.76-5.17-4-4-4.88s3.69,2.15,5.18,4.39a18.67,18.67,0,0,0,3.84-2.14c-2.74-4-9.41-4.84-8.54-7.74s7.11,1.12,9.91,6.5c3.29-3.41,4.26-8.24,3.91-12.36-2.87-.34-8.38.27-8-1.79s4.38-1.67,7.64-.47a11.44,11.44,0,0,0-1.91-4.53c-3-3.88-12.24,1.05-12.24,1.05s1-9.26-2.53-10.86c-2-.92-5.6-.91-9.18,1.2,2,.17,4.44.8,5.42,2.2,1.25,1.78-.72,2.75-2,1.93-.88-.59-2.53-2.42-5.5-2.66a18,18,0,0,0-3.33,3.68c-.34.48-.66,1-1,1.53a12.66,12.66,0,0,1,10.79.2c4,2,1.76,6.13-1.68,4.52s-6.71-3.2-10.35-2.28a25.89,25.89,0,0,0-1.76,10.33,18.14,18.14,0,0,1,5.92-2.85c4-1,5.18,1.34.81,1.78A17.29,17.29,0,0,0,367.35,325Zm4.83-6.38c-.27-1.29,2.54-1.66,3-.61C375.58,318.94,372.45,320,372.18,318.66Zm24.1,7.13c.27-.71,2.15.09,2,1C398,327.93,396,326.49,396.28,325.79ZM383,330.3c1.38-.55,3.52,2.87,2,3.65S381.85,330.75,383,330.3Z" style="fill:#FFC727"></path><path d="M370.91,339.6c2.07-3.46,4.12-6.94,6.29-10.34q1.51-2.37,3.17-4.65l-.49-.12-.82-.16q-1-.16-1.92-.27c-.61-.06-1.21-.09-1.82-.1a9,9,0,0,0-1.94.1c-.08,0-.09-.1,0-.1.65,0,1.31-.06,2-.07s1.26,0,1.88.05a17.69,17.69,0,0,1,1.77.18l1,.17c.19,0,.39.07.58.12,1.12-1.54,2.29-3.05,3.49-4.53a41.52,41.52,0,0,0-11.33-3.62c-.07,0,0-.11,0-.1a38.49,38.49,0,0,1,11.5,3.49l2-2.43c.75-.9,1.55-1.78,2.22-2.73,0-.07.14,0,.09.06a40.82,40.82,0,0,0-2.63,3.21h0a40.18,40.18,0,0,1,4.21,3.38q2.07,1.83,4,3.78a.05.05,0,0,1-.07.08q-1.94-1.93-4-3.67c-1.4-1.17-2.87-2.23-4.28-3.38,0,0,0,0,0,0l-1,1.26c-.17.21-.33.43-.49.64l0,0c-.53.71-1.07,1.41-1.6,2.11a17.7,17.7,0,0,1,1.6,2.89c.46,1,.86,2,1.24,3a44,44,0,0,1,1.72,6.49c0,.06-.09.09-.1,0a38.05,38.05,0,0,0-1.88-6.36c-.41-1.06-.86-2.09-1.34-3.12s-.95-1.84-1.35-2.78c-.46.61-.93,1.23-1.38,1.86l-.39.55s0,.09,0,.09h0c-1.42,2-2.77,4-4.09,6.08a1.63,1.63,0,0,1,.18.45q.13.38.24.75a13.75,13.75,0,0,1,.36,1.54c.09.49.16,1,.21,1.48a13.26,13.26,0,0,0,.12,1.67c0,.08-.11.09-.1,0a5.48,5.48,0,0,0-.12-1.56c-.07-.53-.17-1.07-.29-1.59s-.24-.95-.38-1.42c-.08-.23-.15-.47-.23-.7s-.1-.25-.14-.38q-.93,1.46-1.83,2.91-1.78,2.91-3.56,5.82C371,339.78,370.85,339.7,370.91,339.6Z" style="fill:#263238"></path><path d="M402.84,366.18c.05-2,.36-3.94.57-5.89s.44-3.92.65-5.88a88.23,88.23,0,0,1,1.51-11.34,16.51,16.51,0,0,1,4.62-8.48,7.46,7.46,0,0,1,4.52-2.16,7.79,7.79,0,0,1,4.81,1.48,16.88,16.88,0,0,1,4,4.26,41.37,41.37,0,0,1,3.15,5.12c0,.06-.07.1-.11,0a26.22,26.22,0,0,0-6.82-7.64,8,8,0,0,0-4.29-1.79,5.84,5.84,0,0,0-4.17,1.66,15.67,15.67,0,0,0-4.4,7.79,78.64,78.64,0,0,0-1.7,10.48c-.28,2.07-.54,4.15-.82,6.23s-.44,4.18-.88,6.21A.34.34,0,0,1,402.84,366.18Z" style="fill:#263238"></path><path d="M412.48,351a11,11,0,0,0,2.14,2.18c-.32-1.92-.71-5.32.25-7.13,1.5-2.81,3.28-1.41,2.38,1a20.11,20.11,0,0,0-1.44,6.94,30.1,30.1,0,0,0,6.52,3.07,10.79,10.79,0,0,1-.22-3.35c.3-3,2.6-2.95,2,.17a19.66,19.66,0,0,0-.31,3.68A68.65,68.65,0,0,0,434,359.83a29.73,29.73,0,0,0,4.21-7.49c-2.45-.61-7.4-.75-7.3-2.5.14-2.35,4.94-.54,7.75,1.17a18.9,18.9,0,0,0,.85-6.33,31.4,31.4,0,0,0-6.75-1.12c-5-.44-4.79-3.29-1.14-3.23,2.69.05,6.1,1.7,7.72,2.56-1.06-6.85-6.28-11.25-10.48-11.41-7-.29-4.51,8.48-4.51,8.48s-4.77-3.36-9.28-3.27S407.67,344.24,412.48,351Zm18.83-12.68c-.16-1,3-1.22,3.15,0C434.65,339.73,431.47,339.27,431.31,338.27Zm5.06,10.29c-.07-.65,1.29-.76,1.6.05C438.17,349.14,436.42,349.19,436.37,348.56Zm-16.92.6c1.06.15,1.66,3.95-.17,3.87C417.89,353,418.55,349,419.45,349.16Z" style="fill:#FFC727"></path><path d="M420.92,353.38q.25-.72.48-1.44c-.14.49-.26,1-.35,1.47C421,353.51,420.88,353.47,420.92,353.38Z" style="fill:#263238"></path><path d="M422.78,347.27c.33-1,.7-1.93,1.07-2.89.21-.51.42-1,.64-1.52a6,6,0,0,1,.63-1.27,8.53,8.53,0,0,1-.57-1.23,0,0,0,0,1,.06,0,14.92,14.92,0,0,1,1.38,2.13l.57,1a9.33,9.33,0,0,1,1.18.18c.43.08.85.16,1.27.26l1.25.29c.42.1.83.24,1.25.3.1,0,.06.17,0,.13a8.52,8.52,0,0,0-1.32-.34c-.41-.09-.81-.16-1.22-.22s-.82-.11-1.23-.15l-.93-.07c.16.29.34.58.5.88,0,0,.05.1.08.14a4.42,4.42,0,0,1,1,.12l1.09.22q1.1.24,2.19.54c1.52.42,3,.91,4.54,1.4.08,0,0,.16-.06.13a44.43,44.43,0,0,0-4.55-1.27l-2.17-.47-1.08-.24a6.11,6.11,0,0,1-.85-.18q1.17,2.14,2.18,4.37c1.46,3.24,2.69,6.57,3.95,9.88,0,.09-.1.14-.13.06a88.93,88.93,0,0,0-4.2-9.66c-.28-.58-.57-1.15-.85-1.72,0,.12-.06.23-.08.35l-.21,1.18c-.13.78-.26,1.57-.38,2.36a27.88,27.88,0,0,0-.57,4.9c0,.1-.15.09-.13,0,.12-.79.12-1.6.17-2.39s.11-1.65.21-2.47.19-1.58.32-2.37l.21-1.18a2.48,2.48,0,0,1,.22-.85c-.41-.83-.82-1.66-1.24-2.48s-.79-1.55-1.19-2.32l-.53-1a9.35,9.35,0,0,1-.47,1.18c-.18.45-.36.89-.55,1.34-.4,1-.78,2-1.15,3-.53,1.41-1.12,2.85-1.56,4.32C421.93,350.16,422.29,348.69,422.78,347.27Z" style="fill:#263238"></path><path d="M421.4,351.94c0-.11.06-.23.1-.34C421.46,351.71,421.43,351.83,421.4,351.94Z" style="fill:#263238"></path><polygon points="391.05 362.37 391.55 372.86 392.82 399.89 420.72 399.89 422 372.86 422.49 362.37 391.05 362.37" style="fill:#37474f"></polygon><polygon points="391.05 362.37 391.55 372.86 422 372.86 422.49 362.37 391.05 362.37" style="fill:#263238"></polygon><rect x="389.07" y="358.12" width="35.4" height="8.48" transform="translate(813.54 724.73) rotate(180)" style="fill:#37474f"></rect><rect x="413.56" y="399.89" width="4.9" height="4.44" style="fill:#37474f"></rect><rect x="413.56" y="399.89" width="4.9" height="2.22" style="fill:#263238"></rect><rect x="395.08" y="399.89" width="4.89" height="4.44" style="fill:#37474f"></rect><rect x="395.08" y="399.89" width="4.89" height="2.22" style="fill:#263238"></rect></g><g id="character-2"><path d="M604.48,217.69c-7.82,12.76-.44,25.3-2.59,34.09-1.31,5.38-8.78,13-8.9,18.76-.19,9.43,8,10.16,7.87,15.29-.17,7.27-9.08,9.59-7.21,20.79s17.32,18.77,46.23,12.83,41-21.11,39-30.5-12.19-9.41-15-16c-1.8-4.19,3-9.06.67-17.12s-10.88-8.14-14.18-14.55-5-24-17.67-29.18S608.33,211.4,604.48,217.69Z" style="fill:#263238"></path><path d="M605.81,217.53a24.12,24.12,0,0,0-4.5,10.6,52.4,52.4,0,0,0-.45,12.26,31.56,31.56,0,0,1-.05,7.27,17.63,17.63,0,0,1-2.25,5.84c-2.14,3.71-5.07,6.95-6.79,10.89-1.63,3.74-2.37,8.27-.07,11.9,1.25,2,3.24,3.28,4.78,5s2.55,3.9,1.43,6c-1,1.8-2.79,3.07-4,4.69a18.3,18.3,0,0,0-2.8,5.27,14.34,14.34,0,0,0,.9,11.57c4.44,8.15,14.19,10.46,22.71,11.14,1.19.09,2.38.18,3.57.25.19,0,.25-.26.06-.28-8.64-.94-18.68-2.08-24.31-9.58a13.43,13.43,0,0,1-2.32-11.63,17.08,17.08,0,0,1,2.63-5.49c1.16-1.61,2.69-2.86,3.89-4.42a5.38,5.38,0,0,0,.89-5.36,13.12,13.12,0,0,0-3.87-4.88,10.84,10.84,0,0,1-3.67-5.27A12,12,0,0,1,592,267c1.28-4.09,4-7.4,6.36-10.92s3.88-7.29,3.76-11.59c-.07-2.18-.37-4.35-.52-6.52a55.67,55.67,0,0,1-.12-6.06,27.71,27.71,0,0,1,2.76-11.63,16.27,16.27,0,0,1,1.7-2.64C606,217.56,605.88,217.44,605.81,217.53Z" style="fill:#263238"></path><path d="M678,281.89a11.08,11.08,0,0,0-3.24-3.44c-1.37-.91-2.88-1.57-4.32-2.36a8.25,8.25,0,0,1-3.5-3c-.94-1.67-.74-3.62-.4-5.43a40.37,40.37,0,0,0,.93-5.67,18.56,18.56,0,0,0-.62-5.55,18.76,18.76,0,0,0-6.16-9.47c-1.46-1.26-3-2.39-4.47-3.63a23.56,23.56,0,0,1-4.23-4.63c-2.61-3.79-4.32-8.14-6.72-12.07a69.36,69.36,0,0,0-8.63-11.19c-.08-.09-.19.05-.11.13a61.63,61.63,0,0,1,7.66,10.16c2.09,3.45,3.66,7.15,5.54,10.71a25.61,25.61,0,0,0,7.1,8.87c2.88,2.46,5.81,4.87,7.51,8.35a18,18,0,0,1,1.58,11c-.57,3.25-1.64,7,.69,9.81,2,2.4,5.13,3.2,7.61,4.92a11.59,11.59,0,0,1,4.74,8.21c1,8.3-5.56,14.71-12.77,17.47a.19.19,0,0,0,.13.35c6.35-2.13,12.38-7.18,13.44-14.11A14.23,14.23,0,0,0,678,281.89Z" style="fill:#263238"></path><path d="M658.34,458.85c-.89-2.93-49.17-70.57-52.64-72-1.31-.55-3.87-2.59-16.05,5.56L564,369.9l-14.58,47.65L613,444.63s30.06,17.63,34,18.78S659.24,461.78,658.34,458.85Z" style="fill:#ad6359"></path><path d="M658.34,458.85c-.89-2.93-49.17-70.57-52.64-72-1.31-.55-3.87-2.59-16.05,5.56L564,369.9l-14.58,47.65L613,444.63s30.06,17.63,34,18.78S659.24,461.78,658.34,458.85Z" style="fill:#ad6359"></path><path d="M587.06,433.6l25.88,11s30.07,17.62,34,18.77,12.26-1.63,11.36-4.55-49.17-70.57-52.63-72c-1.32-.55-3.87-2.59-16.05,5.56L587,390Z" style="fill:#c7c7c7"></path><path d="M592.74,433.78a15.78,15.78,0,0,0-2.29-2.59,14.9,14.9,0,0,0-2.76-2.08A15.78,15.78,0,0,0,590,431.7,15.36,15.36,0,0,0,592.74,433.78Z" style="fill:#263238"></path><path d="M592.8,429.26a16.2,16.2,0,0,0-2.29-2.59,15.72,15.72,0,0,0-2.76-2.08,14.55,14.55,0,0,0,2.29,2.59A15.36,15.36,0,0,0,592.8,429.26Z" style="fill:#263238"></path><path d="M592.85,424.75a17.23,17.23,0,0,0-5.05-4.67,16.2,16.2,0,0,0,2.29,2.59A15.72,15.72,0,0,0,592.85,424.75Z" style="fill:#263238"></path><path d="M592.91,420.23a17.23,17.23,0,0,0-5-4.67,14.91,14.91,0,0,0,2.29,2.59A15.36,15.36,0,0,0,592.91,420.23Z" style="fill:#263238"></path><path d="M593,415.72a14.55,14.55,0,0,0-2.29-2.59,15,15,0,0,0-2.76-2.09,15.38,15.38,0,0,0,2.29,2.59A15.77,15.77,0,0,0,593,415.72Z" style="fill:#263238"></path><path d="M593,411.2a15.78,15.78,0,0,0-2.29-2.59,15.36,15.36,0,0,0-2.76-2.08,14.91,14.91,0,0,0,2.29,2.59A15.36,15.36,0,0,0,593,411.2Z" style="fill:#263238"></path><path d="M593.07,406.68A17.23,17.23,0,0,0,588,402a17.23,17.23,0,0,0,5.05,4.67Z" style="fill:#263238"></path><path d="M593.13,402.17a15.78,15.78,0,0,0-2.29-2.59,14.9,14.9,0,0,0-2.76-2.08,14.91,14.91,0,0,0,2.29,2.59A15.36,15.36,0,0,0,593.13,402.17Z" style="fill:#263238"></path><path d="M593.18,397.65a14.91,14.91,0,0,0-2.29-2.59,15.36,15.36,0,0,0-2.76-2.08,17.23,17.23,0,0,0,5,4.67Z" style="fill:#263238"></path><path d="M464.61,365.61c7.8,21.43,116.06,70.87,116.06,70.87L599,379.55,549.3,358.36l105.31-15.44-53.74-20.06s-10.2,4.32-17.72,2.14c-3.34-1-74.29-10.79-88.08-7.35C464.6,325.23,457.45,345.94,464.61,365.61Z" style="fill:#455a64"></path><path d="M524.52,345.37a52.43,52.43,0,0,1,6.12,3c2.11,1.06,4.24,2.09,6.35,3.16l.07,0-1.42-1.15c-1.63-1.29-3.13-2.71-4.88-3.85a.1.1,0,0,1,.11-.16c1.77,1.11,3.65,2.07,5.32,3.34.79.6,1.55,1.22,2.3,1.86.41.35.83.7,1.22,1.07a5.6,5.6,0,0,1,.55.54c1,.5,1.92,1,2.86,1.54,2.1,1.18,4.1,2.53,6.21,3.69.11.07,0,.23-.11.17-2.07-1.05-4.24-1.9-6.32-2.93s-4.19-2.16-6.26-3.3-4-2.26-6-3.38a54.69,54.69,0,0,1-6.15-3.49C524.4,345.45,524.44,345.34,524.52,345.37Z" style="fill:#263238"></path><path d="M574.71,422.82c.46-1.62.94-3.24,1.42-4.85,1-3.22,1.93-6.45,2.91-9.67,2-6.4,3.93-12.8,6-19.16,1.19-3.59,2.38-7.21,3.72-10.75a.17.17,0,0,1,.33.1c-1.64,6.53-3.67,13-5.69,19.39s-4.08,12.75-6.17,19.11c-.59,1.79-1.17,3.57-1.78,5.34s-1.33,3.6-1.94,5.41c0,.09-.17.05-.14,0C573.87,426.08,574.25,424.44,574.71,422.82Z" style="fill:#263238"></path><path d="M632.2,272.54c-10,19.58-26.21,42-31.45,45-6.63,3.77-44.29,4.22-46.1,4-4.47-.66-5.27-34.25-.46-33.75,7.33.77,33.37,5.87,35.31,4.68s16.32-12.18,31.38-24.82C631.28,258.85,638.42,260.4,632.2,272.54Z" style="fill:#ad6359"></path><path d="M558.58,320.67c-.59.13-8.9,2-13.8,2.14-3.65.13-14.17.21-14.71-3.8-.37-2.73,5.81-3.51,10.17-4.15,2.3-.34,5.41-1.87,5.13-3.36-.48-2.61-6.42-1.61-10.45-.46-7.8,2.23-18.66,7-21.94,2.55-1.24-1.7,1.19-3.61,4.44-5.27-5,1.62-10.19,2.68-11.64.85-.84-1.05-.61-2.14.27-3.23a3.13,3.13,0,0,1-3.21-1.36c-1-1.83.2-3.83,2.31-5.67a1.76,1.76,0,0,1-1.07-1.16c-1.83-5.3,16.38-14.57,21.85-14.49,16.08.23,31.9,4.95,31.9,4.95C562.59,294.48,558.59,320.66,558.58,320.67Z" style="fill:#ad6359"></path><path d="M539.8,301.06a26.54,26.54,0,0,0-11.11,1.33c-4.49,1.57-7.79,3.89-11.78,6.07a.1.1,0,0,0,.09.17c1.9-1,9.62-4.77,11.58-5.57a25.2,25.2,0,0,1,11.21-1.94C539.84,301.12,539.84,301.06,539.8,301.06Z" style="fill:#263238"></path><path d="M538.6,293.9a63.17,63.17,0,0,0-12.81,1.1c-4.57,1-8.59,3.61-12.53,6.06q-3.54,2.2-7,4.57c-.1.06,0,.23.09.16q6-3.81,12.25-7.27a33.47,33.47,0,0,1,12.45-4c2.5-.29,5-.39,7.53-.49C538.64,294,538.65,293.9,538.6,293.9Z" style="fill:#263238"></path><path d="M535.76,287.2c-4.07-.19-7.63-.36-11.58.85-5.24,1.6-10.8,5.12-12.75,6.37-2.16,1.38-4.27,2.84-6.35,4.33-.09.06,0,.21.1.15A132,132,0,0,1,520,290.18a26.59,26.59,0,0,1,7.7-2.63,48.67,48.67,0,0,1,8.1-.33S535.78,287.2,535.76,287.2Z" style="fill:#263238"></path><path d="M617.74,301.2l-11.83-25.11a177.58,177.58,0,0,1,17.39-12.36c10.23-6.41,15.23-2.91,9.13,12.18A103.45,103.45,0,0,1,617.74,301.2Z" style="fill:#FFC727"></path><path d="M609.58,274.36c1.09,1.76,1.92,3.7,2.85,5.54s1.79,3.52,2.63,5.31q2.61,5.57,5,11.23c0,.07-.08.12-.11.06-1.85-3.61-3.65-7.23-5.4-10.89-.87-1.81-1.69-3.66-2.51-5.49s-1.84-3.75-2.54-5.7A.06.06,0,0,1,609.58,274.36Z" style="fill:#263238"></path><path d="M676.27,353.11c-2.53,1-76.79-16.52-76.79-16.52l7.36-25.85s-4.68-7.95-3.09-15.91c2.11-10.64,20.68-28.88,22.15-30,5.93-4.37,11.32-5.22,16.53-2.78C664.16,272.25,676.27,353.11,676.27,353.11Z" style="fill:#FFC727"></path><path d="M616.32,274.51c-1.77,2.29-3.69,4.48-5.53,6.72.83-1.64,1.65-3.3,2.54-4.91,0,0,0-.07-.05,0a36.52,36.52,0,0,0-3.41,6.1,49.21,49.21,0,0,0-3.78,5.36,23.05,23.05,0,0,0-3,7.25,19.4,19.4,0,0,0,.17,7.85,50.64,50.64,0,0,0,2.91,8.63c.16.37.68.11.56-.26-1.63-4.89-3.45-10-2.61-15.28s3.82-9.67,6.73-13.9a72.1,72.1,0,0,1,5.59-7.4C616.57,274.53,616.4,274.41,616.32,274.51Z" style="fill:#263238"></path><rect x="496.26" y="319.2" width="81.22" height="3.64" style="fill:#c7c7c7"></rect><polygon points="496.26 319.2 496.26 322.84 551.47 322.84 548.69 319.2 496.26 319.2" style="fill:#a6a6a6"></polygon><polygon points="545.18 322.84 466.02 322.84 459.43 269.08 538.6 269.08 545.18 322.84" style="fill:#c7c7c7"></polygon><path d="M507.13,296a4.72,4.72,0,0,1-4.74,4.82,4.92,4.92,0,0,1-4.9-4.82,4.72,4.72,0,0,1,4.73-4.82A4.93,4.93,0,0,1,507.13,296Z" style="fill:#fff"></path><path d="M652,272.23c8.68,14.45,26.23,63.53,16,70.41S611.3,329.84,598.8,321c-3.72-2.63,16.05-25.23,20.92-25,4,.19,21.85,12.47,22.64,11.4s-1.14-11.22-3-29.68C637.27,256.44,647,263.92,652,272.23Z" style="fill:#ad6359"></path><path d="M601,284.37c-9.61-3.08-12.55-2.39-19.28-9.29-4.42-4.53-9.21-3.66-7.33,2.65,3.07,10.32,14.63,16.89,19.3,18Z" style="fill:#ad6359"></path><path d="M625.51,298.37s-10-8.06-19.92-12.35c-6.86-3-22.5-7.75-40.53,5.38-4.28,3.12-8.16,10.59.67,8,6.28-1.82,9.71-4.86,13.55-5.25,0,0-3.81,10.09-.53,14.25a98.49,98.49,0,0,0,9.37,10.27,21.28,21.28,0,0,0,2.08-1.59s3.44,3.6,11,4.18Z" style="fill:#ad6359"></path><path d="M598.59,284.24c-3.73,1.19-11.59,3.85-17.27,8.26-6.3,4.91-17.13,16.05-13.46,20.67,2.69,3.39,7.2-.51,7.2-.51s-3.51,5.55-.41,8.08c2.82,2.3,6.13-.92,6.13-.92s-1.55,3.73,1.6,5.43c3.79,2,6.4-6.12,12-7.37C595.66,317.6,598.59,284.24,598.59,284.24Z" style="fill:#ad6359"></path><path d="M587.61,298.3c-3.32,1.7-9.88,7.49-12.58,14.2-.06.15,0,.28.11.15a78.17,78.17,0,0,1,12.52-14.29S587.65,298.28,587.61,298.3Z" style="fill:#263238"></path><path d="M592.38,304.81c-2.72,1.76-9.22,8-11.72,14.92,0,.16,0,.28.12.15a83.67,83.67,0,0,1,11.65-15S592.41,304.79,592.38,304.81Z" style="fill:#263238"></path><path d="M579.29,294.12c-3.38.39-5.74,1.61-8.77,3a42.64,42.64,0,0,1-4.59,1.9c-1.43.49-3.54,1.22-4.74-.13a2.67,2.67,0,0,1-.14-2.72,13.17,13.17,0,0,1,2.4-3.35s0-.1-.07-.06a19.15,19.15,0,0,0-2.49,2.91,4.34,4.34,0,0,0-.72,2.46c.16,1.85,2.21,2.44,3.77,2.21a14.31,14.31,0,0,0,2.74-.78c.86-.32,1.7-.67,2.53-1,1.7-.77,3.36-1.63,5-2.42a43.26,43.26,0,0,1,5.06-1.88C579.38,294.22,579.35,294.12,579.29,294.12Z" style="fill:#263238"></path><path d="M570.61,304.25a103.26,103.26,0,0,1,8.73-10s0-.11-.06-.07c-2.91,1.94-8,7.54-9.3,9.4s-2.78,4.2-3.16,6.42c-.58,3.35,1.53,4.37,2.32,4.68a4.43,4.43,0,0,0,2.94,0,9,9,0,0,0,3-2s0-.11-.06-.07c-1.39,1.12-3.55,2.09-5.33,1.53a3.1,3.1,0,0,1-1.88-1.48,4.05,4.05,0,0,1-.07-2.79A19,19,0,0,1,570.61,304.25Z" style="fill:#263238"></path><path d="M666.37,298.46l-27.51-3.63a178.28,178.28,0,0,1-1-21.32c.14-12.07,5.8-14.38,15.18-1.09A103.11,103.11,0,0,1,666.37,298.46Z" style="fill:#FFC727"></path><path d="M639.39,290.81c2.07,0,4.14.38,6.2.59s3.93.4,5.88.66c4.07.55,8.1,1.18,12.14,1.9.07,0,.06.13,0,.13q-6.06-.6-12.08-1.36c-2-.25-4-.55-6-.85s-4.15-.48-6.17-.95A.06.06,0,0,1,639.39,290.81Z" style="fill:#263238"></path><path d="M638.22,292c-.11-1-.19-2-.25-3,0-.21,0-.42,0-.62-.33-1.22-.66-2.45-.87-3.7,0,0,.06-.06.07,0a27.22,27.22,0,0,1,.75,2.82c-.08-1.55-.13-3.1-.06-4.64a0,0,0,0,1,.08,0c.25,2,.37,4,.56,6.06.09,1,.42,5.8.47,5.81s2.29.37,2.43.45.07.19,0,.19l-2.85-.37S638.31,292.89,638.22,292Z" style="fill:#263238"></path><path d="M368.42,427c2.61,1.59,83.63,20.07,87.17,18.82,1.34-.47,4.61-.63,8.3-14.82.79-3.06,52.49-27.78,52.49-27.78l-53.63-24-51,28.26s-34.18,6.8-37.91,8.59S365.81,425.4,368.42,427Z" style="fill:#ad6359"></path><path d="M368.42,427c2.62,1.6,83.63,20.08,87.17,18.83,1.34-.46,4.62-.63,8.29-14.82.23-.84,4.62-3.2,10.89-6.18L421.61,402l-9.82,5.45s-34.18,6.81-37.91,8.58S365.81,425.4,368.42,427Z" style="fill:#c7c7c7"></path><path d="M470.9,424.84a15.72,15.72,0,0,0-3.24,1.2,15.4,15.4,0,0,0-2.94,1.81,17.1,17.1,0,0,0,6.18-3Z" style="fill:#263238"></path><path d="M466.71,423.15a15.72,15.72,0,0,0-3.24,1.2,15,15,0,0,0-2.94,1.82,15.51,15.51,0,0,0,3.24-1.2A15,15,0,0,0,466.71,423.15Z" style="fill:#263238"></path><path d="M462.53,421.47a17,17,0,0,0-6.19,3,15,15,0,0,0,3.24-1.2A15.79,15.79,0,0,0,462.53,421.47Z" style="fill:#263238"></path><path d="M458.34,419.78a17,17,0,0,0-6.19,3,15.25,15.25,0,0,0,3.25-1.2A15.72,15.72,0,0,0,458.34,419.78Z" style="fill:#263238"></path><path d="M454.15,418.09a17,17,0,0,0-6.19,3,15.22,15.22,0,0,0,3.25-1.19A15.77,15.77,0,0,0,454.15,418.09Z" style="fill:#263238"></path><path d="M450,416.4a15,15,0,0,0-3.24,1.2,15.28,15.28,0,0,0-3,1.81,17,17,0,0,0,6.19-3Z" style="fill:#263238"></path><path d="M445.77,414.71a17.55,17.55,0,0,0-6.18,3,15.14,15.14,0,0,0,3.24-1.19A15,15,0,0,0,445.77,414.71Z" style="fill:#263238"></path><path d="M441.58,413a15.51,15.51,0,0,0-3.24,1.2A15,15,0,0,0,435.4,416a15.51,15.51,0,0,0,3.24-1.2A15,15,0,0,0,441.58,413Z" style="fill:#263238"></path><path d="M437.39,411.34a17.1,17.1,0,0,0-6.18,3,15,15,0,0,0,3.24-1.2A15.4,15.4,0,0,0,437.39,411.34Z" style="fill:#263238"></path><path d="M433.2,409.65a15.69,15.69,0,0,0-3.24,1.19,15,15,0,0,0-2.94,1.82,15,15,0,0,0,3.24-1.2A15.4,15.4,0,0,0,433.2,409.65Z" style="fill:#263238"></path><path d="M429,408a15.69,15.69,0,0,0-3.24,1.19,15.45,15.45,0,0,0-2.94,1.82,14.94,14.94,0,0,0,3.24-1.19A15.45,15.45,0,0,0,429,408Z" style="fill:#263238"></path><path d="M424.83,406.27a15.25,15.25,0,0,0-3.25,1.2,15.72,15.72,0,0,0-2.94,1.81,14.94,14.94,0,0,0,3.24-1.19A15.33,15.33,0,0,0,424.83,406.27Z" style="fill:#263238"></path><path d="M420.64,404.58a15.81,15.81,0,0,0-3.25,1.2,15.26,15.26,0,0,0-2.94,1.82,15.81,15.81,0,0,0,3.25-1.2A15.26,15.26,0,0,0,420.64,404.58Z" style="fill:#263238"></path><path d="M425.31,398l54.63,26.25,89.79-44.36s20.58,15.94,42.68,20.09c15,2.82,46.51,2.7,58.7-14.77,10.27-14.7,4.2-32,4.2-32l-17.21-7.82s-40.52-29-65.88-31.62C553.53,309.68,425.31,398,425.31,398Z" style="fill:#455a64"></path><path d="M643,335.3c2.46,1.47,4.85,3.05,7.27,4.57s4.84,2.87,7.13,4.52,4.54,3.49,6.75,5.32c1.06.88,2.12,1.77,3.15,2.68a26.65,26.65,0,0,1,3,2.88c.08.1-.06.23-.16.18a32,32,0,0,1-3.31-2.35c-1.17-.85-2.31-1.71-3.47-2.57-2.23-1.65-4.5-3.25-6.72-4.9s-4.28-3.47-6.48-5.14-4.8-3.43-7.23-5.11C642.89,335.35,642.92,335.27,643,335.3Z" style="fill:#263238"></path><path d="M569.8,379.9a127,127,0,0,0,14.45,9.26L607,360.64Z" style="fill:#263238"></path><path d="M438.42,393.06c1.79.7,3.55,1.54,5.31,2.33s3.47,1.56,5.2,2.36c3.53,1.63,7,3.32,10.55,5,7,3.38,22.78,12.22,26.69,14.19.07,0,0,.16-.06.13-7.06-3.14-29.17-14.22-36.16-17.73-1.94-1-3.87-2-5.79-3s-3.93-2-5.82-3.14C438.26,393.17,438.32,393,438.42,393.06Z" style="fill:#263238"></path><path d="M467.36,370.54c1.49-1.23,33.24-20.32,40.07-24.2s13.71-7.61,20.69-11.17,14-6.95,21.22-10,14.32-5.93,21.7-8.27c.94-.3,1.88-.6,2.82-.92.09,0,.12.11,0,.14-3.74,1.28-7.38,2.83-11,4.32s-7.17,3-10.72,4.58q-10.65,4.77-21,10.12c-6.91,3.55-13.72,7.28-20.47,11.13s-13.52,7.83-20.22,11.85c-3.35,2-22,12.35-22.87,12.74C467.4,370.89,467.2,370.68,467.36,370.54Z" style="fill:#263238"></path><path d="M517.19,405.5c3.35-1.84,6.76-3.56,10.15-5.32s6.81-3.46,10.23-5.15q10.17-5,20.43-9.91c3.86-1.85,7.74-3.72,11.71-5.32.08,0,.15.08.07.12-3.29,1.93-6.71,3.66-10.11,5.38s-6.83,3.42-10.25,5.12c-6.78,3.37-13.55,6.76-20.41,9.94-3.89,1.81-7.76,3.66-11.69,5.37C517.17,405.8,517,405.58,517.19,405.5Z" style="fill:#263238"></path><path d="M639.32,263.42c0,1.36-4.29,11.15-10.26,12.2-1.94.35-4.28-10.19-4.28-10.19l-.35-.73-4.89-10.34,12.53-12.6S639.31,262.85,639.32,263.42Z" style="fill:#ad6359"></path><path d="M619.54,254.36l4.89,10.33A23,23,0,0,0,634.53,249c-1.24-3.66-2.28-6.7-2.43-7.15a.1.1,0,0,1,0,0l-1.61,1.5Z" style="fill:#263238"></path><path d="M599.42,242.76c2.81,19.87,15,20.43,19.31,19.82,3.89-.56,17.06-2.94,16.32-23s-10.86-25-19.82-24.23S596.61,222.88,599.42,242.76Z" style="fill:#ad6359"></path><path d="M601.85,240.61c.45-.16.84-.37,1.27-.57a2.2,2.2,0,0,0,1.18-.82.72.72,0,0,0-.18-.85,1.78,1.78,0,0,0-1.8,0,2.58,2.58,0,0,0-1.4,1.24A.76.76,0,0,0,601.85,240.61Z" style="fill:#263238"></path><path d="M615.22,237.94a12.71,12.71,0,0,1-1.38,0,2.31,2.31,0,0,1-1.42-.27.72.72,0,0,1-.18-.85,1.78,1.78,0,0,1,1.62-.77,2.61,2.61,0,0,1,1.79.56A.76.76,0,0,1,615.22,237.94Z" style="fill:#263238"></path><path d="M612.62,241.43c0-.06.11,0,.12.1.21,1.35.68,2.86,2,3.07,0,0,0,.08,0,.08C613.2,244.75,612.6,242.74,612.62,241.43Z" style="fill:#263238"></path><path d="M613.55,239.8c2.13-.57,3.12,3.72,1.15,4.25S611.77,240.28,613.55,239.8Z" style="fill:#263238"></path><path d="M614.45,239.83c.43.16.9.5,1.36.44s.83-.61,1.07-1.12c0-.05.07,0,.08,0a1.61,1.61,0,0,1-.77,2.07c-.78.3-1.53-.3-1.92-1.08C614.19,240,614.27,239.77,614.45,239.83Z" style="fill:#263238"></path><path d="M605.23,242.79s-.09.08-.07.14c.36,1.32.55,2.89-.55,3.62a0,0,0,0,0,0,.07C606.05,246.06,605.78,244,605.23,242.79Z" style="fill:#263238"></path><path d="M603.71,241.68c-2.17.35-1.32,4.67.7,4.35S605.54,241.39,603.71,241.68Z" style="fill:#263238"></path><path d="M602.87,242.14c-.3.3-.55.78-1,.89s-.91-.27-1.3-.66c0,0-.07,0-.06.06.14.83.59,1.64,1.41,1.64s1.15-.81,1.18-1.68C603.15,242.23,603,242,602.87,242.14Z" style="fill:#263238"></path><path d="M615.6,253.06c-.22.39-.42.9-.89,1.08a3.65,3.65,0,0,1-1.51.06,0,0,0,0,0,0,.08,1.83,1.83,0,0,0,1.87.25,1.45,1.45,0,0,0,.71-1.45C615.75,253,615.64,253,615.6,253.06Z" style="fill:#263238"></path><path d="M608.77,249.34s.16,2.06.37,3c0,.09.25.08.58,0h0a4.57,4.57,0,0,0,4-2.61c0-.11-.09-.18-.17-.1a6.93,6.93,0,0,1-3.82,2.06c-.13-.25-.16-3.53-.31-3.51a8.55,8.55,0,0,0-2,1c-.45-4.27-.22-8.58-.74-12.82,0-.15-.24-.15-.25,0-.57,4.5-.15,9.42.2,13.84C606.65,250.71,608.43,249.59,608.77,249.34Z" style="fill:#263238"></path><path d="M610.18,251.92a5.09,5.09,0,0,0,2.33,1.17,2.25,2.25,0,0,0,1.41-.18c1-.46.79-1.38.46-2.13a5.68,5.68,0,0,0-.69-1.12A6.63,6.63,0,0,1,610.18,251.92Z" style="fill:#263238"></path><path d="M612.51,253.09a2.25,2.25,0,0,0,1.41-.18c1-.46.79-1.38.46-2.13A2.4,2.4,0,0,0,612.51,253.09Z" style="fill:#ff98b9"></path><path d="M635,239.61c-3.16,1.14-5.77-5.42-5.77-5.42s-6.56,1.83-11.33-7a15.09,15.09,0,0,0,5.06,7s-11.91,2-19.45-6.36c0,0,3.3,4.39,5.61,5.64,0,0-5.23,0-8.68-3.3,0,0-.48,6.15-1.61,8.12,0,0-5.12-20.37,14.23-23.4,0,0,12-2.46,18.74,5.67S635,239.61,635,239.61Z" style="fill:#263238"></path><path d="M635.81,238.2c.09,2.83,2.59-11.16,2-13S631,215,622,213.23c-7.57-1.46-15.13,3.12-16.44,3.94a12.16,12.16,0,0,0-3.69,3.54s9.88-6,19.73-5.88C626.32,214.91,635.47,227.61,635.81,238.2Z" style="fill:#FFC727"></path><path d="M625.14,211.44s-3.65-5.06-9.06-5.28c0,0,.59,5.31,2.61,6.93,1,.81,5.24.87,5.68.13A9.11,9.11,0,0,0,625.14,211.44Z" style="fill:#FFC727"></path><path d="M625.14,211.44a10.18,10.18,0,0,1-.77,1.78.17.17,0,0,1-.07.08.38.38,0,0,1-.12.09l-.1.05a6.05,6.05,0,0,1-2.32.29,12.43,12.43,0,0,1,.41-2.35,3.47,3.47,0,0,1,1.5-1.58A13,13,0,0,1,625.14,211.44Z" style="fill:#050400;opacity:0.1"></path><path d="M626.51,212.07s7.4-1.7,11.12-.34c0,0-1.68,4.05-5.36,5.28-1.65.56-6.78-2.13-6.58-3A7.55,7.55,0,0,1,626.51,212.07Z" style="fill:#FFC727"></path><path d="M628.2,211.74a4.46,4.46,0,0,1,0,2.49,3.83,3.83,0,0,1-.89,1.3c-1-.6-1.73-1.21-1.66-1.56a7.59,7.59,0,0,1,.82-1.9S627.17,211.91,628.2,211.74Z" style="fill:#050400;opacity:0.1"></path><path d="M627.41,213.71a2.47,2.47,0,1,1-1.29-3.24A2.46,2.46,0,0,1,627.41,213.71Z" style="fill:#FFC727"></path><path d="M632.11,241.56s2.86-7.09,6-6.2,2,10.47-1,12.43a3.39,3.39,0,0,1-4.84-.76Z" style="fill:#ad6359"></path><path d="M637.69,238.1s.08.05,0,.08c-2.07,1.45-2.78,3.84-3.12,6.23a1.88,1.88,0,0,1,2.62-1.13c.07,0,0,.13,0,.13a2.1,2.1,0,0,0-2.07,1.23,10.29,10.29,0,0,0-.65,2.06c-.06.23-.46.2-.43,0v-.06C633.31,243.7,634.63,239.11,637.69,238.1Z" style="fill:#263238"></path></g><g id="Dog"><path d="M288.22,408.67c0,1.13,4.52,4.77,9.95,5.2s14.24-1.71,16.12-1.5,1.65,5.35,3.52,6.44,6.14-1.94,7-3.42-.85-6.92-2.33-7.62-11.14-4.9-12.5-9.36S288.23,406.9,288.22,408.67Z" style="fill:#FFC727"></path><path d="M288.22,408.67c0,1.13,4.52,4.77,9.95,5.2s14.24-1.71,16.12-1.5,1.65,5.35,3.52,6.44,6.14-1.94,7-3.42-.85-6.92-2.33-7.62-11.14-4.9-12.5-9.36S288.23,406.9,288.22,408.67Z" style="opacity:0.1"></path><path d="M231.17,411.65c-.54,2.84,3.74,9.64,5.59,10.7s6.85,2.46,7.79,3.29,1.6,2.87,2.91,3.67,6.29.71,6.91,0,0-3.27-1-3.72a10.11,10.11,0,0,1-2.6-1.17c-.56-.56-2.65-12.16-5.58-14.94S231.67,409,231.17,411.65Z" style="fill:#FFC727"></path><path d="M231.17,411.65c-.54,2.84,3.74,9.64,5.59,10.7s6.85,2.46,7.79,3.29,1.6,2.87,2.91,3.67,6.29.71,6.91,0,0-3.27-1-3.72a10.11,10.11,0,0,1-2.6-1.17c-.56-.56-2.65-12.16-5.58-14.94S231.67,409,231.17,411.65Z" style="opacity:0.1"></path><path d="M339.37,374.81c-5.11,6.23-16.44,8.65-19.32,10.16s-7.94,10.48-10.83,13.93-16.94,13.58-25.17,15-23.89-2.52-27.05-2.41-14.87,2.07-15.34,2.29-5.63,5.8-7,7.27-5.89,5.34-6.36,5.76a1.31,1.31,0,0,0,.32,1.87c.62.45,1.85,2.75.71,3.41s-4.78,1.11-6.11.4-2.27-2.92-2.94-4.06,3.67-9.16,4.49-11.59-4.19-12.8-2.85-16.55,13.79-16.45,20.15-16.26c.92,0,2.43,0,4.36,0,6.21,0,16.83-.16,26.7-.76,8.5-.5,16.42-1.33,20.42-2.61,10.09-3.22,14-16.83,19.62-18.3s11.05.6,13.47.09c3.52-.75,12.47-7.09,14.09-6.19C343.17,357.71,342.74,370.72,339.37,374.81Z" style="fill:#FFC727"></path><path d="M240.78,414.25a4.35,4.35,0,0,0,1.11-1.51c.28-.58.54-1.17.77-1.77.46-1.19.76-2.42,1.15-3.63a.07.07,0,0,1,.13,0,15.92,15.92,0,0,1-.45,3,2.91,2.91,0,0,0,.63-1,.08.08,0,0,1,.16.05,3,3,0,0,1-.89,1.26c-.06.2-.12.41-.19.61a6,6,0,0,1-.9,1.69,12.25,12.25,0,0,1-1.39,1.4C240.82,414.48,240.68,414.33,240.78,414.25Z" style="fill:#263238"></path><path d="M242.05,384c-3.69-.26-9.1-.11-12.49,2.09s-9.92,12.93-15,15.34-13.6,1.08-13.66,1.58,8.07,2.35,13.8.59,13.23-14.42,18.73-15.17A14.76,14.76,0,0,0,242.05,384Z" style="fill:#FFC727"></path><path d="M318.52,369c1.91-1.82,5.2,1.89,3.43,3.58S316.92,370.49,318.52,369Z" style="fill:#263238"></path><path d="M341.7,362.66c1.28-.47,1.72-5.51.59-7.13s-8.7,3.32-8.62,5S340.3,363.16,341.7,362.66Z" style="fill:#263238"></path><path d="M310.6,363.91c.23-.74-4.12,1.38-7.65,4.69a21.73,21.73,0,0,0-4.26,6.1c-.67,1.94,2.09,14.39,6.22,16.21,2.82,1.23,6.56-7.91,6.78-10.1S308.67,370.24,310.6,363.91Z" style="fill:#263238"></path><path d="M267.66,394.87c-1.9,1.07-4,1.23-6.14,1.55a34.78,34.78,0,0,0-8.49,2.42c-3.58,1.47-7.62,2.15-9.56-2.06s-.11-9,2.94-12.71c6.21,0,16.83-.16,26.7-.76C273.62,387.65,271.23,392.87,267.66,394.87Z" style="fill:#263238"></path><path d="M284.72,393.74c-2.25,1.55-6.47,1.13-7.64-1.67-.66-1.6.61-2.81,1.64-3.88a10.51,10.51,0,0,1,1-.9,8.35,8.35,0,0,1,2.13-1.67,2.81,2.81,0,0,1,3.74.48C287.7,388.22,287.09,392.1,284.72,393.74Z" style="fill:#263238"></path><path d="M297.1,379c.07,1.22,2.07,16.27,14.34,16.89.75,0-.05,2.53-1.42,2.51s-15-2.17-15.07-18.74C295,378.61,297,378,297.1,379Z" style="fill:#455a64"></path><path d="M285,403.77c-2.15,1.75-6.87,14-6.21,16.22s4.5,6.4,4.83,6.89.15,1.11,1.22,1.63,6.85.23,7.55-.49a3.49,3.49,0,0,0-.25-3.84c-.87-.76-3-.77-3.43-1.27s-1.4-3.25-1-4.09,9-6.15,10-10.3S288.36,401,285,403.77Z" style="fill:#FFC727"></path><path d="M280.75,410.94c.2-.62.44-1.23.68-1.83,0,0,0,0,0-.05.09-.7.17-1.4.28-2.09a10.28,10.28,0,0,1,.45-2.05c0-.06.12-.05.11,0-.08.67-.26,1.34-.38,2s-.16,1.07-.21,1.61l.19-.48a58.73,58.73,0,0,1,2.79-5.55s.08,0,.07,0c-.83,1.91-1.58,3.86-2.35,5.8-.37.95-.74,1.92-1.14,2.86s-.88,2-1.2,3c0,.12-.23.07-.19-.05C280.19,413.07,280.41,412,280.75,410.94Z" style="fill:#263238"></path></g><g id="Mug"><path d="M653.07,408.24s-15.26-7-15.26-16.46,19.8-15.5,19.8-22.87-8.64-11.7-8.64-11.7,13.64,4.66,13.64,14-13.05,15.64-14.3,21.57C646.58,401,653.07,408.24,653.07,408.24Z" style="fill:#dbdbdb;opacity:0.6000000000000001"></path><path d="M652.32,408.24s15.27-5.53,15.27-12.94-19.8-12.19-19.8-18,8.63-9.2,8.63-9.2-13.64,3.66-13.64,11,15,12.37,16.06,18.32S652.32,408.24,652.32,408.24Z" style="fill:#dbdbdb;opacity:0.6000000000000001"></path><rect x="645.65" y="431.95" width="14.52" height="2.27" style="fill:#FFC727"></rect><rect x="645.65" y="431.95" width="14.52" height="1.5" style="fill:#263238"></rect><path d="M677.41,425.85a8.21,8.21,0,0,1-8.18,3.5,8.61,8.61,0,0,1-1.47-.42,9.9,9.9,0,0,1-2-1.08l1.84-2.74a6.49,6.49,0,0,0,1.09.62,4.83,4.83,0,0,0,6.08-1.78c2-2.8,2.7-9.19.69-11.64-.14-.19-.72-.47-3.06,0-.43.1-.92.21-1.47.36a5.55,5.55,0,0,1-1.33.29l-.06-1.64-.16-1.64.69-.18a21.2,21.2,0,0,1,3.31-.69c1.72-.18,3.52,0,4.63,1.39C681.23,414.23,679.9,422.35,677.41,425.85Z" style="fill:#FFC727"></path><path d="M667.55,425.11a6.49,6.49,0,0,0,1.09.62l-.88,3.2a9.9,9.9,0,0,1-2-1.08Z" style="fill:#263238"></path><path d="M673.33,408.83l-1,3.5c-.43.1-.92.21-1.47.36a5.55,5.55,0,0,1-1.33.29l-.06-1.64-.16-1.64.69-.18A21.2,21.2,0,0,1,673.33,408.83Z" style="fill:#263238"></path><path d="M633.6,404.55s1.74,14.8,4.75,21,7.21,6.92,9.82,6.92h9.49c2.61,0,6.81-.69,9.82-6.92s4.75-21,4.75-21Z" style="fill:#FFC727"></path><path d="M667.63,407.06a1.72,1.72,0,1,1-1.71,1.72A1.72,1.72,0,0,1,667.63,407.06Zm-16.84,1.36a1.72,1.72,0,1,0,1.71-1.72A1.72,1.72,0,0,0,650.79,408.42Zm0,21.54a1.72,1.72,0,1,0,1.71-1.72A1.72,1.72,0,0,0,650.79,430Zm-12.44-9.72a1.72,1.72,0,1,0,1.72-1.71A1.71,1.71,0,0,0,638.35,420.24Zm19.06,5.07a1.72,1.72,0,1,0,1.72-1.72A1.72,1.72,0,0,0,657.41,425.31Zm-20.14-16.89A1.72,1.72,0,1,0,639,406.7,1.72,1.72,0,0,0,637.27,408.42ZM651,420a1.72,1.72,0,1,0,1.71-1.71A1.72,1.72,0,0,0,651,420Zm13,.27a1.72,1.72,0,1,0,1.72-1.71A1.71,1.71,0,0,0,664,420.24Zm-20-5.74a1.72,1.72,0,1,0,1.71-1.71A1.71,1.71,0,0,0,643.94,414.5Zm.47,11.09a1.72,1.72,0,1,0,1.71-1.72A1.71,1.71,0,0,0,644.41,425.59Zm13.81-11.09a1.72,1.72,0,1,0,1.71-1.71A1.72,1.72,0,0,0,658.22,414.5Z" style="fill:#fff"></path></g><g id="Line"><polygon points="72.95 451.37 148.32 400.82 223.79 350.41 374.72 249.59 525.84 149.04 601.4 98.77 677.05 48.63 601.68 99.18 526.21 149.59 375.28 250.41 224.16 350.96 148.59 401.23 72.95 451.37" style="fill:#263238"></polygon></g><g id="character-1"><path d="M134.06,151.91c5.35,28.61,17.44,63.15,23,68.9,7,7.28,54.62,22,57,22.4,5.92.84,19.59-41.48,13.29-42.65-9.58-1.79-44.55-5.13-46.57-7.37s-16.11-21.61-30.46-43.31C140.39,134.88,130.74,134.15,134.06,151.91Z" style="fill:#eb9481"></path><path d="M209.35,240.7c.69.39,10.55,5.86,16.69,7.92,4.59,1.54,17.91,5.6,20.1.72,1.5-3.33-6-6.64-11.34-9.1-2.79-1.3-6.16-4.41-5.25-6.19,1.59-3.13,8.76.37,13.44,3.35,9.06,5.77,21,16,26.88,11.51,2.21-1.69-.14-5-3.65-8.36,5.75,3.94,11.92,7.24,14.46,5.46,1.45-1,1.58-2.49.86-4.2,1.8.67,3.41.62,4.59-.52,2-1.93,1.18-4.94-.79-8.06a2.32,2.32,0,0,0,1.79-1.08c4.32-6-15.3-24.65-22.26-26.6-20.5-5.77-42.35-5.75-42.35-5.75C214.12,206,209.33,240.69,209.35,240.7Z" style="fill:#eb9481"></path><path d="M240.56,222.9a35,35,0,0,1,13.59,5.88c5.11,3.67,8.42,7.87,12.66,12.13.11.12-.06.29-.17.18-2-2-10.41-9.68-12.59-11.43A33.5,33.5,0,0,0,240.54,223S240.51,222.89,240.56,222.9Z" style="fill:#263238"></path><path d="M244.78,214.27c5.38,1.71,10.89,3.44,15.84,6.22,5.41,3,9.54,7.81,13.61,12.41q3.67,4.13,7.15,8.43c.1.12-.06.3-.17.17q-6.19-7.11-12.8-13.84a44.37,44.37,0,0,0-14.28-9.83c-3.06-1.31-6.22-2.39-9.37-3.46C244.7,214.35,244.72,214.25,244.78,214.27Z" style="fill:#263238"></path><path d="M250.91,206.83c5.24,1.3,9.81,2.42,14.37,5.44,6.05,4,11.77,10.57,13.78,12.89,2.21,2.57,4.34,5.21,6.43,7.89.09.11-.1.26-.19.15a175,175,0,0,0-15.47-16.63,35.06,35.06,0,0,0-8.77-6.23,63.07,63.07,0,0,0-10.16-3.47S250.88,206.82,250.91,206.83Z" style="fill:#263238"></path><path d="M219.26,197.91l-16.73,46.3s-39.62-13.08-46.62-21.28-18.85-49.55-22-69.49,6.81-19,15.49-6.19,30.32,44,31.57,44.7S219.26,197.91,219.26,197.91Z" style="fill:#FFC727"></path><path d="M164.15,168.72l-.27-.1a1.57,1.57,0,0,1-.87-1.24,2,2,0,0,0-.16-.53c-.15-.21-.29-.43-.45-.64a1.87,1.87,0,0,0-.92-.51,2,2,0,0,0-1.1.07c-.32.11-.64.19-1,.32.34,0,.67,0,1,.08a1.92,1.92,0,0,1,.86.14,1.52,1.52,0,0,1,.91,1.19,2,2,0,0,0,1.47,1.72,1.76,1.76,0,0,0,.85,0C164.4,169.07,164.28,168.89,164.15,168.72Zm-27.22-30.6.22.07a1.89,1.89,0,0,0,1.11,0l.43-.13A4,4,0,0,0,136.93,138.12Zm29.72,72.66a1.77,1.77,0,0,1-.85-.17,1.57,1.57,0,0,1-.87-1.23,2,2,0,0,0-1.53-1.68,1.93,1.93,0,0,0-1.1.06c-.32.11-.65.19-1,.32.34,0,.67,0,1,.08a1.92,1.92,0,0,1,.86.14,1.54,1.54,0,0,1,.91,1.19,2,2,0,0,0,1.47,1.72,1.89,1.89,0,0,0,1.11,0c.32-.11.64-.19,1-.32C167.32,210.81,167,210.81,166.65,210.78ZM160,190.61a1.89,1.89,0,0,1-.71.51,1.55,1.55,0,0,1-1.49-.2,2,2,0,0,0-3,.63c-.14.31-.32.59-.45.91a9.88,9.88,0,0,0,.77-.66,2,2,0,0,1,.72-.48,1.56,1.56,0,0,1,1.49.26,2,2,0,0,0,2.27.11,2,2,0,0,0,.74-.83c.15-.3.32-.59.45-.91C160.47,190.16,160.24,190.39,160,190.61Zm10.68,34.53a1.85,1.85,0,0,1-.71.51,1.53,1.53,0,0,1-1.48-.2,2.07,2.07,0,0,0-2.26-.18,2,2,0,0,0-.76.81c-.15.31-.32.59-.45.91.27-.2.51-.44.76-.66a1.86,1.86,0,0,1,.72-.48,1.56,1.56,0,0,1,1.49.26,2,2,0,0,0,2.27.1,2,2,0,0,0,.74-.82c.15-.3.32-.59.45-.91C171.15,224.69,170.92,224.92,170.66,225.14Zm-18-73.08-.24.05a2,2,0,0,0-1.72,1.47,1.89,1.89,0,0,0,0,1.11c.11.32.19.65.32,1,.05-.34.05-.67.08-1a1.9,1.9,0,0,1,.17-.85,1.57,1.57,0,0,1,1.23-.87,2.11,2.11,0,0,0,.59-.18ZM146,175.41c-.11-.32-.19-.65-.32-1,0,.34,0,.67-.08,1a1.92,1.92,0,0,1-.14.86,1.54,1.54,0,0,1-1.19.91,2,2,0,0,0-1.72,1.47,1.89,1.89,0,0,0,0,1.11c.11.32.19.65.32,1,.05-.34.05-.67.08-1a1.77,1.77,0,0,1,.17-.85,1.57,1.57,0,0,1,1.23-.87,2,2,0,0,0,1.68-1.53A1.93,1.93,0,0,0,146,175.41Zm-7.45-18.9a2,2,0,0,1-.72.48,1.56,1.56,0,0,1-1.49-.26,2,2,0,0,0-1.89-.29c0,.23.09.46.13.69a1.44,1.44,0,0,1,1.26.26,2,2,0,0,0,2.26.17,1.9,1.9,0,0,0,.76-.81c.15-.3.32-.58.45-.9C139,156.05,138.75,156.29,138.5,156.51Zm39.84,36.2a1.9,1.9,0,0,1-.85-.17,1.57,1.57,0,0,1-.87-1.24,2,2,0,0,0-2.63-1.61,8.31,8.31,0,0,0-1,.32c.34.05.67.05,1,.07a1.92,1.92,0,0,1,.86.15,1.52,1.52,0,0,1,.91,1.19,2.06,2.06,0,0,0,1.47,1.72,2,2,0,0,0,1.11,0c.32-.11.64-.19,1-.33C179,192.73,178.68,192.73,178.34,192.71Zm16.45,33.59a1.9,1.9,0,0,1-.85-.17,1.57,1.57,0,0,1-.87-1.24,2,2,0,0,0-2.63-1.61,9,9,0,0,0-1,.32c.34.05.67.05,1,.07a1.92,1.92,0,0,1,.86.15,1.52,1.52,0,0,1,.91,1.19,2.06,2.06,0,0,0,1.47,1.72,2,2,0,0,0,1.11,0c.32-.11.65-.19,1-.33C195.46,226.32,195.13,226.32,194.79,226.3Zm11.67,5.57c-.11-.32-.19-.65-.32-1,0,.34,0,.68-.07,1a2.07,2.07,0,0,1-.15.86,1.54,1.54,0,0,1-1.19.91,2,2,0,0,0-1.72,1.47,1.9,1.9,0,0,0,0,1.11c.11.32.19.64.33,1,0-.34,0-.67.07-1a1.87,1.87,0,0,1,.17-.85,1.55,1.55,0,0,1,1.24-.87,2,2,0,0,0,1.68-1.53A2,2,0,0,0,206.46,231.87Zm9.85-34.38a3.19,3.19,0,0,0-.11.33,1.89,1.89,0,0,0,0,1.11c.11.33.19.65.32,1,0-.34,0-.68.08-1a1.86,1.86,0,0,1,.17-.84,1.69,1.69,0,0,1,.31-.43ZM192.53,199c-.11-.32-.19-.65-.33-1,0,.34,0,.68-.07,1a1.92,1.92,0,0,1-.15.86,1.54,1.54,0,0,1-1.19.91,2,2,0,0,0-1.72,1.47,2,2,0,0,0,0,1.11c.11.32.19.64.33,1,0-.34,0-.68.07-1a1.87,1.87,0,0,1,.17-.85,1.55,1.55,0,0,1,1.24-.87,2,2,0,0,0,1.68-1.53A2.12,2.12,0,0,0,192.53,199Zm-9.66,35.43c-.11-.32-.19-.64-.32-1-.05.34-.05.68-.08,1a1.9,1.9,0,0,1-.14.86,1.52,1.52,0,0,1-1.19.91,1,1,0,0,0-.24,0l1.16.47a2,2,0,0,0,.81-2.34ZM207,209.15a1.82,1.82,0,0,1-.72.48,1.56,1.56,0,0,1-1.49-.26,2,2,0,0,0-2.27-.11,2,2,0,0,0-.73.83c-.15.3-.32.59-.45.91.27-.21.51-.45.77-.67a1.82,1.82,0,0,1,.71-.5,1.5,1.5,0,0,1,1.48.2,2,2,0,0,0,2.26.17,1.9,1.9,0,0,0,.76-.81c.15-.3.32-.59.45-.9C207.51,208.69,207.27,208.93,207,209.15Zm-24.87,4.53a1.7,1.7,0,0,1-.72.47,1.54,1.54,0,0,1-1.49-.25,2,2,0,0,0-2.27-.11,2,2,0,0,0-.73.83c-.15.3-.32.59-.45.9.27-.2.51-.44.76-.66a1.92,1.92,0,0,1,.72-.5,1.52,1.52,0,0,1,1.48.19,2,2,0,0,0,2.26.18,1.9,1.9,0,0,0,.76-.81c.15-.3.32-.59.45-.91C182.63,213.22,182.4,213.46,182.14,213.68Z" style="fill:#fff"></path><path d="M199.54,223.22c2-5.46,4.08-10.9,5.9-16.43,1-3.15,2.08-6.29,3.09-9.44,0-.12-.16-.2-.21-.08-2.25,5.39-4.49,10.81-6.48,16.31s-4,10.93-5.94,16.42q-1.64,4.69-3,9.47c0,.06.08.1.11,0C195.46,234.18,197.51,228.71,199.54,223.22Z" style="fill:#263238"></path><path d="M182.58,236.94l-1.75-.7c-3.29-1.32-6.65-2.75-9.8-4.19-.41-.18-.81-.36-1.2-.55-.63-.29-1.27-.59-1.88-.89l-.91-.45-.33-.16-1-.48c-1.25-.64-2.43-1.28-3.53-1.91l-.76-.45a27.63,27.63,0,0,1-4.81-3.45c-.14-.13-.27-.27-.39-.4s-.25-.26-.36-.38c-7-8.2-18.86-49.55-22-69.49,0-.23-.07-.46-.11-.69,0-.05,0-.09,0-.15-.21-1.51-.37-3.38-.48-5.4v0c-.15-9.87,4.57-11.28,10.15-6.72C156.58,171.85,176.46,223.61,182.58,236.94Z" style="opacity:0.1"></path><path d="M167.09,249l-91,.26c.07-2,13-59.05,23.34-80.2,13.21-27.12,20-29.3,24.09-30.77,5.21-1.87,14.47-.94,16.68.1,2.49,1.16,10.43,15,13.28,25.21C159.16,184.07,168.37,247.79,167.09,249Z" style="fill:#FFC727"></path><path d="M133.36,241.16a1.7,1.7,0,0,1-.72.47,1.54,1.54,0,0,1-1.49-.25,2,2,0,0,0-2.27-.11,2,2,0,0,0-.73.83c-.15.3-.32.59-.45.91.27-.21.51-.45.77-.67a1.82,1.82,0,0,1,.71-.5,1.52,1.52,0,0,1,1.48.19,2,2,0,0,0,2.26.18,1.9,1.9,0,0,0,.76-.81c.15-.3.32-.59.45-.9C133.86,240.7,133.62,240.94,133.36,241.16Zm13.12-27.92a1.72,1.72,0,0,1-.72.48,1.56,1.56,0,0,1-1.49-.26,2,2,0,0,0-3,.72c-.15.31-.32.59-.45.91.27-.2.51-.44.76-.66a2.08,2.08,0,0,1,.72-.51,1.53,1.53,0,0,1,1.48.2,2,2,0,0,0,2.26.18,2,2,0,0,0,.76-.81c.15-.3.32-.59.45-.91C147,212.79,146.74,213,146.48,213.24Zm-42.21,9a1.86,1.86,0,0,1-.72.48,1.54,1.54,0,0,1-1.49-.26,2,2,0,0,0-2.27-.1,2,2,0,0,0-.74.82c-.15.31-.32.59-.45.91.28-.2.51-.44.77-.66a2.15,2.15,0,0,1,.71-.51,1.55,1.55,0,0,1,1.49.2,2,2,0,0,0,2.25.18,2,2,0,0,0,.77-.81c.14-.3.32-.59.45-.91C104.76,221.82,104.52,222.05,104.27,222.27Zm13.55-37.78a1.86,1.86,0,0,1-.72.48,1.54,1.54,0,0,1-1.49-.26,2,2,0,0,0-2.27-.1,2,2,0,0,0-.74.82c-.15.31-.32.59-.45.91.28-.2.51-.44.77-.66a2.15,2.15,0,0,1,.71-.51,1.55,1.55,0,0,1,1.49.2,2,2,0,0,0,2.25.18,2,2,0,0,0,.77-.81c.14-.3.32-.59.45-.91C118.31,184,118.07,184.27,117.82,184.49Zm-5.9-26.73a1.86,1.86,0,0,1-.72.48,1.54,1.54,0,0,1-1.49-.26,2,2,0,0,0-2.27-.1,2,2,0,0,0-.74.82c-.15.31-.32.59-.45.91.28-.2.51-.44.77-.66a2,2,0,0,1,.71-.51,1.55,1.55,0,0,1,1.49.2,2,2,0,0,0,2.25.18,2.06,2.06,0,0,0,.77-.81c.14-.3.32-.59.45-.91C112.41,157.31,112.17,157.54,111.92,157.76Zm26.58-1.25a2,2,0,0,1-.72.48,1.56,1.56,0,0,1-1.49-.26,2,2,0,0,0-2.27-.11,2,2,0,0,0-.74.83c-.15.3-.32.59-.45.91.28-.21.51-.45.77-.67a1.82,1.82,0,0,1,.71-.5,1.53,1.53,0,0,1,1.48.2,2,2,0,0,0,2.26.17,1.9,1.9,0,0,0,.76-.81c.15-.3.32-.58.45-.9C139,156.05,138.75,156.29,138.5,156.51Zm-27.33,82.76c-.11-.32-.19-.65-.32-1,0,.34,0,.67-.08,1a1.92,1.92,0,0,1-.14.86,1.56,1.56,0,0,1-1.19.91,2,2,0,0,0-1.72,1.47,1.9,1.9,0,0,0,0,1.11c.11.32.19.64.32,1,.05-.34.05-.67.08-1a1.9,1.9,0,0,1,.17-.85,1.57,1.57,0,0,1,1.24-.87,2,2,0,0,0,1.68-1.53A2,2,0,0,0,111.17,239.27Zm-9.91-67c-.11-.32-.19-.65-.33-1-.05.34,0,.67-.07,1a1.79,1.79,0,0,1-.15.86,1.54,1.54,0,0,1-1.19.91,2,2,0,0,0-1.72,1.47,1.9,1.9,0,0,0,0,1.11c.11.32.19.64.32,1,0-.34,0-.67.08-1a1.77,1.77,0,0,1,.17-.85,1.54,1.54,0,0,1,1.23-.87,2,2,0,0,0,1.68-1.53A2.12,2.12,0,0,0,101.26,172.25ZM146,175.41c-.11-.32-.19-.65-.32-1,0,.34,0,.67-.08,1a1.92,1.92,0,0,1-.14.86,1.54,1.54,0,0,1-1.19.91,2,2,0,0,0-1.72,1.47,1.89,1.89,0,0,0,0,1.11c.11.32.19.65.32,1,.05-.34.05-.67.08-1a1.77,1.77,0,0,1,.17-.85,1.57,1.57,0,0,1,1.23-.87,2,2,0,0,0,1.68-1.53A1.93,1.93,0,0,0,146,175.41ZM88.07,209.58c-.11-.32-.19-.64-.32-1,0,.34,0,.67-.08,1a1.92,1.92,0,0,1-.14.86,1.55,1.55,0,0,1-1.19.91,2.15,2.15,0,0,0-1.3.68l-.45,1.65h0a1.68,1.68,0,0,0,.06.24c.11.32.19.65.32,1,0-.34,0-.67.08-1a1.71,1.71,0,0,1,.17-.84,1.55,1.55,0,0,1,1.23-.88,2,2,0,0,0,1.68-1.53A1.93,1.93,0,0,0,88.07,209.58Zm77.77,31.79c-.11-.32-.19-.64-.32-1-.05.34-.05.68-.07,1a2.12,2.12,0,0,1-.15.87,1.54,1.54,0,0,1-1.19.91,2,2,0,0,0-1.69,2.58c.11.32.19.64.33,1,.05-.34.05-.68.07-1a1.87,1.87,0,0,1,.17-.85,1.55,1.55,0,0,1,1.24-.87,2,2,0,0,0,1.61-2.64Zm-46.16-37.88c-.11-.32-.19-.64-.33-1,0,.34,0,.68-.07,1a1.83,1.83,0,0,1-.15.87,1.54,1.54,0,0,1-1.19.91,2,2,0,0,0-1.72,1.46,1.93,1.93,0,0,0,0,1.12c.11.32.19.64.32,1,0-.34,0-.68.08-1a1.75,1.75,0,0,1,.17-.85,1.52,1.52,0,0,1,1.23-.87,2,2,0,0,0,1.68-1.53A2.16,2.16,0,0,0,119.68,203.49Zm2.74-60.19c-.11-.32-.19-.65-.33-1,0,.35,0,.68-.07,1a1.79,1.79,0,0,1-.15.86,1.54,1.54,0,0,1-1.19.91,2,2,0,0,0-1.72,1.47,1.9,1.9,0,0,0,0,1.11c.11.32.19.64.32,1,.05-.34.05-.67.07-1a1.75,1.75,0,0,1,.18-.85,1.52,1.52,0,0,1,1.23-.87,2,2,0,0,0,1.68-1.53A2.12,2.12,0,0,0,122.42,143.3Zm36.79,47.84a1.54,1.54,0,0,1-1.43-.22,2,2,0,0,0-3,.63c-.14.31-.32.59-.45.91a9.88,9.88,0,0,0,.77-.66,2,2,0,0,1,.72-.48,1.56,1.56,0,0,1,1.49.26,2.06,2.06,0,0,0,2,.24C159.28,191.59,159.24,191.37,159.21,191.14ZM162,207.85c-.22.07-.45.14-.66.23a5.83,5.83,0,0,0,.71.06C162,208.05,162,208,162,207.85Zm-25.34-12.13a1.87,1.87,0,0,1-.85-.17,1.55,1.55,0,0,1-.87-1.24,2,2,0,0,0-2.64-1.61c-.32.11-.64.19-1,.32.34,0,.68,0,1,.07a2,2,0,0,1,.86.15,1.5,1.5,0,0,1,.91,1.19,2.05,2.05,0,0,0,1.47,1.72,2,2,0,0,0,1.12,0c.32-.11.64-.19,1-.33C137.33,195.74,137,195.75,136.66,195.72Zm-47,40.55a1.87,1.87,0,0,1-.85-.17,1.55,1.55,0,0,1-.87-1.24,2,2,0,0,0-2.64-1.61c-.32.11-.64.19-1,.32.34.05.68.05,1,.07a2,2,0,0,1,.86.15,1.53,1.53,0,0,1,.92,1.19,2,2,0,0,0,2.58,1.69c.32-.11.64-.19,1-.33C90.32,236.29,90,236.29,89.65,236.27ZM124.3,226a1.87,1.87,0,0,1-.85-.17,1.55,1.55,0,0,1-.87-1.24,2,2,0,0,0-1.53-1.68,2.06,2.06,0,0,0-1.11.07,9,9,0,0,0-1,.32c.34.05.68.05,1,.07a1.94,1.94,0,0,1,.87.15,1.54,1.54,0,0,1,.91,1.19,2,2,0,0,0,1.47,1.72,2,2,0,0,0,1.11,0c.32-.11.64-.19,1-.33C125,226,124.63,226,124.3,226Zm-23.2-25.1a1.77,1.77,0,0,1-.85-.17,1.54,1.54,0,0,1-.87-1.23,2,2,0,0,0-1.53-1.68,1.93,1.93,0,0,0-1.1.06c-.32.11-.65.19-1,.32.34.06.67.05,1,.08a1.79,1.79,0,0,1,.86.15,1.54,1.54,0,0,1,.91,1.18,2.05,2.05,0,0,0,1.47,1.73,2,2,0,0,0,1.11,0c.32-.11.64-.19,1-.32C101.77,200.92,101.44,200.92,101.1,200.89Zm35.05-63.34a2,2,0,0,0,2.11.61l.52-.17A24.26,24.26,0,0,0,136.15,137.55Zm13.7,95.64A1.71,1.71,0,0,1,149,233a1.53,1.53,0,0,1-.88-1.23,2,2,0,0,0-1.53-1.68,2.12,2.12,0,0,0-1.1.06c-.32.11-.64.19-1,.33.34,0,.67,0,1,.07a1.92,1.92,0,0,1,.86.15,1.52,1.52,0,0,1,.91,1.19,2.06,2.06,0,0,0,1.47,1.72,1.89,1.89,0,0,0,1.11,0c.32-.1.65-.19,1-.32C150.52,233.21,150.19,233.21,149.85,233.19Zm-21-60.95a1.87,1.87,0,0,1-.85-.17,1.55,1.55,0,0,1-.87-1.24,2,2,0,0,0-1.53-1.68,2,2,0,0,0-1.1.07c-.32.11-.65.19-1,.32.35.05.68.05,1,.07a2.07,2.07,0,0,1,.86.15,1.54,1.54,0,0,1,.91,1.19,2,2,0,0,0,1.47,1.72,1.9,1.9,0,0,0,1.11,0c.32-.11.64-.19,1-.33C129.48,172.26,129.15,172.27,128.81,172.24Z" style="fill:#fff"></path><path d="M140.72,160.38c.62,7.14,1.1,14.28,1.56,21.42s.82,14.3,1.23,21.44.68,14.3.94,21.46l.36,10.73c.08,3.58.2,7.16.23,10.74-.32-3.57-.56-7.14-.85-10.71l-.72-10.71c-.46-7.15-.81-14.3-1.22-21.44s-.68-14.3-.94-21.46S140.81,167.54,140.72,160.38Z" style="fill:#263238"></path><path d="M147.11,182.05a1.34,1.34,0,1,1-1.43-1.24A1.34,1.34,0,0,1,147.11,182.05Z" style="fill:#263238"></path><path d="M147.53,195.88a1.34,1.34,0,0,1-1.24,1.43,1.36,1.36,0,0,1-1.44-1.25,1.34,1.34,0,1,1,2.68-.18Z" style="fill:#263238"></path><path d="M148,209.7a1.34,1.34,0,1,1-1.43-1.24A1.34,1.34,0,0,1,148,209.7Z" style="fill:#263238"></path><path d="M148.37,223.53a1.34,1.34,0,0,1-1.24,1.43,1.36,1.36,0,0,1-1.44-1.25,1.34,1.34,0,1,1,2.68-.18Z" style="fill:#263238"></path><path d="M148.79,237.35a1.34,1.34,0,0,1-1.24,1.43,1.34,1.34,0,1,1,1.24-1.43Z" style="fill:#263238"></path><path d="M123.78,159.13c-8,16.27-36.07,51.15-46.55,58.57-6.37,4.51-26,3.53-26.21-9.21s58.27-63.92,67.75-68.32C128.81,135.49,132.48,141.36,123.78,159.13Z" style="fill:#FFC727"></path><path d="M85.59,210.06l7.82-9.49c2.6-3.16,5.23-6.3,7.79-9.49s5.15-6.36,7.71-9.56c1.28-1.6,2.56-3.2,3.81-4.82s2.5-3.24,3.79-4.84c-2.2,3.46-4.55,6.83-7,10.13s-5,6.52-7.56,9.72-5.25,6.3-8,9.36S88.49,207.16,85.59,210.06Z" style="fill:#263238"></path><path d="M109.29,181.66a33.35,33.35,0,0,1,5.81-5.58,29.57,29.57,0,0,1-2.73,3A27.57,27.57,0,0,1,109.29,181.66Z" style="fill:#263238"></path><path d="M61.5,192.69a1.82,1.82,0,0,1-.72.47,1.53,1.53,0,0,1-.73.07l-.57.68a2,2,0,0,0,1.57-.17,1.9,1.9,0,0,0,.76-.81c.15-.3.32-.59.45-.91C62,192.23,61.75,192.47,61.5,192.69Zm27.12-5.83a1.79,1.79,0,0,1-.72.48,1.56,1.56,0,0,1-1.49-.26,2,2,0,0,0-3,.72c-.15.31-.32.59-.46.91a9.88,9.88,0,0,0,.77-.66,2,2,0,0,1,.71-.51,1.55,1.55,0,0,1,1.49.2,2,2,0,0,0,2.26.18,2,2,0,0,0,.76-.81c.15-.31.32-.59.45-.91C89.11,186.4,88.88,186.64,88.62,186.86Zm23.3-29.1a1.86,1.86,0,0,1-.72.48,1.54,1.54,0,0,1-1.49-.26,2,2,0,0,0-2.27-.1,2,2,0,0,0-.74.82c-.15.31-.32.59-.45.91.28-.2.51-.44.77-.66a2,2,0,0,1,.71-.51,1.55,1.55,0,0,1,1.49.2,2,2,0,0,0,2.25.18,2.06,2.06,0,0,0,.77-.81c.14-.3.32-.59.45-.91C112.41,157.31,112.17,157.54,111.92,157.76ZM69.35,215.42c-.11-.32-.19-.64-.32-1,0,.34,0,.68-.07,1a2,2,0,0,1-.15.86,1.5,1.5,0,0,1-1.19.91,2.05,2.05,0,0,0-1.72,1.47,2,2,0,0,0,0,1.12l.09.29h.3c0-.12,0-.23,0-.35a1.87,1.87,0,0,1,.17-.85,1.55,1.55,0,0,1,1.24-.87,2,2,0,0,0,1.61-2.64Zm1.48-34a5.66,5.66,0,0,0,.2.58,8.12,8.12,0,0,0,.07-.85Zm2.36-2.38a2,2,0,0,0,.83-.83C73.74,178.51,73.46,178.79,73.19,179.07Zm28.07-6.82c-.11-.32-.19-.65-.33-1-.05.34,0,.67-.07,1a1.79,1.79,0,0,1-.15.86,1.54,1.54,0,0,1-1.19.91,2,2,0,0,0-1.72,1.47,1.9,1.9,0,0,0,0,1.11c.11.32.19.64.32,1,0-.34,0-.67.08-1a1.77,1.77,0,0,1,.17-.85,1.54,1.54,0,0,1,1.23-.87,2,2,0,0,0,1.68-1.53A2.12,2.12,0,0,0,101.26,172.25Zm21.16-28.95c-.11-.32-.19-.65-.33-1,0,.35,0,.68-.07,1a1.79,1.79,0,0,1-.15.86,1.54,1.54,0,0,1-1.19.91,2,2,0,0,0-1.72,1.47,1.9,1.9,0,0,0,0,1.11c.11.32.19.64.32,1,.05-.34.05-.67.07-1a1.75,1.75,0,0,1,.18-.85,1.52,1.52,0,0,1,1.23-.87,2,2,0,0,0,1.68-1.53A2.12,2.12,0,0,0,122.42,143.3ZM51.55,209a1.64,1.64,0,0,1-.51-.05,4.56,4.56,0,0,0,0,.54,2,2,0,0,0,.52-.09c.32-.11.65-.19,1-.32C52.22,209,51.89,209,51.55,209Zm22.63-5.11a1.75,1.75,0,0,1-.85-.17,1.55,1.55,0,0,1-.87-1.23,2,2,0,0,0-1.53-1.68,2,2,0,0,0-1.11.06c-.32.11-.64.19-1,.32.34,0,.68,0,1,.08a1.9,1.9,0,0,1,.86.14,1.52,1.52,0,0,1,.91,1.19,2,2,0,0,0,1.47,1.72,1.93,1.93,0,0,0,1.12,0c.32-.11.64-.19,1-.32C74.85,203.88,74.51,203.88,74.18,203.85Zm12.33-35.94a1.9,1.9,0,0,1-.85-.17,1.39,1.39,0,0,1-.39-.28l-.54.5a1.85,1.85,0,0,0,.72.38,2,2,0,0,0,1.11,0c.32-.11.64-.19,1-.33C87.18,167.93,86.85,167.93,86.51,167.91Zm9.28,30.28.34,0,.19-.23Z" style="fill:#fff"></path><path d="M141.72,159c-5.35.94-13.85-8.13-17-15.22-.22-.49.78-5.38,1.72-11.39.56-3.65,1.1-7.73,1.34-11.49,0-.77,22.1,7.29,22.1,7.29a62.65,62.65,0,0,0-3.09,14.28,9.76,9.76,0,0,0,.06,1.55c0,.08,0,.16,0,.26C147.16,147.24,146.88,158.09,141.72,159Z" style="fill:#eb9481"></path><path d="M129.18,121.1c.64,6.42,3.43,22,15.39,23.15a12.87,12.87,0,0,0,2.31,0,2.09,2.09,0,0,0,0-.26,8.63,8.63,0,0,1-.06-1.54,62.49,62.49,0,0,1,3.09-14.29S134,122.37,129.18,121.1Z" style="fill:#263238"></path><path d="M132,90.21c-4.64,7.27-7.3,31.71-3.36,38.6,5.71,10,18.4,14.81,27.32,6.8,8.66-7.76,11.58-39.67,6.87-46.29C155.89,79.57,138.87,79.47,132,90.21Z" style="fill:#eb9481"></path><path d="M149.52,111.23c0-.07-.13.07-.14.13-.07,1.66-.43,3.54-1.89,4-.05,0-.05.1,0,.09C149.25,115.31,149.69,112.81,149.52,111.23Z" style="fill:#263238"></path><path d="M148.24,109.38c-2.51-.41-3.12,4.9-.79,5.28S150.35,109.73,148.24,109.38Z" style="fill:#263238"></path><path d="M158.28,112.39c0-.07.11.09.1.16-.23,1.63-.24,3.55,1.11,4.28,0,0,0,.1,0,.09C157.77,116.44,157.81,113.9,158.28,112.39Z" style="fill:#263238"></path><path d="M159.88,110.84c2.54.12,2.13,5.45-.23,5.34S157.75,110.75,159.88,110.84Z" style="fill:#263238"></path><path d="M146.39,104.89a18.17,18.17,0,0,0,2.09-.09,3.35,3.35,0,0,0,2.12-.52,1.18,1.18,0,0,0,.21-1.37,2.61,2.61,0,0,0-2.49-1.1,3.86,3.86,0,0,0-2.66,1A1.22,1.22,0,0,0,146.39,104.89Z" style="fill:#a6a6a6"></path><path d="M162.64,107.26a19.46,19.46,0,0,1-1.95-.8,3.42,3.42,0,0,1-1.83-1.21,1.17,1.17,0,0,1,.22-1.37,2.57,2.57,0,0,1,2.7-.19,4,4,0,0,1,2.2,1.87A1.19,1.19,0,0,1,162.64,107.26Z" style="fill:#a6a6a6"></path><path d="M145.15,126.18c.33.43.64,1,1.2,1.13a4,4,0,0,0,1.74-.2.06.06,0,0,1,0,.1,2.06,2.06,0,0,1-2.09.64,1.76,1.76,0,0,1-1.06-1.61C145,126.14,145.1,126.12,145.15,126.18Z" style="fill:#263238"></path><path d="M147.36,121.46a5.45,5.45,0,0,0,3.27,3,6.49,6.49,0,0,0,1.91.33,1.52,1.52,0,0,0,.37,0h.35a.39.39,0,0,0,.36-.33h0a1,1,0,0,0,0-.17h0v-.15c.18-1.26.28-3.2.28-3.2.42.29,2.54,1.63,2.58,1,.32-5.52.67-11.65-.12-17.21a.15.15,0,0,0-.29,0c-.51,5.29-.12,10.64-.55,16a9.13,9.13,0,0,0-2.42-1.12c-.18,0-.14,3.75-.26,4.31l0,.06c-2.06,0-3.51-.82-5.32-2.49C147.42,121.23,147.28,121.32,147.36,121.46Z" style="fill:#263238"></path><path d="M151.9,124a6.31,6.31,0,0,1-2.77,1.74,2.75,2.75,0,0,1-1.74-.1c-1.21-.51-1.1-1.72-.76-2.72a7.72,7.72,0,0,1,.75-1.51A8.18,8.18,0,0,0,151.9,124Z" style="fill:#263238"></path><path d="M149.13,125.75a2.75,2.75,0,0,1-1.74-.1c-1.21-.51-1.1-1.72-.76-2.72A3,3,0,0,1,149.13,125.75Z" style="fill:#ff98b9"></path><g style="opacity:0.2"><path d="M154.45,99.56a19.27,19.27,0,0,0,2.51.52c.86.08,1.73,0,2.59.1a14,14,0,0,1,4.59,1.65c.13.06.1.15,0,.09a12,12,0,0,0-4.93-1.36,15.23,15.23,0,0,1-4.2-.49c-3.12-.89-6.3-1.37-9.44-.27,0,0,0,0,0,0A15.15,15.15,0,0,1,154.45,99.56Z"></path><path d="M154.71,97.28a17.2,17.2,0,0,0,2.37.5c.82.08,1.64,0,2.46.09a13.09,13.09,0,0,1,4.35,1.57c.13.06.09.14,0,.08a11.61,11.61,0,0,0-4.67-1.29,14.15,14.15,0,0,1-4-.46c-2.95-.85-6-1.3-8.95-.26,0,0,0,0,0,0A14.63,14.63,0,0,1,154.71,97.28Z"></path></g><path d="M165.47,99.12c-9.23,3.93-18.65-6.71-18.65-6.71a9,9,0,0,1-10.07,3.78s-4.35,13.4-8,12.65c-5.51-1.15-3.45-20.19-1-23.52S135.15,82,135.15,82s.92-2.78,4.85-4.7c4.35-2.12,16.57,4.37,16.57,4.37a12.29,12.29,0,0,1,4.24-3.82,3.47,3.47,0,0,1,4.82,1.44,8.25,8.25,0,0,0-2,3.11c-1.45,3.89,1.83,4.54,2.53.9a5.74,5.74,0,0,0-.52-4c2.1-2.06,4.9-2.3,6.25-.7C174.33,81.48,173.15,95.86,165.47,99.12Z" style="fill:#a6a6a6"></path><path d="M144.25,119.53a7,7,0,1,1,8.86-6.57h0a7,7,0,0,1-8.86,6.57ZM147.76,107a6.05,6.05,0,1,0,4.42,6A6,6,0,0,0,147.76,107Z" style="fill:#ebebeb"></path><path d="M160.1,121.93c-2.58-.72-4.17-4-3.61-7.61a8.35,8.35,0,0,1,2.22-4.6,4.36,4.36,0,0,1,7.36,1.16,8.43,8.43,0,0,1,.7,5.05c-.6,3.81-3.39,6.54-6.22,6.1Zm2.81-12.71-.34-.07a3.71,3.71,0,0,0-3.2,1.23,7.43,7.43,0,0,0-2,4.08c-.51,3.3,1,6.28,3.28,6.64s4.64-2,5.15-5.31a7.37,7.37,0,0,0-.61-4.49A3.87,3.87,0,0,0,162.91,109.22Z" style="fill:#ebebeb"></path><path d="M152.76,113.72l-.49-.8c1.19-.71,3.79-1.51,5.2.56l-.78.52C155.44,112.14,152.87,113.66,152.76,113.72Z" style="fill:#ebebeb"></path><path d="M121.73,110.67l-.75-.55c.26-.35,2.58-3.43,4.69-3.44s14.16,3.09,14.67,3.22l-.23.91c-3.49-.89-12.91-3.21-14.44-3.2S122.35,109.82,121.73,110.67Z" style="fill:#ebebeb"></path><path d="M131.27,110.58s-3-9-6.76-8.1-2.91,13,.51,15.57a3.91,3.91,0,0,0,5.79-.65Z" style="fill:#eb9481"></path><path d="M124.83,105.93c-.06,0-.09.06,0,.1,2.38,1.93,3.09,5,3.35,8-.51-1.28-1.45-2.17-3-1.56-.09,0,0,.16,0,.17a2.5,2.5,0,0,1,2.4,1.65,13.49,13.49,0,0,1,.66,2.61c.06.29.52.28.51,0v-.07C129.72,113.17,128.41,107.37,124.83,105.93Z" style="fill:#263238"></path><path d="M146.84,143.9l-6.6,13.28L125.5,138l-5.17,5.14s13.4,29.48,13.62,28.24L140.51,160l7.06,9.12,1.33-20.91Z" style="fill:#FFC727"></path><path d="M148.79,158.8c.11-3.46.31-6.94.27-10.4,0-.12-.18-.19-.22-.05-1,3.25-1.32,16.48-1.64,19.63l0,0c-.29-.4-6.58-8.06-6.66-8-1.35,1.77-6.16,10.05-6.51,10.81-2.12-4.69-11.23-23.22-13.84-27.71a.11.11,0,1,0-.2.09c1.8,4.9,13.52,29.34,13.73,29.3a137.39,137.39,0,0,0,6.87-12c1,1.63,7.3,10.2,7.37,9.69A113,113,0,0,0,148.79,158.8Z" style="fill:#263238"></path><path d="M74.66,122.13c4.51-9.53,11.71-22.55,16.19-24.34,4.7-1.88,21.5-7.83,25.84-8s19.48,5.18,22.1,8c2.11,2.3-2,7.29-10.72,6.08-8.15-1.13-10-1.8-12.42-1.55s-9.72,5.54-9.29,9c.26,2.07,4.84,5.83,8.56,5.38s6.14-3.94,10.82-5.81,11.13.56,11,2.46-2.6,2-7.86,7c-3.38,3.2-6,9.75-13,14.88-3.52,2.57-10.62,10.14-10.62,10.14Z" style="fill:#eb9481"></path><path d="M90.85,97.79c4.73-4,15.66-10.4,24.66-11,6.08-.38,21.91,14.59,20.24,18s-4.86,2.41-9.41.36c-1.66-.74-9.74-6.87-11.89-5.45-3.09,2-8.87,10.54-8.87,10.54Z" style="fill:#eb9481"></path><path d="M135.72,103.28c-1.1-4.55-5.54-8.18-10.08-11.38-.07-.05-.15.06-.08.11,1.16.81,8.19,7.18,10.09,11.31C135.67,103.37,135.73,103.33,135.72,103.28Z" style="fill:#263238"></path><path d="M90.85,97.79c4.73-4,15.66-10.4,24.66-11,6.08-.38,17.2,15.91,15.54,19.31s-6.34,2.24-10.86-1.11c-1.46-1.09-5.73-6.68-7.88-5.26-3.1,2-10.68,7.15-10.68,7.15Z" style="fill:#eb9481"></path><path d="M106.09,103.69c.76-.63,1-.85,1.79-1.46s1.54-1.21,2.34-1.76a7.53,7.53,0,0,1,2.23-1.24,3.82,3.82,0,0,1,2.38.26c1.71.72,2.94,2.33,4.17,3.66s4.33,4.11,7.06,4.66a5.39,5.39,0,0,0,2.26.09,3.57,3.57,0,0,0,1.57-.6c1.75-1.59,1-4.26.05-6.29a35.22,35.22,0,0,0-7.83-9.93c-.74-.71-1.49-1.39-2.25-2.08a8.2,8.2,0,0,0-2.92-1.92c-1.83-.59-5.43.33-6.54.6-.08,0-.1-.11,0-.13,1.35-.35,4.87-1.76,7.79-.68a9.77,9.77,0,0,1,2.76,2c.89.77,1.76,1.57,2.6,2.39a42.81,42.81,0,0,1,4.6,5.11,18.46,18.46,0,0,1,3.25,5.82,5.4,5.4,0,0,1-1.34,5.39,4.76,4.76,0,0,1-3.89.73,9.21,9.21,0,0,1-2.33-.76,39.62,39.62,0,0,1-4.61-3.08c-1.41-1.15-2.51-2.68-4-3.7a3.22,3.22,0,0,0-2.45-.6,8.75,8.75,0,0,0-2.3,1.07,26.2,26.2,0,0,0-4.11,2.61C106,104.14,105.78,104,106.09,103.69Z" style="fill:#263238"></path><path d="M87.13,101.39c1.91-2,6.94-11.14,9.76-13.54s14.67-10,18.55-8.34c4.87,2.15-3.25,9.59-7.07,12.51s-5.37,9.42-5.37,9.42Z" style="fill:#eb9481"></path><path d="M114,87c-1.31.9-2.56,2-3.77,3a30.79,30.79,0,0,0-3.43,3,14,14,0,0,0-2.29,3.84c-.28.69-.53,1.38-.75,2.08s-.42,1.57-.68,2.33c0,.08.09.13.12,0a34.7,34.7,0,0,1,1.86-4,18.65,18.65,0,0,1,2.58-3.77c2-2.27,4.47-4.09,6.5-6.34C114.23,87,114.1,86.9,114,87Z" style="fill:#263238"></path><path d="M113.07,116.7a6.61,6.61,0,0,0,4.74-1.33c1.25-.84,2.46-1.77,3.72-2.6a15.74,15.74,0,0,1,4-2.09,18,18,0,0,1,5-.57,9.87,9.87,0,0,1,4.76,1c1.2.65,2.41,2,1.67,3.44a5.87,5.87,0,0,1-1.46,1.68,14.92,14.92,0,0,1-1.78,1.29c-1.25.81-2.57,1.51-3.74,2.43a23.2,23.2,0,0,0-3.87,4.56c-.44.58-3.28,4.6-4.35,6a24.4,24.4,0,0,1-3,3.2,35.28,35.28,0,0,1-3.36,2.46,20.41,20.41,0,0,0-3.52,2.83s-.12,0-.09-.08c1.41-2.26,3.78-3.69,5.94-5.12,2.8-1.85,9.32-11.83,10.47-13.17,1.93-2.23,4.72-3.2,6.89-5.12.49-.44,1.25-1.07,1.28-1.8a2.07,2.07,0,0,0-1.15-1.63,8.33,8.33,0,0,0-4.67-.8,21.14,21.14,0,0,0-4.82.54,15.63,15.63,0,0,0-3.92,1.8c-1.4.86-2.75,1.76-4.2,2.52a6.61,6.61,0,0,1-4.62.78C113,116.8,113,116.69,113.07,116.7Z" style="fill:#263238"></path><path d="M136.3,96.48c-1.06-.59-2.1-1.22-3.16-1.78,0,0,0-.06,0,0,1.28.58,2.59,1.08,3.87,1.65a4.13,4.13,0,0,1,2.43,2.2,3,3,0,0,1-.77,2.94,8.2,8.2,0,0,1-2.94,1.78,0,0,0,1,1,0-.09c1.61-.82,4.14-2.53,3-4.68A5.53,5.53,0,0,0,136.3,96.48Z" style="fill:#263238"></path><path d="M130.49,106.66a6.73,6.73,0,0,0,3.72-.45,2.71,2.71,0,0,0,1.16-1.09,2.64,2.64,0,0,0,.29-.83,1.35,1.35,0,0,0-.07-.89c-.05-.07.07-.12.08,0a4.84,4.84,0,0,0,.18.49,2.14,2.14,0,0,1,.07.43,2.09,2.09,0,0,1-.12.86,2.75,2.75,0,0,1-1.17,1.45,4.65,4.65,0,0,1-4.16.17C130.41,106.74,130.44,106.66,130.49,106.66Z" style="fill:#263238"></path><path d="M105.17,145.5c-3.19,9.55-26.32,60.16-32.4,67.15s-19.92,7.85-23.08-5.54,20.21-75.34,25-85C77.31,116.77,106.33,142,105.17,145.5Z" style="fill:#eb9481"></path><path d="M109.29,152.26,70.45,126.93s-20.21,57.88-21.47,76c-.91,13,14.17,23.53,27.42,6.6S109.29,152.26,109.29,152.26Z" style="fill:#FFC727"></path><path d="M61.5,192.69a1.82,1.82,0,0,1-.72.47,1.53,1.53,0,0,1-1.49-.25A2,2,0,0,0,57,192.8a2,2,0,0,0-.74.83c-.15.3-.32.59-.45.9.28-.2.51-.44.77-.66a1.89,1.89,0,0,1,.71-.5,1.55,1.55,0,0,1,1.49.19,2,2,0,0,0,2.25.18,1.9,1.9,0,0,0,.76-.81c.15-.3.32-.59.45-.91C62,192.23,61.75,192.47,61.5,192.69ZM86.78,140.3a1.76,1.76,0,0,1-.72.47,1.54,1.54,0,0,1-1.49-.25,2,2,0,0,0-2.27-.11,2,2,0,0,0-.73.83c-.15.3-.32.59-.45.9.27-.2.51-.44.76-.66a1.92,1.92,0,0,1,.72-.5,1.53,1.53,0,0,1,1.48.19,2,2,0,0,0,2.26.18,1.9,1.9,0,0,0,.76-.81c.15-.3.32-.59.45-.91C87.27,139.84,87,140.08,86.78,140.3ZM73.06,156.51a2,2,0,0,1-.72.48,1.56,1.56,0,0,1-1.49-.26,2,2,0,0,0-2.27-.11,2,2,0,0,0-.73.83c-.15.3-.33.59-.46.91.28-.21.51-.45.77-.67a2,2,0,0,1,.71-.5,1.52,1.52,0,0,1,1.49.2,2,2,0,0,0,2.25.17,1.87,1.87,0,0,0,.77-.81c.15-.3.32-.59.45-.9C73.55,156.05,73.32,156.29,73.06,156.51Zm15.56,30.35a1.79,1.79,0,0,1-.72.48,1.56,1.56,0,0,1-1.49-.26,2,2,0,0,0-3,.72c-.15.31-.32.59-.46.91a9.88,9.88,0,0,0,.77-.66,2,2,0,0,1,.71-.51,1.55,1.55,0,0,1,1.49.2,2,2,0,0,0,2.26.18,2,2,0,0,0,.76-.81c.15-.31.32-.59.45-.91C89.11,186.4,88.88,186.64,88.62,186.86Zm6.55-37.55c-.1-.32-.19-.64-.32-1,0,.34,0,.68-.07,1a2.12,2.12,0,0,1-.15.87,1.54,1.54,0,0,1-1.19.91,2,2,0,0,0-1.69,2.58c.11.32.19.64.33,1,0-.34,0-.68.07-1a1.87,1.87,0,0,1,.17-.85,1.55,1.55,0,0,1,1.24-.87,2,2,0,0,0,1.61-2.64ZM69.35,215.42c-.11-.32-.19-.64-.32-1,0,.34,0,.68-.07,1a2,2,0,0,1-.15.86v0l.66-.38A1.85,1.85,0,0,0,69.35,215.42Zm4.78-38.75c-.11-.32-.19-.64-.32-1,0,.34,0,.67-.08,1a1.92,1.92,0,0,1-.14.86,1.52,1.52,0,0,1-1.19.91A2,2,0,0,0,70.68,180a1.89,1.89,0,0,0,0,1.11c.11.32.19.65.32,1,.06-.34,0-.67.08-1a1.83,1.83,0,0,1,.17-.84,1.56,1.56,0,0,1,1.24-.88,2,2,0,0,0,1.61-2.63ZM51.55,209a1.73,1.73,0,0,1-.84-.17,1.54,1.54,0,0,1-.87-1.23,2,2,0,0,0-.74-1.29,15.5,15.5,0,0,0,.64,2.73h0a1.76,1.76,0,0,0,.74.39,2,2,0,0,0,1.11,0c.32-.11.65-.19,1-.32C52.22,209,51.89,209,51.55,209Zm22.63-5.11a1.75,1.75,0,0,1-.85-.17,1.55,1.55,0,0,1-.87-1.23,2,2,0,0,0-1.53-1.68,2,2,0,0,0-1.11.06c-.32.11-.64.19-1,.32.34,0,.68,0,1,.08a1.9,1.9,0,0,1,.86.14,1.52,1.52,0,0,1,.91,1.19,2,2,0,0,0,1.47,1.72,1.93,1.93,0,0,0,1.12,0c.32-.11.64-.19,1-.32C74.85,203.88,74.51,203.88,74.18,203.85Zm-7.57-61.08a1.71,1.71,0,0,1-.84-.17,1.59,1.59,0,0,1-.48-.36c-.09.25-.17.49-.25.74a1.64,1.64,0,0,0,.51.22,1.89,1.89,0,0,0,1.11,0c.32-.11.65-.19,1-.32C67.28,142.8,67,142.8,66.61,142.77ZM60,170.42a1.75,1.75,0,0,1-.85-.17,1.55,1.55,0,0,1-.87-1.23,2,2,0,0,0-.93-1.43c-.07.26-.15.52-.22.78a1.46,1.46,0,0,1,.34.76,2,2,0,0,0,1.46,1.72,1.93,1.93,0,0,0,1.12,0c.32-.11.64-.19,1-.32C60.62,170.45,60.28,170.45,60,170.42Zm26.56-2.51a1.9,1.9,0,0,1-.85-.17,1.57,1.57,0,0,1-.87-1.24,2,2,0,0,0-2.63-1.61c-.32.11-.65.19-1,.32.34,0,.67,0,1,.07a2.07,2.07,0,0,1,.86.15,1.52,1.52,0,0,1,.91,1.19,2.05,2.05,0,0,0,1.47,1.72,2,2,0,0,0,1.11,0c.32-.11.64-.19,1-.33C87.18,167.93,86.85,167.93,86.51,167.91Z" style="fill:#fff"></path><path d="M103.44,159.11C97.55,155.53,74,140,69.07,136.33c-.33-.26-.25-.53.13-.31,17.93,10.28,28.77,19,34.38,22.85C103.72,159,103.59,159.2,103.44,159.11Z" style="fill:#263238"></path><path d="M89,189.61c4.65-7.72,9.13-15.54,13.22-23.58q1.71-3.36,3.36-6.77c1.06-2.19,2.13-4.37,3.09-6.6-.81-.63-4.36-3.23-4.74-3.62a.17.17,0,0,1,.18-.26c.48.21,4.62,2.91,5.5,3.64.12.1-1.94,4.43-2.88,6.5s-1.9,4.13-2.89,6.18c-2,4.06-4,8.06-6.19,12q-3.5,6.4-7.3,12.59C88.13,193.24,83,199.55,89,189.61Z" style="fill:#263238"></path></g><g id="Device"><rect x="177.93" y="248.33" width="88.87" height="3.98" style="fill:#455a64"></rect><polygon points="266.81 248.33 266.81 252.31 206.39 252.31 209.44 248.33 266.81 248.33" style="fill:#263238"></polygon><polygon points="213.27 252.31 299.89 252.31 307.1 193.48 220.48 193.48 213.27 252.31" style="fill:#455a64"></polygon><path d="M254.91,222.9a5.16,5.16,0,0,0,5.18,5.27,5.38,5.38,0,0,0,5.37-5.27,5.17,5.17,0,0,0-5.18-5.28A5.4,5.4,0,0,0,254.91,222.9Z" style="fill:#fff"></path></g><g id="Cloud"><polygon points="364.86 213.36 320.05 225.08 305 167.56 338.28 158.85 349.82 155.84 352.68 166.8 364.86 213.36" style="fill:#ebebeb"></polygon><rect x="311.48" y="171.27" width="37.73" height="1.53" transform="translate(693.47 254.89) rotate(165.35)" style="fill:#dbdbdb"></rect><rect x="312.46" y="174.99" width="37.73" height="1.53" transform="translate(696.33 261.98) rotate(165.35)" style="fill:#dbdbdb"></rect><rect x="313.43" y="178.72" width="37.73" height="1.53" transform="matrix(-0.97, 0.25, -0.25, -0.97, 699.19, 269.07)" style="fill:#dbdbdb"></rect><rect x="314.41" y="182.45" width="37.73" height="1.53" transform="translate(702.05 276.15) rotate(165.35)" style="fill:#dbdbdb"></rect><rect x="315.38" y="186.18" width="37.73" height="1.53" transform="translate(704.91 283.24) rotate(165.35)" style="fill:#dbdbdb"></rect><rect x="316.36" y="189.91" width="37.73" height="1.53" transform="translate(707.78 290.33) rotate(165.35)" style="fill:#dbdbdb"></rect><rect x="317.33" y="193.64" width="37.73" height="1.53" transform="matrix(-0.97, 0.25, -0.25, -0.97, 710.64, 297.42)" style="fill:#dbdbdb"></rect><rect x="318.31" y="197.36" width="37.73" height="1.53" transform="translate(713.5 304.51) rotate(165.35)" style="fill:#dbdbdb"></rect><rect x="319.28" y="201.09" width="37.73" height="1.53" transform="matrix(-0.97, 0.25, -0.25, -0.97, 716.36, 311.6)" style="fill:#dbdbdb"></rect><rect x="320.26" y="204.82" width="37.73" height="1.53" transform="translate(719.22 318.69) rotate(165.35)" style="fill:#dbdbdb"></rect><rect x="321.23" y="208.55" width="37.73" height="1.53" transform="matrix(-0.97, 0.25, -0.25, -0.97, 722.08, 325.78)" style="fill:#dbdbdb"></rect><rect x="322.2" y="212.28" width="37.73" height="1.53" transform="matrix(-0.97, 0.25, -0.25, -0.97, 724.94, 332.86)" style="fill:#dbdbdb"></rect><polygon points="376.76 229.96 330.51 232.54 327.19 173.18 361.53 171.26 374.07 181.9 376.76 229.96" style="fill:#ebebeb"></polygon><polygon points="361.53 171.26 374.07 181.9 362.16 182.57 361.53 171.26" style="fill:#dbdbdb"></polygon><rect x="332.28" y="182.17" width="25.75" height="1.53" transform="translate(700 346.29) rotate(176.8)" style="fill:#dbdbdb"></rect><rect x="332.5" y="186.02" width="25.75" height="1.53" transform="translate(700.65 353.97) rotate(176.8)" style="fill:#dbdbdb"></rect><rect x="332.71" y="189.86" width="25.75" height="1.53" transform="translate(701.29 361.65) rotate(176.8)" style="fill:#dbdbdb"></rect><rect x="332.92" y="193.38" width="37.73" height="1.53" transform="translate(713.87 368.32) rotate(176.8)" style="fill:#dbdbdb"></rect><rect x="333.14" y="197.22" width="37.73" height="1.53" transform="translate(714.51 376) rotate(176.8)" style="fill:#dbdbdb"></rect><rect x="333.35" y="201.07" width="37.73" height="1.53" transform="translate(715.16 383.68) rotate(176.8)" style="fill:#dbdbdb"></rect><rect x="333.57" y="204.92" width="37.73" height="1.53" transform="translate(715.8 391.35) rotate(176.8)" style="fill:#dbdbdb"></rect><rect x="333.78" y="208.77" width="37.73" height="1.53" transform="translate(716.45 399.03) rotate(176.8)" style="fill:#dbdbdb"></rect><rect x="334" y="212.61" width="37.73" height="1.53" transform="translate(717.09 406.71) rotate(176.8)" style="fill:#dbdbdb"></rect><rect x="334.21" y="216.46" width="37.73" height="1.53" transform="translate(717.74 414.39) rotate(176.8)" style="fill:#dbdbdb"></rect><rect x="334.43" y="220.31" width="37.73" height="1.53" transform="translate(718.39 422.06) rotate(176.8)" style="fill:#dbdbdb"></rect><rect x="334.64" y="224.16" width="37.73" height="1.53" transform="translate(719.03 429.74) rotate(176.8)" style="fill:#dbdbdb"></rect><path d="M318.17,267.34a15.34,15.34,0,0,0,14.19,15.29v0h86.83a18,18,0,0,0,1.69-36,30.36,30.36,0,0,0-58.84-9.5,18,18,0,0,0-26.05,15,15.69,15.69,0,0,0-2.49-.2A15.33,15.33,0,0,0,318.17,267.34Z" style="fill:#FFC727"></path><path d="M318.17,267.34a15.34,15.34,0,0,0,14.19,15.29v0h86.83a18,18,0,0,0,1.69-36,30.36,30.36,0,0,0-58.84-9.5,18,18,0,0,0-26.05,15,15.69,15.69,0,0,0-2.49-.2A15.33,15.33,0,0,0,318.17,267.34Z" style="opacity:0.1"></path><path d="M312.79,267.34A15.34,15.34,0,0,0,327,282.63v0h86.83a18,18,0,0,0,1.69-36,30.37,30.37,0,0,0-58.85-9.5,17.81,17.81,0,0,0-8-1.9,18,18,0,0,0-18,16.9,15.69,15.69,0,0,0-2.49-.2A15.33,15.33,0,0,0,312.79,267.34Z" style="fill:#FFC727"></path><rect x="365.08" y="256.45" width="15.67" height="13.45" style="fill:#fff"></rect><polygon points="359.7 256.45 386.13 256.45 372.91 243.27 359.7 256.45" style="fill:#fff"></polygon><rect x="248.09" y="257.42" width="1" height="2" style="fill:#263238"></rect><rect x="248.09" y="262.69" width="1" height="4.36" style="fill:#263238"></rect><polygon points="250.59 272.82 248.09 272.82 248.09 270.32 249.09 270.32 249.09 271.82 250.59 271.82 250.59 272.82" style="fill:#263238"></polygon><path d="M297.91,272.82H294v-1h3.87Zm-6.76,0h-3.87v-1h3.87Zm-6.76,0h-3.87v-1h3.87Zm-6.76,0h-3.87v-1h3.87Zm-6.76,0H267v-1h3.87Zm-6.76,0h-3.86v-1h3.86Zm-6.76,0h-3.86v-1h3.86Z" style="fill:#263238"></path><rect x="300.8" y="271.82" width="2" height="1" style="fill:#263238"></rect><circle cx="248.59" cy="257.52" r="1.88" style="fill:#263238"></circle><circle cx="302.71" cy="272.32" r="1.88" style="fill:#263238"></circle><rect x="440.9" y="250.28" width="2" height="1" style="fill:#263238"></rect><path d="M496.54,251.28h-3.83v-1h3.83Zm-6.71,0H486v-1h3.83Zm-6.7,0H479.3v-1h3.83Zm-6.7,0h-3.84v-1h3.84Zm-6.71,0h-3.83v-1h3.83Zm-6.7,0h-3.83v-1H463Zm-6.71,0h-3.83v-1h3.83Zm-6.7,0h-3.83v-1h3.83Z" style="fill:#263238"></path><polygon points="501.91 252.78 500.91 252.78 500.91 251.28 499.41 251.28 499.41 250.28 501.91 250.28 501.91 252.78" style="fill:#263238"></polygon><rect x="500.91" y="255.35" width="1" height="3.43" style="fill:#263238"></rect><rect x="500.91" y="261.36" width="1" height="2" style="fill:#263238"></rect><path d="M441,252.66a1.88,1.88,0,1,1,1.88-1.88A1.88,1.88,0,0,1,441,252.66Z" style="fill:#263238"></path><circle cx="501.41" cy="263.27" r="1.88" style="fill:#263238"></circle><polygon points="420.43 207.99 464.79 240.64 486.6 210.95 442.23 178.29 420.43 207.99" style="fill:#ebebeb"></polygon><polygon points="423.63 207.5 464.31 237.44 483.4 211.44 442.71 181.5 423.63 207.5" style="fill:#fff"></polygon><path d="M440.45,192.32a5.5,5.5,0,1,0,7.69-1.17A5.5,5.5,0,0,0,440.45,192.32Z" style="fill:#dbdbdb"></path><polygon points="436.23 216.84 464.25 237.46 464.22 208.16 436.23 216.84" style="fill:#dbdbdb"></polygon><polygon points="425.24 208.76 448.38 225.79 445.91 204.91 425.24 208.76" style="fill:#ebebeb"></polygon><polygon points="388.49 217.93 439.39 238.98 453.43 204.91 402.52 183.87 388.49 217.93" style="fill:#ebebeb"></polygon><polygon points="391.48 216.69 438.15 235.98 450.44 206.16 403.76 186.86 391.48 216.69" style="fill:#fff"></polygon><path d="M404.16,197.91a5.5,5.5,0,1,0,7.18-3A5.5,5.5,0,0,0,404.16,197.91Z" style="fill:#dbdbdb"></path><polygon points="405.95 222.72 438.11 236.02 431.04 207.58 405.95 222.72" style="fill:#dbdbdb"></polygon><polygon points="393.34 217.52 419.89 228.5 412.48 208.82 393.34 217.52" style="fill:#ebebeb"></polygon><circle cx="328.98" cy="294.62" r="21.3" transform="translate(-21.85 562.86) rotate(-79.25)" style="fill:#455a64"></circle><rect x="314.44" y="285.4" width="29.08" height="18.44" transform="matrix(0.97, -0.25, 0.25, 0.97, -63.83, 92.81)" style="fill:#fff"></rect><path d="M340.72,282c-.85,1.38-1.74,2.72-2.6,4.09s-1.77,2.7-2.66,4-1.87,2.78-2.8,4.17l-.09.13-2.5,3.66-.13.17-.19-.09-4-2-.14-.07q-2.25-1.11-4.49-2.27c-1.43-.72-2.86-1.47-4.29-2.21s-2.85-1.51-4.27-2.3c1.45.62,2.89,1.28,4.33,1.93s2.9,1.32,4.34,2c1.6.74,3.21,1.51,4.82,2.29h0l3.61,1.74c.76-1.1,1.52-2.2,2.29-3.28v0c1-1.46,2.05-2.91,3.09-4.35s1.85-2.58,2.79-3.86S339.75,283.27,340.72,282Z" style="fill:#dbdbdb"></path><path d="M326.23,296l0,0-.35.49c-.55.78-1.12,1.54-1.71,2.29-.72.92-1.46,1.81-2.21,2.7s-1.52,1.76-2.32,2.62-1.59,1.7-2.44,2.5c.66-1,1.36-1.9,2.08-2.81s1.47-1.81,2.21-2.71,1.53-1.76,2.32-2.61c.63-.69,1.27-1.37,1.94-2l.47-.45Z" style="fill:#dbdbdb"></path><path d="M345.17,299.31c-1.14-.28-2.26-.63-3.36-1s-2.21-.75-3.3-1.14-2.18-.83-3.26-1.28c-.87-.36-1.74-.74-2.6-1.15l-.55-.26,0,0h.05l.63.17c.9.24,1.79.52,2.68.8,1.11.36,2.2.75,3.3,1.15s2.18.83,3.25,1.28S344.12,298.79,345.17,299.31Z" style="fill:#dbdbdb"></path><path d="M342.18,281.64a4.69,4.69,0,1,1-5.73-3.35A4.7,4.7,0,0,1,342.18,281.64Z" style="fill:#FFC727"></path><path d="M337.4,284l-1-3.69a.51.51,0,1,1,1-.27l1,3.7a.51.51,0,0,1-.36.63A.53.53,0,0,1,337.4,284Zm1.08,2.07a.52.52,0,0,1-.63-.37l-.05-.19a.53.53,0,0,1,.37-.63.51.51,0,0,1,.62.37l0,.19A.51.51,0,0,1,338.48,286Z" style="fill:#fff"></path></g><g id="Sheets"><rect x="59.05" y="218.8" width="55.7" height="53.53" style="fill:#dbdbdb"></rect><rect x="114.75" y="218.8" width="21.17" height="53.53" style="fill:#c7c7c7"></rect><polygon points="59.05 245.56 114.75 245.56 71.25 246.94 59.05 245.56" style="fill:#c7c7c7"></polygon><polygon points="114.75 265.86 59.05 265.86 102.55 267.23 114.75 265.86" style="fill:#c7c7c7"></polygon><polygon points="59.05 230.6 94.33 230.6 62.97 231.72 59.05 230.6" style="fill:#c7c7c7"></polygon><polygon points="114.75 257.98 79.47 257.98 110.83 259.1 114.75 257.98" style="fill:#c7c7c7"></polygon><polygon points="72.41 224.64 112.2 224.64 105.57 225.31 72.41 224.64" style="fill:#c7c7c7"></polygon><polygon points="64.46 251.3 104.26 251.3 97.62 251.97 64.46 251.3" style="fill:#c7c7c7"></polygon><polygon points="88.93 235.69 114.75 235.69 119.36 237.49 88.93 235.69" style="fill:#dbdbdb"></polygon><polygon points="51.94 235.69 77.75 235.69 82.36 237.49 51.94 235.69" style="fill:#dbdbdb"></polygon><polygon points="85.06 259.75 59.24 259.75 54.63 261.55 85.06 259.75" style="fill:#dbdbdb"></polygon><polygon points="114.75 253.64 135.48 253.64 140.09 255.44 114.75 253.64" style="fill:#c7c7c7"></polygon><polygon points="121.98 245.56 138.06 245.56 135.92 244.09 121.98 245.56" style="fill:#c7c7c7"></polygon></g><g id="Drink"><polygon points="148.29 247.15 144.97 288.89 122.01 288.89 118.69 247.15 148.29 247.15" style="fill:#FFC727"></polygon><rect x="116.51" y="243.38" width="33.75" height="6.09" style="fill:#455a64"></rect><polygon points="147.96 243.38 118.83 243.38 120.53 236.54 146.25 236.54 147.96 243.38" style="fill:#37474f"></polygon><path d="M141.46,268.39c0,5.42-3.57,9.81-8,9.81s-8-4.39-8-9.81,3.57-9.82,8-9.82S141.46,263,141.46,268.39Z" style="fill:#fff"></path></g></svg>