<svg xmlns="http://www.w3.org/2000/svg" viewBox="0 0 500 500"><g id="Floor"><path id="floor" d="M77.67,447.58c-95.18-54.95-95.18-144,0-199s249.49-55,344.66,0,95.18,144,0,199S172.84,502.53,77.67,447.58Z" style="fill:#f5f5f5"></path></g><g id="Shadows"><path id="Shadow" d="M40.3,438.45c17.56-8.07,45.65-8.29,62.75-.51s17.2,20.63.23,28.69-45.07,8.29-62.75.51S22.74,446.51,40.3,438.45Z" style="fill:#e0e0e0"></path><path id="shadow" d="M372.27,372.74l101.28-58.48a1.32,1.32,0,0,0,0-2.5L339.77,234.52a4.79,4.79,0,0,0-4.33,0L234.16,293a1.32,1.32,0,0,0,0,2.5l133.78,77.24A4.79,4.79,0,0,0,372.27,372.74Z" style="fill:#e0e0e0"></path><path id="shadow" d="M287.43,280.78,283,278.21a12.05,12.05,0,0,0-10.94,0L36.73,414.06c-3,1.74-3,4.58,0,6.31l4.46,2.57a12.1,12.1,0,0,0,10.93,0l71.49-41.26L155.41,400c8.2,4.73,21.61,4.73,29.81,0l54.9-31.72c7-4.05,7-10.66,0-14.7l-34-19.62,81.29-46.91C290.44,285.36,290.44,282.51,287.43,280.78Z" style="fill:#e0e0e0"></path><g id="shadow"><path d="M447.35,398.82c-12.45-6.29-16.57-8.95-16.43-12.28.09-2.4,2.57-4,6.8-4.31a8.16,8.16,0,0,0,3.4-.85c.24-.14.52-.36.52-.53s-.33-1.06-1.86-1.94a11.35,11.35,0,0,0-5.45-1.4,6.2,6.2,0,0,0-3,.63,1.88,1.88,0,0,0-1,1.14,6,6,0,0,1-6,4.43h0c-4.61,0-11-4-20.29-10.15l-1-.67a1.35,1.35,0,0,1,.07-2.3l44.68-25.84,1.09.71c7.6,5,13.61,9,17.41,9,2.33,0,2.76-1.35,2.83-1.62a5.49,5.49,0,0,1,2.7-3.52,9.06,9.06,0,0,1,4.55-1.06,14.26,14.26,0,0,1,7,1.83c2.38,1.37,3.75,3.28,3.74,5.24a4.44,4.44,0,0,1-2.39,3.84,11.26,11.26,0,0,1-4.7,1.26,8.87,8.87,0,0,0-3.49.86c1.1,1.55,6.26,4.66,15.36,9.26l1.23.62a1.35,1.35,0,0,1,.07,2.38l-1.19.69c-1.76,1-3.36,2-4.82,2.85-6.26,3.73-10,6-13.77,6h-.12a6,6,0,0,1-6-4.43,1.85,1.85,0,0,0-.95-1.14,6.3,6.3,0,0,0-3-.63,11.28,11.28,0,0,0-5.44,1.4c-1.54.88-1.88,1.7-1.88,1.94s.29.39.53.53a8.33,8.33,0,0,0,3.4.86c4.23.32,6.71,1.89,6.81,4.29.11,3-3.67,5.23-12.24,10-1.66.92-3.36,1.88-5.13,2.89l-1,.57Z" style="fill:#e0e0e0"></path></g><g id="shadow"><path d="M390.13,436.15c-14.72-7.42-19.16-10.69-19-14,.1-2.64,2.83-4.38,7.49-4.76a7.14,7.14,0,0,0,2.95-.72.81.81,0,0,0,.31-.25c0-.08-.31-.78-1.65-1.55a10.05,10.05,0,0,0-4.86-1.27,5.19,5.19,0,0,0-2.46.5,1.33,1.33,0,0,0-.73.88c-.51,2.18-2.6,4.76-6.77,4.82h-.11c-4.38,0-9.3-3.29-16.11-7.85l-3.06-2-.5-.33a1.72,1.72,0,0,1,0-2.88l2.28-1.44c4.92-2.83,10.92-6.29,12.5-8.07a9.38,9.38,0,0,0-2.63-.53,12.12,12.12,0,0,1-5.17-1.41,4.83,4.83,0,0,1-2.63-4.17c0-2.08,1.45-4.12,4-5.57a15.49,15.49,0,0,1,7.55-2,10.28,10.28,0,0,1,5.12,1.19,6,6,0,0,1,2.95,3.8c.07.28.41,1.18,2,1.21h0c3.2,0,8-2.81,15.39-7.06l3.38-1.87,1,.5c12.09,6.13,17.12,9.28,17,12.87-.12,2.64-2.93,4.41-7.51,4.77a7.24,7.24,0,0,0-2.94.72.81.81,0,0,0-.3.25c0,.08.31.78,1.64,1.55a10.13,10.13,0,0,0,4.88,1.27h0a5.24,5.24,0,0,0,2.44-.49,1.32,1.32,0,0,0,.72-.87c.58-2.39,2.91-4.79,6.8-4.84h.11c4.56,0,10.8,3.7,19.43,8.83l3.24,1.91a1.7,1.7,0,0,1,0,3l-1.18.67-42.87,24.74-.67.44a1.72,1.72,0,0,1-1.71.1Z" style="fill:#e0e0e0"></path></g><path id="shadow" d="M239,466.34c23,13.31,60.4,13.31,83.44,0s23-34.87,0-48.17-60.4-13.31-83.44,0S215.93,453,239,466.34Z" style="fill:#e0e0e0"></path></g><g id="Gears"><g id="gears"><path d="M458,111.52l-3.52-7.93a3.31,3.31,0,0,0-1.73-1.46,21.58,21.58,0,0,1-2.7-1.1.55.55,0,0,0-.48,0,.49.49,0,0,0-.28.3L447.53,106a2,2,0,0,1-3.4.83l-6.08-5.47a4.53,4.53,0,0,1-1.35-3.64l.79-6.08a3.83,3.83,0,0,0-.63-2.32c-1-1.33-1.9-2.75-2.77-4.22a2.35,2.35,0,0,0-1.7-1L428.25,84a3.59,3.59,0,0,1-3.16-2.24l-3.3-9a2.6,2.6,0,0,1,.08-2,2.63,2.63,0,0,1,1.51-1.36l3.43-1.2a1.13,1.13,0,0,0,.66-1.16,37.88,37.88,0,0,1-.45-4.29,4.2,4.2,0,0,0-.94-2.29l-5.34-5.6a4.43,4.43,0,0,1-1-3.76L421.21,45a2,2,0,0,1,3.26-1.16L429.9,48a.7.7,0,0,0,1-.2,12.18,12.18,0,0,1,1.3-1.38,1.88,1.88,0,0,0,.57-1.68l-2.38-8a2.39,2.39,0,0,1,2-3.1l4.34-.67a3.3,3.3,0,0,1,3.38,1.84l3.52,7.94a3.28,3.28,0,0,0,1.73,1.46,22.43,22.43,0,0,1,2.7,1.09.58.58,0,0,0,.49.05.5.5,0,0,0,.27-.31l1.76-4.71A2.15,2.15,0,0,1,452,38.87a2.12,2.12,0,0,1,1.93.56L460,44.89a4.54,4.54,0,0,1,1.35,3.64l-.79,6.08a3.91,3.91,0,0,0,.63,2.33A49.58,49.58,0,0,1,464,61.16a2.38,2.38,0,0,0,1.71,1l4.13.07A3.59,3.59,0,0,1,473,64.49l3.31,9a2.65,2.65,0,0,1-.09,2,2.58,2.58,0,0,1-1.51,1.35L471.26,78a1.13,1.13,0,0,0-.67,1.16,36.75,36.75,0,0,1,.45,4.3,4.35,4.35,0,0,0,.94,2.29l5.34,5.6a4.43,4.43,0,0,1,1,3.76l-1.48,6.12a2,2,0,0,1-3.26,1.17l-5.43-4.11a.7.7,0,0,0-1,.19,12.28,12.28,0,0,1-1.3,1.39,1.88,1.88,0,0,0-.57,1.68l2.38,8a2.47,2.47,0,0,1-.26,2,2.43,2.43,0,0,1-1.71,1.1l-4.34.67a3,3,0,0,1-.43,0A3.3,3.3,0,0,1,458,111.52Zm11.32-14.75,5.43,4.11.16.1a1.7,1.7,0,0,0,.07-.18l1.47-6.13a2.46,2.46,0,0,0-.53-2l-5.33-5.6a6.16,6.16,0,0,1-1.47-3.53,37.67,37.67,0,0,0-.43-4.09,3.05,3.05,0,0,1,1.93-3.28L474,75a.7.7,0,0,0,.41-.36.75.75,0,0,0,0-.53l-3.31-9a1.67,1.67,0,0,0-1.38-1l-4.13-.07a4.27,4.27,0,0,1-3.34-2c-.84-1.42-1.74-2.79-2.67-4.06a5.85,5.85,0,0,1-1-3.72l.79-6.07a2.63,2.63,0,0,0-.73-2l-6.08-5.47a.44.44,0,0,0-.18-.12.38.38,0,0,0-.12.19l-1.76,4.71a2.43,2.43,0,0,1-1.37,1.42,2.51,2.51,0,0,1-2-.1,20.16,20.16,0,0,0-2.46-1,5.14,5.14,0,0,1-2.89-2.51l-3.52-7.94a1.37,1.37,0,0,0-1.32-.72l-4.35.67a.56.56,0,0,0-.37.22.53.53,0,0,0,0,.43l2.38,8a3.78,3.78,0,0,1-1.12,3.64A12.28,12.28,0,0,0,432.39,49a2.62,2.62,0,0,1-3.65.53l-5.43-4.11a.84.84,0,0,0-.15-.1.34.34,0,0,0-.07.17l-1.48,6.13h0a2.5,2.5,0,0,0,.53,2l5.33,5.61a6,6,0,0,1,1.47,3.52,39.19,39.19,0,0,0,.43,4.09,3,3,0,0,1-1.93,3.28L424,71.25a.71.71,0,0,0-.4.36.68.68,0,0,0,0,.54l3.3,8.95a1.68,1.68,0,0,0,1.38,1l4.14.07a4.27,4.27,0,0,1,3.33,2c.84,1.41,1.74,2.78,2.67,4.06a5.77,5.77,0,0,1,1,3.71L438.61,98a2.68,2.68,0,0,0,.73,2l6.08,5.47a1.13,1.13,0,0,0,.18.12.38.38,0,0,0,.12-.19l1.77-4.71a2.36,2.36,0,0,1,1.36-1.42,2.51,2.51,0,0,1,2,.1,19.76,19.76,0,0,0,2.46,1,5.21,5.21,0,0,1,2.9,2.52l3.51,7.93a1.37,1.37,0,0,0,1.33.73l4.34-.68a.47.47,0,0,0,.37-.22.52.52,0,0,0,0-.43l-2.38-8a3.8,3.8,0,0,1,1.12-3.65,11.23,11.23,0,0,0,1.1-1.17,2.7,2.7,0,0,1,2.1-1A2.53,2.53,0,0,1,469.32,96.77Zm-24.08-9.85h0c-6.82-6.13-10.89-17.23-9.08-24.75.82-3.41,2.76-5.74,5.46-6.58,3.33-1,7.41.34,11.21,3.75,6.81,6.13,10.88,17.23,9.07,24.74-.82,3.41-2.76,5.75-5.46,6.59a7.79,7.79,0,0,1-2.27.33C451.35,91,448.2,89.58,445.24,86.92Zm-3.05-29.49c-2.05.64-3.49,2.43-4.15,5.19-1.67,6.9,2.14,17.16,8.48,22.86,3.29,3,6.69,4.17,9.35,3.35,2.06-.64,3.49-2.44,4.16-5.2,1.66-6.9-2.15-17.15-8.49-22.86-2.61-2.34-5.3-3.59-7.63-3.59A5.77,5.77,0,0,0,442.19,57.43Z" style="fill:#e0e0e0"></path><path d="M399.89,81.74l-2.14-4.82a1.83,1.83,0,0,0-1-.81,15,15,0,0,1-1.65-.67c-.07,0-.13,0-.28.08l-1.07,2.86a1.41,1.41,0,0,1-1,.92,1.43,1.43,0,0,1-1.3-.36l-3.69-3.32a2.92,2.92,0,0,1-.87-2.34l.48-3.69a2.23,2.23,0,0,0-.35-1.31,30,30,0,0,1-1.69-2.57,1.29,1.29,0,0,0-.92-.55l-2.51,0a2.32,2.32,0,0,1-2.05-1.45l-2-5.43A1.71,1.71,0,0,1,379,56l2.08-.73a.54.54,0,0,0,.31-.55,24.78,24.78,0,0,1-.28-2.63,2.44,2.44,0,0,0-.53-1.3l-3.24-3.4a2.82,2.82,0,0,1-.64-2.41l.89-3.72a1.34,1.34,0,0,1,2.2-.78L383,43a.29.29,0,0,0,.4-.1,8.22,8.22,0,0,1,.8-.86,1,1,0,0,0,.31-.88l-1.44-4.87a1.59,1.59,0,0,1,.17-1.33,1.61,1.61,0,0,1,1.13-.73l2.64-.41a2.13,2.13,0,0,1,2.2,1.2l2.14,4.82a1.81,1.81,0,0,0,1,.81,12.64,12.64,0,0,1,1.66.68c.06,0,.13,0,.27-.09l1.07-2.86a1.43,1.43,0,0,1,1-.92,1.4,1.4,0,0,1,1.3.37l3.69,3.31a2.92,2.92,0,0,1,.87,2.34l-.48,3.69a2.17,2.17,0,0,0,.36,1.31c.59.82,1.16,1.68,1.69,2.57a1.27,1.27,0,0,0,.92.55l2.51.05a2.31,2.31,0,0,1,2,1.45l2,5.43a1.73,1.73,0,0,1-.06,1.34,1.69,1.69,0,0,1-1,.89l-2.07.73a.54.54,0,0,0-.32.55,22.41,22.41,0,0,1,.28,2.63,2.44,2.44,0,0,0,.53,1.3l3.24,3.4a2.82,2.82,0,0,1,.65,2.41l-.9,3.72a1.34,1.34,0,0,1-2.2.78l-3.29-2.49c-.16-.13-.33,0-.41.09a7.33,7.33,0,0,1-.8.86,1,1,0,0,0-.31.88L406,80.47a1.63,1.63,0,0,1-.18,1.33,1.59,1.59,0,0,1-1.13.73l-2.63.41-.28,0A2.14,2.14,0,0,1,399.89,81.74ZM407,72.61l3.21,2.53.9-3.72a1.38,1.38,0,0,0-.29-1.07L407.55,67a3.86,3.86,0,0,1-.93-2.23,19.56,19.56,0,0,0-.26-2.47,2,2,0,0,1,1.27-2.14l2.08-.73a.29.29,0,0,0,.16-.15.26.26,0,0,0,0-.22l-2-5.43a.91.91,0,0,0-.71-.51l-2.51,0a2.73,2.73,0,0,1-2.14-1.26c-.5-.85-1-1.68-1.61-2.46a3.61,3.61,0,0,1-.62-2.35l.47-3.69a1.51,1.51,0,0,0-.39-1.07l-3.65-3.33-1.08,2.86a1.58,1.58,0,0,1-.9.94,1.67,1.67,0,0,1-1.35-.06,12.77,12.77,0,0,0-1.48-.6,3.28,3.28,0,0,1-1.84-1.6l-2.14-4.82a.65.65,0,0,0-.65-.36l-2.64.41-.11-.71,0,.93,1.45,4.87a2.44,2.44,0,0,1-.72,2.36,5.44,5.44,0,0,0-.65.7,1.73,1.73,0,0,1-2.41.34L379,41.6l-.9,3.72h0a1.42,1.42,0,0,0,.29,1.07l3.24,3.4a4,4,0,0,1,.93,2.23,21.6,21.6,0,0,0,.26,2.47,2,2,0,0,1-1.26,2.14l-2.08.73a.32.32,0,0,0-.17.15.32.32,0,0,0,0,.22l2,5.43a.91.91,0,0,0,.71.51l2.51,0A2.78,2.78,0,0,1,386.63,65c.5.85,1,1.68,1.61,2.46a3.73,3.73,0,0,1,.62,2.35l-.48,3.69a1.52,1.52,0,0,0,.4,1.07l3.65,3.33L393.5,75a1.61,1.61,0,0,1,.9-.94,1.7,1.7,0,0,1,1.36.06,12.64,12.64,0,0,0,1.47.6,3.28,3.28,0,0,1,1.84,1.6l2.14,4.82a.68.68,0,0,0,.65.36l2.64-.41.14-.22L403.19,76a2.46,2.46,0,0,1,.72-2.35,7.18,7.18,0,0,0,.65-.7,1.78,1.78,0,0,1,1.39-.69A1.69,1.69,0,0,1,407,72.61Zm-14.8-5.77h0c-4.17-3.75-6.66-10.55-5.55-15.15a5.26,5.26,0,0,1,3.4-4.1c2.07-.64,4.6.2,6.94,2.31,4.18,3.75,6.67,10.55,5.55,15.15a5.26,5.26,0,0,1-3.4,4.1,4.85,4.85,0,0,1-1.43.21A8.57,8.57,0,0,1,392.17,66.84ZM390.45,49A3.84,3.84,0,0,0,388,52c-1,4.14,1.29,10.31,5.11,13.74h0c1.95,1.75,4,2.49,5.54,2a3.83,3.83,0,0,0,2.43-3.06c1-4.14-1.3-10.3-5.12-13.74a7.15,7.15,0,0,0-4.53-2.14A3.38,3.38,0,0,0,390.45,49Z" style="fill:#e0e0e0"></path></g></g><g id="Clock"><g id="clock"><path d="M85.23,57.85h0l0,0h0L81,55.35h0l-.08,0h0c-5.68-2.88-13.26-2-21.43,3.23C43.1,69.1,30.57,93.47,31.51,113c.47,9.72,4.21,16.39,9.86,19.33h0l.05,0h0l4.15,2.47h0l.06,0h0c5.68,2.89,13.28,2,21.45-3.22C83.5,121,96,96.67,95.09,77.18,94.62,67.46,90.88,60.79,85.23,57.85Z" style="fill:#37474f"></path><path d="M45.16,134.58l-3.73-2.25h0l-.05,0c-5.65-2.94-9.39-9.61-9.86-19.32-.42-8.69,1.84-18.35,5.93-27.32l4.15,2.47c-4.1,9-6.35,18.63-5.93,27.32C36.12,125,39.71,131.54,45.16,134.58Z" style="fill:#263238"></path><path d="M67.09,131.61C83.5,121,96,96.67,95.09,77.18S80.07,50.44,63.66,61,34.72,96,35.67,115.44,50.68,142.18,67.09,131.61Z" style="fill:#455a64"></path><path d="M53.34,130.25c-9.67.47-11.25-10.41-11.48-15.11C41,98,52.55,75.55,67,66.23a22,22,0,0,1,10.39-3.86c9.68-.47,11.25,10.41,11.48,15.11.84,17.19-10.69,39.59-25.16,48.91a21.94,21.94,0,0,1-10.39,3.86Z" style="fill:#fafafa"></path><path d="M67.28,99.53a1,1,0,0,1-1.06-1V73.6a1.06,1.06,0,0,1,2.11,0V95.41l11.6-14.9a1.05,1.05,0,1,1,1.66,1.3L68.11,99.13A1.07,1.07,0,0,1,67.28,99.53Z" style="fill:#37474f"></path><path d="M61.34,117.9a.38.38,0,0,1-.15,0,.44.44,0,0,1-.3-.55l5.84-19.68a.44.44,0,1,1,.84.25l-5.83,19.68A.44.44,0,0,1,61.34,117.9Z" style="fill:#BA68C8"></path><path d="M67,94.8c1.34-.86,2.48-.27,2.55,1.31a5.48,5.48,0,0,1-2.27,4.41c-1.33.86-2.47.27-2.55-1.31A5.49,5.49,0,0,1,67,94.8Z" style="fill:#BA68C8"></path></g></g><g id="Folder"><g id="folder"><path d="M111.66,101.21A1.35,1.35,0,0,1,111,101a1.3,1.3,0,0,1-.66-1.15v-54a3.27,3.27,0,0,1,.45-1.57,3.38,3.38,0,0,1,1.13-1.18l16.17-9.33a1.67,1.67,0,0,1,1.71,0,1.79,1.79,0,0,1,.84,1.06l1.3,4.36a.69.69,0,0,0,.37.45.65.65,0,0,0,.58-.08l38-21.93a1.5,1.5,0,0,1,1.36-.16l.17.09a1.48,1.48,0,0,1,.61,1.3V64.15a3.45,3.45,0,0,1-1.59,2.74L112.32,101A1.28,1.28,0,0,1,111.66,101.21ZM129,34.59a.75.75,0,0,0-.37.11L112.46,44a2.3,2.3,0,0,0-.73.78,2.19,2.19,0,0,0-.3,1V99.88a.22.22,0,0,0,.11.2.21.21,0,0,0,.23,0l59.14-34.14a2.35,2.35,0,0,0,1-1.79V18.79a.55.55,0,0,0-.09-.36l-.07,0a.72.72,0,0,0-.33.12l-38,21.93a1.69,1.69,0,0,1-2.55-1l-1.31-4.35a.7.7,0,0,0-.29-.42A.55.55,0,0,0,129,34.59Z" style="fill:#e0e0e0"></path><path d="M180.65,23.65a.93.93,0,0,0-.36-.83h0l0,0-2.45-1.42h0a.93.93,0,0,0-.92.1L139.26,43.16l-1-3.38a1.31,1.31,0,0,0-.55-.73h0l-2.47-1.43h0a1.18,1.18,0,0,0-1.2,0L117.87,47a2.91,2.91,0,0,0-1.32,2.28v53.89a1,1,0,0,0,.36.83h0l0,0h0l2.44,1.41,0,0h0a1,1,0,0,0,.89-.11l59-34.06A2.91,2.91,0,0,0,180.65,69Z" style="fill:#BA68C8"></path><path d="M180.65,23.65a.93.93,0,0,0-.36-.83h0l0,0-2.45-1.42h0a.93.93,0,0,0-.92.1L139.26,43.16l-1-3.38a1.31,1.31,0,0,0-.55-.73h0l-2.47-1.43h0a1.18,1.18,0,0,0-1.2,0L117.87,47a2.91,2.91,0,0,0-1.32,2.28v53.89a1,1,0,0,0,.36.83h0l0,0h0l2.44,1.41,0,0h0a1,1,0,0,0,.89-.11l59-34.06A2.91,2.91,0,0,0,180.65,69Z" style="fill:#fff;opacity:0.5"></path><g style="opacity:0.4"><path d="M137.67,39a1.17,1.17,0,0,0-1.18.06l-16.16,9.32a2.87,2.87,0,0,0-.93,1L116.94,48a2.59,2.59,0,0,1,.93-1L134,37.66a1.18,1.18,0,0,1,1.2,0h0Z" style="fill:#fff"></path><path d="M180.19,22.76a1,1,0,0,0-.86.13l-38,21.94a1.15,1.15,0,0,1-1.76-.7l-.29-1,37.61-21.7a1.13,1.13,0,0,1,.58-.17.74.74,0,0,1,.34.08h0Z" style="fill:#fff"></path></g><path d="M119.2,105.25l.13.14L117,104h0l0,0a.76.76,0,0,1-.22-.25.77.77,0,0,1-.07-.16,1.33,1.33,0,0,1-.06-.42V49.26a.76.76,0,0,1,0-.15c0-.11,0-.22,0-.33s0-.11,0-.17a5,5,0,0,1,.21-.48.8.8,0,0,1,.08-.16l2.46,1.43a2.7,2.7,0,0,0-.38,1.29v53.89a1.94,1.94,0,0,0,0,.24s0,.08,0,.12a.25.25,0,0,1,0,.07l0,.08A.8.8,0,0,0,119.2,105.25Z" style="fill:#BA68C8;opacity:0.30000000000000004"></path></g></g><g id="Files"><g id="files"><path d="M463.7,312.36a1.72,1.72,0,0,0,1-1.4v-2.14L346,241.61a5.34,5.34,0,0,0-4.83,0L247.82,295.5,370.4,366.22Z" style="fill:#BA68C8"></path><path d="M463.7,312.36a1.72,1.72,0,0,0,1-1.4v-2.14L346,241.61a5.34,5.34,0,0,0-4.83,0L247.82,295.5,370.4,366.22Z" style="fill:#fff;opacity:0.2"></path><path d="M463.7,310.26c1.33-.77,1.33-2,0-2.79L346,239.52a5.34,5.34,0,0,0-4.83,0l-93.34,53.89L370.4,364.13Z" style="fill:#BA68C8"></path><path d="M463.7,310.26c1.33-.77,1.33-2,0-2.79L346,239.52a5.34,5.34,0,0,0-4.83,0l-93.34,53.89L370.4,364.13Z" style="opacity:0.5"></path><path d="M269.31,279.33l69.1-39.88a5.36,5.36,0,0,1,4.84,0L453,302.79l9-5.23V308.2l-.17.1c.3.66.06,1.38-.83,1.89l-79.14,45.67L259.23,285.14V273.51Z" style="fill:#ebebeb"></path><path d="M461,298.56c1.33-.77,1.33-2,0-2.79l-117.7-67.95a5.36,5.36,0,0,0-4.84,0l-79.18,45.69,122.58,70.72Z" style="fill:#fafafa"></path><polygon points="381.81 344.24 381.81 355.86 259.23 285.14 259.23 273.51 381.81 344.24" style="fill:#e6e6e6"></polygon><path d="M380.53,339.69a2.94,2.94,0,0,0,.89.31,2.76,2.76,0,0,0,1.43,0,1.17,1.17,0,0,0,.44-.16c.73-.39.64-1.12-.19-1.59a3.13,3.13,0,0,0-1.26-.37,2.72,2.72,0,0,0-1.51.25.32.32,0,0,0-.14.12C379.64,338.63,379.75,339.25,380.53,339.69Z" style="fill:#263238"></path><path d="M368.33,348.79a6.26,6.26,0,0,0,1.23,4,4.33,4.33,0,0,0,3.46,1.65h0a6.69,6.69,0,0,0,3.35-1,5.41,5.41,0,0,0,.61-.36l-1.36-.78c-3.3,1.84-5.92.28-5.92-3.52a13.25,13.25,0,0,1,6-10.35c1.79-1,3.41-1.06,4.49-.22a3.14,3.14,0,0,1,1.23,1.78,2.76,2.76,0,0,0,1.43,0,5,5,0,0,0-1-2.12,4.35,4.35,0,0,0-3.46-1.62,6.82,6.82,0,0,0-3.38,1A14.55,14.55,0,0,0,368.33,348.79Z" style="fill:#263238"></path><path d="M371.8,337.8l92.9-45.39v1.51a2.65,2.65,0,0,1-1.21,2.09l-91.69,43.9Z" style="fill:#BA68C8"></path><path d="M371.8,337.8l92.9-45.39v1.51a2.65,2.65,0,0,1-1.21,2.09l-91.69,43.9Z" style="fill:#fff;opacity:0.2"></path><path d="M463.7,293.79c1.33-.77,1.33-2,0-2.79L346,223.05a5.34,5.34,0,0,0-4.83,0l-93.34,44.81L370.4,338.58Z" style="fill:#BA68C8"></path><path d="M463.7,293.79c1.33-.77,1.33-2,0-2.79L346,223.05a5.34,5.34,0,0,0-4.83,0l-93.34,44.81L370.4,338.58Z" style="opacity:0.2"></path><polygon points="370.4 366.22 247.82 295.5 247.82 267.82 370.4 338.59 370.4 366.22" style="fill:#BA68C8"></polygon><path d="M349.15,348.47a4.34,4.34,0,0,0,3.48-1.65,6.35,6.35,0,0,0,1.22-4,14.57,14.57,0,0,0-6.68-11.57,6.82,6.82,0,0,0-3.37-1c-2.81,0-4.71,2.28-4.71,5.67a14.58,14.58,0,0,0,6.69,11.57,6.82,6.82,0,0,0,3.37,1Z" style="fill:#455a64"></path><path d="M352.46,342.8c0,3.82-2.68,5.36-6,3.46a13.22,13.22,0,0,1-6-10.36c0-3.82,2.68-5.37,6-3.46A13.22,13.22,0,0,1,352.46,342.8Z" style="fill:#f5f5f5"></path><path d="M330.73,328.87V331c0,4.19-2.94,5.88-6.57,3.79l-61.53-35.53a14.51,14.51,0,0,1-6.57-11.38v-2.09c0-4.19,2.94-5.89,6.57-3.8l61.53,35.53A14.54,14.54,0,0,1,330.73,328.87Z" style="fill:#f5f5f5"></path><polygon points="371.84 365.39 371.84 337.89 370.4 338.59 370.4 366.22 371.84 365.39" style="fill:#BA68C8"></polygon><polygon points="371.84 365.39 371.84 337.89 370.4 338.59 370.4 366.22 371.84 365.39" style="fill:#fff;opacity:0.2"></polygon><path d="M248.82,261.88a2.16,2.16,0,0,0,1.06,1.66l120.47,69.51a2.35,2.35,0,0,0,2.1,0l94.66-47.88v-2.11L344.58,212.32l-94.7,47.9A2.15,2.15,0,0,0,248.82,261.88Z" style="fill:#BA68C8"></path><path d="M467.11,283.06,372.47,331a2.16,2.16,0,0,1-1.07.24,2,2,0,0,1-1.06-.24L249.88,261.42a.64.64,0,0,1,0-1.21l94.71-47.89Z" style="opacity:0.5"></path><path d="M467.11,283.06v2.11l-94.64,47.88a2.16,2.16,0,0,1-1.07.24v-2.1a2.16,2.16,0,0,0,1.07-.24Z" style="fill:#fff;opacity:0.2"></path><polygon points="465.68 283.9 343.1 213.18 343.1 185.5 465.67 256.55 465.68 283.9" style="fill:#BA68C8"></polygon><polygon points="465.68 283.9 343.1 213.18 343.1 185.5 465.67 256.55 465.68 283.9" style="opacity:0.7000000000000001"></polygon><path d="M250.13,247a2.89,2.89,0,0,0-1.31,2.28v5.6a2.89,2.89,0,0,0,1.31,2.27l120,69.21a2.9,2.9,0,0,0,2.63,0L453,283v-8.64L330.41,203.57Z" style="fill:#ebebeb"></path><path d="M330.41,203.57,250.13,247a.8.8,0,0,0,0,1.52l120,69.2a2.9,2.9,0,0,0,2.63,0L453,274.31Z" style="fill:#fafafa"></path><path d="M442.73,275a3,3,0,0,0,.89.31,2.72,2.72,0,0,0,1.42,0,1.17,1.17,0,0,0,.45-.17c.72-.39.64-1.11-.2-1.59a3.24,3.24,0,0,0-1.25-.36,2.62,2.62,0,0,0-1.51.25.26.26,0,0,0-.14.11C441.83,274,441.94,274.56,442.73,275Z" style="fill:#263238"></path><path d="M371.4,318v8.65a2.72,2.72,0,0,1-1.33-.3L250.12,257.16a3,3,0,0,1-1.3-2.28v-5.62a2.92,2.92,0,0,1,1-2c-.39.39-.3.91.3,1.28l120,69.19A2.42,2.42,0,0,0,371.4,318Z" style="fill:#e6e6e6"></path><path d="M456.78,263a5.25,5.25,0,0,0-5.44.32c-3.29,1.9-6.12,6.26-7.43,11l1.79.27c1.22-4.21,3.71-8.1,6.53-9.73a4.67,4.67,0,0,1,2.26-.7,2.67,2.67,0,0,1,1.37.37c1.44.86,2.24,3.16,2.15,6.14-.17,5.73-3.45,12.21-7.32,14.45a4.26,4.26,0,0,1-2.7.66l-2,1.12.12.08a4.41,4.41,0,0,0,2.28.62,6.29,6.29,0,0,0,3.15-.94c4.42-2.55,8-9.55,8.21-15.94C459.9,267.06,458.8,264.24,456.78,263Z" style="fill:#263238"></path><path d="M248.82,244.3a2.18,2.18,0,0,0,1.06,1.67l120.47,69.5a2.29,2.29,0,0,0,2.1,0l94.66-57.85v-2.1L344.58,184.78l-94.7,57.86A2.2,2.2,0,0,0,248.82,244.3Z" style="fill:#BA68C8"></path><path d="M467.11,255.52l-94.64,57.86a2.16,2.16,0,0,1-1.07.24,2,2,0,0,1-1.06-.24L249.88,243.85a.65.65,0,0,1,0-1.22l94.71-57.85Z" style="fill:#BA68C8"></path><path d="M467.11,255.52l-94.64,57.86a2.16,2.16,0,0,1-1.07.24,2,2,0,0,1-1.06-.24L249.88,243.85a.65.65,0,0,1,0-1.22l94.71-57.85Z" style="fill:#fff;opacity:0.35000000000000003"></path><path d="M467.11,255.52v2.1l-94.64,57.85a2.16,2.16,0,0,1-1.07.24v-2.09a2.16,2.16,0,0,0,1.07-.24Z" style="fill:#fff;opacity:0.2"></path><polygon points="467.11 283.06 467.12 255.57 465.67 256.55 465.68 283.9 467.11 283.06" style="fill:#BA68C8"></polygon><polygon points="467.11 283.06 467.12 255.57 465.67 256.55 465.68 283.9 467.11 283.06" style="fill:#fff;opacity:0.2"></polygon></g><g id="Sheets"><polygon id="shadow" points="265.7 234.9 345.68 188.72 461.05 255.46 381.07 301.63 265.7 234.9" style="fill:#BA68C8;opacity:0.4"></polygon><g id="sheets"><g id="Character"><polygon points="275.93 234.8 381.5 295.86 381.5 231.11 275.93 170.04 275.93 234.8" style="fill:#e0e0e0"></polygon><polygon points="454.69 253.61 381.5 295.86 381.5 231.11 454.69 188.86 454.69 253.61" style="fill:#ebebeb"></polygon><polygon points="275.93 170.05 349.12 127.8 454.69 188.86 381.5 231.11 275.93 170.05" style="fill:#fff"></polygon><path d="M349.12,129.12l103.27,59.74L381.5,229.78,278.23,170.05l70.89-40.93m0-1.32-73.19,42.25L381.5,231.11l73.19-42.25L349.12,127.8Z" style="fill:#ebebeb"></path></g><polygon points="330.95 223.59 381.5 252.77 411.84 235.26 381.5 254.58 330.95 223.59" style="opacity:0.1"></polygon><polygon points="300.62 222.39 381.5 269.09 442.17 234.06 381.5 270.85 300.62 222.39" style="opacity:0.1"></polygon><path d="M286.09,194.07s-1.67,9.45-.83,14.23c0,0,13.23-.33,35.58,5.83Z" style="opacity:0.1"></path><polygon points="286.09 194.07 320.84 214.13 282.39 203.03 286.09 194.07" style="fill:#fff"></polygon><path d="M331,250l38.09,35s1.06-4.82,8.37-8.2Z" style="opacity:0.1"></path><polygon points="330.95 250.04 366.73 280.17 377.42 276.87 330.95 250.04" style="fill:#fff"></polygon><path d="M442.49,214.61l-.32-.48L418.1,228l27.09-2.22C446.13,220.78,443.45,216.08,442.49,214.61Z" style="opacity:0.1"></path><polygon points="418.1 228.03 442.17 214.13 450.19 218.36 418.1 228.03" style="fill:#fafafa"></polygon><g style="opacity:0.15"><path d="M294.53,174.55a1,1,0,0,1-.81-.47.93.93,0,0,1,.35-1.27l60.66-35a.94.94,0,0,1,.94,1.62l-60.67,35A.9.9,0,0,1,294.53,174.55Z"></path><path d="M304.64,180.39a.94.94,0,0,1-.46-1.75l60.66-35a.93.93,0,1,1,.93,1.62l-60.66,35A.9.9,0,0,1,304.64,180.39Z"></path><path d="M314.75,186.22a.91.91,0,0,1-.8-.46.93.93,0,0,1,.34-1.28l60.66-35a.93.93,0,1,1,.94,1.61l-60.67,35A1,1,0,0,1,314.75,186.22Z"></path><path d="M324.87,192.06a1,1,0,0,1-.81-.46.93.93,0,0,1,.34-1.28l60.66-35a1,1,0,0,1,1.28.35.93.93,0,0,1-.34,1.27l-60.67,35A1,1,0,0,1,324.87,192.06Z"></path><path d="M335,197.9a.94.94,0,0,1-.81-.47.92.92,0,0,1,.34-1.27l60.67-35a.93.93,0,0,1,.93,1.62l-60.67,35A.87.87,0,0,1,335,197.9Z"></path><path d="M345.09,203.74a.94.94,0,0,1-.81-.47.92.92,0,0,1,.34-1.27l60.67-35a.93.93,0,0,1,.93,1.62l-60.66,35A.9.9,0,0,1,345.09,203.74Z"></path><path d="M355.2,209.58a.94.94,0,0,1-.47-1.75l60.67-35a.93.93,0,1,1,.93,1.61l-60.66,35A.9.9,0,0,1,355.2,209.58Z"></path><path d="M365.31,215.41a.93.93,0,0,1-.47-1.74l60.67-35a.93.93,0,1,1,.93,1.61l-60.66,35A1,1,0,0,1,365.31,215.41Z"></path><path d="M375.42,221.25a1,1,0,0,1-.81-.47.93.93,0,0,1,.34-1.27l60.67-35a1,1,0,0,1,1.28.35.94.94,0,0,1-.35,1.27l-60.66,35A1,1,0,0,1,375.42,221.25Z"></path></g></g><polygon points="443.69 187.08 377.04 228.53 377.05 240.01 275.93 182.29 275.93 170.05 345.86 129.67 443.69 187.08" style="opacity:0.1"></polygon><g id="sheets"><g id="character"><polygon points="261.9 168.41 367.47 229.48 367.47 164.72 261.89 103.66 261.9 168.41" style="fill:#e0e0e0"></polygon><polygon points="440.65 187.23 367.47 229.48 367.47 164.72 440.65 122.47 440.65 187.23" style="fill:#ebebeb"></polygon><polygon points="261.89 103.66 335.08 61.41 440.65 122.47 367.47 164.72 261.89 103.66" style="fill:#fff"></polygon><path d="M335.08,62.74l103.28,59.73L367.47,163.4,264.19,103.66l70.89-40.92m0-1.33-73.19,42.25,105.58,61.06,73.18-42.25L335.08,61.41Z" style="fill:#ebebeb"></path></g><polygon points="316.91 157.2 367.47 186.39 397.8 168.87 367.47 188.19 316.91 157.2" style="opacity:0.1"></polygon><polygon points="286.58 156 367.47 202.7 428.13 167.68 367.47 204.47 286.58 156" style="opacity:0.1"></polygon><path d="M272.05,127.69s-1.67,9.44-.83,14.22c0,0,13.24-.32,35.58,5.84Z" style="opacity:0.1"></path><polygon points="272.05 127.69 306.8 147.75 268.35 136.65 272.05 127.69" style="fill:#fff"></polygon><path d="M316.91,183.66l38.1,35s1.06-4.81,8.37-8.2Z" style="opacity:0.1"></path><polygon points="316.91 183.66 352.69 213.78 363.38 210.48 316.91 183.66" style="fill:#fafafa"></polygon><path d="M428.46,148.22c-.2-.31-.33-.47-.33-.47l-24.07,13.9,27.1-2.23C432.09,154.39,429.41,149.7,428.46,148.22Z" style="opacity:0.1"></path><polygon points="404.06 161.65 428.13 147.75 436.15 151.98 404.06 161.65" style="fill:#fafafa"></polygon><g style="opacity:0.15"><path d="M280.5,108.16a1,1,0,0,1-.81-.46.93.93,0,0,1,.34-1.28l60.66-35a1,1,0,0,1,1.28.34.93.93,0,0,1-.34,1.28L281,108A1,1,0,0,1,280.5,108.16Z"></path><path d="M290.61,114a.93.93,0,0,1-.47-1.74l60.66-35a1,1,0,0,1,1.28.34.93.93,0,0,1-.34,1.28l-60.67,35A.87.87,0,0,1,290.61,114Z"></path><path d="M300.72,119.84a.94.94,0,0,1-.81-.47.92.92,0,0,1,.34-1.27l60.67-35a.93.93,0,0,1,.93,1.62l-60.67,35A.84.84,0,0,1,300.72,119.84Z"></path><path d="M310.83,125.68a.94.94,0,0,1-.47-1.75l60.67-35a.93.93,0,1,1,.93,1.61l-60.66,35A.9.9,0,0,1,310.83,125.68Z"></path><path d="M320.94,131.51a.93.93,0,0,1-.47-1.74l60.67-35a.93.93,0,1,1,.93,1.61l-60.66,35A1,1,0,0,1,320.94,131.51Z"></path><path d="M331.05,137.35a1,1,0,0,1-.81-.47.94.94,0,0,1,.35-1.27l60.66-35a.94.94,0,0,1,1.27.35.92.92,0,0,1-.34,1.27l-60.66,35A1,1,0,0,1,331.05,137.35Z"></path><path d="M341.16,143.19a1,1,0,0,1-.81-.47.93.93,0,0,1,.34-1.27l60.67-35a.93.93,0,1,1,.93,1.62l-60.66,35A.9.9,0,0,1,341.16,143.19Z"></path><path d="M351.27,149a1,1,0,0,1-.81-.47.93.93,0,0,1,.35-1.27l60.66-35a.94.94,0,1,1,.94,1.62l-60.67,35A.9.9,0,0,1,351.27,149Z"></path><path d="M361.38,154.86a.93.93,0,0,1-.46-1.74l60.66-35a.94.94,0,0,1,1.28.34.93.93,0,0,1-.34,1.27l-60.67,35A1,1,0,0,1,361.38,154.86Z"></path></g></g></g><g id="Note"><polygon points="371.61 193.71 371.61 268.27 433.38 232.6 433.38 158.04 371.61 193.71" style="opacity:0.1"></polygon><path d="M441.76,235.92l-44.36,25.6c-4.72-2.29-16.07-7.15-19-12.94l-4.25-42.19,61.76-35.67Z" style="fill:#BA68C8"></path><path d="M441.76,235.92l-44.36,25.6c-4.72-2.29-16.07-7.15-19-12.94l-4.25-42.19,61.76-35.67Z" style="fill:#fff;opacity:0.2"></path><path d="M430.35,190.78c-.84,1.13-1.9,2.83-3.44,3a2.22,2.22,0,0,1-1.24-.3c.11-.89-.15-2.13-1.29-1.95a.25.25,0,0,0-.17.16,2.05,2.05,0,0,0,.64,2,13.16,13.16,0,0,1-1.9,4.32,5.11,5.11,0,0,1-1.6,1.73,1.17,1.17,0,0,1-1.27,0,.91.91,0,0,1-.32-.44l.12-.61c.05-.3-.45-.78-.68-.42,0,0,0,.05,0,.07h0v0a1.18,1.18,0,0,0-.14.7,19.63,19.63,0,0,1-.78,2.82c-.34.89-.84,2.28-1.9,2.53s-1.55-1.16-1.55-2c0-1.23.39-2.41,0-3.62-.09-.25-.58-.55-.72-.18l-3.48,9.28c-.4,1.08-.95,3.39-2.57,2.95a2.16,2.16,0,0,1-1.43-1.65c.32-.67.63-1.34.91-2s.64-1.53.92-2.3a11.5,11.5,0,0,0,.79-2.54,1.19,1.19,0,0,0-2.18-.89,5.56,5.56,0,0,0-.95,2.1,12.3,12.3,0,0,0-.45,2.69,9.51,9.51,0,0,0,.21,2.74,12.65,12.65,0,0,1-2.05,3.43c-.57.59-1.36,1.1-2.09.48-.38-.31-.7-.78-1.22-.86s-.83.34-1,.8c-.3.83-.55,1.68-.82,2.53-.58-.57-.46-2-1.52-2-.64,0-.88.61-1.08,1.11-.26.67-.51,1.35-.77,2-.12-.89-.23-1.79-.34-2.69,0-.24-.46-.56-.62-.25l-2,3.95-.95,1.86a6.07,6.07,0,0,1-.91,1.64,34.86,34.86,0,0,0,1.19-6.65,12.8,12.8,0,0,0,0-3.27,1.7,1.7,0,0,0-1.29-1.47,3.94,3.94,0,0,0-2.61.91,8,8,0,0,0-3.43,7c0,.18.3.33.3.08a7.62,7.62,0,0,1,1.46-4.58,6.6,6.6,0,0,1,3.94-2.78c1.33-.17,1.13,1.45,1.1,2.32q-.07,1.53-.27,3.06a36.79,36.79,0,0,1-1.22,5.79c-.06.21.19.41.35.45a1.13,1.13,0,0,0,1.23-.69c.46-.75.81-1.58,1.21-2.36l2-3.9c.12,1,.25,2,.37,2.93,0,.22.49.57.62.24l1-2.5c.1-.27.58-2,1-1.37s.46,1.64,1.4,2c.11,0,.3,0,.34-.11.31-.94.56-1.91.92-2.82.11-.26.15-.59.56-.48.13,0,.3.26.4.35a3.43,3.43,0,0,0,.8.62c1.29.62,2.55-.66,3.18-1.66.42-.66.8-1.36,1.16-2.07a3.22,3.22,0,0,0,.49.73,2.25,2.25,0,0,0,3.35.21,7,7,0,0,0,1.12-2.31l1.21-3.21,1.83-4.88a8.16,8.16,0,0,0,0,2.7,2.38,2.38,0,0,0,1.95,2c1.16.09,1.95-.93,2.41-1.86a15.2,15.2,0,0,0,1.07-3.15,2,2,0,0,0,.91.47c1.48.27,2.58-1.32,3.26-2.38a13.79,13.79,0,0,0,1.77-4.09,3.1,3.1,0,0,0,1.32.36c1.89.06,3.15-1.75,3.91-3.23C430.88,191,430.55,190.52,430.35,190.78Zm-24,16a10.53,10.53,0,0,1,1-4.41,1.81,1.81,0,0,1,.65-.8c.57-.3.55.39.45.76a18.93,18.93,0,0,1-.69,2.09c-.4,1.12-.86,2.21-1.35,3.29C406.34,207.4,406.33,207.08,406.33,206.8Z" style="fill:#fafafa"></path><path d="M430,211.32a.73.73,0,0,1-1,0c-.17-.17-.57-.3-.76-.06a12.65,12.65,0,0,0-1.35,3.19c-.36,1-1.29,2.42-2.52,2a2.56,2.56,0,0,1-1.35-2,26.05,26.05,0,0,0,.76-4.29.52.52,0,0,0-.94-.26,7.31,7.31,0,0,0-.79,4.4h0a24.39,24.39,0,0,1-1.59,4.22c-.33.68-.69,1.33-1.08,2a4.58,4.58,0,0,1-1.39,1.69c-1,.58-1.89-.14-2.42-1,.33-.75.66-1.49,1-2.24a34.77,34.77,0,0,0,2.3-5.71c.27-1.13.74-4.13-1.16-4.12-1.52,0-2.47,2.08-3,3.24a11.93,11.93,0,0,0-1,5.24,8.91,8.91,0,0,0,.8,3.63c-.29.68-.68,1.77-1.55,1.59s-1.19-1.49-1.34-2.29c0-.29-.65-.66-.82-.26-.73,1.72-1.42,3.46-2.19,5.17-.22.5-.51.88-1.07.52a4.48,4.48,0,0,1-.86-.77,7.43,7.43,0,0,1-1.5-2.39c-.12-.29-.69-.51-.81-.09a28.38,28.38,0,0,1-3.9,8.34,6.54,6.54,0,0,1-.87-4.74c.16-.48.31-1,.45-1.43s-.54-.75-.73-.34a6.47,6.47,0,0,0-.48,1.53,27.08,27.08,0,0,1-2.93,6.2,6.25,6.25,0,0,1-2.71,2.51,2.94,2.94,0,0,1-3.27-.57c-.26-.29-.47.09-.26.34a3.3,3.3,0,0,0,3.06,1,5.22,5.22,0,0,0,3.26-2.14,21.2,21.2,0,0,0,2.78-4.89,7.06,7.06,0,0,0,1.42,3.34c.16.2.52.37.71.11a29,29,0,0,0,4-8.06,8.57,8.57,0,0,0,1.11,1.57c.57.63,1.47,1.58,2.42,1.38s1.26-1.69,1.59-2.45l1.13-2.67c.43,1.1,1.19,2.06,2.52,1.81A2.21,2.21,0,0,0,415.2,222a2.5,2.5,0,0,0,.22.24,2.7,2.7,0,0,0,4-.11,19.2,19.2,0,0,0,2.94-5.57c.09-.25.17-.51.25-.77a3,3,0,0,0,1.34,1.27,2.62,2.62,0,0,0,3.19-1c.87-1.18,1-2.7,1.71-3.93a1.75,1.75,0,0,0,1.9-.24C431.19,211.55,430.41,211,430,211.32Zm-13.94.46a5.62,5.62,0,0,1,1.09-1.56c.32-.29.75-.59,1,0a3.54,3.54,0,0,1,.07,1.38A13.11,13.11,0,0,1,416.9,216l-1.78,4a.93.93,0,0,1,0-.13A11.13,11.13,0,0,1,416.1,211.78Z" style="fill:#fafafa"></path><path d="M426.74,230.21c-1.12.91-2.68,1.18-3.75,2.14a9.77,9.77,0,0,0-1.33,1.87,2,2,0,0,1-.93.79c-.51.18-.74-.13-1.05-.47-1.11-1.19-2.49-.53-3.16.76s-1.34,4.19-3.42,3.56a4,4,0,0,0-2.28-.45,2.73,2.73,0,0,0-1.51,1.61c-.21.43.59.86.8.44a2.75,2.75,0,0,1,.92-1.23c.53-.28,1.09.05,1.59.24a2.63,2.63,0,0,0,2.6-.23,5,5,0,0,0,1.63-2.31c.29-.66,1.12-3,2.11-1.94a2,2,0,0,0,2.18.83A3.57,3.57,0,0,0,423,234a4.52,4.52,0,0,1,2.23-1.86,7.89,7.89,0,0,0,1.29-.67,1.63,1.63,0,0,0,.57-.85C427.16,230.46,426.93,230.06,426.74,230.21Z" style="fill:#fafafa"></path><path d="M432.24,227.85a.4.4,0,0,0-.1-.15l-.07-.07a.44.44,0,0,0-.16-.06h-.12l-.09.05a.18.18,0,0,0-.06.13.29.29,0,0,0,0,.16V228a.46.46,0,0,0,.09.17l.12.11.12,0a.2.2,0,0,0,.11,0l0,0,0,0a.24.24,0,0,0,.07-.13V228A.3.3,0,0,0,432.24,227.85Z" style="fill:#fafafa"></path><path d="M378.35,248.58c1.51,3.29,13,4.37,18.31,2,0,0-1.75,7.89.74,10.95,0,0-4.57.15-11.6-4.43S378.35,248.58,378.35,248.58Z" style="fill:#BA68C8"></path><polygon points="435.87 170.72 374.1 206.38 374.1 194.94 435.87 159.28 435.87 170.72" style="fill:#BA68C8"></polygon></g></g><g id="Device"><g id="Monitor"><path d="M187,391.26,229,367c4.32-2.49,6.48-5.76,6.48-9s0-5.84,0-5.84L196,329.74a9.22,9.22,0,0,1-4.18-7.23v-37.4l-73.25,42.33v37.4a9.24,9.24,0,0,0,4.17,7.23l33,19.19C164.36,396.26,178.37,396.26,187,391.26Z" style="fill:#455a64"></path><path d="M136.16,374v5.81l-13.43-7.74a9.25,9.25,0,0,1-4.17-7.23v-37.4l14-8.05c.29,3.54.6,7.21.89,10.77l-9.79,5.67v26.09a9.17,9.17,0,0,0,4.17,7.23Z" style="opacity:0.15"></path><path d="M123.62,361.93a9.22,9.22,0,0,0,4.18,7.23l27.9,16.27c8.65,5,22.67,5,31.32,0l42-24.25c8.64-5,8.64-13.08,0-18.08l-27.93-16.28a9.24,9.24,0,0,1-4.17-7.23V293.5l-73.26,42.33Z" style="fill:#37474f"></path><path d="M209.55,331.75h0l-8.5-4.91a9.24,9.24,0,0,1-4.17-7.23V293.5l-73.26,42.33v26.1a9.22,9.22,0,0,0,4.18,7.23l8.35,4.83Z" style="opacity:0.15"></path><path d="M36.36,400.74a11.2,11.2,0,0,0,10.11-.18l241-139.15a11.53,11.53,0,0,0,5.22-9V40.17a11.18,11.18,0,0,0-4.9-8.85,11.17,11.17,0,0,0-10.11.19l-241,139.14a11.52,11.52,0,0,0-5.22,9v212.2A11.2,11.2,0,0,0,36.36,400.74Z" style="fill:#37474f"></path><path d="M46.47,400.55l241-139.14a11.54,11.54,0,0,0,5.22-9V40.17c0-3.33-2.33-4.68-5.22-3L46.48,176.3a11.53,11.53,0,0,0-5.22,9v212.2C41.26,400.86,43.59,402.21,46.47,400.55Z" style="fill:#455a64"></path><path d="M48.15,377.07V187.66a7.09,7.09,0,0,1,3.21-5.55L282.59,48.61c1.77-1,3.21-.2,3.21,1.85V239.87a7.09,7.09,0,0,1-3.21,5.56L51.36,378.93C49.59,380,48.15,379.12,48.15,377.07Z" style="fill:#263238"></path><path d="M276.24,240.84a7.1,7.1,0,0,0,3.21-5.56V50.42L51.36,182.11a7.09,7.09,0,0,0-3.21,5.55V372.52Z" style="fill:#fafafa"></path><path d="M33,174.53l9.79,5.64a11,11,0,0,0-1.54,5.16V397.54c0,3,2.05,4.73,5.21,3a11.08,11.08,0,0,1-10.11.18,10,10,0,0,1-4.9-8.22V179.69A10.82,10.82,0,0,1,33,174.53Z" style="fill:#263238"></path></g></g><g id="Window"><g id="window"><path d="M316.34,51.3a3.39,3.39,0,0,0-1.68.51L70.38,192.89a8.36,8.36,0,0,0-3.78,6.55V396.07c0,1.9,1.06,3.52,2.54,3.52a2.48,2.48,0,0,0,1.24-.37L314.65,258.08a8.33,8.33,0,0,0,3.78-6.54V54C318.43,52.28,317.58,51.3,316.34,51.3Zm.82,200.24A7,7,0,0,1,314,257L69.75,398.12a1.25,1.25,0,0,1-.61.19c-.67,0-1.26-1.05-1.26-2.24V199.44A7.05,7.05,0,0,1,71,194L315.29,52.91a2.22,2.22,0,0,1,1-.34c.71,0,.82.89.82,1.42Z" style="fill:#e0e0e0"></path><path d="M317.16,54V251.54A7,7,0,0,1,314,257L69.75,398.12a1.25,1.25,0,0,1-.61.19c-.67,0-1.26-1.05-1.26-2.24V199.44A7.05,7.05,0,0,1,71,194L315.29,52.91a2.22,2.22,0,0,1,1-.34C317.05,52.57,317.16,53.46,317.16,54Z" style="fill:#fafafa"></path><path d="M63.36,396.61c.41.22,3.35,1.89,4.64,2.63a3.85,3.85,0,0,1-1.39-3.18V211.79L61.77,209V393.33A3.68,3.68,0,0,0,63.36,396.61Z" style="fill:#ebebeb"></path><path d="M63.36,396.61c.41.22,3.35,1.89,4.64,2.63a3.85,3.85,0,0,1-1.39-3.18V211.79L61.77,209V393.33A3.68,3.68,0,0,0,63.36,396.61Z" style="opacity:0.1"></path><path d="M318.43,54c0-2.38-1.7-3.35-3.78-2.15L70.38,192.89a8.36,8.36,0,0,0-3.78,6.55v12.35L318.43,66.36Z" style="fill:#BA68C8"></path><path d="M294.64,69.22c1.12-.65,2-.12,2,1.17a4.49,4.49,0,0,1-2,3.52c-1.13.65-2,.12-2-1.17A4.48,4.48,0,0,1,294.64,69.22Z" style="fill:#fafafa"></path><path d="M302.76,64.53c1.12-.65,2-.12,2,1.17a4.49,4.49,0,0,1-2,3.52c-1.12.65-2,.12-2-1.17A4.49,4.49,0,0,1,302.76,64.53Z" style="fill:#fafafa"></path><path d="M310.88,59.84c1.13-.65,2-.12,2,1.17a4.48,4.48,0,0,1-2,3.52c-1.12.65-2,.12-2-1.17A4.49,4.49,0,0,1,310.88,59.84Z" style="fill:#fafafa"></path><path d="M61.77,209V196.69a7.78,7.78,0,0,1,1.15-3.77l4.81,2.76a7.64,7.64,0,0,0-1.12,3.76v12.35Z" style="fill:#BA68C8"></path><path d="M61.77,209V196.69a7.78,7.78,0,0,1,1.15-3.77l4.81,2.76a7.64,7.64,0,0,0-1.12,3.76v12.35Z" style="opacity:0.15"></path><path d="M314.65,51.81,70.38,192.89a7.84,7.84,0,0,0-2.66,2.81l-4.8-2.78a7.53,7.53,0,0,1,2.63-2.76L309.83,49.08a2.66,2.66,0,0,1,2.74-.23c.68.42,3.82,2.2,4.61,2.63A2.73,2.73,0,0,0,314.65,51.81Z" style="fill:#BA68C8"></path><path d="M314.65,51.81,70.38,192.89a7.84,7.84,0,0,0-2.66,2.81l-4.8-2.78a7.53,7.53,0,0,1,2.63-2.76L309.83,49.08a2.66,2.66,0,0,1,2.74-.23c.68.42,3.82,2.2,4.61,2.63A2.73,2.73,0,0,0,314.65,51.81Z" style="fill:#fff;opacity:0.30000000000000004"></path><polygon points="66.62 211.37 66.62 233.62 318.45 88.23 318.45 65.94 66.62 211.37" style="fill:#BA68C8"></polygon><polygon points="66.62 211.37 66.62 233.62 318.45 88.23 318.45 65.94 66.62 211.37" style="fill:#fff;opacity:0.55"></polygon><polygon points="66.61 211.79 61.77 208.96 61.77 230.84 66.6 233.62 66.61 211.79" style="fill:#BA68C8"></polygon><polygon points="66.61 211.79 61.77 208.96 61.77 230.84 66.6 233.62 66.61 211.79" style="fill:#fff;opacity:0.30000000000000004"></polygon><g style="opacity:0.75"><polygon points="79.06 210.14 98.41 199.02 98.41 210.11 79.06 221.29 79.06 210.14" style="fill:#fff"></polygon><polygon points="103.19 196.21 103.19 200.59 112.85 195.02 112.85 190.63 103.19 196.21" style="fill:#fff"></polygon><polygon points="103.19 202.98 103.19 207.36 112.85 201.79 112.85 197.41 103.19 202.98" style="fill:#fff"></polygon><polygon points="117.67 187.85 117.67 192.23 127.32 186.66 127.32 182.27 117.67 187.85" style="fill:#fff"></polygon><polygon points="117.67 194.62 117.67 199 127.32 193.43 127.32 189.04 117.67 194.62" style="fill:#fff"></polygon><polygon points="132.15 179.49 132.15 183.87 141.8 178.3 141.8 173.91 132.15 179.49" style="fill:#fff"></polygon><polygon points="132.15 186.26 132.15 190.64 141.8 185.07 141.8 180.68 132.15 186.26" style="fill:#fff"></polygon><polygon points="175.58 154.42 175.58 158.8 185.23 153.23 185.23 148.84 175.58 154.42" style="fill:#fff"></polygon><polygon points="175.58 161.19 175.58 165.57 185.23 160 185.23 155.61 175.58 161.19" style="fill:#fff"></polygon><polygon points="190.06 146.06 190.06 150.44 199.71 144.87 199.71 140.48 190.06 146.06" style="fill:#fff"></polygon><polygon points="190.06 152.82 190.06 157.21 199.71 151.64 199.71 147.25 190.06 152.82" style="fill:#fff"></polygon><polygon points="204.53 137.69 204.53 142.08 214.19 136.5 214.19 132.12 204.53 137.69" style="fill:#fff"></polygon><polygon points="204.53 144.46 204.53 148.85 214.19 143.28 214.19 138.89 204.53 144.46" style="fill:#fff"></polygon><polygon points="146.62 171.13 170.75 157.2 170.75 168.34 146.63 182.27 146.62 171.13" style="fill:#fff"></polygon><polygon points="219.02 129.34 238.37 118.22 238.37 129.31 219.01 140.49 219.02 129.34" style="fill:#fff"></polygon><polygon points="243.15 115.41 243.15 119.79 252.8 114.22 252.8 109.83 243.15 115.41" style="fill:#fff"></polygon><polygon points="243.15 122.18 243.15 126.56 252.8 120.99 252.8 116.6 243.15 122.18" style="fill:#fff"></polygon><polygon points="257.63 107.05 257.63 111.43 267.28 105.86 267.28 101.47 257.63 107.05" style="fill:#fff"></polygon><polygon points="257.63 113.81 257.63 118.2 267.28 112.63 267.28 108.24 257.63 113.81" style="fill:#fff"></polygon><polygon points="272.1 98.69 272.11 103.07 281.76 97.5 281.76 93.11 272.1 98.69" style="fill:#fff"></polygon><polygon points="272.1 105.45 272.11 109.84 281.76 104.27 281.76 99.88 272.1 105.45" style="fill:#fff"></polygon><polygon points="286.58 90.33 310.71 76.4 310.71 87.54 286.59 101.47 286.58 90.33" style="fill:#fff"></polygon></g><path d="M209.73,121.47v.82c0,1.31.92,1.84,2.06,1.19l58.62-33.85a4.54,4.54,0,0,0,2.06-3.56v-.83c0-1.31-.92-1.84-2.06-1.18L211.79,117.9A4.56,4.56,0,0,0,209.73,121.47Z" style="fill:#f5f5f5"></path><path d="M272.47,86.07v-.83c0-1.31-.92-1.84-2.06-1.18l-7.59,4.38h0V94h0l7.59-4.38A4.54,4.54,0,0,0,272.47,86.07Z" style="fill:#455a64"></path><path d="M311,202.07c-4.1,1.86-7.06,3.2-8.23,5.78a6.59,6.59,0,0,0,.33,6.37,5.35,5.35,0,0,1,.87,3,9.81,9.81,0,0,1-4.44,7.69c-2.45,1.42-4.44.26-4.44-2.57a11.31,11.31,0,0,1,.87-4c.9-2.35,1.52-5.54.33-6.77s-3.46.48-7,3c-1.94,1.38-4.35,3.1-7.08,4.7,0-2.69.08-5.24.13-7.5.17-7.78.29-12.92-1.14-14.19-1.25-1.11-3.08.91-4.27,3a6.81,6.81,0,0,1-2.28,2.65c-1.84,1.06-3.33-1.14-3.33-4.91s1.49-7.69,3.33-8.75a2.17,2.17,0,0,1,2.28,0c1.19.7,3,.61,4.27-1.95,1.66-3.39,1.34-10.07.9-19.32,0-1-.09-2.1-.14-3.18,1.59-.92,3.08-1.83,4.51-2.7,5.15-3.12,8.88-5.38,10.12-4.09,1,1,.42,3.78-.37,5.84a12.9,12.9,0,0,0-1,4.51c0,3.23,2.21,4.59,4.92,3a11.07,11.07,0,0,0,4.91-8.71,6.09,6.09,0,0,0-1-3.4,5.57,5.57,0,0,1-.37-5.4c1.26-2.76,4.79-4.7,9.69-7.39,1.4-.77,2.84-1.56,4.41-2.46v-.74c-1.56.9-3,1.7-4.4,2.46-5,2.75-8.64,4.74-10,7.82a6.59,6.59,0,0,0,.34,6.37,5.41,5.41,0,0,1,.86,3,9.86,9.86,0,0,1-4.43,7.7c-2.45,1.41-4.44.25-4.44-2.58a11.46,11.46,0,0,1,.86-4c.9-2.35,1.53-5.53.34-6.77-1.39-1.44-5.2.87-10.48,4.07-1.44.88-2.93,1.79-4.54,2.72-.41-9.36-.68-19.55,1.08-23.15,1-2.11,2.61-2.14,3.65-1.53a2.46,2.46,0,0,0,2.57,0c2.1-1.22,3.81-5.6,3.81-9.77s-1.71-6.58-3.81-5.37a7.64,7.64,0,0,0-2.57,3c-1,1.81-2.62,3.6-3.65,2.68-1.71-1.53-1.35-10.13-.88-21l-.48.23c-.49,11.52-.84,19.85,1,21.52,1.25,1.11,3.08-.91,4.26-3a6.89,6.89,0,0,1,2.29-2.65c1.84-1.06,3.33,1.14,3.33,4.9s-1.49,7.7-3.33,8.76a2.18,2.18,0,0,1-2.29,0c-1.18-.7-3-.61-4.26,1.94-1.73,3.53-1.75,11.71-1.22,23.76-1.46.85-2.81,1.66-4,2.4-5,3-8.06,4.84-9.33,3.52-1-1-.42-3.78.37-5.84a12.86,12.86,0,0,0,1-4.51c0-3.23-2.21-4.6-4.92-3a11.06,11.06,0,0,0-4.91,8.71,6.09,6.09,0,0,0,1,3.4,5.57,5.57,0,0,1,.37,5.4c-1.26,2.77-5.28,5-10.36,7.77-1.35.74-2.74,1.51-4.2,2.35-.45-10.14-.64-18.17,1.07-21.67,1-2.11,2.61-2.15,3.65-1.54a2.44,2.44,0,0,0,2.57,0c2.1-1.21,3.81-5.6,3.81-9.77s-1.71-6.58-3.81-5.36a7.67,7.67,0,0,0-2.57,3c-1,1.81-2.62,3.6-3.65,2.68-1.77-1.57-1.32-12.16-.88-22.4l-.48.23c-.54,12.79-.76,21.29,1,22.89,1.25,1.11,3.08-.91,4.27-3a6.81,6.81,0,0,1,2.28-2.65c1.84-1.06,3.33,1.14,3.33,4.91s-1.49,7.69-3.33,8.76a2.17,2.17,0,0,1-2.28,0c-1.19-.7-3-.61-4.27,2-1.86,3.81-1.69,11.64-1.22,22.29-2.74,1.6-5.18,3.34-7.16,4.75-3.38,2.41-5.83,4.15-6.81,3.13s-.42-3.78.37-5.84a12.9,12.9,0,0,0,1-4.51c0-3.24-2.2-4.6-4.91-3a11.06,11.06,0,0,0-4.92,8.7,6.09,6.09,0,0,0,1,3.4,5.62,5.62,0,0,1,.38,5.41c-1,2.19-3.44,3.27-6.81,4.76a72.74,72.74,0,0,0-6.79,3.33c0-1.07,0-2.13,0-3.15.09-10.17.16-17.51-1.52-19-1.24-1.12-3.07.91-4.26,3a7.07,7.07,0,0,1-2.28,2.65c-1.84,1.06-3.34-1.14-3.34-4.91s1.5-7.69,3.34-8.76a2.15,2.15,0,0,1,2.28,0c1.19.7,3,.61,4.26-2,1.88-3.84,1.94-11.95,1.45-22.94l-.48.32c.42,9.34.55,18.51-1.3,22.28-1,2.11-2.61,2.15-3.65,1.54a2.42,2.42,0,0,0-2.56,0c-2.11,1.21-3.82,5.59-3.82,9.77s1.71,6.58,3.82,5.36a7.67,7.67,0,0,0,2.56-3c1-1.81,2.62-3.6,3.65-2.68,1.53,1.35,1.46,8.56,1.37,18.54,0,1,0,2.08,0,3.16-1.45.84-2.83,1.6-4.18,2.34-5.4,3-9.31,5.11-10.72,8.2a6.59,6.59,0,0,0,.34,6.37,5.35,5.35,0,0,1,.87,3,9.81,9.81,0,0,1-4.44,7.69c-2.45,1.42-4.44.26-4.44-2.57a11.31,11.31,0,0,1,.87-4c.9-2.35,1.52-5.53.33-6.77-1.41-1.46-4.5.41-9.62,3.5-1.28.77-2.67,1.61-4.19,2.49q0-1.69,0-3.27c.09-9.93.15-15.93-1.52-17.41-1.25-1.11-3.08.91-4.26,3a6.89,6.89,0,0,1-2.29,2.65c-1.84,1.06-3.33-1.14-3.33-4.91s1.49-7.69,3.33-8.76a2.19,2.19,0,0,1,2.29,0c1.19.7,3,.6,4.26-2,1.58-3.23,2-11,1.45-24.35l-.48.32c.58,13,.16,20.72-1.3,23.69-1,2.11-2.61,2.15-3.65,1.54a2.44,2.44,0,0,0-2.57,0c-2.1,1.21-3.81,5.6-3.81,9.77s1.71,6.58,3.81,5.36a7.58,7.58,0,0,0,2.57-3c1-1.81,2.62-3.6,3.65-2.68,1.52,1.35,1.46,7.56,1.37,17,0,1.05,0,2.14,0,3.28-1.6.93-3.1,1.84-4.55,2.72-5.14,3.12-8.85,5.38-10.1,4.09-1-1-.42-3.78.37-5.84a12.9,12.9,0,0,0,1-4.51c0-3.24-2.2-4.6-4.91-3a11.06,11.06,0,0,0-4.92,8.7,6,6,0,0,0,1,3.4,5.65,5.65,0,0,1,.37,5.41c-1.26,2.76-4.69,4.64-9.45,7.24-1.25.69-2.67,1.47-4.15,2.32,0-1.08,0-2.13,0-3.16.09-10.16.16-17.5-1.52-19-1.24-1.12-3.07.91-4.26,3a7,7,0,0,1-2.29,2.65c-1.83,1.06-3.33-1.14-3.33-4.91s1.5-7.7,3.33-8.76a2.17,2.17,0,0,1,2.29,0c1.19.7,3,.6,4.26-2,1.88-3.84,1.94-11.95,1.45-22.94l-.48.32c.42,9.34.55,18.5-1.3,22.28-1,2.11-2.61,2.15-3.65,1.54a2.44,2.44,0,0,0-2.57,0c-2.1,1.21-3.81,5.59-3.81,9.77s1.71,6.57,3.81,5.36a7.58,7.58,0,0,0,2.57-3c1-1.81,2.63-3.6,3.65-2.68,1.53,1.35,1.46,8.56,1.37,18.54,0,1,0,2.08,0,3.16-1.45.84-2.84,1.6-4.18,2.34-5.4,3-9.31,5.11-10.72,8.2a6.59,6.59,0,0,0,.34,6.37,5.35,5.35,0,0,1,.87,3,9.81,9.81,0,0,1-4.44,7.69c-2.45,1.42-4.44.26-4.44-2.57a11.31,11.31,0,0,1,.87-4c.9-2.35,1.52-5.53.33-6.77-1.38-1.43-4.64.55-9.56,3.54-1.34.82-2.86,1.75-4.5,2.69-.11-2.35-.24-4.57-.37-6.72-.45-7.39-.8-13.22.49-15.87,1-2.11,2.61-2.14,3.65-1.53a2.43,2.43,0,0,0,2.57,0c2.1-1.21,3.81-5.59,3.81-9.76s-1.71-6.58-3.81-5.37a7.73,7.73,0,0,0-2.57,3c-1,1.81-2.62,3.6-3.65,2.68-1.21-1.08-.88-6-.43-12.84.17-2.62.37-5.59.5-8.74l-.47.23c-.14,3.13-.33,6.09-.5,8.7-.47,7.05-.8,12.14.57,13.37s3.08-.91,4.27-3a6.81,6.81,0,0,1,2.28-2.65c1.84-1.07,3.34,1.14,3.34,4.9s-1.5,7.7-3.34,8.76a2.17,2.17,0,0,1-2.28,0c-1.19-.7-3-.61-4.27,1.94-1.46,3-1.11,8.68-.64,16.55.13,2.13.26,4.34.37,6.66-1.49.85-2.92,1.64-4.29,2.39-5.34,2.92-9.19,5-10.59,8.09a6.59,6.59,0,0,0,.34,6.37,5.41,5.41,0,0,1,.86,3,9.86,9.86,0,0,1-4.43,7.7c-2.45,1.41-4.44.26-4.44-2.58a11.31,11.31,0,0,1,.87-4c.89-2.35,1.52-5.53.33-6.76-1.39-1.44-4.74.6-9.82,3.68-1.42.87-3,1.84-4.74,2.83v.74c1.72-1,3.33-2,4.75-2.84,4.95-3,8.22-5,9.47-3.71,1,1,.41,3.78-.38,5.84a12.86,12.86,0,0,0-1,4.51c0,3.23,2.21,4.6,4.92,3A11.06,11.06,0,0,0,90,287.17a6.11,6.11,0,0,0-1-3.4,5.57,5.57,0,0,1-.37-5.4c1.25-2.75,5.21-4.92,10.23-7.66,1.39-.76,2.83-1.55,4.34-2.42h0c.08,1.89.18,3.68.27,5.36.41,7.67.71,13.21-.66,16-1,2.11-2.61,2.14-3.65,1.53a2.44,2.44,0,0,0-2.57,0c-2.1,1.21-3.81,5.59-3.81,9.76s1.71,6.58,3.81,5.37a7.64,7.64,0,0,0,2.57-3c1-1.81,2.62-3.6,3.65-2.68,1.28,1.15,1.16,6.73,1,14.47,0,2.27-.1,4.84-.12,7.51l-.32.15v0l-1.12.65c-6.7,3.89-12,7-13.5,5.4-1-1-.41-3.78.37-5.83a12.66,12.66,0,0,0,1-4.51c0-3.24-2.2-4.6-4.91-3a11.07,11.07,0,0,0-4.91,8.71,6,6,0,0,0,1,3.4,5.64,5.64,0,0,1,.37,5.41c-1.53,3.34-6.61,6.26-13,10l-1.29.74v.74l1.29-.74L69.8,343c6.16-3.56,10.59-6.26,12.15-9.68a6.61,6.61,0,0,0-.33-6.38,5.3,5.3,0,0,1-.87-3,9.82,9.82,0,0,1,4.44-7.7c2.45-1.41,4.44-.26,4.44,2.57a11.39,11.39,0,0,1-.87,4c-.9,2.34-1.52,5.53-.33,6.76,1.64,1.7,6.76-1.26,13.84-5.38l1.09-.63c-.47,11.11-.76,19.1,1.06,20.73,1.25,1.11,3.08-.91,4.27-3A7,7,0,0,1,111,338.7c1.84-1.06,3.34,1.14,3.34,4.9s-1.5,7.7-3.34,8.76a2.17,2.17,0,0,1-2.28,0c-1.19-.7-3-.61-4.27,1.94-1.87,3.84-1.68,14.4-1.2,25.24l.48-.33c-.46-10.15-.69-21,1-24.57,1-2.11,2.61-2.14,3.65-1.53a2.46,2.46,0,0,0,2.57,0c2.11-1.22,3.82-5.6,3.82-9.77s-1.71-6.58-3.82-5.37a7.9,7.9,0,0,0-2.57,3c-1,1.81-2.62,3.6-3.65,2.68-1.67-1.49-1.36-9.75-.91-20.28l.11-.07h0l1.29-.74,1.22-.71c6.16-3.55,10.58-6.25,12.15-9.68a6.59,6.59,0,0,0-.34-6.37,5.41,5.41,0,0,1-.86-3,9.86,9.86,0,0,1,4.43-7.7c2.45-1.41,4.44-.25,4.44,2.58a11.5,11.5,0,0,1-.86,4c-.9,2.35-1.53,5.53-.34,6.77,1.64,1.69,5.7-.66,12.42-4.56l1.6-.92c.39,9.11.48,17.93-1.33,21.62-1,2.11-2.61,2.15-3.65,1.54a2.44,2.44,0,0,0-2.57,0c-2.1,1.21-3.81,5.6-3.81,9.77s1.71,6.58,3.81,5.36a7.58,7.58,0,0,0,2.57-3c1-1.81,2.63-3.6,3.65-2.68,1.53,1.36,1.46,9.9,1.37,19.78,0,1.12,0,2.27,0,3.43l.48-.27q0-1.74,0-3.42c.09-10.47.16-18.74-1.52-20.24-1.24-1.11-3.07.91-4.26,3a6.89,6.89,0,0,1-2.29,2.65c-1.83,1.06-3.33-1.14-3.33-4.91s1.5-7.69,3.33-8.75a2.18,2.18,0,0,1,2.29,0c1.19.7,3,.61,4.26-1.95,1.84-3.75,1.93-11.59,1.48-22.21,2-1.17,3.93-2.11,5.59-2.94,1.42-.72,2.68-1.34,3.77-2,2.11-1.22,3.59-2.44,4.42-4.25a6.59,6.59,0,0,0-.34-6.37,5.35,5.35,0,0,1-.87-3,9.87,9.87,0,0,1,4.44-7.7C159,275,161,276.17,161,279a11.31,11.31,0,0,1-.87,4c-.9,2.35-1.52,5.53-.33,6.77s4.14-.63,8.53-3.51c1.93-1.27,4.12-2.7,6.51-4.08h0l.11-.07c.54,12.62.11,20.19-1.32,23.11-1,2.12-2.61,2.15-3.65,1.54a2.44,2.44,0,0,0-2.57,0c-2.1,1.22-3.81,5.6-3.81,9.77s1.71,6.58,3.81,5.37a7.73,7.73,0,0,0,2.57-3c1-1.81,2.63-3.6,3.65-2.68,1.45,1.29,1.37,7.84,1.27,16.92,0,1.57,0,3.23-.05,4.95l.48-.27c0-1.72,0-3.37,0-4.95.12-9.6.19-16-1.41-17.37-1.24-1.11-3.07.91-4.26,3a6.89,6.89,0,0,1-2.29,2.65c-1.84,1.06-3.33-1.14-3.33-4.9s1.49-7.7,3.33-8.76a2.18,2.18,0,0,1,2.29,0c1.18.7,3,.61,4.26-1.94,1.56-3.19,2-10.75,1.47-23.73,1.33-.76,2.6-1.46,3.81-2.12s2.33-1.28,3.36-1.88c3.39-2,5.82-3.7,6.9-6.06a6.61,6.61,0,0,0-.34-6.38,5.36,5.36,0,0,1-.86-3,9.85,9.85,0,0,1,4.43-7.7c2.45-1.41,4.44-.26,4.44,2.57a11.5,11.5,0,0,1-.86,4c-.9,2.35-1.53,5.53-.34,6.76,1.38,1.42,4.67-.59,9.67-3.65,1.39-.85,3-1.81,4.64-2.78-.08,2-.18,4-.28,5.79-.42,8.29-.73,14.28.79,15.63,1.25,1.12,3.08-.91,4.27-3a6.89,6.89,0,0,1,2.28-2.65c1.84-1.06,3.34,1.14,3.34,4.91s-1.5,7.7-3.34,8.76a2.15,2.15,0,0,1-2.28,0c-1.19-.7-3-.61-4.27,1.95s-1,7.32-.71,13.87c.16,3.18.34,6.79.37,10.7l.47-.28c0-3.93-.2-7.56-.36-10.75-.3-6.12-.54-10.94.56-13.2s2.61-2.15,3.65-1.54a2.44,2.44,0,0,0,2.57,0c2.1-1.21,3.81-5.59,3.81-9.77s-1.71-6.57-3.81-5.36a7.67,7.67,0,0,0-2.57,3c-1,1.82-2.62,3.6-3.65,2.68-1.36-1.21-1.06-7-.64-15.12.09-1.84.19-3.8.28-5.86,1.49-.85,2.92-1.64,4.18-2.33s2.26-1.24,3.25-1.81c3.25-1.87,5.46-3.5,6.54-5.85a6.61,6.61,0,0,0-.34-6.38,5.36,5.36,0,0,1-.86-3,9.85,9.85,0,0,1,4.43-7.7c2.45-1.41,4.44-.26,4.44,2.58a11.35,11.35,0,0,1-.87,4c-.89,2.35-1.52,5.53-.33,6.76,1.38,1.44,4.73-.59,9.79-3.68,1.37-.83,2.91-1.77,4.55-2.72.13,2.87.32,5.51.49,7.84.45,6.25.77,10.76-.43,13.22-1,2.11-2.61,2.15-3.65,1.54a2.44,2.44,0,0,0-2.57,0c-2.11,1.22-3.82,5.6-3.82,9.77s1.71,6.58,3.82,5.37a7.9,7.9,0,0,0,2.57-3c1-1.81,2.62-3.6,3.65-2.68,1.34,1.2,1,8.6.5,17.17-.11,2.17-.23,4.42-.32,6.69l.47-.23c.1-2.26.22-4.51.33-6.67.48-9.13.85-16.33-.65-17.68-1.25-1.11-3.08.91-4.27,3a6.89,6.89,0,0,1-2.28,2.65c-1.84,1.06-3.34-1.14-3.34-4.91s1.5-7.69,3.34-8.75a2.17,2.17,0,0,1,2.28,0c1.19.7,3,.61,4.27-1.95,1.37-2.81,1-7.22.57-13.91-.16-2.31-.35-4.93-.48-7.77l1-.59,1.22-.7c6.16-3.56,10.58-6.26,12.15-9.69a6.59,6.59,0,0,0-.34-6.37,5.41,5.41,0,0,1-.86-3,9.86,9.86,0,0,1,4.43-7.7c2.45-1.41,4.44-.25,4.44,2.58a11.46,11.46,0,0,1-.86,4c-.9,2.35-1.53,5.53-.34,6.77,1.64,1.69,6.57-1.16,13.37-5.11l1.45-.84c.08,1.78.17,3.47.26,5.06.41,7.86.71,13.54-.68,16.38-1,2.1-2.61,2.14-3.65,1.53a2.46,2.46,0,0,0-2.57,0c-2.1,1.22-3.81,5.6-3.81,9.77s1.71,6.58,3.81,5.37a7.64,7.64,0,0,0,2.57-3c1.05-1.81,2.63-3.6,3.65-2.68,1.41,1.25,1,9.07.58,18.13-.09,1.83-.18,3.71-.26,5.61l.48-.23c.08-1.89.17-3.77.26-5.6.47-9.63.84-17.23-.73-18.63-1.24-1.11-3.07.91-4.26,3a6.89,6.89,0,0,1-2.29,2.65c-1.84,1.06-3.33-1.14-3.33-4.9s1.49-7.7,3.33-8.76a2.18,2.18,0,0,1,2.29,0c1.18.7,3,.61,4.26-1.94,1.55-3.17,1.25-9,.82-17.05-.08-1.58-.17-3.25-.25-5,2.75-1.6,5.16-3.33,7.11-4.72,3.37-2.41,5.6-4,6.58-3s.41,3.78-.37,5.83a12.66,12.66,0,0,0-1,4.51c0,3.24,2.2,4.6,4.91,3A11.07,11.07,0,0,0,304.4,217a6,6,0,0,0-1-3.4,5.64,5.64,0,0,1-.37-5.41c1-2.22,4-3.6,7.85-5.33a80.29,80.29,0,0,0,7.2-3.6v-.73C315.56,200,313.11,201.08,311,202.07Zm-173.46,101c-6.59,3.82-10.58,6.13-12.07,4.58-1-1-.42-3.78.37-5.84a12.9,12.9,0,0,0,1-4.51c0-3.23-2.21-4.59-4.92-3a11.06,11.06,0,0,0-4.91,8.71,6.09,6.09,0,0,0,1,3.4,5.57,5.57,0,0,1,.37,5.4c-1.52,3.34-6.6,6.27-13,10l-1,.6c0-2.66.08-5.22.13-7.49.17-7.93.3-13.66-1.14-14.94-1.24-1.11-3.07.91-4.26,3a6.89,6.89,0,0,1-2.29,2.65c-1.84,1.07-3.33-1.13-3.33-4.9s1.49-7.7,3.33-8.76a2.18,2.18,0,0,1,2.29,0c1.18.7,3,.61,4.26-1.94,1.53-3.14,1.24-8.53.8-16.69-.09-1.66-.18-3.43-.27-5.29,1.63-.95,3.14-1.87,4.48-2.68,4.8-2.92,8-4.85,9.21-3.56,1,1,.41,3.78-.37,5.83a12.78,12.78,0,0,0-1,4.52c0,3.23,2.21,4.59,4.92,3a11.07,11.07,0,0,0,4.91-8.71,6,6,0,0,0-1-3.4,5.59,5.59,0,0,1-.37-5.41c1.26-2.77,5.28-5,10.36-7.77,1.34-.73,2.73-1.49,4.17-2.33-.12,2.81-.29,5.5-.45,8.1-.5,7.95-.86,13.69.55,14.94,1.24,1.12,3.07-.91,4.26-3a6.89,6.89,0,0,1,2.29-2.65c1.83-1.06,3.33,1.14,3.33,4.91s-1.5,7.7-3.33,8.76a2.17,2.17,0,0,1-2.29,0c-1.19-.69-3-.61-4.26,1.95-1.43,2.92-1.13,7.64-.67,14.8.13,2.08.28,4.43.4,6.94Zm30.84-17.56c-4.11,2.7-7.08,4.65-8.17,3.52s-.41-3.78.37-5.84a12.7,12.7,0,0,0,1-4.51c0-3.23-2.21-4.59-4.92-3a11.06,11.06,0,0,0-4.91,8.71,6,6,0,0,0,1,3.4,5.57,5.57,0,0,1,.37,5.4c-1.1,2.42-3.92,3.83-7.81,5.78-1.68.84-3.58,1.79-5.65,3v0l-.15.1h0c-.12-2.55-.27-4.93-.41-7-.42-6.69-.73-11.53.53-14.11,1-2.11,2.6-2.15,3.65-1.54a2.44,2.44,0,0,0,2.57,0c2.1-1.21,3.81-5.59,3.81-9.77s-1.71-6.57-3.81-5.36a7.58,7.58,0,0,0-2.57,3c-1,1.82-2.62,3.6-3.65,2.68-1.24-1.1-.87-7-.4-14.42.16-2.62.33-5.33.45-8.17,1.49-.85,2.91-1.63,4.16-2.32s2.26-1.24,3.25-1.81c3.26-1.88,5.47-3.5,6.55-5.86a6.64,6.64,0,0,0-.33-6.38,5.3,5.3,0,0,1-.87-3,9.83,9.83,0,0,1,4.44-7.7c2.44-1.41,4.43-.26,4.43,2.57a11.5,11.5,0,0,1-.86,4c-.9,2.35-1.53,5.53-.34,6.76,1.4,1.44,5.2-.87,10.46-4.06,1.44-.88,2.93-1.78,4.52-2.7l-.1,2.33c-.44,10-.75,17.29,1,18.82,1.25,1.11,3.08-.91,4.27-3a7,7,0,0,1,2.28-2.66c1.84-1.06,3.34,1.14,3.34,4.91s-1.5,7.7-3.34,8.76a2.15,2.15,0,0,1-2.28,0c-1.19-.69-3-.6-4.27,1.95-1.72,3.52-1.75,11.68-1.22,23.71C172.32,282.94,170.21,284.32,168.34,285.55Zm37.32-21.87c-4.87,3-8.09,4.94-9.31,3.67-1-1-.42-3.78.37-5.84a12.9,12.9,0,0,0,1-4.51c0-3.24-2.21-4.6-4.92-3a11.08,11.08,0,0,0-4.91,8.7,6.09,6.09,0,0,0,1,3.4,5.59,5.59,0,0,1,.37,5.41c-1.26,2.76-5.07,4.86-9.9,7.51-1.33.73-2.71,1.49-4.18,2.33-.42-9.33-.69-19.49,1.07-23.09,1-2.11,2.61-2.14,3.65-1.54a2.44,2.44,0,0,0,2.57,0c2.1-1.21,3.81-5.59,3.81-9.76s-1.71-6.58-3.81-5.37a7.64,7.64,0,0,0-2.57,3c-1,1.81-2.62,3.59-3.65,2.67-1.55-1.38-1.24-8.48-.81-18.31l.1-2.39h0c1.52-.88,2.92-1.73,4.19-2.5,4.83-2.91,8-4.83,9.28-3.52,1,1,.41,3.78-.37,5.84a12.7,12.7,0,0,0-1,4.51c0,3.23,2.21,4.59,4.92,3a11.07,11.07,0,0,0,4.91-8.71,6,6,0,0,0-1-3.4,5.62,5.62,0,0,1-.37-5.41c1.26-2.77,5.28-5,10.36-7.77,1.34-.73,2.73-1.49,4.17-2.33-.14,3.19-.35,6.25-.54,9-.5,7-.86,12.12.48,13.32s3.08-.91,4.27-3a6.89,6.89,0,0,1,2.28-2.65c1.84-1.07,3.34,1.13,3.34,4.9s-1.5,7.7-3.34,8.76a2.15,2.15,0,0,1-2.28,0c-1.19-.69-3-.6-4.27,2-1.44,2.95-1.11,8.26-.65,15.61.14,2.16.27,4.39.39,6.81C208.63,261.86,207.06,262.82,205.66,263.68Zm39.88-23.18c-1.64.94-3.17,1.88-4.53,2.7-4.93,3-8.19,5-9.44,3.71-1-1-.41-3.78.38-5.84a12.9,12.9,0,0,0,1-4.51c0-3.24-2.21-4.6-4.92-3a11.06,11.06,0,0,0-4.91,8.71,6.11,6.11,0,0,0,1,3.4,5.57,5.57,0,0,1,.37,5.4c-1.25,2.75-4.69,4.64-9.43,7.23-1.26.7-2.69,1.48-4.19,2.34-.11-2.45-.25-4.7-.38-6.88-.43-6.88-.77-12.32.5-14.93,1-2.11,2.61-2.14,3.65-1.53a2.43,2.43,0,0,0,2.57,0c2.1-1.21,3.81-5.59,3.81-9.76s-1.71-6.58-3.81-5.37a7.73,7.73,0,0,0-2.57,3c-1,1.81-2.62,3.6-3.65,2.68s-.8-6.23-.34-12.79c.19-2.72.41-5.8.55-9a71.43,71.43,0,0,1,6.77-3.33,42.68,42.68,0,0,0,3.9-1.87,7.3,7.3,0,0,0,3.29-3.33,6.61,6.61,0,0,0-.34-6.38,5.36,5.36,0,0,1-.86-3,9.83,9.83,0,0,1,4.44-7.7c2.44-1.41,4.43-.26,4.43,2.57a11.5,11.5,0,0,1-.86,4c-.9,2.35-1.53,5.53-.34,6.76s3.56-.53,7.2-3.13c2.07-1.47,4.41-3.13,7.12-4.71l-.05,1c-.47,11.06-.84,19.79.94,21.38,1.25,1.12,3.08-.91,4.27-3a6.81,6.81,0,0,1,2.28-2.65c1.84-1.06,3.33,1.14,3.33,4.91s-1.49,7.7-3.33,8.76a2.15,2.15,0,0,1-2.28,0c-1.19-.7-3-.61-4.27,1.95C244.9,222.07,245.07,229.88,245.54,240.5ZM281.86,212c-.05,2.27-.1,4.82-.12,7.53l-1.45.83c-6.69,3.87-11.52,6.68-13,5.13-1-1-.42-3.78.37-5.83a12.94,12.94,0,0,0,1-4.52c0-3.23-2.21-4.59-4.92-3a11.07,11.07,0,0,0-4.91,8.71,6.09,6.09,0,0,0,1,3.4,5.59,5.59,0,0,1,.37,5.41c-1.52,3.34-6.59,6.25-13,10l-1.07.61c-.44-10.11-.63-18.12,1.08-21.62,1-2.11,2.61-2.15,3.65-1.54a2.44,2.44,0,0,0,2.57,0c2.1-1.21,3.81-5.59,3.81-9.77s-1.71-6.58-3.81-5.36a7.67,7.67,0,0,0-2.57,3c-1,1.82-2.62,3.6-3.65,2.68-1.62-1.44-1.24-10.45-.79-20.89l0-1.1c1.46-.84,2.86-1.61,4.2-2.35,5.41-3,9.31-5.11,10.72-8.2a6.59,6.59,0,0,0-.34-6.37,5.41,5.41,0,0,1-.86-3,9.86,9.86,0,0,1,4.43-7.7c2.45-1.41,4.44-.25,4.44,2.58a11.46,11.46,0,0,1-.86,4c-.9,2.35-1.53,5.53-.34,6.76s3.3.25,6.69-1.72c.91-.52,1.91-1.12,3-1.77s2.59-1.56,4.06-2.41c0,1.1.1,2.18.15,3.22.41,8.72.74,15.6-.76,18.66-1,2.11-2.61,2.15-3.65,1.54a2.44,2.44,0,0,0-2.57,0c-2.1,1.22-3.81,5.6-3.81,9.77s1.71,6.58,3.81,5.36a7.67,7.67,0,0,0,2.57-3c1-1.81,2.62-3.6,3.65-2.68C282.15,199.44,282,204.72,281.86,212Z" style="fill:#e0e0e0"></path><path d="M220.47,227.77c0,3.77-1.5,7.7-3.34,8.76a2.15,2.15,0,0,1-2.28,0c-1.19-.69-3-.6-4.27,2-1.44,2.95-1.11,8.26-.65,15.61.14,2.16.28,4.39.39,6.81-1.69,1-3.26,1.94-4.66,2.8-4.87,3-8.08,4.94-9.31,3.67-1-1-.42-3.78.37-5.84a12.9,12.9,0,0,0,1-4.51c0-3.24-2.2-4.6-4.91-3a11.06,11.06,0,0,0-4.92,8.7,6.09,6.09,0,0,0,1,3.4,5.62,5.62,0,0,1,.38,5.41c-1.27,2.76-5.08,4.85-9.91,7.51-1.33.73-2.71,1.49-4.18,2.33-.41-9.33-.69-19.49,1.07-23.09,1-2.11,2.61-2.15,3.65-1.54a2.44,2.44,0,0,0,2.57,0c2.1-1.21,3.81-5.59,3.81-9.77s-1.71-6.57-3.81-5.36a7.75,7.75,0,0,0-2.57,3c-1,1.82-2.62,3.6-3.65,2.68-1.55-1.38-1.24-8.48-.81-18.32l.1-2.38h0c1.52-.88,2.92-1.73,4.2-2.5,4.82-2.91,8-4.83,9.27-3.52,1,1,.41,3.78-.37,5.83a12.67,12.67,0,0,0-1,4.52c0,3.23,2.2,4.59,4.91,3a11.07,11.07,0,0,0,4.91-8.71,6,6,0,0,0-1-3.4,5.64,5.64,0,0,1-.37-5.41c1.27-2.77,5.28-5,10.37-7.77,1.33-.73,2.72-1.5,4.16-2.33-.14,3.19-.35,6.25-.54,9-.5,7-.86,12.12.48,13.32s3.08-.91,4.27-3a7,7,0,0,1,2.28-2.66C219,221.8,220.47,224,220.47,227.77Z" style="fill:#e0e0e0"></path><path d="M137.78,335.57c1.52,1.36,1.45,9.9,1.36,19.78,0,1.12,0,2.27,0,3.43L103.7,379.2c-.46-10.15-.68-21,1.06-24.57,1-2.11,2.6-2.14,3.65-1.53a2.44,2.44,0,0,0,2.57,0c2.1-1.21,3.81-5.59,3.81-9.76s-1.71-6.58-3.81-5.37a7.64,7.64,0,0,0-2.57,3c-1,1.81-2.63,3.6-3.65,2.68-1.67-1.49-1.36-9.75-.92-20.29l.11-.06,1.29-.74,1.22-.71c6.16-3.55,10.59-6.25,12.15-9.68a6.61,6.61,0,0,0-.34-6.38,5.36,5.36,0,0,1-.86-3,9.85,9.85,0,0,1,4.44-7.7c2.44-1.41,4.43-.26,4.43,2.58a11.5,11.5,0,0,1-.86,4c-.9,2.35-1.53,5.53-.34,6.76,1.64,1.7,5.71-.65,12.42-4.55l1.6-.92c.39,9.11.48,17.93-1.32,21.62-1,2.11-2.61,2.15-3.65,1.54a2.44,2.44,0,0,0-2.57,0c-2.11,1.21-3.82,5.6-3.82,9.77s1.71,6.58,3.82,5.36a7.75,7.75,0,0,0,2.57-3C135.17,336.44,136.75,334.65,137.78,335.57Z" style="fill:#e0e0e0"></path><path d="M103.24,380l0-.82c-.46-10.2-.69-21.12,1.11-24.81a3.58,3.58,0,0,1,2.1-2,2.81,2.81,0,0,1,2.25.3,2,2,0,0,0,2.07,0c1.93-1.11,3.56-5.39,3.56-9.33,0-2.47-.65-4.44-1.65-5a1.34,1.34,0,0,0-1.41.08,7.16,7.16,0,0,0-2.39,2.79c-.51.88-1.84,2.94-3.22,3.16a1.41,1.41,0,0,1-1.2-.36c-1.78-1.59-1.57-8.9-1.08-20.68V323l2.12-1.21.73-.43c6.27-3.61,10.48-6.21,12-9.46a6.1,6.1,0,0,0-.3-5.89,5.84,5.84,0,0,1-.94-3.29,10.4,10.4,0,0,1,4.69-8.13,3.54,3.54,0,0,1,3.62-.31,3.59,3.59,0,0,1,1.56,3.32,12.11,12.11,0,0,1-.89,4.19c-.89,2.31-1.41,5.25-.45,6.23,1.38,1.43,5.75-1.11,11.81-4.63l2.31-1.33,0,.82c.39,9.1.49,18-1.37,21.86a3.62,3.62,0,0,1-2.13,2.05,2.74,2.74,0,0,1-2.22-.3,2,2,0,0,0-2.07,0c-1.94,1.11-3.57,5.39-3.57,9.34,0,2.47.65,4.43,1.65,5a1.34,1.34,0,0,0,1.42-.08A7.37,7.37,0,0,0,133.7,338c.5-.87,1.82-2.93,3.2-3.16a1.42,1.42,0,0,1,1.21.36h0c1.62,1.44,1.63,8.6,1.53,20.16l0,3.71Zm3.94-26.78a1.69,1.69,0,0,0-.48.07,2.67,2.67,0,0,0-1.49,1.52c-1.67,3.4-1.46,14.2-1,23.51l34.45-19.87,0-3.14c.08-8.94.16-18.19-1.2-19.41a.41.41,0,0,0-.38-.11c-.63.1-1.64,1.17-2.5,2.67a8.15,8.15,0,0,1-2.75,3.14,2.28,2.28,0,0,1-2.42.09c-1.35-.78-2.15-3-2.15-5.88,0-4.41,1.79-8.89,4.07-10.2a2.9,2.9,0,0,1,3.07,0,1.79,1.79,0,0,0,1.43.2,2.7,2.7,0,0,0,1.52-1.53c1.71-3.51,1.64-12.26,1.3-20.55l-.88.5c-6.93,4-11.11,6.46-13,4.47-1.35-1.4-.77-4.68.23-7.29a11,11,0,0,0,.83-3.83,2.23,2.23,0,0,0-3.68-2.15,9.3,9.3,0,0,0-4.19,7.27,4.86,4.86,0,0,0,.77,2.73,7.12,7.12,0,0,1,.38,6.87c-1.59,3.51-5.93,6.2-12.35,9.9-.24.15-.49.29-.74.43l-1.64.95c-.38,9-.75,18.27.76,19.62a.42.42,0,0,0,.38.11c.63-.1,1.64-1.17,2.51-2.67a8,8,0,0,1,2.75-3.15,2.28,2.28,0,0,1,2.41-.08c1.34.78,2.15,3,2.15,5.88,0,4.4-1.79,8.88-4.06,10.19a2.93,2.93,0,0,1-3.07,0A2.09,2.09,0,0,0,107.18,353.26Z" style="fill:#e0e0e0"></path><path d="M292.55,130.22c0,3.77-1.49,7.7-3.33,8.76a2.15,2.15,0,0,1-2.28,0c-1.19-.69-3-.6-4.27,1.95-1.72,3.53-1.75,11.71-1.22,23.76-1.46.85-2.81,1.66-4,2.4-5,3-8.05,4.84-9.33,3.52-1-1-.42-3.78.37-5.84a12.9,12.9,0,0,0,1-4.51c0-3.24-2.2-4.6-4.91-3a11.07,11.07,0,0,0-4.92,8.71,6.11,6.11,0,0,0,1,3.4,5.59,5.59,0,0,1,.38,5.4c-1.27,2.77-5.28,5-10.37,7.77-1.35.74-2.74,1.51-4.2,2.35-.45-10.14-.64-18.17,1.07-21.67,1-2.11,2.61-2.15,3.65-1.54a2.44,2.44,0,0,0,2.57,0c2.1-1.22,3.81-5.6,3.81-9.77s-1.71-6.58-3.81-5.36a7.67,7.67,0,0,0-2.57,3c-1,1.81-2.62,3.6-3.65,2.68-1.76-1.57-1.32-12.16-.88-22.4l35.1-20.31c-.49,11.52-.84,19.85,1,21.52,1.25,1.11,3.08-.91,4.27-3a6.81,6.81,0,0,1,2.28-2.65C291.06,124.25,292.55,126.45,292.55,130.22Z" style="fill:#e0e0e0"></path></g></g><g id="puzzle-pieces"><g id="puzzle-piece"><path d="M433.06,399.32l-2.53-1.49c-7.7-4.57-13.79-8.19-17.57-8.13-2.82,0-4.21,1.68-4.55,3.06a3.31,3.31,0,0,1-1.64,2.11,5.66,5.66,0,0,1-1.42.52,1.64,1.64,0,0,0,.13-.54v-.06c0-1.62,0-9.41,0-9.41.09-2.39-6.4-6-15.08-10.4l-2.21,1.23c-7.61,4.4-12.2,7.06-15.74,7a3.67,3.67,0,0,1-3.78-2.68,3.82,3.82,0,0,0-1.86-2.36c-2.43-1.4-6.95-1.07-10.08.74-1.85,1.07-2.81,2.42-2.77,3.63,0,.84,0,8.21,0,9.41a2.57,2.57,0,0,0,1.5,2.24,6.6,6.6,0,0,0,.87.41c-1.63,1-3.44,2-5.36,3.13l-1.61,1v9.47s13.11,9.14,17.23,9.09c2.82,0,4.21-1.68,4.54-3.07a3.37,3.37,0,0,1,1.63-2.1,5.88,5.88,0,0,1,1.43-.52,1.65,1.65,0,0,0-.13.53v9.47c-.1,2.44,8.12,6.94,17,11.43l.51-.34,40.9-23.6.57-.32Z" style="fill:#BA68C8"></path><g style="opacity:0.2"><path d="M381.74,403.4c-2.82-1.63-6.84-2-9-.73a3.35,3.35,0,0,0-1.64,2.1,4,4,0,0,1-3,2.86v9.46a4,4,0,0,0,3-2.85,3.35,3.35,0,0,1,1.64-2.1,5.36,5.36,0,0,1,1.43-.52c.58-1.27,3.05-1.91,5.18-2.09a8.66,8.66,0,0,0,3.63-.94C385.14,407.36,384.56,405,381.74,403.4Z"></path><path d="M405.49,385.4c-.1,1.62-2.92,2.41-5.32,2.6a8.73,8.73,0,0,0-3.64.95c-2.12,1.23-1.55,3.55,1.27,5.18a11.22,11.22,0,0,0,7.69,1.24v0l-.14,0a1.34,1.34,0,0,0,.14-.53v-.14C405.47,393,405.49,385.64,405.49,385.4Z"></path></g><polygon points="391.08 433.05 391.08 423.58 433.06 399.32 433.06 408.79 391.08 433.05" style="opacity:0.2"></polygon><path d="M391.05,423c-4.79-2.41-16.59-8.41-16.49-10.83.05-1.2,2.55-1.95,4.85-2.14a9.1,9.1,0,0,0,3.85-1,2.74,2.74,0,0,0,1.54-2.36c0-1.31-1-2.66-2.81-3.69a12.1,12.1,0,0,0-5.88-1.54,7.26,7.26,0,0,0-3.6.81,3.87,3.87,0,0,0-1.87,2.41c-.29,1.22-1.52,2.65-4.06,2.69h0c-3.48,0-8.13-3.11-14-7l-2.29-1.53,1-.6c8.91-5.13,13.55-7.91,13.45-10.18-.08-2.1-3.92-2.57-5.1-2.67a9.17,9.17,0,0,1-3.87-1,2.18,2.18,0,0,1-1.25-1.81c0-1.05.94-2.22,2.52-3.14a12.3,12.3,0,0,1,5.95-1.53,7.45,7.45,0,0,1,3.63.8,3.25,3.25,0,0,1,1.62,2,4.18,4.18,0,0,0,4.26,3.07h0c3.75,0,8.34-2.65,15.94-7.05l2-1.12c5.59,2.84,14.66,7.47,14.57,9.81-.05,1.16-2.48,2-4.85,2.14a9.32,9.32,0,0,0-3.85,1,2.73,2.73,0,0,0-1.53,2.36c0,1.31,1,2.65,2.8,3.68a12.16,12.16,0,0,0,5.9,1.55h0a7.17,7.17,0,0,0,3.57-.81,3.81,3.81,0,0,0,1.88-2.42c.29-1.22,1.54-2.65,4.06-2.68h0c3.74,0,9.73,3.56,17.31,8.06l1.79,1.05-40.72,23.5Z" style="fill:#fafafa"></path><path d="M390.42,376.12c4.59,2.33,14.14,7.24,14.06,9.22,0,.64-1.8,1.46-4.4,1.67a9.58,9.58,0,0,0-4.05,1.08,3.2,3.2,0,0,0-1.78,2.79c0,1.49,1.11,3,3.05,4.11a12.63,12.63,0,0,0,6.15,1.62,7.6,7.6,0,0,0,3.82-.88,4.27,4.27,0,0,0,2.11-2.73c.26-1,1.35-2.27,3.59-2.3H413c3.52,0,9.76,3.7,17,8l1,.62-40,23.07h0l0,0,0,0c-3.64-1.84-8.07-4.15-11.29-6.18-4.58-2.89-4.67-3.94-4.67-4.06,0-.63,1.8-1.45,4.39-1.66a9.59,9.59,0,0,0,4.06-1.08,3.21,3.21,0,0,0,1.79-2.79c0-1.5-1.12-3-3.06-4.12a12.65,12.65,0,0,0-6.13-1.61,7.72,7.72,0,0,0-3.85.88,4.34,4.34,0,0,0-2.11,2.73c-.24,1-1.33,2.27-3.57,2.3h-.06c-3.26,0-7.86-3.08-13.68-7l-1.64-1.1.29-.18c9.32-5.37,13.8-8.06,13.69-10.63s-3.92-3-5.56-3.15a8.74,8.74,0,0,1-3.66-.94,1.65,1.65,0,0,1-1-1.38c0-.86.87-1.89,2.27-2.71a11.92,11.92,0,0,1,5.7-1.46,7,7,0,0,1,3.38.73,2.85,2.85,0,0,1,1.39,1.72,4.64,4.64,0,0,0,4.74,3.45h.1c3.79,0,8.43-2.68,16.13-7.14l1.75-1m0-1.14-2.21,1.23c-7.54,4.36-12.12,7-15.65,7h-.09a3.67,3.67,0,0,1-3.78-2.68,3.82,3.82,0,0,0-1.86-2.36,8,8,0,0,0-3.88-.86,12.87,12.87,0,0,0-6.2,1.6c-3.13,1.81-3.69,4.41-1.27,5.81a9.61,9.61,0,0,0,4.08,1.08c2.11.17,4.59.84,4.64,2.19.09,2.08-5.78,5.46-13.21,9.74l-1.61,1c7.54,5,13,9.09,17.16,9.09h.07c2.82,0,4.21-1.68,4.54-3.07a3.37,3.37,0,0,1,1.63-2.1,6.86,6.86,0,0,1,3.35-.74,11.71,11.71,0,0,1,5.63,1.47c2.82,1.63,3.4,4,1.27,5.19a8.72,8.72,0,0,1-3.64.94c-2.41.2-5.25,1-5.31,2.62-.1,2.44,8.12,6.94,17,11.43l.51-.34,40.9-23.6.57-.32-2.53-1.49c-7.64-4.54-13.7-8.13-17.49-8.13H413c-2.82,0-4.21,1.68-4.55,3.06a3.31,3.31,0,0,1-1.64,2.11,6.74,6.74,0,0,1-3.32.74,11.68,11.68,0,0,1-5.65-1.48c-2.82-1.63-3.39-3.95-1.27-5.18a8.68,8.68,0,0,1,3.64-.95c2.4-.19,5.23-1,5.31-2.62.09-2.39-6.4-6-15.08-10.4Z" style="fill:#e0e0e0"></path></g><g id="puzzle-piece"><path d="M480.56,358.6A6.2,6.2,0,0,0,482,358a2.22,2.22,0,0,0,1.28-1.9h0v-9.39h0c0-1.08-.88-2.3-2.56-3.27-2.83-1.63-6.85-2-9-.73a3.3,3.3,0,0,0-1.64,2.09c-.33,1.4-1.72,3-4.54,3.07-4.22.06-9.91-3.69-17.78-8.89l-40.49,23.42v9.39c7,4.61,14.22,9.38,18.19,9.33a3.69,3.69,0,0,0,3.79-2.68,3.79,3.79,0,0,1,1.86-2.36,7.69,7.69,0,0,1,3.65-.85,1.64,1.64,0,0,0-1,1.28v9.38c-.09,2.23,6.23,5.63,14.55,9.83,1.69-1,3.32-1.88,4.91-2.76,6-3.33,10.69-6,10.63-7.69v-9.38a1.63,1.63,0,0,0-1-1.28,7.69,7.69,0,0,1,3.65.85,3.79,3.79,0,0,1,1.86,2.36,3.68,3.68,0,0,0,3.79,2.68c3,0,6.47-2,12.18-5.41,1.4-.84,2.93-1.75,4.61-2.73V363C485.68,361.39,482.88,359.92,480.56,358.6Z" style="fill:#BA68C8"></path><path d="M442.46,373.29a9.75,9.75,0,0,1-4.08,1.07,9.64,9.64,0,0,0-3.62.9,7.69,7.69,0,0,0-3.65.86,3.74,3.74,0,0,0-1.86,2.35,3.48,3.48,0,0,1-2.12,2.36v-9.37a3.45,3.45,0,0,0,2.12-2.37,3.74,3.74,0,0,1,1.86-2.35c2.42-1.41,6.94-1.07,10.07.73S444.88,371.89,442.46,373.29Z" style="opacity:0.2"></path><path d="M463.83,376v9.34c.07,1.73-4.64,4.36-10.63,7.69-1.59.88-3.22,1.8-4.91,2.77v-9.38c1.69-1,3.32-1.89,4.91-2.77C459.15,380.3,463.83,377.69,463.83,376Z" style="opacity:0.2"></path><path d="M473,352.22c.07-1.62,2.91-2.43,5.32-2.62a8.71,8.71,0,0,0,3.63-.94,2.27,2.27,0,0,0,1.28-1.78v9.26A2.24,2.24,0,0,1,482,358a6.26,6.26,0,0,1-1.4.56l.89.5C476.05,356.11,473,353.83,473,352.22Z" style="opacity:0.2"></path><path d="M488.89,363v9.38c-1.68,1-3.21,1.89-4.61,2.72-5.71,3.4-9.15,5.45-12.18,5.41a4.52,4.52,0,0,1-.85-.09v-9.38a4.52,4.52,0,0,0,.85.09c3,0,6.47-2,12.18-5.41C485.68,364.91,487.21,364,488.89,363Z" style="opacity:0.2"></path><path d="M448.27,385.8c-5.71-2.88-14.12-7.16-14-9.24,0-.8,1.79-1.51,4.18-1.71a10.12,10.12,0,0,0,4.29-1.13,3.13,3.13,0,0,0,1.75-2.68c0-1.44-1.11-2.9-3-4a13.28,13.28,0,0,0-6.44-1.67,8.33,8.33,0,0,0-4.13.94,4.29,4.29,0,0,0-2.1,2.67,3.2,3.2,0,0,1-3.3,2.3h0c-3.8,0-10.86-4.59-17.24-8.81l39.53-22.86c7.75,5.12,13.37,8.8,17.7,8.81h.1c3.1,0,4.64-1.88,5-3.45a2.82,2.82,0,0,1,1.4-1.78,6.23,6.23,0,0,1,3.07-.68,11.3,11.3,0,0,1,5.39,1.41c1.45.84,2.31,1.9,2.31,2.83a1.79,1.79,0,0,1-1,1.49,8.13,8.13,0,0,1-3.42.87c-2.74.23-5.69,1.16-5.78,3.1-.08,2.22,3.81,5,15.34,10.85L484,365.31c-5.59,3.33-9,5.34-11.83,5.34a3.24,3.24,0,0,1-3.39-2.3,4.26,4.26,0,0,0-2.1-2.67,8.35,8.35,0,0,0-4.13-.94,13.25,13.25,0,0,0-6.44,1.67c-1.92,1.11-3,2.58-3,4a3.1,3.1,0,0,0,1.76,2.68,10.18,10.18,0,0,0,4.28,1.14c2.36.18,4.16.91,4.19,1.7.05,1.43-5.25,4.38-10.38,7.23C451.44,384,449.88,384.88,448.27,385.8Z" style="fill:#fafafa"></path><path d="M447.73,340.19c7.69,5.08,13.29,8.71,17.72,8.71h.1c3.39,0,5.08-2.09,5.51-3.84a2.29,2.29,0,0,1,1.16-1.46A5.81,5.81,0,0,1,475,343a10.76,10.76,0,0,1,5.14,1.35c1.52.88,2.06,1.81,2.06,2.39a1.28,1.28,0,0,1-.78,1.06,7.83,7.83,0,0,1-3.22.81c-1.43.11-6.1.72-6.23,3.58-.09,2.42,3.55,5.13,14.8,10.89l-3,1.81c-5.52,3.28-8.85,5.27-11.58,5.27h-.07a2.66,2.66,0,0,1-2.84-1.93,4.73,4.73,0,0,0-2.33-3,8.76,8.76,0,0,0-4.38-1,13.73,13.73,0,0,0-6.68,1.74c-2.09,1.2-3.29,2.82-3.29,4.44a3.58,3.58,0,0,0,2,3.11,10.62,10.62,0,0,0,4.49,1.21c2.39.18,3.72.9,3.73,1.21-.06,1.19-5.88,4.42-10.12,6.78-1.3.72-2.83,1.58-4.45,2.51-4.72-2.39-13.59-6.93-13.52-8.66,0-.31,1.33-1,3.72-1.23a10.6,10.6,0,0,0,4.5-1.2,3.6,3.6,0,0,0,2-3.11c0-1.62-1.2-3.24-3.28-4.44a13.8,13.8,0,0,0-6.69-1.74,8.76,8.76,0,0,0-4.38,1,4.69,4.69,0,0,0-2.33,3,2.66,2.66,0,0,1-2.83,1.92h-.05c-3.47,0-10.09-4.23-16.23-8.28l38.56-22.3m0-1.18-40.49,23.42c6.94,4.6,14.14,9.34,18.13,9.34h.06a3.69,3.69,0,0,0,3.79-2.68,3.79,3.79,0,0,1,1.86-2.36,8,8,0,0,1,3.88-.87,12.84,12.84,0,0,1,6.19,1.61c3.13,1.8,3.7,4.41,1.28,5.81a9.56,9.56,0,0,1-4.08,1.08c-2.11.16-4.59.84-4.64,2.18-.09,2.23,6.23,5.63,14.55,9.83,1.69-1,3.32-1.88,4.91-2.77,6-3.32,10.69-6,10.63-7.68-.05-1.34-2.54-2-4.65-2.18a9.85,9.85,0,0,1-4.07-1.07c-2.43-1.41-1.86-4,1.28-5.82a12.63,12.63,0,0,1,6.18-1.61,8,8,0,0,1,3.88.87,3.77,3.77,0,0,1,1.86,2.35,3.68,3.68,0,0,0,3.79,2.69h.09c3,0,6.43-2,12.09-5.41,1.4-.84,2.93-1.75,4.61-2.73-9.88-5-16-8.55-15.88-10.79.07-1.63,2.91-2.43,5.32-2.63a8.56,8.56,0,0,0,3.63-.94c2.13-1.22,1.55-3.55-1.28-5.18A11.67,11.67,0,0,0,475,342a6.74,6.74,0,0,0-3.32.75,3.3,3.3,0,0,0-1.64,2.09c-.33,1.4-1.72,3-4.54,3.07h-.09c-4.22,0-9.88-3.73-17.69-8.89Z" style="fill:#e0e0e0"></path><path d="M471.25,371.06v9.38a3.52,3.52,0,0,1-2.94-2.59,3.74,3.74,0,0,0-1.86-2.35,7.69,7.69,0,0,0-3.65-.86,9.73,9.73,0,0,0-3.62-.9,9.54,9.54,0,0,1-4.07-1.07c-2.43-1.4-1.86-4,1.28-5.82s7.63-2.14,10.06-.73a3.74,3.74,0,0,1,1.86,2.35A3.52,3.52,0,0,0,471.25,371.06Z" style="opacity:0.30000000000000004"></path></g></g><g id="Coffee"><g id="coffee"><g id="coffee"><path d="M42.85,374.8c16.1-6.13,41.86-6.41,57.54-.63s15.8,15.42.24,21.54-41.32,6.41-57.54.64S26.76,380.93,42.85,374.8Z" style="fill:#BA68C8"></path><g style="opacity:0.30000000000000004"><path d="M42.85,374.8c16.1-6.13,41.86-6.41,57.54-.63s15.8,15.42.24,21.54-41.32,6.41-57.54.64S26.76,380.93,42.85,374.8Z"></path></g><path d="M29.76,355.36l82.89-.82-5.2,97.73h-.08c-.36,3.56-3.64,7.1-9.94,9.89-13.44,5.94-35.7,6.19-49.72.55-6.58-2.64-10.06-6.12-10.5-9.67h-.08Z" style="fill:#fafafa"></path><path d="M112.65,354.54l-1.06,19.85a37.07,37.07,0,0,1-6.88,3.79c-17.84,7.62-47.4,7.94-66,.72-.81-.31-1.48-.65-2.21-1a42.42,42.42,0,0,1-5.24-2.87l-1.48-19.69Z" style="fill:#ebebeb"></path><path d="M24.55,358.31l-.16-14.93,9.66-.11a46.42,46.42,0,0,1,4.22-2c18.46-7.62,48-7.95,66-.73a42.17,42.17,0,0,1,4.08,1.91l9.39-.1.16,14.93h0c.06,4.86-4.37,9.78-13.29,13.59-17.84,7.62-47.4,7.94-66,.73C29.29,368,24.6,363.17,24.55,358.31Z" style="fill:#BA68C8"></path><g style="opacity:0.2"><path d="M24.55,358.31l-.16-14.93,9.66-.11a46.42,46.42,0,0,1,4.22-2c18.46-7.62,48-7.95,66-.73a42.17,42.17,0,0,1,4.08,1.91l9.39-.1.16,14.93h0c.06,4.86-4.37,9.78-13.29,13.59-17.84,7.62-47.4,7.94-66,.73C29.29,368,24.6,363.17,24.55,358.31Z"></path></g><path d="M38.14,329.79c18.46-7.63,48-8,66-.73s18.14,19.26.29,26.88-47.4,7.94-66,.73S19.69,337.41,38.14,329.79Z" style="fill:#BA68C8"></path><path d="M32.93,339.69h0l2.86-12.35,23.71-.26A96.94,96.94,0,0,1,83,326.83l23-.25,3.14,12.27h0c1.54,4.46-2,9.19-10.57,12.72-14.71,6-39.08,6.29-54.43.6C35.16,348.83,31.44,344.18,32.93,339.69Z" style="fill:#BA68C8"></path><path d="M32.93,339.69h0l2.86-12.35,23.71-.26A96.94,96.94,0,0,1,83,326.83l23-.25,3.14,12.27h0c1.54,4.46-2,9.19-10.57,12.72-14.71,6-39.08,6.29-54.43.6C35.16,348.83,31.44,344.18,32.93,339.69Z" style="opacity:0.2"></path><path d="M46,319.37c14-5.26,36.36-5.51,50-.55s13.72,13.23.2,18.48-35.89,5.5-50,.56S32,324.63,46,319.37Z" style="fill:#BA68C8"></path><path d="M40.43,328.69c0,.19.4.85,1.58,1.73a22.15,22.15,0,0,0,5.79,2.85c6.21,2.17,14.8,3.39,23.55,3.29s17.16-1.48,23.09-3.78a20,20,0,0,0,5.53-3c1.13-.93,1.43-1.62,1.43-1.79,0-.34-1.24-2.49-7.07-4.61-6-2.17-14.42-3.36-23.16-3.27s-17.31,1.48-23.48,3.81C41.89,326.1,40.45,328.25,40.43,328.69Z" style="fill:#BA68C8"></path><g style="opacity:0.5"><path d="M40.43,328.69c0,.19.4.85,1.58,1.73a22.15,22.15,0,0,0,5.79,2.85c6.21,2.17,14.8,3.39,23.55,3.29s17.16-1.48,23.09-3.78a20,20,0,0,0,5.53-3c1.13-.93,1.43-1.62,1.43-1.79,0-.34-1.24-2.49-7.07-4.61-6-2.17-14.42-3.36-23.16-3.27s-17.31,1.48-23.48,3.81C41.89,326.1,40.45,328.25,40.43,328.69Z"></path></g><path d="M42,330.42a22.15,22.15,0,0,0,5.79,2.85c6.21,2.17,14.8,3.39,23.55,3.29s17.16-1.48,23.09-3.78a20,20,0,0,0,5.53-3,20.51,20.51,0,0,0-5.6-2.88c-6-2.17-14.42-3.36-23.16-3.26s-17.31,1.48-23.48,3.8A21.89,21.89,0,0,0,42,330.42Z" style="fill:#BA68C8"></path><g style="opacity:0.2"><path d="M42,330.42a22.15,22.15,0,0,0,5.79,2.85c6.21,2.17,14.8,3.39,23.55,3.29s17.16-1.48,23.09-3.78a20,20,0,0,0,5.53-3,20.51,20.51,0,0,0-5.6-2.88c-6-2.17-14.42-3.36-23.16-3.26s-17.31,1.48-23.48,3.8A21.89,21.89,0,0,0,42,330.42Z"></path></g><g style="opacity:0.5"><path d="M56.08,330.58c-2.06-1.13-4.55-1.58-5.57-1s-.17,2,1.89,3.14,4.55,1.6,5.56,1S58.13,331.72,56.08,330.58Z"></path></g><path d="M110.27,420.67c0,3.68-3.6,7.39-10.93,10.27-14.65,5.77-38.92,6-54.21.6-7.63-2.71-11.47-6.34-11.53-10l-2.75-35.83c0,3.9,4.13,7.75,12.24,10.64,16.22,5.77,42,5.49,57.54-.64,7.78-3.06,11.64-7,11.6-10.9Z" style="fill:#BA68C8"></path><g style="opacity:0.35000000000000003"><path d="M110.27,420.67c0,3.68-3.6,7.39-10.93,10.27-14.65,5.77-38.92,6-54.21.6-7.63-2.71-11.47-6.34-11.53-10l-2.75-35.83c0,3.9,4.13,7.75,12.24,10.64,16.22,5.77,42,5.49,57.54-.64,7.78-3.06,11.64-7,11.6-10.9Z" style="fill:#fff"></path></g><path d="M85,423.07c1.35-1.85,2.08-4.12,3.16-6.12a18,18,0,0,1,9.29-8.36,1.17,1.17,0,0,1,1.46.51c2.09,4.13.9,9.95-3.27,14.22s-9.87,5.58-14,3.68c-.24-.11-.31-.57-.12-.68A11.83,11.83,0,0,0,85,423.07Z" style="fill:#37474f"></path><path d="M95.18,407.48a19.79,19.79,0,0,0-5.87,3.7,18.08,18.08,0,0,0-4.22,5.9c-1.53,3.36-3,5.45-5.3,7.19a1.15,1.15,0,0,1-1.62-.23c-2.8-4.14-1.78-10.54,2.72-15.14,4.26-4.35,10.23-5.66,14.42-3.48A1.15,1.15,0,0,1,95.18,407.48Z" style="fill:#37474f"></path></g></g></g><g id="check-box"><g id="check-box"><g id="Box"><path d="M187.81,372a4.15,4.15,0,0,0-1.9-3.27l-1.54-.89a4.13,4.13,0,0,0-3.78,0l-38.9,22.42a4.2,4.2,0,0,0-1.89,3.28v46.25a4.19,4.19,0,0,0,1.89,3.28l1.54.89a4.19,4.19,0,0,0,3.78,0l38.9-22.43a4.17,4.17,0,0,0,1.9-3.27Z" style="fill:#fafafa"></path><path d="M182.48,368.07a3.17,3.17,0,0,1,1.55.36l1.54.89a3.47,3.47,0,0,1,1.55,2.68v46.26a3.48,3.48,0,0,1-1.55,2.68l-38.9,22.43a3.52,3.52,0,0,1-3.1,0l-1.54-.89a3.5,3.5,0,0,1-1.55-2.69V393.54a3.47,3.47,0,0,1,1.55-2.68l38.9-22.43a3.23,3.23,0,0,1,1.55-.36m0-.69a3.78,3.78,0,0,0-1.89.46l-38.9,22.42a4.2,4.2,0,0,0-1.89,3.28v46.25a4.19,4.19,0,0,0,1.89,3.28l1.54.89a4.19,4.19,0,0,0,3.78,0l38.9-22.43a4.17,4.17,0,0,0,1.9-3.27V372a4.15,4.15,0,0,0-1.9-3.27l-1.54-.89a3.75,3.75,0,0,0-1.89-.46Z" style="fill:#BA68C8"></path><path d="M139.8,439.79a4.19,4.19,0,0,0,1.89,3.28l1.54.89a4.25,4.25,0,0,0,3.46.15c-.89.34-1.57-.17-1.57-1.24V396.61a3.87,3.87,0,0,1,.55-1.86l-5.32-3.08a3.94,3.94,0,0,0-.55,1.87Z" style="fill:#BA68C8"></path><path d="M187.74,371.46c-.22-.8-1-1.06-1.82-.55L147,393.34a3.7,3.7,0,0,0-1.33,1.41l-5.32-3.07a3.78,3.78,0,0,1,1.33-1.41l38.9-22.43a4.19,4.19,0,0,1,3.78,0l1.55.89A4.15,4.15,0,0,1,187.74,371.46Z" style="fill:#BA68C8"></path><path d="M187.74,371.46c-.22-.8-1-1.06-1.82-.55L147,393.34a3.7,3.7,0,0,0-1.33,1.41l-5.32-3.07a3.78,3.78,0,0,1,1.33-1.41l38.9-22.43a4.19,4.19,0,0,1,3.78,0l1.55.89A4.15,4.15,0,0,1,187.74,371.46Z" style="fill:#fff;opacity:0.4"></path></g><path id="Check" d="M162.84,421.22a22.45,22.45,0,0,0-7.45-7.88l-2.77,7.13a13.22,13.22,0,0,1,9.66,8.56l3.1-1.79s1.31-17.81,13.79-36.76l-6.11-7.66S163.17,402.38,162.84,421.22Z" style="fill:#455a64"></path></g></g><g id="character"><g id="character"><g id="Bottom"><path d="M256.7,427.5c.08,4.13.4,10.13,0,11.84s-7.27,3.38-12.65,3.63-11.84-.59-12.23,3.19,3,6.34,5.45,7.48c4.19,1.94,8.87,1.52,13,.91s6.3-.16,10.65.9,6.79.41,8.65-.52c2.75-1.38,2-6.08,1.05-9.14s-.87-5.86-.5-10.11,1.57-10.45,1.57-10.45Z" style="fill:#ffbda7"></path><path d="M270.6,445.79s0,1.3-2.82,1.89-7.49.44-10.77.65c-4.91.31-8.63.88-14.27,0-4.94-.77-4.73-4.69-.3-5.31h0c-5,.09-10.27-.25-10.62,3.15-.39,3.81,3,6.34,5.45,7.48,4.19,1.94,8.87,1.52,13,.91s6.3-.16,10.65.9,6.79.41,8.65-.52C272.3,453.55,271.57,448.85,270.6,445.79Z" style="fill:#455a64"></path><path d="M307.77,417.27c2.3,3.35,6.11,9.67,6.63,11.25s1,7.46,0,9.2c-1.44,1.06-3.7,1.66-5.63,2.62-2.79,1.37-3.39,3.66-1.57,5.41,2.54,2.44,6.65,2.72,9.13,2.58,3.6-.55,3.85-4.59,4.37-8.17s-.07-10.61,2.64-14.93,7.52-4.72,8.15-3.28c-.3-2.18-1.5-2.24-4.1-3.71s-4.86-1.43-6.3-4.84c-1.7-4-3.25-8.86-3.25-8.86Z" style="fill:#ffbda7"></path><path d="M312.83,448.39c2.6.44,4.41.44,9-1.82,4-1.95,5-2.77,5.58-3.85,1-1.7-.08-5.92.76-9.55a37.57,37.57,0,0,1,2.62-7.42c.9-2.21.83-3.16.69-3.8-.31-1.38-3.12-1.55-5.79,0s-4.4,4.5-5.28,11.54S320.9,448.23,312.83,448.39Z" style="fill:#263238"></path><path d="M331.49,422c-.3-2.18-1.05-2.5-3.65-4-1-.55-1.92-.94-2.8-1.39h0c-2.52-.47-6.48,1.51-6.69,6.79s.71,12-.88,14.46c-1.35,2.12-3.58,2-3.07-.12-3.56,1.31-4.79,1.33-6.8,2.43-2.33,1.27-3.11,4.6-1,5.92a13.75,13.75,0,0,0,9.69,2.26c3.6-.55,3.85-4.59,4.37-8.17s-.07-10.61,2.64-14.93S330.86,420.51,331.49,422Z" style="fill:#455a64"></path><path d="M308.45,419.37s-13.1-19.24-20.1-31.71c-5.18-9.21-5.65-11-6.92-17-2.72-13-3.36-16-3.36-16L274,380.8c.64,2.84,2,8.47,2,11.78a129.57,129.57,0,0,1-1.57,19.28,200.5,200.5,0,0,1-4,21.38c-1,.71-4,.84-6.53.76a30.1,30.1,0,0,1-7.35-1.37s-2.14-30.84-2.64-39.32c-.6-10.18-.8-14.18-1.12-19.77-.51-8.9-1.72-21.79-1.37-38.14.68-32.54,7.93-47.39,7.93-47.39l36.73-5.1c3.05,11,9.38,12.23,10.05,27.2.15,3.39-1.65,10.13-1.71,15.4-.19,17.1-1.72,43.95-1.72,43.95,4,3.72,7,7.08,9.77,15.71,1.69,5.23,5.44,18.49,7,23.87C314.89,409,308.39,417.27,308.45,419.37Z" style="fill:#455a64"></path><path d="M272.38,305.53h1c0,6,.41,12.78,1.1,13.42,1.2,1.1,6,2.57,7.19,2.45s2.27-.87,4.63-3.26c1.66-1.68,1.69-2.88,1.74-5.49,0-1-.4-6.4-.41-7.79h.93c.23,1.69.48,6.83.46,7.8-.05,2.63-.08,4.22-2,6.19-2.56,2.58-3.78,3.42-5.24,3.56a3.53,3.53,0,0,1-.63,0c-2-.2-6.11-1.6-7.3-2.69C272.46,318.46,272.37,308.54,272.38,305.53Z" style="fill:#37474f"></path><path d="M266.72,296l-1-.23c-1.76,7.46-4.82,25.6-5.73,32.34l-.13,1.06c-1.9,14.67-2.06,28.33-1.56,43.73.55,17.24,1.64,46.82,2.15,60.73l1,.16c-.52-13.82-1.82-43.6-2.17-60.93C258.59,337,262,320,266.72,296Z" style="fill:#37474f"></path><path d="M305.73,314.86a5.45,5.45,0,0,1-2.16,1.27h0c-1.55.07-4.11-2.14-4.84-3.8a11.18,11.18,0,0,1-.62-3,53.65,53.65,0,0,0-1.06-6.56l1-.06a53.27,53.27,0,0,1,1,6.5,10.23,10.23,0,0,0,.54,2.73c.61,1.41,2.86,3.25,3.9,3.21h0a8,8,0,0,0,2.45-1.94C305.9,313.68,305.81,314.36,305.73,314.86Z" style="fill:#37474f"></path><path d="M311.53,414.19l.7-.78c-6.27-10.93-19.74-34.85-20.94-40.66-1.54-7.43-4.19-32.35-4.29-45.75h-1c.11,13.46,2.77,38.49,4.32,46C291.59,379,305.3,403.34,311.53,414.19Z" style="fill:#37474f"></path><path d="M291.58,297.58c2.49,4,4.74,16.19,1.53,23.82l-.91-.4c3.07-7.26.77-19.67-1.59-23.42Z" style="fill:#37474f"></path><path d="M278.07,354.64l4-27.44s10.33-1.44,11.75-11.13c.25,5.75-2,10.69-8.46,13.34l-5.12,25.33,1.2,15.89Z" style="fill:#37474f"></path></g><g id="Top"><path d="M292.94,236.61c5.91-1.31,9.7-1.35,13,3.34s1.6,13.23-1.73,16.7S292.94,236.61,292.94,236.61Z" style="fill:#BA68C8"></path><path d="M292.94,236.61c5.91-1.31,9.7-1.35,13,3.34s1.6,13.23-1.73,16.7S292.94,236.61,292.94,236.61Z" style="fill:#fff;opacity:0.35000000000000003"></path><path d="M269.62,249.81s-24.93-5-26.36-6c-1.21-.88-1.6-2.31-2.2-3.59a16.63,16.63,0,0,0-2.76-4c-.71-.8-1.56-1.48-2.22-2.31s-.87-1.73-1.46-2.51-1.4-.22-1.78.53a4.5,4.5,0,0,0,.08,3.4c.19.47.35,1,.54,1.43a7.15,7.15,0,0,1,.51,1.33,1.11,1.11,0,0,1-.05.72c-.27.44-1.11.14-1.48,0a20.08,20.08,0,0,1-6.71-4.45c-.82-.83-1.46-1.76-2.34-2.53a10.61,10.61,0,0,0-2.69-1.79,3.7,3.7,0,0,0-2.11-.37c-1.08.4.12,2.11.4,2.69a3.89,3.89,0,0,1,.5,2.08,3.26,3.26,0,0,0,.74,2.39,6.38,6.38,0,0,1,1.36,2.43,7.69,7.69,0,0,1,0,1,4.78,4.78,0,0,0,1.15,2.66,3.81,3.81,0,0,1,1,2.5c.22,2.1,2.43,3.66,4.07,4.67a28.38,28.38,0,0,0,6.07,2.68c1.13.37,2.23.83,3.37,1.17s2.08.5,3.07.89c2.37.9,20.73,7.89,28.05,9.92" style="fill:#ffbda7"></path><g id="puzzle-piece"><path d="M223.47,230.64a1.57,1.57,0,0,0-.75-.21c.06-.87.12-1.78.19-2.73.19-2.7.4-5.76.54-8.95l-8.12-4.69c-1.44.83-2.83,1.6-4.16,2.33-5.09,2.8-9.1,5-10.37,7.77a5.64,5.64,0,0,0,.37,5.41,6,6,0,0,1,1,3.4c0,.18,0,.37,0,.56a1.52,1.52,0,0,0-.32-.54,1.33,1.33,0,0,0-.3-.23c-1.42-.8-8-4.63-8.12-4.69-1.43-.8-4.5,1.05-9,3.75-1.28.77-2.68,1.62-4.2,2.5h0l-.1,2.38c-.43,9.84-.74,16.94.81,18.32l.16.13,8.17,4.71a1,1,0,0,0,.89,0c-.7,2.18-1.79,3.95-3,4.65a2.44,2.44,0,0,1-2.57,0c-1-.61-2.62-.57-3.65,1.54-1.76,3.6-1.48,13.76-1.07,23.09l8.12,4.69c1.47-.84,2.85-1.6,4.18-2.33,4.83-2.66,8.64-4.75,9.91-7.51a5.62,5.62,0,0,0-.38-5.41,6.09,6.09,0,0,1-1-3.4,5.54,5.54,0,0,1,.05-.56,1.44,1.44,0,0,0,.33.55,1,1,0,0,0,.25.2c1.37.82,8,4.64,8.13,4.69,1.38.82,4.49-1.08,9.05-3.87,1.4-.86,3-1.82,4.66-2.8-.11-2.42-.25-4.65-.39-6.81-.46-7.35-.79-12.66.65-15.61,1.25-2.55,3.08-2.64,4.27-1.95a2.15,2.15,0,0,0,2.28,0c1.84-1.06,3.34-5,3.34-8.76,0-2.55-.68-4.38-1.7-5C231.1,235,224.47,231.24,223.47,230.64Z" style="fill:#455a64"></path><path d="M195.2,254.08a7.75,7.75,0,0,0-2.57,3,6.71,6.71,0,0,1-2.56,2.83c-.7,2.18-1.78,3.95-3,4.65a2.44,2.44,0,0,1-2.57,0c-1-.61-2.62-.57-3.65,1.54l8.13,4.69c1-2.11,2.61-2.15,3.65-1.54a2.44,2.44,0,0,0,2.57,0c2.1-1.21,3.81-5.59,3.81-9.77S197.3,252.87,195.2,254.08Z" style="fill:#263238"></path><path d="M200.43,243.34c0,3.23,2.2,4.59,4.91,3a11.07,11.07,0,0,0,4.91-8.71,6,6,0,0,0-1-3.4,5.64,5.64,0,0,1-.46-5.19l-8.12-4.69a5.67,5.67,0,0,0,.45,5.19,6,6,0,0,1,1,3.4c0,.17,0,.36,0,.53v0c.49,1.25,0,3.54-.69,5.3A12.67,12.67,0,0,0,200.43,243.34Z" style="fill:#37474f"></path><path d="M210.49,269.52c0-3.24-2.2-4.6-4.91-3a11.1,11.1,0,0,0-4.87,8.18,2.08,2.08,0,0,0,.32.51,1.16,1.16,0,0,0,.25.2c1.33.79,7.52,4.34,8.09,4.66a1,1,0,0,1-.21-.17c-1-1-.42-3.78.37-5.84A12.9,12.9,0,0,0,210.49,269.52Z" style="fill:#263238"></path><path d="M202.08,233.52a1.47,1.47,0,0,0-.14-.28,1.3,1.3,0,0,1,.14.26Z" style="fill:#fafafa"></path><path d="M201.94,233.24a1.47,1.47,0,0,1,.14.28v0a1.3,1.3,0,0,0-.14-.26Z" style="fill:#e0e0e0"></path><path d="M187.91,293.84,189,270.75l-8.12-4.69c-1.76,3.6-1.48,13.76-1.07,23.09l8.12,4.69Z" style="fill:#37474f"></path><path d="M180.86,255l.16.13,8.17,4.71L188.27,239l-8.12-4.69-.1,2.38C179.62,246.55,179.31,253.65,180.86,255Z" style="fill:#37474f"></path><path d="M188.38,293c-.39-9-.61-18.63,1.05-22,.51-1.05,1.2-1.6,2-1.6a1.89,1.89,0,0,1,1,.27,3,3,0,0,0,1.53.44,3.06,3.06,0,0,0,1.54-.44c2.28-1.31,4.06-5.79,4.06-10.2,0-3.69-1.3-6.17-3.25-6.17a2.65,2.65,0,0,0-1.31.38,8.23,8.23,0,0,0-2.75,3.14c-.9,1.58-2,2.68-2.59,2.68a.42.42,0,0,1-.29-.12c-1.38-1.23-1-9-.65-17.93l.09-2.11c1.23-.71,2.35-1.38,3.39-2l.6-.36c3.58-2.16,6.41-3.87,7.9-3.87a1,1,0,0,1,.75.27c.65.68.46,2.86-.48,5.3a13.28,13.28,0,0,0-1,4.7c0,2.54,1.29,4.18,3.28,4.18a4.73,4.73,0,0,0,2.38-.72,11.61,11.61,0,0,0,5.16-9.14A6.47,6.47,0,0,0,209.7,234a5.16,5.16,0,0,1-.32-4.92c1.19-2.61,5.13-4.78,10.11-7.52,1.12-.61,2.26-1.24,3.42-1.9-.14,2.81-.32,5.5-.5,8-.53,7.44-.88,12.36.65,13.72a1.64,1.64,0,0,0,1.13.45c1.68,0,3.29-2.48,3.91-3.55a6.68,6.68,0,0,1,2.1-2.48,1.29,1.29,0,0,1,.65-.2c.93,0,1.93,1.64,1.93,4.68,0,3.55-1.41,7.36-3.09,8.33a1.64,1.64,0,0,1-1.77,0,3.18,3.18,0,0,0-1.59-.44c-.79,0-2.28.34-3.39,2.6-1.5,3.07-1.16,8.44-.7,15.86.14,2.07.27,4.2.38,6.5-1.61.94-3.11,1.86-4.41,2.66l-.09.05c-3.6,2.2-6.45,3.93-7.92,3.93a.84.84,0,0,1-.68-.24c-.66-.68-.46-2.86.48-5.31a13.36,13.36,0,0,0,1-4.69c0-2.54-1.28-4.18-3.27-4.18a4.79,4.79,0,0,0-2.39.72,11.61,11.61,0,0,0-5.17,9.13,6.53,6.53,0,0,0,1.05,3.68,5.13,5.13,0,0,1,.34,4.92c-1.2,2.6-4.92,4.65-9.64,7.25Z" style="fill:#fafafa"></path><path d="M222.37,220.52c-.13,2.47-.3,4.85-.46,7.11-.6,8.52-.82,12.67.82,14.14a2.18,2.18,0,0,0,1.46.57c1.88,0,3.52-2.38,4.34-3.8a6,6,0,0,1,1.91-2.29.84.84,0,0,1,.41-.14c.6,0,1.43,1.46,1.43,4.18,0,3.69-1.49,7.12-2.84,7.9a1.23,1.23,0,0,1-.62.18,1.38,1.38,0,0,1-.66-.2,3.64,3.64,0,0,0-1.83-.51c-.9,0-2.61.38-3.84,2.88-1.55,3.19-1.22,8.61-.75,16.12.13,1.92.26,4,.37,6.18-1.49.87-2.87,1.72-4.16,2.51l-.09,0c-3.4,2.07-6.33,3.86-7.66,3.86-.23,0-.3-.06-.32-.09-.43-.44-.33-2.4.59-4.78a14,14,0,0,0,1-4.87c0-2.8-1.51-4.68-3.77-4.68a5.29,5.29,0,0,0-2.64.78,12,12,0,0,0-5.42,9.57,7.08,7.08,0,0,0,1.14,4,4.58,4.58,0,0,1,.29,4.42c-1.12,2.45-4.79,4.47-9.42,7l-.06,0-2.77,1.54c-.29-6.84-.62-17.58,1-21,.29-.6.8-1.32,1.54-1.32a1.46,1.46,0,0,1,.71.2,3.44,3.44,0,0,0,1.78.51,3.59,3.59,0,0,0,1.79-.5c2.42-1.4,4.31-6.07,4.31-10.64,0-4-1.5-6.67-3.75-6.67a3.19,3.19,0,0,0-1.56.44,9,9,0,0,0-2.94,3.33c-1,1.71-1.88,2.42-2.11,2.43-1.2-1.06-.83-9.43-.48-17.53l.08-1.83c1.12-.65,2.15-1.27,3.16-1.88l.6-.36c3.37-2,6.29-3.8,7.64-3.8.28,0,.36.08.39.11.43.45.32,2.4-.58,4.78a13.74,13.74,0,0,0-1,4.88c0,2.8,1.52,4.68,3.78,4.68a5.26,5.26,0,0,0,2.63-.78,12,12,0,0,0,5.41-9.58,7,7,0,0,0-1.13-4,4.63,4.63,0,0,1-.29-4.43c1.13-2.46,5-4.59,9.94-7.31l2.6-1.44m1.08-1.77c-1.44.83-2.83,1.6-4.16,2.33-5.09,2.8-9.1,5-10.37,7.77a5.64,5.64,0,0,0,.37,5.41,6,6,0,0,1,1,3.4,11.07,11.07,0,0,1-4.91,8.71,4.3,4.3,0,0,1-2.13.65c-1.64,0-2.78-1.36-2.78-3.68a12.67,12.67,0,0,1,1-4.52c.78-2,1.35-4.81.37-5.83a1.46,1.46,0,0,0-1.11-.42c-1.63,0-4.4,1.67-8.16,3.94-1.28.77-2.68,1.62-4.2,2.5h0l-.1,2.38c-.43,9.84-.74,16.94.81,18.32a1,1,0,0,0,.63.25c1,0,2.18-1.45,3-2.93a7.75,7.75,0,0,1,2.57-3,2.16,2.16,0,0,1,1.06-.31c1.59,0,2.75,2.23,2.75,5.67,0,4.18-1.71,8.56-3.81,9.77a2.62,2.62,0,0,1-1.29.37,2.5,2.5,0,0,1-1.28-.37,2.37,2.37,0,0,0-1.21-.34,2.79,2.79,0,0,0-2.44,1.88c-1.76,3.6-1.48,13.76-1.07,23.09,1.47-.84,2.85-1.6,4.18-2.33,4.83-2.66,8.64-4.75,9.91-7.51a5.62,5.62,0,0,0-.38-5.41,6.09,6.09,0,0,1-1-3.4,11.06,11.06,0,0,1,4.92-8.7,4.36,4.36,0,0,1,2.14-.65c1.64,0,2.77,1.36,2.77,3.68a12.9,12.9,0,0,1-1,4.51c-.79,2.06-1.36,4.82-.37,5.84a1.37,1.37,0,0,0,1,.39c1.62,0,4.43-1.72,8.27-4.06,1.4-.86,3-1.82,4.66-2.8-.11-2.42-.25-4.65-.39-6.81-.46-7.35-.79-12.66.65-15.61.84-1.72,2-2.32,2.94-2.32a2.7,2.7,0,0,1,1.33.37,2.24,2.24,0,0,0,1.16.34,2.18,2.18,0,0,0,1.12-.32c1.84-1.06,3.34-5,3.34-8.76,0-3.13-1-5.18-2.43-5.18a1.85,1.85,0,0,0-.91.27,7,7,0,0,0-2.28,2.66c-.95,1.66-2.32,3.3-3.47,3.3a1.19,1.19,0,0,1-.8-.32c-1.34-1.2-1-6.28-.48-13.32.19-2.7.4-5.76.54-8.95Z" style="fill:#e0e0e0"></path></g><path d="M266.75,205.32a5.69,5.69,0,0,1-.16-5.65c.83-1.76,2.45-3.57,6.93-5.49,5.32-2.29,19.84-3.82,25.4,5.9.83,1.46-14.35,27.14-14,32.6-3.33-4-14.27-18.19-14.27-18.19-2.73-1.4-4.36-2.54-4.77-5.23A6.63,6.63,0,0,1,266.75,205.32Z" style="fill:#263238"></path><path d="M268.34,212.85s-4.24,5.94-3.86,6.48a19.61,19.61,0,0,0,2.69,2.06Z" style="fill:#f0997a"></path><path d="M273.87,201.87c-2.63,1-5,2.82-6.18,8.36-.31,1.45.69,3.53,0,5.44-2.82,8.17-.68,15.31.84,17,1,1.11,6.71,2,9.77,1.35,3.83-.78,12.25-3.88,16.56-9.48,5.07-6.58,6.8-15.79,2-19.89C290.07,198.86,276.68,200.77,273.87,201.87Z" style="fill:#ffbda7"></path><path d="M292.11,229l.48,8.3h0c4.61,2.7-4.93,6.21-15,1.88l-.73-7.48Z" style="fill:#ffbda7"></path><path d="M277.15,235.15c.19,1.92.38,4.79-2.6,5.58-2.8.75-6.3,1.21-10.71,2.86,0,0,14.87,2.51,23.21,1.14s9.78-6.74,9.78-6.74c-3-.41-4.25-.9-4.36-2.84Z" style="fill:#ffbda7"></path><path d="M268.86,232.86c1.27.83,4.17,1.59,8.2,1.31l-.18-2.07A21.73,21.73,0,0,1,273,233,14.13,14.13,0,0,1,268.86,232.86Z" style="fill:#f0997a"></path><path d="M313.7,204.33a4.2,4.2,0,0,0-4.09-2c0-2.85-2.61-5.28-5.44-5.58a8.91,8.91,0,0,0-7,2.8c-1.88-.49-8.22-1.89-12-1.36-13.22,1.9-15.23,5.79-15.3,6.42-.39,3.62,1.8,4.92,3.37,5.75a7.83,7.83,0,0,0-1,4.23c.23,1.87.83,3.42,2.59,4.16,1.09.45,1.45,0,1.9-.86.65-1.2,1.49-3.06,4.13-2.5,3,.63,3.51,5.3,1.52,8.19a4.5,4.5,0,0,1-3.62,2.07,2.78,2.78,0,0,1-2-1.13s-.08,4,4.92,6.79c0,0,5,3.3,10.47,2.1a106.08,106.08,0,0,0,7.4-7.89,21.68,21.68,0,0,0,2.25-3.51,7.63,7.63,0,0,0,6.65-.65,6.47,6.47,0,0,0,2.19-8.26,2.16,2.16,0,0,0,2.42-3.46C314.54,208.69,314.6,205.8,313.7,204.33Z" style="fill:#263238"></path><path d="M305.69,246.85c-1.38-6.74-5-8.21-6.66-8.5l-4.21-.73c0,.8.57,2.71-6.88,3.64-4.8.6-13.07-.63-13.07-.63a81.36,81.36,0,0,0-9.41,2.11c-4.84,1.38-7.4,7-10.55,14.48-2.5,5.89-1.56,11.89,2.89,16.27a45.24,45.24,0,0,1-.27,11c-.55,4.45-1.48,6.62-.1,8.77,0,0,5.7,4.58,19.37,4.08,17.53-.65,23.18-5.76,23.18-5.76,1.51-1.06-.56-5.75-.32-8.33C300.11,274.75,308.69,261.43,305.69,246.85Z" style="fill:#BA68C8"></path><path d="M226.79,264.54s-24.93-5-26.35-6c-1.21-.88-1.6-2.31-2.2-3.59a16.63,16.63,0,0,0-2.76-4c-.71-.8-1.56-1.48-2.22-2.31s-.87-1.73-1.46-2.51-1.4-.22-1.78.53a4.5,4.5,0,0,0,.08,3.4c.19.47.35,1,.54,1.43a7.15,7.15,0,0,1,.51,1.33,1.11,1.11,0,0,1-.05.72c-.27.44-1.11.14-1.49,0a20.28,20.28,0,0,1-6.71-4.45c-.81-.83-1.45-1.76-2.33-2.53a10.79,10.79,0,0,0-2.69-1.79,3.79,3.79,0,0,0-2.11-.38c-1.08.41.12,2.12.4,2.7a4,4,0,0,1,.5,2.08,3.26,3.26,0,0,0,.74,2.39,6.42,6.42,0,0,1,1.36,2.42,7.85,7.85,0,0,1,0,1,4.74,4.74,0,0,0,1.15,2.66,3.86,3.86,0,0,1,1,2.5c.22,2.1,2.42,3.66,4.07,4.67a28.53,28.53,0,0,0,6.06,2.68c1.14.37,2.24.83,3.38,1.17s2.07.5,3.07.88c2.37.91,20.73,7.9,28,9.93,3.61,1,4.59,1.89,9.67-.76,9.14-4.77,18.11-8,23.37-11.26,7.21-4.42,10.28-6.9,11.26-11.6,2.27-10.9-2.64-13.57-2.64-13.57-6.26.15-8.93,1.52-16.52,6.57C242.45,254.3,226.79,264.54,226.79,264.54Z" style="fill:#ffbda7"></path><path d="M270.3,241.51c-3.06.29-9.07-2.56-14,2.13s-29.23,20.26-29.23,20.26l-12.86-2s-2.7,1.68-4.24,6.33.5,6.51.5,6.51,11.38,4.39,15.78,5.39,4.35,1.17,9.66-1.35,28.53-13.71,28.53-13.71S274.36,259.81,270.3,241.51Z" style="fill:#BA68C8"></path><path d="M270.3,241.51c-3.06.29-9.07-2.56-14,2.13s-29.23,20.26-29.23,20.26l-12.86-2s-2.7,1.68-4.24,6.33.5,6.51.5,6.51,11.38,4.39,15.78,5.39,4.35,1.17,9.66-1.35,28.53-13.71,28.53-13.71S274.36,259.81,270.3,241.51Z" style="fill:#fff;opacity:0.35000000000000003"></path></g></g></g></svg>