<svg xmlns="http://www.w3.org/2000/svg" width="163" height="33" viewBox="0 0 162.99999 32.999998"><g fill="#35be70" fill-rule="evenodd"><path d="M18.977 32.66L1.02 1.67S.46.667 1.254.667h20.575s.81.073.256 1.001c-.554.928-6.738 11.707-6.765 11.754 0 0-.01.026-.04.027-.03 0-.04-.026-.04-.026L12.447 8.23s-.558-.883-.042-.883h2.629l1.669-2.386s.56-1.06-.857-1.06H6.544l14.09 25.184.041 1.237z"/><path d="M22.805 26.125l1.546-2.342V22.68l-3.307-5.42-.014-1.031 4.976-7.998s.428-.883-.318-.883h-3.28l-5.346 9.256z"/><path d="M26.48 19.895l-1.611-2.621.108-1.356 6.345-10.957s.56-1.06-.458-1.06h-5.848s-.812.047-.147-1.092l.664-1.14.546-1h10.51s1.289-.163.521 1c-.768 1.163-10.63 18.226-10.63 18.226z"/></g><text y="149.727" x="216.45" style="line-height:125%" font-weight="400" font-size="40" font-family="sans-serif" letter-spacing="0" word-spacing="0" fill="#3a4763" transform="matrix(.19996 0 0 .21153 -3.128 -8.076)"><tspan style="line-height:125%;-inkscape-font-specification:'Lato, Heavy';text-align:start" y="149.727" x="216.45" font-weight="900" font-size="80" font-family="Lato-Regular">PROXYSELLER</tspan></text></svg>